<svg width="549" height="550" viewBox="0 0 549 550" fill="none" xmlns="http://www.w3.org/2000/svg">
<ellipse cx="274.501" cy="275" rx="274.501" ry="275" fill="#C6F0AC" fill-opacity="0.75"/>
<g clip-path="url(#clip0_3418_2398)">
<mask id="mask0_3418_2398" style="mask-type:luminance" maskUnits="userSpaceOnUse" x="145" y="138" width="257" height="331">
<path d="M401.448 138.34H145.1V468.511H401.448V138.34Z" fill="white"/>
</mask>
<g mask="url(#mask0_3418_2398)">
<path d="M364.58 399.533C385.283 360.793 361.442 293 347.639 262.562H360.815C377.432 283.817 386.101 297.785 397.831 334.506C400.572 343.088 404.732 369.786 395.949 387.081C388.923 400.916 372.108 401.147 364.58 399.533Z" fill="#499136"/>
<path d="M180.958 399.499C160.714 358.87 184.026 287.77 197.522 255.847H184.639C168.391 278.139 159.914 292.79 148.445 331.301C145.764 340.302 141.697 368.302 150.285 386.44C157.156 400.95 173.597 401.192 180.958 399.499Z" fill="#499136"/>
<path d="M347.287 420.128C394.161 394.864 368.523 300.317 349.665 255.847H272.414H195.757C176.708 300.784 150.804 395.961 198.086 420.138C198.829 420.518 199.323 421.247 199.323 422.042V460.068C199.323 464.713 203.333 468.48 208.278 468.48H223.969C231.244 468.48 238.494 465.304 241.037 458.901C242.852 454.327 243.771 449.429 244.367 443.426C244.492 442.17 245.741 441.28 247.057 441.527L249.674 442.018C264.011 444.711 278.772 444.741 293.122 442.104L296.329 441.514C297.641 441.273 298.881 442.16 299.03 443.409C299.743 449.382 301.206 454.479 303.902 459.566C307.046 465.502 314.007 468.48 321.066 468.48H337.144C342.09 468.48 346.1 464.713 346.1 460.068V422.008C346.1 421.232 346.571 420.515 347.287 420.128Z" fill="#61D243"/>
<path d="M272.581 446.098C318.64 446.098 355.979 404.261 355.979 352.652C355.979 301.043 318.64 259.206 272.581 259.206C226.521 259.206 189.182 301.043 189.182 352.652C189.182 404.261 226.521 446.098 272.581 446.098Z" fill="#ABF47D"/>
<g filter="url(#filter0_d_3418_2398)">
<path fill-rule="evenodd" clip-rule="evenodd" d="M170.066 193.142C170.066 196.43 170.81 199.602 172.191 202.589C162.529 209.546 157.014 218.016 157.014 227.85C157.014 256.124 209.608 284.25 274.487 284.25C339.366 284.25 389.349 257.86 389.349 229.585C390.192 219.79 385.29 211.168 376.086 203.981C377.912 200.595 378.907 196.946 378.907 193.142C378.907 175.411 357.285 161.037 330.613 161.037C310.786 161.037 293.748 168.98 286.309 180.341C282.422 180.199 278.478 180.126 274.487 180.126C270.492 180.126 266.544 180.192 262.652 180.323C255.207 168.972 238.178 161.037 218.361 161.037C191.689 161.037 170.066 175.411 170.066 193.142Z" fill="#61D243"/>
</g>
<path d="M334.666 207.471C342.706 207.391 347.048 207.829 354.29 209.546C354.462 209.587 354.749 209.474 354.87 209.376C367.206 199.426 370.139 182.325 356.194 173.611C355.227 173.007 354.19 172.455 353.082 171.951C340.456 166.208 323.081 166.066 310.377 171.727C309.888 171.945 309.414 172.172 308.955 172.409C292.764 180.766 295.257 200.703 309.931 210.444C310.035 210.514 310.222 210.562 310.358 210.533C320.889 208.248 326.224 207.596 334.666 207.471Z" fill="white"/>
<path d="M214.853 206.148C206.658 206.041 202.227 206.445 194.83 208.064C194.654 208.103 194.362 207.994 194.239 207.899C181.748 198.308 178.904 181.89 193.197 173.584C194.188 173.008 195.249 172.483 196.383 172.004C209.305 166.542 227.02 166.472 239.922 171.951C240.419 172.162 240.9 172.382 241.365 172.61C257.801 180.688 255.087 199.806 240.045 209.094C239.937 209.161 239.746 209.207 239.609 209.178C228.891 206.946 223.458 206.3 214.853 206.148Z" fill="white"/>
<path fill-rule="evenodd" clip-rule="evenodd" d="M329.034 205.351C340.791 205.351 350.321 198.818 350.321 190.76C350.321 187.236 348.499 184.003 345.464 181.482C346.465 182.537 347.046 183.796 347.046 185.148C347.046 188.867 342.648 191.882 337.222 191.882C331.795 191.882 327.397 188.867 327.397 185.148C327.397 181.428 331.795 178.413 337.222 178.413C339.195 178.413 341.03 178.812 342.569 179.498C338.891 177.418 334.175 176.168 329.034 176.168C317.278 176.168 307.748 182.701 307.748 190.76C307.748 198.818 317.278 205.351 329.034 205.351Z" fill="black" fill-opacity="0.8"/>
<path fill-rule="evenodd" clip-rule="evenodd" d="M222.025 204.27C233.781 204.27 243.311 198.787 243.311 190.74C243.311 187.22 241.489 183.992 238.455 181.474C239.455 182.528 240.037 183.785 240.037 185.135C240.037 188.849 235.638 191.86 230.212 191.86C224.786 191.86 220.387 188.849 220.387 185.135C220.387 181.421 224.786 178.41 230.212 178.41C232.185 178.41 234.021 178.808 235.56 179.493C231.881 177.416 227.166 176.168 222.025 176.168C210.268 176.168 200.738 182.692 200.738 190.74C200.738 198.787 210.268 204.27 222.025 204.27Z" fill="black" fill-opacity="0.8"/>
<g filter="url(#filter1_d_3418_2398)">
<path d="M358.616 222.644C329.809 225.88 302.412 228.93 273.923 222.644C249.046 226.625 207.089 226.269 191.533 222.644C193.696 303.594 353.458 307.451 359.496 226.592C359.593 225.294 359.496 223.937 358.616 222.644Z" fill="#ABF47D"/>
</g>
<path d="M178.882 165.181C183.758 150.832 189.981 146.634 209.381 138.542C210.048 138.264 210.906 138.274 211.561 138.564L212 138.758C236.107 149.407 243.78 152.797 243.29 160.436C243.283 160.545 243.051 160.568 242.942 160.489C227.141 149.112 199.465 151.822 183.012 162.75C181.799 163.555 180.545 164.41 179.233 165.318C179.085 165.421 178.834 165.322 178.882 165.181Z" fill="#333333"/>
<path d="M368.726 165.181C364.111 150.832 358.22 146.634 339.859 138.542C339.229 138.264 338.416 138.274 337.796 138.564L337.381 138.758C314.566 149.407 307.304 152.797 307.768 160.436C307.774 160.545 307.994 160.568 308.097 160.489C323.053 149.112 349.245 151.822 364.817 162.75C365.964 163.555 367.151 164.41 368.393 165.318C368.534 165.421 368.771 165.322 368.726 165.181Z" fill="#333333"/>
<path d="M373.539 369.997C372.178 382.116 370.46 388.222 365.511 399.879C379.664 401.57 392.531 397.06 397.678 381.837C383.561 383.291 380.479 379.339 373.539 369.997Z" fill="#417932" stroke="#417932" stroke-width="0.4"/>
<path d="M334.356 461.264C334.356 459.72 335.689 458.466 337.333 458.466C338.979 458.466 340.312 459.72 340.312 461.264V467.772C338.462 468.5 337.124 468.646 334.356 468.539V461.264Z" fill="#499136"/>
<path d="M322.442 461.264C322.442 459.72 323.775 458.466 325.42 458.466C327.065 458.466 328.399 459.72 328.399 461.264V468.539H322.442V461.264Z" fill="#499136"/>
<path d="M210.449 461.264C210.449 459.72 209.115 458.466 207.47 458.466C205.826 458.466 204.492 459.72 204.492 461.264V467.653C206.342 468.381 207.68 468.648 210.449 468.541V461.264Z" fill="#499136"/>
<path d="M222.363 461.264C222.363 459.72 221.03 458.466 219.385 458.466C217.739 458.466 216.406 459.72 216.406 461.264V468.539H222.363V461.264Z" fill="#499136"/>
<path d="M310.527 461.264C310.527 459.72 311.861 458.466 313.506 458.466C315.152 458.466 316.484 459.72 316.484 461.264V468.047C314.105 467.546 312.788 467.074 310.527 465.976V461.264Z" fill="#499136"/>
<path d="M234.277 461.264C234.277 459.72 232.944 458.466 231.298 458.466C229.653 458.466 228.32 459.72 228.32 461.264V467.979C230.7 467.477 232.017 466.966 234.277 465.868V461.264Z" fill="#499136"/>
<path d="M347.044 394.618C334.534 420.358 317.258 443.3 271.683 446.098C234.456 444.419 211.223 422.036 198.117 394.618C257.146 440.283 288.628 439.898 347.044 394.618Z" fill="#9EE075"/>
<path d="M310.706 460.646V465.682C306.508 463.789 304.628 461.48 302.365 456.17C300.413 451.029 299.619 448.115 298.791 442.74C298.454 442.101 298.187 441.862 297.6 441.621C333.162 425.655 345.979 408.067 355.384 365.521C367.643 365.945 370.787 360.326 373.255 345.377C375.141 371.256 373.358 383.054 366.107 400.214C360.945 409.284 357.564 414.032 347.639 419.798C346.531 420.523 346.138 421.134 345.852 422.597V444.979C334.787 452.473 328.142 456.009 313.684 458.407C312.104 458.544 311.458 459.003 310.706 460.646Z" fill="#5EBE45" stroke="#5EBE45" stroke-width="0.4"/>
<path d="M234.562 460.646V465.682C238.759 463.789 240.64 461.48 242.902 456.17C244.854 451.029 245.649 448.115 246.476 442.74C246.814 442.101 247.081 441.862 247.668 441.621C212.104 425.655 199.287 408.067 189.882 365.521C177.621 365.945 174.478 360.326 172.01 345.377C170.123 371.256 171.907 383.054 179.158 400.214C184.32 409.284 187.701 414.032 197.626 419.798C198.734 420.523 199.127 421.134 199.413 422.597V444.979C210.478 452.473 217.124 456.009 231.583 458.407C233.163 458.544 233.808 459.003 234.562 460.646Z" fill="#5EBE45" stroke="#5EBE45" stroke-width="0.4"/>
<path d="M171.025 369.997C172.285 382.025 173.876 388.084 178.459 399.654C165.353 401.333 153.439 396.857 148.674 381.748C161.745 383.191 164.6 379.268 171.025 369.997Z" fill="#417932" stroke="#417932" stroke-width="0.4"/>
<path d="M340.491 385.665C341.806 385.665 342.873 384.663 342.873 383.427C342.873 382.191 341.806 381.189 340.491 381.189C339.175 381.189 338.108 382.191 338.108 383.427C338.108 384.663 339.175 385.665 340.491 385.665Z" fill="#9EE075"/>
<path d="M201.096 385.665C202.412 385.665 203.479 384.663 203.479 383.427C203.479 382.191 202.412 381.189 201.096 381.189C199.78 381.189 198.713 382.191 198.713 383.427C198.713 384.663 199.78 385.665 201.096 385.665Z" fill="#9EE075"/>
<path d="M328.576 394.618C329.892 394.618 330.959 393.616 330.959 392.379C330.959 391.143 329.892 390.141 328.576 390.141C327.26 390.141 326.193 391.143 326.193 392.379C326.193 393.616 327.26 394.618 328.576 394.618Z" fill="#9EE075"/>
<path d="M211.818 394.618C213.134 394.618 214.201 393.616 214.201 392.379C214.201 391.143 213.134 390.141 211.818 390.141C210.502 390.141 209.436 391.143 209.436 392.379C209.436 393.616 210.502 394.618 211.818 394.618Z" fill="#9EE075"/>
<path d="M326.193 383.427C327.509 383.427 328.576 382.424 328.576 381.188C328.576 379.952 327.509 378.95 326.193 378.95C324.877 378.95 323.811 379.952 323.811 381.188C323.811 382.424 324.877 383.427 326.193 383.427Z" fill="#9EE075"/>
<path d="M382.19 236.822C383.506 236.822 384.573 235.82 384.573 234.584C384.573 233.348 383.506 232.346 382.19 232.346C380.874 232.346 379.808 233.348 379.808 234.584C379.808 235.82 380.874 236.822 382.19 236.822Z" fill="#499136"/>
<path d="M370.276 245.776C371.592 245.776 372.659 244.774 372.659 243.538C372.659 242.301 371.592 241.299 370.276 241.299C368.96 241.299 367.894 242.301 367.894 243.538C367.894 244.774 368.96 245.776 370.276 245.776Z" fill="#499136"/>
<path d="M367.893 234.584C369.209 234.584 370.276 233.582 370.276 232.346C370.276 231.11 369.209 230.107 367.893 230.107C366.577 230.107 365.51 231.11 365.51 232.346C365.51 233.582 366.577 234.584 367.893 234.584Z" fill="#499136"/>
<path d="M186.799 236.822C188.115 236.822 189.182 235.82 189.182 234.584C189.182 233.348 188.115 232.346 186.799 232.346C185.483 232.346 184.416 233.348 184.416 234.584C184.416 235.82 185.483 236.822 186.799 236.822Z" fill="#499136"/>
<path d="M174.885 245.776C176.201 245.776 177.268 244.774 177.268 243.538C177.268 242.301 176.201 241.299 174.885 241.299C173.569 241.299 172.502 242.301 172.502 243.538C172.502 244.774 173.569 245.776 174.885 245.776Z" fill="#499136"/>
<path d="M172.502 234.584C173.818 234.584 174.885 233.582 174.885 232.346C174.885 231.11 173.818 230.107 172.502 230.107C171.186 230.107 170.119 231.11 170.119 232.346C170.119 233.582 171.186 234.584 172.502 234.584Z" fill="#499136"/>
<path d="M211.818 384.546C213.134 384.546 214.201 383.544 214.201 382.308C214.201 381.072 213.134 380.07 211.818 380.07C210.502 380.07 209.436 381.072 209.436 382.308C209.436 383.544 210.502 384.546 211.818 384.546Z" fill="#9EE075"/>
<path d="M368.732 218.321C356.766 224.914 338.993 225.875 322.379 225.874C308.042 225.873 295.635 225.132 279.41 223.318C275.831 222.918 272.15 222.856 268.54 223.155C247.376 224.907 235.144 226.018 211.358 225.874C197.945 225.053 190.795 222.675 182.328 218.321" stroke="#499036" stroke-width="5" stroke-linecap="round"/>
</g>
</g>
<path d="M390.053 239.587C382.507 223.476 381.363 219.734 370.337 195.584C367.206 181.27 385.455 173.941 402.535 178.738C419.615 183.535 426.019 197.92 420.663 216.991C415.307 236.062 395.814 247.891 390.053 239.587Z" fill="#2A55C2"/>
<path d="M162.558 239.586C168.394 222.78 169.144 218.94 177.608 193.777C179.239 179.215 160.329 173.817 143.838 180.358C127.347 186.899 122.468 201.87 129.771 220.283C137.075 238.696 157.688 248.442 162.558 239.586Z" fill="#2A55C2"/>
<path d="M402.581 190.595C361.379 64.9218 197.514 49.5594 145.336 186.985C143.311 192.318 144.676 190.595 154.184 190.595C206.566 70.072 341.835 76.9389 393.205 190.595L402.581 190.595Z" fill="#2A55C2"/>
<path d="M299.093 256.828C327.896 285.994 393.371 271.704 396.345 226.128C396.462 224.338 397.214 224.999 393.968 226.216C389.066 267.534 331.133 282.385 301.353 256.325L299.093 256.828Z" fill="#2A55C2"/>
<path d="M299.314 266.498C295.174 264.381 293.535 259.31 295.652 255.17V255.17C297.769 251.031 302.84 249.392 306.979 251.509L318.311 257.304C321.303 258.834 322.488 262.5 320.958 265.492L318.833 269.646C317.303 272.638 313.637 273.823 310.645 272.293L299.314 266.498Z" fill="#2A55C2"/>
<path d="M317.731 256.989C321.028 258.535 322.447 262.462 320.901 265.759L319.352 269.061C317.806 272.358 313.879 273.778 310.582 272.232V272.232C309.633 271.787 309.225 270.657 309.67 269.708L315.207 257.901C315.652 256.952 316.782 256.544 317.731 256.989V256.989Z" fill="#02216E"/>
<path d="M147.664 223.323C151.087 213.464 151.528 211.211 156.493 196.448C157.45 187.905 146.356 184.738 136.681 188.576C127.006 192.413 124.144 201.196 128.428 211.999C132.713 222.801 144.807 228.519 147.664 223.323Z" fill="#02216F"/>
<path d="M404.238 223.622C399.811 214.17 399.14 211.975 392.671 197.806C390.834 189.408 401.54 185.108 411.561 187.923C421.582 190.737 425.339 199.177 422.197 210.365C419.054 221.554 407.618 228.494 404.238 223.622Z" fill="#02216E"/>
<path d="M358.276 482.004C360.333 482.004 362 483.295 362 484.888C362 486.481 360.333 487.772 358.276 487.772L189.724 487.769C187.667 487.769 186 486.477 186 484.884C186 483.291 187.667 482 189.724 482L358.276 482.004Z" fill="#F0F0F0"/>
<defs>
<filter id="filter0_d_3418_2398" x="147.014" y="153.037" width="252.429" height="143.213" filterUnits="userSpaceOnUse" color-interpolation-filters="sRGB">
<feFlood flood-opacity="0" result="BackgroundImageFix"/>
<feColorMatrix in="SourceAlpha" type="matrix" values="0 0 0 0 0 0 0 0 0 0 0 0 0 0 0 0 0 0 127 0" result="hardAlpha"/>
<feOffset dy="2"/>
<feGaussianBlur stdDeviation="5"/>
<feComposite in2="hardAlpha" operator="out"/>
<feColorMatrix type="matrix" values="0 0 0 0 0 0 0 0 0 0 0 0 0 0 0 0 0 0 0.05 0"/>
<feBlend mode="normal" in2="BackgroundImageFix" result="effect1_dropShadow_3418_2398"/>
<feBlend mode="normal" in="SourceGraphic" in2="effect1_dropShadow_3418_2398" result="shape"/>
</filter>
<filter id="filter1_d_3418_2398" x="181.533" y="214.644" width="187.994" height="82.6875" filterUnits="userSpaceOnUse" color-interpolation-filters="sRGB">
<feFlood flood-opacity="0" result="BackgroundImageFix"/>
<feColorMatrix in="SourceAlpha" type="matrix" values="0 0 0 0 0 0 0 0 0 0 0 0 0 0 0 0 0 0 127 0" result="hardAlpha"/>
<feOffset dy="2"/>
<feGaussianBlur stdDeviation="5"/>
<feComposite in2="hardAlpha" operator="out"/>
<feColorMatrix type="matrix" values="0 0 0 0 0 0 0 0 0 0 0 0 0 0 0 0 0 0 0.05 0"/>
<feBlend mode="normal" in2="BackgroundImageFix" result="effect1_dropShadow_3418_2398"/>
<feBlend mode="normal" in="SourceGraphic" in2="effect1_dropShadow_3418_2398" result="shape"/>
</filter>
<clipPath id="clip0_3418_2398">
<rect width="256.348" height="330.172" fill="white" transform="translate(145.1 138.34)"/>
</clipPath>
</defs>
</svg>
