<svg width="36" height="47" viewBox="0 0 36 47" fill="none" xmlns="http://www.w3.org/2000/svg">
<path d="M21.4992 40.5368C21.2918 41.8494 20.5714 43.0258 19.4966 43.8072C18.4218 44.5886 17.0806 44.9111 15.768 44.7037C14.4555 44.4962 13.2791 43.7759 12.4976 42.7011C11.7162 41.6263 11.3937 40.285 11.6011 38.9725C11.8086 37.6599 12.5289 36.4835 13.6038 35.7021C14.6786 34.9206 16.0198 34.5981 17.3323 34.8056C18.6449 35.013 19.8213 35.7334 20.6028 36.8082C21.3842 37.883 21.7067 39.2242 21.4992 40.5368Z" fill="#850014"/>
<path fill-rule="evenodd" clip-rule="evenodd" d="M20.9555 11.4144C19.2976 11.1524 17.7965 11.4224 16.6825 11.9718C15.6095 12.5022 15.0064 13.221 14.7595 13.8846C14.4099 14.7685 13.7278 15.4801 12.8596 15.8669C11.9914 16.2536 11.0062 16.2847 10.1153 15.9534C9.22441 15.6221 8.49887 14.9548 8.09433 14.0947C7.68978 13.2347 7.63845 12.2503 7.95135 11.3528C8.95342 8.65524 11.04 6.65413 13.4719 5.45326C16.0027 4.20461 19.0311 3.75493 22.0896 4.2383C28.417 5.23828 34.3082 10.5065 33.2343 17.3015C32.6125 21.236 29.7711 24.0486 26.449 25.4259C25.5587 25.7944 24.5584 25.7941 23.6683 25.4251C22.7781 25.0561 22.071 24.3486 21.7025 23.4583C21.334 22.5679 21.3343 21.5677 21.7033 20.6775C22.0723 19.7874 22.7798 19.0803 23.6701 18.7118C25.2171 18.0711 25.9182 17.0533 26.0582 16.1674C26.2827 14.747 24.8974 12.0374 20.9555 11.4144Z" fill="#850014"/>
<path fill-rule="evenodd" clip-rule="evenodd" d="M19.444 20.9782C21.4236 21.2911 22.7787 23.1487 22.465 25.1333L21.8776 28.85C21.7272 29.8017 21.205 30.6545 20.4257 31.2211C19.6465 31.7876 18.6741 32.0214 17.7225 31.871C16.7709 31.7206 15.918 31.1984 15.3514 30.4191C14.7849 29.6399 14.5511 28.6675 14.7015 27.7159L15.2889 23.9992C15.6018 22.0196 17.4619 20.6649 19.444 20.9782Z" fill="#850014"/>
<path fill-rule="evenodd" clip-rule="evenodd" d="M28.4362 20.7155C28.6147 21.1583 28.7041 21.632 28.6993 22.1094C28.6946 22.5868 28.5958 23.0585 28.4086 23.4977C28.2215 23.9369 27.9495 24.3349 27.6084 24.6689C27.2673 25.0029 26.8637 25.2664 26.4207 25.4443L20.2343 27.9338C19.3406 28.2937 18.3405 28.2838 17.4541 27.9064C16.5677 27.5289 15.8675 26.8148 15.5076 25.9211C15.1477 25.0274 15.1576 24.0274 15.535 23.141C15.9125 22.2545 16.6266 21.5544 17.5203 21.1944L23.7095 18.7029C24.1522 18.5248 24.6256 18.4357 25.1026 18.4406C25.5797 18.4455 26.0512 18.5443 26.4901 18.7314C26.929 18.9186 27.3267 19.1903 27.6606 19.5312C27.9944 19.872 28.2582 20.2729 28.4362 20.7155Z" fill="#850014"/>
<path d="M19.676 39.234C19.4686 40.5466 18.7482 41.723 17.6734 42.5045C16.5986 43.2859 15.2574 43.6084 13.9448 43.4009C12.6322 43.1935 11.4558 42.4731 10.6744 41.3983C9.89294 40.3235 9.57047 38.9823 9.77791 37.6697C9.98535 36.3572 10.7057 35.1808 11.7805 34.3993C12.8553 33.6179 14.1965 33.2954 15.5091 33.5029C16.8217 33.7103 17.9981 34.4307 18.7795 35.5055C19.561 36.5803 19.8834 37.9215 19.676 39.234Z" fill="#E10531"/>
<path fill-rule="evenodd" clip-rule="evenodd" d="M19.132 10.1117C17.4741 9.84966 15.973 10.1197 14.859 10.669C13.786 11.1995 13.1829 11.9183 12.936 12.5819C12.5864 13.4657 11.9044 14.1774 11.0361 14.5641C10.1679 14.9509 9.18266 14.982 8.29179 14.6507C7.40092 14.3194 6.67539 13.6521 6.27084 12.792C5.86629 11.9319 5.81496 10.9475 6.12786 10.05C7.12993 7.35251 9.21654 5.35139 11.6484 4.15053C14.1792 2.90188 17.2076 2.4522 20.2661 2.93557C26.5935 3.93555 32.4847 9.20372 31.4108 15.9988C30.789 19.9332 27.9477 22.7459 24.6255 24.1231C23.7352 24.4916 22.7349 24.4914 21.8448 24.1224C20.9547 23.7534 20.2476 23.0459 19.8791 22.1556C19.5105 21.2652 19.5108 20.265 19.8798 19.3748C20.2488 18.4847 20.9563 17.7776 21.8466 17.4091C23.3936 16.7684 24.0947 15.7505 24.2347 14.8646C24.4592 13.4443 23.0739 10.7347 19.132 10.1117Z" fill="#E10531"/>
<path fill-rule="evenodd" clip-rule="evenodd" d="M17.6208 19.6764C19.6004 19.9893 20.9554 21.847 20.6418 23.8316L20.0544 27.5483C19.904 28.4999 19.3817 29.3528 18.6025 29.9193C17.8232 30.4859 16.8509 30.7197 15.8993 30.5693C14.9476 30.4189 14.0948 29.8966 13.5282 29.1174C12.9617 28.3382 12.7279 27.3658 12.8783 26.4142L13.4657 22.6974C13.7785 20.7178 15.6387 19.3632 17.6208 19.6764Z" fill="#E10531"/>
<path fill-rule="evenodd" clip-rule="evenodd" d="M26.613 19.4128C26.7914 19.8556 26.8808 20.3293 26.8761 20.8066C26.8714 21.284 26.7726 21.7558 26.5854 22.195C26.3982 22.6342 26.1263 23.0321 25.7852 23.3661C25.4441 23.7002 25.0405 23.9637 24.5975 24.1416L18.411 26.631C17.5174 26.9909 16.5173 26.9811 15.6309 26.6036C14.7445 26.2262 14.0443 25.5121 13.6844 24.6184C13.3245 23.7247 13.3343 22.7246 13.7118 21.8382C14.0892 20.9518 14.8033 20.2516 15.697 19.8917L21.8863 17.4002C22.3289 17.2221 22.8023 17.133 23.2794 17.1378C23.7565 17.1427 24.228 17.2416 24.6668 17.4287C25.1057 17.6158 25.5035 17.8876 25.8373 18.2284C26.1712 18.5693 26.435 18.9701 26.613 19.4128Z" fill="#E10531"/>
</svg>
