<svg width="39" height="37" viewBox="0 0 39 37" fill="none" xmlns="http://www.w3.org/2000/svg">
<path d="M38.3857 18.1118C38.3857 28.1147 29.7927 36.2236 19.1928 36.2236C8.59293 36.2236 0 28.1147 0 18.1118C0 8.10893 8.59293 0 19.1928 0C29.7927 0 38.3857 8.10893 38.3857 18.1118Z" fill="#7AD761"/>
<path d="M35.6439 17.997C35.6439 26.5437 28.2785 33.4723 19.1929 33.4723C10.1072 33.4723 2.74187 26.5437 2.74187 17.997C2.74187 9.45022 10.1072 2.5217 19.1929 2.5217C28.2785 2.5217 35.6439 9.45022 35.6439 17.997Z" fill="#BAFB92"/>
<path fill-rule="evenodd" clip-rule="evenodd" d="M9.05168 16.2609C9.05168 16.5851 9.12476 16.898 9.26052 17.1925C8.31073 17.8787 7.76856 18.714 7.76856 19.684C7.76856 22.4725 12.9388 25.2465 19.3167 25.2465C25.6944 25.2465 30.608 22.6437 30.608 19.8551C30.6909 18.889 30.209 18.0387 29.3042 17.3299C29.4837 16.9959 29.5815 16.636 29.5815 16.2609C29.5815 14.5121 27.456 13.0945 24.834 13.0945C22.8849 13.0945 21.21 13.8779 20.4788 14.9984C20.0966 14.9843 19.709 14.9772 19.3167 14.9772C18.9239 14.9772 18.5358 14.9837 18.1532 14.9965C17.4214 13.877 15.7473 13.0945 13.7992 13.0945C11.1772 13.0945 9.05168 14.5121 9.05168 16.2609Z" fill="#7AD761"/>
<path d="M35.5295 8.56424L36.4435 10.169L36.9005 11.2007L37.0147 11.5446L37.3575 12.2324L37.4759 12.6909L37.7002 13.264L38.0094 14.5964L16.4495 36.0768L15.7641 35.9622L15.1929 35.8475L14.8507 35.733L14.7365 35.733L14.3937 35.6184L13.7083 35.5038L12.6795 35.1597L11.7656 34.8158L11.5377 34.7013L35.5295 8.56424Z" fill="white" fill-opacity="0.25"/>
</svg>
