<svg width="142" height="142" viewBox="0 0 142 142" fill="none" xmlns="http://www.w3.org/2000/svg">
<circle cx="71" cy="71" r="71" fill="#D9D9D9"/>
<path fill-rule="evenodd" clip-rule="evenodd" d="M58 54.75C58 51.3022 59.3696 47.9956 61.8076 45.5576C64.2456 43.1196 67.5522 41.75 71 41.75C74.4478 41.75 77.7544 43.1196 80.1924 45.5576C82.6304 47.9956 84 51.3022 84 54.75C84 58.1978 82.6304 61.5044 80.1924 63.9424C77.7544 66.3804 74.4478 67.75 71 67.75C67.5522 67.75 64.2456 66.3804 61.8076 63.9424C59.3696 61.5044 58 58.1978 58 54.75ZM58 74.25C53.6902 74.25 49.557 75.962 46.5095 79.0095C43.462 82.057 41.75 86.1902 41.75 90.5C41.75 93.0859 42.7772 95.5658 44.6057 97.3943C46.4342 99.2228 48.9141 100.25 51.5 100.25H90.5C93.0859 100.25 95.5658 99.2228 97.3943 97.3943C99.2228 95.5658 100.25 93.0859 100.25 90.5C100.25 86.1902 98.538 82.057 95.4905 79.0095C92.443 75.962 88.3098 74.25 84 74.25H58Z" fill="black" fill-opacity="0.5"/>
</svg>
