<svg width="7911" height="14946" viewBox="0 0 7911 14946" fill="none" xmlns="http://www.w3.org/2000/svg">
<path fill-rule="evenodd" clip-rule="evenodd" d="M5059.94 409.745C5008 421.519 4958.18 448.928 4921.35 486.002C4868.25 539.452 4841.25 598.218 4831.38 681.829C4818.21 793.431 4856.85 908.927 4929.11 973.882C4960.22 1001.85 4990.3 1018.83 5034.81 1033.55C5065.81 1043.81 5079.26 1045.61 5125.77 1045.77C5217.49 1046.08 5273.75 1024.57 5334.63 965.915C5354.64 946.637 5371.25 931.288 5371.54 931.806C5402.57 986.866 5449.7 1022.04 5509.19 1034.55C5522.45 1037.34 5535.24 1039.62 5537.61 1039.62C5540.31 1039.62 5541.94 921.16 5541.94 725.824V412.028H5530.97C5514.35 412.028 5467.39 427.731 5445.29 440.679C5423.39 453.513 5385.5 491.969 5377.54 509.446L5372.36 520.815L5341.9 490.295C5283.82 432.102 5225.55 407.175 5141.69 404.647C5106.76 403.592 5079.6 405.284 5059.94 409.745ZM5996.77 409.786C5946.93 421.933 5900.34 447.537 5857.32 486.42L5833.86 507.631L5806.45 480.226C5777.59 451.371 5720.78 420.068 5686.25 413.997L5669.1 410.982L5670.33 712.026C5671.53 1004.02 5671.83 1013.26 5680.39 1019.52C5687.29 1024.57 5708.31 1025.98 5776.49 1025.98C5852.07 1025.98 5864.59 1024.97 5870 1018.46C5874.97 1012.47 5876.7 973.559 5878.51 826.321C5880.71 648.075 5881.13 641.063 5890.6 623.499C5918.32 572.137 5975.36 552.24 6024.23 576.885C6049.78 589.768 6063.22 613.23 6069.36 655.684C6071.86 673.002 6073.95 761.283 6074 851.866C6074.09 1009.99 6074.44 1016.75 6082.89 1021.27C6088.07 1024.04 6127.24 1025.98 6178.15 1025.98C6262.33 1025.98 6264.79 1025.71 6271.68 1015.87C6277.79 1007.15 6278.76 981.955 6278.76 832.51C6278.76 635.674 6280.41 623.054 6310.04 593.425C6338.23 565.242 6391.37 557.843 6428.91 576.885C6444.14 584.611 6451.89 592.647 6460.57 609.719L6472.06 632.322L6474.34 821.641C6476.15 972.85 6477.87 1012.47 6482.85 1018.46C6491.99 1029.46 6660.91 1029.78 6671.87 1018.83C6678.15 1012.54 6679.01 986.652 6679.01 803.036C6679.01 578.59 6677.9 565.156 6655.44 517.509C6620.82 444.076 6545.41 403.164 6444.37 403.001C6368.28 402.878 6309.58 424.448 6258.93 471.149C6239.17 489.367 6231.19 494.333 6229.54 489.435C6224.68 474.978 6182.17 435.717 6159.44 424.698C6114.43 402.869 6049.55 396.925 5996.77 409.786ZM4342.23 711.962C4343.43 1004.02 4343.73 1013.26 4352.29 1019.52C4364.26 1028.27 4526.58 1028.95 4537.95 1020.29C4544.57 1015.26 4545.61 996.68 4547.05 857.709C4548.87 681.488 4550.53 670.496 4580.76 635.187C4604.76 607.15 4626.11 598.705 4673.22 598.614C4694.48 598.573 4719.52 600.66 4728.86 603.257C4740.8 606.568 4748.59 606.513 4755.02 603.071C4763.69 598.427 4764.18 593.711 4764.18 514.898C4764.18 413.11 4765.32 415.152 4707.29 412.715C4665.12 410.945 4629.19 419.104 4597.57 437.632C4575.04 450.834 4542.15 485.01 4527.53 510.414L4517 528.706L4496.18 501.305C4465.23 460.557 4405.62 423.775 4353.72 413.397L4341 410.855L4342.23 711.962ZM5253.86 582.742C5281.38 596.19 5307.08 623.008 5320.72 652.505C5328.87 670.123 5330.44 681.993 5330.44 725.824C5330.44 786.373 5323.68 806.661 5292.08 840.937C5265.83 869.424 5234.78 882.181 5191.72 882.181C5148.66 882.181 5117.62 869.424 5091.36 840.937C5059.76 806.661 5053 786.373 5053 725.824C5053 666.021 5059.56 645.738 5089.7 612.38C5130.24 567.516 5197.74 555.328 5253.86 582.742Z" fill="#9D4EDD"/>
<path fill-rule="evenodd" clip-rule="evenodd" d="M7230.72 889.321C7144.25 920.454 7090.27 980.575 7072.19 1065.91C7068.61 1082.79 7065.65 1106.32 7065.61 1118.21L7065.53 1139.82H7014.13C6980.21 1139.82 6960.87 1141.68 6957.26 1145.28C6953.51 1149.03 6951.8 1171.71 6951.8 1217.81C6951.8 1301.12 6950.1 1299.05 7018.78 1299.05H7065.53V1512.56C7065.53 1700.58 7066.39 1726.91 7072.68 1733.21C7083.32 1743.85 7252.44 1743.85 7263.09 1733.21C7269.38 1726.91 7270.24 1700.62 7270.24 1512.95V1299.84L7322.34 1298.31C7357.15 1297.28 7376.39 1294.82 7380.34 1290.88C7384.42 1286.79 7386.7 1266.09 7387.73 1223.52C7389.8 1138.42 7390.89 1139.82 7322.44 1139.82H7270.24V1010.16C7270.24 863.098 7273.75 873.83 7230.72 889.321ZM4693.22 1120.08C4665.21 1126.06 4612.86 1147.58 4587.83 1163.39C4572.01 1173.37 4547.81 1194 4534.03 1209.23C4520.26 1224.46 4508.98 1234.68 4508.98 1231.95C4508.98 1223.35 4464.31 1177.69 4441.71 1163.19C4417.74 1147.81 4363.82 1126.17 4349.45 1126.17C4340.25 1126.17 4340.23 1127.13 4341.74 1498.09C4343.23 1865.94 4343.36 1870.42 4353.34 1906.41C4372.54 1975.66 4402.6 2020.73 4449.39 2050.42C4471.5 2064.45 4520.74 2081.57 4538.98 2081.57H4549.83L4551.01 1885.53L4552.2 1689.5L4570.4 1704.2C4596.53 1725.31 4646.76 1747.51 4687.34 1755.87C4791.02 1777.25 4892.44 1749 4961.98 1679.35C5000.2 1641.08 5022.54 1602.82 5039.3 1547C5050.01 1511.32 5051.63 1497.87 5051.9 1442.36C5052.27 1367.04 5045.44 1333.92 5017.66 1276.31C5002.72 1245.33 4991.67 1230.36 4962.12 1201.07C4900.69 1140.2 4840.87 1116.61 4750.49 1117.6C4724 1117.89 4698.22 1119 4693.22 1120.08ZM5418.79 1120.23C5310.02 1138.51 5218.9 1201.31 5178.63 1285.76C5153.09 1339.31 5144.76 1377.16 5144.67 1440.09C5144.53 1535.59 5172.37 1608.03 5232.11 1667.65C5271.66 1707.12 5309.67 1728.99 5371.19 1747.66C5408.42 1758.95 5418.48 1760.03 5487.02 1760.09C5574.87 1760.17 5609 1752.96 5670.29 1721.4C5720.2 1695.69 5770.36 1646.51 5793.43 1600.65C5820.46 1546.91 5829.77 1505.92 5829.9 1440.09C5830.1 1342.77 5803.6 1274.14 5741.97 1212.3C5692.31 1162.47 5645.66 1138.47 5569.64 1123.6C5538.96 1117.6 5446.68 1115.54 5418.79 1120.23ZM6583.33 1125.64C6532.2 1142.14 6490.21 1171.45 6456.87 1213.89L6435.7 1240.83L6428.79 1230.13C6403.07 1190.35 6356.76 1154.71 6307.59 1136.86C6254.6 1117.62 6260.35 1082.72 6260.35 1423.15C6260.35 1684.58 6261.2 1721.34 6267.44 1730.24C6274.35 1740.11 6276.67 1740.36 6364.68 1740.36C6442.96 1740.36 6455.67 1739.36 6461.09 1732.84C6466.06 1726.86 6467.8 1688.96 6469.61 1547.45L6471.88 1369.57L6484.04 1346.54C6505.81 1305.28 6541.84 1280.91 6581.06 1280.91C6620.69 1280.91 6655.47 1304.62 6664.72 1337.94C6667.96 1349.61 6669.73 1419.88 6669.74 1538.03C6669.76 1695.46 6670.73 1721.5 6676.85 1730.24C6683.76 1740.12 6686.06 1740.36 6774.55 1740.36H6865.16L6872.47 1729.21C6878.96 1719.3 6879.57 1696.08 6877.92 1518.8C6876.21 1333.38 6875.42 1317.11 6866.49 1284.75C6841.04 1192.52 6789.88 1138.81 6711.62 1122.19C6675.44 1114.51 6612.59 1116.2 6583.33 1125.64ZM5932.83 1423.15C5932.83 1684.58 5933.67 1721.34 5939.91 1730.24C5946.82 1740.12 5949.12 1740.36 6037.61 1740.36H6128.22L6135.5 1729.26C6141.95 1719.41 6142.57 1696.18 6140.97 1523.39C6139.43 1357.91 6138.01 1324.64 6131.49 1302.11C6107.78 1220.17 6057.04 1164.81 5980.06 1136.86C5927.07 1117.62 5932.83 1082.72 5932.83 1423.15ZM5449.77 1282.39C5387.23 1300.03 5350.55 1357.97 5350.55 1439.15C5350.55 1543 5401.51 1600.97 5492.06 1600.11C5563.31 1599.44 5610.72 1554.17 5623.42 1474.66C5633.34 1412.57 5614.05 1343.43 5577.35 1309.51C5548.95 1283.26 5490.64 1270.87 5449.77 1282.39ZM4662.39 1285.39C4620.68 1292.77 4587.34 1319.27 4565.04 1362.75C4553.15 1385.92 4552.2 1391.64 4552.2 1440.09C4552.2 1483.7 4553.8 1495.86 4561.78 1513.11C4590.4 1574.97 4649.67 1605.98 4716.91 1594.28C4790.87 1581.39 4835.66 1516.16 4831.04 1428.05C4829.37 1396.17 4826.57 1385.29 4813.45 1359.56C4784.25 1302.32 4726.62 1274.02 4662.39 1285.39ZM7504 1537.2C7469.61 1545.99 7433.63 1568 7418.29 1589.65C7400.07 1615.35 7396.68 1657.2 7410.62 1684.51C7431.02 1724.5 7474.51 1748.34 7535.12 1752.74C7623.98 1759.19 7695.31 1716.88 7701.34 1654.15C7707.62 1588.78 7649.35 1538.29 7561.81 1533.24C7541.46 1532.08 7517.7 1533.7 7504 1537.2Z" fill="#121212"/>
<g filter="url(#filter0_d_2754_1918)">
<path fill-rule="evenodd" clip-rule="evenodd" d="M593.954 833.974C593.954 880.306 604.429 925.008 623.896 967.094C487.732 1065.14 410 1184.5 410 1323.09C410 1721.54 1151.22 2117.91 2065.57 2117.91C2979.9 2117.91 3684.33 1746.01 3684.33 1347.55C3696.21 1209.51 3627.12 1088 3497.41 986.727C3523.14 939.004 3537.16 887.575 3537.16 833.974C3537.16 584.094 3232.45 381.533 2856.55 381.533C2577.12 381.533 2337.01 493.475 2232.18 653.58C2177.39 651.568 2121.81 650.552 2065.57 650.552C2009.26 650.552 1953.62 651.475 1898.77 653.322C1793.85 493.354 1553.86 381.533 1274.58 381.533C898.679 381.533 593.954 584.094 593.954 833.974Z" fill="#9D4EDD"/>
</g>
<g filter="url(#filter1_d_2754_1918)">
<path d="M3267.92 1249.92C2861.94 1295.52 2475.83 1338.5 2074.33 1249.92C1723.74 1306.02 1132.43 1300.99 913.195 1249.92C943.685 2390.7 3195.23 2445.05 3280.32 1305.55C3281.68 1287.27 3280.32 1268.14 3267.92 1249.92Z" fill="#DAACFE"/>
</g>
<path d="M3600.15 1449.73C3618.69 1449.73 3633.73 1435.61 3633.73 1418.18C3633.73 1400.77 3618.69 1386.64 3600.15 1386.64C3581.61 1386.64 3566.57 1400.77 3566.57 1418.18C3566.57 1435.61 3581.61 1449.73 3600.15 1449.73Z" fill="#471B6A"/>
<path d="M3432.24 1575.91C3450.79 1575.91 3465.82 1561.78 3465.82 1544.36C3465.82 1526.94 3450.79 1512.82 3432.24 1512.82C3413.69 1512.82 3398.66 1526.94 3398.66 1544.36C3398.66 1561.78 3413.69 1575.91 3432.24 1575.91Z" fill="#471B6A"/>
<path d="M3398.66 1418.18C3417.21 1418.18 3432.24 1404.06 3432.24 1386.64C3432.24 1369.22 3417.21 1355.1 3398.66 1355.1C3380.11 1355.1 3365.08 1369.22 3365.08 1386.64C3365.08 1404.06 3380.11 1418.18 3398.66 1418.18Z" fill="#471B6A"/>
<path d="M846.486 1449.73C865.035 1449.73 880.071 1435.61 880.071 1418.18C880.071 1400.77 865.035 1386.64 846.486 1386.64C827.942 1386.64 812.906 1400.77 812.906 1418.18C812.906 1435.61 827.942 1449.73 846.486 1449.73Z" fill="#471B6A"/>
<path d="M678.579 1575.91C697.123 1575.91 712.159 1561.78 712.159 1544.36C712.159 1526.94 697.123 1512.82 678.579 1512.82C660.029 1512.82 645 1526.94 645 1544.36C645 1561.78 660.029 1575.91 678.579 1575.91Z" fill="#471B6A"/>
<path d="M645 1418.18C663.543 1418.18 678.579 1404.06 678.579 1386.64C678.579 1369.22 663.543 1355.1 645 1355.1C626.45 1355.1 611.414 1369.22 611.414 1386.64C611.414 1404.06 626.45 1418.18 645 1418.18Z" fill="#471B6A"/>
<path d="M2065.18 1871.34C2114.45 1871.34 2160.12 1850.54 2197.6 1815.12C2333.21 1686.97 2310.38 1467.93 2339.06 1283.57L2107.64 1254.96L2065.18 1249.72L2027.66 1253.81L1754.38 1283.57C1807.45 1467.29 1795.41 1693.82 1938.66 1820.52C1974.99 1852.65 2018.46 1871.34 2065.18 1871.34Z" fill="#251036"/>
<path d="M3410.48 1188.99C3241.84 1281.92 2991.36 1295.45 2757.23 1295.44C2555.17 1295.43 2380.32 1284.99 2151.66 1259.42C2101.21 1253.78 2049.34 1252.91 1998.46 1257.12C1700.2 1281.82 1527.82 1297.47 1192.59 1295.44C1003.56 1283.87 902.794 1250.35 783.469 1188.99" stroke="#471B6A" stroke-width="35" stroke-linecap="round"/>
<path d="M2183.96 1831.68C2216.28 1806.29 2234.43 1775.94 2259.05 1735.94C2105.28 1687.64 2020.36 1687.08 1871.31 1735.94C1880.54 1754.4 1907.93 1806.29 1940.25 1831.68C1972.57 1857.08 2016.4 1871.34 2062.1 1871.34C2107.81 1871.34 2151.64 1857.08 2183.96 1831.68Z" fill="#EB8884"/>
<path d="M1289.7 468.093C1353.74 467.662 1406.29 474.417 1451.06 488.682C1679.05 561.33 1698.98 867.334 1698.98 1106.62C1698.98 1118.6 1685.23 1125.41 1675.62 1118.25C1442.47 944.797 1273.19 892.316 889.598 952.669C884.853 953.414 880.422 949.77 880.422 944.97C880.422 811.924 901.704 670.249 994.915 575.319C1060.09 508.939 1144.4 472.352 1289.7 468.093Z" fill="white"/>
<path d="M1357.4 621.941C1263.92 621.941 1188.15 714.249 1188.15 828.123C1188.15 864.706 1195.97 899.886 1209.69 929.675C1314.5 937.818 1369.25 950.25 1462.03 988.145C1500.17 950.336 1526.65 892.698 1526.65 828.123C1526.65 714.249 1450.87 621.941 1357.4 621.941Z" fill="#333333"/>
<path fill-rule="evenodd" clip-rule="evenodd" d="M1261.03 817.088C1304.68 828.782 1351.61 795.189 1365.85 742.05C1380.08 688.91 1356.24 636.349 1312.59 624.655C1268.94 612.955 1222.01 646.554 1207.78 699.693C1193.54 752.833 1217.38 805.394 1261.03 817.088ZM1471.26 960.449C1505.25 960.449 1532.81 928.758 1532.81 889.67C1532.81 850.581 1505.25 818.891 1471.26 818.891C1437.27 818.891 1409.72 850.581 1409.72 889.67C1409.72 928.758 1437.27 960.449 1471.26 960.449Z" fill="white"/>
<path d="M2911.43 449.629C2844.98 449.182 2790.46 456.192 2744.01 470.992C2507.45 546.367 2486.77 863.881 2486.77 1112.16C2486.77 1124.59 2501.03 1131.66 2511.01 1124.24C2752.92 944.255 2928.56 889.799 3326.58 952.422C3331.5 953.198 3336.1 949.419 3336.1 944.428C3336.1 806.384 3314.01 659.386 3217.3 560.886C3149.67 492.011 3062.2 454.048 2911.43 449.629Z" fill="white"/>
<path d="M2841.19 609.262C2938.18 609.262 3016.8 705.041 3016.8 823.193C3016.8 861.155 3008.69 897.658 2994.45 928.561C2885.71 937.017 2828.89 949.918 2732.63 989.234C2693.05 950.004 2665.58 890.199 2665.58 823.193C2665.58 705.041 2744.2 609.262 2841.19 609.262Z" fill="#333333"/>
<path fill-rule="evenodd" clip-rule="evenodd" d="M2941.18 811.744C2895.89 823.881 2847.2 789.021 2832.43 733.881C2817.66 678.747 2842.39 624.211 2887.68 612.074C2932.97 599.937 2981.66 634.797 2996.44 689.936C3011.21 745.07 2986.47 799.607 2941.18 811.744ZM2723.05 960.49C2687.78 960.49 2659.19 927.612 2659.19 887.052C2659.19 846.493 2687.78 813.615 2723.05 813.615C2758.31 813.615 2786.91 846.493 2786.91 887.052C2786.91 927.612 2758.31 960.49 2723.05 960.49Z" fill="white"/>
<path d="M2787.36 23.2404L2582.87 220.079C2559.79 242.3 2581.8 280.606 2612.62 271.853L2683.52 251.719C2793.5 220.484 2910 220.502 3019.98 251.772L3374.16 352.479C3395.09 358.43 3407.29 329.601 3388.44 318.727L2860.8 14.2737C2837.06 0.572719 2807.11 4.2286 2787.36 23.2404Z" fill="#333333"/>
<path d="M1370.67 17.2059L1575.16 214.044C1598.25 236.265 1576.23 274.572 1545.41 265.818L1474.52 245.684C1364.53 214.449 1248.03 214.468 1138.06 245.737L783.874 346.444C762.943 352.395 750.751 323.566 769.596 312.692L1297.23 8.23918C1320.97 -5.46237 1350.92 -1.80648 1370.67 17.2059Z" fill="#333333"/>
<path fill-rule="evenodd" clip-rule="evenodd" d="M5059.94 3774.08C5008 3785.86 4958.18 3813.27 4921.35 3850.34C4868.25 3903.79 4841.25 3962.56 4831.38 4046.17C4818.21 4157.77 4856.85 4273.27 4929.11 4338.22C4960.22 4366.19 4990.3 4383.17 5034.81 4397.89C5065.81 4408.15 5079.26 4409.95 5125.77 4410.11C5217.49 4410.42 5273.75 4388.91 5334.63 4330.25C5354.64 4310.98 5371.25 4295.63 5371.54 4296.15C5402.57 4351.21 5449.7 4386.38 5509.19 4398.89C5522.45 4401.68 5535.24 4403.96 5537.61 4403.96C5540.31 4403.96 5541.94 4285.5 5541.94 4090.16V3776.37H5530.97C5514.35 3776.37 5467.39 3792.07 5445.29 3805.02C5423.39 3817.85 5385.5 3856.31 5377.54 3873.79L5372.36 3885.15L5341.9 3854.63C5283.82 3796.44 5225.55 3771.52 5141.69 3768.99C5106.76 3767.93 5079.6 3769.62 5059.94 3774.08ZM5996.77 3774.13C5946.93 3786.27 5900.34 3811.88 5857.32 3850.76L5833.86 3871.97L5806.45 3844.57C5777.59 3815.71 5720.78 3784.41 5686.25 3778.34L5669.1 3775.32L5670.33 4076.37C5671.53 4368.36 5671.83 4377.6 5680.39 4383.86C5687.29 4388.91 5708.31 4390.32 5776.49 4390.32C5852.07 4390.32 5864.59 4389.31 5870 4382.8C5874.97 4376.81 5876.7 4337.9 5878.51 4190.66C5880.71 4012.42 5881.13 4005.4 5890.6 3987.84C5918.32 3936.48 5975.36 3916.58 6024.23 3941.22C6049.78 3954.11 6063.22 3977.57 6069.36 4020.02C6071.86 4037.34 6073.95 4125.62 6074 4216.21C6074.09 4374.33 6074.44 4381.09 6082.89 4385.61C6088.07 4388.38 6127.24 4390.32 6178.15 4390.32C6262.33 4390.32 6264.79 4390.05 6271.68 4380.21C6277.79 4371.49 6278.76 4346.29 6278.76 4196.85C6278.76 4000.01 6280.41 3987.39 6310.04 3957.76C6338.23 3929.58 6391.37 3922.18 6428.91 3941.22C6444.14 3948.95 6451.89 3956.99 6460.57 3974.06L6472.06 3996.66L6474.34 4185.98C6476.15 4337.19 6477.87 4376.81 6482.85 4382.8C6491.99 4393.8 6660.91 4394.12 6671.87 4383.17C6678.15 4376.88 6679.01 4350.99 6679.01 4167.38C6679.01 3942.93 6677.9 3929.5 6655.44 3881.85C6620.82 3808.42 6545.41 3767.5 6444.37 3767.34C6368.28 3767.22 6309.58 3788.79 6258.93 3835.49C6239.17 3853.71 6231.19 3858.67 6229.54 3853.78C6224.68 3839.32 6182.17 3800.06 6159.44 3789.04C6114.43 3767.21 6049.55 3761.26 5996.77 3774.13ZM4342.23 4076.3C4343.43 4368.36 4343.73 4377.6 4352.29 4383.86C4364.26 4392.61 4526.58 4393.29 4537.95 4384.63C4544.57 4379.6 4545.61 4361.02 4547.05 4222.05C4548.87 4045.83 4550.53 4034.84 4580.76 3999.53C4604.76 3971.49 4626.11 3963.04 4673.22 3962.95C4694.48 3962.91 4719.52 3965 4728.86 3967.6C4740.8 3970.91 4748.59 3970.85 4755.02 3967.41C4763.69 3962.77 4764.18 3958.05 4764.18 3879.24C4764.18 3777.45 4765.32 3779.49 4707.29 3777.05C4665.12 3775.29 4629.19 3783.44 4597.57 3801.97C4575.04 3815.17 4542.15 3849.35 4527.53 3874.75L4517 3893.05L4496.18 3865.64C4465.23 3824.9 4405.62 3788.11 4353.72 3777.74L4341 3775.19L4342.23 4076.3ZM5253.86 3947.08C5281.38 3960.53 5307.08 3987.35 5320.72 4016.84C5328.87 4034.46 5330.44 4046.33 5330.44 4090.16C5330.44 4150.71 5323.68 4171 5292.08 4205.28C5265.83 4233.76 5234.78 4246.52 5191.72 4246.52C5148.66 4246.52 5117.62 4233.76 5091.36 4205.28C5059.76 4171 5053 4150.71 5053 4090.16C5053 4030.36 5059.56 4010.08 5089.7 3976.72C5130.24 3931.86 5197.74 3919.67 5253.86 3947.08Z" fill="#FF9090"/>
<path fill-rule="evenodd" clip-rule="evenodd" d="M7230.72 4253.66C7144.25 4284.79 7090.27 4344.92 7072.19 4430.25C7068.61 4447.13 7065.65 4470.66 7065.61 4482.55L7065.53 4504.16H7014.13C6980.21 4504.16 6960.87 4506.02 6957.26 4509.62C6953.51 4513.37 6951.8 4536.05 6951.8 4582.15C6951.8 4665.46 6950.1 4663.39 7018.78 4663.39H7065.53V4876.9C7065.53 5064.92 7066.39 5091.25 7072.68 5097.55C7083.32 5108.19 7252.44 5108.19 7263.09 5097.55C7269.38 5091.25 7270.24 5064.96 7270.24 4877.29V4664.18L7322.34 4662.65C7357.15 4661.62 7376.39 4659.16 7380.34 4655.22C7384.42 4651.13 7386.7 4630.43 7387.73 4587.86C7389.8 4502.76 7390.89 4504.16 7322.44 4504.16H7270.24V4374.5C7270.24 4227.44 7273.75 4238.17 7230.72 4253.66ZM4693.22 4484.42C4665.21 4490.4 4612.86 4511.92 4587.83 4527.73C4572.01 4537.71 4547.81 4558.34 4534.03 4573.57C4520.26 4588.8 4508.98 4599.02 4508.98 4596.29C4508.98 4587.69 4464.31 4542.03 4441.71 4527.53C4417.74 4512.15 4363.82 4490.51 4349.45 4490.51C4340.25 4490.51 4340.23 4491.47 4341.74 4862.43C4343.23 5230.28 4343.36 5234.76 4353.34 5270.75C4372.54 5340 4402.6 5385.07 4449.39 5414.76C4471.5 5428.79 4520.74 5445.91 4538.98 5445.91H4549.83L4551.01 5249.87L4552.2 5053.84L4570.4 5068.54C4596.53 5089.65 4646.76 5111.85 4687.34 5120.21C4791.02 5141.59 4892.44 5113.34 4961.98 5043.69C5000.2 5005.42 5022.54 4967.16 5039.3 4911.34C5050.01 4875.66 5051.63 4862.21 5051.9 4806.7C5052.27 4731.38 5045.44 4698.26 5017.66 4640.65C5002.72 4609.67 4991.67 4594.7 4962.12 4565.41C4900.69 4504.54 4840.87 4480.95 4750.49 4481.94C4724 4482.23 4698.22 4483.34 4693.22 4484.42ZM5418.79 4484.57C5310.02 4502.85 5218.9 4565.65 5178.63 4650.1C5153.09 4703.65 5144.76 4741.5 5144.67 4804.43C5144.53 4899.93 5172.37 4972.37 5232.11 5031.99C5271.66 5071.46 5309.67 5093.33 5371.19 5112C5408.42 5123.29 5418.48 5124.37 5487.02 5124.43C5574.87 5124.51 5609 5117.3 5670.29 5085.74C5720.2 5060.03 5770.36 5010.85 5793.43 4964.99C5820.46 4911.25 5829.77 4870.26 5829.9 4804.43C5830.1 4707.11 5803.6 4638.48 5741.97 4576.64C5692.31 4526.81 5645.66 4502.81 5569.64 4487.94C5538.96 4481.94 5446.68 4479.88 5418.79 4484.57ZM6583.33 4489.98C6532.2 4506.48 6490.21 4535.78 6456.87 4578.23L6435.7 4605.17L6428.79 4594.47C6403.07 4554.69 6356.76 4519.05 6307.59 4501.2C6254.6 4481.96 6260.35 4447.06 6260.35 4787.49C6260.35 5048.92 6261.2 5085.68 6267.44 5094.58C6274.35 5104.45 6276.67 5104.7 6364.68 5104.7C6442.96 5104.7 6455.67 5103.7 6461.09 5097.18C6466.06 5091.2 6467.8 5053.3 6469.61 4911.79L6471.88 4733.91L6484.04 4710.88C6505.81 4669.62 6541.84 4645.25 6581.06 4645.25C6620.69 4645.25 6655.47 4668.96 6664.72 4702.28C6667.96 4713.95 6669.73 4784.22 6669.74 4902.37C6669.76 5059.8 6670.73 5085.84 6676.85 5094.58C6683.76 5104.46 6686.06 5104.7 6774.55 5104.7H6865.16L6872.47 5093.55C6878.96 5083.64 6879.57 5060.42 6877.92 4883.13C6876.21 4697.72 6875.42 4681.45 6866.49 4649.09C6841.04 4556.86 6789.88 4503.15 6711.62 4486.53C6675.44 4478.85 6612.59 4480.54 6583.33 4489.98ZM5932.83 4787.49C5932.83 5048.92 5933.67 5085.68 5939.91 5094.58C5946.82 5104.46 5949.12 5104.7 6037.61 5104.7H6128.22L6135.5 5093.59C6141.95 5083.75 6142.57 5060.52 6140.97 4887.73C6139.43 4722.25 6138.01 4688.98 6131.49 4666.45C6107.78 4584.51 6057.04 4529.15 5980.06 4501.2C5927.07 4481.96 5932.83 4447.06 5932.83 4787.49ZM5449.77 4646.73C5387.23 4664.37 5350.55 4722.31 5350.55 4803.49C5350.55 4907.34 5401.51 4965.31 5492.06 4964.45C5563.31 4963.78 5610.72 4918.51 5623.42 4839C5633.34 4776.91 5614.05 4707.77 5577.35 4673.85C5548.95 4647.6 5490.64 4635.21 5449.77 4646.73ZM4662.39 4649.73C4620.68 4657.11 4587.34 4683.61 4565.04 4727.09C4553.15 4750.26 4552.2 4755.98 4552.2 4804.43C4552.2 4848.04 4553.8 4860.2 4561.78 4877.45C4590.4 4939.31 4649.67 4970.32 4716.91 4958.62C4790.87 4945.73 4835.66 4880.5 4831.04 4792.39C4829.37 4760.51 4826.57 4749.63 4813.45 4723.9C4784.25 4666.66 4726.62 4638.36 4662.39 4649.73ZM7504 4901.54C7469.61 4910.33 7433.63 4932.34 7418.29 4953.99C7400.07 4979.69 7396.68 5021.54 7410.62 5048.85C7431.02 5088.84 7474.51 5112.68 7535.12 5117.08C7623.98 5123.53 7695.31 5081.22 7701.34 5018.49C7707.62 4953.12 7649.35 4902.62 7561.81 4897.58C7541.46 4896.41 7517.7 4898.04 7504 4901.54Z" fill="#121212"/>
<g filter="url(#filter2_d_2754_1918)">
<path fill-rule="evenodd" clip-rule="evenodd" d="M590.385 4222.24C590.385 4268.69 600.885 4313.5 620.397 4355.69C483.914 4453.98 406 4573.63 406 4712.57C406 5111.99 1148.96 5509.33 2065.45 5509.33C2981.93 5509.33 3688 5136.51 3688 4737.08C3699.91 4598.7 3630.66 4476.89 3500.64 4375.37C3526.43 4327.53 3540.49 4275.97 3540.49 4222.24C3540.49 3971.75 3235.06 3768.69 2858.28 3768.69C2578.2 3768.69 2337.53 3880.91 2232.45 4041.4C2177.53 4039.39 2121.82 4038.37 2065.45 4038.37C2009.01 4038.37 1953.23 4039.3 1898.26 4041.14C1793.09 3880.78 1552.54 3768.69 1272.6 3768.69C895.818 3768.69 590.385 3971.75 590.385 4222.24Z" fill="#FF9191"/>
</g>
<g filter="url(#filter3_d_2754_1918)">
<path d="M3222.04 4624.31C2815.11 4670.03 2428.1 4713.11 2025.66 4624.31C1674.25 4680.55 1081.55 4675.51 861.805 4624.31C892.366 5767.9 3149.18 5822.38 3234.48 4680.08C3235.84 4661.75 3234.48 4642.58 3222.04 4624.31Z" fill="#F2B1AF"/>
</g>
<path d="M683.091 3812.53C751.974 3609.82 839.889 3550.51 1113.93 3436.19C1123.35 3432.27 1135.48 3432.41 1144.73 3436.5L1150.93 3439.24C1491.46 3589.69 1599.85 3637.57 1592.93 3745.5C1592.83 3747.03 1589.56 3747.36 1588.02 3746.25C1364.8 3585.51 973.861 3623.8 741.438 3778.18C724.306 3789.56 706.595 3801.64 688.051 3814.47C685.96 3815.91 682.419 3814.52 683.091 3812.53Z" fill="#333333"/>
<path d="M3364.86 3812.53C3299.66 3609.82 3216.45 3550.51 2957.08 3436.19C2948.18 3432.27 2936.7 3432.41 2927.94 3436.5L2922.07 3439.24C2599.79 3589.69 2497.21 3637.57 2503.75 3745.5C2503.84 3747.03 2506.95 3747.36 2508.4 3746.25C2719.67 3585.51 3089.66 3623.8 3309.63 3778.18C3325.85 3789.56 3342.61 3801.64 3360.16 3814.47C3362.14 3815.91 3365.49 3814.52 3364.86 3812.53Z" fill="#333333"/>
<path d="M3364.92 4563.24C3195.9 4656.38 2944.83 4669.95 2710.15 4669.94C2507.62 4669.93 2332.36 4659.46 2103.16 4633.83C2052.6 4628.18 2000.6 4627.31 1949.61 4631.53C1650.64 4656.29 1477.86 4671.98 1141.84 4669.94C952.375 4658.35 851.37 4624.75 731.766 4563.24" stroke="#E8625D" stroke-width="35" stroke-linecap="round"/>
<path d="M728.874 4788.7C837.997 4851.71 960.507 4843.81 1002.51 4771.05C1044.51 4698.29 990.097 4588.23 880.974 4525.22C771.852 4462.21 649.342 4470.11 607.341 4542.87C565.34 4615.63 619.752 4725.69 728.874 4788.7Z" fill="#E8625D"/>
<path d="M3397.98 4766.09C3507.1 4703.08 3561.52 4593.02 3519.51 4520.26C3477.51 4447.51 3355 4439.61 3245.88 4502.62C3136.76 4565.63 3082.35 4675.69 3124.35 4748.44C3166.35 4821.2 3288.86 4829.1 3397.98 4766.09Z" fill="#E8625D"/>
<path d="M3284.22 4107.12C3284.22 4352.36 2918.34 4550.87 2902.76 4559.07C2898.66 4561.27 2894.07 4562.41 2889.4 4562.41C2884.74 4562.41 2880.15 4561.27 2876.04 4559.07C2860.46 4550.87 2494.59 4352.36 2494.59 4107.12C2494.65 4049.53 2517.7 3994.32 2558.67 3953.6C2599.64 3912.88 2655.2 3889.97 2713.15 3889.91C2785.94 3889.91 2849.67 3921.02 2889.4 3973.6C2929.13 3921.02 2992.86 3889.91 3065.66 3889.91C3123.6 3889.97 3179.16 3912.88 3220.13 3953.6C3261.1 3994.32 3284.15 4049.53 3284.22 4107.12Z" fill="#E6322B"/>
<path d="M1593.91 4107.12C1593.91 4352.36 1228.03 4550.87 1212.45 4559.07C1208.34 4561.27 1203.75 4562.41 1199.09 4562.41C1194.43 4562.41 1189.84 4561.27 1185.73 4559.07C1170.15 4550.87 804.273 4352.36 804.273 4107.12C804.341 4049.53 827.389 3994.32 868.357 3953.6C909.331 3912.88 964.889 3889.97 1022.83 3889.91C1095.63 3889.91 1159.36 3921.02 1199.09 3973.6C1238.82 3921.02 1302.55 3889.91 1375.34 3889.91C1433.29 3889.97 1488.85 3912.88 1529.82 3953.6C1570.79 3994.32 1593.84 4049.53 1593.91 4107.12Z" fill="#E6322B"/>
<path fill-rule="evenodd" clip-rule="evenodd" d="M5059.94 6900.65C5008 6912.42 4958.18 6939.83 4921.35 6976.9C4868.25 7030.35 4841.25 7089.12 4831.38 7172.73C4818.21 7284.33 4856.85 7399.83 4929.11 7464.79C4960.22 7492.75 4990.3 7509.73 5034.81 7524.46C5065.81 7534.71 5079.26 7536.52 5125.77 7536.68C5217.49 7536.99 5273.75 7515.47 5334.63 7456.82C5354.64 7437.54 5371.25 7422.19 5371.54 7422.71C5402.57 7477.77 5449.7 7512.94 5509.19 7525.45C5522.45 7528.24 5535.24 7530.52 5537.61 7530.52C5540.31 7530.52 5541.94 7412.06 5541.94 7216.73V6902.93H5530.97C5514.35 6902.93 5467.39 6918.63 5445.29 6931.58C5423.39 6944.42 5385.5 6982.87 5377.54 7000.35L5372.36 7011.72L5341.9 6981.2C5283.82 6923 5225.55 6898.08 5141.69 6895.55C5106.76 6894.49 5079.6 6896.19 5059.94 6900.65ZM5996.77 6900.69C5946.93 6912.84 5900.34 6938.44 5857.32 6977.32L5833.86 6998.53L5806.45 6971.13C5777.59 6942.27 5720.78 6910.97 5686.25 6904.9L5669.1 6901.88L5670.33 7202.93C5671.53 7494.93 5671.83 7504.16 5680.39 7510.43C5687.29 7515.47 5708.31 7516.88 5776.49 7516.88C5852.07 7516.88 5864.59 7515.87 5870 7509.37C5874.97 7503.38 5876.7 7464.46 5878.51 7317.22C5880.71 7138.98 5881.13 7131.97 5890.6 7114.4C5918.32 7063.04 5975.36 7043.14 6024.23 7067.79C6049.78 7080.67 6063.22 7104.13 6069.36 7146.59C6071.86 7163.9 6073.95 7252.19 6074 7342.77C6074.09 7500.89 6074.44 7507.65 6082.89 7512.17C6088.07 7514.94 6127.24 7516.88 6178.15 7516.88C6262.33 7516.88 6264.79 7516.62 6271.68 7506.77C6277.79 7498.05 6278.76 7472.86 6278.76 7323.41C6278.76 7126.58 6280.41 7113.96 6310.04 7084.33C6338.23 7056.15 6391.37 7048.75 6428.91 7067.79C6444.14 7075.51 6451.89 7083.55 6460.57 7100.62L6472.06 7123.22L6474.34 7312.54C6476.15 7463.75 6477.87 7503.37 6482.85 7509.37C6491.99 7520.36 6660.91 7520.68 6671.87 7509.74C6678.15 7503.45 6679.01 7477.56 6679.01 7293.94C6679.01 7069.49 6677.9 7056.06 6655.44 7008.41C6620.82 6934.98 6545.41 6894.07 6444.37 6893.9C6368.28 6893.78 6309.58 6915.35 6258.93 6962.05C6239.17 6980.27 6231.19 6985.24 6229.54 6980.34C6224.68 6965.88 6182.17 6926.62 6159.44 6915.6C6114.43 6893.77 6049.55 6887.83 5996.77 6900.69ZM4342.23 7202.87C4343.43 7494.93 4343.73 7504.16 4352.29 7510.43C4364.26 7519.18 4526.58 7519.85 4537.95 7511.2C4544.57 7506.16 4545.61 7487.58 4547.05 7348.61C4548.87 7172.39 4550.53 7161.4 4580.76 7126.09C4604.76 7098.05 4626.11 7089.61 4673.22 7089.52C4694.48 7089.48 4719.52 7091.56 4728.86 7094.16C4740.8 7097.47 4748.59 7097.42 4755.02 7093.97C4763.69 7089.33 4764.18 7084.61 4764.18 7005.8C4764.18 6904.01 4765.32 6906.06 4707.29 6903.62C4665.12 6901.85 4629.19 6910.01 4597.57 6928.53C4575.04 6941.74 4542.15 6975.91 4527.53 7001.32L4517 7019.61L4496.18 6992.21C4465.23 6951.46 4405.62 6914.68 4353.72 6904.3L4341 6901.76L4342.23 7202.87ZM5253.86 7073.64C5281.38 7087.09 5307.08 7113.91 5320.72 7143.41C5328.87 7161.03 5330.44 7172.9 5330.44 7216.73C5330.44 7277.28 5323.68 7297.56 5292.08 7331.84C5265.83 7360.33 5234.78 7373.08 5191.72 7373.08C5148.66 7373.08 5117.62 7360.33 5091.36 7331.84C5059.76 7297.56 5053 7277.28 5053 7216.73C5053 7156.92 5059.56 7136.64 5089.7 7103.28C5130.24 7058.42 5197.74 7046.23 5253.86 7073.64Z" fill="#808080"/>
<path fill-rule="evenodd" clip-rule="evenodd" d="M7230.72 7380.22C7144.25 7411.36 7090.27 7471.48 7072.19 7556.81C7068.61 7573.69 7065.65 7597.23 7065.61 7609.11L7065.53 7630.72H7014.13C6980.21 7630.72 6960.87 7632.58 6957.26 7636.18C6953.51 7639.94 6951.8 7662.62 6951.8 7708.72C6951.8 7792.03 6950.1 7789.96 7018.78 7789.96H7065.53V8003.46C7065.53 8191.49 7066.39 8217.81 7072.68 8224.11C7083.32 8234.75 7252.44 8234.75 7263.09 8224.11C7269.38 8217.81 7270.24 8191.52 7270.24 8003.85V7790.74L7322.34 7789.21C7357.15 7788.19 7376.39 7785.73 7380.34 7781.78C7384.42 7777.69 7386.7 7756.99 7387.73 7714.42C7389.8 7629.32 7390.89 7630.72 7322.44 7630.72H7270.24V7501.06C7270.24 7354 7273.75 7364.73 7230.72 7380.22ZM4693.22 7610.98C4665.21 7616.97 4612.86 7638.48 4587.83 7654.3C4572.01 7664.28 4547.81 7684.9 4534.03 7700.13C4520.26 7715.36 4508.98 7725.58 4508.98 7722.86C4508.98 7714.26 4464.31 7668.59 4441.71 7654.09C4417.74 7638.71 4363.82 7617.08 4349.45 7617.08C4340.25 7617.08 4340.23 7618.03 4341.74 7989C4343.23 8356.84 4343.36 8361.32 4353.34 8397.32C4372.54 8466.56 4402.6 8511.63 4449.39 8541.32C4471.5 8555.35 4520.74 8572.47 4538.98 8572.47H4549.83L4551.01 8376.43L4552.2 8180.4L4570.4 8195.1C4596.53 8216.21 4646.76 8238.41 4687.34 8246.78C4791.02 8268.16 4892.44 8239.9 4961.98 8170.25C5000.2 8131.98 5022.54 8093.73 5039.3 8037.9C5050.01 8002.22 5051.63 7988.77 5051.9 7933.27C5052.27 7857.94 5045.44 7824.82 5017.66 7767.21C5002.72 7736.23 4991.67 7721.26 4962.12 7691.97C4900.69 7631.11 4840.87 7607.51 4750.49 7608.5C4724 7608.8 4698.22 7609.91 4693.22 7610.98ZM5418.79 7611.13C5310.02 7629.41 5218.9 7692.22 5178.63 7776.66C5153.09 7830.22 5144.76 7868.07 5144.67 7930.99C5144.53 8026.49 5172.37 8098.93 5232.11 8158.56C5271.66 8198.02 5309.67 8219.89 5371.19 8238.56C5408.42 8249.86 5418.48 8250.94 5487.02 8250.99C5574.87 8251.07 5609 8243.87 5670.29 8212.31C5720.2 8186.6 5770.36 8137.42 5793.43 8091.55C5820.46 8037.81 5829.77 7996.82 5829.9 7930.99C5830.1 7833.67 5803.6 7765.04 5741.97 7703.2C5692.31 7653.38 5645.66 7629.37 5569.64 7614.51C5538.96 7608.5 5446.68 7606.44 5418.79 7611.13ZM6583.33 7616.54C6532.2 7633.04 6490.21 7662.35 6456.87 7704.79L6435.7 7731.73L6428.79 7721.04C6403.07 7681.26 6356.76 7645.61 6307.59 7627.77C6254.6 7608.53 6260.35 7573.62 6260.35 7914.05C6260.35 8175.48 6261.2 8212.25 6267.44 8221.15C6274.35 8231.02 6276.67 8231.26 6364.68 8231.26C6442.96 8231.26 6455.67 8230.27 6461.09 8223.74C6466.06 8217.76 6467.8 8179.86 6469.61 8038.35L6471.88 7860.47L6484.04 7837.44C6505.81 7796.19 6541.84 7771.81 6581.06 7771.81C6620.69 7771.81 6655.47 7795.53 6664.72 7828.84C6667.96 7840.51 6669.73 7910.78 6669.74 8028.93C6669.76 8186.36 6670.73 8212.41 6676.85 8221.15C6683.76 8231.02 6686.06 8231.26 6774.55 8231.26H6865.16L6872.47 8220.11C6878.96 8210.2 6879.57 8186.98 6877.92 8009.7C6876.21 7824.29 6875.42 7808.01 6866.49 7775.65C6841.04 7683.42 6789.88 7629.71 6711.62 7613.1C6675.44 7605.41 6612.59 7607.1 6583.33 7616.54ZM5932.83 7914.05C5932.83 8175.48 5933.67 8212.25 5939.91 8221.15C5946.82 8231.02 5949.12 8231.26 6037.61 8231.26H6128.22L6135.5 8220.16C6141.95 8210.31 6142.57 8187.08 6140.97 8014.29C6139.43 7848.81 6138.01 7815.54 6131.49 7793.01C6107.78 7711.08 6057.04 7655.71 5980.06 7627.77C5927.07 7608.53 5932.83 7573.62 5932.83 7914.05ZM5449.77 7773.3C5387.23 7790.93 5350.55 7848.87 5350.55 7930.05C5350.55 8033.9 5401.51 8091.87 5492.06 8091.02C5563.31 8090.35 5610.72 8045.07 5623.42 7965.56C5633.34 7903.48 5614.05 7834.33 5577.35 7800.42C5548.95 7774.17 5490.64 7761.77 5449.77 7773.3ZM4662.39 7776.29C4620.68 7783.67 4587.34 7810.17 4565.04 7853.65C4553.15 7876.83 4552.2 7882.54 4552.2 7930.99C4552.2 7974.6 4553.8 7986.76 4561.78 8004.02C4590.4 8065.87 4649.67 8096.88 4716.91 8085.18C4790.87 8072.29 4835.66 8007.06 4831.04 7918.95C4829.37 7887.07 4826.57 7876.19 4813.45 7850.46C4784.25 7793.22 4726.62 7764.92 4662.39 7776.29ZM7504 8028.1C7469.61 8036.89 7433.63 8058.91 7418.29 8080.55C7400.07 8106.25 7396.68 8148.1 7410.62 8175.41C7431.02 8215.4 7474.51 8239.24 7535.12 8243.64C7623.98 8250.09 7695.31 8207.78 7701.34 8145.05C7707.62 8079.68 7649.35 8029.19 7561.81 8024.15C7541.46 8022.98 7517.7 8024.6 7504 8028.1Z" fill="#121212"/>
<g filter="url(#filter4_d_2754_1918)">
<g filter="url(#filter5_d_2754_1918)">
<path fill-rule="evenodd" clip-rule="evenodd" d="M3552.51 7278.42C3552.51 7326.39 3541.66 7372.69 3521.51 7416.27C3662.51 7517.8 3743 7641.4 3743 7784.91C3743 8197.52 2975.45 8607.97 2028.62 8607.97C1081.81 8607.97 352.361 8222.85 352.361 7810.24C340.062 7667.29 411.6 7541.47 545.918 7436.6C519.275 7387.18 504.751 7333.92 504.751 7278.42C504.751 7019.66 820.293 6809.9 1209.54 6809.9C1498.9 6809.9 1747.54 6925.82 1856.1 7091.61C1912.83 7089.53 1970.38 7088.48 2028.62 7088.48C2086.93 7088.48 2144.55 7089.44 2201.35 7091.34C2309.99 6925.7 2558.51 6809.9 2847.72 6809.9C3236.97 6809.9 3552.51 7019.66 3552.51 7278.42Z" fill="#808080"/>
</g>
<g filter="url(#filter6_d_2754_1918)">
<path d="M801.327 7708.46C1221.73 7755.68 1613.41 7800.67 2043.61 7800.67C2432.37 7800.67 3012.67 7761.35 3239.7 7708.46C3208.13 8889.77 876.602 8946.06 788.484 7766.07C787.08 7747.13 788.484 7727.33 801.327 7708.46Z" fill="#D9D9D9"/>
</g>
<path d="M456.833 7915.83C437.631 7915.83 422.062 7901.2 422.062 7883.17C422.062 7865.13 437.631 7850.5 456.833 7850.5C476.041 7850.5 491.609 7865.13 491.609 7883.17C491.609 7901.2 476.041 7915.83 456.833 7915.83Z" fill="#333333"/>
<path d="M630.708 8046.53C611.506 8046.53 595.937 8031.91 595.937 8013.87C595.937 7995.83 611.506 7981.21 630.708 7981.21C649.916 7981.21 665.484 7995.83 665.484 8013.87C665.484 8031.91 649.916 8046.53 630.708 8046.53Z" fill="#333333"/>
<path d="M665.482 7883.19C646.279 7883.19 630.711 7868.56 630.711 7850.52C630.711 7832.49 646.279 7817.86 665.482 7817.86C684.689 7817.86 700.258 7832.49 700.258 7850.52C700.258 7868.56 684.689 7883.19 665.482 7883.19Z" fill="#333333"/>
<path d="M3308.33 7915.83C3289.12 7915.83 3273.55 7901.2 3273.55 7883.17C3273.55 7865.13 3289.12 7850.5 3308.33 7850.5C3327.53 7850.5 3343.1 7865.13 3343.1 7883.17C3343.1 7901.2 3327.53 7915.83 3308.33 7915.83Z" fill="#333333"/>
<path d="M3482.2 8046.53C3463 8046.53 3447.43 8031.91 3447.43 8013.87C3447.43 7995.83 3463 7981.21 3482.2 7981.21C3501.41 7981.21 3516.98 7995.83 3516.98 8013.87C3516.98 8031.91 3501.41 8046.53 3482.2 8046.53Z" fill="#333333"/>
<path d="M3516.96 7883.19C3497.76 7883.19 3482.19 7868.56 3482.19 7850.52C3482.19 7832.49 3497.76 7817.86 3516.96 7817.86C3536.17 7817.86 3551.73 7832.49 3551.73 7850.52C3551.73 7868.56 3536.17 7883.19 3516.96 7883.19Z" fill="#333333"/>
<path d="M653.252 7639.47C827.873 7735.69 1087.25 7749.71 1329.7 7749.7C1538.94 7749.69 1733.76 7836.37 1970.54 7809.9C2022.79 7804.05 2076.5 7803.16 2129.19 7807.51C2438.04 7833.09 2602.78 7751.81 2949.92 7749.7C3145.66 7737.72 3250.01 7703.01 3373.58 7639.47" stroke="#333333" stroke-width="60" stroke-linecap="round"/>
<path d="M2431.92 7116H3311.41C3312.03 7724.37 2433.4 7737.62 2431.92 7129.24C2431.91 7124.86 2431.91 7120.44 2431.92 7116Z" fill="white"/>
<path d="M2591.83 7116H3007.59C3007.9 7381.26 2592.76 7387.55 2591.83 7122.29C2591.82 7120.21 2591.82 7118.11 2591.83 7116Z" fill="#333333"/>
<path d="M787.625 7116H1667.12C1667.74 7724.37 789.105 7737.62 787.625 7129.24C787.614 7124.86 787.614 7120.44 787.625 7116Z" fill="white"/>
<path d="M1092.05 7116H1507.8C1508.11 7381.26 1092.98 7387.55 1092.05 7122.29C1092.05 7120.21 1092.04 7118.11 1092.05 7116Z" fill="#333333"/>
<path d="M1711.73 7063.19H628.291" stroke="#333333" stroke-width="220" stroke-linecap="round"/>
<path d="M3445.25 7063.19L2380.93 7063.19" stroke="#333333" stroke-width="220" stroke-linecap="round"/>
</g>
<path fill-rule="evenodd" clip-rule="evenodd" d="M5059.94 9940.01C5008 9951.79 4958.18 9979.2 4921.35 10016.3C4868.25 10069.7 4841.25 10128.5 4831.38 10212.1C4818.21 10323.7 4856.85 10439.2 4929.11 10504.1C4960.22 10532.1 4990.3 10549.1 5034.81 10563.8C5065.81 10574.1 5079.26 10575.9 5125.77 10576C5217.49 10576.4 5273.75 10554.8 5334.63 10496.2C5354.64 10476.9 5371.25 10461.6 5371.54 10462.1C5402.57 10517.1 5449.7 10552.3 5509.19 10564.8C5522.45 10567.6 5535.24 10569.9 5537.61 10569.9C5540.31 10569.9 5541.94 10451.4 5541.94 10256.1V9942.3H5530.97C5514.35 9942.3 5467.39 9958 5445.29 9970.95C5423.39 9983.78 5385.5 10022.2 5377.54 10039.7L5372.36 10051.1L5341.9 10020.6C5283.82 9962.37 5225.55 9937.44 5141.69 9934.91C5106.76 9933.86 5079.6 9935.55 5059.94 9940.01ZM5996.77 9940.05C5946.93 9952.2 5900.34 9977.8 5857.32 10016.7L5833.86 10037.9L5806.45 10010.5C5777.59 9981.64 5720.78 9950.34 5686.25 9944.26L5669.1 9941.25L5670.33 10242.3C5671.53 10534.3 5671.83 10543.5 5680.39 10549.8C5687.29 10554.8 5708.31 10556.2 5776.49 10556.2C5852.07 10556.2 5864.59 10555.2 5870 10548.7C5874.97 10542.7 5876.7 10503.8 5878.51 10356.6C5880.71 10178.3 5881.13 10171.3 5890.6 10153.8C5918.32 10102.4 5975.36 10082.5 6024.23 10107.2C6049.78 10120 6063.22 10143.5 6069.36 10186C6071.86 10203.3 6073.95 10291.6 6074 10382.1C6074.09 10540.3 6074.44 10547 6082.89 10551.5C6088.07 10554.3 6127.24 10556.2 6178.15 10556.2C6262.33 10556.2 6264.79 10556 6271.68 10546.1C6277.79 10537.4 6278.76 10512.2 6278.76 10362.8C6278.76 10165.9 6280.41 10153.3 6310.04 10123.7C6338.23 10095.5 6391.37 10088.1 6428.91 10107.2C6444.14 10114.9 6451.89 10122.9 6460.57 10140L6472.06 10162.6L6474.34 10351.9C6476.15 10503.1 6477.87 10542.7 6482.85 10548.7C6491.99 10559.7 6660.91 10560 6671.87 10549.1C6678.15 10542.8 6679.01 10516.9 6679.01 10333.3C6679.01 10108.9 6677.9 10095.4 6655.44 10047.8C6620.82 9974.34 6545.41 9933.43 6444.37 9933.27C6368.28 9933.15 6309.58 9954.72 6258.93 10001.4C6239.17 10019.6 6231.19 10024.6 6229.54 10019.7C6224.68 10005.2 6182.17 9965.98 6159.44 9954.97C6114.43 9933.14 6049.55 9927.19 5996.77 9940.05ZM4342.23 10242.2C4343.43 10534.3 4343.73 10543.5 4352.29 10549.8C4364.26 10558.5 4526.58 10559.2 4537.95 10550.6C4544.57 10545.5 4545.61 10526.9 4547.05 10388C4548.87 10211.8 4550.53 10200.8 4580.76 10165.5C4604.76 10137.4 4626.11 10129 4673.22 10128.9C4694.48 10128.8 4719.52 10130.9 4728.86 10133.5C4740.8 10136.8 4748.59 10136.8 4755.02 10133.3C4763.69 10128.7 4764.18 10124 4764.18 10045.2C4764.18 9943.38 4765.32 9945.42 4707.29 9942.98C4665.12 9941.21 4629.19 9949.37 4597.57 9967.9C4575.04 9981.1 4542.15 10015.3 4527.53 10040.7L4517 10059L4496.18 10031.6C4465.23 9990.82 4405.62 9954.04 4353.72 9943.66L4341 9941.12L4342.23 10242.2ZM5253.86 10113C5281.38 10126.5 5307.08 10153.3 5320.72 10182.8C5328.87 10200.4 5330.44 10212.3 5330.44 10256.1C5330.44 10316.6 5323.68 10336.9 5292.08 10371.2C5265.83 10399.7 5234.78 10412.4 5191.72 10412.4C5148.66 10412.4 5117.62 10399.7 5091.36 10371.2C5059.76 10336.9 5053 10316.6 5053 10256.1C5053 10196.3 5059.56 10176 5089.7 10142.6C5130.24 10097.8 5197.74 10085.6 5253.86 10113Z" fill="#0076AC"/>
<path fill-rule="evenodd" clip-rule="evenodd" d="M7230.72 10419.6C7144.25 10450.7 7090.27 10510.8 7072.19 10596.2C7068.61 10613.1 7065.65 10636.6 7065.61 10648.5L7065.53 10670.1H7014.13C6980.21 10670.1 6960.87 10671.9 6957.26 10675.5C6953.51 10679.3 6951.8 10702 6951.8 10748.1C6951.8 10831.4 6950.1 10829.3 7018.78 10829.3H7065.53V11042.8C7065.53 11230.9 7066.39 11257.2 7072.68 11263.5C7083.32 11274.1 7252.44 11274.1 7263.09 11263.5C7269.38 11257.2 7270.24 11230.9 7270.24 11043.2V10830.1L7322.34 10828.6C7357.15 10827.6 7376.39 10825.1 7380.34 10821.1C7384.42 10817.1 7386.7 10796.4 7387.73 10753.8C7389.8 10668.7 7390.89 10670.1 7322.44 10670.1H7270.24V10540.4C7270.24 10393.4 7273.75 10404.1 7230.72 10419.6ZM4693.22 10650.3C4665.21 10656.3 4612.86 10677.8 4587.83 10693.7C4572.01 10703.6 4547.81 10724.3 4534.03 10739.5C4520.26 10754.7 4508.98 10764.9 4508.98 10762.2C4508.98 10753.6 4464.31 10708 4441.71 10693.5C4417.74 10678.1 4363.82 10656.4 4349.45 10656.4C4340.25 10656.4 4340.23 10657.4 4341.74 11028.4C4343.23 11396.2 4343.36 11400.7 4353.34 11436.7C4372.54 11505.9 4402.6 11551 4449.39 11580.7C4471.5 11594.7 4520.74 11611.8 4538.98 11611.8H4549.83L4551.01 11415.8L4552.2 11219.8L4570.4 11234.5C4596.53 11255.6 4646.76 11277.8 4687.34 11286.1C4791.02 11307.5 4892.44 11279.3 4961.98 11209.6C5000.2 11171.3 5022.54 11133.1 5039.3 11077.3C5050.01 11041.6 5051.63 11028.1 5051.9 10972.6C5052.27 10897.3 5045.44 10864.2 5017.66 10806.6C5002.72 10775.6 4991.67 10760.6 4962.12 10731.3C4900.69 10670.5 4840.87 10646.9 4750.49 10647.9C4724 10648.2 4698.22 10649.3 4693.22 10650.3ZM5418.79 10650.5C5310.02 10668.8 5218.9 10731.6 5178.63 10816C5153.09 10869.6 5144.76 10907.4 5144.67 10970.4C5144.53 11065.9 5172.37 11138.3 5232.11 11197.9C5271.66 11237.4 5309.67 11259.3 5371.19 11277.9C5408.42 11289.2 5418.48 11290.3 5487.02 11290.4C5574.87 11290.4 5609 11283.2 5670.29 11251.7C5720.2 11226 5770.36 11176.8 5793.43 11130.9C5820.46 11077.2 5829.77 11036.2 5829.9 10970.4C5830.1 10873 5803.6 10804.4 5741.97 10742.6C5692.31 10692.7 5645.66 10668.7 5569.64 10653.9C5538.96 10647.9 5446.68 10645.8 5418.79 10650.5ZM6583.33 10655.9C6532.2 10672.4 6490.21 10701.7 6456.87 10744.2L6435.7 10771.1L6428.79 10760.4C6403.07 10720.6 6356.76 10685 6307.59 10667.1C6254.6 10647.9 6260.35 10613 6260.35 10953.4C6260.35 11214.8 6261.2 11251.6 6267.44 11260.5C6274.35 11270.4 6276.67 11270.6 6364.68 11270.6C6442.96 11270.6 6455.67 11269.6 6461.09 11263.1C6466.06 11257.1 6467.8 11219.2 6469.61 11077.7L6471.88 10899.8L6484.04 10876.8C6505.81 10835.6 6541.84 10811.2 6581.06 10811.2C6620.69 10811.2 6655.47 10834.9 6664.72 10868.2C6667.96 10879.9 6669.73 10950.1 6669.74 11068.3C6669.76 11225.7 6670.73 11251.8 6676.85 11260.5C6683.76 11270.4 6686.06 11270.6 6774.55 11270.6H6865.16L6872.47 11259.5C6878.96 11249.6 6879.57 11226.3 6877.92 11049.1C6876.21 10863.7 6875.42 10847.4 6866.49 10815C6841.04 10722.8 6789.88 10669.1 6711.62 10652.5C6675.44 10644.8 6612.59 10646.5 6583.33 10655.9ZM5932.83 10953.4C5932.83 11214.8 5933.67 11251.6 5939.91 11260.5C5946.82 11270.4 5949.12 11270.6 6037.61 11270.6H6128.22L6135.5 11259.5C6141.95 11249.7 6142.57 11226.4 6140.97 11053.7C6139.43 10888.2 6138.01 10854.9 6131.49 10832.4C6107.78 10750.4 6057.04 10695.1 5980.06 10667.1C5927.07 10647.9 5932.83 10613 5932.83 10953.4ZM5449.77 10812.7C5387.23 10830.3 5350.55 10888.2 5350.55 10969.4C5350.55 11073.3 5401.51 11131.2 5492.06 11130.4C5563.31 11129.7 5610.72 11084.4 5623.42 11004.9C5633.34 10942.8 5614.05 10873.7 5577.35 10839.8C5548.95 10813.5 5490.64 10801.1 5449.77 10812.7ZM4662.39 10815.7C4620.68 10823 4587.34 10849.5 4565.04 10893C4553.15 10916.2 4552.2 10921.9 4552.2 10970.4C4552.2 11014 4553.8 11026.1 4561.78 11043.4C4590.4 11105.2 4649.67 11136.2 4716.91 11124.5C4790.87 11111.7 4835.66 11046.4 4831.04 10958.3C4829.37 10926.4 4826.57 10915.6 4813.45 10889.8C4784.25 10832.6 4726.62 10804.3 4662.39 10815.7ZM7504 11067.5C7469.61 11076.3 7433.63 11098.3 7418.29 11119.9C7400.07 11145.6 7396.68 11187.5 7410.62 11214.8C7431.02 11254.8 7474.51 11278.6 7535.12 11283C7623.98 11289.5 7695.31 11247.1 7701.34 11184.4C7707.62 11119 7649.35 11068.6 7561.81 11063.5C7541.46 11062.3 7517.7 11064 7504 11067.5Z" fill="#121212"/>
<g filter="url(#filter7_d_2754_1918)">
<path fill-rule="evenodd" clip-rule="evenodd" d="M494.495 10406.5C494.495 10456 505.686 10503.8 526.476 10548.7C381.028 10653.5 298 10780.9 298 10929C298 11354.6 1089.76 11778 2066.45 11778C3043.14 11778 3795.6 11380.7 3795.6 10955.1C3808.28 10807.7 3734.49 10677.9 3595.94 10569.7C3623.42 10518.7 3638.4 10463.8 3638.4 10406.5C3638.4 10139.6 3312.91 9923.27 2911.38 9923.27C2612.9 9923.27 2356.41 10042.8 2244.43 10213.8C2185.9 10211.7 2126.53 10210.6 2066.45 10210.6C2006.31 10210.6 1946.87 10211.6 1888.28 10213.6C1776.21 10042.7 1519.85 9923.27 1221.53 9923.27C819.995 9923.27 494.495 10139.6 494.495 10406.5Z" fill="#0076AC"/>
</g>
<g filter="url(#filter8_d_2754_1918)">
<path d="M3354.76 10937.2C3151.17 10884.5 2547.84 10762.6 2052.67 10762.6C1741.81 10769.9 998.237 10848.6 998.237 10848.6C998.237 10848.6 745.402 10898.9 673.172 10918.9C709.511 12016.1 3331.25 12086.8 3432.68 10990.8C3434.3 10973.2 3369.54 10954.7 3354.76 10937.2Z" fill="#46C4FF"/>
</g>
<path d="M3657.45 11080.5C3677.27 11080.5 3693.33 11065.4 3693.33 11046.8C3693.33 11028.2 3677.27 11013.1 3657.45 11013.1C3637.64 11013.1 3621.59 11028.2 3621.59 11046.8C3621.59 11065.4 3637.64 11080.5 3657.45 11080.5Z" fill="#00354E"/>
<path d="M3548.32 11182.8C3568.13 11182.8 3584.2 11167.7 3584.2 11149.1C3584.2 11130.5 3568.13 11115.4 3548.32 11115.4C3528.51 11115.4 3512.45 11130.5 3512.45 11149.1C3512.45 11167.7 3528.51 11182.8 3548.32 11182.8Z" fill="#00354E"/>
<path d="M3528.74 11030.4C3548.55 11030.4 3564.61 11015.3 3564.61 10996.7C3564.61 10978 3548.55 10963 3528.74 10963C3508.93 10963 3492.87 10978 3492.87 10996.7C3492.87 11015.3 3508.93 11030.4 3528.74 11030.4Z" fill="#00354E"/>
<path d="M441.431 11131.4C461.241 11131.4 477.304 11116.3 477.304 11097.7C477.304 11079.1 461.241 11064 441.431 11064C421.62 11064 405.562 11079.1 405.562 11097.7C405.562 11116.3 421.62 11131.4 441.431 11131.4Z" fill="#00354E"/>
<path d="M567.043 11198.8C586.854 11198.8 602.914 11183.7 602.914 11165.1C602.914 11146.5 586.854 11131.4 567.043 11131.4C547.232 11131.4 531.172 11146.5 531.172 11165.1C531.172 11183.7 547.232 11198.8 567.043 11198.8Z" fill="#00354E"/>
<path d="M531.168 11030.4C550.979 11030.4 567.039 11015.3 567.039 10996.7C567.039 10978 550.979 10963 531.168 10963C511.357 10963 495.297 10978 495.297 10996.7C495.297 11015.3 511.357 11030.4 531.168 11030.4Z" fill="#00354E"/>
<path d="M676.271 10938.8C855.737 10828.3 1118.68 10817.8 1364.09 10823.6C1575.89 10828.6 1775.53 10730 2014.46 10767.2C2067.18 10775.4 2121.52 10777.8 2174.97 10773.9C2488.33 10750.8 2652.79 10851.6 3004.11 10862.4C3201.9 10881.4 3306.54 10925.3 3429.83 11004" stroke="#00354E" stroke-width="70" stroke-linecap="round"/>
<path d="M1568.52 10120.6L695.399 10367C865.246 10971.1 1741.23 10738.1 1572.23 10133.7C1571.01 10129.4 1569.77 10125 1568.52 10120.6Z" fill="white"/>
<path d="M1442.26 10155.8L1028.63 10268.4C1111.13 10572.6 1526.1 10467.3 1444.22 10163C1443.57 10160.6 1442.92 10158.2 1442.26 10155.8Z" fill="#333333"/>
<path d="M3394.95 10356L2523.13 10105C2348.88 10707.8 3216.07 10971.7 3391.16 10369.1C3392.43 10364.8 3393.69 10360.4 3394.95 10356Z" fill="white"/>
<path d="M3074.58 10259.6L2667.27 10125.3C2558.42 10454.5 2962.56 10596.3 3072 10267.4C3072.86 10264.8 3073.72 10262.2 3074.58 10259.6Z" fill="#333333"/>
<path d="M2421.02 10010.8L3483.28 10358.2" stroke="#333333" stroke-width="210" stroke-linecap="round"/>
<path d="M628.547 10343.1L1679.62 10025.9" stroke="#333333" stroke-width="210" stroke-linecap="round"/>
<path fill-rule="evenodd" clip-rule="evenodd" d="M2876.93 10439.7C2865.64 10405.8 2882.7 10366 2915.04 10350.9C2947.37 10335.8 2982.73 10351.1 2994.02 10385C3005.3 10419 2988.24 10458.7 2955.91 10473.9C2923.58 10489 2888.22 10473.7 2876.93 10439.7ZM2767.54 10282.3C2764.51 10255.2 2782.09 10231 2806.81 10228.3C2831.53 10225.5 2854.02 10245.2 2857.05 10272.3C2860.08 10299.4 2842.5 10323.6 2817.78 10326.4C2793.06 10329.1 2770.57 10309.4 2767.54 10282.3Z" fill="white"/>
<path fill-rule="evenodd" clip-rule="evenodd" d="M1181 10358.2C1211.08 10338.8 1253.85 10345.5 1276.52 10373C1299.19 10400.6 1293.19 10438.6 1263.11 10458C1233.02 10477.4 1190.26 10470.7 1167.58 10443.2C1144.91 10415.6 1150.92 10377.6 1181 10358.2ZM1306.23 10213.1C1331.71 10203.4 1359.52 10214.4 1368.35 10237.7C1377.18 10260.9 1363.68 10287.6 1338.19 10297.3C1312.71 10307 1284.9 10296 1276.07 10272.7C1267.24 10249.5 1280.75 10222.8 1306.23 10213.1Z" fill="white"/>
<path d="M2985.28 10787C2984.13 10785.7 2982.71 10784.6 2981.1 10783.9C2979.5 10783.1 2977.76 10782.7 2975.99 10782.7C2974.23 10782.7 2972.49 10783.1 2970.88 10783.9C2969.28 10784.6 2967.86 10785.7 2966.71 10787C2934.46 10824.8 2829.33 10955.3 2829.33 11052C2829.33 11142.1 2886 11198.9 2975.99 11198.9C3065.98 11198.9 3122.65 11142.1 3122.65 11052C3122.65 10955.3 3017.51 10824.8 2985.28 10787ZM2992.28 11145.8C2990.33 11145.8 2988.4 11145.4 2986.66 11144.5C2984.92 11143.6 2983.42 11142.3 2982.29 11140.7C2981.15 11139.1 2980.42 11137.2 2980.15 11135.3C2979.88 11133.3 2980.08 11131.4 2980.73 11129.5C2981.57 11127.1 2983.14 11125 2985.23 11123.6C2987.31 11122.1 2989.81 11121.3 2992.35 11121.4C3008.53 11121.3 3024.04 11114.9 3035.48 11103.4C3046.91 11092 3053.36 11076.4 3053.39 11060.2C3053.35 11057.7 3054.12 11055.2 3055.58 11053.1C3057.05 11051 3059.13 11049.4 3061.54 11048.6C3063.38 11048 3065.36 11047.8 3067.3 11048C3069.24 11048.3 3071.08 11049 3072.68 11050.2C3074.28 11051.3 3075.58 11052.8 3076.48 11054.5C3077.37 11056.3 3077.84 11058.2 3077.83 11060.2C3077.81 11082.9 3068.79 11104.7 3052.75 11120.7C3036.71 11136.8 3014.97 11145.8 2992.28 11145.8Z" fill="#52E0FF"/>
<path d="M2992.28 11145.8C2990.33 11145.8 2988.4 11145.4 2986.66 11144.5C2984.92 11143.6 2983.42 11142.3 2982.29 11140.7C2981.15 11139.1 2980.42 11137.2 2980.15 11135.3C2979.88 11133.3 2980.08 11131.4 2980.73 11129.5C2981.57 11127.1 2983.14 11125 2985.23 11123.6C2987.31 11122.1 2989.81 11121.3 2992.35 11121.4C3008.53 11121.3 3024.04 11114.9 3035.48 11103.4C3046.91 11092 3053.36 11076.4 3053.39 11060.2C3053.35 11057.7 3054.12 11055.2 3055.58 11053.1C3057.05 11051 3059.13 11049.4 3061.54 11048.6C3063.38 11048 3065.36 11047.8 3067.3 11048C3069.24 11048.3 3071.08 11049 3072.68 11050.2C3074.28 11051.3 3075.58 11052.8 3076.48 11054.5C3077.37 11056.3 3077.84 11058.2 3077.83 11060.2C3077.81 11082.9 3068.79 11104.7 3052.75 11120.7C3036.71 11136.8 3014.97 11145.8 2992.28 11145.8Z" fill="#F8F8FF"/>
<path fill-rule="evenodd" clip-rule="evenodd" d="M5059.94 13094.9C5008 13106.7 4958.18 13134.1 4921.35 13171.2C4868.25 13224.6 4841.25 13283.4 4831.38 13367C4818.21 13478.6 4856.85 13594.1 4929.11 13659C4960.22 13687 4990.3 13704 5034.81 13718.7C5065.81 13729 5079.26 13730.8 5125.77 13730.9C5217.49 13731.2 5273.75 13709.7 5334.63 13651.1C5354.64 13631.8 5371.25 13616.4 5371.54 13617C5402.57 13672 5449.7 13707.2 5509.19 13719.7C5522.45 13722.5 5535.24 13724.8 5537.61 13724.8C5540.31 13724.8 5541.94 13606.3 5541.94 13411V13097.2H5530.97C5514.35 13097.2 5467.39 13112.9 5445.29 13125.8C5423.39 13138.7 5385.5 13177.1 5377.54 13194.6L5372.36 13206L5341.9 13175.5C5283.82 13117.3 5225.55 13092.3 5141.69 13089.8C5106.76 13088.8 5079.6 13090.4 5059.94 13094.9ZM5996.77 13094.9C5946.93 13107.1 5900.34 13132.7 5857.32 13171.6L5833.86 13192.8L5806.45 13165.4C5777.59 13136.5 5720.78 13105.2 5686.25 13099.2L5669.1 13096.1L5670.33 13397.2C5671.53 13689.2 5671.83 13698.4 5680.39 13704.7C5687.29 13709.7 5708.31 13711.1 5776.49 13711.1C5852.07 13711.1 5864.59 13710.1 5870 13703.6C5874.97 13697.6 5876.7 13658.7 5878.51 13511.5C5880.71 13333.2 5881.13 13326.2 5890.6 13308.7C5918.32 13257.3 5975.36 13237.4 6024.23 13262C6049.78 13274.9 6063.22 13298.4 6069.36 13340.8C6071.86 13358.2 6073.95 13446.4 6074 13537C6074.09 13695.2 6074.44 13701.9 6082.89 13706.4C6088.07 13709.2 6127.24 13711.1 6178.15 13711.1C6262.33 13711.1 6264.79 13710.9 6271.68 13701C6277.79 13692.3 6278.76 13667.1 6278.76 13517.7C6278.76 13320.8 6280.41 13308.2 6310.04 13278.6C6338.23 13250.4 6391.37 13243 6428.91 13262C6444.14 13269.8 6451.89 13277.8 6460.57 13294.9L6472.06 13317.5L6474.34 13506.8C6476.15 13658 6477.87 13697.6 6482.85 13703.6C6491.99 13714.6 6660.91 13714.9 6671.87 13704C6678.15 13697.7 6679.01 13671.8 6679.01 13488.2C6679.01 13263.8 6677.9 13250.3 6655.44 13202.7C6620.82 13129.2 6545.41 13088.3 6444.37 13088.2C6368.28 13088 6309.58 13109.6 6258.93 13156.3C6239.17 13174.5 6231.19 13179.5 6229.54 13174.6C6224.68 13160.1 6182.17 13120.9 6159.44 13109.9C6114.43 13088 6049.55 13082.1 5996.77 13094.9ZM4342.23 13397.1C4343.43 13689.2 4343.73 13698.4 4352.29 13704.7C4364.26 13713.4 4526.58 13714.1 4537.95 13705.5C4544.57 13700.4 4545.61 13681.8 4547.05 13542.9C4548.87 13366.6 4550.53 13355.7 4580.76 13320.3C4604.76 13292.3 4626.11 13283.9 4673.22 13283.8C4694.48 13283.7 4719.52 13285.8 4728.86 13288.4C4740.8 13291.7 4748.59 13291.7 4755.02 13288.2C4763.69 13283.6 4764.18 13278.9 4764.18 13200.1C4764.18 13098.3 4765.32 13100.3 4707.29 13097.9C4665.12 13096.1 4629.19 13104.3 4597.57 13122.8C4575.04 13136 4542.15 13170.2 4527.53 13195.6L4517 13213.9L4496.18 13186.5C4465.23 13145.7 4405.62 13108.9 4353.72 13098.6L4341 13096L4342.23 13397.1ZM5253.86 13267.9C5281.38 13281.3 5307.08 13308.2 5320.72 13337.7C5328.87 13355.3 5330.44 13367.2 5330.44 13411C5330.44 13471.5 5323.68 13491.8 5292.08 13526.1C5265.83 13554.6 5234.78 13567.3 5191.72 13567.3C5148.66 13567.3 5117.62 13554.6 5091.36 13526.1C5059.76 13491.8 5053 13471.5 5053 13411C5053 13351.2 5059.56 13330.9 5089.7 13297.5C5130.24 13252.7 5197.74 13240.5 5253.86 13267.9Z" fill="#E10531"/>
<path fill-rule="evenodd" clip-rule="evenodd" d="M7230.72 13574.5C7144.25 13605.6 7090.27 13665.7 7072.19 13751.1C7068.61 13767.9 7065.65 13791.5 7065.61 13803.4L7065.53 13825H7014.13C6980.21 13825 6960.87 13826.8 6957.26 13830.4C6953.51 13834.2 6951.8 13856.9 6951.8 13903C6951.8 13986.3 6950.1 13984.2 7018.78 13984.2H7065.53V14197.7C7065.53 14385.7 7066.39 14412.1 7072.68 14418.4C7083.32 14429 7252.44 14429 7263.09 14418.4C7269.38 14412.1 7270.24 14385.8 7270.24 14198.1V13985L7322.34 13983.5C7357.15 13982.4 7376.39 13980 7380.34 13976C7384.42 13971.9 7386.7 13951.2 7387.73 13908.7C7389.8 13823.6 7390.89 13825 7322.44 13825H7270.24V13695.3C7270.24 13548.3 7273.75 13559 7230.72 13574.5ZM4693.22 13805.2C4665.21 13811.2 4612.86 13832.7 4587.83 13848.6C4572.01 13858.5 4547.81 13879.2 4534.03 13894.4C4520.26 13909.6 4508.98 13919.8 4508.98 13917.1C4508.98 13908.5 4464.31 13862.8 4441.71 13848.3C4417.74 13833 4363.82 13811.3 4349.45 13811.3C4340.25 13811.3 4340.23 13812.3 4341.74 14183.3C4343.23 14551.1 4343.36 14555.6 4353.34 14591.6C4372.54 14660.8 4402.6 14705.9 4449.39 14735.6C4471.5 14749.6 4520.74 14766.7 4538.98 14766.7H4549.83L4551.01 14570.7L4552.2 14374.7L4570.4 14389.4C4596.53 14410.5 4646.76 14432.7 4687.34 14441C4791.02 14462.4 4892.44 14434.2 4961.98 14364.5C5000.2 14326.2 5022.54 14288 5039.3 14232.2C5050.01 14196.5 5051.63 14183 5051.9 14127.5C5052.27 14052.2 5045.44 14019.1 5017.66 13961.5C5002.72 13930.5 4991.67 13915.5 4962.12 13886.2C4900.69 13825.4 4840.87 13801.8 4750.49 13802.8C4724 13803.1 4698.22 13804.2 4693.22 13805.2ZM5418.79 13805.4C5310.02 13823.7 5218.9 13886.5 5178.63 13970.9C5153.09 14024.5 5144.76 14062.3 5144.67 14125.2C5144.53 14220.7 5172.37 14293.2 5232.11 14352.8C5271.66 14392.3 5309.67 14414.2 5371.19 14432.8C5408.42 14444.1 5418.48 14445.2 5487.02 14445.3C5574.87 14445.3 5609 14438.1 5670.29 14406.6C5720.2 14380.9 5770.36 14331.7 5793.43 14285.8C5820.46 14232.1 5829.77 14191.1 5829.9 14125.2C5830.1 14027.9 5803.6 13959.3 5741.97 13897.5C5692.31 13847.6 5645.66 13823.6 5569.64 13808.8C5538.96 13802.8 5446.68 13800.7 5418.79 13805.4ZM6583.33 13810.8C6532.2 13827.3 6490.21 13856.6 6456.87 13899L6435.7 13926L6428.79 13915.3C6403.07 13875.5 6356.76 13839.9 6307.59 13822C6254.6 13802.8 6260.35 13767.9 6260.35 14108.3C6260.35 14369.7 6261.2 14406.5 6267.44 14415.4C6274.35 14425.3 6276.67 14425.5 6364.68 14425.5C6442.96 14425.5 6455.67 14424.5 6461.09 14418C6466.06 14412 6467.8 14374.1 6469.61 14232.6L6471.88 14054.7L6484.04 14031.7C6505.81 13990.4 6541.84 13966.1 6581.06 13966.1C6620.69 13966.1 6655.47 13989.8 6664.72 14023.1C6667.96 14034.8 6669.73 14105 6669.74 14223.2C6669.76 14380.6 6670.73 14406.7 6676.85 14415.4C6683.76 14425.3 6686.06 14425.5 6774.55 14425.5H6865.16L6872.47 14414.4C6878.96 14404.5 6879.57 14381.2 6877.92 14204C6876.21 14018.5 6875.42 14002.3 6866.49 13969.9C6841.04 13877.7 6789.88 13824 6711.62 13807.4C6675.44 13799.7 6612.59 13801.4 6583.33 13810.8ZM5932.83 14108.3C5932.83 14369.7 5933.67 14406.5 5939.91 14415.4C5946.82 14425.3 5949.12 14425.5 6037.61 14425.5H6128.22L6135.5 14414.4C6141.95 14404.6 6142.57 14381.3 6140.97 14208.6C6139.43 14043.1 6138.01 14009.8 6131.49 13987.3C6107.78 13905.3 6057.04 13850 5980.06 13822C5927.07 13802.8 5932.83 13767.9 5932.83 14108.3ZM5449.77 13967.6C5387.23 13985.2 5350.55 14043.1 5350.55 14124.3C5350.55 14228.2 5401.51 14286.1 5492.06 14285.3C5563.31 14284.6 5610.72 14239.3 5623.42 14159.8C5633.34 14097.7 5614.05 14028.6 5577.35 13994.7C5548.95 13968.4 5490.64 13956 5449.77 13967.6ZM4662.39 13970.5C4620.68 13977.9 4587.34 14004.4 4565.04 14047.9C4553.15 14071.1 4552.2 14076.8 4552.2 14125.2C4552.2 14168.9 4553.8 14181 4561.78 14198.3C4590.4 14260.1 4649.67 14291.1 4716.91 14279.4C4790.87 14266.6 4835.66 14201.3 4831.04 14113.2C4829.37 14081.3 4826.57 14070.5 4813.45 14044.7C4784.25 13987.5 4726.62 13959.2 4662.39 13970.5ZM7504 14222.4C7469.61 14231.1 7433.63 14253.2 7418.29 14274.8C7400.07 14300.5 7396.68 14342.4 7410.62 14369.7C7431.02 14409.7 7474.51 14433.5 7535.12 14437.9C7623.98 14444.4 7695.31 14402 7701.34 14339.3C7707.62 14273.9 7649.35 14223.4 7561.81 14218.4C7541.46 14217.2 7517.7 14218.9 7504 14222.4Z" fill="#121212"/>
<g filter="url(#filter9_d_2754_1918)">
<path fill-rule="evenodd" clip-rule="evenodd" d="M449.223 13505.1C449.223 13556.1 460.741 13605.2 482.136 13651.5C332.448 13759.2 247 13890.4 247 14042.8C247 14480.7 1061.85 14916.4 2067.01 14916.4C3072.17 14916.4 3846.55 14507.6 3846.55 14069.7C3859.62 13917.9 3783.67 13784.4 3641.07 13673C3669.36 13620.6 3684.78 13564.1 3684.78 13505.1C3684.78 13230.5 3349.79 13007.8 2936.56 13007.8C2629.38 13007.8 2365.42 13130.9 2250.17 13306.8C2189.93 13304.6 2128.84 13303.5 2067.01 13303.5C2005.11 13303.5 1943.94 13304.5 1883.64 13306.6C1768.3 13130.7 1504.48 13007.8 1197.45 13007.8C784.212 13007.8 449.223 13230.5 449.223 13505.1Z" fill="#E10531"/>
</g>
<g filter="url(#filter10_d_2754_1918)">
<path d="M3370.4 13962.1C2924.09 14012.3 2499.63 14059.5 2058.25 13962.1C1672.84 14023.8 1022.79 14018.3 781.781 13962.1C815.295 15216.1 3290.48 15275.8 3384.03 14023.3C3385.52 14003.2 3384.03 13982.2 3370.4 13962.1Z" fill="#F17575"/>
</g>
<path d="M3735.64 14181.8C3756.03 14181.8 3772.56 14166.2 3772.56 14147.1C3772.56 14127.9 3756.03 14112.4 3735.64 14112.4C3715.25 14112.4 3698.73 14127.9 3698.73 14147.1C3698.73 14166.2 3715.25 14181.8 3735.64 14181.8Z" fill="#850014"/>
<path d="M3551.07 14320.4C3571.46 14320.4 3587.99 14304.9 3587.99 14285.8C3587.99 14266.6 3571.46 14251.1 3551.07 14251.1C3530.68 14251.1 3514.16 14266.6 3514.16 14285.8C3514.16 14304.9 3530.68 14320.4 3551.07 14320.4Z" fill="#850014"/>
<path d="M3514.13 14147.1C3534.52 14147.1 3551.05 14131.6 3551.05 14112.4C3551.05 14093.3 3534.52 14077.7 3514.13 14077.7C3493.74 14077.7 3477.21 14093.3 3477.21 14112.4C3477.21 14131.6 3493.74 14147.1 3514.13 14147.1Z" fill="#850014"/>
<path d="M708.472 14181.8C728.861 14181.8 745.389 14166.2 745.389 14147.1C745.389 14127.9 728.861 14112.4 708.472 14112.4C688.083 14112.4 671.555 14127.9 671.555 14147.1C671.555 14166.2 688.083 14181.8 708.472 14181.8Z" fill="#850014"/>
<path d="M523.885 14320.4C544.274 14320.4 560.802 14304.9 560.802 14285.8C560.802 14266.6 544.274 14251.1 523.885 14251.1C503.497 14251.1 486.969 14266.6 486.969 14285.8C486.969 14304.9 503.497 14320.4 523.885 14320.4Z" fill="#850014"/>
<path d="M486.956 14147.1C507.345 14147.1 523.873 14131.6 523.873 14112.4C523.873 14093.3 507.345 14077.7 486.956 14077.7C466.567 14077.7 450.039 14093.3 450.039 14112.4C450.039 14131.6 466.567 14147.1 486.956 14147.1Z" fill="#850014"/>
<path d="M3527.13 13895.2C3341.75 13997.3 3066.39 14012.2 2809.01 14012.2C2586.88 14012.1 2394.66 14000.7 2143.29 13972.6C2087.83 13966.4 2030.8 13965.4 1974.87 13970C1646.98 13997.2 1457.48 14014.4 1088.96 14012.2C881.156 13999.4 770.37 13962.6 639.195 13895.2" stroke="#850014" stroke-width="35" stroke-linecap="round"/>
<path d="M2373.76 13510.9C2766.42 13478.7 2988.38 13404.3 3367.59 13206.4C3375.21 13202.4 3384.47 13207.9 3384.47 13216.4V13678.8C3384.47 13684.8 3379.82 13689.7 3373.92 13690.2C3082.57 13716.1 2940.82 13767.3 2719.82 13895.3C2717.24 13896.8 2714.05 13897.2 2711.16 13896.5C2437.74 13826.7 2371.64 13736.7 2363.2 13522.7C2362.96 13516.6 2367.69 13511.3 2373.76 13510.9Z" fill="white"/>
<path d="M2682.29 13682.2C2750.71 13722.7 2810.51 13739.5 2871.15 13733.3C3043.97 13715.6 3110.43 13507.1 3104.63 13333.5C2920.32 13411.7 2791.3 13455.8 2579.34 13483.3C2579.34 13563 2613.72 13641.6 2682.29 13682.2Z" fill="#333333"/>
<path d="M2308.7 13506.8C2801.74 13410.9 2954.84 13377.7 3414.92 13173.8" stroke="#333333" stroke-width="115" stroke-linecap="round"/>
<path d="M1746.34 13514.2C1353.68 13482.1 1131.72 13407.7 752.509 13209.8C744.891 13205.8 735.633 13211.2 735.633 13219.8V13682.2C735.633 13688.1 740.276 13693.1 746.181 13693.6C1037.53 13719.5 1179.28 13770.7 1400.29 13898.7C1402.86 13900.2 1406.05 13900.6 1408.94 13899.9C1682.36 13830.1 1748.46 13740.1 1756.9 13526.1C1757.14 13520 1752.41 13514.7 1746.34 13514.2Z" fill="white"/>
<path d="M1437.8 13685.6C1369.39 13726.1 1309.58 13742.8 1248.94 13736.6C1076.13 13719 1009.67 13510.5 1015.46 13336.9C1199.78 13415 1328.8 13459.2 1540.76 13486.7C1540.76 13566.4 1506.38 13645 1437.8 13685.6Z" fill="#333333"/>
<path d="M1811.4 13510.2C1318.35 13414.3 1165.26 13381 705.18 13177.1" stroke="#333333" stroke-width="115" stroke-linecap="round"/>
<path opacity="0.5" d="M2104.32 13084.4C2188.04 13067.7 2296.29 13007.4 2296.29 12851.7C2296.29 12710 2192.57 12615.7 2117.98 12572.3C2101.4 12562.7 2082.04 12575.3 2082.04 12594.5V12643.4C2082.04 12682 2065.81 12752.5 2020.71 12781.9C1997.68 12796.8 1972.77 12774.4 1969.99 12747.1L1967.68 12724.7C1965 12698.6 1938.44 12682.7 1917.6 12698.6C1880.14 12727.2 1841.01 12777.2 1841.01 12851.7C1841.01 13042.1 1982.66 13089.8 2053.46 13089.8C2057.59 13089.8 2061.93 13089.6 2066.43 13089.4C2078.37 13087.9 2066.43 13092 2104.32 13084.4" fill="#FF640D"/>
<path d="M1974.91 12994.5C1974.91 13064.7 2031.45 13086.4 2066.42 13089.4C2078.37 13087.9 2066.42 13092 2104.32 13084.4C2132.15 13074.6 2162.38 13049.4 2162.38 12994.5C2162.38 12959.8 2140.45 12938.3 2123.29 12928.3C2118.03 12925.2 2111.93 12929.1 2111.47 12935.2C2109.97 12954.4 2091.49 12969.7 2078.93 12955.1C2067.82 12942.2 2063.13 12923.3 2063.13 12911.2V12895.4C2063.13 12885.9 2053.57 12879.6 2045.37 12884.5C2014.95 12902.5 1974.91 12939.6 1974.91 12994.5Z" fill="#AE1F19"/>
<defs>
<filter id="filter0_d_2754_1918" x="400" y="373.533" width="3295.64" height="1756.38" filterUnits="userSpaceOnUse" color-interpolation-filters="sRGB">
<feFlood flood-opacity="0" result="BackgroundImageFix"/>
<feColorMatrix in="SourceAlpha" type="matrix" values="0 0 0 0 0 0 0 0 0 0 0 0 0 0 0 0 0 0 127 0" result="hardAlpha"/>
<feOffset dy="2"/>
<feGaussianBlur stdDeviation="5"/>
<feComposite in2="hardAlpha" operator="out"/>
<feColorMatrix type="matrix" values="0 0 0 0 0 0 0 0 0 0 0 0 0 0 0 0 0 0 0.05 0"/>
<feBlend mode="normal" in2="BackgroundImageFix" result="effect1_dropShadow_2754_1918"/>
<feBlend mode="normal" in="SourceGraphic" in2="effect1_dropShadow_2754_1918" result="shape"/>
</filter>
<filter id="filter1_d_2754_1918" x="903.195" y="1241.92" width="2387.55" height="903.419" filterUnits="userSpaceOnUse" color-interpolation-filters="sRGB">
<feFlood flood-opacity="0" result="BackgroundImageFix"/>
<feColorMatrix in="SourceAlpha" type="matrix" values="0 0 0 0 0 0 0 0 0 0 0 0 0 0 0 0 0 0 127 0" result="hardAlpha"/>
<feOffset dy="2"/>
<feGaussianBlur stdDeviation="5"/>
<feComposite in2="hardAlpha" operator="out"/>
<feColorMatrix type="matrix" values="0 0 0 0 0 0 0 0 0 0 0 0 0 0 0 0 0 0 0.05 0"/>
<feBlend mode="normal" in2="BackgroundImageFix" result="effect1_dropShadow_2754_1918"/>
<feBlend mode="normal" in="SourceGraphic" in2="effect1_dropShadow_2754_1918" result="shape"/>
</filter>
<filter id="filter2_d_2754_1918" x="396" y="3760.69" width="3303.32" height="1760.64" filterUnits="userSpaceOnUse" color-interpolation-filters="sRGB">
<feFlood flood-opacity="0" result="BackgroundImageFix"/>
<feColorMatrix in="SourceAlpha" type="matrix" values="0 0 0 0 0 0 0 0 0 0 0 0 0 0 0 0 0 0 127 0" result="hardAlpha"/>
<feOffset dy="2"/>
<feGaussianBlur stdDeviation="5"/>
<feComposite in2="hardAlpha" operator="out"/>
<feColorMatrix type="matrix" values="0 0 0 0 0 0 0 0 0 0 0 0 0 0 0 0 0 0 0.05 0"/>
<feBlend mode="normal" in2="BackgroundImageFix" result="effect1_dropShadow_2754_1918"/>
<feBlend mode="normal" in="SourceGraphic" in2="effect1_dropShadow_2754_1918" result="shape"/>
</filter>
<filter id="filter3_d_2754_1918" x="851.805" y="4616.31" width="2393.09" height="905.589" filterUnits="userSpaceOnUse" color-interpolation-filters="sRGB">
<feFlood flood-opacity="0" result="BackgroundImageFix"/>
<feColorMatrix in="SourceAlpha" type="matrix" values="0 0 0 0 0 0 0 0 0 0 0 0 0 0 0 0 0 0 127 0" result="hardAlpha"/>
<feOffset dy="2"/>
<feGaussianBlur stdDeviation="5"/>
<feComposite in2="hardAlpha" operator="out"/>
<feColorMatrix type="matrix" values="0 0 0 0 0 0 0 0 0 0 0 0 0 0 0 0 0 0 0.05 0"/>
<feBlend mode="normal" in2="BackgroundImageFix" result="effect1_dropShadow_2754_1918"/>
<feBlend mode="normal" in="SourceGraphic" in2="effect1_dropShadow_2754_1918" result="shape"/>
</filter>
<filter id="filter4_d_2754_1918" x="347" y="6809.9" width="3400" height="1821.36" filterUnits="userSpaceOnUse" color-interpolation-filters="sRGB">
<feFlood flood-opacity="0" result="BackgroundImageFix"/>
<feColorMatrix in="SourceAlpha" type="matrix" values="0 0 0 0 0 0 0 0 0 0 0 0 0 0 0 0 0 0 127 0" result="hardAlpha"/>
<feOffset dy="4"/>
<feGaussianBlur stdDeviation="2"/>
<feComposite in2="hardAlpha" operator="out"/>
<feColorMatrix type="matrix" values="0 0 0 0 0 0 0 0 0 0 0 0 0 0 0 0 0 0 0.25 0"/>
<feBlend mode="normal" in2="BackgroundImageFix" result="effect1_dropShadow_2754_1918"/>
<feBlend mode="normal" in="SourceGraphic" in2="effect1_dropShadow_2754_1918" result="shape"/>
</filter>
<filter id="filter5_d_2754_1918" x="341" y="6801.9" width="3412" height="1818.07" filterUnits="userSpaceOnUse" color-interpolation-filters="sRGB">
<feFlood flood-opacity="0" result="BackgroundImageFix"/>
<feColorMatrix in="SourceAlpha" type="matrix" values="0 0 0 0 0 0 0 0 0 0 0 0 0 0 0 0 0 0 127 0" result="hardAlpha"/>
<feOffset dy="2"/>
<feGaussianBlur stdDeviation="5"/>
<feComposite in2="hardAlpha" operator="out"/>
<feColorMatrix type="matrix" values="0 0 0 0 0 0 0 0 0 0 0 0 0 0 0 0 0 0 0.05 0"/>
<feBlend mode="normal" in2="BackgroundImageFix" result="effect1_dropShadow_2754_1918"/>
<feBlend mode="normal" in="SourceGraphic" in2="effect1_dropShadow_2754_1918" result="shape"/>
</filter>
<filter id="filter6_d_2754_1918" x="778.047" y="7700.46" width="2471.65" height="934.807" filterUnits="userSpaceOnUse" color-interpolation-filters="sRGB">
<feFlood flood-opacity="0" result="BackgroundImageFix"/>
<feColorMatrix in="SourceAlpha" type="matrix" values="0 0 0 0 0 0 0 0 0 0 0 0 0 0 0 0 0 0 127 0" result="hardAlpha"/>
<feOffset dy="2"/>
<feGaussianBlur stdDeviation="5"/>
<feComposite in2="hardAlpha" operator="out"/>
<feColorMatrix type="matrix" values="0 0 0 0 0 0 0 0 0 0 0 0 0 0 0 0 0 0 0.05 0"/>
<feBlend mode="normal" in2="BackgroundImageFix" result="effect1_dropShadow_2754_1918"/>
<feBlend mode="normal" in="SourceGraphic" in2="effect1_dropShadow_2754_1918" result="shape"/>
</filter>
<filter id="filter7_d_2754_1918" x="288" y="9915.27" width="3519" height="1874.69" filterUnits="userSpaceOnUse" color-interpolation-filters="sRGB">
<feFlood flood-opacity="0" result="BackgroundImageFix"/>
<feColorMatrix in="SourceAlpha" type="matrix" values="0 0 0 0 0 0 0 0 0 0 0 0 0 0 0 0 0 0 127 0" result="hardAlpha"/>
<feOffset dy="2"/>
<feGaussianBlur stdDeviation="5"/>
<feComposite in2="hardAlpha" operator="out"/>
<feColorMatrix type="matrix" values="0 0 0 0 0 0 0 0 0 0 0 0 0 0 0 0 0 0 0.05 0"/>
<feBlend mode="normal" in2="BackgroundImageFix" result="effect1_dropShadow_2754_1918"/>
<feBlend mode="normal" in="SourceGraphic" in2="effect1_dropShadow_2754_1918" result="shape"/>
</filter>
<filter id="filter8_d_2754_1918" x="663.172" y="10754.6" width="2779.54" height="1035.6" filterUnits="userSpaceOnUse" color-interpolation-filters="sRGB">
<feFlood flood-opacity="0" result="BackgroundImageFix"/>
<feColorMatrix in="SourceAlpha" type="matrix" values="0 0 0 0 0 0 0 0 0 0 0 0 0 0 0 0 0 0 127 0" result="hardAlpha"/>
<feOffset dy="2"/>
<feGaussianBlur stdDeviation="5"/>
<feComposite in2="hardAlpha" operator="out"/>
<feColorMatrix type="matrix" values="0 0 0 0 0 0 0 0 0 0 0 0 0 0 0 0 0 0 0.05 0"/>
<feBlend mode="normal" in2="BackgroundImageFix" result="effect1_dropShadow_2754_1918"/>
<feBlend mode="normal" in="SourceGraphic" in2="effect1_dropShadow_2754_1918" result="shape"/>
</filter>
<filter id="filter9_d_2754_1918" x="237" y="12999.8" width="3621" height="1928.63" filterUnits="userSpaceOnUse" color-interpolation-filters="sRGB">
<feFlood flood-opacity="0" result="BackgroundImageFix"/>
<feColorMatrix in="SourceAlpha" type="matrix" values="0 0 0 0 0 0 0 0 0 0 0 0 0 0 0 0 0 0 127 0" result="hardAlpha"/>
<feOffset dy="2"/>
<feGaussianBlur stdDeviation="5"/>
<feComposite in2="hardAlpha" operator="out"/>
<feColorMatrix type="matrix" values="0 0 0 0 0 0 0 0 0 0 0 0 0 0 0 0 0 0 0.05 0"/>
<feBlend mode="normal" in2="BackgroundImageFix" result="effect1_dropShadow_2754_1918"/>
<feBlend mode="normal" in="SourceGraphic" in2="effect1_dropShadow_2754_1918" result="shape"/>
</filter>
<filter id="filter10_d_2754_1918" x="771.781" y="13954.1" width="2622.71" height="991.056" filterUnits="userSpaceOnUse" color-interpolation-filters="sRGB">
<feFlood flood-opacity="0" result="BackgroundImageFix"/>
<feColorMatrix in="SourceAlpha" type="matrix" values="0 0 0 0 0 0 0 0 0 0 0 0 0 0 0 0 0 0 127 0" result="hardAlpha"/>
<feOffset dy="2"/>
<feGaussianBlur stdDeviation="5"/>
<feComposite in2="hardAlpha" operator="out"/>
<feColorMatrix type="matrix" values="0 0 0 0 0 0 0 0 0 0 0 0 0 0 0 0 0 0 0.05 0"/>
<feBlend mode="normal" in2="BackgroundImageFix" result="effect1_dropShadow_2754_1918"/>
<feBlend mode="normal" in="SourceGraphic" in2="effect1_dropShadow_2754_1918" result="shape"/>
</filter>
</defs>
</svg>
