<svg width="21" height="21" viewBox="0 0 21 21" fill="none" xmlns="http://www.w3.org/2000/svg">
<circle cx="10.5" cy="10.5" r="10.5" fill="#2A55C2"/>
<g clip-path="url(#clip0_962_1279)">
<path d="M15.808 7.81497L14.8626 8.76038C14.7662 8.85676 14.6104 8.85676 14.514 8.76038L12.2376 6.48401C12.1412 6.38762 12.1412 6.23176 12.2376 6.13538L13.183 5.18997C13.5665 4.80647 14.1899 4.80647 14.5755 5.18997L15.808 6.42249C16.1936 6.80598 16.1936 7.42942 15.808 7.81497ZM11.4255 6.94749L6.04014 12.3328L5.60537 14.8245C5.5459 15.1609 5.83916 15.4521 6.17549 15.3947L8.66719 14.9578L14.0525 9.57249C14.1489 9.4761 14.1489 9.32024 14.0525 9.22385L11.7762 6.94749C11.6777 6.8511 11.5219 6.8511 11.4255 6.94749ZM8.14219 11.8714C8.0294 11.7586 8.0294 11.5782 8.14219 11.4654L11.3004 8.30715C11.4132 8.19436 11.5937 8.19436 11.7064 8.30715C11.8192 8.41995 11.8192 8.60042 11.7064 8.71321L8.54824 11.8714C8.43545 11.9842 8.25498 11.9842 8.14219 11.8714ZM7.40186 13.5961H8.38623V14.3406L7.06348 14.5723L6.42569 13.9345L6.65742 12.6117H7.40186V13.5961Z" fill="white"/>
</g>
<defs>
<clipPath id="clip0_962_1279">
<rect width="10.5" height="10.5" fill="white" transform="translate(5.59766 4.90039)"/>
</clipPath>
</defs>
</svg>
