<svg width="323" height="116" viewBox="0 0 323 116" fill="none" xmlns="http://www.w3.org/2000/svg">
<g filter="url(#filter0_d_3122_2383)">
<rect x="20" y="15" width="283" height="76" rx="15" fill="#282828"/>
<rect width="24" height="24" transform="translate(34 41)" fill="#282828"/>
<path d="M42 53.25L44.5 55.75L50 50.25M55 53C55 48.0294 50.9706 44 46 44C41.0294 44 37 48.0294 37 53C37 57.9706 41.0294 62 46 62C50.9706 62 55 57.9706 55 53Z" stroke="#2A55C2" stroke-width="1.5" stroke-linecap="round" stroke-linejoin="round"/>
<path d="M75.976 51.192C75.976 51.7573 75.8427 52.2907 75.576 52.792C75.3093 53.2933 74.8827 53.704 74.296 54.024C73.7093 54.3333 72.9573 54.488 72.04 54.488H70.024V59H68.2V47.88H72.04C72.8933 47.88 73.6133 48.0293 74.2 48.328C74.7973 48.616 75.24 49.0107 75.528 49.512C75.8267 50.0133 75.976 50.5733 75.976 51.192ZM72.04 53C72.7333 53 73.2507 52.8453 73.592 52.536C73.9333 52.216 74.104 51.768 74.104 51.192C74.104 49.976 73.416 49.368 72.04 49.368H70.024V53H72.04ZM85.7956 54.376C85.7956 54.7067 85.7743 55.0053 85.7316 55.272H78.9956C79.049 55.976 79.3103 56.5413 79.7796 56.968C80.249 57.3947 80.825 57.608 81.5076 57.608C82.489 57.608 83.1823 57.1973 83.5876 56.376H85.5556C85.289 57.1867 84.8036 57.8533 84.0996 58.376C83.4063 58.888 82.5423 59.144 81.5076 59.144C80.665 59.144 79.9076 58.9573 79.2356 58.584C78.5743 58.2 78.0516 57.6667 77.6676 56.984C77.2943 56.2907 77.1076 55.4907 77.1076 54.584C77.1076 53.6773 77.289 52.8827 77.6516 52.2C78.025 51.5067 78.5423 50.9733 79.2036 50.6C79.8756 50.2267 80.6436 50.04 81.5076 50.04C82.3396 50.04 83.081 50.2213 83.7316 50.584C84.3823 50.9467 84.889 51.4587 85.2516 52.12C85.6143 52.7707 85.7956 53.5227 85.7956 54.376ZM83.8916 53.8C83.881 53.128 83.641 52.5893 83.1716 52.184C82.7023 51.7787 82.121 51.576 81.4276 51.576C80.7983 51.576 80.2596 51.7787 79.8116 52.184C79.3636 52.5787 79.097 53.1173 79.0116 53.8H83.8916ZM89.4146 51.464C89.6813 51.016 90.0333 50.6693 90.4706 50.424C90.9186 50.168 91.4466 50.04 92.0546 50.04V51.928H91.5906C90.876 51.928 90.332 52.1093 89.9586 52.472C89.596 52.8347 89.4146 53.464 89.4146 54.36V59H87.5906V50.184H89.4146V51.464ZM97.4273 51.672H95.7953V59H93.9553V51.672H92.9153V50.184H93.9553V49.56C93.9553 48.5467 94.2219 47.8107 94.7553 47.352C95.2993 46.8827 96.1473 46.648 97.2993 46.648V48.168C96.7446 48.168 96.3553 48.2747 96.1313 48.488C95.9073 48.6907 95.7953 49.048 95.7953 49.56V50.184H97.4273V51.672ZM99.9718 49.016C99.6411 49.016 99.3638 48.904 99.1398 48.68C98.9158 48.456 98.8038 48.1787 98.8038 47.848C98.8038 47.5173 98.9158 47.24 99.1398 47.016C99.3638 46.792 99.6411 46.68 99.9718 46.68C100.292 46.68 100.564 46.792 100.788 47.016C101.012 47.24 101.124 47.5173 101.124 47.848C101.124 48.1787 101.012 48.456 100.788 48.68C100.564 48.904 100.292 49.016 99.9718 49.016ZM100.868 50.184V59H99.0438V50.184H100.868ZM105.087 47.16V59H103.263V47.16H105.087ZM119.718 54.376C119.718 54.7067 119.696 55.0053 119.654 55.272H112.918C112.971 55.976 113.232 56.5413 113.702 56.968C114.171 57.3947 114.747 57.608 115.43 57.608C116.411 57.608 117.104 57.1973 117.51 56.376H119.477C119.211 57.1867 118.726 57.8533 118.022 58.376C117.328 58.888 116.464 59.144 115.43 59.144C114.587 59.144 113.83 58.9573 113.158 58.584C112.496 58.2 111.974 57.6667 111.59 56.984C111.216 56.2907 111.03 55.4907 111.03 54.584C111.03 53.6773 111.211 52.8827 111.574 52.2C111.947 51.5067 112.464 50.9733 113.126 50.6C113.798 50.2267 114.566 50.04 115.43 50.04C116.262 50.04 117.003 50.2213 117.654 50.584C118.304 50.9467 118.811 51.4587 119.174 52.12C119.536 52.7707 119.718 53.5227 119.718 54.376ZM117.814 53.8C117.803 53.128 117.563 52.5893 117.094 52.184C116.624 51.7787 116.043 51.576 115.35 51.576C114.72 51.576 114.182 51.7787 113.734 52.184C113.286 52.5787 113.019 53.1173 112.934 53.8H117.814ZM120.905 54.552C120.905 53.6667 121.086 52.8827 121.449 52.2C121.822 51.5173 122.323 50.9893 122.953 50.616C123.593 50.232 124.302 50.04 125.081 50.04C125.657 50.04 126.222 50.168 126.777 50.424C127.342 50.6693 127.79 51 128.121 51.416V47.16H129.961V59H128.121V57.672C127.822 58.0987 127.406 58.4507 126.873 58.728C126.35 59.0053 125.747 59.144 125.065 59.144C124.297 59.144 123.593 58.952 122.953 58.568C122.323 58.1733 121.822 57.6293 121.449 56.936C121.086 56.232 120.905 55.4373 120.905 54.552ZM128.121 54.584C128.121 53.976 127.993 53.448 127.737 53C127.491 52.552 127.166 52.2107 126.761 51.976C126.355 51.7413 125.918 51.624 125.449 51.624C124.979 51.624 124.542 51.7413 124.137 51.976C123.731 52.2 123.401 52.536 123.145 52.984C122.899 53.4213 122.777 53.944 122.777 54.552C122.777 55.16 122.899 55.6933 123.145 56.152C123.401 56.6107 123.731 56.9627 124.137 57.208C124.553 57.4427 124.99 57.56 125.449 57.56C125.918 57.56 126.355 57.4427 126.761 57.208C127.166 56.9733 127.491 56.632 127.737 56.184C127.993 55.7253 128.121 55.192 128.121 54.584ZM133.284 49.016C132.954 49.016 132.676 48.904 132.452 48.68C132.228 48.456 132.116 48.1787 132.116 47.848C132.116 47.5173 132.228 47.24 132.452 47.016C132.676 46.792 132.954 46.68 133.284 46.68C133.604 46.68 133.876 46.792 134.1 47.016C134.324 47.24 134.436 47.5173 134.436 47.848C134.436 48.1787 134.324 48.456 134.1 48.68C133.876 48.904 133.604 49.016 133.284 49.016ZM134.18 50.184V59H132.356V50.184H134.18ZM138.703 51.672V56.552C138.703 56.8827 138.778 57.1227 138.927 57.272C139.087 57.4107 139.354 57.48 139.727 57.48H140.847V59H139.407C138.586 59 137.956 58.808 137.519 58.424C137.082 58.04 136.863 57.416 136.863 56.552V51.672H135.823V50.184H136.863V47.992H138.703V50.184H140.847V51.672H138.703ZM141.92 54.552C141.92 53.6667 142.101 52.8827 142.464 52.2C142.837 51.5173 143.339 50.9893 143.968 50.616C144.608 50.232 145.312 50.04 146.08 50.04C146.773 50.04 147.376 50.1787 147.888 50.456C148.411 50.7227 148.827 51.0587 149.136 51.464V50.184H150.976V59H149.136V57.688C148.827 58.104 148.405 58.4507 147.872 58.728C147.339 59.0053 146.731 59.144 146.048 59.144C145.291 59.144 144.597 58.952 143.968 58.568C143.339 58.1733 142.837 57.6293 142.464 56.936C142.101 56.232 141.92 55.4373 141.92 54.552ZM149.136 54.584C149.136 53.976 149.008 53.448 148.752 53C148.507 52.552 148.181 52.2107 147.776 51.976C147.371 51.7413 146.933 51.624 146.464 51.624C145.995 51.624 145.557 51.7413 145.152 51.976C144.747 52.2 144.416 52.536 144.16 52.984C143.915 53.4213 143.792 53.944 143.792 54.552C143.792 55.16 143.915 55.6933 144.16 56.152C144.416 56.6107 144.747 56.9627 145.152 57.208C145.568 57.4427 146.005 57.56 146.464 57.56C146.933 57.56 147.371 57.4427 147.776 57.208C148.181 56.9733 148.507 56.632 148.752 56.184C149.008 55.7253 149.136 55.192 149.136 54.584ZM152.764 54.552C152.764 53.6667 152.945 52.8827 153.308 52.2C153.681 51.5173 154.183 50.9893 154.812 50.616C155.452 50.232 156.161 50.04 156.94 50.04C157.516 50.04 158.081 50.168 158.636 50.424C159.201 50.6693 159.649 51 159.98 51.416V47.16H161.82V59H159.98V57.672C159.681 58.0987 159.265 58.4507 158.732 58.728C158.209 59.0053 157.607 59.144 156.924 59.144C156.156 59.144 155.452 58.952 154.812 58.568C154.183 58.1733 153.681 57.6293 153.308 56.936C152.945 56.232 152.764 55.4373 152.764 54.552ZM159.98 54.584C159.98 53.976 159.852 53.448 159.596 53C159.351 52.552 159.025 52.2107 158.62 51.976C158.215 51.7413 157.777 51.624 157.308 51.624C156.839 51.624 156.401 51.7413 155.996 51.976C155.591 52.2 155.26 52.536 155.004 52.984C154.759 53.4213 154.636 53.944 154.636 54.552C154.636 55.16 154.759 55.6933 155.004 56.152C155.26 56.6107 155.591 56.9627 155.996 57.208C156.412 57.4427 156.849 57.56 157.308 57.56C157.777 57.56 158.215 57.4427 158.62 57.208C159.025 56.9733 159.351 56.632 159.596 56.184C159.852 55.7253 159.98 55.192 159.98 54.584ZM168.04 59.144C167.208 59.144 166.456 58.9573 165.784 58.584C165.112 58.2 164.584 57.6667 164.2 56.984C163.816 56.2907 163.624 55.4907 163.624 54.584C163.624 53.688 163.821 52.8933 164.216 52.2C164.61 51.5067 165.149 50.9733 165.832 50.6C166.514 50.2267 167.277 50.04 168.12 50.04C168.962 50.04 169.725 50.2267 170.408 50.6C171.09 50.9733 171.629 51.5067 172.024 52.2C172.418 52.8933 172.616 53.688 172.616 54.584C172.616 55.48 172.413 56.2747 172.008 56.968C171.602 57.6613 171.048 58.2 170.344 58.584C169.65 58.9573 168.882 59.144 168.04 59.144ZM168.04 57.56C168.509 57.56 168.946 57.448 169.352 57.224C169.768 57 170.104 56.664 170.36 56.216C170.616 55.768 170.744 55.224 170.744 54.584C170.744 53.944 170.621 53.4053 170.376 52.968C170.13 52.52 169.805 52.184 169.4 51.96C168.994 51.736 168.557 51.624 168.088 51.624C167.618 51.624 167.181 51.736 166.776 51.96C166.381 52.184 166.066 52.52 165.832 52.968C165.597 53.4053 165.48 53.944 165.48 54.584C165.48 55.5333 165.72 56.2693 166.2 56.792C166.69 57.304 167.304 57.56 168.04 57.56ZM177.967 54.584C177.967 53.6773 178.148 52.8827 178.511 52.2C178.884 51.5067 179.396 50.9733 180.047 50.6C180.698 50.2267 181.444 50.04 182.287 50.04C183.354 50.04 184.234 50.296 184.927 50.808C185.631 51.3093 186.106 52.0293 186.351 52.968H184.383C184.223 52.5307 183.967 52.1893 183.615 51.944C183.263 51.6987 182.82 51.576 182.287 51.576C181.54 51.576 180.943 51.8427 180.495 52.376C180.058 52.8987 179.839 53.6347 179.839 54.584C179.839 55.5333 180.058 56.2747 180.495 56.808C180.943 57.3413 181.54 57.608 182.287 57.608C183.343 57.608 184.042 57.144 184.383 56.216H186.351C186.095 57.112 185.615 57.8267 184.911 58.36C184.207 58.8827 183.332 59.144 182.287 59.144C181.444 59.144 180.698 58.9573 180.047 58.584C179.396 58.2 178.884 57.6667 178.511 56.984C178.148 56.2907 177.967 55.4907 177.967 54.584ZM191.993 59.144C191.161 59.144 190.409 58.9573 189.737 58.584C189.065 58.2 188.537 57.6667 188.153 56.984C187.769 56.2907 187.577 55.4907 187.577 54.584C187.577 53.688 187.774 52.8933 188.169 52.2C188.563 51.5067 189.102 50.9733 189.785 50.6C190.467 50.2267 191.23 50.04 192.073 50.04C192.915 50.04 193.678 50.2267 194.361 50.6C195.043 50.9733 195.582 51.5067 195.977 52.2C196.371 52.8933 196.569 53.688 196.569 54.584C196.569 55.48 196.366 56.2747 195.961 56.968C195.555 57.6613 195.001 58.2 194.297 58.584C193.603 58.9573 192.835 59.144 191.993 59.144ZM191.993 57.56C192.462 57.56 192.899 57.448 193.305 57.224C193.721 57 194.057 56.664 194.313 56.216C194.569 55.768 194.697 55.224 194.697 54.584C194.697 53.944 194.574 53.4053 194.329 52.968C194.083 52.52 193.758 52.184 193.353 51.96C192.947 51.736 192.51 51.624 192.041 51.624C191.571 51.624 191.134 51.736 190.729 51.96C190.334 52.184 190.019 52.52 189.785 52.968C189.55 53.4053 189.433 53.944 189.433 54.584C189.433 55.5333 189.673 56.2693 190.153 56.792C190.643 57.304 191.257 57.56 191.993 57.56ZM209.044 50.04C209.737 50.04 210.356 50.184 210.9 50.472C211.455 50.76 211.887 51.1867 212.196 51.752C212.516 52.3173 212.676 53 212.676 53.8V59H210.868V54.072C210.868 53.2827 210.671 52.68 210.276 52.264C209.881 51.8373 209.343 51.624 208.66 51.624C207.977 51.624 207.433 51.8373 207.028 52.264C206.633 52.68 206.436 53.2827 206.436 54.072V59H204.628V54.072C204.628 53.2827 204.431 52.68 204.036 52.264C203.641 51.8373 203.103 51.624 202.42 51.624C201.737 51.624 201.193 51.8373 200.788 52.264C200.393 52.68 200.196 53.2827 200.196 54.072V59H198.372V50.184H200.196V51.192C200.495 50.8293 200.873 50.5467 201.332 50.344C201.791 50.1413 202.281 50.04 202.804 50.04C203.508 50.04 204.137 50.1893 204.692 50.488C205.247 50.7867 205.673 51.2187 205.972 51.784C206.239 51.2507 206.655 50.8293 207.22 50.52C207.785 50.2 208.393 50.04 209.044 50.04ZM222.353 59.144C221.66 59.144 221.036 59.0213 220.481 58.776C219.937 58.52 219.505 58.1787 219.185 57.752C218.865 57.3147 218.694 56.8293 218.673 56.296H220.561C220.593 56.6693 220.769 56.984 221.089 57.24C221.42 57.4853 221.83 57.608 222.321 57.608C222.833 57.608 223.228 57.512 223.505 57.32C223.793 57.1173 223.937 56.8613 223.937 56.552C223.937 56.2213 223.777 55.976 223.457 55.816C223.148 55.656 222.652 55.48 221.969 55.288C221.308 55.1067 220.769 54.9307 220.353 54.76C219.937 54.5893 219.574 54.328 219.265 53.976C218.966 53.624 218.817 53.16 218.817 52.584C218.817 52.1147 218.956 51.688 219.233 51.304C219.51 50.9093 219.905 50.6 220.417 50.376C220.94 50.152 221.537 50.04 222.209 50.04C223.212 50.04 224.017 50.296 224.625 50.808C225.244 51.3093 225.574 51.9973 225.617 52.872H223.793C223.761 52.4773 223.601 52.1627 223.313 51.928C223.025 51.6933 222.636 51.576 222.145 51.576C221.665 51.576 221.297 51.6667 221.041 51.848C220.785 52.0293 220.657 52.2693 220.657 52.568C220.657 52.8027 220.742 53 220.913 53.16C221.084 53.32 221.292 53.448 221.537 53.544C221.782 53.6293 222.145 53.7413 222.625 53.88C223.265 54.0507 223.788 54.2267 224.193 54.408C224.609 54.5787 224.966 54.8347 225.265 55.176C225.564 55.5173 225.718 55.9707 225.729 56.536C225.729 57.0373 225.59 57.4853 225.313 57.88C225.036 58.2747 224.641 58.584 224.129 58.808C223.628 59.032 223.036 59.144 222.353 59.144ZM235.684 50.184V59H233.86V57.96C233.572 58.3227 233.193 58.6107 232.724 58.824C232.265 59.0267 231.775 59.128 231.252 59.128C230.559 59.128 229.935 58.984 229.38 58.696C228.836 58.408 228.404 57.9813 228.084 57.416C227.775 56.8507 227.62 56.168 227.62 55.368V50.184H229.428V55.096C229.428 55.8853 229.625 56.4933 230.02 56.92C230.415 57.336 230.953 57.544 231.636 57.544C232.319 57.544 232.857 57.336 233.252 56.92C233.657 56.4933 233.86 55.8853 233.86 55.096V50.184H235.684ZM237.483 54.584C237.483 53.6773 237.664 52.8827 238.027 52.2C238.4 51.5067 238.912 50.9733 239.563 50.6C240.213 50.2267 240.96 50.04 241.803 50.04C242.869 50.04 243.749 50.296 244.443 50.808C245.147 51.3093 245.621 52.0293 245.867 52.968H243.899C243.739 52.5307 243.483 52.1893 243.131 51.944C242.779 51.6987 242.336 51.576 241.803 51.576C241.056 51.576 240.459 51.8427 240.011 52.376C239.573 52.8987 239.355 53.6347 239.355 54.584C239.355 55.5333 239.573 56.2747 240.011 56.808C240.459 57.3413 241.056 57.608 241.803 57.608C242.859 57.608 243.557 57.144 243.899 56.216H245.867C245.611 57.112 245.131 57.8267 244.427 58.36C243.723 58.8827 242.848 59.144 241.803 59.144C240.96 59.144 240.213 58.9573 239.563 58.584C238.912 58.2 238.4 57.6667 238.027 56.984C237.664 56.2907 237.483 55.4907 237.483 54.584ZM255.764 54.376C255.764 54.7067 255.743 55.0053 255.7 55.272H248.964C249.018 55.976 249.279 56.5413 249.748 56.968C250.218 57.3947 250.794 57.608 251.476 57.608C252.458 57.608 253.151 57.1973 253.556 56.376H255.524C255.258 57.1867 254.772 57.8533 254.068 58.376C253.375 58.888 252.511 59.144 251.476 59.144C250.634 59.144 249.876 58.9573 249.204 58.584C248.543 58.2 248.02 57.6667 247.636 56.984C247.263 56.2907 247.076 55.4907 247.076 54.584C247.076 53.6773 247.258 52.8827 247.62 52.2C247.994 51.5067 248.511 50.9733 249.172 50.6C249.844 50.2267 250.612 50.04 251.476 50.04C252.308 50.04 253.05 50.2213 253.7 50.584C254.351 50.9467 254.858 51.4587 255.22 52.12C255.583 52.7707 255.764 53.5227 255.764 54.376ZM253.86 53.8C253.85 53.128 253.61 52.5893 253.14 52.184C252.671 51.7787 252.09 51.576 251.396 51.576C250.767 51.576 250.228 51.7787 249.78 52.184C249.332 52.5787 249.066 53.1173 248.98 53.8H253.86ZM260.759 59.144C260.066 59.144 259.442 59.0213 258.887 58.776C258.343 58.52 257.911 58.1787 257.591 57.752C257.271 57.3147 257.101 56.8293 257.079 56.296H258.967C258.999 56.6693 259.175 56.984 259.495 57.24C259.826 57.4853 260.237 57.608 260.727 57.608C261.239 57.608 261.634 57.512 261.911 57.32C262.199 57.1173 262.343 56.8613 262.343 56.552C262.343 56.2213 262.183 55.976 261.863 55.816C261.554 55.656 261.058 55.48 260.375 55.288C259.714 55.1067 259.175 54.9307 258.759 54.76C258.343 54.5893 257.981 54.328 257.671 53.976C257.373 53.624 257.223 53.16 257.223 52.584C257.223 52.1147 257.362 51.688 257.639 51.304C257.917 50.9093 258.311 50.6 258.823 50.376C259.346 50.152 259.943 50.04 260.615 50.04C261.618 50.04 262.423 50.296 263.031 50.808C263.65 51.3093 263.981 51.9973 264.023 52.872H262.199C262.167 52.4773 262.007 52.1627 261.719 51.928C261.431 51.6933 261.042 51.576 260.551 51.576C260.071 51.576 259.703 51.6667 259.447 51.848C259.191 52.0293 259.063 52.2693 259.063 52.568C259.063 52.8027 259.149 53 259.319 53.16C259.49 53.32 259.698 53.448 259.943 53.544C260.189 53.6293 260.551 53.7413 261.031 53.88C261.671 54.0507 262.194 54.2267 262.599 54.408C263.015 54.5787 263.373 54.8347 263.671 55.176C263.97 55.5173 264.125 55.9707 264.135 56.536C264.135 57.0373 263.997 57.4853 263.719 57.88C263.442 58.2747 263.047 58.584 262.535 58.808C262.034 59.032 261.442 59.144 260.759 59.144ZM269.306 59.144C268.613 59.144 267.989 59.0213 267.434 58.776C266.89 58.52 266.458 58.1787 266.138 57.752C265.818 57.3147 265.648 56.8293 265.626 56.296H267.514C267.546 56.6693 267.722 56.984 268.042 57.24C268.373 57.4853 268.784 57.608 269.274 57.608C269.786 57.608 270.181 57.512 270.458 57.32C270.746 57.1173 270.89 56.8613 270.89 56.552C270.89 56.2213 270.73 55.976 270.41 55.816C270.101 55.656 269.605 55.48 268.922 55.288C268.261 55.1067 267.722 54.9307 267.306 54.76C266.89 54.5893 266.528 54.328 266.218 53.976C265.92 53.624 265.77 53.16 265.77 52.584C265.77 52.1147 265.909 51.688 266.186 51.304C266.464 50.9093 266.858 50.6 267.37 50.376C267.893 50.152 268.49 50.04 269.162 50.04C270.165 50.04 270.97 50.296 271.578 50.808C272.197 51.3093 272.528 51.9973 272.57 52.872H270.746C270.714 52.4773 270.554 52.1627 270.266 51.928C269.978 51.6933 269.589 51.576 269.098 51.576C268.618 51.576 268.25 51.6667 267.994 51.848C267.738 52.0293 267.61 52.2693 267.61 52.568C267.61 52.8027 267.696 53 267.866 53.16C268.037 53.32 268.245 53.448 268.49 53.544C268.736 53.6293 269.098 53.7413 269.578 53.88C270.218 54.0507 270.741 54.2267 271.146 54.408C271.562 54.5787 271.92 54.8347 272.218 55.176C272.517 55.5173 272.672 55.9707 272.682 56.536C272.682 57.0373 272.544 57.4853 272.266 57.88C271.989 58.2747 271.594 58.584 271.082 58.808C270.581 59.032 269.989 59.144 269.306 59.144ZM278.477 59.144C277.645 59.144 276.893 58.9573 276.221 58.584C275.549 58.2 275.021 57.6667 274.637 56.984C274.253 56.2907 274.061 55.4907 274.061 54.584C274.061 53.688 274.258 52.8933 274.653 52.2C275.048 51.5067 275.586 50.9733 276.269 50.6C276.952 50.2267 277.714 50.04 278.557 50.04C279.4 50.04 280.162 50.2267 280.845 50.6C281.528 50.9733 282.066 51.5067 282.461 52.2C282.856 52.8933 283.053 53.688 283.053 54.584C283.053 55.48 282.85 56.2747 282.445 56.968C282.04 57.6613 281.485 58.2 280.781 58.584C280.088 58.9573 279.32 59.144 278.477 59.144ZM278.477 57.56C278.946 57.56 279.384 57.448 279.789 57.224C280.205 57 280.541 56.664 280.797 56.216C281.053 55.768 281.181 55.224 281.181 54.584C281.181 53.944 281.058 53.4053 280.813 52.968C280.568 52.52 280.242 52.184 279.837 51.96C279.432 51.736 278.994 51.624 278.525 51.624C278.056 51.624 277.618 51.736 277.213 51.96C276.818 52.184 276.504 52.52 276.269 52.968C276.034 53.4053 275.917 53.944 275.917 54.584C275.917 55.5333 276.157 56.2693 276.637 56.792C277.128 57.304 277.741 57.56 278.477 57.56ZM287.144 47.88L286.936 55.64H285.416L285.208 47.88H287.144ZM286.232 59.112C285.902 59.112 285.624 59 285.4 58.776C285.176 58.552 285.064 58.2747 285.064 57.944C285.064 57.6133 285.176 57.336 285.4 57.112C285.624 56.888 285.902 56.776 286.232 56.776C286.552 56.776 286.824 56.888 287.048 57.112C287.272 57.336 287.384 57.6133 287.384 57.944C287.384 58.2747 287.272 58.552 287.048 58.776C286.824 59 286.552 59.112 286.232 59.112Z" fill="white"/>
</g>
<defs>
<filter id="filter0_d_3122_2383" x="0" y="0" width="323" height="116" filterUnits="userSpaceOnUse" color-interpolation-filters="sRGB">
<feFlood flood-opacity="0" result="BackgroundImageFix"/>
<feColorMatrix in="SourceAlpha" type="matrix" values="0 0 0 0 0 0 0 0 0 0 0 0 0 0 0 0 0 0 127 0" result="hardAlpha"/>
<feOffset dy="5"/>
<feGaussianBlur stdDeviation="10"/>
<feComposite in2="hardAlpha" operator="out"/>
<feColorMatrix type="matrix" values="0 0 0 0 0.164706 0 0 0 0 0.333333 0 0 0 0 0.760784 0 0 0 0.15 0"/>
<feBlend mode="normal" in2="BackgroundImageFix" result="effect1_dropShadow_3122_2383"/>
<feBlend mode="normal" in="SourceGraphic" in2="effect1_dropShadow_3122_2383" result="shape"/>
</filter>
</defs>
</svg>
