<svg width="32" height="33" viewBox="0 0 32 33" fill="none" xmlns="http://www.w3.org/2000/svg">
<circle cx="16" cy="16.5" r="16" fill="#D3D3D9"/>
<path d="M12 10.2777H9C7.34315 10.2777 6 11.6208 6 13.2777V21.4999C6 23.1568 7.34315 24.4999 9 24.4999H23C24.6569 24.4999 26 23.1568 26 21.4999V13.2777C26 11.6208 24.6569 10.2777 23 10.2777H20M12 10.2777L12.088 9.15915C12.1221 8.72487 12.2332 8.28752 12.5246 7.96373C13.0867 7.33916 13.8941 6.9707 14.7545 6.9707H17.2455C18.1059 6.9707 18.9133 7.33916 19.4754 7.96373C19.7668 8.28752 19.8779 8.72487 19.912 9.15915L20 10.2777M12 10.2777H20M22.01 13.4999H22M19 17.4999C19 19.1568 17.6569 20.4999 16 20.4999C14.3431 20.4999 13 19.1568 13 17.4999C13 15.8431 14.3431 14.4999 16 14.4999C17.6569 14.4999 19 15.8431 19 17.4999Z" stroke="black" stroke-width="1.5" stroke-linecap="round" stroke-linejoin="round"/>
</svg>
