<svg width="100" height="111" viewBox="0 0 100 111" fill="none" xmlns="http://www.w3.org/2000/svg">
<path d="M16.5923 7.44331C17.6523 2.89244 22.1951 0.0638503 26.739 1.12548L91.9283 16.3563C96.4721 17.418 99.2963 21.9678 98.2364 26.5187L82.4659 94.2264C79.8159 105.604 68.4589 112.675 57.0993 110.021L16.5921 100.557C5.23244 97.9028 -1.8281 86.5282 0.821866 75.151L16.5923 7.44331Z" fill="#508D3F"/>
<path d="M16.5923 7.44331C17.6523 2.89244 22.1951 0.0638503 26.739 1.12548L91.9283 16.3563C96.4721 17.418 99.2963 21.9678 98.2364 26.5187L88.5675 68.0303C83.3081 90.6106 60.7679 104.645 38.2225 99.3778C15.6771 94.1103 1.66406 71.5352 6.92344 48.955L16.5923 7.44331Z" fill="#46C4FF"/>
<path d="M16.5923 7.44331C17.6523 2.89244 22.1951 0.0638503 26.739 1.12548L91.9283 16.3563C96.4721 17.418 99.2963 21.9678 98.2364 26.5187L83.6508 89.1393C81.1068 100.061 70.2041 106.85 59.2988 104.302L17.1461 94.4535C6.2409 91.9056 -0.537221 80.986 2.00675 70.0639L16.5923 7.44331Z" fill="#7AD761"/>
<path d="M29.7962 13.0959C29.9022 12.6408 30.3565 12.3579 30.8109 12.4641L84.2506 24.9498C84.7049 25.0559 84.9874 25.5109 84.8814 25.966L75.4356 66.5197C71.8871 81.7545 56.6793 91.2238 41.4679 87.6698C26.2566 84.1158 16.802 68.8844 20.3505 53.6496L29.7962 13.0959Z" fill="#60AF4B"/>
<path d="M37.9818 32.0728C36.87 32.4904 35.5873 33.4607 35.0983 34.1085C34.0828 35.5646 32.7749 40.6355 33.1451 41.9497C33.3589 42.8463 32.1618 45.4454 31.3374 45.7184C31.1489 45.8014 30.2804 46.4452 29.4026 47.1291C28.0022 48.2413 27.7203 48.7258 27.2153 50.8939C26.7197 53.0218 26.7491 53.6213 27.4213 55.0908C29.2081 58.8526 32.5301 61.8302 36.9932 63.7197C38.3803 64.2977 39.6591 64.9775 39.782 65.1756C40.0987 65.6306 52.0448 68.4217 52.5299 68.154C52.7276 68.0309 54.1748 67.988 55.674 68.0842C60.5112 68.3677 64.8058 67.1697 68.0701 64.588C69.3221 63.5681 69.6134 63.0435 70.109 60.9156C70.614 58.7475 70.5752 58.1881 69.8108 56.5701C69.3257 55.5678 68.8312 54.6055 68.6989 54.4476C68.0802 53.8374 68.1549 50.9761 68.7428 50.2668C69.6554 49.2523 70.7228 44.1252 70.4555 42.3694C70.3031 41.5718 69.5815 40.1331 68.769 39.2659C67.5075 37.7858 67.0946 37.5624 64.4087 36.9348C61.9233 36.3541 61.0842 36.3274 59.4446 36.8334C58.3516 37.1707 57.3013 37.6873 57.1063 37.9804C56.5798 38.7888 49.1235 37.0467 49.0086 36.0885C48.9631 35.7392 48.2495 34.8104 47.4184 34.0236C46.1716 32.8432 45.4072 32.4953 42.9218 31.9146C40.236 31.2871 39.7669 31.3045 37.9818 32.0728ZM44.4521 37.1406C44.6485 37.5675 45.008 38.2019 45.2138 38.5886C45.6254 39.3621 44.9668 42.5527 44.4056 42.4215C44.2051 42.3747 43.9392 42.6089 43.8644 42.9301C43.5932 44.0945 40.7176 44.1 38.5422 42.9143C36.7396 41.9428 37.2003 37.6054 39.2674 36.3526C40.7105 35.4197 43.844 35.9402 44.4521 37.1406ZM65.7252 42.5342C67.0255 44.5737 65.5224 48.6677 63.4766 48.74C61.0019 48.8392 58.4256 47.5599 58.6968 46.3956C58.7716 46.0744 58.6767 45.7559 58.4362 45.6997C57.875 45.5685 58.6939 42.4155 59.4449 41.9136C59.7602 41.6486 60.3628 41.239 60.7276 40.9432C61.8032 40.1362 64.8432 41.0581 65.7252 42.5342ZM37.2772 51.9747C37.7877 52.6867 38.9209 53.6288 39.7467 54.0757C40.6126 54.532 41.4812 55.1583 41.7458 55.4741C42.0318 55.8796 44.2793 56.5741 48.2881 57.5107C52.2969 58.4473 54.6192 58.8206 55.0549 58.5837C55.4317 58.4177 56.4873 58.241 57.4654 58.2155C58.4034 58.1807 59.8359 57.838 60.6082 57.4258C62.2918 56.5491 63.4824 56.7003 63.2299 57.7843C63.0709 58.4668 62.2492 58.9099 59.3683 59.8455C55.7618 60.9926 49.9251 60.6449 44.9062 58.9643C40.4297 57.495 34.3843 52.7805 34.7771 51.0942C35.0202 50.0503 36.1948 50.4518 37.2772 51.9747Z" fill="#2B5121"/>
<path d="M39.1848 41.2435L40.8965 41.5164C42.7686 41.8268 43.2603 41.349 43.2589 39.3589C43.2455 38.5091 43.0022 38.2829 41.6393 37.9645L40.0358 37.5899L39.1848 41.2435Z" fill="#2B5121"/>
<path d="M60.8171 43.4617C59.9366 45.2457 60.1665 45.8921 61.9824 46.4433L63.6381 46.9572L64.4891 43.3036L62.8856 42.9289C61.5226 42.6105 61.2046 42.7055 60.8171 43.4617Z" fill="#2B5121"/>
<path d="M80.2844 13.3941L95.8846 17.039L97.2076 17.5904L98.0183 18.2643L99.0737 19.9646L99.2649 21.2206L94.9299 39.8321L6.50134 92.3386L4.86488 90.0181L3.51122 87.5214L2.44048 84.8485L1.6527 81.9994L1.14783 78.9741L1.1018 76.0561L1.33865 72.9618L4.76382 58.2565L80.2844 13.3941Z" fill="white" fill-opacity="0.29"/>
</svg>
