<svg width="84" height="91" viewBox="0 0 84 91" fill="none" xmlns="http://www.w3.org/2000/svg">
<path d="M1.03633 25.8082C-0.275516 20.4434 3.01004 15.0309 8.37483 13.7191L59.4168 1.23784C64.7816 -0.0740035 70.1941 3.21156 71.5059 8.57634L82.7718 54.6483C86.0514 68.0603 77.8375 81.5915 64.4256 84.8711L42.525 90.2264C29.113 93.506 15.5818 85.2921 12.3022 71.8802L1.03633 25.8082Z" fill="#1F9DD3"/>
<path d="M1.03633 25.8082C-0.275516 20.4434 3.01004 15.0309 8.37483 13.7191L59.4168 1.23784C64.7816 -0.0740035 70.1941 3.21156 71.5059 8.57634L78.8954 38.7958C83.6539 58.2554 71.7362 77.8881 52.2766 82.6465C32.8169 87.4049 13.1843 75.4873 8.42584 56.0276L1.03633 25.8082Z" fill="#46C4FF"/>
<path d="M1.03633 25.8082C-0.275516 20.4434 3.01004 15.0309 8.37483 13.7191L59.4168 1.23784C64.7816 -0.0740035 70.1941 3.21156 71.5059 8.57634L81.8106 50.7175C84.9591 63.593 77.0737 76.5829 64.1982 79.7313L40.3549 85.5617C27.4794 88.7101 14.4895 80.8248 11.341 67.9493L1.03633 25.8082Z" fill="#46C4FF"/>
<path d="M12.7835 22.3304C12.6523 21.7939 12.9809 21.2527 13.5173 21.1215L59.1203 9.97029C59.6568 9.8391 60.1981 10.1677 60.3292 10.7041L68.2639 43.153C71.4744 56.2824 63.4336 69.5285 50.3042 72.739C37.1748 75.9495 23.9287 67.9087 20.7182 54.7793L12.7835 22.3304Z" fill="#1CB0F6"/>
<path d="M43.5075 27.4293C43.5576 28.8647 42.3701 29.4768 41.101 28.6612C39.123 27.4077 37.2398 29.4123 38.8986 31.0012C39.3254 31.3794 39.3532 31.6299 38.9747 32.2694C38.6278 32.9011 38.2956 33.0466 36.9968 33.2034C35.5013 33.376 35.4457 33.4218 35.4104 34.2347C35.4179 35.3588 35.8576 35.9268 36.6462 35.734C36.9932 35.6491 37.3067 35.7011 37.3439 35.8529C37.381 36.0046 37.7242 36.1781 38.0935 36.1843C38.4627 36.1905 38.9451 36.5229 39.1437 36.9247C39.5797 37.751 40.4147 37.6112 40.9713 36.6065C41.1735 36.2032 41.5483 35.822 41.8006 35.7603C42.053 35.6986 42.3962 35.3251 42.5669 34.9296C43.194 33.3929 46.4763 31.9148 48.6731 32.1496C49.881 32.3046 51.2448 33.0971 51.9462 34.0515C53.1782 35.809 53.3249 39.2796 52.1912 40.5219C51.9037 40.8496 51.7163 41.3136 51.7756 41.5564C51.835 41.7993 51.6551 42.2936 51.3749 42.6517C50.7014 43.5884 50.9575 44.3622 51.9241 44.351C52.388 44.3341 52.9187 44.5903 53.0949 44.9011C53.2712 45.2119 53.5904 45.4233 53.7481 45.3848C53.9058 45.3462 54.0988 45.5885 54.1804 45.9224C54.366 46.6813 55.0952 46.7925 56.1398 46.2797C56.8764 45.8744 56.8931 45.806 56.3624 44.456C55.9078 43.2804 55.8892 42.9311 56.3141 42.3446C56.7315 41.7278 56.9765 41.6358 57.5238 41.8236C59.7615 42.4989 60.7486 39.9735 58.6741 38.8723C57.3326 38.1709 57.3512 36.8796 58.7038 36.2594C59.6686 35.8304 59.7168 35.7543 59.4125 34.5098C59.1082 33.2653 59.0303 33.22 57.9764 33.2847C56.4902 33.3586 55.9316 32.3049 56.7592 31.0409C57.377 30.15 57.3195 29.2311 56.6682 28.6183C56.3732 28.3688 55.9167 28.4161 54.874 28.7997C53.0167 29.5434 52.3543 29.1585 52.1854 27.2375C52.0592 26.1746 51.8922 25.7651 51.5248 25.6297C50.6565 25.3595 49.7788 25.735 49.2389 26.6712C48.4504 27.9578 47.2165 27.97 46.5986 26.6735C46.1719 25.7484 46.0939 25.7031 44.8007 26.0194C43.5074 26.3356 43.4592 26.4117 43.5075 27.4293Z" fill="#0076AC"/>
<path d="M35.0617 38.8242C35.2696 39.6741 34.8521 40.2909 33.6739 40.8041C33.0171 41.1256 32.5699 41.0741 31.7665 40.6593C30.7219 40.0784 30.0075 40.0279 30.1263 40.5136C30.1634 40.6653 29.924 40.9169 29.5993 41.0928C29.0928 41.3453 29.0817 41.5732 29.5363 42.7488C30.2952 44.6221 29.9408 45.2234 27.9333 45.4891C26.6029 45.6536 26.3339 45.7837 26.0648 46.4607C25.601 47.5714 25.8218 48.0643 26.9852 48.584C27.8832 48.9756 27.9834 49.112 27.9296 50.1224C27.9018 50.9656 27.6606 51.3462 26.9314 51.7819C26.0761 52.2484 26.0186 52.4233 26.2932 53.5464C26.5678 54.6695 26.6996 54.7982 27.6737 54.8173C28.5216 54.8673 28.9113 55.0937 29.3176 55.7986C29.7926 56.6475 29.7741 56.8451 29.2119 57.6902C28.4493 58.8096 28.4753 59.1893 29.3604 59.9379C29.9115 60.4144 30.2102 60.4057 31.4663 59.9377C33.37 59.247 33.9619 59.617 34.1772 61.591C34.27 62.7907 34.424 63.0104 35.0957 63.2965C36.2293 63.6949 36.593 63.5416 37.2776 62.3769C37.8009 61.5091 37.9753 61.4021 38.9809 61.4136C39.8214 61.4332 40.2111 61.6596 40.649 62.3568C41.1166 63.1753 41.2966 63.2278 42.4636 62.9425C43.6307 62.6571 43.7661 62.5275 43.8032 61.5855C43.87 60.7649 44.1112 60.3843 44.8794 59.9712C45.7904 59.4589 45.9629 59.4811 46.7404 60.063C47.759 60.8112 48.3175 60.7711 49.1636 59.8565C49.6274 59.2927 49.6627 59.0268 49.1914 57.9196C48.4714 56.069 48.8258 55.4676 50.8724 55.2245C52.2658 55.0446 52.4717 54.9299 52.4717 54.3831C52.4847 54.026 52.6072 53.7066 52.7649 53.668C53.2696 53.5446 52.8929 52.9612 51.8724 52.3421C51.1172 51.8512 50.863 51.4952 50.8574 50.7889C50.7887 49.5511 51.1672 48.9116 52.0504 48.6957C52.7444 48.526 52.7778 48.3891 52.4734 47.1446C52.1691 45.9001 52.0763 45.7941 51.3824 45.9638C50.4992 46.1798 49.8684 45.7871 49.3191 44.6347C48.9833 43.9448 49.0352 43.6104 49.5788 42.9627C50.2431 42.1247 50.2894 41.084 49.6901 41.2305C49.5324 41.2691 49.3302 41.1256 49.2708 40.8827C49.1001 40.1846 48.5267 40.1639 47.3782 40.7986C45.8178 41.6627 44.4541 40.8703 44.5338 39.1458C44.5913 37.8772 44.3074 37.3997 43.5819 37.5771C43.3296 37.6388 43.1032 37.5333 43.0661 37.3816C42.9251 36.8048 41.9825 37.3248 41.5131 38.276C41.1643 39.0369 40.8786 39.2354 40.0844 39.2688C38.7634 39.3344 38.1084 38.9799 37.9006 38.13C37.7373 37.4622 37.5962 37.4323 36.303 37.7486C35.0098 38.0648 34.8984 38.1564 35.0617 38.8242ZM40.4909 43.8017C41.6988 43.9567 44.2315 45.4284 44.9329 46.3828C45.6101 47.3753 46.2707 50.0768 46.126 51.3989C45.9813 52.7211 44.8069 54.6167 43.5767 55.4644C42.4412 56.2889 39.6729 56.998 38.1032 56.8672C36.6671 56.7358 34.7188 55.6038 33.934 54.4446C33.0878 53.1717 32.4662 50.4928 32.7055 49.1475C32.9374 47.7719 34.136 45.8382 35.1751 45.1659C36.2382 44.4556 39.3219 43.6694 40.4909 43.8017Z" fill="#0076AC"/>
<path d="M36.9377 48.821C36.1529 49.8493 36.6855 52.164 37.8155 52.8205C38.9454 53.4771 41.3352 52.8606 41.9252 51.7191C42.532 50.5091 41.9864 48.5515 40.8713 47.9557C39.7172 47.3371 37.7226 47.7927 36.9377 48.821Z" fill="#0076AC"/>
<path d="M46.095 36.5122C45.9985 36.6645 46.0598 37.3251 46.2156 37.9625L46.5051 39.1463L47.8392 38.7236C49.1417 38.3086 49.1417 38.3086 48.8448 37.0944C48.5553 35.9106 48.5163 35.888 47.4216 36.0591C46.7759 36.1527 46.1915 36.3599 46.095 36.5122Z" fill="#0076AC"/>
<path d="M51.8866 2.87808L63.1872 0.31543L66.0338 0.918026L67.5072 1.42364L68.6559 2.4416L70.4607 5.03092L73.3427 16.8168L25.0396 89.6173L22.8848 88.5286L20.8813 87.201L19.0292 85.6344L17.3286 83.8288L15.7793 81.7842L14.6261 79.6428L13.6243 77.2624L10.6421 65.0668L51.8866 2.87808Z" fill="white" fill-opacity="0.29"/>
</svg>
