<svg width="99" height="109" viewBox="0 0 99 109" fill="none" xmlns="http://www.w3.org/2000/svg">
<path d="M0.29655 27.9684C-0.876127 23.8321 1.53371 19.5304 5.67908 18.3603L69.6724 0.296878C73.8177 -0.873235 78.1288 1.53133 79.3015 5.66763L98.2586 72.5336C101.19 82.8743 95.1657 93.6286 84.8023 96.5538L43.3265 108.261C32.9631 111.186 22.1854 105.175 19.2537 94.8343L0.29655 27.9684Z" fill="#850014"/>
<path d="M0.29655 27.9684C-0.876127 23.8321 1.53371 19.5304 5.67908 18.3603L69.6724 0.296878C73.8177 -0.873235 78.1288 1.53133 79.3015 5.66763L90.7765 46.1423C96.9481 67.9112 84.2654 90.5506 62.4488 96.7088C40.6322 102.867 17.9432 90.212 11.7715 68.4431L0.29655 27.9684Z" fill="#46C4FF"/>
<path d="M0.29655 27.9684C-0.876127 23.8321 1.53371 19.5304 5.67908 18.3603L69.6724 0.296878C73.8177 -0.873235 78.1288 1.53133 79.3015 5.66763L96.8553 67.5838C99.6697 77.5109 93.8861 87.835 83.9373 90.6433L40.9603 102.774C31.0115 105.583 20.6648 99.8117 17.8504 89.8846L0.29655 27.9684Z" fill="#E10531"/>
<path d="M14.4038 26.9637C14.2866 26.5501 14.5275 26.1199 14.9421 26.0029L66.7455 11.3804C67.16 11.2633 67.5911 11.5038 67.7084 11.9174L78.8055 51.0595C82.9695 65.7469 74.4125 81.0217 59.6929 85.1766C44.9732 89.3315 29.665 80.7932 25.5009 66.1058L14.4038 26.9637Z" fill="#AE001A"/>
<path d="M34.2791 39.7625L30.7749 40.7517L31.7662 44.2482L28.262 45.2373L32.9707 61.846L36.4749 60.8568L37.4662 64.3534L39.2183 63.8588C40.9266 63.3766 40.9828 63.408 41.4041 64.894C41.8131 66.3363 41.9254 66.399 43.3709 65.991C44.8602 65.5706 44.9164 65.602 45.3997 67.3065L45.8953 69.0548L49.3996 68.0657L50.3909 71.5622L60.4655 68.7184L59.4742 65.2219L62.9784 64.2328L62.4828 62.4845C61.9995 60.7799 62.0309 60.7238 63.5202 60.3035C64.9657 59.8954 65.0285 59.7833 64.6196 58.341C64.1983 56.8549 64.2297 56.7989 65.938 56.3167L67.6901 55.8221L66.6988 52.3255L70.203 51.3364L65.4943 34.7278L61.9901 35.7169L60.9988 32.2203L57.4946 33.2095L56.5033 29.7129L52.9991 30.7021L53.9904 34.1986L50.4862 35.1878L50.9818 36.936C51.4651 38.6406 51.4337 38.6967 49.9444 39.1171C48.4989 39.5251 48.436 39.6372 48.845 41.0795C49.2539 42.5219 49.1911 42.634 47.7456 43.042C46.3001 43.4501 46.1877 43.3874 45.7788 41.945C45.3699 40.5027 45.2575 40.44 43.812 40.848C42.3227 41.2684 42.2665 41.2371 41.7832 39.5325L41.2876 37.7842L37.7834 38.7734L36.7921 35.2768L33.2878 36.266L34.2791 39.7625Z" fill="#6B0015"/>
<path d="M57.834 3.39985L70.5139 0.0584319L73.7732 0.67691L75.4703 1.22366L76.8261 2.37965L79.008 5.35404L82.8922 19.0547L31.9281 105.691L29.4279 104.483L27.0866 102.991L24.9046 101.214L22.8818 99.1538L21.0182 96.8089L19.5986 94.3388L18.3381 91.5844L14.3188 77.4074L57.834 3.39985Z" fill="white" fill-opacity="0.29"/>
</svg>
