<svg width="85" height="85" viewBox="0 0 85 85" fill="none" xmlns="http://www.w3.org/2000/svg">
<circle cx="42.5" cy="42.5" r="42.5" fill="#D9D9D9"/>
<path fill-rule="evenodd" clip-rule="evenodd" d="M31.8385 29.2708C31.8385 26.5468 32.9206 23.9344 34.8468 22.0083C36.773 20.0821 39.3854 19 42.1094 19C44.8334 19 47.4458 20.0821 49.3719 22.0083C51.2981 23.9344 52.3802 26.5468 52.3802 29.2708C52.3802 31.9948 51.2981 34.6073 49.3719 36.5334C47.4458 38.4596 44.8334 39.5417 42.1094 39.5417C39.3854 39.5417 36.773 38.4596 34.8468 36.5334C32.9206 34.6073 31.8385 31.9948 31.8385 29.2708ZM31.8385 44.6771C28.4335 44.6771 25.168 46.0297 22.7603 48.4374C20.3526 50.8451 19 54.1106 19 57.5156C19 59.5586 19.8116 61.5179 21.2562 62.9626C22.7008 64.4072 24.6601 65.2187 26.7031 65.2187H57.5156C59.5586 65.2187 61.5179 64.4072 62.9626 62.9626C64.4072 61.5179 65.2187 59.5586 65.2187 57.5156C65.2187 54.1106 63.8661 50.8451 61.4584 48.4374C59.0507 46.0297 55.7852 44.6771 52.3802 44.6771H31.8385Z" fill="black" fill-opacity="0.5"/>
</svg>
