<svg width="37" height="55" viewBox="0 0 37 55" fill="none" xmlns="http://www.w3.org/2000/svg">
<path d="M34.1349 3.01562H5.47705C3.89519 3.01562 2.61182 4.299 2.61182 5.88086V51.7328C2.61182 53.3147 3.89519 54.5981 5.47705 54.5981H34.1349C35.7167 54.5981 37.0001 53.3147 37.0001 51.7328V5.88086C37.0001 4.299 35.7167 3.01562 34.1349 3.01562Z" fill="#7B2BBE"/>
<path d="M31.5231 0H2.86523C1.28337 0 0 1.28337 0 2.86523V48.7172C0 50.2991 1.28337 51.5824 2.86523 51.5824H31.5231C33.1049 51.5824 34.3883 50.2991 34.3883 48.7172V2.86523C34.3883 1.28337 33.1049 0 31.5231 0Z" fill="#C67DFF"/>
<path d="M17.0515 37.2529H17.3376Z" fill="#9D4EDD"/>
<path d="M17.0515 37.2529H17.3376" stroke="#9D4EDD" stroke-width="3" stroke-linecap="round" stroke-linejoin="round"/>
<path d="M22.9266 22.9256H11.4629Z" fill="#9D4EDD"/>
<path d="M22.9266 22.9256H11.4629M22.9266 11.4619H11.4629" stroke="#9D4EDD" stroke-width="3" stroke-linecap="round" stroke-linejoin="round"/>
</svg>
