<svg width="111" height="97" viewBox="0 0 111 97" fill="none" xmlns="http://www.w3.org/2000/svg">
<path fill-rule="evenodd" clip-rule="evenodd" d="M78.8033 1.61727C84.0552 -0.954278 90.5208 1.69318 92.2677 7.45083L105.62 51.4583C107.367 57.216 103.471 63.0202 97.6762 63.8191C87.1002 65.2536 76.6357 67.4177 66.3571 70.2959L68.2515 76.5394C71.5814 75.7703 74.7594 75.2579 77.3261 74.9216C79.4693 74.6392 81.616 74.4009 83.7713 74.2901C84.3987 74.2583 85.0262 74.3506 85.618 74.5618C86.2097 74.7731 86.7541 75.0991 87.2201 75.5213C87.6861 75.9434 88.0645 76.4535 88.3336 77.0222C88.6028 77.591 88.7575 78.2073 88.7889 78.836C88.8368 80.1139 88.3791 81.359 87.5152 82.3003C86.6514 83.2416 85.4515 83.8028 84.1767 83.8618C82.2994 83.9831 80.4292 84.1772 78.5684 84.4186C74.4548 84.9328 70.389 85.7763 66.4098 86.941C62.1828 88.2288 58.0393 90.072 54.9078 91.627C53.2277 92.4643 51.5662 93.3461 49.9393 94.2925C48.8474 94.9545 47.5388 95.1575 46.2983 94.8573C45.0578 94.5571 43.9859 93.778 43.3159 92.6897C42.6829 91.5927 42.5013 90.2919 42.8096 89.063C43.1178 87.8341 43.8916 86.7739 44.9669 86.1071C46.8262 85.0135 48.7268 83.9917 50.6644 83.0443C52.9822 81.8874 55.9038 80.5466 59.102 79.3269L57.2076 73.0833C47.0697 76.4252 37.174 80.464 27.591 85.1711C22.3377 87.738 15.8707 85.086 14.1252 79.3329L0.772725 35.3254C-0.974221 29.5677 2.922 23.7635 8.71813 22.9692C33.079 19.699 56.7485 12.4879 78.8033 1.61727Z" fill="#F89701"/>
<path fill-rule="evenodd" clip-rule="evenodd" d="M83.4896 3.14865C88.7415 0.577099 95.207 3.22456 96.954 8.98221L110.306 52.9897C112.053 58.7474 108.157 64.5516 102.362 65.3505C91.7865 66.785 81.322 68.9491 71.0434 71.8273L72.9378 78.0708C76.2677 77.3017 79.4456 76.7893 82.0123 76.453C84.1556 76.1706 86.3022 75.9323 88.4576 75.8215C89.085 75.7896 89.7125 75.882 90.3042 76.0932C90.896 76.3045 91.4404 76.6305 91.9064 77.0527C92.3723 77.4748 92.7507 77.9848 93.0199 78.5536C93.2891 79.1224 93.4438 79.7387 93.4751 80.3674C93.5231 81.6453 93.0653 82.8904 92.2015 83.8317C91.3377 84.773 90.1378 85.3342 88.863 85.3932C86.9856 85.5144 85.1155 85.7086 83.2546 85.95C79.1411 86.4642 75.0753 87.3077 71.0961 88.4723C66.869 89.7601 62.7255 91.6034 59.594 93.1584C57.914 93.9957 56.2525 94.8775 54.6255 95.8239C53.5337 96.4859 52.2251 96.6889 50.9846 96.3887C49.7441 96.0885 48.6721 95.3094 48.0021 94.2211C47.3692 93.1241 47.1876 91.8233 47.4958 90.5944C47.8041 89.3655 48.5779 88.3053 49.6532 87.6385C51.5125 86.5448 53.4131 85.5231 55.3507 84.5756C57.6684 83.4188 60.59 82.078 63.7882 80.8583L61.8939 74.6147C51.756 77.9566 41.8603 81.9954 32.2773 86.7024C27.024 89.2694 20.557 86.6174 18.8114 80.8643L5.45899 36.8568C3.71204 31.0991 7.60826 25.2949 13.4044 24.5006C37.7652 21.2304 61.4348 14.0193 83.4896 3.14865Z" fill="#FEE333"/>
</svg>
