<svg width="56" height="71" viewBox="0 0 56 71" fill="none" xmlns="http://www.w3.org/2000/svg">
<path d="M14.6745 70.1947C12.8587 69.5628 11.5296 68.3761 10.6873 66.6345C9.84492 64.8929 9.73898 63.1128 10.3695 61.294L23.5752 65.8897C22.9433 67.7055 21.7561 69.0357 20.0138 69.8802C18.2715 70.7248 16.4917 70.8296 14.6745 70.1947ZM4.91553 55.6947L7.21339 49.0919L33.6248 58.2833L31.3269 64.8862L4.91553 55.6947ZM9.18768 46.0777C6.17614 42.5004 4.21622 38.4255 3.30792 33.853C2.39963 29.2804 2.7221 24.7661 4.27536 20.3099C6.66896 13.432 11.1112 8.42418 17.602 5.2866C24.0928 2.14903 30.7765 1.77555 37.653 4.16619C44.5296 6.55682 49.5384 10.9994 52.6796 17.494C55.8209 23.9885 56.1932 30.6718 53.7968 37.5438C52.2457 42.0008 49.6959 45.74 46.1472 48.7615C42.5986 51.783 38.5323 53.7607 33.9484 54.6946L9.18768 46.0777Z" fill="#F89701"/>
<path d="M12.5968 68.4152C10.781 67.7833 9.45196 66.5965 8.60961 64.855C7.76727 63.1134 7.66133 61.3332 8.29181 59.5145L21.4975 64.1102C20.8656 65.926 19.6785 67.2561 17.9361 68.1007C16.1938 68.9452 14.414 69.0501 12.5968 68.4152ZM2.83788 53.9152L5.13574 47.3123L31.5472 56.5038L29.2493 63.1066L2.83788 53.9152ZM7.11003 44.2981C4.09849 40.7209 2.13857 36.646 1.23027 32.0735C0.321977 27.5009 0.644454 22.9866 2.19771 18.5304C4.59131 11.6524 9.03352 6.64465 15.5243 3.50707C22.0152 0.369494 28.6988 -0.00397897 35.5754 2.38665C42.4519 4.77729 47.4608 9.21988 50.602 15.7144C53.7432 22.209 54.1156 28.8923 51.7191 35.7643C50.1681 40.2212 47.6182 43.9605 44.0696 46.982C40.521 50.0034 36.4547 51.9812 31.8707 52.9151L7.11003 44.2981Z" fill="#FEE333"/>
</svg>
