<svg width="109" height="68" viewBox="0 0 109 68" fill="none" xmlns="http://www.w3.org/2000/svg">
<g filter="url(#filter0_d_1535_1839)">
<path fill-rule="evenodd" clip-rule="evenodd" d="M15.0192 20.7675C15.0192 22.0178 15.3019 23.2243 15.8272 24.36C12.1524 27.006 10.0547 30.2272 10.0547 33.9673C10.0547 44.7201 30.0587 55.4169 54.7351 55.4169C79.4113 55.4169 98.4223 45.3802 98.4223 34.6273C98.7429 30.9018 96.8784 27.6229 93.3779 24.8898C94.0723 23.6019 94.4508 22.2141 94.4508 20.7675C94.4508 14.0241 86.2271 8.55762 76.0823 8.55762C68.5411 8.55762 62.0609 11.5786 59.2317 15.8992C57.7531 15.845 56.253 15.8175 54.7351 15.8175C53.2156 15.8175 51.7139 15.8425 50.2335 15.8922C47.4021 11.5753 40.9251 8.55762 33.3878 8.55762C23.243 8.55762 15.0192 14.0241 15.0192 20.7675Z" fill="#0076AC"/>
</g>
<g filter="url(#filter1_d_1535_1839)">
<path d="M87.2848 34.174C82.1409 32.8435 66.8976 29.7622 54.3869 29.7622C46.533 29.9472 27.7465 31.9355 27.7465 31.9355C27.7465 31.9355 21.3586 33.2062 19.5337 33.7122C20.4518 61.4337 86.6908 63.2186 89.2534 35.5281C89.2943 35.0839 87.6582 34.6167 87.2848 34.174Z" fill="#46C4FF"/>
</g>
<path d="M94.9321 37.7952C95.4326 37.7952 95.8384 37.4142 95.8384 36.944C95.8384 36.4739 95.4326 36.0928 94.9321 36.0928C94.4316 36.0928 94.0259 36.4739 94.0259 36.944C94.0259 37.4142 94.4316 37.7952 94.9321 37.7952Z" fill="#00354E"/>
<path d="M92.1748 40.3802C92.6753 40.3802 93.0811 39.999 93.0811 39.529C93.0811 39.0589 92.6753 38.6777 92.1748 38.6777C91.6742 38.6777 91.2686 39.0589 91.2686 39.529C91.2686 39.999 91.6742 40.3802 92.1748 40.3802Z" fill="#00354E"/>
<path d="M91.6803 36.5281C92.1808 36.5281 92.5865 36.147 92.5865 35.6769C92.5865 35.2067 92.1808 34.8257 91.6803 34.8257C91.1798 34.8257 90.7739 35.2067 90.7739 35.6769C90.7739 36.147 91.1798 36.5281 91.6803 36.5281Z" fill="#00354E"/>
<path d="M13.6787 39.0814C14.1792 39.0814 14.585 38.7004 14.585 38.2301C14.585 37.7601 14.1792 37.3789 13.6787 37.3789C13.1782 37.3789 12.7725 37.7601 12.7725 38.2301C12.7725 38.7004 13.1782 39.0814 13.6787 39.0814Z" fill="#00354E"/>
<path d="M16.8521 40.7845C17.3526 40.7845 17.7584 40.4033 17.7584 39.9333C17.7584 39.4632 17.3526 39.082 16.8521 39.082C16.3516 39.082 15.9458 39.4632 15.9458 39.9333C15.9458 40.4033 16.3516 40.7845 16.8521 40.7845Z" fill="#00354E"/>
<path d="M15.9454 36.5281C16.4459 36.5281 16.8516 36.147 16.8516 35.6769C16.8516 35.2067 16.4459 34.8257 15.9454 34.8257C15.4448 34.8257 15.0391 35.2067 15.0391 35.6769C15.0391 36.147 15.4448 36.5281 15.9454 36.5281Z" fill="#00354E"/>
<path d="M19.6123 34.2146C24.1466 31.4227 30.7898 31.1575 36.9903 31.3047C42.3413 31.4317 47.3855 28.9392 53.422 29.8797C54.754 30.0874 56.127 30.1469 57.4774 30.0476C65.3944 29.4643 69.5495 32.012 78.4257 32.2855C83.4229 32.7646 86.0669 33.8731 89.1816 35.8613" stroke="#00354E" stroke-width="2" stroke-linecap="round"/>
<path d="M42.1549 13.5431L20.0952 19.7695C24.3865 35.0326 46.5183 29.1443 42.2485 13.8753C42.2178 13.7652 42.1865 13.6544 42.1549 13.5431Z" fill="white"/>
<path d="M38.9647 14.4322L28.5142 17.2783C30.5986 24.9624 41.0829 22.3027 39.0142 14.6144C38.9979 14.5541 38.9813 14.4933 38.9647 14.4322Z" fill="#333333"/>
<path d="M88.3001 19.4913L66.2734 13.1489C61.8709 28.3802 83.7807 35.048 88.2045 19.8229C88.2364 19.7131 88.2683 19.6026 88.3001 19.4913Z" fill="white"/>
<path d="M80.2059 17.0545L69.915 13.6621C67.1651 21.9782 77.3756 25.5627 80.1407 17.2518C80.1625 17.1865 80.1842 17.1208 80.2059 17.0545Z" fill="#333333"/>
<path d="M63.6938 10.769L90.5319 19.5465" stroke="#333333" stroke-width="5" stroke-linecap="round"/>
<path d="M18.4062 19.165L44.9619 11.1505" stroke="#333333" stroke-width="5" stroke-linecap="round"/>
<path fill-rule="evenodd" clip-rule="evenodd" d="M75.2124 21.6061C74.9273 20.7481 75.3583 19.7432 76.1753 19.3616C76.9921 18.9801 77.8855 19.3661 78.1707 20.224C78.4559 21.082 78.0248 22.0868 77.2079 22.4685C76.391 22.8501 75.4976 22.4639 75.2124 21.6061ZM72.4487 17.6295C72.3722 16.945 72.8164 16.3337 73.4409 16.2638C74.0654 16.194 74.6337 16.6921 74.7102 17.3765C74.7867 18.0608 74.3426 18.6723 73.7181 18.7421C73.0936 18.812 72.5253 18.3138 72.4487 17.6295Z" fill="white"/>
<path fill-rule="evenodd" clip-rule="evenodd" d="M32.3638 19.5461C33.1238 19.0564 34.2044 19.2239 34.7772 19.9202C35.35 20.6165 35.1983 21.5778 34.4383 22.0675C33.6783 22.5571 32.5978 22.3896 32.0249 21.6933C31.4521 20.9971 31.6039 20.0357 32.3638 19.5461ZM35.5278 15.8799C36.1716 15.6355 36.8743 15.9136 37.0973 16.5011C37.3203 17.0886 36.9793 17.763 36.3354 18.0074C35.6916 18.2517 34.9889 17.9737 34.7659 17.3862C34.5429 16.7987 34.884 16.1243 35.5278 15.8799Z" fill="white"/>
<path d="M77.9493 30.3805C77.9204 30.3466 77.8844 30.3194 77.8439 30.3008C77.8034 30.2821 77.7594 30.2725 77.7148 30.2725C77.6702 30.2725 77.6262 30.2821 77.5857 30.3008C77.5452 30.3194 77.5092 30.3466 77.4803 30.3805C76.6656 31.3345 74.0093 34.6326 74.0093 37.0757C74.0093 39.3523 75.441 40.7854 77.7147 40.7854C79.9883 40.7854 81.4201 39.3523 81.4201 37.0757C81.4201 34.6326 78.7638 31.3345 77.9493 30.3805ZM78.1264 39.4458C78.0769 39.4459 78.0282 39.4341 77.9842 39.4114C77.9403 39.3887 77.9024 39.3558 77.8738 39.3154C77.8452 39.275 77.8267 39.2283 77.8199 39.1793C77.8131 39.1302 77.8181 39.0803 77.8346 39.0336C77.8556 38.9727 77.8954 38.92 77.9481 38.883C78.0008 38.846 78.0638 38.8266 78.1282 38.8275C78.5369 38.8266 78.9286 38.6637 79.2176 38.3743C79.5067 38.085 79.6694 37.6928 79.6703 37.2836C79.6694 37.2191 79.6887 37.156 79.7257 37.1032C79.7627 37.0505 79.8153 37.0107 79.8762 36.9896C79.9228 36.9731 79.9727 36.9681 80.0217 36.9749C80.0707 36.9817 80.1173 37.0002 80.1576 37.0289C80.198 37.0575 80.2309 37.0954 80.2535 37.1394C80.2762 37.1834 80.288 37.2322 80.2879 37.2818C80.2873 37.8555 80.0593 38.4056 79.6541 38.8113C79.2489 39.217 78.6995 39.4452 78.1264 39.4458Z" fill="#52E0FF"/>
<path d="M78.1264 39.4458C78.0769 39.4459 78.0282 39.4341 77.9842 39.4114C77.9403 39.3887 77.9024 39.3558 77.8738 39.3154C77.8452 39.275 77.8267 39.2283 77.8199 39.1793C77.8131 39.1302 77.8181 39.0803 77.8346 39.0336C77.8556 38.9727 77.8954 38.92 77.9481 38.883C78.0008 38.846 78.0638 38.8266 78.1282 38.8275C78.5369 38.8266 78.9286 38.6637 79.2176 38.3743C79.5067 38.085 79.6694 37.6928 79.6703 37.2836C79.6694 37.2191 79.6887 37.156 79.7257 37.1032C79.7627 37.0505 79.8153 37.0107 79.8762 36.9896C79.9228 36.9731 79.9727 36.9681 80.0217 36.9749C80.0707 36.9817 80.1173 37.0002 80.1576 37.0289C80.198 37.0575 80.2309 37.0954 80.2535 37.1394C80.2762 37.1834 80.288 37.2322 80.2879 37.2818C80.2873 37.8555 80.0593 38.4056 79.6541 38.8113C79.2489 39.217 78.6995 39.4452 78.1264 39.4458Z" fill="#F8F8FF"/>
<defs>
<filter id="filter0_d_1535_1839" x="0.0546875" y="0.557617" width="108.403" height="66.8594" filterUnits="userSpaceOnUse" color-interpolation-filters="sRGB">
<feFlood flood-opacity="0" result="BackgroundImageFix"/>
<feColorMatrix in="SourceAlpha" type="matrix" values="0 0 0 0 0 0 0 0 0 0 0 0 0 0 0 0 0 0 127 0" result="hardAlpha"/>
<feOffset dy="2"/>
<feGaussianBlur stdDeviation="5"/>
<feComposite in2="hardAlpha" operator="out"/>
<feColorMatrix type="matrix" values="0 0 0 0 0 0 0 0 0 0 0 0 0 0 0 0 0 0 0.05 0"/>
<feBlend mode="normal" in2="BackgroundImageFix" result="effect1_dropShadow_1535_1839"/>
<feBlend mode="normal" in="SourceGraphic" in2="effect1_dropShadow_1535_1839" result="shape"/>
</filter>
<filter id="filter1_d_1535_1839" x="9.53369" y="21.7622" width="89.7207" height="45.6592" filterUnits="userSpaceOnUse" color-interpolation-filters="sRGB">
<feFlood flood-opacity="0" result="BackgroundImageFix"/>
<feColorMatrix in="SourceAlpha" type="matrix" values="0 0 0 0 0 0 0 0 0 0 0 0 0 0 0 0 0 0 127 0" result="hardAlpha"/>
<feOffset dy="2"/>
<feGaussianBlur stdDeviation="5"/>
<feComposite in2="hardAlpha" operator="out"/>
<feColorMatrix type="matrix" values="0 0 0 0 0 0 0 0 0 0 0 0 0 0 0 0 0 0 0.05 0"/>
<feBlend mode="normal" in2="BackgroundImageFix" result="effect1_dropShadow_1535_1839"/>
<feBlend mode="normal" in="SourceGraphic" in2="effect1_dropShadow_1535_1839" result="shape"/>
</filter>
</defs>
</svg>
