<svg width="78" height="87" viewBox="0 0 78 87" fill="none" xmlns="http://www.w3.org/2000/svg">
<path d="M12.7539 14.9378C12.7539 17.8386 15.5196 20.6207 20.4425 22.6719C25.3655 24.7232 32.0424 25.8755 39.0046 25.8755C45.9667 25.8755 52.6436 24.7232 57.5666 22.6719C62.4895 20.6207 65.2552 17.8386 65.2552 14.9378C65.2552 12.0369 62.4895 9.25483 57.5666 7.2036C52.6436 5.15237 45.9667 4 39.0046 4C32.0424 4 25.3655 5.15237 20.4425 7.2036C15.5196 9.25483 12.7539 12.0369 12.7539 14.9378Z" stroke="#7B2BBE" stroke-width="8" stroke-linecap="round" stroke-linejoin="round"/>
<path d="M65.2551 14.9375V35.1767C66.5251 34.6015 67.9521 34.4719 69.3051 34.8087C70.658 35.1456 71.8576 35.9293 72.7096 37.0329C73.5616 38.1365 74.0161 39.4954 73.9996 40.8896C73.983 42.2837 73.4964 43.6314 72.6184 44.7145L72.194 45.187L65.2551 52.1259V69.6263C65.2551 76.6703 54.1423 82.4235 40.2076 82.7517H39.0045C24.5053 82.7517 12.7538 76.8759 12.7538 69.6263V60.8761L5.81489 53.9372C4.78866 52.9123 4.15513 51.5595 4.02497 50.115C3.89481 48.6705 4.27631 47.2262 5.1028 46.0344C5.9293 44.8426 7.14825 43.9791 8.54672 43.5947C9.94519 43.2103 11.4343 43.3294 12.7538 43.9313V14.9375M30.2542 45.5633V52.1259M47.7547 60.8761V65.2512" stroke="#7B2BBE" stroke-width="8" stroke-linecap="round" stroke-linejoin="round"/>
</svg>
