<svg width="90" height="81" viewBox="0 0 90 81" fill="none" xmlns="http://www.w3.org/2000/svg">
<path d="M64.2871 53.2678C71.342 42.6791 80.1941 39.9873 84.0222 42.5378L89.0562 45.8918C89.2001 40.134 88.667 36.3463 79.3378 30.1306L41.0258 4.60465C26.7315 -4.91911 11.83 4.17264 5.30312 13.9689C-1.22374 23.7651 -3.87517 41.0186 10.4191 50.5424L48.7312 76.0683C58.0642 82.2866 61.7612 81.3172 67.0194 78.9669L61.9854 75.613C58.1573 73.0624 57.2323 63.8564 64.2871 53.2678ZM49.2964 53.2018C48.0309 53.7405 46.6677 51.5389 46.6677 51.5389L38.7605 38.8748C38.7605 38.8748 36.041 40.7663 34.0626 42.0516C32.0765 43.3318 30.1199 44.9743 28.3938 40.5299C26.6689 36.0752 22.9745 18.9549 22.9745 18.9549C22.9745 18.9549 22.3781 16.9878 23.7176 16.4043C24.9843 15.8554 26.3462 18.0673 26.3462 18.0673L34.2547 30.7211C34.2547 30.7211 36.9729 28.8398 38.9513 27.5545C40.9348 26.2781 42.8991 24.6241 44.6202 29.0762C46.3501 33.5232 50.0356 50.6487 50.0356 50.6487C50.0356 50.6487 50.6345 52.612 49.2964 53.2018ZM82.8402 54.1761L79.973 52.2657C77.833 50.84 73.8197 52.3338 70.6953 57.0233C67.5658 61.7204 67.7392 65.9981 69.8753 67.4213L72.7426 69.3317C74.8864 70.76 78.9762 69.3172 82.1032 64.6239C85.2276 59.9344 84.984 55.6044 82.8402 54.1761Z" fill="#8D5805"/>
</svg>
