<svg width="78" height="87" viewBox="0 0 78 87" fill="none" xmlns="http://www.w3.org/2000/svg">
<path d="M12.7539 14.9378C12.7539 17.8386 15.5196 20.6207 20.4425 22.6719C25.3655 24.7232 32.0424 25.8755 39.0046 25.8755C45.9667 25.8755 52.6436 24.7232 57.5666 22.6719C62.4895 20.6207 65.2552 17.8386 65.2552 14.9378M12.7539 14.9378C12.7539 12.0369 15.5196 9.25483 20.4425 7.2036C25.3655 5.15237 32.0424 4 39.0046 4C45.9667 4 52.6436 5.15237 57.5666 7.2036C62.4895 9.25483 65.2552 12.0369 65.2552 14.9378M12.7539 14.9378L12.7538 43.9313C11.4343 43.3294 9.94519 43.2103 8.54672 43.5947C7.14825 43.9791 5.9293 44.8426 5.1028 46.0344C4.27631 47.2262 3.89481 48.6705 4.02497 50.115C4.15513 51.5595 4.78866 52.9123 5.81489 53.9372L12.7538 60.8761V69.6263C12.7538 76.8759 24.5053 82.7517 39.0045 82.7517H40.2076C54.1423 82.4235 65.2551 76.6703 65.2551 69.6263V52.1259L72.194 45.187L72.6184 44.7145C73.4964 43.6314 73.983 42.2837 73.9996 40.8896C74.0161 39.4954 73.5616 38.1365 72.7096 37.0329C71.8576 35.9293 70.658 35.1456 69.3051 34.8087C67.9521 34.4719 66.5251 34.6015 65.2551 35.1767L65.2552 14.9378M30.2542 45.5633V52.1259M47.7547 60.8761V65.2512" stroke="#4C0588" stroke-width="8" stroke-linecap="round" stroke-linejoin="round"/>
</svg>
