<svg width="433" height="433" viewBox="0 0 433 433" fill="none" xmlns="http://www.w3.org/2000/svg">
<circle cx="216.469" cy="216.469" r="216.469" fill="#C6F0AC"/>
<g clip-path="url(#clip0_2021_1189)">
<path d="M153.081 312.657C153.768 313.008 154.225 313.683 154.225 314.418V349.58C154.225 353.875 157.932 357.358 162.505 357.358L177.014 357.358C183.741 357.358 190.445 354.422 192.795 348.5C194.475 344.271 195.324 339.742 195.876 334.191C195.991 333.03 197.145 332.207 198.362 332.435L206.388 322.027L153.081 312.657Z" fill="#61D243"/>
<path d="M164.702 350.758C164.702 349.33 163.469 348.171 161.949 348.171C160.427 348.171 159.194 349.33 159.194 350.758V356.71C160.906 357.383 162.142 357.462 164.702 357.363V350.758Z" fill="#499136"/>
<path d="M175.718 350.758C175.718 349.33 174.486 348.171 172.965 348.171C171.444 348.171 170.211 349.33 170.211 350.758V357.373H175.718V350.758Z" fill="#499136"/>
<path d="M186.645 355.084V350.428C185.949 348.909 185.352 348.484 183.891 348.358C170.522 346.14 164.378 342.87 154.147 335.941V315.245C153.883 313.892 153.519 313.327 152.495 312.657L208.157 322.105C207.615 322.328 197.974 333.28 197.662 333.871C196.896 338.84 196.162 341.535 194.357 346.289C192.265 351.199 190.526 353.334 186.645 355.084Z" fill="#5EBE45"/>
<path d="M186.736 350.758C186.736 349.33 185.502 348.171 183.981 348.171C182.46 348.171 181.227 349.33 181.227 350.758V356.969C183.428 356.505 184.645 356.075 186.736 355.06V350.758Z" fill="#499136"/>
<path d="M286.965 301.657C286.553 302.31 286.505 303.123 286.88 303.755L304.827 333.991C307.019 337.685 305.609 342.572 301.676 344.907L289.2 352.312C283.415 355.747 276.151 356.644 271.108 352.752C267.505 349.972 264.463 346.511 261.155 342.019C260.464 341.08 259.05 340.961 258.121 341.779L243.395 327.946L286.965 301.657Z" fill="#61D243"/>
<path d="M296.419 340.352C295.69 339.124 296.158 337.498 297.466 336.722C298.774 335.945 300.426 336.313 301.155 337.541L304.193 342.659C303.065 344.111 302.042 344.81 299.79 346.032L296.419 340.352Z" fill="#499136"/>
<path d="M286.945 345.976C286.216 344.748 286.685 343.122 287.992 342.346C289.301 341.569 290.952 341.936 291.682 343.165L295.058 348.853L290.322 351.665L286.945 345.976Z" fill="#499136"/>
<path d="M279.757 355.273L277.381 351.269C277.203 349.608 277.5 348.938 278.692 348.084C289.056 339.352 292.671 333.404 297.933 322.222L287.369 304.426C286.906 303.128 286.93 302.457 287.469 301.357L243.062 328.112C243.642 328.026 258.605 342.386 259.174 342.735C262.369 346.617 264.658 348.481 268.636 351.647C272.941 354.802 275.526 355.75 279.757 355.273Z" fill="#5EBE45"/>
<path d="M277.471 351.6C276.742 350.371 277.212 348.745 278.519 347.969C279.828 347.192 281.479 347.559 282.208 348.788L285.378 354.128C283.249 354.853 281.983 355.104 279.667 355.299L277.471 351.6Z" fill="#499136"/>
<path d="M272.788 317.695C308.458 298.469 288.948 226.519 274.597 192.678H215.809H157.473C142.976 226.874 123.264 299.303 159.245 317.702L196.512 333.979L198.504 334.352C209.414 336.402 220.647 336.425 231.567 334.418L234.008 333.969L272.788 317.695Z" fill="#61D243"/>
<path d="M215.935 337.458C250.987 337.458 279.402 305.62 279.402 266.345C279.402 227.071 250.987 195.233 215.935 195.233C180.884 195.233 152.469 227.071 152.469 266.345C152.469 305.62 180.884 337.458 215.935 337.458Z" fill="#ABF47D"/>
<path d="M278.948 276.139C271.792 308.516 262.038 321.9 234.975 334.05L273.292 317.955C280.827 313.577 283.169 309.461 287.08 302.59L287.109 302.54C292.627 289.481 293.984 280.503 292.549 260.81C290.67 272.185 288.278 276.461 278.948 276.139Z" fill="#5EBE45"/>
<path d="M153.002 276.139C160.159 308.516 169.913 321.9 196.977 334.05L158.895 317.443C151.342 313.055 148.769 309.441 144.841 302.54C139.322 289.481 137.965 280.503 139.401 260.81C141.279 272.185 143.671 276.461 153.002 276.139Z" fill="#5EBE45"/>
<path d="M267.615 291.469C268.617 291.469 269.428 290.706 269.428 289.765C269.428 288.825 268.617 288.062 267.615 288.062C266.614 288.062 265.802 288.825 265.802 289.765C265.802 290.706 266.614 291.469 267.615 291.469Z" fill="#9EE075"/>
<path d="M161.535 291.469C162.537 291.469 163.349 290.706 163.349 289.765C163.349 288.825 162.537 288.062 161.535 288.062C160.534 288.062 159.722 288.825 159.722 289.765C159.722 290.706 160.534 291.469 161.535 291.469Z" fill="#9EE075"/>
<path d="M258.548 298.282C259.55 298.282 260.362 297.519 260.362 296.578C260.362 295.638 259.55 294.875 258.548 294.875C257.547 294.875 256.735 295.638 256.735 296.578C256.735 297.519 257.547 298.282 258.548 298.282Z" fill="#9EE075"/>
<path d="M169.696 298.282C170.697 298.282 171.509 297.519 171.509 296.578C171.509 295.638 170.697 294.875 169.696 294.875C168.694 294.875 167.882 295.638 167.882 296.578C167.882 297.519 168.694 298.282 169.696 298.282Z" fill="#9EE075"/>
<path d="M256.735 289.765C257.736 289.765 258.548 289.002 258.548 288.062C258.548 287.121 257.736 286.358 256.735 286.358C255.733 286.358 254.921 287.121 254.921 288.062C254.921 289.002 255.733 289.765 256.735 289.765Z" fill="#9EE075"/>
<path d="M169.696 290.618C170.697 290.618 171.509 289.855 171.509 288.914C171.509 287.974 170.697 287.211 169.696 287.211C168.694 287.211 167.882 287.974 167.882 288.914C167.882 289.855 168.694 290.618 169.696 290.618Z" fill="#9EE075"/>
<path d="M272.602 298.281C263.082 317.869 249.935 335.328 215.252 337.457C186.922 336.18 169.242 319.146 159.269 298.281C204.19 333.032 228.147 332.739 272.602 298.281Z" fill="#9EE075"/>
<path d="M153.57 186.031H165.094C158.29 201.2 146.202 220.214 142.366 245.855C132.741 247.582 124.701 238.439 128.268 229.333C135.504 210.862 142.533 200.304 153.57 186.031Z" fill="#417932"/>
<path d="M276.497 186.363H265.156C271.852 201.34 283.748 220.111 287.523 245.427C296.996 247.132 304.916 238.138 301.417 229.171C294.289 210.899 287.369 200.469 276.497 186.363Z" fill="#417932"/>
<g filter="url(#filter0_d_2021_1189)">
<path fill-rule="evenodd" clip-rule="evenodd" d="M135.602 133.015C135.602 135.517 136.168 137.931 137.219 140.203C129.866 145.498 125.669 151.943 125.669 159.427C125.669 180.943 165.693 202.347 215.067 202.347C264.439 202.347 302.476 182.264 302.476 160.748C303.118 153.294 299.387 146.732 292.383 141.263C293.773 138.686 294.53 135.909 294.53 133.015C294.53 119.521 278.076 108.583 257.778 108.583C242.69 108.583 229.724 114.628 224.063 123.273C221.104 123.165 218.103 123.11 215.067 123.11C212.026 123.11 209.021 123.16 206.06 123.259C200.394 114.621 187.435 108.583 172.354 108.583C152.056 108.583 135.602 119.521 135.602 133.015Z" fill="#61D243"/>
</g>
<g filter="url(#filter1_d_2021_1189)">
<path d="M279.089 155.466C257.166 157.928 236.317 160.249 214.637 155.466C195.706 158.495 163.776 158.224 151.938 155.466C153.584 217.068 275.163 220.003 279.758 158.47C279.832 157.483 279.758 156.45 279.089 155.466Z" fill="#ABF47D"/>
</g>
<path d="M142.31 111.736C146.021 100.817 150.757 97.6222 165.521 91.4641C166.028 91.2527 166.681 91.2607 167.18 91.481L167.514 91.6285C185.859 99.7326 191.698 102.312 191.325 108.126C191.32 108.208 191.143 108.226 191.06 108.166C179.035 99.5078 157.975 101.57 145.454 109.886C144.531 110.499 143.577 111.15 142.578 111.841C142.465 111.919 142.274 111.844 142.31 111.736Z" fill="#333333"/>
<path d="M286.782 111.736C283.27 100.817 278.787 97.6222 264.814 91.4641C264.335 91.2527 263.716 91.2607 263.244 91.481L262.928 91.6285C245.566 99.7326 240.04 102.312 240.393 108.126C240.398 108.208 240.565 108.226 240.643 108.166C252.024 99.5078 271.957 101.57 283.807 109.886C284.68 110.499 285.583 111.15 286.529 111.841C286.635 111.919 286.816 111.844 286.782 111.736Z" fill="#333333"/>
<path d="M144.933 152.176C151.376 155.489 156.818 157.299 167.025 157.923L155.818 172.072C144.442 164.641 141.233 160.325 144.933 152.176Z" fill="#ABF47D"/>
<path d="M286.581 152.463C279.944 155.894 274.34 157.769 263.827 158.416L275.37 173.069C287.087 165.372 290.392 160.903 286.581 152.463Z" fill="#ABF47D"/>
<path d="M286.773 152.199C277.668 157.217 264.142 157.948 251.499 157.947C240.589 157.947 231.147 157.383 218.8 156.002C216.076 155.698 213.275 155.65 210.528 155.878C194.422 157.211 185.113 158.057 167.012 157.947C156.805 157.322 151.363 155.512 144.92 152.199" stroke="#499036" stroke-width="5" stroke-linecap="round"/>
<path d="M141.879 172.545C147.758 175.939 154.358 175.513 156.621 171.594C158.883 167.675 155.952 161.746 150.073 158.352C144.195 154.958 137.595 155.383 135.332 159.303C133.07 163.222 136.001 169.151 141.879 172.545Z" fill="#EB8884"/>
<path d="M286.653 173.134C292.531 169.74 295.463 163.811 293.2 159.892C290.937 155.973 284.338 155.547 278.459 158.941C272.58 162.335 269.649 168.264 271.912 172.183C274.174 176.103 280.774 176.528 286.653 173.134Z" fill="#EB8884"/>
<path d="M154.803 190.913C146.8 182.527 141.117 174.367 142.019 169.73C143.177 163.774 152.784 163.529 158.562 165.378C162.837 166.746 167.382 169.831 171.196 173.501C174.491 176.672 176.435 180.966 177.11 185.489C179.327 200.338 175.758 209.51 167.037 223.852C158.046 237.421 152.901 243.106 143.337 246.021C142.114 246.481 139.533 246.355 136.103 245.824C122.41 243.707 123.868 226.722 137.589 224.795C141.816 224.202 145.534 221.646 147.52 217.867C154.575 204.438 156.799 197.84 155.585 192.321C155.467 191.787 155.18 191.308 154.803 190.913Z" fill="#499136"/>
<path d="M275.147 191.082C282.942 182.883 288.503 174.905 287.764 170.295C286.8 164.288 277.061 163.983 271.284 165.891C267.136 167.261 262.742 170.259 259.04 173.822C255.753 176.987 253.818 181.275 253.15 185.789C250.985 200.433 254.505 209.496 263.085 223.656C271.945 237.072 277.014 242.693 286.438 245.575C287.648 246.032 290.205 245.904 293.602 245.375C307.119 243.27 305.674 226.501 292.129 224.593C287.947 224.003 284.271 221.471 282.313 217.73C275.367 204.464 273.176 197.943 274.368 192.488C274.485 191.956 274.771 191.477 275.147 191.082Z" fill="#499136"/>
<path d="M265.877 364.174C267.131 364.174 268.147 365.19 268.147 366.444C268.147 367.698 267.131 368.715 265.877 368.715L163.123 368.713C161.87 368.713 160.853 367.696 160.853 366.442C160.853 365.188 161.87 364.172 163.123 364.172L265.877 364.174Z" fill="#F0F0F0"/>
<path d="M282.438 127.605C282.438 140.816 262.727 151.509 261.888 151.951C261.667 152.069 261.419 152.131 261.168 152.131C260.917 152.131 260.67 152.069 260.448 151.951C259.609 151.509 239.899 140.816 239.899 127.605C239.902 124.503 241.144 121.529 243.351 119.335C245.558 117.142 248.551 115.908 251.673 115.904C255.595 115.904 259.028 117.58 261.168 120.413C263.308 117.58 266.742 115.904 270.663 115.904C273.785 115.908 276.778 117.142 278.985 119.335C281.192 121.529 282.434 124.503 282.438 127.605Z" fill="#E6322B"/>
<path d="M335.591 140.056C334.637 143.186 329.151 144.284 328.919 144.328C328.858 144.34 328.794 144.336 328.734 144.318C328.674 144.3 328.619 144.267 328.575 144.223C328.406 144.057 324.464 140.087 325.418 136.957C325.642 136.222 326.154 135.608 326.84 135.249C327.526 134.89 328.331 134.815 329.078 135.042C330.016 135.328 330.716 135.975 331.023 136.802C331.74 136.287 332.682 136.14 333.62 136.426C334.366 136.654 334.993 137.164 335.362 137.845C335.732 138.525 335.814 139.321 335.591 140.056Z" fill="#E6322B"/>
<path d="M93.2752 138.215C94.3938 142.39 89.0124 147.454 88.7821 147.665C88.7215 147.721 88.6479 147.762 88.5678 147.784C88.4876 147.805 88.4035 147.807 88.3229 147.788C88.0178 147.72 80.8255 146.025 79.7069 141.85C79.4453 140.87 79.5895 139.824 80.1078 138.942C80.6261 138.06 81.4762 137.414 82.4716 137.146C83.7224 136.811 84.9595 137.047 85.882 137.76C86.3248 136.681 87.278 135.858 88.5289 135.523C89.5248 135.258 90.5839 135.392 91.4737 135.896C92.3635 136.401 93.0114 137.235 93.2752 138.215Z" fill="#AE1F19"/>
<path d="M112.088 188.429C112.813 191.137 109.323 194.422 109.173 194.559C109.134 194.595 109.086 194.622 109.034 194.636C108.982 194.65 108.928 194.651 108.875 194.639C108.677 194.595 104.012 193.495 103.287 190.787C103.117 190.151 103.211 189.473 103.547 188.901C103.883 188.329 104.434 187.91 105.08 187.736C105.891 187.519 106.694 187.672 107.292 188.134C107.579 187.434 108.198 186.901 109.009 186.683C109.655 186.511 110.342 186.598 110.919 186.925C111.496 187.253 111.916 187.793 112.088 188.429Z" fill="#E6322B"/>
<path d="M108.952 249.118C109.437 250.927 107.105 253.121 107.006 253.212C106.979 253.237 106.947 253.254 106.913 253.264C106.878 253.273 106.841 253.274 106.807 253.266C106.674 253.236 103.558 252.502 103.073 250.693C102.96 250.268 103.022 249.815 103.247 249.433C103.472 249.05 103.84 248.771 104.271 248.655C104.813 248.509 105.349 248.612 105.749 248.921C105.941 248.453 106.354 248.097 106.896 247.951C107.327 247.836 107.786 247.894 108.172 248.113C108.557 248.332 108.838 248.693 108.952 249.118Z" fill="#EB8884"/>
<path d="M315.645 194.141C315.472 197.409 310.411 199.793 310.196 199.892C310.139 199.918 310.077 199.93 310.014 199.926C309.951 199.923 309.89 199.904 309.837 199.873C309.633 199.752 304.852 196.847 305.025 193.579C305.067 192.811 305.416 192.092 305.995 191.579C306.575 191.065 307.338 190.8 308.118 190.84C309.097 190.892 309.932 191.352 310.429 192.081C311.001 191.408 311.88 191.039 312.859 191.091C313.638 191.133 314.369 191.478 314.891 192.05C315.414 192.622 315.685 193.374 315.645 194.141Z" fill="#E86A90"/>
<path d="M191.378 127.605C191.378 140.816 171.667 151.509 170.828 151.951C170.607 152.069 170.36 152.131 170.108 152.131C169.857 152.131 169.61 152.069 169.389 151.951C168.549 151.509 148.839 140.816 148.839 127.605C148.843 124.503 150.084 121.529 152.291 119.335C154.499 117.142 157.492 115.908 160.613 115.904C164.535 115.904 167.968 117.58 170.108 120.413C172.249 117.58 175.682 115.904 179.603 115.904C182.725 115.908 185.718 117.142 187.925 119.335C190.133 121.529 191.374 124.503 191.378 127.605Z" fill="#E6322B"/>
<path d="M346.6 214.682C347.043 213.824 348.326 214.034 348.472 214.988L348.575 215.666C348.641 216.093 348.973 216.429 349.399 216.499L350.076 216.61C351.029 216.766 351.225 218.051 350.362 218.485L349.75 218.793C349.364 218.987 349.147 219.407 349.212 219.834L349.316 220.511C349.461 221.466 348.3 222.05 347.621 221.363L347.139 220.876C346.836 220.569 346.369 220.492 345.983 220.686L345.371 220.994C344.508 221.428 343.594 220.504 344.037 219.645L344.351 219.037C344.55 218.653 344.478 218.185 344.174 217.878L343.692 217.391C343.013 216.704 343.61 215.55 344.563 215.706L345.239 215.817C345.665 215.887 346.088 215.674 346.286 215.291L346.6 214.682Z" fill="#AE1F19"/>
<path d="M120.945 100.02C121.388 99.1614 122.67 99.3717 122.816 100.327L122.92 101.004C122.985 101.431 123.318 101.767 123.744 101.837L124.42 101.948C125.373 102.104 125.569 103.389 124.707 103.823L124.094 104.13C123.709 104.324 123.491 104.745 123.557 105.172L123.66 105.849C123.806 106.804 122.645 107.388 121.965 106.701L121.484 106.214C121.18 105.907 120.713 105.83 120.327 106.024L119.715 106.332C118.852 106.766 117.938 105.842 118.382 104.983L118.696 104.375C118.894 103.991 118.823 103.523 118.519 103.216L118.037 102.729C117.358 102.042 117.954 100.888 118.907 101.044L119.583 101.155C120.01 101.225 120.432 101.012 120.63 100.628L120.945 100.02Z" fill="#E86A90"/>
</g>
<defs>
<filter id="filter0_d_2021_1189" x="115.669" y="100.583" width="196.878" height="113.765" filterUnits="userSpaceOnUse" color-interpolation-filters="sRGB">
<feFlood flood-opacity="0" result="BackgroundImageFix"/>
<feColorMatrix in="SourceAlpha" type="matrix" values="0 0 0 0 0 0 0 0 0 0 0 0 0 0 0 0 0 0 127 0" result="hardAlpha"/>
<feOffset dy="2"/>
<feGaussianBlur stdDeviation="5"/>
<feComposite in2="hardAlpha" operator="out"/>
<feColorMatrix type="matrix" values="0 0 0 0 0 0 0 0 0 0 0 0 0 0 0 0 0 0 0.05 0"/>
<feBlend mode="normal" in2="BackgroundImageFix" result="effect1_dropShadow_2021_1189"/>
<feBlend mode="normal" in="SourceGraphic" in2="effect1_dropShadow_2021_1189" result="shape"/>
</filter>
<filter id="filter1_d_2021_1189" x="141.938" y="147.466" width="147.843" height="67.7041" filterUnits="userSpaceOnUse" color-interpolation-filters="sRGB">
<feFlood flood-opacity="0" result="BackgroundImageFix"/>
<feColorMatrix in="SourceAlpha" type="matrix" values="0 0 0 0 0 0 0 0 0 0 0 0 0 0 0 0 0 0 127 0" result="hardAlpha"/>
<feOffset dy="2"/>
<feGaussianBlur stdDeviation="5"/>
<feComposite in2="hardAlpha" operator="out"/>
<feColorMatrix type="matrix" values="0 0 0 0 0 0 0 0 0 0 0 0 0 0 0 0 0 0 0.05 0"/>
<feBlend mode="normal" in2="BackgroundImageFix" result="effect1_dropShadow_2021_1189"/>
<feBlend mode="normal" in="SourceGraphic" in2="effect1_dropShadow_2021_1189" result="shape"/>
</filter>
<clipPath id="clip0_2021_1189">
<rect width="275.506" height="277.514" fill="white" transform="translate(78.7161 91.3105)"/>
</clipPath>
</defs>
</svg>
