<svg width="550" height="550" viewBox="0 0 550 550" fill="none" xmlns="http://www.w3.org/2000/svg">
<circle cx="275" cy="275" r="275" fill="#C6F0AC" fill-opacity="0.75"/>
<g clip-path="url(#clip0_3396_2046)">
<path d="M194.473 397.196C195.346 397.642 195.926 398.499 195.926 399.433V444.102C195.926 449.559 200.635 453.984 206.445 453.984L224.876 453.984C233.423 453.984 241.939 450.253 244.925 442.731C247.059 437.358 248.137 431.604 248.838 424.553C248.985 423.078 250.451 422.031 251.997 422.322L262.194 409.1L194.473 397.196Z" fill="#61D243"/>
<path d="M209.236 445.599C209.236 443.785 207.669 442.312 205.738 442.312C203.805 442.312 202.239 443.785 202.239 445.599V453.161C204.413 454.016 205.984 454.116 209.236 453.99V445.599Z" fill="#499136"/>
<path d="M223.231 445.599C223.231 443.785 221.665 442.312 219.733 442.312C217.8 442.312 216.234 443.785 216.234 445.599V454.003H223.231V445.599Z" fill="#499136"/>
<path d="M237.111 451.095V445.18C236.228 443.25 235.469 442.711 233.614 442.55C216.63 439.733 208.824 435.579 195.826 426.776V400.483C195.491 398.765 195.029 398.047 193.728 397.196L264.441 409.199C263.752 409.482 251.504 423.395 251.108 424.146C250.135 430.459 249.202 433.883 246.909 439.922C244.252 446.159 242.042 448.872 237.111 451.095Z" fill="#5EBE45"/>
<path d="M237.227 445.599C237.227 443.785 235.66 442.312 233.728 442.312C231.795 442.312 230.229 443.785 230.229 445.599V453.489C233.024 452.9 234.571 452.354 237.227 451.065V445.599Z" fill="#499136"/>
<path d="M364.557 383.222C364.034 384.051 363.973 385.084 364.449 385.887L387.248 424.298C390.034 428.99 388.242 435.199 383.246 438.165L367.396 447.573C360.047 451.937 350.819 453.076 344.412 448.132C339.835 444.601 335.971 440.204 331.769 434.497C330.89 433.304 329.095 433.153 327.914 434.192L309.206 416.619L364.557 383.222Z" fill="#61D243"/>
<path d="M376.567 432.379C375.641 430.819 376.236 428.754 377.897 427.767C379.56 426.781 381.658 427.248 382.584 428.808L386.443 435.31C385.01 437.155 383.71 438.043 380.85 439.595L376.567 432.379Z" fill="#499136"/>
<path d="M364.532 439.524C363.606 437.963 364.202 435.898 365.863 434.912C367.525 433.925 369.623 434.392 370.549 435.952L374.838 443.179L368.822 446.751L364.532 439.524Z" fill="#499136"/>
<path d="M355.401 451.335L352.382 446.248C352.156 444.137 352.534 443.287 354.047 442.202C367.214 431.109 371.807 423.553 378.491 409.348L365.071 386.739C364.483 385.09 364.513 384.237 365.198 382.841L308.784 416.829C309.521 416.721 328.529 434.963 329.252 435.407C333.311 440.339 336.218 442.706 341.273 446.729C346.742 450.736 350.026 451.94 355.401 451.335Z" fill="#5EBE45"/>
<path d="M352.496 446.668C351.57 445.108 352.167 443.041 353.828 442.056C355.49 441.069 357.588 441.535 358.514 443.096L362.541 449.88C359.837 450.801 358.228 451.121 355.286 451.368L352.496 446.668Z" fill="#499136"/>
<path d="M346.546 403.597C391.862 379.172 367.076 287.768 348.845 244.776H274.161H200.052C181.635 288.22 156.593 380.232 202.303 403.606L249.647 424.283L252.177 424.758C266.037 427.362 280.308 427.391 294.181 424.841L297.281 424.271L346.546 403.597Z" fill="#61D243"/>
<path d="M274.322 428.702C318.851 428.702 354.949 388.256 354.949 338.362C354.949 288.469 318.851 248.022 274.322 248.022C229.793 248.022 193.695 288.469 193.695 338.362C193.695 388.256 229.793 428.702 274.322 428.702Z" fill="#ABF47D"/>
<path d="M354.373 350.804C345.281 391.935 332.89 408.939 298.51 424.374L347.187 403.927C356.759 398.365 359.735 393.137 364.703 384.407L364.74 384.344C371.75 367.754 373.474 356.348 371.65 331.33C369.264 345.781 366.225 351.214 354.373 350.804Z" fill="#5EBE45"/>
<path d="M194.372 350.804C203.464 391.935 215.856 408.939 250.238 424.374L201.859 403.277C192.263 397.702 188.995 393.111 184.005 384.344C176.994 367.754 175.27 356.348 177.094 331.33C179.48 345.781 182.519 351.214 194.372 350.804Z" fill="#5EBE45"/>
<path d="M339.975 370.278C341.247 370.278 342.278 369.31 342.278 368.115C342.278 366.92 341.247 365.951 339.975 365.951C338.703 365.951 337.671 366.92 337.671 368.115C337.671 369.31 338.703 370.278 339.975 370.278Z" fill="#9EE075"/>
<path d="M205.213 370.278C206.485 370.278 207.517 369.31 207.517 368.115C207.517 366.92 206.485 365.951 205.213 365.951C203.941 365.951 202.909 366.92 202.909 368.115C202.909 369.31 203.941 370.278 205.213 370.278Z" fill="#9EE075"/>
<path d="M328.457 378.933C329.729 378.933 330.761 377.965 330.761 376.769C330.761 375.574 329.729 374.605 328.457 374.605C327.185 374.605 326.153 375.574 326.153 376.769C326.153 377.965 327.185 378.933 328.457 378.933Z" fill="#9EE075"/>
<path d="M215.579 378.933C216.851 378.933 217.883 377.965 217.883 376.769C217.883 375.574 216.851 374.605 215.579 374.605C214.307 374.605 213.275 375.574 213.275 376.769C213.275 377.965 214.307 378.933 215.579 378.933Z" fill="#9EE075"/>
<path d="M326.153 368.115C327.425 368.115 328.457 367.146 328.457 365.951C328.457 364.756 327.425 363.787 326.153 363.787C324.881 363.787 323.849 364.756 323.849 365.951C323.849 367.146 324.881 368.115 326.153 368.115Z" fill="#9EE075"/>
<path d="M215.579 369.197C216.851 369.197 217.883 368.228 217.883 367.033C217.883 365.838 216.851 364.869 215.579 364.869C214.307 364.869 213.275 365.838 213.275 367.033C213.275 368.228 214.307 369.197 215.579 369.197Z" fill="#9EE075"/>
<path d="M346.311 378.934C334.217 403.818 317.515 425.997 273.454 428.702C237.464 427.079 215.004 405.44 202.333 378.934C259.4 423.08 289.836 422.708 346.311 378.934Z" fill="#9EE075"/>
<path d="M195.093 236.332H209.734C201.09 255.603 185.733 279.757 180.86 312.331C168.632 314.525 158.419 302.91 162.95 291.343C172.143 267.876 181.072 254.464 195.093 236.332Z" fill="#417932"/>
<path d="M351.259 236.754H336.852C345.358 255.78 360.47 279.627 365.266 311.787C377.3 313.954 387.361 302.529 382.917 291.136C373.861 267.924 365.071 254.674 351.259 236.754Z" fill="#417932"/>
<g filter="url(#filter0_d_3396_2046)">
<path fill-rule="evenodd" clip-rule="evenodd" d="M172.267 168.98C172.267 172.159 172.986 175.225 174.321 178.113C164.981 184.839 159.648 193.027 159.648 202.535C159.648 229.868 210.495 257.06 273.218 257.06C335.94 257.06 384.263 231.546 384.263 204.212C385.078 194.742 380.338 186.407 371.44 179.459C373.205 176.185 374.168 172.657 374.168 168.98C374.168 151.838 353.264 137.942 327.478 137.942C308.31 137.942 291.839 145.622 284.647 156.605C280.889 156.467 277.076 156.397 273.218 156.397C269.355 156.397 265.538 156.461 261.776 156.587C254.579 145.613 238.116 137.942 218.957 137.942C193.171 137.942 172.267 151.838 172.267 168.98Z" fill="#61D243"/>
</g>
<g filter="url(#filter1_d_3396_2046)">
<path d="M354.551 197.502C326.701 200.63 300.215 203.578 272.672 197.502C248.622 201.35 208.059 201.006 193.02 197.502C195.112 275.761 349.564 279.489 355.401 201.318C355.495 200.064 355.401 198.752 354.551 197.502Z" fill="#ABF47D"/>
</g>
<path d="M180.789 141.949C185.504 128.077 191.52 124.018 210.276 116.195C210.92 115.927 211.75 115.937 212.383 116.217L212.807 116.404C236.113 126.699 243.531 129.976 243.057 137.362C243.05 137.467 242.826 137.489 242.721 137.413C227.445 126.414 200.689 129.034 184.783 139.598C183.61 140.377 182.398 141.204 181.129 142.082C180.986 142.18 180.743 142.085 180.789 141.949Z" fill="#333333"/>
<path d="M364.325 141.949C359.862 128.077 354.168 124.018 336.417 116.195C335.808 115.927 335.022 115.937 334.423 116.217L334.021 116.404C311.964 126.699 304.944 129.976 305.392 137.362C305.398 137.467 305.611 137.489 305.71 137.413C320.169 126.414 345.49 129.034 360.545 139.598C361.655 140.377 362.802 141.204 364.003 142.082C364.138 142.18 364.368 142.085 364.325 141.949Z" fill="#333333"/>
<path d="M184.121 193.322C192.307 197.531 199.219 199.831 212.187 200.624L197.949 218.599C183.497 209.158 179.42 203.675 184.121 193.322Z" fill="#ABF47D"/>
<path d="M364.069 193.688C355.638 198.047 348.518 200.428 335.163 201.25L349.827 219.865C364.712 210.088 368.91 204.409 364.069 193.688Z" fill="#ABF47D"/>
<path d="M364.314 193.353C352.746 199.727 335.563 200.655 319.502 200.654C305.641 200.654 293.647 199.937 277.961 198.184C274.5 197.797 270.942 197.737 267.452 198.026C246.991 199.72 235.166 200.794 212.17 200.654C199.203 199.861 192.291 197.562 184.105 193.353" stroke="#499036" stroke-width="5" stroke-linecap="round"/>
<path d="M180.242 219.199C187.71 223.511 196.095 222.971 198.969 217.992C201.844 213.013 198.12 205.481 190.652 201.169C183.184 196.857 174.799 197.398 171.925 202.377C169.05 207.356 172.774 214.887 180.242 219.199Z" fill="#EB8884"/>
<path d="M364.161 219.948C371.629 215.636 375.353 208.104 372.478 203.125C369.604 198.146 361.219 197.605 353.751 201.917C346.283 206.229 342.559 213.761 345.434 218.74C348.308 223.719 356.693 224.26 364.161 219.948Z" fill="#EB8884"/>
<path d="M196.66 242.534C186.494 231.881 179.273 221.514 180.419 215.623C181.891 208.057 194.095 207.745 201.436 210.095C206.866 211.833 212.64 215.751 217.485 220.414C221.671 224.442 224.141 229.897 224.999 235.643C227.815 254.507 223.281 266.159 212.202 284.379C200.78 301.617 194.244 308.839 182.094 312.542C180.54 313.127 177.261 312.966 172.904 312.293C155.509 309.604 157.361 288.025 174.791 285.578C180.162 284.824 184.885 281.577 187.407 276.776C196.37 259.716 199.196 251.334 197.653 244.322C197.504 243.645 197.139 243.036 196.66 242.534Z" fill="#499136"/>
<path d="M349.543 242.748C359.446 232.333 366.511 222.197 365.572 216.341C364.348 208.71 351.975 208.322 344.636 210.746C339.366 212.486 333.784 216.295 329.082 220.822C324.905 224.842 322.447 230.29 321.599 236.025C318.849 254.628 323.32 266.141 334.221 284.13C345.475 301.173 351.915 308.314 363.888 311.975C365.424 312.556 368.673 312.393 372.989 311.721C390.16 309.048 388.325 287.744 371.117 285.32C365.804 284.571 361.135 281.355 358.647 276.602C349.823 259.749 347.04 251.464 348.554 244.535C348.702 243.858 349.066 243.25 349.543 242.748Z" fill="#499136"/>
<path d="M337.767 462.642C339.36 462.642 340.651 463.934 340.651 465.527C340.651 467.12 339.36 468.411 337.767 468.411L207.23 468.408C205.637 468.408 204.346 467.117 204.346 465.524C204.346 463.931 205.637 462.64 207.23 462.64L337.767 462.642Z" fill="#F0F0F0"/>
<path d="M358.806 162.109C358.806 178.891 333.766 192.476 332.7 193.037C332.418 193.187 332.104 193.266 331.785 193.266C331.466 193.266 331.152 193.187 330.871 193.037C329.805 192.476 304.765 178.891 304.765 162.109C304.769 158.168 306.347 154.39 309.15 151.603C311.955 148.816 315.757 147.249 319.723 147.244C324.705 147.244 329.066 149.373 331.785 152.972C334.504 149.373 338.866 147.244 343.848 147.244C347.813 147.249 351.616 148.816 354.42 151.603C357.224 154.39 358.801 158.168 358.806 162.109Z" fill="#E6322B"/>
<path d="M426.331 177.925C425.12 181.902 418.15 183.296 417.855 183.352C417.777 183.367 417.696 183.363 417.62 183.339C417.544 183.316 417.474 183.274 417.418 183.219C417.203 183.008 412.195 177.965 413.407 173.988C413.692 173.054 414.343 172.274 415.214 171.818C416.086 171.362 417.108 171.267 418.057 171.555C419.249 171.918 420.138 172.74 420.528 173.791C421.438 173.137 422.635 172.95 423.827 173.313C424.775 173.603 425.571 174.252 426.04 175.116C426.51 175.981 426.614 176.991 426.331 177.925Z" fill="#E6322B"/>
<path d="M118.496 175.586C119.917 180.89 113.08 187.323 112.788 187.591C112.711 187.663 112.617 187.715 112.515 187.742C112.414 187.769 112.307 187.771 112.204 187.748C111.817 187.662 102.68 185.509 101.259 180.205C100.926 178.959 101.11 177.63 101.768 176.51C102.426 175.389 103.506 174.569 104.771 174.229C106.36 173.803 107.932 174.103 109.104 175.008C109.666 173.638 110.877 172.593 112.466 172.167C113.731 171.829 115.077 171.999 116.207 172.64C117.338 173.282 118.161 174.341 118.496 175.586Z" fill="#AE1F19"/>
<path d="M142.395 239.379C143.316 242.819 138.882 246.991 138.692 247.166C138.642 247.212 138.582 247.246 138.516 247.263C138.45 247.281 138.38 247.282 138.314 247.267C138.063 247.211 132.136 245.815 131.214 242.374C130.999 241.566 131.118 240.705 131.545 239.978C131.972 239.251 132.672 238.719 133.493 238.498C134.523 238.222 135.543 238.417 136.303 239.003C136.668 238.115 137.453 237.437 138.484 237.161C139.304 236.942 140.177 237.052 140.91 237.468C141.643 237.884 142.177 238.571 142.395 239.379Z" fill="#E6322B"/>
<path d="M138.412 316.477C139.028 318.775 136.065 321.562 135.939 321.679C135.905 321.71 135.865 321.732 135.821 321.744C135.777 321.756 135.73 321.757 135.686 321.747C135.518 321.709 131.559 320.776 130.943 318.478C130.799 317.938 130.879 317.363 131.164 316.877C131.449 316.392 131.917 316.036 132.465 315.889C133.154 315.704 133.835 315.834 134.342 316.227C134.586 315.633 135.111 315.18 135.799 314.995C136.347 314.849 136.93 314.923 137.42 315.201C137.91 315.478 138.267 315.937 138.412 316.477Z" fill="#EB8884"/>
<path d="M400.992 246.634C400.772 250.786 394.343 253.815 394.069 253.94C393.998 253.973 393.918 253.988 393.839 253.984C393.759 253.98 393.681 253.956 393.613 253.916C393.354 253.762 387.281 250.071 387.501 245.92C387.554 244.945 387.997 244.032 388.733 243.379C389.47 242.727 390.439 242.39 391.429 242.441C392.673 242.506 393.735 243.091 394.366 244.017C395.092 243.163 396.209 242.694 397.453 242.76C398.443 242.813 399.371 243.251 400.035 243.977C400.698 244.704 401.042 245.66 400.992 246.634Z" fill="#E86A90"/>
<path d="M243.124 162.109C243.124 178.891 218.084 192.476 217.018 193.037C216.737 193.187 216.423 193.266 216.104 193.266C215.784 193.266 215.47 193.187 215.189 193.037C214.123 192.476 189.083 178.891 189.083 162.109C189.088 158.168 190.665 154.39 193.469 151.603C196.273 148.816 200.075 147.249 204.041 147.244C209.023 147.244 213.385 149.373 216.104 152.972C218.822 149.373 223.184 147.244 228.166 147.244C232.132 147.249 235.934 148.816 238.738 151.603C241.542 154.39 243.119 158.168 243.124 162.109Z" fill="#E6322B"/>
<path d="M440.318 272.729C440.88 271.639 442.51 271.906 442.695 273.119L442.826 273.979C442.909 274.522 443.332 274.949 443.873 275.038L444.732 275.179C445.943 275.377 446.192 277.01 445.096 277.561L444.319 277.951C443.829 278.198 443.552 278.732 443.636 279.274L443.767 280.135C443.952 281.348 442.477 282.089 441.614 281.217L441.002 280.598C440.616 280.208 440.023 280.111 439.533 280.357L438.755 280.748C437.659 281.299 436.498 280.125 437.061 279.035L437.461 278.262C437.712 277.774 437.621 277.18 437.236 276.79L436.623 276.171C435.761 275.299 436.518 273.832 437.729 274.03L438.588 274.171C439.129 274.26 439.667 273.99 439.918 273.503L440.318 272.729Z" fill="#AE1F19"/>
<path d="M153.647 127.064C154.21 125.974 155.839 126.241 156.025 127.454L156.156 128.314C156.239 128.857 156.662 129.284 157.203 129.373L158.062 129.514C159.273 129.712 159.522 131.344 158.426 131.896L157.648 132.286C157.158 132.533 156.882 133.067 156.965 133.609L157.096 134.47C157.282 135.683 155.807 136.424 154.944 135.552L154.332 134.933C153.946 134.543 153.353 134.446 152.862 134.692L152.085 135.083C150.989 135.634 149.828 134.46 150.391 133.37L150.79 132.597C151.042 132.109 150.951 131.515 150.565 131.125L149.953 130.506C149.09 129.634 149.848 128.167 151.059 128.365L151.917 128.506C152.459 128.595 152.996 128.325 153.248 127.837L153.647 127.064Z" fill="#E86A90"/>
</g>
<defs>
<filter id="filter0_d_3396_2046" x="149.648" y="129.942" width="244.705" height="139.117" filterUnits="userSpaceOnUse" color-interpolation-filters="sRGB">
<feFlood flood-opacity="0" result="BackgroundImageFix"/>
<feColorMatrix in="SourceAlpha" type="matrix" values="0 0 0 0 0 0 0 0 0 0 0 0 0 0 0 0 0 0 127 0" result="hardAlpha"/>
<feOffset dy="2"/>
<feGaussianBlur stdDeviation="5"/>
<feComposite in2="hardAlpha" operator="out"/>
<feColorMatrix type="matrix" values="0 0 0 0 0 0 0 0 0 0 0 0 0 0 0 0 0 0 0.05 0"/>
<feBlend mode="normal" in2="BackgroundImageFix" result="effect1_dropShadow_3396_2046"/>
<feBlend mode="normal" in="SourceGraphic" in2="effect1_dropShadow_3396_2046" result="shape"/>
</filter>
<filter id="filter1_d_3396_2046" x="183.02" y="189.502" width="182.411" height="80.6035" filterUnits="userSpaceOnUse" color-interpolation-filters="sRGB">
<feFlood flood-opacity="0" result="BackgroundImageFix"/>
<feColorMatrix in="SourceAlpha" type="matrix" values="0 0 0 0 0 0 0 0 0 0 0 0 0 0 0 0 0 0 127 0" result="hardAlpha"/>
<feOffset dy="2"/>
<feGaussianBlur stdDeviation="5"/>
<feComposite in2="hardAlpha" operator="out"/>
<feColorMatrix type="matrix" values="0 0 0 0 0 0 0 0 0 0 0 0 0 0 0 0 0 0 0.05 0"/>
<feBlend mode="normal" in2="BackgroundImageFix" result="effect1_dropShadow_3396_2046"/>
<feBlend mode="normal" in="SourceGraphic" in2="effect1_dropShadow_3396_2046" result="shape"/>
</filter>
<clipPath id="clip0_3396_2046">
<rect width="350" height="352.551" fill="white" transform="translate(100 116)"/>
</clipPath>
</defs>
</svg>
