<svg width="79" height="79" viewBox="0 0 79 79" fill="none" xmlns="http://www.w3.org/2000/svg">
<path d="M48.2874 2.93676C51.3684 3.90751 54.2253 5.25369 56.8261 6.90855L47.2133 11.9122C46.4833 12.2943 45.7993 12.7586 45.1746 13.296L45.0371 13.2526C40.2764 11.7526 35.1778 11.6981 30.3861 13.0958C25.5944 14.4935 21.3248 17.2807 18.1172 21.1049C14.9096 24.9292 12.908 29.6188 12.3656 34.5806C11.8232 39.5424 12.7643 44.5537 15.07 48.9806C17.3756 53.4076 20.9423 57.0514 25.3188 59.4513C29.6954 61.8512 34.6853 62.8995 39.6576 62.4634C44.6299 62.0274 49.3613 60.1267 53.2534 57.0017C57.1454 53.8767 60.0234 49.6677 61.5234 44.907L61.5667 44.7695C62.3616 44.5663 63.1283 44.2724 63.8669 43.8877L73.4797 38.884C73.3447 41.9638 72.81 45.0763 71.8393 48.1573C65.8555 67.1489 45.6102 77.6931 26.6187 71.7093C7.62716 65.7255 -2.91703 45.4802 3.06678 26.4887C9.05058 7.49714 29.2958 -3.04705 48.2874 2.93676ZM41.4282 19.7398C40.5062 22.6661 39.4268 25.5881 38.664 28.5608L36.2221 29.8326C35.3821 30.2701 34.6365 30.8687 34.0279 31.5943C33.4192 32.32 32.9595 33.1584 32.6749 34.0617C32.3903 34.965 32.2864 35.9156 32.3691 36.859C32.4518 37.8025 32.7196 38.7204 33.1571 39.5604C33.5946 40.4004 34.1932 41.146 34.9189 41.7547C35.6445 42.3633 36.4829 42.823 37.3862 43.1077C38.2895 43.3923 39.2401 43.4962 40.1835 43.4135C41.127 43.3307 42.045 43.063 42.8849 42.6255L45.3269 41.3537C48.1999 42.4328 51.2095 43.2223 54.1392 44.1454C52.8379 47.3276 50.6537 50.0714 47.8443 52.0531C45.0348 54.0348 41.7172 55.1718 38.2828 55.3299C34.8484 55.488 31.4404 54.6606 28.4608 52.9454C25.4811 51.2302 23.0541 48.6987 21.466 45.6494C19.8778 42.6002 19.1948 39.1603 19.4975 35.7356C19.8002 32.3109 21.0759 29.0442 23.1742 26.3207C25.2725 23.5973 28.1059 21.5306 31.3402 20.3646C34.5745 19.1986 38.0747 18.9818 41.4282 19.7398ZM70.5146 10.4201C71.0603 10.8781 71.458 11.4875 71.6576 12.1713C71.8572 12.8552 71.8498 13.5828 71.6362 14.2624L69.6535 20.5551L75.9428 22.5367C76.6227 22.7511 77.2238 23.1623 77.6701 23.7183C78.1164 24.2743 78.3879 24.9501 78.4501 25.6603C78.5124 26.3705 78.3627 27.0833 78.0199 27.7084C77.6771 28.3335 77.1567 28.843 76.5245 29.1725L60.5343 37.489C59.6864 37.9308 58.6977 38.0177 57.7857 37.7305L49.4883 35.1162L41.2209 39.4249C40.3724 39.8669 39.3831 39.9536 38.4706 39.6661C37.5581 39.3786 36.7972 38.7404 36.3553 37.8919C35.9133 37.0434 35.8266 36.054 36.1141 35.1415C36.4016 34.2291 37.0398 33.4682 37.8883 33.0262L46.157 28.7255L48.7724 20.4246C48.9145 19.9724 49.1444 19.5526 49.4489 19.1894C49.7534 18.8261 50.1265 18.5264 50.547 18.3075L66.5325 9.98192C67.165 9.65225 67.881 9.5176 68.59 9.59499C69.2991 9.67238 69.9692 9.95833 70.5157 10.4167" fill="#850014"/>
<path d="M46.9913 2.19477C50.0723 3.16553 52.9292 4.51171 55.53 6.16656L45.9172 11.1703C45.1872 11.5523 44.5032 12.0166 43.8785 12.554L43.741 12.5106C38.9803 11.0107 33.8818 10.9561 29.0901 12.3538C24.2984 13.7515 20.0287 16.5387 16.8211 20.3629C13.6135 24.1872 11.6119 28.8768 11.0695 33.8386C10.5271 38.8004 11.4682 43.8117 13.7739 48.2386C16.0796 52.6656 19.6462 56.3094 24.0227 58.7093C28.3993 61.1092 33.3892 62.1575 38.3615 61.7214C43.3339 61.2854 48.0652 59.3847 51.9573 56.2597C55.8493 53.1347 58.7273 48.9257 60.2273 44.1651L60.2707 44.0275C61.0655 43.8243 61.8322 43.5304 62.5708 43.1457L72.1836 38.142C72.0486 41.2218 71.514 44.3343 70.5432 47.4154C64.5594 66.4069 44.3141 76.9511 25.3226 70.9673C6.33108 64.9835 -4.21311 44.7382 1.7707 25.7467C7.7545 6.75515 27.9998 -3.78904 46.9913 2.19477ZM40.1321 18.9978C39.2101 21.9241 38.1307 24.8461 37.3679 27.8188L34.926 29.0906C34.086 29.5281 33.3404 30.1267 32.7318 30.8524C32.1232 31.578 31.6634 32.4164 31.3788 33.3197C31.0942 34.223 30.9903 35.1736 31.073 36.117C31.1558 37.0605 31.4235 37.9785 31.861 38.8184C32.2985 39.6584 32.8971 40.404 33.6228 41.0127C34.3484 41.6213 35.1868 42.0811 36.0901 42.3657C36.9935 42.6503 37.944 42.7542 38.8875 42.6715C39.8309 42.5887 40.7489 42.321 41.5889 41.8835L44.0308 40.6117C46.9038 41.6908 49.9134 42.4803 52.8431 43.4034C51.5418 46.5856 49.3577 49.3294 46.5482 51.3111C43.7387 53.2928 40.4211 54.4298 36.9867 54.5879C33.5523 54.746 30.1443 53.9186 27.1647 52.2034C24.185 50.4882 21.758 47.9567 20.1699 44.9074C18.5818 41.8582 17.8988 38.4183 18.2014 34.9936C18.5041 31.5689 19.7798 28.3022 21.8781 25.5787C23.9764 22.8553 26.8098 20.7887 30.0441 19.6226C33.2784 18.4566 36.7787 18.2398 40.1321 18.9978ZM69.2185 9.67813C69.7642 10.1361 70.1619 10.7455 70.3615 11.4293C70.5612 12.1132 70.5537 12.8408 70.3401 13.5205L68.3575 19.8131L74.6467 21.7947C75.3266 22.0091 75.9278 22.4203 76.3741 22.9763C76.8203 23.5323 77.0918 24.2081 77.154 24.9183C77.2163 25.6285 77.0666 26.3413 76.7238 26.9664C76.3811 27.5916 75.8607 28.101 75.2284 28.4305L59.2382 36.747C58.3903 37.1888 57.4016 37.2757 56.4896 36.9886L48.1922 34.3742L39.9248 38.683C39.0763 39.1249 38.087 39.2116 37.1745 38.9241C36.262 38.6366 35.5011 37.9984 35.0592 37.1499C34.6172 36.3014 34.5305 35.312 34.818 34.3996C35.1055 33.4871 35.7437 32.7262 36.5922 32.2842L44.8609 27.9835L47.4763 19.6826C47.6184 19.2304 47.8483 18.8106 48.1528 18.4474C48.4573 18.0841 48.8305 17.7844 49.2509 17.5655L65.2364 9.23993C65.8689 8.91026 66.5849 8.77561 67.294 8.853C68.003 8.93039 68.6731 9.21634 69.2196 9.67469" fill="#DE0530"/>
</svg>
