<svg width="26" height="26" viewBox="0 0 26 26" fill="none" xmlns="http://www.w3.org/2000/svg">
<path d="M12.9858 10.8281C14.3119 10.8281 15.5837 10.3013 16.5214 9.36366C17.4591 8.42598 17.9858 7.15421 17.9858 5.82812C17.9858 4.50204 17.4591 3.23027 16.5214 2.29259C15.5837 1.35491 14.3119 0.828125 12.9858 0.828125C11.6598 0.828125 10.388 1.35491 9.4503 2.29259C8.51262 3.23027 7.98584 4.50204 7.98584 5.82812C7.98584 7.15421 8.51262 8.42598 9.4503 9.36366C10.388 10.3013 11.6598 10.8281 12.9858 10.8281ZM4.86084 14.5781C5.68964 14.5781 6.4845 14.2489 7.07055 13.6628C7.6566 13.0768 7.98584 12.2819 7.98584 11.4531C7.98584 10.6243 7.6566 9.82947 7.07055 9.24342C6.4845 8.65737 5.68964 8.32813 4.86084 8.32813C4.03204 8.32813 3.23718 8.65737 2.65113 9.24342C2.06508 9.82947 1.73584 10.6243 1.73584 11.4531C1.73584 12.2819 2.06508 13.0768 2.65113 13.6628C3.23718 14.2489 4.03204 14.5781 4.86084 14.5781ZM24.2358 11.4531C24.2358 12.2819 23.9066 13.0768 23.3205 13.6628C22.7345 14.2489 21.9396 14.5781 21.1108 14.5781C20.282 14.5781 19.4872 14.2489 18.9011 13.6628C18.3151 13.0768 17.9858 12.2819 17.9858 11.4531C17.9858 10.6243 18.3151 9.82947 18.9011 9.24342C19.4872 8.65737 20.282 8.32813 21.1108 8.32813C21.9396 8.32813 22.7345 8.65737 23.3205 9.24342C23.9066 9.82947 24.2358 10.6243 24.2358 11.4531ZM12.9858 12.0781C14.6434 12.0781 16.2332 12.7366 17.4053 13.9087C18.5774 15.0808 19.2358 16.6705 19.2358 18.3281V25.8281H6.73584V18.3281C6.73584 16.6705 7.39432 15.0808 8.56642 13.9087C9.73852 12.7366 11.3282 12.0781 12.9858 12.0781ZM4.23584 18.3281C4.23584 17.4619 4.36084 16.6256 4.59584 15.8356L4.38334 15.8531C3.31194 15.9708 2.32167 16.4798 1.60242 17.2825C0.883167 18.0853 0.48556 19.1253 0.48584 20.2031V25.8281H4.23584V18.3281ZM25.4858 25.8281V20.2031C25.486 19.0886 25.0607 18.016 24.2969 17.2043C23.5331 16.3927 22.4883 15.9031 21.3758 15.8356C21.6096 16.6256 21.7358 17.4619 21.7358 18.3281V25.8281H25.4858Z" fill="#F8F8FF"/>
</svg>
