<svg width="403" height="404" viewBox="0 0 403 404" fill="none" xmlns="http://www.w3.org/2000/svg">
<ellipse cx="201.36" cy="201.726" rx="201.36" ry="201.726" fill="#C6F0AC"/>
<g clip-path="url(#clip0_2114_1235)">
<path d="M263.275 216.773L244.305 194.475C273.319 173.87 293.117 157.277 305.686 135.796C308.861 130.369 316.622 129.215 320.686 134.012C322.754 136.453 323.284 139.845 321.947 142.752C312.556 163.159 292.528 197.984 263.275 216.773Z" fill="#499136"/>
<path d="M307.885 141.358C307.185 137.854 304.132 135.511 301.066 136.123C298.001 136.736 296.083 140.073 296.783 143.576C297.484 147.08 300.537 149.423 303.603 148.811C306.668 148.198 308.586 144.862 307.885 141.358Z" fill="#499136"/>
<path d="M126.493 285.228C111.499 255.136 128.764 202.473 138.76 178.829H129.219C117.185 195.34 110.906 206.191 102.412 234.716C100.426 241.382 97.4139 262.122 103.775 275.556C108.864 286.303 121.04 286.482 126.493 285.228Z" fill="#499136"/>
<path d="M249.684 300.508C284.401 281.795 265.412 211.767 251.445 178.829H194.229H137.454C123.345 212.113 104.159 282.608 139.179 300.515C139.729 300.796 140.095 301.337 140.095 301.925V330.09C140.095 333.531 143.064 336.321 146.727 336.321H158.348C163.737 336.321 169.107 333.969 170.99 329.225C172.335 325.838 173.015 322.21 173.457 317.764C173.549 316.834 174.474 316.174 175.449 316.357L177.387 316.721C188.006 318.716 198.938 318.738 209.567 316.785L211.942 316.348C212.914 316.169 213.832 316.827 213.942 317.751C214.471 322.176 215.554 325.95 217.551 329.719C219.88 334.115 225.035 336.321 230.263 336.321H242.172C245.835 336.321 248.805 333.531 248.805 330.09V301.9C248.805 301.325 249.154 300.794 249.684 300.508Z" fill="#61D243"/>
<path d="M194.353 319.743C228.467 319.743 256.122 288.755 256.122 250.53C256.122 212.304 228.467 181.316 194.353 181.316C160.239 181.316 132.583 212.304 132.583 250.53C132.583 288.755 160.239 319.743 194.353 319.743Z" fill="#ABF47D"/>
<g filter="url(#filter0_d_2114_1235)">
<path fill-rule="evenodd" clip-rule="evenodd" d="M118.425 132.385C118.425 134.82 118.976 137.169 119.999 139.382C112.843 144.535 108.758 150.808 108.758 158.092C108.758 179.033 147.712 199.866 195.764 199.866C243.817 199.866 280.836 180.319 280.836 159.377C281.461 152.122 277.83 145.736 271.013 140.413C272.366 137.905 273.103 135.202 273.103 132.385C273.103 119.252 257.089 108.605 237.334 108.605C222.649 108.605 210.03 114.489 204.521 122.904C201.641 122.798 198.72 122.744 195.764 122.744C192.805 122.744 189.881 122.793 186.999 122.89C181.485 114.482 168.872 108.605 154.195 108.605C134.44 108.605 118.425 119.252 118.425 132.385Z" fill="#61D243"/>
<g filter="url(#filter1_d_2114_1235)">
<path d="M258.34 153.255C243.957 157.636 216.628 158.412 195.634 153.742C177.302 156.7 143.755 158.285 134.543 153.255C136.137 213.406 253.869 216.272 258.318 156.188C258.389 155.224 258.502 154.229 258.34 153.255Z" fill="#ABF47D"/>
</g>
<path d="M231.236 156.629C220.617 156.628 211.428 156.079 199.411 154.735C196.759 154.439 194.033 154.393 191.36 154.615C175.685 155.912 166.625 156.735 149.008 156.629C142.68 156.241 138.234 155.386 134.219 153.982C183.132 202.298 210.328 201.395 258.423 153.903C250.362 156.221 240.552 156.629 231.236 156.629Z" fill="#2B5220"/>
<path fill-rule="evenodd" clip-rule="evenodd" d="M225.108 181.074C204.569 168.833 187.588 169.164 167.535 181.074C188.073 193.043 205.054 192.719 225.108 181.074Z" fill="#EB8884"/>
<path d="M265.566 151.034C256.704 155.918 243.54 156.629 231.236 156.629C220.617 156.628 211.428 156.079 199.411 154.735C196.759 154.439 194.033 154.393 191.36 154.615C175.685 155.913 166.625 156.735 149.008 156.629C139.074 156.021 133.778 154.259 127.507 151.034" stroke="#499036" stroke-width="3" stroke-linecap="round"/>
<path d="M215.728 133.78C235.583 123.444 241.566 123.592 261.011 133.78" stroke="#417932" stroke-width="5" stroke-linecap="round"/>
<path d="M179.502 133.779C159.647 123.444 153.664 123.592 134.219 133.779" stroke="#417932" stroke-width="5" stroke-linecap="round"/>
<path d="M263.791 103.541C252.424 100.219 243.699 96.4862 234.625 89.1942C229.763 85.2874 222.18 87.803 220.994 94.2025C220.119 98.9213 223.329 103.31 227.868 103.603L263.4 105.891C264.685 105.974 265.027 103.902 263.791 103.541Z" fill="#333333"/>
<path d="M127.094 103.177C138.518 100.054 147.307 96.4743 156.507 89.3421C161.436 85.5209 168.975 88.1682 170.049 94.587C170.841 99.32 167.555 103.652 163.011 103.865L127.444 105.533C126.158 105.593 125.852 103.517 127.094 103.177Z" fill="#333333"/>
<path d="M275.535 164.737C276.509 164.737 277.299 163.995 277.299 163.079C277.299 162.164 276.509 161.422 275.535 161.422C274.56 161.422 273.77 162.164 273.77 163.079C273.77 163.995 274.56 164.737 275.535 164.737Z" fill="#499136"/>
<path d="M266.711 171.368C267.685 171.368 268.475 170.626 268.475 169.711C268.475 168.795 267.685 168.053 266.711 168.053C265.736 168.053 264.946 168.795 264.946 169.711C264.946 170.626 265.736 171.368 266.711 171.368Z" fill="#499136"/>
<path d="M264.945 163.079C265.92 163.079 266.71 162.337 266.71 161.421C266.71 160.506 265.92 159.764 264.945 159.764C263.971 159.764 263.18 160.506 263.18 161.421C263.18 162.337 263.971 163.079 264.945 163.079Z" fill="#499136"/>
<path d="M130.819 164.737C131.793 164.737 132.583 163.995 132.583 163.079C132.583 162.164 131.793 161.422 130.819 161.422C129.844 161.422 129.054 162.164 129.054 163.079C129.054 163.995 129.844 164.737 130.819 164.737Z" fill="#499136"/>
<path d="M121.994 171.368C122.969 171.368 123.759 170.626 123.759 169.711C123.759 168.795 122.969 168.053 121.994 168.053C121.02 168.053 120.229 168.795 120.229 169.711C120.229 170.626 121.02 171.368 121.994 171.368Z" fill="#499136"/>
<path d="M120.229 163.079C121.204 163.079 121.994 162.337 121.994 161.421C121.994 160.506 121.204 159.764 120.229 159.764C119.255 159.764 118.465 160.506 118.465 161.421C118.465 162.337 119.255 163.079 120.229 163.079Z" fill="#499136"/>
</g>
<path d="M240.106 330.976C240.106 329.832 241.094 328.903 242.312 328.903C243.53 328.903 244.518 329.832 244.518 330.976V335.796C243.147 336.335 242.157 336.443 240.106 336.364V330.976Z" fill="#499136"/>
<path d="M231.282 330.976C231.282 329.832 232.27 328.903 233.488 328.903C234.706 328.903 235.694 329.832 235.694 330.976V336.364H231.282V330.976Z" fill="#499136"/>
<path d="M148.335 330.976C148.335 329.832 147.347 328.903 146.129 328.903C144.911 328.903 143.923 329.832 143.923 330.976V335.708C145.293 336.247 146.284 336.445 148.335 336.365V330.976Z" fill="#499136"/>
<path d="M157.159 330.976C157.159 329.832 156.171 328.903 154.953 328.903C153.735 328.903 152.747 329.832 152.747 330.976V336.364H157.159V330.976Z" fill="#499136"/>
<path d="M222.457 330.976C222.457 329.832 223.446 328.903 224.663 328.903C225.882 328.903 226.87 329.832 226.87 330.976V336C225.107 335.628 224.132 335.279 222.457 334.466V330.976Z" fill="#499136"/>
<path d="M165.983 330.976C165.983 329.832 164.995 328.903 163.777 328.903C162.559 328.903 161.571 329.832 161.571 330.976V335.949C163.334 335.578 164.309 335.199 165.983 334.386V330.976Z" fill="#499136"/>
<path d="M249.504 281.612C240.238 300.677 227.443 317.669 193.688 319.742C166.115 318.499 148.908 301.92 139.202 281.612C182.921 315.435 206.238 315.15 249.504 281.612Z" fill="#9EE075"/>
<path d="M222.59 330.518V334.248C219.481 332.846 218.088 331.136 216.412 327.203C214.966 323.395 214.379 321.236 213.765 317.256C213.515 316.782 213.318 316.605 212.883 316.427C239.222 304.601 248.715 291.574 255.68 260.061C264.761 260.375 267.089 256.213 268.917 245.142C270.314 264.309 268.993 273.047 263.622 285.758C259.799 292.475 257.295 295.992 249.944 300.263C249.124 300.8 248.833 301.252 248.621 302.336V318.914C240.426 324.464 235.504 327.083 224.795 328.86C223.625 328.961 223.147 329.301 222.59 330.518Z" fill="#5EBE45" stroke="#5EBE45" stroke-width="0.4"/>
<path d="M166.194 330.518V334.248C169.303 332.846 170.696 331.136 172.371 327.203C173.817 323.395 174.406 321.236 175.019 317.256C175.269 316.782 175.466 316.605 175.901 316.427C149.561 304.601 140.068 291.574 133.102 260.061C124.021 260.375 121.693 256.213 119.865 245.142C118.468 264.309 119.789 273.047 125.16 285.758C128.983 292.475 131.487 295.992 138.838 300.263C139.659 300.8 139.95 301.252 140.162 302.336V318.914C148.357 324.464 153.279 327.083 163.988 328.86C165.158 328.961 165.636 329.301 166.194 330.518Z" fill="#5EBE45" stroke="#5EBE45" stroke-width="0.4"/>
<path d="M119.135 263.377C120.069 272.286 121.247 276.773 124.642 285.343C114.935 286.587 106.111 283.271 102.581 272.08C112.263 273.15 114.377 270.244 119.135 263.377Z" fill="#417932" stroke="#417932" stroke-width="0.4"/>
<path d="M244.65 274.982C245.624 274.982 246.415 274.239 246.415 273.324C246.415 272.408 245.624 271.666 244.65 271.666C243.675 271.666 242.885 272.408 242.885 273.324C242.885 274.239 243.675 274.982 244.65 274.982Z" fill="#9EE075"/>
<path d="M141.407 274.982C142.382 274.982 143.172 274.239 143.172 273.324C143.172 272.408 142.382 271.666 141.407 271.666C140.433 271.666 139.643 272.408 139.643 273.324C139.643 274.239 140.433 274.982 141.407 274.982Z" fill="#9EE075"/>
<path d="M235.826 281.613C236.801 281.613 237.591 280.87 237.591 279.955C237.591 279.039 236.801 278.297 235.826 278.297C234.851 278.297 234.061 279.039 234.061 279.955C234.061 280.87 234.851 281.613 235.826 281.613Z" fill="#9EE075"/>
<path d="M149.349 281.613C150.324 281.613 151.114 280.87 151.114 279.955C151.114 279.039 150.324 278.297 149.349 278.297C148.375 278.297 147.584 279.039 147.584 279.955C147.584 280.87 148.375 281.613 149.349 281.613Z" fill="#9EE075"/>
<path d="M234.061 273.323C235.035 273.323 235.826 272.581 235.826 271.666C235.826 270.75 235.035 270.008 234.061 270.008C233.086 270.008 232.296 270.75 232.296 271.666C232.296 272.581 233.086 273.323 234.061 273.323Z" fill="#9EE075"/>
<path d="M149.349 274.153C150.324 274.153 151.114 273.411 151.114 272.495C151.114 271.579 150.324 270.837 149.349 270.837C148.375 270.837 147.584 271.579 147.584 272.495C147.584 273.411 148.375 274.153 149.349 274.153Z" fill="#9EE075"/>
<path d="M297.37 125.685C294.918 127.345 293.947 128.284 295.179 129.244C296.411 130.204 297.514 128.294 299.274 127.251C301.035 126.208 305.934 124.256 308.391 124.258C310.848 124.26 311.764 124.883 312.182 124.198C312.925 122.982 313.252 122.054 308.719 122.022C304.186 121.989 299.823 124.024 297.37 125.685Z" fill="#D9D9D9"/>
<path d="M333.879 147.203C334.756 144.374 334.928 143.035 333.366 143.054C331.804 143.074 332.136 145.256 331.413 147.169C330.69 149.083 328.084 153.668 326.165 155.202C324.245 156.736 323.14 156.821 323.241 157.618C323.421 159.03 323.745 159.959 327.305 157.153C330.865 154.346 333.001 150.032 333.879 147.203Z" fill="#D9D9D9"/>
<path d="M295.267 120.96C292.815 122.62 291.844 123.559 293.076 124.519C294.308 125.48 295.411 123.569 297.171 122.526C298.932 121.484 303.831 119.531 306.288 119.533C308.745 119.535 309.661 120.158 310.08 119.473C310.822 118.258 311.149 117.33 306.616 117.297C302.083 117.265 297.72 119.3 295.267 120.96Z" fill="#D9D9D9"/>
<path d="M338.472 149.578C339.35 146.749 339.522 145.41 337.96 145.429C336.398 145.449 336.73 147.631 336.007 149.544C335.284 151.458 332.678 156.043 330.759 157.577C328.839 159.111 327.734 159.196 327.835 159.993C328.015 161.405 328.339 162.334 331.899 159.528C335.459 156.721 337.595 152.407 338.472 149.578Z" fill="#D9D9D9"/>
</g>
<defs>
<filter id="filter0_d_2114_1235" x="98.7581" y="79.333" width="192.148" height="132.533" filterUnits="userSpaceOnUse" color-interpolation-filters="sRGB">
<feFlood flood-opacity="0" result="BackgroundImageFix"/>
<feColorMatrix in="SourceAlpha" type="matrix" values="0 0 0 0 0 0 0 0 0 0 0 0 0 0 0 0 0 0 127 0" result="hardAlpha"/>
<feOffset dy="2"/>
<feGaussianBlur stdDeviation="5"/>
<feComposite in2="hardAlpha" operator="out"/>
<feColorMatrix type="matrix" values="0 0 0 0 0 0 0 0 0 0 0 0 0 0 0 0 0 0 0.05 0"/>
<feBlend mode="normal" in2="BackgroundImageFix" result="effect1_dropShadow_2114_1235"/>
<feBlend mode="normal" in="SourceGraphic" in2="effect1_dropShadow_2114_1235" result="shape"/>
</filter>
<filter id="filter1_d_2114_1235" x="124.543" y="145.255" width="143.88" height="66.5811" filterUnits="userSpaceOnUse" color-interpolation-filters="sRGB">
<feFlood flood-opacity="0" result="BackgroundImageFix"/>
<feColorMatrix in="SourceAlpha" type="matrix" values="0 0 0 0 0 0 0 0 0 0 0 0 0 0 0 0 0 0 127 0" result="hardAlpha"/>
<feOffset dy="2"/>
<feGaussianBlur stdDeviation="5"/>
<feComposite in2="hardAlpha" operator="out"/>
<feColorMatrix type="matrix" values="0 0 0 0 0 0 0 0 0 0 0 0 0 0 0 0 0 0 0.05 0"/>
<feBlend mode="normal" in2="BackgroundImageFix" result="effect1_dropShadow_2114_1235"/>
<feBlend mode="normal" in="SourceGraphic" in2="effect1_dropShadow_2114_1235" result="shape"/>
</filter>
<clipPath id="clip0_2114_1235">
<rect width="261.022" height="264.282" fill="white" transform="translate(99.9341 72.3398)"/>
</clipPath>
</defs>
</svg>
