<svg width="110" height="71" viewBox="0 0 110 71" fill="none" xmlns="http://www.w3.org/2000/svg">
<g filter="url(#filter0_d_1535_1905)">
<path fill-rule="evenodd" clip-rule="evenodd" d="M15.2772 23.3581C15.2772 24.616 15.5617 25.8298 16.0901 26.9725C12.3928 29.6346 10.2822 32.8751 10.2822 36.638C10.2822 47.456 30.409 58.2177 55.2367 58.2177C80.0643 58.2177 99.1918 48.1202 99.1918 37.302C99.5144 33.554 97.6385 30.2551 94.1163 27.5054C94.8151 26.2098 95.1959 24.8135 95.1959 23.3581C95.1959 16.5739 86.9218 11.0742 76.7148 11.0742C69.1273 11.0742 62.6075 14.1135 59.7609 18.4604C58.273 18.4057 56.7639 18.3782 55.2367 18.3782C53.7078 18.3782 52.197 18.4033 50.7074 18.4534C47.8587 14.1102 41.3421 11.0742 33.7584 11.0742C23.5515 11.0742 15.2772 16.5739 15.2772 23.3581Z" fill="#E10531"/>
</g>
<g filter="url(#filter1_d_1535_1905)">
<path d="M87.4309 34.6455C76.407 35.8835 65.9229 37.0505 55.0206 34.6455C45.5009 36.1686 29.4446 36.0322 23.4917 34.6455C24.3195 65.6182 85.457 67.094 87.7677 36.1559C87.8045 35.6594 87.7676 35.1402 87.4309 34.6455Z" fill="#F17575"/>
</g>
<path d="M96.4522 40.0716C96.9559 40.0716 97.3641 39.6882 97.3641 39.2152C97.3641 38.7423 96.9559 38.3589 96.4522 38.3589C95.9486 38.3589 95.5405 38.7423 95.5405 39.2152C95.5405 39.6882 95.9486 40.0716 96.4522 40.0716Z" fill="#850014"/>
<path d="M91.8933 43.497C92.3969 43.497 92.8052 43.1136 92.8052 42.6405C92.8052 42.1676 92.3969 41.7842 91.8933 41.7842C91.3897 41.7842 90.9814 42.1676 90.9814 42.6405C90.9814 43.1136 91.3897 43.497 91.8933 43.497Z" fill="#850014"/>
<path d="M90.9812 39.2146C91.4848 39.2146 91.8931 38.8312 91.8931 38.3583C91.8931 37.8853 91.4848 37.502 90.9812 37.502C90.4776 37.502 90.0693 37.8853 90.0693 38.3583C90.0693 38.8312 90.4776 39.2146 90.9812 39.2146Z" fill="#850014"/>
<path d="M21.6804 40.0716C22.184 40.0716 22.5923 39.6882 22.5923 39.2152C22.5923 38.7423 22.184 38.3589 21.6804 38.3589C21.1768 38.3589 20.7686 38.7423 20.7686 39.2152C20.7686 39.6882 21.1768 40.0716 21.6804 40.0716Z" fill="#850014"/>
<path d="M17.1213 43.497C17.6249 43.497 18.0332 43.1136 18.0332 42.6405C18.0332 42.1676 17.6249 41.7842 17.1213 41.7842C16.6177 41.7842 16.2095 42.1676 16.2095 42.6405C16.2095 43.1136 16.6177 43.497 17.1213 43.497Z" fill="#850014"/>
<path d="M16.2097 39.2146C16.7133 39.2146 17.1216 38.8312 17.1216 38.3583C17.1216 37.8853 16.7133 37.502 16.2097 37.502C15.7061 37.502 15.2979 37.8853 15.2979 38.3583C15.2979 38.8312 15.7061 39.2146 16.2097 39.2146Z" fill="#850014"/>
<path d="M91.3018 32.9922C86.7229 35.5151 79.9215 35.8825 73.564 35.8822C68.0773 35.882 63.3295 35.5984 57.1207 34.9043C55.7506 34.7511 54.3422 34.7276 52.9606 34.8418C44.8618 35.5124 40.181 35.9374 31.0785 35.8822C25.9457 35.5682 23.2093 34.6582 19.9692 32.9922" stroke="#850014" stroke-width="2" stroke-linecap="round"/>
<path d="M62.8139 23.4994C72.5126 22.7053 77.9952 20.868 87.3617 15.979C87.5499 15.8808 87.7785 16.0154 87.7785 16.2275V27.6486C87.7785 27.795 87.6638 27.9173 87.518 27.9303C80.3217 28.5693 76.8204 29.8335 71.3615 32.9948C71.2979 33.0317 71.2192 33.0425 71.1478 33.0243C64.3943 31.3015 62.7616 29.0785 62.5529 23.7919C62.547 23.6416 62.664 23.5117 62.8139 23.4994Z" fill="white"/>
<path d="M70.4341 27.7317C72.124 28.7324 73.6013 29.1466 75.099 28.9936C79.3675 28.5572 81.0091 23.4072 80.866 19.1191C76.3134 21.0499 73.1266 22.1412 67.8911 22.8204C67.8911 24.7888 68.7403 26.7288 70.4341 27.7317Z" fill="#333333"/>
<path d="M61.2065 23.3992C73.3849 21.0312 77.1664 20.2095 88.5304 15.1729" stroke="#333333" stroke-width="5" stroke-linecap="round"/>
<path d="M47.3162 23.5834C37.6175 22.7892 32.1349 20.9522 22.7684 16.063C22.5802 15.9648 22.3516 16.0994 22.3516 16.3115V27.7326C22.3516 27.879 22.4663 28.0013 22.6121 28.0143C29.8084 28.6533 33.3097 29.9175 38.7686 33.0788C38.8322 33.1158 38.9109 33.1265 38.9823 33.1083C45.7358 31.3855 47.3686 29.1625 47.5771 23.8759C47.5831 23.7256 47.4661 23.5957 47.3162 23.5834Z" fill="white"/>
<path d="M39.6953 27.8143C38.0054 28.8147 36.5281 29.2292 35.0304 29.076C30.7619 28.6396 29.1203 23.4895 29.2634 19.2017C33.816 21.1323 37.0028 22.2236 42.2383 22.9029C42.2383 24.8712 41.3891 26.8112 39.6953 27.8143Z" fill="#333333"/>
<path d="M48.9234 23.4839C36.7449 21.1158 32.9636 20.2939 21.5996 15.2573" stroke="#333333" stroke-width="5" stroke-linecap="round"/>
<path d="M56.1582 12.9665C58.2261 12.5524 60.8999 11.0648 60.8999 7.21854C60.8999 3.71883 58.338 1.38789 56.4957 0.317013C56.0861 0.0789003 55.6079 0.391757 55.6079 0.864696V2.07382C55.6079 3.02763 55.207 4.76855 54.093 5.49283C53.5241 5.86258 52.9089 5.30896 52.8402 4.63427L52.7832 4.07998C52.717 3.43574 52.0609 3.04482 51.5462 3.43772C50.6207 4.14216 49.6543 5.37906 49.6543 7.21788C49.6543 11.9214 53.1531 13.0981 54.902 13.0981C55.0039 13.0981 55.1111 13.0942 55.2222 13.0882C55.5172 13.0511 55.2222 13.1544 56.1582 12.9665Z" fill="#FF640D"/>
<path d="M52.9619 10.7457C52.9619 12.4787 54.3583 13.0142 55.2222 13.0882C55.5172 13.0511 55.2222 13.1544 56.1582 12.9665C56.8455 12.7238 57.5925 12.1004 57.5925 10.7457C57.5925 9.88783 57.0507 9.35802 56.6267 9.10998C56.497 9.03391 56.3462 9.12982 56.335 9.27929C56.2979 9.75422 55.8414 10.1326 55.5312 9.77142C55.2567 9.45261 55.1409 8.98628 55.1409 8.68797V8.29772C55.1409 8.06357 54.9047 7.90746 54.7023 8.02785C53.9508 8.473 52.9619 9.38977 52.9619 10.7457Z" fill="#AE1F19"/>
<defs>
<filter id="filter0_d_1535_1905" x="0.282227" y="3.07422" width="108.945" height="67.1436" filterUnits="userSpaceOnUse" color-interpolation-filters="sRGB">
<feFlood flood-opacity="0" result="BackgroundImageFix"/>
<feColorMatrix in="SourceAlpha" type="matrix" values="0 0 0 0 0 0 0 0 0 0 0 0 0 0 0 0 0 0 127 0" result="hardAlpha"/>
<feOffset dy="2"/>
<feGaussianBlur stdDeviation="5"/>
<feComposite in2="hardAlpha" operator="out"/>
<feColorMatrix type="matrix" values="0 0 0 0 0 0 0 0 0 0 0 0 0 0 0 0 0 0 0.05 0"/>
<feBlend mode="normal" in2="BackgroundImageFix" result="effect1_dropShadow_1535_1905"/>
<feBlend mode="normal" in="SourceGraphic" in2="effect1_dropShadow_1535_1905" result="shape"/>
</filter>
<filter id="filter1_d_1535_1905" x="13.4917" y="26.6455" width="84.2876" height="43.9854" filterUnits="userSpaceOnUse" color-interpolation-filters="sRGB">
<feFlood flood-opacity="0" result="BackgroundImageFix"/>
<feColorMatrix in="SourceAlpha" type="matrix" values="0 0 0 0 0 0 0 0 0 0 0 0 0 0 0 0 0 0 127 0" result="hardAlpha"/>
<feOffset dy="2"/>
<feGaussianBlur stdDeviation="5"/>
<feComposite in2="hardAlpha" operator="out"/>
<feColorMatrix type="matrix" values="0 0 0 0 0 0 0 0 0 0 0 0 0 0 0 0 0 0 0.05 0"/>
<feBlend mode="normal" in2="BackgroundImageFix" result="effect1_dropShadow_1535_1905"/>
<feBlend mode="normal" in="SourceGraphic" in2="effect1_dropShadow_1535_1905" result="shape"/>
</filter>
</defs>
</svg>
