<svg width="103" height="65" viewBox="0 0 103 65" fill="none" xmlns="http://www.w3.org/2000/svg">
<g filter="url(#filter0_d_1535_1948)">
<path fill-rule="evenodd" clip-rule="evenodd" d="M15.2047 20.5755C15.2047 21.7383 15.4676 22.8603 15.9561 23.9167C12.5391 26.3774 10.5884 29.373 10.5884 32.8515C10.5884 42.8516 29.1894 52.7997 52.135 52.7997C75.0803 52.7997 92.7579 43.4656 92.7579 33.4652C93.0559 30.0006 91.3222 26.9511 88.0671 24.4093C88.7128 23.2115 89.0648 21.9208 89.0648 20.5755C89.0648 14.3041 81.4179 9.22021 71.9847 9.22021C64.9725 9.22021 58.9468 12.0297 56.3161 16.048C54.941 15.9975 53.5464 15.972 52.135 15.972C50.7219 15.972 49.3256 15.9952 47.9491 16.0415C45.3162 12.0267 39.2936 9.22021 32.2848 9.22021C22.8517 9.22021 15.2047 14.3041 15.2047 20.5755Z" fill="#FF9191"/>
</g>
<g filter="url(#filter1_d_1535_1948)">
<path d="M81.0924 30.6436C70.9043 31.788 61.2149 32.8667 51.1393 30.6436C42.3412 32.0515 27.5021 31.9253 22.0005 30.6436C22.7656 59.2748 79.2682 60.6389 81.4036 32.0396C81.4378 31.5809 81.4036 31.1008 81.0924 30.6436Z" fill="#F2B1AF"/>
</g>
<path d="M17.526 10.3192C19.2506 5.24421 21.4517 3.7592 28.3128 0.897073C28.5485 0.798814 28.8521 0.80251 29.0838 0.904923L29.239 0.973481C37.7648 4.74005 40.4785 5.93893 40.305 8.64099C40.3025 8.67944 40.2207 8.68752 40.1821 8.65976C34.5936 4.63558 24.8058 5.5941 18.9868 9.45926C18.5579 9.74406 18.1145 10.0465 17.6502 10.3677C17.5978 10.4039 17.5092 10.3689 17.526 10.3192Z" fill="#333333"/>
<path d="M84.6679 10.3192C83.0355 5.24421 80.9523 3.7592 74.4586 0.897073C74.2357 0.798814 73.9483 0.80251 73.729 0.904923L73.5821 0.973481C65.5132 4.74005 62.945 5.93893 63.1089 8.64099C63.1112 8.67944 63.1889 8.68752 63.2253 8.65976C68.5146 4.63558 77.7779 5.5941 83.2852 9.45926C83.6911 9.74406 84.1108 10.0465 84.5502 10.3677C84.5997 10.4039 84.6836 10.3689 84.6679 10.3192Z" fill="#333333"/>
<path d="M84.6699 29.1147C80.4381 31.4468 74.1523 31.7865 68.2768 31.7861C63.206 31.786 58.8183 31.5239 53.08 30.8822C51.814 30.7407 50.5121 30.7188 49.2355 30.8244C41.7505 31.4443 37.4246 31.8371 29.012 31.7861C24.2684 31.4959 21.7396 30.6547 18.7451 29.1147" stroke="#E8625D" stroke-width="2" stroke-linecap="round"/>
<path d="M18.6724 34.7596C21.4045 36.3371 24.4717 36.1393 25.5232 34.3177C26.5748 32.4961 25.2125 29.7406 22.4805 28.163C19.7484 26.5855 16.6812 26.7833 15.6297 28.6049C14.5781 30.4265 15.9404 33.182 18.6724 34.7596Z" fill="#E8625D"/>
<path d="M85.4975 34.1938C88.2295 32.6162 89.5918 29.8607 88.5403 28.0391C87.4887 26.2175 84.4215 26.0197 81.6895 27.5972C78.9574 29.1748 77.5951 31.9303 78.6467 33.7519C79.6982 35.5735 82.7655 35.7713 85.4975 34.1938Z" fill="#E8625D"/>
<path d="M82.6489 17.6951C82.6489 23.8351 73.4887 28.805 73.0987 29.0103C72.9958 29.0653 72.8809 29.094 72.7642 29.094C72.6474 29.094 72.5325 29.0653 72.4296 29.0103C72.0396 28.805 62.8794 23.8351 62.8794 17.6951C62.8811 16.2533 63.4581 14.871 64.4838 13.8515C65.5097 12.8319 66.9006 12.2585 68.3514 12.2568C70.1739 12.2568 71.7695 13.0357 72.7642 14.3523C73.7588 13.0357 75.3544 12.2568 77.1769 12.2568C78.6277 12.2585 80.0187 12.8319 81.0445 13.8515C82.0702 14.871 82.6472 16.2533 82.6489 17.6951Z" fill="#E6322B"/>
<path d="M95.1255 12.4778C94.6824 13.9326 92.1329 14.4428 92.025 14.463C91.9964 14.4686 91.9667 14.467 91.9388 14.4585C91.911 14.45 91.8855 14.4348 91.865 14.4144C91.7865 14.3373 89.9544 12.4921 90.3977 11.0372C90.5021 10.6957 90.7399 10.4102 91.0587 10.2434C91.3777 10.0766 91.7517 10.0419 92.0988 10.1473C92.5347 10.2801 92.8601 10.5809 93.0028 10.9654C93.3358 10.7259 93.7736 10.6577 94.2095 10.7904C94.5562 10.8965 94.8475 11.1337 95.0193 11.4501C95.191 11.7663 95.2292 12.1359 95.1255 12.4778Z" fill="#E6322B"/>
<path d="M13.3386 18.6773C13.8585 20.6178 11.3576 22.9714 11.2505 23.0695C11.2224 23.0958 11.1882 23.1146 11.1509 23.1247C11.1137 23.1346 11.0746 23.1353 11.0371 23.1268C10.8953 23.0952 7.55278 22.3075 7.03291 20.3671C6.91135 19.9112 6.97836 19.4251 7.21923 19.0152C7.46011 18.6054 7.85519 18.3052 8.31779 18.1807C8.89909 18.0249 9.47399 18.1347 9.90273 18.4657C10.1085 17.9646 10.5515 17.5822 11.1328 17.4263C11.5957 17.3029 12.0879 17.3651 12.5014 17.5996C12.9149 17.8342 13.216 18.2218 13.3386 18.6773Z" fill="#AE1F19"/>
<path d="M40.3296 17.6951C40.3296 23.8351 31.1694 28.805 30.7794 29.0103C30.6765 29.0653 30.5616 29.094 30.4448 29.094C30.3281 29.094 30.2132 29.0653 30.1103 29.0103C29.7203 28.805 20.5601 23.8351 20.5601 17.6951C20.5618 16.2533 21.1388 14.871 22.1645 13.8515C23.1903 12.8319 24.5813 12.2585 26.0321 12.2568C27.8546 12.2568 29.4502 13.0357 30.4448 14.3523C31.4395 13.0357 33.0351 12.2568 34.8576 12.2568C36.3084 12.2585 37.6993 12.8319 38.7252 13.8515C39.7509 14.871 40.3279 16.2533 40.3296 17.6951Z" fill="#E6322B"/>
<path d="M13.0914 7.03082C13.2973 6.63196 13.8933 6.72971 13.9611 7.17347L14.0092 7.48825C14.0396 7.68671 14.1942 7.84306 14.3922 7.87556L14.7065 7.92709C15.1495 7.99974 15.2406 8.59681 14.8396 8.79843L14.5552 8.94145C14.3758 9.03161 14.2748 9.22702 14.3052 9.42548L14.3533 9.74026C14.4211 10.184 13.8814 10.4553 13.5657 10.1361L13.3419 9.90974C13.2008 9.76701 12.9838 9.73142 12.8043 9.82159L12.52 9.96459C12.1189 10.1662 11.6941 9.73678 11.9002 9.33791L12.0463 9.05498C12.1383 8.8766 12.1051 8.65919 11.9639 8.51646L11.74 8.29007C11.4245 7.9709 11.7015 7.43423 12.1445 7.50688L12.4587 7.55841C12.6568 7.59091 12.8533 7.49212 12.9453 7.31376L13.0914 7.03082Z" fill="#E86A90"/>
<defs>
<filter id="filter0_d_1535_1948" x="0.588379" y="1.22021" width="102.203" height="63.5796" filterUnits="userSpaceOnUse" color-interpolation-filters="sRGB">
<feFlood flood-opacity="0" result="BackgroundImageFix"/>
<feColorMatrix in="SourceAlpha" type="matrix" values="0 0 0 0 0 0 0 0 0 0 0 0 0 0 0 0 0 0 127 0" result="hardAlpha"/>
<feOffset dy="2"/>
<feGaussianBlur stdDeviation="5"/>
<feComposite in2="hardAlpha" operator="out"/>
<feColorMatrix type="matrix" values="0 0 0 0 0 0 0 0 0 0 0 0 0 0 0 0 0 0 0.05 0"/>
<feBlend mode="normal" in2="BackgroundImageFix" result="effect1_dropShadow_1535_1948"/>
<feBlend mode="normal" in="SourceGraphic" in2="effect1_dropShadow_1535_1948" result="shape"/>
</filter>
<filter id="filter1_d_1535_1948" x="12.0005" y="22.6436" width="79.4136" height="42.1719" filterUnits="userSpaceOnUse" color-interpolation-filters="sRGB">
<feFlood flood-opacity="0" result="BackgroundImageFix"/>
<feColorMatrix in="SourceAlpha" type="matrix" values="0 0 0 0 0 0 0 0 0 0 0 0 0 0 0 0 0 0 127 0" result="hardAlpha"/>
<feOffset dy="2"/>
<feGaussianBlur stdDeviation="5"/>
<feComposite in2="hardAlpha" operator="out"/>
<feColorMatrix type="matrix" values="0 0 0 0 0 0 0 0 0 0 0 0 0 0 0 0 0 0 0.05 0"/>
<feBlend mode="normal" in2="BackgroundImageFix" result="effect1_dropShadow_1535_1948"/>
<feBlend mode="normal" in="SourceGraphic" in2="effect1_dropShadow_1535_1948" result="shape"/>
</filter>
</defs>
</svg>
