<svg width="109" height="70" viewBox="0 0 109 70" fill="none" xmlns="http://www.w3.org/2000/svg">
<g filter="url(#filter0_d_2995_1455)">
<path fill-rule="evenodd" clip-rule="evenodd" d="M14.9618 22.4942C14.9618 23.7439 15.2443 24.9497 15.7694 26.0849C12.0967 28.7296 10 31.949 10 35.6872C10 46.4346 29.9929 57.1259 54.6557 57.1259C79.318 57.1259 98.3184 47.0944 98.3184 36.3469C98.6388 32.6235 96.7754 29.3461 93.2768 26.6144C93.9707 25.3272 94.349 23.94 94.349 22.4942C94.349 15.7542 86.13 10.2905 75.9908 10.2905C68.4539 10.2905 61.9772 13.3099 59.1496 17.6285C57.6718 17.5742 56.1726 17.5468 54.6557 17.5468C53.1369 17.5468 51.636 17.5717 50.1565 17.6215C47.3266 13.3067 40.8533 10.2905 33.3202 10.2905C23.1812 10.2905 14.9618 15.7542 14.9618 22.4942Z" fill="#9D4EDD"/>
</g>
<g filter="url(#filter1_d_2995_1455)">
<path d="M87.0867 33.7148C76.1362 34.9448 65.7217 36.1041 54.892 33.7148C45.4356 35.228 29.4861 35.0924 23.5728 33.7148C24.3952 64.4852 85.126 65.9512 87.4212 35.2152C87.4579 34.7222 87.4212 34.2062 87.0867 33.7148Z" fill="#DAACFE"/>
</g>
<path d="M96.0473 39.1039C96.5475 39.1039 96.9531 38.7231 96.9531 38.2531C96.9531 37.7833 96.5475 37.4023 96.0473 37.4023C95.5472 37.4023 95.1416 37.7833 95.1416 38.2531C95.1416 38.7231 95.5472 39.1039 96.0473 39.1039Z" fill="#471B6A"/>
<path d="M91.5185 42.5073C92.0187 42.5073 92.4243 42.1263 92.4243 41.6565C92.4243 41.1865 92.0187 40.8057 91.5185 40.8057C91.0182 40.8057 90.6128 41.1865 90.6128 41.6565C90.6128 42.1263 91.0182 42.5073 91.5185 42.5073Z" fill="#471B6A"/>
<path d="M90.6129 38.2529C91.1131 38.2529 91.5187 37.872 91.5187 37.4021C91.5187 36.9323 91.1131 36.5513 90.6129 36.5513C90.1126 36.5513 89.707 36.9323 89.707 37.4021C89.707 37.872 90.1126 38.2529 90.6129 38.2529Z" fill="#471B6A"/>
<path d="M21.7729 39.1039C22.2733 39.1039 22.6788 38.7231 22.6788 38.2531C22.6788 37.7833 22.2733 37.4023 21.7729 37.4023C21.2727 37.4023 20.8672 37.7833 20.8672 38.2531C20.8672 38.7231 21.2727 39.1039 21.7729 39.1039Z" fill="#471B6A"/>
<path d="M17.2441 42.5073C17.7443 42.5073 18.1499 42.1263 18.1499 41.6565C18.1499 41.1865 17.7443 40.8057 17.2441 40.8057C16.7438 40.8057 16.3384 41.1865 16.3384 41.6565C16.3384 42.1263 16.7438 42.5073 17.2441 42.5073Z" fill="#471B6A"/>
<path d="M16.3385 38.2529C16.8387 38.2529 17.2443 37.872 17.2443 37.4021C17.2443 36.9323 16.8387 36.5513 16.3385 36.5513C15.8382 36.5513 15.4326 36.9323 15.4326 37.4021C15.4326 37.872 15.8382 38.2529 16.3385 38.2529Z" fill="#471B6A"/>
<path d="M54.6451 50.476C55.9741 50.476 57.2059 49.9151 58.2169 48.9597C61.8747 45.5028 61.2588 39.5949 62.0324 34.622L55.7902 33.8504L54.6451 33.709L53.6331 33.8192L46.2617 34.622C47.6934 39.5776 47.3685 45.6878 51.2323 49.1051C52.2124 49.9718 53.3849 50.476 54.6451 50.476Z" fill="#251036"/>
<path d="M90.9315 32.0708C86.3829 34.5772 79.6267 34.9423 73.3115 34.9419C67.8613 34.9418 63.1452 34.6601 56.9775 33.9705C55.6168 33.8182 54.2176 33.7948 52.8453 33.9084C44.8002 34.5746 40.1505 34.9967 31.1086 34.9419C26.0098 34.63 23.2918 33.7259 20.0732 32.0708" stroke="#471B6A" stroke-width="2" stroke-linecap="round"/>
<path d="M57.8485 49.4065C58.7202 48.7216 59.21 47.9031 59.874 46.8241C55.7265 45.5212 53.4357 45.5063 49.4155 46.8241C49.6645 47.3221 50.4033 48.7216 51.275 49.4065C52.1467 50.0915 53.329 50.4763 54.5618 50.4763C55.7945 50.4763 56.9768 50.0915 57.8485 49.4065Z" fill="#EB8884"/>
<path d="M33.728 12.6255C35.4553 12.6139 36.8728 12.7961 38.0803 13.1809C44.2298 15.1404 44.7675 23.3943 44.7675 29.8484C44.7675 30.1716 44.3966 30.3554 44.1373 30.1623C37.8486 25.4837 33.2827 24.0681 22.936 25.696C22.808 25.7161 22.6885 25.6178 22.6885 25.4883C22.6885 21.8997 23.2625 18.0783 25.7767 15.5177C27.5347 13.7273 29.8087 12.7404 33.728 12.6255Z" fill="white"/>
<path d="M35.5545 16.7759C33.0331 16.7759 30.9893 19.2657 30.9893 22.3372C30.9893 23.324 31.2003 24.2729 31.5703 25.0764C34.3972 25.296 35.8742 25.6314 38.3766 26.6535C39.4055 25.6337 40.1197 24.079 40.1197 22.3372C40.1197 19.2657 38.0758 16.7759 35.5545 16.7759Z" fill="#333333"/>
<path fill-rule="evenodd" clip-rule="evenodd" d="M32.9547 22.0393C34.1322 22.3547 35.3979 21.4487 35.782 20.0153C36.166 18.582 35.5229 17.1643 34.3455 16.8489C33.1682 16.5333 31.9024 17.4395 31.5184 18.8728C31.1343 20.3062 31.7774 21.7239 32.9547 22.0393ZM38.6254 25.9062C39.5422 25.9062 40.2854 25.0514 40.2854 23.9971C40.2854 22.9428 39.5422 22.088 38.6254 22.088C37.7085 22.088 36.9653 22.9428 36.9653 23.9971C36.9653 25.0514 37.7085 25.9062 38.6254 25.9062Z" fill="white"/>
<path d="M77.4711 12.1285C75.6787 12.1164 74.2081 12.3055 72.9552 12.7047C66.5746 14.7378 66.0166 23.3021 66.0166 29.9989C66.0166 30.3343 66.4014 30.5249 66.6705 30.3247C73.1956 25.47 77.9331 24.0012 88.6688 25.6903C88.8016 25.7112 88.9256 25.6093 88.9256 25.4747C88.9256 21.7512 88.33 17.7862 85.7212 15.1294C83.8971 13.2716 81.5378 12.2477 77.4711 12.1285Z" fill="white"/>
<path d="M75.576 16.4336C78.1922 16.4336 80.3129 19.017 80.3129 22.2039C80.3129 23.2279 80.0941 24.2125 79.7101 25.046C76.7769 25.2741 75.2444 25.6221 72.6478 26.6826C71.5803 25.6244 70.8394 24.0113 70.8394 22.2039C70.8394 19.017 72.9601 16.4336 75.576 16.4336Z" fill="#333333"/>
<path fill-rule="evenodd" clip-rule="evenodd" d="M78.2733 21.8951C77.0516 22.2225 75.7382 21.2822 75.3398 19.7949C74.9414 18.3078 75.6085 16.8368 76.8302 16.5094C78.0518 16.182 79.3651 17.1223 79.7637 18.6096C80.1621 20.0967 79.4948 21.5677 78.2733 21.8951ZM72.3895 25.9072C71.4381 25.9072 70.667 25.0204 70.667 23.9264C70.667 22.8324 71.4381 21.9456 72.3895 21.9456C73.3407 21.9456 74.112 22.8324 74.112 23.9264C74.112 25.0204 73.3407 25.9072 72.3895 25.9072Z" fill="white"/>
<path d="M74.1245 0.627658L68.6087 5.937C67.9862 6.53636 68.5798 7.56959 69.4112 7.33349L71.3234 6.79041C74.29 5.9479 77.4325 5.9484 80.3989 6.79183L89.9523 9.50823C90.5167 9.66874 90.8457 8.89113 90.3373 8.59781L76.1054 0.385798C75.465 0.0162424 74.6572 0.114852 74.1245 0.627658Z" fill="#333333"/>
<path d="M35.9119 0.464096L41.4277 5.77342C42.0504 6.37278 41.4566 7.40603 40.6252 7.16991L38.713 6.62683C35.7464 5.78434 32.6039 5.78484 29.6377 6.62825L20.0843 9.34464C19.5197 9.50516 19.1908 8.72755 19.6991 8.43423L33.931 0.222235C34.5714 -0.147336 35.3792 -0.0487261 35.9119 0.464096Z" fill="#333333"/>
<path d="M98.1261 16.9627C98.3331 16.5493 98.9427 16.6164 99.0548 17.065L99.5672 19.1167C99.6024 19.2578 99.6975 19.3763 99.8275 19.4414L101.719 20.388C102.132 20.5948 102.065 21.2044 101.616 21.3165L99.5647 21.829C99.4236 21.8642 99.3051 21.9593 99.24 22.0893L98.2936 23.9805C98.0866 24.394 97.477 24.3269 97.365 23.8784L96.8525 21.8265C96.8173 21.6855 96.7222 21.5668 96.5922 21.5018L94.701 20.5553C94.2875 20.3485 94.3547 19.7389 94.8033 19.6268L96.855 19.1142C96.9959 19.079 97.1146 18.9839 97.1797 18.8539L98.1261 16.9627Z" fill="#FFD612"/>
<path d="M88.1179 51.0325C88.3249 50.6192 88.9345 50.6862 89.0465 51.1348L89.2746 52.0478C89.3098 52.1889 89.4049 52.3075 89.5349 52.3726L90.3764 52.7937C90.7899 53.0007 90.7229 53.6103 90.2743 53.7224L89.3611 53.9503C89.2202 53.9857 89.1016 54.0806 89.0366 54.2106L88.6152 55.0523C88.4084 55.4658 87.7988 55.3986 87.6868 54.95L87.4587 54.037C87.4235 53.896 87.3284 53.7773 87.1984 53.7124L86.3569 53.2911C85.9434 53.0842 86.0104 52.4747 86.459 52.3626L87.372 52.1345C87.5131 52.0993 87.6317 52.0042 87.6967 51.8742L88.1179 51.0325Z" fill="#CE4869"/>
<path d="M16.688 3.8573C16.7976 3.4081 17.4067 3.33752 17.616 3.74975L18.5734 5.63548C18.6391 5.7651 18.7583 5.85949 18.8994 5.89391L20.9542 6.39463C21.4033 6.50408 21.474 7.11327 21.0617 7.32258L19.176 8.27994C19.0463 8.34575 18.952 8.46488 18.9177 8.6061L18.4168 10.6608C18.3074 11.11 17.6982 11.1806 17.489 10.7683L16.5316 8.88262C16.4657 8.753 16.3467 8.65863 16.2054 8.62419L14.1508 8.12348C13.7015 8.01402 13.631 7.40483 14.0432 7.19553L15.9289 6.23816C16.0585 6.17236 16.153 6.05323 16.1873 5.912L16.688 3.8573Z" fill="#CE4869"/>
<path d="M11.8866 13.5907C11.996 13.1415 12.6052 13.0709 12.8145 13.4831L13.2405 14.3223C13.3063 14.452 13.4255 14.5463 13.5667 14.5808L14.4811 14.8036C14.9301 14.913 15.0009 15.5222 14.5885 15.7316L13.7493 16.1576C13.6198 16.2233 13.5254 16.3425 13.491 16.4838L13.2682 17.3982C13.1587 17.8472 12.5496 17.9179 12.3403 17.5056L11.9141 16.6664C11.8484 16.5369 11.7292 16.4424 11.5881 16.4081L10.6737 16.1851C10.2245 16.0757 10.1539 15.4666 10.5661 15.2573L11.4053 14.8311C11.535 14.7654 11.6292 14.6462 11.6638 14.5051L11.8866 13.5907Z" fill="#296BA7"/>
<defs>
<filter id="filter0_d_2995_1455" x="0" y="2.29053" width="108.354" height="66.8354" filterUnits="userSpaceOnUse" color-interpolation-filters="sRGB">
<feFlood flood-opacity="0" result="BackgroundImageFix"/>
<feColorMatrix in="SourceAlpha" type="matrix" values="0 0 0 0 0 0 0 0 0 0 0 0 0 0 0 0 0 0 127 0" result="hardAlpha"/>
<feOffset dy="2"/>
<feGaussianBlur stdDeviation="5"/>
<feComposite in2="hardAlpha" operator="out"/>
<feColorMatrix type="matrix" values="0 0 0 0 0 0 0 0 0 0 0 0 0 0 0 0 0 0 0.05 0"/>
<feBlend mode="normal" in2="BackgroundImageFix" result="effect1_dropShadow_2995_1455"/>
<feBlend mode="normal" in="SourceGraphic" in2="effect1_dropShadow_2995_1455" result="shape"/>
</filter>
<filter id="filter1_d_2995_1455" x="13.5728" y="25.7148" width="83.8599" height="43.8286" filterUnits="userSpaceOnUse" color-interpolation-filters="sRGB">
<feFlood flood-opacity="0" result="BackgroundImageFix"/>
<feColorMatrix in="SourceAlpha" type="matrix" values="0 0 0 0 0 0 0 0 0 0 0 0 0 0 0 0 0 0 127 0" result="hardAlpha"/>
<feOffset dy="2"/>
<feGaussianBlur stdDeviation="5"/>
<feComposite in2="hardAlpha" operator="out"/>
<feColorMatrix type="matrix" values="0 0 0 0 0 0 0 0 0 0 0 0 0 0 0 0 0 0 0.05 0"/>
<feBlend mode="normal" in2="BackgroundImageFix" result="effect1_dropShadow_2995_1455"/>
<feBlend mode="normal" in="SourceGraphic" in2="effect1_dropShadow_2995_1455" result="shape"/>
</filter>
</defs>
</svg>
