<svg width="23" height="23" viewBox="0 0 23 23" fill="none" xmlns="http://www.w3.org/2000/svg">
<path d="M0.671964 0.67172C1.08218 0.261627 1.63848 0.03125 2.21853 0.03125C2.79857 0.03125 3.35487 0.261627 3.76509 0.67172L11.5001 8.40672L19.2351 0.67172C19.6477 0.273249 20.2002 0.0527618 20.7738 0.0577458C21.3473 0.0627299 21.896 0.292787 22.3016 0.698367C22.7071 1.10395 22.9372 1.6526 22.9422 2.22616C22.9472 2.79971 22.7267 3.35228 22.3282 3.76485L14.5932 11.4998L22.3282 19.2348C22.7267 19.6474 22.9472 20.2 22.9422 20.7735C22.9372 21.3471 22.7071 21.8957 22.3016 22.3013C21.896 22.7069 21.3473 22.937 20.7738 22.9419C20.2002 22.9469 19.6477 22.7264 19.2351 22.328L11.5001 14.593L3.76509 22.328C3.35252 22.7264 2.79995 22.9469 2.2264 22.9419C1.65284 22.937 1.10419 22.7069 0.698611 22.3013C0.293031 21.8957 0.062974 21.3471 0.05799 20.7735C0.0530059 20.2 0.273494 19.6474 0.671964 19.2348L8.40696 11.4998L0.671964 3.76485C0.261871 3.35463 0.0314941 2.79833 0.0314941 2.21828C0.0314941 1.63824 0.261871 1.08194 0.671964 0.67172Z" fill="#2A55C2"/>
</svg>
