<svg width="104" height="125" viewBox="0 0 104 125" fill="none" xmlns="http://www.w3.org/2000/svg">
<path d="M11.9999 29C11.9999 23.4772 16.477 19 21.9999 19H84.9999C90.5227 19 94.9999 23.4772 94.9999 29V92C94.9999 105.807 83.807 117 69.9999 117H36.9999C23.1928 117 11.9999 105.807 11.9999 92V29Z" fill="#508D3F"/>
<path d="M11.9999 29C11.9999 23.4772 16.477 19 21.9999 19H84.9999C90.5227 19 94.9999 23.4772 94.9999 29V69.5C94.9999 92.4198 76.4197 111 53.4999 111C30.5801 111 11.9999 92.4198 11.9999 69.5V29Z" fill="#46C4FF"/>
<path d="M11.9999 29C11.9999 23.4772 16.477 19 21.9999 19H84.9999C90.5227 19 94.9999 23.4772 94.9999 29V87C94.9999 100.255 84.2547 111 70.9999 111H35.9999C22.745 111 11.9999 100.255 11.9999 87V29Z" fill="#7AD761"/>
<path d="M25.9999 30C25.9999 29.4477 26.4476 29 26.9999 29H80.9999C81.5522 29 81.9999 29.4477 81.9999 30V71C81.9999 86.464 69.4639 99 53.9999 99C38.5359 99 25.9999 86.464 25.9999 71V30Z" fill="#60AF4B"/>
<path d="M38.1538 46.2633C37.1757 46.9154 36.1568 48.138 35.8308 48.8716C35.1788 50.5017 35.0565 55.6774 35.7086 56.8592C36.1161 57.6743 35.5455 60.4455 34.812 60.8938C34.649 61.016 33.9562 61.8311 33.2634 62.6869C32.163 64.0725 32 64.6023 32 66.803C32 68.9629 32.163 69.5335 33.1411 70.7968C35.7086 74.0164 39.5801 76.1355 44.3075 76.9506C45.7746 77.1951 47.1602 77.5619 47.3233 77.7249C47.7308 78.0917 59.8753 78.0917 60.2828 77.7249C60.4458 77.5619 61.8314 77.1951 63.2986 76.9506C68.026 76.1355 71.8975 74.0164 74.465 70.7968C75.4431 69.5335 75.6061 68.9629 75.6061 66.803C75.6061 64.6023 75.4431 64.0725 74.3427 62.6869C73.6499 61.8311 72.9571 61.016 72.7941 60.8938C72.0605 60.4455 71.49 57.6743 71.8975 56.8592C72.5496 55.6774 72.4273 50.5017 71.7753 48.8716C71.4492 48.138 70.4304 46.9154 69.4523 46.2633C67.9037 45.1222 67.4554 45 64.7249 45C62.1982 45 61.3832 45.163 59.916 46.0188C58.938 46.5894 58.0414 47.3229 57.9191 47.649C57.5931 48.5455 50.013 48.5455 49.6869 47.649C49.5647 47.3229 48.6681 46.5894 47.69 46.0188C46.2229 45.163 45.4078 45 42.8811 45C40.1507 45 39.7024 45.1222 38.1538 46.2633ZM45.5301 49.6866C45.8154 50.0534 46.3044 50.5832 46.5897 50.9092C47.1602 51.5613 47.2417 54.7808 46.6712 54.7808C46.4674 54.7808 46.2637 55.0661 46.2637 55.3921C46.2637 56.5739 43.4924 57.226 41.1287 56.5739C39.1726 56.0441 38.6428 51.765 40.3544 50.0942C41.5363 48.8716 44.6743 48.6678 45.5301 49.6866ZM67.2516 50.0942C68.9633 51.765 68.4335 56.0441 66.4773 56.5739C64.1136 57.226 61.3424 56.5739 61.3424 55.3921C61.3424 55.0661 61.1794 54.7808 60.9349 54.7808C60.3643 54.7808 60.4458 51.5613 61.0571 50.9092C61.3017 50.5832 61.7907 50.0534 62.076 49.6866C62.9318 48.6678 66.0698 48.8716 67.2516 50.0942ZM41.9438 65.5804C42.5959 66.151 43.9 66.803 44.7965 67.0475C45.7339 67.2921 46.712 67.6996 47.038 67.9441C47.4048 68.2701 49.7277 68.4332 53.803 68.4332C57.8784 68.4332 60.2013 68.2701 60.5681 67.9441C60.8941 67.6996 61.8722 67.2921 62.8095 67.0475C63.7061 66.803 65.0102 66.151 65.6623 65.5804C67.0886 64.3578 68.2705 64.2356 68.2705 65.3359C68.2705 66.0287 67.5777 66.64 65.0102 68.1886C61.7907 70.104 56.0852 71.0821 50.8688 70.5931C46.2229 70.1855 39.3356 67.0068 39.3356 65.2951C39.3356 64.2356 40.5582 64.3578 41.9438 65.5804Z" fill="#2B5121"/>
<path d="M41.3733 52.9874V54.8213L43.0849 54.699C44.9596 54.5768 45.3264 54.0062 44.8781 52.0908C44.6743 51.2757 44.389 51.1127 43.0034 51.1127H41.3733V52.9874Z" fill="#2B5121"/>
<path d="M62.728 52.0908C62.2797 54.0062 62.6465 54.5768 64.5211 54.699L66.2328 54.8213V52.9874V51.1127H64.6026C63.217 51.1127 62.9318 51.2757 62.728 52.0908Z" fill="#2B5121"/>
<path d="M74.7445 18.7685L88.9714 18.7684L90.6039 18.7685L92.0033 19.0017L92.9362 19.4682L93.6359 20.1678L94.3355 20.8675L94.802 22.0336L94.802 40.925L58.0688 76.1422L21.3357 111.359L19.2368 109.494L17.371 107.395L15.7384 105.062L14.3391 102.497L13.1729 99.6981L12.4732 96.8994L12.0067 93.8675L12.0067 90.7155L12.0068 78.941L74.7445 18.7685Z" fill="white" fill-opacity="0.29"/>
</svg>
