<svg width="104" height="125" viewBox="0 0 104 125" fill="none" xmlns="http://www.w3.org/2000/svg">
<path d="M11.9999 29C11.9999 23.4772 16.477 19 21.9999 19H84.9999C90.5227 19 94.9999 23.4772 94.9999 29V92C94.9999 105.807 83.807 117 69.9999 117H36.9999C23.1928 117 11.9999 105.807 11.9999 92V29Z" fill="#FFC100"/>
<path d="M11.9999 29C11.9999 23.4772 16.477 19 21.9999 19H84.9999C90.5227 19 94.9999 23.4772 94.9999 29V69.5C94.9999 92.4198 76.4197 111 53.4999 111C30.5801 111 11.9999 92.4198 11.9999 69.5V29Z" fill="#46C4FF"/>
<path d="M11.9999 29C11.9999 23.4772 16.477 19 21.9999 19H84.9999C90.5227 19 94.9999 23.4772 94.9999 29V87C94.9999 100.255 84.2547 111 70.9999 111H35.9999C22.745 111 11.9999 100.255 11.9999 87V29Z" fill="#FEE333"/>
<path d="M25.9999 30C25.9999 29.4477 26.4476 29 26.9999 29H80.9999C81.5522 29 81.9999 29.4477 81.9999 30V71C81.9999 86.464 69.4639 99 53.9999 99C38.5359 99 25.9999 86.464 25.9999 71V30Z" fill="#FEC701"/>
<path d="M53.0425 43.9101C52.9177 44.4924 52.6266 44.9916 52.4602 44.9916C52.2938 44.9916 51.8363 45.8234 51.3788 46.8632C50.9629 47.9031 50.5053 48.7349 50.339 48.7349C50.1726 48.7349 49.7151 49.65 49.2991 50.8146C48.8832 51.9376 48.4257 52.8942 48.3009 52.8942C48.1345 52.8942 47.677 53.6845 47.2195 54.6411C46.8036 55.6393 46.3045 56.5128 46.1797 56.6376C46.0133 56.7623 45.5558 57.6774 45.1399 58.7172C44.7239 59.757 44.2664 60.6721 44.1416 60.7969C43.3929 61.3376 42.4779 63.8331 42.4779 65.3721V67.0358H47.2611C52.0027 67.0358 52.0443 67.0358 51.8779 67.9508C51.7531 68.4915 51.462 70.8623 51.2124 73.2747C50.9629 75.6871 50.5469 78.0163 50.339 78.4738C50.0894 78.973 49.9646 80.3455 50.0478 81.5933L50.1726 83.8809L51.9195 84.0057C53.5 84.1305 53.708 84.0473 53.9576 83.0907C54.0823 82.5084 54.3735 82.0092 54.5399 82.0092C54.7062 82.0092 55.2053 81.1774 55.6629 80.1376C56.0788 79.0977 56.5363 78.2659 56.6611 78.2659C56.8275 78.2659 57.285 77.3508 57.7009 76.1862C58.1168 75.0632 58.5744 74.1066 58.6991 74.1066C58.8655 74.1066 59.323 73.3163 59.7806 72.3181C60.1965 71.3615 60.654 70.488 60.8204 70.3632C60.9452 70.2385 61.4859 69.3234 61.985 68.2836C62.4841 67.2438 63.2744 65.7464 63.6903 64.9562C64.1478 64.1659 64.5222 62.7101 64.5222 61.7119V59.965H59.739C54.9974 59.965 54.9558 59.965 55.1222 59.0084C55.2469 58.5092 55.5381 56.1385 55.7876 53.7261C56.0372 51.3137 56.4531 48.9845 56.6611 48.5269C56.9106 48.0278 57.0354 46.6553 56.9522 45.4075L56.8275 43.1199L55.0806 42.9951C53.5 42.8703 53.2921 42.9535 53.0425 43.9101Z" fill="#F89701"/>
<path d="M36.3221 46.3228C35.2823 47.3627 35.7814 48.9432 37.6947 50.9397C39.3168 52.645 39.7743 52.8945 41.2301 52.8945C42.6443 52.8945 42.8938 52.7698 42.9354 51.9379C43.0602 50.0246 42.769 49.4423 40.8974 47.6538C38.9425 45.7821 37.3204 45.3246 36.3221 46.3228Z" fill="#F89701"/>
<path d="M66.061 47.6954C64.1478 49.5255 63.8982 50.0246 64.023 51.9379C64.1062 52.7698 64.3557 52.8945 65.7699 52.8945C67.2256 52.8945 67.6832 52.645 69.3053 50.9397C71.2186 48.9432 71.7177 47.3627 70.6779 46.3229C69.638 45.283 68.0575 45.7821 66.061 47.6954Z" fill="#F89701"/>
<path d="M37.7363 75.9364C35.6566 78.2656 35.2823 79.1807 36.0726 80.3037C37.1124 81.7594 38.7345 81.4267 40.9805 79.3055C42.7274 77.6002 42.9354 77.2258 42.8106 75.8533C42.6858 74.3559 42.6027 74.3143 41.0221 74.2311C39.5248 74.1479 39.192 74.3143 37.7363 75.9364Z" fill="#F89701"/>
<path d="M64.3974 74.3976C64.231 74.5224 64.1062 75.271 64.1062 76.0613C64.1062 77.1843 64.4805 77.8082 66.0611 79.3055C68.0575 81.2188 69.6381 81.7179 70.6779 80.6781C71.7177 79.6383 71.2186 78.0578 69.3053 76.0613C67.808 74.4808 67.1841 74.1064 66.0611 74.1064C65.2708 74.1064 64.5221 74.2312 64.3974 74.3976Z" fill="#F89701"/>
<path d="M74.7445 18.7685L88.9714 18.7684L90.6039 18.7685L92.0033 19.0017L92.9362 19.4682L93.6359 20.1678L94.3355 20.8675L94.802 22.0336L94.802 40.925L58.0688 76.1422L21.3357 111.359L19.2368 109.494L17.371 107.395L15.7384 105.062L14.3391 102.497L13.1729 99.6981L12.4732 96.8994L12.0067 93.8675L12.0067 90.7155L12.0068 78.941L74.7445 18.7685Z" fill="white" fill-opacity="0.29"/>
</svg>
