<svg width="181" height="205" viewBox="0 0 181 205" fill="none" xmlns="http://www.w3.org/2000/svg">
<path d="M40.8618 38.29C41.7343 32.8365 46.8626 29.1229 52.3161 29.9954L154.714 46.3786C160.168 47.2511 163.882 52.3794 163.009 57.8329L145.464 167.494C143.282 181.128 130.462 190.412 116.828 188.231L44.0529 176.587C30.4192 174.406 21.1352 161.585 23.3165 147.952L40.8618 38.29Z" fill="#850014"/>
<path d="M40.8618 38.2899C41.7343 32.8364 46.8626 29.1229 52.3161 29.9954L154.714 46.3786C160.168 47.2511 163.882 52.3794 163.009 57.8329L151.3 131.016C146.676 159.92 119.496 179.602 90.5924 174.977L73.114 172.181C44.2105 167.556 24.5284 140.377 29.1528 111.473L40.8618 38.2899Z" fill="#46C4FF"/>
<path d="M40.8623 38.2899C41.7348 32.8364 46.8631 29.1229 52.3166 29.9954L154.715 46.3786C160.168 47.2511 163.882 52.3794 163.009 57.8329L146.719 159.652C144.625 172.74 132.317 181.653 119.229 179.559L44.4787 167.599C31.3903 165.505 22.4777 153.197 24.5717 140.109L40.8623 38.2899Z" fill="#E10531"/>
<path d="M60.5334 47.4157C60.6207 46.8703 61.1335 46.499 61.6788 46.5862L142.117 59.4558C142.662 59.5431 143.033 60.0559 142.946 60.6013L133.215 121.423C129.574 144.181 108.173 159.678 85.4157 156.037C62.6581 152.396 47.1611 130.995 50.8022 108.238L60.5334 47.4157Z" fill="#AE001A"/>
<path d="M79.9719 75.012L79.5385 77.7209L76.8296 77.2875L74.1207 76.8541L73.6873 79.563L73.2539 82.2719L70.545 81.8385L67.8362 81.4051L65.7775 94.2723L63.7188 107.139L66.4277 107.573L69.1365 108.006L68.7031 110.715L68.2697 113.424L70.9786 113.857C73.6198 114.28 73.6767 114.359 73.3083 116.661C72.9507 118.896 73.0645 119.053 75.2993 119.411C77.6019 119.779 77.6587 119.858 77.2362 122.499L76.8028 125.208L79.5116 125.641L82.2205 126.074L81.7871 128.783L81.3537 131.492L89.1418 132.738L96.9298 133.984L97.3632 131.275L97.7966 128.567L100.505 129L103.214 129.433L103.648 126.724C104.07 124.083 104.149 124.026 106.451 124.395C108.686 124.752 108.843 124.639 109.201 122.404C109.569 120.101 109.648 120.044 112.289 120.467L114.998 120.9L115.431 118.191L115.865 115.483L118.574 115.916L121.283 116.349L123.341 103.482L125.4 90.615L122.691 90.1816L119.982 89.7482L120.416 87.0393L120.849 84.3304L118.14 83.897L115.431 83.4636L115.865 80.7547L116.298 78.0458L113.589 77.6124L110.88 77.179L110.447 79.8879L110.013 82.5968L107.305 82.1634L104.596 81.7299L104.162 84.4388C103.74 87.08 103.661 87.1369 101.359 86.7685C99.1238 86.4109 98.9666 86.5247 98.6091 88.7595C98.2515 90.9944 98.0944 91.1081 95.8596 90.7506C93.6247 90.393 93.511 90.2359 93.8685 88.0011C94.2261 85.7662 94.1123 85.6091 91.8775 85.2516C89.5749 84.8832 89.5181 84.8046 89.9406 82.1634L90.374 79.4546L87.6652 79.0211L84.9563 78.5877L85.3897 75.8789L85.8231 73.17L83.1142 72.7366L80.4053 72.3032L79.9719 75.012Z" fill="#6B0015"/>
<path d="M134.835 42.8485L154.288 46.3107L155.642 47.2816L156.996 48.253L158.35 49.2242L160.322 51.049L161.44 53.492L162.532 58.9493L159.136 80.178L96.7852 123.356L34.4346 166.535L31.7851 163.295L29.5335 159.766L27.68 155.95L26.2247 151.845L25.1676 147.451L24.7969 143.168L24.8242 138.596L25.5664 133.958L28.3388 116.63L134.835 42.8485Z" fill="white" fill-opacity="0.29"/>
</svg>
