<svg width="103" height="123" viewBox="0 0 103 123" fill="none" xmlns="http://www.w3.org/2000/svg">
<path d="M12.0004 27.3887C12.0004 21.8658 16.4775 17.3887 22.0004 17.3887L85.0009 17.3887C90.5237 17.3887 95.0009 21.8658 95.0009 27.3887V90.3892C95.0009 104.196 83.808 115.389 70.0009 115.389H37.0004C23.1932 115.389 12.0004 104.196 12.0004 90.3892L12.0004 27.3887Z" fill="#7B2BBE"/>
<path d="M12.0004 27.3887C12.0004 21.8658 16.4775 17.3887 22.0004 17.3887L85.0009 17.3887C90.5237 17.3887 95.0009 21.8658 95.0009 27.3887V67.889C95.0009 90.8089 76.4206 109.389 53.5006 109.389C30.5807 109.389 12.0004 90.8089 12.0004 67.889L12.0004 27.3887Z" fill="#46C4FF"/>
<path d="M12.0004 27.3887C12.0004 21.8658 16.4775 17.3887 22.0004 17.3887L85.0009 17.3887C90.5237 17.3887 95.0009 21.8658 95.0009 27.3887V85.3892C95.0009 98.644 84.2557 109.389 71.0009 109.389H36.0004C22.7455 109.389 12.0004 98.644 12.0004 85.3892L12.0004 27.3887Z" fill="#C67DFF"/>
<path d="M26.0006 28.3887C26.0006 27.8364 26.4483 27.3887 27.0006 27.3887H81.0009C81.5532 27.3887 82.0009 27.8364 82.0009 28.3887V69.3889C82.0009 84.853 69.4648 97.3891 54.0008 97.3891C38.5367 97.3891 26.0006 84.853 26.0006 69.3889V28.3887Z" fill="#9D4EDD"/>
<path d="M63.1987 38.5967C63.7402 38.5967 64.2595 38.8118 64.6424 39.1947C65.0253 39.5776 65.2404 40.0969 65.2404 40.6384V42.68C65.2404 43.2215 65.0253 43.7408 64.6424 44.1237C64.2595 44.5066 63.7402 44.7217 63.1987 44.7217C62.6572 44.7217 62.1379 44.5066 61.755 44.1237C61.3721 43.7408 61.157 43.2215 61.157 42.68V40.6384C61.157 40.0969 61.3721 39.5776 61.755 39.1947C62.1379 38.8118 62.6572 38.5967 63.1987 38.5967ZM55.2423 43.1905C55.513 42.7215 55.959 42.3794 56.482 42.2392C57.005 42.0991 57.5623 42.1725 58.0312 42.4432L59.7993 43.464C60.2644 43.7367 60.6028 44.1823 60.7406 44.7035C60.8784 45.2247 60.8044 45.7793 60.5349 46.2462C60.2653 46.7131 59.822 47.0545 59.3017 47.1957C58.7814 47.337 58.2263 47.2667 57.7576 47.0002L55.9895 45.9794C55.5206 45.7086 55.1784 45.2627 55.0383 44.7397C54.8982 44.2167 54.9715 43.6594 55.2423 43.1905ZM70.4079 45.9794C70.6419 45.8463 70.8474 45.6682 71.0123 45.4554C71.1773 45.2426 71.2986 44.9993 71.3691 44.7395C71.4397 44.4796 71.4581 44.2084 71.4234 43.9414C71.3887 43.6744 71.3015 43.4168 71.1669 43.1837C71.0323 42.9505 70.8528 42.7462 70.6389 42.5827C70.425 42.4191 70.1809 42.2995 69.9206 42.2307C69.6603 42.1618 69.3889 42.1452 69.1222 42.1817C68.8554 42.2181 68.5985 42.307 68.3662 42.4432L66.5981 43.464C66.364 43.5971 66.1586 43.7752 65.9936 43.988C65.8286 44.2008 65.7074 44.4441 65.6368 44.704C65.5663 44.9638 65.5478 45.2351 65.5826 45.5021C65.6173 45.7691 65.7044 46.0266 65.8391 46.2598C65.9737 46.4929 66.1531 46.6972 66.367 46.8608C66.5809 47.0243 66.825 47.1439 67.0853 47.2128C67.3457 47.2816 67.617 47.2982 67.8838 47.2618C68.1506 47.2253 68.4075 47.1364 68.6398 47.0002L70.4079 45.9794ZM60.4628 48.4457C60.7247 47.9977 61.1473 47.6662 61.6448 47.5186C62.1422 47.371 62.6772 47.4184 63.1411 47.651C63.6049 47.8837 63.9627 48.2843 64.1418 48.7713C64.3209 49.2584 64.3078 49.7953 64.1052 50.273L63.999 50.4874L63.4376 51.4593L65.2057 52.4801C65.5382 52.6722 65.8098 52.9542 65.9892 53.2936C66.1687 53.6331 66.2488 54.0163 66.2204 54.3993L66.1857 54.6565L65.9386 55.8611C69.7647 60.8142 70.5814 67.6681 67.3188 73.3175C62.9455 80.8921 53.0679 83.1931 45.3361 78.7279C37.6022 74.2628 34.656 64.5587 39.0293 56.984C42.1939 51.5042 48.2536 48.7806 54.2725 49.387L54.838 49.4523L55.7568 48.6356C56.0444 48.3806 56.3982 48.2119 56.7775 48.1491C57.1567 48.0862 57.546 48.1317 57.9005 48.2804L58.1333 48.3967L59.9014 49.4176L60.4628 48.4457ZM52.484 55.4569C51.0636 55.457 49.6683 55.831 48.4383 56.5413C47.2083 57.2517 46.1869 58.2733 45.4769 59.5035C45.2144 59.9546 45.1347 60.4892 45.2541 60.9974C45.3735 61.5055 45.683 61.9486 46.119 62.2356C46.555 62.5226 47.0844 62.6318 47.5984 62.5405C48.1123 62.4493 48.5718 62.1647 48.8824 61.7452L49.0131 61.5451C49.6971 60.361 50.8955 59.6546 52.1695 59.5525L52.488 59.5402C53.0295 59.5397 53.5486 59.3241 53.9311 58.9408C54.3136 58.5575 54.5282 58.038 54.5277 57.4965C54.5271 56.955 54.3115 56.4359 53.9282 56.0534C53.545 55.6709 53.0255 55.4563 52.484 55.4569ZM68.6398 48.5662L70.4079 49.587C70.6419 49.7201 70.8474 49.8982 71.0123 50.111C71.1773 50.3238 71.2986 50.5671 71.3691 50.827C71.4397 51.0868 71.4581 51.3581 71.4234 51.6251C71.3887 51.8921 71.3015 52.1496 71.1669 52.3828C71.0323 52.6159 70.8528 52.8202 70.6389 52.9837C70.425 53.1473 70.1809 53.2669 69.9206 53.3358C69.6603 53.4046 69.3889 53.4212 69.1222 53.3848C68.8554 53.3483 68.5985 53.2594 68.3662 53.1232L66.5981 52.1024C66.364 51.9693 66.1586 51.7912 65.9936 51.5784C65.8286 51.3656 65.7074 51.1223 65.6368 50.8625C65.5663 50.6026 65.5478 50.3314 65.5826 50.0644C65.6173 49.7973 65.7044 49.5398 65.8391 49.3067C65.9737 49.0735 66.1531 48.8692 66.367 48.7057C66.5809 48.5421 66.825 48.4225 67.0853 48.3537C67.3457 48.2848 67.617 48.2682 67.8838 48.3047C68.1506 48.3411 68.4075 48.43 68.6398 48.5662Z" fill="#6513A9"/>
<path d="M74.745 17.1573L88.0006 17.3891L89.0004 17.8889L90.0008 18.3889L91.0004 18.8889L92.5005 19.8889L93.5005 21.3889L94.8026 24.8889L94.8026 39.314L58.0692 74.5314L21.3359 109.749L19.237 107.883L17.3712 105.784L15.7386 103.452L14.3392 100.886L13.1731 98.0875L12.4734 95.2887L12.0069 92.2568L12.0069 89.1048L12.0069 77.3302L74.745 17.1573Z" fill="white" fill-opacity="0.29"/>
</svg>
