<svg width="182" height="212" viewBox="0 0 182 212" fill="none" xmlns="http://www.w3.org/2000/svg">
<path d="M23.7466 60.3329C22.8741 54.8794 26.5877 49.7512 32.0412 48.8786L133.227 32.6894C138.681 31.8168 143.809 35.5304 144.681 40.9839L162.694 153.564C164.875 167.198 155.591 180.019 141.957 182.2L70.3946 193.65C56.7609 195.831 43.9402 186.547 41.7589 172.913L23.7466 60.3329Z" fill="#FFC100"/>
<path d="M23.7466 60.3329C22.8741 54.8794 26.5877 49.7512 32.0412 48.8786L133.227 32.6894C138.681 31.8168 143.809 35.5304 144.681 40.9839L156.829 116.907C161.453 145.811 141.771 172.991 112.868 177.615L96.6016 180.218C67.6982 184.842 40.5184 165.16 35.894 136.256L23.7466 60.3329Z" fill="#46C4FF"/>
<path d="M23.7466 60.3329C22.8741 54.8794 26.5877 49.7512 32.0412 48.8786L133.227 32.6894C138.681 31.8168 143.809 35.5304 144.681 40.9839L161.41 145.543C163.504 158.632 154.592 170.939 141.503 173.033L67.9658 184.799C54.8775 186.893 42.5696 177.981 40.4756 164.892L23.7466 60.3329Z" fill="#FEE333"/>
<path d="M45.125 63.1969C45.0378 62.6516 45.4091 62.1387 45.9545 62.0515L125.574 49.3127C126.12 49.2255 126.632 49.5968 126.72 50.1422L136.85 113.458C140.455 135.99 125.112 157.178 102.58 160.783C80.0482 164.388 58.8602 149.045 55.2553 126.513L45.125 63.1969Z" fill="#FEC701"/>
<g clip-path="url(#clip0_891_1732)">
<path d="M87.9506 78.291C87.9087 79.1943 87.6044 80.0116 87.362 80.0504C87.1195 80.0892 86.6527 81.4448 86.2359 83.1127C85.8797 84.7709 85.4129 86.1265 85.1705 86.1653C84.928 86.2041 84.4812 87.6846 84.155 89.5302C83.8187 91.3133 83.3819 92.8563 83.2001 92.8853C82.9577 92.9241 82.4809 94.2173 82.044 95.7603C81.6778 97.356 81.1604 98.7838 81.0086 99.0003C80.7961 99.2264 80.3493 100.707 79.9931 102.365C79.6368 104.023 79.19 105.504 79.0382 105.72C78.0772 106.707 77.3435 110.667 77.7131 112.978L78.1128 115.476L85.0821 114.36C91.9909 113.255 92.0515 113.245 92.0289 114.658C91.9769 115.499 92.1222 119.126 92.3381 122.807C92.554 126.487 92.5075 130.081 92.3144 130.816C92.0707 131.624 92.2186 133.714 92.6396 135.568L93.3709 138.974L95.9462 138.754C98.2791 138.573 98.5621 138.399 98.6959 136.905C98.7379 136.001 99.0422 135.184 99.2846 135.145C99.527 135.107 100.054 133.741 100.471 132.073C100.827 130.415 101.294 129.06 101.476 129.03C101.719 128.992 102.165 127.511 102.492 125.666C102.828 123.882 103.265 122.339 103.446 122.31C103.689 122.272 104.166 120.978 104.593 119.373C104.969 117.84 105.426 116.422 105.638 116.195C105.79 115.979 106.358 114.479 106.835 112.802C107.313 111.124 108.104 108.692 108.521 107.408C108.997 106.115 109.193 103.842 108.953 102.343L108.534 99.7202L101.564 100.835C94.6557 101.941 94.5951 101.95 94.6077 100.475C94.6696 99.6967 94.5243 96.0692 94.3084 92.389C94.0925 88.7088 94.139 85.1147 94.3321 84.3792C94.5758 83.5717 94.4279 81.4818 94.007 79.6277L93.2756 76.2221L90.7003 76.442C88.3675 76.6231 88.0844 76.7964 87.9506 78.291Z" fill="#F89701"/>
<path d="M64.1679 85.8108C62.9027 87.6144 64.0096 89.8711 67.2769 92.4227C70.0501 94.605 70.7766 94.873 72.8977 94.5336C74.9582 94.204 75.2919 93.9584 75.1527 92.6998C74.8748 89.798 74.3107 88.9916 71.154 86.7426C67.856 84.3881 65.3826 84.0793 64.1679 85.8108Z" fill="#F89701"/>
<path d="M107.829 80.939C105.481 84.1328 105.237 84.9404 105.878 87.784C106.199 89.0136 106.593 89.1427 108.653 88.8131C110.774 88.4737 111.381 87.9923 113.335 85.0538C115.643 81.6102 115.991 79.1208 114.226 77.8019C112.461 76.4831 110.278 77.601 107.829 80.939Z" fill="#F89701"/>
<path d="M73.3425 129.945C70.8718 133.927 70.5462 135.388 71.9675 136.89C73.8322 138.833 76.1158 137.955 78.8788 134.247C81.0145 131.279 81.2276 130.669 80.716 128.637C80.1745 126.418 80.0433 126.375 77.7204 126.618C75.5187 126.843 75.0739 127.17 73.3425 129.945Z" fill="#F89701"/>
<path d="M111.819 121.419C111.607 121.645 111.605 122.798 111.795 123.985C112.064 125.671 112.76 126.521 115.422 128.4C118.791 130.807 121.214 131.188 122.479 129.385C123.744 127.581 122.637 125.324 119.37 122.773C116.809 120.749 115.81 120.332 114.173 120.594C113.022 120.778 111.961 121.14 111.819 121.419Z" fill="#F89701"/>
</g>
<path d="M113.532 35.4843L134.262 32.1677L136.64 31.7871L138.735 31.8111L140.207 32.294L141.394 33.1814L142.582 34.0688L143.542 35.7109L148.08 64.0751L103.018 125.515L57.9558 186.954L54.4494 184.642L51.2266 181.926L48.2876 178.805L45.6324 175.279L43.2609 171.349L41.5692 167.31L40.1611 162.866L39.4039 158.134L36.5754 140.455L113.532 35.4843Z" fill="white" fill-opacity="0.29"/>
<defs>
<clipPath id="clip0_891_1732">
<rect width="69.3521" height="71.4651" fill="white" transform="translate(53.4375 77.7925) rotate(-9.09)"/>
</clipPath>
</defs>
</svg>
