<svg width="36" height="25" viewBox="0 0 36 25" fill="none" xmlns="http://www.w3.org/2000/svg">
<path d="M2.1009 2.78179C3.56014 -0.287714 12.8683 -0.783776 21.9965 3.5558C31.1247 7.89538 36.6164 15.4273 35.1571 18.4968L33.1735 22.3028C31.7142 25.3724 23.3215 25.9768 14.1933 21.6372C5.06507 17.2977 -1.16825 10.1677 0.290998 7.09822L2.1009 2.78179Z" fill="#7AD761"/>
<path fill-rule="evenodd" clip-rule="evenodd" d="M15.2795 17.685C24.4077 22.0245 33.6103 21.7504 35.1593 18.492C36.7095 15.2313 31.1247 7.89538 21.9965 3.5558C12.8683 -0.783775 3.65331 -0.48369 2.10314 2.77707C0.554096 6.03547 6.15123 13.3454 15.2795 17.685Z" fill="#BAFB92"/>
<path fill-rule="evenodd" clip-rule="evenodd" d="M11.2208 3.87615C11.0835 4.1477 11.0123 4.44064 11.0012 4.7448C9.91533 4.91734 9.10762 5.38739 8.69699 6.19968C7.51644 8.53499 10.672 13.047 16.0133 15.7472C21.3545 18.4473 26.5714 18.3477 27.752 16.0124C28.2304 15.2383 28.1868 14.3222 27.7291 13.3456C28.0209 13.1418 28.2552 12.8818 28.414 12.5677C29.1543 11.1031 27.9745 9.01605 25.7786 7.90598C24.1463 7.08082 22.4119 7.02784 21.3252 7.65664C21.0111 7.48306 20.6894 7.31296 20.3609 7.14687C20.032 6.9806 19.7042 6.82172 19.3783 6.67052C19.2394 5.42314 18.1687 4.05904 16.5372 3.23429C14.3414 2.12424 11.9611 2.4116 11.2208 3.87615Z" fill="#7AD761"/>
<path d="M33.8965 13.1455L34.5115 14.0062L34.8912 15.0037L34.9889 15.4239L35.2128 15.9521L35.242 16.3136L35.2706 16.6757L4.29075 9.32616L4.69581 9.83973L3.88569 8.81259L3.27086 7.95182L3.06073 7.62243L2.70276 7.00363L2.62711 6.72939L1.95441 5.1453L33.8965 13.1455Z" fill="white" fill-opacity="0.25"/>
</svg>
