<svg width="116" height="68" viewBox="0 0 116 68" fill="none" xmlns="http://www.w3.org/2000/svg">
<path d="M0.994107 42.7478C-1.78362 32.3812 19.5755 12.1285 50.4041 3.86793C81.2328 -4.39259 109.857 2.46729 112.634 12.8339L115.66 26.0449C118.438 36.4115 99.5011 55.0503 68.6724 63.3108C37.8437 71.5714 8.25999 67.1964 5.48227 56.8298L0.994107 42.7478Z" fill="#7AD761"/>
<path fill-rule="evenodd" clip-rule="evenodd" d="M63.1902 51.5862C94.0189 43.3257 115.579 23.8225 112.63 12.8179C109.679 1.80542 81.2328 -4.39259 50.4041 3.86793C19.5755 12.1285 -1.96096 31.7194 0.989833 42.7319C3.93849 53.7364 32.3615 59.8467 63.1902 51.5862Z" fill="#BAFB92"/>
<path fill-rule="evenodd" clip-rule="evenodd" d="M25.1581 26.7071C25.3842 27.6409 25.8128 28.491 26.4091 29.2447C24.1521 31.8831 23.1731 34.667 23.8493 37.4604C25.7936 45.4914 42.6183 49.8759 60.9867 45.4291C79.355 40.9823 91.6915 30.0602 89.7472 22.029C89.3123 19.1888 87.3316 17.0758 84.2316 15.6653C84.5156 14.5783 84.5465 13.4735 84.2849 12.3931C83.0656 7.35656 75.9557 4.75566 68.4041 6.58381C62.7907 7.94277 58.5132 11.3669 57.1885 15.1037C56.078 15.3297 54.9565 15.5794 53.8266 15.8529C52.6955 16.1268 51.5822 16.4161 50.4892 16.72C47.6011 14.0059 42.2341 12.9193 36.6235 14.2776C29.072 16.1057 23.9388 21.6706 25.1581 26.7071Z" fill="#7AD761"/>
<path d="M98.6465 2.55211L101.887 3.36162L104.843 4.98188L105.938 5.79202L107.558 6.60312L108.368 7.41227L109.178 8.22401L19.6593 53.9951L21.6846 54.4001L17.6339 53.59L14.3934 52.7799L13.2138 52.4184L11.0862 51.6639L10.3428 51.1596L5.48197 48.7293L98.6465 2.55211Z" fill="white" fill-opacity="0.25"/>
</svg>
