<svg width="349" height="116" viewBox="0 0 349 116" fill="none" xmlns="http://www.w3.org/2000/svg">
<g filter="url(#filter0_d_2846_3036)">
<rect x="20" y="15" width="309" height="76" rx="15" fill="white"/>
<rect width="24" height="24" transform="translate(34 41)" fill="white"/>
<path d="M42 53.25L44.5 55.75L50 50.25M55 53C55 48.0294 50.9706 44 46 44C41.0294 44 37 48.0294 37 53C37 57.9706 41.0294 62 46 62C50.9706 62 55 57.9706 55 53Z" stroke="#499136" stroke-width="1.5" stroke-linecap="round" stroke-linejoin="round"/>
<path d="M79.912 47.88V59H78.088V51.384L74.696 59H73.432L70.024 51.384V59H68.2V47.88H70.168L74.072 56.6L77.96 47.88H79.912ZM86.1334 59.144C85.3014 59.144 84.5494 58.9573 83.8774 58.584C83.2054 58.2 82.6774 57.6667 82.2934 56.984C81.9094 56.2907 81.7174 55.4907 81.7174 54.584C81.7174 53.688 81.9147 52.8933 82.3094 52.2C82.704 51.5067 83.2427 50.9733 83.9254 50.6C84.608 50.2267 85.3707 50.04 86.2134 50.04C87.056 50.04 87.8187 50.2267 88.5014 50.6C89.184 50.9733 89.7227 51.5067 90.1174 52.2C90.512 52.8933 90.7094 53.688 90.7094 54.584C90.7094 55.48 90.5067 56.2747 90.1014 56.968C89.696 57.6613 89.1414 58.2 88.4374 58.584C87.744 58.9573 86.976 59.144 86.1334 59.144ZM86.1334 57.56C86.6027 57.56 87.04 57.448 87.4454 57.224C87.8614 57 88.1974 56.664 88.4534 56.216C88.7094 55.768 88.8374 55.224 88.8374 54.584C88.8374 53.944 88.7147 53.4053 88.4694 52.968C88.224 52.52 87.8987 52.184 87.4934 51.96C87.088 51.736 86.6507 51.624 86.1814 51.624C85.712 51.624 85.2747 51.736 84.8694 51.96C84.4747 52.184 84.16 52.52 83.9254 52.968C83.6907 53.4053 83.5734 53.944 83.5734 54.584C83.5734 55.5333 83.8134 56.2693 84.2934 56.792C84.784 57.304 85.3974 57.56 86.1334 57.56ZM96.3365 59.144C95.5045 59.144 94.7525 58.9573 94.0805 58.584C93.4085 58.2 92.8805 57.6667 92.4965 56.984C92.1125 56.2907 91.9205 55.4907 91.9205 54.584C91.9205 53.688 92.1178 52.8933 92.5125 52.2C92.9072 51.5067 93.4458 50.9733 94.1285 50.6C94.8112 50.2267 95.5738 50.04 96.4165 50.04C97.2592 50.04 98.0218 50.2267 98.7045 50.6C99.3872 50.9733 99.9258 51.5067 100.321 52.2C100.715 52.8933 100.913 53.688 100.913 54.584C100.913 55.48 100.71 56.2747 100.305 56.968C99.8992 57.6613 99.3445 58.2 98.6405 58.584C97.9472 58.9573 97.1792 59.144 96.3365 59.144ZM96.3365 57.56C96.8058 57.56 97.2432 57.448 97.6485 57.224C98.0645 57 98.4005 56.664 98.6565 56.216C98.9125 55.768 99.0405 55.224 99.0405 54.584C99.0405 53.944 98.9178 53.4053 98.6725 52.968C98.4272 52.52 98.1018 52.184 97.6965 51.96C97.2912 51.736 96.8538 51.624 96.3845 51.624C95.9152 51.624 95.4778 51.736 95.0725 51.96C94.6778 52.184 94.3632 52.52 94.1285 52.968C93.8938 53.4053 93.7765 53.944 93.7765 54.584C93.7765 55.5333 94.0165 56.2693 94.4965 56.792C94.9872 57.304 95.6005 57.56 96.3365 57.56ZM102.108 54.552C102.108 53.6667 102.289 52.8827 102.652 52.2C103.025 51.5173 103.526 50.9893 104.156 50.616C104.796 50.232 105.505 50.04 106.284 50.04C106.86 50.04 107.425 50.168 107.98 50.424C108.545 50.6693 108.993 51 109.324 51.416V47.16H111.164V59H109.324V57.672C109.025 58.0987 108.609 58.4507 108.076 58.728C107.553 59.0053 106.95 59.144 106.268 59.144C105.5 59.144 104.796 58.952 104.156 58.568C103.526 58.1733 103.025 57.6293 102.652 56.936C102.289 56.232 102.108 55.4373 102.108 54.552ZM109.324 54.584C109.324 53.976 109.196 53.448 108.94 53C108.694 52.552 108.369 52.2107 107.964 51.976C107.558 51.7413 107.121 51.624 106.652 51.624C106.182 51.624 105.745 51.7413 105.34 51.976C104.934 52.2 104.604 52.536 104.348 52.984C104.102 53.4213 103.98 53.944 103.98 54.552C103.98 55.16 104.102 55.6933 104.348 56.152C104.604 56.6107 104.934 56.9627 105.34 57.208C105.756 57.4427 106.193 57.56 106.652 57.56C107.121 57.56 107.558 57.4427 107.964 57.208C108.369 56.9733 108.694 56.632 108.94 56.184C109.196 55.7253 109.324 55.192 109.324 54.584ZM117.108 54.552C117.108 53.6667 117.289 52.8827 117.652 52.2C118.025 51.5173 118.526 50.9893 119.156 50.616C119.796 50.232 120.5 50.04 121.268 50.04C121.961 50.04 122.564 50.1787 123.076 50.456C123.598 50.7227 124.014 51.0587 124.324 51.464V50.184H126.164V59H124.324V57.688C124.014 58.104 123.593 58.4507 123.06 58.728C122.526 59.0053 121.918 59.144 121.236 59.144C120.478 59.144 119.785 58.952 119.156 58.568C118.526 58.1733 118.025 57.6293 117.652 56.936C117.289 56.232 117.108 55.4373 117.108 54.552ZM124.324 54.584C124.324 53.976 124.196 53.448 123.94 53C123.694 52.552 123.369 52.2107 122.964 51.976C122.558 51.7413 122.121 51.624 121.652 51.624C121.182 51.624 120.745 51.7413 120.34 51.976C119.934 52.2 119.604 52.536 119.348 52.984C119.102 53.4213 118.98 53.944 118.98 54.552C118.98 55.16 119.102 55.6933 119.348 56.152C119.604 56.6107 119.934 56.9627 120.34 57.208C120.756 57.4427 121.193 57.56 121.652 57.56C122.121 57.56 122.558 57.4427 122.964 57.208C123.369 56.9733 123.694 56.632 123.94 56.184C124.196 55.7253 124.324 55.192 124.324 54.584ZM130.687 51.672V56.552C130.687 56.8827 130.762 57.1227 130.911 57.272C131.071 57.4107 131.338 57.48 131.711 57.48H132.831V59H131.391C130.57 59 129.941 58.808 129.503 58.424C129.066 58.04 128.847 57.416 128.847 56.552V51.672H127.807V50.184H128.847V47.992H130.687V50.184H132.831V51.672H130.687ZM142.497 50.184V59H140.673V57.96C140.385 58.3227 140.006 58.6107 139.537 58.824C139.078 59.0267 138.587 59.128 138.065 59.128C137.371 59.128 136.747 58.984 136.193 58.696C135.649 58.408 135.217 57.9813 134.897 57.416C134.587 56.8507 134.433 56.168 134.433 55.368V50.184H136.241V55.096C136.241 55.8853 136.438 56.4933 136.833 56.92C137.227 57.336 137.766 57.544 138.449 57.544C139.131 57.544 139.67 57.336 140.065 56.92C140.47 56.4933 140.673 55.8853 140.673 55.096V50.184H142.497ZM144.295 54.552C144.295 53.6667 144.476 52.8827 144.839 52.2C145.212 51.5173 145.714 50.9893 146.343 50.616C146.983 50.232 147.687 50.04 148.455 50.04C149.148 50.04 149.751 50.1787 150.263 50.456C150.786 50.7227 151.202 51.0587 151.511 51.464V50.184H153.351V59H151.511V57.688C151.202 58.104 150.78 58.4507 150.247 58.728C149.714 59.0053 149.106 59.144 148.423 59.144C147.666 59.144 146.972 58.952 146.343 58.568C145.714 58.1733 145.212 57.6293 144.839 56.936C144.476 56.232 144.295 55.4373 144.295 54.552ZM151.511 54.584C151.511 53.976 151.383 53.448 151.127 53C150.882 52.552 150.556 52.2107 150.151 51.976C149.746 51.7413 149.308 51.624 148.839 51.624C148.37 51.624 147.932 51.7413 147.527 51.976C147.122 52.2 146.791 52.536 146.535 52.984C146.29 53.4213 146.167 53.944 146.167 54.552C146.167 55.16 146.29 55.6933 146.535 56.152C146.791 56.6107 147.122 56.9627 147.527 57.208C147.943 57.4427 148.38 57.56 148.839 57.56C149.308 57.56 149.746 57.4427 150.151 57.208C150.556 56.9733 150.882 56.632 151.127 56.184C151.383 55.7253 151.511 55.192 151.511 54.584ZM157.571 47.16V59H155.747V47.16H157.571ZM160.894 49.016C160.563 49.016 160.286 48.904 160.062 48.68C159.838 48.456 159.726 48.1787 159.726 47.848C159.726 47.5173 159.838 47.24 160.062 47.016C160.286 46.792 160.563 46.68 160.894 46.68C161.214 46.68 161.486 46.792 161.71 47.016C161.934 47.24 162.046 47.5173 162.046 47.848C162.046 48.1787 161.934 48.456 161.71 48.68C161.486 48.904 161.214 49.016 160.894 49.016ZM161.79 50.184V59H159.966V50.184H161.79ZM165.8 57.512H169.8V59H163.688V57.512L167.704 51.672H163.688V50.184H169.8V51.672L165.8 57.512ZM171.108 54.552C171.108 53.6667 171.289 52.8827 171.652 52.2C172.025 51.5173 172.526 50.9893 173.156 50.616C173.796 50.232 174.5 50.04 175.268 50.04C175.961 50.04 176.564 50.1787 177.076 50.456C177.598 50.7227 178.014 51.0587 178.324 51.464V50.184H180.164V59H178.324V57.688C178.014 58.104 177.593 58.4507 177.06 58.728C176.526 59.0053 175.918 59.144 175.236 59.144C174.478 59.144 173.785 58.952 173.156 58.568C172.526 58.1733 172.025 57.6293 171.652 56.936C171.289 56.232 171.108 55.4373 171.108 54.552ZM178.324 54.584C178.324 53.976 178.196 53.448 177.94 53C177.694 52.552 177.369 52.2107 176.964 51.976C176.558 51.7413 176.121 51.624 175.652 51.624C175.182 51.624 174.745 51.7413 174.34 51.976C173.934 52.2 173.604 52.536 173.348 52.984C173.102 53.4213 172.98 53.944 172.98 54.552C172.98 55.16 173.102 55.6933 173.348 56.152C173.604 56.6107 173.934 56.9627 174.34 57.208C174.756 57.4427 175.193 57.56 175.652 57.56C176.121 57.56 176.558 57.4427 176.964 57.208C177.369 56.9733 177.694 56.632 177.94 56.184C178.196 55.7253 178.324 55.192 178.324 54.584ZM181.951 54.552C181.951 53.6667 182.133 52.8827 182.495 52.2C182.869 51.5173 183.37 50.9893 183.999 50.616C184.639 50.232 185.349 50.04 186.127 50.04C186.703 50.04 187.269 50.168 187.823 50.424C188.389 50.6693 188.837 51 189.167 51.416V47.16H191.007V59H189.167V57.672C188.869 58.0987 188.453 58.4507 187.919 58.728C187.397 59.0053 186.794 59.144 186.111 59.144C185.343 59.144 184.639 58.952 183.999 58.568C183.37 58.1733 182.869 57.6293 182.495 56.936C182.133 56.232 181.951 55.4373 181.951 54.552ZM189.167 54.584C189.167 53.976 189.039 53.448 188.783 53C188.538 52.552 188.213 52.2107 187.807 51.976C187.402 51.7413 186.965 51.624 186.495 51.624C186.026 51.624 185.589 51.7413 185.183 51.976C184.778 52.2 184.447 52.536 184.191 52.984C183.946 53.4213 183.823 53.944 183.823 54.552C183.823 55.16 183.946 55.6933 184.191 56.152C184.447 56.6107 184.778 56.9627 185.183 57.208C185.599 57.4427 186.037 57.56 186.495 57.56C186.965 57.56 187.402 57.4427 187.807 57.208C188.213 56.9733 188.538 56.632 188.783 56.184C189.039 55.7253 189.167 55.192 189.167 54.584ZM197.227 59.144C196.395 59.144 195.643 58.9573 194.971 58.584C194.299 58.2 193.771 57.6667 193.387 56.984C193.003 56.2907 192.811 55.4907 192.811 54.584C192.811 53.688 193.008 52.8933 193.403 52.2C193.798 51.5067 194.336 50.9733 195.019 50.6C195.702 50.2267 196.464 50.04 197.307 50.04C198.15 50.04 198.912 50.2267 199.595 50.6C200.278 50.9733 200.816 51.5067 201.211 52.2C201.606 52.8933 201.803 53.688 201.803 54.584C201.803 55.48 201.6 56.2747 201.195 56.968C200.79 57.6613 200.235 58.2 199.531 58.584C198.838 58.9573 198.07 59.144 197.227 59.144ZM197.227 57.56C197.696 57.56 198.134 57.448 198.539 57.224C198.955 57 199.291 56.664 199.547 56.216C199.803 55.768 199.931 55.224 199.931 54.584C199.931 53.944 199.808 53.4053 199.563 52.968C199.318 52.52 198.992 52.184 198.587 51.96C198.182 51.736 197.744 51.624 197.275 51.624C196.806 51.624 196.368 51.736 195.963 51.96C195.568 52.184 195.254 52.52 195.019 52.968C194.784 53.4053 194.667 53.944 194.667 54.584C194.667 55.5333 194.907 56.2693 195.387 56.792C195.878 57.304 196.491 57.56 197.227 57.56ZM204.342 59.112C204.012 59.112 203.734 59 203.51 58.776C203.286 58.552 203.174 58.2747 203.174 57.944C203.174 57.6133 203.286 57.336 203.51 57.112C203.734 56.888 204.012 56.776 204.342 56.776C204.662 56.776 204.934 56.888 205.158 57.112C205.382 57.336 205.494 57.6133 205.494 57.944C205.494 58.2747 205.382 58.552 205.158 58.776C204.934 59 204.662 59.112 204.342 59.112ZM204.342 52.392C204.012 52.392 203.734 52.28 203.51 52.056C203.286 51.832 203.174 51.5547 203.174 51.224C203.174 50.8933 203.286 50.616 203.51 50.392C203.734 50.168 204.012 50.056 204.342 50.056C204.662 50.056 204.934 50.168 205.158 50.392C205.382 50.616 205.494 50.8933 205.494 51.224C205.494 51.5547 205.382 51.832 205.158 52.056C204.934 52.28 204.662 52.392 204.342 52.392Z" fill="black"/>
<path d="M221.859 57.016H217.667L216.995 59H214.131L218.195 47.768H221.363L225.427 59H222.531L221.859 57.016ZM221.155 54.904L219.763 50.792L218.387 54.904H221.155ZM229.4 51.336C229.667 50.92 230.035 50.584 230.504 50.328C230.973 50.072 231.523 49.944 232.152 49.944C232.888 49.944 233.555 50.1307 234.152 50.504C234.749 50.8773 235.219 51.4107 235.56 52.104C235.912 52.7973 236.088 53.6027 236.088 54.52C236.088 55.4373 235.912 56.248 235.56 56.952C235.219 57.6453 234.749 58.184 234.152 58.568C233.555 58.9413 232.888 59.128 232.152 59.128C231.533 59.128 230.984 59 230.504 58.744C230.035 58.488 229.667 58.1573 229.4 57.752V63.256H226.664V50.072H229.4V51.336ZM233.304 54.52C233.304 53.8373 233.112 53.304 232.728 52.92C232.355 52.5253 231.891 52.328 231.336 52.328C230.792 52.328 230.328 52.5253 229.944 52.92C229.571 53.3147 229.384 53.8533 229.384 54.536C229.384 55.2187 229.571 55.7573 229.944 56.152C230.328 56.5467 230.792 56.744 231.336 56.744C231.88 56.744 232.344 56.5467 232.728 56.152C233.112 55.7467 233.304 55.2027 233.304 54.52ZM236.979 54.52C236.979 53.6027 237.15 52.7973 237.491 52.104C237.843 51.4107 238.318 50.8773 238.915 50.504C239.513 50.1307 240.179 49.944 240.915 49.944C241.545 49.944 242.094 50.072 242.563 50.328C243.043 50.584 243.411 50.92 243.667 51.336V50.072H246.403V59H243.667V57.736C243.401 58.152 243.027 58.488 242.547 58.744C242.078 59 241.529 59.128 240.899 59.128C240.174 59.128 239.513 58.9413 238.915 58.568C238.318 58.184 237.843 57.6453 237.491 56.952C237.15 56.248 236.979 55.4373 236.979 54.52ZM243.667 54.536C243.667 53.8533 243.475 53.3147 243.091 52.92C242.718 52.5253 242.259 52.328 241.715 52.328C241.171 52.328 240.707 52.5253 240.323 52.92C239.95 53.304 239.763 53.8373 239.763 54.52C239.763 55.2027 239.95 55.7467 240.323 56.152C240.707 56.5467 241.171 56.744 241.715 56.744C242.259 56.744 242.718 56.5467 243.091 56.152C243.475 55.7573 243.667 55.2187 243.667 54.536ZM249.759 49.144C249.279 49.144 248.884 49.0053 248.575 48.728C248.276 48.44 248.127 48.088 248.127 47.672C248.127 47.2453 248.276 46.8933 248.575 46.616C248.884 46.328 249.279 46.184 249.759 46.184C250.228 46.184 250.612 46.328 250.911 46.616C251.22 46.8933 251.375 47.2453 251.375 47.672C251.375 48.088 251.22 48.44 250.911 48.728C250.612 49.0053 250.228 49.144 249.759 49.144ZM251.119 50.072V59H248.383V50.072H251.119ZM258.381 59L256.669 56.52L255.229 59H252.269L255.213 54.44L252.189 50.072H255.261L256.973 52.536L258.413 50.072H261.373L258.381 54.568L261.453 59H258.381ZM266.572 59.128C265.697 59.128 264.908 58.9413 264.204 58.568C263.51 58.1947 262.961 57.6613 262.556 56.968C262.161 56.2747 261.964 55.464 261.964 54.536C261.964 53.6187 262.166 52.8133 262.572 52.12C262.977 51.416 263.532 50.8773 264.236 50.504C264.94 50.1307 265.729 49.944 266.604 49.944C267.478 49.944 268.268 50.1307 268.972 50.504C269.676 50.8773 270.23 51.416 270.636 52.12C271.041 52.8133 271.244 53.6187 271.244 54.536C271.244 55.4533 271.036 56.264 270.62 56.968C270.214 57.6613 269.654 58.1947 268.94 58.568C268.236 58.9413 267.446 59.128 266.572 59.128ZM266.572 56.76C267.094 56.76 267.537 56.568 267.9 56.184C268.273 55.8 268.46 55.2507 268.46 54.536C268.46 53.8213 268.278 53.272 267.916 52.888C267.564 52.504 267.126 52.312 266.604 52.312C266.07 52.312 265.628 52.504 265.276 52.888C264.924 53.2613 264.748 53.8107 264.748 54.536C264.748 55.2507 264.918 55.8 265.26 56.184C265.612 56.568 266.049 56.76 266.572 56.76ZM278.135 49.976C279.18 49.976 280.012 50.3173 280.631 51C281.26 51.672 281.575 52.6 281.575 53.784V59H278.855V54.152C278.855 53.5547 278.7 53.0907 278.391 52.76C278.082 52.4293 277.666 52.264 277.143 52.264C276.62 52.264 276.204 52.4293 275.895 52.76C275.586 53.0907 275.431 53.5547 275.431 54.152V59H272.695V50.072H275.431V51.256C275.708 50.8613 276.082 50.552 276.551 50.328C277.02 50.0933 277.548 49.976 278.135 49.976ZM282.932 54.52C282.932 53.6027 283.103 52.7973 283.444 52.104C283.796 51.4107 284.271 50.8773 284.868 50.504C285.466 50.1307 286.132 49.944 286.868 49.944C287.498 49.944 288.047 50.072 288.516 50.328C288.996 50.584 289.364 50.92 289.62 51.336V50.072H292.356V59H289.62V57.736C289.354 58.152 288.98 58.488 288.5 58.744C288.031 59 287.482 59.128 286.852 59.128C286.127 59.128 285.466 58.9413 284.868 58.568C284.271 58.184 283.796 57.6453 283.444 56.952C283.103 56.248 282.932 55.4373 282.932 54.52ZM289.62 54.536C289.62 53.8533 289.428 53.3147 289.044 52.92C288.671 52.5253 288.212 52.328 287.668 52.328C287.124 52.328 286.66 52.5253 286.276 52.92C285.903 53.304 285.716 53.8373 285.716 54.52C285.716 55.2027 285.903 55.7467 286.276 56.152C286.66 56.5467 287.124 56.744 287.668 56.744C288.212 56.744 288.671 56.5467 289.044 56.152C289.428 55.7573 289.62 55.2187 289.62 54.536ZM293.792 54.52C293.792 53.6027 293.962 52.7973 294.304 52.104C294.656 51.4107 295.13 50.8773 295.728 50.504C296.325 50.1307 296.992 49.944 297.728 49.944C298.314 49.944 298.848 50.0667 299.328 50.312C299.818 50.5573 300.202 50.888 300.48 51.304V47.16H303.216V59H300.48V57.72C300.224 58.1467 299.856 58.488 299.376 58.744C298.906 59 298.357 59.128 297.728 59.128C296.992 59.128 296.325 58.9413 295.728 58.568C295.13 58.184 294.656 57.6453 294.304 56.952C293.962 56.248 293.792 55.4373 293.792 54.52ZM300.48 54.536C300.48 53.8533 300.288 53.3147 299.904 52.92C299.53 52.5253 299.072 52.328 298.528 52.328C297.984 52.328 297.52 52.5253 297.136 52.92C296.762 53.304 296.576 53.8373 296.576 54.52C296.576 55.2027 296.762 55.7467 297.136 56.152C297.52 56.5467 297.984 56.744 298.528 56.744C299.072 56.744 299.53 56.5467 299.904 56.152C300.288 55.7573 300.48 55.2187 300.48 54.536ZM309.259 59.128C308.384 59.128 307.595 58.9413 306.891 58.568C306.198 58.1947 305.648 57.6613 305.243 56.968C304.848 56.2747 304.651 55.464 304.651 54.536C304.651 53.6187 304.854 52.8133 305.259 52.12C305.664 51.416 306.219 50.8773 306.923 50.504C307.627 50.1307 308.416 49.944 309.291 49.944C310.166 49.944 310.955 50.1307 311.659 50.504C312.363 50.8773 312.918 51.416 313.323 52.12C313.728 52.8133 313.931 53.6187 313.931 54.536C313.931 55.4533 313.723 56.264 313.307 56.968C312.902 57.6613 312.342 58.1947 311.627 58.568C310.923 58.9413 310.134 59.128 309.259 59.128ZM309.259 56.76C309.782 56.76 310.224 56.568 310.587 56.184C310.96 55.8 311.147 55.2507 311.147 54.536C311.147 53.8213 310.966 53.272 310.603 52.888C310.251 52.504 309.814 52.312 309.291 52.312C308.758 52.312 308.315 52.504 307.963 52.888C307.611 53.2613 307.435 53.8107 307.435 54.536C307.435 55.2507 307.606 55.8 307.947 56.184C308.299 56.568 308.736 56.76 309.259 56.76Z" fill="#FF9090"/>
</g>
<defs>
<filter id="filter0_d_2846_3036" x="0" y="0" width="349" height="116" filterUnits="userSpaceOnUse" color-interpolation-filters="sRGB">
<feFlood flood-opacity="0" result="BackgroundImageFix"/>
<feColorMatrix in="SourceAlpha" type="matrix" values="0 0 0 0 0 0 0 0 0 0 0 0 0 0 0 0 0 0 127 0" result="hardAlpha"/>
<feOffset dy="5"/>
<feGaussianBlur stdDeviation="10"/>
<feComposite in2="hardAlpha" operator="out"/>
<feColorMatrix type="matrix" values="0 0 0 0 0.164706 0 0 0 0 0.333333 0 0 0 0 0.760784 0 0 0 0.15 0"/>
<feBlend mode="normal" in2="BackgroundImageFix" result="effect1_dropShadow_2846_3036"/>
<feBlend mode="normal" in="SourceGraphic" in2="effect1_dropShadow_2846_3036" result="shape"/>
</filter>
</defs>
</svg>
