<svg width="332" height="116" viewBox="0 0 332 116" fill="none" xmlns="http://www.w3.org/2000/svg">
<g filter="url(#filter0_d_3036_8159)">
<rect x="20" y="15" width="292" height="76" rx="15" fill="#282828"/>
<rect width="24" height="24" transform="translate(34 41)" fill="#282828"/>
<path d="M42 53.25L44.5 55.75L50 50.25M55 53C55 48.0294 50.9706 44 46 44C41.0294 44 37 48.0294 37 53C37 57.9706 41.0294 62 46 62C50.9706 62 55 57.9706 55 53Z" stroke="#ABF47D" stroke-width="1.5" stroke-linecap="round" stroke-linejoin="round"/>
<path d="M79.912 47.88V59H78.088V51.384L74.696 59H73.432L70.024 51.384V59H68.2V47.88H70.168L74.072 56.6L77.96 47.88H79.912ZM86.1334 59.144C85.3014 59.144 84.5494 58.9573 83.8774 58.584C83.2054 58.2 82.6774 57.6667 82.2934 56.984C81.9094 56.2907 81.7174 55.4907 81.7174 54.584C81.7174 53.688 81.9147 52.8933 82.3094 52.2C82.704 51.5067 83.2427 50.9733 83.9254 50.6C84.608 50.2267 85.3707 50.04 86.2134 50.04C87.056 50.04 87.8187 50.2267 88.5014 50.6C89.184 50.9733 89.7227 51.5067 90.1174 52.2C90.512 52.8933 90.7094 53.688 90.7094 54.584C90.7094 55.48 90.5067 56.2747 90.1014 56.968C89.696 57.6613 89.1414 58.2 88.4374 58.584C87.744 58.9573 86.976 59.144 86.1334 59.144ZM86.1334 57.56C86.6027 57.56 87.04 57.448 87.4454 57.224C87.8614 57 88.1974 56.664 88.4534 56.216C88.7094 55.768 88.8374 55.224 88.8374 54.584C88.8374 53.944 88.7147 53.4053 88.4694 52.968C88.224 52.52 87.8987 52.184 87.4934 51.96C87.088 51.736 86.6507 51.624 86.1814 51.624C85.712 51.624 85.2747 51.736 84.8694 51.96C84.4747 52.184 84.16 52.52 83.9254 52.968C83.6907 53.4053 83.5734 53.944 83.5734 54.584C83.5734 55.5333 83.8134 56.2693 84.2934 56.792C84.784 57.304 85.3974 57.56 86.1334 57.56ZM96.3365 59.144C95.5045 59.144 94.7525 58.9573 94.0805 58.584C93.4085 58.2 92.8805 57.6667 92.4965 56.984C92.1125 56.2907 91.9205 55.4907 91.9205 54.584C91.9205 53.688 92.1178 52.8933 92.5125 52.2C92.9072 51.5067 93.4458 50.9733 94.1285 50.6C94.8112 50.2267 95.5738 50.04 96.4165 50.04C97.2592 50.04 98.0218 50.2267 98.7045 50.6C99.3872 50.9733 99.9258 51.5067 100.321 52.2C100.715 52.8933 100.913 53.688 100.913 54.584C100.913 55.48 100.71 56.2747 100.305 56.968C99.8992 57.6613 99.3445 58.2 98.6405 58.584C97.9472 58.9573 97.1792 59.144 96.3365 59.144ZM96.3365 57.56C96.8058 57.56 97.2432 57.448 97.6485 57.224C98.0645 57 98.4005 56.664 98.6565 56.216C98.9125 55.768 99.0405 55.224 99.0405 54.584C99.0405 53.944 98.9178 53.4053 98.6725 52.968C98.4272 52.52 98.1018 52.184 97.6965 51.96C97.2912 51.736 96.8538 51.624 96.3845 51.624C95.9152 51.624 95.4778 51.736 95.0725 51.96C94.6778 52.184 94.3632 52.52 94.1285 52.968C93.8938 53.4053 93.7765 53.944 93.7765 54.584C93.7765 55.5333 94.0165 56.2693 94.4965 56.792C94.9872 57.304 95.6005 57.56 96.3365 57.56ZM102.108 54.552C102.108 53.6667 102.289 52.8827 102.652 52.2C103.025 51.5173 103.526 50.9893 104.156 50.616C104.796 50.232 105.505 50.04 106.284 50.04C106.86 50.04 107.425 50.168 107.98 50.424C108.545 50.6693 108.993 51 109.324 51.416V47.16H111.164V59H109.324V57.672C109.025 58.0987 108.609 58.4507 108.076 58.728C107.553 59.0053 106.95 59.144 106.268 59.144C105.5 59.144 104.796 58.952 104.156 58.568C103.526 58.1733 103.025 57.6293 102.652 56.936C102.289 56.232 102.108 55.4373 102.108 54.552ZM109.324 54.584C109.324 53.976 109.196 53.448 108.94 53C108.694 52.552 108.369 52.2107 107.964 51.976C107.558 51.7413 107.121 51.624 106.652 51.624C106.182 51.624 105.745 51.7413 105.34 51.976C104.934 52.2 104.604 52.536 104.348 52.984C104.102 53.4213 103.98 53.944 103.98 54.552C103.98 55.16 104.102 55.6933 104.348 56.152C104.604 56.6107 104.934 56.9627 105.34 57.208C105.756 57.4427 106.193 57.56 106.652 57.56C107.121 57.56 107.558 57.4427 107.964 57.208C108.369 56.9733 108.694 56.632 108.94 56.184C109.196 55.7253 109.324 55.192 109.324 54.584ZM117.108 54.552C117.108 53.6667 117.289 52.8827 117.652 52.2C118.025 51.5173 118.526 50.9893 119.156 50.616C119.796 50.232 120.5 50.04 121.268 50.04C121.961 50.04 122.564 50.1787 123.076 50.456C123.598 50.7227 124.014 51.0587 124.324 51.464V50.184H126.164V59H124.324V57.688C124.014 58.104 123.593 58.4507 123.06 58.728C122.526 59.0053 121.918 59.144 121.236 59.144C120.478 59.144 119.785 58.952 119.156 58.568C118.526 58.1733 118.025 57.6293 117.652 56.936C117.289 56.232 117.108 55.4373 117.108 54.552ZM124.324 54.584C124.324 53.976 124.196 53.448 123.94 53C123.694 52.552 123.369 52.2107 122.964 51.976C122.558 51.7413 122.121 51.624 121.652 51.624C121.182 51.624 120.745 51.7413 120.34 51.976C119.934 52.2 119.604 52.536 119.348 52.984C119.102 53.4213 118.98 53.944 118.98 54.552C118.98 55.16 119.102 55.6933 119.348 56.152C119.604 56.6107 119.934 56.9627 120.34 57.208C120.756 57.4427 121.193 57.56 121.652 57.56C122.121 57.56 122.558 57.4427 122.964 57.208C123.369 56.9733 123.694 56.632 123.94 56.184C124.196 55.7253 124.324 55.192 124.324 54.584ZM130.687 51.672V56.552C130.687 56.8827 130.762 57.1227 130.911 57.272C131.071 57.4107 131.338 57.48 131.711 57.48H132.831V59H131.391C130.57 59 129.941 58.808 129.503 58.424C129.066 58.04 128.847 57.416 128.847 56.552V51.672H127.807V50.184H128.847V47.992H130.687V50.184H132.831V51.672H130.687ZM142.497 50.184V59H140.673V57.96C140.385 58.3227 140.006 58.6107 139.537 58.824C139.078 59.0267 138.587 59.128 138.065 59.128C137.371 59.128 136.747 58.984 136.193 58.696C135.649 58.408 135.217 57.9813 134.897 57.416C134.587 56.8507 134.433 56.168 134.433 55.368V50.184H136.241V55.096C136.241 55.8853 136.438 56.4933 136.833 56.92C137.227 57.336 137.766 57.544 138.449 57.544C139.131 57.544 139.67 57.336 140.065 56.92C140.47 56.4933 140.673 55.8853 140.673 55.096V50.184H142.497ZM144.295 54.552C144.295 53.6667 144.476 52.8827 144.839 52.2C145.212 51.5173 145.714 50.9893 146.343 50.616C146.983 50.232 147.687 50.04 148.455 50.04C149.148 50.04 149.751 50.1787 150.263 50.456C150.786 50.7227 151.202 51.0587 151.511 51.464V50.184H153.351V59H151.511V57.688C151.202 58.104 150.78 58.4507 150.247 58.728C149.714 59.0053 149.106 59.144 148.423 59.144C147.666 59.144 146.972 58.952 146.343 58.568C145.714 58.1733 145.212 57.6293 144.839 56.936C144.476 56.232 144.295 55.4373 144.295 54.552ZM151.511 54.584C151.511 53.976 151.383 53.448 151.127 53C150.882 52.552 150.556 52.2107 150.151 51.976C149.746 51.7413 149.308 51.624 148.839 51.624C148.37 51.624 147.932 51.7413 147.527 51.976C147.122 52.2 146.791 52.536 146.535 52.984C146.29 53.4213 146.167 53.944 146.167 54.552C146.167 55.16 146.29 55.6933 146.535 56.152C146.791 56.6107 147.122 56.9627 147.527 57.208C147.943 57.4427 148.38 57.56 148.839 57.56C149.308 57.56 149.746 57.4427 150.151 57.208C150.556 56.9733 150.882 56.632 151.127 56.184C151.383 55.7253 151.511 55.192 151.511 54.584ZM157.571 47.16V59H155.747V47.16H157.571ZM160.894 49.016C160.563 49.016 160.286 48.904 160.062 48.68C159.838 48.456 159.726 48.1787 159.726 47.848C159.726 47.5173 159.838 47.24 160.062 47.016C160.286 46.792 160.563 46.68 160.894 46.68C161.214 46.68 161.486 46.792 161.71 47.016C161.934 47.24 162.046 47.5173 162.046 47.848C162.046 48.1787 161.934 48.456 161.71 48.68C161.486 48.904 161.214 49.016 160.894 49.016ZM161.79 50.184V59H159.966V50.184H161.79ZM165.8 57.512H169.8V59H163.688V57.512L167.704 51.672H163.688V50.184H169.8V51.672L165.8 57.512ZM171.108 54.552C171.108 53.6667 171.289 52.8827 171.652 52.2C172.025 51.5173 172.526 50.9893 173.156 50.616C173.796 50.232 174.5 50.04 175.268 50.04C175.961 50.04 176.564 50.1787 177.076 50.456C177.598 50.7227 178.014 51.0587 178.324 51.464V50.184H180.164V59H178.324V57.688C178.014 58.104 177.593 58.4507 177.06 58.728C176.526 59.0053 175.918 59.144 175.236 59.144C174.478 59.144 173.785 58.952 173.156 58.568C172.526 58.1733 172.025 57.6293 171.652 56.936C171.289 56.232 171.108 55.4373 171.108 54.552ZM178.324 54.584C178.324 53.976 178.196 53.448 177.94 53C177.694 52.552 177.369 52.2107 176.964 51.976C176.558 51.7413 176.121 51.624 175.652 51.624C175.182 51.624 174.745 51.7413 174.34 51.976C173.934 52.2 173.604 52.536 173.348 52.984C173.102 53.4213 172.98 53.944 172.98 54.552C172.98 55.16 173.102 55.6933 173.348 56.152C173.604 56.6107 173.934 56.9627 174.34 57.208C174.756 57.4427 175.193 57.56 175.652 57.56C176.121 57.56 176.558 57.4427 176.964 57.208C177.369 56.9733 177.694 56.632 177.94 56.184C178.196 55.7253 178.324 55.192 178.324 54.584ZM181.951 54.552C181.951 53.6667 182.133 52.8827 182.495 52.2C182.869 51.5173 183.37 50.9893 183.999 50.616C184.639 50.232 185.349 50.04 186.127 50.04C186.703 50.04 187.269 50.168 187.823 50.424C188.389 50.6693 188.837 51 189.167 51.416V47.16H191.007V59H189.167V57.672C188.869 58.0987 188.453 58.4507 187.919 58.728C187.397 59.0053 186.794 59.144 186.111 59.144C185.343 59.144 184.639 58.952 183.999 58.568C183.37 58.1733 182.869 57.6293 182.495 56.936C182.133 56.232 181.951 55.4373 181.951 54.552ZM189.167 54.584C189.167 53.976 189.039 53.448 188.783 53C188.538 52.552 188.213 52.2107 187.807 51.976C187.402 51.7413 186.965 51.624 186.495 51.624C186.026 51.624 185.589 51.7413 185.183 51.976C184.778 52.2 184.447 52.536 184.191 52.984C183.946 53.4213 183.823 53.944 183.823 54.552C183.823 55.16 183.946 55.6933 184.191 56.152C184.447 56.6107 184.778 56.9627 185.183 57.208C185.599 57.4427 186.037 57.56 186.495 57.56C186.965 57.56 187.402 57.4427 187.807 57.208C188.213 56.9733 188.538 56.632 188.783 56.184C189.039 55.7253 189.167 55.192 189.167 54.584ZM197.227 59.144C196.395 59.144 195.643 58.9573 194.971 58.584C194.299 58.2 193.771 57.6667 193.387 56.984C193.003 56.2907 192.811 55.4907 192.811 54.584C192.811 53.688 193.008 52.8933 193.403 52.2C193.798 51.5067 194.336 50.9733 195.019 50.6C195.702 50.2267 196.464 50.04 197.307 50.04C198.15 50.04 198.912 50.2267 199.595 50.6C200.278 50.9733 200.816 51.5067 201.211 52.2C201.606 52.8933 201.803 53.688 201.803 54.584C201.803 55.48 201.6 56.2747 201.195 56.968C200.79 57.6613 200.235 58.2 199.531 58.584C198.838 58.9573 198.07 59.144 197.227 59.144ZM197.227 57.56C197.696 57.56 198.134 57.448 198.539 57.224C198.955 57 199.291 56.664 199.547 56.216C199.803 55.768 199.931 55.224 199.931 54.584C199.931 53.944 199.808 53.4053 199.563 52.968C199.318 52.52 198.992 52.184 198.587 51.96C198.182 51.736 197.744 51.624 197.275 51.624C196.806 51.624 196.368 51.736 195.963 51.96C195.568 52.184 195.254 52.52 195.019 52.968C194.784 53.4053 194.667 53.944 194.667 54.584C194.667 55.5333 194.907 56.2693 195.387 56.792C195.878 57.304 196.491 57.56 197.227 57.56ZM204.342 59.112C204.012 59.112 203.734 59 203.51 58.776C203.286 58.552 203.174 58.2747 203.174 57.944C203.174 57.6133 203.286 57.336 203.51 57.112C203.734 56.888 204.012 56.776 204.342 56.776C204.662 56.776 204.934 56.888 205.158 57.112C205.382 57.336 205.494 57.6133 205.494 57.944C205.494 58.2747 205.382 58.552 205.158 58.776C204.934 59 204.662 59.112 204.342 59.112ZM204.342 52.392C204.012 52.392 203.734 52.28 203.51 52.056C203.286 51.832 203.174 51.5547 203.174 51.224C203.174 50.8933 203.286 50.616 203.51 50.392C203.734 50.168 204.012 50.056 204.342 50.056C204.662 50.056 204.934 50.168 205.158 50.392C205.382 50.616 205.494 50.8933 205.494 51.224C205.494 51.5547 205.382 51.832 205.158 52.056C204.934 52.28 204.662 52.392 204.342 52.392Z" fill="#DADADC"/>
<path d="M217.603 49.96V52.232H221.267V54.344H217.603V56.808H221.747V59H214.867V47.768H221.747V49.96H217.603ZM228.963 49.976C230.009 49.976 230.841 50.3173 231.459 51C232.089 51.672 232.403 52.6 232.403 53.784V59H229.683V54.152C229.683 53.5547 229.529 53.0907 229.219 52.76C228.91 52.4293 228.494 52.264 227.971 52.264C227.449 52.264 227.033 52.4293 226.723 52.76C226.414 53.0907 226.259 53.5547 226.259 54.152V59H223.523V50.072H226.259V51.256C226.537 50.8613 226.91 50.552 227.379 50.328C227.849 50.0933 228.377 49.976 228.963 49.976ZM239.281 56.68V59H237.889C236.897 59 236.123 58.76 235.569 58.28C235.014 57.7893 234.737 56.9947 234.737 55.896V52.344H233.649V50.072H234.737V47.896H237.473V50.072H239.265V52.344H237.473V55.928C237.473 56.1947 237.537 56.3867 237.665 56.504C237.793 56.6213 238.006 56.68 238.305 56.68H239.281ZM249.22 54.392C249.22 54.648 249.205 54.9147 249.173 55.192H242.981C243.023 55.7467 243.199 56.1733 243.509 56.472C243.829 56.76 244.218 56.904 244.677 56.904C245.359 56.904 245.834 56.616 246.101 56.04H249.013C248.863 56.6267 248.591 57.1547 248.197 57.624C247.813 58.0933 247.327 58.4613 246.741 58.728C246.154 58.9947 245.498 59.128 244.773 59.128C243.898 59.128 243.119 58.9413 242.437 58.568C241.754 58.1947 241.221 57.6613 240.837 56.968C240.453 56.2747 240.261 55.464 240.261 54.536C240.261 53.608 240.447 52.7973 240.821 52.104C241.205 51.4107 241.738 50.8773 242.421 50.504C243.103 50.1307 243.887 49.944 244.773 49.944C245.637 49.944 246.405 50.1253 247.077 50.488C247.749 50.8507 248.271 51.368 248.645 52.04C249.029 52.712 249.22 53.496 249.22 54.392ZM246.421 53.672C246.421 53.2027 246.261 52.8293 245.941 52.552C245.621 52.2747 245.221 52.136 244.741 52.136C244.282 52.136 243.893 52.2693 243.573 52.536C243.263 52.8027 243.071 53.1813 242.997 53.672H246.421ZM250.12 54.52C250.12 53.6027 250.291 52.7973 250.632 52.104C250.984 51.4107 251.459 50.8773 252.056 50.504C252.653 50.1307 253.32 49.944 254.056 49.944C254.643 49.944 255.176 50.0667 255.656 50.312C256.147 50.5573 256.531 50.888 256.808 51.304V47.16H259.544V59H256.808V57.72C256.552 58.1467 256.184 58.488 255.704 58.744C255.235 59 254.685 59.128 254.056 59.128C253.32 59.128 252.653 58.9413 252.056 58.568C251.459 58.184 250.984 57.6453 250.632 56.952C250.291 56.248 250.12 55.4373 250.12 54.52ZM256.808 54.536C256.808 53.8533 256.616 53.3147 256.232 52.92C255.859 52.5253 255.4 52.328 254.856 52.328C254.312 52.328 253.848 52.5253 253.464 52.92C253.091 53.304 252.904 53.8373 252.904 54.52C252.904 55.2027 253.091 55.7467 253.464 56.152C253.848 56.5467 254.312 56.744 254.856 56.744C255.4 56.744 255.859 56.5467 256.232 56.152C256.616 55.7573 256.808 55.2187 256.808 54.536ZM262.899 49.144C262.419 49.144 262.025 49.0053 261.715 48.728C261.417 48.44 261.267 48.088 261.267 47.672C261.267 47.2453 261.417 46.8933 261.715 46.616C262.025 46.328 262.419 46.184 262.899 46.184C263.369 46.184 263.753 46.328 264.051 46.616C264.361 46.8933 264.515 47.2453 264.515 47.672C264.515 48.088 264.361 48.44 264.051 48.728C263.753 49.0053 263.369 49.144 262.899 49.144ZM264.259 50.072V59H261.523V50.072H264.259ZM265.698 54.52C265.698 53.6027 265.869 52.7973 266.21 52.104C266.562 51.4107 267.037 50.8773 267.634 50.504C268.231 50.1307 268.898 49.944 269.634 49.944C270.263 49.944 270.813 50.072 271.282 50.328C271.762 50.584 272.13 50.92 272.386 51.336V50.072H275.122V59H272.386V57.736C272.119 58.152 271.746 58.488 271.266 58.744C270.797 59 270.247 59.128 269.618 59.128C268.893 59.128 268.231 58.9413 267.634 58.568C267.037 58.184 266.562 57.6453 266.21 56.952C265.869 56.248 265.698 55.4373 265.698 54.52ZM272.386 54.536C272.386 53.8533 272.194 53.3147 271.81 52.92C271.437 52.5253 270.978 52.328 270.434 52.328C269.89 52.328 269.426 52.5253 269.042 52.92C268.669 53.304 268.482 53.8373 268.482 54.52C268.482 55.2027 268.669 55.7467 269.042 56.152C269.426 56.5467 269.89 56.744 270.434 56.744C270.978 56.744 271.437 56.5467 271.81 56.152C272.194 55.7573 272.386 55.2187 272.386 54.536ZM276.557 54.52C276.557 53.6027 276.728 52.7973 277.069 52.104C277.421 51.4107 277.896 50.8773 278.493 50.504C279.091 50.1307 279.757 49.944 280.493 49.944C281.08 49.944 281.613 50.0667 282.093 50.312C282.584 50.5573 282.968 50.888 283.245 51.304V47.16H285.981V59H283.245V57.72C282.989 58.1467 282.621 58.488 282.141 58.744C281.672 59 281.123 59.128 280.493 59.128C279.757 59.128 279.091 58.9413 278.493 58.568C277.896 58.184 277.421 57.6453 277.069 56.952C276.728 56.248 276.557 55.4373 276.557 54.52ZM283.245 54.536C283.245 53.8533 283.053 53.3147 282.669 52.92C282.296 52.5253 281.837 52.328 281.293 52.328C280.749 52.328 280.285 52.5253 279.901 52.92C279.528 53.304 279.341 53.8373 279.341 54.52C279.341 55.2027 279.528 55.7467 279.901 56.152C280.285 56.5467 280.749 56.744 281.293 56.744C281.837 56.744 282.296 56.5467 282.669 56.152C283.053 55.7573 283.245 55.2187 283.245 54.536ZM292.025 59.128C291.15 59.128 290.361 58.9413 289.657 58.568C288.963 58.1947 288.414 57.6613 288.009 56.968C287.614 56.2747 287.417 55.464 287.417 54.536C287.417 53.6187 287.619 52.8133 288.025 52.12C288.43 51.416 288.985 50.8773 289.689 50.504C290.393 50.1307 291.182 49.944 292.057 49.944C292.931 49.944 293.721 50.1307 294.425 50.504C295.129 50.8773 295.683 51.416 296.089 52.12C296.494 52.8133 296.697 53.6187 296.697 54.536C296.697 55.4533 296.489 56.264 296.073 56.968C295.667 57.6613 295.107 58.1947 294.393 58.568C293.689 58.9413 292.899 59.128 292.025 59.128ZM292.025 56.76C292.547 56.76 292.99 56.568 293.353 56.184C293.726 55.8 293.913 55.2507 293.913 54.536C293.913 53.8213 293.731 53.272 293.369 52.888C293.017 52.504 292.579 52.312 292.057 52.312C291.523 52.312 291.081 52.504 290.729 52.888C290.377 53.2613 290.201 53.8107 290.201 54.536C290.201 55.2507 290.371 55.8 290.713 56.184C291.065 56.568 291.502 56.76 292.025 56.76Z" fill="#E9E0E0"/>
</g>
<defs>
<filter id="filter0_d_3036_8159" x="0" y="0" width="332" height="116" filterUnits="userSpaceOnUse" color-interpolation-filters="sRGB">
<feFlood flood-opacity="0" result="BackgroundImageFix"/>
<feColorMatrix in="SourceAlpha" type="matrix" values="0 0 0 0 0 0 0 0 0 0 0 0 0 0 0 0 0 0 127 0" result="hardAlpha"/>
<feOffset dy="5"/>
<feGaussianBlur stdDeviation="10"/>
<feComposite in2="hardAlpha" operator="out"/>
<feColorMatrix type="matrix" values="0 0 0 0 0.164706 0 0 0 0 0.333333 0 0 0 0 0.760784 0 0 0 0.15 0"/>
<feBlend mode="normal" in2="BackgroundImageFix" result="effect1_dropShadow_3036_8159"/>
<feBlend mode="normal" in="SourceGraphic" in2="effect1_dropShadow_3036_8159" result="shape"/>
</filter>
</defs>
</svg>
