<svg width="564" height="116" viewBox="0 0 564 116" fill="none" xmlns="http://www.w3.org/2000/svg">
<g filter="url(#filter0_d_3036_8211)">
<rect x="20" y="15" width="524" height="76" rx="15" fill="#282828"/>
<path d="M40.2911 35.4518C40.2911 32.6013 42.6384 30.2905 45.5339 30.2905H78.563C81.4584 30.2905 83.8057 32.6013 83.8057 35.4518V67.9679C83.8057 75.0941 77.9376 80.8712 70.6989 80.8712H53.3979C46.1592 80.8712 40.2911 75.0941 40.2911 67.9679V35.4518Z" fill="#1F9DD3"/>
<path d="M40.2911 35.4518C40.2911 32.6013 42.6384 30.2905 45.5339 30.2905H78.563C81.4584 30.2905 83.8057 32.6013 83.8057 35.4518V56.355C83.8057 68.1846 74.0646 77.7744 62.0484 77.7744C50.0322 77.7744 40.2911 68.1846 40.2911 56.355V35.4518Z" fill="#46C4FF"/>
<path d="M40.2911 35.4518C40.2911 32.6013 42.6384 30.2905 45.5339 30.2905H78.563C81.4584 30.2905 83.8057 32.6013 83.8057 35.4518V65.3873C83.8057 72.2285 78.1723 77.7744 71.2232 77.7744H52.8737C45.9245 77.7744 40.2911 72.2285 40.2911 65.3873V35.4518Z" fill="#46C4FF"/>
<path d="M47.631 35.9678C47.631 35.6827 47.8657 35.4517 48.1553 35.4517H76.4659C76.7554 35.4517 76.9902 35.6827 76.9902 35.9678V57.1291C76.9902 65.1105 70.4179 71.5807 62.3106 71.5807C54.2033 71.5807 47.631 65.1105 47.631 57.1291V35.9678Z" fill="#1CB0F6"/>
<path d="M64.8058 43.5826C64.6305 44.4455 63.8514 44.6372 63.2281 43.9661C62.2543 42.9307 60.8714 43.8511 61.6115 45.0399C61.8063 45.3275 61.7868 45.4809 61.4752 45.8069C61.183 46.1329 60.9688 46.1712 60.1897 46.0753C59.2937 45.9603 59.2548 45.9794 59.1184 46.4588C58.9626 47.1299 59.1379 47.5326 59.6248 47.5326C59.8391 47.5326 60.0144 47.6093 60.0144 47.7052C60.0144 47.8011 60.1897 47.9545 60.4039 48.012C60.6182 48.0695 60.8519 48.3379 60.9104 48.6064C61.0467 49.1625 61.5531 49.2008 62.0206 48.6831C62.1958 48.4722 62.4685 48.2996 62.6243 48.2996C62.7802 48.2996 63.0333 48.1271 63.1892 47.9161C63.7735 47.0916 65.8965 46.6889 67.1431 47.1491C67.8248 47.4176 68.5065 48.0887 68.7792 48.7598C69.2466 49.987 68.8376 52.077 68.0001 52.6523C67.7858 52.8057 67.6105 53.0549 67.6105 53.2083C67.6105 53.3617 67.4352 53.6302 67.221 53.8028C66.6951 54.2629 66.734 54.7615 67.2989 54.8957C67.5715 54.9533 67.8442 55.1834 67.9027 55.3943C67.9611 55.6052 68.1169 55.7778 68.2143 55.7778C68.3117 55.7778 68.3896 55.9503 68.3896 56.1613C68.3896 56.6407 68.7986 56.8132 69.4803 56.6598C69.9673 56.5256 69.9868 56.4872 69.8699 55.6052C69.7725 54.8382 69.8114 54.6273 70.1426 54.3396C70.4736 54.0329 70.6295 54.0137 70.9216 54.2055C72.1292 54.9341 73.0641 53.5727 72.0124 52.6139C71.3307 52.0003 71.5254 51.2333 72.4019 51.0608C73.0252 50.9457 73.0641 50.9074 73.0641 50.1212C73.0641 49.3351 73.0252 49.2967 72.4019 49.1817C71.5254 49.0091 71.3501 48.2996 72.0124 47.6668C72.4993 47.2258 72.5967 46.6698 72.3045 46.2096C72.1682 46.0178 71.8955 45.9794 71.2333 46.0561C70.0452 46.2287 69.714 45.9027 69.8893 44.7331C69.9673 44.0812 69.9283 43.8127 69.7335 43.6785C69.2661 43.3908 68.7012 43.4867 68.2533 43.9661C67.6105 44.618 66.8898 44.4455 66.7146 43.5826C66.5977 42.969 66.5588 42.9307 65.7602 42.9307C64.9616 42.9307 64.9227 42.969 64.8058 43.5826Z" fill="#0076AC"/>
<path d="M58.2614 49.1433C58.2614 49.6802 57.9303 49.987 57.1707 50.1212C56.7422 50.2171 56.489 50.1212 56.08 49.7569C55.5541 49.2583 55.145 49.1241 55.145 49.4309C55.145 49.5268 54.9698 49.6418 54.7555 49.6994C54.4244 49.7761 54.3855 49.9103 54.4828 50.6773C54.6581 51.9045 54.366 52.2113 53.1583 52.077C52.3598 51.9812 52.1845 52.0195 51.9313 52.3838C51.5028 52.9782 51.5612 53.3042 52.165 53.7836C52.6325 54.1479 52.6715 54.2438 52.4961 54.8382C52.3598 55.3367 52.165 55.5285 51.6781 55.6819C51.1133 55.8353 51.0548 55.9312 51.0548 56.6406C51.0548 57.3501 51.1133 57.4459 51.6781 57.5993C52.165 57.7527 52.3598 57.9445 52.4961 58.4239C52.652 58.9991 52.613 59.1142 52.165 59.536C51.5612 60.0921 51.5223 60.3222 51.9313 60.8974C52.1845 61.2617 52.3598 61.3001 53.1583 61.2042C54.366 61.07 54.6581 61.3768 54.5023 62.5848C54.3855 63.3135 54.4439 63.4668 54.7944 63.7353C55.3982 64.138 55.632 64.0996 56.1968 63.5052C56.6253 63.0642 56.7422 63.0258 57.3265 63.1792C57.8134 63.3135 58.0082 63.5052 58.164 63.9845C58.3199 64.5406 58.4172 64.5982 59.1379 64.5982C59.8585 64.5982 59.956 64.5406 60.1118 63.9845C60.2676 63.5052 60.4623 63.3135 60.9687 63.1792C61.5725 63.0066 61.67 63.045 62.04 63.5052C62.5269 64.0996 62.8581 64.1571 63.4813 63.7353C63.8319 63.4668 63.8903 63.3135 63.7735 62.5848C63.6177 61.3768 63.9098 61.07 65.1369 61.2234C65.9744 61.3192 66.1107 61.2809 66.1887 60.955C66.2471 60.744 66.364 60.5714 66.4613 60.5714C66.773 60.5714 66.6366 60.1688 66.1302 59.6511C65.7602 59.2484 65.6628 58.9991 65.7602 58.5772C65.8965 57.8294 66.2082 57.5035 66.7535 57.5035C67.182 57.5035 67.2209 57.4268 67.2209 56.6406C67.2209 55.8545 67.182 55.7778 66.7535 55.7778C66.2082 55.7778 65.8965 55.4518 65.7407 54.6848C65.6433 54.2246 65.7212 54.0328 66.1302 53.726C66.6366 53.3234 66.812 52.7098 66.4419 52.7098C66.3445 52.7098 66.2471 52.5947 66.2471 52.4414C66.2471 52.0003 65.916 51.9045 65.1564 52.1154C64.1241 52.403 63.4424 51.7319 63.7345 50.7156C63.9488 49.9678 63.8514 49.6418 63.4034 49.6418C63.2476 49.6418 63.1307 49.546 63.1307 49.4501C63.1307 49.0857 62.5075 49.2583 62.0984 49.7569C61.7868 50.1595 61.592 50.2362 61.1246 50.1404C60.3455 49.987 60.0144 49.6802 60.0144 49.1433C60.0144 48.7215 59.9364 48.6831 59.1379 48.6831C58.3393 48.6831 58.2614 48.7215 58.2614 49.1433ZM60.7156 52.9015C61.3973 53.17 62.6633 54.4163 62.936 55.0874C63.1892 55.7778 63.1892 57.4843 62.9165 58.2513C62.6438 59.0183 61.6894 59.977 60.8519 60.303C60.0728 60.629 58.3588 60.6482 57.4628 60.3413C56.6448 60.0537 55.6709 59.095 55.3788 58.2897C55.0671 57.4076 55.0866 55.7202 55.4177 54.9532C55.7488 54.1671 56.7227 53.1892 57.4239 52.9399C58.1445 52.6714 60.0533 52.6522 60.7156 52.9015Z" fill="#0076AC"/>
<path d="M57.9304 55.3752C57.3266 55.8737 57.3071 57.331 57.8719 57.8871C58.4368 58.4432 59.917 58.424 60.4234 57.8295C60.9493 57.1968 60.9104 55.9504 60.3455 55.4327C59.7612 54.8958 58.5342 54.8767 57.9304 55.3752Z" fill="#0076AC"/>
<path d="M65.0201 49.3735C64.9422 49.4502 64.8837 49.8529 64.8837 50.2555V51.0033L65.7213 50.9458C66.5393 50.8883 66.5393 50.8883 66.5393 50.1213C66.5393 49.3735 66.5198 49.3543 65.8576 49.2968C65.4681 49.2584 65.098 49.2968 65.0201 49.3735Z" fill="#0076AC"/>
<path d="M73.1865 30.1709L80.1359 30.2905L80.6601 30.5484L81.1845 30.8065L81.7087 31.0646L82.4951 31.5807L83.0193 32.3549L83.702 34.1613V41.6065L64.4439 59.7831L45.1857 77.9595L44.0853 76.9969L43.1072 75.9136L42.2512 74.7094L41.5176 73.3856L40.9062 71.941L40.5394 70.4965L40.2948 68.9317V67.3048V61.2277L73.1865 30.1709Z" fill="white" fill-opacity="0.29"/>
<path d="M113.784 47.88L109.608 59H107.496L103.304 47.88H105.256L108.552 57.128L111.864 47.88H113.784ZM119.133 59.144C118.301 59.144 117.549 58.9573 116.877 58.584C116.205 58.2 115.677 57.6667 115.293 56.984C114.909 56.2907 114.717 55.4907 114.717 54.584C114.717 53.688 114.915 52.8933 115.309 52.2C115.704 51.5067 116.243 50.9733 116.925 50.6C117.608 50.2267 118.371 50.04 119.213 50.04C120.056 50.04 120.819 50.2267 121.501 50.6C122.184 50.9733 122.723 51.5067 123.117 52.2C123.512 52.8933 123.709 53.688 123.709 54.584C123.709 55.48 123.507 56.2747 123.101 56.968C122.696 57.6613 122.141 58.2 121.437 58.584C120.744 58.9573 119.976 59.144 119.133 59.144ZM119.133 57.56C119.603 57.56 120.04 57.448 120.445 57.224C120.861 57 121.197 56.664 121.453 56.216C121.709 55.768 121.837 55.224 121.837 54.584C121.837 53.944 121.715 53.4053 121.469 52.968C121.224 52.52 120.899 52.184 120.493 51.96C120.088 51.736 119.651 51.624 119.181 51.624C118.712 51.624 118.275 51.736 117.869 51.96C117.475 52.184 117.16 52.52 116.925 52.968C116.691 53.4053 116.573 53.944 116.573 54.584C116.573 55.5333 116.813 56.2693 117.293 56.792C117.784 57.304 118.397 57.56 119.133 57.56ZM124.905 54.584C124.905 53.6773 125.086 52.8827 125.449 52.2C125.822 51.5067 126.334 50.9733 126.985 50.6C127.635 50.2267 128.382 50.04 129.225 50.04C130.291 50.04 131.171 50.296 131.865 50.808C132.569 51.3093 133.043 52.0293 133.289 52.968H131.321C131.161 52.5307 130.905 52.1893 130.553 51.944C130.201 51.6987 129.758 51.576 129.225 51.576C128.478 51.576 127.881 51.8427 127.433 52.376C126.995 52.8987 126.777 53.6347 126.777 54.584C126.777 55.5333 126.995 56.2747 127.433 56.808C127.881 57.3413 128.478 57.608 129.225 57.608C130.281 57.608 130.979 57.144 131.321 56.216H133.289C133.033 57.112 132.553 57.8267 131.849 58.36C131.145 58.8827 130.27 59.144 129.225 59.144C128.382 59.144 127.635 58.9573 126.985 58.584C126.334 58.2 125.822 57.6667 125.449 56.984C125.086 56.2907 124.905 55.4907 124.905 54.584ZM143.186 54.376C143.186 54.7067 143.165 55.0053 143.122 55.272H136.386C136.44 55.976 136.701 56.5413 137.17 56.968C137.64 57.3947 138.216 57.608 138.898 57.608C139.88 57.608 140.573 57.1973 140.978 56.376H142.946C142.68 57.1867 142.194 57.8533 141.49 58.376C140.797 58.888 139.933 59.144 138.898 59.144C138.056 59.144 137.298 58.9573 136.626 58.584C135.965 58.2 135.442 57.6667 135.058 56.984C134.685 56.2907 134.498 55.4907 134.498 54.584C134.498 53.6773 134.68 52.8827 135.042 52.2C135.416 51.5067 135.933 50.9733 136.594 50.6C137.266 50.2267 138.034 50.04 138.898 50.04C139.73 50.04 140.472 50.2213 141.122 50.584C141.773 50.9467 142.28 51.4587 142.642 52.12C143.005 52.7707 143.186 53.5227 143.186 54.376ZM141.282 53.8C141.272 53.128 141.032 52.5893 140.562 52.184C140.093 51.7787 139.512 51.576 138.818 51.576C138.189 51.576 137.65 51.7787 137.202 52.184C136.754 52.5787 136.488 53.1173 136.402 53.8H141.282ZM138.85 48.184L136.562 49.56V48.136L138.85 46.808L141.138 48.136V49.56L138.85 48.184ZM148.53 54.584C148.53 53.6773 148.711 52.8827 149.074 52.2C149.447 51.5067 149.959 50.9733 150.61 50.6C151.26 50.2267 152.007 50.04 152.85 50.04C153.916 50.04 154.796 50.296 155.49 50.808C156.194 51.3093 156.668 52.0293 156.914 52.968H154.946C154.786 52.5307 154.53 52.1893 154.178 51.944C153.826 51.6987 153.383 51.576 152.85 51.576C152.103 51.576 151.506 51.8427 151.058 52.376C150.62 52.8987 150.402 53.6347 150.402 54.584C150.402 55.5333 150.62 56.2747 151.058 56.808C151.506 57.3413 152.103 57.608 152.85 57.608C153.906 57.608 154.604 57.144 154.946 56.216H156.914C156.658 57.112 156.178 57.8267 155.474 58.36C154.77 58.8827 153.895 59.144 152.85 59.144C152.007 59.144 151.26 58.9573 150.61 58.584C149.959 58.2 149.447 57.6667 149.074 56.984C148.711 56.2907 148.53 55.4907 148.53 54.584ZM162.555 59.144C161.723 59.144 160.971 58.9573 160.299 58.584C159.627 58.2 159.099 57.6667 158.715 56.984C158.331 56.2907 158.139 55.4907 158.139 54.584C158.139 53.688 158.337 52.8933 158.731 52.2C159.126 51.5067 159.665 50.9733 160.347 50.6C161.03 50.2267 161.793 50.04 162.635 50.04C163.478 50.04 164.241 50.2267 164.923 50.6C165.606 50.9733 166.145 51.5067 166.539 52.2C166.934 52.8933 167.131 53.688 167.131 54.584C167.131 55.48 166.929 56.2747 166.523 56.968C166.118 57.6613 165.563 58.2 164.859 58.584C164.166 58.9573 163.398 59.144 162.555 59.144ZM162.555 57.56C163.025 57.56 163.462 57.448 163.867 57.224C164.283 57 164.619 56.664 164.875 56.216C165.131 55.768 165.259 55.224 165.259 54.584C165.259 53.944 165.137 53.4053 164.891 52.968C164.646 52.52 164.321 52.184 163.915 51.96C163.51 51.736 163.073 51.624 162.603 51.624C162.134 51.624 161.697 51.736 161.291 51.96C160.897 52.184 160.582 52.52 160.347 52.968C160.113 53.4053 159.995 53.944 159.995 54.584C159.995 55.5333 160.235 56.2693 160.715 56.792C161.206 57.304 161.819 57.56 162.555 57.56ZM173.382 50.04C174.076 50.04 174.694 50.184 175.238 50.472C175.793 50.76 176.225 51.1867 176.534 51.752C176.844 52.3173 176.998 53 176.998 53.8V59H175.19V54.072C175.19 53.2827 174.993 52.68 174.598 52.264C174.204 51.8373 173.665 51.624 172.982 51.624C172.3 51.624 171.756 51.8373 171.35 52.264C170.956 52.68 170.758 53.2827 170.758 54.072V59H168.934V50.184H170.758V51.192C171.057 50.8293 171.436 50.5467 171.894 50.344C172.364 50.1413 172.86 50.04 173.382 50.04ZM178.717 54.552C178.717 53.6667 178.898 52.8827 179.261 52.2C179.634 51.5173 180.136 50.9893 180.765 50.616C181.405 50.232 182.114 50.04 182.893 50.04C183.576 50.04 184.178 50.1787 184.701 50.456C185.234 50.7333 185.645 51.0693 185.933 51.464V50.184H187.773V63.192H185.933V57.72C185.645 58.1147 185.229 58.4507 184.685 58.728C184.141 59.0053 183.522 59.144 182.829 59.144C182.072 59.144 181.378 58.952 180.749 58.568C180.13 58.1733 179.634 57.6293 179.261 56.936C178.898 56.232 178.717 55.4373 178.717 54.552ZM185.933 54.584C185.933 53.976 185.805 53.448 185.549 53C185.304 52.552 184.978 52.2107 184.573 51.976C184.168 51.7413 183.73 51.624 183.261 51.624C182.792 51.624 182.354 51.7413 181.949 51.976C181.544 52.2 181.213 52.536 180.957 52.984C180.712 53.4213 180.589 53.944 180.589 54.552C180.589 55.16 180.712 55.6933 180.957 56.152C181.213 56.6107 181.544 56.9627 181.949 57.208C182.365 57.4427 182.802 57.56 183.261 57.56C183.73 57.56 184.168 57.4427 184.573 57.208C184.978 56.9733 185.304 56.632 185.549 56.184C185.805 55.7253 185.933 55.192 185.933 54.584ZM198.153 50.184V59H196.329V57.96C196.041 58.3227 195.662 58.6107 195.193 58.824C194.734 59.0267 194.243 59.128 193.721 59.128C193.027 59.128 192.403 58.984 191.849 58.696C191.305 58.408 190.873 57.9813 190.553 57.416C190.243 56.8507 190.089 56.168 190.089 55.368V50.184H191.897V55.096C191.897 55.8853 192.094 56.4933 192.489 56.92C192.883 57.336 193.422 57.544 194.105 57.544C194.787 57.544 195.326 57.336 195.721 56.92C196.126 56.4933 196.329 55.8853 196.329 55.096V50.184H198.153ZM201.487 49.016C201.157 49.016 200.879 48.904 200.655 48.68C200.431 48.456 200.319 48.1787 200.319 47.848C200.319 47.5173 200.431 47.24 200.655 47.016C200.879 46.792 201.157 46.68 201.487 46.68C201.807 46.68 202.079 46.792 202.303 47.016C202.527 47.24 202.639 47.5173 202.639 47.848C202.639 48.1787 202.527 48.456 202.303 48.68C202.079 48.904 201.807 49.016 201.487 49.016ZM202.383 50.184V59H200.559V50.184H202.383ZM207.978 59.144C207.285 59.144 206.661 59.0213 206.106 58.776C205.562 58.52 205.13 58.1787 204.81 57.752C204.49 57.3147 204.319 56.8293 204.298 56.296H206.186C206.218 56.6693 206.394 56.984 206.714 57.24C207.045 57.4853 207.455 57.608 207.946 57.608C208.458 57.608 208.853 57.512 209.13 57.32C209.418 57.1173 209.562 56.8613 209.562 56.552C209.562 56.2213 209.402 55.976 209.082 55.816C208.773 55.656 208.277 55.48 207.594 55.288C206.933 55.1067 206.394 54.9307 205.978 54.76C205.562 54.5893 205.199 54.328 204.89 53.976C204.591 53.624 204.442 53.16 204.442 52.584C204.442 52.1147 204.581 51.688 204.858 51.304C205.135 50.9093 205.53 50.6 206.042 50.376C206.565 50.152 207.162 50.04 207.834 50.04C208.837 50.04 209.642 50.296 210.25 50.808C210.869 51.3093 211.199 51.9973 211.242 52.872H209.418C209.386 52.4773 209.226 52.1627 208.938 51.928C208.65 51.6933 208.261 51.576 207.77 51.576C207.29 51.576 206.922 51.6667 206.666 51.848C206.41 52.0293 206.282 52.2693 206.282 52.568C206.282 52.8027 206.367 53 206.538 53.16C206.709 53.32 206.917 53.448 207.162 53.544C207.407 53.6293 207.77 53.7413 208.25 53.88C208.89 54.0507 209.413 54.2267 209.818 54.408C210.234 54.5787 210.591 54.8347 210.89 55.176C211.189 55.5173 211.343 55.9707 211.354 56.536C211.354 57.0373 211.215 57.4853 210.938 57.88C210.661 58.2747 210.266 58.584 209.754 58.808C209.253 59.032 208.661 59.144 207.978 59.144ZM215.453 51.672V56.552C215.453 56.8827 215.528 57.1227 215.677 57.272C215.837 57.4107 216.104 57.48 216.477 57.48H217.597V59H216.157C215.336 59 214.706 58.808 214.269 58.424C213.832 58.04 213.613 57.416 213.613 56.552V51.672H212.573V50.184H213.613V47.992H215.453V50.184H217.597V51.672H215.453ZM223.102 59.144C222.27 59.144 221.518 58.9573 220.846 58.584C220.174 58.2 219.646 57.6667 219.262 56.984C218.878 56.2907 218.686 55.4907 218.686 54.584C218.686 53.688 218.883 52.8933 219.278 52.2C219.673 51.5067 220.211 50.9733 220.894 50.6C221.577 50.2267 222.339 50.04 223.182 50.04C224.025 50.04 224.787 50.2267 225.47 50.6C226.153 50.9733 226.691 51.5067 227.086 52.2C227.481 52.8933 227.678 53.688 227.678 54.584C227.678 55.48 227.475 56.2747 227.07 56.968C226.665 57.6613 226.11 58.2 225.406 58.584C224.713 58.9573 223.945 59.144 223.102 59.144ZM223.102 57.56C223.571 57.56 224.009 57.448 224.414 57.224C224.83 57 225.166 56.664 225.422 56.216C225.678 55.768 225.806 55.224 225.806 54.584C225.806 53.944 225.683 53.4053 225.438 52.968C225.193 52.52 224.867 52.184 224.462 51.96C224.057 51.736 223.619 51.624 223.15 51.624C222.681 51.624 222.243 51.736 221.838 51.96C221.443 52.184 221.129 52.52 220.894 52.968C220.659 53.4053 220.542 53.944 220.542 54.584C220.542 55.5333 220.782 56.2693 221.262 56.792C221.753 57.304 222.366 57.56 223.102 57.56ZM237.465 50.184V59H235.641V57.96C235.353 58.3227 234.975 58.6107 234.505 58.824C234.047 59.0267 233.556 59.128 233.033 59.128C232.34 59.128 231.716 58.984 231.161 58.696C230.617 58.408 230.185 57.9813 229.865 57.416C229.556 56.8507 229.401 56.168 229.401 55.368V50.184H231.209V55.096C231.209 55.8853 231.407 56.4933 231.801 56.92C232.196 57.336 232.735 57.544 233.417 57.544C234.1 57.544 234.639 57.336 235.033 56.92C235.439 56.4933 235.641 55.8853 235.641 55.096V50.184H237.465ZM243.42 54.552C243.42 53.6667 243.601 52.8827 243.964 52.2C244.337 51.5173 244.839 50.9893 245.468 50.616C246.108 50.232 246.812 50.04 247.58 50.04C248.273 50.04 248.876 50.1787 249.388 50.456C249.911 50.7227 250.327 51.0587 250.636 51.464V50.184H252.476V59H250.636V57.688C250.327 58.104 249.905 58.4507 249.372 58.728C248.839 59.0053 248.231 59.144 247.548 59.144C246.791 59.144 246.097 58.952 245.468 58.568C244.839 58.1733 244.337 57.6293 243.964 56.936C243.601 56.232 243.42 55.4373 243.42 54.552ZM250.636 54.584C250.636 53.976 250.508 53.448 250.252 53C250.007 52.552 249.681 52.2107 249.276 51.976C248.871 51.7413 248.433 51.624 247.964 51.624C247.495 51.624 247.057 51.7413 246.652 51.976C246.247 52.2 245.916 52.536 245.66 52.984C245.415 53.4213 245.292 53.944 245.292 54.552C245.292 55.16 245.415 55.6933 245.66 56.152C245.916 56.6107 246.247 56.9627 246.652 57.208C247.068 57.4427 247.505 57.56 247.964 57.56C248.433 57.56 248.871 57.4427 249.276 57.208C249.681 56.9733 250.007 56.632 250.252 56.184C250.508 55.7253 250.636 55.192 250.636 54.584ZM269.7 50.04C270.393 50.04 271.012 50.184 271.556 50.472C272.111 50.76 272.543 51.1867 272.852 51.752C273.172 52.3173 273.332 53 273.332 53.8V59H271.524V54.072C271.524 53.2827 271.327 52.68 270.932 52.264C270.537 51.8373 269.999 51.624 269.316 51.624C268.633 51.624 268.089 51.8373 267.684 52.264C267.289 52.68 267.092 53.2827 267.092 54.072V59H265.284V54.072C265.284 53.2827 265.087 52.68 264.692 52.264C264.297 51.8373 263.759 51.624 263.076 51.624C262.393 51.624 261.849 51.8373 261.444 52.264C261.049 52.68 260.852 53.2827 260.852 54.072V59H259.028V50.184H260.852V51.192C261.151 50.8293 261.529 50.5467 261.988 50.344C262.447 50.1413 262.937 50.04 263.46 50.04C264.164 50.04 264.793 50.1893 265.348 50.488C265.903 50.7867 266.329 51.2187 266.628 51.784C266.895 51.2507 267.311 50.8293 267.876 50.52C268.441 50.2 269.049 50.04 269.7 50.04ZM283.733 54.376C283.733 54.7067 283.712 55.0053 283.669 55.272H276.933C276.986 55.976 277.248 56.5413 277.717 56.968C278.186 57.3947 278.762 57.608 279.445 57.608C280.426 57.608 281.12 57.1973 281.525 56.376H283.493C283.226 57.1867 282.741 57.8533 282.037 58.376C281.344 58.888 280.48 59.144 279.445 59.144C278.602 59.144 277.845 58.9573 277.173 58.584C276.512 58.2 275.989 57.6667 275.605 56.984C275.232 56.2907 275.045 55.4907 275.045 54.584C275.045 53.6773 275.226 52.8827 275.589 52.2C275.962 51.5067 276.48 50.9733 277.141 50.6C277.813 50.2267 278.581 50.04 279.445 50.04C280.277 50.04 281.018 50.2213 281.669 50.584C282.32 50.9467 282.826 51.4587 283.189 52.12C283.552 52.7707 283.733 53.5227 283.733 54.376ZM281.829 53.8C281.818 53.128 281.578 52.5893 281.109 52.184C280.64 51.7787 280.058 51.576 279.365 51.576C278.736 51.576 278.197 51.7787 277.749 52.184C277.301 52.5787 277.034 53.1173 276.949 53.8H281.829ZM284.92 54.552C284.92 53.6667 285.101 52.8827 285.464 52.2C285.837 51.5173 286.339 50.9893 286.968 50.616C287.608 50.232 288.317 50.04 289.096 50.04C289.672 50.04 290.237 50.168 290.792 50.424C291.357 50.6693 291.805 51 292.136 51.416V47.16H293.976V59H292.136V57.672C291.837 58.0987 291.421 58.4507 290.888 58.728C290.365 59.0053 289.763 59.144 289.08 59.144C288.312 59.144 287.608 58.952 286.968 58.568C286.339 58.1733 285.837 57.6293 285.464 56.936C285.101 56.232 284.92 55.4373 284.92 54.552ZM292.136 54.584C292.136 53.976 292.008 53.448 291.752 53C291.507 52.552 291.181 52.2107 290.776 51.976C290.371 51.7413 289.933 51.624 289.464 51.624C288.995 51.624 288.557 51.7413 288.152 51.976C287.747 52.2 287.416 52.536 287.16 52.984C286.915 53.4213 286.792 53.944 286.792 54.552C286.792 55.16 286.915 55.6933 287.16 56.152C287.416 56.6107 287.747 56.9627 288.152 57.208C288.568 57.4427 289.005 57.56 289.464 57.56C289.933 57.56 290.371 57.4427 290.776 57.208C291.181 56.9733 291.507 56.632 291.752 56.184C292.008 55.7253 292.136 55.192 292.136 54.584ZM295.764 54.552C295.764 53.6667 295.945 52.8827 296.308 52.2C296.681 51.5173 297.183 50.9893 297.812 50.616C298.452 50.232 299.156 50.04 299.924 50.04C300.617 50.04 301.22 50.1787 301.732 50.456C302.255 50.7227 302.671 51.0587 302.98 51.464V50.184H304.82V59H302.98V57.688C302.671 58.104 302.249 58.4507 301.716 58.728C301.183 59.0053 300.575 59.144 299.892 59.144C299.135 59.144 298.441 58.952 297.812 58.568C297.183 58.1733 296.681 57.6293 296.308 56.936C295.945 56.232 295.764 55.4373 295.764 54.552ZM302.98 54.584C302.98 53.976 302.852 53.448 302.596 53C302.351 52.552 302.025 52.2107 301.62 51.976C301.215 51.7413 300.777 51.624 300.308 51.624C299.839 51.624 299.401 51.7413 298.996 51.976C298.591 52.2 298.26 52.536 298.004 52.984C297.759 53.4213 297.636 53.944 297.636 54.552C297.636 55.16 297.759 55.6933 298.004 56.152C298.26 56.6107 298.591 56.9627 298.996 57.208C299.412 57.4427 299.849 57.56 300.308 57.56C300.777 57.56 301.215 57.4427 301.62 57.208C302.025 56.9733 302.351 56.632 302.596 56.184C302.852 55.7253 302.98 55.192 302.98 54.584ZM309.04 47.16V59H307.216V47.16H309.04ZM315.994 50.04C316.666 50.04 317.264 50.184 317.786 50.472C318.32 50.76 318.736 51.1867 319.034 51.752C319.344 52.3173 319.498 53 319.498 53.8V59H317.69V54.072C317.69 53.2827 317.493 52.68 317.098 52.264C316.704 51.8373 316.165 51.624 315.482 51.624C314.8 51.624 314.256 51.8373 313.85 52.264C313.456 52.68 313.258 53.2827 313.258 54.072V59H311.434V47.16H313.258V51.208C313.568 50.8347 313.957 50.5467 314.426 50.344C314.906 50.1413 315.429 50.04 315.994 50.04ZM321.217 54.552C321.217 53.6667 321.398 52.8827 321.761 52.2C322.134 51.5173 322.636 50.9893 323.265 50.616C323.905 50.232 324.609 50.04 325.377 50.04C326.07 50.04 326.673 50.1787 327.185 50.456C327.708 50.7227 328.124 51.0587 328.433 51.464V50.184H330.273V59H328.433V57.688C328.124 58.104 327.702 58.4507 327.169 58.728C326.636 59.0053 326.028 59.144 325.345 59.144C324.588 59.144 323.894 58.952 323.265 58.568C322.636 58.1733 322.134 57.6293 321.761 56.936C321.398 56.232 321.217 55.4373 321.217 54.552ZM328.433 54.584C328.433 53.976 328.305 53.448 328.049 53C327.804 52.552 327.478 52.2107 327.073 51.976C326.668 51.7413 326.23 51.624 325.761 51.624C325.292 51.624 324.854 51.7413 324.449 51.976C324.044 52.2 323.713 52.536 323.457 52.984C323.212 53.4213 323.089 53.944 323.089 54.552C323.089 55.16 323.212 55.6933 323.457 56.152C323.713 56.6107 324.044 56.9627 324.449 57.208C324.865 57.4427 325.302 57.56 325.761 57.56C326.23 57.56 326.668 57.4427 327.073 57.208C327.478 56.9733 327.804 56.632 328.049 56.184C328.305 55.7253 328.433 55.192 328.433 54.584Z" fill="#DADADC"/>
<path d="M339.353 49.96V52.232H343.017V54.344H339.353V56.808H343.497V59H336.617V47.768H343.497V49.96H339.353ZM350.713 49.976C351.759 49.976 352.591 50.3173 353.209 51C353.839 51.672 354.153 52.6 354.153 53.784V59H351.433V54.152C351.433 53.5547 351.279 53.0907 350.969 52.76C350.66 52.4293 350.244 52.264 349.721 52.264C349.199 52.264 348.783 52.4293 348.473 52.76C348.164 53.0907 348.009 53.5547 348.009 54.152V59H345.273V50.072H348.009V51.256C348.287 50.8613 348.66 50.552 349.129 50.328C349.599 50.0933 350.127 49.976 350.713 49.976ZM359.447 49.944C360.076 49.944 360.625 50.072 361.095 50.328C361.575 50.584 361.943 50.92 362.199 51.336V50.072H364.935V58.984C364.935 59.8053 364.769 60.5467 364.439 61.208C364.119 61.88 363.623 62.4133 362.951 62.808C362.289 63.2027 361.463 63.4 360.471 63.4C359.148 63.4 358.076 63.0853 357.255 62.456C356.433 61.8373 355.964 60.9947 355.847 59.928H358.551C358.636 60.2693 358.839 60.536 359.159 60.728C359.479 60.9307 359.873 61.032 360.343 61.032C360.908 61.032 361.356 60.8667 361.687 60.536C362.028 60.216 362.199 59.6987 362.199 58.984V57.72C361.932 58.136 361.564 58.4773 361.095 58.744C360.625 59 360.076 59.128 359.447 59.128C358.711 59.128 358.044 58.9413 357.447 58.568C356.849 58.184 356.375 57.6453 356.023 56.952C355.681 56.248 355.511 55.4373 355.511 54.52C355.511 53.6027 355.681 52.7973 356.023 52.104C356.375 51.4107 356.849 50.8773 357.447 50.504C358.044 50.1307 358.711 49.944 359.447 49.944ZM362.199 54.536C362.199 53.8533 362.007 53.3147 361.623 52.92C361.249 52.5253 360.791 52.328 360.247 52.328C359.703 52.328 359.239 52.5253 358.855 52.92C358.481 53.304 358.295 53.8373 358.295 54.52C358.295 55.2027 358.481 55.7467 358.855 56.152C359.239 56.5467 359.703 56.744 360.247 56.744C360.791 56.744 361.249 56.5467 361.623 56.152C362.007 55.7573 362.199 55.2187 362.199 54.536ZM369.65 51.56C369.97 51.0693 370.37 50.6853 370.85 50.408C371.33 50.12 371.863 49.976 372.45 49.976V52.872H371.698C371.015 52.872 370.503 53.0213 370.162 53.32C369.821 53.608 369.65 54.12 369.65 54.856V59H366.914V50.072H369.65V51.56ZM382.174 54.392C382.174 54.648 382.158 54.9147 382.126 55.192H375.934C375.976 55.7467 376.152 56.1733 376.462 56.472C376.782 56.76 377.171 56.904 377.63 56.904C378.312 56.904 378.787 56.616 379.054 56.04H381.966C381.816 56.6267 381.544 57.1547 381.15 57.624C380.766 58.0933 380.28 58.4613 379.694 58.728C379.107 58.9947 378.451 59.128 377.726 59.128C376.851 59.128 376.072 58.9413 375.39 58.568C374.707 58.1947 374.174 57.6613 373.79 56.968C373.406 56.2747 373.214 55.464 373.214 54.536C373.214 53.608 373.4 52.7973 373.774 52.104C374.158 51.4107 374.691 50.8773 375.374 50.504C376.056 50.1307 376.84 49.944 377.726 49.944C378.59 49.944 379.358 50.1253 380.03 50.488C380.702 50.8507 381.224 51.368 381.598 52.04C381.982 52.712 382.174 53.496 382.174 54.392ZM379.374 53.672C379.374 53.2027 379.214 52.8293 378.894 52.552C378.574 52.2747 378.174 52.136 377.694 52.136C377.235 52.136 376.846 52.2693 376.526 52.536C376.216 52.8027 376.024 53.1813 375.95 53.672H379.374ZM389.057 49.976C390.102 49.976 390.934 50.3173 391.553 51C392.182 51.672 392.497 52.6 392.497 53.784V59H389.777V54.152C389.777 53.5547 389.622 53.0907 389.313 52.76C389.004 52.4293 388.588 52.264 388.065 52.264C387.542 52.264 387.126 52.4293 386.817 52.76C386.508 53.0907 386.353 53.5547 386.353 54.152V59H383.617V50.072H386.353V51.256C386.63 50.8613 387.004 50.552 387.473 50.328C387.942 50.0933 388.47 49.976 389.057 49.976ZM393.854 54.52C393.854 53.6027 394.025 52.7973 394.366 52.104C394.718 51.4107 395.193 50.8773 395.79 50.504C396.388 50.1307 397.054 49.944 397.79 49.944C398.42 49.944 398.969 50.072 399.438 50.328C399.918 50.584 400.286 50.92 400.542 51.336V50.072H403.278V59H400.542V57.736C400.276 58.152 399.902 58.488 399.422 58.744C398.953 59 398.404 59.128 397.774 59.128C397.049 59.128 396.388 58.9413 395.79 58.568C395.193 58.184 394.718 57.6453 394.366 56.952C394.025 56.248 393.854 55.4373 393.854 54.52ZM400.542 54.536C400.542 53.8533 400.35 53.3147 399.966 52.92C399.593 52.5253 399.134 52.328 398.59 52.328C398.046 52.328 397.582 52.5253 397.198 52.92C396.825 53.304 396.638 53.8373 396.638 54.52C396.638 55.2027 396.825 55.7467 397.198 56.152C397.582 56.5467 398.046 56.744 398.59 56.744C399.134 56.744 399.593 56.5467 399.966 56.152C400.35 55.7573 400.542 55.2187 400.542 54.536ZM408.65 49.944C409.279 49.944 409.828 50.072 410.298 50.328C410.778 50.584 411.146 50.92 411.402 51.336V50.072H414.138V58.984C414.138 59.8053 413.972 60.5467 413.642 61.208C413.322 61.88 412.826 62.4133 412.154 62.808C411.492 63.2027 410.666 63.4 409.674 63.4C408.351 63.4 407.279 63.0853 406.458 62.456C405.636 61.8373 405.167 60.9947 405.05 59.928H407.754C407.839 60.2693 408.042 60.536 408.362 60.728C408.682 60.9307 409.076 61.032 409.546 61.032C410.111 61.032 410.559 60.8667 410.89 60.536C411.231 60.216 411.402 59.6987 411.402 58.984V57.72C411.135 58.136 410.767 58.4773 410.298 58.744C409.828 59 409.279 59.128 408.65 59.128C407.914 59.128 407.247 58.9413 406.65 58.568C406.052 58.184 405.578 57.6453 405.226 56.952C404.884 56.248 404.714 55.4373 404.714 54.52C404.714 53.6027 404.884 52.7973 405.226 52.104C405.578 51.4107 406.052 50.8773 406.65 50.504C407.247 50.1307 407.914 49.944 408.65 49.944ZM411.402 54.536C411.402 53.8533 411.21 53.3147 410.826 52.92C410.452 52.5253 409.994 52.328 409.45 52.328C408.906 52.328 408.442 52.5253 408.058 52.92C407.684 53.304 407.498 53.8373 407.498 54.52C407.498 55.2027 407.684 55.7467 408.058 56.152C408.442 56.5467 408.906 56.744 409.45 56.744C409.994 56.744 410.452 56.5467 410.826 56.152C411.21 55.7573 411.402 55.2187 411.402 54.536ZM424.533 54.392C424.533 54.648 424.517 54.9147 424.485 55.192H418.293C418.336 55.7467 418.512 56.1733 418.821 56.472C419.141 56.76 419.53 56.904 419.989 56.904C420.672 56.904 421.146 56.616 421.413 56.04H424.325C424.176 56.6267 423.904 57.1547 423.509 57.624C423.125 58.0933 422.64 58.4613 422.053 58.728C421.466 58.9947 420.81 59.128 420.085 59.128C419.21 59.128 418.432 58.9413 417.749 58.568C417.066 58.1947 416.533 57.6613 416.149 56.968C415.765 56.2747 415.573 55.464 415.573 54.536C415.573 53.608 415.76 52.7973 416.133 52.104C416.517 51.4107 417.05 50.8773 417.733 50.504C418.416 50.1307 419.2 49.944 420.085 49.944C420.949 49.944 421.717 50.1253 422.389 50.488C423.061 50.8507 423.584 51.368 423.957 52.04C424.341 52.712 424.533 53.496 424.533 54.392ZM421.733 53.672C421.733 53.2027 421.573 52.8293 421.253 52.552C420.933 52.2747 420.533 52.136 420.053 52.136C419.594 52.136 419.205 52.2693 418.885 52.536C418.576 52.8027 418.384 53.1813 418.309 53.672H421.733ZM437.368 49.976C438.478 49.976 439.358 50.312 440.008 50.984C440.67 51.656 441 52.5893 441 53.784V59H438.28V54.152C438.28 53.576 438.126 53.1333 437.816 52.824C437.518 52.504 437.102 52.344 436.568 52.344C436.035 52.344 435.614 52.504 435.304 52.824C435.006 53.1333 434.856 53.576 434.856 54.152V59H432.136V54.152C432.136 53.576 431.982 53.1333 431.672 52.824C431.374 52.504 430.958 52.344 430.424 52.344C429.891 52.344 429.47 52.504 429.16 52.824C428.862 53.1333 428.712 53.576 428.712 54.152V59H425.976V50.072H428.712V51.192C428.99 50.8187 429.352 50.5253 429.8 50.312C430.248 50.088 430.755 49.976 431.32 49.976C431.992 49.976 432.59 50.12 433.112 50.408C433.646 50.696 434.062 51.1067 434.36 51.64C434.67 51.1493 435.091 50.7493 435.624 50.44C436.158 50.1307 436.739 49.976 437.368 49.976ZM450.369 59.112C449.547 59.112 448.811 58.9787 448.161 58.712C447.51 58.4453 446.987 58.0507 446.593 57.528C446.209 57.0053 446.006 56.376 445.985 55.64H448.897C448.939 56.056 449.083 56.376 449.329 56.6C449.574 56.8133 449.894 56.92 450.289 56.92C450.694 56.92 451.014 56.8293 451.249 56.648C451.483 56.456 451.601 56.1947 451.601 55.864C451.601 55.5867 451.505 55.3573 451.313 55.176C451.131 54.9947 450.902 54.8453 450.625 54.728C450.358 54.6107 449.974 54.4773 449.473 54.328C448.747 54.104 448.155 53.88 447.697 53.656C447.238 53.432 446.843 53.1013 446.513 52.664C446.182 52.2267 446.017 51.656 446.017 50.952C446.017 49.9067 446.395 49.0907 447.153 48.504C447.91 47.9067 448.897 47.608 450.113 47.608C451.35 47.608 452.347 47.9067 453.105 48.504C453.862 49.0907 454.267 49.912 454.321 50.968H451.361C451.339 50.6053 451.206 50.3227 450.961 50.12C450.715 49.9067 450.401 49.8 450.016 49.8C449.686 49.8 449.419 49.8907 449.217 50.072C449.014 50.2427 448.913 50.4933 448.913 50.824C448.913 51.1867 449.083 51.4693 449.424 51.672C449.766 51.8747 450.299 52.0933 451.025 52.328C451.75 52.5733 452.337 52.808 452.785 53.032C453.243 53.256 453.638 53.5813 453.969 54.008C454.299 54.4347 454.465 54.984 454.465 55.656C454.465 56.296 454.299 56.8773 453.969 57.4C453.649 57.9227 453.179 58.3387 452.561 58.648C451.942 58.9573 451.211 59.112 450.369 59.112ZM460.212 59.128C459.338 59.128 458.548 58.9413 457.844 58.568C457.151 58.1947 456.602 57.6613 456.196 56.968C455.802 56.2747 455.604 55.464 455.604 54.536C455.604 53.6187 455.807 52.8133 456.212 52.12C456.618 51.416 457.172 50.8773 457.876 50.504C458.58 50.1307 459.37 49.944 460.244 49.944C461.119 49.944 461.908 50.1307 462.612 50.504C463.316 50.8773 463.871 51.416 464.276 52.12C464.682 52.8133 464.884 53.6187 464.884 54.536C464.884 55.4533 464.676 56.264 464.26 56.968C463.855 57.6613 463.295 58.1947 462.58 58.568C461.876 58.9413 461.087 59.128 460.212 59.128ZM460.212 56.76C460.735 56.76 461.178 56.568 461.54 56.184C461.914 55.8 462.1 55.2507 462.1 54.536C462.1 53.8213 461.919 53.272 461.556 52.888C461.204 52.504 460.767 52.312 460.244 52.312C459.711 52.312 459.268 52.504 458.916 52.888C458.564 53.2613 458.388 53.8107 458.388 54.536C458.388 55.2507 458.559 55.8 458.9 56.184C459.252 56.568 459.69 56.76 460.212 56.76ZM469.072 47.16V59H466.336V47.16H469.072ZM472.431 49.144C471.951 49.144 471.556 49.0053 471.247 48.728C470.948 48.44 470.799 48.088 470.799 47.672C470.799 47.2453 470.948 46.8933 471.247 46.616C471.556 46.328 471.951 46.184 472.431 46.184C472.9 46.184 473.284 46.328 473.583 46.616C473.892 46.8933 474.047 47.2453 474.047 47.672C474.047 48.088 473.892 48.44 473.583 48.728C473.284 49.0053 472.9 49.144 472.431 49.144ZM473.791 50.072V59H471.055V50.072H473.791ZM475.229 54.52C475.229 53.6027 475.4 52.7973 475.741 52.104C476.093 51.4107 476.568 50.8773 477.165 50.504C477.763 50.1307 478.429 49.944 479.165 49.944C479.752 49.944 480.285 50.0667 480.765 50.312C481.256 50.5573 481.64 50.888 481.917 51.304V47.16H484.653V59H481.917V57.72C481.661 58.1467 481.293 58.488 480.813 58.744C480.344 59 479.795 59.128 479.165 59.128C478.429 59.128 477.763 58.9413 477.165 58.568C476.568 58.184 476.093 57.6453 475.741 56.952C475.4 56.248 475.229 55.4373 475.229 54.52ZM481.917 54.536C481.917 53.8533 481.725 53.3147 481.341 52.92C480.968 52.5253 480.509 52.328 479.965 52.328C479.421 52.328 478.957 52.5253 478.573 52.92C478.2 53.304 478.013 53.8373 478.013 54.52C478.013 55.2027 478.2 55.7467 478.573 56.152C478.957 56.5467 479.421 56.744 479.965 56.744C480.509 56.744 480.968 56.5467 481.341 56.152C481.725 55.7573 481.917 55.2187 481.917 54.536ZM486.089 54.52C486.089 53.6027 486.259 52.7973 486.601 52.104C486.953 51.4107 487.427 50.8773 488.025 50.504C488.622 50.1307 489.289 49.944 490.025 49.944C490.654 49.944 491.203 50.072 491.673 50.328C492.153 50.584 492.521 50.92 492.777 51.336V50.072H495.513V59H492.777V57.736C492.51 58.152 492.137 58.488 491.657 58.744C491.187 59 490.638 59.128 490.009 59.128C489.283 59.128 488.622 58.9413 488.025 58.568C487.427 58.184 486.953 57.6453 486.601 56.952C486.259 56.248 486.089 55.4373 486.089 54.52ZM492.777 54.536C492.777 53.8533 492.585 53.3147 492.201 52.92C491.827 52.5253 491.369 52.328 490.825 52.328C490.281 52.328 489.817 52.5253 489.433 52.92C489.059 53.304 488.873 53.8373 488.873 54.52C488.873 55.2027 489.059 55.7467 489.433 56.152C489.817 56.5467 490.281 56.744 490.825 56.744C491.369 56.744 491.827 56.5467 492.201 56.152C492.585 55.7573 492.777 55.2187 492.777 54.536ZM492.985 47.848L489.129 49.464V47.576L492.985 45.72V47.848ZM500.228 51.56C500.548 51.0693 500.948 50.6853 501.428 50.408C501.908 50.12 502.441 49.976 503.028 49.976V52.872H502.276C501.593 52.872 501.081 53.0213 500.74 53.32C500.399 53.608 500.228 54.12 500.228 54.856V59H497.492V50.072H500.228V51.56ZM505.712 49.144C505.232 49.144 504.837 49.0053 504.528 48.728C504.229 48.44 504.08 48.088 504.08 47.672C504.08 47.2453 504.229 46.8933 504.528 46.616C504.837 46.328 505.232 46.184 505.712 46.184C506.181 46.184 506.565 46.328 506.864 46.616C507.173 46.8933 507.328 47.2453 507.328 47.672C507.328 48.088 507.173 48.44 506.864 48.728C506.565 49.0053 506.181 49.144 505.712 49.144ZM507.072 50.072V59H504.336V50.072H507.072ZM508.511 54.52C508.511 53.6027 508.681 52.7973 509.023 52.104C509.375 51.4107 509.849 50.8773 510.447 50.504C511.044 50.1307 511.711 49.944 512.447 49.944C513.076 49.944 513.625 50.072 514.095 50.328C514.575 50.584 514.943 50.92 515.199 51.336V50.072H517.935V59H515.199V57.736C514.932 58.152 514.559 58.488 514.079 58.744C513.609 59 513.06 59.128 512.431 59.128C511.705 59.128 511.044 58.9413 510.447 58.568C509.849 58.184 509.375 57.6453 509.023 56.952C508.681 56.248 508.511 55.4373 508.511 54.52ZM515.199 54.536C515.199 53.8533 515.007 53.3147 514.623 52.92C514.249 52.5253 513.791 52.328 513.247 52.328C512.703 52.328 512.239 52.5253 511.855 52.92C511.481 53.304 511.295 53.8373 511.295 54.52C511.295 55.2027 511.481 55.7467 511.855 56.152C512.239 56.5467 512.703 56.744 513.247 56.744C513.791 56.744 514.249 56.5467 514.623 56.152C515.007 55.7573 515.199 55.2187 515.199 54.536ZM523.514 47.368L523.194 55.032H520.874L520.554 47.368H523.514ZM522.074 59.128C521.594 59.128 521.199 58.9893 520.89 58.712C520.591 58.424 520.442 58.072 520.442 57.656C520.442 57.2293 520.591 56.872 520.89 56.584C521.199 56.296 521.594 56.152 522.074 56.152C522.543 56.152 522.927 56.296 523.226 56.584C523.535 56.872 523.69 57.2293 523.69 57.656C523.69 58.072 523.535 58.424 523.226 58.712C522.927 58.9893 522.543 59.128 522.074 59.128Z" fill="#46C4FF"/>
</g>
<defs>
<filter id="filter0_d_3036_8211" x="0" y="0" width="564" height="116" filterUnits="userSpaceOnUse" color-interpolation-filters="sRGB">
<feFlood flood-opacity="0" result="BackgroundImageFix"/>
<feColorMatrix in="SourceAlpha" type="matrix" values="0 0 0 0 0 0 0 0 0 0 0 0 0 0 0 0 0 0 127 0" result="hardAlpha"/>
<feOffset dy="5"/>
<feGaussianBlur stdDeviation="10"/>
<feComposite in2="hardAlpha" operator="out"/>
<feColorMatrix type="matrix" values="0 0 0 0 0.164706 0 0 0 0 0.333333 0 0 0 0 0.760784 0 0 0 0.15 0"/>
<feBlend mode="normal" in2="BackgroundImageFix" result="effect1_dropShadow_3036_8211"/>
<feBlend mode="normal" in="SourceGraphic" in2="effect1_dropShadow_3036_8211" result="shape"/>
</filter>
</defs>
</svg>
