<svg width="54" height="64" viewBox="0 0 54 64" fill="none" xmlns="http://www.w3.org/2000/svg">
<path d="M6.29114 14.4513C6.29114 11.6009 8.63836 9.29004 11.5339 9.29004H44.563C47.4584 9.29004 49.8057 11.6009 49.8057 14.4513V46.9675C49.8057 54.0937 43.9376 59.8707 36.6989 59.8707H19.3979C12.1592 59.8707 6.29114 54.0937 6.29114 46.9675V14.4513Z" fill="#1F9DD3"/>
<path d="M6.29114 14.4513C6.29114 11.6009 8.63836 9.29004 11.5339 9.29004H44.563C47.4584 9.29004 49.8057 11.6009 49.8057 14.4513V35.3546C49.8057 47.1841 40.0646 56.7739 28.0484 56.7739C16.0322 56.7739 6.29114 47.1841 6.29114 35.3546V14.4513Z" fill="#46C4FF"/>
<path d="M6.29114 14.4513C6.29114 11.6009 8.63836 9.29004 11.5339 9.29004H44.563C47.4584 9.29004 49.8057 11.6009 49.8057 14.4513V44.3868C49.8057 51.228 44.1723 56.7739 37.2232 56.7739H18.8737C11.9245 56.7739 6.29114 51.228 6.29114 44.3868V14.4513Z" fill="#46C4FF"/>
<path d="M13.631 14.9673C13.631 14.6822 13.8657 14.4512 14.1553 14.4512H42.4659C42.7554 14.4512 42.9902 14.6822 42.9902 14.9673V36.1286C42.9902 44.11 36.4179 50.5802 28.3106 50.5802C20.2033 50.5802 13.631 44.11 13.631 36.1286V14.9673Z" fill="#1CB0F6"/>
<path d="M30.8058 22.5826C30.6305 23.4455 29.8514 23.6372 29.2281 22.9661C28.2543 21.9307 26.8714 22.8511 27.6115 24.0399C27.8063 24.3275 27.7868 24.4809 27.4752 24.8069C27.183 25.1329 26.9688 25.1712 26.1897 25.0753C25.2937 24.9603 25.2548 24.9794 25.1184 25.4588C24.9626 26.1299 25.1379 26.5326 25.6248 26.5326C25.8391 26.5326 26.0144 26.6093 26.0144 26.7052C26.0144 26.8011 26.1897 26.9545 26.4039 27.012C26.6182 27.0695 26.8519 27.3379 26.9104 27.6064C27.0467 28.1625 27.5531 28.2008 28.0206 27.6831C28.1958 27.4722 28.4685 27.2996 28.6243 27.2996C28.7802 27.2996 29.0333 27.1271 29.1892 26.9161C29.7735 26.0916 31.8965 25.6889 33.1431 26.1491C33.8248 26.4176 34.5065 27.0887 34.7792 27.7598C35.2466 28.987 34.8376 31.077 34.0001 31.6523C33.7858 31.8057 33.6105 32.0549 33.6105 32.2083C33.6105 32.3617 33.4352 32.6302 33.221 32.8028C32.6951 33.2629 32.734 33.7615 33.2989 33.8957C33.5715 33.9533 33.8442 34.1834 33.9027 34.3943C33.9611 34.6052 34.1169 34.7778 34.2143 34.7778C34.3117 34.7778 34.3896 34.9503 34.3896 35.1613C34.3896 35.6407 34.7986 35.8132 35.4803 35.6598C35.9673 35.5256 35.9868 35.4872 35.8699 34.6052C35.7725 33.8382 35.8114 33.6273 36.1426 33.3396C36.4736 33.0329 36.6295 33.0137 36.9216 33.2055C38.1292 33.9341 39.0641 32.5727 38.0124 31.6139C37.3307 31.0003 37.5254 30.2333 38.4019 30.0608C39.0252 29.9457 39.0641 29.9074 39.0641 29.1212C39.0641 28.3351 39.0252 28.2967 38.4019 28.1817C37.5254 28.0091 37.3501 27.2996 38.0124 26.6668C38.4993 26.2258 38.5967 25.6698 38.3045 25.2096C38.1682 25.0178 37.8955 24.9794 37.2333 25.0561C36.0452 25.2287 35.714 24.9027 35.8893 23.7331C35.9673 23.0812 35.9283 22.8127 35.7335 22.6785C35.2661 22.3908 34.7012 22.4867 34.2533 22.9661C33.6105 23.618 32.8898 23.4455 32.7146 22.5826C32.5977 21.969 32.5588 21.9307 31.7602 21.9307C30.9616 21.9307 30.9227 21.969 30.8058 22.5826Z" fill="#0076AC"/>
<path d="M24.2614 28.1438C24.2614 28.6807 23.9303 28.9874 23.1707 29.1217C22.7422 29.2176 22.489 29.1217 22.08 28.7573C21.5541 28.2588 21.145 28.1246 21.145 28.4314C21.145 28.5273 20.9698 28.6423 20.7555 28.6999C20.4244 28.7765 20.3855 28.9107 20.4828 29.6778C20.6581 30.905 20.366 31.2117 19.1583 31.0775C18.3598 30.9817 18.1845 31.02 17.9313 31.3843C17.5028 31.9787 17.5612 32.3047 18.165 32.7841C18.6325 33.1484 18.6715 33.2443 18.4961 33.8387C18.3598 34.3372 18.165 34.529 17.6781 34.6824C17.1133 34.8358 17.0548 34.9316 17.0548 35.6411C17.0548 36.3506 17.1133 36.4464 17.6781 36.5998C18.165 36.7532 18.3598 36.945 18.4961 37.4243C18.652 37.9996 18.613 38.1147 18.165 38.5365C17.5612 39.0926 17.5223 39.3227 17.9313 39.8979C18.1845 40.2622 18.3598 40.3006 19.1583 40.2047C20.366 40.0705 20.6581 40.3773 20.5023 41.5853C20.3855 42.3139 20.4439 42.4673 20.7944 42.7358C21.3982 43.1385 21.632 43.1001 22.1968 42.5057C22.6253 42.0647 22.7422 42.0263 23.3265 42.1797C23.8134 42.3139 24.0082 42.5057 24.164 42.985C24.3199 43.5411 24.4172 43.5986 25.1379 43.5986C25.8585 43.5986 25.956 43.5411 26.1118 42.985C26.2676 42.5057 26.4623 42.3139 26.9687 42.1797C27.5725 42.0071 27.67 42.0455 28.04 42.5057C28.5269 43.1001 28.8581 43.1576 29.4813 42.7358C29.8319 42.4673 29.8903 42.3139 29.7735 41.5853C29.6177 40.3773 29.9098 40.0705 31.1369 40.2239C31.9744 40.3197 32.1107 40.2814 32.1887 39.9554C32.2471 39.7445 32.364 39.5719 32.4613 39.5719C32.773 39.5719 32.6366 39.1693 32.1302 38.6515C31.7602 38.2489 31.6628 37.9996 31.7602 37.5777C31.8965 36.8299 32.2082 36.504 32.7535 36.504C33.182 36.504 33.2209 36.4273 33.2209 35.6411C33.2209 34.8549 33.182 34.7783 32.7535 34.7783C32.2082 34.7783 31.8965 34.4523 31.7407 33.6853C31.6433 33.2251 31.7212 33.0333 32.1302 32.7265C32.6366 32.3239 32.812 31.7103 32.4419 31.7103C32.3445 31.7103 32.2471 31.5952 32.2471 31.4418C32.2471 31.0008 31.916 30.905 31.1564 31.1159C30.1241 31.4035 29.4424 30.7324 29.7345 29.7161C29.9488 28.9683 29.8514 28.6423 29.4034 28.6423C29.2476 28.6423 29.1307 28.5465 29.1307 28.4506C29.1307 28.0862 28.5075 28.2588 28.0984 28.7573C27.7868 29.16 27.592 29.2367 27.1246 29.1409C26.3455 28.9874 26.0144 28.6807 26.0144 28.1438C26.0144 27.7219 25.9364 27.6836 25.1379 27.6836C24.3393 27.6836 24.2614 27.7219 24.2614 28.1438ZM26.7156 31.902C27.3973 32.1705 28.6633 33.4168 28.936 34.0879C29.1892 34.7783 29.1892 36.4848 28.9165 37.2518C28.6438 38.0188 27.6894 38.9775 26.8519 39.3035C26.0728 39.6295 24.3588 39.6487 23.4628 39.3418C22.6448 39.0542 21.6709 38.0955 21.3788 37.2901C21.0671 36.4081 21.0866 34.7207 21.4177 33.9537C21.7488 33.1676 22.7227 32.1897 23.4239 31.9404C24.1445 31.6719 26.0533 31.6527 26.7156 31.902Z" fill="#0076AC"/>
<path d="M23.9304 34.3757C23.3266 34.8742 23.3071 36.3315 23.8719 36.8876C24.4368 37.4437 25.917 37.4245 26.4234 36.83C26.9493 36.1973 26.9104 34.9509 26.3455 34.4332C25.7612 33.8963 24.5342 33.8772 23.9304 34.3757Z" fill="#0076AC"/>
<path d="M31.0201 28.374C30.9422 28.4507 30.8837 28.8533 30.8837 29.256V30.0038L31.7213 29.9463C32.5393 29.8888 32.5393 29.8888 32.5393 29.1218C32.5393 28.374 32.5198 28.3548 31.8576 28.2973C31.4681 28.2589 31.098 28.2973 31.0201 28.374Z" fill="#0076AC"/>
<path d="M39.1865 9.1709L46.1359 9.29049L46.6601 9.54845L47.1845 9.80651L47.7087 10.0646L48.4951 10.5807L49.0193 11.3549L49.702 13.1613V20.6065L30.4439 38.7831L11.1857 56.9595L10.0853 55.9969L9.10715 54.9136L8.25122 53.7094L7.51756 52.3856L6.90621 50.941L6.53937 49.4965L6.2948 47.9317V46.3048V40.2277L39.1865 9.1709Z" fill="white" fill-opacity="0.29"/>
</svg>
