<svg width="355" height="116" viewBox="0 0 355 116" fill="none" xmlns="http://www.w3.org/2000/svg">
<g filter="url(#filter0_d_1201_2898)">
<rect x="20" y="15" width="315" height="76" rx="15" fill="white"/>
<rect width="24" height="24" transform="translate(34 41)" fill="white"/>
<path d="M42 53.25L44.5 55.75L50 50.25M55 53C55 48.0294 50.9706 44 46 44C41.0294 44 37 48.0294 37 53C37 57.9706 41.0294 62 46 62C50.9706 62 55 57.9706 55 53Z" stroke="#499136" stroke-width="1.5" stroke-linecap="round" stroke-linejoin="round"/>
<path d="M74.904 56.728H70.248L69.448 59H67.544L71.528 47.864H73.64L77.624 59H75.704L74.904 56.728ZM74.392 55.24L72.584 50.072L70.76 55.24H74.392ZM81.1803 47.16V59H79.3563V47.16H81.1803ZM85.703 51.672V56.552C85.703 56.8827 85.7777 57.1227 85.927 57.272C86.087 57.4107 86.3537 57.48 86.727 57.48H87.847V59H86.407C85.5857 59 84.9563 58.808 84.519 58.424C84.0817 58.04 83.863 57.416 83.863 56.552V51.672H82.823V50.184H83.863V47.992H85.703V50.184H87.847V51.672H85.703ZM97.6081 54.376C97.6081 54.7067 97.5868 55.0053 97.5441 55.272H90.8081C90.8615 55.976 91.1228 56.5413 91.5921 56.968C92.0615 57.3947 92.6375 57.608 93.3201 57.608C94.3015 57.608 94.9948 57.1973 95.4001 56.376H97.3681C97.1015 57.1867 96.6161 57.8533 95.9121 58.376C95.2188 58.888 94.3548 59.144 93.3201 59.144C92.4775 59.144 91.7201 58.9573 91.0481 58.584C90.3868 58.2 89.8641 57.6667 89.4801 56.984C89.1068 56.2907 88.9201 55.4907 88.9201 54.584C88.9201 53.6773 89.1015 52.8827 89.4641 52.2C89.8375 51.5067 90.3548 50.9733 91.0161 50.6C91.6881 50.2267 92.4561 50.04 93.3201 50.04C94.1521 50.04 94.8935 50.2213 95.5441 50.584C96.1948 50.9467 96.7015 51.4587 97.0641 52.12C97.4268 52.7707 97.6081 53.5227 97.6081 54.376ZM95.7041 53.8C95.6935 53.128 95.4535 52.5893 94.9841 52.184C94.5148 51.7787 93.9335 51.576 93.2401 51.576C92.6108 51.576 92.0721 51.7787 91.6241 52.184C91.1761 52.5787 90.9095 53.1173 90.8241 53.8H95.7041ZM101.227 51.464C101.494 51.016 101.846 50.6693 102.283 50.424C102.731 50.168 103.259 50.04 103.867 50.04V51.928H103.403C102.688 51.928 102.144 52.1093 101.771 52.472C101.408 52.8347 101.227 53.464 101.227 54.36V59H99.4031V50.184H101.227V51.464ZM104.936 54.552C104.936 53.6667 105.117 52.8827 105.48 52.2C105.853 51.5173 106.354 50.9893 106.984 50.616C107.624 50.232 108.328 50.04 109.096 50.04C109.789 50.04 110.392 50.1787 110.904 50.456C111.426 50.7227 111.842 51.0587 112.152 51.464V50.184H113.992V59H112.152V57.688C111.842 58.104 111.421 58.4507 110.888 58.728C110.354 59.0053 109.746 59.144 109.064 59.144C108.306 59.144 107.613 58.952 106.984 58.568C106.354 58.1733 105.853 57.6293 105.48 56.936C105.117 56.232 104.936 55.4373 104.936 54.552ZM112.152 54.584C112.152 53.976 112.024 53.448 111.768 53C111.522 52.552 111.197 52.2107 110.792 51.976C110.386 51.7413 109.949 51.624 109.48 51.624C109.01 51.624 108.573 51.7413 108.168 51.976C107.762 52.2 107.432 52.536 107.176 52.984C106.93 53.4213 106.808 53.944 106.808 54.552C106.808 55.16 106.93 55.6933 107.176 56.152C107.432 56.6107 107.762 56.9627 108.168 57.208C108.584 57.4427 109.021 57.56 109.48 57.56C109.949 57.56 110.386 57.4427 110.792 57.208C111.197 56.9733 111.522 56.632 111.768 56.184C112.024 55.7253 112.152 55.192 112.152 54.584ZM120.1 57.608C121.156 57.608 121.854 57.144 122.196 56.216H124.164C123.929 57.0267 123.508 57.6933 122.9 58.216C122.302 58.728 121.55 59.0267 120.644 59.112V59.768C121.262 59.768 121.764 59.912 122.148 60.2C122.532 60.4987 122.724 60.9147 122.724 61.448C122.724 61.9813 122.532 62.4027 122.148 62.712C121.764 63.032 121.278 63.192 120.692 63.192H118.58V62.04H120.324C120.622 62.04 120.846 61.9973 120.996 61.912C121.145 61.8267 121.22 61.672 121.22 61.448C121.22 61.224 121.145 61.0693 120.996 60.984C120.846 60.8987 120.622 60.856 120.324 60.856H119.444V59.096C118.718 59.0107 118.078 58.7707 117.524 58.376C116.969 57.9707 116.537 57.448 116.228 56.808C115.929 56.1573 115.78 55.416 115.78 54.584C115.78 53.6773 115.961 52.8827 116.324 52.2C116.697 51.5067 117.209 50.9733 117.86 50.6C118.51 50.2267 119.257 50.04 120.1 50.04C121.166 50.04 122.046 50.296 122.74 50.808C123.444 51.3093 123.918 52.0293 124.164 52.968H122.196C122.036 52.5307 121.78 52.1893 121.428 51.944C121.076 51.6987 120.633 51.576 120.1 51.576C119.353 51.576 118.756 51.8427 118.308 52.376C117.87 52.8987 117.652 53.6347 117.652 54.584C117.652 55.5333 117.87 56.2747 118.308 56.808C118.756 57.3413 119.353 57.608 120.1 57.608ZM129.805 59.144C128.973 59.144 128.221 58.9573 127.549 58.584C126.877 58.2 126.349 57.6667 125.965 56.984C125.581 56.2907 125.389 55.4907 125.389 54.584C125.389 53.688 125.587 52.8933 125.981 52.2C126.376 51.5067 126.915 50.9733 127.597 50.6C128.28 50.2267 129.043 50.04 129.885 50.04C130.728 50.04 131.491 50.2267 132.173 50.6C132.856 50.9733 133.395 51.5067 133.789 52.2C134.184 52.8933 134.381 53.688 134.381 54.584C134.381 55.48 134.179 56.2747 133.773 56.968C133.368 57.6613 132.813 58.2 132.109 58.584C131.416 58.9573 130.648 59.144 129.805 59.144ZM129.805 57.56C130.275 57.56 130.712 57.448 131.117 57.224C131.533 57 131.869 56.664 132.125 56.216C132.381 55.768 132.509 55.224 132.509 54.584C132.509 53.944 132.387 53.4053 132.141 52.968C131.896 52.52 131.571 52.184 131.165 51.96C130.76 51.736 130.323 51.624 129.853 51.624C129.384 51.624 128.947 51.736 128.541 51.96C128.147 52.184 127.832 52.52 127.597 52.968C127.363 53.4053 127.245 53.944 127.245 54.584C127.245 55.5333 127.485 56.2693 127.965 56.792C128.456 57.304 129.069 57.56 129.805 57.56ZM127.277 49.128C127.363 48.5093 127.565 48.0453 127.885 47.736C128.205 47.416 128.605 47.256 129.085 47.256C129.288 47.256 129.464 47.288 129.613 47.352C129.763 47.416 129.944 47.512 130.157 47.64C130.317 47.7467 130.451 47.8267 130.557 47.88C130.675 47.9333 130.803 47.96 130.941 47.96C131.123 47.96 131.272 47.9067 131.389 47.8C131.517 47.6827 131.597 47.512 131.629 47.288H132.653C132.568 47.9067 132.365 48.376 132.045 48.696C131.725 49.0053 131.325 49.16 130.845 49.16C130.643 49.16 130.461 49.128 130.301 49.064C130.141 48.9893 129.965 48.888 129.773 48.76C129.581 48.6427 129.432 48.5627 129.325 48.52C129.229 48.4667 129.117 48.44 128.989 48.44C128.808 48.44 128.653 48.4987 128.525 48.616C128.408 48.7333 128.333 48.904 128.301 49.128H127.277ZM144.264 54.376C144.264 54.7067 144.243 55.0053 144.2 55.272H137.464C137.518 55.976 137.779 56.5413 138.248 56.968C138.718 57.3947 139.294 57.608 139.976 57.608C140.958 57.608 141.651 57.1973 142.056 56.376H144.024C143.758 57.1867 143.272 57.8533 142.568 58.376C141.875 58.888 141.011 59.144 139.976 59.144C139.134 59.144 138.376 58.9573 137.704 58.584C137.043 58.2 136.52 57.6667 136.136 56.984C135.763 56.2907 135.576 55.4907 135.576 54.584C135.576 53.6773 135.758 52.8827 136.12 52.2C136.494 51.5067 137.011 50.9733 137.672 50.6C138.344 50.2267 139.112 50.04 139.976 50.04C140.808 50.04 141.55 50.2213 142.2 50.584C142.851 50.9467 143.358 51.4587 143.72 52.12C144.083 52.7707 144.264 53.5227 144.264 54.376ZM142.36 53.8C142.35 53.128 142.11 52.5893 141.64 52.184C141.171 51.7787 140.59 51.576 139.896 51.576C139.267 51.576 138.728 51.7787 138.28 52.184C137.832 52.5787 137.566 53.1173 137.48 53.8H142.36ZM149.259 59.144C148.566 59.144 147.942 59.0213 147.387 58.776C146.843 58.52 146.411 58.1787 146.091 57.752C145.771 57.3147 145.601 56.8293 145.579 56.296H147.467C147.499 56.6693 147.675 56.984 147.995 57.24C148.326 57.4853 148.737 57.608 149.227 57.608C149.739 57.608 150.134 57.512 150.411 57.32C150.699 57.1173 150.843 56.8613 150.843 56.552C150.843 56.2213 150.683 55.976 150.363 55.816C150.054 55.656 149.558 55.48 148.875 55.288C148.214 55.1067 147.675 54.9307 147.259 54.76C146.843 54.5893 146.481 54.328 146.171 53.976C145.873 53.624 145.723 53.16 145.723 52.584C145.723 52.1147 145.862 51.688 146.139 51.304C146.417 50.9093 146.811 50.6 147.323 50.376C147.846 50.152 148.443 50.04 149.115 50.04C150.118 50.04 150.923 50.296 151.531 50.808C152.15 51.3093 152.481 51.9973 152.523 52.872H150.699C150.667 52.4773 150.507 52.1627 150.219 51.928C149.931 51.6933 149.542 51.576 149.051 51.576C148.571 51.576 148.203 51.6667 147.947 51.848C147.691 52.0293 147.563 52.2693 147.563 52.568C147.563 52.8027 147.649 53 147.819 53.16C147.99 53.32 148.198 53.448 148.443 53.544C148.689 53.6293 149.051 53.7413 149.531 53.88C150.171 54.0507 150.694 54.2267 151.099 54.408C151.515 54.5787 151.873 54.8347 152.171 55.176C152.47 55.5173 152.625 55.9707 152.635 56.536C152.635 57.0373 152.497 57.4853 152.219 57.88C151.942 58.2747 151.547 58.584 151.035 58.808C150.534 59.032 149.942 59.144 149.259 59.144ZM161.963 59.144C161.269 59.144 160.645 59.0213 160.091 58.776C159.547 58.52 159.115 58.1787 158.795 57.752C158.475 57.3147 158.304 56.8293 158.283 56.296H160.171C160.203 56.6693 160.379 56.984 160.699 57.24C161.029 57.4853 161.44 57.608 161.931 57.608C162.443 57.608 162.837 57.512 163.115 57.32C163.403 57.1173 163.547 56.8613 163.547 56.552C163.547 56.2213 163.387 55.976 163.067 55.816C162.757 55.656 162.261 55.48 161.579 55.288C160.917 55.1067 160.379 54.9307 159.963 54.76C159.547 54.5893 159.184 54.328 158.875 53.976C158.576 53.624 158.427 53.16 158.427 52.584C158.427 52.1147 158.565 51.688 158.843 51.304C159.12 50.9093 159.515 50.6 160.027 50.376C160.549 50.152 161.147 50.04 161.819 50.04C162.821 50.04 163.627 50.296 164.235 50.808C164.853 51.3093 165.184 51.9973 165.227 52.872H163.403C163.371 52.4773 163.211 52.1627 162.923 51.928C162.635 51.6933 162.245 51.576 161.755 51.576C161.275 51.576 160.907 51.6667 160.651 51.848C160.395 52.0293 160.267 52.2693 160.267 52.568C160.267 52.8027 160.352 53 160.523 53.16C160.693 53.32 160.901 53.448 161.147 53.544C161.392 53.6293 161.755 53.7413 162.235 53.88C162.875 54.0507 163.397 54.2267 163.803 54.408C164.219 54.5787 164.576 54.8347 164.875 55.176C165.173 55.5173 165.328 55.9707 165.339 56.536C165.339 57.0373 165.2 57.4853 164.923 57.88C164.645 58.2747 164.251 58.584 163.739 58.808C163.237 59.032 162.645 59.144 161.963 59.144ZM166.701 54.552C166.701 53.6667 166.883 52.8827 167.245 52.2C167.619 51.5173 168.12 50.9893 168.749 50.616C169.389 50.232 170.093 50.04 170.861 50.04C171.555 50.04 172.157 50.1787 172.669 50.456C173.192 50.7227 173.608 51.0587 173.917 51.464V50.184H175.757V59H173.917V57.688C173.608 58.104 173.187 58.4507 172.653 58.728C172.12 59.0053 171.512 59.144 170.829 59.144C170.072 59.144 169.379 58.952 168.749 58.568C168.12 58.1733 167.619 57.6293 167.245 56.936C166.883 56.232 166.701 55.4373 166.701 54.552ZM173.917 54.584C173.917 53.976 173.789 53.448 173.533 53C173.288 52.552 172.963 52.2107 172.557 51.976C172.152 51.7413 171.715 51.624 171.245 51.624C170.776 51.624 170.339 51.7413 169.933 51.976C169.528 52.2 169.197 52.536 168.941 52.984C168.696 53.4213 168.573 53.944 168.573 54.552C168.573 55.16 168.696 55.6933 168.941 56.152C169.197 56.6107 169.528 56.9627 169.933 57.208C170.349 57.4427 170.787 57.56 171.245 57.56C171.715 57.56 172.152 57.4427 172.557 57.208C172.963 56.9733 173.288 56.632 173.533 56.184C173.789 55.7253 173.917 55.192 173.917 54.584ZM179.977 47.16V59H178.153V47.16H179.977ZM185.78 57.368L188.276 50.184H190.212L186.852 59H184.676L181.332 50.184H183.284L185.78 57.368ZM190.983 54.552C190.983 53.6667 191.164 52.8827 191.527 52.2C191.9 51.5173 192.401 50.9893 193.031 50.616C193.671 50.232 194.375 50.04 195.143 50.04C195.836 50.04 196.439 50.1787 196.951 50.456C197.473 50.7227 197.889 51.0587 198.199 51.464V50.184H200.039V59H198.199V57.688C197.889 58.104 197.468 58.4507 196.935 58.728C196.401 59.0053 195.793 59.144 195.111 59.144C194.353 59.144 193.66 58.952 193.031 58.568C192.401 58.1733 191.9 57.6293 191.527 56.936C191.164 56.232 190.983 55.4373 190.983 54.552ZM198.199 54.584C198.199 53.976 198.071 53.448 197.815 53C197.569 52.552 197.244 52.2107 196.839 51.976C196.433 51.7413 195.996 51.624 195.527 51.624C195.057 51.624 194.62 51.7413 194.215 51.976C193.809 52.2 193.479 52.536 193.223 52.984C192.977 53.4213 192.855 53.944 192.855 54.552C192.855 55.16 192.977 55.6933 193.223 56.152C193.479 56.6107 193.809 56.9627 194.215 57.208C194.631 57.4427 195.068 57.56 195.527 57.56C195.996 57.56 196.433 57.4427 196.839 57.208C197.244 56.9733 197.569 56.632 197.815 56.184C198.071 55.7253 198.199 55.192 198.199 54.584ZM205.634 59.144C204.941 59.144 204.317 59.0213 203.762 58.776C203.218 58.52 202.786 58.1787 202.466 57.752C202.146 57.3147 201.976 56.8293 201.954 56.296H203.842C203.874 56.6693 204.05 56.984 204.37 57.24C204.701 57.4853 205.112 57.608 205.602 57.608C206.114 57.608 206.509 57.512 206.786 57.32C207.074 57.1173 207.218 56.8613 207.218 56.552C207.218 56.2213 207.058 55.976 206.738 55.816C206.429 55.656 205.933 55.48 205.25 55.288C204.589 55.1067 204.05 54.9307 203.634 54.76C203.218 54.5893 202.856 54.328 202.546 53.976C202.248 53.624 202.098 53.16 202.098 52.584C202.098 52.1147 202.237 51.688 202.514 51.304C202.792 50.9093 203.186 50.6 203.698 50.376C204.221 50.152 204.818 50.04 205.49 50.04C206.493 50.04 207.298 50.296 207.906 50.808C208.525 51.3093 208.856 51.9973 208.898 52.872H207.074C207.042 52.4773 206.882 52.1627 206.594 51.928C206.306 51.6933 205.917 51.576 205.426 51.576C204.946 51.576 204.578 51.6667 204.322 51.848C204.066 52.0293 203.938 52.2693 203.938 52.568C203.938 52.8027 204.024 53 204.194 53.16C204.365 53.32 204.573 53.448 204.818 53.544C205.064 53.6293 205.426 53.7413 205.906 53.88C206.546 54.0507 207.069 54.2267 207.474 54.408C207.89 54.5787 208.248 54.8347 208.546 55.176C208.845 55.5173 209 55.9707 209.01 56.536C209.01 57.0373 208.872 57.4853 208.594 57.88C208.317 58.2747 207.922 58.584 207.41 58.808C206.909 59.032 206.317 59.144 205.634 59.144ZM214.53 54.584C214.53 53.6773 214.711 52.8827 215.074 52.2C215.447 51.5067 215.959 50.9733 216.61 50.6C217.26 50.2267 218.007 50.04 218.85 50.04C219.916 50.04 220.796 50.296 221.49 50.808C222.194 51.3093 222.668 52.0293 222.914 52.968H220.946C220.786 52.5307 220.53 52.1893 220.178 51.944C219.826 51.6987 219.383 51.576 218.85 51.576C218.103 51.576 217.506 51.8427 217.058 52.376C216.62 52.8987 216.402 53.6347 216.402 54.584C216.402 55.5333 216.62 56.2747 217.058 56.808C217.506 57.3413 218.103 57.608 218.85 57.608C219.906 57.608 220.604 57.144 220.946 56.216H222.914C222.658 57.112 222.178 57.8267 221.474 58.36C220.77 58.8827 219.895 59.144 218.85 59.144C218.007 59.144 217.26 58.9573 216.61 58.584C215.959 58.2 215.447 57.6667 215.074 56.984C214.711 56.2907 214.53 55.4907 214.53 54.584ZM228.555 59.144C227.723 59.144 226.971 58.9573 226.299 58.584C225.627 58.2 225.099 57.6667 224.715 56.984C224.331 56.2907 224.139 55.4907 224.139 54.584C224.139 53.688 224.337 52.8933 224.731 52.2C225.126 51.5067 225.665 50.9733 226.347 50.6C227.03 50.2267 227.793 50.04 228.635 50.04C229.478 50.04 230.241 50.2267 230.923 50.6C231.606 50.9733 232.145 51.5067 232.539 52.2C232.934 52.8933 233.131 53.688 233.131 54.584C233.131 55.48 232.929 56.2747 232.523 56.968C232.118 57.6613 231.563 58.2 230.859 58.584C230.166 58.9573 229.398 59.144 228.555 59.144ZM228.555 57.56C229.025 57.56 229.462 57.448 229.867 57.224C230.283 57 230.619 56.664 230.875 56.216C231.131 55.768 231.259 55.224 231.259 54.584C231.259 53.944 231.137 53.4053 230.891 52.968C230.646 52.52 230.321 52.184 229.915 51.96C229.51 51.736 229.073 51.624 228.603 51.624C228.134 51.624 227.697 51.736 227.291 51.96C226.897 52.184 226.582 52.52 226.347 52.968C226.113 53.4053 225.995 53.944 225.995 54.584C225.995 55.5333 226.235 56.2693 226.715 56.792C227.206 57.304 227.819 57.56 228.555 57.56ZM245.606 50.04C246.3 50.04 246.918 50.184 247.462 50.472C248.017 50.76 248.449 51.1867 248.758 51.752C249.078 52.3173 249.238 53 249.238 53.8V59H247.43V54.072C247.43 53.2827 247.233 52.68 246.838 52.264C246.444 51.8373 245.905 51.624 245.222 51.624C244.54 51.624 243.996 51.8373 243.59 52.264C243.196 52.68 242.998 53.2827 242.998 54.072V59H241.19V54.072C241.19 53.2827 240.993 52.68 240.598 52.264C240.204 51.8373 239.665 51.624 238.982 51.624C238.3 51.624 237.756 51.8373 237.35 52.264C236.956 52.68 236.758 53.2827 236.758 54.072V59H234.934V50.184H236.758V51.192C237.057 50.8293 237.436 50.5467 237.894 50.344C238.353 50.1413 238.844 50.04 239.366 50.04C240.07 50.04 240.7 50.1893 241.254 50.488C241.809 50.7867 242.236 51.2187 242.534 51.784C242.801 51.2507 243.217 50.8293 243.782 50.52C244.348 50.2 244.956 50.04 245.606 50.04ZM258.916 59.144C258.222 59.144 257.598 59.0213 257.044 58.776C256.5 58.52 256.068 58.1787 255.748 57.752C255.428 57.3147 255.257 56.8293 255.236 56.296H257.124C257.156 56.6693 257.332 56.984 257.652 57.24C257.982 57.4853 258.393 57.608 258.884 57.608C259.396 57.608 259.79 57.512 260.068 57.32C260.356 57.1173 260.5 56.8613 260.5 56.552C260.5 56.2213 260.34 55.976 260.02 55.816C259.71 55.656 259.214 55.48 258.532 55.288C257.87 55.1067 257.332 54.9307 256.916 54.76C256.5 54.5893 256.137 54.328 255.828 53.976C255.529 53.624 255.38 53.16 255.38 52.584C255.38 52.1147 255.518 51.688 255.796 51.304C256.073 50.9093 256.468 50.6 256.98 50.376C257.502 50.152 258.1 50.04 258.772 50.04C259.774 50.04 260.58 50.296 261.188 50.808C261.806 51.3093 262.137 51.9973 262.18 52.872H260.356C260.324 52.4773 260.164 52.1627 259.876 51.928C259.588 51.6933 259.198 51.576 258.708 51.576C258.228 51.576 257.86 51.6667 257.604 51.848C257.348 52.0293 257.22 52.2693 257.22 52.568C257.22 52.8027 257.305 53 257.476 53.16C257.646 53.32 257.854 53.448 258.1 53.544C258.345 53.6293 258.708 53.7413 259.188 53.88C259.828 54.0507 260.35 54.2267 260.756 54.408C261.172 54.5787 261.529 54.8347 261.828 55.176C262.126 55.5173 262.281 55.9707 262.292 56.536C262.292 57.0373 262.153 57.4853 261.876 57.88C261.598 58.2747 261.204 58.584 260.692 58.808C260.19 59.032 259.598 59.144 258.916 59.144ZM272.247 50.184V59H270.423V57.96C270.135 58.3227 269.756 58.6107 269.287 58.824C268.828 59.0267 268.337 59.128 267.815 59.128C267.121 59.128 266.497 58.984 265.943 58.696C265.399 58.408 264.967 57.9813 264.647 57.416C264.337 56.8507 264.183 56.168 264.183 55.368V50.184H265.991V55.096C265.991 55.8853 266.188 56.4933 266.583 56.92C266.977 57.336 267.516 57.544 268.199 57.544C268.881 57.544 269.42 57.336 269.815 56.92C270.22 56.4933 270.423 55.8853 270.423 55.096V50.184H272.247ZM274.045 54.584C274.045 53.6773 274.226 52.8827 274.589 52.2C274.962 51.5067 275.474 50.9733 276.125 50.6C276.776 50.2267 277.522 50.04 278.365 50.04C279.432 50.04 280.312 50.296 281.005 50.808C281.709 51.3093 282.184 52.0293 282.429 52.968H280.461C280.301 52.5307 280.045 52.1893 279.693 51.944C279.341 51.6987 278.898 51.576 278.365 51.576C277.618 51.576 277.021 51.8427 276.573 52.376C276.136 52.8987 275.917 53.6347 275.917 54.584C275.917 55.5333 276.136 56.2747 276.573 56.808C277.021 57.3413 277.618 57.608 278.365 57.608C279.421 57.608 280.12 57.144 280.461 56.216H282.429C282.173 57.112 281.693 57.8267 280.989 58.36C280.285 58.8827 279.41 59.144 278.365 59.144C277.522 59.144 276.776 58.9573 276.125 58.584C275.474 58.2 274.962 57.6667 274.589 56.984C274.226 56.2907 274.045 55.4907 274.045 54.584ZM292.327 54.376C292.327 54.7067 292.306 55.0053 292.263 55.272H285.527C285.58 55.976 285.842 56.5413 286.311 56.968C286.78 57.3947 287.356 57.608 288.039 57.608C289.02 57.608 289.714 57.1973 290.119 56.376H292.087C291.82 57.1867 291.335 57.8533 290.631 58.376C289.938 58.888 289.074 59.144 288.039 59.144C287.196 59.144 286.439 58.9573 285.767 58.584C285.106 58.2 284.583 57.6667 284.199 56.984C283.826 56.2907 283.639 55.4907 283.639 54.584C283.639 53.6773 283.82 52.8827 284.183 52.2C284.556 51.5067 285.074 50.9733 285.735 50.6C286.407 50.2267 287.175 50.04 288.039 50.04C288.871 50.04 289.612 50.2213 290.263 50.584C290.914 50.9467 291.42 51.4587 291.783 52.12C292.146 52.7707 292.327 53.5227 292.327 54.376ZM290.423 53.8C290.412 53.128 290.172 52.5893 289.703 52.184C289.234 51.7787 288.652 51.576 287.959 51.576C287.33 51.576 286.791 51.7787 286.343 52.184C285.895 52.5787 285.628 53.1173 285.543 53.8H290.423ZM297.322 59.144C296.629 59.144 296.005 59.0213 295.45 58.776C294.906 58.52 294.474 58.1787 294.154 57.752C293.834 57.3147 293.663 56.8293 293.642 56.296H295.53C295.562 56.6693 295.738 56.984 296.058 57.24C296.389 57.4853 296.799 57.608 297.29 57.608C297.802 57.608 298.197 57.512 298.474 57.32C298.762 57.1173 298.906 56.8613 298.906 56.552C298.906 56.2213 298.746 55.976 298.426 55.816C298.117 55.656 297.621 55.48 296.938 55.288C296.277 55.1067 295.738 54.9307 295.322 54.76C294.906 54.5893 294.543 54.328 294.234 53.976C293.935 53.624 293.786 53.16 293.786 52.584C293.786 52.1147 293.925 51.688 294.202 51.304C294.479 50.9093 294.874 50.6 295.386 50.376C295.909 50.152 296.506 50.04 297.178 50.04C298.181 50.04 298.986 50.296 299.594 50.808C300.213 51.3093 300.543 51.9973 300.586 52.872H298.762C298.73 52.4773 298.57 52.1627 298.282 51.928C297.994 51.6933 297.605 51.576 297.114 51.576C296.634 51.576 296.266 51.6667 296.01 51.848C295.754 52.0293 295.626 52.2693 295.626 52.568C295.626 52.8027 295.711 53 295.882 53.16C296.053 53.32 296.261 53.448 296.506 53.544C296.751 53.6293 297.114 53.7413 297.594 53.88C298.234 54.0507 298.757 54.2267 299.162 54.408C299.578 54.5787 299.935 54.8347 300.234 55.176C300.533 55.5173 300.687 55.9707 300.698 56.536C300.698 57.0373 300.559 57.4853 300.282 57.88C300.005 58.2747 299.61 58.584 299.098 58.808C298.597 59.032 298.005 59.144 297.322 59.144ZM305.869 59.144C305.175 59.144 304.551 59.0213 303.997 58.776C303.453 58.52 303.021 58.1787 302.701 57.752C302.381 57.3147 302.21 56.8293 302.189 56.296H304.077C304.109 56.6693 304.285 56.984 304.605 57.24C304.935 57.4853 305.346 57.608 305.837 57.608C306.349 57.608 306.743 57.512 307.021 57.32C307.309 57.1173 307.453 56.8613 307.453 56.552C307.453 56.2213 307.293 55.976 306.973 55.816C306.663 55.656 306.167 55.48 305.485 55.288C304.823 55.1067 304.285 54.9307 303.869 54.76C303.453 54.5893 303.09 54.328 302.781 53.976C302.482 53.624 302.333 53.16 302.333 52.584C302.333 52.1147 302.471 51.688 302.749 51.304C303.026 50.9093 303.421 50.6 303.933 50.376C304.455 50.152 305.053 50.04 305.725 50.04C306.727 50.04 307.533 50.296 308.141 50.808C308.759 51.3093 309.09 51.9973 309.133 52.872H307.309C307.277 52.4773 307.117 52.1627 306.829 51.928C306.541 51.6933 306.151 51.576 305.661 51.576C305.181 51.576 304.813 51.6667 304.557 51.848C304.301 52.0293 304.173 52.2693 304.173 52.568C304.173 52.8027 304.258 53 304.429 53.16C304.599 53.32 304.807 53.448 305.053 53.544C305.298 53.6293 305.661 53.7413 306.141 53.88C306.781 54.0507 307.303 54.2267 307.709 54.408C308.125 54.5787 308.482 54.8347 308.781 55.176C309.079 55.5173 309.234 55.9707 309.245 56.536C309.245 57.0373 309.106 57.4853 308.829 57.88C308.551 58.2747 308.157 58.584 307.645 58.808C307.143 59.032 306.551 59.144 305.869 59.144ZM315.04 59.144C314.208 59.144 313.456 58.9573 312.784 58.584C312.112 58.2 311.584 57.6667 311.2 56.984C310.816 56.2907 310.624 55.4907 310.624 54.584C310.624 53.688 310.821 52.8933 311.216 52.2C311.61 51.5067 312.149 50.9733 312.832 50.6C313.514 50.2267 314.277 50.04 315.12 50.04C315.962 50.04 316.725 50.2267 317.408 50.6C318.09 50.9733 318.629 51.5067 319.024 52.2C319.418 52.8933 319.616 53.688 319.616 54.584C319.616 55.48 319.413 56.2747 319.008 56.968C318.602 57.6613 318.048 58.2 317.344 58.584C316.65 58.9573 315.882 59.144 315.04 59.144ZM315.04 57.56C315.509 57.56 315.946 57.448 316.352 57.224C316.768 57 317.104 56.664 317.36 56.216C317.616 55.768 317.744 55.224 317.744 54.584C317.744 53.944 317.621 53.4053 317.376 52.968C317.13 52.52 316.805 52.184 316.4 51.96C315.994 51.736 315.557 51.624 315.088 51.624C314.618 51.624 314.181 51.736 313.776 51.96C313.381 52.184 313.066 52.52 312.832 52.968C312.597 53.4053 312.48 53.944 312.48 54.584C312.48 55.5333 312.72 56.2693 313.2 56.792C313.69 57.304 314.304 57.56 315.04 57.56Z" fill="black"/>
</g>
<defs>
<filter id="filter0_d_1201_2898" x="0" y="0" width="355" height="116" filterUnits="userSpaceOnUse" color-interpolation-filters="sRGB">
<feFlood flood-opacity="0" result="BackgroundImageFix"/>
<feColorMatrix in="SourceAlpha" type="matrix" values="0 0 0 0 0 0 0 0 0 0 0 0 0 0 0 0 0 0 127 0" result="hardAlpha"/>
<feOffset dy="5"/>
<feGaussianBlur stdDeviation="10"/>
<feComposite in2="hardAlpha" operator="out"/>
<feColorMatrix type="matrix" values="0 0 0 0 0.164706 0 0 0 0 0.333333 0 0 0 0 0.760784 0 0 0 0.15 0"/>
<feBlend mode="normal" in2="BackgroundImageFix" result="effect1_dropShadow_1201_2898"/>
<feBlend mode="normal" in="SourceGraphic" in2="effect1_dropShadow_1201_2898" result="shape"/>
</filter>
</defs>
</svg>
