<svg width="40" height="40" viewBox="0 0 40 40" fill="none" xmlns="http://www.w3.org/2000/svg">
<circle cx="20" cy="20" r="20" fill="#D9D9D9"/>
<path fill-rule="evenodd" clip-rule="evenodd" d="M14.9831 13.7738C14.9831 12.4919 15.4923 11.2625 16.3987 10.3561C17.3051 9.44965 18.5345 8.94043 19.8164 8.94043C21.0983 8.94043 22.3277 9.44965 23.2341 10.3561C24.1405 11.2625 24.6497 12.4919 24.6497 13.7738C24.6497 15.0556 24.1405 16.285 23.2341 17.1914C22.3277 18.0979 21.0983 18.6071 19.8164 18.6071C18.5345 18.6071 17.3051 18.0979 16.3987 17.1914C15.4923 16.285 14.9831 15.0556 14.9831 13.7738ZM14.9831 21.0238C13.3807 21.0238 11.844 21.6603 10.711 22.7933C9.57794 23.9264 8.94141 25.4631 8.94141 27.0654C8.94141 28.0268 9.32332 28.9489 10.0031 29.6287C10.683 30.3085 11.605 30.6904 12.5664 30.6904H27.0664C28.0278 30.6904 28.9498 30.3085 29.6297 29.6287C30.3095 28.9489 30.6914 28.0268 30.6914 27.0654C30.6914 25.4631 30.0549 23.9264 28.9218 22.7933C27.7888 21.6603 26.2521 21.0238 24.6497 21.0238H14.9831Z" fill="black" fill-opacity="0.5"/>
</svg>
