<svg width="114" height="70" viewBox="0 0 114 70" fill="none" xmlns="http://www.w3.org/2000/svg">
<g filter="url(#filter0_d_916_1448)">
<path fill-rule="evenodd" clip-rule="evenodd" d="M15.2732 21.1287C15.2732 22.4514 15.5723 23.7277 16.128 24.9292C12.2404 27.7284 10.0212 31.1361 10.0212 35.0928C10.0212 46.4681 31.1835 57.7843 57.2886 57.7843C83.3936 57.7843 103.505 47.1665 103.505 35.791C103.844 31.8498 101.872 28.381 98.1687 25.4897C98.9034 24.1272 99.3038 22.6591 99.3038 21.1287C99.3038 13.9949 90.6039 8.21191 79.8717 8.21191C71.894 8.21191 65.0386 11.4078 62.0455 15.9786C60.4813 15.9212 58.8944 15.8921 57.2886 15.8921C55.6811 15.8921 54.0925 15.9186 52.5263 15.9712C49.531 11.4043 42.6791 8.21191 34.7053 8.21191C23.9732 8.21191 15.2732 13.9949 15.2732 21.1287Z" fill="#0076AC"/>
</g>
<g filter="url(#filter1_d_916_1448)">
<path d="M91.7228 35.3113C86.2812 33.9038 70.1552 30.644 56.9203 30.644C48.6116 30.8397 28.7374 32.9431 28.7374 32.9431C28.7374 32.9431 21.9796 34.2874 20.0491 34.8228C21.0203 64.1492 91.0945 66.0375 93.8055 36.7438C93.8488 36.2739 92.1179 35.7796 91.7228 35.3113Z" fill="#46C4FF"/>
</g>
<path d="M99.8129 39.1423C100.342 39.1423 100.772 38.7393 100.772 38.2418C100.772 37.7445 100.342 37.3413 99.8129 37.3413C99.2834 37.3413 98.8542 37.7445 98.8542 38.2418C98.8542 38.7393 99.2834 39.1423 99.8129 39.1423Z" fill="#00354E"/>
<path d="M96.8959 41.8767C97.4255 41.8767 97.8548 41.4735 97.8548 40.9762C97.8548 40.4789 97.4255 40.0757 96.8959 40.0757C96.3664 40.0757 95.9373 40.4789 95.9373 40.9762C95.9373 41.4735 96.3664 41.8767 96.8959 41.8767Z" fill="#00354E"/>
<path d="M96.3729 37.8015C96.9024 37.8015 97.3316 37.3983 97.3316 36.901C97.3316 36.4036 96.9024 36.0005 96.3729 36.0005C95.8434 36.0005 95.4141 36.4036 95.4141 36.901C95.4141 37.3983 95.8434 37.8015 96.3729 37.8015Z" fill="#00354E"/>
<path d="M13.8549 40.5022C14.3844 40.5022 14.8138 40.0991 14.8138 39.6017C14.8138 39.1044 14.3844 38.7012 13.8549 38.7012C13.3254 38.7012 12.8962 39.1044 12.8962 39.6017C12.8962 40.0991 13.3254 40.5022 13.8549 40.5022Z" fill="#00354E"/>
<path d="M17.2122 42.3045C17.7417 42.3045 18.171 41.9012 18.171 41.4039C18.171 40.9066 17.7417 40.5034 17.2122 40.5034C16.6827 40.5034 16.2534 40.9066 16.2534 41.4039C16.2534 41.9012 16.6827 42.3045 17.2122 42.3045Z" fill="#00354E"/>
<path d="M16.2532 37.8015C16.7827 37.8015 17.212 37.3983 17.212 36.901C17.212 36.4036 16.7827 36.0005 16.2532 36.0005C15.7237 36.0005 15.2944 36.4036 15.2944 36.901C15.2944 37.3983 15.7237 37.8015 16.2532 37.8015Z" fill="#00354E"/>
<path d="M20.132 35.3546C24.9288 32.401 31.9566 32.1205 38.5161 32.2762C44.1769 32.4106 49.5132 29.7738 55.8992 30.7687C57.3083 30.9884 58.7608 31.0514 60.1894 30.9463C68.5647 30.3293 72.9604 33.0245 82.3505 33.3138C87.6371 33.8207 90.4341 34.9934 93.7292 37.0967" stroke="#00354E" stroke-linecap="round"/>
<path d="M43.98 13.4858L20.6431 20.0728C25.1828 36.2195 48.596 29.9903 44.079 13.8372C44.0465 13.7207 44.0134 13.6036 43.98 13.4858Z" fill="white"/>
<path d="M40.6049 14.4261L29.5493 17.437C31.7544 25.566 42.8458 22.7523 40.6573 14.6189C40.64 14.555 40.6225 14.4908 40.6049 14.4261Z" fill="#333333"/>
<path d="M92.7966 19.7779L69.4946 13.0684C64.8372 29.1815 88.0155 36.2354 92.6954 20.1288C92.7292 20.0126 92.763 19.8957 92.7966 19.7779Z" fill="white"/>
<path d="M84.2338 17.2001L73.3472 13.6113C70.438 22.4089 81.2397 26.201 84.1649 17.4088C84.1879 17.3398 84.2109 17.2702 84.2338 17.2001Z" fill="#333333"/>
<path d="M66.7656 10.5508L95.1576 19.8365" stroke="#333333" stroke-width="5" stroke-linecap="round"/>
<path d="M18.8562 19.4336L46.9494 10.955" stroke="#333333" stroke-width="5" stroke-linecap="round"/>
<path fill-rule="evenodd" clip-rule="evenodd" d="M78.9515 22.0153C78.6498 21.1077 79.1058 20.0446 79.9701 19.6409C80.8342 19.2372 81.7794 19.6456 82.081 20.5533C82.3827 21.4609 81.9267 22.5239 81.0625 22.9277C80.1983 23.3313 79.2532 22.9228 78.9515 22.0153ZM76.0278 17.8084C75.9468 17.0844 76.4167 16.4377 77.0774 16.3638C77.738 16.2899 78.3392 16.8168 78.4202 17.5409C78.5012 18.2648 78.0313 18.9117 77.3706 18.9856C76.71 19.0595 76.1088 18.5324 76.0278 17.8084Z" fill="white"/>
<path fill-rule="evenodd" clip-rule="evenodd" d="M33.622 19.8369C34.426 19.3189 35.5692 19.4961 36.1752 20.2327C36.7811 20.9693 36.6207 21.9863 35.8167 22.5043C35.0126 23.0223 33.8696 22.8451 33.2635 22.1085C32.6575 21.3719 32.8181 20.3549 33.622 19.8369ZM36.9692 15.9585C37.6503 15.6999 38.3937 15.9942 38.6296 16.6157C38.8655 17.2372 38.5047 17.9505 37.8236 18.2091C37.1426 18.4676 36.3991 18.1735 36.1632 17.552C35.9273 16.9305 36.2882 16.217 36.9692 15.9585Z" fill="white"/>
<path d="M81.8467 31.2984C81.816 31.2626 81.7779 31.2338 81.7351 31.214C81.6923 31.1943 81.6457 31.1841 81.5985 31.1841C81.5514 31.1841 81.5048 31.1943 81.462 31.214C81.4191 31.2338 81.3811 31.2626 81.3504 31.2984C80.4886 32.3076 77.6785 35.7967 77.6785 38.3812C77.6785 40.7896 79.1931 42.3058 81.5984 42.3058C84.0037 42.3058 85.5183 40.7896 85.5183 38.3812C85.5183 35.7967 82.7082 32.3076 81.8467 31.2984ZM82.0339 40.8885C81.9816 40.8887 81.93 40.8762 81.8835 40.8522C81.837 40.8282 81.797 40.7933 81.7667 40.7506C81.7365 40.7079 81.7169 40.6585 81.7097 40.6066C81.7025 40.5547 81.7078 40.5019 81.7253 40.4525C81.7475 40.388 81.7895 40.3323 81.8453 40.2931C81.9011 40.254 81.9678 40.2335 82.0359 40.2344C82.4682 40.2335 82.8826 40.0611 83.1884 39.755C83.4941 39.4489 83.6663 39.034 83.6673 38.6011C83.6663 38.5329 83.6868 38.4662 83.7259 38.4103C83.765 38.3545 83.8207 38.3125 83.885 38.2901C83.9344 38.2727 83.9871 38.2673 84.039 38.2746C84.0908 38.2818 84.1401 38.3014 84.1828 38.3317C84.2255 38.362 84.2603 38.4021 84.2843 38.4486C84.3082 38.4952 84.3207 38.5468 84.3206 38.5992C84.3199 39.2062 84.0788 39.7881 83.6501 40.2173C83.2214 40.6465 82.6402 40.8879 82.0339 40.8885Z" fill="#52E0FF"/>
<path d="M82.0339 40.8885C81.9816 40.8887 81.93 40.8762 81.8835 40.8522C81.837 40.8282 81.797 40.7933 81.7667 40.7506C81.7365 40.7079 81.7169 40.6585 81.7097 40.6066C81.7025 40.5547 81.7078 40.5019 81.7253 40.4525C81.7475 40.388 81.7895 40.3323 81.8453 40.2931C81.9011 40.254 81.9678 40.2335 82.0359 40.2344C82.4682 40.2335 82.8826 40.0611 83.1884 39.755C83.4941 39.4489 83.6663 39.034 83.6673 38.6011C83.6663 38.5329 83.6868 38.4662 83.7259 38.4103C83.765 38.3545 83.8207 38.3125 83.885 38.2901C83.9344 38.2727 83.9871 38.2673 84.039 38.2746C84.0908 38.2818 84.1401 38.3014 84.1828 38.3317C84.2255 38.362 84.2603 38.4021 84.2843 38.4486C84.3082 38.4952 84.3207 38.5468 84.3206 38.5992C84.3199 39.2062 84.0788 39.7881 83.6501 40.2173C83.2214 40.6465 82.6402 40.8879 82.0339 40.8885Z" fill="#F8F8FF"/>
<defs>
<filter id="filter0_d_916_1448" x="0.0212402" y="0.211914" width="113.521" height="69.5723" filterUnits="userSpaceOnUse" color-interpolation-filters="sRGB">
<feFlood flood-opacity="0" result="BackgroundImageFix"/>
<feColorMatrix in="SourceAlpha" type="matrix" values="0 0 0 0 0 0 0 0 0 0 0 0 0 0 0 0 0 0 127 0" result="hardAlpha"/>
<feOffset dy="2"/>
<feGaussianBlur stdDeviation="5"/>
<feComposite in2="hardAlpha" operator="out"/>
<feColorMatrix type="matrix" values="0 0 0 0 0 0 0 0 0 0 0 0 0 0 0 0 0 0 0.05 0"/>
<feBlend mode="normal" in2="BackgroundImageFix" result="effect1_dropShadow_916_1448"/>
<feBlend mode="normal" in="SourceGraphic" in2="effect1_dropShadow_916_1448" result="shape"/>
</filter>
<filter id="filter1_d_916_1448" x="10.0491" y="22.644" width="93.7573" height="47.145" filterUnits="userSpaceOnUse" color-interpolation-filters="sRGB">
<feFlood flood-opacity="0" result="BackgroundImageFix"/>
<feColorMatrix in="SourceAlpha" type="matrix" values="0 0 0 0 0 0 0 0 0 0 0 0 0 0 0 0 0 0 127 0" result="hardAlpha"/>
<feOffset dy="2"/>
<feGaussianBlur stdDeviation="5"/>
<feComposite in2="hardAlpha" operator="out"/>
<feColorMatrix type="matrix" values="0 0 0 0 0 0 0 0 0 0 0 0 0 0 0 0 0 0 0.05 0"/>
<feBlend mode="normal" in2="BackgroundImageFix" result="effect1_dropShadow_916_1448"/>
<feBlend mode="normal" in="SourceGraphic" in2="effect1_dropShadow_916_1448" result="shape"/>
</filter>
</defs>
</svg>
