<svg width="113" height="71" viewBox="0 0 113 71" fill="none" xmlns="http://www.w3.org/2000/svg">
<g filter="url(#filter0_d_916_1475)">
<path fill-rule="evenodd" clip-rule="evenodd" d="M97.7585 21.6003C97.7585 22.9152 97.4612 24.1839 96.9088 25.3783C100.773 28.1607 102.979 31.5479 102.979 35.4809C102.979 46.7883 81.944 58.0369 55.9963 58.0369C30.0488 58.0369 10.0583 47.4825 10.0583 36.175C9.72128 32.2574 11.6818 28.8093 15.3628 25.9352C14.6326 24.581 14.2346 23.1215 14.2346 21.6003C14.2346 14.5092 22.882 8.76074 33.5494 8.76074C41.4791 8.76074 48.2932 11.9375 51.2682 16.481C52.823 16.424 54.4003 16.3951 55.9963 16.3951C57.5942 16.3951 59.1732 16.4214 60.7299 16.4737C63.7072 11.934 70.5179 8.76074 78.4435 8.76074C89.111 8.76074 97.7585 14.5092 97.7585 21.6003Z" fill="#808080"/>
</g>
<g filter="url(#filter1_d_916_1475)">
<path d="M22.3623 33.3867C33.8835 34.6807 44.6176 35.9136 56.407 35.9136C67.0611 35.9136 82.9643 34.8362 89.1858 33.3867C88.3207 65.7606 24.4252 67.3031 22.0104 34.9655C21.9719 34.4465 22.0103 33.9037 22.3623 33.3867Z" fill="#D9D9D9"/>
</g>
<path d="M12.9215 39.0681C12.3952 39.0681 11.9686 38.6674 11.9686 38.1731C11.9686 37.6787 12.3952 37.2778 12.9215 37.2778C13.4479 37.2778 13.8745 37.6787 13.8745 38.1731C13.8745 38.6674 13.4479 39.0681 12.9215 39.0681Z" fill="#333333"/>
<path d="M17.6864 42.65C17.1601 42.65 16.7335 42.2493 16.7335 41.7549C16.7335 41.2606 17.1601 40.8599 17.6864 40.8599C18.2127 40.8599 18.6394 41.2606 18.6394 41.7549C18.6394 42.2493 18.2127 42.65 17.6864 42.65Z" fill="#333333"/>
<path d="M18.6395 38.1741C18.1132 38.1741 17.6866 37.7734 17.6866 37.279C17.6866 36.7847 18.1132 36.3838 18.6395 36.3838C19.1659 36.3838 19.5925 36.7847 19.5925 37.279C19.5925 37.7734 19.1659 38.1741 18.6395 38.1741Z" fill="#333333"/>
<path d="M91.0665 39.0681C90.5402 39.0681 90.1135 38.6674 90.1135 38.1731C90.1135 37.6787 90.5402 37.2778 91.0665 37.2778C91.5929 37.2778 92.0195 37.6787 92.0195 38.1731C92.0195 38.6674 91.5929 39.0681 91.0665 39.0681Z" fill="#333333"/>
<path d="M95.8314 42.65C95.3051 42.65 94.8784 42.2493 94.8784 41.7549C94.8784 41.2606 95.3051 40.8599 95.8314 40.8599C96.3578 40.8599 96.7844 41.2606 96.7844 41.7549C96.7844 42.2493 96.3578 42.65 95.8314 42.65Z" fill="#333333"/>
<path d="M96.7843 38.1741C96.258 38.1741 95.8313 37.7734 95.8313 37.279C95.8313 36.7847 96.258 36.3838 96.7843 36.3838C97.3106 36.3838 97.7373 36.7847 97.7373 37.279C97.7373 37.7734 97.3106 38.1741 96.7843 38.1741Z" fill="#333333"/>
<path d="M18.3042 31.4956C23.0897 34.1325 30.198 34.5167 36.8423 34.5164C42.5765 34.5161 47.9156 36.8917 54.4046 36.1661C55.8363 36.006 57.3083 35.9814 58.7523 36.1008C67.2164 36.8016 71.7311 34.5741 81.2444 34.5164C86.6088 34.1881 89.4685 33.2368 92.8547 31.4956" stroke="#333333" stroke-linecap="round"/>
<path d="M67.0485 17.1494H91.1511C91.1681 33.8219 67.0892 34.1849 67.0486 17.5123C67.0483 17.3921 67.0483 17.2711 67.0485 17.1494Z" fill="white"/>
<path d="M71.4308 17.1494H82.8247C82.8332 24.4189 71.4563 24.5914 71.4308 17.3219C71.4307 17.2648 71.4307 17.2073 71.4308 17.1494Z" fill="#333333"/>
<path d="M21.9869 17.1494H46.0893C46.1063 33.8219 22.0274 34.1849 21.9869 17.5123C21.9866 17.3921 21.9866 17.2711 21.9869 17.1494Z" fill="white"/>
<path d="M30.3293 17.1494H41.7231C41.7316 24.4189 30.3549 24.5914 30.3294 17.3219C30.3293 17.2648 30.3291 17.2073 30.3293 17.1494Z" fill="#333333"/>
<path d="M47.3123 15.7012H17.6205" stroke="#333333" stroke-width="5" stroke-linecap="round"/>
<path d="M94.8191 15.7012L65.6513 15.7012" stroke="#333333" stroke-width="5" stroke-linecap="round"/>
<defs>
<filter id="filter0_d_916_1475" x="0.0209961" y="0.760742" width="112.958" height="69.2759" filterUnits="userSpaceOnUse" color-interpolation-filters="sRGB">
<feFlood flood-opacity="0" result="BackgroundImageFix"/>
<feColorMatrix in="SourceAlpha" type="matrix" values="0 0 0 0 0 0 0 0 0 0 0 0 0 0 0 0 0 0 127 0" result="hardAlpha"/>
<feOffset dy="2"/>
<feGaussianBlur stdDeviation="5"/>
<feComposite in2="hardAlpha" operator="out"/>
<feColorMatrix type="matrix" values="0 0 0 0 0 0 0 0 0 0 0 0 0 0 0 0 0 0 0.05 0"/>
<feBlend mode="normal" in2="BackgroundImageFix" result="effect1_dropShadow_916_1475"/>
<feBlend mode="normal" in="SourceGraphic" in2="effect1_dropShadow_916_1475" result="shape"/>
</filter>
<filter id="filter1_d_916_1475" x="11.9983" y="25.3867" width="87.1875" height="45.0703" filterUnits="userSpaceOnUse" color-interpolation-filters="sRGB">
<feFlood flood-opacity="0" result="BackgroundImageFix"/>
<feColorMatrix in="SourceAlpha" type="matrix" values="0 0 0 0 0 0 0 0 0 0 0 0 0 0 0 0 0 0 127 0" result="hardAlpha"/>
<feOffset dy="2"/>
<feGaussianBlur stdDeviation="5"/>
<feComposite in2="hardAlpha" operator="out"/>
<feColorMatrix type="matrix" values="0 0 0 0 0 0 0 0 0 0 0 0 0 0 0 0 0 0 0.05 0"/>
<feBlend mode="normal" in2="BackgroundImageFix" result="effect1_dropShadow_916_1475"/>
<feBlend mode="normal" in="SourceGraphic" in2="effect1_dropShadow_916_1475" result="shape"/>
</filter>
</defs>
</svg>
