<svg width="84" height="67" viewBox="0 0 84 67" fill="none" xmlns="http://www.w3.org/2000/svg">
<path fill-rule="evenodd" clip-rule="evenodd" d="M4.67787 21.7998C4.67787 22.9781 4.94429 24.1149 5.43924 25.1854C1.97661 27.6788 0 30.7145 0 34.2391C0 44.3722 18.8491 54.4529 42.1007 54.4529C65.3523 54.4529 83.2655 44.9944 83.2655 34.861C83.5677 31.3503 81.8109 28.2602 78.5123 25.6846C79.1667 24.471 79.5234 23.1631 79.5234 21.7998C79.5234 15.445 71.7744 10.2935 62.2154 10.2935C55.1097 10.2935 49.0036 13.1403 46.3377 17.212C44.9443 17.1608 43.5311 17.135 42.1007 17.135C40.669 17.135 39.2539 17.1586 37.8591 17.2054C35.1911 13.1372 29.0881 10.2935 21.9859 10.2935C12.4269 10.2935 4.67787 15.445 4.67787 21.7998Z" fill="#FFC01E"/>
<g filter="url(#filter0_d_2923_1356)">
<path d="M72.3801 31.8975C65.4201 34.0174 52.1962 34.3931 42.0375 32.133C33.167 33.5645 16.9344 34.3314 12.4768 31.8975C13.2481 61.0034 70.2163 62.3903 72.3694 33.3168C72.4037 32.8504 72.4583 32.3686 72.3801 31.8975Z" fill="#FBE9BB"/>
</g>
<path d="M59.2647 33.5311C54.1263 33.5308 49.68 33.2652 43.8652 32.615C42.5822 32.4716 41.2631 32.4494 39.9694 32.5566C32.3846 33.1846 28.0009 33.5828 19.4761 33.5311C16.4143 33.3436 14.2629 32.9298 12.3203 32.2506C35.9882 55.6296 49.1478 55.1928 72.4202 32.2124C68.5193 33.3339 63.7728 33.5313 59.2647 33.5311Z" fill="#413621"/>
<path fill-rule="evenodd" clip-rule="evenodd" d="M56.2997 45.3593C46.3613 39.4359 38.1445 39.596 28.4409 45.3593C38.3793 51.1507 46.5961 50.9942 56.2997 45.3593Z" fill="#EB8884"/>
<path d="M75.8766 30.8242C71.5884 33.1873 65.2187 33.5316 59.2648 33.5313C54.1264 33.531 49.6801 33.2654 43.8653 32.6152C42.5822 32.4718 41.2632 32.4496 39.9694 32.5568C32.3847 33.1848 28.001 33.583 19.4762 33.5313C14.6693 33.2371 12.1067 32.3846 9.07227 30.8242" stroke="#5B4B22" stroke-linecap="round"/>
<path d="M51.7607 22.4742C61.368 17.4729 64.2632 17.5444 73.6722 22.4742" stroke="#5B4B22" stroke-width="5" stroke-linecap="round"/>
<path d="M34.2317 22.4737C24.6244 17.4731 21.7292 17.5446 12.3203 22.4737" stroke="#5B4B22" stroke-width="5" stroke-linecap="round"/>
<path d="M75.0173 7.84284C69.517 6.23508 65.2951 4.42908 60.9044 0.900579C58.552 -0.989836 54.8825 0.227412 54.3087 3.32402C53.8855 5.60735 55.4386 7.73113 57.6349 7.87256L74.8281 8.97973C75.4501 9.0198 75.6154 8.01763 75.0173 7.84284Z" fill="#333333"/>
<path d="M8.87252 7.6672C14.4003 6.15572 18.6531 4.42374 23.1049 0.972581C25.49 -0.876386 29.1377 0.404583 29.6573 3.51051C30.0406 5.8007 28.4507 7.89693 26.2522 8.00002L9.04182 8.8071C8.41932 8.83621 8.27151 7.83154 8.87252 7.6672Z" fill="#333333"/>
<path d="M80.6999 37.4538C81.1714 37.4538 81.5538 37.0948 81.5538 36.6516C81.5538 36.2087 81.1714 35.8496 80.6999 35.8496C80.2283 35.8496 79.8459 36.2087 79.8459 36.6516C79.8459 37.0948 80.2283 37.4538 80.6999 37.4538Z" fill="#5B4B22"/>
<path d="M76.4302 40.664C76.9018 40.664 77.2842 40.3047 77.2842 39.8618C77.2842 39.4188 76.9018 39.0596 76.4302 39.0596C75.9585 39.0596 75.5762 39.4188 75.5762 39.8618C75.5762 40.3047 75.9585 40.664 76.4302 40.664Z" fill="#5B4B22"/>
<path d="M75.5761 36.6522C76.0478 36.6522 76.4302 36.293 76.4302 35.85C76.4302 35.4069 76.0478 35.0479 75.5761 35.0479C75.1045 35.0479 74.7222 35.4069 74.7222 35.85C74.7222 36.293 75.1045 36.6522 75.5761 36.6522Z" fill="#5B4B22"/>
<path d="M10.6748 37.4538C11.1464 37.4538 11.5288 37.0948 11.5288 36.6516C11.5288 36.2087 11.1464 35.8496 10.6748 35.8496C10.2031 35.8496 9.8208 36.2087 9.8208 36.6516C9.8208 37.0948 10.2031 37.4538 10.6748 37.4538Z" fill="#5B4B22"/>
<path d="M6.40499 40.664C6.87663 40.664 7.25896 40.3047 7.25896 39.8618C7.25896 39.4188 6.87663 39.0596 6.40499 39.0596C5.93336 39.0596 5.55103 39.4188 5.55103 39.8618C5.55103 40.3047 5.93336 40.664 6.40499 40.664Z" fill="#5B4B22"/>
<path d="M5.55074 36.6522C6.02239 36.6522 6.40471 36.293 6.40471 35.85C6.40471 35.4069 6.02239 35.0479 5.55074 35.0479C5.07912 35.0479 4.69678 35.4069 4.69678 35.85C4.69678 36.293 5.07912 36.6522 5.55074 36.6522Z" fill="#5B4B22"/>
<defs>
<filter id="filter0_d_2923_1356" x="2.47681" y="23.8975" width="79.9434" height="42.5396" filterUnits="userSpaceOnUse" color-interpolation-filters="sRGB">
<feFlood flood-opacity="0" result="BackgroundImageFix"/>
<feColorMatrix in="SourceAlpha" type="matrix" values="0 0 0 0 0 0 0 0 0 0 0 0 0 0 0 0 0 0 127 0" result="hardAlpha"/>
<feOffset dy="2"/>
<feGaussianBlur stdDeviation="5"/>
<feComposite in2="hardAlpha" operator="out"/>
<feColorMatrix type="matrix" values="0 0 0 0 0 0 0 0 0 0 0 0 0 0 0 0 0 0 0.05 0"/>
<feBlend mode="normal" in2="BackgroundImageFix" result="effect1_dropShadow_2923_1356"/>
<feBlend mode="normal" in="SourceGraphic" in2="effect1_dropShadow_2923_1356" result="shape"/>
</filter>
</defs>
</svg>
