<svg width="108" height="68" viewBox="0 0 108 68" fill="none" xmlns="http://www.w3.org/2000/svg">
<g filter="url(#filter0_d_916_1750)">
<path fill-rule="evenodd" clip-rule="evenodd" d="M15.7296 21.3296C15.7296 22.5598 16.0077 23.7467 16.5245 24.8643C12.9096 27.4674 10.8459 30.6365 10.8459 34.3164C10.8459 44.8954 30.5239 55.4196 54.7981 55.4196C79.0719 55.4196 97.7729 45.545 97.7729 34.9656C98.0883 31.3005 96.2542 28.0743 92.8105 25.3854C93.4937 24.1183 93.8661 22.7528 93.8661 21.3296C93.8661 14.6951 85.7764 9.31689 75.797 9.31689C68.3789 9.31689 62.0043 12.2891 59.2212 16.54C57.7666 16.4866 56.2911 16.4596 54.7981 16.4596C53.3032 16.4596 51.826 16.4842 50.3698 16.5331C47.5845 12.2858 41.2132 9.31689 33.7986 9.31689C23.8193 9.31689 15.7296 14.6951 15.7296 21.3296Z" fill="#FF9191"/>
</g>
<g filter="url(#filter1_d_916_1750)">
<path d="M85.4315 31.981C74.6535 33.1917 64.4031 34.3328 53.7441 31.981C44.4366 33.4705 28.7384 33.337 22.9182 31.981C23.7277 62.2699 83.5017 63.713 85.7607 33.4579C85.7968 32.9725 85.7607 32.4647 85.4315 31.981Z" fill="#F2B1AF"/>
</g>
<path d="M18.1848 10.4797C20.0093 5.11087 22.3378 3.53989 29.5961 0.512046C29.8455 0.408098 30.1667 0.412008 30.4118 0.520351L30.576 0.592878C39.5954 4.57753 42.4662 5.84582 42.2827 8.70433C42.2801 8.745 42.1935 8.75355 42.1526 8.72418C36.2406 4.46701 25.8861 5.48102 19.7302 9.56998C19.2765 9.87126 18.8074 10.1913 18.3162 10.531C18.2608 10.5693 18.167 10.5323 18.1848 10.4797Z" fill="#333333"/>
<path d="M89.2141 10.4797C87.4872 5.11087 85.2834 3.53989 78.4138 0.512046C78.178 0.408098 77.8739 0.412008 77.6419 0.520351L77.4865 0.592878C68.9504 4.57753 66.2335 5.84582 66.4069 8.70433C66.4093 8.745 66.4915 8.75355 66.5301 8.72418C72.1256 4.46701 81.9252 5.48102 87.7514 9.56998C88.1808 9.87126 88.6248 10.1913 89.0896 10.531C89.1421 10.5693 89.2308 10.5323 89.2141 10.4797Z" fill="#333333"/>
<path d="M89.2159 30.3633C84.7391 32.8303 78.0894 33.1897 71.8736 33.1893C66.5093 33.1892 61.8675 32.9119 55.797 32.2331C54.4576 32.0834 53.0804 32.0602 51.7298 32.1719C43.8115 32.8277 39.2351 33.2433 30.3354 33.1893C25.3172 32.8823 22.642 31.9923 19.4741 30.3633" stroke="#E8625D" stroke-linecap="round"/>
<path d="M19.3973 36.3347C22.2875 38.0036 25.5323 37.7943 26.6448 35.8673C27.7572 33.9402 26.316 31.0251 23.4258 29.3562C20.5356 27.6874 17.2908 27.8967 16.1784 29.8237C15.0659 31.7508 16.5071 34.6659 19.3973 36.3347Z" fill="#E8625D"/>
<path d="M90.0915 35.7365C92.9818 34.0676 94.4229 31.1525 93.3105 29.2255C92.198 27.2984 88.9532 27.0891 86.063 28.758C83.1728 30.4269 81.7316 33.342 82.8441 35.269C83.9565 37.1961 87.2013 37.4054 90.0915 35.7365Z" fill="#E8625D"/>
<path d="M87.0782 18.2824C87.0782 24.7779 77.3876 30.0356 76.9751 30.2528C76.8662 30.3109 76.7447 30.3413 76.6212 30.3413C76.4976 30.3413 76.3761 30.3109 76.2672 30.2528C75.8547 30.0356 66.1641 24.7779 66.1641 18.2824C66.1659 16.7572 66.7763 15.2948 67.8614 14.2163C68.9466 13.1377 70.4181 12.531 71.9529 12.5293C73.8809 12.5293 75.5689 13.3533 76.6212 14.7461C77.6734 13.3533 79.3614 12.5293 81.2894 12.5293C82.8242 12.531 84.2957 13.1377 85.3809 14.2163C86.466 15.2948 87.0764 16.7572 87.0782 18.2824Z" fill="#E6322B"/>
<path d="M100.277 12.7627C99.8083 14.3017 97.1112 14.8414 96.997 14.8628C96.9667 14.8687 96.9354 14.8671 96.9058 14.8581C96.8764 14.8491 96.8494 14.8329 96.8277 14.8114C96.7447 14.7298 94.8065 12.7779 95.2755 11.2387C95.3859 10.8774 95.6375 10.5754 95.9748 10.3989C96.3122 10.2224 96.7079 10.1858 97.0751 10.2972C97.5362 10.4378 97.8804 10.756 98.0314 11.1627C98.3837 10.9094 98.8469 10.8372 99.308 10.9775C99.6748 11.0898 99.983 11.3408 100.165 11.6755C100.346 12.01 100.387 12.401 100.277 12.7627Z" fill="#E6322B"/>
<path d="M13.7548 19.3217C14.3047 21.3745 11.659 23.8644 11.5458 23.9682C11.516 23.996 11.4798 24.0159 11.4404 24.0266C11.401 24.037 11.3596 24.0378 11.32 24.0288C11.17 23.9953 7.63392 23.1621 7.08394 21.1093C6.95535 20.6271 7.02624 20.1128 7.28106 19.6791C7.53589 19.2456 7.95383 18.9281 8.44322 18.7964C9.05818 18.6315 9.66637 18.7477 10.1199 19.0978C10.3376 18.5677 10.8063 18.1631 11.4212 17.9982C11.9109 17.8677 12.4316 17.9335 12.8691 18.1816C13.3065 18.4298 13.6251 18.8398 13.7548 19.3217Z" fill="#AE1F19"/>
<path d="M42.3087 18.2824C42.3087 24.7779 32.6181 30.0356 32.2055 30.2528C32.0967 30.3109 31.9751 30.3413 31.8516 30.3413C31.7281 30.3413 31.6065 30.3109 31.4977 30.2528C31.0851 30.0356 21.3945 24.7779 21.3945 18.2824C21.3963 16.7572 22.0068 15.2948 23.0918 14.2163C24.1771 13.1377 25.6486 12.531 27.1833 12.5293C29.1114 12.5293 30.7994 13.3533 31.8516 14.7461C32.9039 13.3533 34.5919 12.5293 36.5199 12.5293C38.0546 12.531 39.5261 13.1377 40.6114 14.2163C41.6965 15.2948 42.3069 16.7572 42.3087 18.2824Z" fill="#E6322B"/>
<path d="M13.4932 7.00092C13.711 6.57897 14.3415 6.68238 14.4133 7.15183L14.4641 7.48483C14.4963 7.69479 14.6598 7.86019 14.8693 7.89457L15.2018 7.94909C15.6704 8.02594 15.7668 8.65758 15.3426 8.87087L15.0417 9.02217C14.852 9.11756 14.7451 9.32428 14.7773 9.53423L14.8281 9.86723C14.8998 10.3367 14.3289 10.6237 13.995 10.286L13.7582 10.0465C13.6089 9.89553 13.3793 9.85789 13.1895 9.95327L12.8886 10.1046C12.4643 10.3178 12.015 9.86355 12.233 9.44159L12.3875 9.14228C12.4849 8.95357 12.4498 8.72357 12.3004 8.57258L12.0635 8.33308C11.7297 7.99543 12.0228 7.42769 12.4914 7.50454L12.8238 7.55905C13.0334 7.59344 13.2412 7.48893 13.3386 7.30024L13.4932 7.00092Z" fill="#E86A90"/>
<defs>
<filter id="filter0_d_916_1750" x="0.845947" y="1.31689" width="106.962" height="66.1025" filterUnits="userSpaceOnUse" color-interpolation-filters="sRGB">
<feFlood flood-opacity="0" result="BackgroundImageFix"/>
<feColorMatrix in="SourceAlpha" type="matrix" values="0 0 0 0 0 0 0 0 0 0 0 0 0 0 0 0 0 0 127 0" result="hardAlpha"/>
<feOffset dy="2"/>
<feGaussianBlur stdDeviation="5"/>
<feComposite in2="hardAlpha" operator="out"/>
<feColorMatrix type="matrix" values="0 0 0 0 0 0 0 0 0 0 0 0 0 0 0 0 0 0 0.05 0"/>
<feBlend mode="normal" in2="BackgroundImageFix" result="effect1_dropShadow_916_1750"/>
<feBlend mode="normal" in="SourceGraphic" in2="effect1_dropShadow_916_1750" result="shape"/>
</filter>
<filter id="filter1_d_916_1750" x="12.9182" y="23.981" width="82.8538" height="43.4556" filterUnits="userSpaceOnUse" color-interpolation-filters="sRGB">
<feFlood flood-opacity="0" result="BackgroundImageFix"/>
<feColorMatrix in="SourceAlpha" type="matrix" values="0 0 0 0 0 0 0 0 0 0 0 0 0 0 0 0 0 0 127 0" result="hardAlpha"/>
<feOffset dy="2"/>
<feGaussianBlur stdDeviation="5"/>
<feComposite in2="hardAlpha" operator="out"/>
<feColorMatrix type="matrix" values="0 0 0 0 0 0 0 0 0 0 0 0 0 0 0 0 0 0 0.05 0"/>
<feBlend mode="normal" in2="BackgroundImageFix" result="effect1_dropShadow_916_1750"/>
<feBlend mode="normal" in="SourceGraphic" in2="effect1_dropShadow_916_1750" result="shape"/>
</filter>
</defs>
</svg>
