<svg width="114" height="74" viewBox="0 0 114 74" fill="none" xmlns="http://www.w3.org/2000/svg">
<g filter="url(#filter0_d_916_1375)">
<path fill-rule="evenodd" clip-rule="evenodd" d="M15.6898 24.2183C15.6898 25.5325 15.9869 26.8005 16.5391 27.9942C12.6768 30.7754 10.4719 34.161 10.4719 38.0922C10.4719 49.3942 31.4967 60.6373 57.4322 60.6373C83.3674 60.6373 103.348 50.0881 103.348 38.7859C103.685 34.8703 101.726 31.4238 98.0466 28.5511C98.7763 27.1975 99.1742 25.7387 99.1742 24.2183C99.1742 17.1304 90.531 11.3848 79.8684 11.3848C71.9426 11.3848 65.1317 14.56 62.1582 19.1014C60.6041 19.0443 59.0275 19.0155 57.4322 19.0155C55.8351 19.0155 54.2567 19.0417 52.7009 19.0941C49.7249 14.5566 42.9176 11.3848 34.9957 11.3848C24.3333 11.3848 15.6898 17.1304 15.6898 24.2183Z" fill="#9D4EDD"/>
</g>
<g filter="url(#filter1_d_916_1375)">
<path d="M91.5372 36.0186C80.0216 37.312 69.0696 38.5311 57.681 36.0186C47.7365 37.6098 30.9639 37.4672 24.7454 36.0186C25.6102 68.3769 89.4753 69.9186 91.889 37.5964C91.9276 37.0779 91.889 36.5353 91.5372 36.0186Z" fill="#DAACFE"/>
</g>
<path d="M100.961 41.6854C101.487 41.6854 101.913 41.2849 101.913 40.7907C101.913 40.2967 101.487 39.896 100.961 39.896C100.435 39.896 100.008 40.2967 100.008 40.7907C100.008 41.2849 100.435 41.6854 100.961 41.6854Z" fill="#471B6A"/>
<path d="M96.1981 45.264C96.7241 45.264 97.1506 44.8634 97.1506 44.3693C97.1506 43.8751 96.7241 43.4746 96.1981 43.4746C95.6719 43.4746 95.2456 43.8751 95.2456 44.3693C95.2456 44.8634 95.6719 45.264 96.1981 45.264Z" fill="#471B6A"/>
<path d="M95.2456 40.7904C95.7716 40.7904 96.1981 40.3899 96.1981 39.8957C96.1981 39.4016 95.7716 39.001 95.2456 39.001C94.7195 39.001 94.293 39.4016 94.293 39.8957C94.293 40.3899 94.7195 40.7904 95.2456 40.7904Z" fill="#471B6A"/>
<path d="M22.8529 41.6854C23.379 41.6854 23.8055 41.2849 23.8055 40.7907C23.8055 40.2967 23.379 39.896 22.8529 39.896C22.3269 39.896 21.9004 40.2967 21.9004 40.7907C21.9004 41.2849 22.3269 41.6854 22.8529 41.6854Z" fill="#471B6A"/>
<path d="M18.0902 45.264C18.6162 45.264 19.0427 44.8634 19.0427 44.3693C19.0427 43.8751 18.6162 43.4746 18.0902 43.4746C17.564 43.4746 17.1377 43.8751 17.1377 44.3693C17.1377 44.8634 17.564 45.264 18.0902 45.264Z" fill="#471B6A"/>
<path d="M17.1377 40.7904C17.6637 40.7904 18.0902 40.3899 18.0902 39.8957C18.0902 39.4016 17.6637 39.001 17.1377 39.001C16.6115 39.001 16.1851 39.4016 16.1851 39.8957C16.1851 40.3899 16.6115 40.7904 17.1377 40.7904Z" fill="#471B6A"/>
<path d="M57.4213 53.6441C58.8189 53.6441 60.1143 53.0542 61.1774 52.0495C65.024 48.4143 64.3763 42.2014 65.1898 36.9719L58.6255 36.1605L57.4213 36.0117L56.357 36.1276L48.6052 36.9719C50.1108 42.1832 49.7691 48.6087 53.8323 52.2024C54.863 53.1139 56.0961 53.6441 57.4213 53.6441Z" fill="#251036"/>
<path d="M95.5807 34.2896C90.7973 36.9253 83.6924 37.3092 77.0513 37.3089C71.3198 37.3087 66.3603 37.0124 59.8743 36.2872C58.4433 36.1272 56.972 36.1025 55.5288 36.222C47.0685 36.9225 42.1789 37.3665 32.6703 37.3089C27.3084 36.9808 24.4501 36.0301 21.0654 34.2896" stroke="#471B6A" stroke-linecap="round"/>
<path d="M60.7904 52.5202C61.707 51.7999 62.222 50.9392 62.9203 49.8045C58.5588 48.4344 56.1498 48.4187 51.9221 49.8045C52.184 50.3282 52.9608 51.7999 53.8775 52.5202C54.7942 53.2405 56.0375 53.6452 57.3339 53.6452C58.6303 53.6452 59.8737 53.2405 60.7904 52.5202Z" fill="#EB8884"/>
<path d="M35.4249 13.8404C37.2414 13.8282 38.7321 14.0198 40.0019 14.4244C46.4687 16.4851 47.0341 25.1649 47.0341 31.9521C47.0341 32.292 46.6441 32.4853 46.3715 32.2823C39.7582 27.3621 34.9567 25.8735 24.076 27.5854C23.9414 27.6065 23.8157 27.5032 23.8157 27.367C23.8157 23.5932 24.4194 19.5746 27.0633 16.8819C28.912 14.999 31.3034 13.9612 35.4249 13.8404Z" fill="white"/>
<path d="M37.345 18.2051C34.6936 18.2051 32.5442 20.8234 32.5442 24.0534C32.5442 25.0911 32.7661 26.089 33.1552 26.934C36.128 27.1649 37.6812 27.5176 40.3128 28.5925C41.3948 27.52 42.1458 25.8851 42.1458 24.0534C42.1458 20.8234 39.9964 18.2051 37.345 18.2051Z" fill="#333333"/>
<path fill-rule="evenodd" clip-rule="evenodd" d="M34.6115 23.7396C35.8498 24.0713 37.1807 23.1185 37.5847 21.6112C37.9885 20.1039 37.3122 18.613 36.0741 18.2813C34.836 17.9494 33.5049 18.9024 33.1011 20.4097C32.6971 21.917 33.3734 23.4079 34.6115 23.7396ZM40.5748 27.8061C41.539 27.8061 42.3205 26.9072 42.3205 25.7984C42.3205 24.6897 41.539 23.7908 40.5748 23.7908C39.6106 23.7908 38.829 24.6897 38.829 25.7984C38.829 26.9072 39.6106 27.8061 40.5748 27.8061Z" fill="white"/>
<path d="M81.4253 13.3175C79.5404 13.3048 77.9939 13.5036 76.6763 13.9234C69.9664 16.0614 69.3796 25.0677 69.3796 32.1102C69.3796 32.4629 69.7843 32.6633 70.0673 32.4527C76.9291 27.3476 81.9112 25.8029 93.2009 27.5792C93.3406 27.6012 93.471 27.494 93.471 27.3524C93.471 23.4368 92.8446 19.2672 90.1012 16.4733C88.1829 14.5196 85.7019 13.4428 81.4253 13.3175Z" fill="white"/>
<path d="M79.4328 17.8447C82.1839 17.8447 84.4141 20.5615 84.4141 23.9129C84.4141 24.9897 84.184 26.0251 83.7803 26.9017C80.6957 27.1415 79.084 27.5074 76.3535 28.6226C75.2308 27.5099 74.4517 25.8135 74.4517 23.9129C74.4517 20.5615 76.6819 17.8447 79.4328 17.8447Z" fill="#333333"/>
<path fill-rule="evenodd" clip-rule="evenodd" d="M82.2691 23.5885C80.9844 23.9328 79.6032 22.944 79.1842 21.3799C78.7652 19.8161 79.4668 18.2691 80.7515 17.9249C82.0362 17.5806 83.4173 18.5694 83.8364 20.1334C84.2554 21.6973 83.5536 23.2442 82.2691 23.5885ZM76.0816 27.8077C75.0812 27.8077 74.2703 26.8751 74.2703 25.7246C74.2703 24.5742 75.0812 23.6416 76.0816 23.6416C77.082 23.6416 77.893 24.5742 77.893 25.7246C77.893 26.8751 77.082 27.8077 76.0816 27.8077Z" fill="white"/>
<path d="M77.9059 1.22339L72.1055 6.80674C71.4508 7.43703 72.0751 8.52359 72.9494 8.27531L74.9603 7.70419C78.0799 6.81821 81.3846 6.81873 84.5041 7.70569L94.5506 10.5623C95.1441 10.7311 95.4901 9.91333 94.9554 9.60487L79.9891 0.969044C79.3156 0.580416 78.4661 0.684115 77.9059 1.22339Z" fill="#333333"/>
<path d="M37.7214 1.05152L43.5218 6.63486C44.1766 7.26515 43.5522 8.35173 42.6779 8.10342L40.667 7.53231C37.5473 6.64634 34.2426 6.64687 31.1233 7.53381L21.0769 10.3904C20.4831 10.5592 20.1373 9.74145 20.6719 9.43299L35.6382 0.797181C36.3117 0.408536 37.1612 0.512236 37.7214 1.05152Z" fill="#333333"/>
<path d="M103.146 18.4012C103.364 17.9665 104.005 18.037 104.123 18.5088L104.662 20.6664C104.699 20.8148 104.799 20.9394 104.935 21.0078L106.924 22.0033C107.359 22.2208 107.288 22.8619 106.817 22.9797L104.659 23.5186C104.511 23.5556 104.386 23.6557 104.318 23.7924L103.322 25.7812C103.105 26.216 102.464 26.1455 102.346 25.6738L101.807 23.516C101.77 23.3678 101.67 23.243 101.533 23.1745L99.5444 22.1793C99.1095 21.9617 99.1802 21.3207 99.6519 21.2028L101.809 20.6638C101.958 20.6267 102.082 20.5267 102.151 20.39L103.146 18.4012Z" fill="#FFD612"/>
<path d="M92.6219 54.2293C92.8396 53.7946 93.4806 53.8652 93.5985 54.3369L93.8383 55.2971C93.8753 55.4455 93.9754 55.5701 94.1121 55.6385L94.997 56.0814C95.4319 56.2991 95.3613 56.9402 94.8896 57.058L93.9293 57.2977C93.7811 57.3349 93.6564 57.4348 93.588 57.5715L93.1449 58.4566C92.9274 58.8914 92.2864 58.8207 92.1685 58.349L91.9287 57.3889C91.8917 57.2406 91.7916 57.1158 91.6549 57.0475L90.77 56.6045C90.3351 56.3869 90.4057 55.7459 90.8774 55.6281L91.8375 55.3882C91.9859 55.3512 92.1106 55.2511 92.179 55.1144L92.6219 54.2293Z" fill="#CE4869"/>
<path d="M17.5051 4.6196C17.6203 4.14722 18.2608 4.07299 18.481 4.5065L19.4877 6.48955C19.5569 6.62586 19.6822 6.72513 19.8306 6.76132L21.9915 7.28788C22.4637 7.40298 22.5381 8.04361 22.1044 8.26372L20.1215 9.27049C19.9851 9.33969 19.886 9.46497 19.8498 9.61348L19.3231 11.7742C19.2081 12.2466 18.5674 12.3208 18.3474 11.8873L17.3406 9.90428C17.2713 9.76797 17.1462 9.66872 16.9976 9.63251L14.8369 9.10595C14.3645 8.99085 14.2903 8.35022 14.7238 8.13011L16.7068 7.12334C16.8431 7.05414 16.9424 6.92886 16.9786 6.78035L17.5051 4.6196Z" fill="#CE4869"/>
<path d="M12.4563 14.8564C12.5714 14.384 13.2121 14.3098 13.4322 14.7433L13.8802 15.6258C13.9493 15.7621 14.0746 15.8613 14.2232 15.8976L15.1848 16.1319C15.657 16.2469 15.7314 16.8876 15.2977 17.1078L14.4152 17.5558C14.2791 17.6249 14.1797 17.7502 14.1436 17.8988L13.9093 18.8604C13.7941 19.3326 13.1536 19.407 12.9334 18.9733L12.4853 18.0908C12.4162 17.9547 12.2908 17.8553 12.1424 17.8192L11.1809 17.5847C10.7085 17.4697 10.6343 16.8292 11.0678 16.609L11.9502 16.1609C12.0866 16.0917 12.1857 15.9664 12.222 15.818L12.4563 14.8564Z" fill="#296BA7"/>
<defs>
<filter id="filter0_d_916_1375" x="0.471924" y="3.38477" width="112.914" height="69.2524" filterUnits="userSpaceOnUse" color-interpolation-filters="sRGB">
<feFlood flood-opacity="0" result="BackgroundImageFix"/>
<feColorMatrix in="SourceAlpha" type="matrix" values="0 0 0 0 0 0 0 0 0 0 0 0 0 0 0 0 0 0 127 0" result="hardAlpha"/>
<feOffset dy="2"/>
<feGaussianBlur stdDeviation="5"/>
<feComposite in2="hardAlpha" operator="out"/>
<feColorMatrix type="matrix" values="0 0 0 0 0 0 0 0 0 0 0 0 0 0 0 0 0 0 0.05 0"/>
<feBlend mode="normal" in2="BackgroundImageFix" result="effect1_dropShadow_916_1375"/>
<feBlend mode="normal" in="SourceGraphic" in2="effect1_dropShadow_916_1375" result="shape"/>
</filter>
<filter id="filter1_d_916_1375" x="14.7454" y="28.0186" width="87.1558" height="45.0581" filterUnits="userSpaceOnUse" color-interpolation-filters="sRGB">
<feFlood flood-opacity="0" result="BackgroundImageFix"/>
<feColorMatrix in="SourceAlpha" type="matrix" values="0 0 0 0 0 0 0 0 0 0 0 0 0 0 0 0 0 0 127 0" result="hardAlpha"/>
<feOffset dy="2"/>
<feGaussianBlur stdDeviation="5"/>
<feComposite in2="hardAlpha" operator="out"/>
<feColorMatrix type="matrix" values="0 0 0 0 0 0 0 0 0 0 0 0 0 0 0 0 0 0 0.05 0"/>
<feBlend mode="normal" in2="BackgroundImageFix" result="effect1_dropShadow_916_1375"/>
<feBlend mode="normal" in="SourceGraphic" in2="effect1_dropShadow_916_1375" result="shape"/>
</filter>
</defs>
</svg>
