<svg width="115" height="75" viewBox="0 0 115 75" fill="none" xmlns="http://www.w3.org/2000/svg">
<g filter="url(#filter0_d_916_1622)">
<path fill-rule="evenodd" clip-rule="evenodd" d="M15.5307 24.9263C15.5307 26.257 15.8317 27.5411 16.3908 28.7499C12.4794 31.5661 10.2466 34.9943 10.2466 38.9751C10.2466 50.4194 31.5387 61.8041 57.8038 61.8041C84.069 61.8041 104.304 51.1221 104.304 39.6774C104.645 35.7125 102.661 32.2225 98.9346 29.3136C99.6737 27.9431 100.077 26.4659 100.077 24.9263C100.077 17.7492 91.3234 11.9312 80.5255 11.9312C72.4987 11.9312 65.6014 15.1464 62.59 19.745C61.016 19.6871 59.4195 19.658 57.8038 19.658C56.1864 19.658 54.5881 19.6846 53.0123 19.7376C49.9987 15.1429 43.1048 11.9312 35.082 11.9312C24.2841 11.9312 15.5307 17.7492 15.5307 24.9263Z" fill="#E10531"/>
</g>
<g filter="url(#filter1_d_916_1622)">
<path d="M91.8622 36.8672C80.2 38.1769 69.1088 39.4114 57.5753 36.8672C47.5045 38.4785 30.5185 38.3342 24.2209 36.8672C25.0967 69.6331 89.7739 71.1944 92.2184 38.465C92.2573 37.9398 92.2184 37.3905 91.8622 36.8672Z" fill="#F17575"/>
</g>
<path d="M101.406 42.6068C101.938 42.6068 102.37 42.2012 102.37 41.7008C102.37 41.2005 101.938 40.7949 101.406 40.7949C100.873 40.7949 100.441 41.2005 100.441 41.7008C100.441 42.2012 100.873 42.6068 101.406 42.6068Z" fill="#850014"/>
<path d="M96.5826 46.2304C97.1153 46.2304 97.5472 45.8249 97.5472 45.3244C97.5472 44.824 97.1153 44.4185 96.5826 44.4185C96.0498 44.4185 95.6179 44.824 95.6179 45.3244C95.6179 45.8249 96.0498 46.2304 96.5826 46.2304Z" fill="#850014"/>
<path d="M95.6177 41.7005C96.1505 41.7005 96.5824 41.2949 96.5824 40.7946C96.5824 40.2943 96.1505 39.8887 95.6177 39.8887C95.085 39.8887 94.6531 40.2943 94.6531 40.7946C94.6531 41.2949 95.085 41.7005 95.6177 41.7005Z" fill="#850014"/>
<path d="M22.3047 42.6068C22.8375 42.6068 23.2694 42.2012 23.2694 41.7008C23.2694 41.2005 22.8375 40.7949 22.3047 40.7949C21.772 40.7949 21.3401 41.2005 21.3401 41.7008C21.3401 42.2012 21.772 42.6068 22.3047 42.6068Z" fill="#850014"/>
<path d="M17.4815 46.2304C18.0142 46.2304 18.4461 45.8249 18.4461 45.3244C18.4461 44.824 18.0142 44.4185 17.4815 44.4185C16.9487 44.4185 16.5168 44.824 16.5168 45.3244C16.5168 45.8249 16.9487 46.2304 17.4815 46.2304Z" fill="#850014"/>
<path d="M16.5166 41.7005C17.0494 41.7005 17.4813 41.2949 17.4813 40.7946C17.4813 40.2943 17.0494 39.8887 16.5166 39.8887C15.9839 39.8887 15.552 40.2943 15.552 40.7946C15.552 41.2949 15.9839 41.7005 16.5166 41.7005Z" fill="#850014"/>
<path d="M95.9573 35.1172C91.1132 37.7861 83.918 38.1749 77.1924 38.1746C71.3881 38.1743 66.3654 37.8743 59.7971 37.14C58.3477 36.978 56.8578 36.953 55.3961 37.0739C46.8284 37.7833 41.8766 38.2329 32.2471 38.1746C26.8171 37.8424 23.9223 36.8796 20.4946 35.1172" stroke="#850014" stroke-linecap="round"/>
<path d="M65.8195 25.0759C76.0798 24.2358 81.8798 22.2922 91.7886 17.12C91.9876 17.0162 92.2295 17.1585 92.2295 17.383V29.4653C92.2295 29.6202 92.1082 29.7496 91.9539 29.7633C84.341 30.4393 80.637 31.7768 74.862 35.1211C74.7947 35.16 74.7114 35.1715 74.6359 35.1523C67.4914 33.3297 65.7642 30.978 65.5434 25.3854C65.5372 25.2263 65.6609 25.0889 65.8195 25.0759Z" fill="white"/>
<path d="M73.8812 29.5527C75.6689 30.6112 77.2317 31.0495 78.8161 30.8876C83.3318 30.4259 85.0685 24.9777 84.917 20.4414C80.1009 22.4839 76.7295 23.6385 71.1909 24.357C71.1909 26.4393 72.0893 28.4917 73.8812 29.5527Z" fill="#333333"/>
<path d="M64.1194 24.9698C77.0029 22.4647 81.0033 21.5953 93.0252 16.2671" stroke="#333333" stroke-width="5" stroke-linecap="round"/>
<path d="M49.4247 25.1647C39.1644 24.3246 33.3644 22.3812 23.4556 17.2089C23.2566 17.105 23.0146 17.2474 23.0146 17.4718V29.5542C23.0146 29.7091 23.136 29.8385 23.2903 29.8522C30.9032 30.5282 34.6072 31.8656 40.3822 35.21C40.4495 35.2491 40.5328 35.2604 40.6083 35.2411C47.7528 33.4186 49.4802 31.0669 49.7008 25.4742C49.707 25.3152 49.5833 25.1777 49.4247 25.1647Z" fill="white"/>
<path d="M41.3627 29.6405C39.575 30.699 38.0122 31.1374 36.4278 30.9753C31.9121 30.5136 30.1755 25.0654 30.3269 20.5293C35.1431 22.5717 38.5144 23.7262 44.053 24.4448C44.053 26.5271 43.1546 28.5794 41.3627 29.6405Z" fill="#333333"/>
<path d="M51.1248 25.0583C38.2412 22.5532 34.2409 21.6837 22.219 16.3555" stroke="#333333" stroke-width="5" stroke-linecap="round"/>
<path opacity="0.5" d="M58.7787 13.9331C60.9663 13.4951 63.7949 11.9213 63.7949 7.85235C63.7949 4.15001 61.0847 1.68411 59.1357 0.551233C58.7024 0.299334 58.1965 0.630305 58.1965 1.13063V2.40976C58.1965 3.41879 57.7724 5.26051 56.5939 6.02673C55.992 6.41788 55.3412 5.8322 55.2685 5.11845L55.2082 4.53208C55.1382 3.85053 54.4441 3.43698 53.8996 3.85263C52.9206 4.59785 51.8982 5.90637 51.8982 7.85165C51.8982 12.8275 55.5995 14.0723 57.4497 14.0723C57.5575 14.0723 57.6709 14.0682 57.7885 14.0619C58.1006 14.0227 57.7885 14.1311 58.7787 13.9324" fill="#FF640D"/>
<path d="M55.3975 11.5838C55.3975 13.4172 56.8747 13.9839 57.7887 14.0623C58.1009 14.0232 57.7887 14.1317 58.779 13.9329C59.5061 13.6761 60.2961 13.0169 60.2961 11.5838C60.2961 10.6763 59.7229 10.1158 59.2744 9.85339C59.1371 9.77291 58.9776 9.87438 58.9658 10.0325C58.9266 10.5349 58.4436 10.9352 58.1155 10.5531C57.8251 10.2159 57.7025 9.72253 57.7025 9.40695V8.9941C57.7025 8.74639 57.4527 8.58125 57.2386 8.70861C56.4436 9.17953 55.3975 10.1494 55.3975 11.5838Z" fill="#AE1F19"/>
<defs>
<filter id="filter0_d_916_1622" x="0.246582" y="3.93115" width="114.095" height="69.873" filterUnits="userSpaceOnUse" color-interpolation-filters="sRGB">
<feFlood flood-opacity="0" result="BackgroundImageFix"/>
<feColorMatrix in="SourceAlpha" type="matrix" values="0 0 0 0 0 0 0 0 0 0 0 0 0 0 0 0 0 0 127 0" result="hardAlpha"/>
<feOffset dy="2"/>
<feGaussianBlur stdDeviation="5"/>
<feComposite in2="hardAlpha" operator="out"/>
<feColorMatrix type="matrix" values="0 0 0 0 0 0 0 0 0 0 0 0 0 0 0 0 0 0 0.05 0"/>
<feBlend mode="normal" in2="BackgroundImageFix" result="effect1_dropShadow_916_1622"/>
<feBlend mode="normal" in="SourceGraphic" in2="effect1_dropShadow_916_1622" result="shape"/>
</filter>
<filter id="filter1_d_916_1622" x="14.2209" y="28.8672" width="88.0095" height="45.374" filterUnits="userSpaceOnUse" color-interpolation-filters="sRGB">
<feFlood flood-opacity="0" result="BackgroundImageFix"/>
<feColorMatrix in="SourceAlpha" type="matrix" values="0 0 0 0 0 0 0 0 0 0 0 0 0 0 0 0 0 0 127 0" result="hardAlpha"/>
<feOffset dy="2"/>
<feGaussianBlur stdDeviation="5"/>
<feComposite in2="hardAlpha" operator="out"/>
<feColorMatrix type="matrix" values="0 0 0 0 0 0 0 0 0 0 0 0 0 0 0 0 0 0 0.05 0"/>
<feBlend mode="normal" in2="BackgroundImageFix" result="effect1_dropShadow_916_1622"/>
<feBlend mode="normal" in="SourceGraphic" in2="effect1_dropShadow_916_1622" result="shape"/>
</filter>
</defs>
</svg>
