<svg width="93" height="73" viewBox="0 0 93 73" fill="none" xmlns="http://www.w3.org/2000/svg">
<path fill-rule="evenodd" clip-rule="evenodd" d="M5.21455 24.4411C5.21455 25.7493 5.51033 27.0114 6.05982 28.1998C2.21565 30.968 0.0212402 34.3382 0.0212402 38.2512C0.0212402 49.5008 20.9473 60.6922 46.7609 60.6922C72.5745 60.6922 92.4615 50.1916 92.4615 38.9416C92.7971 35.044 90.8466 31.6134 87.1846 28.754C87.911 27.4067 88.307 25.9547 88.307 24.4411C88.307 17.3862 79.7042 11.667 69.0919 11.667C61.2033 11.667 54.4244 14.8276 51.4648 19.3479C49.9179 19.2911 48.3489 19.2624 46.7609 19.2624C45.1714 19.2624 43.6005 19.2886 42.0519 19.3406C39.0899 14.8241 32.3145 11.667 24.4297 11.667C13.8174 11.667 5.21455 17.3862 5.21455 24.4411Z" fill="#FFC01E"/>
<g filter="url(#filter0_d_916_1710)">
<path d="M80.3766 35.6514C72.6497 38.0049 57.9688 38.422 46.6907 35.9129C36.8427 37.502 18.8215 38.3535 13.8728 35.6514C14.7291 67.9645 77.9745 69.5041 80.3648 37.2271C80.4029 36.7093 80.4635 36.1744 80.3766 35.6514Z" fill="#FBE9BB"/>
</g>
<path d="M65.8163 37.465C60.1117 37.4647 55.1755 37.1698 48.72 36.4479C47.2955 36.2887 45.8311 36.2641 44.3949 36.3831C35.9743 37.0803 31.1076 37.5224 21.6435 37.465C18.2443 37.2568 15.8559 36.7974 13.6992 36.0434C39.975 61.9985 54.5846 61.5135 80.4213 36.001C76.0906 37.2461 70.8212 37.4652 65.8163 37.465Z" fill="#413621"/>
<path fill-rule="evenodd" clip-rule="evenodd" d="M62.5244 50.5966C51.4909 44.0205 42.3688 44.1983 31.5959 50.5966C42.6294 57.0261 51.7516 56.8524 62.5244 50.5966Z" fill="#EB8884"/>
<path d="M84.2583 34.46C79.4976 37.0834 72.4261 37.4657 65.8161 37.4654C60.1115 37.465 55.1753 37.1701 48.7198 36.4483C47.2953 36.2891 45.8309 36.2644 44.3947 36.3834C35.9741 37.0806 31.1074 37.5227 21.6433 37.4654C16.3068 37.1387 13.4619 36.1923 10.093 34.46" stroke="#5B4B22" stroke-linecap="round"/>
<path d="M57.4854 25.1897C68.1512 19.6374 71.3655 19.7168 81.8111 25.1897" stroke="#5B4B22" stroke-width="5" stroke-linecap="round"/>
<path d="M38.025 25.1892C27.359 19.6375 24.1449 19.7169 13.6992 25.1892" stroke="#5B4B22" stroke-width="5" stroke-linecap="round"/>
<path d="M83.3047 8.94628C77.1982 7.16136 72.5111 5.15636 67.6366 1.23907C65.0251 -0.859645 60.9512 0.491727 60.3142 3.92955C59.8444 6.46446 61.5685 8.82226 64.0069 8.97927L83.0946 10.2084C83.7851 10.2529 83.9686 9.14033 83.3047 8.94628Z" fill="#333333"/>
<path d="M9.87138 8.75118C16.0082 7.07315 20.7297 5.15033 25.672 1.3189C28.3198 -0.733804 32.3696 0.688311 32.9464 4.13647C33.3719 6.67902 31.6068 9.00622 29.166 9.12067L10.0593 10.0167C9.36824 10.049 9.20414 8.93362 9.87138 8.75118Z" fill="#333333"/>
<path d="M89.6133 41.8201C90.1368 41.8201 90.5613 41.4214 90.5613 40.9295C90.5613 40.4377 90.1368 40.0391 89.6133 40.0391C89.0898 40.0391 88.6653 40.4377 88.6653 40.9295C88.6653 41.4214 89.0898 41.8201 89.6133 41.8201Z" fill="#5B4B22"/>
<path d="M84.873 45.3837C85.3965 45.3837 85.821 44.9849 85.821 44.4931C85.821 44.0013 85.3965 43.6025 84.873 43.6025C84.3493 43.6025 83.9248 44.0013 83.9248 44.4931C83.9248 44.9849 84.3493 45.3837 84.873 45.3837Z" fill="#5B4B22"/>
<path d="M83.9248 40.9301C84.4485 40.9301 84.873 40.5313 84.873 40.0395C84.873 39.5476 84.4485 39.1489 83.9248 39.1489C83.4013 39.1489 82.9768 39.5476 82.9768 40.0395C82.9768 40.5313 83.4013 40.9301 83.9248 40.9301Z" fill="#5B4B22"/>
<path d="M11.8721 41.8201C12.3957 41.8201 12.8202 41.4214 12.8202 40.9295C12.8202 40.4377 12.3957 40.0391 11.8721 40.0391C11.3485 40.0391 10.9241 40.4377 10.9241 40.9295C10.9241 41.4214 11.3485 41.8201 11.8721 41.8201Z" fill="#5B4B22"/>
<path d="M7.1319 45.3837C7.65551 45.3837 8.07996 44.9849 8.07996 44.4931C8.07996 44.0013 7.65551 43.6025 7.1319 43.6025C6.6083 43.6025 6.18384 44.0013 6.18384 44.4931C6.18384 44.9849 6.6083 45.3837 7.1319 45.3837Z" fill="#5B4B22"/>
<path d="M6.18366 40.9301C6.70727 40.9301 7.13172 40.5313 7.13172 40.0395C7.13172 39.5476 6.70727 39.1489 6.18366 39.1489C5.66006 39.1489 5.2356 39.5476 5.2356 40.0395C5.2356 40.5313 5.66006 40.9301 6.18366 40.9301Z" fill="#5B4B22"/>
<defs>
<filter id="filter0_d_916_1710" x="3.8728" y="27.6514" width="86.5483" height="45.0234" filterUnits="userSpaceOnUse" color-interpolation-filters="sRGB">
<feFlood flood-opacity="0" result="BackgroundImageFix"/>
<feColorMatrix in="SourceAlpha" type="matrix" values="0 0 0 0 0 0 0 0 0 0 0 0 0 0 0 0 0 0 127 0" result="hardAlpha"/>
<feOffset dy="2"/>
<feGaussianBlur stdDeviation="5"/>
<feComposite in2="hardAlpha" operator="out"/>
<feColorMatrix type="matrix" values="0 0 0 0 0 0 0 0 0 0 0 0 0 0 0 0 0 0 0.05 0"/>
<feBlend mode="normal" in2="BackgroundImageFix" result="effect1_dropShadow_916_1710"/>
<feBlend mode="normal" in="SourceGraphic" in2="effect1_dropShadow_916_1710" result="shape"/>
</filter>
</defs>
</svg>
