<svg width="67" height="60" viewBox="0 0 67 60" fill="none" xmlns="http://www.w3.org/2000/svg">
<path d="M43.1838 0.664063C39.6226 0.664063 36.7658 4.27738 36.7971 8.73586C36.816 11.4171 37.9006 13.9312 39.6987 15.4289C40.5509 26.2876 39.1905 35.7956 32.4218 36.8387C24.0859 37.6678 22.2146 27.7185 20.5684 18.2506C21.7869 16.1511 21.808 13.2358 20.5977 10.588C18.7119 6.47052 14.5116 4.25866 11.2013 5.65077C7.89655 7.04153 6.7431 11.4973 8.6233 15.6161C9.95177 18.518 12.5062 20.5774 15.1829 20.9118C19.9345 28.6145 25.2753 41.2918 22.4192 45.0095C20.8399 47.0421 17.8978 46.4002 14.711 44.4746C15.2084 42.2948 14.055 39.8476 11.7836 38.2295C8.61665 35.9695 4.3131 36.023 2.16907 38.3365C0.023666 40.65 0.857543 44.3542 4.02862 46.6142C6.50467 48.366 9.77076 48.7672 12.1335 47.6038C21.5676 52.0034 29.1129 60.9097 36.5456 59.7195C47.0927 58.0345 47.034 43.7658 56.9544 39.6737C58.8614 40.8907 61.6043 40.7837 63.8393 39.3929C66.7641 37.5608 67.8348 34.1508 66.2385 31.7838C64.6421 29.4035 60.9669 28.9622 58.0283 30.7942C55.8348 32.1716 54.6041 34.5119 54.9518 36.6649C50.8296 39.6604 45.4972 41.9739 42.6864 40.3156C40.4323 38.9917 42.821 23.9607 45.1516 16.4586C47.8603 15.4289 49.709 12.2997 49.684 8.73586C49.6526 4.27738 46.745 0.662726 43.1838 0.664063Z" fill="#027A8D"/>
</svg>
