<svg width="112" height="71" viewBox="0 0 112 71" fill="none" xmlns="http://www.w3.org/2000/svg">
<g filter="url(#filter0_d_916_1769)">
<path fill-rule="evenodd" clip-rule="evenodd" d="M15.15 22.3193C15.15 23.611 15.4421 24.8572 15.9847 26.0306C12.1884 28.7639 10.0212 32.0915 10.0212 35.9552C10.0212 47.0632 30.6872 58.1135 56.18 58.1135C81.6725 58.1135 101.312 47.7453 101.312 36.637C101.644 32.7885 99.7175 29.4012 96.101 26.5777C96.8185 25.2474 97.2095 23.8137 97.2095 22.3193C97.2095 15.3532 88.7137 9.70605 78.2333 9.70605C70.4426 9.70605 63.748 12.8268 60.8252 17.2902C59.2976 17.2342 57.748 17.2058 56.18 17.2058C54.6101 17.2058 53.0587 17.2317 51.5294 17.283C48.6043 12.8234 41.913 9.70605 34.1263 9.70605C23.6459 9.70605 15.15 15.3532 15.15 22.3193Z" fill="#61D243"/>
</g>
<path d="M79.8261 27.9484C82.9852 27.917 84.6913 28.0892 87.5368 28.7636C87.6045 28.7797 87.7171 28.7355 87.7651 28.6969C92.6122 24.7879 93.7647 18.0692 88.285 14.6456C87.905 14.4083 87.4976 14.1916 87.0621 13.9936C82.1011 11.7374 75.274 11.6815 70.2821 13.9055C70.09 13.9912 69.9038 14.0805 69.7236 14.1734C63.3616 17.4566 64.3411 25.2895 70.1071 29.1167C70.148 29.1438 70.2215 29.163 70.2747 29.1514C74.4129 28.2538 76.5092 27.9976 79.8261 27.9484Z" fill="white"/>
<path d="M32.7482 27.4284C29.5278 27.3861 27.787 27.5449 24.8803 28.1812C24.8112 28.1964 24.6966 28.1534 24.648 28.1162C19.7402 24.348 18.6227 17.8981 24.2388 14.6347C24.6281 14.4085 25.045 14.2022 25.4906 14.0138C30.5679 11.8683 37.5285 11.8405 42.5983 13.993C42.7936 14.076 42.9827 14.1622 43.1653 14.2521C49.6234 17.4259 48.5573 24.9364 42.6464 28.586C42.6043 28.6119 42.5293 28.6299 42.4752 28.6187C38.264 27.7418 36.1292 27.4882 32.7482 27.4284Z" fill="white"/>
<path fill-rule="evenodd" clip-rule="evenodd" d="M77.6132 27.1149C82.2326 27.1149 85.9775 24.5484 85.9775 21.3824C85.9775 19.9979 85.2614 18.7281 84.069 17.7374C84.4622 18.1519 84.6904 18.6464 84.6904 19.1777C84.6904 20.6388 82.9623 21.8233 80.8304 21.8233C78.698 21.8233 76.9697 20.6388 76.9697 19.1777C76.9697 17.7165 78.698 16.5319 80.8304 16.5319C81.6053 16.5319 82.3267 16.6884 82.9315 16.9578C81.4861 16.1408 79.6331 15.6499 77.6132 15.6499C72.9939 15.6499 69.249 18.2164 69.249 21.3824C69.249 24.5484 72.9939 27.1149 77.6132 27.1149Z" fill="black" fill-opacity="0.8"/>
<path fill-rule="evenodd" clip-rule="evenodd" d="M35.5661 26.6903C40.1856 26.6903 43.9302 24.5362 43.9302 21.3746C43.9302 19.992 43.2141 18.7238 42.022 17.7345C42.4151 18.1484 42.6434 18.6423 42.6434 19.1728C42.6434 20.632 40.9152 21.8149 38.783 21.8149C36.6511 21.8149 34.9226 20.632 34.9226 19.1728C34.9226 17.7136 36.6511 16.5306 38.783 16.5306C39.5581 16.5306 40.2797 16.687 40.8845 16.9561C39.4389 16.1401 37.5861 15.6499 35.5661 15.6499C30.9467 15.6499 27.2019 18.213 27.2019 21.3746C27.2019 24.5362 30.9467 26.6903 35.5661 26.6903Z" fill="black" fill-opacity="0.8"/>
<g filter="url(#filter1_d_916_1769)">
<path d="M89.2366 33.9097C77.9174 35.181 67.1525 36.3791 55.9582 33.9097C46.1835 35.4737 29.6972 35.3336 23.5847 33.9097C24.4347 65.7129 87.2098 67.2282 89.5823 35.4606C89.6202 34.9509 89.5824 34.4176 89.2366 33.9097Z" fill="#ABF47D"/>
</g>
<path d="M18.6137 11.3338C20.5296 5.6966 22.9751 4.04709 30.5979 0.867872C30.8596 0.758728 31.197 0.762833 31.4545 0.876592L31.6269 0.952746C41.0992 5.13658 44.114 6.46828 43.9214 9.46968C43.9186 9.51239 43.8276 9.52137 43.7848 9.49055C37.576 5.02054 26.7016 6.08525 20.2365 10.3786C19.7601 10.695 19.2673 11.0309 18.7516 11.3877C18.6935 11.4279 18.5949 11.3891 18.6137 11.3338Z" fill="#333333"/>
<path d="M93.2089 11.3338C91.3954 5.6966 89.0809 4.04709 81.8664 0.867872C81.6188 0.758728 81.2994 0.762833 81.0558 0.876592L80.8925 0.952746C71.9279 5.13658 69.0746 6.46828 69.2566 9.46968C69.2593 9.51239 69.3456 9.52137 69.3859 9.49055C75.2625 5.02054 85.5541 6.08525 91.6729 10.3786C92.1238 10.695 92.5901 11.0309 93.0782 11.3877C93.1332 11.4279 93.2265 11.3891 93.2089 11.3338Z" fill="#333333"/>
<path d="M98.4995 39.4799C99.0165 39.4799 99.4357 39.0861 99.4357 38.6005C99.4357 38.1149 99.0165 37.7212 98.4995 37.7212C97.9823 37.7212 97.5632 38.1149 97.5632 38.6005C97.5632 39.0861 97.9823 39.4799 98.4995 39.4799Z" fill="#499136"/>
<path d="M93.8181 42.997C94.3352 42.997 94.7543 42.6033 94.7543 42.1176C94.7543 41.6321 94.3352 41.2383 93.8181 41.2383C93.3011 41.2383 92.8818 41.6321 92.8818 42.1176C92.8818 42.6033 93.3011 42.997 93.8181 42.997Z" fill="#499136"/>
<path d="M92.8819 38.6C93.3989 38.6 93.8182 38.2062 93.8182 37.7207C93.8182 37.235 93.3989 36.8413 92.8819 36.8413C92.3648 36.8413 91.9456 37.235 91.9456 37.7207C91.9456 38.2062 92.3648 38.6 92.8819 38.6Z" fill="#499136"/>
<path d="M21.7246 39.4799C22.2417 39.4799 22.661 39.0861 22.661 38.6005C22.661 38.1149 22.2417 37.7212 21.7246 37.7212C21.2076 37.7212 20.7883 38.1149 20.7883 38.6005C20.7883 39.0861 21.2076 39.4799 21.7246 39.4799Z" fill="#499136"/>
<path d="M17.0432 42.997C17.5603 42.997 17.9795 42.6033 17.9795 42.1176C17.9795 41.6321 17.5603 41.2383 17.0432 41.2383C16.5261 41.2383 16.1069 41.6321 16.1069 42.1176C16.1069 42.6033 16.5261 42.997 17.0432 42.997Z" fill="#499136"/>
<path d="M16.1072 38.6C16.6243 38.6 17.0434 38.2062 17.0434 37.7207C17.0434 37.235 16.6243 36.8413 16.1072 36.8413C15.5901 36.8413 15.1709 37.235 15.1709 37.7207C15.1709 38.2062 15.5901 38.6 16.1072 38.6Z" fill="#499136"/>
<path d="M93.2111 32.2109C88.5096 34.8014 81.526 35.1788 74.9981 35.1785C69.3644 35.1781 64.4895 34.8871 58.1143 34.1743C56.7077 34.017 55.2615 33.9928 53.8429 34.1102C45.5271 34.7986 40.721 35.2351 31.3745 35.1785C26.1043 34.856 23.2947 33.9216 19.9678 32.2109" stroke="#499036" stroke-width="2" stroke-linecap="round"/>
<defs>
<filter id="filter0_d_916_1769" x="0.0212402" y="1.70605" width="111.328" height="68.4072" filterUnits="userSpaceOnUse" color-interpolation-filters="sRGB">
<feFlood flood-opacity="0" result="BackgroundImageFix"/>
<feColorMatrix in="SourceAlpha" type="matrix" values="0 0 0 0 0 0 0 0 0 0 0 0 0 0 0 0 0 0 127 0" result="hardAlpha"/>
<feOffset dy="2"/>
<feGaussianBlur stdDeviation="5"/>
<feComposite in2="hardAlpha" operator="out"/>
<feColorMatrix type="matrix" values="0 0 0 0 0 0 0 0 0 0 0 0 0 0 0 0 0 0 0.05 0"/>
<feBlend mode="normal" in2="BackgroundImageFix" result="effect1_dropShadow_916_1769"/>
<feBlend mode="normal" in="SourceGraphic" in2="effect1_dropShadow_916_1769" result="shape"/>
</filter>
<filter id="filter1_d_916_1769" x="13.5847" y="25.9097" width="86.0093" height="44.6284" filterUnits="userSpaceOnUse" color-interpolation-filters="sRGB">
<feFlood flood-opacity="0" result="BackgroundImageFix"/>
<feColorMatrix in="SourceAlpha" type="matrix" values="0 0 0 0 0 0 0 0 0 0 0 0 0 0 0 0 0 0 127 0" result="hardAlpha"/>
<feOffset dy="2"/>
<feGaussianBlur stdDeviation="5"/>
<feComposite in2="hardAlpha" operator="out"/>
<feColorMatrix type="matrix" values="0 0 0 0 0 0 0 0 0 0 0 0 0 0 0 0 0 0 0.05 0"/>
<feBlend mode="normal" in2="BackgroundImageFix" result="effect1_dropShadow_916_1769"/>
<feBlend mode="normal" in="SourceGraphic" in2="effect1_dropShadow_916_1769" result="shape"/>
</filter>
</defs>
</svg>
