<svg width="111" height="110" viewBox="0 0 111 110" fill="none" xmlns="http://www.w3.org/2000/svg">
<path fill-rule="evenodd" clip-rule="evenodd" d="M55.5 11C47.8042 10.9986 40.2426 13.0157 33.57 16.8499C26.8973 20.6842 21.3471 26.2015 17.4731 32.8512C13.5992 39.5009 11.5371 47.0504 11.4927 54.746C11.4483 62.4417 13.4231 70.0145 17.22 76.7084C19.7864 73.3731 23.0854 70.6727 26.862 68.8158C30.6386 66.959 34.7916 65.9955 39 65.9999H72C76.2084 65.9955 80.3614 66.959 84.138 68.8158C87.9146 70.6727 91.2136 73.3731 93.78 76.7084C97.5769 70.0145 99.5517 62.4417 99.5073 54.746C99.4629 47.0504 97.4008 39.5009 93.5269 32.8512C89.653 26.2015 84.1027 20.6842 77.43 16.8499C70.7574 13.0157 63.1958 10.9986 55.5 11ZM99.1865 88.4179C106.54 78.8312 110.518 67.0822 110.5 55C110.5 24.6235 85.8765 0 55.5 0C25.1235 0 0.500062 24.6235 0.500062 55C0.481904 67.0822 4.45954 78.8314 11.8136 88.4179L11.786 88.5169L13.7385 90.7884C18.8969 96.8192 25.3016 101.66 32.5113 104.976C39.721 108.293 47.5641 110.007 55.5 110C66.6503 110.02 77.5407 106.633 86.7125 100.292C90.6226 97.5909 94.1681 94.3965 97.2615 90.7884L99.214 88.5169L99.1865 88.4179ZM55.5 22C51.1239 22 46.9271 23.7384 43.8328 26.8327C40.7384 29.9271 39 34.1239 39 38.5C39 42.876 40.7384 47.0729 43.8328 50.1672C46.9271 53.2616 51.1239 55 55.5 55C59.8761 55 64.0729 53.2616 67.1673 50.1672C70.2616 47.0729 72 42.876 72 38.5C72 34.1239 70.2616 29.9271 67.1673 26.8327C64.0729 23.7384 59.8761 22 55.5 22Z" fill="#CDCDCD"/>
<path fill-rule="evenodd" clip-rule="evenodd" d="M55.5 11C47.8042 10.9986 40.2426 13.0157 33.57 16.8499C26.8973 20.6842 21.3471 26.2015 17.4731 32.8512C13.5992 39.5009 11.5371 47.0504 11.4927 54.746C11.4483 62.4417 13.4231 70.0145 17.22 76.7084C19.7864 73.3731 23.0854 70.6727 26.862 68.8158C30.6386 66.959 34.7916 65.9955 39 65.9999H72C76.2084 65.9955 80.3614 66.959 84.138 68.8158C87.9146 70.6727 91.2136 73.3731 93.78 76.7084C97.5769 70.0145 99.5517 62.4417 99.5073 54.746C99.4629 47.0504 97.4008 39.5009 93.5269 32.8512C89.653 26.2015 84.1027 20.6842 77.43 16.8499C70.7574 13.0157 63.1958 10.9986 55.5 11ZM43.8328 26.8327C46.9271 23.7384 51.1239 22 55.5 22C59.8761 22 64.0729 23.7384 67.1673 26.8327C70.2616 29.9271 72 34.1239 72 38.5C72 42.876 70.2616 47.0729 67.1673 50.1672C64.0729 53.2616 59.8761 55 55.5 55C51.1239 55 46.9271 53.2616 43.8328 50.1672C40.7384 47.0729 39 42.876 39 38.5C39 34.1239 40.7384 29.9271 43.8328 26.8327Z" fill="#CDCDCD"/>
<path fill-rule="evenodd" clip-rule="evenodd" d="M43.5833 38.8439C43.5833 35.3187 44.9837 31.938 47.4764 29.4453C49.969 26.9526 53.3498 25.5522 56.875 25.5522C60.4002 25.5522 63.781 26.9526 66.2736 29.4453C68.7663 31.938 70.1667 35.3187 70.1667 38.8439C70.1667 42.3691 68.7663 45.7499 66.2736 48.2425C63.781 50.7352 60.4002 52.1356 56.875 52.1356C53.3498 52.1356 49.969 50.7352 47.4764 48.2425C44.9837 45.7499 43.5833 42.3691 43.5833 38.8439ZM43.5833 58.7814C39.1769 58.7814 34.9509 60.5319 31.835 63.6477C28.7192 66.7635 26.9688 70.9895 26.9688 75.396C26.9688 78.0399 28.019 80.5755 29.8885 82.445C31.758 84.3145 34.2936 85.3647 36.9375 85.3647H76.8125C79.4564 85.3647 81.992 84.3145 83.8615 82.445C85.731 80.5755 86.7812 78.0399 86.7812 75.396C86.7812 70.9895 85.0308 66.7635 81.9149 63.6477C78.7991 60.5319 74.5731 58.7814 70.1667 58.7814H43.5833Z" fill="black" fill-opacity="0.5"/>
</svg>
