<svg width="78" height="57" viewBox="0 0 78 57" fill="none" xmlns="http://www.w3.org/2000/svg">
<path d="M4.0844 34.9856C2.39849 28.6937 15.3621 16.4015 34.0732 11.3879C52.7843 6.37425 70.1572 10.5378 71.8431 16.8297L73.6794 24.8479C75.3653 31.1398 63.872 42.4524 45.1609 47.466C26.4498 52.4797 8.49434 49.8243 6.80843 43.5324L4.0844 34.9856Z" fill="#FEC701"/>
<path fill-rule="evenodd" clip-rule="evenodd" d="M41.8336 40.3489C60.5447 35.3353 73.6302 23.4981 71.8405 16.819C70.0496 10.1351 52.7843 6.37327 34.0732 11.3869C15.3621 16.4005 2.29085 28.291 4.0818 34.9749C5.87146 41.654 23.1225 45.3625 41.8336 40.3489Z" fill="#FEE333"/>
<path fill-rule="evenodd" clip-rule="evenodd" d="M18.7506 25.2497C18.8878 25.8165 19.1479 26.3324 19.5099 26.7899C18.14 28.3912 17.5458 30.0809 17.9562 31.7763C19.1363 36.6507 29.3478 39.3117 40.4963 36.6128C51.6447 33.9139 59.1322 27.2849 57.9522 22.4104C57.6882 20.6866 56.486 19.4041 54.6045 18.548C54.7769 17.8883 54.7956 17.2177 54.6369 16.562C53.8968 13.5051 49.5816 11.9266 44.9982 13.0361C41.5912 13.8609 38.9951 15.9391 38.191 18.2072C37.517 18.3443 36.8363 18.4959 36.1506 18.6619C35.4641 18.8281 34.7884 19.0037 34.125 19.1882C32.3721 17.5409 29.1147 16.8814 25.7094 17.7058C21.1261 18.8154 18.0105 22.1929 18.7506 25.2497Z" fill="#FEC701"/>
<path d="M63.3533 10.59L65.3203 11.0813L67.1141 12.0647L67.7788 12.5564L68.7619 13.0487L69.2538 13.5398L69.7455 14.0325L15.413 41.8127L16.6422 42.0585L14.1837 41.5668L12.2169 41.0751L11.501 40.8557L10.2096 40.3978L9.75843 40.0918L8.77503 39.6001L7.79163 39.1084L6.80822 38.6167L63.3533 10.59Z" fill="white" fill-opacity="0.25"/>
</svg>
