<svg width="1222" height="570" viewBox="0 0 1222 570" fill="none" xmlns="http://www.w3.org/2000/svg">
<path d="M0 50C0 22.3858 22.3858 0 50 0H1172C1199.61 0 1222 22.3858 1222 50V570H0V50Z" fill="#F8F8FF"/>
<ellipse cx="902.5" cy="257" rx="206.5" ry="207" fill="#C6F0AC"/>
<g clip-path="url(#clip0_2038_1361)">
<mask id="mask0_2038_1361" style="mask-type:luminance" maskUnits="userSpaceOnUse" x="805" y="154" width="194" height="249">
<path d="M998.027 154.132H805.067V402.661H998.027V154.132Z" fill="white"/>
</mask>
<g mask="url(#mask0_2038_1361)">
<path d="M970.275 350.739C985.859 321.579 967.913 270.549 957.523 247.638H967.441C979.949 263.637 986.475 274.151 995.304 301.792C997.368 308.252 1000.5 328.348 993.888 341.366C988.599 351.78 975.941 351.954 970.275 350.739Z" fill="#499136"/>
<path d="M832.058 350.714C816.82 320.131 834.367 266.612 844.526 242.583H834.829C822.599 259.363 816.218 270.391 807.585 299.379C805.567 306.154 802.505 327.231 808.97 340.884C814.142 351.806 826.517 351.988 832.058 350.714Z" fill="#499136"/>
<path d="M957.259 366.242C992.542 347.225 973.244 276.057 959.049 242.583H900.899H843.198C828.859 276.408 809.36 348.05 844.951 366.249C845.51 366.535 845.882 367.084 845.882 367.683V396.306C845.882 399.802 848.9 402.637 852.623 402.637H864.434C869.91 402.637 875.367 400.247 877.281 395.427C878.648 391.984 879.339 388.297 879.788 383.778C879.882 382.833 880.822 382.163 881.813 382.349L883.782 382.719C894.575 384.746 905.686 384.769 916.487 382.783L918.901 382.34C919.889 382.158 920.822 382.826 920.934 383.766C921.471 388.262 922.572 392.099 924.602 395.928C926.968 400.396 932.208 402.637 937.521 402.637H949.624C953.347 402.637 956.365 399.802 956.365 396.306V367.657C956.365 367.072 956.72 366.533 957.259 366.242Z" fill="#61D243"/>
<path d="M901.025 385.79C935.695 385.79 963.801 354.297 963.801 315.45C963.801 276.603 935.695 245.11 901.025 245.11C866.355 245.11 838.248 276.603 838.248 315.45C838.248 354.297 866.355 385.79 901.025 385.79Z" fill="#ABF47D"/>
<g filter="url(#filter0_d_2038_1361)">
<path fill-rule="evenodd" clip-rule="evenodd" d="M823.86 195.383C823.86 197.858 824.419 200.246 825.459 202.494C818.186 207.731 814.035 214.106 814.035 221.509C814.035 242.791 853.624 263.963 902.46 263.963C951.296 263.963 988.92 244.098 988.92 222.815C989.554 215.442 985.864 208.952 978.936 203.542C980.311 200.993 981.06 198.246 981.06 195.383C981.06 182.036 964.785 171.217 944.707 171.217C929.783 171.217 916.958 177.196 911.359 185.748C908.433 185.64 905.464 185.586 902.46 185.586C899.453 185.586 896.481 185.635 893.551 185.734C887.947 177.189 875.129 171.217 860.212 171.217C840.135 171.217 823.86 182.036 823.86 195.383Z" fill="#61D243"/>
</g>
<path d="M947.758 206.169C953.81 206.108 957.079 206.438 962.53 207.731C962.659 207.761 962.875 207.677 962.967 207.603C972.253 200.113 974.46 187.241 963.963 180.681C963.235 180.227 962.455 179.811 961.62 179.432C952.117 175.109 939.038 175.002 929.475 179.263C929.107 179.428 928.751 179.599 928.405 179.777C916.217 186.067 918.094 201.074 929.14 208.407C929.218 208.459 929.359 208.496 929.461 208.474C937.388 206.754 941.404 206.263 947.758 206.169Z" fill="white"/>
<path d="M857.572 205.173C851.403 205.092 848.068 205.396 842.5 206.615C842.367 206.644 842.148 206.562 842.055 206.491C832.653 199.271 830.512 186.913 841.271 180.661C842.017 180.228 842.815 179.832 843.669 179.471C853.396 175.361 866.73 175.307 876.442 179.431C876.816 179.59 877.178 179.756 877.528 179.928C889.9 186.009 887.857 200.399 876.534 207.391C876.453 207.441 876.31 207.475 876.206 207.453C868.139 205.774 864.049 205.287 857.572 205.173Z" fill="white"/>
<path fill-rule="evenodd" clip-rule="evenodd" d="M943.519 204.573C952.368 204.573 959.542 199.656 959.542 193.59C959.542 190.937 958.171 188.504 955.886 186.606C956.64 187.4 957.077 188.348 957.077 189.365C957.077 192.165 953.766 194.435 949.682 194.435C945.597 194.435 942.287 192.165 942.287 189.365C942.287 186.566 945.597 184.296 949.682 184.296C951.167 184.296 952.549 184.596 953.707 185.112C950.938 183.547 947.389 182.606 943.519 182.606C934.67 182.606 927.496 187.524 927.496 193.59C927.496 199.656 934.67 204.573 943.519 204.573Z" fill="black" fill-opacity="0.8"/>
<path fill-rule="evenodd" clip-rule="evenodd" d="M862.97 203.759C871.82 203.759 878.993 199.632 878.993 193.575C878.993 190.926 877.622 188.496 875.338 186.6C876.091 187.394 876.528 188.34 876.528 189.356C876.528 192.152 873.217 194.418 869.133 194.418C865.049 194.418 861.738 192.152 861.738 189.356C861.738 186.56 865.049 184.294 869.133 184.294C870.618 184.294 872 184.593 873.159 185.109C870.39 183.546 866.84 182.606 862.97 182.606C854.121 182.606 846.947 187.517 846.947 193.575C846.947 199.632 854.121 203.759 862.97 203.759Z" fill="black" fill-opacity="0.8"/>
<g filter="url(#filter1_d_2038_1361)">
<path d="M965.786 217.59C944.102 220.025 923.48 222.321 902.035 217.59C883.31 220.586 851.727 220.318 840.018 217.59C841.646 278.523 961.904 281.426 966.449 220.561C966.521 219.585 966.449 218.563 965.786 217.59Z" fill="#ABF47D"/>
</g>
<path d="M830.495 174.336C834.166 163.535 838.85 160.375 853.453 154.284C853.955 154.075 854.601 154.083 855.094 154.3L855.424 154.446C873.57 162.462 879.346 165.014 878.977 170.764C878.972 170.846 878.797 170.863 878.715 170.804C866.821 162.24 845.989 164.28 833.604 172.506C832.692 173.112 831.747 173.756 830.759 174.439C830.648 174.516 830.459 174.442 830.495 174.336Z" fill="#333333"/>
<path d="M973.396 174.336C969.922 163.535 965.488 160.375 951.667 154.284C951.193 154.075 950.581 154.083 950.114 154.3L949.802 154.446C932.628 162.462 927.162 165.014 927.511 170.764C927.516 170.846 927.681 170.863 927.759 170.804C939.016 162.24 958.732 164.28 970.453 172.506C971.317 173.112 972.211 173.756 973.146 174.439C973.251 174.516 973.43 174.442 973.396 174.336Z" fill="#333333"/>
<path d="M977.019 328.507C975.995 337.629 974.701 342.225 970.976 351C981.63 352.272 991.315 348.878 995.189 337.419C984.563 338.514 982.243 335.539 977.019 328.507Z" fill="#417932" stroke="#417932" stroke-width="0.4"/>
<path d="M947.525 397.206C947.525 396.043 948.529 395.1 949.766 395.1C951.005 395.1 952.008 396.043 952.008 397.206V402.104C950.616 402.652 949.609 402.762 947.525 402.681V397.206Z" fill="#499136"/>
<path d="M938.557 397.206C938.557 396.043 939.56 395.1 940.798 395.1C942.037 395.1 943.041 396.043 943.041 397.206V402.681H938.557V397.206Z" fill="#499136"/>
<path d="M854.257 397.206C854.257 396.043 853.253 395.1 852.015 395.1C850.777 395.1 849.773 396.043 849.773 397.206V402.015C851.165 402.563 852.173 402.764 854.257 402.683V397.206Z" fill="#499136"/>
<path d="M863.225 397.206C863.225 396.043 862.221 395.1 860.983 395.1C859.745 395.1 858.741 396.043 858.741 397.206V402.681H863.225V397.206Z" fill="#499136"/>
<path d="M929.588 397.206C929.588 396.043 930.593 395.1 931.83 395.1C933.069 395.1 934.072 396.043 934.072 397.206V402.312C932.281 401.934 931.29 401.579 929.588 400.752V397.206Z" fill="#499136"/>
<path d="M872.193 397.206C872.193 396.043 871.189 395.1 869.951 395.1C868.712 395.1 867.709 396.043 867.709 397.206V402.26C869.5 401.883 870.491 401.497 872.193 400.671V397.206Z" fill="#499136"/>
<path d="M957.075 347.039C947.659 366.414 934.655 383.683 900.349 385.789C872.327 384.526 854.839 367.677 844.974 347.039C889.407 381.412 913.104 381.122 957.075 347.039Z" fill="#9EE075"/>
<path d="M929.723 396.741V400.531C926.563 399.106 925.148 397.368 923.445 393.371C921.975 389.502 921.378 387.308 920.754 383.262C920.5 382.781 920.299 382.601 919.858 382.42C946.626 370.402 956.274 357.163 963.353 325.137C972.581 325.456 974.947 321.226 976.805 309.975C978.225 329.454 976.883 338.335 971.425 351.252C967.539 358.078 964.994 361.653 957.524 365.993C956.69 366.539 956.394 366.999 956.179 368.1V384.947C947.85 390.588 942.848 393.25 931.964 395.055C930.776 395.158 930.289 395.503 929.723 396.741Z" fill="#5EBE45" stroke="#5EBE45" stroke-width="0.4"/>
<path d="M872.407 396.741V400.531C875.566 399.106 876.982 397.368 878.685 393.371C880.155 389.502 880.753 387.308 881.376 383.262C881.63 382.781 881.83 382.601 882.272 382.42C855.502 370.402 845.855 357.163 838.775 325.137C829.547 325.456 827.18 321.226 825.323 309.975C823.902 329.454 825.245 338.335 830.704 351.252C834.589 358.078 837.134 361.653 844.605 365.993C845.439 366.539 845.735 366.999 845.95 368.1V384.947C854.279 390.588 859.281 393.25 870.165 395.055C871.354 395.158 871.84 395.503 872.407 396.741Z" fill="#5EBE45" stroke="#5EBE45" stroke-width="0.4"/>
<path d="M824.581 328.507C825.53 337.561 826.727 342.121 830.177 350.83C820.312 352.094 811.344 348.725 807.757 337.352C817.596 338.438 819.745 335.485 824.581 328.507Z" fill="#417932" stroke="#417932" stroke-width="0.4"/>
<path d="M952.143 340.3C953.133 340.3 953.936 339.546 953.936 338.615C953.936 337.685 953.133 336.931 952.143 336.931C951.152 336.931 950.349 337.685 950.349 338.615C950.349 339.546 951.152 340.3 952.143 340.3Z" fill="#9EE075"/>
<path d="M847.216 340.3C848.207 340.3 849.01 339.546 849.01 338.615C849.01 337.685 848.207 336.931 847.216 336.931C846.226 336.931 845.423 337.685 845.423 338.615C845.423 339.546 846.226 340.3 847.216 340.3Z" fill="#9EE075"/>
<path d="M943.175 347.04C944.165 347.04 944.968 346.285 944.968 345.355C944.968 344.424 944.165 343.67 943.175 343.67C942.184 343.67 941.381 344.424 941.381 345.355C941.381 346.285 942.184 347.04 943.175 347.04Z" fill="#9EE075"/>
<path d="M855.287 347.04C856.278 347.04 857.081 346.285 857.081 345.355C857.081 344.424 856.278 343.67 855.287 343.67C854.297 343.67 853.494 344.424 853.494 345.355C853.494 346.285 854.297 347.04 855.287 347.04Z" fill="#9EE075"/>
<path d="M941.381 338.616C942.371 338.616 943.174 337.861 943.174 336.931C943.174 336 942.371 335.246 941.381 335.246C940.39 335.246 939.587 336 939.587 336.931C939.587 337.861 940.39 338.616 941.381 338.616Z" fill="#9EE075"/>
<path d="M983.531 228.262C984.521 228.262 985.325 227.508 985.325 226.577C985.325 225.647 984.521 224.893 983.531 224.893C982.541 224.893 981.738 225.647 981.738 226.577C981.738 227.508 982.541 228.262 983.531 228.262Z" fill="#499136"/>
<path d="M974.563 235.001C975.554 235.001 976.357 234.247 976.357 233.317C976.357 232.386 975.554 231.632 974.563 231.632C973.572 231.632 972.77 232.386 972.77 233.317C972.77 234.247 973.572 235.001 974.563 235.001Z" fill="#499136"/>
<path d="M972.769 226.578C973.76 226.578 974.563 225.823 974.563 224.893C974.563 223.962 973.76 223.208 972.769 223.208C971.779 223.208 970.975 223.962 970.975 224.893C970.975 225.823 971.779 226.578 972.769 226.578Z" fill="#499136"/>
<path d="M836.455 228.262C837.445 228.262 838.248 227.508 838.248 226.577C838.248 225.647 837.445 224.893 836.455 224.893C835.464 224.893 834.661 225.647 834.661 226.577C834.661 227.508 835.464 228.262 836.455 228.262Z" fill="#499136"/>
<path d="M827.487 235.001C828.477 235.001 829.28 234.247 829.28 233.317C829.28 232.386 828.477 231.632 827.487 231.632C826.496 231.632 825.693 232.386 825.693 233.317C825.693 234.247 826.496 235.001 827.487 235.001Z" fill="#499136"/>
<path d="M825.693 226.578C826.684 226.578 827.487 225.823 827.487 224.893C827.487 223.962 826.684 223.208 825.693 223.208C824.703 223.208 823.9 223.962 823.9 224.893C823.9 225.823 824.703 226.578 825.693 226.578Z" fill="#499136"/>
<path d="M855.287 339.458C856.278 339.458 857.081 338.704 857.081 337.774C857.081 336.843 856.278 336.089 855.287 336.089C854.297 336.089 853.494 336.843 853.494 337.774C853.494 338.704 854.297 339.458 855.287 339.458Z" fill="#9EE075"/>
<path d="M973.4 214.336C964.393 219.299 951.015 220.022 938.51 220.021C927.718 220.021 918.379 219.463 906.166 218.097C903.471 217.796 900.701 217.75 897.983 217.974C882.053 219.294 872.846 220.13 854.941 220.021C844.845 219.403 839.462 217.613 833.089 214.336" stroke="#499036" stroke-width="5" stroke-linecap="round"/>
</g>
</g>
<path d="M989.45 230.344C983.77 218.217 982.908 215.401 974.609 197.222C972.252 186.447 985.988 180.931 998.845 184.542C1011.7 188.153 1016.52 198.98 1012.49 213.335C1008.46 227.69 993.786 236.595 989.45 230.344Z" fill="#2A55C2"/>
<path d="M818.208 230.344C822.601 217.693 823.166 214.802 829.537 195.862C830.764 184.901 816.53 180.837 804.117 185.761C791.704 190.685 788.031 201.954 793.529 215.814C799.026 229.674 814.543 237.01 818.208 230.344Z" fill="#2A55C2"/>
<path d="M998.88 193.467C967.866 98.8691 844.52 87.3053 805.245 190.75C803.721 194.764 804.748 193.467 811.905 193.467C851.334 102.746 953.155 107.915 991.822 193.467L998.88 193.467Z" fill="#2A55C2"/>
<path d="M920.982 243.322C942.663 265.276 991.947 254.519 994.186 220.213C994.274 218.865 994.84 219.363 992.397 220.28C988.707 251.381 945.099 262.56 922.683 242.943L920.982 243.322Z" fill="#2A55C2"/>
<path d="M921.148 250.601C918.032 249.008 916.798 245.19 918.391 242.074V242.074C919.985 238.959 923.802 237.725 926.918 239.318L935.447 243.68C937.7 244.832 938.592 247.592 937.44 249.844L935.841 252.971C934.689 255.223 931.929 256.115 929.677 254.963L921.148 250.601Z" fill="#2A55C2"/>
<path d="M935.011 243.443C937.493 244.607 938.561 247.563 937.397 250.045L936.231 252.531C935.067 255.013 932.112 256.081 929.63 254.917V254.917C928.915 254.582 928.608 253.731 928.943 253.017L933.111 244.13C933.446 243.416 934.296 243.108 935.011 243.443V243.443Z" fill="#02216E"/>
<path d="M806.997 218.102C809.574 210.68 809.905 208.985 813.643 197.873C814.363 191.442 806.013 189.058 798.73 191.947C791.447 194.835 789.292 201.447 792.518 209.578C795.743 217.709 804.846 222.013 806.997 218.102Z" fill="#02216F"/>
<path d="M1000.13 218.327C996.795 211.212 996.29 209.56 991.421 198.895C990.038 192.573 998.097 189.337 1005.64 191.455C1013.18 193.574 1016.01 199.926 1013.65 208.348C1011.28 216.77 1002.67 221.994 1000.13 218.327Z" fill="#02216E"/>
<path d="M965.53 412.817C967.078 412.817 968.333 413.789 968.333 414.988C968.333 416.187 967.078 417.159 965.53 417.159L838.657 417.156C837.108 417.156 835.853 416.184 835.853 414.985C835.853 413.786 837.108 412.814 838.657 412.814L965.53 412.817Z" fill="#F0F0F0"/>
<defs>
<filter id="filter0_d_2038_1361" x="804.035" y="163.217" width="194.955" height="112.746" filterUnits="userSpaceOnUse" color-interpolation-filters="sRGB">
<feFlood flood-opacity="0" result="BackgroundImageFix"/>
<feColorMatrix in="SourceAlpha" type="matrix" values="0 0 0 0 0 0 0 0 0 0 0 0 0 0 0 0 0 0 127 0" result="hardAlpha"/>
<feOffset dy="2"/>
<feGaussianBlur stdDeviation="5"/>
<feComposite in2="hardAlpha" operator="out"/>
<feColorMatrix type="matrix" values="0 0 0 0 0 0 0 0 0 0 0 0 0 0 0 0 0 0 0.05 0"/>
<feBlend mode="normal" in2="BackgroundImageFix" result="effect1_dropShadow_2038_1361"/>
<feBlend mode="normal" in="SourceGraphic" in2="effect1_dropShadow_2038_1361" result="shape"/>
</filter>
<filter id="filter1_d_2038_1361" x="830.018" y="209.59" width="146.453" height="67.1865" filterUnits="userSpaceOnUse" color-interpolation-filters="sRGB">
<feFlood flood-opacity="0" result="BackgroundImageFix"/>
<feColorMatrix in="SourceAlpha" type="matrix" values="0 0 0 0 0 0 0 0 0 0 0 0 0 0 0 0 0 0 127 0" result="hardAlpha"/>
<feOffset dy="2"/>
<feGaussianBlur stdDeviation="5"/>
<feComposite in2="hardAlpha" operator="out"/>
<feColorMatrix type="matrix" values="0 0 0 0 0 0 0 0 0 0 0 0 0 0 0 0 0 0 0.05 0"/>
<feBlend mode="normal" in2="BackgroundImageFix" result="effect1_dropShadow_2038_1361"/>
<feBlend mode="normal" in="SourceGraphic" in2="effect1_dropShadow_2038_1361" result="shape"/>
</filter>
<clipPath id="clip0_2038_1361">
<rect width="192.96" height="248.529" fill="white" transform="translate(805.067 154.132)"/>
</clipPath>
</defs>
</svg>
