<svg width="33" height="43" viewBox="0 0 33 43" fill="none" xmlns="http://www.w3.org/2000/svg">
<path d="M24.3975 35.4246C24.5899 36.6504 24.2875 37.9024 23.5568 38.9052C22.8261 39.9081 21.727 40.5796 20.5012 40.772C19.2754 40.9644 18.0234 40.662 17.0206 39.9314C16.0177 39.2007 15.3462 38.1015 15.1538 36.8757C14.9614 35.65 15.2638 34.3979 15.9944 33.3951C16.7251 32.3923 17.8243 31.7208 19.0501 31.5283C20.2758 31.3359 21.5279 31.6383 22.5307 32.369C23.5335 33.0997 24.205 34.1988 24.3975 35.4246Z" fill="#FEC701"/>
<path fill-rule="evenodd" clip-rule="evenodd" d="M15.5553 9.70485C14.007 9.94792 12.7508 10.6187 11.9186 11.4266C11.1175 12.2059 10.7879 13.0177 10.759 13.6781C10.7021 14.5638 10.3004 15.3919 9.63995 15.9847C8.97953 16.5776 8.11304 16.888 7.22639 16.8494C6.33974 16.8107 5.50355 16.4261 4.89723 15.778C4.29091 15.1299 3.96275 14.27 3.98316 13.3827C4.09923 10.6983 5.37885 8.3213 7.19495 6.55627C9.08519 4.72041 11.6469 3.4516 14.5032 3.00319C20.4122 2.07554 27.1589 5.06545 28.1551 11.4112C28.7319 15.0856 27.0146 18.4003 24.4582 20.5775C23.7729 21.1605 22.884 21.4474 21.9872 21.375C21.0904 21.3026 20.259 20.877 19.6761 20.1917C19.0931 19.5064 18.8062 18.6175 18.8786 17.7207C18.9509 16.8239 19.3766 15.9925 20.0619 15.4096C21.2525 14.3963 21.5833 13.2906 21.4534 12.4633C21.2452 11.1369 19.2366 9.12693 15.5553 9.70485Z" fill="#FEC701"/>
<path fill-rule="evenodd" clip-rule="evenodd" d="M16.9578 18.6361C18.8065 18.3458 20.5437 19.6075 20.8346 21.4608L21.3795 24.9318C21.5191 25.8205 21.2998 26.7283 20.7701 27.4553C20.2403 28.1824 19.4435 28.6692 18.5548 28.8087C17.6661 28.9482 16.7584 28.729 16.0313 28.1993C15.3042 27.6695 14.8174 26.8726 14.6779 25.9839L14.133 22.5129C13.8427 20.6642 15.1067 18.9267 16.9578 18.6361Z" fill="#FEC701"/>
<path fill-rule="evenodd" clip-rule="evenodd" d="M24.8719 15.8213C25.1576 16.1636 25.373 16.5587 25.5058 16.9842C25.6386 17.4098 25.6863 17.8573 25.646 18.3013C25.6057 18.7452 25.4784 19.1769 25.2711 19.5716C25.0639 19.9662 24.781 20.3162 24.4384 20.6015L19.6562 24.5891C18.9654 25.1654 18.074 25.4437 17.1781 25.3628C16.2822 25.2818 15.4551 24.8483 14.8788 24.1575C14.3024 23.4668 14.0242 22.5754 14.1051 21.6794C14.186 20.7835 14.6196 19.9564 15.3103 19.3801L20.0945 15.3898C20.4366 15.1045 20.8317 14.8894 21.257 14.7568C21.6823 14.6242 22.1296 14.5767 22.5732 14.617C23.0169 14.6573 23.4483 14.7846 23.8428 14.9916C24.2373 15.1987 24.5867 15.4791 24.8719 15.8213Z" fill="#FEC701"/>
<path d="M22.4036 34.7908C22.596 36.0166 22.2936 37.2686 21.5629 38.2714C20.8322 39.2743 19.7331 39.9458 18.5073 40.1382C17.2815 40.3306 16.0295 40.0283 15.0267 39.2976C14.0238 38.5669 13.3523 37.4677 13.1599 36.2419C12.9675 35.0162 13.2699 33.7641 14.0005 32.7613C14.7312 31.7585 15.8304 31.087 17.0562 30.8945C18.2819 30.7021 19.534 31.0045 20.5368 31.7352C21.5396 32.4659 22.2111 33.565 22.4036 34.7908Z" fill="#FEE333"/>
<path fill-rule="evenodd" clip-rule="evenodd" d="M13.5614 9.07106C12.0131 9.31413 10.7569 9.98492 9.92473 10.7928C9.1236 11.5721 8.79405 12.3839 8.76513 13.0443C8.70824 13.93 8.30648 14.7581 7.64606 15.351C6.98563 15.9438 6.11915 16.2542 5.23249 16.2156C4.34584 16.1769 3.50966 15.7923 2.90334 15.1442C2.29701 14.4961 1.96885 13.6362 1.98926 12.7489C2.10534 10.0645 3.38495 7.68751 5.20106 5.92248C7.09129 4.08662 9.65304 2.81781 12.5093 2.3694C18.4183 1.44175 25.165 4.43166 26.1612 10.7774C26.738 14.4518 25.0207 17.7665 22.4643 19.9437C21.779 20.5267 20.8901 20.8136 19.9933 20.7412C19.0965 20.6688 18.2652 20.2432 17.6822 19.5579C17.0992 18.8726 16.8123 17.9837 16.8847 17.0869C16.957 16.1901 17.3827 15.3588 18.068 14.7758C19.2586 13.7625 19.5894 12.6568 19.4595 11.8295C19.2513 10.5031 17.2427 8.49314 13.5614 9.07106Z" fill="#FEE333"/>
<path fill-rule="evenodd" clip-rule="evenodd" d="M14.9636 18.0033C16.8124 17.713 18.5495 18.9747 18.8405 20.828L19.3854 24.299C19.5249 25.1877 19.3057 26.0954 18.7759 26.8225C18.2462 27.5496 17.4493 28.0364 16.5606 28.1759C15.6719 28.3154 14.7642 28.0962 14.0372 27.5664C13.3101 27.0367 12.8233 26.2398 12.6837 25.3511L12.1388 21.8801C11.8486 20.0314 13.1126 18.2938 14.9636 18.0033Z" fill="#FEE333"/>
<path fill-rule="evenodd" clip-rule="evenodd" d="M22.878 15.1885C23.1637 15.5307 23.3791 15.9259 23.5119 16.3514C23.6447 16.777 23.6924 17.2245 23.6521 17.6684C23.6118 18.1124 23.4845 18.5441 23.2773 18.9387C23.07 19.3334 22.7871 19.6834 22.4445 19.9686L17.6623 23.9563C16.9715 24.5326 16.0801 24.8109 15.1842 24.7299C14.2883 24.649 13.4612 24.2155 12.8849 23.5247C12.3086 22.834 12.0303 21.9426 12.1112 21.0466C12.1921 20.1507 12.6257 19.3236 13.3164 18.7473L18.1006 14.757C18.4427 14.4717 18.8378 14.2566 19.2631 14.124C19.6884 13.9914 20.1357 13.9439 20.5793 13.9842C21.023 14.0245 21.4544 14.1518 21.8489 14.3588C22.2434 14.5659 22.5928 14.8463 22.878 15.1885Z" fill="#FEE333"/>
</svg>
