<svg width="135" height="157" viewBox="0 0 135 157" fill="none" xmlns="http://www.w3.org/2000/svg">
<g clip-path="url(#clip0_1187_2306)">
<mask id="mask0_1187_2306" style="mask-type:luminance" maskUnits="userSpaceOnUse" x="0" y="18" width="135" height="139">
<path d="M135 18H0V156.731H135V18Z" fill="white"/>
</mask>
<g mask="url(#mask0_1187_2306)">
<path d="M112.274 87.0099C110.258 87.0779 108.445 87.6021 106.139 88.5076C108.562 95.5767 108.938 100.316 108.648 109.527C107.82 121.117 106.52 127.569 101.119 138.465C101.004 138.698 101.073 139.013 101.239 139.213C104.2 142.767 104.558 147.757 101.547 151.349C101.388 151.54 101.224 151.736 101.057 151.94C100.923 152.103 100.982 152.339 101.179 152.425C104.724 153.984 107.376 153.147 110.489 153.395C116.256 153.855 122.093 157.569 126.409 153.919C127.368 153.108 128.13 151.741 127.932 150.561C127.15 145.905 124.195 144.731 118.055 142.953C117.94 142.92 117.899 142.784 117.978 142.698C128.121 131.578 132.466 123.509 132.684 111.983C132.836 103.904 131.107 95.6229 124.101 90.9356C120.837 88.7517 116.32 86.8736 112.274 87.0099Z" fill="#61D243"/>
<path d="M24.0213 85.3282C26.0487 85.445 27.8618 86.0084 30.1641 86.962C27.5859 93.9074 27.1133 98.5941 27.2221 107.727C27.8256 119.232 29.0055 125.656 34.223 136.585C34.3343 136.818 34.2588 137.128 34.0872 137.323C31.0384 140.771 30.5788 145.707 33.5365 149.341C33.693 149.533 33.8538 149.732 34.018 149.938C34.1495 150.102 34.0856 150.335 33.8858 150.416C30.2883 151.873 27.6367 150.979 24.4996 151.149C18.6888 151.464 12.7424 155 8.47177 151.278C7.52338 150.452 6.7839 149.079 7.00656 147.914C7.88522 143.32 10.8815 142.229 17.0948 140.618C17.2114 140.587 17.2547 140.454 17.1771 140.366C7.19322 129.1 2.98157 120.999 2.99123 109.573C2.99805 101.564 4.90271 93.4018 12.0443 88.9287C15.3716 86.8448 19.9534 85.0941 24.0213 85.3282Z" fill="#61D243"/>
<path d="M34.1706 136.483C24.3213 115.609 22.1118 103.409 31.0441 79.7149C58.4607 91.094 73.9737 89.2932 103.15 78.3008C110.74 98.4601 110.285 113.56 100.512 138.403C102.879 143.693 103.764 144.738 101.88 150.019H83.7067C77.1412 153.254 73.1546 154.094 65.5337 153.958C58.6134 153.406 55.2256 152.5 49.9009 150.019H34.1706C30.6858 144.733 30.6361 141.769 34.1706 136.483Z" fill="#499136"/>
<g filter="url(#filter0_d_1187_2306)">
<path fill-rule="evenodd" clip-rule="evenodd" d="M21.0859 44.8601C21.0859 46.4715 21.4075 48.0263 22.0053 49.4901C17.8239 52.9 15.437 57.0513 15.437 61.8714C15.437 75.7293 38.1986 89.5151 66.2764 89.5151C94.354 89.5151 115.986 76.5798 115.986 62.7221C116.35 57.9209 114.229 53.695 110.246 50.1727C111.036 48.5131 111.467 46.7243 111.467 44.8601C111.467 36.1696 102.109 29.1245 90.5662 29.1245C81.9853 29.1245 74.6121 33.0178 71.393 38.5861C69.7105 38.5162 68.0034 38.4807 66.2764 38.4807C64.5474 38.4807 62.8387 38.513 61.1545 38.5771C57.9326 33.0136 50.5628 29.1245 41.9865 29.1245C30.4433 29.1245 21.0859 36.1696 21.0859 44.8601Z" fill="#61D243"/>
</g>
<path d="M92.3202 51.8829C95.7996 51.8437 97.6786 52.0585 100.813 52.9C100.887 52.9201 101.011 52.8649 101.064 52.8166C106.403 47.9402 107.672 39.5582 101.637 35.2873C101.218 34.9912 100.77 34.7207 100.29 34.4737C94.8256 31.6591 87.3062 31.5893 81.8085 34.3638C81.5964 34.4707 81.3915 34.5821 81.1932 34.698C74.1858 38.794 75.265 48.5658 81.6155 53.3404C81.6609 53.3743 81.7417 53.3981 81.8002 53.3838C86.3581 52.2639 88.6669 51.9442 92.3202 51.8829Z" fill="white"/>
<path d="M40.4686 51.2345C36.9215 51.1819 35.0043 51.38 31.8029 52.1737C31.7267 52.1926 31.6005 52.1392 31.5471 52.0927C26.1416 47.3917 24.9108 39.3453 31.0964 35.274C31.5252 34.9918 31.9842 34.7343 32.4752 34.4994C38.0673 31.8227 45.7338 31.7881 51.3176 34.4734C51.5328 34.5769 51.741 34.6846 51.9422 34.7966C59.055 38.7561 57.8808 48.1257 51.3706 52.6788C51.3241 52.7111 51.2416 52.7336 51.182 52.7196C46.5437 51.6257 44.1924 51.3092 40.4686 51.2345Z" fill="white"/>
<path fill-rule="evenodd" clip-rule="evenodd" d="M89.8827 50.844C94.9708 50.844 99.0952 47.6423 99.0952 43.6925C99.0952 41.9654 98.3065 40.3812 96.9934 39.1453C97.4264 39.6622 97.6778 40.2794 97.6778 40.9419C97.6778 42.7649 95.7742 44.2426 93.426 44.2426C91.0778 44.2426 89.1742 42.7649 89.1742 40.9419C89.1742 39.1191 91.0778 37.6412 93.426 37.6412C94.2796 37.6412 95.0744 37.8366 95.7406 38.1728C94.1485 37.1533 92.1078 36.541 89.8827 36.541C84.7949 36.541 80.6704 39.743 80.6704 43.6925C80.6704 47.6423 84.7949 50.844 89.8827 50.844Z" fill="black" fill-opacity="0.8"/>
<path fill-rule="evenodd" clip-rule="evenodd" d="M43.5722 50.3143C48.66 50.3143 52.7845 47.627 52.7845 43.6828C52.7845 41.9579 51.9958 40.3759 50.6826 39.1415C51.1156 39.658 51.3673 40.2742 51.3673 40.936C51.3673 42.7564 49.4637 44.232 47.1153 44.232C44.7671 44.232 42.8635 42.7564 42.8635 40.936C42.8635 39.1155 44.7671 37.6397 47.1153 37.6397C47.969 37.6397 48.7639 37.8348 49.43 38.1704C47.8378 37.1525 45.797 36.541 43.5722 36.541C38.4844 36.541 34.3599 39.7384 34.3599 43.6828C34.3599 47.627 38.4844 50.3143 43.5722 50.3143Z" fill="black" fill-opacity="0.8"/>
<g filter="url(#filter1_d_1187_2306)">
<path d="M102.686 59.3198C90.2184 60.9058 78.3615 62.4005 66.0321 59.3198C55.2664 61.2709 37.1082 61.0961 30.376 59.3198C31.3121 98.9956 100.453 100.886 103.066 61.2546C103.108 60.6187 103.066 59.9534 102.686 59.3198Z" fill="#ABF47D"/>
</g>
<path d="M107.063 57.2007C101.884 60.4323 94.1924 60.9031 87.0026 60.9027C80.7979 60.9023 75.4286 60.5391 68.4068 59.65C66.8576 59.4537 65.2646 59.4235 63.7025 59.5699C54.5432 60.4289 49.2497 60.9734 38.9556 60.9027C33.1508 60.5005 30.0564 59.3347 26.3921 57.2007" stroke="#499036" stroke-width="2" stroke-linecap="round"/>
<path d="M24.9008 31.1556C27.0109 24.1229 29.7044 22.0651 38.1002 18.0989C38.3886 17.9628 38.7601 17.9679 39.0437 18.1098L39.2336 18.2048C49.6663 23.4243 52.9869 25.0857 52.7748 28.8301C52.7719 28.8833 52.6716 28.8945 52.6243 28.8561C45.7858 23.2796 33.8088 24.6078 26.6881 29.964C26.1635 30.3586 25.6207 30.7778 25.0525 31.2229C24.9887 31.273 24.8801 31.2246 24.9008 31.1556Z" fill="#333333"/>
<path d="M107.06 31.1556C105.063 24.1229 102.514 22.0651 94.5681 18.0989C94.2951 17.9628 93.9435 17.9679 93.6751 18.1098L93.4954 18.2048C83.6216 23.4243 80.4788 25.0857 80.6796 28.8301C80.6824 28.8833 80.7774 28.8945 80.8219 28.8561C87.294 23.2796 98.6295 24.6078 105.369 29.964C105.865 30.3586 106.379 30.7778 106.917 31.2229C106.977 31.273 107.08 31.2246 107.06 31.1556Z" fill="#333333"/>
<path d="M92.282 98.7146C92.1334 98.5475 91.9826 98.3838 91.8297 98.2232C79.6469 85.4329 54.0701 85.6546 42.1611 98.7002C39.6456 101.456 38.724 104.698 38.4625 108.42C38.1818 112.412 38.3984 115.903 39.1042 121.024C41.0823 131.502 43.7665 139.228 50.1588 150.082C63.9434 156.24 75.7589 154.7 84.2921 150.082C90.0392 139.627 92.7577 131.977 95.1913 121.024C96.0828 115.782 96.3387 112.232 95.8933 107.775C95.5628 104.469 94.4906 101.197 92.282 98.7146Z" fill="#ABF47D"/>
<path d="M49.7392 150.757C59.4578 156.433 77.7766 155.193 83.8623 150.757C83.8623 150.757 87.5932 143.751 89.6714 139.39C72.2728 150.742 62.2942 150.746 43.7517 139.39C45.3041 143.638 49.7392 150.757 49.7392 150.757Z" fill="#9EE075"/>
<path d="M106.029 88.2098C107.336 93.488 107.977 96.6804 108.499 102.55C119.338 100.563 124.154 101.451 132.438 106.086C131.45 99.9638 130.505 96.6469 125.685 91.9756C125.255 91.5582 124.767 91.2005 124.243 90.9087C116.314 86.4937 111.902 86.0973 106.029 88.2098Z" fill="#5EBE45"/>
<path d="M29.0889 86.5136C27.5391 91.668 26.7382 94.7955 25.8712 100.592C16.0232 97.8699 11.5307 98.4195 3.59863 102.453C4.80949 96.9037 5.82988 93.7245 9.70641 89.882C10.7877 88.8102 12.0663 87.9526 13.4435 87.3011C20.2166 84.0973 24.13 84.1564 29.0889 86.5136Z" fill="#5EBE45"/>
<path d="M26.6909 64.8175C27.3154 64.8175 27.8219 64.3111 27.8219 63.6866C27.8219 63.0621 27.3154 62.5557 26.6909 62.5557C26.0663 62.5557 25.5598 63.0621 25.5598 63.6866C25.5598 64.3111 26.0663 64.8175 26.6909 64.8175Z" fill="#499136"/>
<path d="M21.0361 69.341C21.6606 69.341 22.1671 68.8345 22.1671 68.21C22.1671 67.5855 21.6606 67.0791 21.0361 67.0791C20.4115 67.0791 19.905 67.5855 19.905 68.21C19.905 68.8345 20.4115 69.341 21.0361 69.341Z" fill="#499136"/>
<path d="M19.9051 63.6867C20.5297 63.6867 21.0362 63.1802 21.0362 62.5557C21.0362 61.9313 20.5297 61.4248 19.9051 61.4248C19.2805 61.4248 18.7742 61.9313 18.7742 62.5557C18.7742 63.1802 19.2805 63.6867 19.9051 63.6867Z" fill="#499136"/>
<path d="M112.871 64.8175C113.496 64.8175 114.002 64.3111 114.002 63.6866C114.002 63.0621 113.496 62.5557 112.871 62.5557C112.246 62.5557 111.74 63.0621 111.74 63.6866C111.74 64.3111 112.246 64.8175 112.871 64.8175Z" fill="#499136"/>
<path d="M107.216 69.341C107.841 69.341 108.347 68.8345 108.347 68.21C108.347 67.5855 107.841 67.0791 107.216 67.0791C106.592 67.0791 106.085 67.5855 106.085 68.21C106.085 68.8345 106.592 69.341 107.216 69.341Z" fill="#499136"/>
<path d="M106.085 63.6867C106.71 63.6867 107.216 63.1802 107.216 62.5557C107.216 61.9313 106.71 61.4248 106.085 61.4248C105.461 61.4248 104.954 61.9313 104.954 62.5557C104.954 63.1802 105.461 63.6867 106.085 63.6867Z" fill="#499136"/>
<path d="M40.9926 100.174L28.8237 86.3799C25.0908 96.7999 24.0382 100.439 26.0145 115.643C28.33 125.751 29.7287 128.589 34.0512 136.279C34.1348 136.428 34.1143 136.617 34.0026 136.745C30.2446 141.066 30.2722 148.114 32.6786 153.858C33.2314 155.178 34.5765 155.942 36.0073 155.942H47.1165C50.0733 155.942 51.9499 152.821 50.4929 150.249C46.8735 143.857 43.7247 138.634 40.8941 128.649C38.3624 115.514 37.3466 107.761 40.9926 100.174Z" fill="#499136"/>
<path d="M93.4162 100.175L106.029 87.2671C106.093 87.4578 108.497 92.9446 109.75 100.797C111.287 110.421 109.6 120.339 106.102 129.436C104.982 132.351 103.58 135.159 101.48 138.421C101.377 138.581 101.403 138.797 101.538 138.932C105.858 143.263 103.914 149.011 100.658 154.508C99.9748 155.661 98.7153 156.337 97.3743 156.337H86.784C83.7192 156.337 81.8377 152.998 83.3621 150.339C87.0672 143.878 89.7225 138.298 92.9633 128.413C95.8954 115.259 97.6388 107.772 93.4162 100.175Z" fill="#499136"/>
<path d="M88.5875 136.04C88.9684 136.04 89.2773 135.731 89.2773 135.35C89.2773 134.969 88.9684 134.66 88.5875 134.66C88.2065 134.66 87.8977 134.969 87.8977 135.35C87.8977 135.731 88.2065 136.04 88.5875 136.04Z" fill="#9EE075"/>
<path d="M45.0328 135.645C45.4138 135.645 45.7226 135.292 45.7226 134.857C45.7226 134.422 45.4138 134.069 45.0328 134.069C44.6518 134.069 44.343 134.422 44.343 134.857C44.343 135.292 44.6518 135.645 45.0328 135.645Z" fill="#9EE075"/>
<path d="M85.4344 138.995C85.8154 138.995 86.1242 138.686 86.1242 138.305C86.1242 137.925 85.8154 137.616 85.4344 137.616C85.0535 137.616 84.7446 137.925 84.7446 138.305C84.7446 138.686 85.0535 138.995 85.4344 138.995Z" fill="#9EE075"/>
<path d="M47.8906 138.601C48.2171 138.601 48.4818 138.248 48.4818 137.813C48.4818 137.378 48.2171 137.025 47.8906 137.025C47.564 137.025 47.2993 137.378 47.2993 137.813C47.2993 138.248 47.564 138.601 47.8906 138.601Z" fill="#9EE075"/>
<path d="M84.7446 135.251C85.0711 135.251 85.3358 134.942 85.3358 134.561C85.3358 134.18 85.0711 133.872 84.7446 133.872C84.418 133.872 84.1533 134.18 84.1533 134.561C84.1533 134.942 84.418 135.251 84.7446 135.251Z" fill="#9EE075"/>
<path d="M47.8906 135.251C48.2171 135.251 48.4818 134.942 48.4818 134.561C48.4818 134.18 48.2171 133.872 47.8906 133.872C47.564 133.872 47.2993 134.18 47.2993 134.561C47.2993 134.942 47.564 135.251 47.8906 135.251Z" fill="#9EE075"/>
<path d="M85.3357 152.919C85.3357 152.195 85.9533 151.607 86.7151 151.607C87.4772 151.607 88.0948 152.195 88.0948 152.919V156.33C87.5387 156.324 86.1449 156.42 85.3357 156.039V152.919Z" fill="#417932"/>
<path d="M90.854 152.921C90.854 152.196 91.4717 151.607 92.2334 151.607C92.9955 151.607 93.6131 152.196 93.6131 152.921V156.337H90.854V152.921Z" fill="#417932"/>
<path d="M40.4014 152.527C40.4014 151.802 41.019 151.213 41.7807 151.213C42.5428 151.213 43.1605 151.802 43.1605 152.527V155.942H40.4014V152.527Z" fill="#417932"/>
<path d="M34.489 152.527C34.489 151.802 35.1067 151.213 35.8684 151.213C36.6305 151.213 37.2481 151.802 37.2481 152.527V155.942C35.9665 155.975 35.2765 155.972 34.489 155.637V152.527Z" fill="#417932"/>
<path d="M45.9197 152.537C45.9197 151.812 46.5373 151.223 47.299 151.223C48.0612 151.223 48.6788 151.483 48.6788 152.208V155.624C47.989 155.943 47.2728 155.998 45.9197 155.943V152.537Z" fill="#417932"/>
<path d="M96.3723 152.916C96.3723 152.194 96.99 151.607 97.7517 151.607C98.5138 151.607 99.1314 152.194 99.1314 152.916V155.941C98.4525 156.343 98.3289 156.344 96.3723 156.335V152.916Z" fill="#417932"/>
</g>
</g>
<path d="M116.547 64.0815C113.314 57.1795 112.824 55.5766 108.101 45.2308C106.759 39.0985 114.577 35.9588 121.894 38.0139C129.211 40.0691 131.955 46.2314 129.66 54.4013C127.366 62.5711 119.015 67.6388 116.547 64.0815Z" fill="#2A55C2"/>
<path d="M19.0887 64.0836C21.5885 56.8838 21.91 55.2388 25.5359 44.4592C26.2348 38.2209 18.1338 35.9082 11.069 38.7105C4.00417 41.5128 1.91394 47.9263 5.04279 55.8144C8.17164 63.7024 17.0024 67.8775 19.0887 64.0836Z" fill="#2A55C2"/>
<path d="M121.913 43.0946C104.263 -10.7434 34.0634 -17.3246 11.7106 41.5483C10.8432 43.8328 11.4277 43.0946 15.5009 43.0946C37.9413 -8.53709 95.8902 -5.59533 117.897 43.0946L121.913 43.0946Z" fill="#2A55C2"/>
<path d="M77.5796 71.4678C89.919 83.9623 117.968 77.8406 119.242 58.3162C119.292 57.5491 119.615 57.8324 118.224 58.3539C116.124 76.0544 91.3054 82.4166 78.5479 71.2524L77.5796 71.4678Z" fill="#2A55C2"/>
<path d="M77.6741 75.6117C75.9009 74.7049 75.1985 72.5322 76.1054 70.759C77.0123 68.9858 79.1849 68.2835 80.9581 69.1903L85.8125 71.673C87.0943 72.3285 87.602 73.899 86.9465 75.1808L86.0364 76.9604C85.3808 78.2422 83.8103 78.7499 82.5285 78.0944L77.6741 75.6117Z" fill="#2A55C2"/>
<path d="M85.5642 71.5378C86.9767 72.2003 87.5848 73.8824 86.9224 75.2949L86.2589 76.7097C85.5964 78.1222 83.9143 78.7303 82.5018 78.0678C82.0953 77.8772 81.9203 77.3932 82.111 76.9867L84.483 71.9287C84.6737 71.5222 85.1577 71.3472 85.5642 71.5378Z" fill="#02216E"/>
<path d="M12.708 57.1147C14.1746 52.8907 14.3632 51.9256 16.4904 45.6015C16.9004 41.9416 12.1478 40.5848 8.00298 42.2288C3.8582 43.8729 2.6319 47.6355 4.46754 52.2633C6.30317 56.8911 11.484 59.3405 12.708 57.1147Z" fill="#02216F"/>
<path d="M122.623 57.2432C120.727 53.1939 120.439 52.2535 117.668 46.1838C116.881 42.5861 121.468 40.7441 125.761 41.9498C130.053 43.1555 131.663 46.7709 130.317 51.564C128.971 56.3571 124.071 59.3302 122.623 57.2432Z" fill="#02216E"/>
<defs>
<filter id="filter0_d_1187_2306" x="5.43701" y="21.1245" width="120.589" height="80.3906" filterUnits="userSpaceOnUse" color-interpolation-filters="sRGB">
<feFlood flood-opacity="0" result="BackgroundImageFix"/>
<feColorMatrix in="SourceAlpha" type="matrix" values="0 0 0 0 0 0 0 0 0 0 0 0 0 0 0 0 0 0 127 0" result="hardAlpha"/>
<feOffset dy="2"/>
<feGaussianBlur stdDeviation="5"/>
<feComposite in2="hardAlpha" operator="out"/>
<feColorMatrix type="matrix" values="0 0 0 0 0 0 0 0 0 0 0 0 0 0 0 0 0 0 0.05 0"/>
<feBlend mode="normal" in2="BackgroundImageFix" result="effect1_dropShadow_1187_2306"/>
<feBlend mode="normal" in="SourceGraphic" in2="effect1_dropShadow_1187_2306" result="shape"/>
</filter>
<filter id="filter1_d_1187_2306" x="20.376" y="51.3198" width="92.7031" height="50.7251" filterUnits="userSpaceOnUse" color-interpolation-filters="sRGB">
<feFlood flood-opacity="0" result="BackgroundImageFix"/>
<feColorMatrix in="SourceAlpha" type="matrix" values="0 0 0 0 0 0 0 0 0 0 0 0 0 0 0 0 0 0 127 0" result="hardAlpha"/>
<feOffset dy="2"/>
<feGaussianBlur stdDeviation="5"/>
<feComposite in2="hardAlpha" operator="out"/>
<feColorMatrix type="matrix" values="0 0 0 0 0 0 0 0 0 0 0 0 0 0 0 0 0 0 0.05 0"/>
<feBlend mode="normal" in2="BackgroundImageFix" result="effect1_dropShadow_1187_2306"/>
<feBlend mode="normal" in="SourceGraphic" in2="effect1_dropShadow_1187_2306" result="shape"/>
</filter>
<clipPath id="clip0_1187_2306">
<rect width="135" height="138.731" fill="white" transform="translate(0 18)"/>
</clipPath>
</defs>
</svg>
