<svg width="1280" height="1154" viewBox="0 0 1280 1154" fill="none" xmlns="http://www.w3.org/2000/svg">
<g filter="url(#filter0_i_672_1234)">
<path d="M24.3034 523.905C219.244 265.644 401.242 328.122 611.996 400.413C737.623 443.537 872.624 489.779 1011 462.152C1116.31 441.126 1223.57 377.124 1329.89 236.286C1334.91 229.727 1338.64 222.134 1340.86 213.946C1343.08 205.759 1343.75 197.138 1342.83 188.58C1341.91 180.023 1339.41 171.699 1335.49 164.088C1331.57 156.476 1326.3 149.729 1319.98 144.234C1313.66 138.739 1306.41 134.605 1298.67 132.071C1290.92 129.537 1282.82 128.653 1274.84 129.469C1266.86 130.285 1259.15 132.786 1252.16 136.828C1245.17 140.869 1239.04 146.371 1234.12 153.016C1039.19 411.357 857.194 348.879 646.424 276.508C425.233 200.811 174.563 114.78 -71.4536 440.715C-76.7033 447.24 -80.6421 454.862 -83.0361 463.128C-85.4301 471.394 -86.2305 480.135 -85.3896 488.833C-84.5487 497.53 -82.0838 506.006 -78.1413 513.758C-74.1988 521.509 -68.8591 528.377 -62.4395 533.955C-56.0199 539.532 -48.6514 543.704 -40.7716 546.223C-32.8919 548.743 -24.6618 549.558 -16.5702 548.62C-8.47868 547.683 -0.690786 545.012 6.33076 540.766C13.3523 536.52 19.4642 530.787 24.3034 523.905Z" fill="#B4C9FF"/>
<path d="M30.2429 640.754C225.183 382.493 407.182 444.971 617.935 517.262C743.563 560.385 878.564 606.628 1016.94 579C1122.25 557.975 1229.51 493.973 1335.83 353.135C1340.85 346.575 1344.58 338.983 1346.8 330.795C1349.02 322.607 1349.69 313.986 1348.77 305.429C1347.85 296.872 1345.35 288.547 1341.43 280.936C1337.51 273.325 1332.24 266.577 1325.92 261.082C1319.6 255.587 1312.35 251.454 1304.61 248.92C1296.86 246.386 1288.76 245.501 1280.78 246.318C1272.8 247.134 1265.09 249.635 1258.1 253.676C1251.11 257.718 1244.98 263.22 1240.06 269.865C1045.13 528.206 863.133 465.728 652.364 393.357C431.172 317.66 180.503 231.629 -65.5142 557.564C-70.7638 564.088 -74.7026 571.71 -77.0966 579.976C-79.4906 588.242 -80.291 596.984 -79.4501 605.681C-78.6093 614.379 -76.1444 622.855 -72.2019 630.606C-68.2594 638.358 -62.9197 645.226 -56.5001 650.803C-50.0805 656.38 -42.7119 660.552 -34.8322 663.072C-26.9525 665.591 -18.7223 666.406 -10.6308 665.469C-2.53923 664.532 5.24867 661.861 12.2702 657.615C19.2918 653.369 25.4037 647.635 30.2429 640.754Z" fill="#B4C9FF"/>
<path d="M25.0949 756.164C220.035 497.903 402.034 560.381 612.787 632.672C738.415 675.795 873.416 722.038 1011.79 694.41C1117.1 673.385 1224.36 609.383 1330.68 468.545C1335.7 461.986 1339.43 454.393 1341.65 446.205C1343.87 438.017 1344.54 429.396 1343.62 420.839C1342.7 412.282 1340.21 403.958 1336.28 396.346C1332.36 388.735 1327.09 381.988 1320.77 376.493C1314.45 370.998 1307.21 366.864 1299.46 364.33C1291.71 361.796 1283.62 360.911 1275.63 361.728C1267.65 362.544 1259.94 365.045 1252.95 369.087C1245.96 373.128 1239.83 378.63 1234.91 385.275C1039.98 643.616 857.985 581.138 647.216 508.767C426.024 433.07 175.355 347.039 -70.6621 672.974C-75.9118 679.499 -79.8506 687.12 -82.2446 695.386C-84.6386 703.652 -85.4389 712.394 -84.5981 721.091C-83.7572 729.789 -81.2923 738.265 -77.3498 746.017C-73.4073 753.768 -68.0676 760.636 -61.648 766.213C-55.2284 771.79 -47.8599 775.963 -39.9801 778.482C-32.1004 781.001 -23.8703 781.817 -15.7787 780.879C-7.68717 779.942 0.100718 777.271 7.12226 773.025C14.1438 768.779 20.2557 763.045 25.0949 756.164Z" fill="#B4C9FF"/>
<path d="M47.1657 875.197C242.106 616.936 424.104 679.414 634.858 751.705C760.485 794.829 895.487 841.071 1033.86 813.444C1139.17 792.418 1246.43 728.416 1352.75 587.578C1357.77 581.019 1361.5 573.426 1363.72 565.238C1365.94 557.051 1366.61 548.43 1365.69 539.872C1364.77 531.315 1362.28 522.991 1358.35 515.38C1354.43 507.768 1349.16 501.021 1342.84 495.526C1336.52 490.031 1329.28 485.897 1321.53 483.363C1313.78 480.829 1305.69 479.945 1297.7 480.761C1289.72 481.577 1282.02 484.078 1275.03 488.12C1268.04 492.161 1261.9 497.663 1256.98 504.308C1062.05 762.649 880.056 700.171 669.287 627.8C448.095 552.103 197.425 466.072 -48.5913 792.007C-53.841 798.532 -57.7798 806.154 -60.1738 814.42C-62.5678 822.686 -63.3681 831.427 -62.5273 840.125C-61.6864 848.822 -59.2215 857.298 -55.279 865.05C-51.3365 872.801 -45.9968 879.669 -39.5772 885.247C-33.1576 890.824 -25.7891 894.996 -17.9093 897.515C-10.0296 900.035 -1.79948 900.85 6.29207 899.912C14.3836 898.975 22.1715 896.304 29.1931 892.058C36.2146 887.812 42.3265 882.079 47.1657 875.197Z" fill="#B4C9FF"/>
<path d="M57.0163 950.795C251.956 692.534 433.955 755.012 644.709 827.303C770.336 870.426 905.337 916.669 1043.71 889.041C1149.02 868.016 1256.28 804.014 1362.6 663.176C1367.62 656.616 1371.35 649.024 1373.57 640.836C1375.79 632.648 1376.46 624.027 1375.54 615.47C1374.62 606.913 1372.13 598.588 1368.2 590.977C1364.28 583.366 1359.01 576.619 1352.69 571.123C1346.37 565.628 1339.13 561.495 1331.38 558.961C1323.63 556.427 1315.54 555.542 1307.56 556.359C1299.57 557.175 1291.87 559.676 1284.88 563.717C1277.89 567.759 1271.75 573.261 1266.83 579.906C1071.91 838.247 889.907 775.769 679.137 703.398C457.946 627.701 207.276 541.67 -38.7407 867.605C-43.9904 874.129 -47.9292 881.751 -50.3232 890.017C-52.7172 898.283 -53.5176 907.025 -52.6767 915.722C-51.8359 924.42 -49.3709 932.896 -45.4284 940.647C-41.4859 948.399 -36.1462 955.267 -29.7266 960.844C-23.307 966.421 -15.9385 970.593 -8.05875 973.113C-0.179034 975.632 8.05111 976.447 16.1427 975.51C24.2342 974.573 32.0221 971.902 39.0437 967.656C46.0652 963.41 52.1771 957.676 57.0163 950.795Z" fill="#B4C9FF"/>
<path d="M59.5036 999.731C254.444 741.47 436.442 803.948 647.196 876.239C772.823 919.363 907.825 965.605 1046.2 937.978C1151.51 916.952 1258.77 852.95 1365.09 712.112C1370.11 705.553 1373.84 697.96 1376.06 689.773C1378.28 681.585 1378.95 672.964 1378.03 664.406C1377.11 655.849 1374.61 647.525 1370.69 639.914C1366.77 632.303 1361.5 625.555 1355.18 620.06C1348.86 614.565 1341.61 610.431 1333.87 607.897C1326.12 605.363 1318.02 604.479 1310.04 605.295C1302.06 606.112 1294.35 608.613 1287.36 612.654C1280.37 616.695 1274.24 622.197 1269.32 628.842C1074.39 887.183 892.394 824.705 681.624 752.334C460.433 676.637 209.763 590.606 -36.2534 916.541C-41.5031 923.066 -45.4419 930.688 -47.8359 938.954C-50.2299 947.22 -51.0303 955.961 -50.1894 964.659C-49.3485 973.356 -46.8836 981.833 -42.9411 989.584C-38.9986 997.335 -33.6589 1004.2 -27.2393 1009.78C-20.8197 1015.36 -13.4512 1019.53 -5.57145 1022.05C2.30827 1024.57 10.5384 1025.38 18.63 1024.45C26.7215 1023.51 34.5094 1020.84 41.531 1016.59C48.5525 1012.35 54.6644 1006.61 59.5036 999.731Z" fill="#B4C9FF"/>
</g>
<defs>
<filter id="filter0_i_672_1234" x="-147.37" y="77.3652" width="1525.8" height="951.458" filterUnits="userSpaceOnUse" color-interpolation-filters="sRGB">
<feFlood flood-opacity="0" result="BackgroundImageFix"/>
<feBlend mode="normal" in="SourceGraphic" in2="BackgroundImageFix" result="shape"/>
<feColorMatrix in="SourceAlpha" type="matrix" values="0 0 0 0 0 0 0 0 0 0 0 0 0 0 0 0 0 0 127 0" result="hardAlpha"/>
<feOffset dy="4"/>
<feGaussianBlur stdDeviation="2"/>
<feComposite in2="hardAlpha" operator="arithmetic" k2="-1" k3="1"/>
<feColorMatrix type="matrix" values="0 0 0 0 0 0 0 0 0 0 0 0 0 0 0 0 0 0 0.15 0"/>
<feBlend mode="normal" in2="shape" result="effect1_innerShadow_672_1234"/>
</filter>
</defs>
</svg>
