<svg width="90" height="81" viewBox="0 0 90 81" fill="none" xmlns="http://www.w3.org/2000/svg">
<path d="M64.9805 53.1799C72.0353 42.5913 80.8874 39.8994 84.7156 42.4499L89.7496 45.8039C89.8934 40.0461 89.3604 36.2584 80.0312 30.0427L41.7191 4.51676C27.4248 -5.007 12.5234 4.08475 5.99648 13.881C-0.530382 23.6772 -3.18181 40.9307 11.1125 50.4545L49.4245 75.9804C58.7575 82.1987 62.4546 81.2293 67.7128 78.8791L62.6788 75.5251C58.8507 72.9745 57.9257 63.7685 64.9805 53.1799ZM49.9897 53.1139C48.7243 53.6526 47.3611 51.451 47.3611 51.451L39.4539 38.7869C39.4539 38.7869 36.7344 40.6784 34.756 41.9637C32.7699 43.2439 30.8133 44.8864 29.0871 40.442C27.3623 35.9874 23.6678 18.867 23.6678 18.867C23.6678 18.867 23.0715 16.8999 24.4109 16.3165C25.6777 15.7675 27.0396 17.9794 27.0396 17.9794L34.948 30.6332C34.948 30.6332 37.6662 28.7519 39.6447 27.4666C41.6282 26.1903 43.5925 24.5363 45.3135 28.9884C47.0435 33.4354 50.729 50.5608 50.729 50.5608C50.729 50.5608 51.3279 52.5241 49.9897 53.1139ZM83.5336 54.0882L80.6663 52.1778C78.5264 50.7521 74.5131 52.2459 71.3887 56.9354C68.2591 61.6325 68.4326 65.9102 70.5687 67.3335L73.436 69.2438C75.5797 70.6721 79.6696 69.2293 82.7965 64.536C85.921 59.8465 85.6774 55.5165 83.5336 54.0882Z" fill="#F89701"/>
</svg>
