<svg width="76" height="61" viewBox="0 0 76 61" fill="none" xmlns="http://www.w3.org/2000/svg">
<path d="M11.3241 11.4877C12.7591 6.15451 18.2458 2.99443 23.5789 4.42943L67.607 16.2762C72.9402 17.7112 76.1003 23.1978 74.6653 28.531L67.9317 53.556C66.4967 58.8891 61.0101 62.0492 55.6769 60.6142L11.6488 48.7675C6.31563 47.3325 3.15555 41.8458 4.59056 36.5127L11.3241 11.4877Z" fill="#1F9DD3"/>
<path d="M5.32444 44.7344C3.58249 44.2657 2.25855 43.2449 1.35262 41.672C0.446687 40.099 0.227303 38.4403 0.694469 36.6956L9.21646 5.02378C9.68517 3.28182 10.707 1.95816 12.2821 1.0528C13.8571 0.147437 15.5148 -0.072229 17.2552 0.393801L67.9302 14.029C69.6722 14.4977 70.9969 15.5198 71.9044 17.0954C72.8118 18.671 73.0304 20.3285 72.5602 22.0677L64.0382 53.7396C63.5695 55.4816 62.5484 56.8066 60.9749 57.7146C59.4014 58.6226 57.7429 58.841 55.9994 58.3696L5.32444 44.7344ZM20.5498 38.6416L45.8873 45.4592L47.5917 39.1249L22.2542 32.3073L20.5498 38.6416ZM13.6048 26.5835L19.9392 28.2879L21.6436 21.9535L15.3092 20.2491L13.6048 26.5835ZM23.1064 29.1401L29.4408 30.8445L31.1452 24.5101L24.8108 22.8057L23.1064 29.1401ZM32.6079 31.6967L38.9423 33.4011L40.6467 27.0667L34.3123 25.3623L32.6079 31.6967ZM42.1095 34.2533L48.4439 35.9577L50.1483 29.6233L43.8139 27.9189L42.1095 34.2533ZM51.6111 36.8099L57.9454 38.5143L59.6498 32.1799L53.3155 30.4755L51.6111 36.8099ZM16.1614 17.0819L22.4958 18.7863L24.2002 12.452L17.8658 10.7476L16.1614 17.0819ZM25.663 19.6385L31.9974 21.3429L33.7017 15.0086L27.3674 13.3042L25.663 19.6385ZM35.1645 22.1951L41.4989 23.8995L43.2033 17.5651L36.8689 15.8608L35.1645 22.1951ZM44.6661 24.7517L51.0005 26.4561L52.7049 20.1217L46.3705 18.4173L44.6661 24.7517ZM54.1677 27.3083L60.502 29.0127L62.2064 22.6783L55.8721 20.9739L54.1677 27.3083Z" fill="#46C4FF"/>
</svg>
