<svg width="18" height="19" viewBox="0 0 18 19" fill="none" xmlns="http://www.w3.org/2000/svg">
<circle cx="9.03331" cy="9.36949" r="8.81383" fill="#7AD761"/>
<path fill-rule="evenodd" clip-rule="evenodd" d="M12.6968 7.90938L13.4904 7.11579C13.814 6.79216 13.814 6.26884 13.4904 5.94692L12.4558 4.91233C12.1321 4.59042 11.6088 4.59042 11.2869 4.91233L10.4933 5.70592C10.4124 5.78683 10.4124 5.91766 10.4933 5.99857L12.4041 7.90938C12.485 7.99029 12.6159 7.99029 12.6968 7.90938Z" fill="white"/>
<path fill-rule="evenodd" clip-rule="evenodd" d="M9.81163 6.38762L5.2911 10.9081L4.92616 12.9997C4.87623 13.282 5.1224 13.5265 5.40472 13.4783L7.49628 13.1116L12.0168 8.59107C12.0977 8.51016 12.0977 8.37933 12.0168 8.29843L10.106 6.38762C10.0234 6.30671 9.89254 6.30671 9.81163 6.38762ZM7.05559 10.18C6.96091 10.2747 6.96091 10.4261 7.05559 10.5208C7.15027 10.6155 7.30176 10.6155 7.39644 10.5208L10.0475 7.86978C10.1421 7.7751 10.1421 7.62362 10.0475 7.52894C9.95279 7.43426 9.8013 7.43426 9.70662 7.52894L7.05559 10.18ZM7.26044 11.9686H6.43415V11.1423H5.80926L5.61474 12.2526L6.15011 12.788L7.26044 12.5934V11.9686Z" fill="white"/>
</svg>
