<svg width="66" height="79" viewBox="0 0 66 79" fill="none" xmlns="http://www.w3.org/2000/svg">
<path d="M0 8.26043C0 3.69833 3.66586 1.0438e-05 8.18793 1.0438e-05H57.8121C62.3341 1.0438e-05 66 3.69833 66 8.26043V57.9666C66 69.3718 56.8354 78.6176 45.5302 78.6176H20.4698C9.16466 78.6176 0 69.3719 0 57.9666V8.26043Z" fill="#1F9DD3"/>
<path d="M0 8.26043C0 3.69833 3.66586 1.0438e-05 8.18793 1.0438e-05H57.8121C62.3341 1.0438e-05 66 3.69833 66 8.26043V40.5122C66 58.8989 51.2254 73.8043 33 73.8043C14.7746 73.8043 0 58.8989 0 40.5122V8.26043Z" fill="#46C4FF"/>
<path d="M0 8.26043C0 3.69833 3.66586 1.0438e-05 8.18793 1.0438e-05H57.8121C62.3341 1.0438e-05 66 3.69833 66 8.26043V53.9793C66 64.9284 57.2019 73.8043 46.349 73.8043H19.651C8.79807 73.8043 0 64.9284 0 53.9793V8.26043Z" fill="#46C4FF"/>
<path d="M11.1325 8.84813C11.1325 8.39192 11.4991 8.02209 11.9513 8.02209H54.8438C55.296 8.02209 55.6626 8.39192 55.6626 8.84813V41.7154C55.6626 54.1209 45.6942 64.1775 33.3976 64.1775C21.1009 64.1775 11.1325 54.1209 11.1325 41.7154V8.84813Z" fill="#1CB0F6"/>
<path d="M37.1824 20.6596C36.9166 22.0007 35.7349 22.2987 34.7896 21.2556C33.3125 19.6462 31.215 21.0768 32.3376 22.9246C32.633 23.3717 32.6035 23.6101 32.1308 24.1167C31.6877 24.6234 31.3627 24.683 30.181 24.534C28.8221 24.3552 28.763 24.385 28.5562 25.1301C28.3199 26.1732 28.5858 26.799 29.3243 26.799C29.6493 26.799 29.9151 26.9183 29.9151 27.0673C29.9151 27.2163 30.181 27.4547 30.506 27.5441C30.8309 27.6335 31.1854 28.0508 31.2741 28.468C31.4809 29.3323 32.249 29.3919 32.958 28.5872C33.2238 28.2594 33.6374 27.9912 33.8738 27.9912C34.1101 27.9912 34.4941 27.723 34.7305 27.3951C35.6167 26.1136 38.8368 25.4877 40.7275 26.203C41.7614 26.6202 42.7954 27.6633 43.209 28.7065C43.918 30.6139 43.2976 33.8624 42.0273 34.7566C41.7023 34.995 41.4365 35.3824 41.4365 35.6208C41.4365 35.8593 41.1706 36.2765 40.8456 36.5448C40.048 37.26 40.1071 38.0349 40.9638 38.2435C41.3774 38.333 41.791 38.6906 41.8796 39.0184C41.9682 39.3463 42.2046 39.6145 42.3523 39.6145C42.5 39.6145 42.6181 39.8827 42.6181 40.2106C42.6181 40.9557 43.2385 41.2239 44.2725 40.9855C45.011 40.7768 45.0406 40.7172 44.8633 39.3463C44.7156 38.1541 44.7747 37.8263 45.2769 37.3792C45.7791 36.9024 46.0154 36.8726 46.4586 37.1706C48.2902 38.3032 49.7082 36.1871 48.1129 34.6969C47.079 33.7432 47.3744 32.5511 48.7038 32.2829C49.6491 32.104 49.7082 32.0444 49.7082 30.8225C49.7082 29.6006 49.6491 29.541 48.7038 29.3621C47.3744 29.0939 47.1085 27.9912 48.1129 27.0077C48.8515 26.3222 48.9992 25.4579 48.556 24.7426C48.3493 24.4446 47.9357 24.385 46.9312 24.5042C45.1292 24.7724 44.627 24.2658 44.8929 22.4478C45.011 21.4344 44.9519 21.0172 44.6565 20.8086C43.9475 20.3615 43.0908 20.5105 42.4113 21.2556C41.4365 22.2689 40.3434 22.0007 40.0775 20.6596C39.9003 19.7058 39.8412 19.6462 38.63 19.6462C37.4188 19.6462 37.3597 19.7058 37.1824 20.6596Z" fill="#0076AC"/>
<path d="M27.2561 29.3027C27.2561 30.1372 26.7539 30.6141 25.6018 30.8227C24.9519 30.9717 24.5678 30.8227 23.9474 30.2564C23.1498 29.4815 22.5294 29.2729 22.5294 29.7498C22.5294 29.8988 22.2636 30.0776 21.9386 30.167C21.4364 30.2862 21.3773 30.4948 21.525 31.687C21.7909 33.5944 21.3478 34.0712 19.5162 33.8626C18.305 33.7136 18.0391 33.7732 17.655 34.3395C17.0051 35.2634 17.0937 35.77 18.0095 36.5151C18.7185 37.0814 18.7776 37.2304 18.5117 38.1543C18.305 38.9292 18.0095 39.2272 17.271 39.4657C16.4143 39.7041 16.3256 39.8531 16.3256 40.9558C16.3256 42.0585 16.4143 42.2076 17.271 42.446C18.0095 42.6844 18.305 42.9825 18.5117 43.7275C18.7481 44.6216 18.689 44.8005 18.0095 45.4561C17.0937 46.3204 17.0347 46.6781 17.655 47.5722C18.0391 48.1384 18.305 48.198 19.5162 48.049C21.3478 47.8404 21.7909 48.3173 21.5546 50.1949C21.3773 51.3274 21.4659 51.5658 21.9977 51.9831C22.9135 52.609 23.268 52.5493 24.1247 51.6254C24.7746 50.94 24.9519 50.8804 25.8381 51.1188C26.5767 51.3274 26.8721 51.6254 27.1084 52.3705C27.3448 53.2348 27.4925 53.3242 28.5855 53.3242C29.6786 53.3242 29.8263 53.2348 30.0626 52.3705C30.2989 51.6254 30.5944 51.3274 31.3624 51.1188C32.2782 50.8505 32.4259 50.9102 32.9872 51.6254C33.7258 52.5493 34.228 52.6388 35.1733 51.9831C35.7051 51.5658 35.7937 51.3274 35.6165 50.1949C35.3801 48.3173 35.8233 47.8404 37.6844 48.0788C38.9547 48.2279 39.1615 48.1682 39.2797 47.6616C39.3683 47.3337 39.5455 47.0655 39.6932 47.0655C40.1659 47.0655 39.9591 46.4396 39.191 45.635C38.6297 45.0091 38.482 44.6216 38.6297 43.966C38.8365 42.8036 39.3092 42.297 40.1364 42.297C40.7863 42.297 40.8454 42.1778 40.8454 40.9558C40.8454 39.7339 40.7863 39.6147 40.1364 39.6147C39.3092 39.6147 38.8365 39.108 38.6002 37.9159C38.4525 37.2006 38.5706 36.9026 39.191 36.4257C39.9591 35.7998 40.225 34.8461 39.6637 34.8461C39.516 34.8461 39.3683 34.6673 39.3683 34.4289C39.3683 33.7434 38.8661 33.5944 37.7139 33.9222C36.1482 34.3693 35.1143 33.3262 35.5574 31.7466C35.8823 30.5842 35.7346 30.0776 35.0552 30.0776C34.8188 30.0776 34.6416 29.9286 34.6416 29.7796C34.6416 29.2133 33.6962 29.4815 33.0759 30.2564C32.6032 30.8823 32.3078 31.0015 31.5988 30.8525C30.4171 30.6141 29.9149 30.1372 29.9149 29.3027C29.9149 28.647 29.7967 28.5874 28.5855 28.5874C27.3743 28.5874 27.2561 28.647 27.2561 29.3027ZM30.9784 35.1442C32.0124 35.5614 33.9326 37.4986 34.3462 38.5417C34.7302 39.6147 34.7302 42.2672 34.3166 43.4593C33.903 44.6514 32.4555 46.1416 31.1852 46.6483C30.0035 47.1549 27.4038 47.1847 26.0449 46.7079C24.8042 46.2608 23.3271 44.7707 22.8839 43.5189C22.4113 42.148 22.4408 39.5253 22.943 38.3331C23.4452 37.1112 24.9223 35.5912 25.9858 35.2038C27.0789 34.7865 29.974 34.7567 30.9784 35.1442Z" fill="#0076AC"/>
<path d="M26.754 38.9885C25.8382 39.7634 25.8087 42.0285 26.6654 42.8928C27.5221 43.7571 29.7673 43.7273 30.5354 42.8034C31.333 41.8198 31.2739 39.8826 30.4172 39.0779C29.5309 38.2434 27.6698 38.2136 26.754 38.9885Z" fill="#0076AC"/>
<path d="M37.5074 29.6603C37.3892 29.7795 37.3006 30.4054 37.3006 31.0312V32.1936L38.5709 32.1042C39.8116 32.0147 39.8116 32.0147 39.8116 30.8226C39.8116 29.6603 39.7821 29.6305 38.7777 29.5411C38.1868 29.4815 37.6255 29.5411 37.5074 29.6603Z" fill="#0076AC"/>
<path d="M48.6445 0L58.8935 0.0714587L61.319 0.793887L63.0449 1.90678L64.4357 3.40335L66 5.46849V16.3559L8.30878 72.8598L6.63979 71.363L5.15613 69.6791L3.85793 67.8082L2.74519 65.7501L1.8179 63.5049L1.26153 61.2597L0.89058 58.8274L0.89058 46.8531L48.6445 0Z" fill="white" fill-opacity="0.29"/>
</svg>
