<svg width="104" height="61" viewBox="0 0 104 61" fill="none" xmlns="http://www.w3.org/2000/svg">
<path d="M0.711014 38.7113C-1.77124 29.4474 17.3158 11.349 44.8652 3.96715C72.4146 -3.41468 97.9937 2.7155 100.476 11.9794L103.18 23.7851C105.662 33.049 88.7396 49.7052 61.1902 57.087C33.6409 64.4688 7.20401 60.5592 4.72176 51.2954L0.711014 38.7113Z" fill="#1F9DD3"/>
<path fill-rule="evenodd" clip-rule="evenodd" d="M56.2912 46.6095C83.8405 39.2277 103.107 21.7991 100.472 11.9651C97.8352 2.12403 72.4146 -3.41468 44.8652 3.96715C17.3158 11.349 -1.92972 28.856 0.707195 38.6971C3.3422 48.531 28.7418 53.9913 56.2912 46.6095Z" fill="#46C4FF"/>
<path fill-rule="evenodd" clip-rule="evenodd" d="M22.3046 24.3759C22.5066 25.2104 22.8896 25.97 23.4226 26.6436C21.4056 29.0013 20.5307 31.489 21.1351 33.9853C22.8725 41.1621 37.9075 45.0802 54.3221 41.1064C70.7365 37.1326 81.7608 27.3723 80.0233 20.1954C79.6346 17.6573 77.8646 15.769 75.0943 14.5086C75.3482 13.5372 75.3757 12.5499 75.142 11.5845C74.0524 7.08369 67.6988 4.75945 60.9505 6.39315C55.9341 7.60755 52.1117 10.6674 50.9279 14.0068C49.9355 14.2087 48.9333 14.4319 47.9236 14.6763C46.9128 14.921 45.9179 15.1796 44.9412 15.4511C42.3603 13.0258 37.5642 12.0547 32.5504 13.2685C25.8022 14.9022 21.215 19.8751 22.3046 24.3759Z" fill="#1F9DD3"/>
<path d="M87.976 2.79031L90.872 3.51372L93.5132 4.96163L94.4918 5.68559L95.9394 6.41041L96.6636 7.1335L97.3875 7.85888L17.3907 48.7612L19.2006 49.1232L15.5809 48.3992L12.685 47.6753L11.6309 47.3522L9.7296 46.678L9.06526 46.2274L4.72151 44.0555L87.976 2.79031Z" fill="white" fill-opacity="0.25"/>
</svg>
