<svg width="66" height="39" viewBox="0 0 66 39" fill="none" xmlns="http://www.w3.org/2000/svg">
<path d="M0.371496 24.7582C-1.20451 18.8765 10.9141 7.38559 28.4054 2.69879C45.8968 -1.988 62.1372 1.90411 63.7132 7.78584L65.4298 15.2814C67.0058 21.1631 56.2617 31.7383 38.7704 36.4251C21.279 41.1119 4.49396 38.6297 2.91796 32.7479L0.371496 24.7582Z" fill="#FEC701"/>
<path fill-rule="evenodd" clip-rule="evenodd" d="M35.6599 29.772C53.1513 25.0852 65.3838 14.0196 63.7108 7.77592C62.0366 1.52771 45.8968 -1.988 28.4054 2.69879C10.9141 7.38559 -1.30513 18.5001 0.369071 24.7483C2.04206 30.992 18.1685 34.4588 35.6599 29.772Z" fill="#FEE333"/>
<path fill-rule="evenodd" clip-rule="evenodd" d="M14.0815 15.6564C14.2097 16.1862 14.4529 16.6685 14.7913 17.0961C13.5107 18.5931 12.9552 20.1726 13.3389 21.7575C14.442 26.3141 23.9879 28.8017 34.4097 26.2787C44.8313 23.7557 51.8308 17.5588 50.7276 13.0021C50.4809 11.3907 49.357 10.1918 47.5982 9.39154C47.7594 8.77478 47.7768 8.14795 47.6284 7.53496C46.9367 4.67738 42.9027 3.20169 38.6181 4.23894C35.4332 5.00998 33.0063 6.95271 32.2547 9.0729C31.6246 9.2011 30.9883 9.3428 30.3472 9.498C29.7055 9.65336 29.0738 9.81752 28.4537 9.98993C26.815 8.45006 23.77 7.83353 20.5866 8.60419C16.3021 9.64142 13.3897 12.7988 14.0815 15.6564Z" fill="#FEC701"/>
<path d="M55.7769 1.95267L57.6156 2.41197L59.2925 3.33126L59.9138 3.79091L60.8329 4.25111L61.2928 4.7102L61.7524 5.17076L10.9616 31.14L12.1108 31.3699L9.81252 30.9102L7.97393 30.4506L7.30465 30.2455L6.09749 29.8174L5.6757 29.5313L2.91781 28.1524L55.7769 1.95267Z" fill="white" fill-opacity="0.25"/>
</svg>
