<svg width="211" height="44" viewBox="0 0 211 44" fill="none" xmlns="http://www.w3.org/2000/svg">
<path fill-rule="evenodd" clip-rule="evenodd" d="M26.0781 10.4198C24.1941 10.8424 22.3872 11.826 21.0512 13.1566C19.125 15.0748 18.1456 17.1838 17.7875 20.1845C17.3098 24.1897 18.7116 28.3347 21.3325 30.6659C22.461 31.6696 23.552 32.2789 25.1665 32.8074C26.2911 33.1754 26.779 33.2402 28.4661 33.2459C31.7929 33.257 33.8337 32.485 36.0422 30.3799C36.7679 29.688 37.3704 29.1372 37.381 29.1558C38.5065 31.1318 40.2158 32.3941 42.3738 32.8431C42.8547 32.9432 43.3186 33.0251 43.4049 33.0251C43.5026 33.0251 43.5618 28.7737 43.5618 21.7634V10.5017H43.164C42.561 10.5017 40.8576 11.0653 40.0561 11.53C39.2617 11.9906 37.8873 13.3707 37.5984 13.9979L37.4105 14.4059L36.3058 13.3106C34.1992 11.2222 32.0854 10.3276 29.0435 10.2368C27.7765 10.199 26.7914 10.2597 26.0781 10.4198ZM60.0599 10.4213C58.252 10.8572 56.5623 11.7761 55.0017 13.1716L54.1506 13.9328L53.1564 12.9493C52.1096 11.9137 50.049 10.7903 48.7965 10.5724L48.1743 10.4642L48.219 21.2682C48.2624 31.7476 48.2733 32.0791 48.584 32.3039C48.8343 32.4849 49.5966 32.5355 52.0697 32.5355C54.8112 32.5355 55.2654 32.4994 55.4615 32.2658C55.642 32.0509 55.7045 30.6543 55.7704 25.3701C55.85 18.9731 55.8652 18.7215 56.2089 18.0911C57.2144 16.2478 59.2831 15.5337 61.056 16.4182C61.9829 16.8806 62.4704 17.7226 62.6929 19.2462C62.7837 19.8677 62.8594 23.036 62.8612 26.2869C62.8644 31.9618 62.8772 32.2043 63.1836 32.3665C63.3715 32.4659 64.7925 32.5355 66.639 32.5355C69.6926 32.5355 69.7817 32.526 70.0318 32.1726C70.2533 31.8598 70.2887 30.9556 70.2887 25.5922C70.2887 18.528 70.3485 18.0751 71.4232 17.0118C72.4458 16.0004 74.3734 15.7348 75.7348 16.4182C76.2875 16.6955 76.5685 16.9839 76.8834 17.5966L77.3003 18.4078L77.3828 25.2021C77.4486 30.6288 77.5108 32.0506 77.6917 32.2658C78.0229 32.6603 84.1505 32.6719 84.5478 32.279C84.7758 32.0533 84.8069 31.1242 84.8069 24.5344C84.8069 16.4794 84.7667 15.9973 83.9519 14.2873C82.696 11.6519 79.9606 10.1836 76.2956 10.1778C73.5358 10.1733 71.4066 10.9475 69.5693 12.6235C68.8525 13.2773 68.563 13.4556 68.5032 13.2798C68.3269 12.7609 66.785 11.3519 65.9605 10.9564C64.3279 10.173 61.9745 9.9597 60.0599 10.4213ZM0.0447097 21.2659C0.0880996 31.7476 0.0989883 32.0791 0.409647 32.3039C0.843876 32.6179 6.73154 32.642 7.14399 32.3314C7.38404 32.1508 7.42182 31.484 7.47395 26.4966C7.53994 20.1723 7.60032 19.7778 8.69679 18.5106C9.56739 17.5044 10.342 17.2013 12.0505 17.198C12.8218 17.1966 13.7302 17.2715 14.069 17.3647C14.502 17.4835 14.7844 17.4815 15.0177 17.358C15.3323 17.1913 15.3501 17.0221 15.3501 14.1936C15.3501 10.5406 15.3914 10.6139 13.2864 10.5264C11.7568 10.4629 10.4535 10.7557 9.30672 11.4206C8.48941 11.8944 7.29627 13.121 6.76585 14.0327L6.38392 14.6891L5.62897 13.7058C4.50611 12.2434 2.34404 10.9233 0.46145 10.5509L0 10.4596L0.0447097 21.2659ZM33.1121 16.6284C34.1104 17.111 35.0429 18.0735 35.5376 19.1321C35.8331 19.7644 35.8902 20.1904 35.8902 21.7634C35.8902 23.9364 35.6449 24.6645 34.4988 25.8947C33.5463 26.917 32.4202 27.3748 30.8583 27.3748C29.2964 27.3748 28.1703 26.917 27.2178 25.8947C26.0717 24.6645 25.8264 23.9364 25.8264 21.7634C25.8264 19.6172 26.0645 18.8892 27.1576 17.6921C28.6281 16.082 31.0767 15.6446 33.1121 16.6284Z" fill="#2A55C2"/>
<path fill-rule="evenodd" clip-rule="evenodd" d="M193.882 0.308983C190.74 1.43478 188.779 3.60888 188.122 6.69474C187.992 7.3051 187.884 8.15616 187.882 8.58604L187.88 9.3675H186.012C184.779 9.3675 184.076 9.43462 183.945 9.56492C183.809 9.70065 183.747 10.5208 183.747 12.1878C183.747 15.2005 183.685 15.1256 186.181 15.1256H187.88V22.8463C187.88 29.6456 187.911 30.5977 188.139 30.8254C188.526 31.2102 194.672 31.2102 195.058 30.8254C195.287 30.5977 195.318 29.6468 195.318 22.8604V15.1539L197.211 15.0986C198.476 15.0616 199.175 14.9726 199.319 14.83C199.467 14.6821 199.55 13.9335 199.587 12.3941C199.663 9.31683 199.702 9.3675 197.215 9.3675H195.318V4.67874C195.318 -0.639299 195.446 -0.2512 193.882 0.308983ZM101.677 8.65349C100.659 8.87 98.7564 9.648 97.8469 10.2199C97.2723 10.5808 96.3928 11.3267 95.8921 11.8774C95.3916 12.428 94.982 12.7977 94.982 12.6992C94.982 12.3882 93.3586 10.7368 92.5375 10.2125C91.6666 9.65623 89.7071 8.87395 89.1848 8.87395C88.8507 8.87395 88.8501 8.90849 88.9048 22.3233C88.959 35.6252 88.9636 35.7871 89.3263 37.0888C90.0242 39.5929 91.1163 41.2226 92.8164 42.2962C93.6199 42.8036 95.4093 43.4227 96.0721 43.4227H96.4662L96.5092 36.3336L96.5523 29.2447L97.2135 29.7763C98.1631 30.5398 99.9884 31.3425 101.463 31.645C105.23 32.4181 108.916 31.3963 111.443 28.8778C112.831 27.4939 113.643 26.1105 114.252 24.0918C114.641 22.8015 114.7 22.3152 114.71 20.3079C114.723 17.5842 114.475 16.3865 113.466 14.303C112.923 13.1828 112.521 12.6416 111.447 11.5824C109.215 9.38132 107.042 8.52813 103.758 8.56399C102.795 8.57452 101.858 8.61467 101.677 8.65349ZM128.042 8.65892C124.089 9.32012 120.778 11.5911 119.315 14.6447C118.387 16.5814 118.084 17.9502 118.081 20.2257C118.076 23.6791 119.087 26.2987 121.258 28.4549C122.695 29.8821 124.077 30.6729 126.312 31.3479C127.665 31.7564 128.03 31.7954 130.521 31.7975C133.713 31.8003 134.953 31.5397 137.18 30.3985C138.994 29.4688 140.817 27.6903 141.655 26.0317C142.637 24.0886 142.976 22.6061 142.98 20.2257C142.987 16.7065 142.025 14.2247 139.785 11.9884C137.981 10.1866 136.286 9.31847 133.523 8.78099C132.408 8.56399 129.055 8.4893 128.042 8.65892ZM170.358 8.85453C168.5 9.4514 166.974 10.5111 165.763 12.0458L164.993 13.0201L164.742 12.6333C163.808 11.1948 162.125 9.90597 160.338 9.26056C158.413 8.56482 158.622 7.30247 158.622 19.6132C158.622 29.0669 158.653 30.3963 158.879 30.7181C159.13 31.0751 159.215 31.0839 162.413 31.0839C165.257 31.0839 165.719 31.048 165.916 30.8121C166.096 30.5959 166.16 29.2251 166.226 24.108L166.308 17.6757L166.75 16.8427C167.541 15.3508 168.85 14.4694 170.275 14.4694C171.715 14.4694 172.979 15.327 173.315 16.5318C173.433 16.9537 173.497 19.4947 173.498 23.7673C173.498 29.4602 173.534 30.4021 173.756 30.7181C174.007 31.0753 174.091 31.0839 177.306 31.0839H180.599L180.864 30.6808C181.1 30.3223 181.122 29.4826 181.062 23.0718C181 16.3671 180.971 15.7784 180.647 14.6084C179.722 11.2731 177.863 9.33098 175.02 8.72999C173.705 8.45212 171.421 8.51316 170.358 8.85453ZM146.72 19.6132C146.72 29.0669 146.751 30.3963 146.978 30.7181C147.229 31.0753 147.312 31.0839 150.528 31.0839H153.821L154.085 30.6824C154.319 30.3262 154.342 29.4864 154.284 23.238C154.228 17.2538 154.176 16.0509 153.939 15.236C153.078 12.2732 151.234 10.2712 148.437 9.26056C146.511 8.56482 146.72 7.30247 146.72 19.6132ZM129.167 14.5232C126.895 15.1608 125.562 17.2561 125.562 20.1918C125.562 23.9471 127.414 26.0434 130.704 26.0124C133.293 25.9882 135.016 24.351 135.477 21.4758C135.838 19.2307 135.137 16.7302 133.803 15.5039C132.771 14.5546 130.653 14.1064 129.167 14.5232ZM100.556 14.6314C99.0409 14.8984 97.8291 15.8567 97.0188 17.4289C96.5869 18.2669 96.5523 18.4736 96.5523 20.2257C96.5523 21.8026 96.6103 22.2423 96.9004 22.8664C97.9403 25.1031 100.094 26.2247 102.537 25.8014C105.225 25.3354 106.853 22.9764 106.685 19.7902C106.624 18.6374 106.522 18.2441 106.045 17.3135C104.984 15.2436 102.89 14.2203 100.556 14.6314ZM203.812 23.7373C202.563 24.0552 201.255 24.8513 200.698 25.634C200.036 26.5634 199.913 28.0768 200.419 29.0644C201.16 30.5105 202.741 31.3724 204.943 31.5317C208.172 31.765 210.764 30.2349 210.983 27.9666C211.211 25.6026 209.094 23.7766 205.913 23.5943C205.173 23.5521 204.31 23.6108 203.812 23.7373Z" fill="black"/>
</svg>
