<svg width="57" height="80" viewBox="0 0 57 80" fill="none" xmlns="http://www.w3.org/2000/svg">
<path d="M37.3996 69.8669C37.2409 72.2884 36.1268 74.5476 34.3023 76.1476C32.4779 77.7476 30.0926 78.5574 27.6711 78.3986C25.2497 78.2399 22.9904 77.1258 21.3904 75.3014C19.7904 73.4769 18.9807 71.0916 19.1394 68.6701C19.2981 66.2487 20.4122 63.9895 22.2367 62.3894C24.0611 60.7894 26.4464 59.9797 28.8679 60.1384C31.2894 60.2971 33.5486 61.4113 35.1486 63.2357C36.7486 65.0602 37.5583 67.4455 37.3996 69.8669Z" fill="#850014"/>
<path fill-rule="evenodd" clip-rule="evenodd" d="M31.5622 16.9985C28.5036 16.7981 25.8189 17.539 23.8844 18.7235C22.0215 19.8667 21.0444 21.2744 20.7059 22.5221C20.2174 24.1877 19.0955 25.5954 17.581 26.4433C16.0665 27.2911 14.28 27.5117 12.6048 27.0575C10.9296 26.6034 9.49911 25.5107 8.62024 24.014C7.74137 22.5173 7.48414 20.7357 7.90373 19.0515C9.27689 13.9791 12.7383 9.9927 16.9608 7.40403C21.3551 4.71201 26.7875 3.39006 32.4299 3.75987C44.1027 4.52492 55.693 13.1243 54.8714 25.66C54.3957 32.9184 49.697 38.5063 43.8849 41.5639C42.3272 42.3823 40.5082 42.5483 38.828 42.0255C37.1479 41.5027 35.7442 40.3338 34.9258 38.7761C34.1075 37.2183 33.9414 35.3993 34.4643 33.7191C34.9871 32.039 36.1559 30.6353 37.7137 29.817C40.4202 28.3943 41.5257 26.4266 41.6328 24.7923C41.8045 22.172 38.8343 17.4752 31.5622 16.9985Z" fill="#850014"/>
<path fill-rule="evenodd" clip-rule="evenodd" d="M30.4059 34.6428C34.058 34.8822 36.8314 38.0348 36.5914 41.696L36.142 48.5527C36.027 50.3083 35.2192 51.9462 33.8965 53.1062C32.5738 54.2662 30.8444 54.8533 29.0889 54.7382C27.3333 54.6231 25.6954 53.8154 24.5354 52.4927C23.3754 51.1699 22.7883 49.4406 22.9034 47.685L23.3528 40.8283C23.5921 37.1763 26.7493 34.4032 30.4059 34.6428Z" fill="#850014"/>
<path fill-rule="evenodd" clip-rule="evenodd" d="M46.7147 32.6679C47.1129 33.4435 47.3544 34.2899 47.4253 35.1588C47.4962 36.0277 47.3951 36.9021 47.1278 37.7319C46.8605 38.5617 46.4323 39.3307 45.8676 39.9949C45.3029 40.6591 44.6128 41.2055 43.8368 41.6028L33.0012 47.1599C31.4359 47.9631 29.6157 48.1117 27.9409 47.5729C26.266 47.0341 24.8739 45.8521 24.0706 44.2868C23.2673 42.7215 23.1187 40.9013 23.6575 39.2265C24.1963 37.5517 25.3784 36.1595 26.9437 35.3562L37.7841 29.7949C38.5594 29.3973 39.4054 29.1564 40.2738 29.0859C41.1423 29.0154 42.0161 29.1166 42.8453 29.3838C43.6746 29.651 44.4431 30.079 45.107 30.6433C45.7709 31.2076 46.3174 31.8925 46.7147 32.6679Z" fill="#850014"/>
<path d="M33.8669 67.8005C33.7082 70.222 32.5941 72.4812 30.7696 74.0812C28.9452 75.6812 26.5599 76.4909 24.1384 76.3322C21.7169 76.1735 19.4577 75.0594 17.8577 73.235C16.2577 71.4105 15.448 69.0252 15.6067 66.6037C15.7654 64.1823 16.8795 61.923 18.704 60.323C20.5284 58.723 22.9137 57.9133 25.3352 58.072C27.7566 58.2307 30.0159 59.3449 31.6159 61.1693C33.2159 62.9938 34.0256 65.3791 33.8669 67.8005Z" fill="#E10531"/>
<path fill-rule="evenodd" clip-rule="evenodd" d="M28.0297 14.9321C24.9711 14.7317 22.2864 15.4726 20.352 16.6571C18.489 17.8003 17.5119 19.208 17.1734 20.4557C16.6849 22.1213 15.563 23.529 14.0485 24.3768C12.534 25.2247 10.7476 25.4453 9.07234 24.9911C7.39713 24.537 5.96664 23.4443 5.08777 21.9476C4.2089 20.4508 3.95167 18.6693 4.37126 16.9851C5.74442 11.9127 9.20579 7.92629 13.4283 5.33762C17.8226 2.6456 23.255 1.32366 28.8974 1.69347C40.5702 2.45852 52.1606 11.0579 51.339 23.5936C50.8632 30.852 46.1645 36.4399 40.3525 39.4975C38.7947 40.3159 36.9757 40.4819 35.2955 39.9591C33.6154 39.4363 32.2117 38.2674 31.3934 36.7097C30.575 35.1519 30.409 33.3329 30.9318 31.6527C31.4546 29.9726 32.6235 28.5689 34.1812 27.7506C36.8877 26.3279 37.9932 24.3602 38.1003 22.7259C38.2721 20.1056 35.3019 15.4087 28.0297 14.9321Z" fill="#E10531"/>
<path fill-rule="evenodd" clip-rule="evenodd" d="M26.8735 32.5764C30.5255 32.8158 33.2989 35.9684 33.059 39.6296L32.6096 46.4863C32.4945 48.2418 31.6868 49.8798 30.364 51.0398C29.0413 52.1998 27.312 52.7868 25.5564 52.6718C23.8009 52.5567 22.1629 51.749 21.0029 50.4263C19.8429 49.1035 19.2559 47.3742 19.3709 45.6186L19.8203 38.7619C20.0597 35.1099 23.2169 32.3368 26.8735 32.5764Z" fill="#E10531"/>
<path fill-rule="evenodd" clip-rule="evenodd" d="M43.182 30.6015C43.5802 31.3771 43.8217 32.2235 43.8926 33.0924C43.9635 33.9613 43.8624 34.8357 43.5951 35.6655C43.3278 36.4953 42.8996 37.2643 42.3348 37.9285C41.7701 38.5927 41.0801 39.1391 40.3041 39.5364L29.4685 45.0935C27.9032 45.8967 26.0829 46.0453 24.4081 45.5065C22.7333 44.9677 21.3411 43.7857 20.5379 42.2204C19.7346 40.6551 19.586 38.8349 20.1248 37.1601C20.6636 35.4852 21.8457 34.0931 23.4109 33.2898L34.2514 27.7285C35.0267 27.3309 35.8727 27.09 36.7411 27.0195C37.6095 26.949 38.4833 27.0502 39.3126 27.3174C40.1419 27.5846 40.9104 28.0126 41.5743 28.5769C42.2382 29.1412 42.7847 29.8261 43.182 30.6015Z" fill="#E10531"/>
</svg>
