<svg width="23" height="24" viewBox="0 0 23 24" fill="none" xmlns="http://www.w3.org/2000/svg">
<path d="M14.4506 10.9921L13.0626 15.3663L8.68835 13.9782L10.0764 9.60402L14.4506 10.9921ZM6.14354 21.9976C5.95019 21.9363 5.78913 21.8006 5.6958 21.6205C5.60246 21.4404 5.5845 21.2306 5.64585 21.0372L6.10855 19.5792L2.46337 18.4224C2.07666 18.2997 1.75455 18.0284 1.56788 17.6682C1.38121 17.308 1.34528 16.8884 1.46799 16.5017L2.62472 12.8565L1.16665 12.3938C0.973302 12.3324 0.812241 12.1968 0.718907 12.0167C0.625571 11.8366 0.607608 11.6268 0.668965 11.4334C0.730322 11.2401 0.865973 11.079 1.04608 10.9857C1.22619 10.8923 1.43599 10.8744 1.62935 10.9357L3.08742 11.3984L4.0128 8.48228L2.55473 8.01959C2.36138 7.95823 2.20032 7.82258 2.10699 7.64248C2.01365 7.46237 1.99569 7.25256 2.05704 7.05921C2.1184 6.86586 2.25405 6.7048 2.43416 6.61146C2.61427 6.51813 2.82407 6.50016 3.01743 6.56152L4.4755 7.02421L5.63223 3.37904C5.75494 2.99233 6.02625 2.67021 6.38646 2.48355C6.74668 2.29688 7.16629 2.26095 7.55299 2.38366L11.1982 3.54039L11.6609 2.08232C11.7222 1.88897 11.8579 1.72791 12.038 1.63458C12.2181 1.54124 12.4279 1.52328 12.6212 1.58463C12.8146 1.64599 12.9757 1.78164 13.069 1.96175C13.1623 2.14186 13.1803 2.35166 13.1189 2.54501L12.6562 4.00309L15.5724 4.92847L16.0351 3.4704C16.0964 3.27705 16.2321 3.11599 16.4122 3.02265C16.5923 2.92932 16.8021 2.91136 16.9955 2.97271C17.1888 3.03407 17.3499 3.16972 17.4432 3.34983C17.5365 3.52993 17.5545 3.73974 17.4931 3.93309L17.0305 5.39116L20.6756 6.5479C21.0623 6.67061 21.3845 6.94192 21.5711 7.30213C21.7578 7.66234 21.7937 8.08196 21.671 8.46866L20.5143 12.1138L21.9723 12.5765C22.1657 12.6379 22.3268 12.7735 22.4201 12.9536C22.5134 13.1338 22.5314 13.3436 22.47 13.5369C22.4087 13.7303 22.273 13.8913 22.0929 13.9847C21.9128 14.078 21.703 14.096 21.5097 14.0346L20.0516 13.5719L19.1262 16.4881L20.5843 16.9507C20.7776 17.0121 20.9387 17.1478 21.032 17.3279C21.1253 17.508 21.1433 17.7178 21.082 17.9111C21.0206 18.1045 20.8849 18.2655 20.7048 18.3589C20.5247 18.4522 20.3149 18.4702 20.1216 18.4088L18.6635 17.9461L17.5068 21.5913C17.3841 21.978 17.1128 22.3001 16.7525 22.4868C16.3923 22.6735 15.9727 22.7094 15.586 22.5867L11.9408 21.4299L11.4781 22.888C11.4168 23.0814 11.2811 23.2424 11.101 23.3358C10.9209 23.4291 10.7111 23.4471 10.5178 23.3857C10.3244 23.3243 10.1633 23.1887 10.07 23.0086C9.97667 22.8285 9.95871 22.6187 10.0201 22.4253L10.4828 20.9673L7.56662 20.0419L7.10392 21.4999C7.04257 21.6933 6.90691 21.8543 6.72681 21.9477C6.5467 22.041 6.33689 22.059 6.14354 21.9976ZM13.3289 17.0557C13.5223 17.1171 13.7321 17.0991 13.9122 17.0058C14.0923 16.9125 14.2279 16.7514 14.2893 16.558L16.1401 10.7258C16.2014 10.5324 16.1835 10.3226 16.0901 10.1425C15.9968 9.96239 15.8357 9.82673 15.6424 9.76538L9.81009 7.9146C9.61674 7.85325 9.40693 7.87121 9.22682 7.96455C9.04672 8.05788 8.91107 8.21894 8.84971 8.41229L6.99894 14.2446C6.93758 14.4379 6.95554 14.6477 7.04888 14.8278C7.14221 15.008 7.30327 15.1436 7.49663 15.205L13.3289 17.0557Z" fill="#F89701"/>
<path d="M13.8624 10.0214L12.4743 14.3956L8.10014 13.0076L9.48822 8.63334L13.8624 10.0214ZM5.55533 21.0269C5.36197 20.9656 5.20091 20.8299 5.10758 20.6498C5.01424 20.4697 4.99628 20.2599 5.05764 20.0666L5.52033 18.6085L1.87515 17.4518C1.48845 17.329 1.16633 17.0577 0.979661 16.6975C0.792992 16.3373 0.757063 15.9177 0.879777 15.531L2.03651 11.8858L0.578439 11.4231C0.385086 11.3618 0.224025 11.2261 0.13069 11.046C0.0373562 10.8659 0.0193933 10.6561 0.08075 10.4627C0.142107 10.2694 0.277758 10.1083 0.457864 10.015C0.637971 9.92166 0.84778 9.9037 1.04113 9.96505L2.4992 10.4277L3.42459 7.5116L1.96652 7.04891C1.77317 6.98755 1.6121 6.8519 1.51877 6.67179C1.42544 6.49169 1.40747 6.28188 1.46883 6.08853C1.53019 5.89518 1.66584 5.73412 1.84594 5.64078C2.02605 5.54745 2.23586 5.52948 2.42921 5.59084L3.88728 6.05353L5.04401 2.40836C5.16673 2.02165 5.43803 1.69953 5.79825 1.51286C6.15846 1.3262 6.57807 1.29027 6.96478 1.41298L10.61 2.56971L11.0726 1.11164C11.134 0.918289 11.2697 0.75723 11.4498 0.663895C11.6299 0.57056 11.8397 0.552596 12.033 0.613952C12.2264 0.675309 12.3874 0.810962 12.4808 0.991069C12.5741 1.17118 12.5921 1.38098 12.5307 1.57433L12.068 3.0324L14.9842 3.95779L15.4469 2.49972C15.5082 2.30637 15.6439 2.14531 15.824 2.05197C16.0041 1.95864 16.2139 1.94067 16.4072 2.00203C16.6006 2.06339 16.7617 2.19904 16.855 2.37915C16.9483 2.55925 16.9663 2.76906 16.9049 2.96241L16.4422 4.42048L20.0874 5.57722C20.4741 5.69993 20.7962 5.97124 20.9829 6.33145C21.1696 6.69166 21.2055 7.11128 21.0828 7.49798L19.9261 11.1432L21.3841 11.6059C21.5775 11.6672 21.7385 11.8029 21.8319 11.983C21.9252 12.1631 21.9432 12.3729 21.8818 12.5662C21.8205 12.7596 21.6848 12.9206 21.5047 13.014C21.3246 13.1073 21.1148 13.1253 20.9214 13.0639L19.4634 12.6012L18.538 15.5174L19.996 15.9801C20.1894 16.0414 20.3505 16.1771 20.4438 16.3572C20.5371 16.5373 20.5551 16.7471 20.4937 16.9404C20.4324 17.1338 20.2967 17.2949 20.1166 17.3882C19.9365 17.4815 19.7267 17.4995 19.5334 17.4381L18.0753 16.9754L16.9186 20.6206C16.7958 21.0073 16.5245 21.3294 16.1643 21.5161C15.8041 21.7028 15.3845 21.7387 14.9978 21.616L11.3526 20.4593L10.8899 21.9173C10.8286 22.1107 10.6929 22.2717 10.5128 22.3651C10.3327 22.4584 10.1229 22.4764 9.92954 22.415C9.73619 22.3537 9.57513 22.218 9.48179 22.0379C9.38846 21.8578 9.37049 21.648 9.43185 21.4546L9.89454 19.9966L6.9784 19.0712L6.51571 20.5293C6.45435 20.7226 6.3187 20.8837 6.13859 20.977C5.95849 21.0703 5.74868 21.0883 5.55533 21.0269ZM12.7407 16.0851C12.934 16.1464 13.1439 16.1284 13.324 16.0351C13.5041 15.9418 13.6397 15.7807 13.7011 15.5874L15.5518 9.75508C15.6132 9.56173 15.5952 9.35192 15.5019 9.17181C15.4086 8.99171 15.2475 8.85605 15.0542 8.7947L9.22187 6.94392C9.02852 6.88257 8.81872 6.90053 8.63861 6.99387C8.4585 7.0872 8.32285 7.24826 8.26149 7.44161L6.41072 13.2739C6.34936 13.4672 6.36733 13.6771 6.46066 13.8572C6.554 14.0373 6.71506 14.1729 6.90841 14.2343L12.7407 16.0851Z" fill="#FEE333"/>
</svg>
