<svg width="1222" height="702" viewBox="0 0 1222 702" fill="none" xmlns="http://www.w3.org/2000/svg">
<path d="M0 50C0 22.3857 22.3858 0 50 0H1172C1199.61 0 1222 22.3858 1222 50V702H0V50Z" fill="#F8F8FF"/>
<path d="M122.143 203.883C120.64 198.569 123.729 193.042 129.044 191.539L211.082 168.331C216.397 166.828 221.923 169.917 223.427 175.231L247.729 261.14C251.488 274.426 243.764 288.243 230.479 292.001L177.307 307.043C164.022 310.801 150.205 303.078 146.446 289.792L122.143 203.883Z" fill="#850014"/>
<path d="M122.143 203.883C120.64 198.569 123.729 193.042 129.044 191.539L211.082 168.331C216.397 166.828 221.923 169.917 223.427 175.231L238.137 227.233C246.049 255.202 229.79 284.289 201.822 292.201V292.201C173.853 300.113 144.766 283.854 136.854 255.885L122.143 203.883Z" fill="#46C4FF"/>
<path d="M122.143 203.883C120.64 198.569 123.729 193.042 129.044 191.539L211.082 168.331C216.397 166.828 221.923 169.917 223.427 175.231L245.93 254.781C249.539 267.535 242.124 280.8 229.37 284.408L174.274 299.994C161.52 303.602 148.255 296.187 144.647 283.433L122.143 203.883Z" fill="#E10531"/>
<path d="M140.229 202.592C140.078 202.061 140.387 201.508 140.919 201.358L207.33 182.571C207.861 182.42 208.414 182.729 208.564 183.261L222.791 233.55C228.129 252.421 217.159 272.046 198.289 277.384V277.384C179.418 282.722 159.793 271.752 154.455 252.882L140.229 202.592Z" fill="#AE001A"/>
<path d="M165.073 216.79L165.708 219.036L163.462 219.671L161.216 220.307L161.852 222.553L162.487 224.799L160.241 225.434L157.995 226.07L161.013 236.739L164.031 247.409L166.277 246.773L168.523 246.138L169.159 248.384L169.794 250.63L172.04 249.995C174.23 249.375 174.303 249.415 174.843 251.325C175.367 253.178 175.511 253.258 177.364 252.734C179.273 252.194 179.345 252.234 179.965 254.424L180.6 256.67L182.846 256.035L185.093 255.4L185.728 257.646L186.363 259.892L192.821 258.065L199.279 256.238L198.644 253.992L198.008 251.746L200.254 251.11L202.501 250.475L201.865 248.229C201.246 246.039 201.286 245.967 203.195 245.427C205.048 244.902 205.129 244.758 204.605 242.905C204.064 240.996 204.105 240.924 206.295 240.304L208.541 239.669L207.905 237.423L207.27 235.177L209.516 234.541L211.762 233.906L208.744 223.236L205.726 212.567L203.48 213.203L201.234 213.838L200.598 211.592L199.963 209.346L197.717 209.981L195.47 210.616L194.835 208.37L194.2 206.124L191.953 206.76L189.707 207.395L190.343 209.641L190.978 211.887L188.732 212.523L186.486 213.158L187.121 215.404C187.741 217.594 187.7 217.666 185.791 218.206C183.938 218.731 183.857 218.875 184.382 220.728C184.906 222.581 184.825 222.725 182.972 223.249C181.119 223.774 180.975 223.693 180.451 221.84C179.927 219.987 179.783 219.906 177.929 220.43C176.02 220.971 175.948 220.93 175.329 218.74L174.693 216.494L172.447 217.13L170.201 217.765L169.565 215.519L168.93 213.273L166.684 213.908L164.438 214.543L165.073 216.79Z" fill="#6B0015"/>
<path d="M195.906 172.317L212.161 168.024L213.554 168.288L214.947 168.553L216.339 168.818L218.515 169.521L220.253 171.006L223.05 174.827L228.03 192.43L195.362 248.085L162.695 303.741L159.489 302.188L156.488 300.271L153.691 297.989L151.097 295.341L148.708 292.328L146.888 289.155L145.272 285.616L144.184 281.77L140.12 267.401L195.906 172.317Z" fill="white" fill-opacity="0.29"/>
<path d="M1034.38 243.795C1036.54 238.715 1042.42 236.353 1047.5 238.52L1117.19 268.249C1122.27 270.416 1124.63 276.291 1122.47 281.371L1091.83 353.187C1086.41 365.887 1071.73 371.791 1059.03 366.373L1016.93 348.415C1004.23 342.998 998.324 328.311 1003.74 315.611L1034.38 243.795Z" fill="#FFC100"/>
<path d="M1034.38 243.795C1036.54 238.715 1042.42 236.353 1047.5 238.52L1117.19 268.249C1122.27 270.416 1124.63 276.291 1122.47 281.371L1103.53 325.769C1093.15 350.095 1065.02 361.403 1040.69 351.026V351.026C1016.37 340.65 1005.06 312.519 1015.44 288.193L1034.38 243.795Z" fill="#46C4FF"/>
<path d="M1034.38 243.795C1036.54 238.715 1042.42 236.353 1047.5 238.52L1117.19 268.249C1122.27 270.416 1124.63 276.291 1122.47 281.371L1094.16 347.739C1088.95 359.931 1074.86 365.598 1062.66 360.398L1018.72 341.655C1006.53 336.454 1000.87 322.355 1006.07 310.163L1034.38 243.795Z" fill="#FEE333"/>
<path d="M1048.24 252.468C1048.45 251.96 1049.04 251.724 1049.55 251.94L1107.14 276.508C1107.65 276.725 1107.89 277.312 1107.67 277.82L1089.05 321.476C1082.05 337.888 1063.07 345.518 1046.66 338.517V338.517C1030.24 331.516 1022.61 312.536 1029.62 296.123L1048.24 252.468Z" fill="#FEC701"/>
<g clip-path="url(#clip0_504_811)">
<path d="M1070.58 279.614C1070.19 280.176 1069.65 280.574 1069.47 280.498C1069.3 280.423 1068.44 281.099 1067.48 281.995C1066.57 282.911 1065.7 283.586 1065.53 283.511C1065.35 283.436 1064.45 284.2 1063.48 285.247C1062.53 286.251 1061.61 287.059 1061.48 287.003C1061.31 286.927 1060.46 287.559 1059.54 288.367C1058.65 289.238 1057.73 289.939 1057.54 290.015C1057.3 290.072 1056.4 290.836 1055.49 291.752C1054.58 292.667 1053.68 293.431 1053.49 293.507C1052.45 293.742 1050.35 295.976 1049.65 297.609L1048.9 299.375L1053.98 301.541C1059.01 303.687 1059.05 303.706 1058.46 304.602C1058.08 305.119 1056.7 307.504 1055.35 309.951C1053.99 312.398 1052.49 314.682 1052.06 315.074C1051.57 315.49 1050.82 316.891 1050.34 318.253L1049.44 320.737L1051.24 321.66C1052.86 322.508 1053.12 322.514 1053.82 321.612C1054.21 321.05 1054.75 320.652 1054.92 320.728C1055.1 320.803 1056.01 320.146 1056.96 319.25C1057.87 318.334 1058.74 317.659 1058.87 317.715C1059.05 317.79 1059.95 317.026 1060.91 315.979C1061.86 314.975 1062.78 314.167 1062.91 314.223C1063.09 314.299 1063.93 313.667 1064.87 312.815C1065.75 311.988 1066.63 311.268 1066.86 311.211C1067.05 311.135 1068.04 310.408 1069.04 309.531C1070.04 308.653 1071.56 307.422 1072.35 306.771C1073.2 306.14 1074.25 304.764 1074.71 303.705L1075.5 301.851L1070.42 299.685C1065.39 297.539 1065.34 297.52 1065.95 296.58C1066.31 296.107 1067.69 293.722 1069.05 291.275C1070.41 288.828 1071.9 286.544 1072.33 286.152C1072.82 285.736 1073.58 284.335 1074.05 282.974L1074.96 280.489L1073.16 279.566C1071.54 278.718 1071.28 278.712 1070.58 279.614Z" fill="#F89701"/>
<path d="M1051.74 274.605C1050.17 275.238 1049.98 277.141 1051.11 280.126C1052.06 282.671 1052.43 283.143 1053.98 283.802C1055.48 284.442 1055.8 284.422 1056.22 283.558C1057.22 281.584 1057.17 280.834 1056 278.089C1054.77 275.217 1053.26 273.997 1051.74 274.605Z" fill="#F89701"/>
<path d="M1082.69 289.525C1079.83 290.601 1079.34 291.018 1078.6 293.105C1078.31 294.026 1078.52 294.271 1080.02 294.911C1081.57 295.57 1082.17 295.513 1084.66 294.437C1087.59 293.185 1088.84 291.733 1088.21 290.159C1087.57 288.584 1085.67 288.399 1082.69 289.525Z" fill="#F89701"/>
<path d="M1039.84 306.676C1036.58 308.206 1035.76 309.008 1036.1 310.557C1036.54 312.573 1038.41 312.954 1041.76 311.72C1044.38 310.701 1044.77 310.398 1045.26 308.885C1045.81 307.239 1045.74 307.157 1044.1 306.353C1042.55 305.587 1042.12 305.613 1039.84 306.676Z" fill="#F89701"/>
<path d="M1068.83 317.113C1068.6 317.17 1068.13 317.908 1067.77 318.747C1067.26 319.938 1067.37 320.77 1068.37 323.075C1069.63 326.009 1071.08 327.254 1072.65 326.622C1074.23 325.989 1074.41 324.085 1073.29 321.1C1072.41 318.745 1071.92 318.065 1070.73 317.557C1069.89 317.199 1069.04 316.993 1068.83 317.113Z" fill="#F89701"/>
</g>
<path d="M1105 262.757L1120.1 269.198L1121.83 269.937L1123.21 270.818L1123.99 271.735L1124.41 272.795L1124.84 273.854L1124.81 275.303L1116.25 295.353L1061.32 316.099L1006.39 336.846L1005.01 333.916L1003.98 330.843L1003.3 327.629L1002.98 324.273L1003.01 320.774L1003.53 317.487L1004.41 314.058L1005.84 310.713L1011.17 298.216L1105 262.757Z" fill="white" fill-opacity="0.29"/>
<path d="M899.821 525.001C897.895 519.825 900.53 514.068 905.706 512.142L973.841 486.792C979.017 484.866 984.774 487.501 986.7 492.677L1012.66 562.454C1017.48 575.395 1010.89 589.788 997.948 594.603L957.93 609.492C944.99 614.306 930.597 607.719 925.782 594.778L899.821 525.001Z" fill="#7B2BBE"/>
<path d="M899.821 525.001C897.895 519.825 900.53 514.068 905.706 512.142L973.841 486.792C979.017 484.866 984.774 487.501 986.7 492.677L1002.88 536.165C1011.81 560.156 999.593 586.841 975.602 595.767V595.767C951.611 604.693 924.927 592.48 916.001 568.489L899.821 525.001Z" fill="#46C4FF"/>
<path d="M899.821 525.001C897.895 519.825 900.53 514.068 905.706 512.142L973.841 486.792C979.017 484.866 984.774 487.501 986.7 492.677L1010.67 557.111C1015.3 569.534 1008.97 583.352 996.548 587.974L954.656 603.56C942.234 608.182 928.416 601.858 923.794 589.435L899.821 525.001Z" fill="#C67DFF"/>
<path d="M915.231 521.581C915.038 521.063 915.302 520.487 915.82 520.295L972.562 499.183C973.08 498.991 973.656 499.254 973.848 499.772L989.856 542.798C995.879 558.984 987.639 576.988 971.452 583.011V583.011C955.265 589.033 937.261 580.793 931.239 564.606L915.231 521.581Z" fill="#9D4EDD"/>
<g clip-path="url(#clip1_504_811)">
<path d="M958.184 517.888C958.751 517.678 959.378 517.7 959.928 517.952C960.478 518.204 960.906 518.664 961.116 519.23L961.912 521.367C962.122 521.934 962.1 522.562 961.848 523.112C961.596 523.661 961.136 524.089 960.57 524.3C960.003 524.511 959.375 524.488 958.826 524.236C958.276 523.984 957.848 523.525 957.637 522.958L956.842 520.821C956.631 520.254 956.654 519.626 956.906 519.077C957.158 518.527 957.617 518.099 958.184 517.888ZM951.645 525.795C951.746 525.199 952.079 524.667 952.572 524.317C953.065 523.967 953.677 523.826 954.273 523.927L956.522 524.307C957.115 524.411 957.642 524.746 957.99 525.238C958.337 525.73 958.475 526.339 958.375 526.933C958.275 527.527 957.944 528.056 957.454 528.407C956.964 528.757 956.356 528.9 955.762 528.804L953.513 528.424C952.917 528.323 952.385 527.989 952.035 527.496C951.685 527.004 951.544 526.392 951.645 525.795ZM968.605 522.809C968.799 522.578 968.944 522.312 969.034 522.025C969.124 521.738 969.156 521.436 969.129 521.136C969.101 520.837 969.015 520.546 968.875 520.28C968.734 520.014 968.543 519.778 968.311 519.587C968.079 519.395 967.812 519.251 967.524 519.163C967.237 519.075 966.935 519.045 966.636 519.074C966.336 519.104 966.046 519.192 965.781 519.334C965.516 519.476 965.281 519.669 965.091 519.902L963.638 521.659C963.445 521.89 963.299 522.156 963.209 522.443C963.12 522.73 963.087 523.032 963.115 523.332C963.142 523.631 963.228 523.922 963.369 524.188C963.509 524.454 963.701 524.69 963.932 524.881C964.164 525.073 964.431 525.217 964.719 525.305C965.007 525.393 965.309 525.423 965.608 525.394C965.907 525.364 966.198 525.276 966.463 525.134C966.728 524.992 966.962 524.799 967.152 524.566L968.605 522.809ZM959.156 529.263C959.256 528.692 959.569 528.181 960.032 527.832C960.496 527.484 961.074 527.325 961.65 527.388C962.226 527.451 962.757 527.731 963.134 528.171C963.511 528.611 963.706 529.178 963.68 529.757L963.653 530.023L963.444 531.259L965.692 531.639C966.115 531.711 966.509 531.9 966.829 532.185C967.149 532.471 967.382 532.841 967.501 533.253L967.565 533.535L967.776 534.893C973.71 538.587 977.234 545.443 976.019 552.627C974.391 562.259 964.948 568.514 955.116 566.851C945.281 565.19 938.418 556.179 940.046 546.548C941.225 539.579 946.507 534.368 953.043 532.659L953.661 532.507L954.304 531.295C954.506 530.916 954.811 530.601 955.183 530.388C955.556 530.174 955.981 530.07 956.41 530.088L956.699 530.119L958.947 530.499L959.156 529.263ZM953.535 539.709C952.048 540.263 950.733 541.197 949.722 542.42C948.712 543.643 948.04 545.11 947.776 546.674C947.677 547.248 947.802 547.839 948.125 548.324C948.448 548.81 948.944 549.153 949.512 549.284C950.081 549.414 950.677 549.322 951.18 549.027C951.682 548.731 952.052 548.254 952.214 547.694L952.273 547.434C952.528 545.928 953.507 544.722 954.801 544.119L955.129 543.982C955.696 543.77 956.155 543.343 956.406 542.792C956.658 542.242 956.68 541.615 956.468 541.048C956.257 540.482 955.829 540.022 955.279 539.771C954.729 539.52 954.101 539.498 953.535 539.709ZM967.762 526.205L970.01 526.585C970.307 526.633 970.592 526.739 970.847 526.898C971.103 527.056 971.324 527.264 971.499 527.508C971.674 527.753 971.799 528.03 971.867 528.323C971.935 528.616 971.944 528.919 971.894 529.216C971.844 529.512 971.735 529.796 971.575 530.05C971.415 530.305 971.206 530.525 970.96 530.698C970.715 530.872 970.437 530.995 970.144 531.061C969.85 531.126 969.547 531.133 969.25 531.081L967.002 530.701C966.705 530.653 966.421 530.547 966.165 530.388C965.91 530.23 965.688 530.022 965.513 529.778C965.338 529.533 965.213 529.257 965.146 528.964C965.078 528.671 965.069 528.367 965.119 528.071C965.169 527.774 965.277 527.49 965.437 527.236C965.598 526.981 965.807 526.761 966.052 526.588C966.298 526.414 966.576 526.291 966.869 526.225C967.162 526.16 967.466 526.153 967.762 526.205Z" fill="#6513A9"/>
</g>
<path d="M961.92 490.951L975.885 486.031L977.126 486.165L978.368 486.299L979.609 486.433L981.569 486.896L983.2 488.076L985.926 491.233L991.543 506.332L966.809 557.501L942.074 608.669L939.15 607.534L936.38 606.063L933.763 604.258L931.299 602.117L928.988 599.642L927.166 596.985L925.497 593.993L924.269 590.694L919.684 578.369L961.92 490.951Z" fill="white" fill-opacity="0.29"/>
<path d="M844.038 121.104C842.726 115.74 846.012 110.327 851.376 109.015L902.418 96.5341C907.783 95.2223 913.196 98.5078 914.507 103.873L925.773 149.945C929.053 163.357 920.839 176.888 907.427 180.167L885.527 185.523C872.115 188.802 858.583 180.588 855.304 167.176L844.038 121.104Z" fill="#1F9DD3"/>
<path d="M844.038 121.104C842.726 115.74 846.012 110.327 851.376 109.015L902.418 96.5341C907.783 95.2223 913.196 98.5078 914.507 103.873L921.897 134.092C926.655 153.552 914.738 173.184 895.278 177.943V177.943C875.818 182.701 856.186 170.784 851.427 151.324L844.038 121.104Z" fill="#46C4FF"/>
<path d="M844.038 121.104C842.726 115.74 846.012 110.327 851.376 109.015L902.418 96.5341C907.783 95.2223 913.196 98.5078 914.507 103.873L924.812 146.014C927.961 158.889 920.075 171.879 907.2 175.028L883.356 180.858C870.481 184.006 857.491 176.121 854.343 163.246L844.038 121.104Z" fill="#46C4FF"/>
<path d="M855.785 117.627C855.654 117.09 855.983 116.549 856.519 116.418L902.122 105.267C902.659 105.135 903.2 105.464 903.331 106L911.266 138.449C914.476 151.579 906.435 164.825 893.306 168.035V168.035C880.177 171.246 866.931 163.205 863.72 150.075L855.785 117.627Z" fill="#1CB0F6"/>
<path d="M886.509 122.725C886.559 124.161 885.372 124.773 884.103 123.957C882.125 122.704 880.242 124.708 881.9 126.297C882.327 126.675 882.355 126.926 881.976 127.565C881.629 128.197 881.297 128.343 879.999 128.499C878.503 128.672 878.447 128.718 878.412 129.531C878.42 130.655 878.859 131.223 879.648 131.03C879.995 130.945 880.308 130.997 880.346 131.149C880.383 131.301 880.726 131.474 881.095 131.48C881.464 131.487 881.947 131.819 882.145 132.221C882.581 133.047 883.416 132.907 883.973 131.903C884.175 131.499 884.55 131.118 884.802 131.056C885.055 130.995 885.398 130.621 885.569 130.226C886.196 128.689 889.478 127.211 891.675 127.446C892.883 127.601 894.247 128.393 894.948 129.348C896.18 131.105 896.327 134.576 895.193 135.818C894.905 136.146 894.718 136.61 894.777 136.853C894.837 137.095 894.657 137.59 894.377 137.948C893.703 138.884 893.959 139.658 894.926 139.647C895.39 139.63 895.92 139.886 896.097 140.197C896.273 140.508 896.592 140.719 896.75 140.681C896.908 140.642 897.1 140.885 897.182 141.219C897.368 141.977 898.097 142.089 899.141 141.576C899.878 141.17 899.895 141.102 899.364 139.752C898.909 138.576 898.891 138.227 899.316 137.641C899.733 137.024 899.978 136.932 900.526 137.12C902.763 137.795 903.75 135.27 901.676 134.168C900.334 133.467 900.353 132.176 901.705 131.555C902.67 131.127 902.719 131.05 902.414 129.806C902.11 128.561 902.032 128.516 900.978 128.581C899.492 128.655 898.933 127.601 899.761 126.337C900.379 125.446 900.321 124.527 899.67 123.914C899.375 123.665 898.918 123.712 897.876 124.096C896.018 124.839 895.356 124.455 895.187 122.534C895.061 121.471 894.894 121.061 894.527 120.926C893.658 120.656 892.781 121.031 892.241 121.967C891.452 123.254 890.218 123.266 889.6 121.97C889.174 121.045 889.096 120.999 887.802 121.315C886.509 121.632 886.461 121.708 886.509 122.725Z" fill="#0076AC"/>
<path d="M878.064 134.12C878.272 134.97 877.854 135.587 876.676 136.1C876.019 136.422 875.572 136.37 874.768 135.955C873.724 135.374 873.009 135.324 873.128 135.81C873.165 135.961 872.926 136.213 872.601 136.389C872.095 136.641 872.084 136.869 872.538 138.045C873.297 139.918 872.943 140.52 870.935 140.785C869.605 140.95 869.336 141.08 869.067 141.757C868.603 142.867 868.824 143.36 869.987 143.88C870.885 144.272 870.985 144.408 870.932 145.418C870.904 146.262 870.663 146.642 869.933 147.078C869.078 147.544 869.021 147.719 869.295 148.843C869.57 149.966 869.702 150.094 870.676 150.113C871.524 150.163 871.913 150.39 872.32 151.095C872.795 151.944 872.776 152.141 872.214 152.986C871.451 154.106 871.477 154.485 872.362 155.234C872.913 155.71 873.212 155.702 874.468 155.234C876.372 154.543 876.964 154.913 877.179 156.887C877.272 158.087 877.426 158.306 878.098 158.593C879.231 158.991 879.595 158.838 880.28 157.673C880.803 156.805 880.977 156.698 881.983 156.71C882.823 156.729 883.213 156.956 883.651 157.653C884.119 158.471 884.299 158.524 885.466 158.239C886.633 157.953 886.768 157.824 886.805 156.882C886.872 156.061 887.113 155.68 887.881 155.267C888.792 154.755 888.965 154.777 889.742 155.359C890.761 156.107 891.319 156.067 892.166 155.153C892.629 154.589 892.665 154.323 892.193 153.216C891.473 151.365 891.828 150.764 893.874 150.521C895.268 150.341 895.474 150.226 895.474 149.679C895.487 149.322 895.609 149.003 895.767 148.964C896.272 148.841 895.895 148.257 894.874 147.638C894.119 147.147 893.865 146.791 893.859 146.085C893.791 144.847 894.169 144.208 895.052 143.992C895.746 143.822 895.78 143.685 895.475 142.441C895.171 141.196 895.078 141.09 894.384 141.26C893.501 141.476 892.87 141.083 892.321 139.931C891.985 139.241 892.037 138.906 892.581 138.259C893.245 137.421 893.291 136.38 892.692 136.527C892.534 136.565 892.332 136.422 892.273 136.179C892.102 135.481 891.529 135.46 890.38 136.095C888.82 136.959 887.456 136.166 887.536 134.442C887.593 133.173 887.309 132.696 886.584 132.873C886.332 132.935 886.105 132.829 886.068 132.678C885.927 132.101 884.984 132.621 884.515 133.572C884.166 134.333 883.881 134.532 883.086 134.565C881.765 134.631 881.11 134.276 880.903 133.426C880.739 132.758 880.598 132.728 879.305 133.045C878.012 133.361 877.9 133.452 878.064 134.12ZM883.493 139.098C884.701 139.253 887.233 140.724 887.935 141.679C888.612 142.671 889.273 145.373 889.128 146.695C888.983 148.017 887.809 149.913 886.579 150.76C885.443 151.585 882.675 152.294 881.105 152.163C879.669 152.032 877.721 150.9 876.936 149.741C876.09 148.468 875.468 145.789 875.708 144.444C875.939 143.068 877.138 141.134 878.177 140.462C879.24 139.752 882.324 138.965 883.493 139.098Z" fill="#0076AC"/>
<path d="M879.94 144.117C879.155 145.145 879.688 147.46 880.818 148.117C881.948 148.773 884.337 148.157 884.927 147.015C885.534 145.805 884.989 143.848 883.873 143.252C882.719 142.633 880.725 143.089 879.94 144.117Z" fill="#0076AC"/>
<path d="M889.097 131.808C889 131.961 889.061 132.621 889.217 133.259L889.507 134.442L890.841 134.02C892.143 133.605 892.143 133.605 891.847 132.39C891.557 131.207 891.518 131.184 890.423 131.355C889.778 131.449 889.193 131.656 889.097 131.808Z" fill="#0076AC"/>
<path d="M894.888 98.1741L906.189 95.6115L907.138 95.8123L908.087 96.0131L909.036 96.2141L910.509 96.7197L911.658 97.7376L913.462 100.327L916.344 112.113L892.193 148.513L868.041 184.913L865.887 183.825L863.883 182.497L862.031 180.93L860.33 179.125L858.781 177.08L857.628 174.939L856.626 172.558L855.996 169.983L853.644 160.363L894.888 98.1741Z" fill="white" fill-opacity="0.29"/>
<g clip-path="url(#clip2_504_811)">
<path fill-rule="evenodd" clip-rule="evenodd" d="M422.437 138.357C421.778 136.549 419.222 136.549 418.563 138.357L415.574 146.575L407.357 149.564C405.548 150.222 405.548 152.779 407.357 153.437L415.574 156.426L418.563 164.644C419.222 166.452 421.778 166.452 422.437 164.644L425.426 156.426L433.643 153.437C435.452 152.779 435.452 150.222 433.643 149.564L425.426 146.575L422.437 138.357Z" fill="#FEE333"/>
</g>
<g clip-path="url(#clip3_504_811)">
<path fill-rule="evenodd" clip-rule="evenodd" d="M798.437 461.357C797.778 459.549 795.222 459.549 794.563 461.357L791.574 469.575L783.357 472.564C781.548 473.222 781.548 475.779 783.357 476.437L791.574 479.426L794.563 487.644C795.222 489.452 797.778 489.452 798.437 487.644L801.426 479.426L809.643 476.437C811.452 475.779 811.452 473.222 809.643 472.564L801.426 469.575L798.437 461.357Z" fill="#FEE333"/>
</g>
<rect x="869" y="397.677" width="25" height="25" rx="5" transform="rotate(-44.9977 869 397.677)" fill="#E10531" fill-opacity="0.5"/>
<rect x="405" y="470.142" width="20" height="20" rx="5" transform="rotate(-44.9977 405 470.142)" fill="#1CB0F6" fill-opacity="0.5"/>
<rect x="335" y="392.142" width="20" height="20" rx="5" transform="rotate(-44.9977 335 392.142)" fill="#7AD761" fill-opacity="0.5"/>
<rect x="742" y="137.677" width="25" height="25" rx="5" transform="rotate(-44.9977 742 137.677)" fill="#9D4EDD" fill-opacity="0.5"/>
<g filter="url(#filter0_d_504_811)">
<path d="M472.82 266L451.82 203.3H472.22L480.52 233.6C480.92 235.133 481.454 237.433 482.12 240.5C482.854 243.5 483.62 247 484.42 251C485.287 246.6 486.02 243 486.62 240.2C487.22 237.333 487.72 235.2 488.12 233.8L496.22 203.3H515.92L495.12 266H472.82ZM525.41 266H506.31L528.81 203.3H548.11L569.91 266H550.91L548.31 257.3H527.91L525.41 266ZM538.01 221.9C537.343 224.5 536.61 227.2 535.81 230C535.077 232.733 534.377 235.2 533.71 237.4L532.11 242.9H544.11L542.51 237.4C539.51 227.067 538.01 221.9 538.01 221.9ZM638.805 203.3V266H621.405V232.7L613.205 254.2H598.705L590.805 232.8V266H573.505V203.3H596.005L606.305 231.3L617.105 203.3H638.805ZM705.052 234.6C705.052 246.067 702.652 254.367 697.852 259.5C693.119 264.567 685.452 267.1 674.852 267.1C663.852 267.1 656.086 264.667 651.552 259.8C647.019 254.933 644.752 246.533 644.752 234.6C644.752 223.267 647.119 215.067 651.852 210C656.652 204.867 664.319 202.3 674.852 202.3C685.852 202.3 693.619 204.733 698.152 209.6C702.752 214.4 705.052 222.733 705.052 234.6ZM663.552 234.6C663.552 240.533 664.252 244.533 665.652 246.6C667.119 248.667 670.186 249.7 674.852 249.7C679.586 249.7 682.652 248.7 684.052 246.7C685.519 244.633 686.252 240.6 686.252 234.6C686.252 228.467 685.519 224.367 684.052 222.3C682.586 220.167 679.519 219.1 674.852 219.1C670.186 219.1 667.119 220.167 665.652 222.3C664.252 224.367 663.552 228.467 663.552 234.6ZM735.005 243.2L723.305 240.7C718.172 239.567 714.572 237.667 712.505 235C710.505 232.333 709.505 228.567 709.505 223.7C709.505 216.367 711.439 210.967 715.305 207.5C719.172 204.033 725.272 202.3 733.605 202.3C737.205 202.3 740.439 202.467 743.305 202.8C746.172 203.067 748.639 203.5 750.705 204.1V220.6C745.972 219.8 742.505 219.333 740.305 219.2C738.105 219 735.839 218.9 733.505 218.9C731.305 218.9 729.705 219.2 728.705 219.8C727.772 220.4 727.305 221.4 727.305 222.8C727.305 223.533 727.472 224.1 727.805 224.5C728.205 224.9 728.872 225.2 729.805 225.4L740.705 227.8C744.105 228.533 746.639 229.333 748.305 230.2C749.972 231 751.305 232 752.305 233.2C753.439 234.533 754.239 236.233 754.705 238.3C755.239 240.367 755.505 242.867 755.505 245.8C755.505 253.267 753.505 258.7 749.505 262.1C745.505 265.433 739.339 267.1 731.005 267.1C726.739 267.1 722.605 266.867 718.605 266.4C714.672 265.933 711.739 265.333 709.805 264.6V247.1C712.339 247.9 715.539 248.567 719.405 249.1C723.339 249.633 727.239 249.9 731.105 249.9C733.439 249.9 735.072 249.633 736.005 249.1C736.939 248.567 737.405 247.6 737.405 246.2C737.405 245.267 737.239 244.6 736.905 244.2C736.639 243.8 736.005 243.467 735.005 243.2ZM421.193 334.7C423.859 334.7 426.726 334.433 429.793 333.9C432.926 333.367 435.693 332.667 438.093 331.8V348.2C434.426 349.667 431.093 350.667 428.093 351.2C425.159 351.8 422.059 352.1 418.793 352.1C412.793 352.1 408.026 351.467 404.493 350.2C401.026 348.867 398.259 346.767 396.193 343.9C394.459 341.367 393.159 338.1 392.293 334.1C391.426 330.1 390.993 325.267 390.993 319.6C390.993 308.467 393.459 300.3 398.393 295.1C403.326 289.9 411.193 287.3 421.993 287.3C425.059 287.3 427.793 287.367 430.193 287.5C432.593 287.633 434.759 287.867 436.693 288.2V304.5C434.559 304.367 432.326 304.267 429.993 304.2C427.659 304.133 425.059 304.1 422.193 304.1C417.326 304.1 414.126 305.2 412.593 307.4C411.059 309.533 410.293 313.6 410.293 319.6C410.293 325.267 410.993 329.2 412.393 331.4C413.859 333.6 416.793 334.7 421.193 334.7ZM501.781 319.6C501.781 331.067 499.381 339.367 494.581 344.5C489.848 349.567 482.181 352.1 471.581 352.1C460.581 352.1 452.814 349.667 448.281 344.8C443.748 339.933 441.481 331.533 441.481 319.6C441.481 308.267 443.848 300.067 448.581 295C453.381 289.867 461.048 287.3 471.581 287.3C482.581 287.3 490.348 289.733 494.881 294.6C499.481 299.4 501.781 307.733 501.781 319.6ZM460.281 319.6C460.281 325.533 460.981 329.533 462.381 331.6C463.848 333.667 466.914 334.7 471.581 334.7C476.314 334.7 479.381 333.7 480.781 331.7C482.248 329.633 482.981 325.6 482.981 319.6C482.981 313.467 482.248 309.367 480.781 307.3C479.314 305.167 476.248 304.1 471.581 304.1C466.914 304.1 463.848 305.167 462.381 307.3C460.981 309.367 460.281 313.467 460.281 319.6ZM573.034 288.3V351H555.634V317.7L547.434 339.2H532.934L525.034 317.8V351H507.734V288.3H530.234L540.534 316.3L551.334 288.3H573.034ZM624.581 334.3V351H580.781V288.3H623.681V304.6H599.281V311.7H619.981V326.9H599.281V334.3H624.581ZM667.404 361.9C667.404 364.767 666.404 366.9 664.404 368.3C662.404 369.767 659.404 370.5 655.404 370.5C653.471 370.5 651.438 370.367 649.304 370.1C647.238 369.9 645.904 369.667 645.304 369.4V362.2C646.104 362.4 647.271 362.6 648.804 362.8C650.338 363 651.671 363.1 652.804 363.1C653.938 363.1 654.738 362.933 655.204 362.6C655.671 362.333 655.904 361.8 655.904 361C655.904 360.333 655.571 359.833 654.904 359.5C654.304 359.167 653.304 359 651.904 359C651.304 359 650.471 359.033 649.404 359.1C648.404 359.167 647.604 359.2 647.004 359.2L648.504 351.7C641.038 350.833 635.738 347.933 632.604 343C629.538 338 628.004 330.2 628.004 319.6C628.004 308.467 630.471 300.3 635.404 295.1C640.338 289.9 648.204 287.3 659.004 287.3C662.071 287.3 664.804 287.367 667.204 287.5C669.604 287.633 671.771 287.867 673.704 288.2V304.5C671.571 304.367 669.338 304.267 667.004 304.2C664.671 304.133 662.071 304.1 659.204 304.1C654.338 304.1 651.138 305.2 649.604 307.4C648.071 309.533 647.304 313.6 647.304 319.6C647.304 325.267 648.004 329.2 649.404 331.4C650.871 333.6 653.804 334.7 658.204 334.7C660.871 334.7 663.738 334.433 666.804 333.9C669.938 333.367 672.704 332.667 675.104 331.8V348.2C672.238 349.4 669.571 350.3 667.104 350.9C664.638 351.433 662.038 351.8 659.304 352L658.804 354.8C661.404 354.8 663.471 355.433 665.004 356.7C666.604 357.967 667.404 359.7 667.404 361.9ZM695.088 351H675.988L698.488 288.3H717.788L739.588 351H720.588L717.988 342.3H697.588L695.088 351ZM707.688 306.9C707.021 309.5 706.288 312.2 705.488 315C704.755 317.733 704.055 320.2 703.388 322.4L701.788 327.9H713.788L712.188 322.4C709.188 312.067 707.688 306.9 707.688 306.9ZM761.683 331.4V351H743.183V288.3H766.683C776.75 288.3 783.85 290 787.983 293.4C792.183 296.733 794.283 302.367 794.283 310.3C794.283 315.033 793.35 318.933 791.483 322C789.683 325.067 786.917 327.367 783.183 328.9L796.883 351H775.683L765.183 331.4H761.683ZM775.383 310.6C775.383 308.533 774.817 307.067 773.683 306.2C772.55 305.333 770.517 304.9 767.583 304.9H761.683V317.2H767.583C770.517 317.2 772.55 316.7 773.683 315.7C774.817 314.7 775.383 313 775.383 310.6ZM815.805 287.3C821.072 287.3 825.205 288.533 828.205 291C831.272 293.467 832.805 296.9 832.805 301.3C832.805 304.967 831.905 308.267 830.105 311.2C828.372 314.067 825.372 316.967 821.105 319.9V329.4H804.805V315.7C808.872 313.633 811.738 311.867 813.405 310.4C815.138 308.933 816.005 307.533 816.005 306.2C816.005 305.133 815.705 304.367 815.105 303.9C814.505 303.367 813.538 303.1 812.205 303.1C810.405 303.1 808.138 303.367 805.405 303.9C802.672 304.367 800.372 304.9 798.505 305.5V290.1C801.238 289.1 803.905 288.4 806.505 288C809.105 287.533 812.205 287.3 815.805 287.3ZM822.205 335.2V351H803.705V335.2H822.205Z" fill="#121212"/>
</g>
<g filter="url(#filter1_d_504_811)">
<path d="M393.388 403.336C393.388 403.905 393.258 404.428 392.996 404.904C392.735 405.371 392.334 405.749 391.792 406.038C391.251 406.327 390.579 406.472 389.776 406.472H388.292V410H385.898V400.172H389.776C390.56 400.172 391.223 400.307 391.764 400.578C392.306 400.849 392.712 401.222 392.982 401.698C393.253 402.174 393.388 402.72 393.388 403.336ZM389.594 404.568C390.052 404.568 390.392 404.461 390.616 404.246C390.84 404.031 390.952 403.728 390.952 403.336C390.952 402.944 390.84 402.641 390.616 402.426C390.392 402.211 390.052 402.104 389.594 402.104H388.292V404.568H389.594ZM398.191 410.112C397.425 410.112 396.735 409.949 396.119 409.622C395.512 409.295 395.031 408.829 394.677 408.222C394.331 407.615 394.159 406.906 394.159 406.094C394.159 405.291 394.336 404.587 394.691 403.98C395.045 403.364 395.531 402.893 396.147 402.566C396.763 402.239 397.453 402.076 398.219 402.076C398.984 402.076 399.675 402.239 400.291 402.566C400.907 402.893 401.392 403.364 401.747 403.98C402.101 404.587 402.279 405.291 402.279 406.094C402.279 406.897 402.097 407.606 401.733 408.222C401.378 408.829 400.888 409.295 400.263 409.622C399.647 409.949 398.956 410.112 398.191 410.112ZM398.191 408.04C398.648 408.04 399.035 407.872 399.353 407.536C399.679 407.2 399.843 406.719 399.843 406.094C399.843 405.469 399.684 404.988 399.367 404.652C399.059 404.316 398.676 404.148 398.219 404.148C397.752 404.148 397.365 404.316 397.057 404.652C396.749 404.979 396.595 405.459 396.595 406.094C396.595 406.719 396.744 407.2 397.043 407.536C397.351 407.872 397.733 408.04 398.191 408.04ZM407.903 407.97V410H406.685C405.817 410 405.14 409.79 404.655 409.37C404.169 408.941 403.927 408.245 403.927 407.284V404.176H402.975V402.188H403.927V400.284H406.321V402.188H407.889V404.176H406.321V407.312C406.321 407.545 406.377 407.713 406.489 407.816C406.601 407.919 406.787 407.97 407.049 407.97H407.903ZM416.6 405.968C416.6 406.192 416.586 406.425 416.558 406.668H411.14C411.177 407.153 411.331 407.527 411.602 407.788C411.882 408.04 412.223 408.166 412.624 408.166C413.221 408.166 413.637 407.914 413.87 407.41H416.418C416.287 407.923 416.049 408.385 415.704 408.796C415.368 409.207 414.943 409.529 414.43 409.762C413.917 409.995 413.343 410.112 412.708 410.112C411.943 410.112 411.261 409.949 410.664 409.622C410.067 409.295 409.6 408.829 409.264 408.222C408.928 407.615 408.76 406.906 408.76 406.094C408.76 405.282 408.923 404.573 409.25 403.966C409.586 403.359 410.053 402.893 410.65 402.566C411.247 402.239 411.933 402.076 412.708 402.076C413.464 402.076 414.136 402.235 414.724 402.552C415.312 402.869 415.769 403.322 416.096 403.91C416.432 404.498 416.6 405.184 416.6 405.968ZM414.15 405.338C414.15 404.927 414.01 404.601 413.73 404.358C413.45 404.115 413.1 403.994 412.68 403.994C412.279 403.994 411.938 404.111 411.658 404.344C411.387 404.577 411.219 404.909 411.154 405.338H414.15ZM422.623 402.104C423.538 402.104 424.266 402.403 424.807 403C425.358 403.588 425.633 404.4 425.633 405.436V410H423.253V405.758C423.253 405.235 423.118 404.829 422.847 404.54C422.576 404.251 422.212 404.106 421.755 404.106C421.298 404.106 420.934 404.251 420.663 404.54C420.392 404.829 420.257 405.235 420.257 405.758V410H417.863V402.188H420.257V403.224C420.5 402.879 420.826 402.608 421.237 402.412C421.648 402.207 422.11 402.104 422.623 402.104ZM426.821 406.094C426.821 405.282 426.984 404.573 427.311 403.966C427.647 403.359 428.109 402.893 428.697 402.566C429.294 402.239 429.975 402.076 430.741 402.076C431.721 402.076 432.537 402.333 433.191 402.846C433.853 403.359 434.287 404.083 434.493 405.016H431.945C431.73 404.419 431.315 404.12 430.699 404.12C430.26 404.12 429.91 404.293 429.649 404.638C429.387 404.974 429.257 405.459 429.257 406.094C429.257 406.729 429.387 407.219 429.649 407.564C429.91 407.9 430.26 408.068 430.699 408.068C431.315 408.068 431.73 407.769 431.945 407.172H434.493C434.287 408.087 433.853 408.805 433.191 409.328C432.528 409.851 431.711 410.112 430.741 410.112C429.975 410.112 429.294 409.949 428.697 409.622C428.109 409.295 427.647 408.829 427.311 408.222C426.984 407.615 426.821 406.906 426.821 406.094ZM436.977 401.376C436.557 401.376 436.212 401.255 435.941 401.012C435.68 400.76 435.549 400.452 435.549 400.088C435.549 399.715 435.68 399.407 435.941 399.164C436.212 398.912 436.557 398.786 436.977 398.786C437.388 398.786 437.724 398.912 437.985 399.164C438.256 399.407 438.391 399.715 438.391 400.088C438.391 400.452 438.256 400.76 437.985 401.012C437.724 401.255 437.388 401.376 436.977 401.376ZM438.167 402.188V410H435.773V402.188H438.167ZM439.426 406.08C439.426 405.277 439.576 404.573 439.874 403.966C440.182 403.359 440.598 402.893 441.12 402.566C441.643 402.239 442.226 402.076 442.87 402.076C443.421 402.076 443.902 402.188 444.312 402.412C444.732 402.636 445.054 402.93 445.278 403.294V402.188H447.672V410H445.278V408.894C445.045 409.258 444.718 409.552 444.298 409.776C443.888 410 443.407 410.112 442.856 410.112C442.222 410.112 441.643 409.949 441.12 409.622C440.598 409.286 440.182 408.815 439.874 408.208C439.576 407.592 439.426 406.883 439.426 406.08ZM445.278 406.094C445.278 405.497 445.11 405.025 444.774 404.68C444.448 404.335 444.046 404.162 443.57 404.162C443.094 404.162 442.688 404.335 442.352 404.68C442.026 405.016 441.862 405.483 441.862 406.08C441.862 406.677 442.026 407.153 442.352 407.508C442.688 407.853 443.094 408.026 443.57 408.026C444.046 408.026 444.448 407.853 444.774 407.508C445.11 407.163 445.278 406.691 445.278 406.094ZM451.798 399.64V410H449.404V399.64H451.798ZM454.737 401.376C454.317 401.376 453.972 401.255 453.701 401.012C453.44 400.76 453.309 400.452 453.309 400.088C453.309 399.715 453.44 399.407 453.701 399.164C453.972 398.912 454.317 398.786 454.737 398.786C455.148 398.786 455.484 398.912 455.745 399.164C456.016 399.407 456.151 399.715 456.151 400.088C456.151 400.452 456.016 400.76 455.745 401.012C455.484 401.255 455.148 401.376 454.737 401.376ZM455.927 402.188V410H453.533V402.188H455.927ZM459.902 408.026H463.29V410H457.228V408.096L460.476 404.162H457.256V402.188H463.22V404.092L459.902 408.026ZM471.971 405.968C471.971 406.192 471.957 406.425 471.929 406.668H466.511C466.549 407.153 466.703 407.527 466.973 407.788C467.253 408.04 467.594 408.166 467.995 408.166C468.593 408.166 469.008 407.914 469.241 407.41H471.789C471.659 407.923 471.421 408.385 471.075 408.796C470.739 409.207 470.315 409.529 469.801 409.762C469.288 409.995 468.714 410.112 468.079 410.112C467.314 410.112 466.633 409.949 466.035 409.622C465.438 409.295 464.971 408.829 464.635 408.222C464.299 407.615 464.131 406.906 464.131 406.094C464.131 405.282 464.295 404.573 464.621 403.966C464.957 403.359 465.424 402.893 466.021 402.566C466.619 402.239 467.305 402.076 468.079 402.076C468.835 402.076 469.507 402.235 470.095 402.552C470.683 402.869 471.141 403.322 471.467 403.91C471.803 404.498 471.971 405.184 471.971 405.968ZM469.521 405.338C469.521 404.927 469.381 404.601 469.101 404.358C468.821 404.115 468.471 403.994 468.051 403.994C467.65 403.994 467.309 404.111 467.029 404.344C466.759 404.577 466.591 404.909 466.525 405.338H469.521ZM479.379 410.112C478.698 410.112 478.091 409.995 477.559 409.762C477.027 409.529 476.607 409.211 476.299 408.81C475.991 408.399 475.818 407.942 475.781 407.438H478.147C478.175 407.709 478.301 407.928 478.525 408.096C478.749 408.264 479.024 408.348 479.351 408.348C479.65 408.348 479.878 408.292 480.037 408.18C480.205 408.059 480.289 407.905 480.289 407.718C480.289 407.494 480.172 407.331 479.939 407.228C479.706 407.116 479.328 406.995 478.805 406.864C478.245 406.733 477.778 406.598 477.405 406.458C477.032 406.309 476.71 406.08 476.439 405.772C476.168 405.455 476.033 405.03 476.033 404.498C476.033 404.05 476.154 403.644 476.397 403.28C476.649 402.907 477.013 402.613 477.489 402.398C477.974 402.183 478.548 402.076 479.211 402.076C480.191 402.076 480.961 402.319 481.521 402.804C482.09 403.289 482.417 403.933 482.501 404.736H480.289C480.252 404.465 480.13 404.251 479.925 404.092C479.729 403.933 479.468 403.854 479.141 403.854C478.861 403.854 478.646 403.91 478.497 404.022C478.348 404.125 478.273 404.269 478.273 404.456C478.273 404.68 478.39 404.848 478.623 404.96C478.866 405.072 479.239 405.184 479.743 405.296C480.322 405.445 480.793 405.595 481.157 405.744C481.521 405.884 481.838 406.117 482.109 406.444C482.389 406.761 482.534 407.191 482.543 407.732C482.543 408.189 482.412 408.6 482.151 408.964C481.899 409.319 481.53 409.599 481.045 409.804C480.569 410.009 480.014 410.112 479.379 410.112ZM491.372 405.968C491.372 406.192 491.358 406.425 491.33 406.668H485.912C485.949 407.153 486.103 407.527 486.374 407.788C486.654 408.04 486.994 408.166 487.396 408.166C487.993 408.166 488.408 407.914 488.642 407.41H491.19C491.059 407.923 490.821 408.385 490.476 408.796C490.14 409.207 489.715 409.529 489.202 409.762C488.688 409.995 488.114 410.112 487.48 410.112C486.714 410.112 486.033 409.949 485.436 409.622C484.838 409.295 484.372 408.829 484.036 408.222C483.7 407.615 483.532 406.906 483.532 406.094C483.532 405.282 483.695 404.573 484.022 403.966C484.358 403.359 484.824 402.893 485.422 402.566C486.019 402.239 486.705 402.076 487.48 402.076C488.236 402.076 488.908 402.235 489.496 402.552C490.084 402.869 490.541 403.322 490.868 403.91C491.204 404.498 491.372 405.184 491.372 405.968ZM488.922 405.338C488.922 404.927 488.782 404.601 488.502 404.358C488.222 404.115 487.872 403.994 487.452 403.994C487.05 403.994 486.71 404.111 486.43 404.344C486.159 404.577 485.991 404.909 485.926 405.338H488.922ZM500.349 402.188V410H497.955V408.936C497.712 409.281 497.381 409.561 496.961 409.776C496.55 409.981 496.093 410.084 495.589 410.084C494.991 410.084 494.464 409.953 494.007 409.692C493.549 409.421 493.195 409.034 492.943 408.53C492.691 408.026 492.565 407.433 492.565 406.752V402.188H494.945V406.43C494.945 406.953 495.08 407.359 495.351 407.648C495.621 407.937 495.985 408.082 496.443 408.082C496.909 408.082 497.278 407.937 497.549 407.648C497.819 407.359 497.955 406.953 497.955 406.43V402.188H500.349ZM505.246 410.112C504.565 410.112 503.958 409.995 503.426 409.762C502.894 409.529 502.474 409.211 502.166 408.81C501.858 408.399 501.686 407.942 501.648 407.438H504.014C504.042 407.709 504.168 407.928 504.392 408.096C504.616 408.264 504.892 408.348 505.218 408.348C505.517 408.348 505.746 408.292 505.904 408.18C506.072 408.059 506.156 407.905 506.156 407.718C506.156 407.494 506.04 407.331 505.806 407.228C505.573 407.116 505.195 406.995 504.672 406.864C504.112 406.733 503.646 406.598 503.272 406.458C502.899 406.309 502.577 406.08 502.306 405.772C502.036 405.455 501.9 405.03 501.9 404.498C501.9 404.05 502.022 403.644 502.264 403.28C502.516 402.907 502.88 402.613 503.356 402.398C503.842 402.183 504.416 402.076 505.078 402.076C506.058 402.076 506.828 402.319 507.388 402.804C507.958 403.289 508.284 403.933 508.368 404.736H506.156C506.119 404.465 505.998 404.251 505.792 404.092C505.596 403.933 505.335 403.854 505.008 403.854C504.728 403.854 504.514 403.91 504.364 404.022C504.215 404.125 504.14 404.269 504.14 404.456C504.14 404.68 504.257 404.848 504.49 404.96C504.733 405.072 505.106 405.184 505.61 405.296C506.189 405.445 506.66 405.595 507.024 405.744C507.388 405.884 507.706 406.117 507.976 406.444C508.256 406.761 508.401 407.191 508.41 407.732C508.41 408.189 508.28 408.6 508.018 408.964C507.766 409.319 507.398 409.599 506.912 409.804C506.436 410.009 505.881 410.112 505.246 410.112ZM520.206 405.968C520.206 406.192 520.192 406.425 520.164 406.668H514.746C514.783 407.153 514.937 407.527 515.208 407.788C515.488 408.04 515.828 408.166 516.23 408.166C516.827 408.166 517.242 407.914 517.476 407.41H520.024C519.893 407.923 519.655 408.385 519.31 408.796C518.974 409.207 518.549 409.529 518.036 409.762C517.522 409.995 516.948 410.112 516.314 410.112C515.548 410.112 514.867 409.949 514.27 409.622C513.672 409.295 513.206 408.829 512.87 408.222C512.534 407.615 512.366 406.906 512.366 406.094C512.366 405.282 512.529 404.573 512.856 403.966C513.192 403.359 513.658 402.893 514.256 402.566C514.853 402.239 515.539 402.076 516.314 402.076C517.07 402.076 517.742 402.235 518.33 402.552C518.918 402.869 519.375 403.322 519.702 403.91C520.038 404.498 520.206 405.184 520.206 405.968ZM517.756 405.338C517.756 404.927 517.616 404.601 517.336 404.358C517.056 404.115 516.706 403.994 516.286 403.994C515.884 403.994 515.544 404.111 515.264 404.344C514.993 404.577 514.825 404.909 514.76 405.338H517.756ZM523.863 399.64V410H521.469V399.64H523.863ZM532.961 405.968C532.961 406.192 532.947 406.425 532.919 406.668H527.501C527.539 407.153 527.693 407.527 527.963 407.788C528.243 408.04 528.584 408.166 528.985 408.166C529.583 408.166 529.998 407.914 530.231 407.41H532.779C532.649 407.923 532.411 408.385 532.065 408.796C531.729 409.207 531.305 409.529 530.791 409.762C530.278 409.995 529.704 410.112 529.069 410.112C528.304 410.112 527.623 409.949 527.025 409.622C526.428 409.295 525.961 408.829 525.625 408.222C525.289 407.615 525.121 406.906 525.121 406.094C525.121 405.282 525.285 404.573 525.611 403.966C525.947 403.359 526.414 402.893 527.011 402.566C527.609 402.239 528.295 402.076 529.069 402.076C529.825 402.076 530.497 402.235 531.085 402.552C531.673 402.869 532.131 403.322 532.457 403.91C532.793 404.498 532.961 405.184 532.961 405.968ZM530.511 405.338C530.511 404.927 530.371 404.601 530.091 404.358C529.811 404.115 529.461 403.994 529.041 403.994C528.64 403.994 528.299 404.111 528.019 404.344C527.749 404.577 527.581 404.909 527.515 405.338H530.511ZM538.578 407.97V410H537.36C536.492 410 535.816 409.79 535.33 409.37C534.845 408.941 534.602 408.245 534.602 407.284V404.176H533.65V402.188H534.602V400.284H536.996V402.188H538.564V404.176H536.996V407.312C536.996 407.545 537.052 407.713 537.164 407.816C537.276 407.919 537.463 407.97 537.724 407.97H538.578ZM542.306 403.49C542.586 403.061 542.936 402.725 543.356 402.482C543.776 402.23 544.243 402.104 544.756 402.104V404.638H544.098C543.501 404.638 543.053 404.769 542.754 405.03C542.455 405.282 542.306 405.73 542.306 406.374V410H539.912V402.188H542.306V403.49ZM549.456 410.112C548.691 410.112 548 409.949 547.384 409.622C546.778 409.295 546.297 408.829 545.942 408.222C545.597 407.615 545.424 406.906 545.424 406.094C545.424 405.291 545.602 404.587 545.956 403.98C546.311 403.364 546.796 402.893 547.412 402.566C548.028 402.239 548.719 402.076 549.484 402.076C550.25 402.076 550.94 402.239 551.556 402.566C552.172 402.893 552.658 403.364 553.012 403.98C553.367 404.587 553.544 405.291 553.544 406.094C553.544 406.897 553.362 407.606 552.998 408.222C552.644 408.829 552.154 409.295 551.528 409.622C550.912 409.949 550.222 410.112 549.456 410.112ZM549.456 408.04C549.914 408.04 550.301 407.872 550.618 407.536C550.945 407.2 551.108 406.719 551.108 406.094C551.108 405.469 550.95 404.988 550.632 404.652C550.324 404.316 549.942 404.148 549.484 404.148C549.018 404.148 548.63 404.316 548.322 404.652C548.014 404.979 547.86 405.459 547.86 406.094C547.86 406.719 548.01 407.2 548.308 407.536C548.616 407.872 548.999 408.04 549.456 408.04ZM549.68 400.452L547.51 401.6V399.948L549.68 398.842L551.85 399.948V401.6L549.68 400.452ZM559.574 402.104C560.489 402.104 561.217 402.403 561.758 403C562.309 403.588 562.584 404.4 562.584 405.436V410H560.204V405.758C560.204 405.235 560.069 404.829 559.798 404.54C559.528 404.251 559.164 404.106 558.706 404.106C558.249 404.106 557.885 404.251 557.614 404.54C557.344 404.829 557.208 405.235 557.208 405.758V410H554.814V402.188H557.208V403.224C557.451 402.879 557.778 402.608 558.188 402.412C558.599 402.207 559.061 402.104 559.574 402.104ZM565.452 401.376C565.032 401.376 564.687 401.255 564.416 401.012C564.155 400.76 564.024 400.452 564.024 400.088C564.024 399.715 564.155 399.407 564.416 399.164C564.687 398.912 565.032 398.786 565.452 398.786C565.863 398.786 566.199 398.912 566.46 399.164C566.731 399.407 566.866 399.715 566.866 400.088C566.866 400.452 566.731 400.76 566.46 401.012C566.199 401.255 565.863 401.376 565.452 401.376ZM566.642 402.188V410H564.248V402.188H566.642ZM567.901 406.094C567.901 405.282 568.064 404.573 568.391 403.966C568.727 403.359 569.189 402.893 569.777 402.566C570.374 402.239 571.055 402.076 571.821 402.076C572.801 402.076 573.617 402.333 574.271 402.846C574.933 403.359 575.367 404.083 575.573 405.016H573.025C572.81 404.419 572.395 404.12 571.779 404.12C571.34 404.12 570.99 404.293 570.729 404.638C570.467 404.974 570.337 405.459 570.337 406.094C570.337 406.729 570.467 407.219 570.729 407.564C570.99 407.9 571.34 408.068 571.779 408.068C572.395 408.068 572.81 407.769 573.025 407.172H575.573C575.367 408.087 574.933 408.805 574.271 409.328C573.608 409.851 572.791 410.112 571.821 410.112C571.055 410.112 570.374 409.949 569.777 409.622C569.189 409.295 568.727 408.829 568.391 408.222C568.064 407.615 567.901 406.906 567.901 406.094ZM580.409 410.112C579.644 410.112 578.953 409.949 578.337 409.622C577.731 409.295 577.25 408.829 576.895 408.222C576.55 407.615 576.377 406.906 576.377 406.094C576.377 405.291 576.555 404.587 576.909 403.98C577.264 403.364 577.749 402.893 578.365 402.566C578.981 402.239 579.672 402.076 580.437 402.076C581.203 402.076 581.893 402.239 582.509 402.566C583.125 402.893 583.611 403.364 583.965 403.98C584.32 404.587 584.497 405.291 584.497 406.094C584.497 406.897 584.315 407.606 583.951 408.222C583.597 408.829 583.107 409.295 582.481 409.622C581.865 409.949 581.175 410.112 580.409 410.112ZM580.409 408.04C580.867 408.04 581.254 407.872 581.571 407.536C581.898 407.2 582.061 406.719 582.061 406.094C582.061 405.469 581.903 404.988 581.585 404.652C581.277 404.316 580.895 404.148 580.437 404.148C579.971 404.148 579.583 404.316 579.275 404.652C578.967 404.979 578.813 405.459 578.813 406.094C578.813 406.719 578.963 407.2 579.261 407.536C579.569 407.872 579.952 408.04 580.409 408.04ZM588.945 410.112C588.264 410.112 587.657 409.995 587.125 409.762C586.593 409.529 586.173 409.211 585.865 408.81C585.557 408.399 585.385 407.942 585.347 407.438H587.713C587.741 407.709 587.867 407.928 588.091 408.096C588.315 408.264 588.591 408.348 588.917 408.348C589.216 408.348 589.445 408.292 589.603 408.18C589.771 408.059 589.855 407.905 589.855 407.718C589.855 407.494 589.739 407.331 589.505 407.228C589.272 407.116 588.894 406.995 588.371 406.864C587.811 406.733 587.345 406.598 586.971 406.458C586.598 406.309 586.276 406.08 586.005 405.772C585.735 405.455 585.599 405.03 585.599 404.498C585.599 404.05 585.721 403.644 585.963 403.28C586.215 402.907 586.579 402.613 587.055 402.398C587.541 402.183 588.115 402.076 588.777 402.076C589.757 402.076 590.527 402.319 591.087 402.804C591.657 403.289 591.983 403.933 592.067 404.736H589.855C589.818 404.465 589.697 404.251 589.491 404.092C589.295 403.933 589.034 403.854 588.707 403.854C588.427 403.854 588.213 403.91 588.063 404.022C587.914 404.125 587.839 404.269 587.839 404.456C587.839 404.68 587.956 404.848 588.189 404.96C588.432 405.072 588.805 405.184 589.309 405.296C589.888 405.445 590.359 405.595 590.723 405.744C591.087 405.884 591.405 406.117 591.675 406.444C591.955 406.761 592.1 407.191 592.109 407.732C592.109 408.189 591.979 408.6 591.717 408.964C591.465 409.319 591.097 409.599 590.611 409.804C590.135 410.009 589.58 410.112 588.945 410.112ZM603.905 405.968C603.905 406.192 603.891 406.425 603.863 406.668H598.445C598.482 407.153 598.636 407.527 598.907 407.788C599.187 408.04 599.528 408.166 599.929 408.166C600.526 408.166 600.942 407.914 601.175 407.41H603.723C603.592 407.923 603.354 408.385 603.009 408.796C602.673 409.207 602.248 409.529 601.735 409.762C601.222 409.995 600.648 410.112 600.013 410.112C599.248 410.112 598.566 409.949 597.969 409.622C597.372 409.295 596.905 408.829 596.569 408.222C596.233 407.615 596.065 406.906 596.065 406.094C596.065 405.282 596.228 404.573 596.555 403.966C596.891 403.359 597.358 402.893 597.955 402.566C598.552 402.239 599.238 402.076 600.013 402.076C600.769 402.076 601.441 402.235 602.029 402.552C602.617 402.869 603.074 403.322 603.401 403.91C603.737 404.498 603.905 405.184 603.905 405.968ZM601.455 405.338C601.455 404.927 601.315 404.601 601.035 404.358C600.755 404.115 600.405 403.994 599.985 403.994C599.584 403.994 599.243 404.111 598.963 404.344C598.692 404.577 598.524 404.909 598.459 405.338H601.455ZM615.136 402.104C616.106 402.104 616.876 402.398 617.446 402.986C618.024 403.574 618.314 404.391 618.314 405.436V410H615.934V405.758C615.934 405.254 615.798 404.867 615.528 404.596C615.266 404.316 614.902 404.176 614.436 404.176C613.969 404.176 613.6 404.316 613.33 404.596C613.068 404.867 612.938 405.254 612.938 405.758V410H610.558V405.758C610.558 405.254 610.422 404.867 610.152 404.596C609.89 404.316 609.526 404.176 609.06 404.176C608.593 404.176 608.224 404.316 607.954 404.596C607.692 404.867 607.562 405.254 607.562 405.758V410H605.168V402.188H607.562V403.168C607.804 402.841 608.122 402.585 608.514 402.398C608.906 402.202 609.349 402.104 609.844 402.104C610.432 402.104 610.954 402.23 611.412 402.482C611.878 402.734 612.242 403.093 612.504 403.56C612.774 403.131 613.143 402.781 613.61 402.51C614.076 402.239 614.585 402.104 615.136 402.104ZM626.511 410.112C625.746 410.112 625.055 409.949 624.439 409.622C623.832 409.295 623.352 408.829 622.997 408.222C622.652 407.615 622.479 406.906 622.479 406.094C622.479 405.291 622.656 404.587 623.011 403.98C623.366 403.364 623.851 402.893 624.467 402.566C625.083 402.239 625.774 402.076 626.539 402.076C627.304 402.076 627.995 402.239 628.611 402.566C629.227 402.893 629.712 403.364 630.067 403.98C630.422 404.587 630.599 405.291 630.599 406.094C630.599 406.897 630.417 407.606 630.053 408.222C629.698 408.829 629.208 409.295 628.583 409.622C627.967 409.949 627.276 410.112 626.511 410.112ZM626.511 408.04C626.968 408.04 627.356 407.872 627.673 407.536C628 407.2 628.163 406.719 628.163 406.094C628.163 405.469 628.004 404.988 627.687 404.652C627.379 404.316 626.996 404.148 626.539 404.148C626.072 404.148 625.685 404.316 625.377 404.652C625.069 404.979 624.915 405.459 624.915 406.094C624.915 406.719 625.064 407.2 625.363 407.536C625.671 407.872 626.054 408.04 626.511 408.04ZM634.263 403.294C634.496 402.93 634.818 402.636 635.229 402.412C635.64 402.188 636.12 402.076 636.671 402.076C637.315 402.076 637.898 402.239 638.421 402.566C638.944 402.893 639.354 403.359 639.653 403.966C639.961 404.573 640.115 405.277 640.115 406.08C640.115 406.883 639.961 407.592 639.653 408.208C639.354 408.815 638.944 409.286 638.421 409.622C637.898 409.949 637.315 410.112 636.671 410.112C636.13 410.112 635.649 410 635.229 409.776C634.818 409.552 634.496 409.263 634.263 408.908V413.724H631.869V402.188H634.263V403.294ZM637.679 406.08C637.679 405.483 637.511 405.016 637.175 404.68C636.848 404.335 636.442 404.162 635.957 404.162C635.481 404.162 635.075 404.335 634.739 404.68C634.412 405.025 634.249 405.497 634.249 406.094C634.249 406.691 634.412 407.163 634.739 407.508C635.075 407.853 635.481 408.026 635.957 408.026C636.433 408.026 636.839 407.853 637.175 407.508C637.511 407.153 637.679 406.677 637.679 406.08ZM644.927 410.112C644.162 410.112 643.471 409.949 642.855 409.622C642.248 409.295 641.768 408.829 641.413 408.222C641.068 407.615 640.895 406.906 640.895 406.094C640.895 405.291 641.072 404.587 641.427 403.98C641.782 403.364 642.267 402.893 642.883 402.566C643.499 402.239 644.19 402.076 644.955 402.076C645.72 402.076 646.411 402.239 647.027 402.566C647.643 402.893 648.128 403.364 648.483 403.98C648.838 404.587 649.015 405.291 649.015 406.094C649.015 406.897 648.833 407.606 648.469 408.222C648.114 408.829 647.624 409.295 646.999 409.622C646.383 409.949 645.692 410.112 644.927 410.112ZM644.927 408.04C645.384 408.04 645.772 407.872 646.089 407.536C646.416 407.2 646.579 406.719 646.579 406.094C646.579 405.469 646.42 404.988 646.103 404.652C645.795 404.316 645.412 404.148 644.955 404.148C644.488 404.148 644.101 404.316 643.793 404.652C643.485 404.979 643.331 405.459 643.331 406.094C643.331 406.719 643.48 407.2 643.779 407.536C644.087 407.872 644.47 408.04 644.927 408.04ZM652.679 403.49C652.959 403.061 653.309 402.725 653.729 402.482C654.149 402.23 654.616 402.104 655.129 402.104V404.638H654.471C653.874 404.638 653.426 404.769 653.127 405.03C652.828 405.282 652.679 405.73 652.679 406.374V410H650.285V402.188H652.679V403.49ZM660.627 407.97V410H659.409C658.541 410 657.865 409.79 657.379 409.37C656.894 408.941 656.651 408.245 656.651 407.284V404.176H655.699V402.188H656.651V400.284H659.045V402.188H660.613V404.176H659.045V407.312C659.045 407.545 659.101 407.713 659.213 407.816C659.325 407.919 659.512 407.97 659.773 407.97H660.627ZM669.675 402.188V410H667.281V408.936C667.038 409.281 666.707 409.561 666.287 409.776C665.876 409.981 665.419 410.084 664.915 410.084C664.317 410.084 663.79 409.953 663.333 409.692C662.875 409.421 662.521 409.034 662.269 408.53C662.017 408.026 661.891 407.433 661.891 406.752V402.188H664.271V406.43C664.271 406.953 664.406 407.359 664.677 407.648C664.947 407.937 665.311 408.082 665.769 408.082C666.235 408.082 666.604 407.937 666.875 407.648C667.145 407.359 667.281 406.953 667.281 406.43V402.188H669.675ZM676.154 402.104C677.069 402.104 677.797 402.403 678.338 403C678.889 403.588 679.164 404.4 679.164 405.436V410H676.784V405.758C676.784 405.235 676.649 404.829 676.378 404.54C676.108 404.251 675.744 404.106 675.286 404.106C674.829 404.106 674.465 404.251 674.194 404.54C673.924 404.829 673.788 405.235 673.788 405.758V410H671.394V402.188H673.788V403.224C674.031 402.879 674.358 402.608 674.768 402.412C675.179 402.207 675.641 402.104 676.154 402.104ZM682.032 401.376C681.612 401.376 681.267 401.255 680.996 401.012C680.735 400.76 680.604 400.452 680.604 400.088C680.604 399.715 680.735 399.407 680.996 399.164C681.267 398.912 681.612 398.786 682.032 398.786C682.443 398.786 682.779 398.912 683.04 399.164C683.311 399.407 683.446 399.715 683.446 400.088C683.446 400.452 683.311 400.76 683.04 401.012C682.779 401.255 682.443 401.376 682.032 401.376ZM683.222 402.188V410H680.828V402.188H683.222ZM684.481 406.08C684.481 405.277 684.63 404.573 684.929 403.966C685.237 403.359 685.652 402.893 686.175 402.566C686.698 402.239 687.281 402.076 687.925 402.076C688.438 402.076 688.905 402.183 689.325 402.398C689.754 402.613 690.09 402.902 690.333 403.266V399.64H692.727V410H690.333V408.88C690.109 409.253 689.787 409.552 689.367 409.776C688.956 410 688.476 410.112 687.925 410.112C687.281 410.112 686.698 409.949 686.175 409.622C685.652 409.286 685.237 408.815 684.929 408.208C684.63 407.592 684.481 406.883 684.481 406.08ZM690.333 406.094C690.333 405.497 690.165 405.025 689.829 404.68C689.502 404.335 689.101 404.162 688.625 404.162C688.149 404.162 687.743 404.335 687.407 404.68C687.08 405.016 686.917 405.483 686.917 406.08C686.917 406.677 687.08 407.153 687.407 407.508C687.743 407.853 688.149 408.026 688.625 408.026C689.101 408.026 689.502 407.853 689.829 407.508C690.165 407.163 690.333 406.691 690.333 406.094ZM693.983 406.08C693.983 405.277 694.132 404.573 694.431 403.966C694.739 403.359 695.154 402.893 695.677 402.566C696.199 402.239 696.783 402.076 697.427 402.076C697.977 402.076 698.458 402.188 698.869 402.412C699.289 402.636 699.611 402.93 699.835 403.294V402.188H702.229V410H699.835V408.894C699.601 409.258 699.275 409.552 698.855 409.776C698.444 410 697.963 410.112 697.413 410.112C696.778 410.112 696.199 409.949 695.677 409.622C695.154 409.286 694.739 408.815 694.431 408.208C694.132 407.592 693.983 406.883 693.983 406.08ZM699.835 406.094C699.835 405.497 699.667 405.025 699.331 404.68C699.004 404.335 698.603 404.162 698.127 404.162C697.651 404.162 697.245 404.335 696.909 404.68C696.582 405.016 696.419 405.483 696.419 406.08C696.419 406.677 696.582 407.153 696.909 407.508C697.245 407.853 697.651 408.026 698.127 408.026C698.603 408.026 699.004 407.853 699.331 407.508C699.667 407.163 699.835 406.691 699.835 406.094ZM703.485 406.08C703.485 405.277 703.634 404.573 703.933 403.966C704.241 403.359 704.656 402.893 705.179 402.566C705.701 402.239 706.285 402.076 706.929 402.076C707.442 402.076 707.909 402.183 708.329 402.398C708.758 402.613 709.094 402.902 709.337 403.266V399.64H711.731V410H709.337V408.88C709.113 409.253 708.791 409.552 708.371 409.776C707.96 410 707.479 410.112 706.929 410.112C706.285 410.112 705.701 409.949 705.179 409.622C704.656 409.286 704.241 408.815 703.933 408.208C703.634 407.592 703.485 406.883 703.485 406.08ZM709.337 406.094C709.337 405.497 709.169 405.025 708.833 404.68C708.506 404.335 708.105 404.162 707.629 404.162C707.153 404.162 706.747 404.335 706.411 404.68C706.084 405.016 705.921 405.483 705.921 406.08C705.921 406.677 706.084 407.153 706.411 407.508C706.747 407.853 707.153 408.026 707.629 408.026C708.105 408.026 708.506 407.853 708.833 407.508C709.169 407.163 709.337 406.691 709.337 406.094ZM720.827 405.968C720.827 406.192 720.813 406.425 720.785 406.668H715.367C715.404 407.153 715.558 407.527 715.829 407.788C716.109 408.04 716.449 408.166 716.851 408.166C717.448 408.166 717.863 407.914 718.097 407.41H720.645C720.514 407.923 720.276 408.385 719.931 408.796C719.595 409.207 719.17 409.529 718.657 409.762C718.143 409.995 717.569 410.112 716.935 410.112C716.169 410.112 715.488 409.949 714.891 409.622C714.293 409.295 713.827 408.829 713.491 408.222C713.155 407.615 712.987 406.906 712.987 406.094C712.987 405.282 713.15 404.573 713.477 403.966C713.813 403.359 714.279 402.893 714.877 402.566C715.474 402.239 716.16 402.076 716.935 402.076C717.691 402.076 718.363 402.235 718.951 402.552C719.539 402.869 719.996 403.322 720.323 403.91C720.659 404.498 720.827 405.184 720.827 405.968ZM718.377 405.338C718.377 404.927 718.237 404.601 717.957 404.358C717.677 404.115 717.327 403.994 716.907 403.994C716.505 403.994 716.165 404.111 715.885 404.344C715.614 404.577 715.446 404.909 715.381 405.338H718.377ZM725.268 410.112C724.586 410.112 723.98 409.995 723.448 409.762C722.916 409.529 722.496 409.211 722.188 408.81C721.88 408.399 721.707 407.942 721.67 407.438H724.036C724.064 407.709 724.19 407.928 724.414 408.096C724.638 408.264 724.913 408.348 725.24 408.348C725.538 408.348 725.767 408.292 725.926 408.18C726.094 408.059 726.178 407.905 726.178 407.718C726.178 407.494 726.061 407.331 725.828 407.228C725.594 407.116 725.216 406.995 724.694 406.864C724.134 406.733 723.667 406.598 723.294 406.458C722.92 406.309 722.598 406.08 722.328 405.772C722.057 405.455 721.922 405.03 721.922 404.498C721.922 404.05 722.043 403.644 722.286 403.28C722.538 402.907 722.902 402.613 723.378 402.398C723.863 402.183 724.437 402.076 725.1 402.076C726.08 402.076 726.85 402.319 727.41 402.804C727.979 403.289 728.306 403.933 728.39 404.736H726.178C726.14 404.465 726.019 404.251 725.814 404.092C725.618 403.933 725.356 403.854 725.03 403.854C724.75 403.854 724.535 403.91 724.386 404.022C724.236 404.125 724.162 404.269 724.162 404.456C724.162 404.68 724.278 404.848 724.512 404.96C724.754 405.072 725.128 405.184 725.632 405.296C726.21 405.445 726.682 405.595 727.046 405.744C727.41 405.884 727.727 406.117 727.998 406.444C728.278 406.761 728.422 407.191 728.432 407.732C728.432 408.189 728.301 408.6 728.04 408.964C727.788 409.319 727.419 409.599 726.934 409.804C726.458 410.009 725.902 410.112 725.268 410.112ZM733.046 399.822L732.766 406.528H730.736L730.456 399.822H733.046ZM731.786 410.112C731.366 410.112 731.021 409.991 730.75 409.748C730.489 409.496 730.358 409.188 730.358 408.824C730.358 408.451 730.489 408.138 730.75 407.886C731.021 407.634 731.366 407.508 731.786 407.508C732.197 407.508 732.533 407.634 732.794 407.886C733.065 408.138 733.2 408.451 733.2 408.824C733.2 409.188 733.065 409.496 732.794 409.748C732.533 409.991 732.197 410.112 731.786 410.112ZM742.229 400.228C743.255 400.228 744.156 400.429 744.931 400.83C745.715 401.231 746.317 401.805 746.737 402.552C747.166 403.289 747.381 404.148 747.381 405.128C747.381 406.108 747.166 406.967 746.737 407.704C746.317 408.432 745.715 408.997 744.931 409.398C744.156 409.799 743.255 410 742.229 410H738.813V400.228H742.229ZM742.159 408.334C743.185 408.334 743.979 408.054 744.539 407.494C745.099 406.934 745.379 406.145 745.379 405.128C745.379 404.111 745.099 403.317 744.539 402.748C743.979 402.169 743.185 401.88 742.159 401.88H740.773V408.334H742.159ZM752.292 410.126C751.545 410.126 750.873 409.963 750.276 409.636C749.679 409.3 749.207 408.829 748.862 408.222C748.526 407.615 748.358 406.915 748.358 406.122C748.358 405.329 748.531 404.629 748.876 404.022C749.231 403.415 749.711 402.949 750.318 402.622C750.925 402.286 751.601 402.118 752.348 402.118C753.095 402.118 753.771 402.286 754.378 402.622C754.985 402.949 755.461 403.415 755.806 404.022C756.161 404.629 756.338 405.329 756.338 406.122C756.338 406.915 756.156 407.615 755.792 408.222C755.437 408.829 754.952 409.3 754.336 409.636C753.729 409.963 753.048 410.126 752.292 410.126ZM752.292 408.418C752.647 408.418 752.978 408.334 753.286 408.166C753.603 407.989 753.855 407.727 754.042 407.382C754.229 407.037 754.322 406.617 754.322 406.122C754.322 405.385 754.126 404.82 753.734 404.428C753.351 404.027 752.88 403.826 752.32 403.826C751.76 403.826 751.289 404.027 750.906 404.428C750.533 404.82 750.346 405.385 750.346 406.122C750.346 406.859 750.528 407.429 750.892 407.83C751.265 408.222 751.732 408.418 752.292 408.418ZM764.986 405.954C764.986 406.234 764.967 406.486 764.93 406.71H759.26C759.306 407.27 759.502 407.709 759.848 408.026C760.193 408.343 760.618 408.502 761.122 408.502C761.85 408.502 762.368 408.189 762.676 407.564H764.79C764.566 408.311 764.136 408.927 763.502 409.412C762.867 409.888 762.088 410.126 761.164 410.126C760.417 410.126 759.745 409.963 759.148 409.636C758.56 409.3 758.098 408.829 757.762 408.222C757.435 407.615 757.272 406.915 757.272 406.122C757.272 405.319 757.435 404.615 757.762 404.008C758.088 403.401 758.546 402.935 759.134 402.608C759.722 402.281 760.398 402.118 761.164 402.118C761.901 402.118 762.559 402.277 763.138 402.594C763.726 402.911 764.178 403.364 764.496 403.952C764.822 404.531 764.986 405.198 764.986 405.954ZM762.956 405.394C762.946 404.89 762.764 404.489 762.41 404.19C762.055 403.882 761.621 403.728 761.108 403.728C760.622 403.728 760.212 403.877 759.876 404.176C759.549 404.465 759.348 404.871 759.274 405.394H762.956ZM768.558 407.942L766.92 411.876H765.66L766.57 407.942H768.558ZM772.803 406.094C772.803 405.31 772.957 404.615 773.265 404.008C773.582 403.401 774.007 402.935 774.539 402.608C775.08 402.281 775.682 402.118 776.345 402.118C776.923 402.118 777.427 402.235 777.857 402.468C778.295 402.701 778.645 402.995 778.907 403.35V402.244H780.881V410H778.907V408.866C778.655 409.23 778.305 409.533 777.857 409.776C777.418 410.009 776.909 410.126 776.331 410.126C775.677 410.126 775.08 409.958 774.539 409.622C774.007 409.286 773.582 408.815 773.265 408.208C772.957 407.592 772.803 406.887 772.803 406.094ZM778.907 406.122C778.907 405.646 778.813 405.24 778.627 404.904C778.44 404.559 778.188 404.297 777.871 404.12C777.553 403.933 777.213 403.84 776.849 403.84C776.485 403.84 776.149 403.929 775.841 404.106C775.533 404.283 775.281 404.545 775.085 404.89C774.898 405.226 774.805 405.627 774.805 406.094C774.805 406.561 774.898 406.971 775.085 407.326C775.281 407.671 775.533 407.937 775.841 408.124C776.158 408.311 776.494 408.404 776.849 408.404C777.213 408.404 777.553 408.315 777.871 408.138C778.188 407.951 778.44 407.69 778.627 407.354C778.813 407.009 778.907 406.598 778.907 406.122ZM782.291 406.122C782.291 405.319 782.454 404.619 782.781 404.022C783.108 403.415 783.56 402.949 784.139 402.622C784.718 402.286 785.38 402.118 786.127 402.118C787.088 402.118 787.882 402.361 788.507 402.846C789.142 403.322 789.566 403.994 789.781 404.862H787.667C787.555 404.526 787.364 404.265 787.093 404.078C786.832 403.882 786.505 403.784 786.113 403.784C785.553 403.784 785.11 403.989 784.783 404.4C784.456 404.801 784.293 405.375 784.293 406.122C784.293 406.859 784.456 407.433 784.783 407.844C785.11 408.245 785.553 408.446 786.113 408.446C786.906 408.446 787.424 408.091 787.667 407.382H789.781C789.566 408.222 789.142 408.889 788.507 409.384C787.872 409.879 787.079 410.126 786.127 410.126C785.38 410.126 784.718 409.963 784.139 409.636C783.56 409.3 783.108 408.833 782.781 408.236C782.454 407.629 782.291 406.925 782.291 406.122ZM798.539 402.244V410H796.565V409.02C796.313 409.356 795.982 409.622 795.571 409.818C795.17 410.005 794.731 410.098 794.255 410.098C793.648 410.098 793.112 409.972 792.645 409.72C792.178 409.459 791.81 409.081 791.539 408.586C791.278 408.082 791.147 407.485 791.147 406.794V402.244H793.107V406.514C793.107 407.13 793.261 407.606 793.569 407.942C793.877 408.269 794.297 408.432 794.829 408.432C795.37 408.432 795.795 408.269 796.103 407.942C796.411 407.606 796.565 407.13 796.565 406.514V402.244H798.539ZM810.105 402.132C811.057 402.132 811.822 402.426 812.401 403.014C812.989 403.593 813.283 404.405 813.283 405.45V410H811.323V405.716C811.323 405.109 811.169 404.647 810.861 404.33C810.553 404.003 810.133 403.84 809.601 403.84C809.069 403.84 808.644 404.003 808.327 404.33C808.019 404.647 807.865 405.109 807.865 405.716V410H805.905V405.716C805.905 405.109 805.751 404.647 805.443 404.33C805.135 404.003 804.715 403.84 804.183 403.84C803.642 403.84 803.212 404.003 802.895 404.33C802.587 404.647 802.433 405.109 802.433 405.716V410H800.473V402.244H802.433V403.182C802.685 402.855 803.007 402.599 803.399 402.412C803.8 402.225 804.239 402.132 804.715 402.132C805.322 402.132 805.863 402.263 806.339 402.524C806.815 402.776 807.184 403.14 807.445 403.616C807.697 403.168 808.061 402.809 808.537 402.538C809.022 402.267 809.545 402.132 810.105 402.132ZM822.465 402.244V410H820.491V409.02C820.239 409.356 819.907 409.622 819.497 409.818C819.095 410.005 818.657 410.098 818.181 410.098C817.574 410.098 817.037 409.972 816.571 409.72C816.104 409.459 815.735 409.081 815.465 408.586C815.203 408.082 815.073 407.485 815.073 406.794V402.244H817.033V406.514C817.033 407.13 817.187 407.606 817.495 407.942C817.803 408.269 818.223 408.432 818.755 408.432C819.296 408.432 819.721 408.269 820.029 407.942C820.337 407.606 820.491 407.13 820.491 406.514V402.244H822.465ZM826.359 399.64V410H824.399V399.64H826.359ZM835.505 405.954C835.505 406.234 835.486 406.486 835.449 406.71H829.779C829.826 407.27 830.022 407.709 830.367 408.026C830.712 408.343 831.137 408.502 831.641 408.502C832.369 408.502 832.887 408.189 833.195 407.564H835.309C835.085 408.311 834.656 408.927 834.021 409.412C833.386 409.888 832.607 410.126 831.683 410.126C830.936 410.126 830.264 409.963 829.667 409.636C829.079 409.3 828.617 408.829 828.281 408.222C827.954 407.615 827.791 406.915 827.791 406.122C827.791 405.319 827.954 404.615 828.281 404.008C828.608 403.401 829.065 402.935 829.653 402.608C830.241 402.281 830.918 402.118 831.683 402.118C832.42 402.118 833.078 402.277 833.657 402.594C834.245 402.911 834.698 403.364 835.015 403.952C835.342 404.531 835.505 405.198 835.505 405.954ZM833.475 405.394C833.466 404.89 833.284 404.489 832.929 404.19C832.574 403.882 832.14 403.728 831.627 403.728C831.142 403.728 830.731 403.877 830.395 404.176C830.068 404.465 829.868 404.871 829.793 405.394H833.475ZM551.492 426.954C551.492 427.234 551.474 427.486 551.436 427.71H545.766C545.813 428.27 546.009 428.709 546.354 429.026C546.7 429.343 547.124 429.502 547.628 429.502C548.356 429.502 548.874 429.189 549.182 428.564H551.296C551.072 429.311 550.643 429.927 550.008 430.412C549.374 430.888 548.594 431.126 547.67 431.126C546.924 431.126 546.252 430.963 545.654 430.636C545.066 430.3 544.604 429.829 544.268 429.222C543.942 428.615 543.778 427.915 543.778 427.122C543.778 426.319 543.942 425.615 544.268 425.008C544.595 424.401 545.052 423.935 545.64 423.608C546.228 423.281 546.905 423.118 547.67 423.118C548.408 423.118 549.066 423.277 549.644 423.594C550.232 423.911 550.685 424.364 551.002 424.952C551.329 425.531 551.492 426.198 551.492 426.954ZM549.462 426.394C549.453 425.89 549.271 425.489 548.916 425.19C548.562 424.882 548.128 424.728 547.614 424.728C547.129 424.728 546.718 424.877 546.382 425.176C546.056 425.465 545.855 425.871 545.78 426.394H549.462ZM558.541 424.854V428.606C558.541 428.867 558.602 429.059 558.723 429.18C558.854 429.292 559.068 429.348 559.367 429.348H560.277V431H559.045C557.393 431 556.567 430.197 556.567 428.592V424.854H555.643V423.244H556.567V421.326H558.541V423.244H560.277V424.854H558.541ZM563.647 424.448C563.899 424.037 564.225 423.715 564.627 423.482C565.037 423.249 565.504 423.132 566.027 423.132V425.19H565.509C564.893 425.19 564.426 425.335 564.109 425.624C563.801 425.913 563.647 426.417 563.647 427.136V431H561.687V423.244H563.647V424.448ZM570.791 431.126C570.044 431.126 569.372 430.963 568.775 430.636C568.178 430.3 567.706 429.829 567.361 429.222C567.025 428.615 566.857 427.915 566.857 427.122C566.857 426.329 567.03 425.629 567.375 425.022C567.73 424.415 568.21 423.949 568.817 423.622C569.424 423.286 570.1 423.118 570.847 423.118C571.594 423.118 572.27 423.286 572.877 423.622C573.484 423.949 573.96 424.415 574.305 425.022C574.66 425.629 574.837 426.329 574.837 427.122C574.837 427.915 574.655 428.615 574.291 429.222C573.936 429.829 573.451 430.3 572.835 430.636C572.228 430.963 571.547 431.126 570.791 431.126ZM570.791 429.418C571.146 429.418 571.477 429.334 571.785 429.166C572.102 428.989 572.354 428.727 572.541 428.382C572.728 428.037 572.821 427.617 572.821 427.122C572.821 426.385 572.625 425.82 572.233 425.428C571.85 425.027 571.379 424.826 570.819 424.826C570.259 424.826 569.788 425.027 569.405 425.428C569.032 425.82 568.845 426.385 568.845 427.122C568.845 427.859 569.027 428.429 569.391 428.83C569.764 429.222 570.231 429.418 570.791 429.418ZM575.771 427.108C575.771 426.333 575.929 425.647 576.247 425.05C576.573 424.443 577.012 423.972 577.563 423.636C578.113 423.3 578.72 423.132 579.383 423.132C579.933 423.132 580.419 423.239 580.839 423.454C581.268 423.659 581.613 423.925 581.875 424.252V423.244H583.849V434.696H581.875V429.936C581.613 430.272 581.263 430.552 580.825 430.776C580.386 431 579.891 431.112 579.341 431.112C578.687 431.112 578.085 430.944 577.535 430.608C576.993 430.263 576.564 429.787 576.247 429.18C575.929 428.573 575.771 427.883 575.771 427.108ZM581.875 427.122C581.875 426.646 581.777 426.235 581.581 425.89C581.385 425.545 581.128 425.283 580.811 425.106C580.503 424.929 580.171 424.84 579.817 424.84C579.471 424.84 579.14 424.929 578.823 425.106C578.515 425.283 578.263 425.545 578.067 425.89C577.871 426.226 577.773 426.632 577.773 427.108C577.773 427.584 577.871 427.999 578.067 428.354C578.263 428.699 578.515 428.961 578.823 429.138C579.14 429.315 579.471 429.404 579.817 429.404C580.171 429.404 580.503 429.315 580.811 429.138C581.128 428.961 581.385 428.699 581.581 428.354C581.777 428.009 581.875 427.598 581.875 427.122ZM593.085 423.244V431H591.111V430.02C590.859 430.356 590.528 430.622 590.117 430.818C589.716 431.005 589.277 431.098 588.801 431.098C588.194 431.098 587.658 430.972 587.191 430.72C586.724 430.459 586.356 430.081 586.085 429.586C585.824 429.082 585.693 428.485 585.693 427.794V423.244H587.653V427.514C587.653 428.13 587.807 428.606 588.115 428.942C588.423 429.269 588.843 429.432 589.375 429.432C589.916 429.432 590.341 429.269 590.649 428.942C590.957 428.606 591.111 428.13 591.111 427.514V423.244H593.085ZM602.229 426.954C602.229 427.234 602.21 427.486 602.173 427.71H596.503C596.549 428.27 596.745 428.709 597.091 429.026C597.436 429.343 597.861 429.502 598.365 429.502C599.093 429.502 599.611 429.189 599.919 428.564H602.033C601.809 429.311 601.379 429.927 600.745 430.412C600.11 430.888 599.331 431.126 598.407 431.126C597.66 431.126 596.988 430.963 596.391 430.636C595.803 430.3 595.341 429.829 595.005 429.222C594.678 428.615 594.515 427.915 594.515 427.122C594.515 426.319 594.678 425.615 595.005 425.008C595.331 424.401 595.789 423.935 596.377 423.608C596.965 423.281 597.641 423.118 598.407 423.118C599.144 423.118 599.802 423.277 600.381 423.594C600.969 423.911 601.421 424.364 601.739 424.952C602.065 425.531 602.229 426.198 602.229 426.954ZM600.199 426.394C600.189 425.89 600.007 425.489 599.653 425.19C599.298 424.882 598.864 424.728 598.351 424.728C597.865 424.728 597.455 424.877 597.119 425.176C596.792 425.465 596.591 425.871 596.517 426.394H600.199ZM608.955 424.364C609.207 424.009 609.553 423.715 609.991 423.482C610.439 423.239 610.948 423.118 611.517 423.118C612.18 423.118 612.777 423.281 613.309 423.608C613.851 423.935 614.275 424.401 614.583 425.008C614.901 425.605 615.059 426.301 615.059 427.094C615.059 427.887 614.901 428.592 614.583 429.208C614.275 429.815 613.851 430.286 613.309 430.622C612.777 430.958 612.18 431.126 611.517 431.126C610.948 431.126 610.444 431.009 610.005 430.776C609.576 430.543 609.226 430.249 608.955 429.894V434.696H606.995V423.244H608.955V424.364ZM613.057 427.094C613.057 426.627 612.959 426.226 612.763 425.89C612.577 425.545 612.325 425.283 612.007 425.106C611.699 424.929 611.363 424.84 610.999 424.84C610.645 424.84 610.309 424.933 609.991 425.12C609.683 425.297 609.431 425.559 609.235 425.904C609.049 426.249 608.955 426.655 608.955 427.122C608.955 427.589 609.049 427.995 609.235 428.34C609.431 428.685 609.683 428.951 609.991 429.138C610.309 429.315 610.645 429.404 610.999 429.404C611.363 429.404 611.699 429.311 612.007 429.124C612.325 428.937 612.577 428.671 612.763 428.326C612.959 427.981 613.057 427.57 613.057 427.094ZM619.928 431.126C619.181 431.126 618.509 430.963 617.912 430.636C617.314 430.3 616.843 429.829 616.498 429.222C616.162 428.615 615.994 427.915 615.994 427.122C615.994 426.329 616.166 425.629 616.512 425.022C616.866 424.415 617.347 423.949 617.954 423.622C618.56 423.286 619.237 423.118 619.984 423.118C620.73 423.118 621.407 423.286 622.014 423.622C622.62 423.949 623.096 424.415 623.442 425.022C623.796 425.629 623.974 426.329 623.974 427.122C623.974 427.915 623.792 428.615 623.428 429.222C623.073 429.829 622.588 430.3 621.972 430.636C621.365 430.963 620.684 431.126 619.928 431.126ZM619.928 429.418C620.282 429.418 620.614 429.334 620.922 429.166C621.239 428.989 621.491 428.727 621.678 428.382C621.864 428.037 621.958 427.617 621.958 427.122C621.958 426.385 621.762 425.82 621.37 425.428C620.987 425.027 620.516 424.826 619.956 424.826C619.396 424.826 618.924 425.027 618.542 425.428C618.168 425.82 617.982 426.385 617.982 427.122C617.982 427.859 618.164 428.429 618.528 428.83C618.901 429.222 619.368 429.418 619.928 429.418ZM627.371 424.448C627.623 424.037 627.95 423.715 628.351 423.482C628.762 423.249 629.229 423.132 629.751 423.132V425.19H629.233C628.617 425.19 628.151 425.335 627.833 425.624C627.525 425.913 627.371 426.417 627.371 427.136V431H625.411V423.244H627.371V424.448ZM633.903 427.122C633.903 426.319 634.067 425.619 634.393 425.022C634.72 424.415 635.173 423.949 635.751 423.622C636.33 423.286 636.993 423.118 637.739 423.118C638.701 423.118 639.494 423.361 640.119 423.846C640.754 424.322 641.179 424.994 641.393 425.862H639.279C639.167 425.526 638.976 425.265 638.705 425.078C638.444 424.882 638.117 424.784 637.725 424.784C637.165 424.784 636.722 424.989 636.395 425.4C636.069 425.801 635.905 426.375 635.905 427.122C635.905 427.859 636.069 428.433 636.395 428.844C636.722 429.245 637.165 429.446 637.725 429.446C638.519 429.446 639.037 429.091 639.279 428.382H641.393C641.179 429.222 640.754 429.889 640.119 430.384C639.485 430.879 638.691 431.126 637.739 431.126C636.993 431.126 636.33 430.963 635.751 430.636C635.173 430.3 634.72 429.833 634.393 429.236C634.067 428.629 633.903 427.925 633.903 427.122ZM650.151 423.244V431H648.177V430.02C647.925 430.356 647.594 430.622 647.183 430.818C646.782 431.005 646.343 431.098 645.867 431.098C645.261 431.098 644.724 430.972 644.257 430.72C643.791 430.459 643.422 430.081 643.151 429.586C642.89 429.082 642.759 428.485 642.759 427.794V423.244H644.719V427.514C644.719 428.13 644.873 428.606 645.181 428.942C645.489 429.269 645.909 429.432 646.441 429.432C646.983 429.432 647.407 429.269 647.715 428.942C648.023 428.606 648.177 428.13 648.177 427.514V423.244H650.151ZM654.045 424.364C654.297 424.009 654.642 423.715 655.081 423.482C655.529 423.239 656.038 423.118 656.607 423.118C657.27 423.118 657.867 423.281 658.399 423.608C658.94 423.935 659.365 424.401 659.673 425.008C659.99 425.605 660.149 426.301 660.149 427.094C660.149 427.887 659.99 428.592 659.673 429.208C659.365 429.815 658.94 430.286 658.399 430.622C657.867 430.958 657.27 431.126 656.607 431.126C656.038 431.126 655.534 431.009 655.095 430.776C654.666 430.543 654.316 430.249 654.045 429.894V434.696H652.085V423.244H654.045V424.364ZM658.147 427.094C658.147 426.627 658.049 426.226 657.853 425.89C657.666 425.545 657.414 425.283 657.097 425.106C656.789 424.929 656.453 424.84 656.089 424.84C655.734 424.84 655.398 424.933 655.081 425.12C654.773 425.297 654.521 425.559 654.325 425.904C654.138 426.249 654.045 426.655 654.045 427.122C654.045 427.589 654.138 427.995 654.325 428.34C654.521 428.685 654.773 428.951 655.081 429.138C655.398 429.315 655.734 429.404 656.089 429.404C656.453 429.404 656.789 429.311 657.097 429.124C657.414 428.937 657.666 428.671 657.853 428.326C658.049 427.981 658.147 427.57 658.147 427.094ZM665.017 431.126C664.271 431.126 663.599 430.963 663.001 430.636C662.404 430.3 661.933 429.829 661.587 429.222C661.251 428.615 661.083 427.915 661.083 427.122C661.083 426.329 661.256 425.629 661.601 425.022C661.956 424.415 662.437 423.949 663.043 423.622C663.65 423.286 664.327 423.118 665.073 423.118C665.82 423.118 666.497 423.286 667.103 423.622C667.71 423.949 668.186 424.415 668.531 425.022C668.886 425.629 669.063 426.329 669.063 427.122C669.063 427.915 668.881 428.615 668.517 429.222C668.163 429.829 667.677 430.3 667.061 430.636C666.455 430.963 665.773 431.126 665.017 431.126ZM665.017 429.418C665.372 429.418 665.703 429.334 666.011 429.166C666.329 428.989 666.581 428.727 666.767 428.382C666.954 428.037 667.047 427.617 667.047 427.122C667.047 426.385 666.851 425.82 666.459 425.428C666.077 425.027 665.605 424.826 665.045 424.826C664.485 424.826 664.014 425.027 663.631 425.428C663.258 425.82 663.071 426.385 663.071 427.122C663.071 427.859 663.253 428.429 663.617 428.83C663.991 429.222 664.457 429.418 665.017 429.418ZM674.799 423.132C675.723 423.132 676.47 423.426 677.039 424.014C677.608 424.593 677.893 425.405 677.893 426.45V431H675.933V426.716C675.933 426.1 675.779 425.629 675.471 425.302C675.163 424.966 674.743 424.798 674.211 424.798C673.67 424.798 673.24 424.966 672.923 425.302C672.615 425.629 672.461 426.1 672.461 426.716V431H670.501V423.244H672.461V424.21C672.722 423.874 673.054 423.613 673.455 423.426C673.866 423.23 674.314 423.132 674.799 423.132ZM682.725 431.126C682.09 431.126 681.521 431.014 681.017 430.79C680.513 430.557 680.112 430.244 679.813 429.852C679.524 429.46 679.365 429.026 679.337 428.55H681.311C681.348 428.849 681.493 429.096 681.745 429.292C682.006 429.488 682.328 429.586 682.711 429.586C683.084 429.586 683.374 429.511 683.579 429.362C683.794 429.213 683.901 429.021 683.901 428.788C683.901 428.536 683.77 428.349 683.509 428.228C683.257 428.097 682.851 427.957 682.291 427.808C681.712 427.668 681.236 427.523 680.863 427.374C680.499 427.225 680.182 426.996 679.911 426.688C679.65 426.38 679.519 425.965 679.519 425.442C679.519 425.013 679.64 424.621 679.883 424.266C680.135 423.911 680.49 423.631 680.947 423.426C681.414 423.221 681.96 423.118 682.585 423.118C683.509 423.118 684.246 423.351 684.797 423.818C685.348 424.275 685.651 424.896 685.707 425.68H683.831C683.803 425.372 683.672 425.129 683.439 424.952C683.215 424.765 682.912 424.672 682.529 424.672C682.174 424.672 681.899 424.737 681.703 424.868C681.516 424.999 681.423 425.181 681.423 425.414C681.423 425.675 681.554 425.876 681.815 426.016C682.076 426.147 682.482 426.282 683.033 426.422C683.593 426.562 684.055 426.707 684.419 426.856C684.783 427.005 685.096 427.239 685.357 427.556C685.628 427.864 685.768 428.275 685.777 428.788C685.777 429.236 685.651 429.637 685.399 429.992C685.156 430.347 684.802 430.627 684.335 430.832C683.878 431.028 683.341 431.126 682.725 431.126ZM691.716 422.32C691.371 422.32 691.081 422.213 690.848 421.998C690.624 421.774 690.512 421.499 690.512 421.172C690.512 420.845 690.624 420.575 690.848 420.36C691.081 420.136 691.371 420.024 691.716 420.024C692.061 420.024 692.346 420.136 692.57 420.36C692.803 420.575 692.92 420.845 692.92 421.172C692.92 421.499 692.803 421.774 692.57 421.998C692.346 422.213 692.061 422.32 691.716 422.32ZM692.682 423.244V431H690.722V423.244H692.682ZM698.916 423.132C699.84 423.132 700.587 423.426 701.156 424.014C701.726 424.593 702.01 425.405 702.01 426.45V431H700.05V426.716C700.05 426.1 699.896 425.629 699.588 425.302C699.28 424.966 698.86 424.798 698.328 424.798C697.787 424.798 697.358 424.966 697.04 425.302C696.732 425.629 696.578 426.1 696.578 426.716V431H694.618V423.244H696.578V424.21C696.84 423.874 697.171 423.613 697.572 423.426C697.983 423.23 698.431 423.132 698.916 423.132ZM703.37 427.122C703.37 426.319 703.534 425.619 703.86 425.022C704.187 424.415 704.64 423.949 705.218 423.622C705.797 423.286 706.46 423.118 707.206 423.118C708.168 423.118 708.961 423.361 709.586 423.846C710.221 424.322 710.646 424.994 710.86 425.862H708.746C708.634 425.526 708.443 425.265 708.172 425.078C707.911 424.882 707.584 424.784 707.192 424.784C706.632 424.784 706.189 424.989 705.862 425.4C705.536 425.801 705.372 426.375 705.372 427.122C705.372 427.859 705.536 428.433 705.862 428.844C706.189 429.245 706.632 429.446 707.192 429.446C707.986 429.446 708.504 429.091 708.746 428.382H710.86C710.646 429.222 710.221 429.889 709.586 430.384C708.952 430.879 708.158 431.126 707.206 431.126C706.46 431.126 705.797 430.963 705.218 430.636C704.64 430.3 704.187 429.833 703.86 429.236C703.534 428.629 703.37 427.925 703.37 427.122ZM714.256 424.448C714.508 424.037 714.835 423.715 715.236 423.482C715.647 423.249 716.113 423.132 716.636 423.132V425.19H716.118C715.502 425.19 715.035 425.335 714.718 425.624C714.41 425.913 714.256 426.417 714.256 427.136V431H712.296V423.244H714.256V424.448ZM720 423.244V431H718.04V423.244H720ZM720.546 421.228L717.326 422.698V421.298L720.546 419.632V421.228ZM725.251 429.194L727.211 423.244H729.297L726.427 431H724.047L721.191 423.244H723.291L725.251 429.194ZM737.608 426.954C737.608 427.234 737.589 427.486 737.552 427.71H731.882C731.928 428.27 732.124 428.709 732.47 429.026C732.815 429.343 733.24 429.502 733.744 429.502C734.472 429.502 734.99 429.189 735.298 428.564H737.412C737.188 429.311 736.758 429.927 736.124 430.412C735.489 430.888 734.71 431.126 733.786 431.126C733.039 431.126 732.367 430.963 731.77 430.636C731.182 430.3 730.72 429.829 730.384 429.222C730.057 428.615 729.894 427.915 729.894 427.122C729.894 426.319 730.057 425.615 730.384 425.008C730.71 424.401 731.168 423.935 731.756 423.608C732.344 423.281 733.02 423.118 733.786 423.118C734.523 423.118 735.181 423.277 735.76 423.594C736.348 423.911 736.8 424.364 737.118 424.952C737.444 425.531 737.608 426.198 737.608 426.954ZM735.578 426.394C735.568 425.89 735.386 425.489 735.032 425.19C734.677 424.882 734.243 424.728 733.73 424.728C733.244 424.728 732.834 424.877 732.498 425.176C732.171 425.465 731.97 425.871 731.896 426.394H735.578ZM740.032 422.32C739.687 422.32 739.398 422.213 739.164 421.998C738.94 421.774 738.828 421.499 738.828 421.172C738.828 420.845 738.94 420.575 739.164 420.36C739.398 420.136 739.687 420.024 740.032 420.024C740.378 420.024 740.662 420.136 740.886 420.36C741.12 420.575 741.236 420.845 741.236 421.172C741.236 421.499 741.12 421.774 740.886 421.998C740.662 422.213 740.378 422.32 740.032 422.32ZM740.998 423.244V431H739.038V423.244H740.998ZM745.903 431.126C745.268 431.126 744.699 431.014 744.195 430.79C743.691 430.557 743.289 430.244 742.991 429.852C742.701 429.46 742.543 429.026 742.515 428.55H744.489C744.526 428.849 744.671 429.096 744.923 429.292C745.184 429.488 745.506 429.586 745.889 429.586C746.262 429.586 746.551 429.511 746.757 429.362C746.971 429.213 747.079 429.021 747.079 428.788C747.079 428.536 746.948 428.349 746.687 428.228C746.435 428.097 746.029 427.957 745.469 427.808C744.89 427.668 744.414 427.523 744.041 427.374C743.677 427.225 743.359 426.996 743.089 426.688C742.827 426.38 742.697 425.965 742.697 425.442C742.697 425.013 742.818 424.621 743.061 424.266C743.313 423.911 743.667 423.631 744.125 423.426C744.591 423.221 745.137 423.118 745.763 423.118C746.687 423.118 747.424 423.351 747.975 423.818C748.525 424.275 748.829 424.896 748.885 425.68H747.009C746.981 425.372 746.85 425.129 746.617 424.952C746.393 424.765 746.089 424.672 745.707 424.672C745.352 424.672 745.077 424.737 744.881 424.868C744.694 424.999 744.601 425.181 744.601 425.414C744.601 425.675 744.731 425.876 744.993 426.016C745.254 426.147 745.66 426.282 746.211 426.422C746.771 426.562 747.233 426.707 747.597 426.856C747.961 427.005 748.273 427.239 748.535 427.556C748.805 427.864 748.945 428.275 748.955 428.788C748.955 429.236 748.829 429.637 748.577 429.992C748.334 430.347 747.979 430.627 747.513 430.832C747.055 431.028 746.519 431.126 745.903 431.126ZM751.432 431.098C751.077 431.098 750.783 430.991 750.55 430.776C750.326 430.552 750.214 430.277 750.214 429.95C750.214 429.623 750.326 429.353 750.55 429.138C750.783 428.914 751.077 428.802 751.432 428.802C751.777 428.802 752.062 428.914 752.286 429.138C752.51 429.353 752.622 429.623 752.622 429.95C752.622 430.277 752.51 430.552 752.286 430.776C752.062 430.991 751.777 431.098 751.432 431.098Z" fill="#121212"/>
<path d="M473.646 431L471.602 427.29H471.028V431H468.634V421.172H472.652C473.426 421.172 474.084 421.307 474.626 421.578C475.176 421.849 475.587 422.222 475.858 422.698C476.128 423.165 476.264 423.687 476.264 424.266C476.264 424.919 476.077 425.503 475.704 426.016C475.34 426.529 474.798 426.893 474.08 427.108L476.348 431H473.646ZM471.028 425.596H472.512C472.95 425.596 473.277 425.489 473.492 425.274C473.716 425.059 473.828 424.756 473.828 424.364C473.828 423.991 473.716 423.697 473.492 423.482C473.277 423.267 472.95 423.16 472.512 423.16H471.028V425.596ZM477.29 427.08C477.29 426.277 477.44 425.573 477.738 424.966C478.046 424.359 478.462 423.893 478.984 423.566C479.507 423.239 480.09 423.076 480.734 423.076C481.285 423.076 481.766 423.188 482.176 423.412C482.596 423.636 482.918 423.93 483.142 424.294V423.188H485.536V431H483.142V429.894C482.909 430.258 482.582 430.552 482.162 430.776C481.752 431 481.271 431.112 480.72 431.112C480.086 431.112 479.507 430.949 478.984 430.622C478.462 430.286 478.046 429.815 477.738 429.208C477.44 428.592 477.29 427.883 477.29 427.08ZM483.142 427.094C483.142 426.497 482.974 426.025 482.638 425.68C482.312 425.335 481.91 425.162 481.434 425.162C480.958 425.162 480.552 425.335 480.216 425.68C479.89 426.016 479.726 426.483 479.726 427.08C479.726 427.677 479.89 428.153 480.216 428.508C480.552 428.853 480.958 429.026 481.434 429.026C481.91 429.026 482.312 428.853 482.638 428.508C482.974 428.163 483.142 427.691 483.142 427.094ZM497.236 423.104C498.207 423.104 498.977 423.398 499.546 423.986C500.125 424.574 500.414 425.391 500.414 426.436V431H498.034V426.758C498.034 426.254 497.899 425.867 497.628 425.596C497.367 425.316 497.003 425.176 496.536 425.176C496.07 425.176 495.701 425.316 495.43 425.596C495.169 425.867 495.038 426.254 495.038 426.758V431H492.658V426.758C492.658 426.254 492.523 425.867 492.252 425.596C491.991 425.316 491.627 425.176 491.16 425.176C490.694 425.176 490.325 425.316 490.054 425.596C489.793 425.867 489.662 426.254 489.662 426.758V431H487.268V423.188H489.662V424.168C489.905 423.841 490.222 423.585 490.614 423.398C491.006 423.202 491.45 423.104 491.944 423.104C492.532 423.104 493.055 423.23 493.512 423.482C493.979 423.734 494.343 424.093 494.604 424.56C494.875 424.131 495.244 423.781 495.71 423.51C496.177 423.239 496.686 423.104 497.236 423.104ZM501.613 427.094C501.613 426.282 501.776 425.573 502.103 424.966C502.439 424.359 502.901 423.893 503.489 423.566C504.086 423.239 504.767 423.076 505.533 423.076C506.513 423.076 507.329 423.333 507.983 423.846C508.645 424.359 509.079 425.083 509.285 426.016H506.737C506.522 425.419 506.107 425.12 505.491 425.12C505.052 425.12 504.702 425.293 504.441 425.638C504.179 425.974 504.049 426.459 504.049 427.094C504.049 427.729 504.179 428.219 504.441 428.564C504.702 428.9 505.052 429.068 505.491 429.068C506.107 429.068 506.522 428.769 506.737 428.172H509.285C509.079 429.087 508.645 429.805 507.983 430.328C507.32 430.851 506.503 431.112 505.533 431.112C504.767 431.112 504.086 430.949 503.489 430.622C502.901 430.295 502.439 429.829 502.103 429.222C501.776 428.615 501.613 427.906 501.613 427.094ZM514.121 431.112C513.356 431.112 512.665 430.949 512.049 430.622C511.443 430.295 510.962 429.829 510.607 429.222C510.262 428.615 510.089 427.906 510.089 427.094C510.089 426.291 510.267 425.587 510.621 424.98C510.976 424.364 511.461 423.893 512.077 423.566C512.693 423.239 513.384 423.076 514.149 423.076C514.915 423.076 515.605 423.239 516.221 423.566C516.837 423.893 517.323 424.364 517.677 424.98C518.032 425.587 518.209 426.291 518.209 427.094C518.209 427.897 518.027 428.606 517.663 429.222C517.309 429.829 516.819 430.295 516.193 430.622C515.577 430.949 514.887 431.112 514.121 431.112ZM514.121 429.04C514.579 429.04 514.966 428.872 515.283 428.536C515.61 428.2 515.773 427.719 515.773 427.094C515.773 426.469 515.615 425.988 515.297 425.652C514.989 425.316 514.607 425.148 514.149 425.148C513.683 425.148 513.295 425.316 512.987 425.652C512.679 425.979 512.525 426.459 512.525 427.094C512.525 427.719 512.675 428.2 512.973 428.536C513.281 428.872 513.664 429.04 514.121 429.04ZM520.683 422.376C520.263 422.376 519.918 422.255 519.647 422.012C519.386 421.76 519.255 421.452 519.255 421.088C519.255 420.715 519.386 420.407 519.647 420.164C519.918 419.912 520.263 419.786 520.683 419.786C521.094 419.786 521.43 419.912 521.691 420.164C521.962 420.407 522.097 420.715 522.097 421.088C522.097 421.452 521.962 421.76 521.691 422.012C521.43 422.255 521.094 422.376 520.683 422.376ZM521.873 423.188V431H519.479V423.188H521.873ZM528.368 423.104C529.283 423.104 530.011 423.403 530.552 424C531.103 424.588 531.378 425.4 531.378 426.436V431H528.998V426.758C528.998 426.235 528.863 425.829 528.592 425.54C528.322 425.251 527.958 425.106 527.5 425.106C527.043 425.106 526.679 425.251 526.408 425.54C526.138 425.829 526.002 426.235 526.002 426.758V431H523.608V423.188H526.002V424.224C526.245 423.879 526.572 423.608 526.982 423.412C527.393 423.207 527.855 423.104 528.368 423.104ZM536.22 431.112C535.538 431.112 534.932 430.995 534.4 430.762C533.868 430.529 533.448 430.211 533.14 429.81C532.832 429.399 532.659 428.942 532.622 428.438H534.988C535.016 428.709 535.142 428.928 535.366 429.096C535.59 429.264 535.865 429.348 536.192 429.348C536.49 429.348 536.719 429.292 536.878 429.18C537.046 429.059 537.13 428.905 537.13 428.718C537.13 428.494 537.013 428.331 536.78 428.228C536.546 428.116 536.168 427.995 535.646 427.864C535.086 427.733 534.619 427.598 534.246 427.458C533.872 427.309 533.55 427.08 533.28 426.772C533.009 426.455 532.874 426.03 532.874 425.498C532.874 425.05 532.995 424.644 533.238 424.28C533.49 423.907 533.854 423.613 534.33 423.398C534.815 423.183 535.389 423.076 536.052 423.076C537.032 423.076 537.802 423.319 538.362 423.804C538.931 424.289 539.258 424.933 539.342 425.736H537.13C537.092 425.465 536.971 425.251 536.766 425.092C536.57 424.933 536.308 424.854 535.982 424.854C535.702 424.854 535.487 424.91 535.338 425.022C535.188 425.125 535.114 425.269 535.114 425.456C535.114 425.68 535.23 425.848 535.464 425.96C535.706 426.072 536.08 426.184 536.584 426.296C537.162 426.445 537.634 426.595 537.998 426.744C538.362 426.884 538.679 427.117 538.95 427.444C539.23 427.761 539.374 428.191 539.384 428.732C539.384 429.189 539.253 429.6 538.992 429.964C538.74 430.319 538.371 430.599 537.886 430.804C537.41 431.009 536.854 431.112 536.22 431.112Z" fill="#2A55C2"/>
</g>
<path d="M136.29 448.121C137.544 442.743 142.922 439.4 148.3 440.655L225.463 458.655C230.841 459.91 234.184 465.287 232.93 470.666L214.263 550.686C211.126 564.132 197.683 572.489 184.237 569.353L136.289 558.167C122.843 555.031 114.486 541.588 117.623 528.142L136.29 448.121Z" fill="#508D3F"/>
<path d="M136.29 448.121C137.544 442.743 142.922 439.4 148.3 440.655L225.463 458.655C230.841 459.91 234.184 465.287 232.93 470.666L221.485 519.726C215.26 546.412 188.579 562.999 161.893 556.774V556.774C135.206 550.549 118.619 523.868 124.845 497.182L136.29 448.121Z" fill="#46C4FF"/>
<path d="M136.29 448.121C137.544 442.743 142.922 439.4 148.3 440.655L225.463 458.655C230.841 459.91 234.184 465.287 232.93 470.666L215.665 544.674C212.654 557.582 199.749 565.605 186.84 562.594L136.945 550.954C124.037 547.943 116.014 535.038 119.025 522.129L136.29 448.121Z" fill="#7AD761"/>
<path d="M151.919 454.802C152.044 454.264 152.582 453.93 153.12 454.055L216.375 468.811C216.913 468.937 217.247 469.475 217.122 470.013L205.941 517.941C201.741 535.946 183.74 547.137 165.734 542.937V542.937C147.729 538.737 136.538 520.736 140.738 502.73L151.919 454.802Z" fill="#60AF4B"/>
<path d="M161.608 477.23C160.292 477.724 158.774 478.87 158.195 479.636C156.993 481.357 155.445 487.35 155.883 488.903C156.136 489.963 154.719 493.034 153.743 493.357C153.52 493.455 152.492 494.216 151.453 495.024C149.795 496.339 149.462 496.911 148.864 499.474C148.277 501.989 148.312 502.697 149.108 504.434C151.223 508.88 155.155 512.399 160.438 514.632C162.08 515.315 163.593 516.118 163.739 516.353C164.114 516.89 178.254 520.189 178.828 519.873C179.062 519.727 180.775 519.676 182.55 519.79C188.276 520.125 193.359 518.709 197.223 515.658C198.705 514.453 199.05 513.833 199.636 511.318C200.234 508.755 200.188 508.094 199.283 506.182C198.709 504.998 198.124 503.86 197.967 503.674C197.235 502.952 197.323 499.571 198.019 498.733C199.099 497.534 200.363 491.474 200.046 489.399C199.866 488.456 199.012 486.756 198.05 485.731C196.557 483.982 196.068 483.718 192.889 482.976C189.947 482.29 188.954 482.258 187.013 482.856C185.719 483.255 184.476 483.866 184.245 484.212C183.622 485.167 174.796 483.108 174.66 481.976C174.606 481.563 173.762 480.465 172.778 479.536C171.302 478.141 170.397 477.729 167.455 477.043C164.276 476.301 163.721 476.322 161.608 477.23ZM169.267 483.219C169.499 483.724 169.925 484.474 170.168 484.931C170.656 485.845 169.876 489.616 169.212 489.461C168.974 489.405 168.66 489.682 168.571 490.062C168.25 491.438 164.846 491.444 162.271 490.043C160.138 488.895 160.683 483.769 163.13 482.288C164.838 481.186 168.547 481.801 169.267 483.219ZM194.447 489.594C195.986 492.004 194.207 496.843 191.786 496.928C188.856 497.045 185.807 495.533 186.128 494.157C186.216 493.778 186.104 493.401 185.819 493.335C185.155 493.18 186.125 489.453 187.013 488.86C187.387 488.547 188.1 488.063 188.532 487.714C189.805 486.76 193.403 487.849 194.447 489.594ZM160.774 500.751C161.378 501.592 162.72 502.706 163.697 503.234C164.722 503.773 165.75 504.514 166.063 504.887C166.402 505.366 169.062 506.187 173.807 507.294C178.552 508.401 181.301 508.842 181.817 508.562C182.263 508.366 183.513 508.157 184.67 508.127C185.781 508.086 187.476 507.681 188.39 507.193C190.383 506.157 191.792 506.336 191.494 507.617C191.305 508.424 190.333 508.947 186.923 510.053C182.654 511.409 175.745 510.998 169.804 509.012C164.506 507.275 157.35 501.703 157.815 499.71C158.103 498.477 159.493 498.951 160.774 500.751Z" fill="#2B5121"/>
<path d="M163.53 485.933L163.032 488.068L165.058 488.391C167.274 488.758 167.856 488.193 167.854 485.841C167.838 484.837 167.55 484.569 165.937 484.193L164.039 483.75L163.53 485.933Z" fill="#2B5121"/>
<path d="M188.637 490.69C187.595 492.798 187.867 493.562 190.017 494.214L191.977 494.821L192.475 492.686L192.984 490.503L191.086 490.06C189.472 489.684 189.096 489.796 188.637 490.69Z" fill="#2B5121"/>
<path d="M211.681 455.154L228.246 459.019L230.146 459.462L231.712 460.114L232.672 460.91L233.297 461.915L233.921 462.92L234.147 464.404L229.016 486.4L176.681 517.427L124.345 548.455L122.408 545.712L120.806 542.762L119.539 539.603L118.606 536.235L118.009 532.66L117.954 529.211L118.235 525.554L119.091 521.884L122.289 508.175L211.681 455.154Z" fill="white" fill-opacity="0.29"/>
<defs>
<filter id="filter0_d_504_811" x="383.993" y="199.3" width="455.812" height="182.2" filterUnits="userSpaceOnUse" color-interpolation-filters="sRGB">
<feFlood flood-opacity="0" result="BackgroundImageFix"/>
<feColorMatrix in="SourceAlpha" type="matrix" values="0 0 0 0 0 0 0 0 0 0 0 0 0 0 0 0 0 0 127 0" result="hardAlpha"/>
<feOffset dy="4"/>
<feGaussianBlur stdDeviation="3.5"/>
<feComposite in2="hardAlpha" operator="out"/>
<feColorMatrix type="matrix" values="0 0 0 0 0 0 0 0 0 0 0 0 0 0 0 0 0 0 0.2 0"/>
<feBlend mode="normal" in2="BackgroundImageFix" result="effect1_dropShadow_504_811"/>
<feBlend mode="normal" in="SourceGraphic" in2="effect1_dropShadow_504_811" result="shape"/>
</filter>
<filter id="filter1_d_504_811" x="378.898" y="395.786" width="463.606" height="49.9102" filterUnits="userSpaceOnUse" color-interpolation-filters="sRGB">
<feFlood flood-opacity="0" result="BackgroundImageFix"/>
<feColorMatrix in="SourceAlpha" type="matrix" values="0 0 0 0 0 0 0 0 0 0 0 0 0 0 0 0 0 0 127 0" result="hardAlpha"/>
<feOffset dy="4"/>
<feGaussianBlur stdDeviation="3.5"/>
<feComposite in2="hardAlpha" operator="out"/>
<feColorMatrix type="matrix" values="0 0 0 0 0 0 0 0 0 0 0 0 0 0 0 0 0 0 0.2 0"/>
<feBlend mode="normal" in2="BackgroundImageFix" result="effect1_dropShadow_504_811"/>
<feBlend mode="normal" in="SourceGraphic" in2="effect1_dropShadow_504_811" result="shape"/>
</filter>
<clipPath id="clip0_504_811">
<rect width="54.2308" height="54.2308" fill="white" transform="translate(1047.9 265.033) rotate(23.1015)"/>
</clipPath>
<clipPath id="clip1_504_811">
<rect width="54.725" height="54.725" fill="white" transform="translate(921.376 528.488) rotate(-20.408)"/>
</clipPath>
<clipPath id="clip2_504_811">
<rect width="29" height="29" fill="white" transform="translate(406 137)"/>
</clipPath>
<clipPath id="clip3_504_811">
<rect width="29" height="29" fill="white" transform="translate(782 460)"/>
</clipPath>
</defs>
</svg>
