<svg width="99" height="316" viewBox="0 0 99 316" fill="none" xmlns="http://www.w3.org/2000/svg">
<path d="M40 2.50018C27.5001 4.50006 20.9889 3.90104 14.5 10.0001C9.79037 14.4269 6.76115 22.2012 5.57162 25.7019C5.1668 26.8933 4.9459 28.1271 4.83569 29.3805C4.37182 34.6563 3.01985 49.811 2.00014 59C0.334468 74.0099 0.0200135 101.123 0.000960548 102.907C0.000267657 102.972 0 103.033 0 103.098V231.5C0 231.5 0 231.5 0 231.5C0 231.5 0 244.5 1 255C1.81376 263.545 3.28974 270.103 3.81127 272.249C3.9333 272.751 4.04439 273.251 4.15938 273.755C4.75484 276.364 6.94627 284.12 9.5 270.5C12.5 254.501 12.5 212 12.5 212C12.5 212 12.5 212 12.5 212C12.5 191.913 12.5 141.712 12.5 135.2C12.5 134.725 12.517 134.263 12.5508 133.788L16 85.5002C16.9091 72.2535 16.9099 68.1786 20 53.5004C22 44.0004 24.3403 33.8895 29.5 27.5001C34.0257 21.8957 36.4198 20.4314 43 17.5001C50.1813 14.3011 49.9426 15.6652 57.5001 13.5001C63.2455 11.8543 74.0206 10.5186 77.4342 10.1211C78.1483 10.0379 78.8557 10.0021 79.5729 9.95168C82.2184 9.76551 89.3592 8.86417 96.5 4.50037C105.5 -0.999605 79.0826 0.500302 66 0.500302C55.6511 0.500302 52.5 0.500302 40 2.50018Z" fill="white"/>
<path d="M15 304C15 310.627 11.866 316 8 316C4.13401 316 1 310.627 1 304C1 297.373 4.13401 292 8 292C11.866 292 15 297.373 15 304Z" fill="white"/>
</svg>
