<svg width="88" height="71" viewBox="0 0 88 71" fill="none" xmlns="http://www.w3.org/2000/svg">
<path fill-rule="evenodd" clip-rule="evenodd" d="M20.0488 16.9071C41.3325 34.8333 40.2102 33.7864 40.4898 35.9761C40.7482 38.0004 40.743 38.0099 33.4976 48.7153C29.93 53.9864 27.0504 58.331 27.0987 58.3697C27.1468 58.4083 30.4705 54.4209 34.4845 49.5087C42.6364 39.5329 42.6455 39.5238 44.5947 39.2749C46.7047 39.0055 45.4473 38.1401 67.4967 55.0377C78.4163 63.4058 87.3836 70.2484 87.4242 70.2432C87.4646 70.2381 87.4933 70.1993 87.4879 70.1568C87.4825 70.1144 78.8543 62.8165 68.3141 53.9391C47.0316 36.0141 48.1524 37.0596 47.873 34.8708C47.6147 32.8481 47.6209 32.8365 54.864 22.1304C58.4306 16.8586 61.3093 12.5137 61.2613 12.4749C61.2131 12.4362 57.89 16.4244 53.8769 21.3374C45.7262 31.3153 45.7187 31.3229 43.768 31.572C41.6586 31.8413 42.915 32.706 20.8662 15.809C9.9467 7.44087 0.979418 0.598452 0.938701 0.60365C0.898139 0.608829 0.869372 0.647466 0.874726 0.6894C0.880099 0.731493 9.5085 8.02936 20.0488 16.9071Z" fill="#FEC701"/>
</svg>
