<svg width="635" height="211" viewBox="0 0 635 211" fill="none" xmlns="http://www.w3.org/2000/svg">
<rect y="47" width="635" height="164" rx="30" fill="#FFB5C3"/>
<path d="M519.935 33.1889C520.807 27.7354 525.936 24.0218 531.389 24.8943L611.861 37.7694C617.314 38.6419 621.028 43.7702 620.155 49.2236L606.752 132.996C604.571 146.63 591.75 155.914 578.116 153.732L527.268 145.597C513.634 143.415 504.35 130.595 506.532 116.961L519.935 33.1889Z" fill="#850014"/>
<path d="M519.935 33.1889C520.807 27.7354 525.936 24.0218 531.389 24.8943L611.861 37.7694C617.314 38.6419 621.028 43.7702 620.155 49.2236L611.979 100.327C607.551 128.002 581.527 146.848 553.851 142.42V142.42C526.176 137.992 507.331 111.967 511.759 84.292L519.935 33.1889Z" fill="#46C4FF"/>
<path d="M519.935 33.1889C520.808 27.7354 525.936 24.0218 531.389 24.8943L611.861 37.7694C617.314 38.6419 621.028 43.7702 620.156 49.2236L607.754 126.738C605.659 139.827 593.352 148.739 580.263 146.645L527.44 138.194C514.352 136.1 505.439 123.792 507.533 110.704L519.935 33.1889Z" fill="#E10531"/>
<path d="M536.33 39.0812C536.418 38.5358 536.93 38.1645 537.476 38.2517L603.119 48.7544C603.665 48.8417 604.036 49.3545 603.949 49.8998L595.993 99.6264C593.005 118.299 575.447 131.014 556.774 128.026V128.026C538.102 125.039 525.387 107.48 528.374 88.8077L536.33 39.0812Z" fill="#AE001A"/>
<path d="M552.308 61.5464L551.952 63.769L549.73 63.4134L547.507 63.0578L547.151 65.2804L546.796 67.503L544.573 67.1474L542.351 66.7918L540.661 77.3492L538.972 87.9066L541.195 88.2622L543.417 88.6178L543.062 90.8404L542.706 93.063L544.929 93.4186C547.096 93.7654 547.143 93.8298 546.84 95.719C546.547 97.5527 546.64 97.6816 548.474 97.975C550.363 98.2772 550.41 98.3417 550.063 100.509L549.708 102.731L551.93 103.087L554.153 103.443L553.797 105.665L553.442 107.888L559.832 108.91L566.222 109.933L566.577 107.71L566.933 105.487L569.155 105.843L571.378 106.199L571.734 103.976C572.08 101.809 572.145 101.762 574.034 102.064C575.868 102.358 575.997 102.264 576.29 100.431C576.592 98.5416 576.657 98.4949 578.824 98.8416L581.046 99.1973L581.402 96.9746L581.758 94.752L583.98 95.1076L586.203 95.4632L587.892 84.9058L589.581 74.3485L587.358 73.9928L585.136 73.6372L585.491 71.4146L585.847 69.192L583.624 68.8364L581.402 68.4808L581.757 66.2582L582.113 64.0356L579.89 63.68L577.668 63.3244L577.312 65.547L576.957 67.7696L574.734 67.414L572.511 67.0584L572.156 69.281C571.809 71.448 571.745 71.4947 569.855 71.1924C568.022 70.8991 567.893 70.9924 567.599 72.8261C567.306 74.6597 567.177 74.7531 565.343 74.4597C563.51 74.1663 563.416 74.0374 563.71 72.2038C564.003 70.3701 563.91 70.2412 562.076 69.9478C560.187 69.6456 560.14 69.5811 560.487 67.4141L560.843 65.1914L558.62 64.8358L556.397 64.4802L556.753 62.2576L557.109 60.035L554.886 59.6794L552.663 59.3238L552.308 61.5464Z" fill="#6B0015"/>
<path d="M597.322 35.1567L613.283 37.9974L614.394 38.794L615.505 39.591L616.616 40.3879L618.234 41.8851L619.152 43.8895L620.048 48.3673L617.261 65.7851L566.103 101.213L514.945 136.64L512.771 133.982L510.924 131.087L509.403 127.955L508.209 124.587L507.341 120.982L507.037 117.468L507.06 113.717L507.669 109.911L509.943 95.6932L597.322 35.1567Z" fill="white" fill-opacity="0.29"/>
<path d="M470.495 91.6653C470.979 90.7277 472.38 90.9575 472.539 92.0006L472.652 92.7405C472.724 93.207 473.087 93.5745 473.553 93.6509L474.292 93.772C475.333 93.9428 475.547 95.3462 474.604 95.8202L473.936 96.1563C473.514 96.3683 473.277 96.8276 473.348 97.2941L473.461 98.034C473.621 99.0771 472.352 99.7147 471.61 98.9645L471.084 98.4324C470.752 98.0969 470.242 98.0132 469.82 98.2252L469.152 98.5613C468.209 99.0352 467.211 98.0258 467.695 97.0882L468.038 96.4232C468.255 96.0039 468.177 95.4929 467.845 95.1574L467.319 94.6252C466.577 93.875 467.228 92.6135 468.269 92.7843L469.008 92.9054C469.474 92.9818 469.935 92.7496 470.152 92.3303L470.495 91.6653Z" fill="#E86A90"/>
<path d="M496.864 79.4775C497.055 80.0479 497.184 80.6284 497.218 81.1977C497.665 88.6992 489.099 93.198 486.483 92.8904C483.866 92.5828 476.418 86.2064 478.38 78.9829C478.529 78.4351 478.773 77.8986 479.075 77.3861C480.884 74.3179 485.085 74.7438 487.747 77.1308C487.943 77.3066 488.224 77.3397 488.452 77.2136C491.535 75.5021 495.722 76.0623 496.864 79.4775Z" fill="#CA001E"/>
<path d="M485.334 105.73C485.693 106.009 486.017 106.321 486.276 106.668C489.695 111.238 486.202 117.865 484.432 118.821C482.661 119.776 475.32 119.001 473.529 113.547C473.393 113.134 473.322 112.685 473.297 112.227C473.148 109.481 475.963 107.904 478.631 108.25C478.828 108.275 479.018 108.173 479.108 107.992C480.327 105.549 483.189 104.063 485.334 105.73Z" fill="#CA001E"/>
<path d="M493.965 134.628C493.992 134.953 493.985 135.275 493.93 135.578C493.198 139.569 488.108 140.766 486.77 140.25C485.432 139.734 482.332 135.383 484.296 131.863C484.445 131.596 484.643 131.348 484.868 131.121C486.216 129.758 488.373 130.551 489.467 132.162C489.548 132.281 489.692 132.337 489.827 132.301C491.671 131.822 493.804 132.684 493.965 134.628Z" fill="#CA001E"/>
<path d="M608.337 154.022C608.821 153.084 610.222 153.314 610.382 154.357L610.495 155.097C610.566 155.563 610.93 155.931 611.395 156.007L612.134 156.128C613.175 156.299 613.389 157.703 612.447 158.177L611.778 158.513C611.357 158.725 611.119 159.184 611.191 159.651L611.304 160.39C611.463 161.434 610.194 162.071 609.452 161.321L608.926 160.789C608.594 160.453 608.084 160.37 607.663 160.582L606.994 160.918C606.051 161.392 605.053 160.382 605.537 159.445L605.881 158.78C606.097 158.36 606.019 157.849 605.687 157.514L605.161 156.982C604.419 156.231 605.07 154.97 606.112 155.141L606.85 155.262C607.316 155.338 607.778 155.106 607.994 154.687L608.337 154.022Z" fill="#E86A90"/>
<path d="M592.758 170.933C592.431 171.438 592.162 171.968 591.99 172.512C589.73 179.682 597.15 186.257 599.824 186.632C602.498 187.007 611.441 182.733 611.241 175.213C611.225 174.643 611.112 174.059 610.936 173.483C609.882 170.038 605.606 169.369 602.384 171.002C602.146 171.122 601.859 171.082 601.664 170.901C599.015 168.445 594.72 167.911 592.758 170.933Z" fill="#CA001E"/>
<path d="M620.07 135.59C619.647 135.768 619.249 135.988 618.908 136.258C614.405 139.816 616.27 147.151 617.797 148.535C619.325 149.919 626.806 151.056 629.906 146.222C630.141 145.855 630.32 145.438 630.456 144.999C631.268 142.371 628.854 140.114 626.119 139.763C625.918 139.737 625.753 139.588 625.708 139.39C625.089 136.703 622.606 134.523 620.07 135.59Z" fill="#CA001E"/>
<path d="M616.843 163.354C616.738 163.662 616.666 163.976 616.648 164.285C616.409 168.35 621.176 170.823 622.63 170.666C624.084 170.51 628.217 167.082 627.117 163.159C627.034 162.861 626.898 162.569 626.729 162.29C625.72 160.62 623.385 160.834 621.908 162.117C621.8 162.212 621.643 162.229 621.517 162.16C619.801 161.219 617.474 161.507 616.843 163.354Z" fill="#CA001E"/>
<path d="M51.646 154.558V157.414H55.006V158.716H51.646V161.698H55.426V163H50.05V153.256H55.426V154.558H51.646ZM66.7298 155.16C67.3365 155.16 67.8778 155.286 68.3538 155.538C68.8391 155.79 69.2171 156.163 69.4878 156.658C69.7678 157.153 69.9078 157.75 69.9078 158.45V163H68.3258V158.688C68.3258 157.997 68.1531 157.47 67.8078 157.106C67.4625 156.733 66.9911 156.546 66.3938 156.546C65.7965 156.546 65.3205 156.733 64.9658 157.106C64.6205 157.47 64.4478 157.997 64.4478 158.688V163H62.8658V158.688C62.8658 157.997 62.6931 157.47 62.3478 157.106C62.0025 156.733 61.5311 156.546 60.9338 156.546C60.3365 156.546 59.8605 156.733 59.5058 157.106C59.1605 157.47 58.9878 157.997 58.9878 158.688V163H57.3918V155.286H58.9878V156.168C59.2491 155.851 59.5805 155.603 59.9818 155.426C60.3831 155.249 60.8125 155.16 61.2698 155.16C61.8858 155.16 62.4365 155.291 62.9218 155.552C63.4071 155.813 63.7805 156.191 64.0418 156.686C64.2751 156.219 64.6391 155.851 65.1338 155.58C65.6285 155.3 66.1605 155.16 66.7298 155.16ZM77.4374 156.588V160.858C77.4374 161.147 77.5027 161.357 77.6334 161.488C77.7734 161.609 78.0067 161.67 78.3334 161.67H79.3134V163H78.0534C77.3347 163 76.7841 162.832 76.4014 162.496C76.0187 162.16 75.8274 161.614 75.8274 160.858V156.588H74.9174V155.286H75.8274V153.368H77.4374V155.286H79.3134V156.588H77.4374ZM87.8544 158.954C87.8544 159.243 87.8357 159.505 87.7984 159.738H81.9044C81.951 160.354 82.1797 160.849 82.5904 161.222C83.001 161.595 83.505 161.782 84.1024 161.782C84.961 161.782 85.5677 161.423 85.9224 160.704H87.6444C87.411 161.413 86.9864 161.997 86.3704 162.454C85.7637 162.902 85.0077 163.126 84.1024 163.126C83.365 163.126 82.7024 162.963 82.1144 162.636C81.5357 162.3 81.0784 161.833 80.7424 161.236C80.4157 160.629 80.2524 159.929 80.2524 159.136C80.2524 158.343 80.411 157.647 80.7284 157.05C81.055 156.443 81.5077 155.977 82.0864 155.65C82.6744 155.323 83.3464 155.16 84.1024 155.16C84.8304 155.16 85.479 155.319 86.0484 155.636C86.6177 155.953 87.061 156.401 87.3784 156.98C87.6957 157.549 87.8544 158.207 87.8544 158.954ZM86.1884 158.45C86.179 157.862 85.969 157.391 85.5584 157.036C85.1477 156.681 84.639 156.504 84.0324 156.504C83.4817 156.504 83.0104 156.681 82.6184 157.036C82.2264 157.381 81.993 157.853 81.9184 158.45H86.1884ZM98.763 155.16C99.3697 155.16 99.911 155.286 100.387 155.538C100.872 155.79 101.25 156.163 101.521 156.658C101.801 157.153 101.941 157.75 101.941 158.45V163H100.359V158.688C100.359 157.997 100.186 157.47 99.841 157.106C99.4957 156.733 99.0243 156.546 98.427 156.546C97.8297 156.546 97.3537 156.733 96.999 157.106C96.6537 157.47 96.481 157.997 96.481 158.688V163H94.899V158.688C94.899 157.997 94.7263 157.47 94.381 157.106C94.0357 156.733 93.5643 156.546 92.967 156.546C92.3697 156.546 91.8937 156.733 91.539 157.106C91.1937 157.47 91.021 157.997 91.021 158.688V163H89.425V155.286H91.021V156.168C91.2823 155.851 91.6137 155.603 92.015 155.426C92.4163 155.249 92.8457 155.16 93.303 155.16C93.919 155.16 94.4697 155.291 94.955 155.552C95.4403 155.813 95.8137 156.191 96.075 156.686C96.3083 156.219 96.6723 155.851 97.167 155.58C97.6617 155.3 98.1937 155.16 98.763 155.16ZM105.568 156.42C105.839 156.065 106.207 155.767 106.674 155.524C107.141 155.281 107.668 155.16 108.256 155.16C108.928 155.16 109.539 155.328 110.09 155.664C110.65 155.991 111.089 156.453 111.406 157.05C111.723 157.647 111.882 158.333 111.882 159.108C111.882 159.883 111.723 160.578 111.406 161.194C111.089 161.801 110.65 162.277 110.09 162.622C109.539 162.958 108.928 163.126 108.256 163.126C107.668 163.126 107.145 163.009 106.688 162.776C106.231 162.533 105.857 162.235 105.568 161.88V166.668H103.972V155.286H105.568V156.42ZM110.258 159.108C110.258 158.576 110.146 158.119 109.922 157.736C109.707 157.344 109.418 157.05 109.054 156.854C108.699 156.649 108.317 156.546 107.906 156.546C107.505 156.546 107.122 156.649 106.758 156.854C106.403 157.059 106.114 157.358 105.89 157.75C105.675 158.142 105.568 158.604 105.568 159.136C105.568 159.668 105.675 160.135 105.89 160.536C106.114 160.928 106.403 161.227 106.758 161.432C107.122 161.637 107.505 161.74 107.906 161.74C108.317 161.74 108.699 161.637 109.054 161.432C109.418 161.217 109.707 160.909 109.922 160.508C110.146 160.107 110.258 159.64 110.258 159.108ZM116.806 163.126C116.078 163.126 115.42 162.963 114.832 162.636C114.244 162.3 113.782 161.833 113.446 161.236C113.11 160.629 112.942 159.929 112.942 159.136C112.942 158.352 113.115 157.657 113.46 157.05C113.805 156.443 114.277 155.977 114.874 155.65C115.471 155.323 116.139 155.16 116.876 155.16C117.613 155.16 118.281 155.323 118.878 155.65C119.475 155.977 119.947 156.443 120.292 157.05C120.637 157.657 120.81 158.352 120.81 159.136C120.81 159.92 120.633 160.615 120.278 161.222C119.923 161.829 119.438 162.3 118.822 162.636C118.215 162.963 117.543 163.126 116.806 163.126ZM116.806 161.74C117.217 161.74 117.599 161.642 117.954 161.446C118.318 161.25 118.612 160.956 118.836 160.564C119.06 160.172 119.172 159.696 119.172 159.136C119.172 158.576 119.065 158.105 118.85 157.722C118.635 157.33 118.351 157.036 117.996 156.84C117.641 156.644 117.259 156.546 116.848 156.546C116.437 156.546 116.055 156.644 115.7 156.84C115.355 157.036 115.079 157.33 114.874 157.722C114.669 158.105 114.566 158.576 114.566 159.136C114.566 159.967 114.776 160.611 115.196 161.068C115.625 161.516 116.162 161.74 116.806 161.74ZM125.188 163.126C124.581 163.126 124.035 163.019 123.55 162.804C123.074 162.58 122.696 162.281 122.416 161.908C122.136 161.525 121.987 161.101 121.968 160.634H123.62C123.648 160.961 123.802 161.236 124.082 161.46C124.371 161.675 124.731 161.782 125.16 161.782C125.608 161.782 125.953 161.698 126.196 161.53C126.448 161.353 126.574 161.129 126.574 160.858C126.574 160.569 126.434 160.354 126.154 160.214C125.883 160.074 125.449 159.92 124.852 159.752C124.273 159.593 123.802 159.439 123.438 159.29C123.074 159.141 122.757 158.912 122.486 158.604C122.225 158.296 122.094 157.89 122.094 157.386C122.094 156.975 122.215 156.602 122.458 156.266C122.701 155.921 123.046 155.65 123.494 155.454C123.951 155.258 124.474 155.16 125.062 155.16C125.939 155.16 126.644 155.384 127.176 155.832C127.717 156.271 128.007 156.873 128.044 157.638H126.448C126.42 157.293 126.28 157.017 126.028 156.812C125.776 156.607 125.435 156.504 125.006 156.504C124.586 156.504 124.264 156.583 124.04 156.742C123.816 156.901 123.704 157.111 123.704 157.372C123.704 157.577 123.779 157.75 123.928 157.89C124.077 158.03 124.259 158.142 124.474 158.226C124.689 158.301 125.006 158.399 125.426 158.52C125.986 158.669 126.443 158.823 126.798 158.982C127.162 159.131 127.475 159.355 127.736 159.654C127.997 159.953 128.133 160.349 128.142 160.844C128.142 161.283 128.021 161.675 127.778 162.02C127.535 162.365 127.19 162.636 126.742 162.832C126.303 163.028 125.785 163.126 125.188 163.126ZM132.971 159.108C132.971 158.333 133.13 157.647 133.447 157.05C133.774 156.453 134.212 155.991 134.763 155.664C135.323 155.328 135.944 155.16 136.625 155.16C137.129 155.16 137.624 155.272 138.109 155.496C138.604 155.711 138.996 156 139.285 156.364V152.64H140.895V163H139.285V161.838C139.024 162.211 138.66 162.519 138.193 162.762C137.736 163.005 137.208 163.126 136.611 163.126C135.939 163.126 135.323 162.958 134.763 162.622C134.212 162.277 133.774 161.801 133.447 161.194C133.13 160.578 132.971 159.883 132.971 159.108ZM139.285 159.136C139.285 158.604 139.173 158.142 138.949 157.75C138.734 157.358 138.45 157.059 138.095 156.854C137.74 156.649 137.358 156.546 136.947 156.546C136.536 156.546 136.154 156.649 135.799 156.854C135.444 157.05 135.155 157.344 134.931 157.736C134.716 158.119 134.609 158.576 134.609 159.108C134.609 159.64 134.716 160.107 134.931 160.508C135.155 160.909 135.444 161.217 135.799 161.432C136.163 161.637 136.546 161.74 136.947 161.74C137.358 161.74 137.74 161.637 138.095 161.432C138.45 161.227 138.734 160.928 138.949 160.536C139.173 160.135 139.285 159.668 139.285 159.136ZM143.803 154.264C143.514 154.264 143.271 154.166 143.075 153.97C142.879 153.774 142.781 153.531 142.781 153.242C142.781 152.953 142.879 152.71 143.075 152.514C143.271 152.318 143.514 152.22 143.803 152.22C144.083 152.22 144.321 152.318 144.517 152.514C144.713 152.71 144.811 152.953 144.811 153.242C144.811 153.531 144.713 153.774 144.517 153.97C144.321 154.166 144.083 154.264 143.803 154.264ZM144.587 155.286V163H142.991V155.286H144.587ZM149.917 156.588H148.489V163H146.879V156.588H145.969V155.286H146.879V154.74C146.879 153.853 147.112 153.209 147.579 152.808C148.055 152.397 148.797 152.192 149.805 152.192V153.522C149.319 153.522 148.979 153.615 148.783 153.802C148.587 153.979 148.489 154.292 148.489 154.74V155.286H149.917V156.588ZM152.927 155.286V163H151.331V155.286H152.927ZM153.571 153.214L150.477 154.74V153.564L153.571 151.856V153.214ZM154.491 159.136C154.491 158.343 154.649 157.647 154.967 157.05C155.293 156.443 155.741 155.977 156.311 155.65C156.88 155.323 157.533 155.16 158.271 155.16C159.204 155.16 159.974 155.384 160.581 155.832C161.197 156.271 161.612 156.901 161.827 157.722H160.105C159.965 157.339 159.741 157.041 159.433 156.826C159.125 156.611 158.737 156.504 158.271 156.504C157.617 156.504 157.095 156.737 156.703 157.204C156.32 157.661 156.129 158.305 156.129 159.136C156.129 159.967 156.32 160.615 156.703 161.082C157.095 161.549 157.617 161.782 158.271 161.782C159.195 161.782 159.806 161.376 160.105 160.564H161.827C161.603 161.348 161.183 161.973 160.567 162.44C159.951 162.897 159.185 163.126 158.271 163.126C157.533 163.126 156.88 162.963 156.311 162.636C155.741 162.3 155.293 161.833 154.967 161.236C154.649 160.629 154.491 159.929 154.491 159.136ZM170.487 158.954C170.487 159.243 170.469 159.505 170.431 159.738H164.537C164.584 160.354 164.813 160.849 165.223 161.222C165.634 161.595 166.138 161.782 166.735 161.782C167.594 161.782 168.201 161.423 168.555 160.704H170.277C170.044 161.413 169.619 161.997 169.003 162.454C168.397 162.902 167.641 163.126 166.735 163.126C165.998 163.126 165.335 162.963 164.747 162.636C164.169 162.3 163.711 161.833 163.375 161.236C163.049 160.629 162.885 159.929 162.885 159.136C162.885 158.343 163.044 157.647 163.361 157.05C163.688 156.443 164.141 155.977 164.719 155.65C165.307 155.323 165.979 155.16 166.735 155.16C167.463 155.16 168.112 155.319 168.681 155.636C169.251 155.953 169.694 156.401 170.011 156.98C170.329 157.549 170.487 158.207 170.487 158.954ZM168.821 158.45C168.812 157.862 168.602 157.391 168.191 157.036C167.781 156.681 167.272 156.504 166.665 156.504C166.115 156.504 165.643 156.681 165.251 157.036C164.859 157.381 164.626 157.853 164.551 158.45H168.821ZM172.87 154.264C172.58 154.264 172.338 154.166 172.142 153.97C171.946 153.774 171.848 153.531 171.848 153.242C171.848 152.953 171.946 152.71 172.142 152.514C172.338 152.318 172.58 152.22 172.87 152.22C173.15 152.22 173.388 152.318 173.584 152.514C173.78 152.71 173.878 152.953 173.878 153.242C173.878 153.531 173.78 153.774 173.584 153.97C173.388 154.166 173.15 154.264 172.87 154.264ZM173.654 155.286V163H172.058V155.286H173.654ZM178.549 163.126C177.943 163.126 177.397 163.019 176.911 162.804C176.435 162.58 176.057 162.281 175.777 161.908C175.497 161.525 175.348 161.101 175.329 160.634H176.981C177.009 160.961 177.163 161.236 177.443 161.46C177.733 161.675 178.092 161.782 178.521 161.782C178.969 161.782 179.315 161.698 179.557 161.53C179.809 161.353 179.935 161.129 179.935 160.858C179.935 160.569 179.795 160.354 179.515 160.214C179.245 160.074 178.811 159.92 178.213 159.752C177.635 159.593 177.163 159.439 176.799 159.29C176.435 159.141 176.118 158.912 175.847 158.604C175.586 158.296 175.455 157.89 175.455 157.386C175.455 156.975 175.577 156.602 175.819 156.266C176.062 155.921 176.407 155.65 176.855 155.454C177.313 155.258 177.835 155.16 178.423 155.16C179.301 155.16 180.005 155.384 180.537 155.832C181.079 156.271 181.368 156.873 181.405 157.638H179.809C179.781 157.293 179.641 157.017 179.389 156.812C179.137 156.607 178.797 156.504 178.367 156.504C177.947 156.504 177.625 156.583 177.401 156.742C177.177 156.901 177.065 157.111 177.065 157.372C177.065 157.577 177.14 157.75 177.289 157.89C177.439 158.03 177.621 158.142 177.835 158.226C178.05 158.301 178.367 158.399 178.787 158.52C179.347 158.669 179.805 158.823 180.159 158.982C180.523 159.131 180.836 159.355 181.097 159.654C181.359 159.953 181.494 160.349 181.503 160.844C181.503 161.283 181.382 161.675 181.139 162.02C180.897 162.365 180.551 162.636 180.103 162.832C179.665 163.028 179.147 163.126 178.549 163.126ZM184.978 161.082L183.284 164.946H182.248L183.242 161.082H184.978ZM189.477 159.108C189.477 158.333 189.636 157.647 189.953 157.05C190.28 156.453 190.718 155.991 191.269 155.664C191.829 155.328 192.445 155.16 193.117 155.16C193.724 155.16 194.251 155.281 194.699 155.524C195.156 155.757 195.52 156.051 195.791 156.406V155.286H197.401V163H195.791V161.852C195.52 162.216 195.152 162.519 194.685 162.762C194.218 163.005 193.686 163.126 193.089 163.126C192.426 163.126 191.82 162.958 191.269 162.622C190.718 162.277 190.28 161.801 189.953 161.194C189.636 160.578 189.477 159.883 189.477 159.108ZM195.791 159.136C195.791 158.604 195.679 158.142 195.455 157.75C195.24 157.358 194.956 157.059 194.601 156.854C194.246 156.649 193.864 156.546 193.453 156.546C193.042 156.546 192.66 156.649 192.305 156.854C191.95 157.05 191.661 157.344 191.437 157.736C191.222 158.119 191.115 158.576 191.115 159.108C191.115 159.64 191.222 160.107 191.437 160.508C191.661 160.909 191.95 161.217 192.305 161.432C192.669 161.637 193.052 161.74 193.453 161.74C193.864 161.74 194.246 161.637 194.601 161.432C194.956 161.227 195.24 160.928 195.455 160.536C195.679 160.135 195.791 159.668 195.791 159.136ZM206.242 155.16C206.839 155.16 207.367 155.281 207.824 155.524C208.291 155.757 208.655 156.051 208.916 156.406V155.286H210.526V163.126C210.526 163.835 210.377 164.465 210.078 165.016C209.779 165.576 209.345 166.015 208.776 166.332C208.216 166.649 207.544 166.808 206.76 166.808C205.715 166.808 204.847 166.561 204.156 166.066C203.465 165.581 203.073 164.918 202.98 164.078H204.562C204.683 164.479 204.94 164.801 205.332 165.044C205.733 165.296 206.209 165.422 206.76 165.422C207.404 165.422 207.922 165.226 208.314 164.834C208.715 164.442 208.916 163.873 208.916 163.126V161.838C208.645 162.202 208.277 162.51 207.81 162.762C207.353 163.005 206.83 163.126 206.242 163.126C205.57 163.126 204.954 162.958 204.394 162.622C203.843 162.277 203.405 161.801 203.078 161.194C202.761 160.578 202.602 159.883 202.602 159.108C202.602 158.333 202.761 157.647 203.078 157.05C203.405 156.453 203.843 155.991 204.394 155.664C204.954 155.328 205.57 155.16 206.242 155.16ZM208.916 159.136C208.916 158.604 208.804 158.142 208.58 157.75C208.365 157.358 208.081 157.059 207.726 156.854C207.371 156.649 206.989 156.546 206.578 156.546C206.167 156.546 205.785 156.649 205.43 156.854C205.075 157.05 204.786 157.344 204.562 157.736C204.347 158.119 204.24 158.576 204.24 159.108C204.24 159.64 204.347 160.107 204.562 160.508C204.786 160.909 205.075 161.217 205.43 161.432C205.794 161.637 206.177 161.74 206.578 161.74C206.989 161.74 207.371 161.637 207.726 161.432C208.081 161.227 208.365 160.928 208.58 160.536C208.804 160.135 208.916 159.668 208.916 159.136ZM219.692 158.954C219.692 159.243 219.674 159.505 219.636 159.738H213.742C213.789 160.354 214.018 160.849 214.428 161.222C214.839 161.595 215.343 161.782 215.94 161.782C216.799 161.782 217.406 161.423 217.76 160.704H219.482C219.249 161.413 218.824 161.997 218.208 162.454C217.602 162.902 216.846 163.126 215.94 163.126C215.203 163.126 214.54 162.963 213.952 162.636C213.374 162.3 212.916 161.833 212.58 161.236C212.254 160.629 212.09 159.929 212.09 159.136C212.09 158.343 212.249 157.647 212.566 157.05C212.893 156.443 213.346 155.977 213.924 155.65C214.512 155.323 215.184 155.16 215.94 155.16C216.668 155.16 217.317 155.319 217.886 155.636C218.456 155.953 218.899 156.401 219.216 156.98C219.534 157.549 219.692 158.207 219.692 158.954ZM218.026 158.45C218.017 157.862 217.807 157.391 217.396 157.036C216.986 156.681 216.477 156.504 215.87 156.504C215.32 156.504 214.848 156.681 214.456 157.036C214.064 157.381 213.831 157.853 213.756 158.45H218.026ZM225.155 155.16C225.762 155.16 226.303 155.286 226.779 155.538C227.264 155.79 227.642 156.163 227.913 156.658C228.184 157.153 228.319 157.75 228.319 158.45V163H226.737V158.688C226.737 157.997 226.564 157.47 226.219 157.106C225.874 156.733 225.402 156.546 224.805 156.546C224.208 156.546 223.732 156.733 223.377 157.106C223.032 157.47 222.859 157.997 222.859 158.688V163H221.263V155.286H222.859V156.168C223.12 155.851 223.452 155.603 223.853 155.426C224.264 155.249 224.698 155.16 225.155 155.16ZM237.425 158.954C237.425 159.243 237.406 159.505 237.369 159.738H231.475C231.521 160.354 231.75 160.849 232.161 161.222C232.571 161.595 233.075 161.782 233.673 161.782C234.531 161.782 235.138 161.423 235.493 160.704H237.215C236.981 161.413 236.557 161.997 235.941 162.454C235.334 162.902 234.578 163.126 233.673 163.126C232.935 163.126 232.273 162.963 231.685 162.636C231.106 162.3 230.649 161.833 230.313 161.236C229.986 160.629 229.823 159.929 229.823 159.136C229.823 158.343 229.981 157.647 230.299 157.05C230.625 156.443 231.078 155.977 231.657 155.65C232.245 155.323 232.917 155.16 233.673 155.16C234.401 155.16 235.049 155.319 235.619 155.636C236.188 155.953 236.631 156.401 236.949 156.98C237.266 157.549 237.425 158.207 237.425 158.954ZM235.759 158.45C235.749 157.862 235.539 157.391 235.129 157.036C234.718 156.681 234.209 156.504 233.603 156.504C233.052 156.504 232.581 156.681 232.189 157.036C231.797 157.381 231.563 157.853 231.489 158.45H235.759ZM240.591 156.406C240.825 156.014 241.133 155.711 241.515 155.496C241.907 155.272 242.369 155.16 242.901 155.16V156.812H242.495C241.87 156.812 241.394 156.971 241.067 157.288C240.75 157.605 240.591 158.156 240.591 158.94V163H238.995V155.286H240.591V156.406ZM247.714 163.126C246.986 163.126 246.328 162.963 245.74 162.636C245.152 162.3 244.69 161.833 244.354 161.236C244.018 160.629 243.85 159.929 243.85 159.136C243.85 158.352 244.023 157.657 244.368 157.05C244.714 156.443 245.185 155.977 245.782 155.65C246.38 155.323 247.047 155.16 247.784 155.16C248.522 155.16 249.189 155.323 249.786 155.65C250.384 155.977 250.855 156.443 251.2 157.05C251.546 157.657 251.718 158.352 251.718 159.136C251.718 159.92 251.541 160.615 251.186 161.222C250.832 161.829 250.346 162.3 249.73 162.636C249.124 162.963 248.452 163.126 247.714 163.126ZM247.714 161.74C248.125 161.74 248.508 161.642 248.862 161.446C249.226 161.25 249.52 160.956 249.744 160.564C249.968 160.172 250.08 159.696 250.08 159.136C250.08 158.576 249.973 158.105 249.758 157.722C249.544 157.33 249.259 157.036 248.904 156.84C248.55 156.644 248.167 156.546 247.756 156.546C247.346 156.546 246.963 156.644 246.608 156.84C246.263 157.036 245.988 157.33 245.782 157.722C245.577 158.105 245.474 158.576 245.474 159.136C245.474 159.967 245.684 160.611 246.104 161.068C246.534 161.516 247.07 161.74 247.714 161.74ZM256.096 163.126C255.489 163.126 254.943 163.019 254.458 162.804C253.982 162.58 253.604 162.281 253.324 161.908C253.044 161.525 252.895 161.101 252.876 160.634H254.528C254.556 160.961 254.71 161.236 254.99 161.46C255.279 161.675 255.639 161.782 256.068 161.782C256.516 161.782 256.861 161.698 257.104 161.53C257.356 161.353 257.482 161.129 257.482 160.858C257.482 160.569 257.342 160.354 257.062 160.214C256.791 160.074 256.357 159.92 255.76 159.752C255.181 159.593 254.71 159.439 254.346 159.29C253.982 159.141 253.665 158.912 253.394 158.604C253.133 158.296 253.002 157.89 253.002 157.386C253.002 156.975 253.123 156.602 253.366 156.266C253.609 155.921 253.954 155.65 254.402 155.454C254.859 155.258 255.382 155.16 255.97 155.16C256.847 155.16 257.552 155.384 258.084 155.832C258.625 156.271 258.915 156.873 258.952 157.638H257.356C257.328 157.293 257.188 157.017 256.936 156.812C256.684 156.607 256.343 156.504 255.914 156.504C255.494 156.504 255.172 156.583 254.948 156.742C254.724 156.901 254.612 157.111 254.612 157.372C254.612 157.577 254.687 157.75 254.836 157.89C254.985 158.03 255.167 158.142 255.382 158.226C255.597 158.301 255.914 158.399 256.334 158.52C256.894 158.669 257.351 158.823 257.706 158.982C258.07 159.131 258.383 159.355 258.644 159.654C258.905 159.953 259.041 160.349 259.05 160.844C259.05 161.283 258.929 161.675 258.686 162.02C258.443 162.365 258.098 162.636 257.65 162.832C257.211 163.028 256.693 163.126 256.096 163.126ZM261.587 154.264C261.297 154.264 261.055 154.166 260.859 153.97C260.663 153.774 260.565 153.531 260.565 153.242C260.565 152.953 260.663 152.71 260.859 152.514C261.055 152.318 261.297 152.22 261.587 152.22C261.867 152.22 262.105 152.318 262.301 152.514C262.497 152.71 262.595 152.953 262.595 153.242C262.595 153.531 262.497 153.774 262.301 153.97C262.105 154.166 261.867 154.264 261.587 154.264ZM262.371 155.286V163H260.775V155.286H262.371ZM263.934 159.108C263.934 158.333 264.093 157.647 264.41 157.05C264.737 156.453 265.175 155.991 265.726 155.664C266.286 155.328 266.907 155.16 267.588 155.16C268.092 155.16 268.587 155.272 269.072 155.496C269.567 155.711 269.959 156 270.248 156.364V152.64H271.858V163H270.248V161.838C269.987 162.211 269.623 162.519 269.156 162.762C268.699 163.005 268.171 163.126 267.574 163.126C266.902 163.126 266.286 162.958 265.726 162.622C265.175 162.277 264.737 161.801 264.41 161.194C264.093 160.578 263.934 159.883 263.934 159.108ZM270.248 159.136C270.248 158.604 270.136 158.142 269.912 157.75C269.697 157.358 269.413 157.059 269.058 156.854C268.703 156.649 268.321 156.546 267.91 156.546C267.499 156.546 267.117 156.649 266.762 156.854C266.407 157.05 266.118 157.344 265.894 157.736C265.679 158.119 265.572 158.576 265.572 159.108C265.572 159.64 265.679 160.107 265.894 160.508C266.118 160.909 266.407 161.217 266.762 161.432C267.126 161.637 267.509 161.74 267.91 161.74C268.321 161.74 268.703 161.637 269.058 161.432C269.413 161.227 269.697 160.928 269.912 160.536C270.136 160.135 270.248 159.668 270.248 159.136ZM273.422 159.108C273.422 158.333 273.581 157.647 273.898 157.05C274.225 156.453 274.664 155.991 275.214 155.664C275.774 155.328 276.39 155.16 277.062 155.16C277.669 155.16 278.196 155.281 278.644 155.524C279.102 155.757 279.466 156.051 279.736 156.406V155.286H281.346V163H279.736V161.852C279.466 162.216 279.097 162.519 278.63 162.762C278.164 163.005 277.632 163.126 277.034 163.126C276.372 163.126 275.765 162.958 275.214 162.622C274.664 162.277 274.225 161.801 273.898 161.194C273.581 160.578 273.422 159.883 273.422 159.108ZM279.736 159.136C279.736 158.604 279.624 158.142 279.4 157.75C279.186 157.358 278.901 157.059 278.546 156.854C278.192 156.649 277.809 156.546 277.398 156.546C276.988 156.546 276.605 156.649 276.25 156.854C275.896 157.05 275.606 157.344 275.382 157.736C275.168 158.119 275.06 158.576 275.06 159.108C275.06 159.64 275.168 160.107 275.382 160.508C275.606 160.909 275.896 161.217 276.25 161.432C276.614 161.637 276.997 161.74 277.398 161.74C277.809 161.74 278.192 161.637 278.546 161.432C278.901 161.227 279.186 160.928 279.4 160.536C279.624 160.135 279.736 159.668 279.736 159.136ZM282.911 159.108C282.911 158.333 283.069 157.647 283.387 157.05C283.713 156.453 284.152 155.991 284.703 155.664C285.263 155.328 285.883 155.16 286.565 155.16C287.069 155.16 287.563 155.272 288.049 155.496C288.543 155.711 288.935 156 289.225 156.364V152.64H290.835V163H289.225V161.838C288.963 162.211 288.599 162.519 288.133 162.762C287.675 163.005 287.148 163.126 286.551 163.126C285.879 163.126 285.263 162.958 284.703 162.622C284.152 162.277 283.713 161.801 283.387 161.194C283.069 160.578 282.911 159.883 282.911 159.108ZM289.225 159.136C289.225 158.604 289.113 158.142 288.889 157.75C288.674 157.358 288.389 157.059 288.035 156.854C287.68 156.649 287.297 156.546 286.887 156.546C286.476 156.546 286.093 156.649 285.739 156.854C285.384 157.05 285.095 157.344 284.871 157.736C284.656 158.119 284.549 158.576 284.549 159.108C284.549 159.64 284.656 160.107 284.871 160.508C285.095 160.909 285.384 161.217 285.739 161.432C286.103 161.637 286.485 161.74 286.887 161.74C287.297 161.74 287.68 161.637 288.035 161.432C288.389 161.227 288.674 160.928 288.889 160.536C289.113 160.135 289.225 159.668 289.225 159.136ZM300.001 158.954C300.001 159.243 299.982 159.505 299.945 159.738H294.051C294.098 160.354 294.326 160.849 294.737 161.222C295.148 161.595 295.652 161.782 296.249 161.782C297.108 161.782 297.714 161.423 298.069 160.704H299.791C299.558 161.413 299.133 161.997 298.517 162.454C297.91 162.902 297.154 163.126 296.249 163.126C295.512 163.126 294.849 162.963 294.261 162.636C293.682 162.3 293.225 161.833 292.889 161.236C292.562 160.629 292.399 159.929 292.399 159.136C292.399 158.343 292.558 157.647 292.875 157.05C293.202 156.443 293.654 155.977 294.233 155.65C294.821 155.323 295.493 155.16 296.249 155.16C296.977 155.16 297.626 155.319 298.195 155.636C298.764 155.953 299.208 156.401 299.525 156.98C299.842 157.549 300.001 158.207 300.001 158.954ZM298.335 158.45C298.326 157.862 298.116 157.391 297.705 157.036C297.294 156.681 296.786 156.504 296.179 156.504C295.628 156.504 295.157 156.681 294.765 157.036C294.373 157.381 294.14 157.853 294.065 158.45H298.335ZM312.278 158.954C312.278 159.243 312.26 159.505 312.222 159.738H306.328C306.375 160.354 306.604 160.849 307.014 161.222C307.425 161.595 307.929 161.782 308.526 161.782C309.385 161.782 309.992 161.423 310.346 160.704H312.068C311.835 161.413 311.41 161.997 310.794 162.454C310.188 162.902 309.432 163.126 308.526 163.126C307.789 163.126 307.126 162.963 306.538 162.636C305.96 162.3 305.502 161.833 305.166 161.236C304.84 160.629 304.676 159.929 304.676 159.136C304.676 158.343 304.835 157.647 305.152 157.05C305.479 156.443 305.932 155.977 306.51 155.65C307.098 155.323 307.77 155.16 308.526 155.16C309.254 155.16 309.903 155.319 310.472 155.636C311.042 155.953 311.485 156.401 311.802 156.98C312.12 157.549 312.278 158.207 312.278 158.954ZM310.612 158.45C310.603 157.862 310.393 157.391 309.982 157.036C309.572 156.681 309.063 156.504 308.456 156.504C307.906 156.504 307.434 156.681 307.042 157.036C306.65 157.381 306.417 157.853 306.342 158.45H310.612ZM309.926 153.214L306.832 154.74V153.564L309.926 151.856V153.214ZM316.954 159.108C316.954 158.333 317.112 157.647 317.43 157.05C317.756 156.453 318.195 155.991 318.746 155.664C319.306 155.328 319.922 155.16 320.594 155.16C321.2 155.16 321.728 155.281 322.176 155.524C322.633 155.757 322.997 156.051 323.268 156.406V155.286H324.878V163H323.268V161.852C322.997 162.216 322.628 162.519 322.162 162.762C321.695 163.005 321.163 163.126 320.566 163.126C319.903 163.126 319.296 162.958 318.746 162.622C318.195 162.277 317.756 161.801 317.43 161.194C317.112 160.578 316.954 159.883 316.954 159.108ZM323.268 159.136C323.268 158.604 323.156 158.142 322.932 157.75C322.717 157.358 322.432 157.059 322.078 156.854C321.723 156.649 321.34 156.546 320.93 156.546C320.519 156.546 320.136 156.649 319.782 156.854C319.427 157.05 319.138 157.344 318.914 157.736C318.699 158.119 318.592 158.576 318.592 159.108C318.592 159.64 318.699 160.107 318.914 160.508C319.138 160.909 319.427 161.217 319.782 161.432C320.146 161.637 320.528 161.74 320.93 161.74C321.34 161.74 321.723 161.637 322.078 161.432C322.432 161.227 322.717 160.928 322.932 160.536C323.156 160.135 323.268 159.668 323.268 159.136ZM332.207 152.64V163H330.611V152.64H332.207ZM341.288 155.286V163H339.692V162.09C339.44 162.407 339.109 162.659 338.698 162.846C338.297 163.023 337.867 163.112 337.41 163.112C336.803 163.112 336.257 162.986 335.772 162.734C335.296 162.482 334.918 162.109 334.638 161.614C334.367 161.119 334.232 160.522 334.232 159.822V155.286H335.814V159.584C335.814 160.275 335.987 160.807 336.332 161.18C336.677 161.544 337.149 161.726 337.746 161.726C338.343 161.726 338.815 161.544 339.16 161.18C339.515 160.807 339.692 160.275 339.692 159.584V155.286H341.288ZM344.808 161.698H348.308V163H342.96V161.698L346.474 156.588H342.96V155.286H348.308V156.588L344.808 161.698ZM353.088 159.108C353.088 158.333 353.247 157.647 353.564 157.05C353.891 156.453 354.33 155.991 354.88 155.664C355.44 155.328 356.061 155.16 356.742 155.16C357.34 155.16 357.867 155.281 358.324 155.524C358.791 155.767 359.15 156.061 359.402 156.406V155.286H361.012V166.668H359.402V161.88C359.15 162.225 358.786 162.519 358.31 162.762C357.834 163.005 357.293 163.126 356.686 163.126C356.024 163.126 355.417 162.958 354.866 162.622C354.325 162.277 353.891 161.801 353.564 161.194C353.247 160.578 353.088 159.883 353.088 159.108ZM359.402 159.136C359.402 158.604 359.29 158.142 359.066 157.75C358.852 157.358 358.567 157.059 358.212 156.854C357.858 156.649 357.475 156.546 357.064 156.546C356.654 156.546 356.271 156.649 355.916 156.854C355.562 157.05 355.272 157.344 355.048 157.736C354.834 158.119 354.726 158.576 354.726 159.108C354.726 159.64 354.834 160.107 355.048 160.508C355.272 160.909 355.562 161.217 355.916 161.432C356.28 161.637 356.663 161.74 357.064 161.74C357.475 161.74 357.858 161.637 358.212 161.432C358.567 161.227 358.852 160.928 359.066 160.536C359.29 160.135 359.402 159.668 359.402 159.136ZM370.095 155.286V163H368.499V162.09C368.247 162.407 367.915 162.659 367.505 162.846C367.103 163.023 366.674 163.112 366.217 163.112C365.61 163.112 365.064 162.986 364.579 162.734C364.103 162.482 363.725 162.109 363.445 161.614C363.174 161.119 363.039 160.522 363.039 159.822V155.286H364.621V159.584C364.621 160.275 364.793 160.807 365.139 161.18C365.484 161.544 365.955 161.726 366.553 161.726C367.15 161.726 367.621 161.544 367.967 161.18C368.321 160.807 368.499 160.275 368.499 159.584V155.286H370.095ZM379.27 158.954C379.27 159.243 379.252 159.505 379.214 159.738H373.32C373.367 160.354 373.596 160.849 374.006 161.222C374.417 161.595 374.921 161.782 375.518 161.782C376.377 161.782 376.984 161.423 377.338 160.704H379.06C378.827 161.413 378.402 161.997 377.786 162.454C377.18 162.902 376.424 163.126 375.518 163.126C374.781 163.126 374.118 162.963 373.53 162.636C372.952 162.3 372.494 161.833 372.158 161.236C371.832 160.629 371.668 159.929 371.668 159.136C371.668 158.343 371.827 157.647 372.144 157.05C372.471 156.443 372.924 155.977 373.502 155.65C374.09 155.323 374.762 155.16 375.518 155.16C376.246 155.16 376.895 155.319 377.464 155.636C378.034 155.953 378.477 156.401 378.794 156.98C379.112 157.549 379.27 158.207 379.27 158.954ZM377.604 158.45C377.595 157.862 377.385 157.391 376.974 157.036C376.564 156.681 376.055 156.504 375.448 156.504C374.898 156.504 374.426 156.681 374.034 157.036C373.642 157.381 373.409 157.853 373.334 158.45H377.604ZM387.586 155.16C388.183 155.16 388.71 155.281 389.168 155.524C389.634 155.757 389.998 156.051 390.26 156.406V155.286H391.87V163.126C391.87 163.835 391.72 164.465 391.422 165.016C391.123 165.576 390.689 166.015 390.12 166.332C389.56 166.649 388.888 166.808 388.104 166.808C387.058 166.808 386.19 166.561 385.5 166.066C384.809 165.581 384.417 164.918 384.324 164.078H385.906C386.027 164.479 386.284 164.801 386.676 165.044C387.077 165.296 387.553 165.422 388.104 165.422C388.748 165.422 389.266 165.226 389.658 164.834C390.059 164.442 390.26 163.873 390.26 163.126V161.838C389.989 162.202 389.62 162.51 389.154 162.762C388.696 163.005 388.174 163.126 387.586 163.126C386.914 163.126 386.298 162.958 385.738 162.622C385.187 162.277 384.748 161.801 384.422 161.194C384.104 160.578 383.946 159.883 383.946 159.108C383.946 158.333 384.104 157.647 384.422 157.05C384.748 156.453 385.187 155.991 385.738 155.664C386.298 155.328 386.914 155.16 387.586 155.16ZM390.26 159.136C390.26 158.604 390.148 158.142 389.924 157.75C389.709 157.358 389.424 157.059 389.07 156.854C388.715 156.649 388.332 156.546 387.922 156.546C387.511 156.546 387.128 156.649 386.774 156.854C386.419 157.05 386.13 157.344 385.906 157.736C385.691 158.119 385.584 158.576 385.584 159.108C385.584 159.64 385.691 160.107 385.906 160.508C386.13 160.909 386.419 161.217 386.774 161.432C387.138 161.637 387.52 161.74 387.922 161.74C388.332 161.74 388.715 161.637 389.07 161.432C389.424 161.227 389.709 160.928 389.924 160.536C390.148 160.135 390.26 159.668 390.26 159.136ZM400.952 155.286V163H399.356V162.09C399.104 162.407 398.773 162.659 398.362 162.846C397.961 163.023 397.531 163.112 397.074 163.112C396.467 163.112 395.921 162.986 395.436 162.734C394.96 162.482 394.582 162.109 394.302 161.614C394.031 161.119 393.896 160.522 393.896 159.822V155.286H395.478V159.584C395.478 160.275 395.651 160.807 395.996 161.18C396.341 161.544 396.813 161.726 397.41 161.726C398.007 161.726 398.479 161.544 398.824 161.18C399.179 160.807 399.356 160.275 399.356 159.584V155.286H400.952ZM403.87 154.264C403.58 154.264 403.338 154.166 403.142 153.97C402.946 153.774 402.848 153.531 402.848 153.242C402.848 152.953 402.946 152.71 403.142 152.514C403.338 152.318 403.58 152.22 403.87 152.22C404.15 152.22 404.388 152.318 404.584 152.514C404.78 152.71 404.878 152.953 404.878 153.242C404.878 153.531 404.78 153.774 404.584 153.97C404.388 154.166 404.15 154.264 403.87 154.264ZM404.654 155.286V163H403.058V155.286H404.654ZM406.217 159.108C406.217 158.333 406.376 157.647 406.693 157.05C407.02 156.453 407.459 155.991 408.009 155.664C408.569 155.328 409.185 155.16 409.857 155.16C410.464 155.16 410.991 155.281 411.439 155.524C411.897 155.757 412.261 156.051 412.531 156.406V155.286H414.141V163H412.531V161.852C412.261 162.216 411.892 162.519 411.425 162.762C410.959 163.005 410.427 163.126 409.829 163.126C409.167 163.126 408.56 162.958 408.009 162.622C407.459 162.277 407.02 161.801 406.693 161.194C406.376 160.578 406.217 159.883 406.217 159.108ZM412.531 159.136C412.531 158.604 412.419 158.142 412.195 157.75C411.981 157.358 411.696 157.059 411.341 156.854C410.987 156.649 410.604 156.546 410.193 156.546C409.783 156.546 409.4 156.649 409.045 156.854C408.691 157.05 408.401 157.344 408.177 157.736C407.963 158.119 407.855 158.576 407.855 159.108C407.855 159.64 407.963 160.107 408.177 160.508C408.401 160.909 408.691 161.217 409.045 161.432C409.409 161.637 409.792 161.74 410.193 161.74C410.604 161.74 410.987 161.637 411.341 161.432C411.696 161.227 411.981 160.928 412.195 160.536C412.419 160.135 412.531 159.668 412.531 159.136ZM423.766 155.16C424.373 155.16 424.914 155.286 425.39 155.538C425.876 155.79 426.254 156.163 426.524 156.658C426.795 157.153 426.93 157.75 426.93 158.45V163H425.348V158.688C425.348 157.997 425.176 157.47 424.83 157.106C424.485 156.733 424.014 156.546 423.416 156.546C422.819 156.546 422.343 156.733 421.988 157.106C421.643 157.47 421.47 157.997 421.47 158.688V163H419.874V155.286H421.47V156.168C421.732 155.851 422.063 155.603 422.464 155.426C422.875 155.249 423.309 155.16 423.766 155.16ZM432.312 163.126C431.584 163.126 430.926 162.963 430.338 162.636C429.75 162.3 429.288 161.833 428.952 161.236C428.616 160.629 428.448 159.929 428.448 159.136C428.448 158.352 428.621 157.657 428.966 157.05C429.311 156.443 429.783 155.977 430.38 155.65C430.977 155.323 431.645 155.16 432.382 155.16C433.119 155.16 433.787 155.323 434.384 155.65C434.981 155.977 435.453 156.443 435.798 157.05C436.143 157.657 436.316 158.352 436.316 159.136C436.316 159.92 436.139 160.615 435.784 161.222C435.429 161.829 434.944 162.3 434.328 162.636C433.721 162.963 433.049 163.126 432.312 163.126ZM432.312 161.74C432.723 161.74 433.105 161.642 433.46 161.446C433.824 161.25 434.118 160.956 434.342 160.564C434.566 160.172 434.678 159.696 434.678 159.136C434.678 158.576 434.571 158.105 434.356 157.722C434.141 157.33 433.857 157.036 433.502 156.84C433.147 156.644 432.765 156.546 432.354 156.546C431.943 156.546 431.561 156.644 431.206 156.84C430.861 157.036 430.585 157.33 430.38 157.722C430.175 158.105 430.072 158.576 430.072 159.136C430.072 159.967 430.282 160.611 430.702 161.068C431.131 161.516 431.668 161.74 432.312 161.74ZM440.694 163.126C440.087 163.126 439.541 163.019 439.056 162.804C438.58 162.58 438.202 162.281 437.922 161.908C437.642 161.525 437.492 161.101 437.474 160.634H439.126C439.154 160.961 439.308 161.236 439.588 161.46C439.877 161.675 440.236 161.782 440.666 161.782C441.114 161.782 441.459 161.698 441.702 161.53C441.954 161.353 442.08 161.129 442.08 160.858C442.08 160.569 441.94 160.354 441.66 160.214C441.389 160.074 440.955 159.92 440.358 159.752C439.779 159.593 439.308 159.439 438.944 159.29C438.58 159.141 438.262 158.912 437.992 158.604C437.73 158.296 437.6 157.89 437.6 157.386C437.6 156.975 437.721 156.602 437.964 156.266C438.206 155.921 438.552 155.65 439 155.454C439.457 155.258 439.98 155.16 440.568 155.16C441.445 155.16 442.15 155.384 442.682 155.832C443.223 156.271 443.512 156.873 443.55 157.638H441.954C441.926 157.293 441.786 157.017 441.534 156.812C441.282 156.607 440.941 156.504 440.512 156.504C440.092 156.504 439.77 156.583 439.546 156.742C439.322 156.901 439.21 157.111 439.21 157.372C439.21 157.577 439.284 157.75 439.434 157.89C439.583 158.03 439.765 158.142 439.98 158.226C440.194 158.301 440.512 158.399 440.932 158.52C441.492 158.669 441.949 158.823 442.304 158.982C442.668 159.131 442.98 159.355 443.242 159.654C443.503 159.953 443.638 160.349 443.648 160.844C443.648 161.283 443.526 161.675 443.284 162.02C443.041 162.365 442.696 162.636 442.248 162.832C441.809 163.028 441.291 163.126 440.694 163.126ZM448.172 163.126C447.566 163.126 447.02 163.019 446.534 162.804C446.058 162.58 445.68 162.281 445.4 161.908C445.12 161.525 444.971 161.101 444.952 160.634H446.604C446.632 160.961 446.786 161.236 447.066 161.46C447.356 161.675 447.715 161.782 448.144 161.782C448.592 161.782 448.938 161.698 449.18 161.53C449.432 161.353 449.558 161.129 449.558 160.858C449.558 160.569 449.418 160.354 449.138 160.214C448.868 160.074 448.434 159.92 447.836 159.752C447.258 159.593 446.786 159.439 446.422 159.29C446.058 159.141 445.741 158.912 445.47 158.604C445.209 158.296 445.078 157.89 445.078 157.386C445.078 156.975 445.2 156.602 445.442 156.266C445.685 155.921 446.03 155.65 446.478 155.454C446.936 155.258 447.458 155.16 448.046 155.16C448.924 155.16 449.628 155.384 450.16 155.832C450.702 156.271 450.991 156.873 451.028 157.638H449.432C449.404 157.293 449.264 157.017 449.012 156.812C448.76 156.607 448.42 156.504 447.99 156.504C447.57 156.504 447.248 156.583 447.024 156.742C446.8 156.901 446.688 157.111 446.688 157.372C446.688 157.577 446.763 157.75 446.912 157.89C447.062 158.03 447.244 158.142 447.458 158.226C447.673 158.301 447.99 158.399 448.41 158.52C448.97 158.669 449.428 158.823 449.782 158.982C450.146 159.131 450.459 159.355 450.72 159.654C450.982 159.953 451.117 160.349 451.126 160.844C451.126 161.283 451.005 161.675 450.762 162.02C450.52 162.365 450.174 162.636 449.726 162.832C449.288 163.028 448.77 163.126 448.172 163.126ZM456.197 163.126C455.469 163.126 454.811 162.963 454.223 162.636C453.635 162.3 453.173 161.833 452.837 161.236C452.501 160.629 452.333 159.929 452.333 159.136C452.333 158.352 452.505 157.657 452.851 157.05C453.196 156.443 453.667 155.977 454.265 155.65C454.862 155.323 455.529 155.16 456.267 155.16C457.004 155.16 457.671 155.323 458.269 155.65C458.866 155.977 459.337 156.443 459.683 157.05C460.028 157.657 460.201 158.352 460.201 159.136C460.201 159.92 460.023 160.615 459.669 161.222C459.314 161.829 458.829 162.3 458.213 162.636C457.606 162.963 456.934 163.126 456.197 163.126ZM456.197 161.74C456.607 161.74 456.99 161.642 457.345 161.446C457.709 161.25 458.003 160.956 458.227 160.564C458.451 160.172 458.563 159.696 458.563 159.136C458.563 158.576 458.455 158.105 458.241 157.722C458.026 157.33 457.741 157.036 457.387 156.84C457.032 156.644 456.649 156.546 456.239 156.546C455.828 156.546 455.445 156.644 455.091 156.84C454.745 157.036 454.47 157.33 454.265 157.722C454.059 158.105 453.957 158.576 453.957 159.136C453.957 159.967 454.167 160.611 454.587 161.068C455.016 161.516 455.553 161.74 456.197 161.74ZM49.518 180.136C49.518 179.343 49.6767 178.647 49.994 178.05C50.3207 177.443 50.7687 176.977 51.338 176.65C51.9073 176.323 52.5607 176.16 53.298 176.16C54.2313 176.16 55.0013 176.384 55.608 176.832C56.224 177.271 56.6393 177.901 56.854 178.722H55.132C54.992 178.339 54.768 178.041 54.46 177.826C54.152 177.611 53.7647 177.504 53.298 177.504C52.6447 177.504 52.122 177.737 51.73 178.204C51.3473 178.661 51.156 179.305 51.156 180.136C51.156 180.967 51.3473 181.615 51.73 182.082C52.122 182.549 52.6447 182.782 53.298 182.782C54.222 182.782 54.8333 182.376 55.132 181.564H56.854C56.63 182.348 56.21 182.973 55.594 183.44C54.978 183.897 54.2127 184.126 53.298 184.126C52.5607 184.126 51.9073 183.963 51.338 183.636C50.7687 183.3 50.3207 182.833 49.994 182.236C49.6767 181.629 49.518 180.929 49.518 180.136ZM57.9125 180.108C57.9125 179.333 58.0712 178.647 58.3885 178.05C58.7152 177.453 59.1539 176.991 59.7045 176.664C60.2645 176.328 60.8805 176.16 61.5525 176.16C62.1592 176.16 62.6865 176.281 63.1345 176.524C63.5919 176.757 63.9559 177.051 64.2265 177.406V176.286H65.8365V184H64.2265V182.852C63.9559 183.216 63.5872 183.519 63.1205 183.762C62.6539 184.005 62.1219 184.126 61.5245 184.126C60.8619 184.126 60.2552 183.958 59.7045 183.622C59.1539 183.277 58.7152 182.801 58.3885 182.194C58.0712 181.578 57.9125 180.883 57.9125 180.108ZM64.2265 180.136C64.2265 179.604 64.1145 179.142 63.8905 178.75C63.6759 178.358 63.3912 178.059 63.0365 177.854C62.6819 177.649 62.2992 177.546 61.8885 177.546C61.4779 177.546 61.0952 177.649 60.7405 177.854C60.3859 178.05 60.0965 178.344 59.8725 178.736C59.6579 179.119 59.5505 179.576 59.5505 180.108C59.5505 180.64 59.6579 181.107 59.8725 181.508C60.0965 181.909 60.3859 182.217 60.7405 182.432C61.1045 182.637 61.4872 182.74 61.8885 182.74C62.2992 182.74 62.6819 182.637 63.0365 182.432C63.3912 182.227 63.6759 181.928 63.8905 181.536C64.1145 181.135 64.2265 180.668 64.2265 180.136ZM77.2708 176.16C77.8775 176.16 78.4188 176.286 78.8948 176.538C79.3801 176.79 79.7581 177.163 80.0288 177.658C80.3088 178.153 80.4488 178.75 80.4488 179.45V184H78.8668V179.688C78.8668 178.997 78.6941 178.47 78.3488 178.106C78.0035 177.733 77.5321 177.546 76.9348 177.546C76.3375 177.546 75.8615 177.733 75.5068 178.106C75.1615 178.47 74.9888 178.997 74.9888 179.688V184H73.4068V179.688C73.4068 178.997 73.2341 178.47 72.8888 178.106C72.5435 177.733 72.0721 177.546 71.4748 177.546C70.8775 177.546 70.4015 177.733 70.0468 178.106C69.7015 178.47 69.5288 178.997 69.5288 179.688V184H67.9328V176.286H69.5288V177.168C69.7901 176.851 70.1215 176.603 70.5228 176.426C70.9241 176.249 71.3535 176.16 71.8108 176.16C72.4268 176.16 72.9775 176.291 73.4628 176.552C73.9481 176.813 74.3215 177.191 74.5828 177.686C74.8161 177.219 75.1801 176.851 75.6748 176.58C76.1695 176.3 76.7015 176.16 77.2708 176.16ZM83.2917 175.264C83.0024 175.264 82.7597 175.166 82.5637 174.97C82.3677 174.774 82.2697 174.531 82.2697 174.242C82.2697 173.953 82.3677 173.71 82.5637 173.514C82.7597 173.318 83.0024 173.22 83.2917 173.22C83.5717 173.22 83.8097 173.318 84.0057 173.514C84.2017 173.71 84.2997 173.953 84.2997 174.242C84.2997 174.531 84.2017 174.774 84.0057 174.97C83.8097 175.166 83.5717 175.264 83.2917 175.264ZM84.0757 176.286V184H82.4797V176.286H84.0757ZM90.0631 176.16C90.6698 176.16 91.2111 176.286 91.6871 176.538C92.1724 176.79 92.5504 177.163 92.8211 177.658C93.0918 178.153 93.2271 178.75 93.2271 179.45V184H91.6451V179.688C91.6451 178.997 91.4724 178.47 91.1271 178.106C90.7818 177.733 90.3104 177.546 89.7131 177.546C89.1158 177.546 88.6398 177.733 88.2851 178.106C87.9398 178.47 87.7671 178.997 87.7671 179.688V184H86.1711V176.286H87.7671V177.168C88.0284 176.851 88.3598 176.603 88.7611 176.426C89.1718 176.249 89.6058 176.16 90.0631 176.16ZM99.2529 176.16C99.8409 176.16 100.364 176.286 100.821 176.538C101.288 176.79 101.652 177.163 101.913 177.658C102.184 178.153 102.319 178.75 102.319 179.45V184H100.737V179.688C100.737 178.997 100.564 178.47 100.219 178.106C99.8736 177.733 99.4022 177.546 98.8049 177.546C98.2076 177.546 97.7316 177.733 97.3769 178.106C97.0316 178.47 96.8589 178.997 96.8589 179.688V184H95.2629V173.64H96.8589V177.182C97.1296 176.855 97.4702 176.603 97.8809 176.426C98.3009 176.249 98.7582 176.16 99.2529 176.16ZM107.701 184.126C106.973 184.126 106.315 183.963 105.727 183.636C105.139 183.3 104.677 182.833 104.341 182.236C104.005 181.629 103.837 180.929 103.837 180.136C103.837 179.352 104.009 178.657 104.355 178.05C104.7 177.443 105.171 176.977 105.769 176.65C106.366 176.323 107.033 176.16 107.771 176.16C108.508 176.16 109.175 176.323 109.773 176.65C110.37 176.977 110.841 177.443 111.187 178.05C111.532 178.657 111.705 179.352 111.705 180.136C111.705 180.92 111.527 181.615 111.173 182.222C110.818 182.829 110.333 183.3 109.717 183.636C109.11 183.963 108.438 184.126 107.701 184.126ZM107.701 182.74C108.111 182.74 108.494 182.642 108.849 182.446C109.213 182.25 109.507 181.956 109.731 181.564C109.955 181.172 110.067 180.696 110.067 180.136C110.067 179.576 109.959 179.105 109.745 178.722C109.53 178.33 109.245 178.036 108.891 177.84C108.536 177.644 108.153 177.546 107.743 177.546C107.332 177.546 106.949 177.644 106.595 177.84C106.249 178.036 105.974 178.33 105.769 178.722C105.563 179.105 105.461 179.576 105.461 180.136C105.461 180.967 105.671 181.611 106.091 182.068C106.52 182.516 107.057 182.74 107.701 182.74ZM113.926 184.098C113.637 184.098 113.394 184 113.198 183.804C113.002 183.608 112.904 183.365 112.904 183.076C112.904 182.787 113.002 182.544 113.198 182.348C113.394 182.152 113.637 182.054 113.926 182.054C114.206 182.054 114.444 182.152 114.64 182.348C114.836 182.544 114.934 182.787 114.934 183.076C114.934 183.365 114.836 183.608 114.64 183.804C114.444 184 114.206 184.098 113.926 184.098Z" fill="#6B0015"/>
<path d="M52.46 90.74C52.9933 90.74 53.5667 90.6867 54.18 90.58C54.8067 90.4733 55.36 90.3333 55.84 90.16V93.44C55.1067 93.7333 54.44 93.9333 53.84 94.04C53.2533 94.16 52.6333 94.22 51.98 94.22C50.78 94.22 49.8267 94.0933 49.12 93.84C48.4267 93.5733 47.8733 93.1533 47.46 92.58C47.1133 92.0733 46.8533 91.42 46.68 90.62C46.5067 89.82 46.42 88.8533 46.42 87.72C46.42 85.4933 46.9133 83.86 47.9 82.82C48.8867 81.78 50.46 81.26 52.62 81.26C53.2333 81.26 53.78 81.2733 54.26 81.3C54.74 81.3267 55.1733 81.3733 55.56 81.44V84.7C55.1333 84.6733 54.6867 84.6533 54.22 84.64C53.7533 84.6267 53.2333 84.62 52.66 84.62C51.6867 84.62 51.0467 84.84 50.74 85.28C50.4333 85.7067 50.28 86.52 50.28 87.72C50.28 88.8533 50.42 89.64 50.7 90.08C50.9933 90.52 51.58 90.74 52.46 90.74ZM66.5367 89.06C66.5367 90.9133 66.1501 92.24 65.3767 93.04C64.6034 93.8267 63.3167 94.22 61.5167 94.22C59.7434 94.22 58.4634 93.82 57.6767 93.02C56.9034 92.2067 56.5167 90.8867 56.5167 89.06C56.5167 87.22 56.8967 85.9067 57.6567 85.12C58.4301 84.32 59.7167 83.92 61.5167 83.92C63.3034 83.92 64.5834 84.32 65.3567 85.12C66.1434 85.92 66.5367 87.2333 66.5367 89.06ZM60.1167 89.02C60.1167 89.7933 60.2034 90.3 60.3767 90.54C60.5501 90.7667 60.9301 90.88 61.5167 90.88C62.1167 90.88 62.5034 90.7667 62.6767 90.54C62.8501 90.3 62.9367 89.7933 62.9367 89.02C62.9367 88.2467 62.8501 87.7467 62.6767 87.52C62.5034 87.28 62.1167 87.16 61.5167 87.16C60.9301 87.16 60.5501 87.28 60.3767 87.52C60.2034 87.7467 60.1167 88.2467 60.1167 89.02ZM71.198 94H67.598V84.12H70.958L71.078 84.88H71.118C71.5313 84.5733 71.938 84.34 72.338 84.18C72.7513 84.02 73.1513 83.94 73.538 83.94H73.878V87.42C73.5713 87.3933 73.3646 87.38 73.258 87.38C73.1646 87.3667 73.0646 87.36 72.958 87.36C72.6246 87.36 72.3113 87.38 72.018 87.42C71.7246 87.46 71.4513 87.52 71.198 87.6V94ZM76.6958 94.22C75.7358 94.22 75.0358 93.9667 74.5958 93.46C74.1558 92.9533 73.9358 92.16 73.9358 91.08C73.9358 90.0133 74.2091 89.2533 74.7558 88.8C75.3158 88.3467 76.2424 88.12 77.5358 88.12C77.8424 88.12 78.1491 88.1333 78.4558 88.16C78.7758 88.1867 79.0558 88.22 79.2958 88.26V87.76C79.2958 87.4933 79.1691 87.3067 78.9158 87.2C78.6624 87.08 78.2491 87.02 77.6758 87.02C77.1291 87.02 76.6291 87.0333 76.1758 87.06C75.7358 87.0867 75.2891 87.14 74.8358 87.22V84.28C75.3291 84.16 75.9224 84.0733 76.6158 84.02C77.3224 83.9533 78.1291 83.92 79.0358 83.92C80.2891 83.92 81.2424 84.2 81.8958 84.76C82.5624 85.3067 82.8958 86.1133 82.8958 87.18V94H79.4958L79.3958 93.22H79.3358C78.9358 93.5533 78.5091 93.8067 78.0558 93.98C77.6158 94.14 77.1624 94.22 76.6958 94.22ZM78.1158 90.16C77.7691 90.16 77.5224 90.2133 77.3758 90.32C77.2424 90.4133 77.1758 90.5933 77.1758 90.86C77.1758 91.1267 77.2291 91.3133 77.3358 91.42C77.4558 91.5133 77.6558 91.56 77.9358 91.56C78.1624 91.56 78.3958 91.54 78.6358 91.5C78.8891 91.4467 79.1091 91.38 79.2958 91.3V90.24C79.1091 90.2133 78.9158 90.1933 78.7158 90.18C78.5291 90.1667 78.3291 90.16 78.1158 90.16ZM91.0195 96.18C91.0195 96.7533 90.8195 97.18 90.4195 97.46C90.0195 97.7533 89.4195 97.9 88.6195 97.9C88.2329 97.9 87.8262 97.8733 87.3995 97.82C86.9862 97.78 86.7195 97.7333 86.5995 97.68V96.24C86.7595 96.28 86.9929 96.32 87.2995 96.36C87.6062 96.4 87.8729 96.42 88.0995 96.42C88.3262 96.42 88.4862 96.3867 88.5795 96.32C88.6729 96.2667 88.7195 96.16 88.7195 96C88.7195 95.8667 88.6529 95.7667 88.5195 95.7C88.3995 95.6333 88.1995 95.6 87.9195 95.6C87.7995 95.6 87.6329 95.6067 87.4195 95.62C87.2195 95.6333 87.0595 95.64 86.9395 95.64L87.2395 94.2C86.0262 94.1067 85.1662 93.6733 84.6595 92.9C84.1662 92.1267 83.9195 90.8467 83.9195 89.06C83.9195 87.14 84.2929 85.8067 85.0395 85.06C85.7995 84.3 87.1329 83.92 89.0395 83.92C89.4395 83.92 89.8062 83.9333 90.1395 83.96C90.4729 83.9733 90.9195 84.0133 91.4795 84.08V87.24C91.4662 87.24 91.1995 87.2267 90.6795 87.2C90.1595 87.1733 89.6262 87.16 89.0795 87.16C88.3995 87.16 87.9662 87.2667 87.7795 87.48C87.6062 87.6933 87.5195 88.22 87.5195 89.06C87.5195 89.82 87.5995 90.3133 87.7595 90.54C87.9195 90.7533 88.2662 90.86 88.7995 90.86C89.2929 90.86 89.8062 90.8267 90.3395 90.76C90.8729 90.6933 91.3395 90.6133 91.7395 90.52V93.48C91.5395 93.6133 91.2262 93.74 90.7995 93.86C90.3862 93.9667 89.9262 94.0533 89.4195 94.12L89.2995 94.76C89.8195 94.76 90.2329 94.8867 90.5395 95.14C90.8595 95.3933 91.0195 95.74 91.0195 96.18ZM95.0747 94.22C94.1147 94.22 93.4147 93.9667 92.9747 93.46C92.5347 92.9533 92.3147 92.16 92.3147 91.08C92.3147 90.0133 92.588 89.2533 93.1347 88.8C93.6947 88.3467 94.6214 88.12 95.9147 88.12C96.2214 88.12 96.528 88.1333 96.8347 88.16C97.1547 88.1867 97.4347 88.22 97.6747 88.26V87.76C97.6747 87.4933 97.548 87.3067 97.2947 87.2C97.0414 87.08 96.628 87.02 96.0547 87.02C95.508 87.02 95.008 87.0333 94.5547 87.06C94.1147 87.0867 93.668 87.14 93.2147 87.22V84.28C93.708 84.16 94.3014 84.0733 94.9947 84.02C95.7014 83.9533 96.508 83.92 97.4147 83.92C98.668 83.92 99.6214 84.2 100.275 84.76C100.941 85.3067 101.275 86.1133 101.275 87.18V94H97.8747L97.7747 93.22H97.7147C97.3147 93.5533 96.888 93.8067 96.4347 93.98C95.9947 94.14 95.5414 94.22 95.0747 94.22ZM96.4947 90.16C96.148 90.16 95.9014 90.2133 95.7547 90.32C95.6214 90.4133 95.5547 90.5933 95.5547 90.86C95.5547 91.1267 95.608 91.3133 95.7147 91.42C95.8347 91.5133 96.0347 91.56 96.3147 91.56C96.5414 91.56 96.7747 91.54 97.0147 91.5C97.268 91.4467 97.488 91.38 97.6747 91.3V90.24C97.488 90.2133 97.2947 90.1933 97.0947 90.18C96.908 90.1667 96.708 90.16 96.4947 90.16ZM98.3547 80.42H100.195C100.195 81.3133 100.048 82.0067 99.7547 82.5C99.4747 82.9933 99.0614 83.24 98.5147 83.24C98.328 83.24 98.1214 83.2067 97.8947 83.14C97.6814 83.06 97.3747 82.9067 96.9747 82.68C96.748 82.5467 96.588 82.46 96.4947 82.42C96.4014 82.38 96.3214 82.36 96.2547 82.36C96.1347 82.36 96.048 82.4267 95.9947 82.56C95.9414 82.68 95.9147 82.88 95.9147 83.16H94.0547C94.0547 82.2667 94.1947 81.5733 94.4747 81.08C94.768 80.5867 95.188 80.34 95.7347 80.34C95.9214 80.34 96.1214 80.3733 96.3347 80.44C96.548 80.5067 96.848 80.6467 97.2347 80.86C97.4747 80.98 97.6414 81.06 97.7347 81.1C97.8414 81.14 97.928 81.16 97.9947 81.16C98.1147 81.16 98.2014 81.1 98.2547 80.98C98.3214 80.86 98.3547 80.6733 98.3547 80.42ZM112.298 89.06C112.298 90.9133 111.912 92.24 111.138 93.04C110.365 93.8267 109.078 94.22 107.278 94.22C105.505 94.22 104.225 93.82 103.438 93.02C102.665 92.2067 102.278 90.8867 102.278 89.06C102.278 87.22 102.658 85.9067 103.418 85.12C104.192 84.32 105.478 83.92 107.278 83.92C109.065 83.92 110.345 84.32 111.118 85.12C111.905 85.92 112.298 87.2333 112.298 89.06ZM105.878 89.02C105.878 89.7933 105.965 90.3 106.138 90.54C106.312 90.7667 106.692 90.88 107.278 90.88C107.878 90.88 108.265 90.7667 108.438 90.54C108.612 90.3 108.698 89.7933 108.698 89.02C108.698 88.2467 108.612 87.7467 108.438 87.52C108.265 87.28 107.878 87.16 107.278 87.16C106.692 87.16 106.312 87.28 106.138 87.52C105.965 87.7467 105.878 88.2467 105.878 89.02ZM123.034 89.38H121.274V86.6H126.414V93.44C125.907 93.6533 125.214 93.84 124.334 94C123.467 94.1467 122.614 94.22 121.774 94.22C119.587 94.22 118.054 93.72 117.174 92.72C116.294 91.7067 115.854 90.04 115.854 87.72C115.854 85.48 116.354 83.8467 117.354 82.82C118.354 81.78 119.947 81.26 122.134 81.26C122.907 81.26 123.6 81.28 124.214 81.32C124.827 81.36 125.334 81.4133 125.734 81.48V84.72C125.174 84.6933 124.594 84.6733 123.994 84.66C123.394 84.6333 122.787 84.62 122.174 84.62C121.147 84.62 120.474 84.84 120.154 85.28C119.847 85.7067 119.694 86.52 119.694 87.72C119.694 88.96 119.84 89.8133 120.134 90.28C120.427 90.7333 121.027 90.96 121.934 90.96C122.107 90.96 122.287 90.9533 122.474 90.94C122.66 90.9267 122.847 90.9133 123.034 90.9V89.38ZM136.038 90.78V93.52C135.664 93.7067 135.084 93.8667 134.298 94C133.524 94.1467 132.718 94.22 131.878 94.22C130.264 94.22 129.098 93.82 128.378 93.02C127.671 92.2067 127.318 90.8933 127.318 89.08C127.318 87.3067 127.698 86.0067 128.458 85.18C129.231 84.34 130.431 83.92 132.058 83.92C133.631 83.92 134.758 84.2333 135.438 84.86C136.118 85.4733 136.458 86.5267 136.458 88.02C136.458 88.4733 136.451 88.84 136.438 89.12C136.424 89.3867 136.398 89.6933 136.358 90.04H130.878C130.891 90.4667 131.011 90.76 131.238 90.92C131.464 91.0667 131.871 91.14 132.458 91.14C133.098 91.14 133.751 91.1067 134.418 91.04C135.098 90.96 135.638 90.8733 136.038 90.78ZM132.098 86.76C131.644 86.76 131.324 86.8533 131.138 87.04C130.964 87.2133 130.878 87.5667 130.878 88.1H133.258V87.64C133.231 87.2933 133.138 87.06 132.978 86.94C132.831 86.82 132.538 86.76 132.098 86.76ZM141.139 94H137.539V84.12H140.639L140.779 85.16H140.859C141.259 84.7333 141.699 84.42 142.179 84.22C142.659 84.02 143.226 83.92 143.879 83.92C144.919 83.92 145.706 84.1933 146.239 84.74C146.773 85.2867 147.039 86.0933 147.039 87.16V94H143.439V87.9C143.439 87.66 143.353 87.48 143.179 87.36C143.019 87.2267 142.773 87.16 142.439 87.16C142.213 87.16 141.993 87.1867 141.779 87.24C141.566 87.28 141.353 87.3467 141.139 87.44V94ZM156.78 90.78V93.52C156.406 93.7067 155.826 93.8667 155.04 94C154.266 94.1467 153.46 94.22 152.62 94.22C151.006 94.22 149.84 93.82 149.12 93.02C148.413 92.2067 148.06 90.8933 148.06 89.08C148.06 87.3067 148.44 86.0067 149.2 85.18C149.973 84.34 151.173 83.92 152.8 83.92C154.373 83.92 155.5 84.2333 156.18 84.86C156.86 85.4733 157.2 86.5267 157.2 88.02C157.2 88.4733 157.193 88.84 157.18 89.12C157.166 89.3867 157.14 89.6933 157.1 90.04H151.62C151.633 90.4667 151.753 90.76 151.98 90.92C152.206 91.0667 152.613 91.14 153.2 91.14C153.84 91.14 154.493 91.1067 155.16 91.04C155.84 90.96 156.38 90.8733 156.78 90.78ZM152.84 86.76C152.386 86.76 152.066 86.8533 151.88 87.04C151.706 87.2133 151.62 87.5667 151.62 88.1H154V87.64C153.973 87.2933 153.88 87.06 153.72 86.94C153.573 86.82 153.28 86.76 152.84 86.76ZM161.882 94H158.282V84.12H161.642L161.762 84.88H161.802C162.215 84.5733 162.622 84.34 163.022 84.18C163.435 84.02 163.835 83.94 164.222 83.94H164.562V87.42C164.255 87.3933 164.048 87.38 163.942 87.38C163.848 87.3667 163.748 87.36 163.642 87.36C163.308 87.36 162.995 87.38 162.702 87.42C162.408 87.46 162.135 87.52 161.882 87.6V94ZM175.052 89.06C175.052 90.9133 174.666 92.24 173.892 93.04C173.119 93.8267 171.832 94.22 170.032 94.22C168.259 94.22 166.979 93.82 166.192 93.02C165.419 92.2067 165.032 90.8867 165.032 89.06C165.032 87.22 165.412 85.9067 166.172 85.12C166.946 84.32 168.232 83.92 170.032 83.92C171.819 83.92 173.099 84.32 173.872 85.12C174.659 85.92 175.052 87.2333 175.052 89.06ZM168.632 89.02C168.632 89.7933 168.719 90.3 168.892 90.54C169.066 90.7667 169.446 90.88 170.032 90.88C170.632 90.88 171.019 90.7667 171.192 90.54C171.366 90.3 171.452 89.7933 171.452 89.02C171.452 88.2467 171.366 87.7467 171.192 87.52C171.019 87.28 170.632 87.16 170.032 87.16C169.446 87.16 169.066 87.28 168.892 87.52C168.719 87.7467 168.632 88.2467 168.632 89.02ZM180.334 86.7C179.867 86.7 179.554 86.7333 179.394 86.8C179.234 86.8667 179.154 87 179.154 87.2C179.154 87.3067 179.18 87.3867 179.234 87.44C179.3 87.4933 179.394 87.5267 179.514 87.54L181.634 87.8C182.514 87.9067 183.114 88.1667 183.434 88.58C183.767 88.9933 183.934 89.6667 183.934 90.6C183.934 91.8533 183.62 92.7733 182.994 93.36C182.38 93.9333 181.347 94.22 179.894 94.22C179.107 94.22 178.38 94.18 177.714 94.1C177.06 94.0333 176.52 93.94 176.094 93.82V90.94C176.627 91.06 177.194 91.1533 177.794 91.22C178.394 91.2867 178.96 91.32 179.494 91.32C179.947 91.32 180.247 91.28 180.394 91.2C180.554 91.12 180.634 90.9667 180.634 90.74C180.634 90.66 180.607 90.5933 180.554 90.54C180.5 90.4733 180.42 90.4333 180.314 90.42L177.974 90.14C177.2 90.0333 176.64 89.76 176.294 89.32C175.96 88.88 175.794 88.22 175.794 87.34C175.794 86.1933 176.154 85.34 176.874 84.78C177.607 84.2067 178.694 83.92 180.134 83.92C180.787 83.92 181.38 83.94 181.914 83.98C182.447 84.0067 182.914 84.0533 183.314 84.12V86.92C182.86 86.8533 182.367 86.8 181.834 86.76C181.3 86.72 180.8 86.7 180.334 86.7ZM194.681 89.06C194.681 90.9133 194.295 92.24 193.521 93.04C192.748 93.8267 191.461 94.22 189.661 94.22C187.888 94.22 186.608 93.82 185.821 93.02C185.048 92.2067 184.661 90.8867 184.661 89.06C184.661 87.22 185.041 85.9067 185.801 85.12C186.575 84.32 187.861 83.92 189.661 83.92C191.448 83.92 192.728 84.32 193.501 85.12C194.288 85.92 194.681 87.2333 194.681 89.06ZM188.261 89.02C188.261 89.7933 188.348 90.3 188.521 90.54C188.695 90.7667 189.075 90.88 189.661 90.88C190.261 90.88 190.648 90.7667 190.821 90.54C190.995 90.3 191.081 89.7933 191.081 89.02C191.081 88.2467 190.995 87.7467 190.821 87.52C190.648 87.28 190.261 87.16 189.661 87.16C189.075 87.16 188.695 87.28 188.521 87.52C188.348 87.7467 188.261 88.2467 188.261 89.02Z" fill="#6B0015"/>
<path d="M79.88 127L77.836 123.29H77.262V127H74.868V117.172H78.886C79.6607 117.172 80.3187 117.307 80.86 117.578C81.4107 117.849 81.8213 118.222 82.092 118.698C82.3627 119.165 82.498 119.687 82.498 120.266C82.498 120.919 82.3113 121.503 81.938 122.016C81.574 122.529 81.0327 122.893 80.314 123.108L82.582 127H79.88ZM77.262 121.596H78.746C79.1847 121.596 79.5113 121.489 79.726 121.274C79.95 121.059 80.062 120.756 80.062 120.364C80.062 119.991 79.95 119.697 79.726 119.482C79.5113 119.267 79.1847 119.16 78.746 119.16H77.262V121.596ZM86.3948 119.09V121.078H89.6008V122.926H86.3948V125.082H90.0208V127H84.0008V117.172H90.0208V119.09H86.3948ZM95.131 127.098C94.4124 127.098 93.7684 126.981 93.199 126.748C92.6297 126.515 92.1724 126.169 91.827 125.712C91.491 125.255 91.3137 124.704 91.295 124.06H93.843C93.8804 124.424 94.0064 124.704 94.221 124.9C94.4357 125.087 94.7157 125.18 95.061 125.18C95.4157 125.18 95.6957 125.101 95.901 124.942C96.1064 124.774 96.209 124.545 96.209 124.256C96.209 124.013 96.125 123.813 95.957 123.654C95.7984 123.495 95.5977 123.365 95.355 123.262C95.1217 123.159 94.7857 123.043 94.347 122.912C93.7124 122.716 93.1944 122.52 92.793 122.324C92.3917 122.128 92.0464 121.839 91.757 121.456C91.4677 121.073 91.323 120.574 91.323 119.958C91.323 119.043 91.6544 118.329 92.317 117.816C92.9797 117.293 93.843 117.032 94.907 117.032C95.9897 117.032 96.8624 117.293 97.525 117.816C98.1877 118.329 98.5424 119.048 98.589 119.972H95.999C95.9804 119.655 95.8637 119.407 95.649 119.23C95.4344 119.043 95.159 118.95 94.823 118.95C94.5337 118.95 94.3004 119.029 94.123 119.188C93.9457 119.337 93.857 119.557 93.857 119.846C93.857 120.163 94.0064 120.411 94.305 120.588C94.6037 120.765 95.0704 120.957 95.705 121.162C96.3397 121.377 96.853 121.582 97.245 121.778C97.6464 121.974 97.9917 122.259 98.281 122.632C98.5704 123.005 98.715 123.486 98.715 124.074C98.715 124.634 98.5704 125.143 98.281 125.6C98.001 126.057 97.5904 126.421 97.049 126.692C96.5077 126.963 95.8684 127.098 95.131 127.098ZM106.712 120.28C106.535 119.953 106.278 119.706 105.942 119.538C105.616 119.361 105.228 119.272 104.78 119.272C104.006 119.272 103.385 119.529 102.918 120.042C102.452 120.546 102.218 121.223 102.218 122.072C102.218 122.977 102.461 123.687 102.946 124.2C103.441 124.704 104.118 124.956 104.976 124.956C105.564 124.956 106.059 124.807 106.46 124.508C106.871 124.209 107.17 123.78 107.356 123.22H104.318V121.456H109.526V123.682C109.349 124.279 109.046 124.835 108.616 125.348C108.196 125.861 107.66 126.277 107.006 126.594C106.353 126.911 105.616 127.07 104.794 127.07C103.824 127.07 102.956 126.86 102.19 126.44C101.434 126.011 100.842 125.418 100.412 124.662C99.9923 123.906 99.7823 123.043 99.7823 122.072C99.7823 121.101 99.9923 120.238 100.412 119.482C100.842 118.717 101.434 118.124 102.19 117.704C102.946 117.275 103.81 117.06 104.78 117.06C105.956 117.06 106.946 117.345 107.748 117.914C108.56 118.483 109.097 119.272 109.358 120.28H106.712ZM116.97 125.264H113.302L112.714 127H110.208L113.764 117.172H116.536L120.092 127H117.558L116.97 125.264ZM116.354 123.416L115.136 119.818L113.932 123.416H116.354ZM128.245 117.172V119.09H125.641V127H123.247V119.09H120.643V117.172H128.245ZM131.84 119.09V121.078H135.046V122.926H131.84V125.082H135.466V127H129.446V117.172H135.466V119.09H131.84ZM143.543 127.098C142.824 127.098 142.18 126.981 141.611 126.748C141.042 126.515 140.584 126.169 140.239 125.712C139.903 125.255 139.726 124.704 139.707 124.06H142.255C142.292 124.424 142.418 124.704 142.633 124.9C142.848 125.087 143.128 125.18 143.473 125.18C143.828 125.18 144.108 125.101 144.313 124.942C144.518 124.774 144.621 124.545 144.621 124.256C144.621 124.013 144.537 123.813 144.369 123.654C144.21 123.495 144.01 123.365 143.767 123.262C143.534 123.159 143.198 123.043 142.759 122.912C142.124 122.716 141.606 122.52 141.205 122.324C140.804 122.128 140.458 121.839 140.169 121.456C139.88 121.073 139.735 120.574 139.735 119.958C139.735 119.043 140.066 118.329 140.729 117.816C141.392 117.293 142.255 117.032 143.319 117.032C144.402 117.032 145.274 117.293 145.937 117.816C146.6 118.329 146.954 119.048 147.001 119.972H144.411C144.392 119.655 144.276 119.407 144.061 119.23C143.846 119.043 143.571 118.95 143.235 118.95C142.946 118.95 142.712 119.029 142.535 119.188C142.358 119.337 142.269 119.557 142.269 119.846C142.269 120.163 142.418 120.411 142.717 120.588C143.016 120.765 143.482 120.957 144.117 121.162C144.752 121.377 145.265 121.582 145.657 121.778C146.058 121.974 146.404 122.259 146.693 122.632C146.982 123.005 147.127 123.486 147.127 124.074C147.127 124.634 146.982 125.143 146.693 125.6C146.413 126.057 146.002 126.421 145.461 126.692C144.92 126.963 144.28 127.098 143.543 127.098ZM150.994 119.09V121.078H154.2V122.926H150.994V125.082H154.62V127H148.6V117.172H154.62V119.09H150.994ZM158.527 117.172V123.052C158.527 123.64 158.671 124.093 158.961 124.41C159.25 124.727 159.675 124.886 160.235 124.886C160.795 124.886 161.224 124.727 161.523 124.41C161.821 124.093 161.971 123.64 161.971 123.052V117.172H164.365V123.038C164.365 123.915 164.178 124.657 163.805 125.264C163.431 125.871 162.927 126.328 162.293 126.636C161.667 126.944 160.967 127.098 160.193 127.098C159.418 127.098 158.723 126.949 158.107 126.65C157.5 126.342 157.019 125.885 156.665 125.278C156.31 124.662 156.133 123.915 156.133 123.038V117.172H158.527ZM176.503 120.336C176.503 120.905 176.372 121.428 176.111 121.904C175.849 122.371 175.448 122.749 174.907 123.038C174.365 123.327 173.693 123.472 172.891 123.472H171.407V127H169.013V117.172H172.891C173.675 117.172 174.337 117.307 174.879 117.578C175.42 117.849 175.826 118.222 176.097 118.698C176.367 119.174 176.503 119.72 176.503 120.336ZM172.709 121.568C173.166 121.568 173.507 121.461 173.731 121.246C173.955 121.031 174.067 120.728 174.067 120.336C174.067 119.944 173.955 119.641 173.731 119.426C173.507 119.211 173.166 119.104 172.709 119.104H171.407V121.568H172.709ZM182.761 127L180.717 123.29H180.143V127H177.749V117.172H181.767C182.542 117.172 183.2 117.307 183.741 117.578C184.292 117.849 184.702 118.222 184.973 118.698C185.244 119.165 185.379 119.687 185.379 120.266C185.379 120.919 185.192 121.503 184.819 122.016C184.455 122.529 183.914 122.893 183.195 123.108L185.463 127H182.761ZM180.143 121.596H181.627C182.066 121.596 182.392 121.489 182.607 121.274C182.831 121.059 182.943 120.756 182.943 120.364C182.943 119.991 182.831 119.697 182.607 119.482C182.392 119.267 182.066 119.16 181.627 119.16H180.143V121.596ZM189.276 117.172V127H186.882V117.172H189.276ZM202.141 117.172V127H199.747V121.106L197.549 127H195.617L193.405 121.092V127H191.011V117.172H193.839L196.597 123.976L199.327 117.172H202.141ZM206.256 119.09V121.078H209.462V122.926H206.256V125.082H209.882V127H203.862V117.172H209.882V119.09H206.256ZM213.83 117.172V127H211.436V117.172H213.83ZM220.577 127L218.533 123.29H217.959V127H215.565V117.172H219.583C220.358 117.172 221.016 117.307 221.557 117.578C222.108 117.849 222.519 118.222 222.789 118.698C223.06 119.165 223.195 119.687 223.195 120.266C223.195 120.919 223.009 121.503 222.635 122.016C222.271 122.529 221.73 122.893 221.011 123.108L223.279 127H220.577ZM217.959 121.596H219.443C219.882 121.596 220.209 121.489 220.423 121.274C220.647 121.059 220.759 120.756 220.759 120.364C220.759 119.991 220.647 119.697 220.423 119.482C220.209 119.267 219.882 119.16 219.443 119.16H217.959V121.596ZM229.346 127.098C228.422 127.098 227.573 126.883 226.798 126.454C226.033 126.025 225.421 125.427 224.964 124.662C224.516 123.887 224.292 123.019 224.292 122.058C224.292 121.097 224.516 120.233 224.964 119.468C225.421 118.703 226.033 118.105 226.798 117.676C227.573 117.247 228.422 117.032 229.346 117.032C230.27 117.032 231.115 117.247 231.88 117.676C232.655 118.105 233.261 118.703 233.7 119.468C234.148 120.233 234.372 121.097 234.372 122.058C234.372 123.019 234.148 123.887 233.7 124.662C233.252 125.427 232.645 126.025 231.88 126.454C231.115 126.883 230.27 127.098 229.346 127.098ZM229.346 124.914C230.13 124.914 230.755 124.653 231.222 124.13C231.698 123.607 231.936 122.917 231.936 122.058C231.936 121.19 231.698 120.499 231.222 119.986C230.755 119.463 230.13 119.202 229.346 119.202C228.553 119.202 227.918 119.459 227.442 119.972C226.975 120.485 226.742 121.181 226.742 122.058C226.742 122.926 226.975 123.621 227.442 124.144C227.918 124.657 228.553 124.914 229.346 124.914ZM238.265 122.072C238.265 121.101 238.475 120.238 238.895 119.482C239.315 118.717 239.898 118.124 240.645 117.704C241.401 117.275 242.255 117.06 243.207 117.06C244.373 117.06 245.372 117.368 246.203 117.984C247.033 118.6 247.589 119.44 247.869 120.504H245.237C245.041 120.093 244.761 119.781 244.397 119.566C244.042 119.351 243.636 119.244 243.179 119.244C242.441 119.244 241.844 119.501 241.387 120.014C240.929 120.527 240.701 121.213 240.701 122.072C240.701 122.931 240.929 123.617 241.387 124.13C241.844 124.643 242.441 124.9 243.179 124.9C243.636 124.9 244.042 124.793 244.397 124.578C244.761 124.363 245.041 124.051 245.237 123.64H247.869C247.589 124.704 247.033 125.544 246.203 126.16C245.372 126.767 244.373 127.07 243.207 127.07C242.255 127.07 241.401 126.86 240.645 126.44C239.898 126.011 239.315 125.418 238.895 124.662C238.475 123.906 238.265 123.043 238.265 122.072ZM251.687 117.172V123.052C251.687 123.64 251.831 124.093 252.121 124.41C252.41 124.727 252.835 124.886 253.395 124.886C253.955 124.886 254.384 124.727 254.683 124.41C254.981 124.093 255.131 123.64 255.131 123.052V117.172H257.525V123.038C257.525 123.915 257.338 124.657 256.965 125.264C256.591 125.871 256.087 126.328 255.453 126.636C254.827 126.944 254.127 127.098 253.353 127.098C252.578 127.098 251.883 126.949 251.267 126.65C250.66 126.342 250.179 125.885 249.825 125.278C249.47 124.662 249.293 123.915 249.293 123.038V117.172H251.687ZM266.696 120.336C266.696 120.905 266.565 121.428 266.304 121.904C266.043 122.371 265.641 122.749 265.1 123.038C264.559 123.327 263.887 123.472 263.084 123.472H261.6V127H259.206V117.172H263.084C263.868 117.172 264.531 117.307 265.072 117.578C265.613 117.849 266.019 118.222 266.29 118.698C266.561 119.174 266.696 119.72 266.696 120.336ZM262.902 121.568C263.359 121.568 263.7 121.461 263.924 121.246C264.148 121.031 264.26 120.728 264.26 120.336C264.26 119.944 264.148 119.641 263.924 119.426C263.7 119.211 263.359 119.104 262.902 119.104H261.6V121.568H262.902ZM272.59 127.098C271.666 127.098 270.817 126.883 270.042 126.454C269.277 126.025 268.666 125.427 268.208 124.662C267.76 123.887 267.536 123.019 267.536 122.058C267.536 121.097 267.76 120.233 268.208 119.468C268.666 118.703 269.277 118.105 270.042 117.676C270.817 117.247 271.666 117.032 272.59 117.032C273.514 117.032 274.359 117.247 275.124 117.676C275.899 118.105 276.506 118.703 276.944 119.468C277.392 120.233 277.616 121.097 277.616 122.058C277.616 123.019 277.392 123.887 276.944 124.662C276.496 125.427 275.89 126.025 275.124 126.454C274.359 126.883 273.514 127.098 272.59 127.098ZM272.59 124.914C273.374 124.914 274 124.653 274.466 124.13C274.942 123.607 275.18 122.917 275.18 122.058C275.18 121.19 274.942 120.499 274.466 119.986C274 119.463 273.374 119.202 272.59 119.202C271.797 119.202 271.162 119.459 270.686 119.972C270.22 120.485 269.986 121.181 269.986 122.058C269.986 122.926 270.22 123.621 270.686 124.144C271.162 124.657 271.797 124.914 272.59 124.914ZM290.078 117.172V127H287.684V121.106L285.486 127H283.554L281.342 121.092V127H278.948V117.172H281.776L284.534 123.976L287.264 117.172H290.078Z" fill="#6B0015"/>
<path fill-rule="evenodd" clip-rule="evenodd" d="M58.6354 112.795C58.2492 111.735 56.7508 111.735 56.3646 112.795L54.6123 117.612L49.7951 119.365C48.735 119.751 48.735 121.249 49.7951 121.635L54.6123 123.388L56.3646 128.205C56.7508 129.265 58.2492 129.265 58.6354 128.205L60.3877 123.388L65.2049 121.635C66.265 121.249 66.265 119.751 65.2049 119.365L60.3877 117.612L58.6354 112.795Z" fill="#6B0015"/>
</svg>
