<svg width="200" height="199" viewBox="0 0 200 199" fill="none" xmlns="http://www.w3.org/2000/svg">
<path d="M4.25984 82.7203C4.84965 81.5777 6.55716 81.8577 6.7514 83.129L6.88901 84.0308C6.97618 84.5994 7.41909 85.0473 7.98634 85.1404L8.88678 85.288C10.1558 85.4962 10.4168 87.2067 9.26819 87.7843L8.45316 88.194C7.93944 88.4523 7.65006 89.0121 7.73723 89.5807L7.87484 90.4825C8.06909 91.7538 6.52309 92.5309 5.61867 91.6166L4.97753 90.968C4.57311 90.5591 3.95143 90.4571 3.43728 90.7154L2.62269 91.1251C1.47358 91.7027 0.256782 90.4725 0.847041 89.3298L1.26562 88.5193C1.52934 88.0082 1.4342 87.3854 1.02978 86.9765L0.388199 86.3279C-0.515773 85.4135 0.278021 83.8761 1.54703 84.0842L2.44703 84.2318C3.01472 84.3249 3.57754 84.0419 3.84126 83.5309L4.25984 82.7203Z" fill="#E86A90"/>
<path d="M172.26 158.72C172.85 157.578 174.557 157.858 174.751 159.129L174.889 160.031C174.976 160.599 175.419 161.047 175.986 161.14L176.887 161.288C178.156 161.496 178.417 163.207 177.268 163.784L176.453 164.194C175.939 164.452 175.65 165.012 175.737 165.581L175.875 166.482C176.069 167.754 174.523 168.531 173.619 167.617L172.978 166.968C172.573 166.559 171.951 166.457 171.437 166.715L170.623 167.125C169.474 167.703 168.257 166.472 168.847 165.33L169.266 164.519C169.529 164.008 169.434 163.385 169.03 162.976L168.388 162.328C167.484 161.414 168.278 159.876 169.547 160.084L170.447 160.232C171.015 160.325 171.578 160.042 171.841 159.531L172.26 158.72Z" fill="#E86A90"/>
<path d="M64.8619 9.29029C65.7344 3.8368 70.8627 0.123189 76.3162 0.99572L178.715 17.379C184.168 18.2515 187.882 23.3797 187.009 28.8332L169.464 138.495C167.282 152.128 154.462 161.413 140.828 159.231L68.053 147.588C54.4193 145.406 45.1353 132.586 47.3166 118.952L64.8619 9.29029Z" fill="#850014"/>
<path d="M64.8619 9.29029C65.7344 3.8368 70.8627 0.123189 76.3162 0.99572L178.715 17.379C184.168 18.2515 187.882 23.3797 187.009 28.8332L175.3 102.017C170.676 130.92 143.496 150.602 114.593 145.978L97.1141 143.181C68.2106 138.557 48.5285 111.377 53.153 82.4735L64.8619 9.29029Z" fill="#46C4FF"/>
<path d="M64.8619 9.29029C65.7344 3.8368 70.8627 0.123189 76.3162 0.99572L178.715 17.379C184.168 18.2515 187.882 23.3797 187.009 28.8332L170.719 130.652C168.625 143.741 156.317 152.653 143.229 150.559L68.4788 138.6C55.3904 136.506 46.4778 124.198 48.5719 111.109L64.8619 9.29029Z" fill="#E10531"/>
<path d="M84.5333 18.416C84.6206 17.8706 85.1334 17.4993 85.6787 17.5865L166.116 30.4562C166.662 30.5434 167.033 31.0563 166.946 31.6016L157.215 92.4236C153.574 115.181 132.173 130.678 109.416 127.037C86.658 123.396 71.161 101.996 74.8021 79.238L84.5333 18.416Z" fill="#AE001A"/>
<path d="M103.538 48.7213L98.1206 47.8544L97.2538 53.2722L91.836 52.4054L87.7187 78.1398L93.1364 79.0066L92.2696 84.4244L94.9785 84.8578C97.6196 85.2803 97.6765 85.3589 97.3081 87.6615C96.9506 89.8963 97.0644 90.0534 99.2992 90.411C101.602 90.7794 101.659 90.8579 101.236 93.4991L100.803 96.208L106.22 97.0748L105.354 102.493L120.93 104.985L121.796 99.5669L127.214 100.434L127.648 97.7248C128.07 95.0836 128.149 95.0268 130.451 95.3952C132.686 95.7527 132.843 95.6389 133.201 93.4041C133.569 91.1016 133.648 91.0447 136.289 91.4672L138.998 91.9007L139.865 86.4829L145.282 87.3497L149.4 61.6153L143.982 60.7485L144.849 55.3307L139.431 54.4639L140.298 49.0461L134.88 48.1793L134.013 53.5971L128.596 52.7303L128.162 55.4392C127.74 58.0803 127.661 58.1372 125.358 57.7688C123.124 57.4113 122.967 57.525 122.609 59.7599C122.251 61.9947 122.094 62.1085 119.859 61.7509C117.625 61.3933 117.511 61.2362 117.868 59.0014C118.226 56.7666 118.112 56.6094 115.877 56.2519C113.575 55.8835 113.518 55.8049 113.941 53.1638L114.374 50.4549L108.956 49.5881L109.823 44.1703L104.405 43.3035L103.538 48.7213Z" fill="#6B0015"/>
<path d="M158.835 13.8488L178.288 17.311L182.35 20.2245L184.322 22.0494L185.44 24.4923L186.532 29.9497L183.136 51.1783L58.4347 137.535L55.7852 134.295L53.5336 130.767L51.6802 126.95L50.2248 122.845L49.1677 118.452L48.797 114.168L48.8243 109.596L52.3389 87.6299L158.835 13.8488Z" fill="white" fill-opacity="0.29"/>
<path d="M36.3978 67.8669C36.6303 68.5622 36.7881 69.2697 36.8294 69.9635C37.3738 79.1062 26.934 84.5893 23.7452 84.2144C20.5564 83.8395 11.4787 76.0681 13.8698 67.2642C14.0511 66.5966 14.349 65.9427 14.7172 65.318C16.9216 61.5785 22.042 62.0976 25.2859 65.0068C25.5248 65.2211 25.8681 65.2615 26.1448 65.1078C29.9024 63.0218 35.006 63.7046 36.3978 67.8669Z" fill="#CA001E"/>
<path d="M153.272 179.331C152.873 179.946 152.545 180.592 152.336 181.256C149.581 189.994 158.625 198.007 161.884 198.465C165.142 198.922 176.042 193.712 175.798 184.547C175.78 183.852 175.642 183.14 175.427 182.439C174.143 178.239 168.93 177.425 165.004 179.415C164.714 179.561 164.364 179.512 164.126 179.292C160.898 176.298 155.663 175.647 153.272 179.331Z" fill="#CA001E"/>
<path d="M22.3455 99.8628C22.7823 100.202 23.1773 100.583 23.4935 101.005C27.6604 106.576 23.4037 114.653 21.2458 115.817C19.088 116.982 10.1404 116.037 7.95716 109.39C7.7916 108.886 7.70493 108.339 7.67463 107.78C7.49329 104.434 10.9235 102.512 14.1762 102.933C14.4158 102.965 14.648 102.839 14.7574 102.62C16.2425 99.6412 19.7306 97.83 22.3455 99.8628Z" fill="#CA001E"/>
<path d="M186.56 136.256C186.044 136.473 185.559 136.741 185.143 137.07C179.654 141.406 181.928 150.346 183.789 152.033C185.651 153.72 194.769 155.106 198.547 149.213C198.833 148.767 199.052 148.258 199.217 147.723C200.208 144.52 197.265 141.77 193.932 141.342C193.686 141.31 193.486 141.129 193.43 140.887C192.676 137.612 189.65 134.955 186.56 136.256Z" fill="#CA001E"/>
<path d="M32.8643 135.083C32.8971 135.479 32.889 135.871 32.8213 136.24C31.9292 141.105 25.7255 142.564 24.0949 141.935C22.4642 141.306 18.6866 136.003 21.0806 131.713C21.2621 131.388 21.5033 131.086 21.7777 130.808C23.4205 129.148 26.0496 130.114 27.3824 132.078C27.4806 132.223 27.6561 132.29 27.8217 132.247C30.0691 131.664 32.6682 132.713 32.8643 135.083Z" fill="#CA001E"/>
<path d="M182.626 170.094C182.498 170.47 182.411 170.853 182.389 171.229C182.097 176.183 187.907 179.197 189.679 179.006C191.451 178.816 196.488 174.638 195.149 169.856C195.047 169.494 194.881 169.138 194.675 168.798C193.445 166.762 190.6 167.023 188.8 168.587C188.667 168.702 188.477 168.723 188.323 168.639C186.231 167.493 183.395 167.843 182.626 170.094Z" fill="#CA001E"/>
<path d="M145.086 172.521C145.107 172.769 145.102 173.015 145.059 173.247C144.499 176.3 140.606 177.216 139.583 176.821C138.559 176.426 136.188 173.098 137.691 170.406C137.805 170.202 137.956 170.012 138.128 169.838C139.159 168.796 140.809 169.402 141.646 170.635C141.708 170.726 141.818 170.768 141.922 170.741C143.332 170.375 144.963 171.033 145.086 172.521Z" fill="#CA001E"/>
</svg>
