<svg width="158" height="125" viewBox="0 0 158 125" fill="none" xmlns="http://www.w3.org/2000/svg">
<path d="M137.251 98.9758L132.118 100.594C127.605 102.008 126.658 107.17 130.341 110.226C135.524 114.526 131.267 121.641 124.52 119.964L17.9596 93.4744C11.2124 91.7971 10.7822 83.5166 17.3691 82.1433C22.0607 81.1686 23.6406 76.1643 20.3153 72.8009L16.5377 68.9682C11.7728 64.1429 13.5533 56.9806 20.0229 54.9482L20.8324 54.6978C27.69 52.5387 29.5788 44.9406 24.5317 39.8166L23.9336 39.2163C19.1687 34.3911 20.9492 27.2288 27.4188 25.1963L32.5514 23.5785C37.0644 22.1636 38.0116 17.0021 34.329 13.9456C29.1518 9.64795 33.4027 2.53109 40.1499 4.20834L146.71 30.6977C153.457 32.375 153.887 40.6555 147.3 42.0288C142.609 43.0035 141.029 48.0078 144.354 51.3712L148.133 55.1987C152.897 60.0292 151.116 67.1915 144.648 69.2187L143.837 69.4743C136.979 71.6334 135.091 79.2315 140.138 84.3555L140.736 84.9558C145.501 89.781 143.72 96.9433 137.251 98.9758Z" fill="#508D3F"/>
<path d="M131.144 99.4582L126.012 101.076C121.499 102.491 120.551 107.652 124.234 110.709C129.418 115.008 125.16 122.123 118.413 120.446L11.8531 93.9568C5.10595 92.2795 4.67579 83.999 11.2626 82.6257C15.9542 81.651 17.5341 76.6467 14.2089 73.2833L10.4313 69.4506C5.6664 64.6254 7.44684 57.4631 13.9165 55.4306L14.726 55.1802C21.5836 53.0211 23.4723 45.423 18.4252 40.299L17.8272 39.6988C13.0623 34.8735 14.8428 27.7112 21.3124 25.6787L26.4449 24.061C30.958 22.646 31.9052 17.4845 28.2225 14.4281C23.0454 10.1304 27.2963 3.01351 34.0435 4.69076L140.603 31.1802C147.351 32.8574 147.781 41.1379 141.194 42.5113C136.502 43.486 134.922 48.4902 138.248 51.8536L142.027 55.6811C146.79 60.5116 145.01 67.6739 138.541 69.7011L137.731 69.9567C130.873 72.1158 128.984 79.7139 134.031 84.8379L134.629 85.4382C139.394 90.2634 137.614 97.4257 131.144 99.4582Z" fill="#7AD761"/>
<path d="M64.513 92.5761C64.4467 92.8429 63.613 92.7773 62.0119 92.3793C60.4266 91.9852 59.667 91.6548 59.7334 91.3879L62.6189 79.7803L60.0702 79.1717C59.5993 79.0546 59.5511 78.2427 59.9257 76.7358C60.0545 76.2178 60.2264 75.7272 60.4416 75.264C60.6724 74.8047 60.9134 74.6063 61.1646 74.6687L67.6159 76.2725C67.8827 76.3388 68.079 76.4543 68.2048 76.6189C68.3501 76.7716 68.4013 76.9344 68.3584 77.107L64.513 92.5761Z" fill="#2B5121"/>
<path d="M73.0489 95.373C71.0869 94.8852 69.6575 93.7632 68.7607 92.007C67.8797 90.2547 67.7845 87.9893 68.4751 85.211C69.1657 82.4327 70.3145 80.4933 71.9214 79.3928C73.5322 78.2765 75.3265 77.9642 77.3043 78.4559C79.2978 78.9514 80.7311 80.0577 81.6043 81.7748C82.4774 83.4918 82.5609 85.7709 81.8546 88.612C81.1484 91.4531 79.9937 93.4161 78.3907 94.5009C76.8073 95.5739 75.0267 95.8646 73.0489 95.373ZM76.1335 82.9648C75.537 82.8165 74.941 83.035 74.3455 83.6203C73.7696 84.1938 73.3256 85.1085 73.0134 86.3642C72.7013 87.6199 72.6575 88.634 72.8821 89.4065C73.1264 90.1673 73.5624 90.6256 74.1903 90.7817C74.8338 90.9417 75.4357 90.733 75.9959 90.1556C76.5718 89.5821 77.0158 88.6675 77.328 87.4117C77.6402 86.156 77.6682 85.138 77.4122 84.3577C77.1719 83.5813 76.7456 83.117 76.1335 82.9648Z" fill="#2B5121"/>
<path d="M87.2525 88.7661C87.7862 88.8988 88.174 89.1993 88.4158 89.6678C88.6577 90.1363 88.686 90.7433 88.5006 91.4889C88.3173 92.2266 88.009 92.7458 87.5759 93.0465C87.1507 93.3491 86.6752 93.4351 86.1493 93.3044C85.6235 93.1737 85.2377 92.8819 84.9919 92.4292C84.7481 91.9685 84.7198 91.3615 84.9071 90.6081C85.0964 89.8468 85.4026 89.3188 85.8259 89.024C86.2511 88.7214 86.7267 88.6354 87.2525 88.7661ZM87.2675 91.1698C87.3943 90.6597 87.2733 90.3588 86.9044 90.2671C86.5355 90.1754 86.2877 90.3846 86.1609 90.8947C86.1004 91.138 86.1055 91.3352 86.1763 91.4861C86.2472 91.637 86.365 91.733 86.5298 91.774C86.6946 91.8149 86.8436 91.7853 86.9769 91.6851C87.1101 91.5849 87.207 91.4131 87.2675 91.1698ZM91.1371 93.9068C91.6708 94.0394 92.0586 94.34 92.3004 94.8085C92.5423 95.2769 92.5706 95.8839 92.3852 96.6295C92.2018 97.3673 91.8936 97.8865 91.4605 98.1872C91.0353 98.4898 90.5598 98.5757 90.0339 98.445C89.5081 98.3143 89.1223 98.0226 88.8765 97.5698C88.6327 97.1092 88.6044 96.5022 88.7917 95.7487C88.981 94.9874 89.2872 94.4594 89.7105 94.1646C90.1357 93.862 90.6112 93.776 91.1371 93.9068ZM91.1521 96.3105C91.2789 95.8003 91.1578 95.4994 90.789 95.4077C90.4201 95.316 90.1723 95.5252 90.0454 96.0354C89.985 96.2787 89.9901 96.4758 90.0609 96.6267C90.1318 96.7777 90.2496 96.8736 90.4144 96.9146C90.5792 96.9556 90.7282 96.9259 90.8615 96.8257C90.9947 96.7255 91.0916 96.5538 91.1521 96.3105ZM91.841 90.0192C91.9272 89.974 92.0096 89.9612 92.0881 89.9807C92.3784 90.0529 92.6053 90.2634 92.7685 90.6123C92.8335 90.7535 92.8562 90.8633 92.8366 90.9418C92.8191 91.0124 92.7897 91.0634 92.7486 91.0949L85.2954 97.1921C85.2092 97.2373 85.1268 97.2502 85.0483 97.2307C84.7658 97.1604 84.5439 96.9469 84.3825 96.5902C84.3098 96.4471 84.2822 96.3402 84.2997 96.2696C84.3173 96.1989 84.3467 96.1479 84.3878 96.1165L91.841 90.0192Z" fill="#2B5121"/>
<ellipse cx="120.477" cy="40.1597" rx="4.14845" ry="2.26279" transform="rotate(-81.65 120.477 40.1597)" fill="#508D3F"/>
<ellipse cx="124.616" cy="45.7223" rx="3.01705" ry="1.50853" transform="rotate(-81.65 124.616 45.7223)" fill="#508D3F"/>
<ellipse cx="119.295" cy="49.5154" rx="2.26279" ry="1.31996" transform="rotate(-81.65 119.295 49.5154)" fill="#508D3F"/>
<ellipse cx="31.7361" cy="78.7514" rx="3.92434" ry="2.14055" transform="rotate(-81.65 31.7361 78.7514)" fill="#508D3F"/>
<ellipse cx="35.6521" cy="84.0133" rx="2.85406" ry="1.42703" transform="rotate(-81.65 35.6521 84.0133)" fill="#508D3F"/>
<ellipse cx="30.618" cy="87.6016" rx="2.14055" ry="1.24865" transform="rotate(-81.65 30.618 87.6016)" fill="#508D3F"/>
<path d="M65.3627 66.5301L80.6286 70.325C90.2595 72.7191 96.297 66.9737 97.8277 60.6258C98.1142 59.1185 98.08 57.5633 97.727 56.0553C97.3741 54.5472 96.7099 53.1181 95.7751 51.8554C93.9044 49.0426 91.0357 46.9872 87.7317 46.0924C85.4852 45.6592 83.1755 45.7787 81.0142 46.4399C78.853 47.1011 76.9092 48.283 75.361 49.8771C74.9599 48.2498 74.381 45.8905 73.9226 43.9954L76.7541 44.6993C77.6045 44.8568 78.4781 44.7328 79.2346 44.3474C79.9912 43.9619 80.5867 43.3374 80.9254 42.5741C81.5519 42.2806 82.0979 41.8503 82.5217 41.316C82.9455 40.7816 83.2359 40.1574 83.3706 39.491C84.5121 34.7576 79.6077 31.0203 76.5636 30.2635C72.4287 29.1356 70.519 31.7545 68.8092 34.097L68.7344 34.2017C67.6592 35.7046 58.196 49.0394 57.1123 53.5337C56.4388 56.2762 56.9065 59.1905 58.4145 61.649C59.1831 62.87 60.1954 63.9319 61.3899 64.7705C62.5844 65.6092 63.9362 66.2069 65.3633 66.5275" fill="#2B5121"/>
</svg>
