<svg width="203" height="237" viewBox="0 0 203 237" fill="none" xmlns="http://www.w3.org/2000/svg">
<path d="M102.996 182.743C102.508 183.836 101.565 184.164 99.9207 183.756C98.9749 183.568 98.5547 183.146 98.0667 182.038C97.4666 180.552 96.7692 179.912 96.49 180.537C96.4027 180.732 95.9468 180.809 95.4651 180.734C94.7318 180.594 94.5316 180.832 94.0288 182.48C93.2632 185.135 92.3986 185.498 90.101 184.143C88.588 183.232 88.2019 183.153 87.363 183.668C85.9634 184.494 85.7838 185.21 86.5574 186.726C87.1626 187.887 87.1534 188.117 86.2612 189.169C85.5343 190.062 84.9695 190.278 83.8542 190.154C82.5827 189.96 82.3784 190.103 81.7328 191.547C81.0871 192.991 81.1169 193.238 82.1092 194.057C82.9453 194.805 83.1611 195.37 82.998 196.468C82.7867 197.778 82.604 197.978 81.3224 198.435C79.6065 199.026 79.319 199.459 79.6151 200.996C79.7909 201.965 80.1073 202.2 81.7947 202.72C84.3366 203.529 84.6429 204.415 83.2313 206.734C82.334 208.113 82.3115 208.477 82.7697 209.338C83.6131 210.698 84.1164 210.83 85.7891 210.126C87.0491 209.612 87.3182 209.639 88.3494 210.474C89.203 211.184 89.4188 211.749 89.2948 212.864C89.1009 214.135 89.2437 214.34 90.6878 214.985C92.1318 215.631 92.3793 215.601 93.1976 214.609C93.9461 213.773 94.5109 213.557 95.6478 213.738C97.0147 213.927 97.1749 214.093 97.4977 215.361C97.9324 217.007 98.5436 217.421 100.176 217.121C101.123 216.888 101.38 216.628 101.809 215.041C102.596 212.442 103.461 212.079 105.78 213.491C107.371 214.437 107.679 214.481 108.132 213.887C108.441 213.51 108.832 213.263 109.027 213.351C109.651 213.63 109.745 212.688 109.201 211.181C108.826 210.03 108.858 209.435 109.437 208.664C110.391 207.264 111.312 206.879 112.404 207.368C113.263 207.752 113.411 207.631 114.126 206.03C114.842 204.43 114.834 204.239 113.975 203.855C112.882 203.367 112.554 202.424 112.94 200.723C113.164 199.699 113.494 199.379 114.593 199.121C115.974 198.755 116.884 197.663 116.143 197.332C115.947 197.244 115.857 196.923 115.997 196.611C116.398 195.713 115.822 195.221 114.108 194.97C111.777 194.631 111.022 192.654 112.532 190.847C113.642 189.517 113.744 188.766 112.846 188.365C112.534 188.225 112.387 187.925 112.474 187.73C112.806 186.989 111.4 186.782 110.126 187.43C109.136 187.97 108.675 187.952 107.826 187.338C106.405 186.328 106.02 185.407 106.509 184.314C106.893 183.455 106.772 183.307 105.171 182.592C103.571 181.876 103.38 181.885 102.996 182.743ZM104.494 192.592C105.615 193.749 107.018 197.42 106.954 199.03C106.833 200.662 105.28 204.136 104.035 205.452C102.791 206.769 100.006 207.866 98.0311 207.779C96.1733 207.744 92.7214 206.248 91.2053 204.82C89.8278 203.502 88.7489 200.678 88.8964 198.777C89.0746 196.703 90.6493 193.286 92.0107 192.021C93.3897 190.718 96.2311 189.6 97.8629 189.721C99.5513 189.82 103.394 191.491 104.494 192.592Z" fill="#7CD5FF"/>
<path d="M96.6617 195.13C94.9981 195.604 93.6329 198.553 94.2586 200.191C94.8844 201.829 97.868 203.116 99.4237 202.36C101.053 201.543 102.11 198.971 101.449 197.411C100.767 195.795 98.3253 194.657 96.6617 195.13Z" fill="#7CD5FF"/>
<path d="M153.473 158.781C153.079 161.242 151.36 162.41 147.833 162.477C145.828 162.607 144.756 161.984 143.177 160.019C141.169 157.353 139.421 156.442 139.196 157.849C139.126 158.289 138.25 158.689 137.241 158.798C135.69 158.911 135.415 159.498 135.292 163.085C135.183 168.838 133.64 170.034 128.287 168.547C124.753 167.53 123.934 167.579 122.524 169.067C120.153 171.483 120.178 173.02 122.552 175.654C124.395 177.662 124.5 178.129 123.273 180.728C122.292 182.915 121.272 183.654 118.961 184.006C116.299 184.301 115.965 184.698 115.445 187.951C114.924 191.204 115.118 191.686 117.555 192.797C119.64 193.852 120.379 194.872 120.642 197.168C120.924 199.918 120.664 200.418 118.332 202.028C115.199 204.142 114.854 205.169 116.278 208.101C117.154 209.955 117.917 210.257 121.592 210.394C127.141 210.651 128.235 212.268 126.645 217.695C125.583 220.951 125.735 221.697 127.12 223.181C129.55 225.463 130.633 225.456 133.619 223.138C135.876 221.426 136.432 221.334 138.957 222.46C141.056 223.427 141.795 224.446 142.147 226.757C142.442 229.419 142.839 229.753 146.092 230.273C149.345 230.794 149.827 230.6 150.938 228.163C151.993 226.078 153.013 225.34 155.397 225.09C158.249 224.735 158.661 224.981 159.993 227.358C161.755 230.435 163.208 230.938 166.33 229.454C168.11 228.476 168.486 227.815 168.493 224.39C168.676 218.739 170.22 217.543 175.646 219.133C179.356 220.177 179.999 220.1 180.59 218.661C181.009 217.737 181.663 217.03 182.102 217.1C183.509 217.325 183.189 215.38 181.283 212.641C179.908 210.528 179.651 209.314 180.4 207.45C181.564 204.12 183.21 202.851 185.672 203.245C187.606 203.554 187.838 203.231 188.414 199.626C188.991 196.021 188.872 195.642 186.937 195.332C184.476 194.938 183.308 193.219 183.168 189.59C183.066 187.409 183.558 186.586 185.629 185.475C188.21 183.995 189.452 181.308 187.781 181.041C187.342 180.97 186.987 180.373 187.099 179.669C187.423 177.647 185.998 176.968 182.415 177.387C177.545 177.96 174.96 174.391 177.024 169.942C178.54 166.668 178.339 165.104 176.317 164.78C175.614 164.667 175.157 164.143 175.227 163.704C175.494 162.034 172.554 162.375 170.342 164.365C168.64 165.986 167.705 166.197 165.665 165.42C162.261 164.154 160.992 162.508 161.386 160.047C161.695 158.113 161.372 157.88 157.767 157.304C154.163 156.727 153.783 156.847 153.473 158.781ZM161.794 177.784C164.674 179.508 169.474 186.136 170.212 189.41C170.849 192.758 169.597 200.583 167.804 203.902C166.01 207.222 160.999 210.928 156.98 211.818C153.224 212.75 145.473 211.6 141.654 209.547C138.173 207.637 134.48 202.538 133.752 198.635C132.993 194.365 134.318 186.643 136.376 183.365C138.447 180 143.56 176.22 146.908 175.583C150.358 174.873 158.987 176.163 161.794 177.784Z" fill="#7CD5FF"/>
<path d="M147.408 187.114C144.317 188.963 143.16 195.631 145.301 198.588C147.443 201.546 154.139 202.527 156.86 200.167C159.698 197.646 160.437 191.903 158.267 189.122C156.023 186.238 150.499 185.264 147.408 187.114Z" fill="#7CD5FF"/>
<path d="M43.5387 85.9321C43.1114 86.8879 42.2869 87.1746 40.8488 86.8183C40.0215 86.6532 39.654 86.2841 39.2272 85.3151C38.7024 84.0155 38.0923 83.456 37.8482 84.0022C37.7718 84.1728 37.373 84.2403 36.9518 84.1748C36.3104 84.0519 36.1353 84.2603 35.6955 85.702C35.0259 88.0241 34.2697 88.3413 32.2601 87.1561C30.9369 86.3597 30.5992 86.2906 29.8654 86.7407C28.6413 87.4632 28.4843 88.0892 29.1609 89.4158C29.6902 90.4306 29.6821 90.6318 28.9018 91.5527C28.266 92.3333 27.772 92.5221 26.7965 92.4136C25.6845 92.2441 25.5058 92.369 24.9411 93.632C24.3764 94.895 24.4025 95.1114 25.2703 95.8271C26.0016 96.4818 26.1903 96.9757 26.0477 97.936C25.8629 99.0821 25.7031 99.2564 24.5822 99.6564C23.0814 100.173 22.83 100.552 23.0889 101.897C23.2427 102.744 23.5194 102.949 24.9953 103.405C27.2185 104.112 27.4863 104.887 26.2517 106.915C25.4669 108.121 25.4473 108.44 25.848 109.192C26.5857 110.382 27.0259 110.497 28.4889 109.882C29.5909 109.432 29.8263 109.456 30.7282 110.187C31.4748 110.807 31.6635 111.301 31.555 112.277C31.3855 113.389 31.5104 113.567 32.7734 114.132C34.0364 114.697 34.2529 114.671 34.9686 113.803C35.6232 113.072 36.1172 112.883 37.1115 113.041C38.3071 113.207 38.4472 113.351 38.7295 114.46C39.1098 115.9 39.6443 116.262 41.0724 115.999C41.9005 115.796 42.125 115.569 42.5002 114.18C43.1886 111.908 43.9448 111.59 45.9733 112.825C47.3648 113.652 47.6342 113.691 48.0302 113.171C48.3005 112.842 48.6427 112.626 48.8134 112.702C49.3595 112.946 49.4411 112.123 48.9657 110.804C48.6376 109.797 48.6653 109.277 49.1718 108.603C50.006 107.378 50.8116 107.042 51.7674 107.47C52.5184 107.805 52.6477 107.699 53.2734 106.3C53.8992 104.9 53.892 104.733 53.141 104.397C52.1852 103.97 51.8985 103.145 52.2359 101.658C52.4315 100.762 52.7207 100.482 53.6817 100.256C54.8898 99.9364 55.6854 98.9815 55.0368 98.6915C54.8661 98.6152 54.787 98.334 54.9091 98.0609C55.2602 97.2758 54.7562 96.8457 53.257 96.626C51.2189 96.3291 50.5583 94.6002 51.8793 93.0199C52.85 91.8565 52.9388 91.1999 52.1537 90.8489C51.8806 90.7268 51.7521 90.4645 51.8284 90.2939C52.1184 89.6453 50.8887 89.4641 49.775 90.0311C48.9083 90.5038 48.5059 90.4877 47.763 89.9507C46.5197 89.0671 46.1836 88.2615 46.6109 87.3057C46.9467 86.5547 46.8407 86.4254 45.4411 85.7997C44.0416 85.1739 43.8745 85.1811 43.5387 85.9321ZM44.8484 94.5457C45.8294 95.5578 47.0562 98.7686 46.9999 100.177C46.8942 101.604 45.5359 104.642 44.4475 105.794C43.3591 106.946 40.9233 107.905 39.1961 107.829C37.5712 107.799 34.552 106.49 33.226 105.241C32.0212 104.088 31.0776 101.618 31.2066 99.9558C31.3625 98.1414 32.7397 95.1528 33.9305 94.0468C35.1366 92.9067 37.6217 91.9289 39.049 92.0346C40.5257 92.1214 43.8862 93.583 44.8484 94.5457Z" fill="#7CD5FF"/>
<path d="M37.999 96.7664C36.544 97.1808 35.35 99.7598 35.8973 101.192C36.4446 102.625 39.0541 103.751 40.4148 103.089C41.8401 102.375 42.7639 100.126 42.186 98.7613C41.5893 97.3477 39.4541 96.352 37.999 96.7664Z" fill="#7CD5FF"/>
<path d="M20.5387 107.932C20.1114 108.888 19.2869 109.175 17.8488 108.818C17.0215 108.653 16.654 108.284 16.2272 107.315C15.7024 106.015 15.0923 105.456 14.8482 106.002C14.7718 106.173 14.373 106.24 13.9518 106.175C13.3104 106.052 13.1353 106.26 12.6955 107.702C12.0259 110.024 11.2697 110.341 9.26015 109.156C7.93691 108.36 7.59916 108.291 6.86542 108.741C5.64131 109.463 5.48426 110.089 6.1609 111.416C6.69016 112.431 6.68212 112.632 5.90177 113.553C5.266 114.333 4.77202 114.522 3.79654 114.414C2.68452 114.244 2.5058 114.369 1.94109 115.632C1.37639 116.895 1.40248 117.111 2.27031 117.827C3.00159 118.482 3.19032 118.976 3.04771 119.936C2.86293 121.082 2.70308 121.256 1.5822 121.656C0.0813925 122.173 -0.170026 122.552 0.0889464 123.897C0.242722 124.744 0.519415 124.949 1.99528 125.405C4.2185 126.112 4.48634 126.887 3.25173 128.915C2.46695 130.121 2.44725 130.44 2.84802 131.192C3.58571 132.382 4.02585 132.497 5.48891 131.882C6.59092 131.432 6.82626 131.456 7.72822 132.187C8.47477 132.807 8.6635 133.301 8.55502 134.277C8.3855 135.389 8.51039 135.567 9.7734 136.132C11.0364 136.697 11.2529 136.671 11.9686 135.803C12.6232 135.072 13.1172 134.883 14.1115 135.041C15.3071 135.207 15.4472 135.351 15.7295 136.46C16.1098 137.9 16.6443 138.262 18.0724 137.999C18.9005 137.796 19.125 137.569 19.5002 136.18C20.1886 133.908 20.9448 133.59 22.9733 134.825C24.3648 135.652 24.6342 135.691 25.0302 135.171C25.3005 134.842 25.6427 134.626 25.8134 134.702C26.3595 134.946 26.4411 134.123 25.9657 132.804C25.6376 131.797 25.6653 131.277 26.1718 130.603C27.006 129.378 27.8116 129.042 28.7674 129.47C29.5184 129.805 29.6477 129.699 30.2734 128.3C30.8992 126.9 30.892 126.733 30.141 126.397C29.1852 125.97 28.8985 125.145 29.2359 123.658C29.4315 122.762 29.7207 122.482 30.6817 122.256C31.8898 121.936 32.6854 120.981 32.0368 120.691C31.8661 120.615 31.787 120.334 31.9091 120.061C32.2602 119.276 31.7562 118.846 30.257 118.626C28.2189 118.329 27.5583 116.6 28.8793 115.02C29.85 113.857 29.9388 113.2 29.1537 112.849C28.8806 112.727 28.7521 112.465 28.8284 112.294C29.1184 111.645 27.8887 111.464 26.775 112.031C25.9083 112.504 25.5059 112.488 24.763 111.951C23.5197 111.067 23.1836 110.262 23.6109 109.306C23.9467 108.555 23.8407 108.425 22.4411 107.8C21.0416 107.174 20.8745 107.181 20.5387 107.932ZM21.8484 116.546C22.8294 117.558 24.0562 120.769 23.9999 122.177C23.8942 123.604 22.5359 126.642 21.4475 127.794C20.3591 128.946 17.9233 129.905 16.1961 129.829C14.5712 129.799 11.552 128.49 10.226 127.241C9.02124 126.088 8.07759 123.618 8.20658 121.956C8.36248 120.141 9.7397 117.153 10.9305 116.047C12.1366 114.907 14.6217 113.929 16.049 114.035C17.5257 114.121 20.8862 115.583 21.8484 116.546Z" fill="#7CD5FF"/>
<path d="M14.999 118.766C13.544 119.181 12.35 121.76 12.8973 123.192C13.4446 124.625 16.0541 125.751 17.4148 125.089C18.8401 124.375 19.7639 122.126 19.186 120.761C18.5893 119.348 16.4541 118.352 14.999 118.766Z" fill="#7CD5FF"/>
<path d="M61.3973 40.2069C62.2698 34.7534 67.3981 31.0398 72.8516 31.9124L175.248 48.2953C180.701 49.1678 184.415 54.2961 183.543 59.7496L166.066 168.981C163.885 182.614 151.064 191.898 137.43 189.717L64.6573 178.074C51.0235 175.892 41.7395 163.072 43.9209 149.438L61.3973 40.2069Z" fill="#1F9DD3"/>
<path d="M61.3973 40.2069C62.2698 34.7534 67.3981 31.0398 72.8516 31.9124L175.248 48.2953C180.701 49.1678 184.415 54.2961 183.543 59.7496L171.898 132.529C167.274 161.432 140.094 181.114 111.191 176.49L93.7141 173.694C64.8107 169.069 45.1286 141.89 49.753 112.986L61.3973 40.2069Z" fill="#46C4FF"/>
<path d="M61.3973 40.2069C62.2698 34.7534 67.3981 31.0398 72.8516 31.9124L175.248 48.2953C180.701 49.1678 184.415 54.2961 183.543 59.7496L167.317 161.165C165.223 174.253 152.915 183.166 139.826 181.072L65.0783 169.112C51.99 167.018 43.0773 154.71 45.1714 141.622L61.3973 40.2069Z" fill="#46C4FF"/>
<path d="M81.075 49.2892C81.1623 48.7439 81.6751 48.3725 82.2205 48.4597L162.657 61.3292C163.202 61.4164 163.574 61.9292 163.486 62.4746L153.804 122.99C150.163 145.747 128.763 161.244 106.006 157.603V157.603C83.2486 153.962 67.7519 132.562 71.3929 109.804L81.075 49.2892Z" fill="#1CB0F6"/>
<path d="M125.745 79.1282C124.86 81.5025 122.586 81.6977 121.142 79.5099C118.879 76.129 114.579 78.1244 116.116 81.8364C116.532 82.7416 116.407 83.1689 115.384 83.9556C114.416 84.7511 113.797 84.7639 111.654 84.1414C109.191 83.412 109.073 83.449 108.472 84.7505C107.73 86.5884 108.038 87.8119 109.405 88.0306C110.007 88.1268 110.464 88.4235 110.42 88.6961C110.377 88.9686 110.799 89.4835 111.374 89.7432C111.949 90.003 112.483 90.8711 112.525 91.6605C112.655 93.3025 114.059 93.6389 115.607 92.3771C116.195 91.8562 117.039 91.4881 117.476 91.5581C117.913 91.628 118.703 91.2512 119.236 90.7215C121.251 88.64 127.394 88.4487 130.683 90.3168C132.475 91.3861 134.083 93.6001 134.543 95.6305C135.297 99.3291 133.198 105.087 130.586 106.346C129.915 106.686 129.309 107.316 129.24 107.752C129.17 108.188 128.556 108.873 127.876 109.267C126.19 110.339 126.073 111.774 127.597 112.409C128.337 112.695 128.997 113.472 129.065 114.097C129.133 114.723 129.492 115.284 129.766 115.328C130.039 115.371 130.179 115.897 130.083 116.497C129.865 117.859 130.935 118.534 132.918 118.404C134.346 118.241 134.418 118.14 134.491 115.581C134.567 113.356 134.772 112.774 135.832 112.105C136.901 111.382 137.348 111.397 138.08 112.074C141.139 114.687 144.382 111.237 141.866 108.039C140.231 105.989 141.127 103.896 143.666 103.799C145.468 103.752 145.594 103.66 145.952 101.425C146.31 99.1902 146.218 99.0637 144.521 98.4567C142.139 97.5725 141.969 95.4769 144.116 93.9754C145.683 92.9404 146.21 91.4033 145.599 89.9639C145.303 89.3575 144.555 89.126 142.662 89.0467C139.248 89.0037 138.467 87.9283 139.491 84.6819C140.006 82.8635 140.019 82.0829 139.533 81.6138C138.352 80.5863 136.723 80.6051 135.247 81.7667C133.147 83.3314 131.202 82.5171 131.103 79.9855C131.054 78.1886 130.962 78.0621 128.72 77.7035C126.479 77.3448 126.352 77.4364 125.745 79.1282Z" fill="#0076AC"/>
<path d="M104.845 91.9979C104.601 93.5242 103.532 94.2477 101.339 94.2881C100.092 94.3682 99.4251 93.982 98.4427 92.7626C97.1933 91.1091 96.1062 90.5438 95.9667 91.416C95.9231 91.6886 95.3787 91.9369 94.7511 92.0042C93.7868 92.0735 93.6164 92.4376 93.5409 94.6618C93.4748 98.2292 92.5152 98.9701 89.1865 98.0462C86.9885 97.415 86.479 97.4453 85.6026 98.3673C84.1294 99.8647 84.1452 100.818 85.622 102.452C86.7684 103.697 86.8342 103.987 86.0718 105.598C85.4623 106.954 84.8284 107.412 83.3918 107.629C81.7365 107.812 81.5289 108.058 81.2062 110.075C80.8835 112.092 81.0039 112.391 82.5196 113.08C83.8167 113.735 84.2762 114.368 84.4409 115.792C84.6166 117.497 84.4549 117.807 83.0056 118.805C81.0578 120.114 80.8438 120.751 81.7303 122.57C82.2753 123.719 82.7499 123.907 85.0351 123.993C88.4859 124.154 89.1664 125.157 88.1796 128.521C87.5201 130.54 87.6144 131.003 88.4764 131.923C89.9881 133.339 90.6616 133.335 92.5175 131.899C93.9209 130.838 94.2664 130.781 95.8368 131.48C97.1425 132.08 97.602 132.712 97.8214 134.145C98.0059 135.796 98.2531 136.003 100.276 136.327C102.299 136.651 102.598 136.531 103.289 135.02C103.944 133.727 104.578 133.27 106.061 133.115C107.834 132.896 108.09 133.049 108.919 134.523C110.016 136.432 110.919 136.744 112.86 135.825C113.967 135.219 114.2 134.809 114.204 132.685C114.316 129.181 115.275 128.44 118.65 129.427C120.957 130.076 121.358 130.028 121.725 129.136C121.984 128.563 122.391 128.125 122.664 128.169C123.539 128.309 123.34 127.103 122.154 125.404C121.298 124.093 121.138 123.34 121.603 122.185C122.326 120.12 123.349 119.333 124.88 119.578C126.083 119.771 126.227 119.57 126.584 117.335C126.942 115.1 126.868 114.865 125.665 114.672C124.134 114.427 123.407 113.361 123.319 111.11C123.255 109.758 123.561 109.248 124.848 108.56C126.453 107.643 127.224 105.977 126.185 105.811C125.912 105.767 125.691 105.396 125.761 104.96C125.961 103.706 125.076 103.285 122.847 103.544C119.819 103.898 118.211 101.684 119.493 98.9258C120.435 96.8961 120.309 95.9257 119.052 95.7245C118.615 95.6545 118.33 95.3295 118.374 95.0569C118.539 94.0212 116.711 94.2319 115.337 95.4655C114.279 96.4703 113.697 96.6008 112.428 96.1183C110.311 95.3324 109.521 94.3115 109.766 92.7852C109.958 91.586 109.756 91.442 107.515 91.0833C105.273 90.7247 105.037 90.7987 104.845 91.9979ZM110.024 103.784C111.816 104.853 114.803 108.965 115.263 110.996C115.66 113.072 114.883 117.923 113.769 119.981C112.655 122.039 109.54 124.336 107.041 124.886C104.706 125.463 99.8856 124.748 97.5102 123.473C95.3448 122.288 93.0472 119.125 92.5935 116.705C92.1199 114.057 92.942 109.269 94.2203 107.237C95.5073 105.151 98.6858 102.809 100.767 102.415C102.912 101.975 108.279 102.778 110.024 103.784Z" fill="#0076AC"/>
<path d="M101.081 109.565C99.1594 110.711 98.4419 114.845 99.7745 116.679C101.107 118.514 105.271 119.124 106.963 117.662C108.727 116.099 109.184 112.538 107.834 110.813C106.438 109.024 103.003 108.419 101.081 109.565Z" fill="#0076AC"/>
<path d="M123.713 95.6871C123.459 95.8702 123.112 96.9887 122.929 98.1334L122.589 100.259L124.966 100.472C127.288 100.676 127.288 100.676 127.637 98.4953C127.977 96.3694 127.931 96.3062 126.098 95.8452C125.022 95.5613 123.966 95.5041 123.713 95.6871Z" fill="#0076AC"/>
<path d="M157.368 42.7731L176.821 46.2342L178.175 47.2029L179.53 48.1721L180.883 49.1411L182.856 50.9616L183.975 53.3979L185.07 58.8399L181.684 80.0052L119.359 123.029L57.0338 166.053L54.383 162.821L52.13 159.302L50.275 155.496L48.8179 151.402L47.7588 147.021L47.3861 142.75L47.4114 138.191L48.1513 133.566L50.9154 116.29L157.368 42.7731Z" fill="white" fill-opacity="0.29"/>
</svg>
