<svg width="32" height="57" viewBox="0 0 32 57" fill="none" xmlns="http://www.w3.org/2000/svg">
<path fill-rule="evenodd" clip-rule="evenodd" d="M13.9186 4.19599C12.9315 2.86238 10.8185 3.48799 10.7166 5.14405L10.257 12.6683L4.19586 17.1504C2.86224 18.1375 3.48786 20.2505 5.14392 20.3524L12.6682 20.812L17.1502 26.8731C18.1374 28.2068 20.2503 27.5811 20.3522 25.9251L20.8119 18.4008L26.873 13.9188C28.2066 12.9316 27.581 10.8187 25.9249 10.7168L18.4007 10.2571L13.9186 4.19599Z" fill="#FEE333"/>
<path fill-rule="evenodd" clip-rule="evenodd" d="M11.1349 35.3564C10.3452 34.2895 8.65483 34.79 8.57329 36.1149L8.20558 42.1343L3.35669 45.7199C2.2898 46.5096 2.79029 48.2 4.11514 48.2815L10.1346 48.6492L13.7202 53.4981C14.5099 54.565 16.2003 54.0645 16.2818 52.7397L16.6495 46.7203L21.4984 43.1346C22.5653 42.3449 22.0648 40.6545 20.74 40.573L14.7205 40.2053L11.1349 35.3564Z" fill="#FEE333"/>
</svg>
