<svg width="189" height="258" viewBox="0 0 189 258" fill="none" xmlns="http://www.w3.org/2000/svg">
<path opacity="0.5" d="M120.569 155.993C114.543 164.767 31.6799 254.592 29.593 253.617C27.9882 252.867 79.4336 148.133 85.5132 139.384C91.5925 130.635 104.361 127.292 114.011 131.866C123.703 136.428 126.604 147.256 120.569 155.993Z" fill="#6513A9"/>
<path opacity="0.3" d="M116.955 160.147C108.618 167.456 19.789 226.11 18.1386 224.665C16.8574 223.553 80.5234 143.12 88.9141 135.837C97.261 128.565 110.287 128.103 118.036 134.839C125.764 141.501 125.292 152.838 116.955 160.147Z" fill="#6513A9"/>
<path opacity="0.3" d="M83.0422 144.137C79.6364 153.782 63.4281 246.636 65.7457 247.077C67.568 247.415 119.294 161.37 122.7 151.725C126.062 142.09 119.917 132.604 108.975 130.541C98.0668 128.428 86.4571 134.529 83.0422 144.137Z" fill="#6513A9"/>
<path opacity="0.2" d="M112.745 163.125C102.663 168.462 15.0951 201.957 13.9187 200.187C13.0354 198.811 83.498 138.154 93.58 132.817C103.662 127.48 116.12 129.963 121.407 138.342C126.694 146.721 122.783 157.8 112.745 163.125Z" fill="#6513A9"/>
<path opacity="0.1" d="M112.746 163.124C102.664 168.461 26.1707 174.127 25.0479 172.382C24.1643 171.007 83.5517 138.178 93.6342 132.841C103.716 127.504 116.175 129.988 121.462 138.366C126.695 146.72 122.784 157.799 112.746 163.124Z" fill="#6513A9"/>
<path opacity="0.1" d="M82.0617 148.688C81.5757 158.574 114.461 215.811 116.913 215.704C118.811 215.629 122.984 156.802 123.427 146.928C123.87 137.053 114.954 129.451 103.54 129.992C92.1495 130.447 82.5045 138.814 82.0617 148.688Z" fill="#6513A9"/>
<path opacity="0.2" d="M82.0609 148.688C81.5753 158.574 91.0077 237.79 93.4158 237.696C95.3142 237.619 122.94 156.813 123.416 146.89C123.859 137.016 114.943 129.413 103.529 129.954C92.1388 130.409 82.5038 138.813 82.0609 148.688Z" fill="#6513A9"/>
<path d="M30.1966 58.7772C29.324 53.3237 33.0376 48.1955 38.4911 47.323L140.888 30.9401C146.341 30.0675 151.469 33.7811 152.342 39.2346L170.945 155.508C173.126 169.142 163.842 181.962 150.209 184.144L77.4354 195.787C63.8017 197.968 50.9811 188.684 48.7997 175.051L30.1966 58.7772Z" fill="#7B2BBE"/>
<path d="M30.1966 58.7772C29.324 53.3237 33.0376 48.1955 38.4911 47.323L140.888 30.9401C146.341 30.0675 151.469 33.7811 152.342 39.2346L165.044 118.625C169.668 147.529 149.986 174.708 121.083 179.333L103.606 182.129C74.7028 186.753 47.523 167.071 42.8986 138.168L30.1966 58.7772Z" fill="#46C4FF"/>
<path d="M30.1966 58.7772C29.324 53.3237 33.0376 48.1955 38.4911 47.323L140.888 30.9401C146.341 30.0675 151.469 33.7811 152.342 39.2346L169.625 147.261C171.72 160.349 162.807 172.657 149.719 174.751L74.9705 186.71C61.8821 188.805 49.5743 179.892 47.4802 166.803L30.1966 58.7772Z" fill="#C67DFF"/>
<path d="M51.8399 61.985C51.7526 61.4397 52.124 60.9268 52.6693 60.8396L133.106 47.9702C133.651 47.8829 134.164 48.2543 134.251 48.7996L144.738 114.345C148.379 137.102 132.882 158.502 110.125 162.143C87.3679 165.784 65.9679 150.288 62.3268 127.53L51.8399 61.985Z" fill="#9D4EDD"/>
<g clip-path="url(#clip0_2469_1279)">
<path d="M109.183 69.4898C109.98 69.3623 110.797 69.5711 111.455 70.0702C112.113 70.5694 112.557 71.318 112.69 72.1514L113.193 75.2938C113.327 76.1272 113.138 76.9771 112.669 77.6566C112.2 78.336 111.488 78.7894 110.691 78.9169C109.895 79.0444 109.077 78.8356 108.42 78.3364C107.762 77.8373 107.317 77.0886 107.184 76.2552L106.681 73.1128C106.548 72.2794 106.737 71.4295 107.206 70.7501C107.675 70.0706 108.386 69.6172 109.183 69.4898ZM98.6055 78.4335C98.8885 77.648 99.4605 77.0164 100.196 76.6775C100.931 76.3387 101.769 76.3204 102.526 76.6267L105.379 77.7816C106.131 78.0917 106.738 78.6978 107.07 79.4676C107.401 80.2374 107.428 81.1084 107.147 81.8905C106.865 82.6726 106.297 83.3023 105.566 83.6422C104.835 83.9821 104.001 84.0047 103.245 83.7049L100.392 82.55C99.6352 82.2437 99.0219 81.6379 98.6869 80.8659C98.3519 80.0939 98.3226 79.2189 98.6055 78.4335ZM121.61 79.1552C121.922 78.8952 122.18 78.5728 122.371 78.2064C122.561 77.8401 122.68 77.437 122.72 77.0205C122.759 76.6039 122.72 76.1821 122.603 75.7793C122.486 75.3765 122.294 75.0007 122.039 74.6735C121.783 74.3463 121.469 74.0742 121.114 73.8728C120.759 73.6715 120.37 73.5448 119.97 73.5002C119.57 73.4555 119.167 73.4938 118.783 73.6128C118.399 73.7317 118.043 73.929 117.735 74.1933L115.384 76.1808C115.073 76.4407 114.814 76.7632 114.624 77.1295C114.433 77.4959 114.315 77.8989 114.275 78.3155C114.235 78.732 114.275 79.1539 114.392 79.5566C114.509 79.9594 114.7 80.3352 114.956 80.6624C115.211 80.9896 115.526 81.2617 115.881 81.4631C116.236 81.6645 116.625 81.7911 117.025 81.8358C117.425 81.8804 117.828 81.8421 118.212 81.7232C118.595 81.6042 118.951 81.4069 119.26 81.1427L121.61 79.1552ZM107.582 85.2927C107.857 84.5415 108.398 83.9318 109.093 83.5875C109.789 83.2432 110.588 83.1901 111.328 83.439C112.068 83.6879 112.693 84.2202 113.077 84.9276C113.46 85.6351 113.573 86.4646 113.392 87.2476L113.289 87.6025L112.702 89.2305L115.555 90.3854C116.092 90.6027 116.561 90.9728 116.909 91.453C117.257 91.9332 117.469 92.5042 117.521 93.1003L117.534 93.5044L117.467 95.4166C124.317 102.139 127.207 112.496 123.796 121.959C119.226 134.647 105.256 140.514 92.7785 135.462C80.2976 130.411 73.5723 116.169 78.1429 103.481C81.4505 94.3015 89.6974 88.6828 98.7043 88.1989L99.5526 88.1663L100.704 86.693C101.064 86.2328 101.543 85.8899 102.086 85.7039C102.628 85.5179 103.213 85.4962 103.771 85.6415L104.142 85.7658L106.995 86.9207L107.582 85.2927ZM97.567 97.9623C95.4767 98.2969 93.5155 99.2011 91.8803 100.584C90.2451 101.967 88.9937 103.78 88.2517 105.84C87.9765 106.597 87.9908 107.438 88.2917 108.192C88.5925 108.946 89.1571 109.555 89.8695 109.894C90.5818 110.233 91.3877 110.277 92.1216 110.015C92.8555 109.754 93.4616 109.208 93.8154 108.489L93.9584 108.15C94.6734 106.166 96.2631 104.797 98.1128 104.34L98.5785 104.246C99.3752 104.118 100.086 103.664 100.555 102.984C101.023 102.304 101.211 101.454 101.077 100.62C100.943 99.787 100.498 99.0389 99.8393 98.5404C99.1811 98.0419 98.3637 97.834 97.567 97.9623ZM119.645 83.5529L122.499 84.7077C122.876 84.8575 123.222 85.0832 123.517 85.3718C123.812 85.6605 124.051 86.0065 124.219 86.3898C124.386 86.7731 124.48 87.1863 124.495 87.6054C124.51 88.0245 124.445 88.4414 124.304 88.832C124.163 89.2226 123.95 89.5792 123.675 89.8813C123.401 90.1834 123.071 90.425 122.705 90.5922C122.339 90.7594 121.943 90.8489 121.542 90.8556C121.14 90.8623 120.74 90.786 120.365 90.6311L117.512 89.4762C117.134 89.3265 116.788 89.1008 116.493 88.8121C116.198 88.5234 115.959 88.1774 115.792 87.7941C115.624 87.4108 115.53 86.9977 115.515 86.5785C115.501 86.1594 115.565 85.7425 115.706 85.3519C115.847 84.9614 116.061 84.6047 116.335 84.3027C116.61 84.0006 116.939 83.759 117.305 83.5917C117.672 83.4245 118.067 83.335 118.468 83.3283C118.87 83.3217 119.27 83.398 119.645 83.5529Z" fill="#6513A9"/>
</g>
<path d="M120.896 33.7735L140.46 31.0091L142.055 31.5429L143.65 32.077L145.244 32.6112L147.698 33.7971L149.539 35.8703L152.317 40.9507L155.869 63.1525L110.484 126.005L65.0987 188.858L61.5504 186.48L58.2878 183.689L55.3109 180.483L52.6198 176.864L50.2145 172.831L48.4956 168.689L47.0625 164.132L46.2863 159.281L43.3868 141.158L120.896 33.7735Z" fill="white" fill-opacity="0.29"/>
<defs>
<clipPath id="clip0_2469_1279">
<rect width="73.0269" height="76.3762" fill="white" transform="translate(58.217 73.5444) rotate(-9.09)"/>
</clipPath>
</defs>
</svg>
