<svg width="635" height="216" viewBox="0 0 635 216" fill="none" xmlns="http://www.w3.org/2000/svg">
<rect y="48.0059" width="635" height="164" rx="30" fill="#E4C2FF"/>
<path opacity="0.5" d="M103.108 130.211C98.0552 137.569 28.566 212.896 26.8159 212.078C25.4701 211.449 68.6122 123.62 73.7106 116.283C78.8086 108.946 89.5165 106.143 97.6086 109.978C105.737 113.804 108.17 122.884 103.108 130.211Z" fill="#6513A9"/>
<path opacity="0.3" d="M100.078 133.695C93.0862 139.824 18.5942 189.012 17.2102 187.8C16.1358 186.867 69.5261 119.416 76.5625 113.308C83.5622 107.21 94.4861 106.823 100.984 112.471C107.465 118.058 107.069 127.566 100.078 133.695Z" fill="#6513A9"/>
<path opacity="0.3" d="M71.6384 120.269C68.7823 128.357 55.19 206.224 57.1335 206.594C58.6617 206.878 102.039 134.72 104.895 126.632C107.715 118.553 102.561 110.598 93.3853 108.867C84.238 107.095 74.5021 112.211 71.6384 120.269Z" fill="#6513A9"/>
<path opacity="0.2" d="M96.5471 136.192C88.0924 140.668 14.658 168.757 13.6715 167.273C12.9308 166.118 72.0206 115.252 80.4754 110.776C88.9301 106.3 99.3779 108.383 103.811 115.409C108.245 122.436 104.965 131.726 96.5471 136.192Z" fill="#6513A9"/>
<path opacity="0.1" d="M96.5476 136.192C88.0928 140.667 23.9459 145.419 23.0044 143.956C22.2634 142.802 72.0656 115.272 80.5208 110.796C88.9756 106.321 99.4233 108.403 103.857 115.43C108.245 122.435 104.966 131.726 96.5476 136.192Z" fill="#6513A9"/>
<path opacity="0.1" d="M70.8162 124.086C70.4086 132.376 97.9859 180.375 100.042 180.286C101.634 180.222 105.134 130.89 105.505 122.61C105.877 114.329 98.3993 107.953 88.8275 108.407C79.2757 108.789 71.1874 115.805 70.8162 124.086Z" fill="#6513A9"/>
<path opacity="0.2" d="M70.8154 124.085C70.4082 132.375 78.3182 198.806 80.3376 198.727C81.9296 198.663 105.096 130.898 105.496 122.577C105.868 114.297 98.3905 107.921 88.8183 108.375C79.2667 108.757 71.1867 115.804 70.8154 124.085Z" fill="#6513A9"/>
<path d="M27.5772 50.2797C26.7046 44.8262 30.4182 39.6979 35.8717 38.8254L118.554 25.5967C124.007 24.7242 129.136 28.4378 130.008 33.8913L144.716 125.82C146.898 139.454 137.614 152.274 123.98 154.456L70.921 162.945C57.2873 165.126 44.4667 155.842 42.2853 142.209L27.5772 50.2797Z" fill="#7B2BBE"/>
<path d="M27.5772 50.2797C26.7046 44.8262 30.4182 39.6979 35.8717 38.8254L118.554 25.5967C124.007 24.7242 129.136 28.4378 130.008 33.8913L139.233 91.5465C143.758 119.832 124.497 146.431 96.2114 150.956V150.956C67.9259 155.482 41.3273 136.22 36.8017 107.935L27.5772 50.2797Z" fill="#46C4FF"/>
<path d="M27.5772 50.2797C26.7046 44.8262 30.4182 39.6979 35.8717 38.8254L118.554 25.5967C124.007 24.7242 129.136 28.4378 130.008 33.8913L143.635 119.063C145.729 132.152 136.817 144.459 123.728 146.554L68.6945 155.359C55.6062 157.453 43.2983 148.54 41.2043 135.452L27.5772 50.2797Z" fill="#C67DFF"/>
<path d="M45.4976 51.5353C45.4103 50.9899 45.7817 50.4771 46.327 50.3899L113.462 39.6486C114.008 39.5613 114.52 39.9327 114.608 40.478L123.376 95.2851C126.43 114.369 113.434 132.315 94.3501 135.369V135.369C75.2659 138.422 57.3198 125.427 54.2664 106.342L45.4976 51.5353Z" fill="#9D4EDD"/>
<g clip-path="url(#clip0_1854_1362)">
<path d="M93.5603 57.6691C94.2286 57.5622 94.9139 57.7373 95.4655 58.1559C96.0171 58.5745 96.3898 59.2023 96.5016 59.9012L96.9232 62.5364C97.035 63.2353 96.8768 63.948 96.4834 64.5178C96.0899 65.0876 95.4935 65.4678 94.8252 65.5747C94.157 65.6816 93.4717 65.5065 92.9201 65.0879C92.3685 64.6693 91.9958 64.0415 91.8839 63.3426L91.4623 60.7074C91.3505 60.0085 91.5087 59.2958 91.9022 58.726C92.2956 58.1562 92.8921 57.776 93.5603 57.6691ZM84.69 65.1693C84.9273 64.5106 85.4069 63.9809 86.0235 63.6968C86.64 63.4126 87.3429 63.3973 87.9775 63.6541L90.3703 64.6226C91.0006 64.8827 91.5102 65.391 91.7879 66.0365C92.0656 66.6821 92.0889 67.4125 91.8526 68.0683C91.6163 68.7242 91.1397 69.2523 90.5268 69.5373C89.9138 69.8224 89.2143 69.8413 88.5809 69.5899L86.1881 68.6214C85.5535 68.3645 85.0391 67.8565 84.7582 67.2091C84.4772 66.5617 84.4527 65.828 84.69 65.1693ZM103.982 65.7745C104.243 65.5565 104.46 65.2861 104.62 64.9789C104.779 64.6717 104.879 64.3337 104.912 63.9843C104.945 63.635 104.912 63.2813 104.814 62.9435C104.716 62.6057 104.555 62.2906 104.341 62.0162C104.127 61.7418 103.863 61.5136 103.565 61.3447C103.268 61.1759 102.942 61.0697 102.606 61.0322C102.271 60.9948 101.933 61.0269 101.611 61.1267C101.289 61.2264 100.99 61.3919 100.732 61.6135L98.7607 63.2802C98.4993 63.4982 98.2825 63.7686 98.1229 64.0758C97.9632 64.383 97.8639 64.721 97.8305 65.0704C97.7971 65.4197 97.8303 65.7734 97.9283 66.1112C98.0262 66.449 98.187 66.7641 98.4013 67.0385C98.6156 67.3129 98.8792 67.5411 99.1769 67.71C99.4747 67.8788 99.8007 67.985 100.136 68.0225C100.472 68.0599 100.81 68.0278 101.132 67.928C101.453 67.8283 101.752 67.6628 102.011 67.4412L103.982 65.7745ZM92.2179 70.9215C92.4485 70.2915 92.9016 69.7802 93.4851 69.4915C94.0685 69.2027 94.7386 69.1582 95.359 69.3669C95.9795 69.5757 96.5038 70.0221 96.8253 70.6153C97.1469 71.2086 97.2417 71.9042 97.0903 72.5608L97.0035 72.8584L96.5113 74.2237L98.9042 75.1921C99.3542 75.3744 99.7476 75.6847 100.039 76.0875C100.331 76.4902 100.509 76.969 100.553 77.4689L100.563 77.8078L100.507 79.4113C106.252 85.0488 108.675 93.7339 105.815 101.67C101.982 112.31 90.2673 117.23 79.8034 112.993C69.3369 108.757 63.6971 96.814 67.53 86.1739C70.3038 78.4762 77.2197 73.7643 84.7728 73.3586L85.4842 73.3312L86.4494 72.0958C86.7517 71.7098 87.1535 71.4223 87.6085 71.2663C88.0636 71.1103 88.5534 71.0921 89.0216 71.2139L89.3329 71.3182L91.7257 72.2867L92.2179 70.9215ZM83.819 81.5461C82.0662 81.8268 80.4214 82.585 79.0502 83.7447C77.6789 84.9044 76.6295 86.4246 76.0073 88.1526C75.7765 88.7868 75.7885 89.4925 76.0408 90.1248C76.2931 90.7571 76.7666 91.2679 77.3639 91.5523C77.9612 91.8366 78.6371 91.8729 79.2525 91.6537C79.868 91.4345 80.3763 90.9765 80.673 90.3737L80.7929 90.0896C81.3924 88.4262 82.7256 87.2777 84.2768 86.8944L84.6673 86.8157C85.3354 86.7081 85.9315 86.3273 86.3244 85.7571C86.7173 85.1869 86.8749 84.474 86.7624 83.7752C86.6499 83.0764 86.2766 82.449 85.7246 82.0309C85.1726 81.6129 84.4872 81.4385 83.819 81.5461ZM102.334 69.4624L104.727 70.4309C105.043 70.5564 105.333 70.7457 105.581 70.9878C105.828 71.2299 106.028 71.52 106.169 71.8415C106.31 72.1629 106.389 72.5094 106.401 72.8609C106.413 73.2123 106.359 73.5619 106.241 73.8895C106.123 74.217 105.944 74.5161 105.713 74.7694C105.483 75.0227 105.207 75.2254 104.9 75.3656C104.593 75.5058 104.261 75.5809 103.924 75.5865C103.588 75.5921 103.252 75.5281 102.937 75.3982L100.545 74.4297C100.228 74.3041 99.9379 74.1149 99.6904 73.8728C99.4428 73.6307 99.2429 73.3406 99.1022 73.0191C98.9615 72.6977 98.8827 72.3512 98.8704 71.9997C98.8581 71.6482 98.9125 71.2987 99.0305 70.9711C99.1485 70.6436 99.3277 70.3445 99.5579 70.0912C99.7881 69.8379 100.065 69.6352 100.372 69.495C100.679 69.3548 101.01 69.2797 101.347 69.2741C101.684 69.2685 102.019 69.3325 102.334 69.4624Z" fill="#6513A9"/>
</g>
<path d="M103.383 27.718L119.789 25.3998L121.126 25.8475L122.464 26.2953L123.801 26.7433L125.859 27.7378L127.403 29.4764L129.732 33.7368L132.711 52.3553L94.651 105.063L56.591 157.771L53.6154 155.778L50.8794 153.437L48.3829 150.749L46.1262 147.714L44.1091 144.332L42.6677 140.858L41.4658 137.036L40.8149 132.968L38.3834 117.771L103.383 27.718Z" fill="white" fill-opacity="0.29"/>
<path d="M219.54 91.66V95H210.78V82.46H219.36V85.72H214.48V87.14H218.62V90.18H214.48V91.66H219.54ZM226.96 89.86L229.86 95H225.94L224.76 92.36L223.58 95H219.88L222.8 89.86L219.86 85.12H224.04L225.08 87.54L226.18 85.12H229.86L226.96 89.86ZM234.046 98.04H230.446V85.12H233.606L233.786 86.06H233.906C234.239 85.6733 234.639 85.3867 235.106 85.2C235.572 85.0133 236.106 84.92 236.706 84.92C237.986 84.92 238.892 85.3133 239.426 86.1C239.972 86.8733 240.246 88.1933 240.246 90.06C240.246 91.8467 239.899 93.1533 239.206 93.98C238.526 94.7933 237.432 95.2 235.926 95.2C235.579 95.2 235.246 95.18 234.926 95.14C234.606 95.1 234.312 95.04 234.046 94.96V98.04ZM236.646 90.06C236.646 89.3 236.566 88.7933 236.406 88.54C236.246 88.2867 235.899 88.16 235.366 88.16C235.126 88.16 234.892 88.1867 234.666 88.24C234.452 88.28 234.246 88.3467 234.046 88.44V91.72C234.192 91.7733 234.366 91.8133 234.566 91.84C234.766 91.8667 234.999 91.88 235.266 91.88C235.852 91.88 236.226 91.7667 236.386 91.54C236.559 91.3 236.646 90.8067 236.646 90.06ZM244.925 81.7V95H241.325V81.7H244.925ZM255.986 90.06C255.986 91.9133 255.599 93.24 254.826 94.04C254.053 94.8267 252.766 95.22 250.966 95.22C249.193 95.22 247.913 94.82 247.126 94.02C246.353 93.2067 245.966 91.8867 245.966 90.06C245.966 88.22 246.346 86.9067 247.106 86.12C247.879 85.32 249.166 84.92 250.966 84.92C252.753 84.92 254.033 85.32 254.806 86.12C255.593 86.92 255.986 88.2333 255.986 90.06ZM249.566 90.02C249.566 90.7933 249.653 91.3 249.826 91.54C249.999 91.7667 250.379 91.88 250.966 91.88C251.566 91.88 251.953 91.7667 252.126 91.54C252.299 91.3 252.386 90.7933 252.386 90.02C252.386 89.2467 252.299 88.7467 252.126 88.52C251.953 88.28 251.566 88.16 250.966 88.16C250.379 88.16 249.999 88.28 249.826 88.52C249.653 88.7467 249.566 89.2467 249.566 90.02ZM261.267 87.7C260.801 87.7 260.487 87.7333 260.327 87.8C260.167 87.8667 260.087 88 260.087 88.2C260.087 88.3067 260.114 88.3867 260.167 88.44C260.234 88.4933 260.327 88.5267 260.447 88.54L262.567 88.8C263.447 88.9067 264.047 89.1667 264.367 89.58C264.701 89.9933 264.867 90.6667 264.867 91.6C264.867 92.8533 264.554 93.7733 263.927 94.36C263.314 94.9333 262.281 95.22 260.827 95.22C260.041 95.22 259.314 95.18 258.647 95.1C257.994 95.0333 257.454 94.94 257.027 94.82V91.94C257.561 92.06 258.127 92.1533 258.727 92.22C259.327 92.2867 259.894 92.32 260.427 92.32C260.881 92.32 261.181 92.28 261.327 92.2C261.487 92.12 261.567 91.9667 261.567 91.74C261.567 91.66 261.541 91.5933 261.487 91.54C261.434 91.4733 261.354 91.4333 261.247 91.42L258.907 91.14C258.134 91.0333 257.574 90.76 257.227 90.32C256.894 89.88 256.727 89.22 256.727 88.34C256.727 87.1933 257.087 86.34 257.807 85.78C258.541 85.2067 259.627 84.92 261.067 84.92C261.721 84.92 262.314 84.94 262.847 84.98C263.381 85.0067 263.847 85.0533 264.247 85.12V87.92C263.794 87.8533 263.301 87.8 262.767 87.76C262.234 87.72 261.734 87.7 261.267 87.7ZM268.235 95.22C267.275 95.22 266.575 94.9667 266.135 94.46C265.695 93.9533 265.475 93.16 265.475 92.08C265.475 91.0133 265.748 90.2533 266.295 89.8C266.855 89.3467 267.782 89.12 269.075 89.12C269.382 89.12 269.688 89.1333 269.995 89.16C270.315 89.1867 270.595 89.22 270.835 89.26V88.76C270.835 88.4933 270.708 88.3067 270.455 88.2C270.202 88.08 269.788 88.02 269.215 88.02C268.668 88.02 268.168 88.0333 267.715 88.06C267.275 88.0867 266.828 88.14 266.375 88.22V85.28C266.868 85.16 267.462 85.0733 268.155 85.02C268.862 84.9533 269.668 84.92 270.575 84.92C271.828 84.92 272.782 85.2 273.435 85.76C274.102 86.3067 274.435 87.1133 274.435 88.18V95H271.035L270.935 94.22H270.875C270.475 94.5533 270.048 94.8067 269.595 94.98C269.155 95.14 268.702 95.22 268.235 95.22ZM269.655 91.16C269.308 91.16 269.062 91.2133 268.915 91.32C268.782 91.4133 268.715 91.5933 268.715 91.86C268.715 92.1267 268.768 92.3133 268.875 92.42C268.995 92.5133 269.195 92.56 269.475 92.56C269.702 92.56 269.935 92.54 270.175 92.5C270.428 92.4467 270.648 92.38 270.835 92.3V91.24C270.648 91.2133 270.455 91.1933 270.255 91.18C270.068 91.1667 269.868 91.16 269.655 91.16ZM271.515 81.42H273.355C273.355 82.3133 273.208 83.0067 272.915 83.5C272.635 83.9933 272.222 84.24 271.675 84.24C271.488 84.24 271.282 84.2067 271.055 84.14C270.842 84.06 270.535 83.9067 270.135 83.68C269.908 83.5467 269.748 83.46 269.655 83.42C269.562 83.38 269.482 83.36 269.415 83.36C269.295 83.36 269.208 83.4267 269.155 83.56C269.102 83.68 269.075 83.88 269.075 84.16H267.215C267.215 83.2667 267.355 82.5733 267.635 82.08C267.928 81.5867 268.348 81.34 268.895 81.34C269.082 81.34 269.282 81.3733 269.495 81.44C269.708 81.5067 270.008 81.6467 270.395 81.86C270.635 81.98 270.802 82.06 270.895 82.1C271.002 82.14 271.088 82.16 271.155 82.16C271.275 82.16 271.362 82.1 271.415 81.98C271.482 81.86 271.515 81.6733 271.515 81.42ZM285.459 90.06C285.459 91.9133 285.072 93.24 284.299 94.04C283.525 94.8267 282.239 95.22 280.439 95.22C278.665 95.22 277.385 94.82 276.599 94.02C275.825 93.2067 275.439 91.8867 275.439 90.06C275.439 88.22 275.819 86.9067 276.579 86.12C277.352 85.32 278.639 84.92 280.439 84.92C282.225 84.92 283.505 85.32 284.279 86.12C285.065 86.92 285.459 88.2333 285.459 90.06ZM279.039 90.02C279.039 90.7933 279.125 91.3 279.299 91.54C279.472 91.7667 279.852 91.88 280.439 91.88C281.039 91.88 281.425 91.7667 281.599 91.54C281.772 91.3 281.859 90.7933 281.859 90.02C281.859 89.2467 281.772 88.7467 281.599 88.52C281.425 88.28 281.039 88.16 280.439 88.16C279.852 88.16 279.472 88.28 279.299 88.52C279.125 88.7467 279.039 89.2467 279.039 90.02ZM298.134 91.66V95H289.374V82.46H297.954V85.72H293.074V87.14H297.214V90.18H293.074V91.66H298.134ZM302.854 81.7V95H299.254V81.7H302.854ZM312.616 91.78V94.52C312.242 94.7067 311.662 94.8667 310.876 95C310.102 95.1467 309.296 95.22 308.456 95.22C306.842 95.22 305.676 94.82 304.956 94.02C304.249 93.2067 303.896 91.8933 303.896 90.08C303.896 88.3067 304.276 87.0067 305.036 86.18C305.809 85.34 307.009 84.92 308.636 84.92C310.209 84.92 311.336 85.2333 312.016 85.86C312.696 86.4733 313.036 87.5267 313.036 89.02C313.036 89.4733 313.029 89.84 313.016 90.12C313.002 90.3867 312.976 90.6933 312.936 91.04H307.456C307.469 91.4667 307.589 91.76 307.816 91.92C308.042 92.0667 308.449 92.14 309.036 92.14C309.676 92.14 310.329 92.1067 310.996 92.04C311.676 91.96 312.216 91.8733 312.616 91.78ZM308.676 87.76C308.222 87.76 307.902 87.8533 307.716 88.04C307.542 88.2133 307.456 88.5667 307.456 89.1H309.836V88.64C309.809 88.2933 309.716 88.06 309.556 87.94C309.409 87.82 309.116 87.76 308.676 87.76ZM314.679 88.1H313.659V85.12H314.819L315.239 82.86H318.279V85.12H320.759V88.1H318.279V91.08C318.279 91.3867 318.359 91.5933 318.519 91.7C318.693 91.8067 319.006 91.86 319.459 91.86C319.659 91.86 319.906 91.8467 320.199 91.82C320.493 91.7933 320.726 91.76 320.899 91.72V94.82C320.699 94.9133 320.333 95 319.799 95.08C319.279 95.1733 318.819 95.22 318.419 95.22C317.086 95.22 316.126 94.9333 315.539 94.36C314.966 93.7867 314.679 92.86 314.679 91.58V88.1ZM325.354 95H321.754V85.12H325.114L325.234 85.88H325.274C325.688 85.5733 326.094 85.34 326.494 85.18C326.908 85.02 327.308 84.94 327.694 84.94H328.034V88.42C327.728 88.3933 327.521 88.38 327.414 88.38C327.321 88.3667 327.221 88.36 327.114 88.36C326.781 88.36 326.468 88.38 326.174 88.42C325.881 88.46 325.608 88.52 325.354 88.6V95ZM338.525 90.06C338.525 91.9133 338.138 93.24 337.365 94.04C336.592 94.8267 335.305 95.22 333.505 95.22C331.732 95.22 330.452 94.82 329.665 94.02C328.892 93.2067 328.505 91.8867 328.505 90.06C328.505 88.22 328.885 86.9067 329.645 86.12C330.418 85.32 331.705 84.92 333.505 84.92C335.292 84.92 336.572 85.32 337.345 86.12C338.132 86.92 338.525 88.2333 338.525 90.06ZM332.105 90.02C332.105 90.7933 332.192 91.3 332.365 91.54C332.538 91.7667 332.918 91.88 333.505 91.88C334.105 91.88 334.492 91.7667 334.665 91.54C334.838 91.3 334.925 90.7933 334.925 90.02C334.925 89.2467 334.838 88.7467 334.665 88.52C334.492 88.28 334.105 88.16 333.505 88.16C332.918 88.16 332.538 88.28 332.365 88.52C332.192 88.7467 332.105 89.2467 332.105 90.02ZM337.205 84.16H334.605L333.505 83.06L332.425 84.16H329.825L331.965 81.44H335.065L337.205 84.16ZM343.186 95H339.586V85.12H342.686L342.826 86.16H342.906C343.306 85.7333 343.746 85.42 344.226 85.22C344.706 85.02 345.273 84.92 345.926 84.92C346.966 84.92 347.753 85.1933 348.286 85.74C348.82 86.2867 349.086 87.0933 349.086 88.16V95H345.486V88.9C345.486 88.66 345.4 88.48 345.226 88.36C345.066 88.2267 344.82 88.16 344.486 88.16C344.26 88.16 344.04 88.1867 343.826 88.24C343.613 88.28 343.4 88.3467 343.186 88.44V95ZM354.047 84.3H350.347V81.7H354.047V84.3ZM354.007 95H350.407V85.12H354.007V95ZM362.888 91.52V94.48C362.555 94.68 362.015 94.8533 361.268 95C360.535 95.1467 359.781 95.22 359.008 95.22C357.555 95.22 356.535 94.84 355.948 94.08C355.361 93.3067 355.068 91.9667 355.068 90.06C355.068 88.14 355.441 86.8067 356.188 86.06C356.948 85.3 358.281 84.92 360.188 84.92C360.588 84.92 360.955 84.9333 361.288 84.96C361.621 84.9733 362.068 85.0133 362.628 85.08V88.24C362.615 88.24 362.348 88.2267 361.828 88.2C361.308 88.1733 360.775 88.16 360.228 88.16C359.548 88.16 359.115 88.2667 358.928 88.48C358.755 88.6933 358.668 89.22 358.668 90.06C358.668 90.82 358.748 91.3133 358.908 91.54C359.068 91.7533 359.415 91.86 359.948 91.86C360.441 91.86 360.955 91.8267 361.488 91.76C362.021 91.6933 362.488 91.6133 362.888 91.52ZM366.223 95.22C365.263 95.22 364.563 94.9667 364.123 94.46C363.683 93.9533 363.463 93.16 363.463 92.08C363.463 91.0133 363.736 90.2533 364.283 89.8C364.843 89.3467 365.77 89.12 367.063 89.12C367.37 89.12 367.676 89.1333 367.983 89.16C368.303 89.1867 368.583 89.22 368.823 89.26V88.76C368.823 88.4933 368.696 88.3067 368.443 88.2C368.19 88.08 367.776 88.02 367.203 88.02C366.656 88.02 366.156 88.0333 365.703 88.06C365.263 88.0867 364.816 88.14 364.363 88.22V85.28C364.856 85.16 365.45 85.0733 366.143 85.02C366.85 84.9533 367.656 84.92 368.563 84.92C369.816 84.92 370.77 85.2 371.423 85.76C372.09 86.3067 372.423 87.1133 372.423 88.18V95H369.023L368.923 94.22H368.863C368.463 94.5533 368.036 94.8067 367.583 94.98C367.143 95.14 366.69 95.22 366.223 95.22ZM367.643 91.16C367.296 91.16 367.05 91.2133 366.903 91.32C366.77 91.4133 366.703 91.5933 366.703 91.86C366.703 92.1267 366.756 92.3133 366.863 92.42C366.983 92.5133 367.183 92.56 367.463 92.56C367.69 92.56 367.923 92.54 368.163 92.5C368.416 92.4467 368.636 92.38 368.823 92.3V91.24C368.636 91.2133 368.443 91.1933 368.243 91.18C368.056 91.1667 367.856 91.16 367.643 91.16Z" fill="#6513A9"/>
<path d="M243.986 127.264H240.318L239.73 129H237.224L240.78 119.172H243.552L247.108 129H244.574L243.986 127.264ZM243.37 125.416L242.152 121.818L240.948 125.416H243.37ZM255.26 119.172V121.09H252.656V129H250.262V121.09H247.658V119.172H255.26ZM258.856 119.172V129H256.462V119.172H258.856ZM269.383 129H266.989L262.985 122.938V129H260.591V119.172H262.985L266.989 125.262V119.172H269.383V129ZM277.278 119.172V125.864C277.278 126.9 276.984 127.698 276.396 128.258C275.817 128.818 275.033 129.098 274.044 129.098C273.008 129.098 272.177 128.804 271.552 128.216C270.927 127.628 270.614 126.793 270.614 125.71H272.994C272.994 126.121 273.078 126.433 273.246 126.648C273.414 126.853 273.657 126.956 273.974 126.956C274.263 126.956 274.487 126.863 274.646 126.676C274.805 126.489 274.884 126.219 274.884 125.864V119.172H277.278ZM285.33 127.264H281.662L281.074 129H278.568L282.124 119.172H284.896L288.452 129H285.918L285.33 127.264ZM284.714 125.416L283.496 121.818L282.292 125.416H284.714ZM292.179 127.082C292.496 126.83 292.641 126.713 292.613 126.732C293.527 125.976 294.246 125.355 294.769 124.87C295.301 124.385 295.749 123.876 296.113 123.344C296.477 122.812 296.659 122.294 296.659 121.79C296.659 121.407 296.57 121.109 296.393 120.894C296.215 120.679 295.949 120.572 295.595 120.572C295.24 120.572 294.96 120.707 294.755 120.978C294.559 121.239 294.461 121.613 294.461 122.098H292.151C292.169 121.305 292.337 120.642 292.655 120.11C292.981 119.578 293.406 119.186 293.929 118.934C294.461 118.682 295.049 118.556 295.693 118.556C296.803 118.556 297.639 118.841 298.199 119.41C298.768 119.979 299.053 120.721 299.053 121.636C299.053 122.635 298.712 123.563 298.031 124.422C297.349 125.271 296.481 126.102 295.427 126.914H299.207V128.86H292.179V127.082ZM300.261 123.75C300.261 122.145 300.569 120.88 301.185 119.956C301.81 119.032 302.814 118.57 304.195 118.57C305.576 118.57 306.575 119.032 307.191 119.956C307.816 120.88 308.129 122.145 308.129 123.75C308.129 125.374 307.816 126.648 307.191 127.572C306.575 128.496 305.576 128.958 304.195 128.958C302.814 128.958 301.81 128.496 301.185 127.572C300.569 126.648 300.261 125.374 300.261 123.75ZM305.777 123.75C305.777 122.807 305.674 122.084 305.469 121.58C305.264 121.067 304.839 120.81 304.195 120.81C303.551 120.81 303.126 121.067 302.921 121.58C302.716 122.084 302.613 122.807 302.613 123.75C302.613 124.385 302.65 124.912 302.725 125.332C302.8 125.743 302.949 126.079 303.173 126.34C303.406 126.592 303.747 126.718 304.195 126.718C304.643 126.718 304.979 126.592 305.203 126.34C305.436 126.079 305.59 125.743 305.665 125.332C305.74 124.912 305.777 124.385 305.777 123.75ZM309.394 123.75C309.394 122.145 309.702 120.88 310.318 119.956C310.943 119.032 311.946 118.57 313.328 118.57C314.709 118.57 315.708 119.032 316.324 119.956C316.949 120.88 317.262 122.145 317.262 123.75C317.262 125.374 316.949 126.648 316.324 127.572C315.708 128.496 314.709 128.958 313.328 128.958C311.946 128.958 310.943 128.496 310.318 127.572C309.702 126.648 309.394 125.374 309.394 123.75ZM314.91 123.75C314.91 122.807 314.807 122.084 314.602 121.58C314.396 121.067 313.972 120.81 313.328 120.81C312.684 120.81 312.259 121.067 312.054 121.58C311.848 122.084 311.746 122.807 311.746 123.75C311.746 124.385 311.783 124.912 311.858 125.332C311.932 125.743 312.082 126.079 312.306 126.34C312.539 126.592 312.88 126.718 313.328 126.718C313.776 126.718 314.112 126.592 314.336 126.34C314.569 126.079 314.723 125.743 314.798 125.332C314.872 124.912 314.91 124.385 314.91 123.75ZM318.526 123.75C318.526 122.145 318.834 120.88 319.45 119.956C320.076 119.032 321.079 118.57 322.46 118.57C323.842 118.57 324.84 119.032 325.456 119.956C326.082 120.88 326.394 122.145 326.394 123.75C326.394 125.374 326.082 126.648 325.456 127.572C324.84 128.496 323.842 128.958 322.46 128.958C321.079 128.958 320.076 128.496 319.45 127.572C318.834 126.648 318.526 125.374 318.526 123.75ZM324.042 123.75C324.042 122.807 323.94 122.084 323.734 121.58C323.529 121.067 323.104 120.81 322.46 120.81C321.816 120.81 321.392 121.067 321.186 121.58C320.981 122.084 320.878 122.807 320.878 123.75C320.878 124.385 320.916 124.912 320.99 125.332C321.065 125.743 321.214 126.079 321.438 126.34C321.672 126.592 322.012 126.718 322.46 126.718C322.908 126.718 323.244 126.592 323.468 126.34C323.702 126.079 323.856 125.743 323.93 125.332C324.005 124.912 324.042 124.385 324.042 123.75ZM335.876 129L333.832 125.29H333.258V129H330.864V119.172H334.882C335.657 119.172 336.315 119.307 336.856 119.578C337.407 119.849 337.817 120.222 338.088 120.698C338.359 121.165 338.494 121.687 338.494 122.266C338.494 122.919 338.307 123.503 337.934 124.016C337.57 124.529 337.029 124.893 336.31 125.108L338.578 129H335.876ZM333.258 123.596H334.742C335.181 123.596 335.507 123.489 335.722 123.274C335.946 123.059 336.058 122.756 336.058 122.364C336.058 121.991 335.946 121.697 335.722 121.482C335.507 121.267 335.181 121.16 334.742 121.16H333.258V123.596ZM346.115 127.264H342.447L341.859 129H339.353L342.909 119.172H345.681L349.237 129H346.703L346.115 127.264ZM345.499 125.416L344.281 121.818L343.077 125.416H345.499ZM361.449 119.172V129H359.055V123.106L356.857 129H354.925L352.713 123.092V129H350.319V119.172H353.147L355.905 125.976L358.635 119.172H361.449ZM362.765 124.072C362.765 123.101 362.975 122.238 363.395 121.482C363.815 120.717 364.398 120.124 365.145 119.704C365.901 119.275 366.755 119.06 367.707 119.06C368.873 119.06 369.872 119.368 370.703 119.984C371.533 120.6 372.089 121.44 372.369 122.504H369.737C369.541 122.093 369.261 121.781 368.897 121.566C368.542 121.351 368.136 121.244 367.679 121.244C366.941 121.244 366.344 121.501 365.887 122.014C365.429 122.527 365.201 123.213 365.201 124.072C365.201 124.931 365.429 125.617 365.887 126.13C366.344 126.643 366.941 126.9 367.679 126.9C368.136 126.9 368.542 126.793 368.897 126.578C369.261 126.363 369.541 126.051 369.737 125.64H372.369C372.089 126.704 371.533 127.544 370.703 128.16C369.872 128.767 368.873 129.07 367.707 129.07C366.755 129.07 365.901 128.86 365.145 128.44C364.398 128.011 363.815 127.418 363.395 126.662C362.975 125.906 362.765 125.043 362.765 124.072ZM378.483 129.098C377.559 129.098 376.709 128.883 375.935 128.454C375.169 128.025 374.558 127.427 374.101 126.662C373.653 125.887 373.429 125.019 373.429 124.058C373.429 123.097 373.653 122.233 374.101 121.468C374.558 120.703 375.169 120.105 375.935 119.676C376.709 119.247 377.559 119.032 378.483 119.032C379.407 119.032 380.251 119.247 381.017 119.676C381.791 120.105 382.398 120.703 382.837 121.468C383.285 122.233 383.509 123.097 383.509 124.058C383.509 125.019 383.285 125.887 382.837 126.662C382.389 127.427 381.782 128.025 381.017 128.454C380.251 128.883 379.407 129.098 378.483 129.098ZM378.483 126.914C379.267 126.914 379.892 126.653 380.359 126.13C380.835 125.607 381.073 124.917 381.073 124.058C381.073 123.19 380.835 122.499 380.359 121.986C379.892 121.463 379.267 121.202 378.483 121.202C377.689 121.202 377.055 121.459 376.579 121.972C376.112 122.485 375.879 123.181 375.879 124.058C375.879 124.926 376.112 125.621 376.579 126.144C377.055 126.657 377.689 126.914 378.483 126.914ZM387.235 119.172V129H384.841V119.172H387.235ZM397.762 129H395.368L391.364 122.938V129H388.97V119.172H391.364L395.368 125.262V119.172H397.762V129ZM403.053 129.098C402.334 129.098 401.69 128.981 401.121 128.748C400.552 128.515 400.094 128.169 399.749 127.712C399.413 127.255 399.236 126.704 399.217 126.06H401.765C401.802 126.424 401.928 126.704 402.143 126.9C402.358 127.087 402.638 127.18 402.983 127.18C403.338 127.18 403.618 127.101 403.823 126.942C404.028 126.774 404.131 126.545 404.131 126.256C404.131 126.013 404.047 125.813 403.879 125.654C403.72 125.495 403.52 125.365 403.277 125.262C403.044 125.159 402.708 125.043 402.269 124.912C401.634 124.716 401.116 124.52 400.715 124.324C400.314 124.128 399.968 123.839 399.679 123.456C399.39 123.073 399.245 122.574 399.245 121.958C399.245 121.043 399.576 120.329 400.239 119.816C400.902 119.293 401.765 119.032 402.829 119.032C403.912 119.032 404.784 119.293 405.447 119.816C406.11 120.329 406.464 121.048 406.511 121.972H403.921C403.902 121.655 403.786 121.407 403.571 121.23C403.356 121.043 403.081 120.95 402.745 120.95C402.456 120.95 402.222 121.029 402.045 121.188C401.868 121.337 401.779 121.557 401.779 121.846C401.779 122.163 401.928 122.411 402.227 122.588C402.526 122.765 402.992 122.957 403.627 123.162C404.262 123.377 404.775 123.582 405.167 123.778C405.568 123.974 405.914 124.259 406.203 124.632C406.492 125.005 406.637 125.486 406.637 126.074C406.637 126.634 406.492 127.143 406.203 127.6C405.923 128.057 405.512 128.421 404.971 128.692C404.43 128.963 403.79 129.098 403.053 129.098Z" fill="#6513A9"/>
<path d="M219.044 167H217.448L212.646 159.734V167H211.05V157.256H212.646L217.448 164.508V157.256H219.044V167ZM220.608 163.108C220.608 162.333 220.767 161.647 221.084 161.05C221.411 160.453 221.849 159.991 222.4 159.664C222.96 159.328 223.576 159.16 224.248 159.16C224.855 159.16 225.382 159.281 225.83 159.524C226.287 159.757 226.651 160.051 226.922 160.406V159.286H228.532V167H226.922V165.852C226.651 166.216 226.283 166.519 225.816 166.762C225.349 167.005 224.817 167.126 224.22 167.126C223.557 167.126 222.951 166.958 222.4 166.622C221.849 166.277 221.411 165.801 221.084 165.194C220.767 164.578 220.608 163.883 220.608 163.108ZM226.922 163.136C226.922 162.604 226.81 162.142 226.586 161.75C226.371 161.358 226.087 161.059 225.732 160.854C225.377 160.649 224.995 160.546 224.584 160.546C224.173 160.546 223.791 160.649 223.436 160.854C223.081 161.05 222.792 161.344 222.568 161.736C222.353 162.119 222.246 162.576 222.246 163.108C222.246 163.64 222.353 164.107 222.568 164.508C222.792 164.909 223.081 165.217 223.436 165.432C223.8 165.637 224.183 165.74 224.584 165.74C224.995 165.74 225.377 165.637 225.732 165.432C226.087 165.227 226.371 164.928 226.586 164.536C226.81 164.135 226.922 163.668 226.922 163.136ZM241.335 162.954C241.335 163.243 241.316 163.505 241.279 163.738H235.385C235.432 164.354 235.66 164.849 236.071 165.222C236.482 165.595 236.986 165.782 237.583 165.782C238.442 165.782 239.048 165.423 239.403 164.704H241.125C240.892 165.413 240.467 165.997 239.851 166.454C239.244 166.902 238.488 167.126 237.583 167.126C236.846 167.126 236.183 166.963 235.595 166.636C235.016 166.3 234.559 165.833 234.223 165.236C233.896 164.629 233.733 163.929 233.733 163.136C233.733 162.343 233.892 161.647 234.209 161.05C234.536 160.443 234.988 159.977 235.567 159.65C236.155 159.323 236.827 159.16 237.583 159.16C238.311 159.16 238.96 159.319 239.529 159.636C240.098 159.953 240.542 160.401 240.859 160.98C241.176 161.549 241.335 162.207 241.335 162.954ZM239.669 162.45C239.66 161.862 239.45 161.391 239.039 161.036C238.628 160.681 238.12 160.504 237.513 160.504C236.962 160.504 236.491 160.681 236.099 161.036C235.707 161.381 235.474 161.853 235.399 162.45H239.669ZM244.501 160.406C244.735 160.014 245.043 159.711 245.425 159.496C245.817 159.272 246.279 159.16 246.811 159.16V160.812H246.405C245.78 160.812 245.304 160.971 244.977 161.288C244.66 161.605 244.501 162.156 244.501 162.94V167H242.905V159.286H244.501V160.406ZM247.747 163.108C247.747 162.333 247.905 161.647 248.223 161.05C248.549 160.453 248.988 159.991 249.539 159.664C250.099 159.328 250.715 159.16 251.387 159.16C251.993 159.16 252.521 159.281 252.969 159.524C253.426 159.757 253.79 160.051 254.061 160.406V159.286H255.671V167H254.061V165.852C253.79 166.216 253.421 166.519 252.955 166.762C252.488 167.005 251.956 167.126 251.359 167.126C250.696 167.126 250.089 166.958 249.539 166.622C248.988 166.277 248.549 165.801 248.223 165.194C247.905 164.578 247.747 163.883 247.747 163.108ZM254.061 163.136C254.061 162.604 253.949 162.142 253.725 161.75C253.51 161.358 253.225 161.059 252.871 160.854C252.516 160.649 252.133 160.546 251.723 160.546C251.312 160.546 250.929 160.649 250.575 160.854C250.22 161.05 249.931 161.344 249.707 161.736C249.492 162.119 249.385 162.576 249.385 163.108C249.385 163.64 249.492 164.107 249.707 164.508C249.931 164.909 250.22 165.217 250.575 165.432C250.939 165.637 251.321 165.74 251.723 165.74C252.133 165.74 252.516 165.637 252.871 165.432C253.225 165.227 253.51 164.928 253.725 164.536C253.949 164.135 254.061 163.668 254.061 163.136ZM260.872 163.108C260.872 162.333 261.03 161.647 261.348 161.05C261.674 160.453 262.113 159.991 262.664 159.664C263.224 159.328 263.844 159.16 264.526 159.16C265.03 159.16 265.524 159.272 266.01 159.496C266.504 159.711 266.896 160 267.186 160.364V156.64H268.796V167H267.186V165.838C266.924 166.211 266.56 166.519 266.094 166.762C265.636 167.005 265.109 167.126 264.512 167.126C263.84 167.126 263.224 166.958 262.664 166.622C262.113 166.277 261.674 165.801 261.348 165.194C261.03 164.578 260.872 163.883 260.872 163.108ZM267.186 163.136C267.186 162.604 267.074 162.142 266.85 161.75C266.635 161.358 266.35 161.059 265.996 160.854C265.641 160.649 265.258 160.546 264.848 160.546C264.437 160.546 264.054 160.649 263.7 160.854C263.345 161.05 263.056 161.344 262.832 161.736C262.617 162.119 262.51 162.576 262.51 163.108C262.51 163.64 262.617 164.107 262.832 164.508C263.056 164.909 263.345 165.217 263.7 165.432C264.064 165.637 264.446 165.74 264.848 165.74C265.258 165.74 265.641 165.637 265.996 165.432C266.35 165.227 266.635 164.928 266.85 164.536C267.074 164.135 267.186 163.668 267.186 163.136ZM271.704 158.264C271.414 158.264 271.172 158.166 270.976 157.97C270.78 157.774 270.682 157.531 270.682 157.242C270.682 156.953 270.78 156.71 270.976 156.514C271.172 156.318 271.414 156.22 271.704 156.22C271.984 156.22 272.222 156.318 272.418 156.514C272.614 156.71 272.712 156.953 272.712 157.242C272.712 157.531 272.614 157.774 272.418 157.97C272.222 158.166 271.984 158.264 271.704 158.264ZM272.488 159.286V167H270.892V159.286H272.488ZM277.691 159.16C278.289 159.16 278.816 159.281 279.273 159.524C279.74 159.757 280.104 160.051 280.365 160.406V159.286H281.975V167.126C281.975 167.835 281.826 168.465 281.527 169.016C281.229 169.576 280.795 170.015 280.225 170.332C279.665 170.649 278.993 170.808 278.209 170.808C277.164 170.808 276.296 170.561 275.605 170.066C274.915 169.581 274.523 168.918 274.429 168.078H276.011C276.133 168.479 276.389 168.801 276.781 169.044C277.183 169.296 277.659 169.422 278.209 169.422C278.853 169.422 279.371 169.226 279.763 168.834C280.165 168.442 280.365 167.873 280.365 167.126V165.838C280.095 166.202 279.726 166.51 279.259 166.762C278.802 167.005 278.279 167.126 277.691 167.126C277.019 167.126 276.403 166.958 275.843 166.622C275.293 166.277 274.854 165.801 274.527 165.194C274.21 164.578 274.051 163.883 274.051 163.108C274.051 162.333 274.21 161.647 274.527 161.05C274.854 160.453 275.293 159.991 275.843 159.664C276.403 159.328 277.019 159.16 277.691 159.16ZM280.365 163.136C280.365 162.604 280.253 162.142 280.029 161.75C279.815 161.358 279.53 161.059 279.175 160.854C278.821 160.649 278.438 160.546 278.027 160.546C277.617 160.546 277.234 160.649 276.879 160.854C276.525 161.05 276.235 161.344 276.011 161.736C275.797 162.119 275.689 162.576 275.689 163.108C275.689 163.64 275.797 164.107 276.011 164.508C276.235 164.909 276.525 165.217 276.879 165.432C277.243 165.637 277.626 165.74 278.027 165.74C278.438 165.74 278.821 165.637 279.175 165.432C279.53 165.227 279.815 164.928 280.029 164.536C280.253 164.135 280.365 163.668 280.365 163.136ZM284.883 158.264C284.594 158.264 284.351 158.166 284.155 157.97C283.959 157.774 283.861 157.531 283.861 157.242C283.861 156.953 283.959 156.71 284.155 156.514C284.351 156.318 284.594 156.22 284.883 156.22C285.163 156.22 285.401 156.318 285.597 156.514C285.793 156.71 285.891 156.953 285.891 157.242C285.891 157.531 285.793 157.774 285.597 157.97C285.401 158.166 285.163 158.264 284.883 158.264ZM285.667 159.286V167H284.071V159.286H285.667ZM289.625 160.588V164.858C289.625 165.147 289.69 165.357 289.821 165.488C289.961 165.609 290.194 165.67 290.521 165.67H291.501V167H290.241C289.522 167 288.972 166.832 288.589 166.496C288.206 166.16 288.015 165.614 288.015 164.858V160.588H287.105V159.286H288.015V157.368H289.625V159.286H291.501V160.588H289.625ZM292.44 163.108C292.44 162.333 292.599 161.647 292.916 161.05C293.243 160.453 293.681 159.991 294.232 159.664C294.792 159.328 295.408 159.16 296.08 159.16C296.687 159.16 297.214 159.281 297.662 159.524C298.119 159.757 298.483 160.051 298.754 160.406V159.286H300.364V167H298.754V165.852C298.483 166.216 298.115 166.519 297.648 166.762C297.181 167.005 296.649 167.126 296.052 167.126C295.389 167.126 294.783 166.958 294.232 166.622C293.681 166.277 293.243 165.801 292.916 165.194C292.599 164.578 292.44 163.883 292.44 163.108ZM298.754 163.136C298.754 162.604 298.642 162.142 298.418 161.75C298.203 161.358 297.919 161.059 297.564 160.854C297.209 160.649 296.827 160.546 296.416 160.546C296.005 160.546 295.623 160.649 295.268 160.854C294.913 161.05 294.624 161.344 294.4 161.736C294.185 162.119 294.078 162.576 294.078 163.108C294.078 163.64 294.185 164.107 294.4 164.508C294.624 164.909 294.913 165.217 295.268 165.432C295.632 165.637 296.015 165.74 296.416 165.74C296.827 165.74 297.209 165.637 297.564 165.432C297.919 165.227 298.203 164.928 298.418 164.536C298.642 164.135 298.754 163.668 298.754 163.136ZM304.056 156.64V167H302.46V156.64H304.056ZM307.902 165.082L306.208 168.946H305.172L306.166 165.082H307.902ZM312.401 163.108C312.401 162.333 312.559 161.647 312.877 161.05C313.203 160.453 313.642 159.991 314.193 159.664C314.753 159.328 315.369 159.16 316.041 159.16C316.647 159.16 317.175 159.281 317.623 159.524C318.08 159.757 318.444 160.051 318.715 160.406V159.286H320.325V167H318.715V165.852C318.444 166.216 318.075 166.519 317.609 166.762C317.142 167.005 316.61 167.126 316.013 167.126C315.35 167.126 314.743 166.958 314.193 166.622C313.642 166.277 313.203 165.801 312.877 165.194C312.559 164.578 312.401 163.883 312.401 163.108ZM318.715 163.136C318.715 162.604 318.603 162.142 318.379 161.75C318.164 161.358 317.879 161.059 317.525 160.854C317.17 160.649 316.787 160.546 316.377 160.546C315.966 160.546 315.583 160.649 315.229 160.854C314.874 161.05 314.585 161.344 314.361 161.736C314.146 162.119 314.039 162.576 314.039 163.108C314.039 163.64 314.146 164.107 314.361 164.508C314.585 164.909 314.874 165.217 315.229 165.432C315.593 165.637 315.975 165.74 316.377 165.74C316.787 165.74 317.17 165.637 317.525 165.432C317.879 165.227 318.164 164.928 318.379 164.536C318.603 164.135 318.715 163.668 318.715 163.136ZM325.221 167.126C324.614 167.126 324.068 167.019 323.583 166.804C323.107 166.58 322.729 166.281 322.449 165.908C322.169 165.525 322.02 165.101 322.001 164.634H323.653C323.681 164.961 323.835 165.236 324.115 165.46C324.404 165.675 324.764 165.782 325.193 165.782C325.641 165.782 325.986 165.698 326.229 165.53C326.481 165.353 326.607 165.129 326.607 164.858C326.607 164.569 326.467 164.354 326.187 164.214C325.916 164.074 325.482 163.92 324.885 163.752C324.306 163.593 323.835 163.439 323.471 163.29C323.107 163.141 322.79 162.912 322.519 162.604C322.258 162.296 322.127 161.89 322.127 161.386C322.127 160.975 322.248 160.602 322.491 160.266C322.734 159.921 323.079 159.65 323.527 159.454C323.984 159.258 324.507 159.16 325.095 159.16C325.972 159.16 326.677 159.384 327.209 159.832C327.75 160.271 328.04 160.873 328.077 161.638H326.481C326.453 161.293 326.313 161.017 326.061 160.812C325.809 160.607 325.468 160.504 325.039 160.504C324.619 160.504 324.297 160.583 324.073 160.742C323.849 160.901 323.737 161.111 323.737 161.372C323.737 161.577 323.812 161.75 323.961 161.89C324.11 162.03 324.292 162.142 324.507 162.226C324.722 162.301 325.039 162.399 325.459 162.52C326.019 162.669 326.476 162.823 326.831 162.982C327.195 163.131 327.508 163.355 327.769 163.654C328.03 163.953 328.166 164.349 328.175 164.844C328.175 165.283 328.054 165.675 327.811 166.02C327.568 166.365 327.223 166.636 326.775 166.832C326.336 167.028 325.818 167.126 325.221 167.126ZM336.644 159.16C337.242 159.16 337.769 159.281 338.226 159.524C338.693 159.757 339.057 160.051 339.318 160.406V159.286H340.928V167.126C340.928 167.835 340.779 168.465 340.48 169.016C340.182 169.576 339.748 170.015 339.178 170.332C338.618 170.649 337.946 170.808 337.162 170.808C336.117 170.808 335.249 170.561 334.558 170.066C333.868 169.581 333.476 168.918 333.382 168.078H334.964C335.086 168.479 335.342 168.801 335.734 169.044C336.136 169.296 336.612 169.422 337.162 169.422C337.806 169.422 338.324 169.226 338.716 168.834C339.118 168.442 339.318 167.873 339.318 167.126V165.838C339.048 166.202 338.679 166.51 338.212 166.762C337.755 167.005 337.232 167.126 336.644 167.126C335.972 167.126 335.356 166.958 334.796 166.622C334.246 166.277 333.807 165.801 333.48 165.194C333.163 164.578 333.004 163.883 333.004 163.108C333.004 162.333 333.163 161.647 333.48 161.05C333.807 160.453 334.246 159.991 334.796 159.664C335.356 159.328 335.972 159.16 336.644 159.16ZM339.318 163.136C339.318 162.604 339.206 162.142 338.982 161.75C338.768 161.358 338.483 161.059 338.128 160.854C337.774 160.649 337.391 160.546 336.98 160.546C336.57 160.546 336.187 160.649 335.832 160.854C335.478 161.05 335.188 161.344 334.964 161.736C334.75 162.119 334.642 162.576 334.642 163.108C334.642 163.64 334.75 164.107 334.964 164.508C335.188 164.909 335.478 165.217 335.832 165.432C336.196 165.637 336.579 165.74 336.98 165.74C337.391 165.74 337.774 165.637 338.128 165.432C338.483 165.227 338.768 164.928 338.982 164.536C339.206 164.135 339.318 163.668 339.318 163.136ZM344.621 160.406C344.854 160.014 345.162 159.711 345.545 159.496C345.937 159.272 346.399 159.16 346.931 159.16V160.812H346.525C345.899 160.812 345.423 160.971 345.097 161.288C344.779 161.605 344.621 162.156 344.621 162.94V167H343.025V159.286H344.621V160.406ZM347.866 163.108C347.866 162.333 348.024 161.647 348.342 161.05C348.668 160.453 349.107 159.991 349.658 159.664C350.218 159.328 350.834 159.16 351.506 159.16C352.112 159.16 352.64 159.281 353.088 159.524C353.545 159.757 353.909 160.051 354.18 160.406V159.286H355.79V167H354.18V165.852C353.909 166.216 353.54 166.519 353.074 166.762C352.607 167.005 352.075 167.126 351.478 167.126C350.815 167.126 350.208 166.958 349.658 166.622C349.107 166.277 348.668 165.801 348.342 165.194C348.024 164.578 347.866 163.883 347.866 163.108ZM354.18 163.136C354.18 162.604 354.068 162.142 353.844 161.75C353.629 161.358 353.344 161.059 352.99 160.854C352.635 160.649 352.252 160.546 351.842 160.546C351.431 160.546 351.048 160.649 350.694 160.854C350.339 161.05 350.05 161.344 349.826 161.736C349.611 162.119 349.504 162.576 349.504 163.108C349.504 163.64 349.611 164.107 349.826 164.508C350.05 164.909 350.339 165.217 350.694 165.432C351.058 165.637 351.44 165.74 351.842 165.74C352.252 165.74 352.635 165.637 352.99 165.432C353.344 165.227 353.629 164.928 353.844 164.536C354.068 164.135 354.18 163.668 354.18 163.136ZM361.778 159.16C362.385 159.16 362.926 159.286 363.402 159.538C363.887 159.79 364.265 160.163 364.536 160.658C364.807 161.153 364.942 161.75 364.942 162.45V167H363.36V162.688C363.36 161.997 363.187 161.47 362.842 161.106C362.497 160.733 362.025 160.546 361.428 160.546C360.831 160.546 360.355 160.733 360 161.106C359.655 161.47 359.482 161.997 359.482 162.688V167H357.886V159.286H359.482V160.168C359.743 159.851 360.075 159.603 360.476 159.426C360.887 159.249 361.321 159.16 361.778 159.16ZM366.446 163.108C366.446 162.333 366.604 161.647 366.922 161.05C367.248 160.453 367.687 159.991 368.238 159.664C368.798 159.328 369.418 159.16 370.1 159.16C370.604 159.16 371.098 159.272 371.584 159.496C372.078 159.711 372.47 160 372.76 160.364V156.64H374.37V167H372.76V165.838C372.498 166.211 372.134 166.519 371.668 166.762C371.21 167.005 370.683 167.126 370.086 167.126C369.414 167.126 368.798 166.958 368.238 166.622C367.687 166.277 367.248 165.801 366.922 165.194C366.604 164.578 366.446 163.883 366.446 163.108ZM372.76 163.136C372.76 162.604 372.648 162.142 372.424 161.75C372.209 161.358 371.924 161.059 371.57 160.854C371.215 160.649 370.832 160.546 370.422 160.546C370.011 160.546 369.628 160.649 369.274 160.854C368.919 161.05 368.63 161.344 368.406 161.736C368.191 162.119 368.084 162.576 368.084 163.108C368.084 163.64 368.191 164.107 368.406 164.508C368.63 164.909 368.919 165.217 369.274 165.432C369.638 165.637 370.02 165.74 370.422 165.74C370.832 165.74 371.215 165.637 371.57 165.432C371.924 165.227 372.209 164.928 372.424 164.536C372.648 164.135 372.76 163.668 372.76 163.136ZM383.536 162.954C383.536 163.243 383.517 163.505 383.48 163.738H377.586C377.633 164.354 377.861 164.849 378.272 165.222C378.683 165.595 379.187 165.782 379.784 165.782C380.643 165.782 381.249 165.423 381.604 164.704H383.326C383.093 165.413 382.668 165.997 382.052 166.454C381.445 166.902 380.689 167.126 379.784 167.126C379.047 167.126 378.384 166.963 377.796 166.636C377.217 166.3 376.76 165.833 376.424 165.236C376.097 164.629 375.934 163.929 375.934 163.136C375.934 162.343 376.093 161.647 376.41 161.05C376.737 160.443 377.189 159.977 377.768 159.65C378.356 159.323 379.028 159.16 379.784 159.16C380.512 159.16 381.161 159.319 381.73 159.636C382.299 159.953 382.743 160.401 383.06 160.98C383.377 161.549 383.536 162.207 383.536 162.954ZM381.87 162.45C381.861 161.862 381.651 161.391 381.24 161.036C380.829 160.681 380.321 160.504 379.714 160.504C379.163 160.504 378.692 160.681 378.3 161.036C377.908 161.381 377.675 161.853 377.6 162.45H381.87ZM387.907 167.126C387.3 167.126 386.754 167.019 386.269 166.804C385.793 166.58 385.415 166.281 385.135 165.908C384.855 165.525 384.705 165.101 384.687 164.634H386.339C386.367 164.961 386.521 165.236 386.801 165.46C387.09 165.675 387.449 165.782 387.879 165.782C388.327 165.782 388.672 165.698 388.915 165.53C389.167 165.353 389.293 165.129 389.293 164.858C389.293 164.569 389.153 164.354 388.873 164.214C388.602 164.074 388.168 163.92 387.571 163.752C386.992 163.593 386.521 163.439 386.157 163.29C385.793 163.141 385.475 162.912 385.205 162.604C384.943 162.296 384.813 161.89 384.813 161.386C384.813 160.975 384.934 160.602 385.177 160.266C385.419 159.921 385.765 159.65 386.213 159.454C386.67 159.258 387.193 159.16 387.781 159.16C388.658 159.16 389.363 159.384 389.895 159.832C390.436 160.271 390.725 160.873 390.763 161.638H389.167C389.139 161.293 388.999 161.017 388.747 160.812C388.495 160.607 388.154 160.504 387.725 160.504C387.305 160.504 386.983 160.583 386.759 160.742C386.535 160.901 386.423 161.111 386.423 161.372C386.423 161.577 386.497 161.75 386.647 161.89C386.796 162.03 386.978 162.142 387.193 162.226C387.407 162.301 387.725 162.399 388.145 162.52C388.705 162.669 389.162 162.823 389.517 162.982C389.881 163.131 390.193 163.355 390.455 163.654C390.716 163.953 390.851 164.349 390.861 164.844C390.861 165.283 390.739 165.675 390.497 166.02C390.254 166.365 389.909 166.636 389.461 166.832C389.022 167.028 388.504 167.126 387.907 167.126ZM397.034 158.264C396.745 158.264 396.502 158.166 396.306 157.97C396.11 157.774 396.012 157.531 396.012 157.242C396.012 156.953 396.11 156.71 396.306 156.514C396.502 156.318 396.745 156.22 397.034 156.22C397.314 156.22 397.552 156.318 397.748 156.514C397.944 156.71 398.042 156.953 398.042 157.242C398.042 157.531 397.944 157.774 397.748 157.97C397.552 158.166 397.314 158.264 397.034 158.264ZM397.818 159.286V167H396.222V159.286H397.818ZM399.381 163.108C399.381 162.333 399.54 161.647 399.857 161.05C400.184 160.453 400.623 159.991 401.173 159.664C401.733 159.328 402.354 159.16 403.035 159.16C403.539 159.16 404.034 159.272 404.519 159.496C405.014 159.711 405.406 160 405.695 160.364V156.64H407.305V167H405.695V165.838C405.434 166.211 405.07 166.519 404.603 166.762C404.146 167.005 403.619 167.126 403.021 167.126C402.349 167.126 401.733 166.958 401.173 166.622C400.623 166.277 400.184 165.801 399.857 165.194C399.54 164.578 399.381 163.883 399.381 163.108ZM405.695 163.136C405.695 162.604 405.583 162.142 405.359 161.75C405.145 161.358 404.86 161.059 404.505 160.854C404.151 160.649 403.768 160.546 403.357 160.546C402.947 160.546 402.564 160.649 402.209 160.854C401.855 161.05 401.565 161.344 401.341 161.736C401.127 162.119 401.019 162.576 401.019 163.108C401.019 163.64 401.127 164.107 401.341 164.508C401.565 164.909 401.855 165.217 402.209 165.432C402.573 165.637 402.956 165.74 403.357 165.74C403.768 165.74 404.151 165.637 404.505 165.432C404.86 165.227 405.145 164.928 405.359 164.536C405.583 164.135 405.695 163.668 405.695 163.136ZM416.472 162.954C416.472 163.243 416.453 163.505 416.416 163.738H410.522C410.568 164.354 410.797 164.849 411.208 165.222C411.618 165.595 412.122 165.782 412.72 165.782C413.578 165.782 414.185 165.423 414.54 164.704H416.262C416.028 165.413 415.604 165.997 414.988 166.454C414.381 166.902 413.625 167.126 412.72 167.126C411.982 167.126 411.32 166.963 410.732 166.636C410.153 166.3 409.696 165.833 409.36 165.236C409.033 164.629 408.87 163.929 408.87 163.136C408.87 162.343 409.028 161.647 409.346 161.05C409.672 160.443 410.125 159.977 410.704 159.65C411.292 159.323 411.964 159.16 412.72 159.16C413.448 159.16 414.096 159.319 414.666 159.636C415.235 159.953 415.678 160.401 415.996 160.98C416.313 161.549 416.472 162.207 416.472 162.954ZM414.806 162.45C414.796 161.862 414.586 161.391 414.176 161.036C413.765 160.681 413.256 160.504 412.65 160.504C412.099 160.504 411.628 160.681 411.236 161.036C410.844 161.381 410.61 161.853 410.536 162.45H414.806ZM418.854 158.264C418.565 158.264 418.322 158.166 418.126 157.97C417.93 157.774 417.832 157.531 417.832 157.242C417.832 156.953 417.93 156.71 418.126 156.514C418.322 156.318 418.565 156.22 418.854 156.22C419.134 156.22 419.372 156.318 419.568 156.514C419.764 156.71 419.862 156.953 419.862 157.242C419.862 157.531 419.764 157.774 419.568 157.97C419.372 158.166 419.134 158.264 418.854 158.264ZM419.638 159.286V167H418.042V159.286H419.638ZM421.202 163.108C421.202 162.333 421.36 161.647 421.678 161.05C422.004 160.453 422.443 159.991 422.994 159.664C423.554 159.328 424.17 159.16 424.842 159.16C425.448 159.16 425.976 159.281 426.424 159.524C426.881 159.757 427.245 160.051 427.516 160.406V159.286H429.126V167H427.516V165.852C427.245 166.216 426.876 166.519 426.41 166.762C425.943 167.005 425.411 167.126 424.814 167.126C424.151 167.126 423.544 166.958 422.994 166.622C422.443 166.277 422.004 165.801 421.678 165.194C421.36 164.578 421.202 163.883 421.202 163.108ZM427.516 163.136C427.516 162.604 427.404 162.142 427.18 161.75C426.965 161.358 426.68 161.059 426.326 160.854C425.971 160.649 425.588 160.546 425.178 160.546C424.767 160.546 424.384 160.649 424.03 160.854C423.675 161.05 423.386 161.344 423.162 161.736C422.947 162.119 422.84 162.576 422.84 163.108C422.84 163.64 422.947 164.107 423.162 164.508C423.386 164.909 423.675 165.217 424.03 165.432C424.394 165.637 424.776 165.74 425.178 165.74C425.588 165.74 425.971 165.637 426.326 165.432C426.68 165.227 426.965 164.928 427.18 164.536C427.404 164.135 427.516 163.668 427.516 163.136ZM434.022 167.126C433.415 167.126 432.869 167.019 432.384 166.804C431.908 166.58 431.53 166.281 431.25 165.908C430.97 165.525 430.821 165.101 430.802 164.634H432.454C432.482 164.961 432.636 165.236 432.916 165.46C433.205 165.675 433.565 165.782 433.994 165.782C434.442 165.782 434.787 165.698 435.03 165.53C435.282 165.353 435.408 165.129 435.408 164.858C435.408 164.569 435.268 164.354 434.988 164.214C434.717 164.074 434.283 163.92 433.686 163.752C433.107 163.593 432.636 163.439 432.272 163.29C431.908 163.141 431.591 162.912 431.32 162.604C431.059 162.296 430.928 161.89 430.928 161.386C430.928 160.975 431.049 160.602 431.292 160.266C431.535 159.921 431.88 159.65 432.328 159.454C432.785 159.258 433.308 159.16 433.896 159.16C434.773 159.16 435.478 159.384 436.01 159.832C436.551 160.271 436.841 160.873 436.878 161.638H435.282C435.254 161.293 435.114 161.017 434.862 160.812C434.61 160.607 434.269 160.504 433.84 160.504C433.42 160.504 433.098 160.583 432.874 160.742C432.65 160.901 432.538 161.111 432.538 161.372C432.538 161.577 432.613 161.75 432.762 161.89C432.911 162.03 433.093 162.142 433.308 162.226C433.523 162.301 433.84 162.399 434.26 162.52C434.82 162.669 435.277 162.823 435.632 162.982C435.996 163.131 436.309 163.355 436.57 163.654C436.831 163.953 436.967 164.349 436.976 164.844C436.976 165.283 436.855 165.675 436.612 166.02C436.369 166.365 436.024 166.636 435.576 166.832C435.137 167.028 434.619 167.126 434.022 167.126ZM449.407 162.954C449.407 163.243 449.388 163.505 449.351 163.738H443.457C443.504 164.354 443.732 164.849 444.143 165.222C444.554 165.595 445.058 165.782 445.655 165.782C446.514 165.782 447.12 165.423 447.475 164.704H449.197C448.964 165.413 448.539 165.997 447.923 166.454C447.316 166.902 446.56 167.126 445.655 167.126C444.918 167.126 444.255 166.963 443.667 166.636C443.088 166.3 442.631 165.833 442.295 165.236C441.968 164.629 441.805 163.929 441.805 163.136C441.805 162.343 441.964 161.647 442.281 161.05C442.608 160.443 443.06 159.977 443.639 159.65C444.227 159.323 444.899 159.16 445.655 159.16C446.383 159.16 447.032 159.319 447.601 159.636C448.17 159.953 448.614 160.401 448.931 160.98C449.248 161.549 449.407 162.207 449.407 162.954ZM447.741 162.45C447.732 161.862 447.522 161.391 447.111 161.036C446.7 160.681 446.192 160.504 445.585 160.504C445.034 160.504 444.563 160.681 444.171 161.036C443.779 161.381 443.546 161.853 443.471 162.45H447.741ZM454.282 163.094L456.774 167H454.968L453.302 164.382L451.734 167H450.068L452.56 163.206L450.068 159.286H451.874L453.54 161.904L455.108 159.286H456.774L454.282 163.094ZM459.56 160.42C459.831 160.065 460.199 159.767 460.666 159.524C461.133 159.281 461.66 159.16 462.248 159.16C462.92 159.16 463.531 159.328 464.082 159.664C464.642 159.991 465.081 160.453 465.398 161.05C465.715 161.647 465.874 162.333 465.874 163.108C465.874 163.883 465.715 164.578 465.398 165.194C465.081 165.801 464.642 166.277 464.082 166.622C463.531 166.958 462.92 167.126 462.248 167.126C461.66 167.126 461.137 167.009 460.68 166.776C460.223 166.533 459.849 166.235 459.56 165.88V170.668H457.964V159.286H459.56V160.42ZM464.25 163.108C464.25 162.576 464.138 162.119 463.914 161.736C463.699 161.344 463.41 161.05 463.046 160.854C462.691 160.649 462.309 160.546 461.898 160.546C461.497 160.546 461.114 160.649 460.75 160.854C460.395 161.059 460.106 161.358 459.882 161.75C459.667 162.142 459.56 162.604 459.56 163.136C459.56 163.668 459.667 164.135 459.882 164.536C460.106 164.928 460.395 165.227 460.75 165.432C461.114 165.637 461.497 165.74 461.898 165.74C462.309 165.74 462.691 165.637 463.046 165.432C463.41 165.217 463.699 164.909 463.914 164.508C464.138 164.107 464.25 163.64 464.25 163.108ZM469.048 156.64V167H467.452V156.64H469.048ZM474.49 167.126C473.762 167.126 473.104 166.963 472.516 166.636C471.928 166.3 471.466 165.833 471.13 165.236C470.794 164.629 470.626 163.929 470.626 163.136C470.626 162.352 470.798 161.657 471.144 161.05C471.489 160.443 471.96 159.977 472.558 159.65C473.155 159.323 473.822 159.16 474.56 159.16C475.297 159.16 475.964 159.323 476.562 159.65C477.159 159.977 477.63 160.443 477.976 161.05C478.321 161.657 478.494 162.352 478.494 163.136C478.494 163.92 478.316 164.615 477.962 165.222C477.607 165.829 477.122 166.3 476.506 166.636C475.899 166.963 475.227 167.126 474.49 167.126ZM474.49 165.74C474.9 165.74 475.283 165.642 475.638 165.446C476.002 165.25 476.296 164.956 476.52 164.564C476.744 164.172 476.856 163.696 476.856 163.136C476.856 162.576 476.748 162.105 476.534 161.722C476.319 161.33 476.034 161.036 475.68 160.84C475.325 160.644 474.942 160.546 474.532 160.546C474.121 160.546 473.738 160.644 473.384 160.84C473.038 161.036 472.763 161.33 472.558 161.722C472.352 162.105 472.25 162.576 472.25 163.136C472.25 163.967 472.46 164.611 472.88 165.068C473.309 165.516 473.846 165.74 474.49 165.74ZM479.539 163.108C479.539 162.333 479.698 161.647 480.015 161.05C480.342 160.453 480.781 159.991 481.331 159.664C481.891 159.328 482.512 159.16 483.193 159.16C483.697 159.16 484.192 159.272 484.677 159.496C485.172 159.711 485.564 160 485.853 160.364V156.64H487.463V167H485.853V165.838C485.592 166.211 485.228 166.519 484.761 166.762C484.304 167.005 483.777 167.126 483.179 167.126C482.507 167.126 481.891 166.958 481.331 166.622C480.781 166.277 480.342 165.801 480.015 165.194C479.698 164.578 479.539 163.883 479.539 163.108ZM485.853 163.136C485.853 162.604 485.741 162.142 485.517 161.75C485.303 161.358 485.018 161.059 484.663 160.854C484.309 160.649 483.926 160.546 483.515 160.546C483.105 160.546 482.722 160.649 482.367 160.854C482.013 161.05 481.723 161.344 481.499 161.736C481.285 162.119 481.177 162.576 481.177 163.108C481.177 163.64 481.285 164.107 481.499 164.508C481.723 164.909 482.013 165.217 482.367 165.432C482.731 165.637 483.114 165.74 483.515 165.74C483.926 165.74 484.309 165.637 484.663 165.432C485.018 165.227 485.303 164.928 485.517 164.536C485.741 164.135 485.853 163.668 485.853 163.136ZM496.63 162.954C496.63 163.243 496.611 163.505 496.574 163.738H490.68C490.726 164.354 490.955 164.849 491.366 165.222C491.776 165.595 492.28 165.782 492.878 165.782C493.736 165.782 494.343 165.423 494.698 164.704H496.42C496.186 165.413 495.762 165.997 495.146 166.454C494.539 166.902 493.783 167.126 492.878 167.126C492.14 167.126 491.478 166.963 490.89 166.636C490.311 166.3 489.854 165.833 489.518 165.236C489.191 164.629 489.028 163.929 489.028 163.136C489.028 162.343 489.186 161.647 489.504 161.05C489.83 160.443 490.283 159.977 490.862 159.65C491.45 159.323 492.122 159.16 492.878 159.16C493.606 159.16 494.254 159.319 494.824 159.636C495.393 159.953 495.836 160.401 496.154 160.98C496.471 161.549 496.63 162.207 496.63 162.954ZM494.964 162.45C494.954 161.862 494.744 161.391 494.334 161.036C493.923 160.681 493.414 160.504 492.808 160.504C492.257 160.504 491.786 160.681 491.394 161.036C491.002 161.381 490.768 161.853 490.694 162.45H494.964ZM507.538 159.16C508.145 159.16 508.686 159.286 509.162 159.538C509.648 159.79 510.026 160.163 510.296 160.658C510.576 161.153 510.716 161.75 510.716 162.45V167H509.134V162.688C509.134 161.997 508.962 161.47 508.616 161.106C508.271 160.733 507.8 160.546 507.202 160.546C506.605 160.546 506.129 160.733 505.774 161.106C505.429 161.47 505.256 161.997 505.256 162.688V167H503.674V162.688C503.674 161.997 503.502 161.47 503.156 161.106C502.811 160.733 502.34 160.546 501.742 160.546C501.145 160.546 500.669 160.733 500.314 161.106C499.969 161.47 499.796 161.997 499.796 162.688V167H498.2V159.286H499.796V160.168C500.058 159.851 500.389 159.603 500.79 159.426C501.192 159.249 501.621 159.16 502.078 159.16C502.694 159.16 503.245 159.291 503.73 159.552C504.216 159.813 504.589 160.191 504.85 160.686C505.084 160.219 505.448 159.851 505.942 159.58C506.437 159.3 506.969 159.16 507.538 159.16ZM523.454 162.954C523.454 163.243 523.435 163.505 523.398 163.738H517.504C517.551 164.354 517.779 164.849 518.19 165.222C518.601 165.595 519.105 165.782 519.702 165.782C520.561 165.782 521.167 165.423 521.522 164.704H523.244C523.011 165.413 522.586 165.997 521.97 166.454C521.363 166.902 520.607 167.126 519.702 167.126C518.965 167.126 518.302 166.963 517.714 166.636C517.135 166.3 516.678 165.833 516.342 165.236C516.015 164.629 515.852 163.929 515.852 163.136C515.852 162.343 516.011 161.647 516.328 161.05C516.655 160.443 517.107 159.977 517.686 159.65C518.274 159.323 518.946 159.16 519.702 159.16C520.43 159.16 521.079 159.319 521.648 159.636C522.217 159.953 522.661 160.401 522.978 160.98C523.295 161.549 523.454 162.207 523.454 162.954ZM521.788 162.45C521.779 161.862 521.569 161.391 521.158 161.036C520.747 160.681 520.239 160.504 519.632 160.504C519.081 160.504 518.61 160.681 518.218 161.036C517.826 161.381 517.593 161.853 517.518 162.45H521.788ZM212.912 181.588V185.858C212.912 186.147 212.977 186.357 213.108 186.488C213.248 186.609 213.481 186.67 213.808 186.67H214.788V188H213.528C212.809 188 212.259 187.832 211.876 187.496C211.493 187.16 211.302 186.614 211.302 185.858V181.588H210.392V180.286H211.302V178.368H212.912V180.286H214.788V181.588H212.912ZM217.855 181.406C218.088 181.014 218.396 180.711 218.779 180.496C219.171 180.272 219.633 180.16 220.165 180.16V181.812H219.759C219.134 181.812 218.658 181.971 218.331 182.288C218.014 182.605 217.855 183.156 217.855 183.94V188H216.259V180.286H217.855V181.406ZM221.1 184.108C221.1 183.333 221.259 182.647 221.576 182.05C221.903 181.453 222.341 180.991 222.892 180.664C223.452 180.328 224.068 180.16 224.74 180.16C225.347 180.16 225.874 180.281 226.322 180.524C226.779 180.757 227.143 181.051 227.414 181.406V180.286H229.024V188H227.414V186.852C227.143 187.216 226.775 187.519 226.308 187.762C225.841 188.005 225.309 188.126 224.712 188.126C224.049 188.126 223.443 187.958 222.892 187.622C222.341 187.277 221.903 186.801 221.576 186.194C221.259 185.578 221.1 184.883 221.1 184.108ZM227.414 184.136C227.414 183.604 227.302 183.142 227.078 182.75C226.863 182.358 226.579 182.059 226.224 181.854C225.869 181.649 225.487 181.546 225.076 181.546C224.665 181.546 224.283 181.649 223.928 181.854C223.573 182.05 223.284 182.344 223.06 182.736C222.845 183.119 222.738 183.576 222.738 184.108C222.738 184.64 222.845 185.107 223.06 185.508C223.284 185.909 223.573 186.217 223.928 186.432C224.292 186.637 224.675 186.74 225.076 186.74C225.487 186.74 225.869 186.637 226.224 186.432C226.579 186.227 226.863 185.928 227.078 185.536C227.302 185.135 227.414 184.668 227.414 184.136ZM235.012 180.16C235.619 180.16 236.16 180.286 236.636 180.538C237.122 180.79 237.5 181.163 237.77 181.658C238.041 182.153 238.176 182.75 238.176 183.45V188H236.594V183.688C236.594 182.997 236.422 182.47 236.076 182.106C235.731 181.733 235.26 181.546 234.662 181.546C234.065 181.546 233.589 181.733 233.234 182.106C232.889 182.47 232.716 182.997 232.716 183.688V188H231.12V180.286H232.716V181.168C232.978 180.851 233.309 180.603 233.71 180.426C234.121 180.249 234.555 180.16 235.012 180.16ZM243.012 188.126C242.405 188.126 241.859 188.019 241.374 187.804C240.898 187.58 240.52 187.281 240.24 186.908C239.96 186.525 239.811 186.101 239.792 185.634H241.444C241.472 185.961 241.626 186.236 241.906 186.46C242.195 186.675 242.555 186.782 242.984 186.782C243.432 186.782 243.777 186.698 244.02 186.53C244.272 186.353 244.398 186.129 244.398 185.858C244.398 185.569 244.258 185.354 243.978 185.214C243.707 185.074 243.273 184.92 242.676 184.752C242.097 184.593 241.626 184.439 241.262 184.29C240.898 184.141 240.581 183.912 240.31 183.604C240.049 183.296 239.918 182.89 239.918 182.386C239.918 181.975 240.039 181.602 240.282 181.266C240.525 180.921 240.87 180.65 241.318 180.454C241.775 180.258 242.298 180.16 242.886 180.16C243.763 180.16 244.468 180.384 245 180.832C245.541 181.271 245.831 181.873 245.868 182.638H244.272C244.244 182.293 244.104 182.017 243.852 181.812C243.6 181.607 243.259 181.504 242.83 181.504C242.41 181.504 242.088 181.583 241.864 181.742C241.64 181.901 241.528 182.111 241.528 182.372C241.528 182.577 241.603 182.75 241.752 182.89C241.901 183.03 242.083 183.142 242.298 183.226C242.513 183.301 242.83 183.399 243.25 183.52C243.81 183.669 244.267 183.823 244.622 183.982C244.986 184.131 245.299 184.355 245.56 184.654C245.821 184.953 245.957 185.349 245.966 185.844C245.966 186.283 245.845 186.675 245.602 187.02C245.359 187.365 245.014 187.636 244.566 187.832C244.127 188.028 243.609 188.126 243.012 188.126ZM250.925 181.588H249.497V188H247.887V181.588H246.977V180.286H247.887V179.74C247.887 178.853 248.12 178.209 248.587 177.808C249.063 177.397 249.805 177.192 250.813 177.192V178.522C250.327 178.522 249.987 178.615 249.791 178.802C249.595 178.979 249.497 179.292 249.497 179.74V180.286H250.925V181.588ZM255.685 188.126C254.957 188.126 254.299 187.963 253.711 187.636C253.123 187.3 252.661 186.833 252.325 186.236C251.989 185.629 251.821 184.929 251.821 184.136C251.821 183.352 251.994 182.657 252.339 182.05C252.684 181.443 253.156 180.977 253.753 180.65C254.35 180.323 255.018 180.16 255.755 180.16C256.492 180.16 257.16 180.323 257.757 180.65C258.354 180.977 258.826 181.443 259.171 182.05C259.516 182.657 259.689 183.352 259.689 184.136C259.689 184.92 259.512 185.615 259.157 186.222C258.802 186.829 258.317 187.3 257.701 187.636C257.094 187.963 256.422 188.126 255.685 188.126ZM255.685 186.74C256.096 186.74 256.478 186.642 256.833 186.446C257.197 186.25 257.491 185.956 257.715 185.564C257.939 185.172 258.051 184.696 258.051 184.136C258.051 183.576 257.944 183.105 257.729 182.722C257.514 182.33 257.23 182.036 256.875 181.84C256.52 181.644 256.138 181.546 255.727 181.546C255.316 181.546 254.934 181.644 254.579 181.84C254.234 182.036 253.958 182.33 253.753 182.722C253.548 183.105 253.445 183.576 253.445 184.136C253.445 184.967 253.655 185.611 254.075 186.068C254.504 186.516 255.041 186.74 255.685 186.74ZM262.863 181.406C263.096 181.014 263.404 180.711 263.787 180.496C264.179 180.272 264.641 180.16 265.173 180.16V181.812H264.767C264.141 181.812 263.665 181.971 263.339 182.288C263.021 182.605 262.863 183.156 262.863 183.94V188H261.267V180.286H262.863V181.406ZM275.978 180.16C276.585 180.16 277.126 180.286 277.602 180.538C278.087 180.79 278.465 181.163 278.736 181.658C279.016 182.153 279.156 182.75 279.156 183.45V188H277.574V183.688C277.574 182.997 277.401 182.47 277.056 182.106C276.711 181.733 276.239 181.546 275.642 181.546C275.045 181.546 274.569 181.733 274.214 182.106C273.869 182.47 273.696 182.997 273.696 183.688V188H272.114V183.688C272.114 182.997 271.941 182.47 271.596 182.106C271.251 181.733 270.779 181.546 270.182 181.546C269.585 181.546 269.109 181.733 268.754 182.106C268.409 182.47 268.236 182.997 268.236 183.688V188H266.64V180.286H268.236V181.168C268.497 180.851 268.829 180.603 269.23 180.426C269.631 180.249 270.061 180.16 270.518 180.16C271.134 180.16 271.685 180.291 272.17 180.552C272.655 180.813 273.029 181.191 273.29 181.686C273.523 181.219 273.887 180.851 274.382 180.58C274.877 180.3 275.409 180.16 275.978 180.16ZM280.655 184.108C280.655 183.333 280.813 182.647 281.131 182.05C281.457 181.453 281.896 180.991 282.447 180.664C283.007 180.328 283.623 180.16 284.295 180.16C284.901 180.16 285.429 180.281 285.877 180.524C286.334 180.757 286.698 181.051 286.969 181.406V180.286H288.579V188H286.969V186.852C286.698 187.216 286.329 187.519 285.863 187.762C285.396 188.005 284.864 188.126 284.267 188.126C283.604 188.126 282.997 187.958 282.447 187.622C281.896 187.277 281.457 186.801 281.131 186.194C280.813 185.578 280.655 184.883 280.655 184.108ZM286.969 184.136C286.969 183.604 286.857 183.142 286.633 182.75C286.418 182.358 286.133 182.059 285.779 181.854C285.424 181.649 285.041 181.546 284.631 181.546C284.22 181.546 283.837 181.649 283.483 181.854C283.128 182.05 282.839 182.344 282.615 182.736C282.4 183.119 282.293 183.576 282.293 184.108C282.293 184.64 282.4 185.107 282.615 185.508C282.839 185.909 283.128 186.217 283.483 186.432C283.847 186.637 284.229 186.74 284.631 186.74C285.041 186.74 285.424 186.637 285.779 186.432C286.133 186.227 286.418 185.928 286.633 185.536C286.857 185.135 286.969 184.668 286.969 184.136ZM300.013 180.16C300.62 180.16 301.161 180.286 301.637 180.538C302.122 180.79 302.5 181.163 302.771 181.658C303.051 182.153 303.191 182.75 303.191 183.45V188H301.609V183.688C301.609 182.997 301.436 182.47 301.091 182.106C300.746 181.733 300.274 181.546 299.677 181.546C299.08 181.546 298.604 181.733 298.249 182.106C297.904 182.47 297.731 182.997 297.731 183.688V188H296.149V183.688C296.149 182.997 295.976 182.47 295.631 182.106C295.286 181.733 294.814 181.546 294.217 181.546C293.62 181.546 293.144 181.733 292.789 182.106C292.444 182.47 292.271 182.997 292.271 183.688V188H290.675V180.286H292.271V181.168C292.532 180.851 292.864 180.603 293.265 180.426C293.666 180.249 294.096 180.16 294.553 180.16C295.169 180.16 295.72 180.291 296.205 180.552C296.69 180.813 297.064 181.191 297.325 181.686C297.558 181.219 297.922 180.851 298.417 180.58C298.912 180.3 299.444 180.16 300.013 180.16ZM312.205 188.126C311.477 188.126 310.819 187.963 310.231 187.636C309.643 187.3 309.181 186.833 308.845 186.236C308.509 185.629 308.341 184.929 308.341 184.136C308.341 183.352 308.513 182.657 308.859 182.05C309.204 181.443 309.675 180.977 310.273 180.65C310.87 180.323 311.537 180.16 312.275 180.16C313.012 180.16 313.679 180.323 314.277 180.65C314.874 180.977 315.345 181.443 315.691 182.05C316.036 182.657 316.209 183.352 316.209 184.136C316.209 184.92 316.031 185.615 315.677 186.222C315.322 186.829 314.837 187.3 314.221 187.636C313.614 187.963 312.942 188.126 312.205 188.126ZM312.205 186.74C312.615 186.74 312.998 186.642 313.353 186.446C313.717 186.25 314.011 185.956 314.235 185.564C314.459 185.172 314.571 184.696 314.571 184.136C314.571 183.576 314.463 183.105 314.249 182.722C314.034 182.33 313.749 182.036 313.395 181.84C313.04 181.644 312.657 181.546 312.247 181.546C311.836 181.546 311.453 181.644 311.099 181.84C310.753 182.036 310.478 182.33 310.273 182.722C310.067 183.105 309.965 183.576 309.965 184.136C309.965 184.967 310.175 185.611 310.595 186.068C311.024 186.516 311.561 186.74 312.205 186.74ZM330.761 180.16C331.368 180.16 331.909 180.286 332.385 180.538C332.87 180.79 333.248 181.163 333.519 181.658C333.799 182.153 333.939 182.75 333.939 183.45V188H332.357V183.688C332.357 182.997 332.184 182.47 331.839 182.106C331.494 181.733 331.022 181.546 330.425 181.546C329.828 181.546 329.352 181.733 328.997 182.106C328.652 182.47 328.479 182.997 328.479 183.688V188H326.897V183.688C326.897 182.997 326.724 182.47 326.379 182.106C326.034 181.733 325.562 181.546 324.965 181.546C324.368 181.546 323.892 181.733 323.537 182.106C323.192 182.47 323.019 182.997 323.019 183.688V188H321.423V180.286H323.019V181.168C323.28 180.851 323.612 180.603 324.013 180.426C324.414 180.249 324.844 180.16 325.301 180.16C325.917 180.16 326.468 180.291 326.953 180.552C327.438 180.813 327.812 181.191 328.073 181.686C328.306 181.219 328.67 180.851 329.165 180.58C329.66 180.3 330.192 180.16 330.761 180.16ZM342.956 180.286V188H341.36V187.09C341.108 187.407 340.777 187.659 340.366 187.846C339.965 188.023 339.535 188.112 339.078 188.112C338.471 188.112 337.925 187.986 337.44 187.734C336.964 187.482 336.586 187.109 336.306 186.614C336.035 186.119 335.9 185.522 335.9 184.822V180.286H337.482V184.584C337.482 185.275 337.655 185.807 338 186.18C338.345 186.544 338.817 186.726 339.414 186.726C340.011 186.726 340.483 186.544 340.828 186.18C341.183 185.807 341.36 185.275 341.36 184.584V180.286H342.956ZM348.954 180.16C349.56 180.16 350.102 180.286 350.578 180.538C351.063 180.79 351.441 181.163 351.712 181.658C351.982 182.153 352.118 182.75 352.118 183.45V188H350.536V183.688C350.536 182.997 350.363 182.47 350.018 182.106C349.672 181.733 349.201 181.546 348.604 181.546C348.006 181.546 347.53 181.733 347.176 182.106C346.83 182.47 346.658 182.997 346.658 183.688V188H345.062V180.286H346.658V181.168C346.919 180.851 347.25 180.603 347.652 180.426C348.062 180.249 348.496 180.16 348.954 180.16ZM353.622 184.108C353.622 183.333 353.78 182.647 354.098 182.05C354.424 181.453 354.863 180.991 355.414 180.664C355.974 180.328 356.594 180.16 357.276 180.16C357.78 180.16 358.274 180.272 358.76 180.496C359.254 180.711 359.646 181 359.936 181.364V177.64H361.546V188H359.936V186.838C359.674 187.211 359.31 187.519 358.844 187.762C358.386 188.005 357.859 188.126 357.262 188.126C356.59 188.126 355.974 187.958 355.414 187.622C354.863 187.277 354.424 186.801 354.098 186.194C353.78 185.578 353.622 184.883 353.622 184.108ZM359.936 184.136C359.936 183.604 359.824 183.142 359.6 182.75C359.385 182.358 359.1 182.059 358.746 181.854C358.391 181.649 358.008 181.546 357.598 181.546C357.187 181.546 356.804 181.649 356.45 181.854C356.095 182.05 355.806 182.344 355.582 182.736C355.367 183.119 355.26 183.576 355.26 184.108C355.26 184.64 355.367 185.107 355.582 185.508C355.806 185.909 356.095 186.217 356.45 186.432C356.814 186.637 357.196 186.74 357.598 186.74C358.008 186.74 358.391 186.637 358.746 186.432C359.1 186.227 359.385 185.928 359.6 185.536C359.824 185.135 359.936 184.668 359.936 184.136ZM366.988 188.126C366.26 188.126 365.602 187.963 365.014 187.636C364.426 187.3 363.964 186.833 363.628 186.236C363.292 185.629 363.124 184.929 363.124 184.136C363.124 183.352 363.296 182.657 363.642 182.05C363.987 181.443 364.458 180.977 365.056 180.65C365.653 180.323 366.32 180.16 367.058 180.16C367.795 180.16 368.462 180.323 369.06 180.65C369.657 180.977 370.128 181.443 370.474 182.05C370.819 182.657 370.992 183.352 370.992 184.136C370.992 184.92 370.814 185.615 370.46 186.222C370.105 186.829 369.62 187.3 369.004 187.636C368.397 187.963 367.725 188.126 366.988 188.126ZM366.988 186.74C367.398 186.74 367.781 186.642 368.136 186.446C368.5 186.25 368.794 185.956 369.018 185.564C369.242 185.172 369.354 184.696 369.354 184.136C369.354 183.576 369.246 183.105 369.032 182.722C368.817 182.33 368.532 182.036 368.178 181.84C367.823 181.644 367.44 181.546 367.03 181.546C366.619 181.546 366.236 181.644 365.882 181.84C365.536 182.036 365.261 182.33 365.056 182.722C364.85 183.105 364.748 183.576 364.748 184.136C364.748 184.967 364.958 185.611 365.378 186.068C365.807 186.516 366.344 186.74 366.988 186.74ZM373.214 188.098C372.924 188.098 372.682 188 372.486 187.804C372.29 187.608 372.192 187.365 372.192 187.076C372.192 186.787 372.29 186.544 372.486 186.348C372.682 186.152 372.924 186.054 373.214 186.054C373.494 186.054 373.732 186.152 373.928 186.348C374.124 186.544 374.222 186.787 374.222 187.076C374.222 187.365 374.124 187.608 373.928 187.804C373.732 188 373.494 188.098 373.214 188.098Z" fill="#6513A9"/>
<path fill-rule="evenodd" clip-rule="evenodd" d="M219.635 115.795C219.249 114.735 217.751 114.735 217.365 115.795L215.612 120.612L210.795 122.365C209.735 122.751 209.735 124.249 210.795 124.635L215.612 126.388L217.365 131.205C217.751 132.265 219.249 132.265 219.635 131.205L221.388 126.388L226.205 124.635C227.265 124.249 227.265 122.751 226.205 122.365L221.388 120.612L219.635 115.795Z" fill="#6513A9"/>
<defs>
<clipPath id="clip0_1854_1362">
<rect width="61.2403" height="64.049" fill="white" transform="translate(50.8201 61.0693) rotate(-9.09)"/>
</clipPath>
</defs>
</svg>
