<svg width="100" height="109" viewBox="0 0 100 109" fill="none" xmlns="http://www.w3.org/2000/svg">
<path d="M0.731423 34.2726C-0.925801 29.8184 1.34162 24.8641 5.79586 23.2068L64.4271 1.39276C68.8813 -0.264467 73.8356 2.00296 75.4928 6.45719L97.8328 66.5019C101.976 77.6374 96.3073 90.0232 85.1717 94.1663L50.7358 106.978C39.6002 111.121 27.2145 105.453 23.0714 94.3173L0.731423 34.2726Z" fill="#7B2BBE"/>
<path d="M0.731423 34.2726C-0.925801 29.8184 1.34162 24.8641 5.79586 23.2068L64.4271 1.39276C68.8813 -0.264467 73.8356 2.00296 75.4928 6.45719L89.416 43.8795C97.0971 64.5243 86.5878 87.4869 65.943 95.1679C45.2982 102.849 22.3356 92.3397 14.6546 71.6949L0.731423 34.2726Z" fill="#46C4FF"/>
<path d="M0.731423 34.2726C-0.925801 29.8184 1.34162 24.8641 5.79586 23.2068L64.4271 1.39276C68.8813 -0.264467 73.8356 2.00296 75.4928 6.45719L96.1221 61.904C100.099 72.5941 94.6577 84.4844 83.9675 88.4618L47.9185 101.874C37.2284 105.851 25.338 100.41 21.3607 89.7194L0.731423 34.2726Z" fill="#C67DFF"/>
<path d="M13.9922 31.3293C13.8265 30.8839 14.0533 30.3885 14.4987 30.2227L63.3271 12.0558C63.7725 11.8901 64.268 12.1169 64.4337 12.5623L78.2089 49.5868C83.3913 63.5159 76.3007 79.0087 62.3717 84.1911C48.4427 89.3735 32.9498 82.2829 27.7674 68.3539L13.9922 31.3293Z" fill="#9D4EDD"/>
<path d="M50.9543 28.1522C51.442 27.9707 51.9818 27.9904 52.455 28.207C52.9282 28.4236 53.296 28.8192 53.4775 29.307L54.1617 31.146C54.3432 31.6337 54.3235 32.1736 54.1069 32.6468C53.8903 33.12 53.4946 33.4877 53.0069 33.6692C52.5192 33.8507 51.9793 33.831 51.5061 33.6144C51.0329 33.3978 50.6651 33.0021 50.4837 32.5144L49.7995 30.6754C49.618 30.1877 49.6377 29.6478 49.8543 29.1746C50.0709 28.7014 50.4665 28.3336 50.9543 28.1522ZM45.3271 34.9563C45.4139 34.4432 45.7009 33.9856 46.125 33.6841C46.5491 33.3826 47.0757 33.2619 47.5888 33.3486L49.5235 33.6756C50.0338 33.7653 50.4879 34.0533 50.7867 34.4766C51.0855 34.8999 51.2047 35.4242 51.1184 35.9351C51.0321 36.446 50.7471 36.902 50.3258 37.2036C49.9045 37.5052 49.381 37.6279 48.8695 37.545L46.9348 37.218C46.4217 37.1313 45.9641 36.8443 45.6626 36.4201C45.3611 35.996 45.2404 35.4694 45.3271 34.9563ZM59.9219 32.3861C60.0882 32.1878 60.2135 31.9585 60.2908 31.7116C60.3681 31.4646 60.3958 31.2048 60.3722 30.9471C60.3487 30.6894 60.2744 30.4389 60.1537 30.21C60.0329 29.9811 59.8681 29.7784 59.6687 29.6135C59.4693 29.4486 59.2392 29.3247 58.9918 29.2491C58.7443 29.1735 58.4843 29.1475 58.2268 29.1728C57.9692 29.198 57.7192 29.2739 57.4912 29.3962C57.2631 29.5185 57.0615 29.6846 56.8979 29.8851L55.6474 31.3972C55.4812 31.5955 55.3558 31.8247 55.2785 32.0717C55.2012 32.3186 55.1736 32.5784 55.1971 32.8361C55.2206 33.0938 55.2949 33.3443 55.4156 33.5732C55.5364 33.8021 55.7012 34.0048 55.9006 34.1697C56.1 34.3347 56.3301 34.4585 56.5776 34.5341C56.825 34.6098 57.085 34.6357 57.3426 34.6105C57.6001 34.5852 57.8501 34.5093 58.0782 34.387C58.3062 34.2648 58.5079 34.0986 58.6715 33.8981L59.9219 32.3861ZM51.7906 37.9404C51.8764 37.4491 52.1459 37.0089 52.5445 36.7092C52.9432 36.4096 53.4409 36.2729 53.9367 36.3271C54.4324 36.3812 54.889 36.6221 55.2135 37.0008C55.538 37.3795 55.7062 37.8675 55.6838 38.3657L55.66 38.5944L55.48 39.6579L57.4147 39.9849C57.7785 40.0465 58.1177 40.2094 58.3931 40.4551C58.6685 40.7007 58.8691 41.019 58.9718 41.3735L59.0268 41.6168L59.2079 42.7846C64.3141 45.9639 67.3467 51.8637 66.3011 58.0457C64.9004 66.334 56.7744 71.7168 48.3137 70.286C39.8511 68.8559 33.9454 61.1024 35.3461 52.814C36.3601 46.8176 40.9056 42.3336 46.5302 40.8627L47.0615 40.7321L47.6154 39.6886C47.789 39.3624 48.0511 39.092 48.3717 38.9083C48.6922 38.7246 49.0581 38.6351 49.4273 38.6501L49.6759 38.677L51.6106 39.0039L51.7906 37.9404ZM46.9534 46.9295C45.674 47.4056 44.5426 48.2101 43.6727 49.2621C42.8029 50.3141 42.2253 51.5766 41.998 52.9226C41.9127 53.417 42.0201 53.9252 42.2979 54.3429C42.5758 54.7606 43.0031 55.056 43.492 55.1684C43.9809 55.2808 44.4943 55.2017 44.9267 54.9473C45.359 54.6929 45.6775 54.2826 45.8167 53.8006L45.8674 53.5766C46.0866 52.2807 46.9294 51.2428 48.0427 50.7239L48.3255 50.6061C48.813 50.4242 49.2083 50.056 49.4244 49.5826C49.6405 49.1092 49.6597 48.5693 49.4778 48.0818C49.2958 47.5942 48.9276 47.1989 48.4542 46.9828C47.9808 46.7667 47.4409 46.7475 46.9534 46.9295ZM59.1963 35.3086L61.1309 35.6356C61.3864 35.677 61.6311 35.7686 61.851 35.905C62.0709 36.0414 62.2617 36.2199 62.4123 36.4303C62.5629 36.6407 62.6704 36.8789 62.7287 37.131C62.7869 37.3831 62.7947 37.6443 62.7515 37.8994C62.7084 38.1546 62.6152 38.3987 62.4774 38.6177C62.3396 38.8367 62.1597 39.0263 61.9483 39.1755C61.7369 39.3247 61.4981 39.4307 61.2456 39.4872C60.9931 39.5438 60.7319 39.5498 60.477 39.505L58.5423 39.178C58.2869 39.1366 58.0422 39.045 57.8222 38.9087C57.6023 38.7723 57.4116 38.5937 57.2609 38.3833C57.1103 38.1729 57.0028 37.9348 56.9446 37.6826C56.8864 37.4305 56.8786 37.1693 56.9217 36.9142C56.9648 36.659 57.058 36.4149 57.1958 36.1959C57.3337 35.9769 57.5135 35.7873 57.7249 35.6381C57.9363 35.4889 58.1752 35.383 58.4277 35.3264C58.6802 35.2699 58.9414 35.2638 59.1963 35.3086Z" fill="#6513A9"/>
<path d="M54.1689 4.97179L66.1863 0.738281L69.3909 1.08389L71.0772 1.48193L72.4807 2.49791L74.8265 5.21413L79.6607 18.2073L37.091 106.271L34.5752 105.294L32.1911 104.028L29.939 102.475L27.8187 100.633L25.8304 98.5026L24.2623 96.2162L22.826 93.6415L17.8238 80.1966L54.1689 4.97179Z" fill="white" fill-opacity="0.29"/>
</svg>
