<svg width="34" height="32" viewBox="0 0 34 32" fill="none" xmlns="http://www.w3.org/2000/svg">
<path d="M33.5875 15.8469C33.5875 24.5994 26.0687 31.6947 16.7938 31.6947C7.51882 31.6947 0 24.5994 0 15.8469C0 7.09435 7.51882 -0.000976562 16.7938 -0.000976562C26.0687 -0.000976562 33.5875 7.09435 33.5875 15.8469Z" fill="#7AD761"/>
<path d="M31.188 15.7469C31.188 23.2254 24.7433 29.2878 16.7933 29.2878C8.84339 29.2878 2.39868 23.2254 2.39868 15.7469C2.39868 8.26852 8.84339 2.20605 16.7933 2.20605C24.7433 2.20605 31.188 8.26852 31.188 15.7469Z" fill="#BAFB92"/>
<path fill-rule="evenodd" clip-rule="evenodd" d="M7.92034 14.2283C7.92034 14.512 7.98429 14.7858 8.10308 15.0435C7.27201 15.6439 6.79761 16.3748 6.79761 17.2235C6.79761 19.6635 11.3216 22.0907 16.9022 22.0907C22.4828 22.0907 26.7822 19.8133 26.7822 17.3733C26.8547 16.5279 26.433 15.7839 25.6413 15.1637C25.7984 14.8715 25.884 14.5565 25.884 14.2283C25.884 12.6981 24.0242 11.4577 21.7299 11.4577C20.0244 11.4577 18.5589 12.1432 17.9191 13.1236C17.5847 13.1113 17.2455 13.1051 16.9022 13.1051C16.5586 13.1051 16.2189 13.1107 15.8842 13.122C15.2438 12.1424 13.779 11.4577 12.0744 11.4577C9.78019 11.4577 7.92034 12.6981 7.92034 14.2283Z" fill="#7AD761"/>
<path d="M31.0883 7.49349L31.8881 8.89765L32.2879 9.80038L32.3879 10.1013L32.6878 10.7031L32.7914 11.1043L32.9876 11.6058L33.2582 12.7716L14.3933 31.567L13.7935 31.4667L13.2937 31.3664L12.9943 31.2662H12.8943L12.5945 31.1659L11.9947 31.0656L11.0945 30.7646L10.2948 30.4637L10.0954 30.3635L31.0883 7.49349Z" fill="white" fill-opacity="0.25"/>
</svg>
