<svg width="140" height="163" viewBox="0 0 140 163" fill="none" xmlns="http://www.w3.org/2000/svg">
<path d="M0.629021 28.8491C-0.24351 23.3956 3.47009 18.2674 8.92358 17.3948L110.11 1.20558C115.563 0.333045 120.691 4.04664 121.564 9.50013L139.576 122.081C141.758 135.714 132.474 148.535 118.84 150.716L47.277 162.166C33.6433 164.347 20.8227 155.063 18.6413 141.43L0.629021 28.8491Z" fill="#FFC100"/>
<path d="M0.629021 28.8491C-0.24351 23.3956 3.47009 18.2674 8.92358 17.3948L110.11 1.20558C115.563 0.333045 120.691 4.04664 121.564 9.50013L133.711 85.4236C138.336 114.327 118.654 141.507 89.7501 146.131L73.4841 148.734C44.5806 153.358 17.4008 133.676 12.7764 104.773L0.629021 28.8491Z" fill="#46C4FF"/>
<path d="M0.629021 28.8491C-0.24351 23.3956 3.47009 18.2674 8.92358 17.3948L110.11 1.20558C115.563 0.333045 120.691 4.04664 121.564 9.50013L138.293 114.059C140.387 127.148 131.474 139.456 118.386 141.55L44.8482 153.315C31.7599 155.409 19.4521 146.497 17.358 133.408L0.629021 28.8491Z" fill="#FEE333"/>
<path d="M22.0074 31.713C21.9201 31.1676 22.2915 30.6548 22.8368 30.5676L102.457 17.8288C103.002 17.7416 103.515 18.1129 103.602 18.6583L113.732 81.9741C117.337 104.506 101.994 125.694 79.4623 129.299C56.9305 132.904 35.7426 117.561 32.1376 95.0289L22.0074 31.713Z" fill="#FEC701"/>
<path d="M64.8332 46.8071C64.7913 47.7105 64.487 48.5278 64.2446 48.5666C64.0021 48.6054 63.5353 49.961 63.1185 51.6289C62.7623 53.2871 62.2955 54.6427 62.053 54.6815C61.8106 54.7203 61.3638 56.2008 61.0376 58.0464C60.7013 59.8294 60.2645 61.3724 60.0827 61.4015C59.8403 61.4403 59.3635 62.7335 58.9266 64.2765C58.5604 65.8722 58.043 67.3 57.8912 67.5165C57.6787 67.7426 57.2319 69.2231 56.8757 70.8813C56.5194 72.5395 56.0726 74.0201 55.9208 74.2365C54.9598 75.2229 54.2261 79.1831 54.5957 81.4937L54.9954 83.9917L61.9647 82.8766C68.8734 81.7713 68.9341 81.7616 68.9115 83.1743C68.8595 84.0152 69.0048 87.6427 69.2207 91.3229C69.4366 95.0031 69.3901 98.5972 69.197 99.3327C68.9533 100.14 69.1012 102.23 69.5222 104.084L70.2535 107.49L72.8288 107.27C75.1617 107.089 75.4447 106.915 75.5785 105.421C75.6204 104.518 75.9248 103.7 76.1672 103.662C76.4096 103.623 76.937 102.257 77.3538 100.59C77.7101 98.9313 78.1769 97.5757 78.3587 97.5466C78.6011 97.5078 79.0479 96.0273 79.3742 94.1817C79.7104 92.3986 80.1473 90.8557 80.3291 90.8266C80.5715 90.7878 81.0483 89.4946 81.4751 87.8892C81.8513 86.3559 82.3081 84.9378 82.5206 84.7116C82.6724 84.4952 83.2404 82.9953 83.7179 81.3177C84.1953 79.6401 84.9871 77.2077 85.4033 75.9242C85.8801 74.631 86.0758 72.358 85.836 70.8593L85.4163 68.2364L78.447 69.3514C71.5383 70.4568 71.4777 70.4665 71.4903 68.9914C71.5522 68.2129 71.4069 64.5854 71.191 60.9052C70.9751 57.225 71.0216 53.6309 71.2147 52.8954C71.4584 52.0879 71.3105 49.998 70.8896 48.1439L70.1582 44.7383L67.5829 44.9581C65.2501 45.1393 64.967 45.3126 64.8332 46.8071Z" fill="#F89701"/>
<path d="M41.0504 54.327C39.7851 56.1307 40.892 58.3874 44.1593 60.9389C46.9325 63.1212 47.6591 63.3892 49.7802 63.0499C51.8407 62.7202 52.1743 62.4747 52.0351 61.216C51.7573 58.3142 51.1932 57.5078 48.0364 55.2588C44.7385 52.9043 42.2651 52.5956 41.0504 54.327Z" fill="#F89701"/>
<path d="M84.7111 49.4551C82.363 52.6489 82.1193 53.4565 82.7607 56.3C83.0818 57.5296 83.4754 57.6588 85.5359 57.3291C87.6569 56.9898 88.2636 56.5084 90.2175 53.5699C92.5256 50.1263 92.8732 47.6368 91.1083 46.318C89.3435 44.9992 87.1605 46.117 84.7111 49.4551Z" fill="#F89701"/>
<path d="M50.2249 98.4612C47.7543 102.443 47.4287 103.904 48.8499 105.406C50.7147 107.35 52.9982 106.472 55.7612 102.763C57.8969 99.7956 58.11 99.1851 57.5984 97.1534C57.0569 94.9343 56.9257 94.8912 54.6028 95.1348C52.4012 95.3589 51.9563 95.6863 50.2249 98.4612Z" fill="#F89701"/>
<path d="M88.7016 89.9353C88.4892 90.1615 88.4872 91.3146 88.677 92.5012C88.9468 94.1873 89.6421 95.0368 92.3047 96.9165C95.6732 99.3237 98.0961 99.7047 99.3613 97.901C100.627 96.0974 99.5197 93.8407 96.2524 91.2892C93.691 89.2652 92.692 88.8486 91.0558 89.1104C89.9043 89.2946 88.8434 89.6565 88.7016 89.9353Z" fill="#F89701"/>
<path d="M90.4148 4.00033L113.523 0.303222L115.618 0.327181L117.089 0.810042L119.464 2.58487L120.424 4.227L124.962 32.5912L34.8381 155.471L31.3318 153.158L28.109 150.442L25.1699 147.321L22.5147 143.795L20.1433 139.865L18.4515 135.826L17.0435 131.382L13.4578 108.971L90.4148 4.00033Z" fill="white" fill-opacity="0.29"/>
</svg>
