<svg width="87" height="139" viewBox="0 0 87 139" fill="none" xmlns="http://www.w3.org/2000/svg">
<path d="M21.6079 137.795C20.6806 137.371 19.91 136.625 19.4177 135.674C18.9254 134.724 18.7394 133.623 18.8891 132.545L27.136 74.406H5.25004C4.55619 74.4263 3.86733 74.2736 3.2366 73.9599C2.60587 73.6461 2.05014 73.1797 1.61228 72.5966C1.17442 72.0134 0.866142 71.3292 0.711225 70.5966C0.556309 69.864 0.558898 69.1027 0.718792 68.3714L14.3125 4.59011C14.5517 3.49244 15.1329 2.51751 15.9582 1.82943C16.7835 1.14136 17.8026 0.78216 18.8438 0.8123H64.1563C64.8332 0.809808 65.5021 0.971575 66.1137 1.28572C66.7253 1.59986 67.2642 2.05839 67.6907 2.62761C68.1232 3.20327 68.4294 3.87766 68.5864 4.60001C68.7434 5.32236 68.747 6.07385 68.5969 6.79792L60.7579 44.9685H82.2813C83.1305 44.9667 83.9632 45.2233 84.6842 45.7091C85.4053 46.1949 85.9858 46.8903 86.3594 47.716C86.6841 48.5086 86.8091 49.3801 86.7215 50.242C86.634 51.1038 86.337 51.9251 85.861 52.6223L26.9547 136.029C26.5566 136.668 26.025 137.196 25.4031 137.571C24.7812 137.946 24.0864 138.157 23.375 138.187C22.7688 138.174 22.17 138.041 21.6079 137.795Z" fill="#FEC701"/>
</svg>
