<svg width="638" height="217" viewBox="0 0 638 217" fill="none" xmlns="http://www.w3.org/2000/svg">
<rect x="3.00146" y="52.999" width="635" height="164" rx="30" fill="#C6F0AC"/>
<path d="M21.0984 52.6C20.2259 47.1465 23.9395 42.0183 29.393 41.1457L114.817 27.4783C120.271 26.6057 125.399 30.3193 126.271 35.7728L140.61 125.393C142.792 139.026 133.508 151.847 119.874 154.028L64.0728 162.956C50.4391 165.138 37.6185 155.854 35.4371 142.22L21.0984 52.6Z" fill="#508D3F"/>
<path d="M21.0984 52.6C20.2259 47.1465 23.9395 42.0183 29.393 41.1457L114.817 27.4783C120.271 26.6057 125.399 30.3193 126.271 35.7728L134.97 90.1414C139.595 119.045 119.66 146.265 90.7569 150.889V150.889C61.8534 155.514 34.4215 135.872 29.7971 106.969L21.0984 52.6Z" fill="#46C4FF"/>
<path d="M21.0984 52.6C20.2259 47.1465 23.9395 42.0183 29.393 41.1457L114.817 27.4783C120.271 26.6057 125.399 30.3193 126.271 35.7728L139.552 118.777C141.646 131.866 132.733 144.173 119.645 146.267L61.8689 155.511C48.7806 157.605 36.4728 148.693 34.3787 135.604L21.0984 52.6Z" fill="#7AD761"/>
<path d="M39.4441 53.5451C39.3569 52.9997 39.7282 52.4869 40.2736 52.3996L109.259 41.3623C109.804 41.2751 110.317 41.6464 110.404 42.1918L118.761 94.4245C121.896 114.02 108.553 132.446 88.9578 135.581V135.581C69.3627 138.716 50.9362 125.373 47.8011 105.778L39.4441 53.5451Z" fill="#60AF4B"/>
<path d="M58.1867 71.9701C57.0796 72.9946 56.0364 74.7504 55.772 75.746C55.2763 77.9438 56.1706 84.5269 57.2365 85.8923C57.9181 86.8425 57.757 90.4697 56.9184 91.1865C56.7366 91.3744 56.024 92.5477 55.3196 93.7726C54.2062 95.7515 54.107 96.4558 54.5532 99.2444C54.9911 101.981 55.3133 102.671 56.8088 104.074C60.7149 107.633 66.0504 109.533 72.2059 109.608C74.1145 109.62 75.9447 109.804 76.1843 109.977C76.775 110.36 92.1639 107.897 92.6059 107.35C92.7794 107.11 94.4608 106.365 96.2703 105.758C102.095 103.766 106.572 100.296 109.172 95.696C110.155 93.8968 110.246 93.1408 109.808 90.4039C109.362 87.6153 109.048 86.977 107.373 85.4443C106.322 84.5003 105.279 83.608 105.047 83.4861C104.027 83.0668 102.742 79.6709 103.093 78.5555C103.68 76.9257 102.476 70.3921 101.319 68.4587C100.757 67.5953 99.2181 66.2526 97.8466 65.6247C95.6529 64.4927 95.0601 64.4287 91.6002 64.9822C88.3985 65.4945 87.3987 65.8663 85.7131 67.2482C84.5894 68.1695 83.6021 69.2808 83.5133 69.7187C83.2819 70.9209 73.6768 72.4576 73.0819 71.3876C72.8609 70.9993 71.5761 70.2515 70.221 69.7269C68.1885 68.9399 67.1226 68.8985 63.9209 69.4108C60.461 69.9644 59.9177 70.2102 58.1867 71.9701ZM68.2277 74.8124C68.6635 75.2193 69.3906 75.7915 69.8182 76.1468C70.6734 76.8574 71.4294 80.9204 70.7064 81.0361C70.4482 81.0774 70.2478 81.4802 70.3139 81.8933C70.5535 83.3909 67.1742 84.779 64.0468 84.4319C61.4607 84.1572 59.9218 78.8424 61.752 76.3781C63.0017 74.5893 66.9367 73.6949 68.2277 74.8124ZM95.8346 70.925C98.3423 72.6953 98.5385 78.2249 96.1672 79.2928C93.3042 80.5983 89.6605 80.3339 89.4209 78.8363C89.3548 78.4232 89.0904 78.0948 88.7805 78.1443C88.0576 78.26 87.5081 74.1639 88.1505 73.2137C88.3943 72.751 88.9066 71.9805 89.1937 71.4579C90.0716 69.9934 94.0892 69.6154 95.8346 70.925ZM66.9056 95.6792C67.8475 96.27 69.6322 96.8319 70.8179 96.9599C72.0552 97.0797 73.3772 97.3978 73.8399 97.6416C74.3707 97.9804 77.3473 97.716 82.5113 96.8898C87.6753 96.0635 90.5858 95.386 90.9845 94.8985C91.348 94.5226 92.5048 93.8079 93.6429 93.308C94.7294 92.8164 96.2497 91.7258 96.9603 90.8706C98.5199 89.0322 99.9926 88.6377 100.216 90.032C100.356 90.9099 99.6022 91.8249 96.6628 94.3078C92.9716 97.3876 85.9402 99.7837 79.2311 100.222C73.2615 100.647 63.8898 98.0154 63.5428 95.8465C63.328 94.5039 64.902 94.4109 66.9056 95.6792Z" fill="#2B5121"/>
<path d="M63.6289 79.8373L64.0007 82.1611L66.1448 81.6592C68.4955 81.1242 68.8446 80.3269 67.8882 77.9907C67.4648 76.9992 67.0703 76.8505 65.3145 77.1314L63.2489 77.4619L63.6289 79.8373Z" fill="#2B5121"/>
<path d="M90.5076 74.3723C90.3279 76.8903 90.9083 77.5389 93.3086 77.3137L95.5023 77.1217L95.1305 74.7978L94.7504 72.4224L92.6848 72.7529C90.929 73.0338 90.6006 73.2982 90.5076 74.3723Z" fill="#2B5121"/>
<path d="M98.9782 29.7109L117.006 26.8266L119.074 26.4957L120.895 26.5075L122.172 26.9094L123.2 27.6542L124.228 28.3989L125.056 29.782L128.886 53.7201L89.4794 105.793L50.073 157.865L47.0352 155.926L44.2454 153.645L41.7038 151.021L39.4105 148.053L37.3654 144.743L35.9114 141.339L34.7056 137.592L34.0666 133.598L31.6795 118.678L98.9782 29.7109Z" fill="white" fill-opacity="0.29"/>
<path fill-rule="evenodd" clip-rule="evenodd" d="M201.617 120.794C201.272 119.734 199.932 119.734 199.586 120.794L198.019 125.611L193.711 127.364C192.762 127.75 192.762 129.248 193.711 129.634L198.019 131.387L199.586 136.204C199.932 137.264 201.272 137.264 201.617 136.204L203.184 131.387L207.493 129.634C208.441 129.248 208.441 127.75 207.493 127.364L203.184 125.611L201.617 120.794Z" fill="#2B5121"/>
<path d="M198.58 94.439L196.24 93.939C195.213 93.7124 194.493 93.3324 194.08 92.799C193.68 92.2657 193.48 91.5124 193.48 90.539C193.48 89.0724 193.866 87.9924 194.64 87.299C195.413 86.6057 196.633 86.259 198.3 86.259C199.02 86.259 199.666 86.2924 200.24 86.359C200.813 86.4124 201.306 86.499 201.72 86.619V89.919C200.773 89.759 200.08 89.6657 199.64 89.639C199.2 89.599 198.746 89.579 198.28 89.579C197.84 89.579 197.52 89.639 197.32 89.759C197.133 89.879 197.04 90.079 197.04 90.359C197.04 90.5057 197.073 90.619 197.14 90.699C197.22 90.779 197.353 90.839 197.54 90.879L199.72 91.359C200.4 91.5057 200.906 91.6657 201.24 91.839C201.573 91.999 201.84 92.199 202.04 92.439C202.266 92.7057 202.426 93.0457 202.52 93.459C202.626 93.8724 202.68 94.3724 202.68 94.959C202.68 96.4524 202.28 97.539 201.48 98.219C200.68 98.8857 199.446 99.219 197.78 99.219C196.926 99.219 196.1 99.1724 195.3 99.079C194.513 98.9857 193.926 98.8657 193.54 98.719V95.219C194.046 95.379 194.686 95.5124 195.46 95.619C196.246 95.7257 197.026 95.779 197.8 95.779C198.266 95.779 198.593 95.7257 198.78 95.619C198.966 95.5124 199.06 95.319 199.06 95.039C199.06 94.8524 199.026 94.719 198.96 94.639C198.906 94.559 198.78 94.4924 198.58 94.439ZM205.98 99.219C205.02 99.219 204.32 98.9657 203.88 98.459C203.44 97.9524 203.22 97.159 203.22 96.079C203.22 95.0124 203.494 94.2524 204.04 93.799C204.6 93.3457 205.527 93.119 206.82 93.119C207.127 93.119 207.434 93.1324 207.74 93.159C208.06 93.1857 208.34 93.219 208.58 93.259V92.759C208.58 92.4924 208.454 92.3057 208.2 92.199C207.947 92.079 207.534 92.019 206.96 92.019C206.414 92.019 205.914 92.0324 205.46 92.059C205.02 92.0857 204.574 92.139 204.12 92.219V89.279C204.614 89.159 205.207 89.0724 205.9 89.019C206.607 88.9524 207.414 88.919 208.32 88.919C209.574 88.919 210.527 89.199 211.18 89.759C211.847 90.3057 212.18 91.1124 212.18 92.179V98.999H208.78L208.68 98.219H208.62C208.22 98.5524 207.794 98.8057 207.34 98.979C206.9 99.139 206.447 99.219 205.98 99.219ZM207.4 95.159C207.054 95.159 206.807 95.2124 206.66 95.319C206.527 95.4124 206.46 95.5924 206.46 95.859C206.46 96.1257 206.514 96.3124 206.62 96.419C206.74 96.5124 206.94 96.559 207.22 96.559C207.447 96.559 207.68 96.539 207.92 96.499C208.174 96.4457 208.394 96.379 208.58 96.299V95.239C208.394 95.2124 208.2 95.1924 208 95.179C207.814 95.1657 207.614 95.159 207.4 95.159ZM217.084 85.699V98.999H213.484V85.699H217.084ZM219.066 92.099H218.046V89.119H219.206L219.626 86.859H222.666V89.119H225.146V92.099H222.666V95.079C222.666 95.3857 222.746 95.5924 222.906 95.699C223.079 95.8057 223.392 95.859 223.846 95.859C224.046 95.859 224.292 95.8457 224.586 95.819C224.879 95.7924 225.112 95.759 225.286 95.719V98.819C225.086 98.9124 224.719 98.999 224.186 99.079C223.666 99.1724 223.206 99.219 222.806 99.219C221.472 99.219 220.512 98.9324 219.926 98.359C219.352 97.7857 219.066 96.859 219.066 95.579V92.099ZM235.763 94.059C235.763 95.9124 235.376 97.239 234.603 98.039C233.829 98.8257 232.543 99.219 230.743 99.219C228.969 99.219 227.689 98.819 226.903 98.019C226.129 97.2057 225.743 95.8857 225.743 94.059C225.743 92.219 226.123 90.9057 226.883 90.119C227.656 89.319 228.943 88.919 230.743 88.919C232.529 88.919 233.809 89.319 234.583 90.119C235.369 90.919 235.763 92.2324 235.763 94.059ZM229.343 94.019C229.343 94.7924 229.429 95.299 229.603 95.539C229.776 95.7657 230.156 95.879 230.743 95.879C231.343 95.879 231.729 95.7657 231.903 95.539C232.076 95.299 232.163 94.7924 232.163 94.019C232.163 93.2457 232.076 92.7457 231.903 92.519C231.729 92.279 231.343 92.159 230.743 92.159C230.156 92.159 229.776 92.279 229.603 92.519C229.429 92.7457 229.343 93.2457 229.343 94.019ZM248.901 86.459V89.819H245.821V98.999H242.101V89.819H239.001V86.459H248.901ZM257.041 95.779V98.519C256.668 98.7057 256.088 98.8657 255.301 98.999C254.528 99.1457 253.721 99.219 252.881 99.219C251.268 99.219 250.101 98.819 249.381 98.019C248.674 97.2057 248.321 95.8924 248.321 94.079C248.321 92.3057 248.701 91.0057 249.461 90.179C250.234 89.339 251.434 88.919 253.061 88.919C254.634 88.919 255.761 89.2324 256.441 89.859C257.121 90.4724 257.461 91.5257 257.461 93.019C257.461 93.4724 257.454 93.839 257.441 94.119C257.428 94.3857 257.401 94.6924 257.361 95.039H251.881C251.894 95.4657 252.014 95.759 252.241 95.919C252.468 96.0657 252.874 96.139 253.461 96.139C254.101 96.139 254.754 96.1057 255.421 96.039C256.101 95.959 256.641 95.8724 257.041 95.779ZM253.101 91.759C252.648 91.759 252.328 91.8524 252.141 92.039C251.968 92.2124 251.881 92.5657 251.881 93.099H254.261V92.639C254.234 92.2924 254.141 92.059 253.981 91.939C253.834 91.819 253.541 91.759 253.101 91.759ZM266.083 95.519V98.479C265.749 98.679 265.209 98.8524 264.463 98.999C263.729 99.1457 262.976 99.219 262.203 99.219C260.749 99.219 259.729 98.839 259.143 98.079C258.556 97.3057 258.263 95.9657 258.263 94.059C258.263 92.139 258.636 90.8057 259.383 90.059C260.143 89.299 261.476 88.919 263.383 88.919C263.783 88.919 264.149 88.9324 264.483 88.959C264.816 88.9724 265.263 89.0124 265.823 89.079V92.239C265.809 92.239 265.543 92.2257 265.023 92.199C264.503 92.1724 263.969 92.159 263.423 92.159C262.743 92.159 262.309 92.2657 262.123 92.479C261.949 92.6924 261.863 93.219 261.863 94.059C261.863 94.819 261.943 95.3124 262.103 95.539C262.263 95.7524 262.609 95.859 263.143 95.859C263.636 95.859 264.149 95.8257 264.683 95.759C265.216 95.6924 265.683 95.6124 266.083 95.519ZM270.678 98.999H267.078V89.119H270.178L270.318 90.159H270.398C270.798 89.7324 271.238 89.419 271.718 89.219C272.198 89.019 272.765 88.919 273.418 88.919C274.458 88.919 275.245 89.1924 275.778 89.739C276.311 90.2857 276.578 91.0924 276.578 92.159V98.999H272.978V92.899C272.978 92.659 272.891 92.479 272.718 92.359C272.558 92.2257 272.311 92.159 271.978 92.159C271.751 92.159 271.531 92.1857 271.318 92.239C271.105 92.279 270.891 92.3457 270.678 92.439V98.999ZM287.618 94.059C287.618 95.9124 287.232 97.239 286.458 98.039C285.685 98.8257 284.398 99.219 282.598 99.219C280.825 99.219 279.545 98.819 278.758 98.019C277.985 97.2057 277.598 95.8857 277.598 94.059C277.598 92.219 277.978 90.9057 278.738 90.119C279.512 89.319 280.798 88.919 282.598 88.919C284.385 88.919 285.665 89.319 286.438 90.119C287.225 90.919 287.618 92.2324 287.618 94.059ZM281.198 94.019C281.198 94.7924 281.285 95.299 281.458 95.539C281.632 95.7657 282.012 95.879 282.598 95.879C283.198 95.879 283.585 95.7657 283.758 95.539C283.932 95.299 284.018 94.7924 284.018 94.019C284.018 93.2457 283.932 92.7457 283.758 92.519C283.585 92.279 283.198 92.159 282.598 92.159C282.012 92.159 281.632 92.279 281.458 92.519C281.285 92.7457 281.198 93.2457 281.198 94.019ZM292.28 85.699V98.999H288.68V85.699H292.28ZM303.341 94.059C303.341 95.9124 302.954 97.239 302.181 98.039C301.408 98.8257 300.121 99.219 298.321 99.219C296.548 99.219 295.268 98.819 294.481 98.019C293.708 97.2057 293.321 95.8857 293.321 94.059C293.321 92.219 293.701 90.9057 294.461 90.119C295.234 89.319 296.521 88.919 298.321 88.919C300.108 88.919 301.388 89.319 302.161 90.119C302.948 90.919 303.341 92.2324 303.341 94.059ZM296.921 94.019C296.921 94.7924 297.008 95.299 297.181 95.539C297.354 95.7657 297.734 95.879 298.321 95.879C298.921 95.879 299.308 95.7657 299.481 95.539C299.654 95.299 299.741 94.7924 299.741 94.019C299.741 93.2457 299.654 92.7457 299.481 92.519C299.308 92.279 298.921 92.159 298.321 92.159C297.734 92.159 297.354 92.279 297.181 92.519C297.008 92.7457 296.921 93.2457 296.921 94.019ZM298.341 85.439H302.061L298.961 88.159H296.221L298.341 85.439ZM309.002 102.239C308.282 102.239 307.589 102.192 306.922 102.099C306.256 102.006 305.716 101.886 305.302 101.739V98.799C305.636 98.879 306.129 98.9457 306.782 98.999C307.449 99.0657 308.102 99.099 308.742 99.099C309.329 99.099 309.729 99.0257 309.942 98.879C310.156 98.719 310.276 98.439 310.302 98.039V97.499C309.836 97.7124 309.369 97.879 308.902 97.999C308.449 98.1057 308.009 98.159 307.582 98.159C306.316 98.159 305.422 97.819 304.902 97.139C304.382 96.4457 304.122 95.2724 304.122 93.619C304.122 91.939 304.509 90.739 305.282 90.019C306.069 89.2857 307.356 88.919 309.142 88.919C309.876 88.919 310.736 88.959 311.722 89.039C312.722 89.119 313.449 89.2057 313.902 89.299V96.879C313.902 98.8657 313.542 100.252 312.822 101.039C312.102 101.839 310.829 102.239 309.002 102.239ZM309.062 92.119C308.449 92.119 308.062 92.199 307.902 92.359C307.742 92.519 307.662 92.9324 307.662 93.599C307.662 94.2124 307.729 94.599 307.862 94.759C308.009 94.919 308.329 94.999 308.822 94.999C309.036 94.999 309.269 94.979 309.522 94.939C309.776 94.8857 310.036 94.8124 310.302 94.719V92.199C310.049 92.1724 309.822 92.1524 309.622 92.139C309.436 92.1257 309.249 92.119 309.062 92.119ZM318.882 88.299H315.182V85.699H318.882V88.299ZM318.842 98.999H315.242V89.119H318.842V98.999ZM327.723 95.519V98.479C327.39 98.679 326.85 98.8524 326.103 98.999C325.37 99.1457 324.617 99.219 323.843 99.219C322.39 99.219 321.37 98.839 320.783 98.079C320.197 97.3057 319.903 95.9657 319.903 94.059C319.903 92.139 320.277 90.8057 321.023 90.059C321.783 89.299 323.117 88.919 325.023 88.919C325.423 88.919 325.79 88.9324 326.123 88.959C326.457 88.9724 326.903 89.0124 327.463 89.079V92.239C327.45 92.239 327.183 92.2257 326.663 92.199C326.143 92.1724 325.61 92.159 325.063 92.159C324.383 92.159 323.95 92.2657 323.763 92.479C323.59 92.6924 323.503 93.219 323.503 94.059C323.503 94.819 323.583 95.3124 323.743 95.539C323.903 95.7524 324.25 95.859 324.783 95.859C325.277 95.859 325.79 95.8257 326.323 95.759C326.857 95.6924 327.323 95.6124 327.723 95.519ZM338.419 94.059C338.419 95.9124 338.032 97.239 337.259 98.039C336.486 98.8257 335.199 99.219 333.399 99.219C331.626 99.219 330.346 98.819 329.559 98.019C328.786 97.2057 328.399 95.8857 328.399 94.059C328.399 92.219 328.779 90.9057 329.539 90.119C330.312 89.319 331.599 88.919 333.399 88.919C335.186 88.919 336.466 89.319 337.239 90.119C338.026 90.919 338.419 92.2324 338.419 94.059ZM331.999 94.019C331.999 94.7924 332.086 95.299 332.259 95.539C332.432 95.7657 332.812 95.879 333.399 95.879C333.999 95.879 334.386 95.7657 334.559 95.539C334.732 95.299 334.819 94.7924 334.819 94.019C334.819 93.2457 334.732 92.7457 334.559 92.519C334.386 92.279 333.999 92.159 333.399 92.159C332.812 92.159 332.432 92.279 332.259 92.519C332.086 92.7457 331.999 93.2457 331.999 94.019Z" fill="#2B5121"/>
<path d="M222.754 124.171C223.79 124.171 224.695 124.376 225.47 124.787C226.245 125.198 226.842 125.776 227.262 126.523C227.691 127.26 227.906 128.114 227.906 129.085C227.906 130.046 227.691 130.9 227.262 131.647C226.842 132.394 226.24 132.972 225.456 133.383C224.681 133.794 223.781 133.999 222.754 133.999H219.072V124.171H222.754ZM222.6 131.927C223.505 131.927 224.21 131.68 224.714 131.185C225.218 130.69 225.47 129.99 225.47 129.085C225.47 128.18 225.218 127.475 224.714 126.971C224.21 126.467 223.505 126.215 222.6 126.215H221.466V131.927H222.6ZM233.892 134.097C232.968 134.097 232.119 133.882 231.344 133.453C230.579 133.024 229.967 132.426 229.51 131.661C229.062 130.886 228.838 130.018 228.838 129.057C228.838 128.096 229.062 127.232 229.51 126.467C229.967 125.702 230.579 125.104 231.344 124.675C232.119 124.246 232.968 124.031 233.892 124.031C234.816 124.031 235.661 124.246 236.426 124.675C237.201 125.104 237.807 125.702 238.246 126.467C238.694 127.232 238.918 128.096 238.918 129.057C238.918 130.018 238.694 130.886 238.246 131.661C237.798 132.426 237.191 133.024 236.426 133.453C235.661 133.882 234.816 134.097 233.892 134.097ZM233.892 131.913C234.676 131.913 235.301 131.652 235.768 131.129C236.244 130.606 236.482 129.916 236.482 129.057C236.482 128.189 236.244 127.498 235.768 126.985C235.301 126.462 234.676 126.201 233.892 126.201C233.099 126.201 232.464 126.458 231.988 126.971C231.521 127.484 231.288 128.18 231.288 129.057C231.288 129.925 231.521 130.62 231.988 131.143C232.464 131.656 233.099 131.913 233.892 131.913ZM242.644 126.089V128.077H245.85V129.925H242.644V132.081H246.27V133.999H240.25V124.171H246.27V126.089H242.644ZM258.281 127.335C258.281 127.904 258.15 128.427 257.889 128.903C257.628 129.37 257.226 129.748 256.685 130.037C256.144 130.326 255.472 130.471 254.669 130.471H253.185V133.999H250.791V124.171H254.669C255.453 124.171 256.116 124.306 256.657 124.577C257.198 124.848 257.604 125.221 257.875 125.697C258.146 126.173 258.281 126.719 258.281 127.335ZM254.487 128.567C254.944 128.567 255.285 128.46 255.509 128.245C255.733 128.03 255.845 127.727 255.845 127.335C255.845 126.943 255.733 126.64 255.509 126.425C255.285 126.21 254.944 126.103 254.487 126.103H253.185V128.567H254.487ZM261.921 126.089V128.077H265.127V129.925H261.921V132.081H265.547V133.999H259.527V124.171H265.547V126.089H261.921ZM269.495 132.151H272.631V133.999H267.101V124.171H269.495V132.151ZM279.891 132.263H276.223L275.635 133.999H273.129L276.685 124.171H279.457L283.013 133.999H280.479L279.891 132.263ZM279.275 130.415L278.057 126.817L276.853 130.415H279.275ZM294.552 127.335C294.552 127.904 294.422 128.427 294.16 128.903C293.899 129.37 293.498 129.748 292.956 130.037C292.415 130.326 291.743 130.471 290.94 130.471H289.456V133.999H287.062V124.171H290.94C291.724 124.171 292.387 124.306 292.928 124.577C293.47 124.848 293.876 125.221 294.146 125.697C294.417 126.173 294.552 126.719 294.552 127.335ZM290.758 128.567C291.216 128.567 291.556 128.46 291.78 128.245C292.004 128.03 292.116 127.727 292.116 127.335C292.116 126.943 292.004 126.64 291.78 126.425C291.556 126.21 291.216 126.103 290.758 126.103H289.456V128.567H290.758ZM300.811 133.999L298.767 130.289H298.193V133.999H295.799V124.171H299.817C300.591 124.171 301.249 124.306 301.791 124.577C302.341 124.848 302.752 125.221 303.023 125.697C303.293 126.164 303.429 126.686 303.429 127.265C303.429 127.918 303.242 128.502 302.869 129.015C302.505 129.528 301.963 129.892 301.245 130.107L303.513 133.999H300.811ZM298.193 128.595H299.677C300.115 128.595 300.442 128.488 300.657 128.273C300.881 128.058 300.993 127.755 300.993 127.363C300.993 126.99 300.881 126.696 300.657 126.481C300.442 126.266 300.115 126.159 299.677 126.159H298.193V128.595ZM307.325 124.171V133.999H304.931V124.171H307.325ZM320.19 124.171V133.999H317.796V128.105L315.598 133.999H313.666L311.454 128.091V133.999H309.06V124.171H311.888L314.646 130.975L317.376 124.171H320.19ZM324.306 126.089V128.077H327.512V129.925H324.306V132.081H327.932V133.999H321.912V124.171H327.932V126.089H324.306ZM331.88 124.171V133.999H329.486V124.171H331.88ZM338.627 133.999L336.583 130.289H336.009V133.999H333.615V124.171H337.633C338.408 124.171 339.066 124.306 339.607 124.577C340.158 124.848 340.568 125.221 340.839 125.697C341.11 126.164 341.245 126.686 341.245 127.265C341.245 127.918 341.058 128.502 340.685 129.015C340.321 129.528 339.78 129.892 339.061 130.107L341.329 133.999H338.627ZM336.009 128.595H337.493C337.932 128.595 338.258 128.488 338.473 128.273C338.697 128.058 338.809 127.755 338.809 127.363C338.809 126.99 338.697 126.696 338.473 126.481C338.258 126.266 337.932 126.159 337.493 126.159H336.009V128.595ZM348.866 132.263H345.198L344.61 133.999H342.104L345.66 124.171H348.432L351.988 133.999H349.454L348.866 132.263ZM348.25 130.415L347.032 126.817L345.828 130.415H348.25ZM365.263 124.171L361.777 133.999H358.781L355.295 124.171H357.843L360.279 131.591L362.729 124.171H365.263ZM368.658 126.089V128.077H371.864V129.925H368.658V132.081H372.284V133.999H366.264V124.171H372.284V126.089H368.658ZM376.386 132.039H380.614V133.999H373.67V132.179L377.87 126.131H373.67V124.171H380.614V125.991L376.386 132.039Z" fill="#2B5121"/>
<path d="M465.196 101.591C462.522 93.6442 487.954 86.9253 496.419 85.5067C504.885 84.0881 552.247 79.3563 582.052 82.1951C611.857 85.0338 613.28 85.9798 608.072 88.3452C602.863 90.7106 598.61 93.5491 598.61 97.8068C598.61 102.065 630.78 102.065 624.157 105.376C617.533 108.688 613.321 111.526 602.863 114.365C592.405 117.204 583.471 120.042 535.212 118.623C486.953 117.203 467.869 109.539 465.196 101.591Z" fill="#61D243"/>
<path d="M465.196 96.4196C462.522 88.4723 487.954 81.7534 496.419 80.3348C504.885 78.9162 552.247 74.1845 582.052 77.0232C611.857 79.862 613.28 80.8079 608.072 83.1733C602.863 85.5387 598.61 88.3772 598.61 92.635C598.61 96.8927 630.78 96.8927 624.157 100.204C617.533 103.516 613.321 106.354 602.863 109.193C592.405 112.032 583.471 114.87 535.212 113.451C486.953 112.031 467.869 104.367 465.196 96.4196Z" fill="#ABF47D"/>
<path d="M569.036 77.0725C567.957 78.609 565.922 80.894 564.328 82.2507C562.452 83.8363 559.988 85.7976 557.738 86.9582C553.345 89.214 549.011 90.7242 544.557 90.7242L542.611 90.9864L543.376 91.8201C544.33 92.8336 546.581 94.6153 548.066 95.5307C552.598 98.3259 558.913 99.65 563.462 98.7346C567.651 97.9173 572.965 95.0567 577.451 91.1989C579.295 89.6297 582.687 86.0335 582.687 85.6412C582.687 85.3143 579.921 82.5027 578.139 81.0152C575.7 78.9883 571.59 76.2748 570.917 76.2748C570.448 76.131 569.505 76.435 569.036 77.0725Z" fill="#6BC16B"/>
<path d="M512.585 77.2063C509.615 78.9226 506.693 81.2438 504.02 84.039C503.27 84.8237 502.66 85.5592 502.66 85.6737C502.66 85.7717 503.363 86.6544 504.223 87.6025C509.365 93.2584 516.337 97.6392 521.995 98.7671C523.933 99.143 527.716 98.9959 530.091 98.4565C531.842 98.0478 534.312 97.1488 535.718 96.4295C537.813 95.3343 540.595 93.2747 541.971 91.8199L542.736 90.9862L541.261 90.7243C531.743 90.7243 522.204 85.8472 516.312 77.5433C515.874 76.9385 515.04 76.1147 514.899 76.131C514.759 76.1474 513.445 76.7159 512.585 77.2063Z" fill="#96EC6B"/>
<path d="M563.697 35.8024C560.117 36.7668 557.288 37.9601 554.194 39.7909C553.193 40.3957 552.208 41.0005 552.021 41.1476L551.677 41.4255L552.396 43.0274C554.006 46.6727 555.022 50.3015 555.366 53.6362C555.46 54.617 555.368 55.8566 555.384 55.8893C555.4 55.9057 556.632 54.9766 557.898 54.3064C560.915 52.7208 565.249 51.6232 568.094 51.1818L568.62 50.7429V48.7813C568.62 47.7188 568.542 46.1332 568.449 45.2505C568.058 41.4091 566.526 35.2302 565.979 35.2466C565.838 35.2629 564.822 35.5081 563.697 35.8024Z" fill="#913EC7"/>
<path d="M542.674 50.7112C542.674 66.093 542.549 71.7186 542.674 71.4243C543.299 69.9695 546.983 67.7972 545.969 66.2459C548.345 62.3719 552.052 60.9862 555.382 58.7141L555.585 55.5964L555.382 53.7165C555.006 50.1694 554.037 46.7857 552.271 42.7318C550.989 39.8058 549.395 37.2558 547.144 34.5096C546.066 33.1856 543.08 30.2272 542.674 29.9983C542.408 29.8512 542.658 30.8994 542.674 50.7112Z" fill="#A24BDB"/>
<path d="M518.618 36.8313C517.383 40.8688 516.836 44.2689 516.821 48.0612V51.0199L518.618 51.653C528.08 55.3517 525.439 53.8502 528.08 55.4195C528.768 55.8118 530.434 56.4424 530.434 56.3606C530.434 55.9356 531.219 51.6574 531.375 51.0199C532.016 48.192 533.577 45.4353 534.671 43.1795L533.639 41.4083L533.28 41.114C532.654 40.6073 529.685 38.9073 528.387 38.2861C526.402 37.338 523.839 36.4063 521.604 35.8015C520.463 35.4909 519.431 35.2457 519.322 35.2457C519.197 35.2457 518.915 35.8832 518.618 36.8313Z" fill="#A24BDB"/>
<path d="M541.892 30.6035C539.61 32.5978 536.781 36.0632 534.812 39.2834C533.78 40.9671 531.967 45.0537 531.263 47.3095C530.341 50.2845 529.482 55.4826 529.904 55.6624C530.232 55.7932 531.468 57.118 532.5 58.0007C534.032 59.3084 536.921 62.9151 538 64.5007C539.313 66.4295 541.236 68.2981 542.002 70.0635L542.642 71.4243L542.674 81.3261V91.0358L544.674 90.9214C552.161 90.5127 558.82 87.93 564.244 83.3531C565.697 82.1271 568.605 79.0049 569.636 77.5828C570.058 76.9943 570.59 76.2914 570.824 75.9972C571.512 75.1636 573.013 72.2539 573.778 70.227C575.685 65.274 576.608 59.6836 576.373 54.2893C576.326 52.9326 576.232 51.5268 576.17 51.1345C576.029 50.1047 575.81 50.0393 572.528 50.2681C568.667 50.5297 564.807 51.3797 561.352 52.7364C553.412 55.8422 547.41 61.5307 543.674 69.4914L542.642 71.4243L542.674 50.776V40.3547L542.596 29.9987L541.892 30.6035Z" fill="#D264EA"/>
<path d="M509.521 50.2347C509.209 50.3164 509.115 51.0193 508.974 54.2886C508.709 60.729 510.131 67.7743 512.741 72.9233C513.585 74.607 514.367 75.9147 514.586 76.0618C514.695 76.1436 515.195 76.7811 515.695 77.5003C516.852 79.1513 520.15 82.584 521.854 83.9408C527.496 88.4033 534.749 90.9697 541.783 90.986H542.674V71.6156L542.002 70.0635C540.47 66.5327 538.453 63.5406 535.562 60.4838C533.076 57.8847 531.748 56.7895 529.169 55.253C525.668 53.1934 522.338 51.9183 517.899 50.9539C514.898 50.3001 510.584 49.9241 509.521 50.2347Z" fill="#FA79F4"/>
<path d="M197.228 162.269C198.264 162.269 199.169 162.47 199.944 162.871C200.728 163.263 201.33 163.832 201.75 164.579C202.179 165.316 202.394 166.18 202.394 167.169C202.394 168.158 202.179 169.017 201.75 169.745C201.33 170.473 200.728 171.033 199.944 171.425C199.169 171.808 198.264 171.999 197.228 171.999H194.05V162.269H197.228ZM197.228 170.697C198.366 170.697 199.239 170.389 199.846 169.773C200.452 169.157 200.756 168.289 200.756 167.169C200.756 166.04 200.452 165.158 199.846 164.523C199.239 163.888 198.366 163.571 197.228 163.571H195.646V170.697H197.228ZM203.443 168.107C203.443 167.332 203.602 166.646 203.919 166.049C204.246 165.452 204.685 164.99 205.235 164.663C205.795 164.327 206.411 164.159 207.083 164.159C207.69 164.159 208.217 164.28 208.665 164.523C209.123 164.756 209.487 165.05 209.757 165.405V164.285H211.367V171.999H209.757V170.851C209.487 171.215 209.118 171.518 208.651 171.761C208.185 172.004 207.653 172.125 207.055 172.125C206.393 172.125 205.786 171.957 205.235 171.621C204.685 171.276 204.246 170.8 203.919 170.193C203.602 169.577 203.443 168.882 203.443 168.107ZM209.757 168.135C209.757 167.603 209.645 167.141 209.421 166.749C209.207 166.357 208.922 166.058 208.567 165.853C208.213 165.648 207.83 165.545 207.419 165.545C207.009 165.545 206.626 165.648 206.271 165.853C205.917 166.049 205.627 166.343 205.403 166.735C205.189 167.118 205.081 167.575 205.081 168.107C205.081 168.639 205.189 169.106 205.403 169.507C205.627 169.908 205.917 170.216 206.271 170.431C206.635 170.636 207.018 170.739 207.419 170.739C207.83 170.739 208.213 170.636 208.567 170.431C208.922 170.226 209.207 169.927 209.421 169.535C209.645 169.134 209.757 168.667 209.757 168.135ZM217.356 164.159C217.962 164.159 218.504 164.285 218.98 164.537C219.465 164.789 219.843 165.162 220.114 165.657C220.384 166.152 220.52 166.749 220.52 167.449V171.999H218.938V167.687C218.938 166.996 218.765 166.469 218.42 166.105C218.074 165.732 217.603 165.545 217.006 165.545C216.408 165.545 215.932 165.732 215.578 166.105C215.232 166.469 215.06 166.996 215.06 167.687V171.999H213.464V164.285H215.06V165.167C215.321 164.85 215.652 164.602 216.054 164.425C216.464 164.248 216.898 164.159 217.356 164.159ZM222.023 168.107C222.023 167.332 222.182 166.646 222.499 166.049C222.826 165.452 223.265 164.99 223.815 164.663C224.375 164.327 224.996 164.159 225.677 164.159C226.181 164.159 226.676 164.271 227.161 164.495C227.656 164.71 228.048 164.999 228.337 165.363V161.639H229.947V171.999H228.337V170.837C228.076 171.21 227.712 171.518 227.245 171.761C226.788 172.004 226.261 172.125 225.663 172.125C224.991 172.125 224.375 171.957 223.815 171.621C223.265 171.276 222.826 170.8 222.499 170.193C222.182 169.577 222.023 168.882 222.023 168.107ZM228.337 168.135C228.337 167.603 228.225 167.141 228.001 166.749C227.787 166.357 227.502 166.058 227.147 165.853C226.793 165.648 226.41 165.545 225.999 165.545C225.589 165.545 225.206 165.648 224.851 165.853C224.497 166.049 224.207 166.343 223.983 166.735C223.769 167.118 223.661 167.575 223.661 168.107C223.661 168.639 223.769 169.106 223.983 169.507C224.207 169.908 224.497 170.216 224.851 170.431C225.215 170.636 225.598 170.739 225.999 170.739C226.41 170.739 226.793 170.636 227.147 170.431C227.502 170.226 227.787 169.927 228.001 169.535C228.225 169.134 228.337 168.667 228.337 168.135ZM235.39 172.125C234.662 172.125 234.004 171.962 233.416 171.635C232.828 171.299 232.366 170.832 232.03 170.235C231.694 169.628 231.526 168.928 231.526 168.135C231.526 167.351 231.698 166.656 232.044 166.049C232.389 165.442 232.86 164.976 233.458 164.649C234.055 164.322 234.722 164.159 235.46 164.159C236.197 164.159 236.864 164.322 237.462 164.649C238.059 164.976 238.53 165.442 238.876 166.049C239.221 166.656 239.394 167.351 239.394 168.135C239.394 168.919 239.216 169.614 238.862 170.221C238.507 170.828 238.022 171.299 237.406 171.635C236.799 171.962 236.127 172.125 235.39 172.125ZM235.39 170.739C235.8 170.739 236.183 170.641 236.538 170.445C236.902 170.249 237.196 169.955 237.42 169.563C237.644 169.171 237.756 168.695 237.756 168.135C237.756 167.575 237.648 167.104 237.434 166.721C237.219 166.329 236.934 166.035 236.58 165.839C236.225 165.643 235.842 165.545 235.432 165.545C235.021 165.545 234.638 165.643 234.284 165.839C233.938 166.035 233.663 166.329 233.458 166.721C233.252 167.104 233.15 167.575 233.15 168.135C233.15 168.966 233.36 169.61 233.78 170.067C234.209 170.515 234.746 170.739 235.39 170.739ZM247.716 164.159C248.313 164.159 248.841 164.28 249.298 164.523C249.765 164.756 250.129 165.05 250.39 165.405V164.285H252V172.125C252 172.834 251.851 173.464 251.552 174.015C251.253 174.575 250.819 175.014 250.25 175.331C249.69 175.648 249.018 175.807 248.234 175.807C247.189 175.807 246.321 175.56 245.63 175.065C244.939 174.58 244.547 173.917 244.454 173.077H246.036C246.157 173.478 246.414 173.8 246.806 174.043C247.207 174.295 247.683 174.421 248.234 174.421C248.878 174.421 249.396 174.225 249.788 173.833C250.189 173.441 250.39 172.872 250.39 172.125V170.837C250.119 171.201 249.751 171.509 249.284 171.761C248.827 172.004 248.304 172.125 247.716 172.125C247.044 172.125 246.428 171.957 245.868 171.621C245.317 171.276 244.879 170.8 244.552 170.193C244.235 169.577 244.076 168.882 244.076 168.107C244.076 167.332 244.235 166.646 244.552 166.049C244.879 165.452 245.317 164.99 245.868 164.663C246.428 164.327 247.044 164.159 247.716 164.159ZM250.39 168.135C250.39 167.603 250.278 167.141 250.054 166.749C249.839 166.357 249.555 166.058 249.2 165.853C248.845 165.648 248.463 165.545 248.052 165.545C247.641 165.545 247.259 165.648 246.904 165.853C246.549 166.049 246.26 166.343 246.036 166.735C245.821 167.118 245.714 167.575 245.714 168.107C245.714 168.639 245.821 169.106 246.036 169.507C246.26 169.908 246.549 170.216 246.904 170.431C247.268 170.636 247.651 170.739 248.052 170.739C248.463 170.739 248.845 170.636 249.2 170.431C249.555 170.226 249.839 169.927 250.054 169.535C250.278 169.134 250.39 168.667 250.39 168.135ZM255.692 165.405C255.926 165.013 256.234 164.71 256.616 164.495C257.008 164.271 257.47 164.159 258.002 164.159V165.811H257.596C256.971 165.811 256.495 165.97 256.168 166.287C255.851 166.604 255.692 167.155 255.692 167.939V171.999H254.096V164.285H255.692V165.405ZM258.937 168.107C258.937 167.332 259.096 166.646 259.413 166.049C259.74 165.452 260.179 164.99 260.729 164.663C261.289 164.327 261.905 164.159 262.577 164.159C263.184 164.159 263.711 164.28 264.159 164.523C264.617 164.756 264.981 165.05 265.251 165.405V164.285H266.861V171.999H265.251V170.851C264.981 171.215 264.612 171.518 264.145 171.761C263.679 172.004 263.147 172.125 262.549 172.125C261.887 172.125 261.28 171.957 260.729 171.621C260.179 171.276 259.74 170.8 259.413 170.193C259.096 169.577 258.937 168.882 258.937 168.107ZM265.251 168.135C265.251 167.603 265.139 167.141 264.915 166.749C264.701 166.357 264.416 166.058 264.061 165.853C263.707 165.648 263.324 165.545 262.913 165.545C262.503 165.545 262.12 165.648 261.765 165.853C261.411 166.049 261.121 166.343 260.897 166.735C260.683 167.118 260.575 167.575 260.575 168.107C260.575 168.639 260.683 169.106 260.897 169.507C261.121 169.908 261.411 170.216 261.765 170.431C262.129 170.636 262.512 170.739 262.913 170.739C263.324 170.739 263.707 170.636 264.061 170.431C264.416 170.226 264.701 169.927 264.915 169.535C265.139 169.134 265.251 168.667 265.251 168.135ZM272.85 164.159C273.456 164.159 273.998 164.285 274.474 164.537C274.959 164.789 275.337 165.162 275.608 165.657C275.878 166.152 276.014 166.749 276.014 167.449V171.999H274.432V167.687C274.432 166.996 274.259 166.469 273.914 166.105C273.568 165.732 273.097 165.545 272.5 165.545C271.902 165.545 271.426 165.732 271.072 166.105C270.726 166.469 270.554 166.996 270.554 167.687V171.999H268.958V164.285H270.554V165.167C270.815 164.85 271.146 164.602 271.548 164.425C271.958 164.248 272.392 164.159 272.85 164.159ZM277.518 168.107C277.518 167.332 277.676 166.646 277.994 166.049C278.32 165.452 278.759 164.99 279.31 164.663C279.87 164.327 280.49 164.159 281.172 164.159C281.676 164.159 282.17 164.271 282.656 164.495C283.15 164.71 283.542 164.999 283.832 165.363V161.639H285.442V171.999H283.832V170.837C283.57 171.21 283.206 171.518 282.74 171.761C282.282 172.004 281.755 172.125 281.158 172.125C280.486 172.125 279.87 171.957 279.31 171.621C278.759 171.276 278.32 170.8 277.994 170.193C277.676 169.577 277.518 168.882 277.518 168.107ZM283.832 168.135C283.832 167.603 283.72 167.141 283.496 166.749C283.281 166.357 282.996 166.058 282.642 165.853C282.287 165.648 281.904 165.545 281.494 165.545C281.083 165.545 280.7 165.648 280.346 165.853C279.991 166.049 279.702 166.343 279.478 166.735C279.263 167.118 279.156 167.575 279.156 168.107C279.156 168.639 279.263 169.106 279.478 169.507C279.702 169.908 279.991 170.216 280.346 170.431C280.71 170.636 281.092 170.739 281.494 170.739C281.904 170.739 282.287 170.636 282.642 170.431C282.996 170.226 283.281 169.927 283.496 169.535C283.72 169.134 283.832 168.667 283.832 168.135ZM294.608 167.953C294.608 168.242 294.589 168.504 294.552 168.737H288.658C288.704 169.353 288.933 169.848 289.344 170.221C289.754 170.594 290.258 170.781 290.856 170.781C291.714 170.781 292.321 170.422 292.676 169.703H294.398C294.164 170.412 293.74 170.996 293.124 171.453C292.517 171.901 291.761 172.125 290.856 172.125C290.118 172.125 289.456 171.962 288.868 171.635C288.289 171.299 287.832 170.832 287.496 170.235C287.169 169.628 287.006 168.928 287.006 168.135C287.006 167.342 287.164 166.646 287.482 166.049C287.808 165.442 288.261 164.976 288.84 164.649C289.428 164.322 290.1 164.159 290.856 164.159C291.584 164.159 292.232 164.318 292.802 164.635C293.371 164.952 293.814 165.4 294.132 165.979C294.449 166.548 294.608 167.206 294.608 167.953ZM292.942 167.449C292.932 166.861 292.722 166.39 292.312 166.035C291.901 165.68 291.392 165.503 290.786 165.503C290.235 165.503 289.764 165.68 289.372 166.035C288.98 166.38 288.746 166.852 288.672 167.449H292.942ZM298.978 172.125C298.372 172.125 297.826 172.018 297.34 171.803C296.864 171.579 296.486 171.28 296.206 170.907C295.926 170.524 295.777 170.1 295.758 169.633H297.41C297.438 169.96 297.592 170.235 297.872 170.459C298.162 170.674 298.521 170.781 298.95 170.781C299.398 170.781 299.744 170.697 299.986 170.529C300.238 170.352 300.364 170.128 300.364 169.857C300.364 169.568 300.224 169.353 299.944 169.213C299.674 169.073 299.24 168.919 298.642 168.751C298.064 168.592 297.592 168.438 297.228 168.289C296.864 168.14 296.547 167.911 296.276 167.603C296.015 167.295 295.884 166.889 295.884 166.385C295.884 165.974 296.006 165.601 296.248 165.265C296.491 164.92 296.836 164.649 297.284 164.453C297.742 164.257 298.264 164.159 298.852 164.159C299.73 164.159 300.434 164.383 300.966 164.831C301.508 165.27 301.797 165.872 301.834 166.637H300.238C300.21 166.292 300.07 166.016 299.818 165.811C299.566 165.606 299.226 165.503 298.796 165.503C298.376 165.503 298.054 165.582 297.83 165.741C297.606 165.9 297.494 166.11 297.494 166.371C297.494 166.576 297.569 166.749 297.718 166.889C297.868 167.029 298.05 167.141 298.264 167.225C298.479 167.3 298.796 167.398 299.216 167.519C299.776 167.668 300.234 167.822 300.588 167.981C300.952 168.13 301.265 168.354 301.526 168.653C301.788 168.952 301.923 169.348 301.932 169.843C301.932 170.282 301.811 170.674 301.568 171.019C301.326 171.364 300.98 171.635 300.532 171.831C300.094 172.027 299.576 172.125 298.978 172.125ZM310.094 172.125C309.487 172.125 308.941 172.018 308.456 171.803C307.98 171.579 307.602 171.28 307.322 170.907C307.042 170.524 306.892 170.1 306.874 169.633H308.526C308.554 169.96 308.708 170.235 308.988 170.459C309.277 170.674 309.636 170.781 310.066 170.781C310.514 170.781 310.859 170.697 311.102 170.529C311.354 170.352 311.48 170.128 311.48 169.857C311.48 169.568 311.34 169.353 311.06 169.213C310.789 169.073 310.355 168.919 309.758 168.751C309.179 168.592 308.708 168.438 308.344 168.289C307.98 168.14 307.662 167.911 307.392 167.603C307.13 167.295 307 166.889 307 166.385C307 165.974 307.121 165.601 307.364 165.265C307.606 164.92 307.952 164.649 308.4 164.453C308.857 164.257 309.38 164.159 309.968 164.159C310.845 164.159 311.55 164.383 312.082 164.831C312.623 165.27 312.912 165.872 312.95 166.637H311.354C311.326 166.292 311.186 166.016 310.934 165.811C310.682 165.606 310.341 165.503 309.912 165.503C309.492 165.503 309.17 165.582 308.946 165.741C308.722 165.9 308.61 166.11 308.61 166.371C308.61 166.576 308.684 166.749 308.834 166.889C308.983 167.029 309.165 167.141 309.38 167.225C309.594 167.3 309.912 167.398 310.332 167.519C310.892 167.668 311.349 167.822 311.704 167.981C312.068 168.13 312.38 168.354 312.642 168.653C312.903 168.952 313.038 169.348 313.048 169.843C313.048 170.282 312.926 170.674 312.684 171.019C312.441 171.364 312.096 171.635 311.648 171.831C311.209 172.027 310.691 172.125 310.094 172.125ZM314.24 168.107C314.24 167.332 314.399 166.646 314.716 166.049C315.043 165.452 315.482 164.99 316.032 164.663C316.592 164.327 317.208 164.159 317.88 164.159C318.487 164.159 319.014 164.28 319.462 164.523C319.92 164.756 320.284 165.05 320.554 165.405V164.285H322.164V171.999H320.554V170.851C320.284 171.215 319.915 171.518 319.448 171.761C318.982 172.004 318.45 172.125 317.852 172.125C317.19 172.125 316.583 171.957 316.032 171.621C315.482 171.276 315.043 170.8 314.716 170.193C314.399 169.577 314.24 168.882 314.24 168.107ZM320.554 168.135C320.554 167.603 320.442 167.141 320.218 166.749C320.004 166.357 319.719 166.058 319.364 165.853C319.01 165.648 318.627 165.545 318.216 165.545C317.806 165.545 317.423 165.648 317.068 165.853C316.714 166.049 316.424 166.343 316.2 166.735C315.986 167.118 315.878 167.575 315.878 168.107C315.878 168.639 315.986 169.106 316.2 169.507C316.424 169.908 316.714 170.216 317.068 170.431C317.432 170.636 317.815 170.739 318.216 170.739C318.627 170.739 319.01 170.636 319.364 170.431C319.719 170.226 320.004 169.927 320.218 169.535C320.442 169.134 320.554 168.667 320.554 168.135ZM325.856 161.639V171.999H324.26V161.639H325.856ZM329.814 165.587V169.857C329.814 170.146 329.879 170.356 330.01 170.487C330.15 170.608 330.383 170.669 330.71 170.669H331.69V171.999H330.43C329.711 171.999 329.161 171.831 328.778 171.495C328.395 171.159 328.204 170.613 328.204 169.857V165.587H327.294V164.285H328.204V162.367H329.814V164.285H331.69V165.587H329.814ZM336.507 172.125C335.779 172.125 335.121 171.962 334.533 171.635C333.945 171.299 333.483 170.832 333.147 170.235C332.811 169.628 332.643 168.928 332.643 168.135C332.643 167.351 332.816 166.656 333.161 166.049C333.506 165.442 333.978 164.976 334.575 164.649C335.172 164.322 335.84 164.159 336.577 164.159C337.314 164.159 337.982 164.322 338.579 164.649C339.176 164.976 339.648 165.442 339.993 166.049C340.338 166.656 340.511 167.351 340.511 168.135C340.511 168.919 340.334 169.614 339.979 170.221C339.624 170.828 339.139 171.299 338.523 171.635C337.916 171.962 337.244 172.125 336.507 172.125ZM336.507 170.739C336.918 170.739 337.3 170.641 337.655 170.445C338.019 170.249 338.313 169.955 338.537 169.563C338.761 169.171 338.873 168.695 338.873 168.135C338.873 167.575 338.766 167.104 338.551 166.721C338.336 166.329 338.052 166.035 337.697 165.839C337.342 165.643 336.96 165.545 336.549 165.545C336.138 165.545 335.756 165.643 335.401 165.839C335.056 166.035 334.78 166.329 334.575 166.721C334.37 167.104 334.267 167.575 334.267 168.135C334.267 168.966 334.477 169.61 334.897 170.067C335.326 170.515 335.863 170.739 336.507 170.739ZM344.889 172.125C344.282 172.125 343.736 172.018 343.251 171.803C342.775 171.579 342.397 171.28 342.117 170.907C341.837 170.524 341.687 170.1 341.669 169.633H343.321C343.349 169.96 343.503 170.235 343.783 170.459C344.072 170.674 344.431 170.781 344.861 170.781C345.309 170.781 345.654 170.697 345.897 170.529C346.149 170.352 346.275 170.128 346.275 169.857C346.275 169.568 346.135 169.353 345.855 169.213C345.584 169.073 345.15 168.919 344.553 168.751C343.974 168.592 343.503 168.438 343.139 168.289C342.775 168.14 342.457 167.911 342.187 167.603C341.925 167.295 341.795 166.889 341.795 166.385C341.795 165.974 341.916 165.601 342.159 165.265C342.401 164.92 342.747 164.649 343.195 164.453C343.652 164.257 344.175 164.159 344.763 164.159C345.64 164.159 346.345 164.383 346.877 164.831C347.418 165.27 347.707 165.872 347.745 166.637H346.149C346.121 166.292 345.981 166.016 345.729 165.811C345.477 165.606 345.136 165.503 344.707 165.503C344.287 165.503 343.965 165.582 343.741 165.741C343.517 165.9 343.405 166.11 343.405 166.371C343.405 166.576 343.479 166.749 343.629 166.889C343.778 167.029 343.96 167.141 344.175 167.225C344.389 167.3 344.707 167.398 345.127 167.519C345.687 167.668 346.144 167.822 346.499 167.981C346.863 168.13 347.175 168.354 347.437 168.653C347.698 168.952 347.833 169.348 347.843 169.843C347.843 170.282 347.721 170.674 347.479 171.019C347.236 171.364 346.891 171.635 346.443 171.831C346.004 172.027 345.486 172.125 344.889 172.125ZM354.8 165.405C355.033 165.013 355.341 164.71 355.724 164.495C356.116 164.271 356.578 164.159 357.11 164.159V165.811H356.704C356.078 165.811 355.602 165.97 355.276 166.287C354.958 166.604 354.8 167.155 354.8 167.939V171.999H353.204V164.285H354.8V165.405ZM365.563 164.285V171.999H363.967V171.089C363.715 171.406 363.384 171.658 362.973 171.845C362.572 172.022 362.142 172.111 361.685 172.111C361.078 172.111 360.532 171.985 360.047 171.733C359.571 171.481 359.193 171.108 358.913 170.613C358.642 170.118 358.507 169.521 358.507 168.821V164.285H360.089V168.583C360.089 169.274 360.262 169.806 360.607 170.179C360.952 170.543 361.424 170.725 362.021 170.725C362.618 170.725 363.09 170.543 363.435 170.179C363.79 169.806 363.967 169.274 363.967 168.583V164.285H365.563ZM377.007 164.159C377.613 164.159 378.155 164.285 378.631 164.537C379.116 164.789 379.494 165.162 379.765 165.657C380.045 166.152 380.185 166.749 380.185 167.449V171.999H378.603V167.687C378.603 166.996 378.43 166.469 378.085 166.105C377.739 165.732 377.268 165.545 376.671 165.545C376.073 165.545 375.597 165.732 375.243 166.105C374.897 166.469 374.725 166.996 374.725 167.687V171.999H373.143V167.687C373.143 166.996 372.97 166.469 372.625 166.105C372.279 165.732 371.808 165.545 371.211 165.545C370.613 165.545 370.137 165.732 369.783 166.105C369.437 166.469 369.265 166.996 369.265 167.687V171.999H367.669V164.285H369.265V165.167C369.526 164.85 369.857 164.602 370.259 164.425C370.66 164.248 371.089 164.159 371.547 164.159C372.163 164.159 372.713 164.29 373.199 164.551C373.684 164.812 374.057 165.19 374.319 165.685C374.552 165.218 374.916 164.85 375.411 164.579C375.905 164.299 376.437 164.159 377.007 164.159ZM385.562 172.125C384.834 172.125 384.176 171.962 383.588 171.635C383 171.299 382.538 170.832 382.202 170.235C381.866 169.628 381.698 168.928 381.698 168.135C381.698 167.351 381.87 166.656 382.216 166.049C382.561 165.442 383.032 164.976 383.63 164.649C384.227 164.322 384.894 164.159 385.632 164.159C386.369 164.159 387.036 164.322 387.634 164.649C388.231 164.976 388.702 165.442 389.048 166.049C389.393 166.656 389.566 167.351 389.566 168.135C389.566 168.919 389.388 169.614 389.034 170.221C388.679 170.828 388.194 171.299 387.578 171.635C386.971 171.962 386.299 172.125 385.562 172.125ZM385.562 170.739C385.972 170.739 386.355 170.641 386.71 170.445C387.074 170.249 387.368 169.955 387.592 169.563C387.816 169.171 387.928 168.695 387.928 168.135C387.928 167.575 387.82 167.104 387.606 166.721C387.391 166.329 387.106 166.035 386.752 165.839C386.397 165.643 386.014 165.545 385.604 165.545C385.193 165.545 384.81 165.643 384.456 165.839C384.11 166.035 383.835 166.329 383.63 166.721C383.424 167.104 383.322 167.575 383.322 168.135C383.322 168.966 383.532 169.61 383.952 170.067C384.381 170.515 384.918 170.739 385.562 170.739ZM394.248 168.107C394.248 167.332 394.407 166.646 394.724 166.049C395.051 165.452 395.489 164.99 396.04 164.663C396.6 164.327 397.216 164.159 397.888 164.159C398.495 164.159 399.022 164.28 399.47 164.523C399.927 164.756 400.291 165.05 400.562 165.405V164.285H402.172V171.999H400.562V170.851C400.291 171.215 399.923 171.518 399.456 171.761C398.989 172.004 398.457 172.125 397.86 172.125C397.197 172.125 396.591 171.957 396.04 171.621C395.489 171.276 395.051 170.8 394.724 170.193C394.407 169.577 394.248 168.882 394.248 168.107ZM400.562 168.135C400.562 167.603 400.45 167.141 400.226 166.749C400.011 166.357 399.727 166.058 399.372 165.853C399.017 165.648 398.635 165.545 398.224 165.545C397.813 165.545 397.431 165.648 397.076 165.853C396.721 166.049 396.432 166.343 396.208 166.735C395.993 167.118 395.886 167.575 395.886 168.107C395.886 168.639 395.993 169.106 396.208 169.507C396.432 169.908 396.721 170.216 397.076 170.431C397.44 170.636 397.823 170.739 398.224 170.739C398.635 170.739 399.017 170.636 399.372 170.431C399.727 170.226 400.011 169.927 400.226 169.535C400.45 169.134 400.562 168.667 400.562 168.135ZM407.614 172.125C406.886 172.125 406.228 171.962 405.64 171.635C405.052 171.299 404.59 170.832 404.254 170.235C403.918 169.628 403.75 168.928 403.75 168.135C403.75 167.351 403.923 166.656 404.268 166.049C404.614 165.442 405.085 164.976 405.682 164.649C406.28 164.322 406.947 164.159 407.684 164.159C408.422 164.159 409.089 164.322 409.686 164.649C410.284 164.976 410.755 165.442 411.1 166.049C411.446 166.656 411.618 167.351 411.618 168.135C411.618 168.919 411.441 169.614 411.086 170.221C410.732 170.828 410.246 171.299 409.63 171.635C409.024 171.962 408.352 172.125 407.614 172.125ZM407.614 170.739C408.025 170.739 408.408 170.641 408.762 170.445C409.126 170.249 409.42 169.955 409.644 169.563C409.868 169.171 409.98 168.695 409.98 168.135C409.98 167.575 409.873 167.104 409.658 166.721C409.444 166.329 409.159 166.035 408.804 165.839C408.45 165.643 408.067 165.545 407.656 165.545C407.246 165.545 406.863 165.643 406.508 165.839C406.163 166.035 405.888 166.329 405.682 166.721C405.477 167.104 405.374 167.575 405.374 168.135C405.374 168.966 405.584 169.61 406.004 170.067C406.434 170.515 406.97 170.739 407.614 170.739ZM420.067 165.587H418.639V171.999H417.029V165.587H416.119V164.285H417.029V163.739C417.029 162.852 417.262 162.208 417.729 161.807C418.205 161.396 418.947 161.191 419.955 161.191V162.521C419.469 162.521 419.129 162.614 418.933 162.801C418.737 162.978 418.639 163.291 418.639 163.739V164.285H420.067V165.587ZM428.467 164.285V171.999H426.871V171.089C426.619 171.406 426.288 171.658 425.877 171.845C425.476 172.022 425.046 172.111 424.589 172.111C423.982 172.111 423.436 171.985 422.951 171.733C422.475 171.481 422.097 171.108 421.817 170.613C421.546 170.118 421.411 169.521 421.411 168.821V164.285H422.993V168.583C422.993 169.274 423.166 169.806 423.511 170.179C423.856 170.543 424.328 170.725 424.925 170.725C425.522 170.725 425.994 170.543 426.339 170.179C426.694 169.806 426.871 169.274 426.871 168.583V164.285H428.467ZM432.435 165.587V169.857C432.435 170.146 432.5 170.356 432.631 170.487C432.771 170.608 433.004 170.669 433.331 170.669H434.311V171.999H433.051C432.332 171.999 431.782 171.831 431.399 171.495C431.016 171.159 430.825 170.613 430.825 169.857V165.587H429.915V164.285H430.825V162.367H432.435V164.285H434.311V165.587H432.435ZM442.768 164.285V171.999H441.172V171.089C440.92 171.406 440.589 171.658 440.178 171.845C439.777 172.022 439.347 172.111 438.89 172.111C438.283 172.111 437.737 171.985 437.252 171.733C436.776 171.481 436.398 171.108 436.118 170.613C435.847 170.118 435.712 169.521 435.712 168.821V164.285H437.294V168.583C437.294 169.274 437.467 169.806 437.812 170.179C438.157 170.543 438.629 170.725 439.226 170.725C439.823 170.725 440.295 170.543 440.64 170.179C440.995 169.806 441.172 169.274 441.172 168.583V164.285H442.768ZM446.47 165.405C446.703 165.013 447.011 164.71 447.394 164.495C447.786 164.271 448.248 164.159 448.78 164.159V165.811H448.374C447.748 165.811 447.272 165.97 446.946 166.287C446.628 166.604 446.47 167.155 446.47 167.939V171.999H444.874V164.285H446.47V165.405ZM453.593 172.125C452.865 172.125 452.207 171.962 451.619 171.635C451.031 171.299 450.569 170.832 450.233 170.235C449.897 169.628 449.729 168.928 449.729 168.135C449.729 167.351 449.901 166.656 450.247 166.049C450.592 165.442 451.063 164.976 451.661 164.649C452.258 164.322 452.925 164.159 453.663 164.159C454.4 164.159 455.067 164.322 455.665 164.649C456.262 164.976 456.733 165.442 457.079 166.049C457.424 166.656 457.597 167.351 457.597 168.135C457.597 168.919 457.419 169.614 457.065 170.221C456.71 170.828 456.225 171.299 455.609 171.635C455.002 171.962 454.33 172.125 453.593 172.125ZM453.593 170.739C454.003 170.739 454.386 170.641 454.741 170.445C455.105 170.249 455.399 169.955 455.623 169.563C455.847 169.171 455.959 168.695 455.959 168.135C455.959 167.575 455.851 167.104 455.637 166.721C455.422 166.329 455.137 166.035 454.783 165.839C454.428 165.643 454.045 165.545 453.635 165.545C453.224 165.545 452.841 165.643 452.487 165.839C452.141 166.035 451.866 166.329 451.661 166.721C451.455 167.104 451.353 167.575 451.353 168.135C451.353 168.966 451.563 169.61 451.983 170.067C452.412 170.515 452.949 170.739 453.593 170.739ZM460.925 170.081L459.231 173.945H458.195L459.189 170.081H460.925ZM466.768 163.263C466.478 163.263 466.236 163.165 466.04 162.969C465.844 162.773 465.746 162.53 465.746 162.241C465.746 161.952 465.844 161.709 466.04 161.513C466.236 161.317 466.478 161.219 466.768 161.219C467.048 161.219 467.286 161.317 467.482 161.513C467.678 161.709 467.776 161.952 467.776 162.241C467.776 162.53 467.678 162.773 467.482 162.969C467.286 163.165 467.048 163.263 466.768 163.263ZM467.552 164.285V171.999H465.956V164.285H467.552ZM473.539 164.159C474.146 164.159 474.687 164.285 475.163 164.537C475.649 164.789 476.027 165.162 476.297 165.657C476.568 166.152 476.703 166.749 476.703 167.449V171.999H475.121V167.687C475.121 166.996 474.949 166.469 474.603 166.105C474.258 165.732 473.787 165.545 473.189 165.545C472.592 165.545 472.116 165.732 471.761 166.105C471.416 166.469 471.243 166.996 471.243 167.687V171.999H469.647V164.285H471.243V165.167C471.505 164.85 471.836 164.602 472.237 164.425C472.648 164.248 473.082 164.159 473.539 164.159ZM482.085 172.125C481.357 172.125 480.699 171.962 480.111 171.635C479.523 171.299 479.061 170.832 478.725 170.235C478.389 169.628 478.221 168.928 478.221 168.135C478.221 167.351 478.394 166.656 478.739 166.049C479.084 165.442 479.556 164.976 480.153 164.649C480.75 164.322 481.418 164.159 482.155 164.159C482.892 164.159 483.56 164.322 484.157 164.649C484.754 164.976 485.226 165.442 485.571 166.049C485.916 166.656 486.089 167.351 486.089 168.135C486.089 168.919 485.912 169.614 485.557 170.221C485.202 170.828 484.717 171.299 484.101 171.635C483.494 171.962 482.822 172.125 482.085 172.125ZM482.085 170.739C482.496 170.739 482.878 170.641 483.233 170.445C483.597 170.249 483.891 169.955 484.115 169.563C484.339 169.171 484.451 168.695 484.451 168.135C484.451 167.575 484.344 167.104 484.129 166.721C483.914 166.329 483.63 166.035 483.275 165.839C482.92 165.643 482.538 165.545 482.127 165.545C481.716 165.545 481.334 165.643 480.979 165.839C480.634 166.035 480.358 166.329 480.153 166.721C479.948 167.104 479.845 167.575 479.845 168.135C479.845 168.966 480.055 169.61 480.475 170.067C480.904 170.515 481.441 170.739 482.085 170.739ZM490.649 170.571L492.833 164.285H494.527L491.587 171.999H489.683L486.757 164.285H488.465L490.649 170.571ZM495.201 168.107C495.201 167.332 495.36 166.646 495.677 166.049C496.004 165.452 496.442 164.99 496.993 164.663C497.553 164.327 498.169 164.159 498.841 164.159C499.448 164.159 499.975 164.28 500.423 164.523C500.88 164.756 501.244 165.05 501.515 165.405V164.285H503.125V171.999H501.515V170.851C501.244 171.215 500.876 171.518 500.409 171.761C499.942 172.004 499.41 172.125 498.813 172.125C498.15 172.125 497.544 171.957 496.993 171.621C496.442 171.276 496.004 170.8 495.677 170.193C495.36 169.577 495.201 168.882 495.201 168.107ZM501.515 168.135C501.515 167.603 501.403 167.141 501.179 166.749C500.964 166.357 500.68 166.058 500.325 165.853C499.97 165.648 499.588 165.545 499.177 165.545C498.766 165.545 498.384 165.648 498.029 165.853C497.674 166.049 497.385 166.343 497.161 166.735C496.946 167.118 496.839 167.575 496.839 168.107C496.839 168.639 496.946 169.106 497.161 169.507C497.385 169.908 497.674 170.216 498.029 170.431C498.393 170.636 498.776 170.739 499.177 170.739C499.588 170.739 499.97 170.636 500.325 170.431C500.68 170.226 500.964 169.927 501.179 169.535C501.403 169.134 501.515 168.667 501.515 168.135ZM514.559 164.159C515.166 164.159 515.707 164.285 516.183 164.537C516.669 164.789 517.047 165.162 517.317 165.657C517.597 166.152 517.737 166.749 517.737 167.449V171.999H516.155V167.687C516.155 166.996 515.983 166.469 515.637 166.105C515.292 165.732 514.821 165.545 514.223 165.545C513.626 165.545 513.15 165.732 512.795 166.105C512.45 166.469 512.277 166.996 512.277 167.687V171.999H510.695V167.687C510.695 166.996 510.523 166.469 510.177 166.105C509.832 165.732 509.361 165.545 508.763 165.545C508.166 165.545 507.69 165.732 507.335 166.105C506.99 166.469 506.817 166.996 506.817 167.687V171.999H505.221V164.285H506.817V165.167C507.079 164.85 507.41 164.602 507.811 164.425C508.213 164.248 508.642 164.159 509.099 164.159C509.715 164.159 510.266 164.29 510.751 164.551C511.237 164.812 511.61 165.19 511.871 165.685C512.105 165.218 512.469 164.85 512.963 164.579C513.458 164.299 513.99 164.159 514.559 164.159ZM523.114 172.125C522.386 172.125 521.728 171.962 521.14 171.635C520.552 171.299 520.09 170.832 519.754 170.235C519.418 169.628 519.25 168.928 519.25 168.135C519.25 167.351 519.423 166.656 519.768 166.049C520.114 165.442 520.585 164.976 521.182 164.649C521.78 164.322 522.447 164.159 523.184 164.159C523.922 164.159 524.589 164.322 525.186 164.649C525.784 164.976 526.255 165.442 526.6 166.049C526.946 166.656 527.118 167.351 527.118 168.135C527.118 168.919 526.941 169.614 526.586 170.221C526.232 170.828 525.746 171.299 525.13 171.635C524.524 171.962 523.852 172.125 523.114 172.125ZM523.114 170.739C523.525 170.739 523.908 170.641 524.262 170.445C524.626 170.249 524.92 169.955 525.144 169.563C525.368 169.171 525.48 168.695 525.48 168.135C525.48 167.575 525.373 167.104 525.158 166.721C524.944 166.329 524.659 166.035 524.304 165.839C523.95 165.643 523.567 165.545 523.156 165.545C522.746 165.545 522.363 165.643 522.008 165.839C521.663 166.035 521.388 166.329 521.182 166.721C520.977 167.104 520.874 167.575 520.874 168.135C520.874 168.966 521.084 169.61 521.504 170.067C521.934 170.515 522.47 170.739 523.114 170.739ZM531.496 172.125C530.889 172.125 530.343 172.018 529.858 171.803C529.382 171.579 529.004 171.28 528.724 170.907C528.444 170.524 528.295 170.1 528.276 169.633H529.928C529.956 169.96 530.11 170.235 530.39 170.459C530.679 170.674 531.039 170.781 531.468 170.781C531.916 170.781 532.261 170.697 532.504 170.529C532.756 170.352 532.882 170.128 532.882 169.857C532.882 169.568 532.742 169.353 532.462 169.213C532.191 169.073 531.757 168.919 531.16 168.751C530.581 168.592 530.11 168.438 529.746 168.289C529.382 168.14 529.065 167.911 528.794 167.603C528.533 167.295 528.402 166.889 528.402 166.385C528.402 165.974 528.523 165.601 528.766 165.265C529.009 164.92 529.354 164.649 529.802 164.453C530.259 164.257 530.782 164.159 531.37 164.159C532.247 164.159 532.952 164.383 533.484 164.831C534.025 165.27 534.315 165.872 534.352 166.637H532.756C532.728 166.292 532.588 166.016 532.336 165.811C532.084 165.606 531.743 165.503 531.314 165.503C530.894 165.503 530.572 165.582 530.348 165.741C530.124 165.9 530.012 166.11 530.012 166.371C530.012 166.576 530.087 166.749 530.236 166.889C530.385 167.029 530.567 167.141 530.782 167.225C530.997 167.3 531.314 167.398 531.734 167.519C532.294 167.668 532.751 167.822 533.106 167.981C533.47 168.13 533.783 168.354 534.044 168.653C534.305 168.952 534.441 169.348 534.45 169.843C534.45 170.282 534.329 170.674 534.086 171.019C533.843 171.364 533.498 171.635 533.05 171.831C532.611 172.027 532.093 172.125 531.496 172.125ZM539.279 168.135C539.279 167.342 539.438 166.646 539.755 166.049C540.082 165.442 540.53 164.976 541.099 164.649C541.669 164.322 542.322 164.159 543.059 164.159C543.993 164.159 544.763 164.383 545.369 164.831C545.985 165.27 546.401 165.9 546.615 166.721H544.893C544.753 166.338 544.529 166.04 544.221 165.825C543.913 165.61 543.526 165.503 543.059 165.503C542.406 165.503 541.883 165.736 541.491 166.203C541.109 166.66 540.917 167.304 540.917 168.135C540.917 168.966 541.109 169.614 541.491 170.081C541.883 170.548 542.406 170.781 543.059 170.781C543.983 170.781 544.595 170.375 544.893 169.563H546.615C546.391 170.347 545.971 170.972 545.355 171.439C544.739 171.896 543.974 172.125 543.059 172.125C542.322 172.125 541.669 171.962 541.099 171.635C540.53 171.299 540.082 170.832 539.755 170.235C539.438 169.628 539.279 168.928 539.279 168.135ZM551.552 172.125C550.824 172.125 550.166 171.962 549.578 171.635C548.99 171.299 548.528 170.832 548.192 170.235C547.856 169.628 547.688 168.928 547.688 168.135C547.688 167.351 547.86 166.656 548.206 166.049C548.551 165.442 549.022 164.976 549.62 164.649C550.217 164.322 550.884 164.159 551.622 164.159C552.359 164.159 553.026 164.322 553.624 164.649C554.221 164.976 554.692 165.442 555.038 166.049C555.383 166.656 555.556 167.351 555.556 168.135C555.556 168.919 555.378 169.614 555.024 170.221C554.669 170.828 554.184 171.299 553.568 171.635C552.961 171.962 552.289 172.125 551.552 172.125ZM551.552 170.739C551.962 170.739 552.345 170.641 552.7 170.445C553.064 170.249 553.358 169.955 553.582 169.563C553.806 169.171 553.918 168.695 553.918 168.135C553.918 167.575 553.81 167.104 553.596 166.721C553.381 166.329 553.096 166.035 552.742 165.839C552.387 165.643 552.004 165.545 551.594 165.545C551.183 165.545 550.8 165.643 550.446 165.839C550.1 166.035 549.825 166.329 549.62 166.721C549.414 167.104 549.312 167.575 549.312 168.135C549.312 168.966 549.522 169.61 549.942 170.067C550.371 170.515 550.908 170.739 551.552 170.739ZM566.471 164.159C567.078 164.159 567.619 164.285 568.095 164.537C568.581 164.789 568.959 165.162 569.229 165.657C569.509 166.152 569.649 166.749 569.649 167.449V171.999H568.067V167.687C568.067 166.996 567.895 166.469 567.549 166.105C567.204 165.732 566.733 165.545 566.135 165.545C565.538 165.545 565.062 165.732 564.707 166.105C564.362 166.469 564.189 166.996 564.189 167.687V171.999H562.607V167.687C562.607 166.996 562.435 166.469 562.089 166.105C561.744 165.732 561.273 165.545 560.675 165.545C560.078 165.545 559.602 165.732 559.247 166.105C558.902 166.469 558.729 166.996 558.729 167.687V171.999H557.133V164.285H558.729V165.167C558.991 164.85 559.322 164.602 559.723 164.425C560.125 164.248 560.554 164.159 561.011 164.159C561.627 164.159 562.178 164.29 562.663 164.551C563.149 164.812 563.522 165.19 563.783 165.685C564.017 165.218 564.381 164.85 564.875 164.579C565.37 164.299 565.902 164.159 566.471 164.159ZM193.518 189.135C193.518 188.342 193.676 187.646 193.994 187.049C194.32 186.442 194.768 185.976 195.338 185.649C195.907 185.322 196.56 185.159 197.298 185.159C198.231 185.159 199.001 185.383 199.608 185.831C200.224 186.27 200.639 186.9 200.854 187.721H199.132C198.992 187.338 198.768 187.04 198.46 186.825C198.152 186.61 197.764 186.503 197.298 186.503C196.644 186.503 196.122 186.736 195.73 187.203C195.347 187.66 195.156 188.304 195.156 189.135C195.156 189.966 195.347 190.614 195.73 191.081C196.122 191.548 196.644 191.781 197.298 191.781C198.222 191.781 198.833 191.375 199.132 190.563H200.854C200.63 191.347 200.21 191.972 199.594 192.439C198.978 192.896 198.212 193.125 197.298 193.125C196.56 193.125 195.907 192.962 195.338 192.635C194.768 192.299 194.32 191.832 193.994 191.235C193.676 190.628 193.518 189.928 193.518 189.135ZM205.79 193.125C205.062 193.125 204.404 192.962 203.816 192.635C203.228 192.299 202.766 191.832 202.43 191.235C202.094 190.628 201.926 189.928 201.926 189.135C201.926 188.351 202.099 187.656 202.444 187.049C202.789 186.442 203.261 185.976 203.858 185.649C204.455 185.322 205.123 185.159 205.86 185.159C206.597 185.159 207.265 185.322 207.862 185.649C208.459 185.976 208.931 186.442 209.276 187.049C209.621 187.656 209.794 188.351 209.794 189.135C209.794 189.919 209.617 190.614 209.262 191.221C208.907 191.828 208.422 192.299 207.806 192.635C207.199 192.962 206.527 193.125 205.79 193.125ZM205.79 191.739C206.201 191.739 206.583 191.641 206.938 191.445C207.302 191.249 207.596 190.955 207.82 190.563C208.044 190.171 208.156 189.695 208.156 189.135C208.156 188.575 208.049 188.104 207.834 187.721C207.619 187.329 207.335 187.035 206.98 186.839C206.625 186.643 206.243 186.545 205.832 186.545C205.421 186.545 205.039 186.643 204.684 186.839C204.339 187.035 204.063 187.329 203.858 187.721C203.653 188.104 203.55 188.575 203.55 189.135C203.55 189.966 203.76 190.61 204.18 191.067C204.609 191.515 205.146 191.739 205.79 191.739ZM212.968 186.405C213.201 186.013 213.509 185.71 213.892 185.495C214.284 185.271 214.746 185.159 215.278 185.159V186.811H214.872C214.246 186.811 213.77 186.97 213.444 187.287C213.126 187.604 212.968 188.155 212.968 188.939V192.999H211.372V185.285H212.968V186.405ZM216.213 189.107C216.213 188.332 216.371 187.646 216.689 187.049C217.015 186.452 217.454 185.99 218.005 185.663C218.565 185.327 219.181 185.159 219.853 185.159C220.459 185.159 220.987 185.28 221.435 185.523C221.892 185.756 222.256 186.05 222.527 186.405V185.285H224.137V192.999H222.527V191.851C222.256 192.215 221.887 192.518 221.421 192.761C220.954 193.004 220.422 193.125 219.825 193.125C219.162 193.125 218.555 192.957 218.005 192.621C217.454 192.276 217.015 191.8 216.689 191.193C216.371 190.577 216.213 189.882 216.213 189.107ZM222.527 189.135C222.527 188.603 222.415 188.141 222.191 187.749C221.976 187.357 221.691 187.058 221.337 186.853C220.982 186.648 220.599 186.545 220.189 186.545C219.778 186.545 219.395 186.648 219.041 186.853C218.686 187.049 218.397 187.343 218.173 187.735C217.958 188.118 217.851 188.575 217.851 189.107C217.851 189.639 217.958 190.106 218.173 190.507C218.397 190.908 218.686 191.216 219.041 191.431C219.405 191.636 219.787 191.739 220.189 191.739C220.599 191.739 220.982 191.636 221.337 191.431C221.691 191.226 221.976 190.927 222.191 190.535C222.415 190.134 222.527 189.667 222.527 189.135ZM229.341 185.159C229.938 185.159 230.466 185.28 230.923 185.523C231.39 185.756 231.754 186.05 232.015 186.405V185.285H233.625V193.125C233.625 193.834 233.476 194.464 233.177 195.015C232.878 195.575 232.444 196.014 231.875 196.331C231.315 196.648 230.643 196.807 229.859 196.807C228.814 196.807 227.946 196.56 227.255 196.065C226.564 195.58 226.172 194.917 226.079 194.077H227.661C227.782 194.478 228.039 194.8 228.431 195.043C228.832 195.295 229.308 195.421 229.859 195.421C230.503 195.421 231.021 195.225 231.413 194.833C231.814 194.441 232.015 193.872 232.015 193.125V191.837C231.744 192.201 231.376 192.509 230.909 192.761C230.452 193.004 229.929 193.125 229.341 193.125C228.669 193.125 228.053 192.957 227.493 192.621C226.942 192.276 226.504 191.8 226.177 191.193C225.86 190.577 225.701 189.882 225.701 189.107C225.701 188.332 225.86 187.646 226.177 187.049C226.504 186.452 226.942 185.99 227.493 185.663C228.053 185.327 228.669 185.159 229.341 185.159ZM232.015 189.135C232.015 188.603 231.903 188.141 231.679 187.749C231.464 187.357 231.18 187.058 230.825 186.853C230.47 186.648 230.088 186.545 229.677 186.545C229.266 186.545 228.884 186.648 228.529 186.853C228.174 187.049 227.885 187.343 227.661 187.735C227.446 188.118 227.339 188.575 227.339 189.107C227.339 189.639 227.446 190.106 227.661 190.507C227.885 190.908 228.174 191.216 228.529 191.431C228.893 191.636 229.276 191.739 229.677 191.739C230.088 191.739 230.47 191.636 230.825 191.431C231.18 191.226 231.464 190.927 231.679 190.535C231.903 190.134 232.015 189.667 232.015 189.135ZM242.791 188.953C242.791 189.242 242.773 189.504 242.735 189.737H236.841C236.888 190.353 237.117 190.848 237.527 191.221C237.938 191.594 238.442 191.781 239.039 191.781C239.898 191.781 240.505 191.422 240.859 190.703H242.581C242.348 191.412 241.923 191.996 241.307 192.453C240.701 192.901 239.945 193.125 239.039 193.125C238.302 193.125 237.639 192.962 237.051 192.635C236.473 192.299 236.015 191.832 235.679 191.235C235.353 190.628 235.189 189.928 235.189 189.135C235.189 188.342 235.348 187.646 235.665 187.049C235.992 186.442 236.445 185.976 237.023 185.649C237.611 185.322 238.283 185.159 239.039 185.159C239.767 185.159 240.416 185.318 240.985 185.635C241.555 185.952 241.998 186.4 242.315 186.979C242.633 187.548 242.791 188.206 242.791 188.953ZM241.125 188.449C241.116 187.861 240.906 187.39 240.495 187.035C240.085 186.68 239.576 186.503 238.969 186.503C238.419 186.503 237.947 186.68 237.555 187.035C237.163 187.38 236.93 187.852 236.855 188.449H241.125ZM253.7 185.159C254.307 185.159 254.848 185.285 255.324 185.537C255.809 185.789 256.187 186.162 256.458 186.657C256.738 187.152 256.878 187.749 256.878 188.449V192.999H255.296V188.687C255.296 187.996 255.123 187.469 254.778 187.105C254.433 186.732 253.961 186.545 253.364 186.545C252.767 186.545 252.291 186.732 251.936 187.105C251.591 187.469 251.418 187.996 251.418 188.687V192.999H249.836V188.687C249.836 187.996 249.663 187.469 249.318 187.105C248.973 186.732 248.501 186.545 247.904 186.545C247.307 186.545 246.831 186.732 246.476 187.105C246.131 187.469 245.958 187.996 245.958 188.687V192.999H244.362V185.285H245.958V186.167C246.219 185.85 246.551 185.602 246.952 185.425C247.353 185.248 247.783 185.159 248.24 185.159C248.856 185.159 249.407 185.29 249.892 185.551C250.377 185.812 250.751 186.19 251.012 186.685C251.245 186.218 251.609 185.85 252.104 185.579C252.599 185.299 253.131 185.159 253.7 185.159ZM269.616 188.953C269.616 189.242 269.597 189.504 269.56 189.737H263.666C263.712 190.353 263.941 190.848 264.352 191.221C264.762 191.594 265.266 191.781 265.864 191.781C266.722 191.781 267.329 191.422 267.684 190.703H269.406C269.172 191.412 268.748 191.996 268.132 192.453C267.525 192.901 266.769 193.125 265.864 193.125C265.126 193.125 264.464 192.962 263.876 192.635C263.297 192.299 262.84 191.832 262.504 191.235C262.177 190.628 262.014 189.928 262.014 189.135C262.014 188.342 262.172 187.646 262.49 187.049C262.816 186.442 263.269 185.976 263.848 185.649C264.436 185.322 265.108 185.159 265.864 185.159C266.592 185.159 267.24 185.318 267.81 185.635C268.379 185.952 268.822 186.4 269.14 186.979C269.457 187.548 269.616 188.206 269.616 188.953ZM267.95 188.449C267.94 187.861 267.73 187.39 267.32 187.035C266.909 186.68 266.4 186.503 265.794 186.503C265.243 186.503 264.772 186.68 264.38 187.035C263.988 187.38 263.754 187.852 263.68 188.449H267.95ZM277.805 191.571L279.989 185.285H281.683L278.743 192.999H276.839L273.913 185.285H275.621L277.805 191.571ZM283.701 184.263C283.412 184.263 283.169 184.165 282.973 183.969C282.777 183.773 282.679 183.53 282.679 183.241C282.679 182.952 282.777 182.709 282.973 182.513C283.169 182.317 283.412 182.219 283.701 182.219C283.981 182.219 284.219 182.317 284.415 182.513C284.611 182.709 284.709 182.952 284.709 183.241C284.709 183.53 284.611 183.773 284.415 183.969C284.219 184.165 283.981 184.263 283.701 184.263ZM284.485 185.285V192.999H282.889V185.285H284.485ZM289.381 193.125C288.774 193.125 288.228 193.018 287.743 192.803C287.267 192.579 286.889 192.28 286.609 191.907C286.329 191.524 286.179 191.1 286.161 190.633H287.813C287.841 190.96 287.995 191.235 288.275 191.459C288.564 191.674 288.923 191.781 289.353 191.781C289.801 191.781 290.146 191.697 290.389 191.529C290.641 191.352 290.767 191.128 290.767 190.857C290.767 190.568 290.627 190.353 290.347 190.213C290.076 190.073 289.642 189.919 289.045 189.751C288.466 189.592 287.995 189.438 287.631 189.289C287.267 189.14 286.949 188.911 286.679 188.603C286.417 188.295 286.287 187.889 286.287 187.385C286.287 186.974 286.408 186.601 286.651 186.265C286.893 185.92 287.239 185.649 287.687 185.453C288.144 185.257 288.667 185.159 289.255 185.159C290.132 185.159 290.837 185.383 291.369 185.831C291.91 186.27 292.199 186.872 292.237 187.637H290.641C290.613 187.292 290.473 187.016 290.221 186.811C289.969 186.606 289.628 186.503 289.199 186.503C288.779 186.503 288.457 186.582 288.233 186.741C288.009 186.9 287.897 187.11 287.897 187.371C287.897 187.576 287.971 187.749 288.121 187.889C288.27 188.029 288.452 188.141 288.667 188.225C288.881 188.3 289.199 188.398 289.619 188.519C290.179 188.668 290.636 188.822 290.991 188.981C291.355 189.13 291.667 189.354 291.929 189.653C292.19 189.952 292.325 190.348 292.335 190.843C292.335 191.282 292.213 191.674 291.971 192.019C291.728 192.364 291.383 192.635 290.935 192.831C290.496 193.027 289.978 193.125 289.381 193.125ZM293.527 189.107C293.527 188.332 293.686 187.646 294.003 187.049C294.33 186.452 294.769 185.99 295.319 185.663C295.879 185.327 296.495 185.159 297.167 185.159C297.774 185.159 298.301 185.28 298.749 185.523C299.207 185.756 299.571 186.05 299.841 186.405V185.285H301.451V192.999H299.841V191.851C299.571 192.215 299.202 192.518 298.735 192.761C298.269 193.004 297.737 193.125 297.139 193.125C296.477 193.125 295.87 192.957 295.319 192.621C294.769 192.276 294.33 191.8 294.003 191.193C293.686 190.577 293.527 189.882 293.527 189.107ZM299.841 189.135C299.841 188.603 299.729 188.141 299.505 187.749C299.291 187.357 299.006 187.058 298.651 186.853C298.297 186.648 297.914 186.545 297.503 186.545C297.093 186.545 296.71 186.648 296.355 186.853C296.001 187.049 295.711 187.343 295.487 187.735C295.273 188.118 295.165 188.575 295.165 189.107C295.165 189.639 295.273 190.106 295.487 190.507C295.711 190.908 296.001 191.216 296.355 191.431C296.719 191.636 297.102 191.739 297.503 191.739C297.914 191.739 298.297 191.636 298.651 191.431C299.006 191.226 299.291 190.927 299.505 190.535C299.729 190.134 299.841 189.667 299.841 189.135ZM295.473 184.487C295.548 183.946 295.725 183.54 296.005 183.269C296.285 182.989 296.635 182.849 297.055 182.849C297.233 182.849 297.387 182.877 297.517 182.933C297.648 182.989 297.807 183.073 297.993 183.185C298.133 183.278 298.25 183.348 298.343 183.395C298.446 183.442 298.558 183.465 298.679 183.465C298.838 183.465 298.969 183.418 299.071 183.325C299.183 183.222 299.253 183.073 299.281 182.877H300.177C300.103 183.418 299.925 183.829 299.645 184.109C299.365 184.38 299.015 184.515 298.595 184.515C298.418 184.515 298.259 184.487 298.119 184.431C297.979 184.366 297.825 184.277 297.657 184.165C297.489 184.062 297.359 183.992 297.265 183.955C297.181 183.908 297.083 183.885 296.971 183.885C296.813 183.885 296.677 183.936 296.565 184.039C296.463 184.142 296.397 184.291 296.369 184.487H295.473ZM306.894 193.125C306.166 193.125 305.508 192.962 304.92 192.635C304.332 192.299 303.87 191.832 303.534 191.235C303.198 190.628 303.03 189.928 303.03 189.135C303.03 188.351 303.202 187.656 303.548 187.049C303.893 186.442 304.364 185.976 304.962 185.649C305.559 185.322 306.226 185.159 306.964 185.159C307.701 185.159 308.368 185.322 308.966 185.649C309.563 185.976 310.034 186.442 310.38 187.049C310.725 187.656 310.898 188.351 310.898 189.135C310.898 189.919 310.72 190.614 310.366 191.221C310.011 191.828 309.526 192.299 308.91 192.635C308.303 192.962 307.631 193.125 306.894 193.125ZM306.894 191.739C307.304 191.739 307.687 191.641 308.042 191.445C308.406 191.249 308.7 190.955 308.924 190.563C309.148 190.171 309.26 189.695 309.26 189.135C309.26 188.575 309.152 188.104 308.938 187.721C308.723 187.329 308.438 187.035 308.084 186.839C307.729 186.643 307.346 186.545 306.936 186.545C306.525 186.545 306.142 186.643 305.788 186.839C305.442 187.035 305.167 187.329 304.962 187.721C304.756 188.104 304.654 188.575 304.654 189.135C304.654 189.966 304.864 190.61 305.284 191.067C305.713 191.515 306.25 191.739 306.894 191.739ZM314.477 183.269L314.295 190.059H312.965L312.783 183.269H314.477ZM313.679 193.097C313.39 193.097 313.147 192.999 312.951 192.803C312.755 192.607 312.657 192.364 312.657 192.075C312.657 191.786 312.755 191.543 312.951 191.347C313.147 191.151 313.39 191.053 313.679 191.053C313.959 191.053 314.197 191.151 314.393 191.347C314.589 191.543 314.687 191.786 314.687 192.075C314.687 192.364 314.589 192.607 314.393 192.803C314.197 192.999 313.959 193.097 313.679 193.097Z" fill="#2B5121"/>
</svg>
