<svg width="140" height="159" viewBox="0 0 140 159" fill="none" xmlns="http://www.w3.org/2000/svg">
<path d="M0.493767 29.0057C-0.378764 23.5522 3.33483 18.4239 8.78832 17.5514L109.974 1.36214C115.428 0.489606 120.556 4.20321 121.429 9.65669L138.745 117.887C140.926 131.52 131.642 144.341 118.009 146.522L46.4457 157.972C32.812 160.153 19.9914 150.869 17.81 137.236L0.493767 29.0057Z" fill="#508D3F"/>
<path d="M0.493767 29.0057C-0.378764 23.5522 3.33483 18.4239 8.78832 17.5514L109.974 1.36214C115.428 0.489606 120.556 4.20321 121.429 9.65669L132.923 81.4962C137.547 110.4 117.865 137.579 88.9614 142.204L72.6954 144.806C43.7919 149.431 16.6121 129.749 11.9877 100.845L0.493767 29.0057Z" fill="#46C4FF"/>
<path d="M0.493767 29.0057C-0.378764 23.5522 3.33483 18.4239 8.78832 17.5514L109.974 1.36214C115.428 0.489606 120.556 4.20321 121.429 9.65669L137.504 110.132C139.598 123.22 130.686 135.528 117.597 137.622L44.0596 149.388C30.9712 151.482 18.6634 142.569 16.5693 129.481L0.493767 29.0057Z" fill="#7AD761"/>
<path d="M21.8017 31.4255C21.7145 30.8801 22.0859 30.3673 22.6312 30.2801L102.251 17.5413C102.796 17.454 103.309 17.8254 103.396 18.3707L113.029 78.5793C116.634 101.111 101.291 122.299 78.7595 125.904C56.2277 129.509 35.0398 114.166 31.4348 91.634L21.8017 31.4255Z" fill="#60AF4B"/>
<path d="M43.377 52.7585C42.1039 53.9366 40.9045 55.9555 40.6004 57.1003C40.0304 59.6275 41.0588 67.1972 42.2844 68.7672C43.0682 69.8598 42.8829 74.0306 41.9186 74.8548C41.7096 75.0709 40.8901 76.42 40.0802 77.8285C38.7999 80.1039 38.6859 80.9138 39.1989 84.1203C39.7025 87.2675 40.073 88.0608 41.7926 89.6735C46.2841 93.766 52.4191 95.9512 59.4972 96.0367C61.6918 96.051 63.7962 96.2624 64.0718 96.4619C64.7511 96.9013 82.4461 94.0702 82.9544 93.4407C83.154 93.1652 85.0874 92.3078 87.168 91.6095C93.866 89.3199 99.0131 85.3296 102.003 80.0401C103.134 77.9713 103.239 77.102 102.735 73.9549C102.222 70.7484 101.861 70.0145 99.9347 68.2521C98.7257 67.1666 97.5263 66.1405 97.2603 66.0004C96.0869 65.5182 94.6096 61.6134 95.0134 60.3308C95.6879 58.4568 94.3032 50.9441 92.9732 48.7209C92.3271 47.7281 90.5576 46.1842 88.9805 45.4622C86.4581 44.1606 85.7764 44.0869 81.798 44.7235C78.1164 45.3125 76.9668 45.74 75.0287 47.329C73.7366 48.3883 72.6012 49.6662 72.4991 50.1697C72.2331 51.5521 61.1885 53.3191 60.5045 52.0888C60.2503 51.6423 58.773 50.7824 57.2148 50.1791C54.8777 49.2742 53.6521 49.2267 49.9705 49.8157C45.9921 50.4522 45.3674 50.7349 43.377 52.7585ZM54.9228 56.0268C55.4239 56.4947 56.26 57.1527 56.7516 57.5612C57.735 58.3782 58.6043 63.0502 57.7729 63.1832C57.476 63.2307 57.2457 63.6939 57.3217 64.1689C57.5972 65.8909 53.7114 67.487 50.1153 67.088C47.1416 66.7721 45.3721 60.6607 47.4766 57.8272C48.9136 55.7703 53.4383 54.7418 54.9228 56.0268ZM86.667 51.5569C89.5505 53.5924 89.7761 59.9508 87.0494 61.1787C83.7574 62.6798 79.5676 62.3758 79.2921 60.6538C79.2161 60.1787 78.912 59.8011 78.5558 59.8581C77.7245 59.9911 77.0927 55.2811 77.8314 54.1885C78.1116 53.6565 78.7007 52.7706 79.0308 52.1696C80.0403 50.4856 84.66 50.051 86.667 51.5569ZM53.4025 80.0209C54.4856 80.7002 56.5378 81.3462 57.9011 81.4935C59.3238 81.6313 60.844 81.997 61.376 82.2773C61.9864 82.6668 65.4091 82.3628 71.347 81.4128C77.285 80.4628 80.6316 79.6837 81.09 79.1232C81.508 78.6909 82.8381 77.8691 84.1469 77.2943C85.3962 76.729 87.1443 75.4749 87.9614 74.4916C89.7547 72.3777 91.4482 71.9241 91.7047 73.5273C91.8662 74.5367 90.9993 75.589 87.6194 78.4439C83.3749 81.9853 75.2898 84.7404 67.5752 85.2439C60.7109 85.7332 49.9348 82.7072 49.5357 80.2132C49.2887 78.6694 51.0986 78.5625 53.4025 80.0209Z" fill="#2B5121"/>
<path d="M50.0627 64.4774L52.5282 63.9002C55.2311 63.285 55.6325 62.3682 54.5328 59.6819C54.0459 58.5418 53.5923 58.3708 51.5734 58.6938L49.1982 59.0738L50.0627 64.4774Z" fill="#2B5121"/>
<path d="M80.5417 55.5206C80.335 58.4159 81.0025 59.1618 83.7624 58.9029L86.2849 58.682L85.4203 53.2785L83.0451 53.6585C81.0262 53.9815 80.6486 54.2855 80.5417 55.5206Z" fill="#2B5121"/>
<path d="M90.2818 4.16684L113.39 0.469726L115.483 0.483332L116.951 0.945486L119.316 2.65819L120.268 4.24855L124.672 31.7742L34.0475 151.527L30.5544 149.298L27.3465 146.674L24.424 143.657L21.787 140.245L19.4355 136.439L17.7636 132.524L16.377 128.215L12.8974 106.466L90.2818 4.16684Z" fill="white" fill-opacity="0.29"/>
</svg>
