<svg width="348" height="116" viewBox="0 0 348 116" fill="none" xmlns="http://www.w3.org/2000/svg">
<g filter="url(#filter0_d_3122_2380)">
<rect x="20" y="15" width="308" height="76" rx="15" fill="white"/>
<rect width="24" height="24" transform="translate(34 41)" fill="white"/>
<path d="M42 53.25L44.5 55.75L50 50.25M55 53C55 48.0294 50.9706 44 46 44C41.0294 44 37 48.0294 37 53C37 57.9706 41.0294 62 46 62C50.9706 62 55 57.9706 55 53Z" stroke="#2A55C2" stroke-width="1.5" stroke-linecap="round" stroke-linejoin="round"/>
<path d="M71.832 47.88C73.016 47.88 74.0507 48.1093 74.936 48.568C75.832 49.016 76.52 49.6667 77 50.52C77.4907 51.3627 77.736 52.3493 77.736 53.48C77.736 54.6107 77.4907 55.592 77 56.424C76.52 57.256 75.832 57.896 74.936 58.344C74.0507 58.7813 73.016 59 71.832 59H68.2V47.88H71.832ZM71.832 57.512C73.1333 57.512 74.1307 57.16 74.824 56.456C75.5173 55.752 75.864 54.76 75.864 53.48C75.864 52.1893 75.5173 51.1813 74.824 50.456C74.1307 49.7307 73.1333 49.368 71.832 49.368H70.024V57.512H71.832ZM83.3678 59.144C82.5358 59.144 81.7838 58.9573 81.1118 58.584C80.4398 58.2 79.9118 57.6667 79.5278 56.984C79.1438 56.2907 78.9518 55.4907 78.9518 54.584C78.9518 53.688 79.1491 52.8933 79.5438 52.2C79.9384 51.5067 80.4771 50.9733 81.1598 50.6C81.8424 50.2267 82.6051 50.04 83.4478 50.04C84.2904 50.04 85.0531 50.2267 85.7358 50.6C86.4184 50.9733 86.9571 51.5067 87.3518 52.2C87.7464 52.8933 87.9438 53.688 87.9438 54.584C87.9438 55.48 87.7411 56.2747 87.3358 56.968C86.9304 57.6613 86.3758 58.2 85.6718 58.584C84.9784 58.9573 84.2104 59.144 83.3678 59.144ZM83.3678 57.56C83.8371 57.56 84.2744 57.448 84.6798 57.224C85.0958 57 85.4318 56.664 85.6878 56.216C85.9438 55.768 86.0718 55.224 86.0718 54.584C86.0718 53.944 85.9491 53.4053 85.7038 52.968C85.4584 52.52 85.1331 52.184 84.7278 51.96C84.3224 51.736 83.8851 51.624 83.4158 51.624C82.9464 51.624 82.5091 51.736 82.1038 51.96C81.7091 52.184 81.3944 52.52 81.1598 52.968C80.9251 53.4053 80.8078 53.944 80.8078 54.584C80.8078 55.5333 81.0478 56.2693 81.5278 56.792C82.0184 57.304 82.6318 57.56 83.3678 57.56ZM89.1389 54.552C89.1389 53.6667 89.3202 52.8827 89.6829 52.2C90.0562 51.5173 90.5575 50.9893 91.1869 50.616C91.8269 50.232 92.5309 50.04 93.2989 50.04C93.9922 50.04 94.5949 50.1787 95.1069 50.456C95.6295 50.7227 96.0455 51.0587 96.3549 51.464V50.184H98.1949V59H96.3549V57.688C96.0455 58.104 95.6242 58.4507 95.0909 58.728C94.5575 59.0053 93.9495 59.144 93.2669 59.144C92.5095 59.144 91.8162 58.952 91.1869 58.568C90.5575 58.1733 90.0562 57.6293 89.6829 56.936C89.3202 56.232 89.1389 55.4373 89.1389 54.552ZM96.3549 54.584C96.3549 53.976 96.2269 53.448 95.9709 53C95.7255 52.552 95.4002 52.2107 94.9949 51.976C94.5895 51.7413 94.1522 51.624 93.6829 51.624C93.2135 51.624 92.7762 51.7413 92.3709 51.976C91.9655 52.2 91.6349 52.536 91.3789 52.984C91.1335 53.4213 91.0109 53.944 91.0109 54.552C91.0109 55.16 91.1335 55.6933 91.3789 56.152C91.6349 56.6107 91.9655 56.9627 92.3709 57.208C92.7869 57.4427 93.2242 57.56 93.6829 57.56C94.1522 57.56 94.5895 57.4427 94.9949 57.208C95.4002 56.9733 95.7255 56.632 95.9709 56.184C96.2269 55.7253 96.3549 55.192 96.3549 54.584ZM104.303 57.608C105.359 57.608 106.057 57.144 106.399 56.216H108.367C108.132 57.0267 107.711 57.6933 107.103 58.216C106.505 58.728 105.753 59.0267 104.847 59.112V59.768C105.465 59.768 105.967 59.912 106.351 60.2C106.735 60.4987 106.927 60.9147 106.927 61.448C106.927 61.9813 106.735 62.4027 106.351 62.712C105.967 63.032 105.481 63.192 104.895 63.192H102.783V62.04H104.527C104.825 62.04 105.049 61.9973 105.199 61.912C105.348 61.8267 105.423 61.672 105.423 61.448C105.423 61.224 105.348 61.0693 105.199 60.984C105.049 60.8987 104.825 60.856 104.527 60.856H103.647V59.096C102.921 59.0107 102.281 58.7707 101.727 58.376C101.172 57.9707 100.74 57.448 100.431 56.808C100.132 56.1573 99.9826 55.416 99.9826 54.584C99.9826 53.6773 100.164 52.8827 100.527 52.2C100.9 51.5067 101.412 50.9733 102.063 50.6C102.713 50.2267 103.46 50.04 104.303 50.04C105.369 50.04 106.249 50.296 106.943 50.808C107.647 51.3093 108.121 52.0293 108.367 52.968H106.399C106.239 52.5307 105.983 52.1893 105.631 51.944C105.279 51.6987 104.836 51.576 104.303 51.576C103.556 51.576 102.959 51.8427 102.511 52.376C102.073 52.8987 101.855 53.6347 101.855 54.584C101.855 55.5333 102.073 56.2747 102.511 56.808C102.959 57.3413 103.556 57.608 104.303 57.608ZM109.576 54.552C109.576 53.6667 109.758 52.8827 110.12 52.2C110.494 51.5173 110.995 50.9893 111.624 50.616C112.264 50.232 112.968 50.04 113.736 50.04C114.43 50.04 115.032 50.1787 115.544 50.456C116.067 50.7227 116.483 51.0587 116.792 51.464V50.184H118.632V59H116.792V57.688C116.483 58.104 116.062 58.4507 115.528 58.728C114.995 59.0053 114.387 59.144 113.704 59.144C112.947 59.144 112.254 58.952 111.624 58.568C110.995 58.1733 110.494 57.6293 110.12 56.936C109.758 56.232 109.576 55.4373 109.576 54.552ZM116.792 54.584C116.792 53.976 116.664 53.448 116.408 53C116.163 52.552 115.838 52.2107 115.432 51.976C115.027 51.7413 114.59 51.624 114.12 51.624C113.651 51.624 113.214 51.7413 112.808 51.976C112.403 52.2 112.072 52.536 111.816 52.984C111.571 53.4213 111.448 53.944 111.448 54.552C111.448 55.16 111.571 55.6933 111.816 56.152C112.072 56.6107 112.403 56.9627 112.808 57.208C113.224 57.4427 113.662 57.56 114.12 57.56C114.59 57.56 115.027 57.4427 115.432 57.208C115.838 56.9733 116.163 56.632 116.408 56.184C116.664 55.7253 116.792 55.192 116.792 54.584ZM111.8 49.272C111.886 48.6533 112.088 48.1893 112.408 47.88C112.728 47.56 113.128 47.4 113.608 47.4C113.811 47.4 113.987 47.432 114.136 47.496C114.286 47.56 114.467 47.656 114.68 47.784C114.84 47.8907 114.974 47.9707 115.08 48.024C115.198 48.0773 115.326 48.104 115.464 48.104C115.646 48.104 115.795 48.0507 115.912 47.944C116.04 47.8267 116.12 47.656 116.152 47.432H117.176C117.091 48.0507 116.888 48.52 116.568 48.84C116.248 49.1493 115.848 49.304 115.368 49.304C115.166 49.304 114.984 49.272 114.824 49.208C114.664 49.1333 114.488 49.032 114.296 48.904C114.104 48.7867 113.955 48.7067 113.848 48.664C113.752 48.6107 113.64 48.584 113.512 48.584C113.331 48.584 113.176 48.6427 113.048 48.76C112.931 48.8773 112.856 49.048 112.824 49.272H111.8ZM124.852 59.144C124.02 59.144 123.268 58.9573 122.596 58.584C121.924 58.2 121.396 57.6667 121.012 56.984C120.628 56.2907 120.436 55.4907 120.436 54.584C120.436 53.688 120.633 52.8933 121.028 52.2C121.423 51.5067 121.961 50.9733 122.644 50.6C123.327 50.2267 124.089 50.04 124.932 50.04C125.775 50.04 126.537 50.2267 127.22 50.6C127.903 50.9733 128.441 51.5067 128.836 52.2C129.231 52.8933 129.428 53.688 129.428 54.584C129.428 55.48 129.225 56.2747 128.82 56.968C128.415 57.6613 127.86 58.2 127.156 58.584C126.463 58.9573 125.695 59.144 124.852 59.144ZM124.852 57.56C125.321 57.56 125.759 57.448 126.164 57.224C126.58 57 126.916 56.664 127.172 56.216C127.428 55.768 127.556 55.224 127.556 54.584C127.556 53.944 127.433 53.4053 127.188 52.968C126.943 52.52 126.617 52.184 126.212 51.96C125.807 51.736 125.369 51.624 124.9 51.624C124.431 51.624 123.993 51.736 123.588 51.96C123.193 52.184 122.879 52.52 122.644 52.968C122.409 53.4053 122.292 53.944 122.292 54.584C122.292 55.5333 122.532 56.2693 123.012 56.792C123.503 57.304 124.116 57.56 124.852 57.56ZM143.468 54.376C143.468 54.7067 143.446 55.0053 143.404 55.272H136.668C136.721 55.976 136.982 56.5413 137.452 56.968C137.921 57.3947 138.497 57.608 139.18 57.608C140.161 57.608 140.854 57.1973 141.26 56.376H143.227C142.961 57.1867 142.476 57.8533 141.772 58.376C141.078 58.888 140.214 59.144 139.18 59.144C138.337 59.144 137.58 58.9573 136.908 58.584C136.246 58.2 135.724 57.6667 135.34 56.984C134.966 56.2907 134.78 55.4907 134.78 54.584C134.78 53.6773 134.961 52.8827 135.324 52.2C135.697 51.5067 136.214 50.9733 136.876 50.6C137.548 50.2267 138.316 50.04 139.18 50.04C140.012 50.04 140.753 50.2213 141.404 50.584C142.054 50.9467 142.561 51.4587 142.924 52.12C143.286 52.7707 143.468 53.5227 143.468 54.376ZM141.564 53.8C141.553 53.128 141.313 52.5893 140.844 52.184C140.374 51.7787 139.793 51.576 139.1 51.576C138.47 51.576 137.932 51.7787 137.484 52.184C137.036 52.5787 136.769 53.1173 136.684 53.8H141.564ZM144.655 54.552C144.655 53.6667 144.836 52.8827 145.199 52.2C145.572 51.5173 146.073 50.9893 146.703 50.616C147.343 50.232 148.052 50.04 148.831 50.04C149.407 50.04 149.972 50.168 150.527 50.424C151.092 50.6693 151.54 51 151.871 51.416V47.16H153.711V59H151.871V57.672C151.572 58.0987 151.156 58.4507 150.623 58.728C150.1 59.0053 149.497 59.144 148.815 59.144C148.047 59.144 147.343 58.952 146.703 58.568C146.073 58.1733 145.572 57.6293 145.199 56.936C144.836 56.232 144.655 55.4373 144.655 54.552ZM151.871 54.584C151.871 53.976 151.743 53.448 151.487 53C151.241 52.552 150.916 52.2107 150.511 51.976C150.105 51.7413 149.668 51.624 149.199 51.624C148.729 51.624 148.292 51.7413 147.887 51.976C147.481 52.2 147.151 52.536 146.895 52.984C146.649 53.4213 146.527 53.944 146.527 54.552C146.527 55.16 146.649 55.6933 146.895 56.152C147.151 56.6107 147.481 56.9627 147.887 57.208C148.303 57.4427 148.74 57.56 149.199 57.56C149.668 57.56 150.105 57.4427 150.511 57.208C150.916 56.9733 151.241 56.632 151.487 56.184C151.743 55.7253 151.871 55.192 151.871 54.584ZM157.034 49.016C156.704 49.016 156.426 48.904 156.202 48.68C155.978 48.456 155.866 48.1787 155.866 47.848C155.866 47.5173 155.978 47.24 156.202 47.016C156.426 46.792 156.704 46.68 157.034 46.68C157.354 46.68 157.626 46.792 157.85 47.016C158.074 47.24 158.186 47.5173 158.186 47.848C158.186 48.1787 158.074 48.456 157.85 48.68C157.626 48.904 157.354 49.016 157.034 49.016ZM157.93 50.184V59H156.106V50.184H157.93ZM162.453 51.672V56.552C162.453 56.8827 162.528 57.1227 162.677 57.272C162.837 57.4107 163.104 57.48 163.477 57.48H164.597V59H163.157C162.336 59 161.706 58.808 161.269 58.424C160.832 58.04 160.613 57.416 160.613 56.552V51.672H159.573V50.184H160.613V47.992H162.453V50.184H164.597V51.672H162.453ZM165.67 54.552C165.67 53.6667 165.851 52.8827 166.214 52.2C166.587 51.5173 167.089 50.9893 167.718 50.616C168.358 50.232 169.062 50.04 169.83 50.04C170.523 50.04 171.126 50.1787 171.638 50.456C172.161 50.7227 172.577 51.0587 172.886 51.464V50.184H174.726V59H172.886V57.688C172.577 58.104 172.155 58.4507 171.622 58.728C171.089 59.0053 170.481 59.144 169.798 59.144C169.041 59.144 168.347 58.952 167.718 58.568C167.089 58.1733 166.587 57.6293 166.214 56.936C165.851 56.232 165.67 55.4373 165.67 54.552ZM172.886 54.584C172.886 53.976 172.758 53.448 172.502 53C172.257 52.552 171.931 52.2107 171.526 51.976C171.121 51.7413 170.683 51.624 170.214 51.624C169.745 51.624 169.307 51.7413 168.902 51.976C168.497 52.2 168.166 52.536 167.91 52.984C167.665 53.4213 167.542 53.944 167.542 54.552C167.542 55.16 167.665 55.6933 167.91 56.152C168.166 56.6107 168.497 56.9627 168.902 57.208C169.318 57.4427 169.755 57.56 170.214 57.56C170.683 57.56 171.121 57.4427 171.526 57.208C171.931 56.9733 172.257 56.632 172.502 56.184C172.758 55.7253 172.886 55.192 172.886 54.584ZM176.514 54.552C176.514 53.6667 176.695 52.8827 177.058 52.2C177.431 51.5173 177.933 50.9893 178.562 50.616C179.202 50.232 179.911 50.04 180.69 50.04C181.266 50.04 181.831 50.168 182.386 50.424C182.951 50.6693 183.399 51 183.73 51.416V47.16H185.57V59H183.73V57.672C183.431 58.0987 183.015 58.4507 182.482 58.728C181.959 59.0053 181.357 59.144 180.674 59.144C179.906 59.144 179.202 58.952 178.562 58.568C177.933 58.1733 177.431 57.6293 177.058 56.936C176.695 56.232 176.514 55.4373 176.514 54.552ZM183.73 54.584C183.73 53.976 183.602 53.448 183.346 53C183.101 52.552 182.775 52.2107 182.37 51.976C181.965 51.7413 181.527 51.624 181.058 51.624C180.589 51.624 180.151 51.7413 179.746 51.976C179.341 52.2 179.01 52.536 178.754 52.984C178.509 53.4213 178.386 53.944 178.386 54.552C178.386 55.16 178.509 55.6933 178.754 56.152C179.01 56.6107 179.341 56.9627 179.746 57.208C180.162 57.4427 180.599 57.56 181.058 57.56C181.527 57.56 181.965 57.4427 182.37 57.208C182.775 56.9733 183.101 56.632 183.346 56.184C183.602 55.7253 183.73 55.192 183.73 54.584ZM187.358 54.552C187.358 53.6667 187.539 52.8827 187.902 52.2C188.275 51.5173 188.776 50.9893 189.406 50.616C190.046 50.232 190.75 50.04 191.518 50.04C192.211 50.04 192.814 50.1787 193.326 50.456C193.848 50.7227 194.264 51.0587 194.574 51.464V50.184H196.414V59H194.574V57.688C194.264 58.104 193.843 58.4507 193.31 58.728C192.776 59.0053 192.168 59.144 191.486 59.144C190.728 59.144 190.035 58.952 189.406 58.568C188.776 58.1733 188.275 57.6293 187.902 56.936C187.539 56.232 187.358 55.4373 187.358 54.552ZM194.574 54.584C194.574 53.976 194.446 53.448 194.19 53C193.944 52.552 193.619 52.2107 193.214 51.976C192.808 51.7413 192.371 51.624 191.902 51.624C191.432 51.624 190.995 51.7413 190.59 51.976C190.184 52.2 189.854 52.536 189.598 52.984C189.352 53.4213 189.23 53.944 189.23 54.552C189.23 55.16 189.352 55.6933 189.598 56.152C189.854 56.6107 190.184 56.9627 190.59 57.208C191.006 57.4427 191.443 57.56 191.902 57.56C192.371 57.56 192.808 57.4427 193.214 57.208C193.619 56.9733 193.944 56.632 194.19 56.184C194.446 55.7253 194.574 55.192 194.574 54.584ZM202.358 54.584C202.358 53.6773 202.539 52.8827 202.902 52.2C203.275 51.5067 203.787 50.9733 204.438 50.6C205.088 50.2267 205.835 50.04 206.678 50.04C207.744 50.04 208.624 50.296 209.318 50.808C210.022 51.3093 210.496 52.0293 210.742 52.968H208.774C208.614 52.5307 208.358 52.1893 208.006 51.944C207.654 51.6987 207.211 51.576 206.678 51.576C205.931 51.576 205.334 51.8427 204.886 52.376C204.448 52.8987 204.23 53.6347 204.23 54.584C204.23 55.5333 204.448 56.2747 204.886 56.808C205.334 57.3413 205.931 57.608 206.678 57.608C207.734 57.608 208.432 57.144 208.774 56.216H210.742C210.486 57.112 210.006 57.8267 209.302 58.36C208.598 58.8827 207.723 59.144 206.678 59.144C205.835 59.144 205.088 58.9573 204.438 58.584C203.787 58.2 203.275 57.6667 202.902 56.984C202.539 56.2907 202.358 55.4907 202.358 54.584ZM216.383 59.144C215.551 59.144 214.799 58.9573 214.127 58.584C213.455 58.2 212.927 57.6667 212.543 56.984C212.159 56.2907 211.967 55.4907 211.967 54.584C211.967 53.688 212.165 52.8933 212.559 52.2C212.954 51.5067 213.493 50.9733 214.175 50.6C214.858 50.2267 215.621 50.04 216.463 50.04C217.306 50.04 218.069 50.2267 218.751 50.6C219.434 50.9733 219.973 51.5067 220.367 52.2C220.762 52.8933 220.959 53.688 220.959 54.584C220.959 55.48 220.757 56.2747 220.351 56.968C219.946 57.6613 219.391 58.2 218.687 58.584C217.994 58.9573 217.226 59.144 216.383 59.144ZM216.383 57.56C216.853 57.56 217.29 57.448 217.695 57.224C218.111 57 218.447 56.664 218.703 56.216C218.959 55.768 219.087 55.224 219.087 54.584C219.087 53.944 218.965 53.4053 218.719 52.968C218.474 52.52 218.149 52.184 217.743 51.96C217.338 51.736 216.901 51.624 216.431 51.624C215.962 51.624 215.525 51.736 215.119 51.96C214.725 52.184 214.41 52.52 214.175 52.968C213.941 53.4053 213.823 53.944 213.823 54.584C213.823 55.5333 214.063 56.2693 214.543 56.792C215.034 57.304 215.647 57.56 216.383 57.56ZM233.435 50.04C234.128 50.04 234.747 50.184 235.291 50.472C235.845 50.76 236.277 51.1867 236.587 51.752C236.907 52.3173 237.067 53 237.067 53.8V59H235.259V54.072C235.259 53.2827 235.061 52.68 234.667 52.264C234.272 51.8373 233.733 51.624 233.051 51.624C232.368 51.624 231.824 51.8373 231.419 52.264C231.024 52.68 230.827 53.2827 230.827 54.072V59H229.019V54.072C229.019 53.2827 228.821 52.68 228.427 52.264C228.032 51.8373 227.493 51.624 226.811 51.624C226.128 51.624 225.584 51.8373 225.179 52.264C224.784 52.68 224.587 53.2827 224.587 54.072V59H222.763V50.184H224.587V51.192C224.885 50.8293 225.264 50.5467 225.723 50.344C226.181 50.1413 226.672 50.04 227.195 50.04C227.899 50.04 228.528 50.1893 229.083 50.488C229.637 50.7867 230.064 51.2187 230.363 51.784C230.629 51.2507 231.045 50.8293 231.611 50.52C232.176 50.2 232.784 50.04 233.435 50.04ZM246.744 59.144C246.05 59.144 245.426 59.0213 244.872 58.776C244.328 58.52 243.896 58.1787 243.576 57.752C243.256 57.3147 243.085 56.8293 243.064 56.296H244.952C244.984 56.6693 245.16 56.984 245.48 57.24C245.81 57.4853 246.221 57.608 246.712 57.608C247.224 57.608 247.618 57.512 247.896 57.32C248.184 57.1173 248.328 56.8613 248.328 56.552C248.328 56.2213 248.168 55.976 247.848 55.816C247.538 55.656 247.042 55.48 246.36 55.288C245.698 55.1067 245.16 54.9307 244.744 54.76C244.328 54.5893 243.965 54.328 243.656 53.976C243.357 53.624 243.208 53.16 243.208 52.584C243.208 52.1147 243.346 51.688 243.624 51.304C243.901 50.9093 244.296 50.6 244.808 50.376C245.33 50.152 245.928 50.04 246.6 50.04C247.602 50.04 248.408 50.296 249.016 50.808C249.634 51.3093 249.965 51.9973 250.008 52.872H248.184C248.152 52.4773 247.992 52.1627 247.704 51.928C247.416 51.6933 247.026 51.576 246.536 51.576C246.056 51.576 245.688 51.6667 245.432 51.848C245.176 52.0293 245.048 52.2693 245.048 52.568C245.048 52.8027 245.133 53 245.304 53.16C245.474 53.32 245.682 53.448 245.928 53.544C246.173 53.6293 246.536 53.7413 247.016 53.88C247.656 54.0507 248.178 54.2267 248.584 54.408C249 54.5787 249.357 54.8347 249.656 55.176C249.954 55.5173 250.109 55.9707 250.12 56.536C250.12 57.0373 249.981 57.4853 249.704 57.88C249.426 58.2747 249.032 58.584 248.52 58.808C248.018 59.032 247.426 59.144 246.744 59.144ZM260.075 50.184V59H258.251V57.96C257.963 58.3227 257.584 58.6107 257.115 58.824C256.656 59.0267 256.165 59.128 255.643 59.128C254.949 59.128 254.325 58.984 253.771 58.696C253.227 58.408 252.795 57.9813 252.475 57.416C252.165 56.8507 252.011 56.168 252.011 55.368V50.184H253.819V55.096C253.819 55.8853 254.016 56.4933 254.411 56.92C254.805 57.336 255.344 57.544 256.027 57.544C256.709 57.544 257.248 57.336 257.643 56.92C258.048 56.4933 258.251 55.8853 258.251 55.096V50.184H260.075ZM261.873 54.584C261.873 53.6773 262.055 52.8827 262.417 52.2C262.791 51.5067 263.303 50.9733 263.953 50.6C264.604 50.2267 265.351 50.04 266.193 50.04C267.26 50.04 268.14 50.296 268.833 50.808C269.537 51.3093 270.012 52.0293 270.257 52.968H268.289C268.129 52.5307 267.873 52.1893 267.521 51.944C267.169 51.6987 266.727 51.576 266.193 51.576C265.447 51.576 264.849 51.8427 264.401 52.376C263.964 52.8987 263.745 53.6347 263.745 54.584C263.745 55.5333 263.964 56.2747 264.401 56.808C264.849 57.3413 265.447 57.608 266.193 57.608C267.249 57.608 267.948 57.144 268.289 56.216H270.257C270.001 57.112 269.521 57.8267 268.817 58.36C268.113 58.8827 267.239 59.144 266.193 59.144C265.351 59.144 264.604 58.9573 263.953 58.584C263.303 58.2 262.791 57.6667 262.417 56.984C262.055 56.2907 261.873 55.4907 261.873 54.584ZM280.155 54.376C280.155 54.7067 280.134 55.0053 280.091 55.272H273.355C273.408 55.976 273.67 56.5413 274.139 56.968C274.608 57.3947 275.184 57.608 275.867 57.608C276.848 57.608 277.542 57.1973 277.947 56.376H279.915C279.648 57.1867 279.163 57.8533 278.459 58.376C277.766 58.888 276.902 59.144 275.867 59.144C275.024 59.144 274.267 58.9573 273.595 58.584C272.934 58.2 272.411 57.6667 272.027 56.984C271.654 56.2907 271.467 55.4907 271.467 54.584C271.467 53.6773 271.648 52.8827 272.011 52.2C272.384 51.5067 272.902 50.9733 273.563 50.6C274.235 50.2267 275.003 50.04 275.867 50.04C276.699 50.04 277.44 50.2213 278.091 50.584C278.742 50.9467 279.248 51.4587 279.611 52.12C279.974 52.7707 280.155 53.5227 280.155 54.376ZM278.251 53.8C278.24 53.128 278 52.5893 277.531 52.184C277.062 51.7787 276.48 51.576 275.787 51.576C275.158 51.576 274.619 51.7787 274.171 52.184C273.723 52.5787 273.456 53.1173 273.371 53.8H278.251ZM285.15 59.144C284.457 59.144 283.833 59.0213 283.278 58.776C282.734 58.52 282.302 58.1787 281.982 57.752C281.662 57.3147 281.491 56.8293 281.47 56.296H283.358C283.39 56.6693 283.566 56.984 283.886 57.24C284.217 57.4853 284.627 57.608 285.118 57.608C285.63 57.608 286.025 57.512 286.302 57.32C286.59 57.1173 286.734 56.8613 286.734 56.552C286.734 56.2213 286.574 55.976 286.254 55.816C285.945 55.656 285.449 55.48 284.766 55.288C284.105 55.1067 283.566 54.9307 283.15 54.76C282.734 54.5893 282.371 54.328 282.062 53.976C281.763 53.624 281.614 53.16 281.614 52.584C281.614 52.1147 281.753 51.688 282.03 51.304C282.307 50.9093 282.702 50.6 283.214 50.376C283.737 50.152 284.334 50.04 285.006 50.04C286.009 50.04 286.814 50.296 287.422 50.808C288.041 51.3093 288.371 51.9973 288.414 52.872H286.59C286.558 52.4773 286.398 52.1627 286.11 51.928C285.822 51.6933 285.433 51.576 284.942 51.576C284.462 51.576 284.094 51.6667 283.838 51.848C283.582 52.0293 283.454 52.2693 283.454 52.568C283.454 52.8027 283.539 53 283.71 53.16C283.881 53.32 284.089 53.448 284.334 53.544C284.579 53.6293 284.942 53.7413 285.422 53.88C286.062 54.0507 286.585 54.2267 286.99 54.408C287.406 54.5787 287.763 54.8347 288.062 55.176C288.361 55.5173 288.515 55.9707 288.526 56.536C288.526 57.0373 288.387 57.4853 288.11 57.88C287.833 58.2747 287.438 58.584 286.926 58.808C286.425 59.032 285.833 59.144 285.15 59.144ZM293.697 59.144C293.004 59.144 292.38 59.0213 291.825 58.776C291.281 58.52 290.849 58.1787 290.529 57.752C290.209 57.3147 290.038 56.8293 290.017 56.296H291.905C291.937 56.6693 292.113 56.984 292.433 57.24C292.764 57.4853 293.174 57.608 293.665 57.608C294.177 57.608 294.572 57.512 294.849 57.32C295.137 57.1173 295.281 56.8613 295.281 56.552C295.281 56.2213 295.121 55.976 294.801 55.816C294.492 55.656 293.996 55.48 293.313 55.288C292.652 55.1067 292.113 54.9307 291.697 54.76C291.281 54.5893 290.918 54.328 290.609 53.976C290.31 53.624 290.161 53.16 290.161 52.584C290.161 52.1147 290.3 51.688 290.577 51.304C290.854 50.9093 291.249 50.6 291.761 50.376C292.284 50.152 292.881 50.04 293.553 50.04C294.556 50.04 295.361 50.296 295.969 50.808C296.588 51.3093 296.918 51.9973 296.961 52.872H295.137C295.105 52.4773 294.945 52.1627 294.657 51.928C294.369 51.6933 293.98 51.576 293.489 51.576C293.009 51.576 292.641 51.6667 292.385 51.848C292.129 52.0293 292.001 52.2693 292.001 52.568C292.001 52.8027 292.086 53 292.257 53.16C292.428 53.32 292.636 53.448 292.881 53.544C293.126 53.6293 293.489 53.7413 293.969 53.88C294.609 54.0507 295.132 54.2267 295.537 54.408C295.953 54.5787 296.31 54.8347 296.609 55.176C296.908 55.5173 297.062 55.9707 297.073 56.536C297.073 57.0373 296.934 57.4853 296.657 57.88C296.38 58.2747 295.985 58.584 295.473 58.808C294.972 59.032 294.38 59.144 293.697 59.144ZM302.868 59.144C302.036 59.144 301.284 58.9573 300.612 58.584C299.94 58.2 299.412 57.6667 299.028 56.984C298.644 56.2907 298.452 55.4907 298.452 54.584C298.452 53.688 298.649 52.8933 299.044 52.2C299.438 51.5067 299.977 50.9733 300.66 50.6C301.342 50.2267 302.105 50.04 302.948 50.04C303.79 50.04 304.553 50.2267 305.236 50.6C305.918 50.9733 306.457 51.5067 306.852 52.2C307.246 52.8933 307.444 53.688 307.444 54.584C307.444 55.48 307.241 56.2747 306.836 56.968C306.43 57.6613 305.876 58.2 305.172 58.584C304.478 58.9573 303.71 59.144 302.868 59.144ZM302.868 57.56C303.337 57.56 303.774 57.448 304.18 57.224C304.596 57 304.932 56.664 305.188 56.216C305.444 55.768 305.572 55.224 305.572 54.584C305.572 53.944 305.449 53.4053 305.204 52.968C304.958 52.52 304.633 52.184 304.228 51.96C303.822 51.736 303.385 51.624 302.916 51.624C302.446 51.624 302.009 51.736 301.604 51.96C301.209 52.184 300.894 52.52 300.66 52.968C300.425 53.4053 300.308 53.944 300.308 54.584C300.308 55.5333 300.548 56.2693 301.028 56.792C301.518 57.304 302.132 57.56 302.868 57.56ZM311.535 47.88L311.327 55.64H309.807L309.599 47.88H311.535ZM310.623 59.112C310.292 59.112 310.015 59 309.791 58.776C309.567 58.552 309.455 58.2747 309.455 57.944C309.455 57.6133 309.567 57.336 309.791 57.112C310.015 56.888 310.292 56.776 310.623 56.776C310.943 56.776 311.215 56.888 311.439 57.112C311.663 57.336 311.775 57.6133 311.775 57.944C311.775 58.2747 311.663 58.552 311.439 58.776C311.215 59 310.943 59.112 310.623 59.112Z" fill="black"/>
</g>
<defs>
<filter id="filter0_d_3122_2380" x="0" y="0" width="348" height="116" filterUnits="userSpaceOnUse" color-interpolation-filters="sRGB">
<feFlood flood-opacity="0" result="BackgroundImageFix"/>
<feColorMatrix in="SourceAlpha" type="matrix" values="0 0 0 0 0 0 0 0 0 0 0 0 0 0 0 0 0 0 127 0" result="hardAlpha"/>
<feOffset dy="5"/>
<feGaussianBlur stdDeviation="10"/>
<feComposite in2="hardAlpha" operator="out"/>
<feColorMatrix type="matrix" values="0 0 0 0 0.164706 0 0 0 0 0.333333 0 0 0 0 0.760784 0 0 0 0.15 0"/>
<feBlend mode="normal" in2="BackgroundImageFix" result="effect1_dropShadow_3122_2380"/>
<feBlend mode="normal" in="SourceGraphic" in2="effect1_dropShadow_3122_2380" result="shape"/>
</filter>
</defs>
</svg>
