<svg width="31" height="32" viewBox="0 0 31 32" fill="none" xmlns="http://www.w3.org/2000/svg">
<g clip-path="url(#clip0_962_1030)">
<rect x="7.61328" y="6.83594" width="20.775" height="14.5422" rx="1" transform="rotate(15.06 7.61328 6.83594)" fill="#1F9DD3"/>
<path d="M5.23336 20.5434C4.68165 20.3949 4.26233 20.0716 3.9754 19.5734C3.68847 19.0752 3.61899 18.5499 3.76695 17.9973L6.46604 7.96619C6.61449 7.41448 6.93814 6.99525 7.43698 6.7085C7.93583 6.42175 8.46086 6.35218 9.01209 6.49978L25.0619 10.8183C25.6136 10.9668 26.0332 11.2905 26.3206 11.7895C26.608 12.2886 26.6772 12.8135 26.5283 13.3644L23.8292 23.3955C23.6808 23.9472 23.3574 24.3669 22.859 24.6545C22.3607 24.9421 21.8354 25.0112 21.2832 24.8619L5.23336 20.5434ZM10.0555 18.6137L18.0804 20.7729L18.6203 18.7667L10.5954 16.6074L10.0555 18.6137ZM7.85593 14.7946L9.86215 15.3344L10.402 13.3282L8.39575 12.7884L7.85593 14.7946ZM10.8653 15.6043L12.8715 16.1441L13.4113 14.1379L11.4051 13.5981L10.8653 15.6043ZM13.8746 16.414L15.8808 16.9539L16.4207 14.9476L14.4144 14.4078L13.8746 16.414ZM16.8839 17.2238L18.8902 17.7636L19.43 15.7574L17.4238 15.2175L16.8839 17.2238ZM19.8933 18.0335L21.8995 18.5733L22.4393 16.5671L20.4331 16.0273L19.8933 18.0335ZM8.66565 11.7853L10.6719 12.3251L11.2117 10.3188L9.20547 9.77903L8.66565 11.7853ZM11.675 12.595L13.6812 13.1348L14.221 11.1286L12.2148 10.5888L11.675 12.595ZM14.6843 13.4047L16.6906 13.9445L17.2304 11.9383L15.2242 11.3985L14.6843 13.4047ZM17.6937 14.2144L19.6999 14.7543L20.2397 12.748L18.2335 12.2082L17.6937 14.2144ZM20.703 15.0242L22.7092 15.564L23.2491 13.5578L21.2428 13.0179L20.703 15.0242Z" fill="#46C4FF"/>
</g>
<defs>
<clipPath id="clip0_962_1030">
<rect width="24.931" height="24.931" fill="white" transform="translate(6.47852 0.723633) rotate(15.06)"/>
</clipPath>
</defs>
</svg>
