<svg width="42" height="42" viewBox="0 0 42 42" fill="none" xmlns="http://www.w3.org/2000/svg">
<path fill-rule="evenodd" clip-rule="evenodd" d="M15.2727 11.1287C17.4972 10.3424 19.0909 8.22098 19.0909 5.72728C19.0909 2.5642 16.5268 0 13.3637 0C10.2006 0 7.63637 2.5642 7.63637 5.72728C7.63637 8.22098 9.2301 10.3424 11.4546 11.1287V20.9999C11.4546 24.1631 14.0188 26.7272 17.1818 26.7272H26.5929C27.2313 26.7272 27.8273 27.0462 28.1815 27.5773L33.3925 35.3941C34.7291 37.3989 37.5656 37.6799 39.2693 35.976L41.4409 33.8046C42.1864 33.0589 42.1864 31.8503 41.4409 31.1046C40.6954 30.3591 39.4865 30.3591 38.741 31.1046L36.5694 33.2762L31.3584 25.4594C30.2962 23.8661 28.5079 22.909 26.5929 22.909H17.1818C16.1275 22.909 15.2727 22.0543 15.2727 20.9999V19.0909H26.7273C27.7817 19.0909 28.6364 18.2362 28.6364 17.1818C28.6364 16.1275 27.7817 15.2728 26.7273 15.2728H15.2727V11.1287ZM13.3637 5.72681C12.1961 5.72681 13.3637 6.89436 13.3637 5.72681C12.1961 5.72681 13.3637 4.55929 13.3637 5.72681C14.5312 5.72681 13.3637 4.55929 13.3637 5.72681C14.5312 5.72681 13.3637 6.89436 13.3637 5.72681Z" fill="#F8F8FF"/>
<path d="M15.2727 11.1287C17.4972 10.3424 19.0909 8.22098 19.0909 5.72728C19.0909 2.5642 16.5268 0 13.3637 0C10.2006 0 7.63637 2.5642 7.63637 5.72728C7.63637 8.22098 9.2301 10.3424 11.4546 11.1287V20.9999C11.4546 24.1631 14.0188 26.7272 17.1818 26.7272H26.5929C27.2313 26.7272 27.8273 27.0462 28.1815 27.5773L33.3925 35.3941C34.7291 37.3989 37.5656 37.6799 39.2693 35.976L41.4409 33.8046C42.1864 33.0589 42.1864 31.8503 41.4409 31.1046C40.6954 30.3591 39.4865 30.3591 38.741 31.1046L36.5694 33.2762L31.3584 25.4594C30.2962 23.8661 28.5079 22.909 26.5929 22.909H17.1818C16.1275 22.909 15.2727 22.0543 15.2727 20.9999V19.0909H26.7273C27.7817 19.0909 28.6364 18.2362 28.6364 17.1818C28.6364 16.1275 27.7817 15.2728 26.7273 15.2728H15.2727V11.1287Z" fill="#F8F8FF"/>
<path d="M6.93535 15.4138C7.83715 14.8711 8.96774 15.3255 9.38596 16.2914C9.80419 17.2572 9.347 18.366 8.47246 18.9515C7.5026 19.6008 6.64399 20.4098 5.93503 21.3482C4.84142 22.7956 4.14124 24.5018 3.90266 26.3002C3.66409 28.0985 3.89524 29.928 4.57362 31.6107C5.25197 33.2932 6.35446 34.7714 7.77371 35.9016C9.19295 37.0316 10.8806 37.7748 12.6724 38.059C14.4642 38.3431 16.299 38.1585 17.9982 37.5231C19.6975 36.8876 21.2033 35.8231 22.369 34.4331C23.1247 33.5318 23.7207 32.5139 24.1363 31.4232C24.511 30.4396 25.4891 29.7457 26.5242 29.937C27.5591 30.1281 28.2553 31.1281 27.9283 32.1286C27.3623 33.8615 26.4684 35.4762 25.2894 36.8821C23.7008 38.7765 21.6489 40.2272 19.3332 41.0932C17.0175 41.9589 14.5171 42.2105 12.0754 41.8234C9.63361 41.436 7.33374 40.4231 5.39964 38.8832C3.46554 37.3433 1.96314 35.3288 1.03868 33.0358C0.114222 30.743 -0.200766 28.2497 0.12436 25.7988C0.449497 23.3481 1.40366 21.0232 2.89398 19.0506C3.99999 17.5867 5.37332 16.3539 6.93535 15.4138Z" fill="#F8F8FF"/>
</svg>
