<svg width="64" height="40" viewBox="0 0 64 40" fill="none" xmlns="http://www.w3.org/2000/svg">
<path d="M2.5 17.6253L6.17418 21.2995C6.90641 22.0317 8.09359 22.0317 8.82583 21.2995L12.5 17.6253" stroke="#6D6D6D" stroke-width="2" stroke-linecap="round" stroke-linejoin="round"/>
<circle cx="44" cy="20" r="20" fill="#D9D9D9"/>
<path fill-rule="evenodd" clip-rule="evenodd" d="M38.9831 13.7738C38.9831 12.4919 39.4923 11.2625 40.3987 10.3561C41.3051 9.44965 42.5345 8.94043 43.8164 8.94043C45.0983 8.94043 46.3277 9.44965 47.2341 10.3561C48.1405 11.2625 48.6497 12.4919 48.6497 13.7738C48.6497 15.0556 48.1405 16.285 47.2341 17.1914C46.3277 18.0979 45.0983 18.6071 43.8164 18.6071C42.5345 18.6071 41.3051 18.0979 40.3987 17.1914C39.4923 16.285 38.9831 15.0556 38.9831 13.7738ZM38.9831 21.0238C37.3807 21.0238 35.844 21.6603 34.711 22.7933C33.5779 23.9264 32.9414 25.4631 32.9414 27.0654C32.9414 28.0268 33.3233 28.9489 34.0031 29.6287C34.683 30.3085 35.605 30.6904 36.5664 30.6904H51.0664C52.0278 30.6904 52.9498 30.3085 53.6297 29.6287C54.3095 28.9489 54.6914 28.0268 54.6914 27.0654C54.6914 25.4631 54.0549 23.9264 52.9218 22.7933C51.7888 21.6603 50.2521 21.0238 48.6497 21.0238H38.9831Z" fill="black" fill-opacity="0.5"/>
</svg>
