<svg width="635" height="212" viewBox="0 0 635 212" fill="none" xmlns="http://www.w3.org/2000/svg">
<rect y="40" width="635" height="164" rx="30" fill="#FFF092"/>
<path d="M33.9524 47.1605C33.0799 41.7071 36.7935 36.5788 42.247 35.7063L115.525 23.9822C120.978 23.1097 126.106 26.8233 126.979 32.2768L139.558 110.901C141.74 124.535 132.456 137.356 118.822 139.537L75.1676 146.521C61.5339 148.703 48.7133 139.419 46.5319 125.785L33.9524 47.1605Z" fill="#FFC100"/>
<path d="M33.9524 47.1605C33.0799 41.7071 36.7935 36.5788 42.247 35.7063L115.525 23.9822C120.978 23.1097 126.106 26.8233 126.979 32.2768L134.958 82.1444C139.068 107.833 121.575 131.989 95.8861 136.1V136.1C70.1976 140.21 46.041 122.717 41.931 97.0281L33.9524 47.1605Z" fill="#46C4FF"/>
<path d="M33.9524 47.1605C33.0799 41.7071 36.7935 36.5788 42.247 35.7063L115.525 23.9822C120.978 23.1097 126.106 26.8233 126.979 32.2768L138.608 104.959C140.702 118.047 131.789 130.355 118.701 132.449L73.0715 139.75C59.9831 141.844 47.6753 132.931 45.5812 119.843L33.9524 47.1605Z" fill="#FEE333"/>
<path d="M50.0691 47.3136C49.9819 46.7683 50.3532 46.2554 50.8986 46.1682L111.689 36.4421C112.234 36.3548 112.747 36.7262 112.834 37.2715L120.59 85.7481C123.363 103.08 111.561 119.379 94.2286 122.152V122.152C76.8966 124.925 60.5982 113.122 57.8251 95.7901L50.0691 47.3136Z" fill="#FEC701"/>
<g clip-path="url(#clip0_1854_1318)">
<path d="M82.9754 58.6953C82.9431 59.3902 82.709 60.0189 82.5226 60.0487C82.3361 60.0786 81.977 61.1214 81.6564 62.4043C81.3824 63.6799 81.0233 64.7227 80.8368 64.7525C80.6503 64.7823 80.3066 65.9212 80.0557 67.3409C79.797 68.7125 79.461 69.8994 79.3211 69.9217C79.1347 69.9516 78.7679 70.9463 78.4319 72.1333C78.1502 73.3607 77.7522 74.459 77.6354 74.6255C77.472 74.7995 77.1283 75.9383 76.8542 77.2139C76.5802 78.4894 76.2365 79.6283 76.1197 79.7948C75.3805 80.5535 74.8161 83.5999 75.1004 85.3773L75.4079 87.2988L80.7689 86.441C86.0833 85.5907 86.1299 85.5833 86.1125 86.67C86.0726 87.3168 86.1843 90.1072 86.3504 92.9381C86.5165 95.7691 86.4807 98.5337 86.3322 99.0995C86.1447 99.7207 86.2585 101.328 86.5823 102.754L87.1448 105.374L89.1258 105.205C90.9203 105.066 91.1381 104.932 91.241 103.783C91.2732 103.088 91.5073 102.459 91.6938 102.429C91.8803 102.4 92.286 101.349 92.6066 100.066C92.8806 98.7907 93.2397 97.7479 93.3796 97.7256C93.566 97.6957 93.9097 96.5569 94.1607 95.1372C94.4194 93.7656 94.7554 92.5787 94.8952 92.5563C95.0817 92.5265 95.4485 91.5317 95.7768 90.2968C96.0662 89.1173 96.4176 88.0265 96.581 87.8526C96.6978 87.6861 97.1347 86.5323 97.502 85.2418C97.8693 83.9514 98.4783 82.0803 98.7985 81.093C99.1652 80.0983 99.3158 78.3498 99.1313 77.1969L98.8085 75.1793L93.4475 76.0371C88.1331 76.8873 88.0865 76.8948 88.0962 75.7601C88.1438 75.1613 88.0321 72.3709 87.866 69.54C87.6999 66.709 87.7357 63.9443 87.8842 63.3786C88.0717 62.7574 87.9579 61.1498 87.6341 59.7236L87.0715 57.1039L85.0906 57.273C83.296 57.4123 83.0783 57.5457 82.9754 58.6953Z" fill="#F89701"/>
<path d="M64.6808 64.4807C63.7075 65.8681 64.559 67.604 67.0723 69.5667C69.2055 71.2454 69.7644 71.4516 71.396 71.1905C72.981 70.9369 73.2377 70.7481 73.1306 69.7799C72.9169 67.5478 72.4829 66.9274 70.0547 65.1975C67.5178 63.3863 65.6152 63.1488 64.6808 64.4807Z" fill="#F89701"/>
<path d="M98.266 60.7324C96.4598 63.1892 96.2723 63.8104 96.7657 65.9977C97.0127 66.9436 97.3154 67.0429 98.9004 66.7893C100.532 66.5283 100.999 66.158 102.502 63.8976C104.277 61.2487 104.545 59.3338 103.187 58.3193C101.829 57.3048 100.15 58.1647 98.266 60.7324Z" fill="#F89701"/>
<path d="M71.7383 98.4298C69.8378 101.493 69.5873 102.617 70.6806 103.772C72.115 105.267 73.8716 104.592 75.997 101.739C77.6398 99.4563 77.8037 98.9866 77.4102 97.4238C76.9937 95.7168 76.8928 95.6837 75.1059 95.871C73.4123 96.0434 73.0701 96.2953 71.7383 98.4298Z" fill="#F89701"/>
<path d="M101.336 91.8709C101.172 92.0448 101.171 92.9319 101.317 93.8446C101.524 95.1416 102.059 95.795 104.107 97.241C106.698 99.0927 108.562 99.3857 109.535 97.9983C110.509 96.6109 109.657 94.875 107.144 92.9123C105.174 91.3553 104.405 91.0349 103.146 91.2362C102.261 91.378 101.445 91.6563 101.336 91.8709Z" fill="#F89701"/>
</g>
<path d="M102.665 25.7689L118.512 23.5L120.512 24L121.512 24.5019L122.512 25.0022L123.012 25.502L124.012 26.502L125.512 28.502L127.012 31.502L129.5 47.502L94.5772 95.023L58.6982 143.501L56 141.5L53.5119 139.501L51 136.5L49 133.5L47.5 130L46.5 127L46.2261 123.755L45.6437 120.114L43.4679 106.515L102.665 25.7689Z" fill="white" fill-opacity="0.29"/>
<path d="M517.779 162.651C516.95 162.275 516.261 161.613 515.821 160.768C515.381 159.924 515.215 158.946 515.349 157.989L522.72 106.358H503.159C502.539 106.376 501.923 106.24 501.359 105.962C500.796 105.683 500.299 105.269 499.907 104.751C499.516 104.233 499.241 103.625 499.102 102.975C498.964 102.324 498.966 101.648 499.109 100.999L511.259 44.3565C511.472 43.3817 511.992 42.5159 512.729 41.9048C513.467 41.2938 514.378 40.9748 515.309 41.0016H555.808C556.413 40.9993 557.01 41.143 557.557 41.422C558.104 41.701 558.585 42.1082 558.966 42.6137C559.353 43.1249 559.627 43.7238 559.767 44.3653C559.907 45.0068 559.911 45.6742 559.776 46.3172L552.77 80.2153H572.007C572.766 80.2137 573.51 80.4416 574.155 80.873C574.799 81.3044 575.318 81.922 575.652 82.6553C575.942 83.3591 576.054 84.1331 575.976 84.8985C575.897 85.6639 575.632 86.3933 575.207 87.0124L522.558 161.083C522.202 161.65 521.727 162.12 521.171 162.453C520.615 162.786 519.994 162.973 519.358 163C518.817 162.988 518.281 162.87 517.779 162.651Z" fill="#FEC701"/>
<path d="M185.48 78.08V82H181.78V69.46H186.48C188.493 69.46 189.913 69.8 190.74 70.48C191.58 71.1467 192 72.2733 192 73.86C192 74.8067 191.813 75.5867 191.44 76.2C191.08 76.8133 190.527 77.2733 189.78 77.58L192.52 82H188.28L186.18 78.08H185.48ZM188.22 73.92C188.22 73.5067 188.107 73.2133 187.88 73.04C187.653 72.8667 187.247 72.78 186.66 72.78H185.48V75.24H186.66C187.247 75.24 187.653 75.14 187.88 74.94C188.107 74.74 188.22 74.4 188.22 73.92ZM195.387 82.22C194.427 82.22 193.727 81.9667 193.287 81.46C192.847 80.9533 192.627 80.16 192.627 79.08C192.627 78.0133 192.901 77.2533 193.447 76.8C194.007 76.3467 194.934 76.12 196.227 76.12C196.534 76.12 196.841 76.1333 197.147 76.16C197.467 76.1867 197.747 76.22 197.987 76.26V75.76C197.987 75.4933 197.861 75.3067 197.607 75.2C197.354 75.08 196.941 75.02 196.367 75.02C195.821 75.02 195.321 75.0333 194.867 75.06C194.427 75.0867 193.981 75.14 193.527 75.22V72.28C194.021 72.16 194.614 72.0733 195.307 72.02C196.014 71.9533 196.821 71.92 197.727 71.92C198.981 71.92 199.934 72.2 200.587 72.76C201.254 73.3067 201.587 74.1133 201.587 75.18V82H198.187L198.087 81.22H198.027C197.627 81.5533 197.201 81.8067 196.747 81.98C196.307 82.14 195.854 82.22 195.387 82.22ZM196.807 78.16C196.461 78.16 196.214 78.2133 196.067 78.32C195.934 78.4133 195.867 78.5933 195.867 78.86C195.867 79.1267 195.921 79.3133 196.027 79.42C196.147 79.5133 196.347 79.56 196.627 79.56C196.854 79.56 197.087 79.54 197.327 79.5C197.581 79.4467 197.801 79.38 197.987 79.3V78.24C197.801 78.2133 197.607 78.1933 197.407 78.18C197.221 78.1667 197.021 78.16 196.807 78.16ZM206.531 71.3H202.831V68.7H206.531V71.3ZM206.491 82H202.891V72.12H206.491V82ZM217.552 77.06C217.552 78.9133 217.166 80.24 216.392 81.04C215.619 81.8267 214.332 82.22 212.532 82.22C210.759 82.22 209.479 81.82 208.692 81.02C207.919 80.2067 207.532 78.8867 207.532 77.06C207.532 75.22 207.912 73.9067 208.672 73.12C209.446 72.32 210.732 71.92 212.532 71.92C214.319 71.92 215.599 72.32 216.372 73.12C217.159 73.92 217.552 75.2333 217.552 77.06ZM211.132 77.02C211.132 77.7933 211.219 78.3 211.392 78.54C211.566 78.7667 211.946 78.88 212.532 78.88C213.132 78.88 213.519 78.7667 213.692 78.54C213.866 78.3 213.952 77.7933 213.952 77.02C213.952 76.2467 213.866 75.7467 213.692 75.52C213.519 75.28 213.132 75.16 212.532 75.16C211.946 75.16 211.566 75.28 211.392 75.52C211.219 75.7467 211.132 76.2467 211.132 77.02ZM227.288 68.7H230.888V82H227.688L227.508 81.08H227.408C227.061 81.4667 226.654 81.7533 226.188 81.94C225.721 82.1267 225.194 82.22 224.608 82.22C223.341 82.22 222.434 81.8267 221.888 81.04C221.341 80.24 221.068 78.9133 221.068 77.06C221.068 75.2733 221.408 73.9733 222.088 73.16C222.781 72.3333 223.881 71.92 225.388 71.92C225.734 71.92 226.068 71.94 226.388 71.98C226.708 72.02 227.008 72.08 227.288 72.16V68.7ZM226.068 75.16C225.481 75.16 225.101 75.2867 224.928 75.54C224.754 75.7933 224.668 76.3 224.668 77.06C224.668 77.7933 224.748 78.28 224.908 78.52C225.068 78.76 225.414 78.88 225.948 78.88C226.201 78.88 226.434 78.86 226.648 78.82C226.874 78.7667 227.088 78.6933 227.288 78.6V75.32C227.141 75.2667 226.961 75.2267 226.748 75.2C226.548 75.1733 226.321 75.16 226.068 75.16ZM234.586 82.22C233.626 82.22 232.926 81.9667 232.486 81.46C232.046 80.9533 231.826 80.16 231.826 79.08C231.826 78.0133 232.1 77.2533 232.646 76.8C233.206 76.3467 234.133 76.12 235.426 76.12C235.733 76.12 236.04 76.1333 236.346 76.16C236.666 76.1867 236.946 76.22 237.186 76.26V75.76C237.186 75.4933 237.06 75.3067 236.806 75.2C236.553 75.08 236.14 75.02 235.566 75.02C235.02 75.02 234.52 75.0333 234.066 75.06C233.626 75.0867 233.18 75.14 232.726 75.22V72.28C233.22 72.16 233.813 72.0733 234.506 72.02C235.213 71.9533 236.02 71.92 236.926 71.92C238.18 71.92 239.133 72.2 239.786 72.76C240.453 73.3067 240.786 74.1133 240.786 75.18V82H237.386L237.286 81.22H237.226C236.826 81.5533 236.4 81.8067 235.946 81.98C235.506 82.14 235.053 82.22 234.586 82.22ZM236.006 78.16C235.66 78.16 235.413 78.2133 235.266 78.32C235.133 78.4133 235.066 78.5933 235.066 78.86C235.066 79.1267 235.12 79.3133 235.226 79.42C235.346 79.5133 235.546 79.56 235.826 79.56C236.053 79.56 236.286 79.54 236.526 79.5C236.78 79.4467 237 79.38 237.186 79.3V78.24C237 78.2133 236.806 78.1933 236.606 78.18C236.42 78.1667 236.22 78.16 236.006 78.16ZM253.704 78.66V82H244.944V69.46H253.524V72.72H248.644V74.14H252.784V77.18H248.644V78.66H253.704ZM258.966 74.7C258.5 74.7 258.186 74.7333 258.026 74.8C257.866 74.8667 257.786 75 257.786 75.2C257.786 75.3067 257.813 75.3867 257.866 75.44C257.933 75.4933 258.026 75.5267 258.146 75.54L260.266 75.8C261.146 75.9067 261.746 76.1667 262.066 76.58C262.4 76.9933 262.566 77.6667 262.566 78.6C262.566 79.8533 262.253 80.7733 261.626 81.36C261.013 81.9333 259.98 82.22 258.526 82.22C257.74 82.22 257.013 82.18 256.346 82.1C255.693 82.0333 255.153 81.94 254.726 81.82V78.94C255.26 79.06 255.826 79.1533 256.426 79.22C257.026 79.2867 257.593 79.32 258.126 79.32C258.58 79.32 258.88 79.28 259.026 79.2C259.186 79.12 259.266 78.9667 259.266 78.74C259.266 78.66 259.24 78.5933 259.186 78.54C259.133 78.4733 259.053 78.4333 258.946 78.42L256.606 78.14C255.833 78.0333 255.273 77.76 254.926 77.32C254.593 76.88 254.426 76.22 254.426 75.34C254.426 74.1933 254.786 73.34 255.506 72.78C256.24 72.2067 257.326 71.92 258.766 71.92C259.42 71.92 260.013 71.94 260.546 71.98C261.08 72.0067 261.546 72.0533 261.946 72.12V74.92C261.493 74.8533 261 74.8 260.466 74.76C259.933 74.72 259.433 74.7 258.966 74.7ZM267.194 85.04H263.594V72.12H266.754L266.934 73.06H267.054C267.387 72.6733 267.787 72.3867 268.254 72.2C268.721 72.0133 269.254 71.92 269.854 71.92C271.134 71.92 272.041 72.3133 272.574 73.1C273.121 73.8733 273.394 75.1933 273.394 77.06C273.394 78.8467 273.047 80.1533 272.354 80.98C271.674 81.7933 270.581 82.2 269.074 82.2C268.727 82.2 268.394 82.18 268.074 82.14C267.754 82.1 267.461 82.04 267.194 81.96V85.04ZM269.794 77.06C269.794 76.3 269.714 75.7933 269.554 75.54C269.394 75.2867 269.047 75.16 268.514 75.16C268.274 75.16 268.041 75.1867 267.814 75.24C267.601 75.28 267.394 75.3467 267.194 75.44V78.72C267.341 78.7733 267.514 78.8133 267.714 78.84C267.914 78.8667 268.147 78.88 268.414 78.88C269.001 78.88 269.374 78.7667 269.534 78.54C269.707 78.3 269.794 77.8067 269.794 77.06ZM282.893 78.78V81.52C282.52 81.7067 281.94 81.8667 281.153 82C280.38 82.1467 279.573 82.22 278.733 82.22C277.12 82.22 275.953 81.82 275.233 81.02C274.526 80.2067 274.173 78.8933 274.173 77.08C274.173 75.3067 274.553 74.0067 275.313 73.18C276.086 72.34 277.286 71.92 278.913 71.92C280.486 71.92 281.613 72.2333 282.293 72.86C282.973 73.4733 283.313 74.5267 283.313 76.02C283.313 76.4733 283.306 76.84 283.293 77.12C283.28 77.3867 283.253 77.6933 283.213 78.04H277.733C277.746 78.4667 277.866 78.76 278.093 78.92C278.32 79.0667 278.726 79.14 279.313 79.14C279.953 79.14 280.606 79.1067 281.273 79.04C281.953 78.96 282.493 78.8733 282.893 78.78ZM278.953 74.76C278.5 74.76 278.18 74.8533 277.993 75.04C277.82 75.2133 277.733 75.5667 277.733 76.1H280.113V75.64C280.086 75.2933 279.993 75.06 279.833 74.94C279.686 74.82 279.393 74.76 278.953 74.76ZM287.995 82H284.395V72.12H287.755L287.875 72.88H287.915C288.328 72.5733 288.735 72.34 289.135 72.18C289.548 72.02 289.948 71.94 290.335 71.94H290.675V75.42C290.368 75.3933 290.162 75.38 290.055 75.38C289.962 75.3667 289.862 75.36 289.755 75.36C289.422 75.36 289.108 75.38 288.815 75.42C288.522 75.46 288.248 75.52 287.995 75.6V82ZM293.493 82.22C292.533 82.22 291.833 81.9667 291.393 81.46C290.953 80.9533 290.733 80.16 290.733 79.08C290.733 78.0133 291.006 77.2533 291.553 76.8C292.113 76.3467 293.039 76.12 294.333 76.12C294.639 76.12 294.946 76.1333 295.253 76.16C295.573 76.1867 295.853 76.22 296.093 76.26V75.76C296.093 75.4933 295.966 75.3067 295.713 75.2C295.459 75.08 295.046 75.02 294.473 75.02C293.926 75.02 293.426 75.0333 292.973 75.06C292.533 75.0867 292.086 75.14 291.633 75.22V72.28C292.126 72.16 292.719 72.0733 293.413 72.02C294.119 71.9533 294.926 71.92 295.833 71.92C297.086 71.92 298.039 72.2 298.693 72.76C299.359 73.3067 299.693 74.1133 299.693 75.18V82H296.293L296.193 81.22H296.133C295.733 81.5533 295.306 81.8067 294.853 81.98C294.413 82.14 293.959 82.22 293.493 82.22ZM294.913 78.16C294.566 78.16 294.319 78.2133 294.173 78.32C294.039 78.4133 293.973 78.5933 293.973 78.86C293.973 79.1267 294.026 79.3133 294.133 79.42C294.253 79.5133 294.453 79.56 294.733 79.56C294.959 79.56 295.193 79.54 295.433 79.5C295.686 79.4467 295.906 79.38 296.093 79.3V78.24C295.906 78.2133 295.713 78.1933 295.513 78.18C295.326 78.1667 295.126 78.16 294.913 78.16ZM304.596 82H300.996V72.12H304.096L304.236 73.16H304.316C304.716 72.7333 305.156 72.42 305.636 72.22C306.116 72.02 306.683 71.92 307.336 71.92C308.376 71.92 309.163 72.1933 309.696 72.74C310.23 73.2867 310.496 74.0933 310.496 75.16V82H306.896V75.9C306.896 75.66 306.81 75.48 306.636 75.36C306.476 75.2267 306.23 75.16 305.896 75.16C305.67 75.16 305.45 75.1867 305.236 75.24C305.023 75.28 304.81 75.3467 304.596 75.44V82ZM318.637 84.18C318.637 84.7533 318.437 85.18 318.037 85.46C317.637 85.7533 317.037 85.9 316.237 85.9C315.85 85.9 315.443 85.8733 315.017 85.82C314.603 85.78 314.337 85.7333 314.217 85.68V84.24C314.377 84.28 314.61 84.32 314.917 84.36C315.223 84.4 315.49 84.42 315.717 84.42C315.943 84.42 316.103 84.3867 316.197 84.32C316.29 84.2667 316.337 84.16 316.337 84C316.337 83.8667 316.27 83.7667 316.137 83.7C316.017 83.6333 315.817 83.6 315.537 83.6C315.417 83.6 315.25 83.6067 315.037 83.62C314.837 83.6333 314.677 83.64 314.557 83.64L314.857 82.2C313.643 82.1067 312.783 81.6733 312.277 80.9C311.783 80.1267 311.537 78.8467 311.537 77.06C311.537 75.14 311.91 73.8067 312.657 73.06C313.417 72.3 314.75 71.92 316.657 71.92C317.057 71.92 317.423 71.9333 317.757 71.96C318.09 71.9733 318.537 72.0133 319.097 72.08V75.24C319.083 75.24 318.817 75.2267 318.297 75.2C317.777 75.1733 317.243 75.16 316.697 75.16C316.017 75.16 315.583 75.2667 315.397 75.48C315.223 75.6933 315.137 76.22 315.137 77.06C315.137 77.82 315.217 78.3133 315.377 78.54C315.537 78.7533 315.883 78.86 316.417 78.86C316.91 78.86 317.423 78.8267 317.957 78.76C318.49 78.6933 318.957 78.6133 319.357 78.52V81.48C319.157 81.6133 318.843 81.74 318.417 81.86C318.003 81.9667 317.543 82.0533 317.037 82.12L316.917 82.76C317.437 82.76 317.85 82.8867 318.157 83.14C318.477 83.3933 318.637 83.74 318.637 84.18ZM322.692 82.22C321.732 82.22 321.032 81.9667 320.592 81.46C320.152 80.9533 319.932 80.16 319.932 79.08C319.932 78.0133 320.205 77.2533 320.752 76.8C321.312 76.3467 322.239 76.12 323.532 76.12C323.839 76.12 324.145 76.1333 324.452 76.16C324.772 76.1867 325.052 76.22 325.292 76.26V75.76C325.292 75.4933 325.165 75.3067 324.912 75.2C324.659 75.08 324.245 75.02 323.672 75.02C323.125 75.02 322.625 75.0333 322.172 75.06C321.732 75.0867 321.285 75.14 320.832 75.22V72.28C321.325 72.16 321.919 72.0733 322.612 72.02C323.319 71.9533 324.125 71.92 325.032 71.92C326.285 71.92 327.239 72.2 327.892 72.76C328.559 73.3067 328.892 74.1133 328.892 75.18V82H325.492L325.392 81.22H325.332C324.932 81.5533 324.505 81.8067 324.052 81.98C323.612 82.14 323.159 82.22 322.692 82.22ZM324.112 78.16C323.765 78.16 323.519 78.2133 323.372 78.32C323.239 78.4133 323.172 78.5933 323.172 78.86C323.172 79.1267 323.225 79.3133 323.332 79.42C323.452 79.5133 323.652 79.56 323.932 79.56C324.159 79.56 324.392 79.54 324.632 79.5C324.885 79.4467 325.105 79.38 325.292 79.3V78.24C325.105 78.2133 324.912 78.1933 324.712 78.18C324.525 78.1667 324.325 78.16 324.112 78.16Z" fill="#945A01"/>
<path d="M212.55 106.172C213.586 106.172 214.491 106.377 215.266 106.788C216.041 107.199 216.638 107.777 217.058 108.524C217.487 109.261 217.702 110.115 217.702 111.086C217.702 112.047 217.487 112.901 217.058 113.648C216.638 114.395 216.036 114.973 215.252 115.384C214.477 115.795 213.577 116 212.55 116H208.868V106.172H212.55ZM212.396 113.928C213.301 113.928 214.006 113.681 214.51 113.186C215.014 112.691 215.266 111.991 215.266 111.086C215.266 110.181 215.014 109.476 214.51 108.972C214.006 108.468 213.301 108.216 212.396 108.216H211.262V113.928H212.396ZM223.688 116.098C222.764 116.098 221.915 115.883 221.14 115.454C220.375 115.025 219.763 114.427 219.306 113.662C218.858 112.887 218.634 112.019 218.634 111.058C218.634 110.097 218.858 109.233 219.306 108.468C219.763 107.703 220.375 107.105 221.14 106.676C221.915 106.247 222.764 106.032 223.688 106.032C224.612 106.032 225.457 106.247 226.222 106.676C226.997 107.105 227.603 107.703 228.042 108.468C228.49 109.233 228.714 110.097 228.714 111.058C228.714 112.019 228.49 112.887 228.042 113.662C227.594 114.427 226.987 115.025 226.222 115.454C225.457 115.883 224.612 116.098 223.688 116.098ZM223.688 113.914C224.472 113.914 225.097 113.653 225.564 113.13C226.04 112.607 226.278 111.917 226.278 111.058C226.278 110.19 226.04 109.499 225.564 108.986C225.097 108.463 224.472 108.202 223.688 108.202C222.895 108.202 222.26 108.459 221.784 108.972C221.317 109.485 221.084 110.181 221.084 111.058C221.084 111.926 221.317 112.621 221.784 113.144C222.26 113.657 222.895 113.914 223.688 113.914ZM232.44 108.09V110.078H235.646V111.926H232.44V114.082H236.066V116H230.046V106.172H236.066V108.09H232.44ZM240.433 108.664C240.47 107.665 240.797 106.895 241.413 106.354C242.029 105.813 242.864 105.542 243.919 105.542C244.619 105.542 245.216 105.663 245.711 105.906C246.215 106.149 246.593 106.48 246.845 106.9C247.106 107.32 247.237 107.791 247.237 108.314C247.237 108.93 247.083 109.434 246.775 109.826C246.467 110.209 246.107 110.47 245.697 110.61V110.666C246.229 110.843 246.649 111.137 246.957 111.548C247.265 111.959 247.419 112.486 247.419 113.13C247.419 113.709 247.283 114.222 247.013 114.67C246.751 115.109 246.364 115.454 245.851 115.706C245.347 115.958 244.745 116.084 244.045 116.084C242.925 116.084 242.029 115.809 241.357 115.258C240.694 114.707 240.344 113.877 240.307 112.766H242.631C242.64 113.177 242.757 113.503 242.981 113.746C243.205 113.979 243.531 114.096 243.961 114.096C244.325 114.096 244.605 113.993 244.801 113.788C245.006 113.573 245.109 113.293 245.109 112.948C245.109 112.5 244.964 112.178 244.675 111.982C244.395 111.777 243.942 111.674 243.317 111.674H242.869V109.728H243.317C243.793 109.728 244.175 109.649 244.465 109.49C244.763 109.322 244.913 109.028 244.913 108.608C244.913 108.272 244.819 108.011 244.633 107.824C244.446 107.637 244.189 107.544 243.863 107.544C243.508 107.544 243.242 107.651 243.065 107.866C242.897 108.081 242.799 108.347 242.771 108.664H240.433ZM261.256 106.172L257.77 116H254.774L251.288 106.172H253.836L256.272 113.592L258.722 106.172H261.256ZM264.651 108.09V110.078H267.857V111.926H264.651V114.082H268.277V116H262.257V106.172H268.277V108.09H264.651ZM272.379 114.04H276.607V116H269.663V114.18L273.863 108.132H269.663V106.172H276.607V107.992L272.379 114.04ZM280.565 108.09V110.078H283.771V111.926H280.565V114.082H284.191V116H278.171V106.172H284.191V108.09H280.565ZM289.301 116.098C288.582 116.098 287.938 115.981 287.369 115.748C286.8 115.515 286.342 115.169 285.997 114.712C285.661 114.255 285.484 113.704 285.465 113.06H288.013C288.05 113.424 288.176 113.704 288.391 113.9C288.606 114.087 288.886 114.18 289.231 114.18C289.586 114.18 289.866 114.101 290.071 113.942C290.276 113.774 290.379 113.545 290.379 113.256C290.379 113.013 290.295 112.813 290.127 112.654C289.968 112.495 289.768 112.365 289.525 112.262C289.292 112.159 288.956 112.043 288.517 111.912C287.882 111.716 287.364 111.52 286.963 111.324C286.562 111.128 286.216 110.839 285.927 110.456C285.638 110.073 285.493 109.574 285.493 108.958C285.493 108.043 285.824 107.329 286.487 106.816C287.15 106.293 288.013 106.032 289.077 106.032C290.16 106.032 291.032 106.293 291.695 106.816C292.358 107.329 292.712 108.048 292.759 108.972H290.169C290.15 108.655 290.034 108.407 289.819 108.23C289.604 108.043 289.329 107.95 288.993 107.95C288.704 107.95 288.47 108.029 288.293 108.188C288.116 108.337 288.027 108.557 288.027 108.846C288.027 109.163 288.176 109.411 288.475 109.588C288.774 109.765 289.24 109.957 289.875 110.162C290.51 110.377 291.023 110.582 291.415 110.778C291.816 110.974 292.162 111.259 292.451 111.632C292.74 112.005 292.885 112.486 292.885 113.074C292.885 113.634 292.74 114.143 292.451 114.6C292.171 115.057 291.76 115.421 291.219 115.692C290.678 115.963 290.038 116.098 289.301 116.098Z" fill="#945A01"/>
<path d="M192.298 144.27V154H190.702V147.336L187.734 154H186.628L183.646 147.336V154H182.05V144.27H183.772L187.188 151.9L190.59 144.27H192.298ZM201.466 149.954C201.466 150.243 201.447 150.505 201.41 150.738H195.516C195.562 151.354 195.791 151.849 196.202 152.222C196.612 152.595 197.116 152.782 197.714 152.782C198.572 152.782 199.179 152.423 199.534 151.704H201.256C201.022 152.413 200.598 152.997 199.982 153.454C199.375 153.902 198.619 154.126 197.714 154.126C196.976 154.126 196.314 153.963 195.726 153.636C195.147 153.3 194.69 152.833 194.354 152.236C194.027 151.629 193.864 150.929 193.864 150.136C193.864 149.343 194.022 148.647 194.34 148.05C194.666 147.443 195.119 146.977 195.698 146.65C196.286 146.323 196.958 146.16 197.714 146.16C198.442 146.16 199.09 146.319 199.66 146.636C200.229 146.953 200.672 147.401 200.99 147.98C201.307 148.549 201.466 149.207 201.466 149.954ZM199.8 149.45C199.79 148.862 199.58 148.391 199.17 148.036C198.759 147.681 198.25 147.504 197.644 147.504C197.093 147.504 196.622 147.681 196.23 148.036C195.838 148.381 195.604 148.853 195.53 149.45H199.8ZM205.836 154.126C205.23 154.126 204.684 154.019 204.198 153.804C203.722 153.58 203.344 153.281 203.064 152.908C202.784 152.525 202.635 152.101 202.616 151.634H204.268C204.296 151.961 204.45 152.236 204.73 152.46C205.02 152.675 205.379 152.782 205.808 152.782C206.256 152.782 206.602 152.698 206.844 152.53C207.096 152.353 207.222 152.129 207.222 151.858C207.222 151.569 207.082 151.354 206.802 151.214C206.532 151.074 206.098 150.92 205.5 150.752C204.922 150.593 204.45 150.439 204.086 150.29C203.722 150.141 203.405 149.912 203.134 149.604C202.873 149.296 202.742 148.89 202.742 148.386C202.742 147.975 202.864 147.602 203.106 147.266C203.349 146.921 203.694 146.65 204.142 146.454C204.6 146.258 205.122 146.16 205.71 146.16C206.588 146.16 207.292 146.384 207.824 146.832C208.366 147.271 208.655 147.873 208.692 148.638H207.096C207.068 148.293 206.928 148.017 206.676 147.812C206.424 147.607 206.084 147.504 205.654 147.504C205.234 147.504 204.912 147.583 204.688 147.742C204.464 147.901 204.352 148.111 204.352 148.372C204.352 148.577 204.427 148.75 204.576 148.89C204.726 149.03 204.908 149.142 205.122 149.226C205.337 149.301 205.654 149.399 206.074 149.52C206.634 149.669 207.092 149.823 207.446 149.982C207.81 150.131 208.123 150.355 208.384 150.654C208.646 150.953 208.781 151.349 208.79 151.844C208.79 152.283 208.669 152.675 208.426 153.02C208.184 153.365 207.838 153.636 207.39 153.832C206.952 154.028 206.434 154.126 205.836 154.126ZM219.853 146.16C220.46 146.16 221.001 146.286 221.477 146.538C221.962 146.79 222.34 147.163 222.611 147.658C222.891 148.153 223.031 148.75 223.031 149.45V154H221.449V149.688C221.449 148.997 221.276 148.47 220.931 148.106C220.586 147.733 220.114 147.546 219.517 147.546C218.92 147.546 218.444 147.733 218.089 148.106C217.744 148.47 217.571 148.997 217.571 149.688V154H215.989V149.688C215.989 148.997 215.816 148.47 215.471 148.106C215.126 147.733 214.654 147.546 214.057 147.546C213.46 147.546 212.984 147.733 212.629 148.106C212.284 148.47 212.111 148.997 212.111 149.688V154H210.515V146.286H212.111V147.168C212.372 146.851 212.704 146.603 213.105 146.426C213.506 146.249 213.936 146.16 214.393 146.16C215.009 146.16 215.56 146.291 216.045 146.552C216.53 146.813 216.904 147.191 217.165 147.686C217.398 147.219 217.762 146.851 218.257 146.58C218.752 146.3 219.284 146.16 219.853 146.16ZM228.408 154.126C227.68 154.126 227.022 153.963 226.434 153.636C225.846 153.3 225.384 152.833 225.048 152.236C224.712 151.629 224.544 150.929 224.544 150.136C224.544 149.352 224.716 148.657 225.062 148.05C225.407 147.443 225.878 146.977 226.476 146.65C227.073 146.323 227.74 146.16 228.478 146.16C229.215 146.16 229.882 146.323 230.48 146.65C231.077 146.977 231.548 147.443 231.894 148.05C232.239 148.657 232.412 149.352 232.412 150.136C232.412 150.92 232.234 151.615 231.88 152.222C231.525 152.829 231.04 153.3 230.424 153.636C229.817 153.963 229.145 154.126 228.408 154.126ZM228.408 152.74C228.818 152.74 229.201 152.642 229.556 152.446C229.92 152.25 230.214 151.956 230.438 151.564C230.662 151.172 230.774 150.696 230.774 150.136C230.774 149.576 230.666 149.105 230.452 148.722C230.237 148.33 229.952 148.036 229.598 147.84C229.243 147.644 228.86 147.546 228.45 147.546C228.039 147.546 227.656 147.644 227.302 147.84C226.956 148.036 226.681 148.33 226.476 148.722C226.27 149.105 226.168 149.576 226.168 150.136C226.168 150.967 226.378 151.611 226.798 152.068C227.227 152.516 227.764 152.74 228.408 152.74ZM241.518 146.16C242.125 146.16 242.666 146.286 243.142 146.538C243.628 146.79 244.006 147.163 244.276 147.658C244.547 148.153 244.682 148.75 244.682 149.45V154H243.1V149.688C243.1 148.997 242.928 148.47 242.582 148.106C242.237 147.733 241.766 147.546 241.168 147.546C240.571 147.546 240.095 147.733 239.74 148.106C239.395 148.47 239.222 148.997 239.222 149.688V154H237.626V146.286H239.222V147.168C239.484 146.851 239.815 146.603 240.216 146.426C240.627 146.249 241.061 146.16 241.518 146.16ZM246.186 150.108C246.186 149.333 246.345 148.647 246.662 148.05C246.989 147.453 247.427 146.991 247.978 146.664C248.538 146.328 249.154 146.16 249.826 146.16C250.433 146.16 250.96 146.281 251.408 146.524C251.865 146.757 252.229 147.051 252.5 147.406V146.286H254.11V154H252.5V152.852C252.229 153.216 251.861 153.519 251.394 153.762C250.927 154.005 250.395 154.126 249.798 154.126C249.135 154.126 248.529 153.958 247.978 153.622C247.427 153.277 246.989 152.801 246.662 152.194C246.345 151.578 246.186 150.883 246.186 150.108ZM252.5 150.136C252.5 149.604 252.388 149.142 252.164 148.75C251.949 148.358 251.665 148.059 251.31 147.854C250.955 147.649 250.573 147.546 250.162 147.546C249.751 147.546 249.369 147.649 249.014 147.854C248.659 148.05 248.37 148.344 248.146 148.736C247.931 149.119 247.824 149.576 247.824 150.108C247.824 150.64 247.931 151.107 248.146 151.508C248.37 151.909 248.659 152.217 249.014 152.432C249.378 152.637 249.761 152.74 250.162 152.74C250.573 152.74 250.955 152.637 251.31 152.432C251.665 152.227 251.949 151.928 252.164 151.536C252.388 151.135 252.5 150.668 252.5 150.136ZM259.006 154.126C258.4 154.126 257.854 154.019 257.368 153.804C256.892 153.58 256.514 153.281 256.234 152.908C255.954 152.525 255.805 152.101 255.786 151.634H257.438C257.466 151.961 257.62 152.236 257.9 152.46C258.19 152.675 258.549 152.782 258.978 152.782C259.426 152.782 259.772 152.698 260.014 152.53C260.266 152.353 260.392 152.129 260.392 151.858C260.392 151.569 260.252 151.354 259.972 151.214C259.702 151.074 259.268 150.92 258.67 150.752C258.092 150.593 257.62 150.439 257.256 150.29C256.892 150.141 256.575 149.912 256.304 149.604C256.043 149.296 255.912 148.89 255.912 148.386C255.912 147.975 256.034 147.602 256.276 147.266C256.519 146.921 256.864 146.65 257.312 146.454C257.77 146.258 258.292 146.16 258.88 146.16C259.758 146.16 260.462 146.384 260.994 146.832C261.536 147.271 261.825 147.873 261.862 148.638H260.266C260.238 148.293 260.098 148.017 259.846 147.812C259.594 147.607 259.254 147.504 258.824 147.504C258.404 147.504 258.082 147.583 257.858 147.742C257.634 147.901 257.522 148.111 257.522 148.372C257.522 148.577 257.597 148.75 257.746 148.89C257.896 149.03 258.078 149.142 258.292 149.226C258.507 149.301 258.824 149.399 259.244 149.52C259.804 149.669 260.262 149.823 260.616 149.982C260.98 150.131 261.293 150.355 261.554 150.654C261.816 150.953 261.951 151.349 261.96 151.844C261.96 152.283 261.839 152.675 261.596 153.02C261.354 153.365 261.008 153.636 260.56 153.832C260.122 154.028 259.604 154.126 259.006 154.126ZM269.183 147.588V151.858C269.183 152.147 269.249 152.357 269.379 152.488C269.519 152.609 269.753 152.67 270.079 152.67H271.059V154H269.799C269.081 154 268.53 153.832 268.147 153.496C267.765 153.16 267.573 152.614 267.573 151.858V147.588H266.663V146.286H267.573V144.368H269.183V146.286H271.059V147.588H269.183ZM279.6 149.954C279.6 150.243 279.582 150.505 279.544 150.738H273.65C273.697 151.354 273.926 151.849 274.336 152.222C274.747 152.595 275.251 152.782 275.848 152.782C276.707 152.782 277.314 152.423 277.668 151.704H279.39C279.157 152.413 278.732 152.997 278.116 153.454C277.51 153.902 276.754 154.126 275.848 154.126C275.111 154.126 274.448 153.963 273.86 153.636C273.282 153.3 272.824 152.833 272.488 152.236C272.162 151.629 271.998 150.929 271.998 150.136C271.998 149.343 272.157 148.647 272.474 148.05C272.801 147.443 273.254 146.977 273.832 146.65C274.42 146.323 275.092 146.16 275.848 146.16C276.576 146.16 277.225 146.319 277.794 146.636C278.364 146.953 278.807 147.401 279.124 147.98C279.442 148.549 279.6 149.207 279.6 149.954ZM277.934 149.45C277.925 148.862 277.715 148.391 277.304 148.036C276.894 147.681 276.385 147.504 275.778 147.504C275.228 147.504 274.756 147.681 274.364 148.036C273.972 148.381 273.739 148.853 273.664 149.45H277.934ZM290.509 146.16C291.116 146.16 291.657 146.286 292.133 146.538C292.618 146.79 292.996 147.163 293.267 147.658C293.547 148.153 293.687 148.75 293.687 149.45V154H292.105V149.688C292.105 148.997 291.932 148.47 291.587 148.106C291.242 147.733 290.77 147.546 290.173 147.546C289.576 147.546 289.1 147.733 288.745 148.106C288.4 148.47 288.227 148.997 288.227 149.688V154H286.645V149.688C286.645 148.997 286.472 148.47 286.127 148.106C285.782 147.733 285.31 147.546 284.713 147.546C284.116 147.546 283.64 147.733 283.285 148.106C282.94 148.47 282.767 148.997 282.767 149.688V154H281.171V146.286H282.767V147.168C283.028 146.851 283.36 146.603 283.761 146.426C284.162 146.249 284.592 146.16 285.049 146.16C285.665 146.16 286.216 146.291 286.701 146.552C287.186 146.813 287.56 147.191 287.821 147.686C288.054 147.219 288.418 146.851 288.913 146.58C289.408 146.3 289.94 146.16 290.509 146.16ZM297.314 147.42C297.585 147.065 297.953 146.767 298.42 146.524C298.887 146.281 299.414 146.16 300.002 146.16C300.674 146.16 301.285 146.328 301.836 146.664C302.396 146.991 302.835 147.453 303.152 148.05C303.469 148.647 303.628 149.333 303.628 150.108C303.628 150.883 303.469 151.578 303.152 152.194C302.835 152.801 302.396 153.277 301.836 153.622C301.285 153.958 300.674 154.126 300.002 154.126C299.414 154.126 298.891 154.009 298.434 153.776C297.977 153.533 297.603 153.235 297.314 152.88V157.668H295.718V146.286H297.314V147.42ZM302.004 150.108C302.004 149.576 301.892 149.119 301.668 148.736C301.453 148.344 301.164 148.05 300.8 147.854C300.445 147.649 300.063 147.546 299.652 147.546C299.251 147.546 298.868 147.649 298.504 147.854C298.149 148.059 297.86 148.358 297.636 148.75C297.421 149.142 297.314 149.604 297.314 150.136C297.314 150.668 297.421 151.135 297.636 151.536C297.86 151.928 298.149 152.227 298.504 152.432C298.868 152.637 299.251 152.74 299.652 152.74C300.063 152.74 300.445 152.637 300.8 152.432C301.164 152.217 301.453 151.909 301.668 151.508C301.892 151.107 302.004 150.64 302.004 150.108ZM312.276 149.954C312.276 150.243 312.258 150.505 312.22 150.738H306.326C306.373 151.354 306.602 151.849 307.012 152.222C307.423 152.595 307.927 152.782 308.524 152.782C309.383 152.782 309.99 152.423 310.344 151.704H312.066C311.833 152.413 311.408 152.997 310.792 153.454C310.186 153.902 309.43 154.126 308.524 154.126C307.787 154.126 307.124 153.963 306.536 153.636C305.958 153.3 305.5 152.833 305.164 152.236C304.838 151.629 304.674 150.929 304.674 150.136C304.674 149.343 304.833 148.647 305.15 148.05C305.477 147.443 305.93 146.977 306.508 146.65C307.096 146.323 307.768 146.16 308.524 146.16C309.252 146.16 309.901 146.319 310.47 146.636C311.04 146.953 311.483 147.401 311.8 147.98C312.118 148.549 312.276 149.207 312.276 149.954ZM310.61 149.45C310.601 148.862 310.391 148.391 309.98 148.036C309.57 147.681 309.061 147.504 308.454 147.504C307.904 147.504 307.432 147.681 307.04 148.036C306.648 148.381 306.415 148.853 306.34 149.45H310.61ZM316.647 154.126C316.04 154.126 315.494 154.019 315.009 153.804C314.533 153.58 314.155 153.281 313.875 152.908C313.595 152.525 313.446 152.101 313.427 151.634H315.079C315.107 151.961 315.261 152.236 315.541 152.46C315.83 152.675 316.19 152.782 316.619 152.782C317.067 152.782 317.412 152.698 317.655 152.53C317.907 152.353 318.033 152.129 318.033 151.858C318.033 151.569 317.893 151.354 317.613 151.214C317.342 151.074 316.908 150.92 316.311 150.752C315.732 150.593 315.261 150.439 314.897 150.29C314.533 150.141 314.216 149.912 313.945 149.604C313.684 149.296 313.553 148.89 313.553 148.386C313.553 147.975 313.674 147.602 313.917 147.266C314.16 146.921 314.505 146.65 314.953 146.454C315.41 146.258 315.933 146.16 316.521 146.16C317.398 146.16 318.103 146.384 318.635 146.832C319.176 147.271 319.466 147.873 319.503 148.638H317.907C317.879 148.293 317.739 148.017 317.487 147.812C317.235 147.607 316.894 147.504 316.465 147.504C316.045 147.504 315.723 147.583 315.499 147.742C315.275 147.901 315.163 148.111 315.163 148.372C315.163 148.577 315.238 148.75 315.387 148.89C315.536 149.03 315.718 149.142 315.933 149.226C316.148 149.301 316.465 149.399 316.885 149.52C317.445 149.669 317.902 149.823 318.257 149.982C318.621 150.131 318.934 150.355 319.195 150.654C319.456 150.953 319.592 151.349 319.601 151.844C319.601 152.283 319.48 152.675 319.237 153.02C318.994 153.365 318.649 153.636 318.201 153.832C317.762 154.028 317.244 154.126 316.647 154.126ZM323.187 147.588V151.858C323.187 152.147 323.253 152.357 323.383 152.488C323.523 152.609 323.757 152.67 324.083 152.67H325.063V154H323.803C323.085 154 322.534 153.832 322.151 153.496C321.769 153.16 321.577 152.614 321.577 151.858V147.588H320.667V146.286H321.577V144.368H323.187V146.286H325.063V147.588H323.187ZM326.002 150.108C326.002 149.333 326.161 148.647 326.478 148.05C326.805 147.453 327.244 146.991 327.794 146.664C328.354 146.328 328.97 146.16 329.642 146.16C330.249 146.16 330.776 146.281 331.224 146.524C331.682 146.757 332.046 147.051 332.316 147.406V146.286H333.926V154H332.316V152.852C332.046 153.216 331.677 153.519 331.21 153.762C330.744 154.005 330.212 154.126 329.614 154.126C328.952 154.126 328.345 153.958 327.794 153.622C327.244 153.277 326.805 152.801 326.478 152.194C326.161 151.578 326.002 150.883 326.002 150.108ZM332.316 150.136C332.316 149.604 332.204 149.142 331.98 148.75C331.766 148.358 331.481 148.059 331.126 147.854C330.772 147.649 330.389 147.546 329.978 147.546C329.568 147.546 329.185 147.649 328.83 147.854C328.476 148.05 328.186 148.344 327.962 148.736C327.748 149.119 327.64 149.576 327.64 150.108C327.64 150.64 327.748 151.107 327.962 151.508C328.186 151.909 328.476 152.217 328.83 152.432C329.194 152.637 329.577 152.74 329.978 152.74C330.389 152.74 330.772 152.637 331.126 152.432C331.481 152.227 331.766 151.928 331.98 151.536C332.204 151.135 332.316 150.668 332.316 150.136ZM335.491 150.108C335.491 149.333 335.649 148.647 335.967 148.05C336.293 147.453 336.732 146.991 337.283 146.664C337.843 146.328 338.463 146.16 339.145 146.16C339.649 146.16 340.143 146.272 340.629 146.496C341.123 146.711 341.515 147 341.805 147.364V143.64H343.415V154H341.805V152.838C341.543 153.211 341.179 153.519 340.713 153.762C340.255 154.005 339.728 154.126 339.131 154.126C338.459 154.126 337.843 153.958 337.283 153.622C336.732 153.277 336.293 152.801 335.967 152.194C335.649 151.578 335.491 150.883 335.491 150.108ZM341.805 150.136C341.805 149.604 341.693 149.142 341.469 148.75C341.254 148.358 340.969 148.059 340.615 147.854C340.26 147.649 339.877 147.546 339.467 147.546C339.056 147.546 338.673 147.649 338.319 147.854C337.964 148.05 337.675 148.344 337.451 148.736C337.236 149.119 337.129 149.576 337.129 150.108C337.129 150.64 337.236 151.107 337.451 151.508C337.675 151.909 337.964 152.217 338.319 152.432C338.683 152.637 339.065 152.74 339.467 152.74C339.877 152.74 340.26 152.637 340.615 152.432C340.969 152.227 341.254 151.928 341.469 151.536C341.693 151.135 341.805 150.668 341.805 150.136ZM352.581 149.954C352.581 150.243 352.562 150.505 352.525 150.738H346.631C346.678 151.354 346.906 151.849 347.317 152.222C347.728 152.595 348.232 152.782 348.829 152.782C349.688 152.782 350.294 152.423 350.649 151.704H352.371C352.138 152.413 351.713 152.997 351.097 153.454C350.49 153.902 349.734 154.126 348.829 154.126C348.092 154.126 347.429 153.963 346.841 153.636C346.262 153.3 345.805 152.833 345.469 152.236C345.142 151.629 344.979 150.929 344.979 150.136C344.979 149.343 345.138 148.647 345.455 148.05C345.782 147.443 346.234 146.977 346.813 146.65C347.401 146.323 348.073 146.16 348.829 146.16C349.557 146.16 350.206 146.319 350.775 146.636C351.344 146.953 351.788 147.401 352.105 147.98C352.422 148.549 352.581 149.207 352.581 149.954ZM350.915 149.45C350.906 148.862 350.696 148.391 350.285 148.036C349.874 147.681 349.366 147.504 348.759 147.504C348.208 147.504 347.737 147.681 347.345 148.036C346.953 148.381 346.72 148.853 346.645 149.45H350.915ZM356.952 154.126C356.345 154.126 355.799 154.019 355.314 153.804C354.838 153.58 354.46 153.281 354.18 152.908C353.9 152.525 353.75 152.101 353.732 151.634H355.384C355.412 151.961 355.566 152.236 355.846 152.46C356.135 152.675 356.494 152.782 356.924 152.782C357.372 152.782 357.717 152.698 357.96 152.53C358.212 152.353 358.338 152.129 358.338 151.858C358.338 151.569 358.198 151.354 357.918 151.214C357.647 151.074 357.213 150.92 356.616 150.752C356.037 150.593 355.566 150.439 355.202 150.29C354.838 150.141 354.52 149.912 354.25 149.604C353.988 149.296 353.858 148.89 353.858 148.386C353.858 147.975 353.979 147.602 354.222 147.266C354.464 146.921 354.81 146.65 355.258 146.454C355.715 146.258 356.238 146.16 356.826 146.16C357.703 146.16 358.408 146.384 358.94 146.832C359.481 147.271 359.77 147.873 359.808 148.638H358.212C358.184 148.293 358.044 148.017 357.792 147.812C357.54 147.607 357.199 147.504 356.77 147.504C356.35 147.504 356.028 147.583 355.804 147.742C355.58 147.901 355.468 148.111 355.468 148.372C355.468 148.577 355.542 148.75 355.692 148.89C355.841 149.03 356.023 149.142 356.238 149.226C356.452 149.301 356.77 149.399 357.19 149.52C357.75 149.669 358.207 149.823 358.562 149.982C358.926 150.131 359.238 150.355 359.5 150.654C359.761 150.953 359.896 151.349 359.906 151.844C359.906 152.283 359.784 152.675 359.542 153.02C359.299 153.365 358.954 153.636 358.506 153.832C358.067 154.028 357.549 154.126 356.952 154.126ZM363.38 152.082L361.686 155.946H360.65L361.644 152.082H363.38ZM371.757 154.126C371.029 154.126 370.371 153.963 369.783 153.636C369.195 153.3 368.733 152.833 368.397 152.236C368.061 151.629 367.893 150.929 367.893 150.136C367.893 149.352 368.066 148.657 368.411 148.05C368.757 147.443 369.228 146.977 369.825 146.65C370.423 146.323 371.09 146.16 371.827 146.16C372.565 146.16 373.232 146.323 373.829 146.65C374.427 146.977 374.898 147.443 375.243 148.05C375.589 148.657 375.761 149.352 375.761 150.136C375.761 150.92 375.584 151.615 375.229 152.222C374.875 152.829 374.389 153.3 373.773 153.636C373.167 153.963 372.495 154.126 371.757 154.126ZM371.757 152.74C372.168 152.74 372.551 152.642 372.905 152.446C373.269 152.25 373.563 151.956 373.787 151.564C374.011 151.172 374.123 150.696 374.123 150.136C374.123 149.576 374.016 149.105 373.801 148.722C373.587 148.33 373.302 148.036 372.947 147.84C372.593 147.644 372.21 147.546 371.799 147.546C371.389 147.546 371.006 147.644 370.651 147.84C370.306 148.036 370.031 148.33 369.825 148.722C369.62 149.105 369.517 149.576 369.517 150.136C369.517 150.967 369.727 151.611 370.147 152.068C370.577 152.516 371.113 152.74 371.757 152.74ZM382.572 147.406C382.805 147.014 383.113 146.711 383.496 146.496C383.888 146.272 384.35 146.16 384.882 146.16V147.812H384.476C383.85 147.812 383.374 147.971 383.048 148.288C382.73 148.605 382.572 149.156 382.572 149.94V154H380.976V146.286H382.572V147.406ZM385.817 150.108C385.817 149.333 385.975 148.647 386.293 148.05C386.619 147.453 387.058 146.991 387.609 146.664C388.169 146.328 388.785 146.16 389.457 146.16C390.063 146.16 390.591 146.281 391.039 146.524C391.496 146.757 391.86 147.051 392.131 147.406V146.286H393.741V154H392.131V152.852C391.86 153.216 391.491 153.519 391.025 153.762C390.558 154.005 390.026 154.126 389.429 154.126C388.766 154.126 388.159 153.958 387.609 153.622C387.058 153.277 386.619 152.801 386.293 152.194C385.975 151.578 385.817 150.883 385.817 150.108ZM392.131 150.136C392.131 149.604 392.019 149.142 391.795 148.75C391.58 148.358 391.295 148.059 390.941 147.854C390.586 147.649 390.203 147.546 389.793 147.546C389.382 147.546 388.999 147.649 388.645 147.854C388.29 148.05 388.001 148.344 387.777 148.736C387.562 149.119 387.455 149.576 387.455 150.108C387.455 150.64 387.562 151.107 387.777 151.508C388.001 151.909 388.29 152.217 388.645 152.432C389.009 152.637 389.391 152.74 389.793 152.74C390.203 152.74 390.586 152.637 390.941 152.432C391.295 152.227 391.58 151.928 391.795 151.536C392.019 151.135 392.131 150.668 392.131 150.136ZM396.649 145.264C396.36 145.264 396.117 145.166 395.921 144.97C395.725 144.774 395.627 144.531 395.627 144.242C395.627 143.953 395.725 143.71 395.921 143.514C396.117 143.318 396.36 143.22 396.649 143.22C396.929 143.22 397.167 143.318 397.363 143.514C397.559 143.71 397.657 143.953 397.657 144.242C397.657 144.531 397.559 144.774 397.363 144.97C397.167 145.166 396.929 145.264 396.649 145.264ZM397.433 146.286V154H395.837V146.286H397.433ZM402.875 154.126C402.147 154.126 401.489 153.963 400.901 153.636C400.313 153.3 399.851 152.833 399.515 152.236C399.179 151.629 399.011 150.929 399.011 150.136C399.011 149.352 399.183 148.657 399.529 148.05C399.874 147.443 400.345 146.977 400.943 146.65C401.54 146.323 402.207 146.16 402.945 146.16C403.682 146.16 404.349 146.323 404.947 146.65C405.544 146.977 406.015 147.443 406.361 148.05C406.706 148.657 406.879 149.352 406.879 150.136C406.879 150.92 406.701 151.615 406.347 152.222C405.992 152.829 405.507 153.3 404.891 153.636C404.284 153.963 403.612 154.126 402.875 154.126ZM402.875 152.74C403.285 152.74 403.668 152.642 404.023 152.446C404.387 152.25 404.681 151.956 404.905 151.564C405.129 151.172 405.241 150.696 405.241 150.136C405.241 149.576 405.133 149.105 404.919 148.722C404.704 148.33 404.419 148.036 404.065 147.84C403.71 147.644 403.327 147.546 402.917 147.546C402.506 147.546 402.123 147.644 401.769 147.84C401.423 148.036 401.148 148.33 400.943 148.722C400.737 149.105 400.635 149.576 400.635 150.136C400.635 150.967 400.845 151.611 401.265 152.068C401.694 152.516 402.231 152.74 402.875 152.74ZM411.561 150.108C411.561 149.333 411.72 148.647 412.037 148.05C412.364 147.453 412.802 146.991 413.353 146.664C413.913 146.328 414.534 146.16 415.215 146.16C415.719 146.16 416.214 146.272 416.699 146.496C417.194 146.711 417.586 147 417.875 147.364V143.64H419.485V154H417.875V152.838C417.614 153.211 417.25 153.519 416.783 153.762C416.326 154.005 415.798 154.126 415.201 154.126C414.529 154.126 413.913 153.958 413.353 153.622C412.802 153.277 412.364 152.801 412.037 152.194C411.72 151.578 411.561 150.883 411.561 150.108ZM417.875 150.136C417.875 149.604 417.763 149.142 417.539 148.75C417.324 148.358 417.04 148.059 416.685 147.854C416.33 147.649 415.948 147.546 415.537 147.546C415.126 147.546 414.744 147.649 414.389 147.854C414.034 148.05 413.745 148.344 413.521 148.736C413.306 149.119 413.199 149.576 413.199 150.108C413.199 150.64 413.306 151.107 413.521 151.508C413.745 151.909 414.034 152.217 414.389 152.432C414.753 152.637 415.136 152.74 415.537 152.74C415.948 152.74 416.33 152.637 416.685 152.432C417.04 152.227 417.324 151.928 417.539 151.536C417.763 151.135 417.875 150.668 417.875 150.136ZM421.049 150.108C421.049 149.333 421.208 148.647 421.525 148.05C421.852 147.453 422.291 146.991 422.841 146.664C423.401 146.328 424.017 146.16 424.689 146.16C425.296 146.16 425.823 146.281 426.271 146.524C426.729 146.757 427.093 147.051 427.363 147.406V146.286H428.973V154H427.363V152.852C427.093 153.216 426.724 153.519 426.257 153.762C425.791 154.005 425.259 154.126 424.661 154.126C423.999 154.126 423.392 153.958 422.841 153.622C422.291 153.277 421.852 152.801 421.525 152.194C421.208 151.578 421.049 150.883 421.049 150.108ZM427.363 150.136C427.363 149.604 427.251 149.142 427.027 148.75C426.813 148.358 426.528 148.059 426.173 147.854C425.819 147.649 425.436 147.546 425.025 147.546C424.615 147.546 424.232 147.649 423.877 147.854C423.523 148.05 423.233 148.344 423.009 148.736C422.795 149.119 422.687 149.576 422.687 150.108C422.687 150.64 422.795 151.107 423.009 151.508C423.233 151.909 423.523 152.217 423.877 152.432C424.241 152.637 424.624 152.74 425.025 152.74C425.436 152.74 425.819 152.637 426.173 152.432C426.528 152.227 426.813 151.928 427.027 151.536C427.251 151.135 427.363 150.668 427.363 150.136ZM189.12 170.954C189.12 171.243 189.101 171.505 189.064 171.738H183.17C183.217 172.354 183.445 172.849 183.856 173.222C184.267 173.595 184.771 173.782 185.368 173.782C186.227 173.782 186.833 173.423 187.188 172.704H188.91C188.677 173.413 188.252 173.997 187.636 174.454C187.029 174.902 186.273 175.126 185.368 175.126C184.631 175.126 183.968 174.963 183.38 174.636C182.801 174.3 182.344 173.833 182.008 173.236C181.681 172.629 181.518 171.929 181.518 171.136C181.518 170.343 181.677 169.647 181.994 169.05C182.321 168.443 182.773 167.977 183.352 167.65C183.94 167.323 184.612 167.16 185.368 167.16C186.096 167.16 186.745 167.319 187.314 167.636C187.883 167.953 188.327 168.401 188.644 168.98C188.961 169.549 189.12 170.207 189.12 170.954ZM187.454 170.45C187.445 169.862 187.235 169.391 186.824 169.036C186.413 168.681 185.905 168.504 185.298 168.504C184.747 168.504 184.276 168.681 183.884 169.036C183.492 169.381 183.259 169.853 183.184 170.45H187.454ZM193.491 175.126C192.884 175.126 192.338 175.019 191.853 174.804C191.377 174.58 190.999 174.281 190.719 173.908C190.439 173.525 190.289 173.101 190.271 172.634H191.923C191.951 172.961 192.105 173.236 192.385 173.46C192.674 173.675 193.033 173.782 193.463 173.782C193.911 173.782 194.256 173.698 194.499 173.53C194.751 173.353 194.877 173.129 194.877 172.858C194.877 172.569 194.737 172.354 194.457 172.214C194.186 172.074 193.752 171.92 193.155 171.752C192.576 171.593 192.105 171.439 191.741 171.29C191.377 171.141 191.059 170.912 190.789 170.604C190.527 170.296 190.397 169.89 190.397 169.386C190.397 168.975 190.518 168.602 190.761 168.266C191.003 167.921 191.349 167.65 191.797 167.454C192.254 167.258 192.777 167.16 193.365 167.16C194.242 167.16 194.947 167.384 195.479 167.832C196.02 168.271 196.309 168.873 196.347 169.638H194.751C194.723 169.293 194.583 169.017 194.331 168.812C194.079 168.607 193.738 168.504 193.309 168.504C192.889 168.504 192.567 168.583 192.343 168.742C192.119 168.901 192.007 169.111 192.007 169.372C192.007 169.577 192.081 169.75 192.231 169.89C192.38 170.03 192.562 170.142 192.777 170.226C192.991 170.301 193.309 170.399 193.729 170.52C194.289 170.669 194.746 170.823 195.101 170.982C195.465 171.131 195.777 171.355 196.039 171.654C196.3 171.953 196.435 172.349 196.445 172.844C196.445 173.283 196.323 173.675 196.081 174.02C195.838 174.365 195.493 174.636 195.045 174.832C194.606 175.028 194.088 175.126 193.491 175.126ZM199.765 168.42C200.036 168.065 200.404 167.767 200.871 167.524C201.338 167.281 201.865 167.16 202.453 167.16C203.125 167.16 203.736 167.328 204.287 167.664C204.847 167.991 205.286 168.453 205.603 169.05C205.92 169.647 206.079 170.333 206.079 171.108C206.079 171.883 205.92 172.578 205.603 173.194C205.286 173.801 204.847 174.277 204.287 174.622C203.736 174.958 203.125 175.126 202.453 175.126C201.865 175.126 201.342 175.009 200.885 174.776C200.428 174.533 200.054 174.235 199.765 173.88V178.668H198.169V167.286H199.765V168.42ZM204.455 171.108C204.455 170.576 204.343 170.119 204.119 169.736C203.904 169.344 203.615 169.05 203.251 168.854C202.896 168.649 202.514 168.546 202.103 168.546C201.702 168.546 201.319 168.649 200.955 168.854C200.6 169.059 200.311 169.358 200.087 169.75C199.872 170.142 199.765 170.604 199.765 171.136C199.765 171.668 199.872 172.135 200.087 172.536C200.311 172.928 200.6 173.227 200.955 173.432C201.319 173.637 201.702 173.74 202.103 173.74C202.514 173.74 202.896 173.637 203.251 173.432C203.615 173.217 203.904 172.909 204.119 172.508C204.343 172.107 204.455 171.64 204.455 171.108ZM214.727 170.954C214.727 171.243 214.709 171.505 214.671 171.738H208.777C208.824 172.354 209.053 172.849 209.463 173.222C209.874 173.595 210.378 173.782 210.975 173.782C211.834 173.782 212.441 173.423 212.795 172.704H214.517C214.284 173.413 213.859 173.997 213.243 174.454C212.637 174.902 211.881 175.126 210.975 175.126C210.238 175.126 209.575 174.963 208.987 174.636C208.409 174.3 207.951 173.833 207.615 173.236C207.289 172.629 207.125 171.929 207.125 171.136C207.125 170.343 207.284 169.647 207.601 169.05C207.928 168.443 208.381 167.977 208.959 167.65C209.547 167.323 210.219 167.16 210.975 167.16C211.703 167.16 212.352 167.319 212.921 167.636C213.491 167.953 213.934 168.401 214.251 168.98C214.569 169.549 214.727 170.207 214.727 170.954ZM213.061 170.45C213.052 169.862 212.842 169.391 212.431 169.036C212.021 168.681 211.512 168.504 210.905 168.504C210.355 168.504 209.883 168.681 209.491 169.036C209.099 169.381 208.866 169.853 208.791 170.45H213.061ZM217.894 168.406C218.127 168.014 218.435 167.711 218.818 167.496C219.21 167.272 219.672 167.16 220.204 167.16V168.812H219.798C219.173 168.812 218.697 168.971 218.37 169.288C218.053 169.605 217.894 170.156 217.894 170.94V175H216.298V167.286H217.894V168.406ZM221.139 171.108C221.139 170.333 221.298 169.647 221.615 169.05C221.942 168.453 222.38 167.991 222.931 167.664C223.491 167.328 224.107 167.16 224.779 167.16C225.386 167.16 225.913 167.281 226.361 167.524C226.818 167.757 227.182 168.051 227.453 168.406V167.286H229.063V175H227.453V173.852C227.182 174.216 226.814 174.519 226.347 174.762C225.88 175.005 225.348 175.126 224.751 175.126C224.088 175.126 223.482 174.958 222.931 174.622C222.38 174.277 221.942 173.801 221.615 173.194C221.298 172.578 221.139 171.883 221.139 171.108ZM227.453 171.136C227.453 170.604 227.341 170.142 227.117 169.75C226.902 169.358 226.618 169.059 226.263 168.854C225.908 168.649 225.526 168.546 225.115 168.546C224.704 168.546 224.322 168.649 223.967 168.854C223.612 169.05 223.323 169.344 223.099 169.736C222.884 170.119 222.777 170.576 222.777 171.108C222.777 171.64 222.884 172.107 223.099 172.508C223.323 172.909 223.612 173.217 223.967 173.432C224.331 173.637 224.714 173.74 225.115 173.74C225.526 173.74 225.908 173.637 226.263 173.432C226.618 173.227 226.902 172.928 227.117 172.536C227.341 172.135 227.453 171.668 227.453 171.136ZM235.051 167.16C235.658 167.16 236.199 167.286 236.675 167.538C237.161 167.79 237.539 168.163 237.809 168.658C238.08 169.153 238.215 169.75 238.215 170.45V175H236.633V170.688C236.633 169.997 236.461 169.47 236.115 169.106C235.77 168.733 235.299 168.546 234.701 168.546C234.104 168.546 233.628 168.733 233.273 169.106C232.928 169.47 232.755 169.997 232.755 170.688V175H231.159V167.286H232.755V168.168C233.017 167.851 233.348 167.603 233.749 167.426C234.16 167.249 234.594 167.16 235.051 167.16ZM243.499 173.782C244.423 173.782 245.035 173.376 245.333 172.564H247.055C246.85 173.273 246.481 173.857 245.949 174.314C245.427 174.762 244.769 175.023 243.975 175.098V175.672C244.517 175.672 244.955 175.798 245.291 176.05C245.627 176.311 245.795 176.675 245.795 177.142C245.795 177.609 245.627 177.977 245.291 178.248C244.955 178.528 244.531 178.668 244.017 178.668H242.169V177.66H243.695C243.957 177.66 244.153 177.623 244.283 177.548C244.414 177.473 244.479 177.338 244.479 177.142C244.479 176.946 244.414 176.811 244.283 176.736C244.153 176.661 243.957 176.624 243.695 176.624H242.925V175.084C242.291 175.009 241.731 174.799 241.245 174.454C240.76 174.099 240.382 173.642 240.111 173.082C239.85 172.513 239.719 171.864 239.719 171.136C239.719 170.343 239.878 169.647 240.195 169.05C240.522 168.443 240.97 167.977 241.539 167.65C242.109 167.323 242.762 167.16 243.499 167.16C244.433 167.16 245.203 167.384 245.809 167.832C246.425 168.271 246.841 168.901 247.055 169.722H245.333C245.193 169.339 244.969 169.041 244.661 168.826C244.353 168.611 243.966 168.504 243.499 168.504C242.846 168.504 242.323 168.737 241.931 169.204C241.549 169.661 241.357 170.305 241.357 171.136C241.357 171.967 241.549 172.615 241.931 173.082C242.323 173.549 242.846 173.782 243.499 173.782ZM248.114 171.108C248.114 170.333 248.272 169.647 248.59 169.05C248.916 168.453 249.355 167.991 249.906 167.664C250.466 167.328 251.082 167.16 251.754 167.16C252.36 167.16 252.888 167.281 253.336 167.524C253.793 167.757 254.157 168.051 254.428 168.406V167.286H256.038V175H254.428V173.852C254.157 174.216 253.788 174.519 253.322 174.762C252.855 175.005 252.323 175.126 251.726 175.126C251.063 175.126 250.456 174.958 249.906 174.622C249.355 174.277 248.916 173.801 248.59 173.194C248.272 172.578 248.114 171.883 248.114 171.108ZM254.428 171.136C254.428 170.604 254.316 170.142 254.092 169.75C253.877 169.358 253.592 169.059 253.238 168.854C252.883 168.649 252.5 168.546 252.09 168.546C251.679 168.546 251.296 168.649 250.942 168.854C250.587 169.05 250.298 169.344 250.074 169.736C249.859 170.119 249.752 170.576 249.752 171.108C249.752 171.64 249.859 172.107 250.074 172.508C250.298 172.909 250.587 173.217 250.942 173.432C251.306 173.637 251.688 173.74 252.09 173.74C252.5 173.74 252.883 173.637 253.238 173.432C253.592 173.227 253.877 172.928 254.092 172.536C254.316 172.135 254.428 171.668 254.428 171.136ZM262.583 166.264C262.293 166.264 262.051 166.166 261.855 165.97C261.659 165.774 261.561 165.531 261.561 165.242C261.561 164.953 261.659 164.71 261.855 164.514C262.051 164.318 262.293 164.22 262.583 164.22C262.863 164.22 263.101 164.318 263.297 164.514C263.493 164.71 263.591 164.953 263.591 165.242C263.591 165.531 263.493 165.774 263.297 165.97C263.101 166.166 262.863 166.264 262.583 166.264ZM263.367 167.286V175H261.771V167.286H263.367ZM267.058 164.64V175H265.462V164.64H267.058ZM276.14 167.286V175H274.544V174.09C274.292 174.407 273.96 174.659 273.55 174.846C273.148 175.023 272.719 175.112 272.262 175.112C271.655 175.112 271.109 174.986 270.624 174.734C270.148 174.482 269.77 174.109 269.49 173.614C269.219 173.119 269.084 172.522 269.084 171.822V167.286H270.666V171.584C270.666 172.275 270.838 172.807 271.184 173.18C271.529 173.544 272 173.726 272.598 173.726C273.195 173.726 273.666 173.544 274.012 173.18C274.366 172.807 274.544 172.275 274.544 171.584V167.286H276.14ZM287.583 167.16C288.19 167.16 288.731 167.286 289.207 167.538C289.693 167.79 290.071 168.163 290.341 168.658C290.621 169.153 290.761 169.75 290.761 170.45V175H289.179V170.688C289.179 169.997 289.007 169.47 288.661 169.106C288.316 168.733 287.845 168.546 287.247 168.546C286.65 168.546 286.174 168.733 285.819 169.106C285.474 169.47 285.301 169.997 285.301 170.688V175H283.719V170.688C283.719 169.997 283.547 169.47 283.201 169.106C282.856 168.733 282.385 168.546 281.787 168.546C281.19 168.546 280.714 168.733 280.359 169.106C280.014 169.47 279.841 169.997 279.841 170.688V175H278.245V167.286H279.841V168.168C280.103 167.851 280.434 167.603 280.835 167.426C281.237 167.249 281.666 167.16 282.123 167.16C282.739 167.16 283.29 167.291 283.775 167.552C284.261 167.813 284.634 168.191 284.895 168.686C285.129 168.219 285.493 167.851 285.987 167.58C286.482 167.3 287.014 167.16 287.583 167.16ZM293.604 166.264C293.315 166.264 293.072 166.166 292.876 165.97C292.68 165.774 292.582 165.531 292.582 165.242C292.582 164.953 292.68 164.71 292.876 164.514C293.072 164.318 293.315 164.22 293.604 164.22C293.884 164.22 294.122 164.318 294.318 164.514C294.514 164.71 294.612 164.953 294.612 165.242C294.612 165.531 294.514 165.774 294.318 165.97C294.122 166.166 293.884 166.264 293.604 166.264ZM294.388 167.286V175H292.792V167.286H294.388ZM300.376 167.16C300.982 167.16 301.524 167.286 302 167.538C302.485 167.79 302.863 168.163 303.134 168.658C303.404 169.153 303.54 169.75 303.54 170.45V175H301.958V170.688C301.958 169.997 301.785 169.47 301.44 169.106C301.094 168.733 300.623 168.546 300.026 168.546C299.428 168.546 298.952 168.733 298.598 169.106C298.252 169.47 298.08 169.997 298.08 170.688V175H296.484V167.286H298.08V168.168C298.341 167.851 298.672 167.603 299.074 167.426C299.484 167.249 299.918 167.16 300.376 167.16ZM305.043 171.108C305.043 170.333 305.202 169.647 305.519 169.05C305.846 168.453 306.285 167.991 306.835 167.664C307.395 167.328 308.011 167.16 308.683 167.16C309.29 167.16 309.817 167.281 310.265 167.524C310.723 167.757 311.087 168.051 311.357 168.406V167.286H312.967V175H311.357V173.852C311.087 174.216 310.718 174.519 310.251 174.762C309.785 175.005 309.253 175.126 308.655 175.126C307.993 175.126 307.386 174.958 306.835 174.622C306.285 174.277 305.846 173.801 305.519 173.194C305.202 172.578 305.043 171.883 305.043 171.108ZM311.357 171.136C311.357 170.604 311.245 170.142 311.021 169.75C310.807 169.358 310.522 169.059 310.167 168.854C309.813 168.649 309.43 168.546 309.019 168.546C308.609 168.546 308.226 168.649 307.871 168.854C307.517 169.05 307.227 169.344 307.003 169.736C306.789 170.119 306.681 170.576 306.681 171.108C306.681 171.64 306.789 172.107 307.003 172.508C307.227 172.909 307.517 173.217 307.871 173.432C308.235 173.637 308.618 173.74 309.019 173.74C309.43 173.74 309.813 173.637 310.167 173.432C310.522 173.227 310.807 172.928 311.021 172.536C311.245 172.135 311.357 171.668 311.357 171.136ZM322.592 167.16C323.199 167.16 323.74 167.286 324.216 167.538C324.702 167.79 325.08 168.163 325.35 168.658C325.621 169.153 325.756 169.75 325.756 170.45V175H324.174V170.688C324.174 169.997 324.002 169.47 323.656 169.106C323.311 168.733 322.84 168.546 322.242 168.546C321.645 168.546 321.169 168.733 320.814 169.106C320.469 169.47 320.296 169.997 320.296 170.688V175H318.7V167.286H320.296V168.168C320.558 167.851 320.889 167.603 321.29 167.426C321.701 167.249 322.135 167.16 322.592 167.16ZM331.138 175.126C330.41 175.126 329.752 174.963 329.164 174.636C328.576 174.3 328.114 173.833 327.778 173.236C327.442 172.629 327.274 171.929 327.274 171.136C327.274 170.352 327.447 169.657 327.792 169.05C328.138 168.443 328.609 167.977 329.206 167.65C329.804 167.323 330.471 167.16 331.208 167.16C331.946 167.16 332.613 167.323 333.21 167.65C333.808 167.977 334.279 168.443 334.624 169.05C334.97 169.657 335.142 170.352 335.142 171.136C335.142 171.92 334.965 172.615 334.61 173.222C334.256 173.829 333.77 174.3 333.154 174.636C332.548 174.963 331.876 175.126 331.138 175.126ZM331.138 173.74C331.549 173.74 331.932 173.642 332.286 173.446C332.65 173.25 332.944 172.956 333.168 172.564C333.392 172.172 333.504 171.696 333.504 171.136C333.504 170.576 333.397 170.105 333.182 169.722C332.968 169.33 332.683 169.036 332.328 168.84C331.974 168.644 331.591 168.546 331.18 168.546C330.77 168.546 330.387 168.644 330.032 168.84C329.687 169.036 329.412 169.33 329.206 169.722C329.001 170.105 328.898 170.576 328.898 171.136C328.898 171.967 329.108 172.611 329.528 173.068C329.958 173.516 330.494 173.74 331.138 173.74ZM339.52 175.126C338.913 175.126 338.367 175.019 337.882 174.804C337.406 174.58 337.028 174.281 336.748 173.908C336.468 173.525 336.319 173.101 336.3 172.634H337.952C337.98 172.961 338.134 173.236 338.414 173.46C338.703 173.675 339.063 173.782 339.492 173.782C339.94 173.782 340.285 173.698 340.528 173.53C340.78 173.353 340.906 173.129 340.906 172.858C340.906 172.569 340.766 172.354 340.486 172.214C340.215 172.074 339.781 171.92 339.184 171.752C338.605 171.593 338.134 171.439 337.77 171.29C337.406 171.141 337.089 170.912 336.818 170.604C336.557 170.296 336.426 169.89 336.426 169.386C336.426 168.975 336.547 168.602 336.79 168.266C337.033 167.921 337.378 167.65 337.826 167.454C338.283 167.258 338.806 167.16 339.394 167.16C340.271 167.16 340.976 167.384 341.508 167.832C342.049 168.271 342.339 168.873 342.376 169.638H340.78C340.752 169.293 340.612 169.017 340.36 168.812C340.108 168.607 339.767 168.504 339.338 168.504C338.918 168.504 338.596 168.583 338.372 168.742C338.148 168.901 338.036 169.111 338.036 169.372C338.036 169.577 338.111 169.75 338.26 169.89C338.409 170.03 338.591 170.142 338.806 170.226C339.021 170.301 339.338 170.399 339.758 170.52C340.318 170.669 340.775 170.823 341.13 170.982C341.494 171.131 341.807 171.355 342.068 171.654C342.329 171.953 342.465 172.349 342.474 172.844C342.474 173.283 342.353 173.675 342.11 174.02C341.867 174.365 341.522 174.636 341.074 174.832C340.635 175.028 340.117 175.126 339.52 175.126ZM346.998 175.126C346.392 175.126 345.846 175.019 345.36 174.804C344.884 174.58 344.506 174.281 344.226 173.908C343.946 173.525 343.797 173.101 343.778 172.634H345.43C345.458 172.961 345.612 173.236 345.892 173.46C346.182 173.675 346.541 173.782 346.97 173.782C347.418 173.782 347.764 173.698 348.006 173.53C348.258 173.353 348.384 173.129 348.384 172.858C348.384 172.569 348.244 172.354 347.964 172.214C347.694 172.074 347.26 171.92 346.662 171.752C346.084 171.593 345.612 171.439 345.248 171.29C344.884 171.141 344.567 170.912 344.296 170.604C344.035 170.296 343.904 169.89 343.904 169.386C343.904 168.975 344.026 168.602 344.268 168.266C344.511 167.921 344.856 167.65 345.304 167.454C345.762 167.258 346.284 167.16 346.872 167.16C347.75 167.16 348.454 167.384 348.986 167.832C349.528 168.271 349.817 168.873 349.854 169.638H348.258C348.23 169.293 348.09 169.017 347.838 168.812C347.586 168.607 347.246 168.504 346.816 168.504C346.396 168.504 346.074 168.583 345.85 168.742C345.626 168.901 345.514 169.111 345.514 169.372C345.514 169.577 345.589 169.75 345.738 169.89C345.888 170.03 346.07 170.142 346.284 170.226C346.499 170.301 346.816 170.399 347.236 170.52C347.796 170.669 348.254 170.823 348.608 170.982C348.972 171.131 349.285 171.355 349.546 171.654C349.808 171.953 349.943 172.349 349.952 172.844C349.952 173.283 349.831 173.675 349.588 174.02C349.346 174.365 349 174.636 348.552 174.832C348.114 175.028 347.596 175.126 346.998 175.126ZM355.023 175.126C354.295 175.126 353.637 174.963 353.049 174.636C352.461 174.3 351.999 173.833 351.663 173.236C351.327 172.629 351.159 171.929 351.159 171.136C351.159 170.352 351.332 169.657 351.677 169.05C352.022 168.443 352.494 167.977 353.091 167.65C353.688 167.323 354.356 167.16 355.093 167.16C355.83 167.16 356.498 167.323 357.095 167.65C357.692 167.977 358.164 168.443 358.509 169.05C358.854 169.657 359.027 170.352 359.027 171.136C359.027 171.92 358.85 172.615 358.495 173.222C358.14 173.829 357.655 174.3 357.039 174.636C356.432 174.963 355.76 175.126 355.023 175.126ZM355.023 173.74C355.434 173.74 355.816 173.642 356.171 173.446C356.535 173.25 356.829 172.956 357.053 172.564C357.277 172.172 357.389 171.696 357.389 171.136C357.389 170.576 357.282 170.105 357.067 169.722C356.852 169.33 356.568 169.036 356.213 168.84C355.858 168.644 355.476 168.546 355.065 168.546C354.654 168.546 354.272 168.644 353.917 168.84C353.572 169.036 353.296 169.33 353.091 169.722C352.886 170.105 352.783 170.576 352.783 171.136C352.783 171.967 352.993 172.611 353.413 173.068C353.842 173.516 354.379 173.74 355.023 173.74ZM363.405 175.126C362.798 175.126 362.252 175.019 361.767 174.804C361.291 174.58 360.913 174.281 360.633 173.908C360.353 173.525 360.203 173.101 360.185 172.634H361.837C361.865 172.961 362.019 173.236 362.299 173.46C362.588 173.675 362.947 173.782 363.377 173.782C363.825 173.782 364.17 173.698 364.413 173.53C364.665 173.353 364.791 173.129 364.791 172.858C364.791 172.569 364.651 172.354 364.371 172.214C364.1 172.074 363.666 171.92 363.069 171.752C362.49 171.593 362.019 171.439 361.655 171.29C361.291 171.141 360.973 170.912 360.703 170.604C360.441 170.296 360.311 169.89 360.311 169.386C360.311 168.975 360.432 168.602 360.675 168.266C360.917 167.921 361.263 167.65 361.711 167.454C362.168 167.258 362.691 167.16 363.279 167.16C364.156 167.16 364.861 167.384 365.393 167.832C365.934 168.271 366.223 168.873 366.261 169.638H364.665C364.637 169.293 364.497 169.017 364.245 168.812C363.993 168.607 363.652 168.504 363.223 168.504C362.803 168.504 362.481 168.583 362.257 168.742C362.033 168.901 361.921 169.111 361.921 169.372C361.921 169.577 361.995 169.75 362.145 169.89C362.294 170.03 362.476 170.142 362.691 170.226C362.905 170.301 363.223 170.399 363.643 170.52C364.203 170.669 364.66 170.823 365.015 170.982C365.379 171.131 365.691 171.355 365.953 171.654C366.214 171.953 366.349 172.349 366.359 172.844C366.359 173.283 366.237 173.675 365.995 174.02C365.752 174.365 365.407 174.636 364.959 174.832C364.52 175.028 364.002 175.126 363.405 175.126ZM374.52 175.126C373.913 175.126 373.367 175.019 372.882 174.804C372.406 174.58 372.028 174.281 371.748 173.908C371.468 173.525 371.319 173.101 371.3 172.634H372.952C372.98 172.961 373.134 173.236 373.414 173.46C373.703 173.675 374.063 173.782 374.492 173.782C374.94 173.782 375.285 173.698 375.528 173.53C375.78 173.353 375.906 173.129 375.906 172.858C375.906 172.569 375.766 172.354 375.486 172.214C375.215 172.074 374.781 171.92 374.184 171.752C373.605 171.593 373.134 171.439 372.77 171.29C372.406 171.141 372.089 170.912 371.818 170.604C371.557 170.296 371.426 169.89 371.426 169.386C371.426 168.975 371.547 168.602 371.79 168.266C372.033 167.921 372.378 167.65 372.826 167.454C373.283 167.258 373.806 167.16 374.394 167.16C375.271 167.16 375.976 167.384 376.508 167.832C377.049 168.271 377.339 168.873 377.376 169.638H375.78C375.752 169.293 375.612 169.017 375.36 168.812C375.108 168.607 374.767 168.504 374.338 168.504C373.918 168.504 373.596 168.583 373.372 168.742C373.148 168.901 373.036 169.111 373.036 169.372C373.036 169.577 373.111 169.75 373.26 169.89C373.409 170.03 373.591 170.142 373.806 170.226C374.021 170.301 374.338 170.399 374.758 170.52C375.318 170.669 375.775 170.823 376.13 170.982C376.494 171.131 376.807 171.355 377.068 171.654C377.329 171.953 377.465 172.349 377.474 172.844C377.474 173.283 377.353 173.675 377.11 174.02C376.867 174.365 376.522 174.636 376.074 174.832C375.635 175.028 375.117 175.126 374.52 175.126ZM382.544 175.126C381.816 175.126 381.158 174.963 380.57 174.636C379.982 174.3 379.52 173.833 379.184 173.236C378.848 172.629 378.68 171.929 378.68 171.136C378.68 170.352 378.853 169.657 379.198 169.05C379.544 168.443 380.015 167.977 380.612 167.65C381.21 167.323 381.877 167.16 382.614 167.16C383.352 167.16 384.019 167.323 384.616 167.65C385.214 167.977 385.685 168.443 386.03 169.05C386.376 169.657 386.548 170.352 386.548 171.136C386.548 171.92 386.371 172.615 386.016 173.222C385.662 173.829 385.176 174.3 384.56 174.636C383.954 174.963 383.282 175.126 382.544 175.126ZM382.544 173.74C382.955 173.74 383.338 173.642 383.692 173.446C384.056 173.25 384.35 172.956 384.574 172.564C384.798 172.172 384.91 171.696 384.91 171.136C384.91 170.576 384.803 170.105 384.588 169.722C384.374 169.33 384.089 169.036 383.734 168.84C383.38 168.644 382.997 168.546 382.586 168.546C382.176 168.546 381.793 168.644 381.438 168.84C381.093 169.036 380.818 169.33 380.612 169.722C380.407 170.105 380.304 170.576 380.304 171.136C380.304 171.967 380.514 172.611 380.934 173.068C381.364 173.516 381.9 173.74 382.544 173.74ZM392.018 167.16C392.625 167.16 393.166 167.286 393.642 167.538C394.128 167.79 394.506 168.163 394.776 168.658C395.047 169.153 395.182 169.75 395.182 170.45V175H393.6V170.688C393.6 169.997 393.428 169.47 393.082 169.106C392.737 168.733 392.266 168.546 391.668 168.546C391.071 168.546 390.595 168.733 390.24 169.106C389.895 169.47 389.722 169.997 389.722 170.688V175H388.126V167.286H389.722V168.168C389.984 167.851 390.315 167.603 390.716 167.426C391.127 167.249 391.561 167.16 392.018 167.16ZM401.208 167.16C401.796 167.16 402.319 167.286 402.776 167.538C403.243 167.79 403.607 168.163 403.868 168.658C404.139 169.153 404.274 169.75 404.274 170.45V175H402.692V170.688C402.692 169.997 402.519 169.47 402.174 169.106C401.829 168.733 401.357 168.546 400.76 168.546C400.163 168.546 399.687 168.733 399.332 169.106C398.987 169.47 398.814 169.997 398.814 170.688V175H397.218V164.64H398.814V168.182C399.085 167.855 399.425 167.603 399.836 167.426C400.256 167.249 400.713 167.16 401.208 167.16ZM409.656 175.126C408.928 175.126 408.27 174.963 407.682 174.636C407.094 174.3 406.632 173.833 406.296 173.236C405.96 172.629 405.792 171.929 405.792 171.136C405.792 170.352 405.964 169.657 406.31 169.05C406.655 168.443 407.126 167.977 407.724 167.65C408.321 167.323 408.988 167.16 409.726 167.16C410.463 167.16 411.13 167.323 411.728 167.65C412.325 167.977 412.796 168.443 413.142 169.05C413.487 169.657 413.66 170.352 413.66 171.136C413.66 171.92 413.482 172.615 413.128 173.222C412.773 173.829 412.288 174.3 411.672 174.636C411.065 174.963 410.393 175.126 409.656 175.126ZM409.656 173.74C410.066 173.74 410.449 173.642 410.804 173.446C411.168 173.25 411.462 172.956 411.686 172.564C411.91 172.172 412.022 171.696 412.022 171.136C412.022 170.576 411.914 170.105 411.7 169.722C411.485 169.33 411.2 169.036 410.846 168.84C410.491 168.644 410.108 168.546 409.698 168.546C409.287 168.546 408.904 168.644 408.55 168.84C408.204 169.036 407.929 169.33 407.724 169.722C407.518 170.105 407.416 170.576 407.416 171.136C407.416 171.967 407.626 172.611 408.046 173.068C408.475 173.516 409.012 173.74 409.656 173.74ZM418.038 175.126C417.431 175.126 416.885 175.019 416.4 174.804C415.924 174.58 415.546 174.281 415.266 173.908C414.986 173.525 414.836 173.101 414.818 172.634H416.47C416.498 172.961 416.652 173.236 416.932 173.46C417.221 173.675 417.58 173.782 418.01 173.782C418.458 173.782 418.803 173.698 419.046 173.53C419.298 173.353 419.424 173.129 419.424 172.858C419.424 172.569 419.284 172.354 419.004 172.214C418.733 172.074 418.299 171.92 417.702 171.752C417.123 171.593 416.652 171.439 416.288 171.29C415.924 171.141 415.606 170.912 415.336 170.604C415.074 170.296 414.944 169.89 414.944 169.386C414.944 168.975 415.065 168.602 415.308 168.266C415.55 167.921 415.896 167.65 416.344 167.454C416.801 167.258 417.324 167.16 417.912 167.16C418.789 167.16 419.494 167.384 420.026 167.832C420.567 168.271 420.856 168.873 420.894 169.638H419.298C419.27 169.293 419.13 169.017 418.878 168.812C418.626 168.607 418.285 168.504 417.856 168.504C417.436 168.504 417.114 168.583 416.89 168.742C416.666 168.901 416.554 169.111 416.554 169.372C416.554 169.577 416.628 169.75 416.778 169.89C416.927 170.03 417.109 170.142 417.324 170.226C417.538 170.301 417.856 170.399 418.276 170.52C418.836 170.669 419.293 170.823 419.648 170.982C420.012 171.131 420.324 171.355 420.586 171.654C420.847 171.953 420.982 172.349 420.992 172.844C420.992 173.283 420.87 173.675 420.628 174.02C420.385 174.365 420.04 174.636 419.592 174.832C419.153 175.028 418.635 175.126 418.038 175.126ZM424.718 165.27L424.536 172.06H423.206L423.024 165.27H424.718ZM423.92 175.098C423.631 175.098 423.388 175 423.192 174.804C422.996 174.608 422.898 174.365 422.898 174.076C422.898 173.787 422.996 173.544 423.192 173.348C423.388 173.152 423.631 173.054 423.92 173.054C424.2 173.054 424.438 173.152 424.634 173.348C424.83 173.544 424.928 173.787 424.928 174.076C424.928 174.365 424.83 174.608 424.634 174.804C424.438 175 424.2 175.098 423.92 175.098Z" fill="#945A01"/>
<path fill-rule="evenodd" clip-rule="evenodd" d="M25.4756 163.023C41.6854 176.676 40.8307 175.879 41.0436 177.546C41.2405 179.088 41.2365 179.095 35.7183 187.249C33.0012 191.263 30.8081 194.572 30.8448 194.601C30.8815 194.631 33.4128 191.594 36.47 187.853C42.6785 180.255 42.6855 180.248 44.17 180.059C45.777 179.854 44.8193 179.194 61.6123 192.064C69.9288 198.437 76.7583 203.648 76.7892 203.644C76.82 203.64 76.8419 203.611 76.8378 203.579C76.8336 203.546 70.2623 197.988 62.2349 191.227C46.0259 177.575 46.8795 178.371 46.6667 176.704C46.47 175.164 46.4748 175.155 51.9912 167.001C54.7075 162.986 56.9 159.677 56.8634 159.648C56.8266 159.618 54.2958 162.656 51.2393 166.397C45.0317 173.997 45.026 174.002 43.5404 174.192C41.9338 174.397 42.8907 175.056 26.0981 162.187C17.7818 155.814 10.9522 150.602 10.9212 150.606C10.8903 150.61 10.8684 150.64 10.8725 150.672C10.8766 150.704 17.448 156.262 25.4756 163.023Z" fill="#FEC701"/>
<path fill-rule="evenodd" clip-rule="evenodd" d="M190.635 102.795C190.249 101.735 188.751 101.735 188.365 102.795L186.612 107.612L181.795 109.365C180.735 109.751 180.735 111.249 181.795 111.635L186.612 113.388L188.365 118.205C188.751 119.265 190.249 119.265 190.635 118.205L192.388 113.388L197.205 111.635C198.265 111.249 198.265 109.751 197.205 109.365L192.388 107.612L190.635 102.795Z" fill="#945A01"/>
<defs>
<clipPath id="clip0_1854_1318">
<rect width="53.3476" height="54.973" fill="white" transform="translate(56.4268 58.3125) rotate(-9.09)"/>
</clipPath>
</defs>
</svg>
