<svg width="130" height="97" viewBox="0 0 130 97" fill="none" xmlns="http://www.w3.org/2000/svg">
<path d="M7.98658 60.5921C5.21133 50.2347 26.5514 29.9999 57.3526 21.7468C88.1539 13.4936 116.752 20.3474 119.528 30.7048L122.55 43.904C125.326 54.2614 106.406 72.8836 75.6047 81.1368C44.8034 89.39 15.246 85.0189 12.4707 74.6615L7.98658 60.5921Z" fill="#7AD761"/>
<path fill-rule="evenodd" clip-rule="evenodd" d="M70.1273 69.4226C100.929 61.1694 122.469 41.6836 119.523 30.6888C116.575 19.6861 88.1539 13.4936 57.3526 21.7468C26.5514 29.9999 5.03414 49.5734 7.98231 60.5761C10.9283 71.5709 39.3261 77.6757 70.1273 69.4226Z" fill="#BAFB92"/>
<path fill-rule="evenodd" clip-rule="evenodd" d="M32.1292 44.5651C32.3551 45.4981 32.7833 46.3474 33.3792 47.1004C31.1242 49.7365 30.146 52.5179 30.8216 55.3088C32.7641 63.3327 49.5739 67.7133 67.926 63.2704C86.2779 58.8276 98.6034 47.9152 96.6609 39.8912C96.2263 37.0535 94.2474 34.9423 91.1501 33.5331C91.434 32.4471 91.4647 31.3432 91.2034 30.2638C89.9852 25.2318 82.8816 22.6332 75.3368 24.4597C69.7283 25.8175 65.4547 29.2385 64.1311 32.972C63.0216 33.1978 61.9011 33.4473 60.7722 33.7206C59.6421 33.9942 58.5298 34.2833 57.4378 34.5868C54.5522 31.8752 49.1901 30.7896 43.5844 32.1466C36.0397 33.9732 30.911 39.5331 32.1292 44.5651Z" fill="#7AD761"/>
<path d="M105.552 20.4322L108.79 21.241L111.743 22.8598L112.837 23.6692L114.456 24.4796L115.265 25.288L116.075 26.0991L26.6354 71.8294L28.6589 72.2341L24.6118 71.4247L21.3742 70.6153L20.1956 70.2541L18.0699 69.5003L17.3272 68.9965L15.7083 68.1871L14.0895 67.3776L12.4707 66.5683L105.552 20.4322Z" fill="white" fill-opacity="0.25"/>
</svg>
