<svg width="120" height="120" viewBox="0 0 120 120" fill="none" xmlns="http://www.w3.org/2000/svg">
<path d="M120 60C120 93.1371 93.1371 120 60 120C26.8629 120 0 93.1371 0 60C0 26.8629 26.8629 0 60 0C93.1371 0 120 26.8629 120 60Z" fill="#DCC1FF"/>
<path fill-rule="evenodd" clip-rule="evenodd" d="M17.1504 52.8482C17.1504 54.188 17.4533 55.4807 18.0162 56.6977C14.0788 59.533 11.831 62.9845 11.831 66.9922C11.831 78.5141 33.265 89.9761 59.7053 89.9761C86.1453 89.9761 106.515 79.2216 106.515 67.6994C106.859 63.7076 104.861 60.194 101.11 57.2654C101.854 55.8854 102.26 54.3982 102.26 52.8482C102.26 45.6224 93.4482 39.7649 82.5782 39.7649C74.498 39.7649 67.5546 43.002 64.5232 47.6318C62.9389 47.5736 61.3316 47.5442 59.7053 47.5442C58.077 47.5442 56.468 47.5709 54.8819 47.6243C51.848 42.9985 44.9081 39.7649 36.8321 39.7649C25.9622 39.7649 17.1504 45.6224 17.1504 52.8482Z" fill="#9D4EDD"/>
<path d="M94.4739 64.8764C82.7341 66.195 71.569 67.4378 59.9588 64.8764C49.8207 66.4986 32.7217 66.3532 26.3821 64.8764C27.2638 97.8645 92.3719 99.4362 94.8326 66.4849C94.8719 65.9563 94.8326 65.4032 94.4739 64.8764Z" fill="#DAACFE"/>
<path d="M104.081 70.6545C104.617 70.6545 105.052 70.2462 105.052 69.7423C105.052 69.2387 104.617 68.8302 104.081 68.8302C103.545 68.8302 103.11 69.2387 103.11 69.7423C103.11 70.2462 103.545 70.6545 104.081 70.6545Z" fill="#471B6A"/>
<path d="M99.2257 74.3029C99.762 74.3029 100.197 73.8945 100.197 73.3908C100.197 72.887 99.762 72.4787 99.2257 72.4787C98.6893 72.4787 98.2547 72.887 98.2547 73.3908C98.2547 73.8945 98.6893 74.3029 99.2257 74.3029Z" fill="#471B6A"/>
<path d="M98.2546 69.7417C98.7908 69.7417 99.2256 69.3334 99.2256 68.8296C99.2256 68.3259 98.7908 67.9175 98.2546 67.9175C97.7181 67.9175 97.2834 68.3259 97.2834 68.8296C97.2834 69.3334 97.7181 69.7417 98.2546 69.7417Z" fill="#471B6A"/>
<path d="M24.4529 70.6545C24.9893 70.6545 25.4241 70.2462 25.4241 69.7423C25.4241 69.2387 24.9893 68.8302 24.4529 68.8302C23.9166 68.8302 23.4819 69.2387 23.4819 69.7423C23.4819 70.2462 23.9166 70.6545 24.4529 70.6545Z" fill="#471B6A"/>
<path d="M19.5975 74.3029C20.1338 74.3029 20.5686 73.8945 20.5686 73.3908C20.5686 72.887 20.1338 72.4787 19.5975 72.4787C19.0611 72.4787 18.6265 72.887 18.6265 73.3908C18.6265 73.8945 19.0611 74.3029 19.5975 74.3029Z" fill="#471B6A"/>
<path d="M18.6265 69.7417C19.1627 69.7417 19.5975 69.3334 19.5975 68.8296C19.5975 68.3259 19.1627 67.9175 18.6265 67.9175C18.09 67.9175 17.6553 68.3259 17.6553 68.8296C17.6553 69.3334 18.09 69.7417 18.6265 69.7417Z" fill="#471B6A"/>
<path d="M59.6941 82.8461C61.119 82.8461 62.4395 82.2448 63.5234 81.2205C67.4448 77.5145 66.7846 71.1807 67.6139 65.8494L59.6941 64.8706L50.7065 65.8494C52.2413 71.1622 51.893 77.7128 56.0354 81.3764C57.0861 82.3056 58.3431 82.8461 59.6941 82.8461Z" fill="#251036"/>
<path d="M63.1288 81.6997C64.0633 80.9654 64.5884 80.088 65.3002 78.9311C60.8538 77.5344 58.3979 77.5184 54.088 78.9311C54.3549 79.4651 55.1469 80.9654 56.0814 81.6997C57.016 82.4341 58.2835 82.8466 59.6051 82.8466C60.9267 82.8466 62.1943 82.4341 63.1288 81.6997Z" fill="#EB8884"/>
<path d="M37.2695 42.268C39.1213 42.2555 40.6411 42.4509 41.9356 42.8633C48.5283 44.9641 49.1047 53.8129 49.1047 60.7322C49.1047 61.0788 48.7071 61.2758 48.4292 61.0688C41.6872 56.0529 36.7922 54.5353 25.6997 56.2805C25.5625 56.3021 25.4344 56.1967 25.4344 56.0579C25.4344 52.2106 26.0498 48.1138 28.7452 45.3687C30.6299 43.4491 33.0678 42.3911 37.2695 42.268Z" fill="white"/>
<path d="M39.2272 46.7172C36.5242 46.7172 34.333 49.3865 34.333 52.6794C34.333 53.7373 34.5592 54.7546 34.9559 55.616C37.9866 55.8515 39.57 56.211 42.2528 57.3068C43.3558 56.2135 44.1215 54.5468 44.1215 52.6794C44.1215 49.3865 41.9303 46.7172 39.2272 46.7172Z" fill="#333333"/>
<path fill-rule="evenodd" clip-rule="evenodd" d="M36.4404 52.3598C37.7027 52.698 39.0596 51.7266 39.4714 50.1899C39.8831 48.6533 39.1936 47.1334 37.9314 46.7952C36.6692 46.4569 35.3122 47.4285 34.9005 48.9651C34.4887 50.5017 35.1782 52.0217 36.4404 52.3598ZM42.5197 56.5054C43.5027 56.5054 44.2995 55.589 44.2995 54.4587C44.2995 53.3283 43.5027 52.412 42.5197 52.412C41.5368 52.412 40.74 53.3283 40.74 54.4587C40.74 55.589 41.5368 56.5054 42.5197 56.5054Z" fill="white"/>
<path d="M84.1653 41.7349C82.2437 41.7219 80.6671 41.9246 79.3239 42.3526C72.4834 44.5323 71.8852 53.7139 71.8852 60.8934C71.8852 61.2529 72.2977 61.4572 72.5862 61.2426C79.5816 56.0381 84.6606 54.4633 96.1701 56.2742C96.3125 56.2967 96.4454 56.1874 96.4454 56.043C96.4454 52.0512 95.8069 47.8004 93.01 44.9521C91.0545 42.9604 88.5251 41.8627 84.1653 41.7349Z" fill="white"/>
<path d="M82.1339 46.35C84.9386 46.35 87.2122 49.1197 87.2122 52.5363C87.2122 53.634 86.9776 54.6896 86.566 55.5832C83.4214 55.8277 81.7784 56.2008 78.9947 57.3377C77.8501 56.2033 77.0558 54.4739 77.0558 52.5363C77.0558 49.1197 79.3294 46.35 82.1339 46.35Z" fill="#333333"/>
<path fill-rule="evenodd" clip-rule="evenodd" d="M85.0257 52.2052C83.716 52.5562 82.3078 51.5481 81.8807 49.9536C81.4536 48.3593 82.1688 46.7823 83.4785 46.4313C84.7882 46.0803 86.1962 47.0884 86.6235 48.6829C87.0506 50.2772 86.3352 51.8542 85.0257 52.2052ZM78.7178 56.5065C77.6978 56.5065 76.8711 55.5558 76.8711 54.3829C76.8711 53.21 77.6978 52.2593 78.7178 52.2593C79.7376 52.2593 80.5644 53.21 80.5644 54.3829C80.5644 55.5558 79.7376 56.5065 78.7178 56.5065Z" fill="white"/>
<path d="M80.5775 29.4048L74.6642 35.0968C73.9968 35.7393 74.6332 36.847 75.5245 36.5939L77.5746 36.0117C80.755 35.1085 84.124 35.109 87.3042 36.0132L97.5462 38.9254C98.1513 39.0975 98.504 38.2638 97.9589 37.9494L82.7013 29.1455C82.0146 28.7493 81.1486 28.855 80.5775 29.4048Z" fill="#333333"/>
<path d="M39.6108 29.2298L45.5242 34.9218C46.1917 35.5644 45.5551 36.6721 44.6638 36.419L42.6138 35.8367C39.4334 34.9335 36.0644 34.9341 32.8844 35.8383L22.6424 38.7504C22.0371 38.9225 21.6845 38.0889 22.2295 37.7744L37.4871 28.9705C38.1737 28.5743 39.0397 28.68 39.6108 29.2298Z" fill="#333333"/>
<path d="M106.309 46.9174C106.531 46.4742 107.184 46.5461 107.304 47.027L107.854 49.2266C107.892 49.3779 107.994 49.505 108.133 49.5747L110.16 50.5895C110.604 50.8113 110.532 51.4648 110.051 51.585L107.851 52.1344C107.7 52.1721 107.573 52.2741 107.503 52.4134L106.488 54.4409C106.267 54.8843 105.613 54.8124 105.493 54.3315L104.944 52.1317C104.906 51.9806 104.804 51.8534 104.664 51.7836L102.637 50.769C102.194 50.5472 102.266 49.8937 102.747 49.7735L104.946 49.2239C105.097 49.1862 105.225 49.0842 105.294 48.9449L106.309 46.9174Z" fill="#FFD612"/>
<path d="M95.58 83.4427C95.8019 82.9996 96.4554 83.0715 96.5755 83.5524L96.8201 84.5312C96.8578 84.6825 96.9598 84.8096 97.0991 84.8794L98.0013 85.3309C98.4446 85.5528 98.3727 86.2063 97.8918 86.3265L96.9128 86.5708C96.7617 86.6087 96.6346 86.7106 96.5649 86.8499L96.1132 87.7522C95.8914 88.1956 95.2379 88.1235 95.1178 87.6426L94.8732 86.6637C94.8355 86.5126 94.7335 86.3854 94.5942 86.3158L93.692 85.8641C93.2487 85.6423 93.3206 84.9888 93.8015 84.8687L94.7803 84.6241C94.9316 84.5864 95.0587 84.4844 95.1284 84.3451L95.58 83.4427Z" fill="#CE4869"/>
<path d="M19.001 32.8668C19.1184 32.3852 19.7714 32.3096 19.9958 32.7515L21.0222 34.7732C21.0927 34.9121 21.2205 35.0133 21.3717 35.0502L23.5747 35.587C24.0561 35.7044 24.1319 36.3575 23.6898 36.5819L21.6682 37.6082C21.5292 37.6788 21.4281 37.8065 21.3913 37.9579L20.8544 40.1607C20.7371 40.6423 20.0839 40.7179 19.8597 40.276L18.8333 38.2544C18.7626 38.1154 18.635 38.0142 18.4836 37.9773L16.2808 37.4405C15.7992 37.3231 15.7236 36.67 16.1655 36.4457L18.1871 35.4193C18.3261 35.3487 18.4273 35.221 18.4642 35.0696L19.001 32.8668Z" fill="#CE4869"/>
<path d="M13.854 43.3031C13.9713 42.8215 14.6245 42.7459 14.8489 43.1878L15.3056 44.0875C15.3761 44.2265 15.5038 44.3275 15.6553 44.3646L16.6356 44.6034C17.117 44.7207 17.1928 45.3739 16.7507 45.5983L15.8511 46.055C15.7122 46.1255 15.611 46.2532 15.5741 46.4047L15.3353 47.385C15.2178 47.8664 14.5649 47.9422 14.3404 47.5001L13.8836 46.6005C13.8131 46.4617 13.6853 46.3604 13.534 46.3235L12.5538 46.0845C12.0722 45.9672 11.9965 45.3142 12.4384 45.0898L13.3381 44.633C13.4771 44.5625 13.5782 44.4347 13.6152 44.2834L13.854 43.3031Z" fill="#296BA7"/>
</svg>
