<svg width="93" height="55" viewBox="0 0 93 55" fill="none" xmlns="http://www.w3.org/2000/svg">
<path d="M2.75047 10.3917C4.97618 2.08528 27.9116 -3.41133 52.6137 3.20758C77.3158 9.82648 94.4302 26.0544 92.2045 34.3609L89.0112 44.7404C86.7855 53.0468 66.1776 58.394 41.4755 51.7751C16.7735 45.1562 -2.00254 30.2681 0.223161 21.9616L2.75047 10.3917Z" fill="#7AD761"/>
<path fill-rule="evenodd" clip-rule="evenodd" d="M42.3686 41.4428C67.0707 48.0617 89.8452 43.1657 92.2079 34.3481C94.5723 25.5241 77.3158 9.82648 52.6137 3.20758C27.9116 -3.41133 5.11828 1.55495 2.7539 10.3789C0.391225 19.1966 17.6665 34.8239 42.3686 41.4428Z" fill="#BAFB92"/>
<path fill-rule="evenodd" clip-rule="evenodd" d="M25.9453 8.94067C25.728 9.67927 25.6849 10.4409 25.7967 11.2028C23.1735 12.1294 21.3788 13.6689 20.7289 15.8783C18.8606 22.2301 28.779 32.0131 43.3068 36.2864C57.8344 40.5597 70.7708 37.9231 72.6392 31.5711C73.4753 29.426 72.9474 27.1662 71.3613 24.9455C71.9939 24.305 72.4579 23.5507 72.7093 22.6962C73.881 18.7127 69.9893 14.0594 64.0167 12.3026C59.5769 10.9967 55.2369 11.659 52.8205 13.7213C51.9594 13.4332 51.0811 13.1572 50.1875 12.8944C49.2929 12.6312 48.4044 12.386 47.5243 12.159C46.6074 9.11853 43.3185 6.21432 38.881 4.90904C32.9085 3.15224 27.117 4.95725 25.9453 8.94067Z" fill="#7AD761"/>
<path d="M86.6174 21.6199L88.5419 23.48L89.9437 25.7884L90.379 26.7893L91.1782 28.0011L91.4164 28.8873L91.6533 29.7751L11.1967 25.6721L12.4399 26.7646L9.95359 24.5796L8.0295 22.7192L7.35576 21.9957L6.18163 20.6198L5.8678 19.972L3.46847 16.3382L86.6174 21.6199Z" fill="white" fill-opacity="0.25"/>
</svg>
