<svg width="66" height="68" viewBox="0 0 66 68" fill="none" xmlns="http://www.w3.org/2000/svg">
<path d="M13.6957 60.4529L38.1458 66.7318C53.5709 70.693 63.2407 61.1868 65.6923 50.6838C66.1512 48.1899 66.0963 45.6166 65.531 43.1215C64.9658 40.6264 63.902 38.2618 62.4048 36.1726C59.4086 31.5185 54.814 28.1177 49.5223 26.6373C45.9243 25.9205 42.225 26.1182 38.7635 27.2122C35.302 28.3063 32.1888 30.2617 29.7092 32.8993C29.0668 30.2068 28.1397 26.3032 27.4054 23.1677L31.9404 24.3323C33.3024 24.5929 34.7016 24.3878 35.9133 23.75C37.125 23.1123 38.0787 22.0789 38.6211 20.816C39.6246 20.3305 40.4991 19.6185 41.1778 18.7344C41.8566 17.8503 42.3217 16.8175 42.5376 15.7149C44.3657 7.88305 36.5108 1.69939 31.6353 0.447343C25.0127 -1.41886 21.9542 2.91427 19.2157 6.79009L19.0958 6.96333C17.3738 9.4499 2.21742 31.5133 0.481673 38.9494C-0.596971 43.487 0.152042 48.309 2.56738 52.3767C3.79842 54.3969 5.41967 56.154 7.33277 57.5415C9.24588 58.9291 11.411 59.9181 13.6967 60.4486" fill="#2B5121"/>
</svg>
