<svg width="122" height="75" viewBox="0 0 122 75" fill="none" xmlns="http://www.w3.org/2000/svg">
<g clip-path="url(#clip0_1381_1182)">
<path d="M0.149311 60.0842C-1.88851 53.3566 17.4962 47.669 23.949 46.4682C30.4018 45.2673 66.503 41.2618 89.2216 43.6649C111.94 46.0679 113.025 46.8687 109.055 48.871C105.085 50.8734 101.843 53.2764 101.843 56.8806C101.843 60.4848 126.364 60.4848 121.315 63.2879C116.267 66.0915 113.056 68.4936 105.085 70.8973C97.1136 73.3004 90.3035 75.7025 53.5184 74.5014C16.7333 73.2999 2.18713 66.8118 0.149311 60.0842Z" fill="#61D243"/>
<path d="M0.149311 55.7054C-1.88851 48.9778 17.4962 43.2901 23.949 42.0893C30.4018 40.8884 66.503 36.8829 89.2216 39.286C111.94 41.689 113.025 42.4898 109.055 44.4921C105.085 46.4944 101.843 48.8973 101.843 52.5018C101.843 56.106 126.364 56.106 121.315 58.9091C116.267 61.7122 113.056 64.1148 105.085 66.5179C97.1136 68.9216 90.3035 71.3237 53.5184 70.1221C16.7333 68.9211 2.18713 62.433 0.149311 55.7054Z" fill="#ABF47D"/>
<path d="M75.8858 44.8898L75.8853 44.8905C74.4405 46.2468 72.9229 47.3659 71.1898 48.3583C67.8077 50.2872 63.9986 51.3678 60.5518 51.3678H59.7119L59.9418 51.646C60.6514 52.4829 62.3474 53.9751 63.4637 54.7391C66.8713 57.073 71.6116 58.1683 74.9948 57.4121H74.9963C78.1261 56.7334 82.1354 54.3454 85.5347 51.099L85.5358 51.0981C86.2287 50.4434 87.2193 49.3584 88.0389 48.3929C88.4481 47.9107 88.8115 47.4619 89.0712 47.1149C89.2015 46.9409 89.3032 46.7963 89.371 46.6877C89.397 46.6462 89.4163 46.6127 89.4299 46.5868C89.4205 46.5705 89.4085 46.5507 89.3934 46.527C89.3391 46.4425 89.2568 46.329 89.1494 46.1907C88.9351 45.9151 88.6332 45.5569 88.2865 45.1656C87.5931 44.3826 86.7328 43.4796 86.0618 42.8576C85.1416 42.0081 83.9018 41.0112 82.8278 40.2269C82.2913 39.8347 81.7996 39.4985 81.4128 39.2614C81.2194 39.1425 81.0562 39.0513 80.9295 38.9907C80.8721 38.9633 80.8257 38.9437 80.7892 38.9308C80.7486 38.9717 80.6954 39.0326 80.6313 39.1125C80.4921 39.2855 80.319 39.5266 80.1433 39.7915C79.307 41.1136 77.1141 43.729 75.8858 44.8898ZM89.4518 46.6298C89.4523 46.6318 89.4528 46.633 89.4528 46.6333C89.4528 46.6337 89.4528 46.6326 89.4518 46.6298ZM80.8356 38.8886C80.8351 38.8888 80.8346 38.8893 80.8336 38.89C80.8393 38.8867 80.8398 38.8853 80.8356 38.8886Z" fill="#6BC16B"/>
<path d="M89.4502 46.5415C89.4502 46.5416 89.4502 46.5421 89.4502 46.543M75.8858 44.8898L75.8853 44.8905C74.4405 46.2468 72.9229 47.3659 71.1898 48.3583C67.8077 50.2872 63.9986 51.3678 60.5518 51.3678H59.7119L59.9418 51.646C60.6514 52.4829 62.3474 53.9751 63.4637 54.7391C66.8713 57.073 71.6116 58.1683 74.9948 57.4121H74.9963C78.1261 56.7334 82.1354 54.3454 85.5347 51.099L85.5358 51.0981C86.2287 50.4434 87.2193 49.3584 88.0389 48.3929C88.4481 47.9107 88.8115 47.4619 89.0712 47.1149C89.2015 46.9409 89.3032 46.7963 89.371 46.6877C89.397 46.6462 89.4163 46.6127 89.4299 46.5868C89.4205 46.5705 89.4085 46.5507 89.3934 46.527C89.3391 46.4425 89.2568 46.329 89.1494 46.1907C88.9351 45.9151 88.6332 45.5569 88.2865 45.1656C87.5931 44.3826 86.7328 43.4796 86.0618 42.8576C85.1416 42.0081 83.9018 41.0112 82.8278 40.2269C82.2913 39.8347 81.7996 39.4985 81.4128 39.2614C81.2194 39.1425 81.0562 39.0513 80.9295 38.9907C80.8721 38.9633 80.8257 38.9437 80.7892 38.9308C80.7486 38.9717 80.6954 39.0326 80.6313 39.1125C80.4921 39.2855 80.319 39.5266 80.1433 39.7915C79.307 41.1136 77.1141 43.729 75.8858 44.8898ZM89.4518 46.6298C89.4523 46.6318 89.4528 46.633 89.4528 46.6333C89.4528 46.6337 89.4528 46.6326 89.4518 46.6298ZM80.8356 38.8886C80.8351 38.8888 80.8346 38.8893 80.8336 38.89C80.8393 38.8867 80.8398 38.8853 80.8356 38.8886Z" stroke="#6BC16B"/>
<path d="M29.9404 45.396C31.9633 43.0466 34.1723 41.0992 36.412 39.6616C36.7361 39.4563 37.0505 39.2687 37.2957 39.1314C37.4187 39.0625 37.5221 39.0075 37.5995 38.9696C37.6119 38.9635 37.6233 38.9581 37.6337 38.9531C37.6699 38.9863 37.7163 39.0344 37.7712 39.0975C37.9058 39.2522 38.0712 39.4735 38.233 39.7218C38.2332 39.722 38.2334 39.7223 38.2335 39.7226L38.452 39.5805C42.9437 46.6099 50.4734 51.1071 57.7292 51.1071L29.9404 45.396ZM29.9404 45.396C29.6575 45.7245 29.4023 46.0416 29.2189 46.2867C29.1268 46.4097 29.0552 46.5116 29.0077 46.5861C29.003 46.5934 28.9986 46.6004 28.9946 46.6068C29.002 46.6188 29.0104 46.6321 29.0197 46.6466C29.0764 46.7349 29.1606 46.8567 29.2673 47.0036C29.48 47.2966 29.7748 47.6802 30.0997 48.0781C33.9968 52.8383 39.2632 56.5013 43.4997 57.4393C44.2067 57.5914 45.271 57.6409 46.3936 57.5925C47.5134 57.5445 48.6679 57.4008 49.551 57.1784C50.8639 56.8378 52.7235 56.0857 53.7746 55.4893C55.3476 54.5753 57.4429 52.8518 58.4706 51.6454C58.4711 51.6449 58.4711 51.6445 58.4716 51.6441L58.7005 51.3675L29.9404 45.396Z" fill="#96EC6B"/>
<path d="M29.9404 45.396C31.9633 43.0466 34.1723 41.0992 36.412 39.6616C36.7361 39.4563 37.0505 39.2687 37.2957 39.1314C37.4187 39.0625 37.5221 39.0075 37.5995 38.9696C37.6119 38.9635 37.6233 38.9581 37.6337 38.9531C37.6699 38.9863 37.7163 39.0344 37.7712 39.0975C37.9058 39.2522 38.0712 39.4735 38.233 39.7218C38.2332 39.722 38.2334 39.7223 38.2335 39.7226L38.452 39.5805C42.9437 46.6099 50.4734 51.1071 57.7292 51.1071L29.9404 45.396ZM29.9404 45.396C29.6575 45.7245 29.4023 46.0416 29.2189 46.2867C29.1268 46.4097 29.0552 46.5116 29.0077 46.5861C29.003 46.5934 28.9986 46.6004 28.9946 46.6068C29.002 46.6188 29.0104 46.6321 29.0197 46.6466C29.0764 46.7349 29.1606 46.8567 29.2673 47.0036C29.48 47.2966 29.7748 47.6802 30.0997 48.0781C33.9968 52.8383 39.2632 56.5013 43.4997 57.4393C44.2067 57.5914 45.271 57.6409 46.3936 57.5925C47.5134 57.5445 48.6679 57.4008 49.551 57.1784C50.8639 56.8378 52.7235 56.0857 53.7746 55.4893C55.3476 54.5753 57.4429 52.8518 58.4706 51.6454C58.4711 51.6449 58.4711 51.6445 58.4716 51.6441L58.7005 51.3675L29.9404 45.396Z" stroke="#96EC6B"/>
<path d="M75.2337 4.91288C72.5054 5.72932 70.349 6.73942 67.9904 8.28921C67.2276 8.80119 66.4769 9.31317 66.334 9.4377L66.0723 9.67296L66.6202 11.029C67.847 14.1147 68.6218 17.1867 68.884 20.0095C68.9554 20.8397 69.0769 21.8747 69.0811 21.8747C69.0811 21.8747 69.8491 21.1442 70.8136 20.5768C73.1133 19.2346 76.3802 18.2288 78.4271 17.6571L78.9871 17.5603V15.8998C78.9871 15.0004 78.9276 13.6581 78.8557 12.9109C78.558 9.65911 77.3906 4.42857 76.9735 4.44241C76.8661 4.45625 76.0919 4.66381 75.2337 4.91288Z" fill="#913EC7"/>
<path d="M58.9144 17.4607C58.9144 30.4817 59.0797 35.666 59.1751 35.417C59.6516 34.1855 60.784 31.601 61.2605 30.7292C63.0712 27.4497 65.7615 24.332 68.299 22.4086L69.081 21.8878V20.0524C68.7953 17.0497 68.0383 14.3232 66.5217 10.7914C65.5446 8.31448 64.3293 6.15583 62.614 3.83116C61.7918 2.71032 59.4848 0.206523 59.1751 0.0127991C58.9728 -0.111738 58.9024 0.68974 58.9144 17.4607Z" fill="#A24BDB"/>
<path d="M40.7334 5.78365C39.7923 9.20146 39.3752 12.0796 39.3633 15.2899L39.3633 17.7082L40.5298 17.9687C43.0675 18.5637 46.3368 19.765 48.3502 21.0934C48.8745 21.4255 49.2693 21.6839 49.2693 21.6146C49.2693 21.2549 49.5619 17.9882 49.681 17.4485C50.1695 15.0547 51.0421 12.5867 51.8761 10.6771L52.3975 9.89599L51.9089 9.40902C51.4324 8.98006 49.1686 7.54099 48.1798 7.01516C46.6667 6.21261 44.7128 5.42386 43.009 4.91188C42.1393 4.64897 41.353 4.44141 41.2696 4.44141C41.1743 4.44141 40.9598 4.98106 40.7334 5.78365Z" fill="#A24BDB"/>
<path d="M58.61 0.511984C56.8707 2.20015 54.7144 5.13368 53.2128 7.85964C52.4266 9.2849 50.848 12.6738 50.3118 14.5834C49.6089 17.1018 48.9475 21.7229 49.2692 21.8751C49.5194 21.9857 51.2113 23.0669 51.9977 23.8142C53.1654 24.9212 55.3218 27.5641 56.1439 28.9063C57.1445 30.5392 58.1095 32.421 58.6934 33.9155L59.2059 35.23V43.4494V51.6689L60.7309 51.572C66.4378 51.226 71.5128 49.0397 75.6473 45.1653C76.7552 44.1275 78.9715 41.4845 79.7577 40.2807C80.0794 39.7825 80.4845 39.1875 80.6633 38.9384C81.1873 38.2328 82.3312 35.7697 82.9146 34.0539C84.3682 29.8611 85.0715 25.1287 84.8927 20.5624C84.8567 19.4139 84.7853 18.2239 84.7378 17.8918C84.6304 17.02 84.4636 16.9646 81.9616 17.1584C79.019 17.3798 76.0764 18.0993 73.4429 19.2478C67.3909 21.8769 62.8159 26.6923 59.9682 33.4312L59.2059 35.23L59.182 17.615L59.146 0L58.61 0.511984Z" fill="#D264EA"/>
<path d="M33.9362 17.1298C33.6979 17.199 33.6264 17.794 33.5192 20.5615C33.3167 26.0134 34.4009 31.9774 36.3905 36.3361C37.0339 37.7614 37.6296 38.8684 37.7964 38.9929C37.8798 39.0621 38.261 39.6017 38.6423 40.2106C39.5239 41.6082 42.0378 44.514 43.3365 45.6625C47.6374 49.4401 53.1654 51.6126 58.5272 51.6264H59.206V43.4209V35.2291L58.6935 33.9146C57.5262 30.9257 56.1659 28.3687 53.9616 25.7811C52.0672 23.581 50.8781 22.6786 48.9123 21.3779C46.2435 19.6344 43.7058 18.5551 40.3222 17.7387C38.0346 17.1852 34.7464 16.8669 33.9362 17.1298Z" fill="#FA79F4"/>
</g>
<defs>
<clipPath id="clip0_1381_1182">
<rect width="122" height="75" fill="white"/>
</clipPath>
</defs>
</svg>
