<svg width="18" height="18" viewBox="0 0 18 18" fill="none" xmlns="http://www.w3.org/2000/svg">
<path d="M8.11111 17.75C8.52532 17.75 8.86111 17.4142 8.86111 17C8.86111 16.5858 8.52532 16.25 8.11111 16.25V17.75ZM4.69444 4.55556C4.69444 4.96977 5.03023 5.30556 5.44444 5.30556C5.85866 5.30556 6.19444 4.96977 6.19444 4.55556H4.69444ZM6.19444 1C6.19444 0.585786 5.85866 0.25 5.44444 0.25C5.03023 0.25 4.69444 0.585786 4.69444 1H6.19444ZM11.8056 4.55556C11.8056 4.96977 12.1413 5.30556 12.5556 5.30556C12.9698 5.30556 13.3056 4.96977 13.3056 4.55556H11.8056ZM13.3056 1C13.3056 0.585786 12.9698 0.25 12.5556 0.25C12.1413 0.25 11.8056 0.585786 11.8056 1H13.3056ZM5.45333 7.97222C5.86755 7.97222 6.20333 7.63644 6.20333 7.22222C6.20333 6.80801 5.86755 6.47222 5.45333 6.47222V7.97222ZM5.44444 6.47222C5.03023 6.47222 4.69444 6.80801 4.69444 7.22222C4.69444 7.63644 5.03023 7.97222 5.44444 7.97222V6.47222ZM5.45333 10.6389C5.86755 10.6389 6.20333 10.3031 6.20333 9.88889C6.20333 9.47468 5.86755 9.13889 5.45333 9.13889V10.6389ZM5.44444 9.13889C5.03023 9.13889 4.69444 9.47468 4.69444 9.88889C4.69444 10.3031 5.03023 10.6389 5.44444 10.6389V9.13889ZM5.45333 13.3056C5.86755 13.3056 6.20333 12.9698 6.20333 12.5556C6.20333 12.1413 5.86755 11.8056 5.45333 11.8056V13.3056ZM5.44444 11.8056C5.03023 11.8056 4.69444 12.1413 4.69444 12.5556C4.69444 12.9698 5.03023 13.3056 5.44444 13.3056V11.8056ZM9.00889 10.6389C9.4231 10.6389 9.75889 10.3031 9.75889 9.88889C9.75889 9.47468 9.4231 9.13889 9.00889 9.13889V10.6389ZM9 9.13889C8.58579 9.13889 8.25 9.47468 8.25 9.88889C8.25 10.3031 8.58579 10.6389 9 10.6389V9.13889ZM9.00889 7.97222C9.4231 7.97222 9.75889 7.63644 9.75889 7.22222C9.75889 6.80801 9.4231 6.47222 9.00889 6.47222V7.97222ZM9 6.47222C8.58579 6.47222 8.25 6.80801 8.25 7.22222C8.25 7.63644 8.58579 7.97222 9 7.97222V6.47222ZM12.5644 7.97222C12.9787 7.97222 13.3144 7.63644 13.3144 7.22222C13.3144 6.80801 12.9787 6.47222 12.5644 6.47222V7.97222ZM12.5556 6.47222C12.1413 6.47222 11.8056 6.80801 11.8056 7.22222C11.8056 7.63644 12.1413 7.97222 12.5556 7.97222V6.47222ZM14.6389 12.1111C14.6389 11.6969 14.3031 11.3611 13.8889 11.3611C13.4747 11.3611 13.1389 11.6969 13.1389 12.1111H14.6389ZM13.1389 15.6667C13.1389 16.0809 13.4747 16.4167 13.8889 16.4167C14.3031 16.4167 14.6389 16.0809 14.6389 15.6667H13.1389ZM12.1111 13.1389C11.6969 13.1389 11.3611 13.4747 11.3611 13.8889C11.3611 14.3031 11.6969 14.6389 12.1111 14.6389V13.1389ZM15.6667 14.6389C16.0809 14.6389 16.4167 14.3031 16.4167 13.8889C16.4167 13.4747 16.0809 13.1389 15.6667 13.1389V14.6389ZM9.00889 13.3056C9.4231 13.3056 9.75889 12.9698 9.75889 12.5556C9.75889 12.1413 9.4231 11.8056 9.00889 11.8056V13.3056ZM9 11.8056C8.58579 11.8056 8.25 12.1413 8.25 12.5556C8.25 12.9698 8.58579 13.3056 9 13.3056V11.8056ZM12.5644 10.6389C12.9787 10.6389 13.3144 10.3031 13.3144 9.88889C13.3144 9.47468 12.9787 9.13889 12.5644 9.13889V10.6389ZM12.5556 9.13889C12.1413 9.13889 11.8056 9.47468 11.8056 9.88889C11.8056 10.3031 12.1413 10.6389 12.5556 10.6389V9.13889ZM3.66667 3.52778H14.3333V2.02778H3.66667V3.52778ZM1.75 14.3333V5.44444H0.25V14.3333H1.75ZM8.11111 16.25H3.66667V17.75H8.11111V16.25ZM16.25 5.44444V7.66667H17.75V5.44444H16.25ZM0.25 14.3333C0.25 16.2203 1.77969 17.75 3.66667 17.75V16.25C2.60812 16.25 1.75 15.3919 1.75 14.3333H0.25ZM14.3333 3.52778C15.3919 3.52778 16.25 4.3859 16.25 5.44444H17.75C17.75 3.55747 16.2203 2.02778 14.3333 2.02778V3.52778ZM3.66667 2.02778C1.77969 2.02778 0.25 3.55747 0.25 5.44444H1.75C1.75 4.3859 2.60812 3.52778 3.66667 3.52778V2.02778ZM6.19444 4.55556V1H4.69444V4.55556H6.19444ZM13.3056 4.55556V1H11.8056V4.55556H13.3056ZM5.45333 6.47222H5.44444V7.97222H5.45333V6.47222ZM5.45333 9.13889H5.44444V10.6389H5.45333V9.13889ZM5.45333 11.8056H5.44444V13.3056H5.45333V11.8056ZM9.00889 9.13889H9V10.6389H9.00889V9.13889ZM9.00889 6.47222H9V7.97222H9.00889V6.47222ZM12.5644 6.47222H12.5556V7.97222H12.5644V6.47222ZM13.1389 12.1111V13.8889H14.6389V12.1111H13.1389ZM13.1389 13.8889V15.6667H14.6389V13.8889H13.1389ZM12.1111 14.6389H13.8889V13.1389H12.1111V14.6389ZM13.8889 14.6389H15.6667V13.1389H13.8889V14.6389ZM9.00889 11.8056H9V13.3056H9.00889V11.8056ZM12.5644 9.13889H12.5556V10.6389H12.5644V9.13889Z" fill="#2A55C2"/>
</svg>
