<svg width="45" height="46" viewBox="0 0 45 46" fill="none" xmlns="http://www.w3.org/2000/svg">
<path d="M34.7377 0.5H10.2623C7.54057 0.5 4.93032 1.5812 3.00576 3.50576C1.0812 5.43032 0 8.04057 0 10.7623V35.2377C0 37.9594 1.0812 40.5697 3.00576 42.4942C4.93032 44.4188 7.54057 45.5 10.2623 45.5H34.7377C37.4594 45.5 40.0697 44.4188 41.9942 42.4942C43.9188 40.5697 45 37.9594 45 35.2377V10.7623C45 8.04057 43.9188 5.43032 41.9942 3.50576C40.0697 1.5812 37.4594 0.5 34.7377 0.5ZM15.2146 36.8277C15.2219 36.9533 15.2033 37.0791 15.1602 37.1973C15.1171 37.3155 15.0502 37.4236 14.9638 37.515C14.8773 37.6064 14.7731 37.6792 14.6575 37.7289C14.5419 37.7785 14.4174 37.8041 14.2915 37.8038H10.1838C9.93632 37.7972 9.70121 37.6941 9.52873 37.5164C9.35625 37.3387 9.26008 37.1007 9.26077 36.8531V19.7692C9.25738 19.6459 9.27875 19.5231 9.32361 19.4082C9.36848 19.2932 9.43594 19.1885 9.52199 19.1C9.60805 19.0116 9.71096 18.9414 9.82464 18.8934C9.93832 18.8454 10.0605 18.8207 10.1838 18.8208H14.2915C14.415 18.8204 14.5373 18.8449 14.6511 18.8927C14.765 18.9406 14.868 19.0109 14.9541 19.0993C15.0402 19.1878 15.1077 19.2927 15.1524 19.4078C15.1972 19.5229 15.2183 19.6458 15.2146 19.7692V36.8277ZM12.1615 15.2277C11.7168 15.2244 11.2771 15.1335 10.8675 14.9602C10.4579 14.7869 10.0864 14.5347 9.77433 14.2178C9.46222 13.901 9.21556 13.5258 9.04846 13.1137C8.88134 12.7015 8.79705 12.2605 8.80038 11.8158C8.80372 11.371 8.89461 10.9313 9.06788 10.5217C9.24115 10.1121 9.4934 9.74067 9.81023 9.42856C10.1271 9.11645 10.5023 8.8698 10.9144 8.70269C11.3266 8.53558 11.7676 8.45128 12.2123 8.45462C13.095 8.48332 13.9316 8.85586 14.5435 9.49275C15.1554 10.1296 15.4942 10.9804 15.4876 11.8636C15.4809 12.7468 15.1294 13.5924 14.508 14.22C13.8867 14.8477 13.0446 15.2076 12.1615 15.2231M37.1238 36.8C37.1233 37.0333 37.032 37.2573 36.8692 37.4245C36.7063 37.5916 36.4848 37.6888 36.2515 37.6954H31.9154C31.6819 37.6882 31.4604 37.5905 31.2976 37.423C31.1348 37.2555 31.0436 37.0313 31.0431 36.7977V28.8962C31.0431 27.7169 31.4031 23.7662 27.9138 23.7662C25.1931 23.7662 24.6554 26.5354 24.5515 27.7677V36.9777C24.5516 37.2117 24.4606 37.4365 24.2978 37.6045C24.135 37.7725 23.9131 37.8705 23.6792 37.8777H19.4723C19.3542 37.8777 19.2373 37.8544 19.1282 37.8091C19.0192 37.7639 18.9201 37.6975 18.8367 37.6139C18.7533 37.5303 18.6873 37.4311 18.6423 37.3219C18.5973 37.2128 18.5743 37.0958 18.5746 36.9777V19.6862C18.5812 19.4521 18.679 19.2299 18.8472 19.0669C19.0153 18.904 19.2405 18.8132 19.4746 18.8138H23.6792C23.9134 18.8132 24.1385 18.904 24.3067 19.0669C24.4748 19.2299 24.5726 19.4521 24.5792 19.6862V21.1746C25.1931 20.276 26.0408 19.5622 27.0306 19.1099C28.0205 18.6577 29.115 18.4843 30.1962 18.6085C37.2 18.6085 37.1746 25.1508 37.1746 28.8708L37.1238 36.8Z" fill="#045E89"/>
</svg>
