<svg width="6231" height="1287" viewBox="0 0 6231 1287" fill="none" xmlns="http://www.w3.org/2000/svg">
<path fill-rule="evenodd" clip-rule="evenodd" d="M770.595 305.23C714.922 317.851 661.53 347.231 622.052 386.971C565.135 444.264 536.191 507.257 525.613 596.88C511.494 716.508 552.918 840.309 630.364 909.936C663.709 939.916 695.948 958.113 743.656 973.898C776.889 984.891 791.305 986.826 841.157 986.997C939.464 987.328 999.769 964.27 1065.03 901.395C1086.47 880.73 1104.28 864.278 1104.59 864.834C1137.85 923.853 1188.36 961.555 1252.12 974.966C1266.33 977.954 1280.04 980.401 1282.59 980.401C1285.48 980.401 1287.23 853.422 1287.23 644.039V307.677H1275.47C1257.66 307.677 1207.32 324.51 1183.64 338.388C1160.16 352.145 1119.55 393.366 1111.01 412.1L1105.46 424.287L1072.82 391.573C1010.57 329.195 948.107 302.476 858.22 299.765C820.78 298.634 791.67 300.448 770.595 305.23ZM1774.74 305.274C1721.32 318.294 1671.38 345.74 1625.27 387.419L1600.12 410.155L1570.74 380.78C1539.81 349.849 1478.92 316.296 1441.91 309.788L1423.53 306.556L1424.85 629.249C1426.13 942.246 1426.45 952.146 1435.63 958.859C1443.03 964.265 1465.55 965.776 1538.63 965.776C1619.64 965.776 1633.06 964.699 1638.86 957.723C1644.19 951.303 1646.04 909.589 1647.98 751.763C1650.34 560.699 1650.79 553.182 1660.94 534.356C1690.66 479.3 1751.78 457.972 1804.17 484.389C1831.56 498.199 1845.97 523.348 1852.54 568.855C1855.22 587.418 1857.46 682.048 1857.52 779.144C1857.61 948.641 1857.99 955.885 1867.04 960.731C1872.59 963.7 1914.58 965.776 1969.15 965.776C2059.38 965.776 2062.01 965.494 2069.4 954.94C2075.95 945.595 2076.99 918.588 2076.99 758.397C2076.99 547.406 2078.76 533.878 2110.52 502.119C2140.73 471.909 2197.69 463.978 2237.92 484.389C2254.26 492.671 2262.56 501.285 2271.86 519.585L2284.18 543.813L2286.62 746.746C2288.57 908.829 2290.4 951.293 2295.75 957.723C2305.54 969.506 2486.6 969.852 2498.34 958.118C2505.08 951.376 2506 923.624 2506 726.803C2506 486.217 2504.81 471.817 2480.73 420.743C2443.62 342.03 2362.79 298.176 2254.49 298.001C2172.94 297.869 2110.03 320.99 2055.74 371.05C2034.55 390.578 2026 395.901 2024.23 390.651C2019.02 375.154 1973.46 333.07 1949.1 321.258C1900.86 297.859 1831.31 291.488 1774.74 305.274ZM1.32115 629.181C2.6033 942.246 2.92505 952.146 12.1048 958.859C24.9361 968.238 198.913 968.96 211.101 959.683C218.194 954.287 219.311 934.373 220.851 785.408C222.801 596.514 224.586 584.732 256.985 546.884C282.711 516.831 305.6 507.778 356.086 507.681C378.877 507.637 405.719 509.874 415.733 512.658C428.525 516.207 436.871 516.148 443.765 512.458C453.061 507.481 453.588 502.426 453.588 417.945C453.588 308.837 454.807 311.026 392.605 308.413C347.409 306.517 308.895 315.262 275.009 335.122C250.857 349.274 215.601 385.908 199.927 413.139L188.642 432.745L166.333 403.374C133.153 359.696 69.2652 320.269 13.6356 309.144L0 306.419L1.32115 629.181ZM978.445 490.668C1007.94 505.082 1035.5 533.829 1050.12 565.447C1058.85 584.332 1060.54 597.056 1060.54 644.039C1060.54 708.942 1053.29 730.689 1019.42 767.43C991.276 797.966 957.999 811.64 911.846 811.64C865.694 811.64 832.417 797.966 804.273 767.43C770.405 730.689 763.156 708.942 763.156 644.039C763.156 579.935 770.191 558.194 802.493 522.437C845.945 474.347 918.301 461.282 978.445 490.668Z" fill="#F8F8FF"/>
<path fill-rule="evenodd" clip-rule="evenodd" d="M5725.97 9.15791C5633.26 42.5252 5575.4 106.963 5556.01 198.425C5552.18 216.515 5549 241.739 5548.96 254.481L5548.87 277.642H5493.76C5457.4 277.642 5436.67 279.632 5432.8 283.494C5428.78 287.516 5426.95 311.824 5426.95 361.234C5426.95 450.525 5425.12 448.307 5498.75 448.307H5548.87V677.138C5548.87 878.663 5549.79 906.882 5556.53 913.63C5567.95 925.035 5749.26 925.035 5760.67 913.63C5767.41 906.882 5768.33 878.698 5768.33 677.557V449.145L5824.19 447.507C5861.51 446.41 5882.14 443.772 5886.36 439.544C5890.74 435.161 5893.18 412.974 5894.29 367.348C5896.51 276.14 5897.68 277.642 5824.3 277.642H5768.33V138.673C5768.33 -18.9481 5772.1 -7.44529 5725.97 9.15791ZM3005.6 256.48C2975.57 262.897 2919.45 285.956 2892.61 302.905C2875.66 313.604 2849.71 335.712 2834.94 352.032C2820.17 368.353 2808.09 379.309 2808.09 376.389C2808.09 367.173 2760.19 318.226 2735.97 302.686C2710.27 286.2 2652.46 263.014 2637.05 263.014C2627.2 263.014 2627.18 264.038 2628.79 661.637C2630.39 1055.89 2630.53 1060.69 2641.23 1099.27C2661.82 1173.49 2694.04 1221.79 2744.2 1253.61C2767.9 1268.65 2820.7 1287 2840.25 1287H2851.88L2853.15 1076.89L2854.42 866.78L2873.93 882.535C2901.94 905.165 2955.79 928.956 2999.3 937.923C3110.45 960.836 3219.18 930.55 3293.73 855.907C3334.7 814.889 3358.66 773.885 3376.62 714.055C3388.1 675.812 3389.84 661.398 3390.13 601.904C3390.53 521.175 3383.21 485.677 3353.42 423.926C3337.41 390.724 3325.56 374.682 3293.88 343.289C3228.02 278.052 3163.89 252.764 3067 253.827C3038.6 254.139 3010.97 255.329 3005.6 256.48ZM3783.46 256.641C3666.85 276.238 3569.17 343.548 3525.99 434.054C3498.61 491.455 3489.68 532.025 3489.58 599.466C3489.44 701.821 3519.28 779.464 3583.33 843.37C3625.73 885.67 3666.48 909.11 3732.43 929.117C3772.35 941.224 3783.13 942.38 3856.61 942.443C3950.79 942.526 3987.38 934.802 4053.08 900.977C4106.6 873.422 4160.36 820.711 4185.1 771.55C4214.08 713.958 4224.06 670.019 4224.2 599.466C4224.41 495.161 4196 421.605 4129.93 355.324C4076.69 301.92 4026.68 276.189 3945.18 260.259C3912.29 253.827 3813.36 251.613 3783.46 256.641ZM5031.93 262.438C4977.11 280.129 4932.09 311.536 4896.35 357.025L4873.66 385.902L4866.24 374.438C4838.67 331.801 4789.02 293.602 4736.31 274.473C4679.5 253.852 4685.67 216.437 4685.67 581.313C4685.67 861.509 4686.58 900.913 4693.27 910.451C4700.67 921.032 4703.16 921.291 4797.52 921.291C4881.43 921.291 4895.06 920.228 4900.88 913.235C4906.2 906.828 4908.07 866.2 4910.01 714.533L4912.45 523.886L4925.48 499.199C4948.82 454.982 4987.45 428.856 5029.49 428.856C5071.97 428.856 5109.27 454.275 5119.18 489.983C5122.65 502.49 5124.54 577.802 5124.56 704.435C5124.58 873.168 5125.62 901.084 5132.18 910.451C5139.59 921.037 5142.06 921.291 5236.92 921.291H5334.07L5341.9 909.344C5348.86 898.719 5349.51 873.831 5347.75 683.823C5345.91 485.102 5345.06 467.655 5335.49 432.976C5308.21 334.122 5253.36 276.56 5169.46 258.747C5130.67 250.511 5063.29 252.32 5031.93 262.438ZM4334.54 581.313C4334.54 861.509 4335.45 900.913 4342.13 910.451C4349.55 921.037 4352.01 921.291 4446.87 921.291H4544.02L4551.82 909.393C4558.73 898.836 4559.4 873.943 4557.68 688.748C4556.04 511.384 4554.51 475.73 4547.52 451.578C4522.1 363.764 4467.71 304.427 4385.18 274.473C4328.37 253.852 4334.54 216.437 4334.54 581.313ZM3816.67 430.45C3749.62 449.35 3710.3 511.452 3710.3 598.462C3710.3 709.764 3764.94 771.896 3862.01 770.979C3938.4 770.262 3989.22 721.735 4002.84 636.52C4013.47 569.976 3992.79 495.863 3953.45 459.517C3923 431.381 3860.49 418.099 3816.67 430.45ZM2972.55 433.659C2927.84 441.573 2892.09 469.976 2868.18 516.572C2855.44 541.411 2854.42 547.536 2854.42 599.466C2854.42 646.204 2856.13 659.238 2864.69 677.733C2895.37 744.029 2958.92 777.269 3030.99 764.723C3110.29 750.914 3158.31 680.995 3153.35 586.559C3151.56 552.392 3148.57 540.733 3134.5 513.154C3103.2 451.803 3041.41 421.473 2972.55 433.659ZM6018.94 703.547C5982.07 712.968 5943.5 736.563 5927.05 759.764C5907.52 787.309 5903.89 832.165 5918.83 861.436C5940.7 904.297 5987.33 929.843 6052.3 934.563C6147.56 941.478 6224.04 896.13 6230.5 828.898C6237.24 758.833 6174.77 704.713 6080.92 699.31C6059.1 698.057 6033.63 699.797 6018.94 703.547Z" fill="#F8F8FF"/>
</svg>
