<svg width="15" height="19" viewBox="0 0 15 19" fill="none" xmlns="http://www.w3.org/2000/svg">
<path d="M3.99941 4.25L4.47554 2.8216C4.71374 2.107 5.38249 1.625 6.13574 1.625H8.86308C9.61634 1.625 10.2851 2.107 10.5233 2.8216L10.9994 4.25M3.99941 4.25H1.91519C1.26473 4.25 0.841673 4.93452 1.13257 5.51631L1.56047 6.37211C1.72622 6.70361 1.81989 7.06645 1.83532 7.43676L2.14459 14.8593C2.20317 16.2653 3.36007 17.375 4.76731 17.375H10.2315C11.6387 17.375 12.7956 16.2653 12.8542 14.8593L13.1635 7.43676C13.1789 7.06645 13.2726 6.70361 13.4384 6.37211L13.8663 5.51631C14.1572 4.93452 13.7341 4.25 13.0836 4.25H10.9994M3.99941 4.25H10.9994M9.63436 13.4375L9.85311 8.1875M5.36446 13.4375L5.14571 8.1875" stroke="#DADADC" stroke-width="1.5" stroke-linecap="round" stroke-linejoin="round"/>
</svg>
