<svg width="8" height="9" viewBox="0 0 8 9" fill="none" xmlns="http://www.w3.org/2000/svg">
<path fill-rule="evenodd" clip-rule="evenodd" d="M2.65683 7.84496L6.31783 3.1106C6.51679 2.85529 6.58754 2.56012 6.52121 2.25958C6.46374 1.98636 6.29572 1.72657 6.04369 1.52949L5.42911 1.04128C4.89411 0.615766 4.23088 0.660557 3.85063 1.14877L3.43944 1.68223C3.38638 1.74897 3.39964 1.84751 3.46597 1.90125C3.46597 1.90125 4.50501 2.73436 4.52712 2.75227C4.59787 2.81946 4.65092 2.90904 4.66419 3.01654C4.6863 3.22705 4.54039 3.42413 4.32373 3.45101C4.22204 3.46444 4.12477 3.43309 4.05402 3.37486L2.96192 2.50593C2.90886 2.46606 2.82927 2.47457 2.78506 2.52832L0.189641 5.88761C0.0216244 6.09813 -0.035855 6.37135 0.0216244 6.63561L0.353236 8.07339C0.370922 8.14953 0.437244 8.20328 0.516831 8.20328L1.97592 8.18537C2.24121 8.18089 2.48882 8.05995 2.65683 7.84496ZM4.69983 7.39712H7.07904C7.31116 7.39712 7.49996 7.58838 7.49996 7.82352C7.49996 8.05912 7.31116 8.24993 7.07904 8.24993H4.69983C4.4677 8.24993 4.27891 8.05912 4.27891 7.82352C4.27891 7.58838 4.4677 7.39712 4.69983 7.39712Z" fill="#2A55C2"/>
</svg>
