<svg width="5" height="14" viewBox="0 0 5 14" fill="none" xmlns="http://www.w3.org/2000/svg">
<path d="M1.29173 0.512562C0.571197 1.19598 0.571197 2.30402 1.29173 2.98744C2.01226 3.67085 3.18048 3.67085 3.90101 2.98744C4.62154 2.30402 4.62154 1.19598 3.90101 0.512562C3.18051 -0.170854 2.01229 -0.170854 1.29173 0.512562Z" fill="#121212"/>
<path d="M1.29173 5.76256C0.571197 6.44598 0.571197 7.55402 1.29173 8.23743C2.01226 8.92085 3.18048 8.92085 3.90101 8.23743C4.62154 7.55402 4.62154 6.44598 3.90101 5.76256C3.18051 5.07915 2.01229 5.07915 1.29173 5.76256Z" fill="#121212"/>
<path d="M1.29173 11.0126C0.571197 11.696 0.571197 12.804 1.29173 13.4874C2.01226 14.1709 3.18048 14.1709 3.90101 13.4874C4.62154 12.804 4.62154 11.696 3.90101 11.0126C3.18051 10.3291 2.01229 10.3291 1.29173 11.0126Z" fill="#121212"/>
</svg>
