<svg width="45" height="45" viewBox="0 0 45 45" fill="none" xmlns="http://www.w3.org/2000/svg">
<circle cx="22.5" cy="22.5" r="22.5" fill="#D9D9D9"/>
<path fill-rule="evenodd" clip-rule="evenodd" d="M17.8933 16.5644C17.8933 15.3702 18.3785 14.2249 19.2421 13.3804C20.1058 12.5359 21.2772 12.0615 22.4986 12.0615C23.72 12.0615 24.8913 12.5359 25.755 13.3804C26.6186 14.2249 27.1038 15.3702 27.1038 16.5644C27.1038 17.7587 26.6186 18.904 25.755 19.7485C24.8913 20.593 23.72 21.0674 22.4986 21.0674C21.2772 21.0674 20.1058 20.593 19.2421 19.7485C18.3785 18.904 17.8933 17.7587 17.8933 16.5644ZM17.8933 23.3188C16.3666 23.3188 14.9023 23.9119 13.8228 24.9674C12.7432 26.023 12.1367 27.4547 12.1367 28.9475C12.1367 29.8432 12.5006 30.7022 13.1484 31.3355C13.7961 31.9689 14.6746 32.3247 15.5907 32.3247H29.4065C30.3225 32.3247 31.201 31.9689 31.8488 31.3355C32.4965 30.7022 32.8604 29.8432 32.8604 28.9475C32.8604 27.4547 32.2539 26.023 31.1743 24.9674C30.0948 23.9119 28.6306 23.3188 27.1038 23.3188H17.8933Z" fill="black" fill-opacity="0.5"/>
</svg>
