<svg width="445" height="391" viewBox="0 0 445 391" fill="none" xmlns="http://www.w3.org/2000/svg">
<path d="M119.842 335.748C81.4192 318.906 44.9001 301.497 28.1445 276.194C11.389 250.89 14.3971 217.692 25.475 186.105C36.5529 154.518 56.2284 124.841 87.6031 106.735C118.45 88.3301 161.038 81.8488 203.832 77.131C246.667 72.7659 289.182 69.8652 326.82 80.0056C363.931 89.847 395.637 112.43 412.196 140.256C428.796 168.435 430.205 201.503 420.224 234.041C410.688 266.173 390.205 297.368 358.156 322.336C326.552 346.898 282.938 365.638 241.189 366.668C198.996 368.105 158.224 352.237 119.842 335.748Z" fill="#C6F0AC"/>
<g clip-path="url(#clip0_1189_1060)">
<mask id="mask0_1189_1060" style="mask-type:luminance" maskUnits="userSpaceOnUse" x="92" y="0" width="260" height="349">
<path d="M352 0H92V349H352V0Z" fill="white"/>
</mask>
<g mask="url(#mask0_1189_1060)">
<path d="M314.607 276.087C335.606 235.138 311.425 163.478 297.426 131.305H310.789C327.643 153.772 336.436 168.536 348.333 207.351C351.113 216.423 355.332 244.643 346.424 262.924C339.297 277.548 322.243 277.792 314.607 276.087Z" fill="#499136"/>
<path d="M128.369 276.051C107.837 233.105 131.48 157.95 145.169 124.207H132.103C115.623 147.77 107.026 163.256 95.393 203.964C92.6743 213.478 88.5489 243.075 97.2596 262.247C104.228 277.585 120.903 277.84 128.369 276.051Z" fill="#499136"/>
<path d="M297.07 297.857C344.611 271.152 318.608 171.213 299.482 124.207H221.129H143.381C124.06 171.707 97.7873 272.311 145.743 297.867C146.497 298.268 146.998 299.039 146.998 299.88V340.074C146.998 344.984 151.064 348.965 156.08 348.965H171.994C179.374 348.965 186.727 345.609 189.305 338.84C191.147 334.005 192.079 328.828 192.684 322.482C192.81 321.155 194.077 320.214 195.412 320.475L198.066 320.994C212.607 323.841 227.578 323.873 242.133 321.085L245.386 320.462C246.716 320.207 247.974 321.145 248.125 322.464C248.848 328.779 250.332 334.166 253.066 339.543C256.256 345.817 263.315 348.965 270.475 348.965H286.782C291.798 348.965 295.865 344.984 295.865 340.074V299.843C295.865 299.023 296.343 298.265 297.07 297.857Z" fill="#61D243"/>
<path d="M221.298 325.308C268.014 325.308 305.885 281.085 305.885 226.533C305.885 171.981 268.014 127.758 221.298 127.758C174.582 127.758 136.711 171.981 136.711 226.533C136.711 281.085 174.582 325.308 221.298 325.308Z" fill="#ABF47D"/>
<g filter="url(#filter0_d_1189_1060)">
<path fill-rule="evenodd" clip-rule="evenodd" d="M117.321 57.9281C117.321 61.4033 118.075 64.7562 119.475 67.9133C109.676 75.2673 104.082 84.2198 104.082 94.6155C104.082 124.501 157.426 154.232 223.229 154.232C289.032 154.232 339.727 126.336 339.727 96.4496C340.582 86.0955 335.61 76.9818 326.276 69.3855C328.127 65.8059 329.136 61.9485 329.136 57.9281C329.136 39.1857 307.207 23.9922 280.154 23.9922C260.045 23.9922 242.764 32.3885 235.22 44.3973C231.277 44.2465 227.277 44.1702 223.229 44.1702C219.177 44.1702 215.172 44.2397 211.225 44.3779C203.674 32.3794 186.403 23.9922 166.303 23.9922C139.251 23.9922 117.321 39.1857 117.321 57.9281Z" fill="#61D243"/>
</g>
<path d="M284.269 73.0717C292.423 72.9872 296.827 73.4507 304.172 75.2654C304.347 75.3083 304.637 75.1897 304.761 75.0858C317.273 64.5687 320.248 46.4918 306.103 37.2811C305.122 36.6425 304.071 36.0593 302.947 35.5266C290.141 29.4564 272.519 29.3059 259.634 35.2896C259.137 35.5202 258.657 35.7603 258.192 36.0103C241.77 44.8437 244.298 65.9181 259.182 76.215C259.287 76.2884 259.477 76.3396 259.614 76.3087C270.296 73.8934 275.707 73.2042 284.269 73.0717Z" fill="white"/>
<path d="M162.747 71.6747C154.434 71.5616 149.941 71.9886 142.438 73.7003C142.26 73.7414 141.964 73.626 141.839 73.5258C129.17 63.3873 126.286 46.0339 140.782 37.2539C141.787 36.6453 142.863 36.09 144.014 35.5833C157.119 29.8108 175.086 29.7361 188.172 35.5273C188.677 35.7505 189.165 35.9828 189.636 36.2244C206.306 44.7633 203.554 64.9707 188.297 74.7894C188.188 74.8595 187.994 74.908 187.855 74.8775C176.985 72.5185 171.474 71.8358 162.747 71.6747Z" fill="white"/>
<path fill-rule="evenodd" clip-rule="evenodd" d="M278.555 70.8306C290.479 70.8306 300.145 63.9259 300.145 55.4077C300.145 51.6827 298.297 48.2661 295.219 45.6006C296.234 46.7159 296.823 48.0464 296.823 49.4756C296.823 53.4069 292.362 56.5941 286.859 56.5941C281.355 56.5941 276.894 53.4069 276.894 49.4756C276.894 45.5442 281.355 42.3573 286.859 42.3573C288.86 42.3573 290.722 42.7784 292.283 43.5033C288.552 41.3049 283.769 39.9844 278.555 39.9844C266.631 39.9844 256.965 46.8895 256.965 55.4077C256.965 63.9259 266.631 70.8306 278.555 70.8306Z" fill="black" fill-opacity="0.8"/>
<path fill-rule="evenodd" clip-rule="evenodd" d="M170.02 69.6881C181.944 69.6881 191.61 63.8931 191.61 55.3864C191.61 51.6665 189.761 48.2546 186.684 45.5929C187.699 46.7067 188.288 48.0353 188.288 49.4627C188.288 53.3885 183.827 56.571 178.323 56.571C172.821 56.571 168.359 53.3885 168.359 49.4627C168.359 45.5366 172.821 42.3539 178.323 42.3539C180.324 42.3539 182.187 42.7745 183.748 43.4985C180.017 41.3031 175.234 39.9844 170.02 39.9844C158.096 39.9844 148.43 46.8803 148.43 55.3864C148.43 63.8931 158.096 69.6881 170.02 69.6881Z" fill="black" fill-opacity="0.8"/>
<g filter="url(#filter1_d_1189_1060)">
<path d="M308.557 89.1133C279.34 92.5336 251.553 95.7572 222.658 89.1133C197.427 93.3211 154.871 92.9444 139.094 89.1133C141.288 174.679 303.326 178.756 309.45 93.286C309.548 91.9145 309.45 90.4797 308.557 89.1133Z" fill="#ABF47D"/>
</g>
<path d="M126.264 28.3718C131.21 13.205 137.522 8.76696 157.198 0.21335C157.874 -0.0803013 158.745 -0.0692561 159.409 0.236811L159.854 0.441701C184.304 11.6983 192.087 15.2812 191.589 23.3565C191.582 23.4714 191.347 23.4955 191.237 23.4125C175.21 11.3861 147.141 14.2506 130.453 25.8019C129.223 26.653 127.951 27.557 126.62 28.5169C126.47 28.625 126.215 28.5205 126.264 28.3718Z" fill="#333333"/>
<path d="M318.813 28.3718C314.131 13.205 308.157 8.76696 289.535 0.21335C288.895 -0.0803013 288.071 -0.0692561 287.442 0.236811L287.021 0.441701C263.881 11.6983 256.516 15.2812 256.986 23.3565C256.992 23.4714 257.215 23.4955 257.32 23.4125C272.488 11.3861 299.054 14.2506 314.848 25.8019C316.012 26.653 317.215 27.557 318.475 28.5169C318.617 28.625 318.858 28.5205 318.813 28.3718Z" fill="#333333"/>
<path d="M323.694 244.867C322.313 257.677 320.57 264.131 315.551 276.453C329.906 278.24 342.956 273.473 348.177 257.382C333.858 258.92 330.732 254.742 323.694 244.867Z" fill="#417932" stroke="#417932" stroke-width="0.4"/>
<path d="M283.953 341.341C283.953 339.708 285.305 338.383 286.973 338.383C288.642 338.383 289.994 339.708 289.994 341.341V348.219C288.118 348.989 286.761 349.143 283.953 349.03V341.341Z" fill="#499136"/>
<path d="M271.867 341.341C271.867 339.708 273.219 338.383 274.888 338.383C276.556 338.383 277.909 339.708 277.909 341.341V349.03H271.867V341.341Z" fill="#499136"/>
<path d="M158.28 341.341C158.28 339.708 156.928 338.383 155.259 338.383C153.591 338.383 152.238 339.708 152.238 341.341V348.094C154.115 348.863 155.472 349.145 158.28 349.032V341.341Z" fill="#499136"/>
<path d="M170.362 341.341C170.362 339.708 169.01 338.383 167.342 338.383C165.673 338.383 164.32 339.708 164.32 341.341V349.03H170.362V341.341Z" fill="#499136"/>
<path d="M259.785 341.341C259.785 339.708 261.139 338.383 262.806 338.383C264.476 338.383 265.828 339.708 265.828 341.341V348.51C263.414 347.98 262.079 347.481 259.785 346.321V341.341Z" fill="#499136"/>
<path d="M182.448 341.341C182.448 339.708 181.096 338.383 179.427 338.383C177.759 338.383 176.406 339.708 176.406 341.341V348.438C178.82 347.908 180.156 347.367 182.448 346.206V341.341Z" fill="#499136"/>
<path d="M296.821 270.895C284.134 298.102 266.611 322.352 220.387 325.31C182.629 323.536 159.065 299.876 145.773 270.895C205.643 319.163 237.573 318.756 296.821 270.895Z" fill="#9EE075"/>
<path d="M259.965 340.686V346.009C255.707 344.008 253.8 341.567 251.505 335.954C249.525 330.521 248.72 327.44 247.88 321.759C247.538 321.083 247.267 320.831 246.672 320.576C282.74 303.7 295.74 285.108 305.279 240.136C317.713 240.584 320.901 234.644 323.405 218.844C325.318 246.198 323.509 258.669 316.154 276.808C310.919 286.394 307.49 291.414 297.424 297.509C296.3 298.274 295.901 298.92 295.612 300.466V324.125C284.389 332.046 277.649 335.784 262.985 338.319C261.383 338.464 260.727 338.949 259.965 340.686Z" fill="#5EBE45" stroke="#5EBE45" stroke-width="0.4"/>
<path d="M182.738 340.686V346.009C186.995 344.008 188.903 341.567 191.197 335.954C193.178 330.521 193.983 327.44 194.823 321.759C195.165 321.083 195.436 320.831 196.031 320.576C159.961 303.7 146.961 285.108 137.422 240.136C124.987 240.584 121.798 234.644 119.295 218.844C117.382 246.198 119.191 258.669 126.546 276.808C131.781 286.394 135.21 291.414 145.277 297.509C146.401 298.274 146.799 298.92 147.089 300.466V324.125C158.312 332.046 165.053 335.784 179.717 338.319C181.32 338.464 181.974 338.949 182.738 340.686Z" fill="#5EBE45" stroke="#5EBE45" stroke-width="0.4"/>
<path d="M118.294 244.867C119.573 257.581 121.186 263.986 125.835 276.215C112.542 277.99 100.459 273.259 95.625 257.288C108.883 258.814 111.778 254.667 118.294 244.867Z" fill="#417932" stroke="#417932" stroke-width="0.4"/>
<path d="M290.174 261.431C291.509 261.431 292.591 260.372 292.591 259.065C292.591 257.758 291.509 256.699 290.174 256.699C288.84 256.699 287.758 257.758 287.758 259.065C287.758 260.372 288.84 261.431 290.174 261.431Z" fill="#9EE075"/>
<path d="M148.796 261.431C150.131 261.431 151.212 260.372 151.212 259.065C151.212 257.758 150.131 256.699 148.796 256.699C147.461 256.699 146.379 257.758 146.379 259.065C146.379 260.372 147.461 261.431 148.796 261.431Z" fill="#9EE075"/>
<path d="M278.089 270.892C279.423 270.892 280.506 269.833 280.506 268.526C280.506 267.22 279.423 266.16 278.089 266.16C276.754 266.16 275.672 267.22 275.672 268.526C275.672 269.833 276.754 270.892 278.089 270.892Z" fill="#9EE075"/>
<path d="M159.671 270.892C161.006 270.892 162.088 269.833 162.088 268.526C162.088 267.22 161.006 266.16 159.671 266.16C158.336 266.16 157.254 267.22 157.254 268.526C157.254 269.833 158.336 270.892 159.671 270.892Z" fill="#9EE075"/>
<path d="M275.674 259.064C277.009 259.064 278.092 258.004 278.092 256.698C278.092 255.391 277.009 254.332 275.674 254.332C274.34 254.332 273.258 255.391 273.258 256.698C273.258 258.004 274.34 259.064 275.674 259.064Z" fill="#9EE075"/>
<path d="M332.467 104.099C333.802 104.099 334.884 103.04 334.884 101.733C334.884 100.427 333.802 99.3672 332.467 99.3672C331.133 99.3672 330.051 100.427 330.051 101.733C330.051 103.04 331.133 104.099 332.467 104.099Z" fill="#499136"/>
<path d="M320.385 113.564C321.72 113.564 322.802 112.504 322.802 111.198C322.802 109.891 321.72 108.832 320.385 108.832C319.05 108.832 317.969 109.891 317.969 111.198C317.969 112.504 319.05 113.564 320.385 113.564Z" fill="#499136"/>
<path d="M317.968 101.732C319.302 101.732 320.384 100.673 320.384 99.3659C320.384 98.0595 319.302 97 317.968 97C316.633 97 315.551 98.0595 315.551 99.3659C315.551 100.673 316.633 101.732 317.968 101.732Z" fill="#499136"/>
<path d="M134.292 104.099C135.626 104.099 136.709 103.04 136.709 101.733C136.709 100.427 135.626 99.3672 134.292 99.3672C132.957 99.3672 131.875 100.427 131.875 101.733C131.875 103.04 132.957 104.099 134.292 104.099Z" fill="#499136"/>
<path d="M122.21 113.564C123.544 113.564 124.626 112.504 124.626 111.198C124.626 109.891 123.544 108.832 122.21 108.832C120.875 108.832 119.793 109.891 119.793 111.198C119.793 112.504 120.875 113.564 122.21 113.564Z" fill="#499136"/>
<path d="M119.792 101.732C121.126 101.732 122.209 100.673 122.209 99.3659C122.209 98.0595 121.126 97 119.792 97C118.457 97 117.375 98.0595 117.375 99.3659C117.375 100.673 118.457 101.732 119.792 101.732Z" fill="#499136"/>
<path d="M159.671 260.247C161.006 260.247 162.088 259.188 162.088 257.882C162.088 256.575 161.006 255.516 159.671 255.516C158.336 255.516 157.254 256.575 157.254 257.882C157.254 259.188 158.336 260.247 159.671 260.247Z" fill="#9EE075"/>
<path d="M318.817 84.543C306.681 91.5124 288.655 92.5275 271.805 92.5266C257.263 92.5261 244.68 91.7427 228.223 89.8251C224.593 89.4022 220.86 89.3366 217.198 89.6524C195.733 91.505 183.327 92.6789 159.202 92.5266C145.598 91.6591 138.345 89.1451 129.758 84.543" stroke="#499036" stroke-width="5" stroke-linecap="round"/>
</g>
</g>
<defs>
<filter id="filter0_d_1189_1060" x="94.082" y="15.9922" width="255.738" height="150.238" filterUnits="userSpaceOnUse" color-interpolation-filters="sRGB">
<feFlood flood-opacity="0" result="BackgroundImageFix"/>
<feColorMatrix in="SourceAlpha" type="matrix" values="0 0 0 0 0 0 0 0 0 0 0 0 0 0 0 0 0 0 127 0" result="hardAlpha"/>
<feOffset dy="2"/>
<feGaussianBlur stdDeviation="5"/>
<feComposite in2="hardAlpha" operator="out"/>
<feColorMatrix type="matrix" values="0 0 0 0 0 0 0 0 0 0 0 0 0 0 0 0 0 0 0.05 0"/>
<feBlend mode="normal" in2="BackgroundImageFix" result="effect1_dropShadow_1189_1060"/>
<feBlend mode="normal" in="SourceGraphic" in2="effect1_dropShadow_1189_1060" result="shape"/>
</filter>
<filter id="filter1_d_1189_1060" x="129.094" y="81.1133" width="190.387" height="86.2617" filterUnits="userSpaceOnUse" color-interpolation-filters="sRGB">
<feFlood flood-opacity="0" result="BackgroundImageFix"/>
<feColorMatrix in="SourceAlpha" type="matrix" values="0 0 0 0 0 0 0 0 0 0 0 0 0 0 0 0 0 0 127 0" result="hardAlpha"/>
<feOffset dy="2"/>
<feGaussianBlur stdDeviation="5"/>
<feComposite in2="hardAlpha" operator="out"/>
<feColorMatrix type="matrix" values="0 0 0 0 0 0 0 0 0 0 0 0 0 0 0 0 0 0 0.05 0"/>
<feBlend mode="normal" in2="BackgroundImageFix" result="effect1_dropShadow_1189_1060"/>
<feBlend mode="normal" in="SourceGraphic" in2="effect1_dropShadow_1189_1060" result="shape"/>
</filter>
<clipPath id="clip0_1189_1060">
<rect width="260" height="349" fill="white" transform="translate(92)"/>
</clipPath>
</defs>
</svg>
