<svg width="88" height="47" viewBox="0 0 88 47" fill="none" xmlns="http://www.w3.org/2000/svg">
<path fill-rule="evenodd" clip-rule="evenodd" d="M82.9697 12.1593C82.9697 13.4022 82.6887 14.6015 82.1666 15.7305C85.8192 18.3607 87.9043 21.5625 87.9043 25.2802C87.9043 35.9687 68.0208 46.6017 43.4931 46.6017C18.9658 46.6017 0.0694046 36.625 0.0694046 25.9364C-0.249214 22.2331 1.604 18.9738 5.08352 16.257C4.3933 14.9769 4.01706 13.5973 4.01706 12.1593C4.01706 5.4563 12.1912 0.0224609 22.2748 0.0224609C29.7705 0.0224609 36.2117 3.02535 39.0238 7.32021C40.4936 7.26627 41.9845 7.23896 43.4931 7.23896C45.0036 7.23896 46.4962 7.26384 47.9677 7.31325C50.7821 3.02208 57.22 0.0224609 64.7119 0.0224609C74.7955 0.0224609 82.9697 5.4563 82.9697 12.1593Z" fill="#808080"/>
<path d="M11.6995 23.3013C22.5901 24.5245 32.7367 25.6899 43.8809 25.6899C53.9519 25.6899 68.9847 24.6714 74.8657 23.3013C74.048 53.9033 13.6495 55.3614 11.3668 24.7936C11.3304 24.3031 11.3668 23.79 11.6995 23.3013Z" fill="#D9D9D9"/>
<path d="M2.77623 28.672C2.27879 28.672 1.87549 28.2933 1.87549 27.826C1.87549 27.3587 2.27879 26.9797 2.77623 26.9797C3.2738 26.9797 3.67711 27.3587 3.67711 27.826C3.67711 28.2933 3.2738 28.672 2.77623 28.672Z" fill="#333333"/>
<path d="M7.28022 32.0571C6.78279 32.0571 6.37948 31.6783 6.37948 31.2111C6.37948 30.7438 6.78279 30.365 7.28022 30.365C7.7778 30.365 8.18111 30.7438 8.18111 31.2111C8.18111 31.6783 7.7778 32.0571 7.28022 32.0571Z" fill="#333333"/>
<path d="M8.18123 27.8261C7.68379 27.8261 7.28049 27.4473 7.28049 26.98C7.28049 26.5127 7.68379 26.1338 8.18123 26.1338C8.67881 26.1338 9.08212 26.5127 9.08212 26.98C9.08212 27.4473 8.67881 27.8261 8.18123 27.8261Z" fill="#333333"/>
<path d="M76.6443 28.672C76.1468 28.672 75.7435 28.2933 75.7435 27.826C75.7435 27.3587 76.1468 26.9797 76.6443 26.9797C77.1418 26.9797 77.5451 27.3587 77.5451 27.826C77.5451 28.2933 77.1418 28.672 76.6443 28.672Z" fill="#333333"/>
<path d="M81.1486 32.0571C80.6511 32.0571 80.2478 31.6783 80.2478 31.2111C80.2478 30.7438 80.6511 30.365 81.1486 30.365C81.6462 30.365 82.0495 30.7438 82.0495 31.2111C82.0495 31.6783 81.6462 32.0571 81.1486 32.0571Z" fill="#333333"/>
<path d="M82.0493 27.8261C81.5518 27.8261 81.1485 27.4473 81.1485 26.98C81.1485 26.5127 81.5518 26.1338 82.0493 26.1338C82.5468 26.1338 82.9501 26.5127 82.9501 26.98C82.9501 27.4473 82.5468 27.8261 82.0493 27.8261Z" fill="#333333"/>
<path d="M7.86411 21.5127C12.3877 24.0053 19.1069 24.3684 25.3876 24.3682C30.8079 24.3679 35.8549 26.6134 41.9887 25.9276C43.3421 25.7762 44.7335 25.753 46.0984 25.8659C54.0993 26.5283 58.367 24.4227 67.3596 24.3682C72.4303 24.0578 75.1336 23.1586 78.3345 21.5127" stroke="#333333" stroke-width="2" stroke-linecap="round"/>
<path d="M53.9405 7.95264H76.724C76.7401 23.7126 53.979 24.0558 53.9407 8.29571C53.9404 8.18207 53.9404 8.0677 53.9405 7.95264Z" fill="white"/>
<path d="M58.0831 7.95264H68.8534C68.8614 14.8242 58.1072 14.9873 58.0831 8.11565C58.0829 8.06171 58.0829 8.00737 58.0831 7.95264Z" fill="#333333"/>
<path d="M11.3454 7.95264H34.1288C34.1448 23.7126 11.3838 24.0558 11.3454 8.29571C11.3451 8.18207 11.3451 8.0677 11.3454 7.95264Z" fill="white"/>
<path d="M19.231 7.95264H30.0013C30.0093 14.8242 19.2552 14.9873 19.2311 8.11565C19.231 8.06171 19.2308 8.00737 19.231 7.95264Z" fill="#333333"/>
<path d="M35.2845 6.5835H7.21777M80.1914 6.5835L52.62 6.5835" stroke="#333333" stroke-width="5" stroke-linecap="round"/>
</svg>
