<svg width="66" height="65" viewBox="0 0 66 65" fill="none" xmlns="http://www.w3.org/2000/svg">
<path d="M34.6384 41.9479L23.0521 35.7936L29.2064 24.2073L40.7927 30.3616L34.6384 41.9479ZM7.96497 12.9245C8.23701 12.4123 8.70135 12.0292 9.25585 11.8594C9.81035 11.6897 10.4096 11.7471 10.9217 12.0192L14.7838 14.0706L19.9124 4.41538C20.4565 3.39109 21.3851 2.62489 22.4941 2.28532C23.6031 1.94576 24.8016 2.06065 25.8259 2.60472L35.4811 7.7333L37.5325 3.87122C37.8046 3.35908 38.2689 2.97597 38.8234 2.80619C39.3779 2.63641 39.9771 2.69386 40.4893 2.96589C41.0014 3.23793 41.3845 3.70227 41.5543 4.25677C41.7241 4.81127 41.6667 5.41051 41.3946 5.92265L39.3432 9.78473L47.0674 13.8876L49.1188 10.0255C49.3908 9.51337 49.8552 9.13027 50.4097 8.96048C50.9642 8.7907 51.5634 8.84815 52.0755 9.12019C52.5877 9.39223 52.9708 9.85656 53.1406 10.4111C53.3103 10.9656 53.2529 11.5648 52.9809 12.0769L50.9294 15.939L60.5846 21.0676C61.6089 21.6117 62.3751 22.5404 62.7147 23.6494C63.0543 24.7584 62.9394 25.9568 62.3953 26.9811L57.2667 36.6363L61.1288 38.6878C61.6409 38.9598 62.024 39.4241 62.1938 39.9786C62.3636 40.5331 62.3062 41.1324 62.0341 41.6445C61.7621 42.1567 61.2977 42.5398 60.7432 42.7095C60.1887 42.8793 59.5895 42.8219 59.0774 42.5498L55.2153 40.4984L51.1124 48.2226L54.9745 50.274C55.4866 50.546 55.8697 51.0104 56.0395 51.5649C56.2093 52.1194 56.1519 52.7186 55.8798 53.2308C55.6078 53.7429 55.1434 54.126 54.5889 54.2958C54.0344 54.4656 53.4352 54.4081 52.9231 54.1361L49.061 52.0847L43.9324 61.7399C43.3883 62.7641 42.4596 63.5304 41.3507 63.8699C40.2417 64.2095 39.0432 64.0946 38.0189 63.5505L28.3637 58.4219L26.3123 62.284C26.0402 62.7962 25.5759 63.1793 25.0214 63.349C24.4669 63.5188 23.8676 63.4614 23.3555 63.1893C22.8434 62.9173 22.4603 62.453 22.2905 61.8985C22.1207 61.344 22.1781 60.7447 22.4502 60.2326L24.5016 56.3705L16.7774 52.2676L14.726 56.1297C14.454 56.6419 13.9896 57.025 13.4351 57.1947C12.8806 57.3645 12.2814 57.3071 11.7693 57.0351C11.2571 56.763 10.874 56.2987 10.7042 55.7442C10.5344 55.1897 10.5919 54.5904 10.8639 54.0783L12.9154 50.2162L3.26016 45.0876C2.23587 44.5436 1.46967 43.6149 1.1301 42.5059C0.790541 41.3969 0.90543 40.1984 1.4495 39.1741L6.57808 29.5189L2.716 27.4675C2.20386 27.1954 1.82075 26.7311 1.65097 26.1766C1.48119 25.6221 1.53864 25.0229 1.81068 24.5107C2.08271 23.9986 2.54705 23.6155 3.10155 23.4457C3.65605 23.2759 4.25529 23.3334 4.76743 23.6054L8.62951 25.6568L12.7324 17.9327L8.87029 15.8812C8.35815 15.6092 7.97505 15.1449 7.80526 14.5904C7.63548 14.0359 7.69293 13.4366 7.96497 12.9245ZM18.1643 35.6732C17.8923 36.1853 17.8348 36.7846 18.0046 37.3391C18.1744 37.8936 18.5575 38.3579 19.0697 38.63L34.518 46.8357C35.0301 47.1077 35.6294 47.1652 36.1839 46.9954C36.7384 46.8256 37.2027 46.4425 37.4747 45.9304L45.6805 30.482C45.9525 29.9699 46.0099 29.3707 45.8402 28.8162C45.6704 28.2617 45.2873 27.7973 44.7751 27.5253L29.3268 19.3195C28.8147 19.0475 28.2154 18.9901 27.6609 19.1598C27.1064 19.3296 26.6421 19.7127 26.3701 20.2249L18.1643 35.6732Z" fill="#850014"/>
<path d="M37.6705 40.7927L26.0843 34.6384L32.2386 23.0521L43.8248 29.2064L37.6705 40.7927ZM10.9971 11.7693C11.2692 11.2571 11.7335 10.874 12.288 10.7042C12.8425 10.5344 13.4417 10.5919 13.9539 10.8639L17.816 12.9154L22.9445 3.26016C23.4886 2.23587 24.4173 1.46966 25.5263 1.1301C26.6353 0.790539 27.8338 0.905435 28.8581 1.44951L38.5133 6.57809L40.5647 2.716C40.8367 2.20386 41.3011 1.82075 41.8556 1.65097C42.4101 1.48119 43.0093 1.53864 43.5214 1.81068C44.0336 2.08272 44.4167 2.54706 44.5865 3.10155C44.7563 3.65605 44.6988 4.25529 44.4268 4.76744L42.3753 8.62952L50.0995 12.7324L52.1509 8.8703C52.423 8.35816 52.8873 7.97505 53.4418 7.80527C53.9963 7.63548 54.5955 7.69293 55.1077 7.96497C55.6198 8.23701 56.0029 8.70135 56.1727 9.25585C56.3425 9.81035 56.2851 10.4096 56.013 10.9217L53.9616 14.7838L63.6168 19.9124C64.6411 20.4565 65.4073 21.3851 65.7469 22.4941C66.0864 23.6031 65.9715 24.8016 65.4274 25.8259L60.2989 35.4811L64.1609 37.5325C64.6731 37.8046 65.0562 38.2689 65.226 38.8234C65.3958 39.3779 65.3383 39.9772 65.0663 40.4893C64.7942 41.0014 64.3299 41.3845 63.7754 41.5543C63.2209 41.7241 62.6217 41.6667 62.1095 41.3946L58.2474 39.3432L54.1446 47.0674L58.0067 49.1188C58.5188 49.3908 58.9019 49.8552 59.0717 50.4097C59.2415 50.9642 59.184 51.5634 58.912 52.0755C58.6399 52.5877 58.1756 52.9708 57.6211 53.1406C57.0666 53.3104 56.4674 53.2529 55.9552 52.9809L52.0931 50.9294L46.9646 60.5846C46.4205 61.6089 45.4918 62.3751 44.3828 62.7147C43.2738 63.0543 42.0753 62.9394 41.0511 62.3953L31.3958 57.2667L29.3444 61.1288C29.0724 61.6409 28.608 62.024 28.0535 62.1938C27.499 62.3636 26.8998 62.3062 26.3877 62.0341C25.8755 61.7621 25.4924 61.2977 25.3226 60.7432C25.1529 60.1887 25.2103 59.5895 25.4823 59.0774L27.5338 55.2153L19.8096 51.1124L17.7582 54.9745C17.4861 55.4866 17.0218 55.8698 16.4673 56.0395C15.9128 56.2093 15.3136 56.1519 14.8014 55.8798C14.2893 55.6078 13.9062 55.1435 13.7364 54.589C13.5666 54.0345 13.6241 53.4352 13.8961 52.9231L15.9475 49.061L6.29231 43.9324C5.26802 43.3883 4.50182 42.4597 4.16226 41.3507C3.82269 40.2417 3.93759 39.0432 4.48166 38.0189L9.61024 28.3637L5.74816 26.3123C5.23602 26.0402 4.85291 25.5759 4.68313 25.0214C4.51335 24.4669 4.5708 23.8677 4.84283 23.3555C5.11487 22.8434 5.57921 22.4603 6.13371 22.2905C6.68821 22.1207 7.28745 22.1781 7.79959 22.4502L11.6617 24.5016L15.7645 16.7774L11.9025 14.726C11.3903 14.454 11.0072 13.9896 10.8374 13.4351C10.6676 12.8806 10.7251 12.2814 10.9971 11.7693ZM21.1965 34.518C20.9244 35.0301 20.867 35.6294 21.0368 36.1839C21.2066 36.7384 21.5897 37.2027 22.1018 37.4747L37.5501 45.6805C38.0623 45.9525 38.6615 46.01 39.216 45.8402C39.7705 45.6704 40.2349 45.2873 40.5069 44.7751L48.7126 29.3268C48.9847 28.8147 49.0421 28.2154 48.8723 27.6609C48.7025 27.1064 48.3194 26.6421 47.8073 26.3701L32.359 18.1643C31.8468 17.8923 31.2476 17.8348 30.6931 18.0046C30.1386 18.1744 29.6742 18.5575 29.4022 19.0697L21.1965 34.518Z" fill="#E10531"/>
</svg>
