<svg width="88" height="88" viewBox="0 0 88 88" fill="none" xmlns="http://www.w3.org/2000/svg">
<path d="M77.2625 33.425L75.6875 29.3125L83.825 26.25C79.8 16.975 72.625 9.5375 63.6125 4.9875L60.1125 12.775L56.0875 10.9375L59.5875 3.0625C54.6875 1.1375 49.35 0 43.75 0C39.1125 0 34.65 0.9625 30.45 2.1875L33.425 10.2375L29.3125 11.8125L26.25 3.675C16.975 7.7 9.5375 14.875 4.9875 23.8875L12.775 27.3875L10.9375 31.4125L3.0625 27.9125C1.1375 32.8125 0 38.15 0 43.75C0 48.3875 0.9625 52.85 2.1875 57.05L10.2375 54.075L11.8125 58.1875L3.675 61.25C7.7 70.525 14.875 77.9625 23.8875 82.5125L27.3875 74.725L31.4125 76.5625L27.9125 84.4375C32.8125 86.3625 38.15 87.5 43.75 87.5C48.3875 87.5 52.85 86.5375 57.05 85.3125L54.075 77.2625L58.1875 75.6875L61.25 83.825C70.525 79.8 77.9625 72.625 82.5125 63.6125L74.725 60.1125L76.5625 56.0875L84.4375 59.5875C86.3625 54.6875 87.5 49.35 87.5 43.75C87.5 39.1125 86.5375 34.65 85.3125 30.45L77.2625 33.425ZM53.8125 67.9875C40.425 73.5 25.025 67.2 19.5125 53.8125C14 40.425 20.3 25.025 33.6875 19.5125C47.075 14 62.475 20.3 67.9875 33.6875C69.3163 36.8695 70.0037 40.2826 70.0101 43.731C70.0165 47.1793 69.3418 50.595 68.0247 53.7819C66.7077 56.9688 64.7742 59.8643 62.3353 62.302C59.8964 64.7398 57 66.6719 53.8125 67.9875Z" fill="#003F5C"/>
</svg>
