<svg width="79" height="58" viewBox="0 0 79 58" fill="none" xmlns="http://www.w3.org/2000/svg">
<path d="M14.6991 3.04807C13.8802 2.89084 13.0321 3.06393 12.3414 3.52927C11.6507 3.99461 11.1739 4.71408 11.016 5.5294L3.87086 42.4195C3.71294 43.2348 3.88679 44.0792 4.35416 44.7669C4.82153 45.4546 5.54414 45.9293 6.36302 46.0865L15.6258 47.865L16.8167 41.7167L22.9919 42.9024L21.801 49.0507L27.9762 50.2364L29.167 44.088L35.3422 45.2737L34.1514 51.4221L40.3266 52.6078L41.5174 46.4594L47.6926 47.6451L46.5017 53.7934L52.6769 54.9791L53.8678 48.8308L60.043 50.0165L58.8521 56.1648L68.1149 57.9433C68.9338 58.1006 69.7819 57.9275 70.4726 57.4621C71.1633 56.9968 71.64 56.2773 71.7979 55.462L78.9431 18.5719C79.101 17.7566 78.9272 16.9122 78.4598 16.2245C77.9924 15.5368 77.2698 15.0622 76.4509 14.9049L14.6991 3.04807ZM21.5801 17.1233L40.1057 20.6803L38.3194 29.9029L19.7938 26.3458L21.5801 17.1233ZM46.2809 21.866L64.8064 25.4231L63.0201 34.6456L44.4946 31.0886L46.2809 21.866Z" fill="#7B2BBE"/>
<path d="M10.8851 0.0566547C10.0662 -0.100577 9.21814 0.0725171 8.52744 0.537857C7.83674 1.0032 7.35999 1.72266 7.20207 2.53799L0.0569019 39.4281C-0.101016 40.2434 0.0728323 41.0878 0.540204 41.7755C1.00757 42.4632 1.73018 42.9378 2.54907 43.0951L11.8118 44.8736L13.0027 38.7253L19.1779 39.9109L17.987 46.0593L24.1622 47.245L25.3531 41.0966L31.5283 42.2823L30.3374 48.4307L36.5126 49.6163L37.7035 43.468L43.8787 44.6537L42.6878 50.802L48.863 51.9877L50.0538 45.8394L56.229 47.0251L55.0382 53.1734L64.3009 54.9519C65.1198 55.1092 65.9679 54.9361 66.6586 54.4707C67.3493 54.0054 67.8261 53.2859 67.984 52.4706L75.1291 15.5805C75.2871 14.7652 75.1132 13.9208 74.6458 13.2331C74.1785 12.5454 73.4559 12.0707 72.637 11.9135L10.8851 0.0566547ZM17.7662 14.1319L36.2917 17.6889L34.5054 26.9114L15.9799 23.3544L17.7662 14.1319ZM42.4669 18.8746L60.9925 22.4317L59.2062 31.6542L40.6806 28.0971L42.4669 18.8746Z" fill="#C67DFF"/>
</svg>
