<svg width="88" height="84" viewBox="0 0 88 84" fill="none" xmlns="http://www.w3.org/2000/svg">
<path d="M63.3577 14.875L66.6077 13C67.9202 12.25 69.514 13.375 69.2015 14.8125L64.9202 34.7813C64.7015 35.7813 63.6702 36.375 62.7015 36.0625L43.2327 29.9062C42.9118 29.8048 42.6273 29.6122 42.4139 29.3519C42.2006 29.0916 42.0676 28.7749 42.0311 28.4403C41.9947 28.1057 42.0564 27.7677 42.2087 27.4676C42.361 27.1675 42.5974 26.9181 42.889 26.75L46.7952 24.4687L43.4702 18.7469L34.8546 32.4062C33.8233 34.0312 31.6983 34.5313 30.0733 33.5L19.6983 26.9688C18.0733 25.9375 17.5733 23.8125 18.6046 22.1875L30.2546 3.71563C30.2752 3.68215 30.296 3.64881 30.3171 3.61563L30.4483 3.40625L30.4858 3.375C31.2514 2.32979 32.2524 1.47958 33.4077 0.893232C34.5631 0.306883 35.8402 0.000878047 37.1358 0H49.9796C52.9171 0 55.6671 1.5625 57.1358 4.125L63.3577 14.875ZM25.0765 33.9687L30.264 53.7188C30.639 55.1563 29.1077 56.4062 27.7952 55.6875L23.7952 53.5937L20.7233 59.4375H36.7327C38.639 59.4375 40.2015 61 40.2015 62.9062V75.1875C40.2015 77.0937 38.639 78.6563 36.7327 78.6563H14.7483C14.8858 78.6781 15.0265 78.6875 15.1671 78.6875C12.3233 78.6875 9.66709 77.25 8.16709 74.8438L1.29209 63.9687C-0.301657 61.4687 -0.426657 58.3437 0.948343 55.7187L6.69834 44.7187L3.38584 42.9688C3.09102 42.8074 2.8486 42.5649 2.68725 42.2701C2.5259 41.9752 2.45239 41.6403 2.4754 41.305C2.49841 40.9697 2.61699 40.648 2.8171 40.378C3.01721 40.1079 3.29049 39.9008 3.60459 39.7812L22.7921 32.7812C23.7608 32.4375 24.8233 32.9687 25.0733 33.9687M66.9515 59.1594L59.514 44.8469C58.6077 43.1281 59.2952 41.0344 60.9827 40.1594L71.889 34.5031C73.6077 33.5969 75.7015 34.2844 76.5765 35.9719L86.7952 55.6906L86.8046 55.7719C87.839 58.1781 87.689 60.9281 86.3577 63.1875L79.8577 74.2813C79.1212 75.5316 78.0703 76.5674 76.8093 77.2856C75.5483 78.0038 74.1213 78.3794 72.6702 78.375L60.2327 78.3125V82.0625C60.2327 83.5938 58.4515 84.375 57.3265 83.3438L42.264 69.5625C42.0867 69.3995 41.9451 69.2014 41.8483 68.9809C41.7515 68.7603 41.7015 68.5221 41.7015 68.2813C41.7015 68.0404 41.7515 67.8022 41.8483 67.5816C41.9451 67.3611 42.0867 67.163 42.264 67L57.4202 53.3125C58.5452 52.2812 60.3265 53.0937 60.3265 54.5937L60.2952 59.125L66.9515 59.1594Z" fill="#26491D"/>
</svg>
