<svg width="377" height="116" viewBox="0 0 377 116" fill="none" xmlns="http://www.w3.org/2000/svg">
<g filter="url(#filter0_d_3122_2374)">
<rect x="20" y="15" width="337" height="76" rx="15" fill="white"/>
<rect width="24" height="24" transform="translate(34 41)" fill="white"/>
<path d="M42 53.25L44.5 55.75L50 50.25M55 53C55 48.0294 50.9706 44 46 44C41.0294 44 37 48.0294 37 53C37 57.9706 41.0294 62 46 62C50.9706 62 55 57.9706 55 53Z" stroke="#2A55C2" stroke-width="1.5" stroke-linecap="round" stroke-linejoin="round"/>
<path d="M71.832 47.88C73.016 47.88 74.0507 48.1093 74.936 48.568C75.832 49.016 76.52 49.6667 77 50.52C77.4907 51.3627 77.736 52.3493 77.736 53.48C77.736 54.6107 77.4907 55.592 77 56.424C76.52 57.256 75.832 57.896 74.936 58.344C74.0507 58.7813 73.016 59 71.832 59H68.2V47.88H71.832ZM71.832 57.512C73.1333 57.512 74.1307 57.16 74.824 56.456C75.5173 55.752 75.864 54.76 75.864 53.48C75.864 52.1893 75.5173 51.1813 74.824 50.456C74.1307 49.7307 73.1333 49.368 71.832 49.368H70.024V57.512H71.832ZM83.3678 59.144C82.5358 59.144 81.7838 58.9573 81.1118 58.584C80.4398 58.2 79.9118 57.6667 79.5278 56.984C79.1438 56.2907 78.9518 55.4907 78.9518 54.584C78.9518 53.688 79.1491 52.8933 79.5438 52.2C79.9384 51.5067 80.4771 50.9733 81.1598 50.6C81.8424 50.2267 82.6051 50.04 83.4478 50.04C84.2904 50.04 85.0531 50.2267 85.7358 50.6C86.4184 50.9733 86.9571 51.5067 87.3518 52.2C87.7464 52.8933 87.9438 53.688 87.9438 54.584C87.9438 55.48 87.7411 56.2747 87.3358 56.968C86.9304 57.6613 86.3758 58.2 85.6718 58.584C84.9784 58.9573 84.2104 59.144 83.3678 59.144ZM83.3678 57.56C83.8371 57.56 84.2744 57.448 84.6798 57.224C85.0958 57 85.4318 56.664 85.6878 56.216C85.9438 55.768 86.0718 55.224 86.0718 54.584C86.0718 53.944 85.9491 53.4053 85.7038 52.968C85.4584 52.52 85.1331 52.184 84.7278 51.96C84.3224 51.736 83.8851 51.624 83.4158 51.624C82.9464 51.624 82.5091 51.736 82.1038 51.96C81.7091 52.184 81.3944 52.52 81.1598 52.968C80.9251 53.4053 80.8078 53.944 80.8078 54.584C80.8078 55.5333 81.0478 56.2693 81.5278 56.792C82.0184 57.304 82.6318 57.56 83.3678 57.56ZM89.1389 54.552C89.1389 53.6667 89.3202 52.8827 89.6829 52.2C90.0562 51.5173 90.5575 50.9893 91.1869 50.616C91.8269 50.232 92.5309 50.04 93.2989 50.04C93.9922 50.04 94.5949 50.1787 95.1069 50.456C95.6295 50.7227 96.0455 51.0587 96.3549 51.464V50.184H98.1949V59H96.3549V57.688C96.0455 58.104 95.6242 58.4507 95.0909 58.728C94.5575 59.0053 93.9495 59.144 93.2669 59.144C92.5095 59.144 91.8162 58.952 91.1869 58.568C90.5575 58.1733 90.0562 57.6293 89.6829 56.936C89.3202 56.232 89.1389 55.4373 89.1389 54.552ZM96.3549 54.584C96.3549 53.976 96.2269 53.448 95.9709 53C95.7255 52.552 95.4002 52.2107 94.9949 51.976C94.5895 51.7413 94.1522 51.624 93.6829 51.624C93.2135 51.624 92.7762 51.7413 92.3709 51.976C91.9655 52.2 91.6349 52.536 91.3789 52.984C91.1335 53.4213 91.0109 53.944 91.0109 54.552C91.0109 55.16 91.1335 55.6933 91.3789 56.152C91.6349 56.6107 91.9655 56.9627 92.3709 57.208C92.7869 57.4427 93.2242 57.56 93.6829 57.56C94.1522 57.56 94.5895 57.4427 94.9949 57.208C95.4002 56.9733 95.7255 56.632 95.9709 56.184C96.2269 55.7253 96.3549 55.192 96.3549 54.584ZM104.303 57.608C105.359 57.608 106.057 57.144 106.399 56.216H108.367C108.132 57.0267 107.711 57.6933 107.103 58.216C106.505 58.728 105.753 59.0267 104.847 59.112V59.768C105.465 59.768 105.967 59.912 106.351 60.2C106.735 60.4987 106.927 60.9147 106.927 61.448C106.927 61.9813 106.735 62.4027 106.351 62.712C105.967 63.032 105.481 63.192 104.895 63.192H102.783V62.04H104.527C104.825 62.04 105.049 61.9973 105.199 61.912C105.348 61.8267 105.423 61.672 105.423 61.448C105.423 61.224 105.348 61.0693 105.199 60.984C105.049 60.8987 104.825 60.856 104.527 60.856H103.647V59.096C102.921 59.0107 102.281 58.7707 101.727 58.376C101.172 57.9707 100.74 57.448 100.431 56.808C100.132 56.1573 99.9826 55.416 99.9826 54.584C99.9826 53.6773 100.164 52.8827 100.527 52.2C100.9 51.5067 101.412 50.9733 102.063 50.6C102.713 50.2267 103.46 50.04 104.303 50.04C105.369 50.04 106.249 50.296 106.943 50.808C107.647 51.3093 108.121 52.0293 108.367 52.968H106.399C106.239 52.5307 105.983 52.1893 105.631 51.944C105.279 51.6987 104.836 51.576 104.303 51.576C103.556 51.576 102.959 51.8427 102.511 52.376C102.073 52.8987 101.855 53.6347 101.855 54.584C101.855 55.5333 102.073 56.2747 102.511 56.808C102.959 57.3413 103.556 57.608 104.303 57.608ZM109.576 54.552C109.576 53.6667 109.758 52.8827 110.12 52.2C110.494 51.5173 110.995 50.9893 111.624 50.616C112.264 50.232 112.968 50.04 113.736 50.04C114.43 50.04 115.032 50.1787 115.544 50.456C116.067 50.7227 116.483 51.0587 116.792 51.464V50.184H118.632V59H116.792V57.688C116.483 58.104 116.062 58.4507 115.528 58.728C114.995 59.0053 114.387 59.144 113.704 59.144C112.947 59.144 112.254 58.952 111.624 58.568C110.995 58.1733 110.494 57.6293 110.12 56.936C109.758 56.232 109.576 55.4373 109.576 54.552ZM116.792 54.584C116.792 53.976 116.664 53.448 116.408 53C116.163 52.552 115.838 52.2107 115.432 51.976C115.027 51.7413 114.59 51.624 114.12 51.624C113.651 51.624 113.214 51.7413 112.808 51.976C112.403 52.2 112.072 52.536 111.816 52.984C111.571 53.4213 111.448 53.944 111.448 54.552C111.448 55.16 111.571 55.6933 111.816 56.152C112.072 56.6107 112.403 56.9627 112.808 57.208C113.224 57.4427 113.662 57.56 114.12 57.56C114.59 57.56 115.027 57.4427 115.432 57.208C115.838 56.9733 116.163 56.632 116.408 56.184C116.664 55.7253 116.792 55.192 116.792 54.584ZM111.8 49.272C111.886 48.6533 112.088 48.1893 112.408 47.88C112.728 47.56 113.128 47.4 113.608 47.4C113.811 47.4 113.987 47.432 114.136 47.496C114.286 47.56 114.467 47.656 114.68 47.784C114.84 47.8907 114.974 47.9707 115.08 48.024C115.198 48.0773 115.326 48.104 115.464 48.104C115.646 48.104 115.795 48.0507 115.912 47.944C116.04 47.8267 116.12 47.656 116.152 47.432H117.176C117.091 48.0507 116.888 48.52 116.568 48.84C116.248 49.1493 115.848 49.304 115.368 49.304C115.166 49.304 114.984 49.272 114.824 49.208C114.664 49.1333 114.488 49.032 114.296 48.904C114.104 48.7867 113.955 48.7067 113.848 48.664C113.752 48.6107 113.64 48.584 113.512 48.584C113.331 48.584 113.176 48.6427 113.048 48.76C112.931 48.8773 112.856 49.048 112.824 49.272H111.8ZM124.852 59.144C124.02 59.144 123.268 58.9573 122.596 58.584C121.924 58.2 121.396 57.6667 121.012 56.984C120.628 56.2907 120.436 55.4907 120.436 54.584C120.436 53.688 120.633 52.8933 121.028 52.2C121.423 51.5067 121.961 50.9733 122.644 50.6C123.327 50.2267 124.089 50.04 124.932 50.04C125.775 50.04 126.537 50.2267 127.22 50.6C127.903 50.9733 128.441 51.5067 128.836 52.2C129.231 52.8933 129.428 53.688 129.428 54.584C129.428 55.48 129.225 56.2747 128.82 56.968C128.415 57.6613 127.86 58.2 127.156 58.584C126.463 58.9573 125.695 59.144 124.852 59.144ZM124.852 57.56C125.321 57.56 125.759 57.448 126.164 57.224C126.58 57 126.916 56.664 127.172 56.216C127.428 55.768 127.556 55.224 127.556 54.584C127.556 53.944 127.433 53.4053 127.188 52.968C126.943 52.52 126.617 52.184 126.212 51.96C125.807 51.736 125.369 51.624 124.9 51.624C124.431 51.624 123.993 51.736 123.588 51.96C123.193 52.184 122.879 52.52 122.644 52.968C122.409 53.4053 122.292 53.944 122.292 54.584C122.292 55.5333 122.532 56.2693 123.012 56.792C123.503 57.304 124.116 57.56 124.852 57.56ZM134.78 54.552C134.78 53.6667 134.961 52.8827 135.324 52.2C135.697 51.5173 136.198 50.9893 136.828 50.616C137.468 50.232 138.172 50.04 138.94 50.04C139.633 50.04 140.236 50.1787 140.748 50.456C141.27 50.7227 141.686 51.0587 141.996 51.464V50.184H143.836V59H141.996V57.688C141.686 58.104 141.265 58.4507 140.732 58.728C140.198 59.0053 139.59 59.144 138.908 59.144C138.15 59.144 137.457 58.952 136.828 58.568C136.198 58.1733 135.697 57.6293 135.324 56.936C134.961 56.232 134.78 55.4373 134.78 54.552ZM141.996 54.584C141.996 53.976 141.868 53.448 141.612 53C141.366 52.552 141.041 52.2107 140.636 51.976C140.23 51.7413 139.793 51.624 139.324 51.624C138.854 51.624 138.417 51.7413 138.012 51.976C137.606 52.2 137.276 52.536 137.02 52.984C136.774 53.4213 136.652 53.944 136.652 54.552C136.652 55.16 136.774 55.6933 137.02 56.152C137.276 56.6107 137.606 56.9627 138.012 57.208C138.428 57.4427 138.865 57.56 139.324 57.56C139.793 57.56 140.23 57.4427 140.636 57.208C141.041 56.9733 141.366 56.632 141.612 56.184C141.868 55.7253 141.996 55.192 141.996 54.584ZM145.623 54.552C145.623 53.6667 145.805 52.8827 146.167 52.2C146.541 51.5173 147.042 50.9893 147.671 50.616C148.311 50.232 149.021 50.04 149.799 50.04C150.375 50.04 150.941 50.168 151.495 50.424C152.061 50.6693 152.509 51 152.839 51.416V47.16H154.679V59H152.839V57.672C152.541 58.0987 152.125 58.4507 151.591 58.728C151.069 59.0053 150.466 59.144 149.783 59.144C149.015 59.144 148.311 58.952 147.671 58.568C147.042 58.1733 146.541 57.6293 146.167 56.936C145.805 56.232 145.623 55.4373 145.623 54.552ZM152.839 54.584C152.839 53.976 152.711 53.448 152.455 53C152.21 52.552 151.885 52.2107 151.479 51.976C151.074 51.7413 150.637 51.624 150.167 51.624C149.698 51.624 149.261 51.7413 148.855 51.976C148.45 52.2 148.119 52.536 147.863 52.984C147.618 53.4213 147.495 53.944 147.495 54.552C147.495 55.16 147.618 55.6933 147.863 56.152C148.119 56.6107 148.45 56.9627 148.855 57.208C149.271 57.4427 149.709 57.56 150.167 57.56C150.637 57.56 151.074 57.4427 151.479 57.208C151.885 56.9733 152.21 56.632 152.455 56.184C152.711 55.7253 152.839 55.192 152.839 54.584ZM158.003 49.016C157.672 49.016 157.395 48.904 157.171 48.68C156.947 48.456 156.835 48.1787 156.835 47.848C156.835 47.5173 156.947 47.24 157.171 47.016C157.395 46.792 157.672 46.68 158.003 46.68C158.323 46.68 158.595 46.792 158.819 47.016C159.043 47.24 159.155 47.5173 159.155 47.848C159.155 48.1787 159.043 48.456 158.819 48.68C158.595 48.904 158.323 49.016 158.003 49.016ZM158.899 50.184V59H157.075V50.184H158.899ZM160.686 54.584C160.686 53.6773 160.867 52.8827 161.23 52.2C161.603 51.5067 162.115 50.9733 162.766 50.6C163.416 50.2267 164.163 50.04 165.006 50.04C166.072 50.04 166.952 50.296 167.646 50.808C168.35 51.3093 168.824 52.0293 169.07 52.968H167.102C166.942 52.5307 166.686 52.1893 166.334 51.944C165.982 51.6987 165.539 51.576 165.006 51.576C164.259 51.576 163.662 51.8427 163.214 52.376C162.776 52.8987 162.558 53.6347 162.558 54.584C162.558 55.5333 162.776 56.2747 163.214 56.808C163.662 57.3413 164.259 57.608 165.006 57.608C166.062 57.608 166.76 57.144 167.102 56.216H169.07C168.814 57.112 168.334 57.8267 167.63 58.36C166.926 58.8827 166.051 59.144 165.006 59.144C164.163 59.144 163.416 58.9573 162.766 58.584C162.115 58.2 161.603 57.6667 161.23 56.984C160.867 56.2907 160.686 55.4907 160.686 54.584ZM171.816 49.016C171.485 49.016 171.208 48.904 170.984 48.68C170.76 48.456 170.648 48.1787 170.648 47.848C170.648 47.5173 170.76 47.24 170.984 47.016C171.208 46.792 171.485 46.68 171.816 46.68C172.136 46.68 172.408 46.792 172.632 47.016C172.856 47.24 172.968 47.5173 172.968 47.848C172.968 48.1787 172.856 48.456 172.632 48.68C172.408 48.904 172.136 49.016 171.816 49.016ZM172.712 50.184V59H170.888V50.184H172.712ZM178.93 59.144C178.098 59.144 177.346 58.9573 176.674 58.584C176.002 58.2 175.474 57.6667 175.09 56.984C174.706 56.2907 174.514 55.4907 174.514 54.584C174.514 53.688 174.712 52.8933 175.106 52.2C175.501 51.5067 176.04 50.9733 176.722 50.6C177.405 50.2267 178.168 50.04 179.01 50.04C179.853 50.04 180.616 50.2267 181.298 50.6C181.981 50.9733 182.52 51.5067 182.914 52.2C183.309 52.8933 183.506 53.688 183.506 54.584C183.506 55.48 183.304 56.2747 182.898 56.968C182.493 57.6613 181.938 58.2 181.234 58.584C180.541 58.9573 179.773 59.144 178.93 59.144ZM178.93 57.56C179.4 57.56 179.837 57.448 180.242 57.224C180.658 57 180.994 56.664 181.25 56.216C181.506 55.768 181.634 55.224 181.634 54.584C181.634 53.944 181.512 53.4053 181.266 52.968C181.021 52.52 180.696 52.184 180.29 51.96C179.885 51.736 179.448 51.624 178.978 51.624C178.509 51.624 178.072 51.736 177.666 51.96C177.272 52.184 176.957 52.52 176.722 52.968C176.488 53.4053 176.37 53.944 176.37 54.584C176.37 55.5333 176.61 56.2693 177.09 56.792C177.581 57.304 178.194 57.56 178.93 57.56ZM189.757 50.04C190.451 50.04 191.069 50.184 191.613 50.472C192.168 50.76 192.6 51.1867 192.909 51.752C193.219 52.3173 193.373 53 193.373 53.8V59H191.565V54.072C191.565 53.2827 191.368 52.68 190.973 52.264C190.579 51.8373 190.04 51.624 189.357 51.624C188.675 51.624 188.131 51.8373 187.725 52.264C187.331 52.68 187.133 53.2827 187.133 54.072V59H185.309V50.184H187.133V51.192C187.432 50.8293 187.811 50.5467 188.269 50.344C188.739 50.1413 189.235 50.04 189.757 50.04ZM195.092 54.552C195.092 53.6667 195.273 52.8827 195.636 52.2C196.009 51.5173 196.511 50.9893 197.14 50.616C197.78 50.232 198.484 50.04 199.252 50.04C199.945 50.04 200.548 50.1787 201.06 50.456C201.583 50.7227 201.999 51.0587 202.308 51.464V50.184H204.148V59H202.308V57.688C201.999 58.104 201.577 58.4507 201.044 58.728C200.511 59.0053 199.903 59.144 199.22 59.144C198.463 59.144 197.769 58.952 197.14 58.568C196.511 58.1733 196.009 57.6293 195.636 56.936C195.273 56.232 195.092 55.4373 195.092 54.552ZM202.308 54.584C202.308 53.976 202.18 53.448 201.924 53C201.679 52.552 201.353 52.2107 200.948 51.976C200.543 51.7413 200.105 51.624 199.636 51.624C199.167 51.624 198.729 51.7413 198.324 51.976C197.919 52.2 197.588 52.536 197.332 52.984C197.087 53.4213 196.964 53.944 196.964 54.552C196.964 55.16 197.087 55.6933 197.332 56.152C197.588 56.6107 197.919 56.9627 198.324 57.208C198.74 57.4427 199.177 57.56 199.636 57.56C200.105 57.56 200.543 57.4427 200.948 57.208C201.353 56.9733 201.679 56.632 201.924 56.184C202.18 55.7253 202.308 55.192 202.308 54.584ZM205.936 54.552C205.936 53.6667 206.117 52.8827 206.48 52.2C206.853 51.5173 207.354 50.9893 207.984 50.616C208.624 50.232 209.333 50.04 210.112 50.04C210.688 50.04 211.253 50.168 211.808 50.424C212.373 50.6693 212.821 51 213.152 51.416V47.16H214.992V59H213.152V57.672C212.853 58.0987 212.437 58.4507 211.904 58.728C211.381 59.0053 210.778 59.144 210.096 59.144C209.328 59.144 208.624 58.952 207.984 58.568C207.354 58.1733 206.853 57.6293 206.48 56.936C206.117 56.232 205.936 55.4373 205.936 54.552ZM213.152 54.584C213.152 53.976 213.024 53.448 212.768 53C212.522 52.552 212.197 52.2107 211.792 51.976C211.386 51.7413 210.949 51.624 210.48 51.624C210.01 51.624 209.573 51.7413 209.168 51.976C208.762 52.2 208.432 52.536 208.176 52.984C207.93 53.4213 207.808 53.944 207.808 54.552C207.808 55.16 207.93 55.6933 208.176 56.152C208.432 56.6107 208.762 56.9627 209.168 57.208C209.584 57.4427 210.021 57.56 210.48 57.56C210.949 57.56 211.386 57.4427 211.792 57.208C212.197 56.9733 212.522 56.632 212.768 56.184C213.024 55.7253 213.152 55.192 213.152 54.584ZM216.78 54.552C216.78 53.6667 216.961 52.8827 217.324 52.2C217.697 51.5173 218.198 50.9893 218.828 50.616C219.468 50.232 220.172 50.04 220.94 50.04C221.633 50.04 222.236 50.1787 222.748 50.456C223.27 50.7227 223.686 51.0587 223.996 51.464V50.184H225.836V59H223.996V57.688C223.686 58.104 223.265 58.4507 222.732 58.728C222.198 59.0053 221.59 59.144 220.908 59.144C220.15 59.144 219.457 58.952 218.828 58.568C218.198 58.1733 217.697 57.6293 217.324 56.936C216.961 56.232 216.78 55.4373 216.78 54.552ZM223.996 54.584C223.996 53.976 223.868 53.448 223.612 53C223.366 52.552 223.041 52.2107 222.636 51.976C222.23 51.7413 221.793 51.624 221.324 51.624C220.854 51.624 220.417 51.7413 220.012 51.976C219.606 52.2 219.276 52.536 219.02 52.984C218.774 53.4213 218.652 53.944 218.652 54.552C218.652 55.16 218.774 55.6933 219.02 56.152C219.276 56.6107 219.606 56.9627 220.012 57.208C220.428 57.4427 220.865 57.56 221.324 57.56C221.793 57.56 222.23 57.4427 222.636 57.208C223.041 56.9733 223.366 56.632 223.612 56.184C223.868 55.7253 223.996 55.192 223.996 54.584ZM231.78 54.584C231.78 53.6773 231.961 52.8827 232.324 52.2C232.697 51.5067 233.209 50.9733 233.86 50.6C234.51 50.2267 235.257 50.04 236.1 50.04C237.166 50.04 238.046 50.296 238.74 50.808C239.444 51.3093 239.918 52.0293 240.164 52.968H238.196C238.036 52.5307 237.78 52.1893 237.428 51.944C237.076 51.6987 236.633 51.576 236.1 51.576C235.353 51.576 234.756 51.8427 234.308 52.376C233.87 52.8987 233.652 53.6347 233.652 54.584C233.652 55.5333 233.87 56.2747 234.308 56.808C234.756 57.3413 235.353 57.608 236.1 57.608C237.156 57.608 237.854 57.144 238.196 56.216H240.164C239.908 57.112 239.428 57.8267 238.724 58.36C238.02 58.8827 237.145 59.144 236.1 59.144C235.257 59.144 234.51 58.9573 233.86 58.584C233.209 58.2 232.697 57.6667 232.324 56.984C231.961 56.2907 231.78 55.4907 231.78 54.584ZM245.805 59.144C244.973 59.144 244.221 58.9573 243.549 58.584C242.877 58.2 242.349 57.6667 241.965 56.984C241.581 56.2907 241.389 55.4907 241.389 54.584C241.389 53.688 241.587 52.8933 241.981 52.2C242.376 51.5067 242.915 50.9733 243.597 50.6C244.28 50.2267 245.043 50.04 245.885 50.04C246.728 50.04 247.491 50.2267 248.173 50.6C248.856 50.9733 249.395 51.5067 249.789 52.2C250.184 52.8933 250.381 53.688 250.381 54.584C250.381 55.48 250.179 56.2747 249.773 56.968C249.368 57.6613 248.813 58.2 248.109 58.584C247.416 58.9573 246.648 59.144 245.805 59.144ZM245.805 57.56C246.275 57.56 246.712 57.448 247.117 57.224C247.533 57 247.869 56.664 248.125 56.216C248.381 55.768 248.509 55.224 248.509 54.584C248.509 53.944 248.387 53.4053 248.141 52.968C247.896 52.52 247.571 52.184 247.165 51.96C246.76 51.736 246.323 51.624 245.853 51.624C245.384 51.624 244.947 51.736 244.541 51.96C244.147 52.184 243.832 52.52 243.597 52.968C243.363 53.4053 243.245 53.944 243.245 54.584C243.245 55.5333 243.485 56.2693 243.965 56.792C244.456 57.304 245.069 57.56 245.805 57.56ZM262.856 50.04C263.55 50.04 264.168 50.184 264.712 50.472C265.267 50.76 265.699 51.1867 266.008 51.752C266.328 52.3173 266.488 53 266.488 53.8V59H264.68V54.072C264.68 53.2827 264.483 52.68 264.088 52.264C263.694 51.8373 263.155 51.624 262.472 51.624C261.79 51.624 261.246 51.8373 260.84 52.264C260.446 52.68 260.248 53.2827 260.248 54.072V59H258.44V54.072C258.44 53.2827 258.243 52.68 257.848 52.264C257.454 51.8373 256.915 51.624 256.232 51.624C255.55 51.624 255.006 51.8373 254.6 52.264C254.206 52.68 254.008 53.2827 254.008 54.072V59H252.184V50.184H254.008V51.192C254.307 50.8293 254.686 50.5467 255.144 50.344C255.603 50.1413 256.094 50.04 256.616 50.04C257.32 50.04 257.95 50.1893 258.504 50.488C259.059 50.7867 259.486 51.2187 259.784 51.784C260.051 51.2507 260.467 50.8293 261.032 50.52C261.598 50.2 262.206 50.04 262.856 50.04ZM276.166 59.144C275.472 59.144 274.848 59.0213 274.294 58.776C273.75 58.52 273.318 58.1787 272.998 57.752C272.678 57.3147 272.507 56.8293 272.486 56.296H274.374C274.406 56.6693 274.582 56.984 274.902 57.24C275.232 57.4853 275.643 57.608 276.134 57.608C276.646 57.608 277.04 57.512 277.318 57.32C277.606 57.1173 277.75 56.8613 277.75 56.552C277.75 56.2213 277.59 55.976 277.27 55.816C276.96 55.656 276.464 55.48 275.782 55.288C275.12 55.1067 274.582 54.9307 274.166 54.76C273.75 54.5893 273.387 54.328 273.078 53.976C272.779 53.624 272.63 53.16 272.63 52.584C272.63 52.1147 272.768 51.688 273.046 51.304C273.323 50.9093 273.718 50.6 274.23 50.376C274.752 50.152 275.35 50.04 276.022 50.04C277.024 50.04 277.83 50.296 278.438 50.808C279.056 51.3093 279.387 51.9973 279.43 52.872H277.606C277.574 52.4773 277.414 52.1627 277.126 51.928C276.838 51.6933 276.448 51.576 275.958 51.576C275.478 51.576 275.11 51.6667 274.854 51.848C274.598 52.0293 274.47 52.2693 274.47 52.568C274.47 52.8027 274.555 53 274.726 53.16C274.896 53.32 275.104 53.448 275.35 53.544C275.595 53.6293 275.958 53.7413 276.438 53.88C277.078 54.0507 277.6 54.2267 278.006 54.408C278.422 54.5787 278.779 54.8347 279.078 55.176C279.376 55.5173 279.531 55.9707 279.542 56.536C279.542 57.0373 279.403 57.4853 279.126 57.88C278.848 58.2747 278.454 58.584 277.942 58.808C277.44 59.032 276.848 59.144 276.166 59.144ZM289.497 50.184V59H287.673V57.96C287.385 58.3227 287.006 58.6107 286.537 58.824C286.078 59.0267 285.587 59.128 285.065 59.128C284.371 59.128 283.747 58.984 283.193 58.696C282.649 58.408 282.217 57.9813 281.897 57.416C281.587 56.8507 281.433 56.168 281.433 55.368V50.184H283.241V55.096C283.241 55.8853 283.438 56.4933 283.833 56.92C284.227 57.336 284.766 57.544 285.449 57.544C286.131 57.544 286.67 57.336 287.065 56.92C287.47 56.4933 287.673 55.8853 287.673 55.096V50.184H289.497ZM291.295 54.584C291.295 53.6773 291.476 52.8827 291.839 52.2C292.212 51.5067 292.724 50.9733 293.375 50.6C294.026 50.2267 294.772 50.04 295.615 50.04C296.682 50.04 297.562 50.296 298.255 50.808C298.959 51.3093 299.434 52.0293 299.679 52.968H297.711C297.551 52.5307 297.295 52.1893 296.943 51.944C296.591 51.6987 296.148 51.576 295.615 51.576C294.868 51.576 294.271 51.8427 293.823 52.376C293.386 52.8987 293.167 53.6347 293.167 54.584C293.167 55.5333 293.386 56.2747 293.823 56.808C294.271 57.3413 294.868 57.608 295.615 57.608C296.671 57.608 297.37 57.144 297.711 56.216H299.679C299.423 57.112 298.943 57.8267 298.239 58.36C297.535 58.8827 296.66 59.144 295.615 59.144C294.772 59.144 294.026 58.9573 293.375 58.584C292.724 58.2 292.212 57.6667 291.839 56.984C291.476 56.2907 291.295 55.4907 291.295 54.584ZM309.577 54.376C309.577 54.7067 309.556 55.0053 309.513 55.272H302.777C302.83 55.976 303.092 56.5413 303.561 56.968C304.03 57.3947 304.606 57.608 305.289 57.608C306.27 57.608 306.964 57.1973 307.369 56.376H309.337C309.07 57.1867 308.585 57.8533 307.881 58.376C307.188 58.888 306.324 59.144 305.289 59.144C304.446 59.144 303.689 58.9573 303.017 58.584C302.356 58.2 301.833 57.6667 301.449 56.984C301.076 56.2907 300.889 55.4907 300.889 54.584C300.889 53.6773 301.07 52.8827 301.433 52.2C301.806 51.5067 302.324 50.9733 302.985 50.6C303.657 50.2267 304.425 50.04 305.289 50.04C306.121 50.04 306.862 50.2213 307.513 50.584C308.164 50.9467 308.67 51.4587 309.033 52.12C309.396 52.7707 309.577 53.5227 309.577 54.376ZM307.673 53.8C307.662 53.128 307.422 52.5893 306.953 52.184C306.484 51.7787 305.902 51.576 305.209 51.576C304.58 51.576 304.041 51.7787 303.593 52.184C303.145 52.5787 302.878 53.1173 302.793 53.8H307.673ZM314.572 59.144C313.879 59.144 313.255 59.0213 312.7 58.776C312.156 58.52 311.724 58.1787 311.404 57.752C311.084 57.3147 310.913 56.8293 310.892 56.296H312.78C312.812 56.6693 312.988 56.984 313.308 57.24C313.639 57.4853 314.049 57.608 314.54 57.608C315.052 57.608 315.447 57.512 315.724 57.32C316.012 57.1173 316.156 56.8613 316.156 56.552C316.156 56.2213 315.996 55.976 315.676 55.816C315.367 55.656 314.871 55.48 314.188 55.288C313.527 55.1067 312.988 54.9307 312.572 54.76C312.156 54.5893 311.793 54.328 311.484 53.976C311.185 53.624 311.036 53.16 311.036 52.584C311.036 52.1147 311.175 51.688 311.452 51.304C311.729 50.9093 312.124 50.6 312.636 50.376C313.159 50.152 313.756 50.04 314.428 50.04C315.431 50.04 316.236 50.296 316.844 50.808C317.463 51.3093 317.793 51.9973 317.836 52.872H316.012C315.98 52.4773 315.82 52.1627 315.532 51.928C315.244 51.6933 314.855 51.576 314.364 51.576C313.884 51.576 313.516 51.6667 313.26 51.848C313.004 52.0293 312.876 52.2693 312.876 52.568C312.876 52.8027 312.961 53 313.132 53.16C313.303 53.32 313.511 53.448 313.756 53.544C314.001 53.6293 314.364 53.7413 314.844 53.88C315.484 54.0507 316.007 54.2267 316.412 54.408C316.828 54.5787 317.185 54.8347 317.484 55.176C317.783 55.5173 317.937 55.9707 317.948 56.536C317.948 57.0373 317.809 57.4853 317.532 57.88C317.255 58.2747 316.86 58.584 316.348 58.808C315.847 59.032 315.255 59.144 314.572 59.144ZM323.119 59.144C322.425 59.144 321.801 59.0213 321.247 58.776C320.703 58.52 320.271 58.1787 319.951 57.752C319.631 57.3147 319.46 56.8293 319.439 56.296H321.327C321.359 56.6693 321.535 56.984 321.855 57.24C322.185 57.4853 322.596 57.608 323.087 57.608C323.599 57.608 323.993 57.512 324.271 57.32C324.559 57.1173 324.703 56.8613 324.703 56.552C324.703 56.2213 324.543 55.976 324.223 55.816C323.913 55.656 323.417 55.48 322.735 55.288C322.073 55.1067 321.535 54.9307 321.119 54.76C320.703 54.5893 320.34 54.328 320.031 53.976C319.732 53.624 319.583 53.16 319.583 52.584C319.583 52.1147 319.721 51.688 319.999 51.304C320.276 50.9093 320.671 50.6 321.183 50.376C321.705 50.152 322.303 50.04 322.975 50.04C323.977 50.04 324.783 50.296 325.391 50.808C326.009 51.3093 326.34 51.9973 326.383 52.872H324.559C324.527 52.4773 324.367 52.1627 324.079 51.928C323.791 51.6933 323.401 51.576 322.911 51.576C322.431 51.576 322.063 51.6667 321.807 51.848C321.551 52.0293 321.423 52.2693 321.423 52.568C321.423 52.8027 321.508 53 321.679 53.16C321.849 53.32 322.057 53.448 322.303 53.544C322.548 53.6293 322.911 53.7413 323.391 53.88C324.031 54.0507 324.553 54.2267 324.959 54.408C325.375 54.5787 325.732 54.8347 326.031 55.176C326.329 55.5173 326.484 55.9707 326.495 56.536C326.495 57.0373 326.356 57.4853 326.079 57.88C325.801 58.2747 325.407 58.584 324.895 58.808C324.393 59.032 323.801 59.144 323.119 59.144ZM332.29 59.144C331.458 59.144 330.706 58.9573 330.034 58.584C329.362 58.2 328.834 57.6667 328.45 56.984C328.066 56.2907 327.874 55.4907 327.874 54.584C327.874 53.688 328.071 52.8933 328.466 52.2C328.86 51.5067 329.399 50.9733 330.082 50.6C330.764 50.2267 331.527 50.04 332.37 50.04C333.212 50.04 333.975 50.2267 334.658 50.6C335.34 50.9733 335.879 51.5067 336.274 52.2C336.668 52.8933 336.866 53.688 336.866 54.584C336.866 55.48 336.663 56.2747 336.258 56.968C335.852 57.6613 335.298 58.2 334.594 58.584C333.9 58.9573 333.132 59.144 332.29 59.144ZM332.29 57.56C332.759 57.56 333.196 57.448 333.602 57.224C334.018 57 334.354 56.664 334.61 56.216C334.866 55.768 334.994 55.224 334.994 54.584C334.994 53.944 334.871 53.4053 334.626 52.968C334.38 52.52 334.055 52.184 333.65 51.96C333.244 51.736 332.807 51.624 332.338 51.624C331.868 51.624 331.431 51.736 331.026 51.96C330.631 52.184 330.316 52.52 330.082 52.968C329.847 53.4053 329.73 53.944 329.73 54.584C329.73 55.5333 329.97 56.2693 330.45 56.792C330.94 57.304 331.554 57.56 332.29 57.56ZM340.957 47.88L340.749 55.64H339.229L339.021 47.88H340.957ZM340.045 59.112C339.714 59.112 339.437 59 339.213 58.776C338.989 58.552 338.877 58.2747 338.877 57.944C338.877 57.6133 338.989 57.336 339.213 57.112C339.437 56.888 339.714 56.776 340.045 56.776C340.365 56.776 340.637 56.888 340.861 57.112C341.085 57.336 341.197 57.6133 341.197 57.944C341.197 58.2747 341.085 58.552 340.861 58.776C340.637 59 340.365 59.112 340.045 59.112Z" fill="black"/>
</g>
<defs>
<filter id="filter0_d_3122_2374" x="0" y="0" width="377" height="116" filterUnits="userSpaceOnUse" color-interpolation-filters="sRGB">
<feFlood flood-opacity="0" result="BackgroundImageFix"/>
<feColorMatrix in="SourceAlpha" type="matrix" values="0 0 0 0 0 0 0 0 0 0 0 0 0 0 0 0 0 0 127 0" result="hardAlpha"/>
<feOffset dy="5"/>
<feGaussianBlur stdDeviation="10"/>
<feComposite in2="hardAlpha" operator="out"/>
<feColorMatrix type="matrix" values="0 0 0 0 0.164706 0 0 0 0 0.333333 0 0 0 0 0.760784 0 0 0 0.15 0"/>
<feBlend mode="normal" in2="BackgroundImageFix" result="effect1_dropShadow_3122_2374"/>
<feBlend mode="normal" in="SourceGraphic" in2="effect1_dropShadow_3122_2374" result="shape"/>
</filter>
</defs>
</svg>
