<svg width="25" height="26" viewBox="0 0 25 26" fill="none" xmlns="http://www.w3.org/2000/svg">
<path d="M8.40491 11.3649C9.51547 12.8467 9.95705 11.4851 8.97118 9.91761C7.90717 8.22586 7.61073 6.20017 9.87565 4.50148C10.8797 3.74846 13.7976 3.03074 16.2489 5.48198C17.1833 6.41639 16.8715 7.34393 14.7781 8.9137C13.2962 10.0244 14.658 10.4662 16.2257 9.48021C17.9174 8.41625 19.943 8.11964 21.6416 10.3844C22.3946 11.3895 23.1123 14.3064 20.6611 16.7577C19.7267 17.6921 18.7991 17.3803 17.2294 15.2869C16.1181 13.8058 15.6771 15.1667 16.663 16.734C17.7271 18.4258 18.0236 20.4516 15.7586 22.1504C14.7536 22.9044 11.8366 23.6211 9.38541 21.1699C8.451 20.2355 8.76279 19.3089 10.8561 17.7381C12.3381 16.6279 10.9764 16.186 9.40891 17.1718C7.71715 18.2359 5.69142 18.5324 3.99269 16.2674C3.23967 15.2634 2.52195 12.3454 4.97319 9.8942C5.9076 8.95979 6.83514 9.27158 8.40491 11.3649Z" fill="#417932"/>
<path d="M7.35413 10.7126C8.46469 12.1944 8.90627 10.8328 7.9204 9.26527C6.85639 7.57352 6.55995 5.54783 8.82487 3.84914C9.8289 3.09612 12.7468 2.3784 15.1981 4.82963C16.1325 5.76404 15.8207 6.69159 13.7273 8.26136C12.2454 9.37205 13.6072 9.81384 15.1749 8.82787C16.8666 7.76391 18.8922 7.4673 20.5908 9.7321C21.3438 10.7371 22.0615 13.6541 19.6103 16.1053C18.6759 17.0397 17.7483 16.7279 16.1786 14.6346C15.0673 13.1534 14.6263 14.5143 15.6122 16.0817C16.6763 17.7735 16.9728 19.7993 14.7078 21.498C13.7028 22.252 10.7859 22.9688 8.33463 20.5175C7.40022 19.5831 7.71201 18.6566 9.80537 17.0858C11.2873 15.9755 9.92557 15.5336 8.35813 16.5195C6.66637 17.5835 4.64063 17.88 2.94191 15.6151C2.18889 14.611 1.47117 11.6931 3.92241 9.24185C4.85682 8.30744 5.78436 8.61924 7.35413 10.7126Z" fill="#61D243"/>
</svg>
