<svg width="16" height="24" viewBox="0 0 16 24" fill="none" xmlns="http://www.w3.org/2000/svg">
<path d="M14.689 1.54785H2.35432C1.67347 1.54785 1.12109 2.10023 1.12109 2.78108V22.5163C1.12109 23.1972 1.67347 23.7496 2.35432 23.7496H14.689C15.3699 23.7496 15.9222 23.1972 15.9222 22.5163V2.78108C15.9222 2.10023 15.3699 1.54785 14.689 1.54785Z" fill="#7B2BBE"/>
<path d="M13.5679 0.25H1.23323C0.552379 0.25 0 0.802379 0 1.48323V21.2185C0 21.8993 0.552379 22.4517 1.23323 22.4517H13.5679C14.2488 22.4517 14.8011 21.8993 14.8011 21.2185V1.48323C14.8011 0.802379 14.2488 0.25 13.5679 0.25Z" fill="#C67DFF"/>
<path d="M9.86965 10.1187H4.93555H9.86965Z" fill="#9D4EDD"/>
<path d="M9.86965 10.1187H4.93555M9.86965 5.18457H4.93555" stroke="#9D4EDD" stroke-linecap="round" stroke-linejoin="round"/>
</svg>
