<svg width="175" height="88" viewBox="0 0 175 88" fill="none" xmlns="http://www.w3.org/2000/svg">
<path fill-rule="evenodd" clip-rule="evenodd" d="M37.4358 0.351211C34.7312 0.964303 32.1374 2.39154 30.2195 4.32198C27.4544 7.10517 26.0484 10.1652 25.5344 14.5189C24.8486 20.3301 26.8609 26.344 30.6233 29.7263C32.2432 31.1827 33.8094 32.0667 36.127 32.8335C37.7415 33.3675 38.4419 33.4615 40.8637 33.4698C45.6395 33.4859 48.5691 32.3658 51.7393 29.3115C52.7812 28.3076 53.6461 27.5084 53.6613 27.5354C55.2769 30.4024 57.7308 32.2339 60.8285 32.8853C61.5189 33.0305 62.1849 33.1494 62.3088 33.1494C62.449 33.1494 62.534 26.981 62.534 16.8097V0.470088H61.963C61.0973 0.470088 58.652 1.28778 57.5015 1.96197C56.3612 2.63024 54.3881 4.63267 53.9734 5.54272L53.7036 6.13474L52.1178 4.54553C49.0937 1.51535 46.0594 0.217415 41.6926 0.085751C39.8738 0.0308119 38.4596 0.118904 37.4358 0.351211ZM86.2173 0.353343C83.6221 0.985853 81.1965 2.31907 78.9562 4.34377L77.7344 5.44823L76.3073 4.02124C74.8046 2.5187 71.8465 0.888761 70.0485 0.572625L69.1554 0.415624L69.2195 16.0913C69.2818 31.2959 69.2975 31.7768 69.7434 32.1029C70.1027 32.3655 71.1971 32.439 74.7472 32.439C78.6827 32.439 79.3347 32.3866 79.6163 32.0478C79.8754 31.7359 79.9652 29.7095 80.0597 22.0427C80.174 12.7613 80.1958 12.3961 80.6892 11.4816C82.1327 8.80709 85.1023 7.77107 87.6473 9.05432C88.9779 9.72519 89.6777 10.9469 89.9972 13.1575C90.1274 14.0592 90.2362 18.6561 90.2388 23.3728C90.2433 31.6066 90.2617 31.9585 90.7015 32.1939C90.9713 32.3381 93.0111 32.439 95.6618 32.439C100.045 32.439 100.173 32.4252 100.532 31.9125C100.85 31.4586 100.901 30.1467 100.901 22.365C100.901 12.1155 100.987 11.4584 102.53 9.91558C103.998 8.44809 106.765 8.06281 108.719 9.05432C109.512 9.45665 109.916 9.87509 110.368 10.7641L110.966 11.941L111.085 21.799C111.179 29.6726 111.269 31.7354 111.528 32.0478C112.004 32.6201 120.8 32.6369 121.37 32.0669C121.698 31.7394 121.742 30.3913 121.742 20.8302C121.742 9.14312 121.685 8.4436 120.515 5.96258C118.712 2.13886 114.785 0.00855217 109.524 2.71393e-05C105.562 -0.00636663 102.506 1.11681 99.8684 3.54857C98.8394 4.49722 98.4237 4.75581 98.338 4.50077C98.0848 3.74796 95.8714 1.70361 94.6879 1.12983C92.3442 -0.00684126 88.9658 -0.316345 86.2173 0.353343ZM0.0641818 16.0879C0.126469 31.2959 0.1421 31.7768 0.588057 32.1029C1.2114 32.5585 9.66328 32.5936 10.2554 32.1429C10.6 31.8808 10.6542 30.9134 10.729 23.6771C10.8238 14.5011 10.9104 13.9287 12.4844 12.0902C13.7342 10.6303 14.8461 10.1905 17.2988 10.1858C18.406 10.1837 19.71 10.2923 20.1964 10.4276C20.8179 10.6 21.2234 10.5971 21.5582 10.4179C22.0099 10.1761 22.0355 9.9305 22.0355 5.82665C22.0355 0.526447 22.0947 0.632774 19.0729 0.505846C16.8772 0.413728 15.0062 0.83856 13.36 1.80331C12.1867 2.49076 10.474 4.27036 9.71254 5.59316L9.16427 6.54559L8.08052 5.11883C6.46863 2.99705 3.36493 1.08176 0.662423 0.541366L0 0.408993L0.0641818 16.0879ZM47.5332 9.35933C48.9663 10.0596 50.3048 11.456 51.0151 12.9919C51.4393 13.9093 51.5212 14.5274 51.5212 16.8097C51.5212 19.9626 51.1691 21.019 49.5238 22.8038C48.1565 24.2871 46.5399 24.9514 44.2978 24.9514C42.0557 24.9514 40.4391 24.2871 39.0718 22.8038C37.4266 21.019 37.0744 19.9626 37.0744 16.8097C37.0744 13.6957 37.4161 12.6396 38.9854 10.9026C41.0963 8.5665 44.6114 7.93186 47.5332 9.35933Z" fill="#F8F8FF"/>
<path fill-rule="evenodd" clip-rule="evenodd" d="M150.47 25.3087C145.967 26.9298 143.157 30.0604 142.215 34.5038C142.029 35.3827 141.875 36.6082 141.873 37.2272L141.869 38.3524H139.192C137.426 38.3524 136.419 38.4491 136.231 38.6367C136.036 38.8322 135.947 40.0131 135.947 42.4136C135.947 46.7516 135.858 46.6438 139.434 46.6438H141.869V57.7611C141.869 67.5518 141.913 68.9228 142.241 69.2506C142.795 69.8047 151.601 69.8047 152.156 69.2506C152.483 68.9228 152.528 67.5535 152.528 57.7815V46.6846L155.241 46.605C157.054 46.5517 158.055 46.4235 158.261 46.2181C158.474 46.0052 158.592 44.9273 158.646 42.7106C158.754 38.2795 158.811 38.3524 155.246 38.3524H152.528V31.6009C152.528 23.9432 152.711 24.5021 150.47 25.3087ZM18.3403 37.3243C16.8817 37.6361 14.1558 38.7564 12.8525 39.5798C12.0291 40.0996 10.7687 41.1736 10.0513 41.9665C9.33402 42.7594 8.74705 43.2917 8.74705 43.1498C8.74705 42.7021 6.42074 40.3241 5.2442 39.5691C3.99612 38.7682 1.18825 37.6418 0.439739 37.6418C-0.0389777 37.6418 -0.0399252 37.6915 0.0384792 57.008C0.116173 76.1621 0.122805 76.3952 0.642501 78.2695C1.64257 81.8753 3.20758 84.222 5.6438 85.768C6.79523 86.4986 9.35936 87.39 10.3092 87.39H10.8739L10.9355 77.1822L10.9973 66.9745L11.9448 67.7399C13.3056 68.8394 15.9212 69.9952 18.0343 70.4308C23.4331 71.544 28.7141 70.0727 32.3352 66.4462C34.3249 64.4535 35.4886 62.4614 36.361 59.5547C36.9186 57.6967 37.0029 56.9964 37.0172 54.1061C37.0363 50.184 36.6808 48.4594 35.2342 45.4593C34.4566 43.8463 33.881 43.0669 32.342 41.5418C29.1435 38.3723 26.0287 37.1438 21.3225 37.1954C19.943 37.2106 18.6009 37.2684 18.3403 37.3243ZM56.1213 37.3321C50.4575 38.2842 45.7132 41.5543 43.6161 45.9514C42.2861 48.7401 41.8524 50.7111 41.8477 53.9876C41.8406 58.9603 43.29 62.7324 46.401 65.8372C48.4602 67.8923 50.4397 69.031 53.6429 70.003C55.5817 70.5912 56.1052 70.6474 59.6744 70.6504C64.2488 70.6545 66.0258 70.2792 69.2172 68.6359C71.8164 67.2972 74.4279 64.7363 75.6293 62.3479C77.0368 59.5499 77.5217 57.4153 77.5285 53.9876C77.5385 48.9202 76.1589 45.3466 72.9496 42.1264C70.3636 39.532 67.935 38.2819 63.9764 37.5079C62.3787 37.1954 57.5735 37.0879 56.1213 37.3321ZM116.76 37.6138C114.098 38.4733 111.911 39.9991 110.175 42.2091L109.073 43.612L108.713 43.0551C107.374 40.9837 104.962 39.1278 102.402 38.1985C99.6426 37.1966 99.9425 35.3789 99.9425 53.1057C99.9425 66.7184 99.9865 68.6328 100.311 69.0962C100.671 69.6102 100.792 69.6228 105.375 69.6228C109.451 69.6228 110.113 69.5711 110.395 69.2314C110.654 68.9202 110.744 66.9463 110.839 59.5779L110.957 50.3157L111.59 49.1163C112.724 46.9681 114.6 45.6988 116.642 45.6988C118.705 45.6988 120.517 46.9338 120.998 48.6686C121.167 49.2762 121.259 52.9351 121.259 59.0873C121.261 67.2849 121.311 68.6411 121.63 69.0962C121.99 69.6105 122.109 69.6228 126.717 69.6228H131.435L131.816 69.0424C132.154 68.5262 132.185 67.3171 132.1 58.0859C132.011 48.4314 131.969 47.5838 131.504 45.899C130.179 41.0964 127.515 38.2999 123.44 37.4345C121.556 37.0344 118.284 37.1222 116.76 37.6138ZM82.8877 53.1057C82.8877 66.7184 82.9318 68.6328 83.2565 69.0962C83.6166 69.6105 83.7362 69.6228 88.3438 69.6228H93.0623L93.4411 69.0448C93.7769 68.5319 93.8092 67.3225 93.7258 58.3252C93.646 49.7083 93.5718 47.9761 93.2321 46.8028C91.9976 42.5365 89.3557 39.6537 85.3472 38.1985C82.5879 37.1966 82.8877 35.3789 82.8877 53.1057ZM57.7344 45.7763C54.4779 46.6945 52.5682 49.7116 52.5682 53.9388C52.5682 59.3462 55.2219 62.3648 59.9368 62.3202C63.6469 62.2854 66.1154 59.9278 66.7767 55.7878C67.2931 52.5549 66.2887 48.9543 64.3779 47.1884C62.8989 45.8216 59.8627 45.1763 57.7344 45.7763ZM16.7351 45.9322C14.5634 46.3167 12.8269 47.6966 11.6658 49.9604C11.0468 51.1671 10.9973 51.4647 10.9973 53.9876C10.9973 56.2583 11.0805 56.8915 11.4962 57.79C12.9863 61.0109 16.0728 62.6258 19.5737 62.0163C23.4252 61.3454 25.7575 57.9485 25.5168 53.3606C25.4296 51.7006 25.2842 51.1342 24.6008 49.7943C23.0806 46.8137 20.0794 45.3402 16.7351 45.9322ZM164.7 59.0442C162.909 59.5019 161.036 60.6482 160.237 61.7754C159.288 63.1136 159.112 65.2928 159.838 66.7149C160.9 68.7972 163.165 70.0383 166.32 70.2676C170.947 70.6035 174.662 68.4004 174.976 65.1341C175.303 61.7301 172.269 59.1008 167.711 58.8383C166.651 58.7774 165.413 58.862 164.7 59.0442Z" fill="#F8F8FF"/>
</svg>
