<svg width="124" height="92" viewBox="0 0 124 92" fill="none" xmlns="http://www.w3.org/2000/svg">
<path d="M9.55289 28.958C12.1289 19.0607 39.3576 12.3284 68.7905 19.9892C98.2233 27.65 118.715 46.8028 116.139 56.7L112.43 69.0708C109.853 78.9681 85.3916 85.5029 55.9587 77.8421C26.5258 70.1813 4.06995 52.636 6.64599 42.7387L9.55289 28.958Z" fill="#9D4EDD"/>
<path fill-rule="evenodd" clip-rule="evenodd" d="M56.9327 65.547C86.3656 73.2077 113.408 67.1911 116.143 56.6848C118.879 46.1709 98.2233 27.65 68.7905 19.9892C39.3576 12.3284 12.2934 18.4288 9.55686 28.9427C6.82228 39.449 27.4998 57.8862 56.9327 65.547Z" fill="#C67DFF"/>
<path fill-rule="evenodd" clip-rule="evenodd" d="M37.1246 27.0344C36.8725 27.9146 36.8277 28.8207 36.9673 29.7259C33.8555 30.8502 31.7344 32.6963 30.9804 35.3293C28.8126 42.899 40.6913 54.4487 58.0046 59.4067C75.3177 64.3648 90.6795 61.119 92.8473 53.5491C93.8233 50.9909 93.1762 48.3079 91.2711 45.6805C92.018 44.9134 92.5633 44.0124 92.855 42.9941C94.2144 38.2469 89.5466 32.7462 82.4289 30.7079C77.1379 29.1927 71.9822 30.0174 69.1262 32.4906C68.0997 32.1553 67.0528 31.8345 65.9879 31.5296C64.9217 31.2243 63.863 30.9402 62.8144 30.6777C61.6981 27.0697 57.7621 23.644 52.4738 22.1296C45.3561 20.0913 38.4841 22.2872 37.1246 27.0344Z" fill="#9D4EDD"/>
<path d="M109.386 41.5981L111.69 43.7938L113.377 46.5271L113.903 47.7137L114.864 49.148L115.155 50.1999L115.444 51.2536L19.7279 47.0602L21.2156 48.3489L18.2402 45.7716L15.9362 43.5755L15.1288 42.7209L13.7207 41.0946L13.342 40.327L12.3806 38.8933L11.4191 37.4596L10.4576 36.0259L109.386 41.5981Z" fill="white" fill-opacity="0.25"/>
</svg>
