<svg width="269" height="269" viewBox="0 0 269 269" fill="none" xmlns="http://www.w3.org/2000/svg">
<g clip-path="url(#clip0_32_1062)">
<path d="M134.5 269C208.782 269 269 208.782 269 134.5C269 60.2177 208.782 0 134.5 0C60.2177 0 0 60.2177 0 134.5C0 208.782 60.2177 269 134.5 269Z" fill="#61D243"/>
<path fill-rule="evenodd" clip-rule="evenodd" d="M56.6635 116.99C56.6635 120.064 57.2237 123.029 58.2646 125.821C50.9826 132.325 46.8259 140.244 46.8259 149.437C46.8259 175.871 86.4652 202.166 135.363 202.166C184.26 202.166 221.932 177.493 221.932 151.06C222.566 141.902 218.872 133.841 211.935 127.123C213.312 123.957 214.062 120.546 214.062 116.99C214.062 100.413 197.766 86.9749 177.664 86.9749C162.72 86.9749 149.88 94.4012 144.274 105.023C141.344 104.889 138.371 104.821 135.363 104.821C132.352 104.821 129.376 104.883 126.443 105.006C120.832 94.3933 107.998 86.9749 93.0618 86.9749C72.9594 86.9749 56.6635 100.413 56.6635 116.99Z" fill="#61D243"/>
<path d="M180.718 130.385C186.778 130.311 190.049 130.72 195.508 132.325C195.638 132.364 195.854 132.258 195.947 132.167C205.243 122.865 207.454 106.877 196.943 98.7302C196.215 98.1653 195.433 97.6495 194.598 97.1782C185.082 91.8094 171.987 91.6764 162.412 96.9688C162.043 97.1726 161.686 97.3849 161.341 97.6063C149.138 105.419 151.017 124.058 162.076 133.166C162.155 133.23 162.296 133.276 162.398 133.249C170.336 131.112 174.356 130.502 180.718 130.385Z" fill="white"/>
<path d="M90.4185 129.149C84.2413 129.048 80.9025 129.426 75.3274 130.94C75.1946 130.976 74.9749 130.874 74.8818 130.786C65.4681 121.819 63.3248 106.471 74.0969 98.705C74.8438 98.1668 75.6431 97.6755 76.498 97.2273C86.2368 92.1218 99.5879 92.056 109.312 97.1777C109.687 97.3755 110.049 97.5807 110.4 97.7946C122.787 105.346 120.742 123.219 109.404 131.904C109.324 131.965 109.179 132.008 109.076 131.981C100.999 129.895 96.9036 129.291 90.4185 129.149Z" fill="white"/>
<path fill-rule="evenodd" clip-rule="evenodd" d="M176.473 128.404C185.334 128.404 192.517 122.296 192.517 114.762C192.517 111.468 191.144 108.447 188.857 106.089C189.611 107.075 190.049 108.252 190.049 109.516C190.049 112.993 186.734 115.811 182.644 115.811C178.554 115.811 175.24 112.993 175.24 109.516C175.24 106.039 178.554 103.22 182.644 103.22C184.131 103.22 185.514 103.593 186.675 104.234C183.902 102.29 180.349 101.121 176.473 101.121C167.613 101.121 160.431 107.228 160.431 114.762C160.431 122.296 167.613 128.404 176.473 128.404Z" fill="black" fill-opacity="0.8"/>
<path fill-rule="evenodd" clip-rule="evenodd" d="M95.8233 127.393C104.684 127.393 111.867 122.267 111.867 114.743C111.867 111.454 110.493 108.436 108.207 106.082C108.96 107.067 109.398 108.243 109.398 109.505C109.398 112.977 106.084 115.792 101.994 115.792C97.9043 115.792 94.5892 112.977 94.5892 109.505C94.5892 106.032 97.9043 103.217 101.994 103.217C103.48 103.217 104.865 103.589 106.025 104.23C103.252 102.288 99.6983 101.121 95.8233 101.121C86.963 101.121 79.7798 107.22 79.7798 114.743C79.7798 122.267 86.963 127.393 95.8233 127.393Z" fill="black" fill-opacity="0.8"/>
<path d="M198.769 144.571C177.058 147.596 156.41 150.447 134.937 144.571C116.189 148.293 84.5667 147.959 72.8425 144.571C74.4728 220.25 194.882 223.856 199.432 148.261C199.505 147.048 199.432 145.779 198.769 144.571Z" fill="#ABF47D"/>
<path d="M206.392 140.529C197.374 146.693 183.979 147.591 171.458 147.59C160.652 147.589 151.302 146.897 139.073 145.201C136.375 144.827 133.601 144.769 130.881 145.048C114.93 146.687 105.711 147.725 87.784 147.59C77.6749 146.823 72.2862 144.599 65.9048 140.529" stroke="#499036" stroke-width="5" stroke-linecap="round"/>
<path d="M63.3077 90.8491C66.9826 77.4347 71.6732 73.5096 86.2946 65.9443C86.7967 65.6845 87.4436 65.6943 87.9375 65.965L88.2683 66.1461C106.437 76.1021 112.22 79.2711 111.85 86.4133C111.845 86.5148 111.671 86.5362 111.588 86.4629C99.6784 75.8262 78.8211 78.3596 66.4204 88.5761C65.5066 89.329 64.5615 90.1286 63.5719 90.9776C63.4608 91.0732 63.2717 90.9806 63.3077 90.8491Z" fill="#333333"/>
<path d="M206.388 90.8491C202.91 77.4347 198.471 73.5096 184.633 65.9443C184.157 65.6845 183.545 65.6943 183.077 65.965L182.765 66.1461C165.57 76.1021 160.096 79.2711 160.447 86.4133C160.451 86.5148 160.616 86.5362 160.694 86.4629C171.965 75.8262 191.705 78.3596 203.442 88.5761C204.307 89.329 205.201 90.1286 206.138 90.9776C206.243 91.0732 206.422 90.9806 206.388 90.8491Z" fill="#333333"/>
<path d="M66.4251 155.058C67.5129 155.058 68.3947 154.092 68.3947 152.901C68.3947 151.709 67.5129 150.744 66.4251 150.744C65.3374 150.744 64.4556 151.709 64.4556 152.901C64.4556 154.092 65.3374 155.058 66.4251 155.058Z" fill="#499136"/>
<path d="M56.5771 163.686C57.6649 163.686 58.5467 162.72 58.5467 161.529C58.5467 160.337 57.6649 159.372 56.5771 159.372C55.4892 159.372 54.6074 160.337 54.6074 161.529C54.6074 162.72 55.4892 163.686 56.5771 163.686Z" fill="#499136"/>
<path d="M54.6075 152.901C55.6953 152.901 56.5771 151.934 56.5771 150.744C56.5771 149.552 55.6953 148.587 54.6075 148.587C53.5198 148.587 52.6379 149.552 52.6379 150.744C52.6379 151.934 53.5198 152.901 54.6075 152.901Z" fill="#499136"/>
<path d="M216.507 155.058C217.595 155.058 218.477 154.092 218.477 152.901C218.477 151.709 217.595 150.744 216.507 150.744C215.42 150.744 214.538 151.709 214.538 152.901C214.538 154.092 215.42 155.058 216.507 155.058Z" fill="#499136"/>
<path d="M206.66 163.686C207.747 163.686 208.629 162.72 208.629 161.529C208.629 160.337 207.747 159.372 206.66 159.372C205.572 159.372 204.69 160.337 204.69 161.529C204.69 162.72 205.572 163.686 206.66 163.686Z" fill="#499136"/>
<path d="M204.69 152.901C205.778 152.901 206.66 151.934 206.66 150.744C206.66 149.552 205.778 148.587 204.69 148.587C203.602 148.587 202.72 149.552 202.72 150.744C202.72 151.934 203.602 152.901 204.69 152.901Z" fill="#499136"/>
</g>
<defs>
<clipPath id="clip0_32_1062">
<rect width="269" height="269" fill="white"/>
</clipPath>
</defs>
</svg>
