<svg width="1222" height="613" viewBox="0 0 1222 613" fill="none" xmlns="http://www.w3.org/2000/svg">
<path d="M0 50C0 22.3858 22.3858 0 50 0H1172C1199.61 0 1222 22.3858 1222 50V613H0V50Z" fill="#F8F8FF"/>
<path d="M875.843 243.48L843.984 275.339L922.277 353.632L812.126 390.488L843.984 358.629L765.691 280.336L875.843 243.48ZM1093.86 108.758L656.581 254.516L760.694 358.629L594.113 525.21L1031.39 379.452L927.275 275.339L1093.86 108.758Z" fill="#EAECF0"/>
<path d="M875.843 243.48L843.984 275.339L922.277 353.632L812.126 390.488L843.984 358.629L765.691 280.336L875.843 243.48Z" fill="#EAECF0"/>
</svg>
