<svg width="92" height="90" viewBox="0 0 92 90" fill="none" xmlns="http://www.w3.org/2000/svg">
<path d="M47.6983 58.0632L31.2993 49.386L40.01 33.05L56.409 41.7272L47.6983 58.0632ZM9.94519 17.1418C10.3302 16.4197 10.9874 15.8795 11.7723 15.6401C12.5571 15.4008 13.4053 15.4818 14.1301 15.8653L19.5965 18.7577L26.8554 5.14441C27.6255 3.70022 28.9399 2.61992 30.5096 2.14115C32.0792 1.66239 33.7755 1.82438 35.2253 2.59149L48.8911 9.8225L51.7947 4.37718C52.1797 3.65508 52.8369 3.11493 53.6218 2.87554C54.4066 2.63616 55.2547 2.71716 55.9796 3.10072C56.7045 3.48428 57.2467 4.13897 57.487 4.92078C57.7274 5.7026 57.646 6.54749 57.261 7.26958L54.3574 12.7149L65.2901 18.4997L68.1937 13.0544C68.5787 12.3323 69.2359 11.7921 70.0208 11.5528C70.8056 11.3134 71.6537 11.3944 72.3786 11.7779C73.1035 12.1615 73.6457 12.8162 73.886 13.598C74.1263 14.3798 74.045 15.2247 73.66 15.9468L70.7564 21.3921L84.4223 28.6231C85.872 29.3902 86.9565 30.6996 87.4371 32.2633C87.9177 33.8269 87.7551 35.5167 86.985 36.9608L79.7261 50.5742L85.1925 53.4666C85.9173 53.8501 86.4596 54.5048 86.6999 55.2866C86.9402 56.0684 86.8589 56.9133 86.4738 57.6354C86.0888 58.3575 85.4316 58.8977 84.6468 59.1371C83.8619 59.3764 83.0138 59.2954 82.2889 58.9119L76.8226 56.0195L71.0154 66.9101L76.4818 69.8025C77.2066 70.1861 77.7489 70.8408 77.9892 71.6226C78.2295 72.4044 78.1482 73.2493 77.7631 73.9714C77.3781 74.6935 76.7209 75.2336 75.9361 75.473C75.1512 75.7124 74.3031 75.6314 73.5782 75.2478L68.1119 72.3554L60.853 85.9688C60.0829 87.4129 58.7684 88.4932 57.1988 88.972C55.6291 89.4508 53.9328 89.2888 52.4831 88.5217L38.8172 81.2907L35.9137 86.736C35.5286 87.4581 34.8714 87.9982 34.0866 88.2376C33.3017 88.477 32.4536 88.396 31.7287 88.0124C31.0038 87.6289 30.4616 86.9742 30.2213 86.1924C29.981 85.4106 30.0623 84.5657 30.4473 83.8436L33.3509 78.3982L22.4182 72.6134L19.5147 78.0588C19.1296 78.7809 18.4724 79.321 17.6876 79.5604C16.9027 79.7998 16.0546 79.7188 15.3297 79.3352C14.6048 78.9517 14.0626 78.297 13.8223 77.5152C13.582 76.7333 13.6633 75.8885 14.0483 75.1664L16.9519 69.721L3.28607 62.49C1.83631 61.7229 0.751839 60.4135 0.271227 58.8499C-0.209386 57.2863 -0.0467728 55.5965 0.7233 54.1523L7.98221 40.539L2.51588 37.6466C1.791 37.263 1.24876 36.6083 1.00845 35.8265C0.768148 35.0447 0.849461 34.1998 1.2345 33.4777C1.61953 32.7556 2.27675 32.2155 3.06158 31.9761C3.84641 31.7367 4.69456 31.8177 5.41944 32.2013L10.8858 35.0937L16.6929 24.203L11.2266 21.3106C10.5017 20.9271 9.95945 20.2724 9.71915 19.4906C9.47884 18.7087 9.56015 17.8639 9.94519 17.1418ZM24.3812 49.2162C23.9962 49.9383 23.9149 50.7832 24.1552 51.565C24.3955 52.3468 24.9377 53.0015 25.6626 53.3851L47.5279 64.9547C48.2528 65.3382 49.1009 65.4192 49.8858 65.1799C50.6706 64.9405 51.3278 64.4003 51.7129 63.6782L63.3271 41.8969C63.7122 41.1749 63.7935 40.33 63.5532 39.5481C63.3129 38.7663 62.7706 38.1116 62.0457 37.7281L40.1804 26.1585C39.4555 25.7749 38.6074 25.6939 37.8226 25.9333C37.0377 26.1727 36.3805 26.7128 35.9955 27.4349L24.3812 49.2162Z" fill="#850014"/>
<path d="M51.99 56.4344L35.591 47.7572L44.3017 31.4212L60.7007 40.0984L51.99 56.4344ZM14.2369 15.513C14.6219 14.7909 15.2791 14.2507 16.0639 14.0114C16.8488 13.772 17.6969 13.853 18.4218 14.2365L23.8881 17.1289L31.147 3.51563C31.9171 2.07144 33.2316 0.991134 34.8012 0.512369C36.3709 0.0336037 38.0672 0.195601 39.5169 0.962714L53.1828 8.19373L56.0863 2.7484C56.4714 2.02631 57.1286 1.48615 57.9134 1.24676C58.6983 1.00738 59.5464 1.08839 60.2713 1.47194C60.9962 1.8555 61.5384 2.51019 61.7787 3.29201C62.019 4.07382 61.9377 4.91871 61.5527 5.64081L58.6491 11.0861L69.5818 16.8709L72.4853 11.4256C72.8704 10.7035 73.5276 10.1634 74.3124 9.92398C75.0973 9.6846 75.9454 9.7656 76.6703 10.1492C77.3952 10.5327 77.9374 11.1874 78.1777 11.9692C78.418 12.751 78.3367 13.5959 77.9517 14.318L75.0481 19.7633L88.7139 26.9944C90.1637 27.7615 91.2482 29.0709 91.7288 30.6345C92.2094 32.1981 92.0468 33.8879 91.2767 35.3321L84.0178 48.9454L89.4841 51.8378C90.209 52.2213 90.7512 52.876 90.9915 53.6578C91.2318 54.4397 91.1505 55.2845 90.7655 56.0066C90.3805 56.7287 89.7232 57.2689 88.9384 57.5083C88.1536 57.7477 87.3054 57.6667 86.5806 57.2831L81.1142 54.3907L75.3071 65.2813L80.7734 68.1738C81.4983 68.5573 82.0405 69.212 82.2809 69.9938C82.5212 70.7756 82.4398 71.6205 82.0548 72.3426C81.6698 73.0647 81.0125 73.6049 80.2277 73.8442C79.4429 74.0836 78.5947 74.0026 77.8699 73.6191L72.4035 70.7267L65.1446 84.34C64.3745 85.7842 63.0601 86.8645 61.4904 87.3432C59.9208 87.822 58.2245 87.66 56.7747 86.8929L43.1089 79.6619L40.2053 85.1072C39.8203 85.8293 39.1631 86.3694 38.3782 86.6088C37.5934 86.8482 36.7453 86.7672 36.0204 86.3837C35.2955 86.0001 34.7533 85.3454 34.513 84.5636C34.2727 83.7818 34.354 82.9369 34.739 82.2148L37.6426 76.7695L26.7099 70.9847L23.8063 76.43C23.4213 77.1521 22.7641 77.6922 21.9792 77.9316C21.1944 78.171 20.3463 78.09 19.6214 77.7065C18.8965 77.3229 18.3543 76.6682 18.114 75.8864C17.8737 75.1046 17.955 74.2597 18.34 73.5376L21.2436 68.0923L7.57773 60.8613C6.12797 60.0941 5.0435 58.7847 4.56289 57.2211C4.08227 55.6575 4.2449 53.9677 5.01497 52.5235L12.2739 38.9102L6.80755 36.0178C6.08267 35.6343 5.54042 34.9796 5.30012 34.1978C5.05981 33.4159 5.14113 32.571 5.52616 31.849C5.9112 31.1269 6.56842 30.5867 7.35325 30.3473C8.13808 30.1079 8.98623 30.1889 9.71111 30.5725L15.1774 33.4649L20.9846 22.5743L15.5182 19.6819C14.7934 19.2983 14.2511 18.6436 14.0108 17.8618C13.7705 17.08 13.8518 16.2351 14.2369 15.513ZM28.6729 47.5874C28.2878 48.3095 28.2065 49.1544 28.4468 49.9362C28.6871 50.718 29.2294 51.3727 29.9543 51.7563L51.8196 63.3259C52.5445 63.7095 53.3926 63.7905 54.1774 63.5511C54.9623 63.3117 55.6195 62.7715 56.0045 62.0494L67.6188 40.2682C68.0038 39.5461 68.0851 38.7012 67.8448 37.9194C67.6045 37.1376 67.0623 36.4829 66.3374 36.0993L44.4721 24.5297C43.7472 24.1461 42.8991 24.0651 42.1142 24.3045C41.3294 24.5439 40.6722 25.0841 40.2871 25.8061L28.6729 47.5874Z" fill="#E10531"/>
</svg>
