<svg width="110" height="90" viewBox="0 0 110 90" fill="none" xmlns="http://www.w3.org/2000/svg">
<path d="M17.3405 11.0937C18.6074 6.43502 23.4514 3.67461 28.1598 4.92813L103.463 24.9761C108.172 26.2296 110.961 31.0224 109.695 35.6811L96.8878 82.7744C95.6209 87.4331 90.777 90.1935 86.0686 88.94L10.7652 68.892C6.05676 67.6385 3.26687 62.8457 4.53377 58.187L17.3405 11.0937Z" fill="#1F9DD3"/>
<path d="M7.09831 64.5524C4.55847 63.8762 2.62811 62.4036 1.30723 60.1344C-0.0136594 57.8653 -0.33353 55.4722 0.347618 52.9554L12.773 7.26427C13.4564 4.75126 14.9464 2.8417 17.2428 1.53559C19.5393 0.229474 21.9563 -0.0874251 24.4939 0.584888L98.3801 20.2555C100.92 20.9317 102.851 22.4063 104.175 24.6793C105.498 26.9524 105.816 29.3434 105.131 31.8526L92.7054 77.5437C92.022 80.0567 90.5332 81.9682 88.239 83.2782C85.9447 84.5881 83.5266 84.9031 80.9845 84.2231L7.09831 64.5524ZM29.2975 55.7627L66.2406 65.5981L68.7257 56.4599L31.7826 46.6245L29.2975 55.7627ZM19.1714 38.3672L28.4072 40.826L30.8923 31.6878L21.6565 29.229L19.1714 38.3672ZM33.0251 42.0554L42.2609 44.5143L44.746 35.376L35.5102 32.9172L33.0251 42.0554ZM46.8788 45.7437L56.1145 48.2025L58.5996 39.0643L49.3638 36.6055L46.8788 45.7437ZM60.7324 49.4319L69.9682 51.8908L72.4533 42.7525L63.2175 40.2937L60.7324 49.4319ZM74.5861 53.1202L83.8219 55.579L86.3069 46.4408L77.0712 43.9819L74.5861 53.1202ZM22.8991 24.6598L32.1348 27.1187L34.6199 17.9805L25.3841 15.5216L22.8991 24.6598ZM36.7527 28.3481L45.9885 30.8069L48.4736 21.6687L39.2378 19.2099L36.7527 28.3481ZM50.6064 32.0363L59.8422 34.4952L62.3272 25.357L53.0915 22.8981L50.6064 32.0363ZM64.4601 35.7246L73.6958 38.1834L76.1809 29.0452L66.9451 26.5864L64.4601 35.7246ZM78.3137 39.4128L87.5495 41.8717L90.0346 32.7335L80.7988 30.2746L78.3137 39.4128Z" fill="#46C4FF"/>
</svg>
