<svg width="88" height="85" viewBox="0 0 88 85" fill="none" xmlns="http://www.w3.org/2000/svg">
<path d="M63.6062 15.25L66.8562 13.375C68.1687 12.625 69.7625 13.75 69.45 15.1875L65.1687 35.1562C64.95 36.1562 63.9187 36.75 62.95 36.4375L43.4812 30.2812C43.1603 30.1798 42.8758 29.9872 42.6625 29.7269C42.4491 29.4666 42.3161 29.1499 42.2797 28.8153C42.2432 28.4807 42.3049 28.1427 42.4573 27.8426C42.6096 27.5425 42.8459 27.2931 43.1375 27.125L47.0438 24.8438L43.7187 19.1219L35.1031 32.7812C34.0719 34.4062 31.9469 34.9062 30.3219 33.875L19.9469 27.3438C18.3219 26.3125 17.8219 24.1875 18.8531 22.5625L30.5031 4.09063C30.5237 4.05715 30.5446 4.02381 30.5656 3.99063L30.6969 3.78125L30.7344 3.75C31.5 2.70479 32.5009 1.85458 33.6563 1.26823C34.8116 0.681883 36.0888 0.375878 37.3844 0.375H50.2281C53.1656 0.375 55.9156 1.9375 57.3844 4.5L63.6062 15.25ZM25.325 34.3438L30.5125 54.0938C30.8875 55.5312 29.3563 56.7812 28.0438 56.0625L24.0438 53.9688L20.9719 59.8125H36.9812C38.8875 59.8125 40.45 61.375 40.45 63.2812V75.5625C40.45 77.4688 38.8875 79.0312 36.9812 79.0312H14.9969C15.1344 79.0531 15.275 79.0625 15.4156 79.0625C12.5719 79.0625 9.91563 77.625 8.41563 75.2188L1.54063 64.3437C-0.0531215 61.8437 -0.178122 58.7188 1.19688 56.0938L6.94688 45.0938L3.63438 43.3438C3.33956 43.1824 3.09713 42.9399 2.93578 42.6451C2.77444 42.3502 2.70092 42.0153 2.72393 41.68C2.74694 41.3447 2.86552 41.023 3.06563 40.753C3.26575 40.4829 3.53902 40.2758 3.85313 40.1562L23.0406 33.1562C24.0094 32.8125 25.0719 33.3438 25.3219 34.3438M67.2 59.5344L59.7625 45.2219C58.8562 43.5031 59.5437 41.4094 61.2312 40.5344L72.1375 34.8781C73.8562 33.9719 75.95 34.6594 76.825 36.3469L87.0437 56.0656L87.0531 56.1469C88.0875 58.5531 87.9375 61.3031 86.6062 63.5625L80.1062 74.6562C79.3698 75.9066 78.3188 76.9424 77.0578 77.6606C75.7969 78.3788 74.3699 78.7544 72.9187 78.75L60.4812 78.6875V82.4375C60.4812 83.9688 58.7 84.75 57.575 83.7188L42.5125 69.9375C42.3352 69.7745 42.1937 69.5764 42.0969 69.3559C42.0001 69.1353 41.9501 68.8971 41.9501 68.6562C41.9501 68.4154 42.0001 68.1772 42.0969 67.9566C42.1937 67.7361 42.3352 67.538 42.5125 67.375L57.6687 53.6875C58.7937 52.6562 60.575 53.4687 60.575 54.9687L60.5437 59.5L67.2 59.5344Z" fill="#499136"/>
</svg>
