<svg width="8" height="9" viewBox="0 0 8 9" fill="none" xmlns="http://www.w3.org/2000/svg">
<path fill-rule="evenodd" clip-rule="evenodd" d="M7.45297 1.68424C7.61506 1.68424 7.75 1.81883 7.75 1.99007V2.14841C7.75 2.31549 7.61506 2.45424 7.45297 2.45424H0.547439C0.384942 2.45424 0.25 2.31549 0.25 2.14841V1.99007C0.25 1.81883 0.384942 1.68424 0.547439 1.68424H1.76232C2.0091 1.68424 2.22388 1.50883 2.27939 1.26133L2.34301 0.977168C2.44189 0.590089 2.76729 0.333008 3.1397 0.333008H4.8603C5.22866 0.333008 5.5577 0.590089 5.65293 0.956752L5.72101 1.26092C5.77612 1.50883 5.9909 1.68424 6.23809 1.68424H7.45297ZM6.83576 7.47218C6.9626 6.29011 7.18466 3.4818 7.18466 3.45347C7.19277 3.36764 7.16481 3.28639 7.10929 3.22097C7.04972 3.15972 6.97435 3.12347 6.89128 3.12347H1.11189C1.02841 3.12347 0.948982 3.15972 0.893871 3.22097C0.837949 3.28639 0.810394 3.36764 0.814446 3.45347C0.815191 3.45868 0.823159 3.5576 0.83648 3.72298C0.89566 4.45766 1.06049 6.5039 1.167 7.47218C1.24237 8.1855 1.71041 8.63383 2.38836 8.65008C2.91151 8.66217 3.45047 8.66633 4.00158 8.66633C4.52068 8.66633 5.04789 8.66217 5.58725 8.65008C6.2887 8.638 6.75634 8.19759 6.83576 7.47218Z" fill="#D40000"/>
</svg>
