<svg width="170" height="36" viewBox="0 0 170 36" fill="none" xmlns="http://www.w3.org/2000/svg">
<path fill-rule="evenodd" clip-rule="evenodd" d="M21.0241 7.32811C19.5052 7.67245 18.0485 8.47403 16.9714 9.55824C15.4185 11.1214 14.6289 12.84 14.3403 15.2852C13.9551 18.549 15.0852 21.9266 17.1982 23.8263C18.1079 24.6442 18.9875 25.1407 20.2891 25.5713C21.1958 25.8713 21.5891 25.9241 22.9492 25.9287C25.6313 25.9378 27.2766 25.3087 29.0571 23.5932C29.6421 23.0295 30.1279 22.5806 30.1364 22.5957C31.0438 24.206 32.4219 25.2346 34.1616 25.6005C34.5493 25.682 34.9233 25.7488 34.9929 25.7488C35.0716 25.7488 35.1194 22.2844 35.1194 16.5718V7.39488H34.7987C34.3125 7.39488 32.9393 7.85412 32.2931 8.23277C31.6527 8.6081 30.5446 9.73274 30.3117 10.2439L30.1602 10.5764L29.2696 9.68379C27.5712 7.98194 25.8671 7.25297 23.4148 7.17902C22.3933 7.14816 21.5991 7.19764 21.0241 7.32811ZM48.42 7.32931C46.9626 7.68455 45.6003 8.43334 44.3422 9.57048L43.656 10.1908L42.8545 9.38933C42.0106 8.54545 40.3493 7.63002 39.3395 7.45247L38.838 7.36429L38.874 16.1683C38.909 24.7078 38.9178 24.9779 39.1682 25.161C39.37 25.3085 39.9846 25.3498 41.9784 25.3498C44.1886 25.3498 44.5547 25.3204 44.7129 25.13C44.8584 24.9549 44.9088 23.8168 44.9619 19.5108C45.0261 14.2981 45.0383 14.093 45.3154 13.5793C46.1261 12.0772 47.7938 11.4954 49.2231 12.2161C49.9704 12.5929 50.3634 13.279 50.5428 14.5206C50.616 15.027 50.677 17.6088 50.6785 20.2579C50.681 24.8823 50.6914 25.0799 50.9384 25.2121C51.0899 25.2931 52.2355 25.3498 53.7241 25.3498C56.1859 25.3498 56.2577 25.3421 56.4594 25.0541C56.638 24.7991 56.6665 24.0623 56.6665 19.6918C56.6665 13.9354 56.7147 13.5663 57.5811 12.6998C58.4055 11.8756 59.9596 11.6592 61.0571 12.2161C61.5027 12.4421 61.7292 12.6771 61.9831 13.1764L62.3192 13.8374L62.3857 19.374C62.4388 23.7961 62.489 24.9546 62.6347 25.13C62.9018 25.4515 67.8418 25.461 68.1621 25.1408C68.3459 24.9569 68.371 24.1997 68.371 18.8299C68.371 12.266 68.3386 11.8731 67.6817 10.4797C66.6692 8.33212 64.464 7.13566 61.5092 7.13087C59.2843 7.12728 57.5677 7.7581 56.0865 9.12387C55.5086 9.65666 55.2752 9.8019 55.2271 9.65866C55.0849 9.23585 53.8418 8.08767 53.1772 7.76541C51.8609 7.12702 49.9636 6.95319 48.42 7.32931ZM0.0360448 16.1664C0.0710256 24.7078 0.079804 24.9779 0.330256 25.161C0.680329 25.4169 5.42694 25.4366 5.75946 25.1835C5.95298 25.0363 5.98344 24.493 6.02547 20.4288C6.07867 15.2752 6.12735 14.9538 7.01132 13.9211C7.71319 13.1012 8.33766 12.8542 9.71508 12.8516C10.3369 12.8504 11.0692 12.9114 11.3424 12.9874C11.6914 13.0842 11.9191 13.0826 12.1072 12.9819C12.3608 12.8461 12.3752 12.7082 12.3752 10.4033C12.3752 7.42653 12.4085 7.48625 10.7114 7.41496C9.47833 7.36322 8.42757 7.60183 7.50304 8.14366C6.84413 8.52976 5.88222 9.52925 5.45461 10.2722L5.1467 10.8071L4.53806 10.0058C3.63281 8.81411 1.88976 7.73841 0.37202 7.43491L0 7.36056L0.0360448 16.1664ZM26.6949 12.3874C27.4997 12.7807 28.2514 13.565 28.6503 14.4276C28.8885 14.9428 28.9346 15.29 28.9346 16.5718C28.9346 18.3426 28.7368 18.9359 27.8128 19.9383C27.0449 20.7714 26.137 21.1445 24.8778 21.1445C23.6187 21.1445 22.7108 20.7714 21.9429 19.9383C21.0189 18.9359 20.8211 18.3426 20.8211 16.5718C20.8211 14.8229 21.0131 14.2297 21.8944 13.2542C23.0799 11.9421 25.0539 11.5857 26.6949 12.3874Z" fill="#F8F8FF"/>
<path fill-rule="evenodd" clip-rule="evenodd" d="M156.221 0.249855C153.692 1.16021 152.113 2.91827 151.585 5.41361C151.48 5.90717 151.393 6.59536 151.392 6.94298L151.39 7.57489H149.886C148.894 7.57489 148.328 7.62917 148.223 7.73454C148.113 7.84429 148.063 8.50747 148.063 9.85552C148.063 12.2917 148.013 12.2311 150.022 12.2311H151.39V18.4743C151.39 23.9725 151.415 24.7424 151.599 24.9265C151.91 25.2377 156.857 25.2377 157.168 24.9265C157.352 24.7424 157.377 23.9735 157.377 18.4858V12.254L158.901 12.2093C159.919 12.1794 160.482 12.1074 160.597 11.9921C160.717 11.8725 160.783 11.2671 160.814 10.0223C160.874 7.53392 160.906 7.57489 158.904 7.57489H157.377V3.7834C157.377 -0.51696 157.48 -0.203129 156.221 0.249855ZM82.0018 6.99752C81.1824 7.1726 79.6512 7.80172 78.9192 8.26415C78.4567 8.55603 77.7487 9.15921 77.3457 9.60448C76.9428 10.0497 76.6131 10.3487 76.6131 10.269C76.6131 10.0176 75.3063 8.68215 74.6455 8.25816C73.9444 7.80837 72.3672 7.17579 71.9467 7.17579C71.6778 7.17579 71.6773 7.20373 71.7213 18.0514C71.765 28.8078 71.7687 28.9387 72.0606 29.9913C72.6224 32.0162 73.5015 33.3341 74.8699 34.2023C75.5167 34.6125 76.957 35.1131 77.4906 35.1131H77.8078L77.8424 29.3807L77.8771 23.6483L78.4093 24.0782C79.1737 24.6956 80.6429 25.3446 81.8299 25.5893C84.8625 26.2144 87.8289 25.3881 89.8629 23.3516C90.9806 22.2326 91.6343 21.1139 92.1243 19.4815C92.4375 18.4381 92.4849 18.0449 92.4929 16.4217C92.5036 14.2192 92.3039 13.2507 91.4914 11.5659C91.0545 10.6601 90.7312 10.2224 89.8668 9.36594C88.0701 7.58607 86.3205 6.89615 83.6769 6.92515C82.902 6.93367 82.1481 6.96613 82.0018 6.99752ZM103.224 7.00191C100.043 7.53658 97.3776 9.373 96.1996 11.8423C95.4525 13.4083 95.2089 14.5152 95.2062 16.3552C95.2023 19.1477 96.0164 21.2661 97.764 23.0096C98.9206 24.1637 100.033 24.8032 101.832 25.349C102.921 25.6794 103.215 25.7109 105.22 25.7126C107.789 25.7149 108.788 25.5042 110.58 24.5813C112.04 23.8295 113.507 22.3914 114.182 21.0501C114.973 19.4789 115.245 18.2801 115.249 16.3552C115.254 13.5095 114.479 11.5026 112.677 9.69428C111.224 8.23728 109.86 7.53525 107.636 7.10063C106.739 6.92515 104.04 6.86475 103.224 7.00191ZM137.286 7.16009C135.79 7.64274 134.562 8.49962 133.587 9.7407L132.968 10.5285L132.766 10.2158C132.013 9.05251 130.659 8.01032 129.221 7.48842C127.671 6.92582 127.839 5.90504 127.839 15.8599C127.839 23.5045 127.864 24.5796 128.046 24.8398C128.248 25.1285 128.316 25.1355 130.891 25.1355C133.18 25.1355 133.552 25.1065 133.71 24.9157C133.856 24.7409 133.907 23.6325 133.96 19.4946L134.026 14.2932L134.382 13.6196C135.018 12.4132 136.072 11.7004 137.219 11.7004C138.378 11.7004 139.396 12.394 139.666 13.3682C139.761 13.7094 139.813 15.7641 139.813 19.219C139.814 23.8226 139.842 24.5842 140.021 24.8398C140.223 25.1286 140.291 25.1355 142.879 25.1355H145.529L145.743 24.8096C145.933 24.5197 145.95 23.8407 145.902 18.6567C145.852 13.235 145.829 12.759 145.568 11.8129C144.824 9.11584 143.327 7.54536 141.038 7.05938C139.98 6.83469 138.142 6.88404 137.286 7.16009ZM118.259 15.8599C118.259 23.5045 118.284 24.5796 118.466 24.8398C118.669 25.1286 118.736 25.1355 121.324 25.1355H123.974L124.187 24.8109C124.376 24.5229 124.394 23.8437 124.347 18.7911C124.302 13.9521 124.261 12.9793 124.07 12.3204C123.376 9.92456 121.892 8.30566 119.641 7.48842C118.091 6.92582 118.259 5.90504 118.259 15.8599ZM104.13 11.7439C102.301 12.2596 101.228 13.9539 101.228 16.3278C101.228 19.3645 102.719 21.0596 105.367 21.0346C107.451 21.015 108.838 19.6911 109.209 17.3661C109.499 15.5506 108.935 13.5286 107.862 12.537C107.031 11.7694 105.326 11.407 104.13 11.7439ZM81.1001 11.8315C79.8802 12.0474 78.9048 12.8223 78.2526 14.0936C77.9049 14.7713 77.8771 14.9384 77.8771 16.3552C77.8771 17.6303 77.9238 17.9859 78.1573 18.4905C78.9943 20.2993 80.728 21.2062 82.6946 20.8639C84.8581 20.4871 86.1681 18.5795 86.0329 16.0031C85.984 15.0709 85.9023 14.7528 85.5184 14.0004C84.6645 12.3265 82.9787 11.499 81.1001 11.8315ZM164.214 19.1948C163.209 19.4519 162.156 20.0956 161.708 20.7286C161.175 21.4801 161.076 22.7039 161.483 23.5025C162.08 24.6719 163.352 25.3689 165.125 25.4976C167.724 25.6863 169.81 24.4491 169.987 22.6148C170.17 20.7032 168.466 19.2266 165.906 19.0792C165.31 19.045 164.615 19.0925 164.214 19.1948Z" fill="#F8F8FF"/>
</svg>
