<svg width="76" height="75" viewBox="0 0 76 75" fill="none" xmlns="http://www.w3.org/2000/svg">
<path d="M42.7249 3.5006L43.1346 3.5383L43.5509 3.62805L43.7566 3.68895L43.9666 3.76875L44.3432 3.95079C44.6005 4.09375 44.8393 4.26771 45.0543 4.46878L45.3795 4.81788L46.1677 5.73415C52.4297 12.8083 61.0131 17.4124 70.3702 18.7166L71.5933 18.8689C72.3951 18.9554 73.1445 19.3084 73.7219 19.8714C74.2992 20.4343 74.671 21.1747 74.7777 21.9739C75.609 28.1955 75.1811 34.5207 73.5196 40.5737C71.8581 46.6266 68.9967 52.2839 65.1056 57.2092C61.2145 62.1345 56.3731 66.2273 50.869 69.2446C45.3648 72.2618 39.3104 74.1419 33.0653 74.773C32.4557 74.8345 31.8406 74.7396 31.2779 74.4972C25.5132 72.0133 20.3066 68.396 15.9675 63.8601C11.6284 59.3242 8.24542 53.9623 6.01957 48.0932C3.79371 42.224 2.77041 35.9672 3.01046 29.6947C3.25052 23.4222 4.74904 17.262 7.41698 11.5801C7.75965 10.8502 8.33731 10.2563 9.05747 9.89357C9.77764 9.53083 10.5987 9.42019 11.3892 9.57935C21.0671 11.5288 31.1242 9.79573 39.5915 4.71944L40.6515 4.06282L41.0345 3.84852C41.3001 3.72161 41.5802 3.62772 41.8686 3.56897L42.2861 3.50944C42.4308 3.49754 42.5797 3.49495 42.7249 3.5006Z" fill="#0076AC"/>
<path d="M40.5373 0.515556L40.947 0.553264L41.3633 0.643014L41.569 0.703912L41.779 0.783711L42.1555 0.965749C42.4128 1.10871 42.6517 1.28267 42.8666 1.48374L43.1919 1.83284L43.98 2.74911C50.2421 9.82321 58.8254 14.4274 68.1825 15.7316L69.4057 15.8839C70.2074 15.9704 70.9569 16.3234 71.5342 16.8863C72.1116 17.4493 72.4834 18.1896 72.5901 18.9889C73.4214 25.2105 72.9935 31.5357 71.332 37.5886C69.6704 43.6416 66.8091 49.2988 62.918 54.2241C59.0269 59.1494 54.1855 63.2423 48.6813 66.2595C43.1772 69.2768 37.1227 71.1568 30.8777 71.7879C30.2681 71.8495 29.6529 71.7546 29.0903 71.5122C23.3255 69.0283 18.1189 65.4109 13.7799 60.8751C9.44078 56.3392 6.0578 50.9773 3.83194 45.1081C1.60609 39.2389 0.58278 32.9822 0.822837 26.7097C1.06289 20.4372 2.56142 14.2769 5.22935 8.59504C5.57203 7.86512 6.14968 7.27126 6.86984 6.90853C7.59001 6.54579 8.41105 6.43515 9.20154 6.59431C18.8795 8.54377 28.9366 6.81069 37.4038 1.7344L38.4638 1.07778L38.8469 0.863483C39.1124 0.736569 39.3926 0.642684 39.681 0.583926L40.0985 0.524401C40.2432 0.512499 40.3921 0.509911 40.5373 0.515556Z" fill="#46C4FF"/>
</svg>
