<svg width="1222" height="550" viewBox="0 0 1222 550" fill="none" xmlns="http://www.w3.org/2000/svg">
<path d="M0 50C0 22.3857 22.3858 0 50 0H1172C1199.61 0 1222 22.3858 1222 50V550H0V50Z" fill="#F8F8FF"/>
<ellipse cx="897.36" cy="234.726" rx="201.36" ry="201.726" fill="#C6F0AC"/>
<g clip-path="url(#clip0_2038_1361)">
<path d="M959.275 249.773L940.305 227.475C969.319 206.87 989.117 190.277 1001.69 168.796C1004.86 163.369 1012.62 162.215 1016.69 167.012C1018.75 169.453 1019.28 172.845 1017.95 175.752C1008.56 196.159 988.528 230.984 959.275 249.773Z" fill="#499136"/>
<path d="M1003.89 174.358C1003.18 170.854 1000.13 168.511 997.066 169.123C994.001 169.736 992.083 173.073 992.783 176.576C993.484 180.08 996.537 182.423 999.603 181.811C1002.67 181.198 1004.59 177.862 1003.89 174.358Z" fill="#499136"/>
<path d="M822.493 318.228C807.499 288.136 824.764 235.473 834.76 211.829H825.219C813.185 228.34 806.906 239.191 798.412 267.716C796.426 274.382 793.414 295.122 799.775 308.556C804.864 319.303 817.04 319.482 822.493 318.228Z" fill="#499136"/>
<path d="M945.684 333.508C980.401 314.795 961.412 244.767 947.445 211.829H890.229H833.454C819.345 245.113 800.159 315.608 835.179 333.515C835.729 333.796 836.095 334.337 836.095 334.925V363.09C836.095 366.531 839.064 369.321 842.727 369.321H854.348C859.737 369.321 865.107 366.969 866.99 362.225C868.335 358.838 869.015 355.21 869.457 350.764C869.549 349.834 870.474 349.174 871.449 349.357L873.387 349.721C884.006 351.716 894.938 351.738 905.567 349.785L907.942 349.348C908.914 349.169 909.832 349.827 909.942 350.751C910.471 355.176 911.554 358.95 913.551 362.719C915.88 367.115 921.035 369.321 926.263 369.321H938.172C941.835 369.321 944.805 366.531 944.805 363.09V334.9C944.805 334.325 945.154 333.794 945.684 333.508Z" fill="#61D243"/>
<path d="M890.353 352.743C924.467 352.743 952.122 321.755 952.122 283.53C952.122 245.304 924.467 214.316 890.353 214.316C856.239 214.316 828.583 245.304 828.583 283.53C828.583 321.755 856.239 352.743 890.353 352.743Z" fill="#ABF47D"/>
<g filter="url(#filter0_d_2038_1361)">
<path fill-rule="evenodd" clip-rule="evenodd" d="M814.425 165.385C814.425 167.82 814.976 170.169 815.999 172.382C808.843 177.535 804.758 183.808 804.758 191.092C804.758 212.033 843.712 232.866 891.764 232.866C939.817 232.866 976.836 213.319 976.836 192.377C977.461 185.122 973.83 178.736 967.013 173.413C968.366 170.905 969.103 168.202 969.103 165.385C969.103 152.252 953.089 141.605 933.334 141.605C918.649 141.605 906.03 147.489 900.521 155.904C897.641 155.798 894.72 155.744 891.764 155.744C888.805 155.744 885.881 155.793 882.999 155.89C877.485 147.482 864.872 141.605 850.195 141.605C830.44 141.605 814.425 152.252 814.425 165.385Z" fill="#61D243"/>
<g filter="url(#filter1_d_2038_1361)">
<path d="M954.34 186.255C939.957 190.636 912.628 191.412 891.634 186.742C873.302 189.7 839.755 191.285 830.543 186.255C832.137 246.406 949.869 249.272 954.318 189.188C954.389 188.224 954.502 187.229 954.34 186.255Z" fill="#ABF47D"/>
</g>
<path d="M927.236 189.629C916.617 189.628 907.428 189.079 895.411 187.735C892.759 187.439 890.033 187.393 887.36 187.615C871.685 188.912 862.625 189.735 845.008 189.629C838.68 189.241 834.234 188.386 830.219 186.982C879.132 235.298 906.328 234.395 954.423 186.903C946.362 189.221 936.552 189.629 927.236 189.629Z" fill="#2B5220"/>
<path fill-rule="evenodd" clip-rule="evenodd" d="M921.108 214.074C900.569 201.833 883.588 202.164 863.535 214.074C884.073 226.043 901.054 225.719 921.108 214.074Z" fill="#EB8884"/>
<path d="M961.566 184.034C952.704 188.918 939.54 189.629 927.236 189.629C916.617 189.628 907.428 189.079 895.411 187.735C892.759 187.439 890.033 187.393 887.36 187.615C871.685 188.913 862.625 189.735 845.008 189.629C835.074 189.021 829.778 187.259 823.507 184.034" stroke="#499036" stroke-width="3" stroke-linecap="round"/>
<path d="M911.728 166.78C931.583 156.444 937.566 156.592 957.011 166.78" stroke="#417932" stroke-width="5" stroke-linecap="round"/>
<path d="M875.502 166.779C855.647 156.444 849.664 156.592 830.219 166.779" stroke="#417932" stroke-width="5" stroke-linecap="round"/>
<path d="M959.791 136.541C948.424 133.219 939.699 129.486 930.625 122.194C925.763 118.287 918.18 120.803 916.994 127.203C916.119 131.921 919.329 136.31 923.868 136.603L959.4 138.891C960.685 138.974 961.027 136.902 959.791 136.541Z" fill="#333333"/>
<path d="M823.094 136.177C834.518 133.054 843.307 129.474 852.507 122.342C857.436 118.521 864.975 121.168 866.049 127.587C866.841 132.32 863.555 136.652 859.011 136.865L823.444 138.533C822.158 138.593 821.852 136.517 823.094 136.177Z" fill="#333333"/>
<path d="M971.535 197.737C972.509 197.737 973.299 196.995 973.299 196.079C973.299 195.164 972.509 194.422 971.535 194.422C970.56 194.422 969.77 195.164 969.77 196.079C969.77 196.995 970.56 197.737 971.535 197.737Z" fill="#499136"/>
<path d="M962.711 204.368C963.685 204.368 964.475 203.626 964.475 202.711C964.475 201.795 963.685 201.053 962.711 201.053C961.736 201.053 960.946 201.795 960.946 202.711C960.946 203.626 961.736 204.368 962.711 204.368Z" fill="#499136"/>
<path d="M960.945 196.079C961.92 196.079 962.71 195.337 962.71 194.421C962.71 193.506 961.92 192.764 960.945 192.764C959.971 192.764 959.18 193.506 959.18 194.421C959.18 195.337 959.971 196.079 960.945 196.079Z" fill="#499136"/>
<path d="M826.819 197.737C827.793 197.737 828.583 196.995 828.583 196.079C828.583 195.164 827.793 194.422 826.819 194.422C825.844 194.422 825.054 195.164 825.054 196.079C825.054 196.995 825.844 197.737 826.819 197.737Z" fill="#499136"/>
<path d="M817.994 204.368C818.969 204.368 819.759 203.626 819.759 202.711C819.759 201.795 818.969 201.053 817.994 201.053C817.02 201.053 816.229 201.795 816.229 202.711C816.229 203.626 817.02 204.368 817.994 204.368Z" fill="#499136"/>
<path d="M816.229 196.079C817.204 196.079 817.994 195.337 817.994 194.421C817.994 193.506 817.204 192.764 816.229 192.764C815.255 192.764 814.465 193.506 814.465 194.421C814.465 195.337 815.255 196.079 816.229 196.079Z" fill="#499136"/>
</g>
<path d="M936.106 363.976C936.106 362.832 937.094 361.903 938.312 361.903C939.53 361.903 940.518 362.832 940.518 363.976V368.796C939.147 369.335 938.157 369.443 936.106 369.364V363.976Z" fill="#499136"/>
<path d="M927.282 363.976C927.282 362.832 928.27 361.903 929.488 361.903C930.706 361.903 931.694 362.832 931.694 363.976V369.364H927.282V363.976Z" fill="#499136"/>
<path d="M844.335 363.976C844.335 362.832 843.347 361.903 842.129 361.903C840.911 361.903 839.923 362.832 839.923 363.976V368.708C841.293 369.247 842.284 369.445 844.335 369.365V363.976Z" fill="#499136"/>
<path d="M853.159 363.976C853.159 362.832 852.171 361.903 850.953 361.903C849.735 361.903 848.747 362.832 848.747 363.976V369.364H853.159V363.976Z" fill="#499136"/>
<path d="M918.457 363.976C918.457 362.832 919.446 361.903 920.663 361.903C921.882 361.903 922.87 362.832 922.87 363.976V369C921.107 368.628 920.132 368.279 918.457 367.466V363.976Z" fill="#499136"/>
<path d="M861.983 363.976C861.983 362.832 860.995 361.903 859.777 361.903C858.559 361.903 857.571 362.832 857.571 363.976V368.949C859.334 368.578 860.309 368.199 861.983 367.386V363.976Z" fill="#499136"/>
<path d="M945.504 314.612C936.238 333.677 923.443 350.669 889.688 352.742C862.115 351.499 844.908 334.92 835.202 314.612C878.921 348.435 902.238 348.15 945.504 314.612Z" fill="#9EE075"/>
<path d="M918.59 363.518V367.248C915.481 365.846 914.088 364.136 912.412 360.203C910.966 356.395 910.379 354.236 909.765 350.256C909.515 349.782 909.318 349.605 908.883 349.427C935.222 337.601 944.715 324.574 951.68 293.061C960.761 293.375 963.089 289.213 964.917 278.142C966.314 297.309 964.993 306.047 959.622 318.758C955.799 325.475 953.295 328.992 945.944 333.263C945.124 333.8 944.833 334.252 944.621 335.336V351.914C936.426 357.464 931.504 360.083 920.795 361.86C919.625 361.961 919.147 362.301 918.59 363.518Z" fill="#5EBE45" stroke="#5EBE45" stroke-width="0.4"/>
<path d="M862.194 363.518V367.248C865.303 365.846 866.696 364.136 868.371 360.203C869.817 356.395 870.406 354.236 871.019 350.256C871.269 349.782 871.466 349.605 871.901 349.427C845.561 337.601 836.068 324.574 829.102 293.061C820.021 293.375 817.693 289.213 815.865 278.142C814.468 297.309 815.789 306.047 821.16 318.758C824.983 325.475 827.487 328.992 834.838 333.263C835.659 333.8 835.95 334.252 836.162 335.336V351.914C844.357 357.464 849.279 360.083 859.988 361.86C861.158 361.961 861.636 362.301 862.194 363.518Z" fill="#5EBE45" stroke="#5EBE45" stroke-width="0.4"/>
<path d="M815.135 296.377C816.069 305.286 817.247 309.773 820.642 318.343C810.935 319.587 802.111 316.271 798.581 305.08C808.263 306.15 810.377 303.244 815.135 296.377Z" fill="#417932" stroke="#417932" stroke-width="0.4"/>
<path d="M940.65 307.982C941.624 307.982 942.415 307.239 942.415 306.324C942.415 305.408 941.624 304.666 940.65 304.666C939.675 304.666 938.885 305.408 938.885 306.324C938.885 307.239 939.675 307.982 940.65 307.982Z" fill="#9EE075"/>
<path d="M837.407 307.982C838.382 307.982 839.172 307.239 839.172 306.324C839.172 305.408 838.382 304.666 837.407 304.666C836.433 304.666 835.643 305.408 835.643 306.324C835.643 307.239 836.433 307.982 837.407 307.982Z" fill="#9EE075"/>
<path d="M931.826 314.613C932.801 314.613 933.591 313.87 933.591 312.955C933.591 312.039 932.801 311.297 931.826 311.297C930.851 311.297 930.061 312.039 930.061 312.955C930.061 313.87 930.851 314.613 931.826 314.613Z" fill="#9EE075"/>
<path d="M845.349 314.613C846.324 314.613 847.114 313.87 847.114 312.955C847.114 312.039 846.324 311.297 845.349 311.297C844.375 311.297 843.584 312.039 843.584 312.955C843.584 313.87 844.375 314.613 845.349 314.613Z" fill="#9EE075"/>
<path d="M930.061 306.323C931.035 306.323 931.826 305.581 931.826 304.666C931.826 303.75 931.035 303.008 930.061 303.008C929.086 303.008 928.296 303.75 928.296 304.666C928.296 305.581 929.086 306.323 930.061 306.323Z" fill="#9EE075"/>
<path d="M845.349 307.153C846.324 307.153 847.114 306.411 847.114 305.495C847.114 304.579 846.324 303.837 845.349 303.837C844.375 303.837 843.584 304.579 843.584 305.495C843.584 306.411 844.375 307.153 845.349 307.153Z" fill="#9EE075"/>
<path d="M993.37 158.685C990.918 160.345 989.947 161.284 991.179 162.244C992.411 163.204 993.514 161.294 995.274 160.251C997.035 159.208 1001.93 157.256 1004.39 157.258C1006.85 157.26 1007.76 157.883 1008.18 157.198C1008.92 155.982 1009.25 155.054 1004.72 155.022C1000.19 154.989 995.823 157.024 993.37 158.685Z" fill="#D9D9D9"/>
<path d="M1029.88 180.203C1030.76 177.374 1030.93 176.035 1029.37 176.054C1027.8 176.074 1028.14 178.256 1027.41 180.169C1026.69 182.083 1024.08 186.668 1022.16 188.202C1020.24 189.736 1019.14 189.821 1019.24 190.618C1019.42 192.03 1019.75 192.959 1023.31 190.153C1026.87 187.346 1029 183.032 1029.88 180.203Z" fill="#D9D9D9"/>
<path d="M991.267 153.96C988.815 155.62 987.844 156.559 989.076 157.519C990.308 158.48 991.411 156.569 993.171 155.526C994.932 154.484 999.831 152.531 1002.29 152.533C1004.74 152.535 1005.66 153.158 1006.08 152.473C1006.82 151.258 1007.15 150.33 1002.62 150.297C998.083 150.265 993.72 152.3 991.267 153.96Z" fill="#D9D9D9"/>
<path d="M1034.47 182.578C1035.35 179.749 1035.52 178.41 1033.96 178.429C1032.4 178.449 1032.73 180.631 1032.01 182.544C1031.28 184.458 1028.68 189.043 1026.76 190.577C1024.84 192.111 1023.73 192.196 1023.84 192.993C1024.02 194.405 1024.34 195.334 1027.9 192.528C1031.46 189.721 1033.59 185.407 1034.47 182.578Z" fill="#D9D9D9"/>
</g>
<defs>
<filter id="filter0_d_2038_1361" x="794.758" y="112.333" width="192.148" height="132.533" filterUnits="userSpaceOnUse" color-interpolation-filters="sRGB">
<feFlood flood-opacity="0" result="BackgroundImageFix"/>
<feColorMatrix in="SourceAlpha" type="matrix" values="0 0 0 0 0 0 0 0 0 0 0 0 0 0 0 0 0 0 127 0" result="hardAlpha"/>
<feOffset dy="2"/>
<feGaussianBlur stdDeviation="5"/>
<feComposite in2="hardAlpha" operator="out"/>
<feColorMatrix type="matrix" values="0 0 0 0 0 0 0 0 0 0 0 0 0 0 0 0 0 0 0.05 0"/>
<feBlend mode="normal" in2="BackgroundImageFix" result="effect1_dropShadow_2038_1361"/>
<feBlend mode="normal" in="SourceGraphic" in2="effect1_dropShadow_2038_1361" result="shape"/>
</filter>
<filter id="filter1_d_2038_1361" x="820.543" y="178.255" width="143.88" height="66.5811" filterUnits="userSpaceOnUse" color-interpolation-filters="sRGB">
<feFlood flood-opacity="0" result="BackgroundImageFix"/>
<feColorMatrix in="SourceAlpha" type="matrix" values="0 0 0 0 0 0 0 0 0 0 0 0 0 0 0 0 0 0 127 0" result="hardAlpha"/>
<feOffset dy="2"/>
<feGaussianBlur stdDeviation="5"/>
<feComposite in2="hardAlpha" operator="out"/>
<feColorMatrix type="matrix" values="0 0 0 0 0 0 0 0 0 0 0 0 0 0 0 0 0 0 0.05 0"/>
<feBlend mode="normal" in2="BackgroundImageFix" result="effect1_dropShadow_2038_1361"/>
<feBlend mode="normal" in="SourceGraphic" in2="effect1_dropShadow_2038_1361" result="shape"/>
</filter>
<clipPath id="clip0_2038_1361">
<rect width="261.022" height="264.282" fill="white" transform="translate(795.934 105.34)"/>
</clipPath>
</defs>
</svg>
