<svg width="53" height="56" viewBox="0 0 53 56" fill="none" xmlns="http://www.w3.org/2000/svg">
<path d="M27.3783 0C29.674 0 31.898 0.302334 34.0143 0.86857L28.5672 6.31315C28.1539 6.72804 27.7894 7.18881 27.4808 7.68646H27.3783C23.8311 7.68646 20.3635 8.73834 17.4141 10.7091C14.4647 12.6798 12.1659 15.4809 10.8085 18.7581C9.45101 22.0353 9.09583 25.6414 9.78786 29.1205C10.4799 32.5996 12.188 35.7953 14.6963 38.3036C17.2046 40.8118 20.4003 42.52 23.8794 43.212C27.3584 43.904 30.9646 43.5489 34.2418 42.1914C37.519 40.8339 40.3201 38.5352 42.2908 35.5857C44.2615 32.6363 45.3134 29.1688 45.3134 25.6215V25.5191C45.8088 25.2116 46.2657 24.8486 46.6842 24.4301L52.1313 18.9856C52.6975 21.1019 52.9999 23.3259 52.9999 25.6215C52.9999 39.7723 41.5291 51.2431 27.3783 51.2431C13.2275 51.2431 1.75678 39.7723 1.75678 25.6215C1.75678 11.4708 13.2275 0 27.3783 0ZM26.3176 12.8543C26.3176 15.0347 26.21 17.2459 26.3278 19.4237L24.9443 20.8073C24.4683 21.2832 24.0908 21.8482 23.8332 22.47C23.5757 23.0919 23.4431 23.7584 23.4431 24.4314C23.4431 25.1045 23.5757 25.771 23.8332 26.3928C24.0908 27.0146 24.4683 27.5797 24.9443 28.0556C25.4202 28.5315 25.9852 28.9091 26.6071 29.1666C27.2289 29.4242 27.8954 29.5568 28.5684 29.5568C29.2415 29.5568 29.908 29.4242 30.5298 29.1666C31.1517 28.9091 31.7167 28.5315 32.1926 28.0556L33.5762 26.672C35.754 26.7899 37.9626 26.6823 40.1455 26.6823C39.9431 29.1172 39.0487 31.4435 37.5676 33.3867C36.0865 35.3299 34.0806 36.8091 31.7864 37.6497C29.4923 38.4904 27.0056 38.6574 24.6196 38.1312C22.2336 37.6049 20.0479 36.4073 18.3202 34.6797C16.5925 32.952 15.3949 30.7662 14.8687 28.3803C14.3425 25.9943 14.5095 23.5076 15.3501 21.2135C16.1908 18.9193 17.6699 16.9134 19.6132 15.4323C21.5564 13.9512 23.8827 13.0567 26.3176 12.8543ZM44.0426 0.325394C44.5102 0.519295 44.91 0.847399 45.1913 1.26829C45.4727 1.68918 45.6231 2.18399 45.6234 2.69026V7.37901H50.3096C50.8163 7.37911 51.3115 7.52944 51.7328 7.81098C52.154 8.09252 52.4823 8.49263 52.6762 8.96074C52.8701 9.42884 52.9208 9.94392 52.822 10.4409C52.7232 10.9378 52.4793 11.3943 52.1211 11.7526L43.0587 20.8047C42.5783 21.2852 41.9267 21.5553 41.2473 21.5554H35.0648L30.3812 26.2416C29.9004 26.7224 29.2484 26.9924 28.5684 26.9924C27.8885 26.9924 27.2365 26.7224 26.7557 26.2416C26.275 25.7608 26.0049 25.1088 26.0049 24.4289C26.0049 23.749 26.275 23.0969 26.7557 22.6161L31.4419 17.9351V11.75C31.4416 11.4132 31.5078 11.0796 31.6366 10.7683C31.7654 10.457 31.9544 10.1742 32.1926 9.93604L41.2498 0.878819C41.6081 0.52029 42.0647 0.276094 42.5619 0.177125C43.059 0.078157 43.5743 0.128864 44.0426 0.322831" fill="#850014"/>
<path d="M25.6215 0C27.9172 0 30.1412 0.302334 32.2575 0.86857L26.8104 6.31315C26.3971 6.72804 26.0327 7.18881 25.724 7.68646H25.6215C22.0743 7.68646 18.6068 8.73834 15.6573 10.7091C12.7079 12.6798 10.4092 15.4809 9.05169 18.7581C7.69423 22.0353 7.33905 25.6414 8.03108 29.1205C8.72311 32.5996 10.4313 35.7953 12.9395 38.3036C15.4478 40.8118 18.6435 42.52 22.1226 43.212C25.6017 43.904 29.2078 43.5489 32.485 42.1914C35.7622 40.8339 38.5633 38.5352 40.534 35.5857C42.5048 32.6363 43.5566 29.1688 43.5566 25.6215V25.5191C44.052 25.2116 44.5089 24.8486 44.9274 24.4301L50.3745 18.9856C50.9408 21.1019 51.2431 23.3259 51.2431 25.6215C51.2431 39.7723 39.7723 51.2431 25.6215 51.2431C11.4708 51.2431 0 39.7723 0 25.6215C0 11.4708 11.4708 0 25.6215 0ZM24.5608 12.8543C24.5608 15.0347 24.4532 17.2459 24.5711 19.4237L23.1875 20.8073C22.7116 21.2832 22.334 21.8482 22.0765 22.47C21.8189 23.0919 21.6863 23.7584 21.6863 24.4314C21.6863 25.1045 21.8189 25.771 22.0765 26.3928C22.334 27.0146 22.7116 27.5797 23.1875 28.0556C23.6634 28.5315 24.2284 28.9091 24.8503 29.1666C25.4721 29.4242 26.1386 29.5568 26.8117 29.5568C27.4847 29.5568 28.1512 29.4242 28.7731 29.1666C29.3949 28.9091 29.9599 28.5315 30.4358 28.0556L31.8194 26.672C33.9972 26.7899 36.2058 26.6823 38.3888 26.6823C38.1864 29.1172 37.2919 31.4435 35.8108 33.3867C34.3297 35.3299 32.3238 36.8091 30.0296 37.6497C27.7355 38.4904 25.2488 38.6574 22.8628 38.1312C20.4768 37.6049 18.2911 36.4073 16.5634 34.6797C14.8357 32.952 13.6382 30.7662 13.1119 28.3803C12.5857 25.9943 12.7527 23.5076 13.5934 21.2135C14.434 18.9193 15.9132 16.9134 17.8564 15.4323C19.7996 13.9512 22.1259 13.0567 24.5608 12.8543ZM42.2858 0.325394C42.7535 0.519295 43.1532 0.847399 43.4346 1.26829C43.7159 1.68918 43.8663 2.18399 43.8667 2.69026V7.37901H48.5528C49.0595 7.37911 49.5548 7.52944 49.976 7.81098C50.3972 8.09252 50.7256 8.49263 50.9194 8.96074C51.1133 9.42884 51.1641 9.94392 51.0652 10.4409C50.9664 10.9378 50.7225 11.3943 50.3643 11.7526L41.3019 20.8047C40.8216 21.2852 40.17 21.5553 39.4905 21.5554H33.308L28.6244 26.2416C28.1436 26.7224 27.4916 26.9924 26.8117 26.9924C26.1318 26.9924 25.4797 26.7224 24.9989 26.2416C24.5182 25.7608 24.2481 25.1088 24.2481 24.4289C24.2481 23.749 24.5182 23.0969 24.9989 22.6161L29.6851 17.9351V11.75C29.6849 11.4132 29.751 11.0796 29.8798 10.7683C30.0087 10.457 30.1976 10.1742 30.4358 9.93604L39.4931 0.878819C39.8514 0.52029 40.308 0.276094 40.8051 0.177125C41.3022 0.078157 41.8175 0.128864 42.2858 0.322831" fill="#DE0530"/>
</svg>
