<svg width="1222" height="702" viewBox="0 0 1222 702" fill="none" xmlns="http://www.w3.org/2000/svg">
<path d="M0 50C0 22.3857 22.3858 0 50 0H1172C1199.61 0 1222 22.3858 1222 50V702H0V50Z" fill="#F8F8FF"/>
<path d="M122.143 203.883C120.64 198.569 123.729 193.042 129.044 191.539L211.082 168.331C216.397 166.828 221.923 169.917 223.427 175.231L247.729 261.14C251.488 274.426 243.764 288.243 230.479 292.001L177.307 307.043C164.022 310.801 150.205 303.078 146.446 289.792L122.143 203.883Z" fill="#850014"/>
<path d="M122.143 203.883C120.64 198.569 123.729 193.042 129.044 191.539L211.082 168.331C216.397 166.828 221.923 169.917 223.427 175.231L238.137 227.233C246.049 255.202 229.79 284.289 201.822 292.201V292.201C173.853 300.113 144.766 283.854 136.854 255.885L122.143 203.883Z" fill="#46C4FF"/>
<path d="M122.143 203.883C120.64 198.569 123.729 193.042 129.044 191.539L211.082 168.331C216.397 166.828 221.923 169.917 223.427 175.231L245.93 254.781C249.539 267.535 242.124 280.8 229.37 284.408L174.274 299.994C161.52 303.602 148.255 296.187 144.647 283.433L122.143 203.883Z" fill="#E10531"/>
<path d="M140.229 202.592C140.078 202.061 140.387 201.508 140.919 201.358L207.33 182.571C207.861 182.42 208.414 182.729 208.564 183.261L222.791 233.55C228.129 252.421 217.159 272.046 198.289 277.384V277.384C179.418 282.722 159.793 271.752 154.455 252.882L140.229 202.592Z" fill="#AE001A"/>
<path d="M165.073 216.79L165.708 219.036L163.462 219.671L161.216 220.307L161.852 222.553L162.487 224.799L160.241 225.434L157.995 226.07L161.013 236.739L164.031 247.409L166.277 246.773L168.523 246.138L169.159 248.384L169.794 250.63L172.04 249.995C174.23 249.375 174.303 249.415 174.843 251.325C175.367 253.178 175.511 253.258 177.364 252.734C179.273 252.194 179.345 252.234 179.965 254.424L180.6 256.67L182.846 256.035L185.093 255.4L185.728 257.646L186.363 259.892L192.821 258.065L199.279 256.238L198.644 253.992L198.008 251.746L200.254 251.11L202.501 250.475L201.865 248.229C201.246 246.039 201.286 245.967 203.195 245.427C205.048 244.902 205.129 244.758 204.605 242.905C204.064 240.996 204.105 240.924 206.295 240.304L208.541 239.669L207.905 237.423L207.27 235.177L209.516 234.541L211.762 233.906L208.744 223.236L205.726 212.567L203.48 213.203L201.234 213.838L200.598 211.592L199.963 209.346L197.717 209.981L195.47 210.616L194.835 208.37L194.2 206.124L191.953 206.76L189.707 207.395L190.343 209.641L190.978 211.887L188.732 212.523L186.486 213.158L187.121 215.404C187.741 217.594 187.7 217.666 185.791 218.206C183.938 218.731 183.857 218.875 184.382 220.728C184.906 222.581 184.825 222.725 182.972 223.249C181.119 223.774 180.975 223.693 180.451 221.84C179.927 219.987 179.783 219.906 177.929 220.43C176.02 220.971 175.948 220.93 175.329 218.74L174.693 216.494L172.447 217.13L170.201 217.765L169.565 215.519L168.93 213.273L166.684 213.908L164.438 214.543L165.073 216.79Z" fill="#6B0015"/>
<path d="M195.906 172.317L212.161 168.024L213.554 168.288L214.947 168.553L216.339 168.818L218.515 169.521L220.253 171.006L223.05 174.827L228.03 192.43L195.362 248.085L162.695 303.741L159.489 302.188L156.488 300.271L153.691 297.989L151.097 295.341L148.708 292.328L146.888 289.155L145.272 285.616L144.184 281.77L140.12 267.401L195.906 172.317Z" fill="white" fill-opacity="0.29"/>
<path d="M1034.38 243.795C1036.54 238.715 1042.42 236.353 1047.5 238.52L1117.19 268.249C1122.27 270.416 1124.63 276.291 1122.47 281.371L1091.83 353.187C1086.41 365.887 1071.73 371.791 1059.03 366.373L1016.93 348.415C1004.23 342.998 998.324 328.311 1003.74 315.611L1034.38 243.795Z" fill="#FFC100"/>
<path d="M1034.38 243.795C1036.54 238.715 1042.42 236.353 1047.5 238.52L1117.19 268.249C1122.27 270.416 1124.63 276.291 1122.47 281.371L1103.53 325.769C1093.15 350.095 1065.02 361.403 1040.69 351.026V351.026C1016.37 340.65 1005.06 312.519 1015.44 288.193L1034.38 243.795Z" fill="#46C4FF"/>
<path d="M1034.38 243.795C1036.54 238.715 1042.42 236.353 1047.5 238.52L1117.19 268.249C1122.27 270.416 1124.63 276.291 1122.47 281.371L1094.16 347.739C1088.95 359.931 1074.86 365.598 1062.66 360.398L1018.72 341.655C1006.53 336.454 1000.87 322.355 1006.07 310.163L1034.38 243.795Z" fill="#FEE333"/>
<path d="M1048.24 252.468C1048.45 251.96 1049.04 251.724 1049.55 251.94L1107.14 276.508C1107.65 276.725 1107.89 277.312 1107.67 277.82L1089.05 321.476C1082.05 337.888 1063.07 345.518 1046.66 338.517V338.517C1030.24 331.516 1022.61 312.536 1029.62 296.123L1048.24 252.468Z" fill="#FEC701"/>
<g clip-path="url(#clip0_504_811)">
<path d="M1070.58 279.614C1070.19 280.176 1069.65 280.574 1069.47 280.498C1069.3 280.423 1068.44 281.099 1067.48 281.995C1066.57 282.911 1065.7 283.586 1065.53 283.511C1065.35 283.436 1064.45 284.2 1063.48 285.247C1062.53 286.251 1061.61 287.059 1061.48 287.003C1061.31 286.927 1060.46 287.559 1059.54 288.367C1058.65 289.238 1057.73 289.939 1057.54 290.015C1057.3 290.072 1056.4 290.836 1055.49 291.752C1054.58 292.667 1053.68 293.431 1053.49 293.507C1052.45 293.742 1050.35 295.976 1049.65 297.609L1048.9 299.375L1053.98 301.541C1059.01 303.687 1059.05 303.706 1058.46 304.602C1058.08 305.119 1056.7 307.504 1055.35 309.951C1053.99 312.398 1052.49 314.682 1052.06 315.074C1051.57 315.49 1050.82 316.891 1050.34 318.253L1049.44 320.737L1051.24 321.66C1052.86 322.508 1053.12 322.514 1053.82 321.612C1054.21 321.05 1054.75 320.652 1054.92 320.728C1055.1 320.803 1056.01 320.146 1056.96 319.25C1057.87 318.334 1058.74 317.659 1058.87 317.715C1059.05 317.79 1059.95 317.026 1060.91 315.979C1061.86 314.975 1062.78 314.167 1062.91 314.223C1063.09 314.299 1063.93 313.667 1064.87 312.815C1065.75 311.988 1066.63 311.268 1066.86 311.211C1067.05 311.135 1068.04 310.408 1069.04 309.531C1070.04 308.653 1071.56 307.422 1072.35 306.771C1073.2 306.14 1074.25 304.764 1074.71 303.705L1075.5 301.851L1070.42 299.685C1065.39 297.539 1065.34 297.52 1065.95 296.58C1066.31 296.107 1067.69 293.722 1069.05 291.275C1070.41 288.828 1071.9 286.544 1072.33 286.152C1072.82 285.736 1073.58 284.335 1074.05 282.974L1074.96 280.489L1073.16 279.566C1071.54 278.718 1071.28 278.712 1070.58 279.614Z" fill="#F89701"/>
<path d="M1051.74 274.605C1050.17 275.238 1049.98 277.141 1051.11 280.126C1052.06 282.671 1052.43 283.143 1053.98 283.802C1055.48 284.442 1055.8 284.422 1056.22 283.558C1057.22 281.584 1057.17 280.834 1056 278.089C1054.77 275.217 1053.26 273.997 1051.74 274.605Z" fill="#F89701"/>
<path d="M1082.69 289.525C1079.83 290.601 1079.34 291.018 1078.6 293.105C1078.31 294.026 1078.52 294.271 1080.02 294.911C1081.57 295.57 1082.17 295.513 1084.66 294.437C1087.59 293.185 1088.84 291.733 1088.21 290.159C1087.57 288.584 1085.67 288.399 1082.69 289.525Z" fill="#F89701"/>
<path d="M1039.84 306.676C1036.58 308.206 1035.76 309.008 1036.1 310.557C1036.54 312.573 1038.41 312.954 1041.76 311.72C1044.38 310.701 1044.77 310.398 1045.26 308.885C1045.81 307.239 1045.74 307.157 1044.1 306.353C1042.55 305.587 1042.12 305.613 1039.84 306.676Z" fill="#F89701"/>
<path d="M1068.83 317.113C1068.6 317.17 1068.13 317.908 1067.77 318.747C1067.26 319.938 1067.37 320.77 1068.37 323.075C1069.63 326.009 1071.08 327.254 1072.65 326.622C1074.23 325.989 1074.41 324.085 1073.29 321.1C1072.41 318.745 1071.92 318.065 1070.73 317.557C1069.89 317.199 1069.04 316.993 1068.83 317.113Z" fill="#F89701"/>
</g>
<path d="M1105 262.757L1120.1 269.198L1121.83 269.937L1123.21 270.818L1123.99 271.735L1124.41 272.795L1124.84 273.854L1124.81 275.303L1116.25 295.353L1061.32 316.099L1006.39 336.846L1005.01 333.916L1003.98 330.843L1003.3 327.629L1002.98 324.273L1003.01 320.774L1003.53 317.487L1004.41 314.058L1005.84 310.713L1011.17 298.216L1105 262.757Z" fill="white" fill-opacity="0.29"/>
<path d="M899.821 525.001C897.895 519.825 900.53 514.068 905.706 512.142L973.841 486.792C979.017 484.866 984.774 487.501 986.7 492.677L1012.66 562.454C1017.48 575.395 1010.89 589.788 997.948 594.603L957.93 609.492C944.99 614.306 930.597 607.719 925.782 594.778L899.821 525.001Z" fill="#7B2BBE"/>
<path d="M899.821 525.001C897.895 519.825 900.53 514.068 905.706 512.142L973.841 486.792C979.017 484.866 984.774 487.501 986.7 492.677L1002.88 536.165C1011.81 560.156 999.593 586.841 975.602 595.767V595.767C951.611 604.693 924.927 592.48 916.001 568.489L899.821 525.001Z" fill="#46C4FF"/>
<path d="M899.821 525.001C897.895 519.825 900.53 514.068 905.706 512.142L973.841 486.792C979.017 484.866 984.774 487.501 986.7 492.677L1010.67 557.111C1015.3 569.534 1008.97 583.352 996.548 587.974L954.656 603.56C942.234 608.182 928.416 601.858 923.794 589.435L899.821 525.001Z" fill="#C67DFF"/>
<path d="M915.231 521.581C915.038 521.063 915.302 520.487 915.82 520.295L972.562 499.183C973.08 498.991 973.656 499.254 973.848 499.772L989.856 542.798C995.879 558.984 987.639 576.988 971.452 583.011V583.011C955.265 589.033 937.261 580.793 931.239 564.606L915.231 521.581Z" fill="#9D4EDD"/>
<g clip-path="url(#clip1_504_811)">
<path d="M958.184 517.888C958.751 517.678 959.378 517.7 959.928 517.952C960.478 518.204 960.906 518.664 961.116 519.23L961.912 521.367C962.122 521.934 962.1 522.562 961.848 523.112C961.596 523.661 961.136 524.089 960.57 524.3C960.003 524.511 959.375 524.488 958.826 524.236C958.276 523.984 957.848 523.525 957.637 522.958L956.842 520.821C956.631 520.254 956.654 519.626 956.906 519.077C957.158 518.527 957.617 518.099 958.184 517.888ZM951.645 525.795C951.746 525.199 952.079 524.667 952.572 524.317C953.065 523.967 953.677 523.826 954.273 523.927L956.522 524.307C957.115 524.411 957.642 524.746 957.99 525.238C958.337 525.73 958.475 526.339 958.375 526.933C958.275 527.527 957.944 528.056 957.454 528.407C956.964 528.757 956.356 528.9 955.762 528.804L953.513 528.424C952.917 528.323 952.385 527.989 952.035 527.496C951.685 527.004 951.544 526.392 951.645 525.795ZM968.605 522.809C968.799 522.578 968.944 522.312 969.034 522.025C969.124 521.738 969.156 521.436 969.129 521.136C969.101 520.837 969.015 520.546 968.875 520.28C968.734 520.014 968.543 519.778 968.311 519.587C968.079 519.395 967.812 519.251 967.524 519.163C967.237 519.075 966.935 519.045 966.636 519.074C966.336 519.104 966.046 519.192 965.781 519.334C965.516 519.476 965.281 519.669 965.091 519.902L963.638 521.659C963.445 521.89 963.299 522.156 963.209 522.443C963.12 522.73 963.087 523.032 963.115 523.332C963.142 523.631 963.228 523.922 963.369 524.188C963.509 524.454 963.701 524.69 963.932 524.881C964.164 525.073 964.431 525.217 964.719 525.305C965.007 525.393 965.309 525.423 965.608 525.394C965.907 525.364 966.198 525.276 966.463 525.134C966.728 524.992 966.962 524.799 967.152 524.566L968.605 522.809ZM959.156 529.263C959.256 528.692 959.569 528.181 960.032 527.832C960.496 527.484 961.074 527.325 961.65 527.388C962.226 527.451 962.757 527.731 963.134 528.171C963.511 528.611 963.706 529.178 963.68 529.757L963.653 530.023L963.444 531.259L965.692 531.639C966.115 531.711 966.509 531.9 966.829 532.185C967.149 532.471 967.382 532.841 967.501 533.253L967.565 533.535L967.776 534.893C973.71 538.587 977.234 545.443 976.019 552.627C974.391 562.259 964.948 568.514 955.116 566.851C945.281 565.19 938.418 556.179 940.046 546.548C941.225 539.579 946.507 534.368 953.043 532.659L953.661 532.507L954.304 531.295C954.506 530.916 954.811 530.601 955.183 530.388C955.556 530.174 955.981 530.07 956.41 530.088L956.699 530.119L958.947 530.499L959.156 529.263ZM953.535 539.709C952.048 540.263 950.733 541.197 949.722 542.42C948.712 543.643 948.04 545.11 947.776 546.674C947.677 547.248 947.802 547.839 948.125 548.324C948.448 548.81 948.944 549.153 949.512 549.284C950.081 549.414 950.677 549.322 951.18 549.027C951.682 548.731 952.052 548.254 952.214 547.694L952.273 547.434C952.528 545.928 953.507 544.722 954.801 544.119L955.129 543.982C955.696 543.77 956.155 543.343 956.406 542.792C956.658 542.242 956.68 541.615 956.468 541.048C956.257 540.482 955.829 540.022 955.279 539.771C954.729 539.52 954.101 539.498 953.535 539.709ZM967.762 526.205L970.01 526.585C970.307 526.633 970.592 526.739 970.847 526.898C971.103 527.056 971.324 527.264 971.499 527.508C971.674 527.753 971.799 528.03 971.867 528.323C971.935 528.616 971.944 528.919 971.894 529.216C971.844 529.512 971.735 529.796 971.575 530.05C971.415 530.305 971.206 530.525 970.96 530.698C970.715 530.872 970.437 530.995 970.144 531.061C969.85 531.126 969.547 531.133 969.25 531.081L967.002 530.701C966.705 530.653 966.421 530.547 966.165 530.388C965.91 530.23 965.688 530.022 965.513 529.778C965.338 529.533 965.213 529.257 965.146 528.964C965.078 528.671 965.069 528.367 965.119 528.071C965.169 527.774 965.277 527.49 965.437 527.236C965.598 526.981 965.807 526.761 966.052 526.588C966.298 526.414 966.576 526.291 966.869 526.225C967.162 526.16 967.466 526.153 967.762 526.205Z" fill="#6513A9"/>
</g>
<path d="M961.92 490.951L975.885 486.031L977.126 486.165L978.368 486.299L979.609 486.433L981.569 486.896L983.2 488.076L985.926 491.233L991.543 506.332L966.809 557.501L942.074 608.669L939.15 607.534L936.38 606.063L933.763 604.258L931.299 602.117L928.988 599.642L927.166 596.985L925.497 593.993L924.269 590.694L919.684 578.369L961.92 490.951Z" fill="white" fill-opacity="0.29"/>
<path d="M844.038 121.104C842.726 115.74 846.012 110.327 851.376 109.015L902.418 96.5341C907.783 95.2223 913.196 98.5078 914.507 103.873L925.773 149.945C929.053 163.357 920.839 176.888 907.427 180.167L885.527 185.523C872.115 188.802 858.583 180.588 855.304 167.176L844.038 121.104Z" fill="#1F9DD3"/>
<path d="M844.038 121.104C842.726 115.74 846.012 110.327 851.376 109.015L902.418 96.5341C907.783 95.2223 913.196 98.5078 914.507 103.873L921.897 134.092C926.655 153.552 914.738 173.184 895.278 177.943V177.943C875.818 182.701 856.186 170.784 851.427 151.324L844.038 121.104Z" fill="#46C4FF"/>
<path d="M844.038 121.104C842.726 115.74 846.012 110.327 851.376 109.015L902.418 96.5341C907.783 95.2223 913.196 98.5078 914.507 103.873L924.812 146.014C927.961 158.889 920.075 171.879 907.2 175.028L883.356 180.858C870.481 184.006 857.491 176.121 854.343 163.246L844.038 121.104Z" fill="#46C4FF"/>
<path d="M855.785 117.627C855.654 117.09 855.983 116.549 856.519 116.418L902.122 105.267C902.659 105.135 903.2 105.464 903.331 106L911.266 138.449C914.476 151.579 906.435 164.825 893.306 168.035V168.035C880.177 171.246 866.931 163.205 863.72 150.075L855.785 117.627Z" fill="#1CB0F6"/>
<path d="M886.509 122.725C886.559 124.161 885.372 124.773 884.103 123.957C882.125 122.704 880.242 124.708 881.9 126.297C882.327 126.675 882.355 126.926 881.976 127.565C881.629 128.197 881.297 128.343 879.999 128.499C878.503 128.672 878.447 128.718 878.412 129.531C878.42 130.655 878.859 131.223 879.648 131.03C879.995 130.945 880.308 130.997 880.346 131.149C880.383 131.301 880.726 131.474 881.095 131.48C881.464 131.487 881.947 131.819 882.145 132.221C882.581 133.047 883.416 132.907 883.973 131.903C884.175 131.499 884.55 131.118 884.802 131.056C885.055 130.995 885.398 130.621 885.569 130.226C886.196 128.689 889.478 127.211 891.675 127.446C892.883 127.601 894.247 128.393 894.948 129.348C896.18 131.105 896.327 134.576 895.193 135.818C894.905 136.146 894.718 136.61 894.777 136.853C894.837 137.095 894.657 137.59 894.377 137.948C893.703 138.884 893.959 139.658 894.926 139.647C895.39 139.63 895.92 139.886 896.097 140.197C896.273 140.508 896.592 140.719 896.75 140.681C896.908 140.642 897.1 140.885 897.182 141.219C897.368 141.977 898.097 142.089 899.141 141.576C899.878 141.17 899.895 141.102 899.364 139.752C898.909 138.576 898.891 138.227 899.316 137.641C899.733 137.024 899.978 136.932 900.526 137.12C902.763 137.795 903.75 135.27 901.676 134.168C900.334 133.467 900.353 132.176 901.705 131.555C902.67 131.127 902.719 131.05 902.414 129.806C902.11 128.561 902.032 128.516 900.978 128.581C899.492 128.655 898.933 127.601 899.761 126.337C900.379 125.446 900.321 124.527 899.67 123.914C899.375 123.665 898.918 123.712 897.876 124.096C896.018 124.839 895.356 124.455 895.187 122.534C895.061 121.471 894.894 121.061 894.527 120.926C893.658 120.656 892.781 121.031 892.241 121.967C891.452 123.254 890.218 123.266 889.6 121.97C889.174 121.045 889.096 120.999 887.802 121.315C886.509 121.632 886.461 121.708 886.509 122.725Z" fill="#0076AC"/>
<path d="M878.064 134.12C878.272 134.97 877.854 135.587 876.676 136.1C876.019 136.422 875.572 136.37 874.768 135.955C873.724 135.374 873.009 135.324 873.128 135.81C873.165 135.961 872.926 136.213 872.601 136.389C872.095 136.641 872.084 136.869 872.538 138.045C873.297 139.918 872.943 140.52 870.935 140.785C869.605 140.95 869.336 141.08 869.067 141.757C868.603 142.867 868.824 143.36 869.987 143.88C870.885 144.272 870.985 144.408 870.932 145.418C870.904 146.262 870.663 146.642 869.933 147.078C869.078 147.544 869.021 147.719 869.295 148.843C869.57 149.966 869.702 150.094 870.676 150.113C871.524 150.163 871.913 150.39 872.32 151.095C872.795 151.944 872.776 152.141 872.214 152.986C871.451 154.106 871.477 154.485 872.362 155.234C872.913 155.71 873.212 155.702 874.468 155.234C876.372 154.543 876.964 154.913 877.179 156.887C877.272 158.087 877.426 158.306 878.098 158.593C879.231 158.991 879.595 158.838 880.28 157.673C880.803 156.805 880.977 156.698 881.983 156.71C882.823 156.729 883.213 156.956 883.651 157.653C884.119 158.471 884.299 158.524 885.466 158.239C886.633 157.953 886.768 157.824 886.805 156.882C886.872 156.061 887.113 155.68 887.881 155.267C888.792 154.755 888.965 154.777 889.742 155.359C890.761 156.107 891.319 156.067 892.166 155.153C892.629 154.589 892.665 154.323 892.193 153.216C891.473 151.365 891.828 150.764 893.874 150.521C895.268 150.341 895.474 150.226 895.474 149.679C895.487 149.322 895.609 149.003 895.767 148.964C896.272 148.841 895.895 148.257 894.874 147.638C894.119 147.147 893.865 146.791 893.859 146.085C893.791 144.847 894.169 144.208 895.052 143.992C895.746 143.822 895.78 143.685 895.475 142.441C895.171 141.196 895.078 141.09 894.384 141.26C893.501 141.476 892.87 141.083 892.321 139.931C891.985 139.241 892.037 138.906 892.581 138.259C893.245 137.421 893.291 136.38 892.692 136.527C892.534 136.565 892.332 136.422 892.273 136.179C892.102 135.481 891.529 135.46 890.38 136.095C888.82 136.959 887.456 136.166 887.536 134.442C887.593 133.173 887.309 132.696 886.584 132.873C886.332 132.935 886.105 132.829 886.068 132.678C885.927 132.101 884.984 132.621 884.515 133.572C884.166 134.333 883.881 134.532 883.086 134.565C881.765 134.631 881.11 134.276 880.903 133.426C880.739 132.758 880.598 132.728 879.305 133.045C878.012 133.361 877.9 133.452 878.064 134.12ZM883.493 139.098C884.701 139.253 887.233 140.724 887.935 141.679C888.612 142.671 889.273 145.373 889.128 146.695C888.983 148.017 887.809 149.913 886.579 150.76C885.443 151.585 882.675 152.294 881.105 152.163C879.669 152.032 877.721 150.9 876.936 149.741C876.09 148.468 875.468 145.789 875.708 144.444C875.939 143.068 877.138 141.134 878.177 140.462C879.24 139.752 882.324 138.965 883.493 139.098Z" fill="#0076AC"/>
<path d="M879.94 144.117C879.155 145.145 879.688 147.46 880.818 148.117C881.948 148.773 884.337 148.157 884.927 147.015C885.534 145.805 884.989 143.848 883.873 143.252C882.719 142.633 880.725 143.089 879.94 144.117Z" fill="#0076AC"/>
<path d="M889.097 131.808C889 131.961 889.061 132.621 889.217 133.259L889.507 134.442L890.841 134.02C892.143 133.605 892.143 133.605 891.847 132.39C891.557 131.207 891.518 131.184 890.423 131.355C889.778 131.449 889.193 131.656 889.097 131.808Z" fill="#0076AC"/>
<path d="M894.888 98.1741L906.189 95.6115L907.138 95.8123L908.087 96.0131L909.036 96.2141L910.509 96.7197L911.658 97.7376L913.462 100.327L916.344 112.113L892.193 148.513L868.041 184.913L865.887 183.825L863.883 182.497L862.031 180.93L860.33 179.125L858.781 177.08L857.628 174.939L856.626 172.558L855.996 169.983L853.644 160.363L894.888 98.1741Z" fill="white" fill-opacity="0.29"/>
<g clip-path="url(#clip2_504_811)">
<path fill-rule="evenodd" clip-rule="evenodd" d="M422.437 138.357C421.778 136.549 419.222 136.549 418.563 138.357L415.574 146.575L407.357 149.564C405.548 150.222 405.548 152.779 407.357 153.437L415.574 156.426L418.563 164.644C419.222 166.452 421.778 166.452 422.437 164.644L425.426 156.426L433.643 153.437C435.452 152.779 435.452 150.222 433.643 149.564L425.426 146.575L422.437 138.357Z" fill="#FEE333"/>
</g>
<g clip-path="url(#clip3_504_811)">
<path fill-rule="evenodd" clip-rule="evenodd" d="M798.437 461.357C797.778 459.549 795.222 459.549 794.563 461.357L791.574 469.575L783.357 472.564C781.548 473.222 781.548 475.779 783.357 476.437L791.574 479.426L794.563 487.644C795.222 489.452 797.778 489.452 798.437 487.644L801.426 479.426L809.643 476.437C811.452 475.779 811.452 473.222 809.643 472.564L801.426 469.575L798.437 461.357Z" fill="#FEE333"/>
</g>
<rect x="869" y="397.677" width="25" height="25" rx="5" transform="rotate(-44.9977 869 397.677)" fill="#E10531" fill-opacity="0.5"/>
<rect x="405" y="470.142" width="20" height="20" rx="5" transform="rotate(-44.9977 405 470.142)" fill="#1CB0F6" fill-opacity="0.5"/>
<rect x="335" y="392.142" width="20" height="20" rx="5" transform="rotate(-44.9977 335 392.142)" fill="#7AD761" fill-opacity="0.5"/>
<rect x="742" y="137.677" width="25" height="25" rx="5" transform="rotate(-44.9977 742 137.677)" fill="#9D4EDD" fill-opacity="0.5"/>
<g filter="url(#filter0_d_504_811)">
<circle cx="611" cy="523" r="35" fill="#2A55C2"/>
</g>
<path d="M594.333 517.75L606.58 529.998C609.021 532.438 612.978 532.438 615.419 529.998L627.667 517.75" stroke="#F8F8FF" stroke-width="4" stroke-linecap="round" stroke-linejoin="round"/>
<g filter="url(#filter1_d_504_811)">
<circle cx="611" cy="523" r="35" fill="#2A55C2"/>
</g>
<path d="M594.333 517.75L606.58 529.998C609.021 532.438 612.978 532.438 615.419 529.998L627.667 517.75" stroke="#F8F8FF" stroke-width="4" stroke-linecap="round" stroke-linejoin="round"/>
<path d="M136.29 448.121C137.544 442.743 142.922 439.4 148.3 440.655L225.463 458.655C230.841 459.91 234.184 465.287 232.93 470.666L214.263 550.686C211.126 564.132 197.683 572.489 184.237 569.353L136.289 558.167C122.843 555.031 114.486 541.588 117.623 528.142L136.29 448.121Z" fill="#508D3F"/>
<path d="M136.29 448.121C137.544 442.743 142.922 439.4 148.3 440.655L225.463 458.655C230.841 459.91 234.184 465.287 232.93 470.666L221.485 519.726C215.26 546.412 188.579 562.999 161.893 556.774V556.774C135.206 550.549 118.619 523.868 124.845 497.182L136.29 448.121Z" fill="#46C4FF"/>
<path d="M136.29 448.121C137.544 442.743 142.922 439.4 148.3 440.655L225.463 458.655C230.841 459.91 234.184 465.287 232.93 470.666L215.665 544.674C212.654 557.582 199.749 565.605 186.84 562.594L136.945 550.954C124.037 547.943 116.014 535.038 119.025 522.129L136.29 448.121Z" fill="#7AD761"/>
<path d="M151.919 454.802C152.044 454.264 152.582 453.93 153.12 454.055L216.375 468.811C216.913 468.937 217.247 469.475 217.122 470.013L205.941 517.941C201.741 535.946 183.74 547.137 165.734 542.937V542.937C147.729 538.737 136.538 520.736 140.738 502.73L151.919 454.802Z" fill="#60AF4B"/>
<path d="M161.608 477.23C160.292 477.724 158.774 478.87 158.195 479.636C156.993 481.357 155.445 487.35 155.883 488.903C156.136 489.963 154.719 493.034 153.743 493.357C153.52 493.455 152.492 494.216 151.453 495.024C149.795 496.339 149.462 496.911 148.864 499.474C148.277 501.989 148.312 502.697 149.108 504.434C151.223 508.88 155.155 512.399 160.438 514.632C162.08 515.315 163.593 516.118 163.739 516.353C164.114 516.89 178.254 520.189 178.828 519.873C179.062 519.727 180.775 519.676 182.55 519.79C188.276 520.125 193.359 518.709 197.223 515.658C198.705 514.453 199.05 513.833 199.636 511.318C200.234 508.755 200.188 508.094 199.283 506.182C198.709 504.998 198.124 503.86 197.967 503.674C197.235 502.952 197.323 499.571 198.019 498.733C199.099 497.534 200.363 491.474 200.046 489.399C199.866 488.456 199.012 486.756 198.05 485.731C196.557 483.982 196.068 483.718 192.889 482.976C189.947 482.29 188.954 482.258 187.013 482.856C185.719 483.255 184.476 483.866 184.245 484.212C183.622 485.167 174.796 483.108 174.66 481.976C174.606 481.563 173.762 480.465 172.778 479.536C171.302 478.141 170.397 477.729 167.455 477.043C164.276 476.301 163.721 476.322 161.608 477.23ZM169.267 483.219C169.499 483.724 169.925 484.474 170.168 484.931C170.656 485.845 169.876 489.616 169.212 489.461C168.974 489.405 168.66 489.682 168.571 490.062C168.25 491.438 164.846 491.444 162.271 490.043C160.138 488.895 160.683 483.769 163.13 482.288C164.838 481.186 168.547 481.801 169.267 483.219ZM194.447 489.594C195.986 492.004 194.207 496.843 191.786 496.928C188.856 497.045 185.807 495.533 186.128 494.157C186.216 493.778 186.104 493.401 185.819 493.335C185.155 493.18 186.125 489.453 187.013 488.86C187.387 488.547 188.1 488.063 188.532 487.714C189.805 486.76 193.403 487.849 194.447 489.594ZM160.774 500.751C161.378 501.592 162.72 502.706 163.697 503.234C164.722 503.773 165.75 504.514 166.063 504.887C166.402 505.366 169.062 506.187 173.807 507.294C178.552 508.401 181.301 508.842 181.817 508.562C182.263 508.366 183.513 508.157 184.67 508.127C185.781 508.086 187.476 507.681 188.39 507.193C190.383 506.157 191.792 506.336 191.494 507.617C191.305 508.424 190.333 508.947 186.923 510.053C182.654 511.409 175.745 510.998 169.804 509.012C164.506 507.275 157.35 501.703 157.815 499.71C158.103 498.477 159.493 498.951 160.774 500.751Z" fill="#2B5121"/>
<path d="M163.53 485.933L163.032 488.068L165.058 488.391C167.274 488.758 167.856 488.193 167.854 485.841C167.838 484.837 167.55 484.569 165.937 484.193L164.039 483.75L163.53 485.933Z" fill="#2B5121"/>
<path d="M188.637 490.69C187.595 492.798 187.867 493.562 190.017 494.214L191.977 494.821L192.475 492.686L192.984 490.503L191.086 490.06C189.472 489.684 189.096 489.796 188.637 490.69Z" fill="#2B5121"/>
<path d="M211.681 455.154L228.246 459.019L230.146 459.462L231.712 460.114L232.672 460.91L233.297 461.915L233.921 462.92L234.147 464.404L229.016 486.4L176.681 517.427L124.345 548.455L122.408 545.712L120.806 542.762L119.539 539.603L118.606 536.235L118.009 532.66L117.954 529.211L118.235 525.554L119.091 521.884L122.289 508.175L211.681 455.154Z" fill="white" fill-opacity="0.29"/>
<defs>
<filter id="filter0_d_504_811" x="566" y="482" width="90" height="90" filterUnits="userSpaceOnUse" color-interpolation-filters="sRGB">
<feFlood flood-opacity="0" result="BackgroundImageFix"/>
<feColorMatrix in="SourceAlpha" type="matrix" values="0 0 0 0 0 0 0 0 0 0 0 0 0 0 0 0 0 0 127 0" result="hardAlpha"/>
<feOffset dy="4"/>
<feGaussianBlur stdDeviation="5"/>
<feComposite in2="hardAlpha" operator="out"/>
<feColorMatrix type="matrix" values="0 0 0 0 0 0 0 0 0 0 0 0 0 0 0 0 0 0 0.25 0"/>
<feBlend mode="normal" in2="BackgroundImageFix" result="effect1_dropShadow_504_811"/>
<feBlend mode="normal" in="SourceGraphic" in2="effect1_dropShadow_504_811" result="shape"/>
</filter>
<filter id="filter1_d_504_811" x="566" y="482" width="90" height="90" filterUnits="userSpaceOnUse" color-interpolation-filters="sRGB">
<feFlood flood-opacity="0" result="BackgroundImageFix"/>
<feColorMatrix in="SourceAlpha" type="matrix" values="0 0 0 0 0 0 0 0 0 0 0 0 0 0 0 0 0 0 127 0" result="hardAlpha"/>
<feOffset dy="4"/>
<feGaussianBlur stdDeviation="5"/>
<feComposite in2="hardAlpha" operator="out"/>
<feColorMatrix type="matrix" values="0 0 0 0 0 0 0 0 0 0 0 0 0 0 0 0 0 0 0.25 0"/>
<feBlend mode="normal" in2="BackgroundImageFix" result="effect1_dropShadow_504_811"/>
<feBlend mode="normal" in="SourceGraphic" in2="effect1_dropShadow_504_811" result="shape"/>
</filter>
<clipPath id="clip0_504_811">
<rect width="54.2308" height="54.2308" fill="white" transform="translate(1047.9 265.033) rotate(23.1015)"/>
</clipPath>
<clipPath id="clip1_504_811">
<rect width="54.725" height="54.725" fill="white" transform="translate(921.376 528.488) rotate(-20.408)"/>
</clipPath>
<clipPath id="clip2_504_811">
<rect width="29" height="29" fill="white" transform="translate(406 137)"/>
</clipPath>
<clipPath id="clip3_504_811">
<rect width="29" height="29" fill="white" transform="translate(782 460)"/>
</clipPath>
</defs>
</svg>
