<svg width="1002" height="550" viewBox="0 0 1002 550" fill="none" xmlns="http://www.w3.org/2000/svg">
<circle cx="727" cy="275" r="275" fill="#C6F0AC"/>
<g filter="url(#filter0_d_1719_1474)">
<path d="M21.5 192L0.5 129.3H20.9L29.2 159.6C29.6 161.133 30.1333 163.433 30.8 166.5C31.5333 169.5 32.3 173 33.1 177C33.9667 172.6 34.7 169 35.3 166.2C35.9 163.333 36.4 161.2 36.8 159.8L44.9 129.3H64.6L43.8 192H21.5ZM86.5836 129.3V192H68.0836V129.3H86.5836ZM118.353 169.2L106.653 166.7C101.52 165.567 97.9198 163.667 95.8531 161C93.8531 158.333 92.8531 154.567 92.8531 149.7C92.8531 142.367 94.7865 136.967 98.6531 133.5C102.52 130.033 108.62 128.3 116.953 128.3C120.553 128.3 123.786 128.467 126.653 128.8C129.52 129.067 131.986 129.5 134.053 130.1V146.6C129.32 145.8 125.853 145.333 123.653 145.2C121.453 145 119.186 144.9 116.853 144.9C114.653 144.9 113.053 145.2 112.053 145.8C111.12 146.4 110.653 147.4 110.653 148.8C110.653 149.533 110.82 150.1 111.153 150.5C111.553 150.9 112.22 151.2 113.153 151.4L124.053 153.8C127.453 154.533 129.986 155.333 131.653 156.2C133.32 157 134.653 158 135.653 159.2C136.786 160.533 137.586 162.233 138.053 164.3C138.586 166.367 138.853 168.867 138.853 171.8C138.853 179.267 136.853 184.7 132.853 188.1C128.853 191.433 122.686 193.1 114.353 193.1C110.086 193.1 105.953 192.867 101.953 192.4C98.0198 191.933 95.0865 191.333 93.1531 190.6V173.1C95.6865 173.9 98.8865 174.567 102.753 175.1C106.686 175.633 110.586 175.9 114.453 175.9C116.786 175.9 118.42 175.633 119.353 175.1C120.286 174.567 120.753 173.6 120.753 172.2C120.753 171.267 120.586 170.6 120.253 170.2C119.986 169.8 119.353 169.467 118.353 169.2ZM162.658 192H144.158V129.3H162.658V151.8H179.858V129.3H198.458V192H179.858V168.6H162.658V192Z" fill="#121212"/>
</g>
<g filter="url(#filter1_d_1719_1474)">
<path d="M7.776 303.27V304.572H3.646V307.442H6.866V308.744H3.646V313H2.05V303.27H7.776ZM8.72308 309.108C8.72308 308.333 8.88174 307.647 9.19908 307.05C9.52574 306.453 9.96441 305.991 10.5151 305.664C11.0751 305.328 11.6911 305.16 12.3631 305.16C12.9697 305.16 13.4971 305.281 13.9451 305.524C14.4024 305.757 14.7664 306.051 15.0371 306.406V305.286H16.6471V313H15.0371V311.852C14.7664 312.216 14.3977 312.519 13.9311 312.762C13.4644 313.005 12.9324 313.126 12.3351 313.126C11.6724 313.126 11.0657 312.958 10.5151 312.622C9.96441 312.277 9.52574 311.801 9.19908 311.194C8.88174 310.578 8.72308 309.883 8.72308 309.108ZM15.0371 309.136C15.0371 308.604 14.9251 308.142 14.7011 307.75C14.4864 307.358 14.2017 307.059 13.8471 306.854C13.4924 306.649 13.1097 306.546 12.6991 306.546C12.2884 306.546 11.9057 306.649 11.5511 306.854C11.1964 307.05 10.9071 307.344 10.6831 307.736C10.4684 308.119 10.3611 308.576 10.3611 309.108C10.3611 309.64 10.4684 310.107 10.6831 310.508C10.9071 310.909 11.1964 311.217 11.5511 311.432C11.9151 311.637 12.2977 311.74 12.6991 311.74C13.1097 311.74 13.4924 311.637 13.8471 311.432C14.2017 311.227 14.4864 310.928 14.7011 310.536C14.9251 310.135 15.0371 309.668 15.0371 309.136ZM20.1574 311.698H23.6574V313H18.3094V311.698L21.8234 306.588H18.3094V305.286H23.6574V306.588L20.1574 311.698ZM32.4032 308.954C32.4032 309.243 32.3845 309.505 32.3472 309.738H26.4532C26.4999 310.354 26.7285 310.849 27.1392 311.222C27.5499 311.595 28.0539 311.782 28.6512 311.782C29.5099 311.782 30.1165 311.423 30.4712 310.704H32.1932C31.9599 311.413 31.5352 311.997 30.9192 312.454C30.3125 312.902 29.5565 313.126 28.6512 313.126C27.9139 313.126 27.2512 312.963 26.6632 312.636C26.0845 312.3 25.6272 311.833 25.2912 311.236C24.9645 310.629 24.8012 309.929 24.8012 309.136C24.8012 308.343 24.9599 307.647 25.2772 307.05C25.6039 306.443 26.0565 305.977 26.6352 305.65C27.2232 305.323 27.8952 305.16 28.6512 305.16C29.3792 305.16 30.0279 305.319 30.5972 305.636C31.1665 305.953 31.6099 306.401 31.9272 306.98C32.2445 307.549 32.4032 308.207 32.4032 308.954ZM30.7372 308.45C30.7279 307.862 30.5179 307.391 30.1072 307.036C29.6965 306.681 29.1879 306.504 28.5812 306.504C28.0305 306.504 27.5592 306.681 27.1672 307.036C26.7752 307.381 26.5419 307.853 26.4672 308.45H30.7372ZM37.8658 305.16C38.4725 305.16 39.0138 305.286 39.4898 305.538C39.9752 305.79 40.3532 306.163 40.6238 306.658C40.8945 307.153 41.0298 307.75 41.0298 308.45V313H39.4478V308.688C39.4478 307.997 39.2752 307.47 38.9298 307.106C38.5845 306.733 38.1132 306.546 37.5158 306.546C36.9185 306.546 36.4425 306.733 36.0878 307.106C35.7425 307.47 35.5698 307.997 35.5698 308.688V313H33.9738V305.286H35.5698V306.168C35.8312 305.851 36.1625 305.603 36.5638 305.426C36.9745 305.249 37.4085 305.16 37.8658 305.16ZM46.4116 313.126C45.6836 313.126 45.0256 312.963 44.4376 312.636C43.8496 312.3 43.3876 311.833 43.0516 311.236C42.7156 310.629 42.5476 309.929 42.5476 309.136C42.5476 308.352 42.7203 307.657 43.0656 307.05C43.411 306.443 43.8823 305.977 44.4796 305.65C45.077 305.323 45.7443 305.16 46.4816 305.16C47.219 305.16 47.8863 305.323 48.4836 305.65C49.081 305.977 49.5523 306.443 49.8976 307.05C50.243 307.657 50.4156 308.352 50.4156 309.136C50.4156 309.92 50.2383 310.615 49.8836 311.222C49.529 311.829 49.0436 312.3 48.4276 312.636C47.821 312.963 47.149 313.126 46.4116 313.126ZM46.4116 311.74C46.8223 311.74 47.205 311.642 47.5596 311.446C47.9236 311.25 48.2176 310.956 48.4416 310.564C48.6656 310.172 48.7776 309.696 48.7776 309.136C48.7776 308.576 48.6703 308.105 48.4556 307.722C48.241 307.33 47.9563 307.036 47.6016 306.84C47.247 306.644 46.8643 306.546 46.4536 306.546C46.043 306.546 45.6603 306.644 45.3056 306.84C44.9603 307.036 44.685 307.33 44.4796 307.722C44.2743 308.105 44.1716 308.576 44.1716 309.136C44.1716 309.967 44.3816 310.611 44.8016 311.068C45.231 311.516 45.7676 311.74 46.4116 311.74Z" fill="#121212"/>
</g>
<rect x="30" y="400" width="250" height="40" rx="20" fill="#499136"/>
<rect x="30" y="393" width="250" height="40" rx="20" fill="#7AD761"/>
<path d="M99.4312 417.414C100.018 417.414 100.649 417.355 101.323 417.238C102.013 417.121 102.621 416.967 103.149 416.776V420.384C102.343 420.707 101.609 420.927 100.949 421.044C100.304 421.176 99.6219 421.242 98.9032 421.242C97.5832 421.242 96.5345 421.103 95.7572 420.824C94.9945 420.531 94.3859 420.069 93.9312 419.438C93.5499 418.881 93.2639 418.162 93.0732 417.282C92.8825 416.402 92.7872 415.339 92.7872 414.092C92.7872 411.643 93.3299 409.846 94.4152 408.702C95.5005 407.558 97.2312 406.986 99.6072 406.986C100.282 406.986 100.883 407.001 101.411 407.03C101.939 407.059 102.416 407.111 102.841 407.184V410.77C102.372 410.741 101.881 410.719 101.367 410.704C100.854 410.689 100.282 410.682 99.6512 410.682C98.5805 410.682 97.8765 410.924 97.5392 411.408C97.2019 411.877 97.0332 412.772 97.0332 414.092C97.0332 415.339 97.1872 416.204 97.4952 416.688C97.8179 417.172 98.4632 417.414 99.4312 417.414ZM107.546 421H103.344L108.294 407.206H112.54L117.336 421H113.156L112.584 419.086H108.096L107.546 421ZM110.318 411.298C110.171 411.87 110.01 412.464 109.834 413.08C109.672 413.681 109.518 414.224 109.372 414.708L109.02 415.918H111.66L111.308 414.708C110.648 412.435 110.318 411.298 110.318 411.298ZM123.297 421H118.127V407.206H123.297C124.675 407.206 125.783 407.323 126.619 407.558C127.455 407.793 128.122 408.174 128.621 408.702C129.119 409.23 129.486 409.934 129.721 410.814C129.955 411.679 130.073 412.772 130.073 414.092C130.073 416.483 129.537 418.235 128.467 419.35C127.396 420.45 125.673 421 123.297 421ZM125.849 414.092C125.849 412.801 125.687 411.936 125.365 411.496C125.057 411.041 124.367 410.814 123.297 410.814H122.197V417.282H123.297C124.367 417.282 125.057 417.062 125.365 416.622C125.687 416.182 125.849 415.339 125.849 414.092ZM133.864 421H129.662L134.612 407.206H138.858L143.654 421H139.474L138.902 419.086H134.414L133.864 421ZM136.636 411.298C136.489 411.87 136.328 412.464 136.152 413.08C135.991 413.681 135.837 414.224 135.69 414.708L135.338 415.918H137.978L137.626 414.708C136.966 412.435 136.636 411.298 136.636 411.298ZM149.617 415.984L147.043 415.434C145.914 415.185 145.122 414.767 144.667 414.18C144.227 413.593 144.007 412.765 144.007 411.694C144.007 410.081 144.433 408.893 145.283 408.13C146.134 407.367 147.476 406.986 149.309 406.986C150.101 406.986 150.813 407.023 151.443 407.096C152.074 407.155 152.617 407.25 153.071 407.382V411.012C152.03 410.836 151.267 410.733 150.783 410.704C150.299 410.66 149.801 410.638 149.287 410.638C148.803 410.638 148.451 410.704 148.231 410.836C148.026 410.968 147.923 411.188 147.923 411.496C147.923 411.657 147.96 411.782 148.033 411.87C148.121 411.958 148.268 412.024 148.473 412.068L150.871 412.596C151.619 412.757 152.177 412.933 152.543 413.124C152.91 413.3 153.203 413.52 153.423 413.784C153.673 414.077 153.849 414.451 153.951 414.906C154.069 415.361 154.127 415.911 154.127 416.556C154.127 418.199 153.687 419.394 152.807 420.142C151.927 420.875 150.571 421.242 148.737 421.242C147.799 421.242 146.889 421.191 146.009 421.088C145.144 420.985 144.499 420.853 144.073 420.692V416.842C144.631 417.018 145.335 417.165 146.185 417.282C147.051 417.399 147.909 417.458 148.759 417.458C149.273 417.458 149.632 417.399 149.837 417.282C150.043 417.165 150.145 416.952 150.145 416.644C150.145 416.439 150.109 416.292 150.035 416.204C149.977 416.116 149.837 416.043 149.617 415.984ZM165.096 407.206V410.902H161.708V421H157.616V410.902H154.206V407.206H165.096ZM170.279 416.688V421H166.209V407.206H171.379C173.593 407.206 175.155 407.58 176.065 408.328C176.989 409.061 177.451 410.301 177.451 412.046C177.451 413.087 177.245 413.945 176.835 414.62C176.439 415.295 175.83 415.801 175.009 416.138L178.023 421H173.359L171.049 416.688H170.279ZM173.293 412.112C173.293 411.657 173.168 411.335 172.919 411.144C172.669 410.953 172.222 410.858 171.577 410.858H170.279V413.564H171.577C172.222 413.564 172.669 413.454 172.919 413.234C173.168 413.014 173.293 412.64 173.293 412.112ZM188.585 417.326V421H178.949V407.206H188.387V410.792H183.019V412.354H187.573V415.698H183.019V417.326H188.585ZM196.273 412.508V415.478H189.255V412.508H196.273ZM202.877 415.984L200.303 415.434C199.174 415.185 198.382 414.767 197.927 414.18C197.487 413.593 197.267 412.765 197.267 411.694C197.267 410.081 197.693 408.893 198.543 408.13C199.394 407.367 200.736 406.986 202.569 406.986C203.361 406.986 204.073 407.023 204.703 407.096C205.334 407.155 205.877 407.25 206.331 407.382V411.012C205.29 410.836 204.527 410.733 204.043 410.704C203.559 410.66 203.061 410.638 202.547 410.638C202.063 410.638 201.711 410.704 201.491 410.836C201.286 410.968 201.183 411.188 201.183 411.496C201.183 411.657 201.22 411.782 201.293 411.87C201.381 411.958 201.528 412.024 201.733 412.068L204.131 412.596C204.879 412.757 205.437 412.933 205.803 413.124C206.17 413.3 206.463 413.52 206.683 413.784C206.933 414.077 207.109 414.451 207.211 414.906C207.329 415.361 207.387 415.911 207.387 416.556C207.387 418.199 206.947 419.394 206.067 420.142C205.187 420.875 203.831 421.242 201.997 421.242C201.059 421.242 200.149 421.191 199.269 421.088C198.404 420.985 197.759 420.853 197.333 420.692V416.842C197.891 417.018 198.595 417.165 199.445 417.282C200.311 417.399 201.169 417.458 202.019 417.458C202.533 417.458 202.892 417.399 203.097 417.282C203.303 417.165 203.405 416.952 203.405 416.644C203.405 416.439 203.369 416.292 203.295 416.204C203.237 416.116 203.097 416.043 202.877 415.984ZM218.19 417.326V421H208.554V407.206H217.992V410.792H212.624V412.354H217.178V415.698H212.624V417.326H218.19Z" fill="#F8F8FF"/>
<rect x="30" y="462" width="250" height="40" rx="20" fill="#0076AC"/>
<rect x="30" y="456" width="250" height="40" rx="20" fill="#46C4FF"/>
<path d="M82.3056 478.5V470.206H86.3756V478.808C86.3756 480.759 85.9502 482.152 85.0996 482.988C84.2489 483.824 82.8116 484.242 80.7876 484.242C80.3476 484.242 79.9296 484.227 79.5336 484.198C79.1522 484.169 78.7489 484.11 78.3236 484.022V480.282C78.5582 480.326 78.8222 480.363 79.1156 480.392C79.4089 480.407 79.7609 480.414 80.1716 480.414C81.0369 480.414 81.6089 480.289 81.8876 480.04C82.1662 479.776 82.3056 479.263 82.3056 478.5ZM90.6374 484H86.4354L91.3854 470.206H95.6314L100.427 484H96.2474L95.6754 482.086H91.1874L90.6374 484ZM93.4094 474.298C93.2627 474.87 93.1014 475.464 92.9254 476.08C92.764 476.681 92.61 477.224 92.4634 477.708L92.1114 478.918H94.7514L94.3994 477.708C93.7394 475.435 93.4094 474.298 93.4094 474.298ZM93.4534 466.73H97.5454L94.1794 469.502H91.1654L93.4534 466.73ZM114.243 470.206V473.902H110.855V484H106.763V473.902H103.353V470.206H114.243ZM124.991 480.326V484H115.355V470.206H124.793V473.792H119.425V475.354H123.979V478.698H119.425V480.326H124.991ZM138.566 470.206V484H134.716L130.14 477.158V484H126.334V470.206H130.14L134.76 477.422V470.206H138.566ZM144.347 484H140.277V470.206H144.347V475.156H148.131V470.206H152.223V484H148.131V478.852H144.347V484ZM166.811 477.092C166.811 479.615 166.283 481.441 165.227 482.57C164.186 483.685 162.499 484.242 160.167 484.242C157.747 484.242 156.038 483.707 155.041 482.636C154.044 481.565 153.545 479.717 153.545 477.092C153.545 474.599 154.066 472.795 155.107 471.68C156.163 470.551 157.85 469.986 160.167 469.986C162.587 469.986 164.296 470.521 165.293 471.592C166.305 472.648 166.811 474.481 166.811 477.092ZM157.681 477.092C157.681 478.397 157.835 479.277 158.143 479.732C158.466 480.187 159.14 480.414 160.167 480.414C161.208 480.414 161.883 480.194 162.191 479.754C162.514 479.299 162.675 478.412 162.675 477.092C162.675 475.743 162.514 474.841 162.191 474.386C161.868 473.917 161.194 473.682 160.167 473.682C159.14 473.682 158.466 473.917 158.143 474.386C157.835 474.841 157.681 475.743 157.681 477.092ZM177.398 480.414C177.985 480.414 178.615 480.355 179.29 480.238C179.979 480.121 180.588 479.967 181.116 479.776V483.384C180.309 483.707 179.576 483.927 178.916 484.044C178.271 484.176 177.589 484.242 176.87 484.242C175.55 484.242 174.501 484.103 173.724 483.824C172.961 483.531 172.353 483.069 171.898 482.438C171.517 481.881 171.231 481.162 171.04 480.282C170.849 479.402 170.754 478.339 170.754 477.092C170.754 474.643 171.297 472.846 172.382 471.702C173.467 470.558 175.198 469.986 177.574 469.986C178.249 469.986 178.85 470.001 179.378 470.03C179.906 470.059 180.383 470.111 180.808 470.184V473.77C180.339 473.741 179.847 473.719 179.334 473.704C178.821 473.689 178.249 473.682 177.618 473.682C176.547 473.682 175.843 473.924 175.506 474.408C175.169 474.877 175 475.772 175 477.092C175 478.339 175.154 479.204 175.462 479.688C175.785 480.172 176.43 480.414 177.398 480.414ZM195.127 477.092C195.127 479.615 194.599 481.441 193.543 482.57C192.502 483.685 190.815 484.242 188.483 484.242C186.063 484.242 184.355 483.707 183.357 482.636C182.36 481.565 181.861 479.717 181.861 477.092C181.861 474.599 182.382 472.795 183.423 471.68C184.479 470.551 186.166 469.986 188.483 469.986C190.903 469.986 192.612 470.521 193.609 471.592C194.621 472.648 195.127 474.481 195.127 477.092ZM185.997 477.092C185.997 478.397 186.151 479.277 186.459 479.732C186.782 480.187 187.457 480.414 188.483 480.414C189.525 480.414 190.199 480.194 190.507 479.754C190.83 479.299 190.991 478.412 190.991 477.092C190.991 475.743 190.83 474.841 190.507 474.386C190.185 473.917 189.51 473.682 188.483 473.682C187.457 473.682 186.782 473.917 186.459 474.386C186.151 474.841 185.997 475.743 185.997 477.092ZM208.669 470.206V484H204.819L200.243 477.158V484H196.437V470.206H200.243L204.863 477.422V470.206H208.669ZM220.676 470.206V473.902H217.288V484H213.196V473.902H209.786V470.206H220.676ZM223.217 484H219.015L223.965 470.206H228.211L233.007 484H228.827L228.255 482.086H223.767L223.217 484ZM225.989 474.298C225.843 474.87 225.681 475.464 225.505 476.08C225.344 476.681 225.19 477.224 225.043 477.708L224.691 478.918H227.331L226.979 477.708C226.319 475.435 225.989 474.298 225.989 474.298Z" fill="#F8F8FF"/>
<g clip-path="url(#clip0_1719_1474)">
<mask id="mask0_1719_1474" style="mask-type:luminance" maskUnits="userSpaceOnUse" x="598" y="134" width="257" height="331">
<path d="M854.448 134.34H598.1V464.511H854.448V134.34Z" fill="white"/>
</mask>
<g mask="url(#mask0_1719_1474)">
<path d="M817.58 395.533C838.283 356.793 814.442 289 800.639 258.562H813.815C830.432 279.817 839.101 293.785 850.831 330.506C853.572 339.088 857.732 365.786 848.949 383.081C841.923 396.916 825.108 397.147 817.58 395.533Z" fill="#499136"/>
<path d="M633.958 395.499C613.714 354.87 637.026 283.77 650.522 251.847H637.639C621.391 274.139 612.914 288.79 601.445 327.301C598.764 336.302 594.697 364.302 603.285 382.44C610.156 396.95 626.597 397.192 633.958 395.499Z" fill="#499136"/>
<path d="M800.287 416.128C847.161 390.864 821.523 296.317 802.665 251.847H725.414H648.757C629.708 296.784 603.804 391.961 651.086 416.138C651.829 416.518 652.323 417.247 652.323 418.042V456.068C652.323 460.713 656.333 464.48 661.278 464.48H676.969C684.244 464.48 691.494 461.304 694.037 454.901C695.852 450.327 696.771 445.429 697.367 439.426C697.492 438.17 698.741 437.28 700.057 437.527L702.674 438.018C717.011 440.711 731.772 440.741 746.122 438.104L749.329 437.514C750.641 437.273 751.881 438.16 752.03 439.409C752.743 445.382 754.206 450.479 756.902 455.566C760.046 461.502 767.007 464.48 774.066 464.48H790.144C795.09 464.48 799.1 460.713 799.1 456.068V418.008C799.1 417.232 799.571 416.515 800.287 416.128Z" fill="#61D243"/>
<path d="M725.58 442.098C771.64 442.098 808.979 400.261 808.979 348.652C808.979 297.043 771.64 255.205 725.58 255.205C679.521 255.205 642.182 297.043 642.182 348.652C642.182 400.261 679.521 442.098 725.58 442.098Z" fill="#ABF47D"/>
<g filter="url(#filter2_d_1719_1474)">
<path fill-rule="evenodd" clip-rule="evenodd" d="M623.066 189.142C623.066 192.43 623.81 195.602 625.191 198.589C615.529 205.546 610.014 214.016 610.014 223.85C610.014 252.124 662.608 280.25 727.487 280.25C792.366 280.25 842.349 253.86 842.349 225.585C843.192 215.79 838.29 207.168 829.086 199.981C830.912 196.595 831.907 192.946 831.907 189.142C831.907 171.411 810.285 157.037 783.613 157.037C763.786 157.037 746.748 164.98 739.309 176.341C735.422 176.199 731.478 176.126 727.487 176.126C723.492 176.126 719.544 176.192 715.652 176.323C708.207 164.972 691.178 157.037 671.361 157.037C644.689 157.037 623.066 171.411 623.066 189.142Z" fill="#61D243"/>
</g>
<path d="M787.666 203.471C795.706 203.391 800.048 203.829 807.29 205.546C807.462 205.587 807.749 205.474 807.87 205.376C820.206 195.426 823.139 178.325 809.194 169.611C808.227 169.007 807.19 168.455 806.082 167.951C793.456 162.208 776.081 162.066 763.377 167.727C762.888 167.945 762.414 168.172 761.955 168.409C745.764 176.766 748.257 196.703 762.931 206.444C763.035 206.514 763.222 206.562 763.358 206.533C773.889 204.248 779.224 203.596 787.666 203.471Z" fill="white"/>
<path d="M667.853 202.148C659.657 202.041 655.227 202.445 647.83 204.064C647.654 204.103 647.362 203.994 647.239 203.899C634.748 194.308 631.904 177.89 646.197 169.584C647.188 169.008 648.249 168.483 649.383 168.004C662.305 162.542 680.019 162.472 692.922 167.951C693.419 168.162 693.9 168.382 694.365 168.61C710.801 176.688 708.087 195.806 693.044 205.094C692.937 205.161 692.746 205.207 692.608 205.178C681.891 202.946 676.458 202.3 667.853 202.148Z" fill="white"/>
<path fill-rule="evenodd" clip-rule="evenodd" d="M782.034 201.351C793.791 201.351 803.321 194.819 803.321 186.76C803.321 183.236 801.499 180.004 798.464 177.482C799.465 178.537 800.046 179.796 800.046 181.148C800.046 184.867 795.648 187.882 790.222 187.882C784.795 187.882 780.397 184.867 780.397 181.148C780.397 177.429 784.795 174.414 790.222 174.414C792.195 174.414 794.03 174.812 795.569 175.498C791.891 173.418 787.175 172.169 782.034 172.169C770.278 172.169 760.748 178.701 760.748 186.76C760.748 194.819 770.278 201.351 782.034 201.351Z" fill="black" fill-opacity="0.8"/>
<path fill-rule="evenodd" clip-rule="evenodd" d="M675.025 200.27C686.781 200.27 696.312 194.788 696.312 186.74C696.312 183.221 694.489 179.993 691.455 177.475C692.456 178.528 693.037 179.785 693.037 181.136C693.037 184.85 688.638 187.86 683.212 187.86C677.787 187.86 673.388 184.85 673.388 181.136C673.388 177.421 677.787 174.41 683.212 174.41C685.185 174.41 687.021 174.808 688.561 175.493C684.882 173.416 680.166 172.169 675.025 172.169C663.269 172.169 653.738 178.693 653.738 186.74C653.738 194.788 663.269 200.27 675.025 200.27Z" fill="black" fill-opacity="0.8"/>
<g filter="url(#filter3_d_1719_1474)">
<path d="M811.616 218.644C782.809 221.88 755.412 224.93 726.923 218.644C702.046 222.625 660.089 222.269 644.533 218.644C646.696 299.594 806.458 303.451 812.496 222.592C812.593 221.294 812.496 219.937 811.616 218.644Z" fill="#ABF47D"/>
</g>
<path d="M631.882 161.181C636.758 146.832 642.982 142.634 662.382 134.542C663.048 134.264 663.907 134.274 664.562 134.564L665.001 134.758C689.107 145.407 696.78 148.797 696.29 156.436C696.283 156.545 696.051 156.568 695.942 156.489C680.141 145.112 652.466 147.822 636.012 158.75C634.8 159.555 633.545 160.41 632.233 161.318C632.085 161.421 631.834 161.322 631.882 161.181Z" fill="#333333"/>
<path d="M821.726 161.181C817.111 146.832 811.22 142.634 792.859 134.542C792.229 134.264 791.416 134.274 790.796 134.564L790.381 134.758C767.566 145.407 760.304 148.797 760.768 156.436C760.774 156.545 760.994 156.568 761.097 156.489C776.053 145.112 802.245 147.822 817.817 158.75C818.964 159.555 820.151 160.41 821.393 161.318C821.534 161.421 821.771 161.322 821.726 161.181Z" fill="#333333"/>
<path d="M826.539 365.997C825.178 378.116 823.46 384.222 818.511 395.879C832.664 397.57 845.531 393.06 850.678 377.837C836.561 379.291 833.479 375.339 826.539 365.997Z" fill="#417932" stroke="#417932" stroke-width="0.4"/>
<path d="M787.356 457.265C787.356 455.72 788.689 454.467 790.333 454.467C791.979 454.467 793.312 455.72 793.312 457.265V463.772C791.462 464.5 790.124 464.646 787.356 464.539V457.265Z" fill="#499136"/>
<path d="M775.442 457.265C775.442 455.72 776.775 454.467 778.42 454.467C780.065 454.467 781.399 455.72 781.399 457.265V464.539H775.442V457.265Z" fill="#499136"/>
<path d="M663.449 457.265C663.449 455.72 662.116 454.467 660.471 454.467C658.826 454.467 657.492 455.72 657.492 457.265V463.654C659.342 464.381 660.68 464.648 663.449 464.541V457.265Z" fill="#499136"/>
<path d="M675.363 457.265C675.363 455.72 674.03 454.467 672.385 454.467C670.739 454.467 669.406 455.72 669.406 457.265V464.539H675.363V457.265Z" fill="#499136"/>
<path d="M763.527 457.265C763.527 455.72 764.861 454.467 766.506 454.467C768.152 454.467 769.484 455.72 769.484 457.265V464.048C767.105 463.546 765.788 463.074 763.527 461.976V457.265Z" fill="#499136"/>
<path d="M687.277 457.265C687.277 455.72 685.944 454.467 684.299 454.467C682.654 454.467 681.32 455.72 681.32 457.265V463.98C683.7 463.478 685.017 462.966 687.277 461.868V457.265Z" fill="#499136"/>
<path d="M800.044 390.618C787.534 416.358 770.258 439.299 724.683 442.098C687.455 440.419 664.222 418.036 651.117 390.618C710.146 436.282 741.627 435.898 800.044 390.618Z" fill="#9EE075"/>
<path d="M763.706 456.646V461.682C759.508 459.789 757.628 457.48 755.365 452.17C753.413 447.029 752.619 444.115 751.791 438.74C751.454 438.101 751.187 437.862 750.6 437.621C786.162 421.655 798.979 404.067 808.384 361.521C820.643 361.945 823.787 356.326 826.255 341.377C828.141 367.256 826.358 379.054 819.107 396.214C813.945 405.284 810.564 410.032 800.639 415.798C799.531 416.523 799.138 417.134 798.852 418.597V440.979C787.787 448.473 781.142 452.009 766.684 454.407C765.104 454.544 764.458 455.003 763.706 456.646Z" fill="#5EBE45" stroke="#5EBE45" stroke-width="0.4"/>
<path d="M687.562 456.646V461.682C691.759 459.789 693.64 457.48 695.902 452.17C697.855 447.029 698.649 444.115 699.477 438.74C699.814 438.101 700.081 437.862 700.668 437.621C665.104 421.655 652.287 404.067 642.882 361.521C630.622 361.945 627.478 356.326 625.01 341.377C623.123 367.256 624.907 379.054 632.159 396.214C637.321 405.284 640.701 410.032 650.626 415.798C651.735 416.523 652.128 417.134 652.414 418.597V440.979C663.479 448.473 670.124 452.009 684.583 454.407C686.163 454.544 686.808 455.003 687.562 456.646Z" fill="#5EBE45" stroke="#5EBE45" stroke-width="0.4"/>
<path d="M624.025 365.997C625.285 378.025 626.876 384.084 631.459 395.654C618.353 397.333 606.439 392.857 601.674 377.748C614.745 379.191 617.6 375.268 624.025 365.997Z" fill="#417932" stroke="#417932" stroke-width="0.4"/>
<path d="M793.491 381.665C794.806 381.665 795.873 380.663 795.873 379.427C795.873 378.191 794.806 377.189 793.491 377.189C792.175 377.189 791.108 378.191 791.108 379.427C791.108 380.663 792.175 381.665 793.491 381.665Z" fill="#9EE075"/>
<path d="M654.096 381.665C655.412 381.665 656.478 380.663 656.478 379.427C656.478 378.191 655.412 377.189 654.096 377.189C652.78 377.189 651.713 378.191 651.713 379.427C651.713 380.663 652.78 381.665 654.096 381.665Z" fill="#9EE075"/>
<path d="M781.576 390.618C782.892 390.618 783.959 389.616 783.959 388.379C783.959 387.143 782.892 386.141 781.576 386.141C780.26 386.141 779.193 387.143 779.193 388.379C779.193 389.616 780.26 390.618 781.576 390.618Z" fill="#9EE075"/>
<path d="M664.818 390.618C666.134 390.618 667.201 389.616 667.201 388.379C667.201 387.143 666.134 386.141 664.818 386.141C663.502 386.141 662.436 387.143 662.436 388.379C662.436 389.616 663.502 390.618 664.818 390.618Z" fill="#9EE075"/>
<path d="M779.193 379.427C780.509 379.427 781.576 378.424 781.576 377.188C781.576 375.952 780.509 374.95 779.193 374.95C777.877 374.95 776.811 375.952 776.811 377.188C776.811 378.424 777.877 379.427 779.193 379.427Z" fill="#9EE075"/>
<path d="M835.19 232.822C836.506 232.822 837.573 231.82 837.573 230.584C837.573 229.348 836.506 228.346 835.19 228.346C833.874 228.346 832.808 229.348 832.808 230.584C832.808 231.82 833.874 232.822 835.19 232.822Z" fill="#499136"/>
<path d="M823.276 241.776C824.592 241.776 825.659 240.774 825.659 239.538C825.659 238.301 824.592 237.299 823.276 237.299C821.96 237.299 820.894 238.301 820.894 239.538C820.894 240.774 821.96 241.776 823.276 241.776Z" fill="#499136"/>
<path d="M820.893 230.584C822.209 230.584 823.276 229.582 823.276 228.346C823.276 227.11 822.209 226.107 820.893 226.107C819.577 226.107 818.51 227.11 818.51 228.346C818.51 229.582 819.577 230.584 820.893 230.584Z" fill="#499136"/>
<path d="M639.799 232.822C641.115 232.822 642.182 231.82 642.182 230.584C642.182 229.348 641.115 228.346 639.799 228.346C638.483 228.346 637.416 229.348 637.416 230.584C637.416 231.82 638.483 232.822 639.799 232.822Z" fill="#499136"/>
<path d="M627.885 241.776C629.201 241.776 630.268 240.774 630.268 239.538C630.268 238.301 629.201 237.299 627.885 237.299C626.569 237.299 625.502 238.301 625.502 239.538C625.502 240.774 626.569 241.776 627.885 241.776Z" fill="#499136"/>
<path d="M625.502 230.584C626.818 230.584 627.885 229.582 627.885 228.346C627.885 227.11 626.818 226.107 625.502 226.107C624.186 226.107 623.119 227.11 623.119 228.346C623.119 229.582 624.186 230.584 625.502 230.584Z" fill="#499136"/>
<path d="M664.818 380.546C666.134 380.546 667.201 379.544 667.201 378.308C667.201 377.072 666.134 376.07 664.818 376.07C663.502 376.07 662.436 377.072 662.436 378.308C662.436 379.544 663.502 380.546 664.818 380.546Z" fill="#9EE075"/>
<path d="M821.732 214.321C809.766 220.914 791.993 221.875 775.379 221.874C761.042 221.873 748.635 221.132 732.41 219.318C728.831 218.918 725.15 218.856 721.54 219.155C700.376 220.907 688.144 222.018 664.358 221.874C650.945 221.053 643.795 218.675 635.328 214.321" stroke="#499036" stroke-width="5" stroke-linecap="round"/>
</g>
</g>
<path d="M843.053 235.587C835.507 219.476 834.363 215.734 823.337 191.584C820.206 177.27 838.455 169.941 855.535 174.738C872.615 179.535 879.019 193.92 873.663 212.991C868.307 232.062 848.814 243.891 843.053 235.587Z" fill="#2A55C2"/>
<path d="M615.558 235.586C621.394 218.78 622.144 214.94 630.608 189.777C632.239 175.215 613.329 169.817 596.838 176.358C580.347 182.899 575.468 197.87 582.771 216.283C590.075 234.696 610.688 244.442 615.558 235.586Z" fill="#2A55C2"/>
<path d="M855.581 186.595C814.38 60.9218 650.514 45.5594 598.336 182.985C596.312 188.318 597.676 186.595 607.184 186.595C659.566 66.072 794.835 72.9389 846.205 186.595L855.581 186.595Z" fill="#2A55C2"/>
<path d="M752.093 252.828C780.896 281.993 846.371 267.703 849.345 222.128C849.462 220.337 850.214 220.999 846.968 222.216C842.066 263.534 784.133 278.385 754.353 252.325L752.093 252.828Z" fill="#2A55C2"/>
<path d="M752.314 262.498C748.174 260.381 746.535 255.309 748.652 251.17V251.17C750.769 247.031 755.84 245.391 759.979 247.508L771.311 253.304C774.303 254.834 775.488 258.5 773.958 261.492L771.833 265.646C770.303 268.638 766.637 269.823 763.645 268.293L752.314 262.498Z" fill="#2A55C2"/>
<path d="M770.731 252.989C774.028 254.535 775.447 258.462 773.901 261.759L772.352 265.061C770.806 268.358 766.879 269.778 763.582 268.232V268.232C762.633 267.787 762.225 266.657 762.67 265.708L768.207 253.901C768.652 252.952 769.782 252.544 770.731 252.989V252.989Z" fill="#02216E"/>
<path d="M600.664 219.323C604.087 209.463 604.528 207.21 609.493 192.448C610.45 183.905 599.356 180.738 589.681 184.575C580.006 188.413 577.144 197.196 581.428 207.999C585.713 218.801 597.807 224.519 600.664 219.323Z" fill="#02216F"/>
<path d="M857.238 219.622C852.811 210.17 852.14 207.974 845.671 193.806C843.834 185.408 854.54 181.108 864.561 183.923C874.582 186.737 878.339 195.176 875.197 206.365C872.054 217.553 860.618 224.494 857.238 219.622Z" fill="#02216E"/>
<defs>
<filter id="filter0_d_1719_1474" x="0.5" y="128.3" width="205.958" height="72.8" filterUnits="userSpaceOnUse" color-interpolation-filters="sRGB">
<feFlood flood-opacity="0" result="BackgroundImageFix"/>
<feColorMatrix in="SourceAlpha" type="matrix" values="0 0 0 0 0 0 0 0 0 0 0 0 0 0 0 0 0 0 127 0" result="hardAlpha"/>
<feOffset dx="4" dy="4"/>
<feGaussianBlur stdDeviation="2"/>
<feComposite in2="hardAlpha" operator="out"/>
<feColorMatrix type="matrix" values="0 0 0 0 0 0 0 0 0 0 0 0 0 0 0 0 0 0 0.08 0"/>
<feBlend mode="normal" in2="BackgroundImageFix" result="effect1_dropShadow_1719_1474"/>
<feBlend mode="normal" in="SourceGraphic" in2="effect1_dropShadow_1719_1474" result="shape"/>
</filter>
<filter id="filter1_d_1719_1474" x="2.0498" y="303.27" width="56.3657" height="17.856" filterUnits="userSpaceOnUse" color-interpolation-filters="sRGB">
<feFlood flood-opacity="0" result="BackgroundImageFix"/>
<feColorMatrix in="SourceAlpha" type="matrix" values="0 0 0 0 0 0 0 0 0 0 0 0 0 0 0 0 0 0 127 0" result="hardAlpha"/>
<feOffset dx="4" dy="4"/>
<feGaussianBlur stdDeviation="2"/>
<feComposite in2="hardAlpha" operator="out"/>
<feColorMatrix type="matrix" values="0 0 0 0 0 0 0 0 0 0 0 0 0 0 0 0 0 0 0.08 0"/>
<feBlend mode="normal" in2="BackgroundImageFix" result="effect1_dropShadow_1719_1474"/>
<feBlend mode="normal" in="SourceGraphic" in2="effect1_dropShadow_1719_1474" result="shape"/>
</filter>
<filter id="filter2_d_1719_1474" x="600.014" y="149.037" width="252.429" height="143.213" filterUnits="userSpaceOnUse" color-interpolation-filters="sRGB">
<feFlood flood-opacity="0" result="BackgroundImageFix"/>
<feColorMatrix in="SourceAlpha" type="matrix" values="0 0 0 0 0 0 0 0 0 0 0 0 0 0 0 0 0 0 127 0" result="hardAlpha"/>
<feOffset dy="2"/>
<feGaussianBlur stdDeviation="5"/>
<feComposite in2="hardAlpha" operator="out"/>
<feColorMatrix type="matrix" values="0 0 0 0 0 0 0 0 0 0 0 0 0 0 0 0 0 0 0.05 0"/>
<feBlend mode="normal" in2="BackgroundImageFix" result="effect1_dropShadow_1719_1474"/>
<feBlend mode="normal" in="SourceGraphic" in2="effect1_dropShadow_1719_1474" result="shape"/>
</filter>
<filter id="filter3_d_1719_1474" x="634.533" y="210.644" width="187.994" height="82.6873" filterUnits="userSpaceOnUse" color-interpolation-filters="sRGB">
<feFlood flood-opacity="0" result="BackgroundImageFix"/>
<feColorMatrix in="SourceAlpha" type="matrix" values="0 0 0 0 0 0 0 0 0 0 0 0 0 0 0 0 0 0 127 0" result="hardAlpha"/>
<feOffset dy="2"/>
<feGaussianBlur stdDeviation="5"/>
<feComposite in2="hardAlpha" operator="out"/>
<feColorMatrix type="matrix" values="0 0 0 0 0 0 0 0 0 0 0 0 0 0 0 0 0 0 0.05 0"/>
<feBlend mode="normal" in2="BackgroundImageFix" result="effect1_dropShadow_1719_1474"/>
<feBlend mode="normal" in="SourceGraphic" in2="effect1_dropShadow_1719_1474" result="shape"/>
</filter>
<clipPath id="clip0_1719_1474">
<rect width="256.348" height="330.172" fill="white" transform="translate(598.1 134.34)"/>
</clipPath>
</defs>
</svg>
