<svg width="718" height="264" viewBox="0 0 718 264" fill="none" xmlns="http://www.w3.org/2000/svg">
<g filter="url(#filter0_d_1105_1069)">
<rect x="4" y="72" width="710" height="184" rx="30" fill="#FFB5C3"/>
<path d="M489.26 111.72C489.85 110.577 491.557 110.858 491.751 112.129L491.889 113.031C491.976 113.599 492.419 114.047 492.986 114.14L493.887 114.288C495.156 114.496 495.417 116.206 494.268 116.784L493.453 117.194C492.939 117.452 492.65 118.012 492.737 118.58L492.875 119.482C493.069 120.754 491.523 121.531 490.619 120.616L489.978 119.968C489.573 119.559 488.951 119.457 488.437 119.715L487.623 120.125C486.474 120.703 485.257 119.472 485.847 118.33L486.266 117.519C486.529 117.008 486.434 116.385 486.03 115.976L485.388 115.328C484.484 114.413 485.278 112.876 486.547 113.084L487.447 113.232C488.015 113.325 488.578 113.042 488.841 112.531L489.26 111.72Z" fill="#E86A90"/>
<path d="M657.26 187.72C657.85 186.577 659.557 186.858 659.751 188.129L659.889 189.031C659.976 189.599 660.419 190.047 660.986 190.14L661.887 190.288C663.156 190.496 663.417 192.206 662.268 192.784L661.453 193.194C660.939 193.452 660.65 194.012 660.737 194.58L660.875 195.482C661.069 196.754 659.523 197.531 658.619 196.616L657.978 195.968C657.573 195.559 656.951 195.457 656.437 195.715L655.623 196.125C654.474 196.703 653.257 195.472 653.847 194.33L654.266 193.519C654.529 193.008 654.434 192.385 654.03 191.976L653.388 191.328C652.484 190.413 653.278 188.876 654.547 189.084L655.447 189.232C656.015 189.325 656.578 189.042 656.841 188.531L657.26 187.72Z" fill="#E86A90"/>
<path d="M549.862 38.2904C550.735 32.837 555.863 29.1233 561.316 29.9959L663.715 46.3791C669.168 47.2516 672.882 52.3799 672.009 57.8334L654.464 167.495C652.283 181.129 639.462 190.413 625.828 188.231L553.053 176.588C539.419 174.406 530.135 161.586 532.317 147.952L549.862 38.2904Z" fill="#850014"/>
<path d="M549.862 38.2904C550.735 32.8369 555.863 29.1233 561.316 29.9959L663.715 46.3791C669.168 47.2516 672.882 52.3799 672.009 57.8334L660.3 131.017C655.676 159.92 628.496 179.602 599.593 174.978L582.114 172.181C553.211 167.557 533.529 140.377 538.153 111.474L549.862 38.2904Z" fill="#46C4FF"/>
<path d="M549.863 38.2904C550.735 32.8369 555.863 29.1233 561.317 29.9959L663.715 46.3791C669.169 47.2516 672.882 52.3799 672.01 57.8334L655.719 159.652C653.625 172.741 641.317 181.653 628.229 179.559L553.479 167.6C540.391 165.506 531.478 153.198 533.572 140.11L549.863 38.2904Z" fill="#E10531"/>
<path d="M569.533 47.4161C569.621 46.8708 570.133 46.4994 570.679 46.5867L651.117 59.4563C651.662 59.5436 652.033 60.0564 651.946 60.6018L642.215 121.424C638.574 144.181 617.173 159.678 594.416 156.037V156.037C571.658 152.396 556.161 130.996 559.802 108.238L569.533 47.4161Z" fill="#AE001A"/>
<path d="M588.972 75.0125L588.539 77.7214L585.83 77.288L583.121 76.8546L582.687 79.5635L582.254 82.2724L579.545 81.839L576.836 81.4055L574.777 94.2727L572.719 107.14L575.428 107.573L578.137 108.007L577.703 110.716L577.27 113.425L579.979 113.858C582.62 114.281 582.677 114.359 582.308 116.662C581.951 118.896 582.064 119.054 584.299 119.411C586.602 119.78 586.659 119.858 586.236 122.499L585.803 125.208L588.512 125.642L591.221 126.075L590.787 128.784L590.354 131.493L598.142 132.739L605.93 133.985L606.363 131.276L606.797 128.567L609.505 129L612.214 129.434L612.648 126.725C613.07 124.084 613.149 124.027 615.451 124.395C617.686 124.753 617.843 124.639 618.201 122.404C618.569 120.102 618.648 120.045 621.289 120.467L623.998 120.901L624.431 118.192L624.865 115.483L627.574 115.916L630.283 116.35L632.341 103.483L634.4 90.6155L631.691 90.1821L628.982 89.7487L629.416 87.0398L629.849 84.3309L627.14 83.8975L624.431 83.4641L624.865 80.7552L625.298 78.0463L622.589 77.6129L619.88 77.1795L619.447 79.8884L619.013 82.5973L616.305 82.1638L613.596 81.7304L613.162 84.4393C612.74 87.0805 612.661 87.1374 610.359 86.769C608.124 86.4114 607.967 86.5252 607.609 88.76C607.252 90.9948 607.094 91.1086 604.86 90.7511C602.625 90.3935 602.511 90.2364 602.869 88.0015C603.226 85.7667 603.112 85.6096 600.877 85.252C598.575 84.8836 598.518 84.8051 598.941 82.1639L599.374 79.455L596.665 79.0216L593.956 78.5882L594.39 75.8793L594.823 73.1705L592.114 72.7371L589.405 72.3036L588.972 75.0125Z" fill="#6B0015"/>
<path d="M643.835 42.849L663.288 46.3112L664.642 47.2821L665.996 48.2535L667.35 49.2247L669.322 51.0495L670.44 53.4925L671.533 58.9498L668.136 80.1784L605.785 123.357L543.435 166.535L540.785 163.295L538.534 159.767L536.68 155.95L535.225 151.845L534.168 147.452L533.797 143.168L533.824 138.597L534.567 133.958L537.339 116.63L643.835 42.849Z" fill="white" fill-opacity="0.29"/>
<path d="M521.398 96.8667C521.63 97.562 521.788 98.2695 521.829 98.9633C522.374 108.106 511.934 113.589 508.745 113.214C505.556 112.839 496.479 105.068 498.87 96.264C499.051 95.5964 499.349 94.9425 499.717 94.3178C501.922 90.5783 507.042 91.0975 510.286 94.0066C510.525 94.2209 510.868 94.2613 511.145 94.1076C514.902 92.0216 520.006 92.7044 521.398 96.8667Z" fill="#CA001E"/>
<path d="M638.272 208.33C637.873 208.946 637.545 209.592 637.336 210.255C634.581 218.994 643.625 227.007 646.884 227.464C650.142 227.922 661.042 222.712 660.798 213.547C660.78 212.852 660.642 212.14 660.427 211.439C659.143 207.239 653.93 206.425 650.004 208.415C649.714 208.561 649.364 208.512 649.126 208.291C645.898 205.298 640.663 204.647 638.272 208.33Z" fill="#CA001E"/>
<path d="M507.345 128.863C507.782 129.202 508.177 129.582 508.494 130.005C512.66 135.576 508.404 143.653 506.246 144.817C504.088 145.982 495.14 145.036 492.957 138.39C492.792 137.886 492.705 137.339 492.675 136.78C492.493 133.434 495.924 131.512 499.176 131.933C499.416 131.964 499.648 131.839 499.757 131.62C501.242 128.641 504.731 126.83 507.345 128.863Z" fill="#CA001E"/>
<path d="M671.56 165.256C671.044 165.473 670.559 165.74 670.143 166.07C664.654 170.406 666.928 179.346 668.789 181.033C670.651 182.719 679.769 184.106 683.547 178.213C683.833 177.766 684.052 177.258 684.217 176.723C685.208 173.52 682.265 170.77 678.932 170.342C678.686 170.31 678.486 170.128 678.43 169.887C677.676 166.612 674.65 163.955 671.56 165.256Z" fill="#CA001E"/>
<path d="M517.864 164.083C517.897 164.479 517.889 164.871 517.821 165.24C516.929 170.105 510.726 171.564 509.095 170.935C507.464 170.306 503.687 165.003 506.081 160.713C506.262 160.388 506.503 160.086 506.778 159.808C508.421 158.147 511.05 159.114 512.382 161.078C512.481 161.222 512.656 161.29 512.822 161.247C515.069 160.663 517.668 161.713 517.864 164.083Z" fill="#CA001E"/>
<path d="M667.626 199.094C667.498 199.47 667.411 199.853 667.389 200.229C667.097 205.183 672.907 208.197 674.679 208.006C676.451 207.815 681.488 203.638 680.149 198.856C680.047 198.493 679.881 198.138 679.675 197.798C678.445 195.762 675.6 196.023 673.8 197.587C673.667 197.702 673.477 197.723 673.323 197.638C671.231 196.493 668.395 196.843 667.626 199.094Z" fill="#CA001E"/>
<path d="M56.213 181.749V185.217H60.293V186.798H56.213V190.419H60.803V192H54.275V180.168H60.803V181.749H56.213ZM74.529 182.48C75.2657 182.48 75.923 182.633 76.501 182.939C77.0904 183.245 77.5494 183.698 77.878 184.299C78.218 184.9 78.388 185.625 78.388 186.475V192H76.467V186.764C76.467 185.925 76.2574 185.285 75.838 184.843C75.4187 184.39 74.8464 184.163 74.121 184.163C73.3957 184.163 72.8177 184.39 72.387 184.843C71.9677 185.285 71.758 185.925 71.758 186.764V192H69.837V186.764C69.837 185.925 69.6274 185.285 69.208 184.843C68.7887 184.39 68.2164 184.163 67.491 184.163C66.7657 184.163 66.1877 184.39 65.757 184.843C65.3377 185.285 65.128 185.925 65.128 186.764V192H63.19V182.633H65.128V183.704C65.4454 183.319 65.8477 183.018 66.335 182.803C66.8224 182.588 67.3437 182.48 67.899 182.48C68.647 182.48 69.3157 182.639 69.905 182.956C70.4944 183.273 70.9477 183.732 71.265 184.333C71.5484 183.766 71.9904 183.319 72.591 182.99C73.1917 182.65 73.8377 182.48 74.529 182.48ZM87.5311 184.214V189.399C87.5311 189.75 87.6105 190.005 87.7691 190.164C87.9391 190.311 88.2225 190.385 88.6191 190.385H89.8091V192H88.2791C87.4065 192 86.7378 191.796 86.2731 191.388C85.8085 190.98 85.5761 190.317 85.5761 189.399V184.214H84.4711V182.633H85.5761V180.304H87.5311V182.633H89.8091V184.214H87.5311ZM100.18 187.087C100.18 187.438 100.158 187.756 100.112 188.039H92.9553C93.012 188.787 93.2896 189.388 93.7883 189.841C94.287 190.294 94.899 190.521 95.6243 190.521C96.667 190.521 97.4036 190.085 97.8343 189.212H99.9253C99.642 190.073 99.1263 190.782 98.3783 191.337C97.6416 191.881 96.7236 192.153 95.6243 192.153C94.729 192.153 93.9243 191.955 93.2103 191.558C92.5076 191.15 91.9523 190.583 91.5443 189.858C91.1476 189.121 90.9493 188.271 90.9493 187.308C90.9493 186.345 91.142 185.5 91.5273 184.775C91.924 184.038 92.4736 183.472 93.1763 183.075C93.8903 182.678 94.7063 182.48 95.6243 182.48C96.5083 182.48 97.296 182.673 97.9873 183.058C98.6786 183.443 99.217 183.987 99.6023 184.69C99.9876 185.381 100.18 186.18 100.18 187.087ZM98.1573 186.475C98.146 185.761 97.891 185.189 97.3923 184.758C96.8936 184.327 96.276 184.112 95.5393 184.112C94.8706 184.112 94.2983 184.327 93.8223 184.758C93.3463 185.177 93.063 185.75 92.9723 186.475H98.1573ZM113.427 182.48C114.163 182.48 114.821 182.633 115.399 182.939C115.988 183.245 116.447 183.698 116.776 184.299C117.116 184.9 117.286 185.625 117.286 186.475V192H115.365V186.764C115.365 185.925 115.155 185.285 114.736 184.843C114.316 184.39 113.744 184.163 113.019 184.163C112.293 184.163 111.715 184.39 111.285 184.843C110.865 185.285 110.656 185.925 110.656 186.764V192H108.735V186.764C108.735 185.925 108.525 185.285 108.106 184.843C107.686 184.39 107.114 184.163 106.389 184.163C105.663 184.163 105.085 184.39 104.655 184.843C104.235 185.285 104.026 185.925 104.026 186.764V192H102.088V182.633H104.026V183.704C104.343 183.319 104.745 183.018 105.233 182.803C105.72 182.588 106.241 182.48 106.797 182.48C107.545 182.48 108.213 182.639 108.803 182.956C109.392 183.273 109.845 183.732 110.163 184.333C110.446 183.766 110.888 183.319 111.489 182.99C112.089 182.65 112.735 182.48 113.427 182.48ZM121.69 184.01C122.018 183.579 122.466 183.217 123.033 182.922C123.599 182.627 124.24 182.48 124.954 182.48C125.77 182.48 126.512 182.684 127.181 183.092C127.861 183.489 128.393 184.05 128.779 184.775C129.164 185.5 129.357 186.333 129.357 187.274C129.357 188.215 129.164 189.059 128.779 189.807C128.393 190.544 127.861 191.122 127.181 191.541C126.512 191.949 125.77 192.153 124.954 192.153C124.24 192.153 123.605 192.011 123.05 191.728C122.494 191.433 122.041 191.071 121.69 190.64V196.454H119.752V182.633H121.69V184.01ZM127.385 187.274C127.385 186.628 127.249 186.073 126.977 185.608C126.716 185.132 126.365 184.775 125.923 184.537C125.492 184.288 125.027 184.163 124.529 184.163C124.041 184.163 123.577 184.288 123.135 184.537C122.704 184.786 122.353 185.149 122.081 185.625C121.82 186.101 121.69 186.662 121.69 187.308C121.69 187.954 121.82 188.521 122.081 189.008C122.353 189.484 122.704 189.847 123.135 190.096C123.577 190.345 124.041 190.47 124.529 190.47C125.027 190.47 125.492 190.345 125.923 190.096C126.365 189.835 126.716 189.461 126.977 188.974C127.249 188.487 127.385 187.92 127.385 187.274ZM135.336 192.153C134.452 192.153 133.653 191.955 132.939 191.558C132.225 191.15 131.664 190.583 131.256 189.858C130.848 189.121 130.644 188.271 130.644 187.308C130.644 186.356 130.854 185.512 131.273 184.775C131.692 184.038 132.265 183.472 132.99 183.075C133.715 182.678 134.526 182.48 135.421 182.48C136.316 182.48 137.127 182.678 137.852 183.075C138.577 183.472 139.15 184.038 139.569 184.775C139.988 185.512 140.198 186.356 140.198 187.308C140.198 188.26 139.983 189.104 139.552 189.841C139.121 190.578 138.532 191.15 137.784 191.558C137.047 191.955 136.231 192.153 135.336 192.153ZM135.336 190.47C135.835 190.47 136.299 190.351 136.73 190.113C137.172 189.875 137.529 189.518 137.801 189.042C138.073 188.566 138.209 187.988 138.209 187.308C138.209 186.628 138.079 186.056 137.818 185.591C137.557 185.115 137.212 184.758 136.781 184.52C136.35 184.282 135.886 184.163 135.387 184.163C134.888 184.163 134.424 184.282 133.993 184.52C133.574 184.758 133.239 185.115 132.99 185.591C132.741 186.056 132.616 186.628 132.616 187.308C132.616 188.317 132.871 189.099 133.381 189.654C133.902 190.198 134.554 190.47 135.336 190.47ZM145.514 192.153C144.777 192.153 144.114 192.023 143.525 191.762C142.947 191.49 142.488 191.127 142.148 190.674C141.808 190.209 141.627 189.694 141.604 189.127H143.61C143.644 189.524 143.831 189.858 144.171 190.13C144.522 190.391 144.959 190.521 145.48 190.521C146.024 190.521 146.443 190.419 146.738 190.215C147.044 190 147.197 189.728 147.197 189.399C147.197 189.048 147.027 188.787 146.687 188.617C146.358 188.447 145.831 188.26 145.106 188.056C144.403 187.863 143.831 187.676 143.389 187.495C142.947 187.314 142.562 187.036 142.233 186.662C141.916 186.288 141.757 185.795 141.757 185.183C141.757 184.684 141.904 184.231 142.199 183.823C142.494 183.404 142.913 183.075 143.457 182.837C144.012 182.599 144.647 182.48 145.361 182.48C146.426 182.48 147.282 182.752 147.928 183.296C148.585 183.829 148.937 184.56 148.982 185.489H147.044C147.01 185.07 146.84 184.735 146.534 184.486C146.228 184.237 145.814 184.112 145.293 184.112C144.783 184.112 144.392 184.208 144.12 184.401C143.848 184.594 143.712 184.849 143.712 185.166C143.712 185.415 143.803 185.625 143.984 185.795C144.165 185.965 144.386 186.101 144.647 186.203C144.908 186.294 145.293 186.413 145.803 186.56C146.483 186.741 147.038 186.928 147.469 187.121C147.911 187.302 148.291 187.574 148.608 187.937C148.925 188.3 149.09 188.781 149.101 189.382C149.101 189.915 148.954 190.391 148.659 190.81C148.364 191.229 147.945 191.558 147.401 191.796C146.868 192.034 146.239 192.153 145.514 192.153ZM154.965 187.274C154.965 186.333 155.158 185.5 155.543 184.775C155.94 184.05 156.472 183.489 157.141 183.092C157.821 182.684 158.575 182.48 159.402 182.48C160.014 182.48 160.615 182.616 161.204 182.888C161.805 183.149 162.281 183.5 162.632 183.942V179.42H164.587V192H162.632V190.589C162.315 191.042 161.873 191.416 161.306 191.711C160.751 192.006 160.11 192.153 159.385 192.153C158.569 192.153 157.821 191.949 157.141 191.541C156.472 191.122 155.94 190.544 155.543 189.807C155.158 189.059 154.965 188.215 154.965 187.274ZM162.632 187.308C162.632 186.662 162.496 186.101 162.224 185.625C161.963 185.149 161.618 184.786 161.187 184.537C160.756 184.288 160.292 184.163 159.793 184.163C159.294 184.163 158.83 184.288 158.399 184.537C157.968 184.775 157.617 185.132 157.345 185.608C157.084 186.073 156.954 186.628 156.954 187.274C156.954 187.92 157.084 188.487 157.345 188.974C157.617 189.461 157.968 189.835 158.399 190.096C158.841 190.345 159.306 190.47 159.793 190.47C160.292 190.47 160.756 190.345 161.187 190.096C161.618 189.847 161.963 189.484 162.224 189.008C162.496 188.521 162.632 187.954 162.632 187.308ZM168.118 181.392C167.767 181.392 167.472 181.273 167.234 181.035C166.996 180.797 166.877 180.502 166.877 180.151C166.877 179.8 166.996 179.505 167.234 179.267C167.472 179.029 167.767 178.91 168.118 178.91C168.458 178.91 168.747 179.029 168.985 179.267C169.223 179.505 169.342 179.8 169.342 180.151C169.342 180.502 169.223 180.797 168.985 181.035C168.747 181.273 168.458 181.392 168.118 181.392ZM169.07 182.633V192H167.132V182.633H169.07ZM175.542 184.214H173.808V192H171.853V184.214H170.748V182.633H171.853V181.97C171.853 180.893 172.136 180.111 172.703 179.624C173.281 179.125 174.182 178.876 175.406 178.876V180.491C174.817 180.491 174.403 180.604 174.165 180.831C173.927 181.046 173.808 181.426 173.808 181.97V182.633H175.542V184.214ZM179.197 182.633V192H177.259V182.633H179.197ZM179.979 180.117L176.222 181.97V180.542L179.979 178.468V180.117ZM181.096 187.308C181.096 186.345 181.288 185.5 181.674 184.775C182.07 184.038 182.614 183.472 183.306 183.075C183.997 182.678 184.79 182.48 185.686 182.48C186.819 182.48 187.754 182.752 188.491 183.296C189.239 183.829 189.743 184.594 190.004 185.591H187.913C187.743 185.126 187.471 184.764 187.097 184.503C186.723 184.242 186.252 184.112 185.686 184.112C184.892 184.112 184.258 184.395 183.782 184.962C183.317 185.517 183.085 186.299 183.085 187.308C183.085 188.317 183.317 189.104 183.782 189.671C184.258 190.238 184.892 190.521 185.686 190.521C186.808 190.521 187.55 190.028 187.913 189.042H190.004C189.732 189.994 189.222 190.753 188.474 191.32C187.726 191.875 186.796 192.153 185.686 192.153C184.79 192.153 183.997 191.955 183.306 191.558C182.614 191.15 182.07 190.583 181.674 189.858C181.288 189.121 181.096 188.271 181.096 187.308ZM200.52 187.087C200.52 187.438 200.497 187.756 200.452 188.039H193.295C193.352 188.787 193.629 189.388 194.128 189.841C194.627 190.294 195.239 190.521 195.964 190.521C197.007 190.521 197.743 190.085 198.174 189.212H200.265C199.982 190.073 199.466 190.782 198.718 191.337C197.981 191.881 197.063 192.153 195.964 192.153C195.069 192.153 194.264 191.955 193.55 191.558C192.847 191.15 192.292 190.583 191.884 189.858C191.487 189.121 191.289 188.271 191.289 187.308C191.289 186.345 191.482 185.5 191.867 184.775C192.264 184.038 192.813 183.472 193.516 183.075C194.23 182.678 195.046 182.48 195.964 182.48C196.848 182.48 197.636 182.673 198.327 183.058C199.018 183.443 199.557 183.987 199.942 184.69C200.327 185.381 200.52 186.18 200.52 187.087ZM198.497 186.475C198.486 185.761 198.231 185.189 197.732 184.758C197.233 184.327 196.616 184.112 195.879 184.112C195.21 184.112 194.638 184.327 194.162 184.758C193.686 185.177 193.403 185.75 193.312 186.475H198.497ZM203.413 181.392C203.062 181.392 202.767 181.273 202.529 181.035C202.291 180.797 202.172 180.502 202.172 180.151C202.172 179.8 202.291 179.505 202.529 179.267C202.767 179.029 203.062 178.91 203.413 178.91C203.753 178.91 204.042 179.029 204.28 179.267C204.518 179.505 204.637 179.8 204.637 180.151C204.637 180.502 204.518 180.797 204.28 181.035C204.042 181.273 203.753 181.392 203.413 181.392ZM204.365 182.633V192H202.427V182.633H204.365ZM210.31 192.153C209.573 192.153 208.91 192.023 208.321 191.762C207.743 191.49 207.284 191.127 206.944 190.674C206.604 190.209 206.422 189.694 206.4 189.127H208.406C208.44 189.524 208.627 189.858 208.967 190.13C209.318 190.391 209.754 190.521 210.276 190.521C210.82 190.521 211.239 190.419 211.534 190.215C211.84 190 211.993 189.728 211.993 189.399C211.993 189.048 211.823 188.787 211.483 188.617C211.154 188.447 210.627 188.26 209.902 188.056C209.199 187.863 208.627 187.676 208.185 187.495C207.743 187.314 207.357 187.036 207.029 186.662C206.711 186.288 206.553 185.795 206.553 185.183C206.553 184.684 206.7 184.231 206.995 183.823C207.289 183.404 207.709 183.075 208.253 182.837C208.808 182.599 209.443 182.48 210.157 182.48C211.222 182.48 212.078 182.752 212.724 183.296C213.381 183.829 213.732 184.56 213.778 185.489H211.84C211.806 185.07 211.636 184.735 211.33 184.486C211.024 184.237 210.61 184.112 210.089 184.112C209.579 184.112 209.188 184.208 208.916 184.401C208.644 184.594 208.508 184.849 208.508 185.166C208.508 185.415 208.598 185.625 208.78 185.795C208.961 185.965 209.182 186.101 209.443 186.203C209.703 186.294 210.089 186.413 210.599 186.56C211.279 186.741 211.834 186.928 212.265 187.121C212.707 187.302 213.086 187.574 213.404 187.937C213.721 188.3 213.885 188.781 213.897 189.382C213.897 189.915 213.749 190.391 213.455 190.81C213.16 191.229 212.741 191.558 212.197 191.796C211.664 192.034 211.035 192.153 210.31 192.153ZM218.116 189.671L216.059 194.363H214.801L216.008 189.671H218.116ZM223.579 187.274C223.579 186.333 223.772 185.5 224.157 184.775C224.554 184.05 225.087 183.489 225.755 183.092C226.435 182.684 227.183 182.48 227.999 182.48C228.736 182.48 229.376 182.627 229.92 182.922C230.476 183.205 230.918 183.562 231.246 183.993V182.633H233.201V192H231.246V190.606C230.918 191.048 230.47 191.416 229.903 191.711C229.337 192.006 228.691 192.153 227.965 192.153C227.161 192.153 226.424 191.949 225.755 191.541C225.087 191.122 224.554 190.544 224.157 189.807C223.772 189.059 223.579 188.215 223.579 187.274ZM231.246 187.308C231.246 186.662 231.11 186.101 230.838 185.625C230.578 185.149 230.232 184.786 229.801 184.537C229.371 184.288 228.906 184.163 228.407 184.163C227.909 184.163 227.444 184.288 227.013 184.537C226.583 184.775 226.231 185.132 225.959 185.608C225.699 186.073 225.568 186.628 225.568 187.274C225.568 187.92 225.699 188.487 225.959 188.974C226.231 189.461 226.583 189.835 227.013 190.096C227.455 190.345 227.92 190.47 228.407 190.47C228.906 190.47 229.371 190.345 229.801 190.096C230.232 189.847 230.578 189.484 230.838 189.008C231.11 188.521 231.246 187.954 231.246 187.308ZM243.937 182.48C244.662 182.48 245.302 182.627 245.858 182.922C246.424 183.205 246.866 183.562 247.184 183.993V182.633H249.139V192.153C249.139 193.014 248.957 193.779 248.595 194.448C248.232 195.128 247.705 195.661 247.014 196.046C246.334 196.431 245.518 196.624 244.566 196.624C243.296 196.624 242.242 196.324 241.404 195.723C240.565 195.134 240.089 194.329 239.976 193.309H241.897C242.044 193.796 242.356 194.187 242.832 194.482C243.319 194.788 243.897 194.941 244.566 194.941C245.348 194.941 245.977 194.703 246.453 194.227C246.94 193.751 247.184 193.06 247.184 192.153V190.589C246.855 191.031 246.407 191.405 245.841 191.711C245.285 192.006 244.651 192.153 243.937 192.153C243.121 192.153 242.373 191.949 241.693 191.541C241.024 191.122 240.491 190.544 240.095 189.807C239.709 189.059 239.517 188.215 239.517 187.274C239.517 186.333 239.709 185.5 240.095 184.775C240.491 184.05 241.024 183.489 241.693 183.092C242.373 182.684 243.121 182.48 243.937 182.48ZM247.184 187.308C247.184 186.662 247.048 186.101 246.776 185.625C246.515 185.149 246.169 184.786 245.739 184.537C245.308 184.288 244.843 184.163 244.345 184.163C243.846 184.163 243.381 184.288 242.951 184.537C242.52 184.775 242.169 185.132 241.897 185.608C241.636 186.073 241.506 186.628 241.506 187.274C241.506 187.92 241.636 188.487 241.897 188.974C242.169 189.461 242.52 189.835 242.951 190.096C243.393 190.345 243.857 190.47 244.345 190.47C244.843 190.47 245.308 190.345 245.739 190.096C246.169 189.847 246.515 189.484 246.776 189.008C247.048 188.521 247.184 187.954 247.184 187.308ZM260.269 187.087C260.269 187.438 260.247 187.756 260.201 188.039H253.044C253.101 188.787 253.379 189.388 253.877 189.841C254.376 190.294 254.988 190.521 255.713 190.521C256.756 190.521 257.493 190.085 257.923 189.212H260.014C259.731 190.073 259.215 190.782 258.467 191.337C257.731 191.881 256.813 192.153 255.713 192.153C254.818 192.153 254.013 191.955 253.299 191.558C252.597 191.15 252.041 190.583 251.633 189.858C251.237 189.121 251.038 188.271 251.038 187.308C251.038 186.345 251.231 185.5 251.616 184.775C252.013 184.038 252.563 183.472 253.265 183.075C253.979 182.678 254.795 182.48 255.713 182.48C256.597 182.48 257.385 182.673 258.076 183.058C258.768 183.443 259.306 183.987 259.691 184.69C260.077 185.381 260.269 186.18 260.269 187.087ZM258.246 186.475C258.235 185.761 257.98 185.189 257.481 184.758C256.983 184.327 256.365 184.112 255.628 184.112C254.96 184.112 254.387 184.327 253.911 184.758C253.435 185.177 253.152 185.75 253.061 186.475H258.246ZM266.902 182.48C267.639 182.48 268.296 182.633 268.874 182.939C269.464 183.245 269.923 183.698 270.251 184.299C270.58 184.9 270.744 185.625 270.744 186.475V192H268.823V186.764C268.823 185.925 268.614 185.285 268.194 184.843C267.775 184.39 267.203 184.163 266.477 184.163C265.752 184.163 265.174 184.39 264.743 184.843C264.324 185.285 264.114 185.925 264.114 186.764V192H262.176V182.633H264.114V183.704C264.432 183.319 264.834 183.018 265.321 182.803C265.82 182.588 266.347 182.48 266.902 182.48ZM281.801 187.087C281.801 187.438 281.779 187.756 281.733 188.039H274.576C274.633 188.787 274.911 189.388 275.409 189.841C275.908 190.294 276.52 190.521 277.245 190.521C278.288 190.521 279.025 190.085 279.455 189.212H281.546C281.263 190.073 280.747 190.782 279.999 191.337C279.263 191.881 278.345 192.153 277.245 192.153C276.35 192.153 275.545 191.955 274.831 191.558C274.129 191.15 273.573 190.583 273.165 189.858C272.769 189.121 272.57 188.271 272.57 187.308C272.57 186.345 272.763 185.5 273.148 184.775C273.545 184.038 274.095 183.472 274.797 183.075C275.511 182.678 276.327 182.48 277.245 182.48C278.129 182.48 278.917 182.673 279.608 183.058C280.3 183.443 280.838 183.987 281.223 184.69C281.609 185.381 281.801 186.18 281.801 187.087ZM279.778 186.475C279.767 185.761 279.512 185.189 279.013 184.758C278.515 184.327 277.897 184.112 277.16 184.112C276.492 184.112 275.919 184.327 275.443 184.758C274.967 185.177 274.684 185.75 274.593 186.475H279.778ZM285.647 183.993C285.93 183.517 286.304 183.149 286.769 182.888C287.245 182.616 287.806 182.48 288.452 182.48V184.486H287.959C287.199 184.486 286.621 184.679 286.225 185.064C285.839 185.449 285.647 186.118 285.647 187.07V192H283.709V182.633H285.647V183.993ZM294.296 192.153C293.412 192.153 292.613 191.955 291.899 191.558C291.185 191.15 290.624 190.583 290.216 189.858C289.808 189.121 289.604 188.271 289.604 187.308C289.604 186.356 289.814 185.512 290.233 184.775C290.652 184.038 291.225 183.472 291.95 183.075C292.675 182.678 293.486 182.48 294.381 182.48C295.276 182.48 296.087 182.678 296.812 183.075C297.537 183.472 298.11 184.038 298.529 184.775C298.948 185.512 299.158 186.356 299.158 187.308C299.158 188.26 298.943 189.104 298.512 189.841C298.081 190.578 297.492 191.15 296.744 191.558C296.007 191.955 295.191 192.153 294.296 192.153ZM294.296 190.47C294.795 190.47 295.259 190.351 295.69 190.113C296.132 189.875 296.489 189.518 296.761 189.042C297.033 188.566 297.169 187.988 297.169 187.308C297.169 186.628 297.039 186.056 296.778 185.591C296.517 185.115 296.172 184.758 295.741 184.52C295.31 184.282 294.846 184.163 294.347 184.163C293.848 184.163 293.384 184.282 292.953 184.52C292.534 184.758 292.199 185.115 291.95 185.591C291.701 186.056 291.576 186.628 291.576 187.308C291.576 188.317 291.831 189.099 292.341 189.654C292.862 190.198 293.514 190.47 294.296 190.47ZM304.474 192.153C303.737 192.153 303.074 192.023 302.485 191.762C301.907 191.49 301.448 191.127 301.108 190.674C300.768 190.209 300.586 189.694 300.564 189.127H302.57C302.604 189.524 302.791 189.858 303.131 190.13C303.482 190.391 303.918 190.521 304.44 190.521C304.984 190.521 305.403 190.419 305.698 190.215C306.004 190 306.157 189.728 306.157 189.399C306.157 189.048 305.987 188.787 305.647 188.617C305.318 188.447 304.791 188.26 304.066 188.056C303.363 187.863 302.791 187.676 302.349 187.495C301.907 187.314 301.521 187.036 301.193 186.662C300.875 186.288 300.717 185.795 300.717 185.183C300.717 184.684 300.864 184.231 301.159 183.823C301.453 183.404 301.873 183.075 302.417 182.837C302.972 182.599 303.607 182.48 304.321 182.48C305.386 182.48 306.242 182.752 306.888 183.296C307.545 183.829 307.896 184.56 307.942 185.489H306.004C305.97 185.07 305.8 184.735 305.494 184.486C305.188 184.237 304.774 184.112 304.253 184.112C303.743 184.112 303.352 184.208 303.08 184.401C302.808 184.594 302.672 184.849 302.672 185.166C302.672 185.415 302.762 185.625 302.944 185.795C303.125 185.965 303.346 186.101 303.607 186.203C303.867 186.294 304.253 186.413 304.763 186.56C305.443 186.741 305.998 186.928 306.429 187.121C306.871 187.302 307.25 187.574 307.568 187.937C307.885 188.3 308.049 188.781 308.061 189.382C308.061 189.915 307.913 190.391 307.619 190.81C307.324 191.229 306.905 191.558 306.361 191.796C305.828 192.034 305.199 192.153 304.474 192.153ZM311.141 181.392C310.79 181.392 310.495 181.273 310.257 181.035C310.019 180.797 309.9 180.502 309.9 180.151C309.9 179.8 310.019 179.505 310.257 179.267C310.495 179.029 310.79 178.91 311.141 178.91C311.481 178.91 311.77 179.029 312.008 179.267C312.246 179.505 312.365 179.8 312.365 180.151C312.365 180.502 312.246 180.797 312.008 181.035C311.77 181.273 311.481 181.392 311.141 181.392ZM312.093 182.633V192H310.155V182.633H312.093ZM313.991 187.274C313.991 186.333 314.184 185.5 314.569 184.775C314.966 184.05 315.499 183.489 316.167 183.092C316.847 182.684 317.601 182.48 318.428 182.48C319.04 182.48 319.641 182.616 320.23 182.888C320.831 183.149 321.307 183.5 321.658 183.942V179.42H323.613V192H321.658V190.589C321.341 191.042 320.899 191.416 320.332 191.711C319.777 192.006 319.137 192.153 318.411 192.153C317.595 192.153 316.847 191.949 316.167 191.541C315.499 191.122 314.966 190.544 314.569 189.807C314.184 189.059 313.991 188.215 313.991 187.274ZM321.658 187.308C321.658 186.662 321.522 186.101 321.25 185.625C320.99 185.149 320.644 184.786 320.213 184.537C319.783 184.288 319.318 184.163 318.819 184.163C318.321 184.163 317.856 184.288 317.425 184.537C316.995 184.775 316.643 185.132 316.371 185.608C316.111 186.073 315.98 186.628 315.98 187.274C315.98 187.92 316.111 188.487 316.371 188.974C316.643 189.461 316.995 189.835 317.425 190.096C317.867 190.345 318.332 190.47 318.819 190.47C319.318 190.47 319.783 190.345 320.213 190.096C320.644 189.847 320.99 189.484 321.25 189.008C321.522 188.521 321.658 187.954 321.658 187.308ZM325.513 187.274C325.513 186.333 325.705 185.5 326.091 184.775C326.487 184.05 327.02 183.489 327.689 183.092C328.369 182.684 329.117 182.48 329.933 182.48C330.669 182.48 331.31 182.627 331.854 182.922C332.409 183.205 332.851 183.562 333.18 183.993V182.633H335.135V192H333.18V190.606C332.851 191.048 332.403 191.416 331.837 191.711C331.27 192.006 330.624 192.153 329.899 192.153C329.094 192.153 328.357 191.949 327.689 191.541C327.02 191.122 326.487 190.544 326.091 189.807C325.705 189.059 325.513 188.215 325.513 187.274ZM333.18 187.308C333.18 186.662 333.044 186.101 332.772 185.625C332.511 185.149 332.165 184.786 331.735 184.537C331.304 184.288 330.839 184.163 330.341 184.163C329.842 184.163 329.377 184.288 328.947 184.537C328.516 184.775 328.165 185.132 327.893 185.608C327.632 186.073 327.502 186.628 327.502 187.274C327.502 187.92 327.632 188.487 327.893 188.974C328.165 189.461 328.516 189.835 328.947 190.096C329.389 190.345 329.853 190.47 330.341 190.47C330.839 190.47 331.304 190.345 331.735 190.096C332.165 189.847 332.511 189.484 332.772 189.008C333.044 188.521 333.18 187.954 333.18 187.308ZM337.034 187.274C337.034 186.333 337.227 185.5 337.612 184.775C338.009 184.05 338.542 183.489 339.21 183.092C339.89 182.684 340.644 182.48 341.471 182.48C342.083 182.48 342.684 182.616 343.273 182.888C343.874 183.149 344.35 183.5 344.701 183.942V179.42H346.656V192H344.701V190.589C344.384 191.042 343.942 191.416 343.375 191.711C342.82 192.006 342.18 192.153 341.454 192.153C340.638 192.153 339.89 191.949 339.21 191.541C338.542 191.122 338.009 190.544 337.612 189.807C337.227 189.059 337.034 188.215 337.034 187.274ZM344.701 187.308C344.701 186.662 344.565 186.101 344.293 185.625C344.033 185.149 343.687 184.786 343.256 184.537C342.826 184.288 342.361 184.163 341.862 184.163C341.364 184.163 340.899 184.288 340.468 184.537C340.038 184.775 339.686 185.132 339.414 185.608C339.154 186.073 339.023 186.628 339.023 187.274C339.023 187.92 339.154 188.487 339.414 188.974C339.686 189.461 340.038 189.835 340.468 190.096C340.91 190.345 341.375 190.47 341.862 190.47C342.361 190.47 342.826 190.345 343.256 190.096C343.687 189.847 344.033 189.484 344.293 189.008C344.565 188.521 344.701 187.954 344.701 187.308ZM357.787 187.087C357.787 187.438 357.764 187.756 357.719 188.039H350.562C350.618 188.787 350.896 189.388 351.395 189.841C351.893 190.294 352.505 190.521 353.231 190.521C354.273 190.521 355.01 190.085 355.441 189.212H357.532C357.248 190.073 356.733 190.782 355.985 191.337C355.248 191.881 354.33 192.153 353.231 192.153C352.335 192.153 351.531 191.955 350.817 191.558C350.114 191.15 349.559 190.583 349.151 189.858C348.754 189.121 348.556 188.271 348.556 187.308C348.556 186.345 348.748 185.5 349.134 184.775C349.53 184.038 350.08 183.472 350.783 183.075C351.497 182.678 352.313 182.48 353.231 182.48C354.115 182.48 354.902 182.673 355.594 183.058C356.285 183.443 356.823 183.987 357.209 184.69C357.594 185.381 357.787 186.18 357.787 187.087ZM355.764 186.475C355.752 185.761 355.497 185.189 354.999 184.758C354.5 184.327 353.882 184.112 353.146 184.112C352.477 184.112 351.905 184.327 351.429 184.758C350.953 185.177 350.669 185.75 350.579 186.475H355.764ZM372.695 187.087C372.695 187.438 372.672 187.756 372.627 188.039H365.47C365.527 188.787 365.804 189.388 366.303 189.841C366.802 190.294 367.414 190.521 368.139 190.521C369.182 190.521 369.918 190.085 370.349 189.212H372.44C372.157 190.073 371.641 190.782 370.893 191.337C370.156 191.881 369.238 192.153 368.139 192.153C367.244 192.153 366.439 191.955 365.725 191.558C365.022 191.15 364.467 190.583 364.059 189.858C363.662 189.121 363.464 188.271 363.464 187.308C363.464 186.345 363.657 185.5 364.042 184.775C364.439 184.038 364.988 183.472 365.691 183.075C366.405 182.678 367.221 182.48 368.139 182.48C369.023 182.48 369.811 182.673 370.502 183.058C371.193 183.443 371.732 183.987 372.117 184.69C372.502 185.381 372.695 186.18 372.695 187.087ZM370.672 186.475C370.661 185.761 370.406 185.189 369.907 184.758C369.408 184.327 368.791 184.112 368.054 184.112C367.385 184.112 366.813 184.327 366.337 184.758C365.861 185.177 365.578 185.75 365.487 186.475H370.672ZM369.839 180.117L366.082 181.97V180.542L369.839 178.468V180.117ZM378.372 187.274C378.372 186.333 378.565 185.5 378.95 184.775C379.347 184.05 379.879 183.489 380.548 183.092C381.228 182.684 381.976 182.48 382.792 182.48C383.529 182.48 384.169 182.627 384.713 182.922C385.268 183.205 385.71 183.562 386.039 183.993V182.633H387.994V192H386.039V190.606C385.71 191.048 385.263 191.416 384.696 191.711C384.129 192.006 383.483 192.153 382.758 192.153C381.953 192.153 381.217 191.949 380.548 191.541C379.879 191.122 379.347 190.544 378.95 189.807C378.565 189.059 378.372 188.215 378.372 187.274ZM386.039 187.308C386.039 186.662 385.903 186.101 385.631 185.625C385.37 185.149 385.025 184.786 384.594 184.537C384.163 184.288 383.699 184.163 383.2 184.163C382.701 184.163 382.237 184.288 381.806 184.537C381.375 184.775 381.024 185.132 380.752 185.608C380.491 186.073 380.361 186.628 380.361 187.274C380.361 187.92 380.491 188.487 380.752 188.974C381.024 189.461 381.375 189.835 381.806 190.096C382.248 190.345 382.713 190.47 383.2 190.47C383.699 190.47 384.163 190.345 384.594 190.096C385.025 189.847 385.37 189.484 385.631 189.008C385.903 188.521 386.039 187.954 386.039 187.308ZM396.894 179.42V192H394.956V179.42H396.894ZM407.921 182.633V192H405.983V190.895C405.677 191.28 405.275 191.586 404.776 191.813C404.289 192.028 403.767 192.136 403.212 192.136C402.475 192.136 401.812 191.983 401.223 191.677C400.645 191.371 400.186 190.918 399.846 190.317C399.517 189.716 399.353 188.991 399.353 188.141V182.633H401.274V187.852C401.274 188.691 401.484 189.337 401.903 189.79C402.322 190.232 402.895 190.453 403.62 190.453C404.345 190.453 404.918 190.232 405.337 189.79C405.768 189.337 405.983 188.691 405.983 187.852V182.633H407.921ZM412.195 190.419H416.445V192H409.951V190.419L414.218 184.214H409.951V182.633H416.445V184.214L412.195 190.419ZM422.25 187.274C422.25 186.333 422.443 185.5 422.828 184.775C423.225 184.05 423.757 183.489 424.426 183.092C425.106 182.684 425.86 182.48 426.687 182.48C427.412 182.48 428.053 182.627 428.608 182.922C429.175 183.217 429.611 183.574 429.917 183.993V182.633H431.872V196.454H429.917V190.64C429.611 191.059 429.169 191.416 428.591 191.711C428.013 192.006 427.356 192.153 426.619 192.153C425.814 192.153 425.078 191.949 424.409 191.541C423.752 191.122 423.225 190.544 422.828 189.807C422.443 189.059 422.25 188.215 422.25 187.274ZM429.917 187.308C429.917 186.662 429.781 186.101 429.509 185.625C429.248 185.149 428.903 184.786 428.472 184.537C428.041 184.288 427.577 184.163 427.078 184.163C426.579 184.163 426.115 184.288 425.684 184.537C425.253 184.775 424.902 185.132 424.63 185.608C424.369 186.073 424.239 186.628 424.239 187.274C424.239 187.92 424.369 188.487 424.63 188.974C424.902 189.461 425.253 189.835 425.684 190.096C426.126 190.345 426.591 190.47 427.078 190.47C427.577 190.47 428.041 190.345 428.472 190.096C428.903 189.847 429.248 189.484 429.509 189.008C429.781 188.521 429.917 187.954 429.917 187.308ZM442.901 182.633V192H440.963V190.895C440.657 191.28 440.254 191.586 439.756 191.813C439.268 192.028 438.747 192.136 438.192 192.136C437.455 192.136 436.792 191.983 436.203 191.677C435.625 191.371 435.166 190.918 434.826 190.317C434.497 189.716 434.333 188.991 434.333 188.141V182.633H436.254V187.852C436.254 188.691 436.463 189.337 436.883 189.79C437.302 190.232 437.874 190.453 438.6 190.453C439.325 190.453 439.897 190.232 440.317 189.79C440.747 189.337 440.963 188.691 440.963 187.852V182.633H442.901ZM454.043 187.087C454.043 187.438 454.02 187.756 453.975 188.039H446.818C446.874 188.787 447.152 189.388 447.651 189.841C448.149 190.294 448.761 190.521 449.487 190.521C450.529 190.521 451.266 190.085 451.697 189.212H453.788C453.504 190.073 452.989 190.782 452.241 191.337C451.504 191.881 450.586 192.153 449.487 192.153C448.591 192.153 447.787 191.955 447.073 191.558C446.37 191.15 445.815 190.583 445.407 189.858C445.01 189.121 444.812 188.271 444.812 187.308C444.812 186.345 445.004 185.5 445.39 184.775C445.786 184.038 446.336 183.472 447.039 183.075C447.753 182.678 448.569 182.48 449.487 182.48C450.371 182.48 451.158 182.673 451.85 183.058C452.541 183.443 453.079 183.987 453.465 184.69C453.85 185.381 454.043 186.18 454.043 187.087ZM452.02 186.475C452.008 185.761 451.753 185.189 451.255 184.758C450.756 184.327 450.138 184.112 449.402 184.112C448.733 184.112 448.161 184.327 447.685 184.758C447.209 185.177 446.925 185.75 446.835 186.475H452.02ZM58.049 208.48C58.7743 208.48 59.4147 208.627 59.97 208.922C60.5367 209.205 60.9787 209.562 61.296 209.993V208.633H63.251V218.153C63.251 219.014 63.0697 219.779 62.707 220.448C62.3443 221.128 61.8173 221.661 61.126 222.046C60.446 222.431 59.63 222.624 58.678 222.624C57.4087 222.624 56.3547 222.324 55.516 221.723C54.6773 221.134 54.2013 220.329 54.088 219.309H56.009C56.1563 219.796 56.468 220.187 56.944 220.482C57.4313 220.788 58.0093 220.941 58.678 220.941C59.46 220.941 60.089 220.703 60.565 220.227C61.0523 219.751 61.296 219.06 61.296 218.153V216.589C60.9673 217.031 60.5197 217.405 59.953 217.711C59.3977 218.006 58.763 218.153 58.049 218.153C57.233 218.153 56.485 217.949 55.805 217.541C55.1363 217.122 54.6037 216.544 54.207 215.807C53.8217 215.059 53.629 214.215 53.629 213.274C53.629 212.333 53.8217 211.5 54.207 210.775C54.6037 210.05 55.1363 209.489 55.805 209.092C56.485 208.684 57.233 208.48 58.049 208.48ZM61.296 213.308C61.296 212.662 61.16 212.101 60.888 211.625C60.6273 211.149 60.2817 210.786 59.851 210.537C59.4203 210.288 58.9557 210.163 58.457 210.163C57.9583 210.163 57.4937 210.288 57.063 210.537C56.6323 210.775 56.281 211.132 56.009 211.608C55.7483 212.073 55.618 212.628 55.618 213.274C55.618 213.92 55.7483 214.487 56.009 214.974C56.281 215.461 56.6323 215.835 57.063 216.096C57.505 216.345 57.9697 216.47 58.457 216.47C58.9557 216.47 59.4203 216.345 59.851 216.096C60.2817 215.847 60.6273 215.484 60.888 215.008C61.16 214.521 61.296 213.954 61.296 213.308ZM74.2795 208.633V218H72.3415V216.895C72.0355 217.28 71.6332 217.586 71.1345 217.813C70.6472 218.028 70.1258 218.136 69.5705 218.136C68.8338 218.136 68.1708 217.983 67.5815 217.677C67.0035 217.371 66.5445 216.918 66.2045 216.317C65.8758 215.716 65.7115 214.991 65.7115 214.141V208.633H67.6325V213.852C67.6325 214.691 67.8422 215.337 68.2615 215.79C68.6808 216.232 69.2532 216.453 69.9785 216.453C70.7038 216.453 71.2762 216.232 71.6955 215.79C72.1262 215.337 72.3415 214.691 72.3415 213.852V208.633H74.2795ZM77.8225 207.392C77.4712 207.392 77.1765 207.273 76.9385 207.035C76.7005 206.797 76.5815 206.502 76.5815 206.151C76.5815 205.8 76.7005 205.505 76.9385 205.267C77.1765 205.029 77.4712 204.91 77.8225 204.91C78.1625 204.91 78.4515 205.029 78.6895 205.267C78.9275 205.505 79.0465 205.8 79.0465 206.151C79.0465 206.502 78.9275 206.797 78.6895 207.035C78.4515 207.273 78.1625 207.392 77.8225 207.392ZM78.7745 208.633V218H76.8365V208.633H78.7745ZM80.6729 213.274C80.6729 212.333 80.8656 211.5 81.2509 210.775C81.6476 210.05 82.1803 209.489 82.8489 209.092C83.5289 208.684 84.2769 208.48 85.0929 208.48C85.8296 208.48 86.4699 208.627 87.0139 208.922C87.5693 209.205 88.0113 209.562 88.3399 209.993V208.633H90.2949V218H88.3399V216.606C88.0113 217.048 87.5636 217.416 86.9969 217.711C86.4303 218.006 85.7843 218.153 85.0589 218.153C84.2543 218.153 83.5176 217.949 82.8489 217.541C82.1803 217.122 81.6476 216.544 81.2509 215.807C80.8656 215.059 80.6729 214.215 80.6729 213.274ZM88.3399 213.308C88.3399 212.662 88.2039 212.101 87.9319 211.625C87.6713 211.149 87.3256 210.786 86.8949 210.537C86.4643 210.288 85.9996 210.163 85.5009 210.163C85.0023 210.163 84.5376 210.288 84.1069 210.537C83.6763 210.775 83.3249 211.132 83.0529 211.608C82.7923 212.073 82.6619 212.628 82.6619 213.274C82.6619 213.92 82.7923 214.487 83.0529 214.974C83.3249 215.461 83.6763 215.835 84.1069 216.096C84.5489 216.345 85.0136 216.47 85.5009 216.47C85.9996 216.47 86.4643 216.345 86.8949 216.096C87.3256 215.847 87.6713 215.484 87.9319 215.008C88.2039 214.521 88.3399 213.954 88.3399 213.308ZM101.982 208.48C102.719 208.48 103.376 208.633 103.954 208.939C104.544 209.245 105.003 209.698 105.331 210.299C105.66 210.9 105.824 211.625 105.824 212.475V218H103.903V212.764C103.903 211.925 103.694 211.285 103.274 210.843C102.855 210.39 102.283 210.163 101.557 210.163C100.832 210.163 100.254 210.39 99.8234 210.843C99.4041 211.285 99.1944 211.925 99.1944 212.764V218H97.2564V208.633H99.1944V209.704C99.5118 209.319 99.9141 209.018 100.401 208.803C100.9 208.588 101.427 208.48 101.982 208.48ZM112.359 218.153C111.475 218.153 110.676 217.955 109.962 217.558C109.248 217.15 108.687 216.583 108.279 215.858C107.871 215.121 107.667 214.271 107.667 213.308C107.667 212.356 107.877 211.512 108.296 210.775C108.716 210.038 109.288 209.472 110.013 209.075C110.739 208.678 111.549 208.48 112.444 208.48C113.34 208.48 114.15 208.678 114.875 209.075C115.601 209.472 116.173 210.038 116.592 210.775C117.012 211.512 117.221 212.356 117.221 213.308C117.221 214.26 117.006 215.104 116.575 215.841C116.145 216.578 115.555 217.15 114.807 217.558C114.071 217.955 113.255 218.153 112.359 218.153ZM112.359 216.47C112.858 216.47 113.323 216.351 113.753 216.113C114.195 215.875 114.552 215.518 114.824 215.042C115.096 214.566 115.232 213.988 115.232 213.308C115.232 212.628 115.102 212.056 114.841 211.591C114.581 211.115 114.235 210.758 113.804 210.52C113.374 210.282 112.909 210.163 112.41 210.163C111.912 210.163 111.447 210.282 111.016 210.52C110.597 210.758 110.263 211.115 110.013 211.591C109.764 212.056 109.639 212.628 109.639 213.308C109.639 214.317 109.894 215.099 110.404 215.654C110.926 216.198 111.577 216.47 112.359 216.47ZM122.537 218.153C121.801 218.153 121.138 218.023 120.548 217.762C119.97 217.49 119.511 217.127 119.171 216.674C118.831 216.209 118.65 215.694 118.627 215.127H120.633C120.667 215.524 120.854 215.858 121.194 216.13C121.546 216.391 121.982 216.521 122.503 216.521C123.047 216.521 123.467 216.419 123.761 216.215C124.067 216 124.22 215.728 124.22 215.399C124.22 215.048 124.05 214.787 123.71 214.617C123.382 214.447 122.855 214.26 122.129 214.056C121.427 213.863 120.854 213.676 120.412 213.495C119.97 213.314 119.585 213.036 119.256 212.662C118.939 212.288 118.78 211.795 118.78 211.183C118.78 210.684 118.928 210.231 119.222 209.823C119.517 209.404 119.936 209.075 120.48 208.837C121.036 208.599 121.67 208.48 122.384 208.48C123.45 208.48 124.305 208.752 124.951 209.296C125.609 209.829 125.96 210.56 126.005 211.489H124.067C124.033 211.07 123.863 210.735 123.557 210.486C123.251 210.237 122.838 210.112 122.316 210.112C121.806 210.112 121.415 210.208 121.143 210.401C120.871 210.594 120.735 210.849 120.735 211.166C120.735 211.415 120.826 211.625 121.007 211.795C121.189 211.965 121.41 212.101 121.67 212.203C121.931 212.294 122.316 212.413 122.826 212.56C123.506 212.741 124.062 212.928 124.492 213.121C124.934 213.302 125.314 213.574 125.631 213.937C125.949 214.3 126.113 214.781 126.124 215.382C126.124 215.915 125.977 216.391 125.682 216.81C125.388 217.229 124.968 217.558 124.424 217.796C123.892 218.034 123.263 218.153 122.537 218.153ZM131.618 218.153C130.882 218.153 130.219 218.023 129.629 217.762C129.051 217.49 128.592 217.127 128.252 216.674C127.912 216.209 127.731 215.694 127.708 215.127H129.714C129.748 215.524 129.935 215.858 130.275 216.13C130.627 216.391 131.063 216.521 131.584 216.521C132.128 216.521 132.548 216.419 132.842 216.215C133.148 216 133.301 215.728 133.301 215.399C133.301 215.048 133.131 214.787 132.791 214.617C132.463 214.447 131.936 214.26 131.21 214.056C130.508 213.863 129.935 213.676 129.493 213.495C129.051 213.314 128.666 213.036 128.337 212.662C128.02 212.288 127.861 211.795 127.861 211.183C127.861 210.684 128.009 210.231 128.303 209.823C128.598 209.404 129.017 209.075 129.561 208.837C130.117 208.599 130.751 208.48 131.465 208.48C132.531 208.48 133.386 208.752 134.032 209.296C134.69 209.829 135.041 210.56 135.086 211.489H133.148C133.114 211.07 132.944 210.735 132.638 210.486C132.332 210.237 131.919 210.112 131.397 210.112C130.887 210.112 130.496 210.208 130.224 210.401C129.952 210.594 129.816 210.849 129.816 211.166C129.816 211.415 129.907 211.625 130.088 211.795C130.27 211.965 130.491 212.101 130.751 212.203C131.012 212.294 131.397 212.413 131.907 212.56C132.587 212.741 133.143 212.928 133.573 213.121C134.015 213.302 134.395 213.574 134.712 213.937C135.03 214.3 135.194 214.781 135.205 215.382C135.205 215.915 135.058 216.391 134.763 216.81C134.469 217.229 134.049 217.558 133.505 217.796C132.973 218.034 132.344 218.153 131.618 218.153ZM141.362 218.153C140.478 218.153 139.679 217.955 138.965 217.558C138.251 217.15 137.69 216.583 137.282 215.858C136.874 215.121 136.67 214.271 136.67 213.308C136.67 212.356 136.88 211.512 137.299 210.775C137.719 210.038 138.291 209.472 139.016 209.075C139.742 208.678 140.552 208.48 141.447 208.48C142.343 208.48 143.153 208.678 143.878 209.075C144.604 209.472 145.176 210.038 145.595 210.775C146.015 211.512 146.224 212.356 146.224 213.308C146.224 214.26 146.009 215.104 145.578 215.841C145.148 216.578 144.558 217.15 143.81 217.558C143.074 217.955 142.258 218.153 141.362 218.153ZM141.362 216.47C141.861 216.47 142.326 216.351 142.756 216.113C143.198 215.875 143.555 215.518 143.827 215.042C144.099 214.566 144.235 213.988 144.235 213.308C144.235 212.628 144.105 212.056 143.844 211.591C143.584 211.115 143.238 210.758 142.807 210.52C142.377 210.282 141.912 210.163 141.413 210.163C140.915 210.163 140.45 210.282 140.019 210.52C139.6 210.758 139.266 211.115 139.016 211.591C138.767 212.056 138.642 212.628 138.642 213.308C138.642 214.317 138.897 215.099 139.407 215.654C139.929 216.198 140.58 216.47 141.362 216.47ZM151.91 213.308C151.91 212.345 152.103 211.5 152.488 210.775C152.885 210.038 153.429 209.472 154.12 209.075C154.812 208.678 155.605 208.48 156.5 208.48C157.634 208.48 158.569 208.752 159.305 209.296C160.053 209.829 160.558 210.594 160.818 211.591H158.727C158.557 211.126 158.285 210.764 157.911 210.503C157.537 210.242 157.067 210.112 156.5 210.112C155.707 210.112 155.072 210.395 154.596 210.962C154.132 211.517 153.899 212.299 153.899 213.308C153.899 214.317 154.132 215.104 154.596 215.671C155.072 216.238 155.707 216.521 156.5 216.521C157.622 216.521 158.365 216.028 158.727 215.042H160.818C160.546 215.994 160.036 216.753 159.288 217.32C158.54 217.875 157.611 218.153 156.5 218.153C155.605 218.153 154.812 217.955 154.12 217.558C153.429 217.15 152.885 216.583 152.488 215.858C152.103 215.121 151.91 214.271 151.91 213.308ZM162.104 213.274C162.104 212.333 162.296 211.5 162.682 210.775C163.078 210.05 163.611 209.489 164.28 209.092C164.96 208.684 165.708 208.48 166.524 208.48C167.26 208.48 167.901 208.627 168.445 208.922C169 209.205 169.442 209.562 169.771 209.993V208.633H171.726V218H169.771V216.606C169.442 217.048 168.994 217.416 168.428 217.711C167.861 218.006 167.215 218.153 166.49 218.153C165.685 218.153 164.948 217.949 164.28 217.541C163.611 217.122 163.078 216.544 162.682 215.807C162.296 215.059 162.104 214.215 162.104 213.274ZM169.771 213.308C169.771 212.662 169.635 212.101 169.363 211.625C169.102 211.149 168.756 210.786 168.326 210.537C167.895 210.288 167.43 210.163 166.932 210.163C166.433 210.163 165.968 210.288 165.538 210.537C165.107 210.775 164.756 211.132 164.484 211.608C164.223 212.073 164.093 212.628 164.093 213.274C164.093 213.92 164.223 214.487 164.484 214.974C164.756 215.461 165.107 215.835 165.538 216.096C165.98 216.345 166.444 216.47 166.932 216.47C167.43 216.47 167.895 216.345 168.326 216.096C168.756 215.847 169.102 215.484 169.363 215.008C169.635 214.521 169.771 213.954 169.771 213.308ZM185.61 208.48C186.347 208.48 187.004 208.633 187.582 208.939C188.171 209.245 188.63 209.698 188.959 210.299C189.299 210.9 189.469 211.625 189.469 212.475V218H187.548V212.764C187.548 211.925 187.338 211.285 186.919 210.843C186.5 210.39 185.927 210.163 185.202 210.163C184.477 210.163 183.899 210.39 183.468 210.843C183.049 211.285 182.839 211.925 182.839 212.764V218H180.918V212.764C180.918 211.925 180.708 211.285 180.289 210.843C179.87 210.39 179.297 210.163 178.572 210.163C177.847 210.163 177.269 210.39 176.838 210.843C176.419 211.285 176.209 211.925 176.209 212.764V218H174.271V208.633H176.209V209.704C176.526 209.319 176.929 209.018 177.416 208.803C177.903 208.588 178.425 208.48 178.98 208.48C179.728 208.48 180.397 208.639 180.986 208.956C181.575 209.273 182.029 209.732 182.346 210.333C182.629 209.766 183.071 209.319 183.672 208.99C184.273 208.65 184.919 208.48 185.61 208.48ZM192.921 207.392C192.57 207.392 192.275 207.273 192.037 207.035C191.799 206.797 191.68 206.502 191.68 206.151C191.68 205.8 191.799 205.505 192.037 205.267C192.275 205.029 192.57 204.91 192.921 204.91C193.261 204.91 193.55 205.029 193.788 205.267C194.026 205.505 194.145 205.8 194.145 206.151C194.145 206.502 194.026 206.797 193.788 207.035C193.55 207.273 193.261 207.392 192.921 207.392ZM193.873 208.633V218H191.935V208.633H193.873ZM201.144 208.48C201.88 208.48 202.538 208.633 203.116 208.939C203.705 209.245 204.164 209.698 204.493 210.299C204.821 210.9 204.986 211.625 204.986 212.475V218H203.065V212.764C203.065 211.925 202.855 211.285 202.436 210.843C202.016 210.39 201.444 210.163 200.719 210.163C199.993 210.163 199.415 210.39 198.985 210.843C198.565 211.285 198.356 211.925 198.356 212.764V218H196.418V208.633H198.356V209.704C198.673 209.319 199.075 209.018 199.563 208.803C200.061 208.588 200.588 208.48 201.144 208.48ZM212.303 208.48C213.017 208.48 213.651 208.633 214.207 208.939C214.773 209.245 215.215 209.698 215.533 210.299C215.861 210.9 216.026 211.625 216.026 212.475V218H214.105V212.764C214.105 211.925 213.895 211.285 213.476 210.843C213.056 210.39 212.484 210.163 211.759 210.163C211.033 210.163 210.455 210.39 210.025 210.843C209.605 211.285 209.396 211.925 209.396 212.764V218H207.458V205.42H209.396V209.721C209.724 209.324 210.138 209.018 210.637 208.803C211.147 208.588 211.702 208.48 212.303 208.48ZM222.561 218.153C221.677 218.153 220.878 217.955 220.164 217.558C219.45 217.15 218.889 216.583 218.481 215.858C218.073 215.121 217.869 214.271 217.869 213.308C217.869 212.356 218.078 211.512 218.498 210.775C218.917 210.038 219.489 209.472 220.215 209.075C220.94 208.678 221.75 208.48 222.646 208.48C223.541 208.48 224.351 208.678 225.077 209.075C225.802 209.472 226.374 210.038 226.794 210.775C227.213 211.512 227.423 212.356 227.423 213.308C227.423 214.26 227.207 215.104 226.777 215.841C226.346 216.578 225.757 217.15 225.009 217.558C224.272 217.955 223.456 218.153 222.561 218.153ZM222.561 216.47C223.059 216.47 223.524 216.351 223.955 216.113C224.397 215.875 224.754 215.518 225.026 215.042C225.298 214.566 225.434 213.988 225.434 213.308C225.434 212.628 225.303 212.056 225.043 211.591C224.782 211.115 224.436 210.758 224.006 210.52C223.575 210.282 223.11 210.163 222.612 210.163C222.113 210.163 221.648 210.282 221.218 210.52C220.798 210.758 220.464 211.115 220.215 211.591C219.965 212.056 219.841 212.628 219.841 213.308C219.841 214.317 220.096 215.099 220.606 215.654C221.127 216.198 221.779 216.47 222.561 216.47ZM230.12 218.119C229.769 218.119 229.474 218 229.236 217.762C228.998 217.524 228.879 217.229 228.879 216.878C228.879 216.527 228.998 216.232 229.236 215.994C229.474 215.756 229.769 215.637 230.12 215.637C230.46 215.637 230.749 215.756 230.987 215.994C231.225 216.232 231.344 216.527 231.344 216.878C231.344 217.229 231.225 217.524 230.987 217.762C230.749 218 230.46 218.119 230.12 218.119Z" fill="#6B0015"/>
<path d="M59.69 118.11C60.49 118.11 61.35 118.03 62.27 117.87C63.21 117.71 64.04 117.5 64.76 117.24V122.16C63.66 122.6 62.66 122.9 61.76 123.06C60.88 123.24 59.95 123.33 58.97 123.33C57.17 123.33 55.74 123.14 54.68 122.76C53.64 122.36 52.81 121.73 52.19 120.87C51.67 120.11 51.28 119.13 51.02 117.93C50.76 116.73 50.63 115.28 50.63 113.58C50.63 110.24 51.37 107.79 52.85 106.23C54.33 104.67 56.69 103.89 59.93 103.89C60.85 103.89 61.67 103.91 62.39 103.95C63.11 103.99 63.76 104.06 64.34 104.16V109.05C63.7 109.01 63.03 108.98 62.33 108.96C61.63 108.94 60.85 108.93 59.99 108.93C58.53 108.93 57.57 109.26 57.11 109.92C56.65 110.56 56.42 111.78 56.42 113.58C56.42 115.28 56.63 116.46 57.05 117.12C57.49 117.78 58.37 118.11 59.69 118.11ZM80.8051 115.59C80.8051 118.37 80.2251 120.36 79.0651 121.56C77.9051 122.74 75.9751 123.33 73.2751 123.33C70.6151 123.33 68.6951 122.73 67.5151 121.53C66.3551 120.31 65.7751 118.33 65.7751 115.59C65.7751 112.83 66.3451 110.86 67.4851 109.68C68.6451 108.48 70.5751 107.88 73.2751 107.88C75.9551 107.88 77.8751 108.48 79.0351 109.68C80.2151 110.88 80.8051 112.85 80.8051 115.59ZM71.1751 115.53C71.1751 116.69 71.3051 117.45 71.5651 117.81C71.8251 118.15 72.3951 118.32 73.2751 118.32C74.1751 118.32 74.7551 118.15 75.0151 117.81C75.2751 117.45 75.4051 116.69 75.4051 115.53C75.4051 114.37 75.2751 113.62 75.0151 113.28C74.7551 112.92 74.1751 112.74 73.2751 112.74C72.3951 112.74 71.8251 112.92 71.5651 113.28C71.3051 113.62 71.1751 114.37 71.1751 115.53ZM87.797 123H82.397V108.18H87.437L87.617 109.32H87.677C88.297 108.86 88.907 108.51 89.507 108.27C90.127 108.03 90.727 107.91 91.307 107.91H91.817V113.13C91.357 113.09 91.047 113.07 90.887 113.07C90.747 113.05 90.597 113.04 90.437 113.04C89.937 113.04 89.467 113.07 89.027 113.13C88.587 113.19 88.177 113.28 87.797 113.4V123ZM96.0437 123.33C94.6037 123.33 93.5537 122.95 92.8937 122.19C92.2337 121.43 91.9037 120.24 91.9037 118.62C91.9037 117.02 92.3137 115.88 93.1337 115.2C93.9737 114.52 95.3637 114.18 97.3037 114.18C97.7637 114.18 98.2237 114.2 98.6837 114.24C99.1637 114.28 99.5837 114.33 99.9437 114.39V113.64C99.9437 113.24 99.7537 112.96 99.3737 112.8C98.9937 112.62 98.3737 112.53 97.5137 112.53C96.6937 112.53 95.9437 112.55 95.2637 112.59C94.6037 112.63 93.9337 112.71 93.2537 112.83V108.42C93.9937 108.24 94.8837 108.11 95.9237 108.03C96.9837 107.93 98.1937 107.88 99.5537 107.88C101.434 107.88 102.864 108.3 103.844 109.14C104.844 109.96 105.344 111.17 105.344 112.77V123H100.244L100.094 121.83H100.004C99.4037 122.33 98.7637 122.71 98.0837 122.97C97.4237 123.21 96.7437 123.33 96.0437 123.33ZM98.1737 117.24C97.6537 117.24 97.2837 117.32 97.0637 117.48C96.8637 117.62 96.7637 117.89 96.7637 118.29C96.7637 118.69 96.8437 118.97 97.0037 119.13C97.1837 119.27 97.4837 119.34 97.9037 119.34C98.2437 119.34 98.5937 119.31 98.9537 119.25C99.3337 119.17 99.6637 119.07 99.9437 118.95V117.36C99.6637 117.32 99.3737 117.29 99.0737 117.27C98.7937 117.25 98.4937 117.24 98.1737 117.24ZM117.529 126.27C117.529 127.13 117.229 127.77 116.629 128.19C116.029 128.63 115.129 128.85 113.929 128.85C113.349 128.85 112.739 128.81 112.099 128.73C111.479 128.67 111.079 128.6 110.899 128.52V126.36C111.139 126.42 111.489 126.48 111.949 126.54C112.409 126.6 112.809 126.63 113.149 126.63C113.489 126.63 113.729 126.58 113.869 126.48C114.009 126.4 114.079 126.24 114.079 126C114.079 125.8 113.979 125.65 113.779 125.55C113.599 125.45 113.299 125.4 112.879 125.4C112.699 125.4 112.449 125.41 112.129 125.43C111.829 125.45 111.589 125.46 111.409 125.46L111.859 123.3C110.039 123.16 108.749 122.51 107.989 121.35C107.249 120.19 106.879 118.27 106.879 115.59C106.879 112.71 107.439 110.71 108.559 109.59C109.699 108.45 111.699 107.88 114.559 107.88C115.159 107.88 115.709 107.9 116.209 107.94C116.709 107.96 117.379 108.02 118.219 108.12V112.86C118.199 112.86 117.799 112.84 117.019 112.8C116.239 112.76 115.439 112.74 114.619 112.74C113.599 112.74 112.949 112.9 112.669 113.22C112.409 113.54 112.279 114.33 112.279 115.59C112.279 116.73 112.399 117.47 112.639 117.81C112.879 118.13 113.399 118.29 114.199 118.29C114.939 118.29 115.709 118.24 116.509 118.14C117.309 118.04 118.009 117.92 118.609 117.78V122.22C118.309 122.42 117.839 122.61 117.199 122.79C116.579 122.95 115.889 123.08 115.129 123.18L114.949 124.14C115.729 124.14 116.349 124.33 116.809 124.71C117.289 125.09 117.529 125.61 117.529 126.27ZM123.612 123.33C122.172 123.33 121.122 122.95 120.462 122.19C119.802 121.43 119.472 120.24 119.472 118.62C119.472 117.02 119.882 115.88 120.702 115.2C121.542 114.52 122.932 114.18 124.872 114.18C125.332 114.18 125.792 114.2 126.252 114.24C126.732 114.28 127.152 114.33 127.512 114.39V113.64C127.512 113.24 127.322 112.96 126.942 112.8C126.562 112.62 125.942 112.53 125.082 112.53C124.262 112.53 123.512 112.55 122.832 112.59C122.172 112.63 121.502 112.71 120.822 112.83V108.42C121.562 108.24 122.452 108.11 123.492 108.03C124.552 107.93 125.762 107.88 127.122 107.88C129.002 107.88 130.432 108.3 131.412 109.14C132.412 109.96 132.912 111.17 132.912 112.77V123H127.812L127.662 121.83H127.572C126.972 122.33 126.332 122.71 125.652 122.97C124.992 123.21 124.312 123.33 123.612 123.33ZM125.742 117.24C125.222 117.24 124.852 117.32 124.632 117.48C124.432 117.62 124.332 117.89 124.332 118.29C124.332 118.69 124.412 118.97 124.572 119.13C124.752 119.27 125.052 119.34 125.472 119.34C125.812 119.34 126.162 119.31 126.522 119.25C126.902 119.17 127.232 119.07 127.512 118.95V117.36C127.232 117.32 126.942 117.29 126.642 117.27C126.362 117.25 126.062 117.24 125.742 117.24ZM128.532 102.63H131.292C131.292 103.97 131.072 105.01 130.632 105.75C130.212 106.49 129.592 106.86 128.772 106.86C128.492 106.86 128.182 106.81 127.842 106.71C127.522 106.59 127.062 106.36 126.462 106.02C126.122 105.82 125.882 105.69 125.742 105.63C125.602 105.57 125.482 105.54 125.382 105.54C125.202 105.54 125.072 105.64 124.992 105.84C124.912 106.02 124.872 106.32 124.872 106.74H122.082C122.082 105.4 122.292 104.36 122.712 103.62C123.152 102.88 123.782 102.51 124.602 102.51C124.882 102.51 125.182 102.56 125.502 102.66C125.822 102.76 126.272 102.97 126.852 103.29C127.212 103.47 127.462 103.59 127.602 103.65C127.762 103.71 127.892 103.74 127.992 103.74C128.172 103.74 128.302 103.65 128.382 103.47C128.482 103.29 128.532 103.01 128.532 102.63ZM149.448 115.59C149.448 118.37 148.868 120.36 147.708 121.56C146.548 122.74 144.618 123.33 141.918 123.33C139.258 123.33 137.338 122.73 136.158 121.53C134.998 120.31 134.418 118.33 134.418 115.59C134.418 112.83 134.988 110.86 136.128 109.68C137.288 108.48 139.218 107.88 141.918 107.88C144.598 107.88 146.518 108.48 147.678 109.68C148.858 110.88 149.448 112.85 149.448 115.59ZM139.818 115.53C139.818 116.69 139.948 117.45 140.208 117.81C140.468 118.15 141.038 118.32 141.918 118.32C142.818 118.32 143.398 118.15 143.658 117.81C143.918 117.45 144.048 116.69 144.048 115.53C144.048 114.37 143.918 113.62 143.658 113.28C143.398 112.92 142.818 112.74 141.918 112.74C141.038 112.74 140.468 112.92 140.208 113.28C139.948 113.62 139.818 114.37 139.818 115.53ZM165.55 116.07H162.91V111.9H170.62V122.16C169.86 122.48 168.82 122.76 167.5 123C166.2 123.22 164.92 123.33 163.66 123.33C160.38 123.33 158.08 122.58 156.76 121.08C155.44 119.56 154.78 117.06 154.78 113.58C154.78 110.22 155.53 107.77 157.03 106.23C158.53 104.67 160.92 103.89 164.2 103.89C165.36 103.89 166.4 103.92 167.32 103.98C168.24 104.04 169 104.12 169.6 104.22V109.08C168.76 109.04 167.89 109.01 166.99 108.99C166.09 108.95 165.18 108.93 164.26 108.93C162.72 108.93 161.71 109.26 161.23 109.92C160.77 110.56 160.54 111.78 160.54 113.58C160.54 115.44 160.76 116.72 161.2 117.42C161.64 118.1 162.54 118.44 163.9 118.44C164.16 118.44 164.43 118.43 164.71 118.41C164.99 118.39 165.27 118.37 165.55 118.35V116.07ZM185.056 118.17V122.28C184.496 122.56 183.626 122.8 182.446 123C181.286 123.22 180.076 123.33 178.816 123.33C176.396 123.33 174.646 122.73 173.566 121.53C172.506 120.31 171.976 118.34 171.976 115.62C171.976 112.96 172.546 111.01 173.686 109.77C174.846 108.51 176.646 107.88 179.086 107.88C181.446 107.88 183.136 108.35 184.156 109.29C185.176 110.21 185.686 111.79 185.686 114.03C185.686 114.71 185.676 115.26 185.656 115.68C185.636 116.08 185.596 116.54 185.536 117.06H177.316C177.336 117.7 177.516 118.14 177.856 118.38C178.196 118.6 178.806 118.71 179.686 118.71C180.646 118.71 181.626 118.66 182.626 118.56C183.646 118.44 184.456 118.31 185.056 118.17ZM179.146 112.14C178.466 112.14 177.986 112.28 177.706 112.56C177.446 112.82 177.316 113.35 177.316 114.15H180.886V113.46C180.846 112.94 180.706 112.59 180.466 112.41C180.246 112.23 179.806 112.14 179.146 112.14ZM192.709 123H187.309V108.18H191.959L192.169 109.74H192.289C192.889 109.1 193.549 108.63 194.269 108.33C194.989 108.03 195.839 107.88 196.819 107.88C198.379 107.88 199.559 108.29 200.359 109.11C201.159 109.93 201.559 111.14 201.559 112.74V123H196.159V113.85C196.159 113.49 196.029 113.22 195.769 113.04C195.529 112.84 195.159 112.74 194.659 112.74C194.319 112.74 193.989 112.78 193.669 112.86C193.349 112.92 193.029 113.02 192.709 113.16V123ZM216.17 118.17V122.28C215.61 122.56 214.74 122.8 213.56 123C212.4 123.22 211.19 123.33 209.93 123.33C207.51 123.33 205.76 122.73 204.68 121.53C203.62 120.31 203.09 118.34 203.09 115.62C203.09 112.96 203.66 111.01 204.8 109.77C205.96 108.51 207.76 107.88 210.2 107.88C212.56 107.88 214.25 108.35 215.27 109.29C216.29 110.21 216.8 111.79 216.8 114.03C216.8 114.71 216.79 115.26 216.77 115.68C216.75 116.08 216.71 116.54 216.65 117.06H208.43C208.45 117.7 208.63 118.14 208.97 118.38C209.31 118.6 209.92 118.71 210.8 118.71C211.76 118.71 212.74 118.66 213.74 118.56C214.76 118.44 215.57 118.31 216.17 118.17ZM210.26 112.14C209.58 112.14 209.1 112.28 208.82 112.56C208.56 112.82 208.43 113.35 208.43 114.15H212V113.46C211.96 112.94 211.82 112.59 211.58 112.41C211.36 112.23 210.92 112.14 210.26 112.14ZM223.822 123H218.422V108.18H223.462L223.642 109.32H223.702C224.322 108.86 224.932 108.51 225.532 108.27C226.152 108.03 226.752 107.91 227.332 107.91H227.842V113.13C227.382 113.09 227.072 113.07 226.912 113.07C226.772 113.05 226.622 113.04 226.462 113.04C225.962 113.04 225.492 113.07 225.052 113.13C224.612 113.19 224.202 113.28 223.822 113.4V123ZM243.579 115.59C243.579 118.37 242.999 120.36 241.839 121.56C240.679 122.74 238.749 123.33 236.049 123.33C233.389 123.33 231.469 122.73 230.289 121.53C229.129 120.31 228.549 118.33 228.549 115.59C228.549 112.83 229.119 110.86 230.259 109.68C231.419 108.48 233.349 107.88 236.049 107.88C238.729 107.88 240.649 108.48 241.809 109.68C242.989 110.88 243.579 112.85 243.579 115.59ZM233.949 115.53C233.949 116.69 234.079 117.45 234.339 117.81C234.599 118.15 235.169 118.32 236.049 118.32C236.949 118.32 237.529 118.15 237.789 117.81C238.049 117.45 238.179 116.69 238.179 115.53C238.179 114.37 238.049 113.62 237.789 113.28C237.529 112.92 236.949 112.74 236.049 112.74C235.169 112.74 234.599 112.92 234.339 113.28C234.079 113.62 233.949 114.37 233.949 115.53ZM251.5 112.05C250.8 112.05 250.33 112.1 250.09 112.2C249.85 112.3 249.73 112.5 249.73 112.8C249.73 112.96 249.77 113.08 249.85 113.16C249.95 113.24 250.09 113.29 250.27 113.31L253.45 113.7C254.77 113.86 255.67 114.25 256.15 114.87C256.65 115.49 256.9 116.5 256.9 117.9C256.9 119.78 256.43 121.16 255.49 122.04C254.57 122.9 253.02 123.33 250.84 123.33C249.66 123.33 248.57 123.27 247.57 123.15C246.59 123.05 245.78 122.91 245.14 122.73V118.41C245.94 118.59 246.79 118.73 247.69 118.83C248.59 118.93 249.44 118.98 250.24 118.98C250.92 118.98 251.37 118.92 251.59 118.8C251.83 118.68 251.95 118.45 251.95 118.11C251.95 117.99 251.91 117.89 251.83 117.81C251.75 117.71 251.63 117.65 251.47 117.63L247.96 117.21C246.8 117.05 245.96 116.64 245.44 115.98C244.94 115.32 244.69 114.33 244.69 113.01C244.69 111.29 245.23 110.01 246.31 109.17C247.41 108.31 249.04 107.88 251.2 107.88C252.18 107.88 253.07 107.91 253.87 107.97C254.67 108.01 255.37 108.08 255.97 108.18V112.38C255.29 112.28 254.55 112.2 253.75 112.14C252.95 112.08 252.2 112.05 251.5 112.05ZM273.022 115.59C273.022 118.37 272.442 120.36 271.282 121.56C270.122 122.74 268.192 123.33 265.492 123.33C262.832 123.33 260.912 122.73 259.732 121.53C258.572 120.31 257.992 118.33 257.992 115.59C257.992 112.83 258.562 110.86 259.702 109.68C260.862 108.48 262.792 107.88 265.492 107.88C268.172 107.88 270.092 108.48 271.252 109.68C272.432 110.88 273.022 112.85 273.022 115.59ZM263.392 115.53C263.392 116.69 263.522 117.45 263.782 117.81C264.042 118.15 264.612 118.32 265.492 118.32C266.392 118.32 266.972 118.15 267.232 117.81C267.492 117.45 267.622 116.69 267.622 115.53C267.622 114.37 267.492 113.62 267.232 113.28C266.972 112.92 266.392 112.74 265.492 112.74C264.612 112.74 264.042 112.92 263.782 113.28C263.522 113.62 263.392 114.37 263.392 115.53Z" fill="#6B0015"/>
<path d="M83.88 152L81.836 148.29H81.262V152H78.868V142.172H82.886C83.6607 142.172 84.3187 142.307 84.86 142.578C85.4107 142.849 85.8213 143.222 86.092 143.698C86.3627 144.165 86.498 144.687 86.498 145.266C86.498 145.919 86.3113 146.503 85.938 147.016C85.574 147.529 85.0327 147.893 84.314 148.108L86.582 152H83.88ZM81.262 146.596H82.746C83.1847 146.596 83.5113 146.489 83.726 146.274C83.95 146.059 84.062 145.756 84.062 145.364C84.062 144.991 83.95 144.697 83.726 144.482C83.5113 144.267 83.1847 144.16 82.746 144.16H81.262V146.596ZM90.3948 144.09V146.078H93.6008V147.926H90.3948V150.082H94.0208V152H88.0008V142.172H94.0208V144.09H90.3948ZM99.131 152.098C98.4124 152.098 97.7684 151.981 97.199 151.748C96.6297 151.515 96.1724 151.169 95.827 150.712C95.491 150.255 95.3137 149.704 95.295 149.06H97.843C97.8804 149.424 98.0064 149.704 98.221 149.9C98.4357 150.087 98.7157 150.18 99.061 150.18C99.4157 150.18 99.6957 150.101 99.901 149.942C100.106 149.774 100.209 149.545 100.209 149.256C100.209 149.013 100.125 148.813 99.957 148.654C99.7984 148.495 99.5977 148.365 99.355 148.262C99.1217 148.159 98.7857 148.043 98.347 147.912C97.7124 147.716 97.1944 147.52 96.793 147.324C96.3917 147.128 96.0464 146.839 95.757 146.456C95.4677 146.073 95.323 145.574 95.323 144.958C95.323 144.043 95.6544 143.329 96.317 142.816C96.9797 142.293 97.843 142.032 98.907 142.032C99.9897 142.032 100.862 142.293 101.525 142.816C102.188 143.329 102.542 144.048 102.589 144.972H99.999C99.9804 144.655 99.8637 144.407 99.649 144.23C99.4344 144.043 99.159 143.95 98.823 143.95C98.5337 143.95 98.3004 144.029 98.123 144.188C97.9457 144.337 97.857 144.557 97.857 144.846C97.857 145.163 98.0064 145.411 98.305 145.588C98.6037 145.765 99.0704 145.957 99.705 146.162C100.34 146.377 100.853 146.582 101.245 146.778C101.646 146.974 101.992 147.259 102.281 147.632C102.57 148.005 102.715 148.486 102.715 149.074C102.715 149.634 102.57 150.143 102.281 150.6C102.001 151.057 101.59 151.421 101.049 151.692C100.508 151.963 99.8684 152.098 99.131 152.098ZM110.712 145.28C110.535 144.953 110.278 144.706 109.942 144.538C109.616 144.361 109.228 144.272 108.78 144.272C108.006 144.272 107.385 144.529 106.918 145.042C106.452 145.546 106.218 146.223 106.218 147.072C106.218 147.977 106.461 148.687 106.946 149.2C107.441 149.704 108.118 149.956 108.976 149.956C109.564 149.956 110.059 149.807 110.46 149.508C110.871 149.209 111.17 148.78 111.356 148.22H108.318V146.456H113.526V148.682C113.349 149.279 113.046 149.835 112.616 150.348C112.196 150.861 111.66 151.277 111.006 151.594C110.353 151.911 109.616 152.07 108.794 152.07C107.824 152.07 106.956 151.86 106.19 151.44C105.434 151.011 104.842 150.418 104.412 149.662C103.992 148.906 103.782 148.043 103.782 147.072C103.782 146.101 103.992 145.238 104.412 144.482C104.842 143.717 105.434 143.124 106.19 142.704C106.946 142.275 107.81 142.06 108.78 142.06C109.956 142.06 110.946 142.345 111.748 142.914C112.56 143.483 113.097 144.272 113.358 145.28H110.712ZM120.97 150.264H117.302L116.714 152H114.208L117.764 142.172H120.536L124.092 152H121.558L120.97 150.264ZM120.354 148.416L119.136 144.818L117.932 148.416H120.354ZM132.245 142.172V144.09H129.641V152H127.247V144.09H124.643V142.172H132.245ZM135.84 144.09V146.078H139.046V147.926H135.84V150.082H139.466V152H133.446V142.172H139.466V144.09H135.84ZM147.543 152.098C146.824 152.098 146.18 151.981 145.611 151.748C145.042 151.515 144.584 151.169 144.239 150.712C143.903 150.255 143.726 149.704 143.707 149.06H146.255C146.292 149.424 146.418 149.704 146.633 149.9C146.848 150.087 147.128 150.18 147.473 150.18C147.828 150.18 148.108 150.101 148.313 149.942C148.518 149.774 148.621 149.545 148.621 149.256C148.621 149.013 148.537 148.813 148.369 148.654C148.21 148.495 148.01 148.365 147.767 148.262C147.534 148.159 147.198 148.043 146.759 147.912C146.124 147.716 145.606 147.52 145.205 147.324C144.804 147.128 144.458 146.839 144.169 146.456C143.88 146.073 143.735 145.574 143.735 144.958C143.735 144.043 144.066 143.329 144.729 142.816C145.392 142.293 146.255 142.032 147.319 142.032C148.402 142.032 149.274 142.293 149.937 142.816C150.6 143.329 150.954 144.048 151.001 144.972H148.411C148.392 144.655 148.276 144.407 148.061 144.23C147.846 144.043 147.571 143.95 147.235 143.95C146.946 143.95 146.712 144.029 146.535 144.188C146.358 144.337 146.269 144.557 146.269 144.846C146.269 145.163 146.418 145.411 146.717 145.588C147.016 145.765 147.482 145.957 148.117 146.162C148.752 146.377 149.265 146.582 149.657 146.778C150.058 146.974 150.404 147.259 150.693 147.632C150.982 148.005 151.127 148.486 151.127 149.074C151.127 149.634 150.982 150.143 150.693 150.6C150.413 151.057 150.002 151.421 149.461 151.692C148.92 151.963 148.28 152.098 147.543 152.098ZM154.994 144.09V146.078H158.2V147.926H154.994V150.082H158.62V152H152.6V142.172H158.62V144.09H154.994ZM162.527 142.172V148.052C162.527 148.64 162.671 149.093 162.961 149.41C163.25 149.727 163.675 149.886 164.235 149.886C164.795 149.886 165.224 149.727 165.523 149.41C165.821 149.093 165.971 148.64 165.971 148.052V142.172H168.365V148.038C168.365 148.915 168.178 149.657 167.805 150.264C167.431 150.871 166.927 151.328 166.293 151.636C165.667 151.944 164.967 152.098 164.193 152.098C163.418 152.098 162.723 151.949 162.107 151.65C161.5 151.342 161.019 150.885 160.665 150.278C160.31 149.662 160.133 148.915 160.133 148.038V142.172H162.527ZM180.503 145.336C180.503 145.905 180.372 146.428 180.111 146.904C179.849 147.371 179.448 147.749 178.907 148.038C178.365 148.327 177.693 148.472 176.891 148.472H175.407V152H173.013V142.172H176.891C177.675 142.172 178.337 142.307 178.879 142.578C179.42 142.849 179.826 143.222 180.097 143.698C180.367 144.174 180.503 144.72 180.503 145.336ZM176.709 146.568C177.166 146.568 177.507 146.461 177.731 146.246C177.955 146.031 178.067 145.728 178.067 145.336C178.067 144.944 177.955 144.641 177.731 144.426C177.507 144.211 177.166 144.104 176.709 144.104H175.407V146.568H176.709ZM186.761 152L184.717 148.29H184.143V152H181.749V142.172H185.767C186.542 142.172 187.2 142.307 187.741 142.578C188.292 142.849 188.702 143.222 188.973 143.698C189.244 144.165 189.379 144.687 189.379 145.266C189.379 145.919 189.192 146.503 188.819 147.016C188.455 147.529 187.914 147.893 187.195 148.108L189.463 152H186.761ZM184.143 146.596H185.627C186.066 146.596 186.392 146.489 186.607 146.274C186.831 146.059 186.943 145.756 186.943 145.364C186.943 144.991 186.831 144.697 186.607 144.482C186.392 144.267 186.066 144.16 185.627 144.16H184.143V146.596ZM193.276 142.172V152H190.882V142.172H193.276ZM206.141 142.172V152H203.747V146.106L201.549 152H199.617L197.405 146.092V152H195.011V142.172H197.839L200.597 148.976L203.327 142.172H206.141ZM210.256 144.09V146.078H213.462V147.926H210.256V150.082H213.882V152H207.862V142.172H213.882V144.09H210.256ZM217.83 142.172V152H215.436V142.172H217.83ZM224.577 152L222.533 148.29H221.959V152H219.565V142.172H223.583C224.358 142.172 225.016 142.307 225.557 142.578C226.108 142.849 226.519 143.222 226.789 143.698C227.06 144.165 227.195 144.687 227.195 145.266C227.195 145.919 227.009 146.503 226.635 147.016C226.271 147.529 225.73 147.893 225.011 148.108L227.279 152H224.577ZM221.959 146.596H223.443C223.882 146.596 224.209 146.489 224.423 146.274C224.647 146.059 224.759 145.756 224.759 145.364C224.759 144.991 224.647 144.697 224.423 144.482C224.209 144.267 223.882 144.16 223.443 144.16H221.959V146.596ZM233.346 152.098C232.422 152.098 231.573 151.883 230.798 151.454C230.033 151.025 229.421 150.427 228.964 149.662C228.516 148.887 228.292 148.019 228.292 147.058C228.292 146.097 228.516 145.233 228.964 144.468C229.421 143.703 230.033 143.105 230.798 142.676C231.573 142.247 232.422 142.032 233.346 142.032C234.27 142.032 235.115 142.247 235.88 142.676C236.655 143.105 237.261 143.703 237.7 144.468C238.148 145.233 238.372 146.097 238.372 147.058C238.372 148.019 238.148 148.887 237.7 149.662C237.252 150.427 236.645 151.025 235.88 151.454C235.115 151.883 234.27 152.098 233.346 152.098ZM233.346 149.914C234.13 149.914 234.755 149.653 235.222 149.13C235.698 148.607 235.936 147.917 235.936 147.058C235.936 146.19 235.698 145.499 235.222 144.986C234.755 144.463 234.13 144.202 233.346 144.202C232.553 144.202 231.918 144.459 231.442 144.972C230.975 145.485 230.742 146.181 230.742 147.058C230.742 147.926 230.975 148.621 231.442 149.144C231.918 149.657 232.553 149.914 233.346 149.914ZM242.265 147.072C242.265 146.101 242.475 145.238 242.895 144.482C243.315 143.717 243.898 143.124 244.645 142.704C245.401 142.275 246.255 142.06 247.207 142.06C248.373 142.06 249.372 142.368 250.203 142.984C251.033 143.6 251.589 144.44 251.869 145.504H249.237C249.041 145.093 248.761 144.781 248.397 144.566C248.042 144.351 247.636 144.244 247.179 144.244C246.441 144.244 245.844 144.501 245.387 145.014C244.929 145.527 244.701 146.213 244.701 147.072C244.701 147.931 244.929 148.617 245.387 149.13C245.844 149.643 246.441 149.9 247.179 149.9C247.636 149.9 248.042 149.793 248.397 149.578C248.761 149.363 249.041 149.051 249.237 148.64H251.869C251.589 149.704 251.033 150.544 250.203 151.16C249.372 151.767 248.373 152.07 247.207 152.07C246.255 152.07 245.401 151.86 244.645 151.44C243.898 151.011 243.315 150.418 242.895 149.662C242.475 148.906 242.265 148.043 242.265 147.072ZM255.687 142.172V148.052C255.687 148.64 255.831 149.093 256.121 149.41C256.41 149.727 256.835 149.886 257.395 149.886C257.955 149.886 258.384 149.727 258.683 149.41C258.981 149.093 259.131 148.64 259.131 148.052V142.172H261.525V148.038C261.525 148.915 261.338 149.657 260.965 150.264C260.591 150.871 260.087 151.328 259.453 151.636C258.827 151.944 258.127 152.098 257.353 152.098C256.578 152.098 255.883 151.949 255.267 151.65C254.66 151.342 254.179 150.885 253.825 150.278C253.47 149.662 253.293 148.915 253.293 148.038V142.172H255.687ZM270.696 145.336C270.696 145.905 270.565 146.428 270.304 146.904C270.043 147.371 269.641 147.749 269.1 148.038C268.559 148.327 267.887 148.472 267.084 148.472H265.6V152H263.206V142.172H267.084C267.868 142.172 268.531 142.307 269.072 142.578C269.613 142.849 270.019 143.222 270.29 143.698C270.561 144.174 270.696 144.72 270.696 145.336ZM266.902 146.568C267.359 146.568 267.7 146.461 267.924 146.246C268.148 146.031 268.26 145.728 268.26 145.336C268.26 144.944 268.148 144.641 267.924 144.426C267.7 144.211 267.359 144.104 266.902 144.104H265.6V146.568H266.902ZM276.59 152.098C275.666 152.098 274.817 151.883 274.042 151.454C273.277 151.025 272.666 150.427 272.208 149.662C271.76 148.887 271.536 148.019 271.536 147.058C271.536 146.097 271.76 145.233 272.208 144.468C272.666 143.703 273.277 143.105 274.042 142.676C274.817 142.247 275.666 142.032 276.59 142.032C277.514 142.032 278.359 142.247 279.124 142.676C279.899 143.105 280.506 143.703 280.944 144.468C281.392 145.233 281.616 146.097 281.616 147.058C281.616 148.019 281.392 148.887 280.944 149.662C280.496 150.427 279.89 151.025 279.124 151.454C278.359 151.883 277.514 152.098 276.59 152.098ZM276.59 149.914C277.374 149.914 278 149.653 278.466 149.13C278.942 148.607 279.18 147.917 279.18 147.058C279.18 146.19 278.942 145.499 278.466 144.986C278 144.463 277.374 144.202 276.59 144.202C275.797 144.202 275.162 144.459 274.686 144.972C274.22 145.485 273.986 146.181 273.986 147.058C273.986 147.926 274.22 148.621 274.686 149.144C275.162 149.657 275.797 149.914 276.59 149.914ZM294.078 142.172V152H291.684V146.106L289.486 152H287.554L285.342 146.092V152H282.948V142.172H285.776L288.534 148.976L291.264 142.172H294.078Z" fill="#6B0015"/>
</g>
<defs>
<filter id="filter0_d_1105_1069" x="0" y="29.8691" width="718" height="234.131" filterUnits="userSpaceOnUse" color-interpolation-filters="sRGB">
<feFlood flood-opacity="0" result="BackgroundImageFix"/>
<feColorMatrix in="SourceAlpha" type="matrix" values="0 0 0 0 0 0 0 0 0 0 0 0 0 0 0 0 0 0 127 0" result="hardAlpha"/>
<feOffset dy="4"/>
<feGaussianBlur stdDeviation="2"/>
<feComposite in2="hardAlpha" operator="out"/>
<feColorMatrix type="matrix" values="0 0 0 0 0 0 0 0 0 0 0 0 0 0 0 0 0 0 0.25 0"/>
<feBlend mode="normal" in2="BackgroundImageFix" result="effect1_dropShadow_1105_1069"/>
<feBlend mode="normal" in="SourceGraphic" in2="effect1_dropShadow_1105_1069" result="shape"/>
</filter>
</defs>
</svg>
