<svg width="161" height="123" viewBox="0 0 161 123" fill="none" xmlns="http://www.w3.org/2000/svg">
<path d="M138.484 96.2111L133.646 97.7355C129.393 99.0687 128.499 103.933 131.97 106.814C136.855 110.867 132.842 117.573 126.483 115.992L26.0511 91.017C19.6919 89.4357 19.2871 81.6312 25.4954 80.3373C29.9173 79.419 31.4068 74.7025 28.273 71.5322L24.7128 67.9195C20.2222 63.3713 21.9008 56.6209 27.9987 54.7057L28.7617 54.4698C35.2252 52.4354 37.006 45.2742 32.2494 40.4444L31.6858 39.8786C27.1952 35.3304 28.8738 28.58 34.9716 26.6648L39.8092 25.1405C44.063 23.8072 44.9561 18.9425 41.4854 16.0615C36.6062 12.0105 40.6132 5.30305 46.9724 6.88438L147.405 31.8589C153.764 33.4403 154.168 41.2448 147.96 42.5387C143.538 43.457 142.049 48.1734 145.183 51.3437L148.744 54.9515C153.233 59.5046 151.555 66.255 145.458 68.1652L144.694 68.4061C138.23 70.4405 136.45 77.6017 141.206 82.4315L141.77 82.9973C146.26 87.5455 144.582 94.2959 138.484 96.2111Z" fill="#FEC701"/>
<path d="M132.243 96.7218L127.406 98.2462C123.152 99.5795 122.259 104.444 125.73 107.325C130.615 111.378 126.602 118.084 120.243 116.502L19.8106 91.5277C13.4514 89.9464 13.0466 82.1419 19.2549 80.848C23.6768 79.9297 25.1663 75.2132 22.0325 72.0429L18.4723 68.4303C13.9817 63.8821 15.6604 57.1316 21.7582 55.2165L22.5212 54.9806C28.9847 52.9461 30.7655 45.785 26.0089 40.9552L25.4453 40.3894C20.9547 35.8411 22.6333 29.0907 28.7312 27.1756L33.5688 25.6512C37.8225 24.3179 38.7156 19.4532 35.2449 16.5722C30.3657 12.5212 34.3728 5.81379 40.7319 7.39512L141.164 32.3697C147.523 33.951 147.928 41.7555 141.72 43.0494C137.298 43.9677 135.808 48.6842 138.942 51.8545L142.504 55.4622C146.993 60.0153 145.314 66.7658 139.218 68.676L138.453 68.9168C131.99 70.9513 130.209 78.1124 134.966 82.9422L135.529 83.5081C140.02 88.0563 138.341 94.8067 132.243 96.7218Z" fill="#FEE333"/>
<g clip-path="url(#clip0_1844_1207)">
<path d="M71.8352 32.9276C70.7363 33.3217 69.4614 34.2558 68.9714 34.8846C67.9523 36.2994 66.5941 41.2581 66.9392 42.5534C67.1367 43.4366 65.9226 45.9706 65.1082 46.2269C64.9218 46.3056 64.0588 46.9251 63.186 47.5839C61.7935 48.6555 61.5094 49.1271 60.982 51.248C60.4644 53.3296 60.4847 53.9185 61.1246 55.3705C62.8274 59.0886 66.0508 62.0588 70.4114 63.9773C71.7668 64.5645 73.0143 65.2501 73.1323 65.4463C73.4372 65.8974 85.1414 68.8079 85.6221 68.5521C85.8182 68.4341 87.2415 68.4127 88.7141 68.5286C93.4654 68.876 97.7045 67.7615 100.95 65.274C102.196 64.2909 102.49 63.7801 103.007 61.6985C103.535 59.5775 103.505 59.0279 102.776 57.4288C102.314 56.438 101.841 55.4864 101.714 55.3295C101.114 54.7217 101.228 51.9142 101.816 51.2263C102.728 50.2436 103.851 45.2262 103.613 43.4989C103.474 42.7138 102.786 41.2914 101.999 40.4285C100.78 38.9577 100.377 38.7324 97.7459 38.078C95.3108 37.4725 94.4862 37.4343 92.8672 37.9075C91.7878 38.2229 90.7479 38.715 90.552 38.9999C90.0229 39.7859 82.7175 37.9692 82.6182 37.027C82.5785 36.6835 81.8902 35.7617 81.0844 34.9774C79.8755 33.801 79.1291 33.4486 76.694 32.843C74.0625 32.1887 73.6011 32.1991 71.8352 32.9276ZM78.1237 37.9946C78.3107 38.4165 78.6551 39.0443 78.8519 39.4268C79.2455 40.192 78.5525 43.3143 78.0026 43.1776C77.8062 43.1288 77.5415 43.3549 77.4633 43.6691C77.1801 44.8081 74.3531 44.7723 72.2313 43.5775C70.473 42.5981 70.988 38.3471 73.038 37.147C74.47 36.252 77.5431 36.8076 78.1237 37.9946ZM98.9602 43.5931C100.209 45.6136 98.6732 49.6106 96.661 49.6524C94.2267 49.7143 91.7122 48.4218 91.9955 47.2828C92.0736 46.9686 91.9849 46.6546 91.7492 46.596C91.1993 46.4592 92.0495 43.376 92.7949 42.8941C93.1087 42.6384 93.7069 42.2451 94.0698 41.9599C95.1387 41.1831 98.1142 42.1316 98.9602 43.5931ZM70.8584 52.4528C71.35 53.1589 72.4506 54.0999 73.2561 54.5504C74.1008 55.0107 74.9458 55.6379 75.2014 55.9517C75.4767 56.3538 77.6764 57.0676 81.604 58.0443C85.5316 59.0209 87.8094 59.4205 88.241 59.1942C88.6138 59.0367 89.6541 58.8784 90.6161 58.8673C91.5388 58.8465 92.9519 58.5307 93.717 58.1371C95.3847 57.3006 96.553 57.466 96.2893 58.5265C96.1232 59.1942 95.3091 59.6173 92.4635 60.4945C88.9017 61.5689 83.1686 61.1441 78.2585 59.4227C73.8787 57.9165 68.0029 53.2024 68.4131 51.5528C68.667 50.5316 69.816 50.9424 70.8584 52.4528Z" fill="#F89701"/>
<path d="M73.3265 40.1798L72.887 41.9473L74.5659 42.2396C76.4019 42.5711 76.8921 42.1091 76.9191 40.1557C76.918 39.3214 76.6822 39.0959 75.3468 38.7638L73.7757 38.3731L73.3265 40.1798Z" fill="#F89701"/>
<path d="M94.122 44.4333C93.2309 46.1718 93.4476 46.8096 95.225 47.3767L96.8453 47.9047L97.2848 46.1373L97.7341 44.3306L96.1631 43.9399C94.8277 43.6079 94.5137 43.6966 94.122 44.4333Z" fill="#F89701"/>
</g>
<path d="M61.3877 86.8935C61.4907 86.4793 61.7101 86.039 62.046 85.5727C62.3855 85.0917 62.6901 84.7197 62.9597 84.4568C63.2329 84.1792 63.3844 84.0441 63.4139 84.0514C64.1432 84.7826 64.9813 85.2659 65.9281 85.5013C66.5199 85.6485 67.0227 85.6479 67.4366 85.4994C67.8653 85.3547 68.1312 85.0752 68.2342 84.661C68.3409 84.232 68.2388 83.916 67.928 83.713C67.6319 83.5137 67.127 83.3018 66.4131 83.0771L65.6142 82.8785C65.4367 82.8343 65.3199 82.5775 65.2639 82.108C65.2263 81.6274 65.259 81.18 65.362 80.7657C65.5349 80.0704 65.8303 79.7669 66.2482 79.8551L66.8973 79.9929C67.2967 80.0923 67.7386 80.0843 68.2228 79.9691C68.7255 79.8427 69.0209 79.602 69.1092 79.247C69.2637 78.6256 68.7862 78.177 67.6767 77.9011C66.8482 77.6951 66.0089 77.6592 65.1587 77.7933C64.7909 76.4295 64.6898 75.4147 64.8554 74.749C65.0246 74.0684 65.6175 73.6739 66.6341 73.5654C67.6656 73.4606 68.8914 73.5848 70.3116 73.938C71.7318 74.2911 72.7678 74.8629 73.4195 75.6533C74.0713 76.4437 74.2702 77.3493 74.0164 78.3701C73.5712 80.1602 72.4598 81.3447 70.6821 81.9237C72.3585 83.1418 72.9723 84.6532 72.5235 86.4581C72.174 87.8635 71.3951 88.8794 70.1869 89.5058C68.9823 90.1173 67.4554 90.1932 65.6062 89.7333C64.4375 89.4427 63.4128 89.0151 62.5321 88.4505C61.6551 87.8711 61.2736 87.3521 61.3877 86.8935Z" fill="#F89701"/>
<path d="M79.3273 93.1454C77.4781 92.6855 76.1309 91.6279 75.2858 89.9726C74.4556 88.3209 74.366 86.1858 75.0172 83.5673C75.6683 80.9487 76.7512 79.1209 78.2658 78.0837C79.7841 77.0318 81.4753 76.7376 83.3393 77.2011C85.2181 77.6683 86.569 78.7111 87.3918 80.3295C88.2146 81.948 88.2931 84.096 87.6273 86.7737C86.9614 89.4514 85.873 91.3015 84.3621 92.3238C82.8696 93.3351 81.1913 93.6089 79.3273 93.1454ZM82.2354 81.4507C81.6732 81.311 81.1115 81.5169 80.5502 82.0685C80.0074 82.609 79.5888 83.471 79.2945 84.6545C79.0002 85.838 78.9589 86.7938 79.1705 87.5219C79.4007 88.2389 79.8116 88.671 80.4034 88.8181C81.0099 88.969 81.5772 88.7723 82.1052 88.2281C82.6481 87.6876 83.0666 86.8256 83.361 85.6421C83.6553 84.4586 83.6818 83.4991 83.4405 82.7636C83.2141 82.0319 82.8124 81.5942 82.2354 81.4507Z" fill="#F89701"/>
<path d="M92.2482 86.8043C92.7512 86.9294 93.1166 87.2127 93.3446 87.6543C93.5725 88.0958 93.5991 88.6679 93.4244 89.3707C93.2515 90.066 92.9609 90.5553 92.5527 90.8387C92.1519 91.1239 91.7037 91.2048 91.2081 91.0816C90.7125 90.9584 90.3489 90.6834 90.1173 90.2566C89.8875 89.8225 89.8609 89.2503 90.0375 88.5402C90.2159 87.8227 90.5046 87.3251 90.9036 87.0473C91.3044 86.7621 91.7526 86.6811 92.2482 86.8043ZM92.2621 89.0699C92.3817 88.589 92.2676 88.3054 91.92 88.219C91.5723 88.1325 91.3387 88.3297 91.2191 88.8105C91.1621 89.0398 91.167 89.2256 91.2337 89.3678C91.3004 89.5101 91.4114 89.6006 91.5668 89.6392C91.7221 89.6778 91.8626 89.6499 91.9882 89.5555C92.1138 89.461 92.2051 89.2992 92.2621 89.0699ZM95.9091 91.6497C96.4121 91.7748 96.7775 92.0581 97.0055 92.4997C97.2334 92.9412 97.26 93.5133 97.0852 94.2161C96.9123 94.9114 96.6218 95.4007 96.2136 95.6841C95.8128 95.9693 95.3646 96.0502 94.869 95.927C94.3734 95.8038 94.0098 95.5288 93.7782 95.102C93.5484 94.6679 93.5218 94.0957 93.6984 93.3856C93.8768 92.6681 94.1655 92.1705 94.5645 91.8927C94.9653 91.6075 95.4135 91.5265 95.9091 91.6497ZM95.923 93.9153C96.0425 93.4345 95.9285 93.1508 95.5808 93.0644C95.2332 92.9779 94.9996 93.1751 94.88 93.6559C94.823 93.8852 94.8278 94.071 94.8946 94.2133C94.9613 94.3555 95.0723 94.446 95.2277 94.4846C95.383 94.5232 95.5235 94.4953 95.6491 94.4009C95.7747 94.3064 95.866 94.1446 95.923 93.9153ZM96.5728 87.9858C96.6541 87.9431 96.7317 87.931 96.8057 87.9494C97.0793 88.0175 97.2931 88.2159 97.447 88.5448C97.5081 88.6778 97.5295 88.7813 97.5111 88.8553C97.4946 88.9219 97.4669 88.97 97.4281 88.9996L90.403 94.7457C90.3217 94.7884 90.244 94.8005 90.1701 94.7821C89.9038 94.7159 89.6946 94.5146 89.5426 94.1784C89.4741 94.0435 89.448 93.9428 89.4646 93.8762C89.4812 93.8096 89.5088 93.7615 89.5476 93.7319L96.5728 87.9858Z" fill="#F89701"/>
<path d="M139.452 31.9873C139.452 31.9873 139.674 32.0425 139.896 32.0977C140.105 32.1496 141.227 32.4288 141.227 32.4288C141.227 32.4288 142.219 32.7198 142.533 32.8614C143.169 33.1473 143.843 33.5889 144.168 33.8672C144.557 34.1995 145.061 34.6978 145.446 35.363C146.005 36.3321 146.109 37.3678 146.169 38.1356C146.229 38.9034 145.571 40.499 145.175 41.1871C144.345 42.6301 141.407 43.0767 141.407 43.0767L73.9788 71.4907L22.4507 92.1969C22.4507 92.1969 20.9857 91.8326 20.2316 91.645C19.1952 91.3873 18.9001 91.3139 18.9001 91.3139L17.8458 90.8161C17.8458 90.8161 17.2351 90.4286 16.8466 90.0964C16.3251 89.6505 15.9305 89.0427 15.4576 88.1016C15.2523 87.6929 14.6735 85.8071 14.7884 85.1075C14.923 84.2876 15.3413 83.8313 15.784 82.9987C16.6029 81.4585 19.109 80.9987 19.109 80.9987L139.452 31.9873Z" fill="white" fill-opacity="0.2"/>
<defs>
<clipPath id="clip0_1844_1207">
<rect width="45.7336" height="45.7336" fill="white" transform="translate(66.7871 22.873) rotate(13.9645)"/>
</clipPath>
</defs>
</svg>
