<svg width="222" height="176" viewBox="0 0 222 176" fill="none" xmlns="http://www.w3.org/2000/svg">
<path d="M192.029 138.972L184.823 141.243C178.486 143.23 177.156 150.477 182.327 154.769C189.605 160.805 183.627 170.796 174.153 168.441L24.5326 131.247C15.0589 128.892 14.4549 117.265 23.7035 115.337C30.2909 113.969 32.5093 106.942 27.8403 102.219L22.5362 96.838C15.8458 90.0628 18.3457 80.0063 27.4297 77.1525L28.5664 76.8009C38.1951 73.7694 40.8471 63.1009 33.7605 55.9063L32.9208 55.0634C26.2304 48.2883 28.7303 38.2317 37.8143 35.3779L45.0209 33.1064C51.3577 31.1197 52.6876 23.8724 47.5168 19.5809C40.2477 13.5465 46.2163 3.55369 55.69 5.90872L205.311 43.1025C214.785 45.4575 215.389 57.0842 206.14 59.0125C199.553 60.381 197.334 67.4075 202.003 72.1301L207.309 77.5042C213.998 84.2867 211.498 94.3433 202.416 97.1897L201.277 97.5487C191.648 100.58 188.996 111.249 196.083 118.443L196.923 119.286C203.613 126.061 201.113 136.118 192.029 138.972Z" fill="#9FE0E7"/>
<path d="M183.348 140.08L176.141 142.352C169.804 144.338 168.474 151.586 173.645 155.877C180.923 161.914 174.946 171.904 165.472 169.549L15.8509 132.355C6.37726 130 5.77327 118.374 15.0219 116.446C21.6093 115.077 23.8277 108.05 19.1587 103.328L13.8545 97.9464C7.16418 91.1712 9.6641 81.1147 18.7481 78.2609L19.8847 77.9093C29.5135 74.8778 32.1655 64.2093 25.0788 57.0147L24.2391 56.1718C17.5488 49.3967 20.0487 39.3401 29.1327 36.4863L36.3393 34.2148C42.6761 32.2281 44.006 24.9808 38.8352 20.6893C31.566 14.6549 37.5347 4.66209 47.0084 7.01712L196.629 44.2109C206.103 46.5659 206.707 58.1926 197.458 60.1208C190.871 61.4894 188.653 68.5159 193.322 73.2385L198.627 78.6126C205.316 85.3951 202.816 95.4517 193.734 98.2981L192.595 98.6571C182.967 101.689 180.315 112.357 187.401 119.552L188.241 120.395C194.931 127.17 192.431 137.226 183.348 140.08Z" fill="#C9F8FF"/>
<path d="M90.3343 130.69L79.3585 127.961C78.5871 127.77 78.2335 126.886 78.2975 125.311C78.3459 124.457 78.4222 123.821 78.5263 123.402C78.6303 122.983 78.765 122.724 78.9301 122.625C85.1325 118.761 88.4611 115.914 88.9159 114.085C89.0693 113.468 89.019 112.964 88.7651 112.573C88.5333 112.188 88.0647 111.908 87.3595 111.732C86.6762 111.562 85.9491 111.522 85.1781 111.611C84.4291 111.706 83.8179 111.858 83.3445 112.068C82.7425 110.819 82.4186 109.58 82.3729 108.351C82.3558 107.949 82.3857 107.594 82.4624 107.285C82.5445 106.955 82.6763 106.66 82.8578 106.401C83.1765 105.872 84.1262 105.534 85.7069 105.389C87.3095 105.249 88.9263 105.382 90.5573 105.787C95.4941 107.015 97.4174 109.821 96.3272 114.207C95.845 116.147 94.6935 117.955 92.8726 119.632C91.0571 121.287 89.087 122.622 86.9622 123.638L93.706 125.034C93.5258 126.23 93.3289 127.257 93.1152 128.117C92.9015 128.976 92.5444 129.66 92.0438 130.167C91.5433 130.674 90.9734 130.849 90.3343 130.69Z" fill="#027A8D"/>
<path d="M103.852 134.401C101.097 133.716 99.0904 132.141 97.8313 129.675C96.5942 127.215 96.4606 124.034 97.4303 120.133C98.4 116.232 100.013 113.509 102.269 111.963C104.531 110.396 107.05 109.958 109.827 110.648C112.626 111.344 114.639 112.897 115.865 115.308C117.091 117.719 117.208 120.919 116.216 124.908C115.225 128.897 113.604 131.654 111.353 133.177C109.13 134.683 106.629 135.092 103.852 134.401ZM108.183 116.979C107.346 116.771 106.509 117.078 105.673 117.899C104.864 118.705 104.241 119.989 103.803 121.752C103.364 123.515 103.303 124.939 103.618 126.024C103.961 127.092 104.573 127.736 105.455 127.955C106.359 128.179 107.204 127.886 107.99 127.076C108.799 126.27 109.422 124.986 109.861 123.223C110.299 121.46 110.338 120.03 109.979 118.935C109.641 117.845 109.043 117.193 108.183 116.979Z" fill="#027A8D"/>
<path d="M123.149 124.963C123.898 125.15 124.443 125.572 124.782 126.229C125.122 126.887 125.162 127.739 124.901 128.786C124.644 129.822 124.211 130.551 123.603 130.973C123.006 131.398 122.338 131.519 121.6 131.335C120.862 131.152 120.32 130.742 119.975 130.107C119.632 129.46 119.593 128.607 119.856 127.55C120.121 126.481 120.551 125.739 121.146 125.325C121.743 124.9 122.41 124.78 123.149 124.963ZM123.17 128.338C123.348 127.622 123.178 127.199 122.66 127.071C122.142 126.942 121.794 127.236 121.616 127.952C121.531 128.294 121.538 128.57 121.638 128.782C121.737 128.994 121.903 129.129 122.134 129.187C122.365 129.244 122.575 129.202 122.762 129.062C122.949 128.921 123.085 128.68 123.17 128.338ZM128.603 132.181C129.353 132.367 129.897 132.79 130.237 133.447C130.576 134.105 130.616 134.957 130.356 136.004C130.098 137.04 129.665 137.769 129.057 138.191C128.46 138.616 127.793 138.737 127.054 138.553C126.316 138.37 125.774 137.96 125.429 137.324C125.087 136.678 125.047 135.825 125.31 134.768C125.576 133.699 126.006 132.957 126.6 132.543C127.197 132.118 127.865 131.998 128.603 132.181ZM128.624 135.556C128.802 134.84 128.632 134.417 128.114 134.289C127.596 134.16 127.248 134.454 127.07 135.17C126.985 135.512 126.993 135.788 127.092 136C127.192 136.212 127.357 136.347 127.588 136.405C127.82 136.462 128.029 136.42 128.216 136.28C128.403 136.139 128.539 135.898 128.624 135.556ZM129.591 126.723C129.713 126.659 129.828 126.641 129.938 126.669C130.346 126.77 130.665 127.066 130.894 127.556C130.985 127.754 131.017 127.908 130.99 128.018C130.965 128.117 130.924 128.189 130.866 128.233L120.401 136.794C120.28 136.858 120.164 136.876 120.054 136.848C119.657 136.75 119.346 136.45 119.119 135.949C119.017 135.748 118.978 135.598 119.003 135.499C119.028 135.4 119.069 135.328 119.127 135.284L129.591 126.723Z" fill="#027A8D"/>
<path d="M126.775 42.9927C123.21 42.1065 119.451 45.0127 118.373 49.4836C117.725 52.1723 118.185 54.9589 119.612 56.9056C117.763 67.9877 114.035 77.167 107 76.5268C98.4489 75.2824 99.0515 64.8571 99.7596 54.9698C101.502 53.1713 102.248 50.2582 101.696 47.3065C100.833 42.7155 97.1784 39.4561 93.5182 40.0259C89.8639 40.5958 87.6005 44.7692 88.4577 49.3601C89.0654 52.5956 91.11 55.2928 93.7063 56.2935C96.5461 65.1867 98.7377 79.2062 94.9535 82.217C92.8668 83.8588 90.0813 82.4841 87.3705 79.7634C88.4108 77.7051 87.8651 74.9683 85.994 72.7833C83.3862 69.7329 79.0649 68.7156 76.3429 70.4979C73.6196 72.2799 73.5326 76.1955 76.1445 79.247C78.1872 81.6168 81.3569 82.8311 84.0116 82.2544C92.3607 89.0063 97.6975 99.7994 105.434 100.458C116.411 101.395 119.903 87.0973 130.852 85.4696C132.458 87.1623 135.231 87.7378 137.814 86.9018C141.198 85.7956 143.118 82.6485 142.109 79.8818C141.104 77.1017 137.535 75.7454 134.137 76.8481C131.598 77.6811 129.784 79.7175 129.596 81.9593C124.725 83.9321 118.811 84.921 116.41 82.5617C114.483 80.6755 120.614 66.2233 124.814 59.2933C127.782 58.9366 130.411 56.2642 131.273 52.6904C132.351 48.2195 130.34 43.8776 126.775 42.9927Z" fill="#027A8D"/>
<ellipse cx="75.2061" cy="141.615" rx="1.70328" ry="2.16781" transform="rotate(-57.4562 75.2061 141.615)" fill="white"/>
<path d="M46.7136 20.9839C46.7136 20.9839 49.2833 26.1579 48.7905 29.5737C48.1768 33.8282 45.8122 35.947 42.358 38.5054C39.6853 40.4849 37.43 40.2224 34.5134 41.8207C32.2845 43.0421 30.1896 43.1013 29.0651 45.3806C27.561 48.4293 31.5548 53.7221 31.5548 53.7221C31.5548 53.7221 34.0075 57.7702 35.1167 60.5749C36.452 63.9516 38.0515 65.9979 37.442 69.5775C36.7324 73.7455 34.2493 75.7074 30.7611 78.0964C27.3766 80.4143 24.6433 81.7779 20.8544 84.0583C18.7906 85.3004 17.1377 86.6958 16.3998 89.2694C15.1788 93.5281 21.452 98.5989 21.452 98.5989C21.452 98.5989 18.6016 93.6736 19.7058 90.0912C20.8582 86.3521 27.2982 83.554 27.2982 83.554C27.2982 83.554 33.9493 80.8267 36.8742 77.5099C40.0856 73.8683 41.9098 70.956 41.8163 66.1016C41.7236 61.282 38.5338 59.3317 36.5137 54.9548C35.1642 52.0308 31.3909 50.16 33.1163 47.4408C35.4249 43.8024 39.2258 44.0452 43.6841 41.6432C46.0957 40.344 49.0483 37.0093 49.0483 37.0093C49.0483 37.0093 53.2527 31.4575 52.4233 27.6686C51.6892 24.3148 46.7136 20.9839 46.7136 20.9839Z" fill="white" stroke="white"/>
<path d="M26.4881 107.194C25.8305 103.715 25.1747 113.375 23.2264 116.494C21.4847 119.282 18.5965 118.561 17.7359 122.023C17.3157 123.713 17.6476 124.97 18.2584 126.289C18.9412 127.765 19.8859 128.248 21.1084 128.835C25.068 130.739 29.5409 131.851 29.5409 131.851L45.3456 135.78C50.4696 137.054 58.8723 138.682 58.8723 138.682C58.8723 138.682 63.0472 139.72 66.1368 140.029C69.2264 140.337 68.7374 139.757 68.7374 139.757C68.7374 139.757 66.553 137.834 63.991 137.197L49.3791 133.565L32.6798 129.414L24.4376 126.906L21.5632 125.732C21.5632 125.732 20.4523 124.721 20.5025 123.63C20.5522 122.553 21.0357 121.808 21.7445 121.182C22.9616 120.106 23.4985 120.374 24.4777 119.103C25.6655 117.561 25.6955 116.64 26.15 114.923C26.9398 111.94 27.0351 110.088 26.4881 107.194Z" fill="white"/>
<path d="M29.5409 131.851C29.5409 131.851 25.068 130.739 21.1084 128.835C19.8859 128.248 18.9412 127.765 18.2584 126.289C17.6476 124.97 17.3157 123.713 17.7359 122.023C18.5965 118.561 21.4847 119.282 23.2264 116.494C25.1747 113.375 25.8305 103.715 26.4881 107.194C27.0351 110.088 26.9398 111.94 26.15 114.923C25.6955 116.64 25.6655 117.561 24.4777 119.103C23.4985 120.374 22.9616 120.106 21.7445 121.182C21.0357 121.808 20.5522 122.553 20.5025 123.63C20.4523 124.721 21.5632 125.732 21.5632 125.732L24.4376 126.906L32.6798 129.414L49.3791 133.565M29.5409 131.851C29.5409 131.851 39.2899 134.275 45.3456 135.78M29.5409 131.851L45.3456 135.78M45.3456 135.78C50.4696 137.054 58.8723 138.682 58.8723 138.682C58.8723 138.682 63.0472 139.72 66.1368 140.029C69.2264 140.337 68.7374 139.757 68.7374 139.757C68.7374 139.757 66.553 137.834 63.991 137.197M63.991 137.197C58.2847 135.779 49.3791 133.565 49.3791 133.565M63.991 137.197L49.3791 133.565" stroke="white"/>
</svg>
