<svg width="222" height="175" viewBox="0 0 222 175" fill="none" xmlns="http://www.w3.org/2000/svg">
<path d="M192.68 138.707L185.499 140.97C179.184 142.95 177.858 150.172 183.01 154.449C190.263 160.465 184.305 170.42 174.865 168.073L25.7672 130.996C16.3266 128.649 15.7257 117.063 24.9422 115.142C31.5069 113.778 33.7181 106.777 29.0657 102.07L23.7804 96.7068C17.1139 89.9547 19.6059 79.9333 28.6585 77.0901L29.7912 76.7399C39.3867 73.7197 42.0304 63.0885 34.9689 55.9184L34.1322 55.0784C27.4656 48.3263 29.9577 38.3049 39.0103 35.4618L46.192 33.1987C52.5069 31.2194 53.8328 23.9974 48.6803 19.7204C41.4369 13.7064 47.3856 3.74889 56.8261 6.09648L205.924 43.1727C215.364 45.5203 215.965 57.1065 206.749 59.0274C200.184 60.3907 197.973 67.3925 202.625 72.0991L207.912 77.4549C214.577 84.2143 212.085 94.2357 203.034 97.0715L201.9 97.4291C192.304 100.449 189.66 111.081 196.722 118.251L197.559 119.091C204.225 125.843 201.733 135.864 192.68 138.707Z" fill="#FEC701"/>
<path d="M183.416 139.465L176.235 141.728C169.92 143.707 168.594 150.929 173.746 155.206C180.999 161.223 175.041 171.178 165.6 168.83L16.503 131.754C7.06246 129.407 6.46149 117.82 15.6781 115.899C22.2427 114.536 24.4539 107.534 19.8015 102.828L14.5163 97.4646C7.84972 90.7125 10.3417 80.6911 19.3944 77.848L20.5271 77.4977C30.1225 74.4775 32.7662 63.8463 25.7048 56.6762L24.8681 55.8362C18.2015 49.0841 20.6935 39.0627 29.7461 36.2196L36.9278 33.9565C43.2428 31.9772 44.5686 24.7552 39.4161 20.4782C32.1727 14.4643 38.1214 4.5067 47.562 6.85429L196.659 43.9305C206.1 46.2781 206.701 57.8643 197.484 59.7852C190.92 61.1485 188.709 68.1503 193.361 72.8569L198.648 78.2127C205.313 84.9721 202.821 94.9935 193.77 97.8294L192.635 98.1869C183.04 101.207 180.396 111.838 187.458 119.008L188.294 119.848C194.961 126.601 192.469 136.622 183.416 139.465Z" fill="#FEE333"/>
<g clip-path="url(#clip0_1170_1094)">
<path d="M93.737 44.7599C92.1056 45.3448 90.2129 46.7316 89.4855 47.6651C87.9726 49.7654 85.9562 57.127 86.4687 59.0499C86.7618 60.3611 84.9595 64.123 83.7505 64.5034C83.4737 64.6203 82.1925 65.54 80.8968 66.5179C78.8295 68.1089 78.4078 68.8089 77.6248 71.9575C76.8564 75.0478 76.8866 75.9221 77.8365 78.0777C80.3644 83.5974 85.1497 88.0069 91.6234 90.8549C93.6354 91.7268 95.4874 92.7445 95.6626 93.0357C96.1152 93.7055 113.491 98.0263 114.204 97.6465C114.496 97.4713 116.609 97.4395 118.795 97.6117C125.848 98.1274 132.142 96.4729 136.96 92.78C138.809 91.3205 139.245 90.5622 140.014 87.4719C140.797 84.3233 140.752 83.5073 139.671 81.1333C138.984 79.6624 138.283 78.2497 138.093 78.0168C137.203 77.1145 137.373 72.9465 138.246 71.9254C139.599 70.4665 141.266 63.0179 140.913 60.4536C140.707 59.2881 139.685 57.1764 138.517 55.8954C136.708 53.7119 136.11 53.3774 132.203 52.406C128.588 51.507 127.364 51.4503 124.96 52.1527C123.358 52.6211 121.814 53.3516 121.523 53.7746C120.738 54.9413 109.893 52.2445 109.745 50.8457C109.686 50.3357 108.664 48.9672 107.468 47.8029C105.673 46.0565 104.565 45.5333 100.95 44.6343C97.0435 43.6628 96.3586 43.6783 93.737 44.7599ZM103.073 52.2821C103.35 52.9084 103.862 53.8404 104.154 54.4083C104.738 55.5443 103.709 60.1796 102.893 59.9766C102.601 59.9041 102.208 60.2397 102.092 60.7062C101.672 62.3971 97.4749 62.3441 94.3251 60.5702C91.7148 59.1162 92.4792 52.8054 95.5226 51.0238C97.6485 49.695 102.211 50.52 103.073 52.2821ZM134.006 60.5934C135.86 63.593 133.58 69.5268 130.592 69.5888C126.979 69.6808 123.246 67.7619 123.666 66.071C123.782 65.6045 123.65 65.1384 123.301 65.0514C122.484 64.8484 123.746 60.2711 124.853 59.5556C125.319 59.1762 126.207 58.5922 126.746 58.1689C128.333 57.0157 132.75 58.4237 134.006 60.5934ZM92.2869 73.7462C93.0168 74.7944 94.6506 76.1914 95.8464 76.8602C97.1005 77.5435 98.3549 78.4746 98.7343 78.9404C99.1431 79.5374 102.409 80.5971 108.239 82.047C114.07 83.4969 117.452 84.0902 118.092 83.7542C118.646 83.5204 120.19 83.2853 121.618 83.2689C122.988 83.2381 125.086 82.7691 126.222 82.1848C128.698 80.9431 130.432 81.1886 130.041 82.7629C129.794 83.7541 128.585 84.3823 124.361 85.6845C119.073 87.2795 110.562 86.649 103.273 84.0934C96.7707 81.8573 88.0477 74.859 88.6567 72.41C89.0337 70.894 90.7394 71.5039 92.2869 73.7462Z" fill="#F89701"/>
<path d="M95.9508 55.5265L95.2983 58.1504L97.7908 58.5844C100.516 59.0765 101.244 58.3907 101.284 55.4907C101.283 54.2521 100.933 53.9174 98.9501 53.4244L96.6178 52.8444L95.9508 55.5265Z" fill="#F89701"/>
<path d="M126.823 61.8413C125.5 64.4223 125.822 65.3691 128.46 66.211L130.866 66.9949L131.518 64.371L132.185 61.6889L129.853 61.1089C127.871 60.6159 127.404 60.7477 126.823 61.8413Z" fill="#F89701"/>
</g>
<path d="M78.2267 124.875C78.3796 124.26 78.7054 123.606 79.204 122.914C79.7081 122.2 80.1602 121.648 80.5604 121.258C80.9661 120.845 81.1909 120.645 81.2348 120.656C82.3175 121.741 83.5616 122.459 84.9672 122.808C85.8457 123.027 86.5922 123.026 87.2067 122.805C87.8432 122.591 88.2379 122.176 88.3908 121.561C88.5492 120.924 88.3976 120.455 87.9362 120.153C87.4967 119.857 86.7471 119.543 85.6873 119.209L84.5013 118.914C84.2378 118.849 84.0644 118.468 83.9812 117.771C83.9254 117.057 83.974 116.393 84.1269 115.778C84.3836 114.746 84.8221 114.295 85.4425 114.426L86.4061 114.631C86.9991 114.778 87.655 114.766 88.3738 114.595C89.1201 114.408 89.5588 114.05 89.6898 113.523C89.9192 112.601 89.2103 111.935 87.5631 111.525C86.3332 111.219 85.0872 111.166 83.825 111.365C83.279 109.34 83.1289 107.834 83.3747 106.846C83.6259 105.835 84.5062 105.25 86.0154 105.089C87.5466 104.933 89.3664 105.117 91.4748 105.642C93.5832 106.166 95.1212 107.015 96.0887 108.188C97.0562 109.362 97.3516 110.706 96.9747 112.222C96.3139 114.879 94.6639 116.637 92.0248 117.497C94.5136 119.305 95.4248 121.549 94.7585 124.229C94.2397 126.315 93.0834 127.823 91.2897 128.753C89.5014 129.661 87.2347 129.774 84.4893 129.091C82.7543 128.659 81.2331 128.025 79.9257 127.186C78.6237 126.326 78.0574 125.556 78.2267 124.875Z" fill="#F89701"/>
<path d="M104.859 134.156C102.114 133.474 100.114 131.904 98.8594 129.446C97.6268 126.994 97.4938 123.824 98.4605 119.937C99.4272 116.05 101.035 113.336 103.283 111.796C105.537 110.235 108.048 109.798 110.815 110.486C113.604 111.18 115.61 112.728 116.831 115.13C118.053 117.533 118.169 120.722 117.181 124.697C116.192 128.672 114.577 131.419 112.334 132.937C110.118 134.438 107.626 134.844 104.859 134.156ZM109.176 116.795C108.342 116.587 107.508 116.893 106.675 117.712C105.869 118.514 105.247 119.794 104.81 121.551C104.374 123.308 104.312 124.727 104.626 125.808C104.968 126.872 105.578 127.514 106.457 127.732C107.357 127.956 108.199 127.664 108.983 126.856C109.789 126.054 110.41 124.774 110.847 123.017C111.284 121.26 111.324 119.836 110.966 118.744C110.629 117.658 110.033 117.008 109.176 116.795Z" fill="#F89701"/>
<path d="M124.04 124.743C124.787 124.928 125.33 125.349 125.668 126.004C126.007 126.66 126.046 127.509 125.787 128.552C125.53 129.585 125.099 130.311 124.493 130.732C123.898 131.155 123.232 131.275 122.496 131.092C121.761 130.909 121.221 130.501 120.877 129.868C120.536 129.223 120.496 128.374 120.759 127.32C121.023 126.254 121.452 125.516 122.044 125.103C122.639 124.68 123.305 124.56 124.04 124.743ZM124.061 128.106C124.239 127.392 124.069 126.971 123.553 126.843C123.037 126.714 122.69 127.007 122.513 127.721C122.428 128.061 122.435 128.337 122.534 128.548C122.633 128.759 122.798 128.894 123.029 128.951C123.26 129.008 123.468 128.967 123.655 128.827C123.841 128.687 123.977 128.446 124.061 128.106ZM129.475 131.936C130.222 132.122 130.765 132.542 131.103 133.198C131.441 133.853 131.481 134.702 131.221 135.746C130.965 136.778 130.533 137.504 129.927 137.925C129.332 138.348 128.667 138.469 127.931 138.286C127.195 138.103 126.656 137.694 126.312 137.061C125.971 136.416 125.931 135.567 126.193 134.513C126.458 133.448 126.887 132.709 127.479 132.296C128.074 131.873 128.74 131.753 129.475 131.936ZM129.496 135.299C129.673 134.585 129.504 134.164 128.988 134.036C128.472 133.908 128.125 134.2 127.948 134.914C127.863 135.255 127.87 135.53 127.969 135.742C128.068 135.953 128.233 136.087 128.464 136.144C128.694 136.202 128.903 136.16 129.089 136.02C129.276 135.88 129.411 135.64 129.496 135.299ZM130.461 126.496C130.581 126.433 130.697 126.415 130.806 126.442C131.213 126.544 131.53 126.838 131.758 127.326C131.849 127.524 131.881 127.678 131.854 127.787C131.829 127.886 131.788 127.958 131.73 128.002L121.301 136.532C121.18 136.595 121.065 136.613 120.955 136.586C120.56 136.488 120.25 136.189 120.024 135.69C119.922 135.49 119.884 135.34 119.908 135.241C119.933 135.142 119.974 135.071 120.031 135.027L130.461 126.496Z" fill="#F89701"/>
<defs>
<clipPath id="clip0_1170_1094">
<rect width="67.8942" height="67.8942" fill="white" transform="translate(86.2427 29.833) rotate(13.9645)"/>
</clipPath>
</defs>
</svg>
