<svg width="222" height="176" viewBox="0 0 222 176" fill="none" xmlns="http://www.w3.org/2000/svg">
<path d="M191.922 138.972L184.716 141.243C178.379 143.23 177.049 150.477 182.22 154.769C189.498 160.805 183.52 170.796 174.047 168.441L24.4257 131.247C14.952 128.892 14.348 117.265 23.5966 115.337C30.184 113.969 32.4024 106.942 27.7334 102.219L22.4293 96.838C15.7389 90.0628 18.2388 80.0063 27.3228 77.1525L28.4594 76.8009C38.0882 73.7694 40.7402 63.1009 33.6536 55.9063L32.8138 55.0634C26.1235 48.2883 28.6234 38.2318 37.7074 35.3779L44.914 33.1064C51.2508 31.1197 52.5807 23.8724 47.4099 19.5809C40.1407 13.5465 46.1094 3.5537 55.5831 5.90874L205.204 43.1025C214.678 45.4575 215.282 57.0842 206.033 59.0125C199.446 60.381 197.227 67.4075 201.896 72.1301L207.202 77.5042C213.891 84.2867 211.391 94.3433 202.309 97.1897L201.17 97.5487C191.541 100.58 188.889 111.249 195.976 118.443L196.816 119.286C203.506 126.061 201.006 136.118 191.922 138.972Z" fill="#508D3F"/>
<path d="M183.348 139.648L176.141 141.92C169.805 143.907 168.475 151.154 173.645 155.445C180.924 161.482 174.946 171.473 165.472 169.118L15.8514 131.924C6.37774 129.569 5.77375 117.942 15.0223 116.014C21.6098 114.645 23.8282 107.619 19.1592 102.896L13.855 97.5147C7.16466 90.7396 9.66459 80.683 18.7486 77.8292L19.8852 77.4777C29.5139 74.4461 32.166 63.7776 25.0793 56.583L24.2396 55.7402C17.5493 48.9651 20.0492 38.9085 29.1332 36.0547L36.3398 33.7832C42.6766 31.7965 44.0065 24.5492 38.8357 20.2576C31.5665 14.2232 37.5352 4.23046 47.0089 6.58549L196.63 43.7792C206.103 46.1343 206.707 57.7609 197.459 59.6892C190.871 61.0578 188.653 68.0843 193.322 72.8069L198.628 78.181C205.317 84.9635 202.817 95.02 193.734 97.8665L192.596 98.2254C182.967 101.257 180.315 111.925 187.402 119.12L188.242 119.963C194.932 126.738 192.432 136.795 183.348 139.648Z" fill="#7AD761"/>
<path d="M89.7909 129.984C89.6978 130.359 88.5272 130.267 86.2791 129.708C84.0531 129.155 82.9867 128.691 83.0798 128.316L87.1314 112.018L83.5527 111.163C82.8916 110.999 82.8239 109.859 83.3499 107.743C83.5307 107.016 83.7721 106.327 84.0742 105.676C84.3983 105.031 84.7367 104.753 85.0894 104.841L94.1476 107.092C94.5223 107.185 94.7979 107.348 94.9745 107.579C95.1786 107.793 95.2505 108.022 95.1902 108.264L89.7909 129.984Z" fill="#2B5121"/>
<path d="M101.776 133.911C99.0213 133.227 97.0142 131.651 95.7551 129.185C94.518 126.725 94.3843 123.544 95.3541 119.643C96.3238 115.742 97.9368 113.019 100.193 111.474C102.455 109.906 104.974 109.468 107.751 110.158C110.55 110.854 112.563 112.407 113.789 114.818C115.015 117.229 115.132 120.429 114.14 124.418C113.149 128.407 111.527 131.164 109.277 132.687C107.053 134.194 104.553 134.602 101.776 133.911ZM106.107 116.489C105.27 116.281 104.433 116.588 103.597 117.409C102.788 118.215 102.165 119.499 101.726 121.262C101.288 123.025 101.227 124.449 101.542 125.534C101.885 126.602 102.497 127.246 103.379 127.465C104.282 127.689 105.127 127.396 105.914 126.586C106.723 125.78 107.346 124.496 107.784 122.733C108.223 120.97 108.262 119.54 107.903 118.445C107.565 117.355 106.967 116.703 106.107 116.489Z" fill="#2B5121"/>
<path d="M121.719 124.635C122.468 124.821 123.013 125.243 123.353 125.901C123.692 126.559 123.732 127.411 123.472 128.458C123.214 129.494 122.781 130.223 122.173 130.645C121.576 131.07 120.909 131.191 120.17 131.007C119.432 130.824 118.89 130.414 118.545 129.778C118.203 129.132 118.163 128.279 118.426 127.221C118.692 126.152 119.122 125.411 119.716 124.997C120.313 124.572 120.981 124.452 121.719 124.635ZM121.74 128.01C121.918 127.294 121.748 126.871 121.23 126.743C120.712 126.614 120.364 126.908 120.186 127.624C120.101 127.966 120.109 128.242 120.208 128.454C120.308 128.666 120.473 128.801 120.704 128.858C120.936 128.916 121.145 128.874 121.332 128.734C121.519 128.593 121.655 128.352 121.74 128.01ZM127.173 131.853C127.923 132.039 128.467 132.461 128.807 133.119C129.147 133.777 129.186 134.629 128.926 135.676C128.669 136.712 128.236 137.441 127.628 137.863C127.031 138.288 126.363 138.409 125.625 138.225C124.886 138.042 124.345 137.632 123.999 136.996C123.657 136.35 123.617 135.497 123.88 134.439C124.146 133.37 124.576 132.629 125.17 132.215C125.767 131.79 126.435 131.67 127.173 131.853ZM127.194 135.228C127.373 134.512 127.203 134.089 126.685 133.961C126.167 133.832 125.819 134.126 125.641 134.842C125.556 135.184 125.563 135.46 125.662 135.672C125.762 135.884 125.927 136.019 126.159 136.076C126.39 136.134 126.599 136.092 126.786 135.952C126.974 135.811 127.11 135.57 127.194 135.228ZM128.162 126.395C128.283 126.331 128.399 126.313 128.509 126.34C128.916 126.442 129.235 126.737 129.464 127.227C129.555 127.426 129.587 127.58 129.56 127.69C129.535 127.789 129.494 127.861 129.436 127.905L118.971 136.466C118.85 136.53 118.734 136.548 118.624 136.52C118.228 136.422 117.916 136.122 117.689 135.621C117.587 135.42 117.549 135.27 117.573 135.171C117.598 135.072 117.639 135 117.697 134.956L128.162 126.395Z" fill="#2B5121"/>
<ellipse cx="168.371" cy="56.3868" rx="5.82484" ry="3.17718" transform="rotate(-81.65 168.371 56.3868)" fill="#508D3F"/>
<ellipse cx="174.183" cy="64.1973" rx="4.23624" ry="2.11812" transform="rotate(-81.65 174.183 64.1973)" fill="#508D3F"/>
<ellipse cx="166.71" cy="69.5241" rx="3.17718" ry="1.85336" transform="rotate(-81.65 166.71 69.5241)" fill="#508D3F"/>
<ellipse cx="43.7685" cy="110.575" rx="5.51016" ry="3.00554" transform="rotate(-81.65 43.7685 110.575)" fill="#508D3F"/>
<ellipse cx="49.267" cy="117.964" rx="4.00739" ry="2.00369" transform="rotate(-81.65 49.267 117.964)" fill="#508D3F"/>
<ellipse cx="42.1985" cy="123.002" rx="3.00554" ry="1.75323" transform="rotate(-81.65 42.1985 123.002)" fill="#508D3F"/>
<path d="M90.9844 93.4133L112.419 98.7417C125.942 102.103 134.419 94.0361 136.569 85.123C136.971 83.0066 136.923 80.8229 136.427 78.7055C135.932 76.5881 134.999 74.5815 133.686 72.8086C131.06 68.859 127.032 65.973 122.393 64.7166C119.238 64.1084 115.995 64.2761 112.961 65.2046C109.926 66.133 107.197 67.7924 105.023 70.0308C104.46 67.7458 103.647 64.4332 103.003 61.7723L106.979 62.7606C108.173 62.9817 109.4 62.8077 110.462 62.2665C111.524 61.7253 112.36 60.8484 112.836 59.7766C113.716 59.3646 114.482 58.7604 115.077 58.0101C115.672 57.2598 116.08 56.3834 116.269 55.4477C117.872 48.8015 110.986 43.5539 106.712 42.4914C100.906 40.9077 98.2244 44.5849 95.8236 47.8739L95.7185 48.021C94.2089 50.1311 80.9216 68.8545 79.4 75.165C78.4543 79.0157 79.111 83.1077 81.2284 86.5597C82.3077 88.274 83.729 89.7652 85.4061 90.9426C87.0833 92.1201 88.9814 92.9594 90.9853 93.4096M98.8939 50.2242C101.489 46.666 102.767 45.3601 105.674 46.0829L105.802 46.1146C108.601 46.8104 113.504 50.405 112.513 54.5158C112.464 54.9422 112.297 55.3433 112.029 55.6805L112.029 55.6824C111.865 55.315 111.64 54.9759 111.361 54.6796C111.125 54.4183 110.818 54.2271 110.477 54.129L109.48 53.8812C108.794 52.4544 106.313 49.608 103.892 49.4255L105.604 53.0235L109.083 53.8882L109.306 55.173C109.584 56.7617 109.196 57.4213 108.92 57.6835C108.804 57.7938 108.663 57.8761 108.508 57.9243C108.353 57.9724 108.188 57.9851 108.025 57.9613L96.2329 55.0299L97.0407 56.7793C97.3949 57.5464 97.9503 58.2135 98.5214 58.7576C98.4594 59.0314 98.462 59.3168 98.529 59.5924L98.8061 60.7289L98.8052 60.7326C99.3929 63.139 100.751 68.7129 101.487 71.6893C101.425 71.7429 101.362 71.7984 101.302 71.8548L93.8144 79.0368C93.4546 79.3821 93.254 79.8553 93.2565 80.3523C93.259 80.8493 93.4646 81.3295 93.8279 81.6872C94.1912 82.0449 94.6826 82.2507 95.1939 82.2595C95.7052 82.2683 96.1946 82.0792 96.5544 81.734L103.285 75.2755C103.445 75.3557 103.608 75.4194 103.782 75.4646C103.974 75.5045 104.168 75.5221 104.362 75.5184L107.467 84.7987C107.626 85.2744 107.971 85.6735 108.428 85.9081C108.884 86.1427 109.413 86.1936 109.899 86.0496C110.385 85.9056 110.787 85.5785 111.019 85.1402C111.25 84.702 111.29 84.1885 111.131 83.7127L107.704 73.4674C107.655 73.321 107.596 73.1773 107.529 73.0373C109.219 71.1399 111.396 69.7107 113.846 68.8884C116.297 68.0661 118.939 67.8786 121.516 68.3442C125.21 69.3607 128.413 71.6746 130.497 74.8319C131.501 76.177 132.224 77.6977 132.622 79.3047C133.02 80.9117 133.085 82.5726 132.814 84.1898C131.026 91.5978 124.296 97.8467 113.294 95.1118L91.8597 89.7834C90.3557 89.4534 88.9294 88.8317 87.667 87.9557C86.4046 87.0798 85.3324 85.9679 84.5152 84.6874C82.9265 82.0956 82.4361 79.0233 83.1496 76.1337C84.305 71.3423 94.9148 55.793 98.8939 50.2242Z" fill="#2B5121"/>
<path d="M98.8939 50.2242C101.489 46.666 102.767 45.3601 105.674 46.0829L105.802 46.1146C108.601 46.8104 113.504 50.405 112.513 54.5158C112.464 54.9422 112.297 55.3433 112.029 55.6805L112.029 55.6824C111.865 55.315 111.64 54.9759 111.361 54.6796C111.125 54.4183 110.818 54.2271 110.477 54.129L109.48 53.8812C108.794 52.4544 106.313 49.608 103.892 49.4255L105.604 53.0235L109.083 53.8882L109.306 55.173C109.584 56.7617 109.196 57.4213 108.92 57.6835C108.804 57.7938 108.663 57.8761 108.508 57.9243C108.353 57.9724 108.188 57.9851 108.025 57.9613L96.2329 55.0299L97.0407 56.7793C97.3949 57.5464 97.9503 58.2135 98.5214 58.7576C98.4594 59.0314 98.462 59.3168 98.529 59.5924L98.8061 60.7289L98.8052 60.7326C99.3929 63.139 100.751 68.7129 101.487 71.6893C101.425 71.7429 101.362 71.7984 101.302 71.8548L93.8144 79.0368C93.4546 79.3821 93.254 79.8553 93.2565 80.3523C93.259 80.8493 93.4646 81.3295 93.8279 81.6872C94.1912 82.0449 94.6826 82.2507 95.1939 82.2595C95.7052 82.2683 96.1946 82.0792 96.5544 81.734L103.285 75.2755C103.445 75.3557 103.608 75.4194 103.782 75.4646C103.974 75.5045 104.168 75.5221 104.362 75.5184L107.467 84.7987C107.626 85.2744 107.971 85.6735 108.428 85.9081C108.884 86.1427 109.413 86.1936 109.899 86.0496C110.385 85.9056 110.787 85.5785 111.019 85.1402C111.25 84.702 111.29 84.1885 111.131 83.7127L107.704 73.4674C107.655 73.321 107.596 73.1773 107.529 73.0373C109.219 71.1399 111.396 69.7107 113.846 68.8884C116.297 68.0661 118.939 67.8786 121.516 68.3442C125.21 69.3607 128.413 71.6746 130.497 74.8319C131.501 76.177 132.224 77.6977 132.622 79.3047C133.02 80.9117 133.085 82.5726 132.814 84.1898C131.026 91.5978 124.296 97.8467 113.294 95.1118L91.8597 89.7834C90.3557 89.4534 88.9294 88.8317 87.667 87.9557C86.4046 87.0798 85.3324 85.9679 84.5152 84.6874C82.9265 82.0956 82.4361 79.0233 83.1496 76.1337C84.305 71.3423 94.9148 55.793 98.8939 50.2242Z" fill="#2B5121"/>
</svg>
