<svg width="158" height="125" viewBox="0 0 158 125" fill="none" xmlns="http://www.w3.org/2000/svg">
<path d="M137.292 98.6656L132.175 100.278C127.676 101.689 126.732 106.834 130.403 109.881C135.57 114.167 131.326 121.26 124.6 119.588L18.3744 93.1814C11.6484 91.5094 11.2195 83.2548 17.7857 81.8858C22.4626 80.9142 24.0376 75.9256 20.7228 72.5727L16.957 68.752C12.207 63.9419 13.9819 56.802 20.4313 54.7759L21.2382 54.5263C28.0743 52.374 29.9572 44.7997 24.9259 39.6918L24.3297 39.0934C19.5798 34.2833 21.3546 27.1434 27.804 25.1173L32.9204 23.5046C37.4194 22.0941 38.3636 16.9487 34.6925 13.9019C29.5316 9.61767 33.7692 2.5231 40.4952 4.1951L146.721 30.6015C153.447 32.2735 153.876 40.528 147.31 41.8971C142.633 42.8687 141.058 47.8573 144.373 51.2102L148.14 55.0256C152.889 59.841 151.114 66.9808 144.666 69.0017L143.857 69.2566C137.021 71.4089 135.138 78.9832 140.17 84.0911L140.766 84.6895C145.516 89.4996 143.741 96.6394 137.292 98.6656Z" fill="#9FE0E7"/>
<path d="M131.128 99.4517L126.012 101.064C121.513 102.475 120.569 107.62 124.24 110.667C129.407 114.953 125.163 122.046 118.437 120.374L12.211 93.9675C5.48503 92.2955 5.05621 84.041 11.6224 82.6719C16.2993 81.7003 17.8743 76.7117 14.5594 73.3588L10.7937 69.5381C6.04372 64.728 7.81859 57.5882 14.2679 55.562L15.0749 55.3124C21.911 53.1601 23.7939 45.5858 18.7626 40.4779L18.1664 39.8795C13.4164 35.0694 15.1913 27.9296 21.6407 25.9034L26.7571 24.2907C31.2561 22.8802 32.2003 17.7349 28.5291 14.688C23.3683 10.4038 27.6058 3.30923 34.3318 4.98123L140.558 31.3876C147.284 33.0596 147.713 41.3142 141.147 42.6832C136.47 43.6548 134.895 48.6434 138.21 51.9963L141.977 55.8118C146.725 60.6271 144.95 67.767 138.502 69.7879L137.694 70.0427C130.858 72.195 128.975 79.7693 134.006 84.8772L134.603 85.4756C139.353 90.2857 137.578 97.4256 131.128 99.4517Z" fill="#C9F8FF"/>
<path d="M65.0915 92.7848L57.2991 90.8477C56.7514 90.7116 56.5003 90.0842 56.5458 88.9658C56.5802 88.3596 56.6343 87.9078 56.7082 87.6105C56.7821 87.3132 56.8777 87.1293 56.9949 87.0588C61.3985 84.3155 63.7617 82.2945 64.0845 80.9958C64.1934 80.5576 64.1577 80.1999 63.9775 79.9225C63.8129 79.6489 63.4802 79.4499 62.9795 79.3255C62.4944 79.2049 61.9782 79.1762 61.4308 79.2395C60.8991 79.3067 60.4651 79.4149 60.129 79.5639C59.7016 78.6768 59.4716 77.7972 59.4392 76.9252C59.4271 76.6397 59.4483 76.3875 59.5027 76.1684C59.5611 75.9337 59.6546 75.7244 59.7834 75.5404C60.0098 75.1647 60.684 74.9252 61.8062 74.8221C62.9441 74.7228 64.0919 74.8171 65.2498 75.1049C68.7549 75.9762 70.1204 77.9688 69.3463 81.0826C69.004 82.4596 68.1864 83.7434 66.8936 84.9339C65.6047 86.1088 64.206 87.057 62.6975 87.7785L67.4853 88.7694C67.3574 89.6181 67.2176 90.3476 67.0659 90.9579C66.9142 91.5681 66.6606 92.0534 66.3053 92.4136C65.9499 92.7739 65.5453 92.8976 65.0915 92.7848Z" fill="#027A8D"/>
<path d="M74.689 95.4198C72.7331 94.9336 71.3081 93.8151 70.4142 92.0644C69.5359 90.3175 69.441 88.0593 70.1295 85.2897C70.818 82.5201 71.9631 80.5867 73.565 79.4897C75.1708 78.3769 76.9594 78.0656 78.931 78.5557C80.9183 79.0497 82.3471 80.1525 83.2175 81.8642C84.0879 83.5759 84.1711 85.8478 83.4671 88.68C82.763 91.5122 81.612 93.469 80.014 94.5504C78.4356 95.6201 76.6606 95.9099 74.689 95.4198ZM77.7638 83.0505C77.1692 82.9027 76.5751 83.1205 75.9815 83.704C75.4074 84.2757 74.9648 85.1874 74.6536 86.4392C74.3424 87.691 74.2988 88.702 74.5227 89.4721C74.7662 90.2304 75.2008 90.6873 75.8267 90.8429C76.4683 91.0024 77.0683 90.7944 77.6267 90.2188C78.2008 89.647 78.6435 88.7353 78.9546 87.4835C79.2658 86.2317 79.2938 85.2169 79.0386 84.439C78.799 83.665 78.3741 83.2022 77.7638 83.0505Z" fill="#027A8D"/>
<path d="M88.3885 88.7198C88.9205 88.8521 89.3071 89.1517 89.5482 89.6187C89.7894 90.0857 89.8175 90.6908 89.6328 91.434C89.4499 92.1695 89.1427 92.6871 88.711 92.9868C88.2871 93.2885 87.813 93.3742 87.2888 93.2438C86.7646 93.1135 86.38 92.8227 86.135 92.3714C85.892 91.9122 85.8638 91.3071 86.0505 90.556C86.2391 89.7971 86.5445 89.2707 86.9664 88.9769C87.3903 88.6752 87.8643 88.5895 88.3885 88.7198ZM88.4034 91.116C88.5299 90.6074 88.4092 90.3075 88.0415 90.2161C87.6738 90.1247 87.4267 90.3332 87.3003 90.8418C87.24 91.0843 87.2452 91.2808 87.3158 91.4313C87.3863 91.5817 87.5038 91.6774 87.6681 91.7182C87.8324 91.7591 87.9809 91.7295 88.1138 91.6296C88.2466 91.5297 88.3432 91.3585 88.4034 91.116ZM92.2609 93.8443C92.793 93.9766 93.1795 94.2762 93.4206 94.7432C93.6618 95.2102 93.6899 95.8153 93.5052 96.5586C93.3224 97.294 93.0151 97.8116 92.5834 98.1113C92.1595 98.413 91.6854 98.4987 91.1613 98.3684C90.6371 98.2381 90.2525 97.9472 90.0074 97.4959C89.7644 97.0367 89.7362 96.4316 89.9229 95.6805C90.1116 94.9216 90.4169 94.3953 90.8388 94.1014C91.2627 93.7997 91.7368 93.714 92.2609 93.8443ZM92.2759 96.2405C92.4023 95.732 92.2816 95.432 91.9139 95.3406C91.5462 95.2492 91.2991 95.4578 91.1727 95.9663C91.1124 96.2088 91.1176 96.4053 91.1882 96.5558C91.2588 96.7063 91.3762 96.8019 91.5405 96.8428C91.7048 96.8836 91.8534 96.8541 91.9862 96.7542C92.119 96.6543 92.2156 96.4831 92.2759 96.2405ZM92.9626 89.969C93.0486 89.9239 93.1307 89.9111 93.2089 89.9306C93.4984 90.0025 93.7245 90.2124 93.8873 90.5602C93.952 90.7009 93.9746 90.8104 93.9552 90.8886C93.9377 90.959 93.9084 91.0099 93.8674 91.0413L86.4376 97.1194C86.3516 97.1645 86.2695 97.1773 86.1913 97.1578C85.9096 97.0878 85.6884 96.875 85.5276 96.5193C85.455 96.3767 85.4275 96.2702 85.445 96.1998C85.4625 96.1293 85.4918 96.0785 85.5328 96.0471L92.9626 89.969Z" fill="#027A8D"/>
<path d="M90.9628 30.5227C88.4319 29.8935 85.7631 31.9568 84.9977 35.131C84.5374 37.0399 84.8641 39.0183 85.8774 40.4004C84.5647 48.2683 81.918 54.7854 76.9232 54.3308C70.8523 53.4474 71.2801 46.0457 71.7829 39.026C73.0198 37.7491 73.5498 35.681 73.1575 33.5853C72.5447 30.3259 69.9503 28.0118 67.3517 28.4163C64.7573 28.8209 63.1503 31.7839 63.7589 35.0433C64.1903 37.3404 65.6419 39.2553 67.4852 39.9658C69.5014 46.2797 71.0574 56.2331 68.3707 58.3707C66.8892 59.5363 64.9116 58.5603 62.987 56.6287C63.7256 55.1674 63.3382 53.2244 62.0097 51.6731C60.1583 49.5074 57.0903 48.7851 55.1578 50.0505C53.2243 51.3157 53.1625 54.0956 55.0169 56.2621C56.4672 57.9445 58.7175 58.8067 60.6023 58.3973C66.5299 63.1909 70.3188 70.8536 75.8116 71.3209C83.6051 71.9868 86.0843 61.8355 93.8578 60.6799C94.998 61.8817 96.9663 62.2903 98.8005 61.6967C101.203 60.9114 102.566 58.677 101.85 56.7128C101.136 54.739 98.6019 53.7761 96.1897 54.5589C94.3874 55.1503 93.0993 56.5961 92.966 58.1877C89.5072 59.5883 85.3087 60.2905 83.604 58.6154C82.2359 57.2762 86.5891 47.0156 89.5709 42.0956C91.6779 41.8423 93.5446 39.945 94.1564 37.4077C94.9219 34.2335 93.494 31.1509 90.9628 30.5227Z" fill="#027A8D"/>
<ellipse cx="54.3513" cy="100.542" rx="1.20928" ry="1.53908" transform="rotate(-57.4562 54.3513 100.542)" fill="white"/>
<path d="M34.1225 14.8973C34.1225 14.8973 35.9469 18.5707 35.5971 20.9958C35.1614 24.0163 33.4826 25.5206 31.0302 27.337C29.1327 28.7424 27.5315 28.556 25.4607 29.6908C23.8783 30.5579 22.391 30.6 21.5926 32.2182C20.5248 34.3827 23.3603 38.1404 23.3603 38.1404C23.3603 38.1404 25.1016 41.0144 25.8891 43.0057C26.8371 45.403 27.9727 46.8558 27.54 49.3973C27.0362 52.3563 25.2733 53.7493 22.7967 55.4454C20.3939 57.091 18.4533 58.0591 15.7633 59.6781C14.2981 60.56 13.1246 61.5507 12.6007 63.3779C11.7338 66.4014 16.1876 70.0015 16.1876 70.0015C16.1876 70.0015 14.1639 66.5047 14.9478 63.9613C15.766 61.3067 20.3382 59.3201 20.3382 59.3201C20.3382 59.3201 25.0603 57.3838 27.1369 55.029C29.4168 52.4436 30.712 50.3759 30.6456 46.9295C30.5798 43.5077 28.3151 42.123 26.881 39.0156C25.9228 36.9396 23.2439 35.6114 24.4689 33.6809C26.1079 31.0977 28.8064 31.2701 31.9717 29.5648C33.6839 28.6423 35.7801 26.2748 35.7801 26.2748C35.7801 26.2748 38.7651 22.3332 38.1763 19.6432C37.6551 17.2621 34.1225 14.8973 34.1225 14.8973Z" fill="white" stroke="white"/>
<path d="M19.7628 76.1038C19.2959 73.6334 18.8304 80.4922 17.4471 82.7063C16.2106 84.6856 14.16 84.1737 13.549 86.6314C13.2507 87.8315 13.4864 88.7237 13.92 89.6607C14.4048 90.7084 15.0755 91.051 15.9434 91.4683C18.7546 92.8197 21.9302 93.6097 21.9302 93.6097L33.151 96.399C36.7889 97.3033 42.7546 98.4595 42.7546 98.4595C42.7546 98.4595 45.7186 99.1963 47.9122 99.4153C50.1057 99.6343 49.7585 99.2223 49.7585 99.2223C49.7585 99.2223 48.2076 97.8573 46.3887 97.4052L36.0147 94.8263L24.1587 91.8791L18.307 90.0987L16.2663 89.2652C16.2663 89.2652 15.4776 88.5475 15.5133 87.7729C15.5485 87.0078 15.8918 86.479 16.395 86.0344C17.2591 85.2709 17.6403 85.4611 18.3355 84.5585C19.1788 83.4636 19.2001 82.8097 19.5228 81.5908C20.0835 79.4729 20.1511 78.1586 19.7628 76.1038Z" fill="white"/>
<path d="M21.9302 93.6097C21.9302 93.6097 18.7546 92.8197 15.9434 91.4683C15.0755 91.051 14.4048 90.7084 13.92 89.6607C13.4864 88.7237 13.2507 87.8315 13.549 86.6314C14.16 84.1737 16.2106 84.6856 17.4471 82.7063C18.8304 80.4922 19.2959 73.6334 19.7628 76.1038C20.1511 78.1586 20.0835 79.4729 19.5228 81.5908C19.2001 82.8097 19.1788 83.4636 18.3355 84.5585C17.6403 85.4611 17.2591 85.2709 16.395 86.0344C15.8918 86.479 15.5485 87.0078 15.5133 87.7729C15.4776 88.5475 16.2663 89.2652 16.2663 89.2652L18.307 90.0987L24.1587 91.8791L36.0147 94.8263M21.9302 93.6097C21.9302 93.6097 28.8517 95.3302 33.151 96.399M21.9302 93.6097L33.151 96.399M33.151 96.399C36.7889 97.3033 42.7546 98.4595 42.7546 98.4595C42.7546 98.4595 45.7186 99.1963 47.9122 99.4153C50.1057 99.6343 49.7585 99.2223 49.7585 99.2223C49.7585 99.2223 48.2076 97.8573 46.3887 97.4052M46.3887 97.4052C42.3374 96.3981 36.0147 94.8263 36.0147 94.8263M46.3887 97.4052L36.0147 94.8263" stroke="white"/>
</svg>
