<svg width="710" height="257" viewBox="0 0 710 257" fill="none" xmlns="http://www.w3.org/2000/svg">
<rect y="73.0015" width="710" height="184" rx="30" fill="#BAE8FE"/>
<path d="M57.398 190.587H52.451L51.601 193.001H49.578L53.811 181.169H56.055L60.288 193.001H58.248L57.398 190.587ZM56.854 189.006L54.933 183.515L52.995 189.006H56.854ZM69.9445 193.154C69.2079 193.154 68.5449 193.024 67.9555 192.763C67.3775 192.491 66.9185 192.129 66.5785 191.675C66.2385 191.211 66.0572 190.695 66.0345 190.128H68.0405C68.0745 190.525 68.2615 190.859 68.6015 191.131C68.9529 191.392 69.3892 191.522 69.9105 191.522C70.4545 191.522 70.8739 191.42 71.1685 191.216C71.4745 191.001 71.6275 190.729 71.6275 190.4C71.6275 190.049 71.4575 189.788 71.1175 189.618C70.7889 189.448 70.2619 189.261 69.5365 189.057C68.8339 188.865 68.2615 188.678 67.8195 188.496C67.3775 188.315 66.9922 188.037 66.6635 187.663C66.3462 187.289 66.1875 186.796 66.1875 186.184C66.1875 185.686 66.3349 185.232 66.6295 184.824C66.9242 184.405 67.3435 184.076 67.8875 183.838C68.4429 183.6 69.0775 183.481 69.7915 183.481C70.8569 183.481 71.7125 183.753 72.3585 184.297C73.0159 184.83 73.3672 185.561 73.4125 186.49H71.4745C71.4405 186.071 71.2705 185.737 70.9645 185.487C70.6585 185.238 70.2449 185.113 69.7235 185.113C69.2135 185.113 68.8225 185.21 68.5505 185.402C68.2785 185.595 68.1425 185.85 68.1425 186.167C68.1425 186.417 68.2332 186.626 68.4145 186.796C68.5959 186.966 68.8169 187.102 69.0775 187.204C69.3382 187.295 69.7235 187.414 70.2335 187.561C70.9135 187.743 71.4689 187.93 71.8995 188.122C72.3415 188.304 72.7212 188.576 73.0385 188.938C73.3559 189.301 73.5202 189.783 73.5315 190.383C73.5315 190.916 73.3842 191.392 73.0895 191.811C72.7949 192.231 72.3755 192.559 71.8315 192.797C71.2989 193.035 70.6699 193.154 69.9445 193.154ZM79.6886 193.154C78.8046 193.154 78.0056 192.956 77.2916 192.559C76.5776 192.151 76.0166 191.585 75.6086 190.859C75.2006 190.123 74.9966 189.273 74.9966 188.309C74.9966 187.357 75.2063 186.513 75.6256 185.776C76.0449 185.04 76.6173 184.473 77.3426 184.076C78.0679 183.68 78.8783 183.481 79.7736 183.481C80.6689 183.481 81.4793 183.68 82.2046 184.076C82.9299 184.473 83.5023 185.04 83.9216 185.776C84.3409 186.513 84.5506 187.357 84.5506 188.309C84.5506 189.261 84.3353 190.106 83.9046 190.842C83.4739 191.579 82.8846 192.151 82.1366 192.559C81.3999 192.956 80.5839 193.154 79.6886 193.154ZM79.6886 191.471C80.1873 191.471 80.6519 191.352 81.0826 191.114C81.5246 190.876 81.8816 190.519 82.1536 190.043C82.4256 189.567 82.5616 188.989 82.5616 188.309C82.5616 187.629 82.4313 187.057 82.1706 186.592C81.9099 186.116 81.5643 185.759 81.1336 185.521C80.7029 185.283 80.2383 185.164 79.7396 185.164C79.2409 185.164 78.7763 185.283 78.3456 185.521C77.9263 185.759 77.5919 186.116 77.3426 186.592C77.0933 187.057 76.9686 187.629 76.9686 188.309C76.9686 189.318 77.2236 190.1 77.7336 190.655C78.2549 191.199 78.9066 191.471 79.6886 191.471ZM88.4044 180.421V193.001H86.4664V180.421H88.4044ZM91.9348 182.393C91.5835 182.393 91.2888 182.274 91.0508 182.036C90.8128 181.798 90.6938 181.504 90.6938 181.152C90.6938 180.801 90.8128 180.506 91.0508 180.268C91.2888 180.03 91.5835 179.911 91.9348 179.911C92.2748 179.911 92.5638 180.03 92.8018 180.268C93.0398 180.506 93.1588 180.801 93.1588 181.152C93.1588 181.504 93.0398 181.798 92.8018 182.036C92.5638 182.274 92.2748 182.393 91.9348 182.393ZM92.8868 183.634V193.001H90.9488V183.634H92.8868ZM94.7853 188.275C94.7853 187.335 94.9779 186.502 95.3633 185.776C95.7599 185.051 96.2926 184.49 96.9613 184.093C97.6413 183.685 98.3949 183.481 99.2223 183.481C99.8343 183.481 100.435 183.617 101.024 183.889C101.625 184.15 102.101 184.501 102.452 184.943V180.421H104.407V193.001H102.452V191.59C102.135 192.044 101.693 192.418 101.126 192.712C100.571 193.007 99.9306 193.154 99.2053 193.154C98.3893 193.154 97.6413 192.95 96.9613 192.542C96.2926 192.123 95.7599 191.545 95.3633 190.808C94.9779 190.06 94.7853 189.216 94.7853 188.275ZM102.452 188.309C102.452 187.663 102.316 187.102 102.044 186.626C101.784 186.15 101.438 185.788 101.007 185.538C100.577 185.289 100.112 185.164 99.6133 185.164C99.1146 185.164 98.6499 185.289 98.2193 185.538C97.7886 185.776 97.4373 186.133 97.1653 186.609C96.9046 187.074 96.7743 187.629 96.7743 188.275C96.7743 188.921 96.9046 189.488 97.1653 189.975C97.4373 190.463 97.7886 190.837 98.2193 191.097C98.6613 191.347 99.1259 191.471 99.6133 191.471C100.112 191.471 100.577 191.347 101.007 191.097C101.438 190.848 101.784 190.485 102.044 190.009C102.316 189.522 102.452 188.955 102.452 188.309ZM106.307 188.275C106.307 187.335 106.499 186.502 106.885 185.776C107.281 185.051 107.814 184.49 108.483 184.093C109.163 183.685 109.911 183.481 110.727 183.481C111.463 183.481 112.104 183.629 112.648 183.923C113.203 184.207 113.645 184.564 113.974 184.994V183.634H115.929V193.001H113.974V191.607C113.645 192.049 113.197 192.418 112.631 192.712C112.064 193.007 111.418 193.154 110.693 193.154C109.888 193.154 109.151 192.95 108.483 192.542C107.814 192.123 107.281 191.545 106.885 190.808C106.499 190.06 106.307 189.216 106.307 188.275ZM113.974 188.309C113.974 187.663 113.838 187.102 113.566 186.626C113.305 186.15 112.959 185.788 112.529 185.538C112.098 185.289 111.633 185.164 111.135 185.164C110.636 185.164 110.171 185.289 109.741 185.538C109.31 185.776 108.959 186.133 108.687 186.609C108.426 187.074 108.296 187.629 108.296 188.275C108.296 188.921 108.426 189.488 108.687 189.975C108.959 190.463 109.31 190.837 109.741 191.097C110.183 191.347 110.647 191.471 111.135 191.471C111.633 191.471 112.098 191.347 112.529 191.097C112.959 190.848 113.305 190.485 113.566 190.009C113.838 189.522 113.974 188.955 113.974 188.309ZM120.412 184.994C120.696 184.518 121.07 184.15 121.534 183.889C122.01 183.617 122.571 183.481 123.217 183.481V185.487H122.724C121.965 185.487 121.387 185.68 120.99 186.065C120.605 186.451 120.412 187.119 120.412 188.071V193.001H118.474V183.634H120.412V184.994ZM125.985 182.393C125.633 182.393 125.339 182.274 125.101 182.036C124.863 181.798 124.744 181.504 124.744 181.152C124.744 180.801 124.863 180.506 125.101 180.268C125.339 180.03 125.633 179.911 125.985 179.911C126.325 179.911 126.614 180.03 126.852 180.268C127.09 180.506 127.209 180.801 127.209 181.152C127.209 181.504 127.09 181.798 126.852 182.036C126.614 182.274 126.325 182.393 125.985 182.393ZM126.937 183.634V193.001H124.999V183.634H126.937ZM138.066 188.088C138.066 188.44 138.043 188.757 137.998 189.04H130.841C130.898 189.788 131.175 190.389 131.674 190.842C132.173 191.296 132.785 191.522 133.51 191.522C134.553 191.522 135.289 191.086 135.72 190.213H137.811C137.528 191.075 137.012 191.783 136.264 192.338C135.527 192.882 134.609 193.154 133.51 193.154C132.615 193.154 131.81 192.956 131.096 192.559C130.393 192.151 129.838 191.585 129.43 190.859C129.033 190.123 128.835 189.273 128.835 188.309C128.835 187.346 129.028 186.502 129.413 185.776C129.81 185.04 130.359 184.473 131.062 184.076C131.776 183.68 132.592 183.481 133.51 183.481C134.394 183.481 135.182 183.674 135.873 184.059C136.564 184.445 137.103 184.989 137.488 185.691C137.873 186.383 138.066 187.182 138.066 188.088ZM136.043 187.476C136.032 186.762 135.777 186.19 135.278 185.759C134.779 185.329 134.162 185.113 133.425 185.113C132.756 185.113 132.184 185.329 131.708 185.759C131.232 186.179 130.949 186.751 130.858 187.476H136.043ZM139.327 188.275C139.327 187.335 139.52 186.502 139.905 185.776C140.302 185.051 140.835 184.49 141.503 184.093C142.183 183.685 142.937 183.481 143.764 183.481C144.376 183.481 144.977 183.617 145.566 183.889C146.167 184.15 146.643 184.501 146.994 184.943V180.421H148.949V193.001H146.994V191.59C146.677 192.044 146.235 192.418 145.668 192.712C145.113 193.007 144.473 193.154 143.747 193.154C142.931 193.154 142.183 192.95 141.503 192.542C140.835 192.123 140.302 191.545 139.905 190.808C139.52 190.06 139.327 189.216 139.327 188.275ZM146.994 188.309C146.994 187.663 146.858 187.102 146.586 186.626C146.326 186.15 145.98 185.788 145.549 185.538C145.119 185.289 144.654 185.164 144.155 185.164C143.657 185.164 143.192 185.289 142.761 185.538C142.331 185.776 141.979 186.133 141.707 186.609C141.447 187.074 141.316 187.629 141.316 188.275C141.316 188.921 141.447 189.488 141.707 189.975C141.979 190.463 142.331 190.837 142.761 191.097C143.203 191.347 143.668 191.471 144.155 191.471C144.654 191.471 145.119 191.347 145.549 191.097C145.98 190.848 146.326 190.485 146.586 190.009C146.858 189.522 146.994 188.955 146.994 188.309ZM150.849 188.275C150.849 187.335 151.041 186.502 151.427 185.776C151.823 185.051 152.356 184.49 153.025 184.093C153.705 183.685 154.453 183.481 155.269 183.481C156.005 183.481 156.646 183.629 157.19 183.923C157.745 184.207 158.187 184.564 158.516 184.994V183.634H160.471V193.001H158.516V191.607C158.187 192.049 157.739 192.418 157.173 192.712C156.606 193.007 155.96 193.154 155.235 193.154C154.43 193.154 153.693 192.95 153.025 192.542C152.356 192.123 151.823 191.545 151.427 190.808C151.041 190.06 150.849 189.216 150.849 188.275ZM158.516 188.309C158.516 187.663 158.38 187.102 158.108 186.626C157.847 186.15 157.501 185.788 157.071 185.538C156.64 185.289 156.175 185.164 155.677 185.164C155.178 185.164 154.713 185.289 154.283 185.538C153.852 185.776 153.501 186.133 153.229 186.609C152.968 187.074 152.838 187.629 152.838 188.275C152.838 188.921 152.968 189.488 153.229 189.975C153.501 190.463 153.852 190.837 154.283 191.097C154.725 191.347 155.189 191.471 155.677 191.471C156.175 191.471 156.64 191.347 157.071 191.097C157.501 190.848 157.847 190.485 158.108 190.009C158.38 189.522 158.516 188.955 158.516 188.309ZM162.37 188.275C162.37 187.335 162.563 186.502 162.948 185.776C163.345 185.051 163.878 184.49 164.546 184.093C165.226 183.685 165.98 183.481 166.807 183.481C167.419 183.481 168.02 183.617 168.609 183.889C169.21 184.15 169.686 184.501 170.037 184.943V180.421H171.992V193.001H170.037V191.59C169.72 192.044 169.278 192.418 168.711 192.712C168.156 193.007 167.516 193.154 166.79 193.154C165.974 193.154 165.226 192.95 164.546 192.542C163.878 192.123 163.345 191.545 162.948 190.808C162.563 190.06 162.37 189.216 162.37 188.275ZM170.037 188.309C170.037 187.663 169.901 187.102 169.629 186.626C169.369 186.15 169.023 185.788 168.592 185.538C168.162 185.289 167.697 185.164 167.198 185.164C166.7 185.164 166.235 185.289 165.804 185.538C165.374 185.776 165.022 186.133 164.75 186.609C164.49 187.074 164.359 187.629 164.359 188.275C164.359 188.921 164.49 189.488 164.75 189.975C165.022 190.463 165.374 190.837 165.804 191.097C166.246 191.347 166.711 191.471 167.198 191.471C167.697 191.471 168.162 191.347 168.592 191.097C169.023 190.848 169.369 190.485 169.629 190.009C169.901 189.522 170.037 188.955 170.037 188.309ZM183.123 188.088C183.123 188.44 183.1 188.757 183.055 189.04H175.898C175.954 189.788 176.232 190.389 176.731 190.842C177.229 191.296 177.841 191.522 178.567 191.522C179.609 191.522 180.346 191.086 180.777 190.213H182.868C182.584 191.075 182.069 191.783 181.321 192.338C180.584 192.882 179.666 193.154 178.567 193.154C177.671 193.154 176.867 192.956 176.153 192.559C175.45 192.151 174.895 191.585 174.487 190.859C174.09 190.123 173.892 189.273 173.892 188.309C173.892 187.346 174.084 186.502 174.47 185.776C174.866 185.04 175.416 184.473 176.119 184.076C176.833 183.68 177.649 183.481 178.567 183.481C179.451 183.481 180.238 183.674 180.93 184.059C181.621 184.445 182.159 184.989 182.545 185.691C182.93 186.383 183.123 187.182 183.123 188.088ZM181.1 187.476C181.088 186.762 180.833 186.19 180.335 185.759C179.836 185.329 179.218 185.113 178.482 185.113C177.813 185.113 177.241 185.329 176.765 185.759C176.289 186.179 176.005 186.751 175.915 187.476H181.1ZM198.031 188.088C198.031 188.44 198.008 188.757 197.963 189.04H190.806C190.863 189.788 191.14 190.389 191.639 190.842C192.138 191.296 192.75 191.522 193.475 191.522C194.518 191.522 195.254 191.086 195.685 190.213H197.776C197.493 191.075 196.977 191.783 196.229 192.338C195.492 192.882 194.574 193.154 193.475 193.154C192.58 193.154 191.775 192.956 191.061 192.559C190.358 192.151 189.803 191.585 189.395 190.859C188.998 190.123 188.8 189.273 188.8 188.309C188.8 187.346 188.993 186.502 189.378 185.776C189.775 185.04 190.324 184.473 191.027 184.076C191.741 183.68 192.557 183.481 193.475 183.481C194.359 183.481 195.147 183.674 195.838 184.059C196.529 184.445 197.068 184.989 197.453 185.691C197.838 186.383 198.031 187.182 198.031 188.088ZM196.008 187.476C195.997 186.762 195.742 186.19 195.243 185.759C194.744 185.329 194.127 185.113 193.39 185.113C192.721 185.113 192.149 185.329 191.673 185.759C191.197 186.179 190.914 186.751 190.823 187.476H196.008ZM195.175 181.118L191.418 182.971V181.543L195.175 179.469V181.118ZM203.708 188.275C203.708 187.335 203.901 186.502 204.286 185.776C204.683 185.051 205.215 184.49 205.884 184.093C206.564 183.685 207.312 183.481 208.128 183.481C208.865 183.481 209.505 183.629 210.049 183.923C210.604 184.207 211.046 184.564 211.375 184.994V183.634H213.33V193.001H211.375V191.607C211.046 192.049 210.599 192.418 210.032 192.712C209.465 193.007 208.819 193.154 208.094 193.154C207.289 193.154 206.553 192.95 205.884 192.542C205.215 192.123 204.683 191.545 204.286 190.808C203.901 190.06 203.708 189.216 203.708 188.275ZM211.375 188.309C211.375 187.663 211.239 187.102 210.967 186.626C210.706 186.15 210.361 185.788 209.93 185.538C209.499 185.289 209.035 185.164 208.536 185.164C208.037 185.164 207.573 185.289 207.142 185.538C206.711 185.776 206.36 186.133 206.088 186.609C205.827 187.074 205.697 187.629 205.697 188.275C205.697 188.921 205.827 189.488 206.088 189.975C206.36 190.463 206.711 190.837 207.142 191.097C207.584 191.347 208.049 191.471 208.536 191.471C209.035 191.471 209.499 191.347 209.93 191.097C210.361 190.848 210.706 190.485 210.967 190.009C211.239 189.522 211.375 188.955 211.375 188.309ZM228.877 188.088C228.877 188.44 228.854 188.757 228.809 189.04H221.652C221.708 189.788 221.986 190.389 222.485 190.842C222.983 191.296 223.595 191.522 224.321 191.522C225.363 191.522 226.1 191.086 226.531 190.213H228.622C228.338 191.075 227.823 191.783 227.075 192.338C226.338 192.882 225.42 193.154 224.321 193.154C223.425 193.154 222.621 192.956 221.907 192.559C221.204 192.151 220.649 191.585 220.241 190.859C219.844 190.123 219.646 189.273 219.646 188.309C219.646 187.346 219.838 186.502 220.224 185.776C220.62 185.04 221.17 184.473 221.873 184.076C222.587 183.68 223.403 183.481 224.321 183.481C225.205 183.481 225.992 183.674 226.684 184.059C227.375 184.445 227.913 184.989 228.299 185.691C228.684 186.383 228.877 187.182 228.877 188.088ZM226.854 187.476C226.842 186.762 226.587 186.19 226.089 185.759C225.59 185.329 224.972 185.113 224.236 185.113C223.567 185.113 222.995 185.329 222.519 185.759C222.043 186.179 221.759 186.751 221.669 187.476H226.854ZM235.51 183.481C236.246 183.481 236.904 183.634 237.482 183.94C238.071 184.246 238.53 184.7 238.859 185.3C239.187 185.901 239.352 186.626 239.352 187.476V193.001H237.431V187.765C237.431 186.927 237.221 186.286 236.802 185.844C236.382 185.391 235.81 185.164 235.085 185.164C234.359 185.164 233.781 185.391 233.351 185.844C232.931 186.286 232.722 186.927 232.722 187.765V193.001H230.784V183.634H232.722V184.705C233.039 184.32 233.441 184.02 233.929 183.804C234.427 183.589 234.954 183.481 235.51 183.481ZM245.598 183.481C246.323 183.481 246.963 183.629 247.519 183.923C248.085 184.207 248.527 184.564 248.845 184.994V183.634H250.8V193.154C250.8 194.016 250.618 194.781 250.256 195.449C249.893 196.129 249.366 196.662 248.675 197.047C247.995 197.433 247.179 197.625 246.227 197.625C244.957 197.625 243.903 197.325 243.065 196.724C242.226 196.135 241.75 195.33 241.637 194.31H243.558C243.705 194.798 244.017 195.189 244.493 195.483C244.98 195.789 245.558 195.942 246.227 195.942C247.009 195.942 247.638 195.704 248.114 195.228C248.601 194.752 248.845 194.061 248.845 193.154V191.59C248.516 192.032 248.068 192.406 247.502 192.712C246.946 193.007 246.312 193.154 245.598 193.154C244.782 193.154 244.034 192.95 243.354 192.542C242.685 192.123 242.152 191.545 241.756 190.808C241.37 190.06 241.178 189.216 241.178 188.275C241.178 187.335 241.37 186.502 241.756 185.776C242.152 185.051 242.685 184.49 243.354 184.093C244.034 183.685 244.782 183.481 245.598 183.481ZM248.845 188.309C248.845 187.663 248.709 187.102 248.437 186.626C248.176 186.15 247.83 185.788 247.4 185.538C246.969 185.289 246.504 185.164 246.006 185.164C245.507 185.164 245.042 185.289 244.612 185.538C244.181 185.776 243.83 186.133 243.558 186.609C243.297 187.074 243.167 187.629 243.167 188.275C243.167 188.921 243.297 189.488 243.558 189.975C243.83 190.463 244.181 190.837 244.612 191.097C245.054 191.347 245.518 191.471 246.006 191.471C246.504 191.471 246.969 191.347 247.4 191.097C247.83 190.848 248.176 190.485 248.437 190.009C248.709 189.522 248.845 188.955 248.845 188.309ZM255.283 184.994C255.567 184.518 255.941 184.15 256.405 183.889C256.881 183.617 257.442 183.481 258.088 183.481V185.487H257.595C256.836 185.487 256.258 185.68 255.861 186.065C255.476 186.451 255.283 187.119 255.283 188.071V193.001H253.345V183.634H255.283V184.994ZM268.455 188.088C268.455 188.44 268.432 188.757 268.387 189.04H261.23C261.286 189.788 261.564 190.389 262.063 190.842C262.561 191.296 263.173 191.522 263.899 191.522C264.941 191.522 265.678 191.086 266.109 190.213H268.2C267.916 191.075 267.401 191.783 266.653 192.338C265.916 192.882 264.998 193.154 263.899 193.154C263.003 193.154 262.199 192.956 261.485 192.559C260.782 192.151 260.227 191.585 259.819 190.859C259.422 190.123 259.224 189.273 259.224 188.309C259.224 187.346 259.416 186.502 259.802 185.776C260.198 185.04 260.748 184.473 261.451 184.076C262.165 183.68 262.981 183.481 263.899 183.481C264.783 183.481 265.57 183.674 266.262 184.059C266.953 184.445 267.491 184.989 267.877 185.691C268.262 186.383 268.455 187.182 268.455 188.088ZM266.432 187.476C266.42 186.762 266.165 186.19 265.667 185.759C265.168 185.329 264.55 185.113 263.814 185.113C263.145 185.113 262.573 185.329 262.097 185.759C261.621 186.179 261.337 186.751 261.247 187.476H266.432ZM275.088 183.481C275.825 183.481 276.482 183.634 277.06 183.94C277.649 184.246 278.108 184.7 278.437 185.3C278.766 185.901 278.93 186.626 278.93 187.476V193.001H277.009V187.765C277.009 186.927 276.799 186.286 276.38 185.844C275.961 185.391 275.388 185.164 274.663 185.164C273.938 185.164 273.36 185.391 272.929 185.844C272.51 186.286 272.3 186.927 272.3 187.765V193.001H270.362V183.634H272.3V184.705C272.617 184.32 273.02 184.02 273.507 183.804C274.006 183.589 274.533 183.481 275.088 183.481ZM280.756 188.275C280.756 187.335 280.949 186.502 281.334 185.776C281.731 185.051 282.263 184.49 282.932 184.093C283.612 183.685 284.36 183.481 285.176 183.481C285.913 183.481 286.553 183.629 287.097 183.923C287.652 184.207 288.094 184.564 288.423 184.994V183.634H290.378V193.001H288.423V191.607C288.094 192.049 287.647 192.418 287.08 192.712C286.513 193.007 285.867 193.154 285.142 193.154C284.337 193.154 283.601 192.95 282.932 192.542C282.263 192.123 281.731 191.545 281.334 190.808C280.949 190.06 280.756 189.216 280.756 188.275ZM288.423 188.309C288.423 187.663 288.287 187.102 288.015 186.626C287.754 186.15 287.409 185.788 286.978 185.538C286.547 185.289 286.083 185.164 285.584 185.164C285.085 185.164 284.621 185.289 284.19 185.538C283.759 185.776 283.408 186.133 283.136 186.609C282.875 187.074 282.745 187.629 282.745 188.275C282.745 188.921 282.875 189.488 283.136 189.975C283.408 190.463 283.759 190.837 284.19 191.097C284.632 191.347 285.097 191.471 285.584 191.471C286.083 191.471 286.547 191.347 286.978 191.097C287.409 190.848 287.754 190.485 288.015 190.009C288.287 189.522 288.423 188.955 288.423 188.309ZM296.697 183.481C297.423 183.481 298.063 183.629 298.618 183.923C299.185 184.207 299.627 184.564 299.944 184.994V183.634H301.899V193.154C301.899 194.016 301.718 194.781 301.355 195.449C300.993 196.129 300.466 196.662 299.774 197.047C299.094 197.433 298.278 197.625 297.326 197.625C296.057 197.625 295.003 197.325 294.164 196.724C293.326 196.135 292.85 195.33 292.736 194.31H294.657C294.805 194.798 295.116 195.189 295.592 195.483C296.08 195.789 296.658 195.942 297.326 195.942C298.108 195.942 298.737 195.704 299.213 195.228C299.701 194.752 299.944 194.061 299.944 193.154V191.59C299.616 192.032 299.168 192.406 298.601 192.712C298.046 193.007 297.411 193.154 296.697 193.154C295.881 193.154 295.133 192.95 294.453 192.542C293.785 192.123 293.252 191.545 292.855 190.808C292.47 190.06 292.277 189.216 292.277 188.275C292.277 187.335 292.47 186.502 292.855 185.776C293.252 185.051 293.785 184.49 294.453 184.093C295.133 183.685 295.881 183.481 296.697 183.481ZM299.944 188.309C299.944 187.663 299.808 187.102 299.536 186.626C299.276 186.15 298.93 185.788 298.499 185.538C298.069 185.289 297.604 185.164 297.105 185.164C296.607 185.164 296.142 185.289 295.711 185.538C295.281 185.776 294.929 186.133 294.657 186.609C294.397 187.074 294.266 187.629 294.266 188.275C294.266 188.921 294.397 189.488 294.657 189.975C294.929 190.463 295.281 190.837 295.711 191.097C296.153 191.347 296.618 191.471 297.105 191.471C297.604 191.471 298.069 191.347 298.499 191.097C298.93 190.848 299.276 190.485 299.536 190.009C299.808 189.522 299.944 188.955 299.944 188.309ZM313.03 188.088C313.03 188.44 313.007 188.757 312.962 189.04H305.805C305.862 189.788 306.139 190.389 306.638 190.842C307.137 191.296 307.749 191.522 308.474 191.522C309.517 191.522 310.253 191.086 310.684 190.213H312.775C312.492 191.075 311.976 191.783 311.228 192.338C310.491 192.882 309.573 193.154 308.474 193.154C307.579 193.154 306.774 192.956 306.06 192.559C305.357 192.151 304.802 191.585 304.394 190.859C303.997 190.123 303.799 189.273 303.799 188.309C303.799 187.346 303.992 186.502 304.377 185.776C304.774 185.04 305.323 184.473 306.026 184.076C306.74 183.68 307.556 183.481 308.474 183.481C309.358 183.481 310.146 183.674 310.837 184.059C311.528 184.445 312.067 184.989 312.452 185.691C312.837 186.383 313.03 187.182 313.03 188.088ZM311.007 187.476C310.996 186.762 310.741 186.19 310.242 185.759C309.743 185.329 309.126 185.113 308.389 185.113C307.72 185.113 307.148 185.329 306.672 185.759C306.196 186.179 305.913 186.751 305.822 187.476H311.007ZM326.276 183.481C327.013 183.481 327.67 183.634 328.248 183.94C328.837 184.246 329.296 184.7 329.625 185.3C329.965 185.901 330.135 186.626 330.135 187.476V193.001H328.214V187.765C328.214 186.927 328.004 186.286 327.585 185.844C327.166 185.391 326.593 185.164 325.868 185.164C325.143 185.164 324.565 185.391 324.134 185.844C323.715 186.286 323.505 186.927 323.505 187.765V193.001H321.584V187.765C321.584 186.927 321.374 186.286 320.955 185.844C320.536 185.391 319.963 185.164 319.238 185.164C318.513 185.164 317.935 185.391 317.504 185.844C317.085 186.286 316.875 186.927 316.875 187.765V193.001H314.937V183.634H316.875V184.705C317.192 184.32 317.595 184.02 318.082 183.804C318.569 183.589 319.091 183.481 319.646 183.481C320.394 183.481 321.063 183.64 321.652 183.957C322.241 184.275 322.695 184.734 323.012 185.334C323.295 184.768 323.737 184.32 324.338 183.991C324.939 183.651 325.585 183.481 326.276 183.481ZM336.371 188.275C336.371 187.335 336.564 186.502 336.949 185.776C337.346 185.051 337.879 184.49 338.547 184.093C339.227 183.685 339.981 183.481 340.808 183.481C341.534 183.481 342.174 183.629 342.729 183.923C343.296 184.218 343.732 184.575 344.038 184.994V183.634H345.993V197.455H344.038V191.641C343.732 192.061 343.29 192.418 342.712 192.712C342.134 193.007 341.477 193.154 340.74 193.154C339.936 193.154 339.199 192.95 338.53 192.542C337.873 192.123 337.346 191.545 336.949 190.808C336.564 190.06 336.371 189.216 336.371 188.275ZM344.038 188.309C344.038 187.663 343.902 187.102 343.63 186.626C343.37 186.15 343.024 185.788 342.593 185.538C342.163 185.289 341.698 185.164 341.199 185.164C340.701 185.164 340.236 185.289 339.805 185.538C339.375 185.776 339.023 186.133 338.751 186.609C338.491 187.074 338.36 187.629 338.36 188.275C338.36 188.921 338.491 189.488 338.751 189.975C339.023 190.463 339.375 190.837 339.805 191.097C340.247 191.347 340.712 191.471 341.199 191.471C341.698 191.471 342.163 191.347 342.593 191.097C343.024 190.848 343.37 190.485 343.63 190.009C343.902 189.522 344.038 188.955 344.038 188.309ZM357.022 183.634V193.001H355.084V191.896C354.778 192.282 354.375 192.588 353.877 192.814C353.389 193.03 352.868 193.137 352.313 193.137C351.576 193.137 350.913 192.984 350.324 192.678C349.746 192.372 349.287 191.919 348.947 191.318C348.618 190.718 348.454 189.992 348.454 189.142V183.634H350.375V188.853C350.375 189.692 350.584 190.338 351.004 190.791C351.423 191.233 351.995 191.454 352.721 191.454C353.446 191.454 354.018 191.233 354.438 190.791C354.868 190.338 355.084 189.692 355.084 188.853V183.634H357.022ZM368.164 188.088C368.164 188.44 368.141 188.757 368.096 189.04H360.939C360.995 189.788 361.273 190.389 361.772 190.842C362.27 191.296 362.882 191.522 363.608 191.522C364.65 191.522 365.387 191.086 365.818 190.213H367.909C367.625 191.075 367.11 191.783 366.362 192.338C365.625 192.882 364.707 193.154 363.608 193.154C362.712 193.154 361.908 192.956 361.194 192.559C360.491 192.151 359.936 191.585 359.528 190.859C359.131 190.123 358.933 189.273 358.933 188.309C358.933 187.346 359.125 186.502 359.511 185.776C359.907 185.04 360.457 184.473 361.16 184.076C361.874 183.68 362.69 183.481 363.608 183.481C364.492 183.481 365.279 183.674 365.971 184.059C366.662 184.445 367.2 184.989 367.586 185.691C367.971 186.383 368.164 187.182 368.164 188.088ZM366.141 187.476C366.129 186.762 365.874 186.19 365.376 185.759C364.877 185.329 364.259 185.113 363.523 185.113C362.854 185.113 362.282 185.329 361.806 185.759C361.33 186.179 361.046 186.751 360.956 187.476H366.141ZM385.826 183.481C386.563 183.481 387.22 183.634 387.798 183.94C388.387 184.246 388.846 184.7 389.175 185.3C389.515 185.901 389.685 186.626 389.685 187.476V193.001H387.764V187.765C387.764 186.927 387.554 186.286 387.135 185.844C386.716 185.391 386.143 185.164 385.418 185.164C384.693 185.164 384.115 185.391 383.684 185.844C383.265 186.286 383.055 186.927 383.055 187.765V193.001H381.134V187.765C381.134 186.927 380.924 186.286 380.505 185.844C380.086 185.391 379.513 185.164 378.788 185.164C378.063 185.164 377.485 185.391 377.054 185.844C376.635 186.286 376.425 186.927 376.425 187.765V193.001H374.487V183.634H376.425V184.705C376.742 184.32 377.145 184.02 377.632 183.804C378.119 183.589 378.641 183.481 379.196 183.481C379.944 183.481 380.613 183.64 381.202 183.957C381.791 184.275 382.245 184.734 382.562 185.334C382.845 184.768 383.287 184.32 383.888 183.991C384.489 183.651 385.135 183.481 385.826 183.481ZM391.505 188.275C391.505 187.335 391.698 186.502 392.083 185.776C392.48 185.051 393.012 184.49 393.681 184.093C394.361 183.685 395.109 183.481 395.925 183.481C396.662 183.481 397.302 183.629 397.846 183.923C398.401 184.207 398.843 184.564 399.172 184.994V183.634H401.127V193.001H399.172V191.607C398.843 192.049 398.396 192.418 397.829 192.712C397.262 193.007 396.616 193.154 395.891 193.154C395.086 193.154 394.35 192.95 393.681 192.542C393.012 192.123 392.48 191.545 392.083 190.808C391.698 190.06 391.505 189.216 391.505 188.275ZM399.172 188.309C399.172 187.663 399.036 187.102 398.764 186.626C398.503 186.15 398.158 185.788 397.727 185.538C397.296 185.289 396.832 185.164 396.333 185.164C395.834 185.164 395.37 185.289 394.939 185.538C394.508 185.776 394.157 186.133 393.885 186.609C393.624 187.074 393.494 187.629 393.494 188.275C393.494 188.921 393.624 189.488 393.885 189.975C394.157 190.463 394.508 190.837 394.939 191.097C395.381 191.347 395.846 191.471 396.333 191.471C396.832 191.471 397.296 191.347 397.727 191.097C398.158 190.848 398.503 190.485 398.764 190.009C399.036 189.522 399.172 188.955 399.172 188.309ZM408.398 183.481C409.135 183.481 409.792 183.634 410.37 183.94C410.96 184.246 411.419 184.7 411.747 185.3C412.076 185.901 412.24 186.626 412.24 187.476V193.001H410.319V187.765C410.319 186.927 410.11 186.286 409.69 185.844C409.271 185.391 408.699 185.164 407.973 185.164C407.248 185.164 406.67 185.391 406.239 185.844C405.82 186.286 405.61 186.927 405.61 187.765V193.001H403.672V183.634H405.61V184.705C405.928 184.32 406.33 184.02 406.817 183.804C407.316 183.589 407.843 183.481 408.398 183.481ZM416.974 185.215V190.4C416.974 190.752 417.053 191.007 417.212 191.165C417.382 191.313 417.665 191.386 418.062 191.386H419.252V193.001H417.722C416.849 193.001 416.18 192.797 415.716 192.389C415.251 191.981 415.019 191.318 415.019 190.4V185.215H413.914V183.634H415.019V181.305H416.974V183.634H419.252V185.215H416.974ZM429.623 188.088C429.623 188.44 429.6 188.757 429.555 189.04H422.398C422.454 189.788 422.732 190.389 423.231 190.842C423.729 191.296 424.341 191.522 425.067 191.522C426.109 191.522 426.846 191.086 427.277 190.213H429.368C429.084 191.075 428.569 191.783 427.821 192.338C427.084 192.882 426.166 193.154 425.067 193.154C424.171 193.154 423.367 192.956 422.653 192.559C421.95 192.151 421.395 191.585 420.987 190.859C420.59 190.123 420.392 189.273 420.392 188.309C420.392 187.346 420.584 186.502 420.97 185.776C421.366 185.04 421.916 184.473 422.619 184.076C423.333 183.68 424.149 183.481 425.067 183.481C425.951 183.481 426.738 183.674 427.43 184.059C428.121 184.445 428.659 184.989 429.045 185.691C429.43 186.383 429.623 187.182 429.623 188.088ZM427.6 187.476C427.588 186.762 427.333 186.19 426.835 185.759C426.336 185.329 425.718 185.113 424.982 185.113C424.313 185.113 423.741 185.329 423.265 185.759C422.789 186.179 422.505 186.751 422.415 187.476H427.6ZM426.767 181.118L423.01 182.971V181.543L426.767 179.469V181.118ZM442.869 183.481C443.606 183.481 444.263 183.634 444.841 183.94C445.43 184.246 445.889 184.7 446.218 185.3C446.558 185.901 446.728 186.626 446.728 187.476V193.001H444.807V187.765C444.807 186.927 444.597 186.286 444.178 185.844C443.759 185.391 443.186 185.164 442.461 185.164C441.736 185.164 441.158 185.391 440.727 185.844C440.308 186.286 440.098 186.927 440.098 187.765V193.001H438.177V187.765C438.177 186.927 437.967 186.286 437.548 185.844C437.129 185.391 436.556 185.164 435.831 185.164C435.106 185.164 434.528 185.391 434.097 185.844C433.678 186.286 433.468 186.927 433.468 187.765V193.001H431.53V183.634H433.468V184.705C433.785 184.32 434.188 184.02 434.675 183.804C435.162 183.589 435.684 183.481 436.239 183.481C436.987 183.481 437.656 183.64 438.245 183.957C438.834 184.275 439.288 184.734 439.605 185.334C439.888 184.768 440.33 184.32 440.931 183.991C441.532 183.651 442.178 183.481 442.869 183.481ZM452.964 188.275C452.964 187.335 453.157 186.502 453.542 185.776C453.939 185.051 454.471 184.49 455.14 184.093C455.82 183.685 456.568 183.481 457.384 183.481C458.121 183.481 458.761 183.629 459.305 183.923C459.86 184.207 460.302 184.564 460.631 184.994V183.634H462.586V193.001H460.631V191.607C460.302 192.049 459.855 192.418 459.288 192.712C458.721 193.007 458.075 193.154 457.35 193.154C456.545 193.154 455.809 192.95 455.14 192.542C454.471 192.123 453.939 191.545 453.542 190.808C453.157 190.06 452.964 189.216 452.964 188.275ZM460.631 188.309C460.631 187.663 460.495 187.102 460.223 186.626C459.962 186.15 459.617 185.788 459.186 185.538C458.755 185.289 458.291 185.164 457.792 185.164C457.293 185.164 456.829 185.289 456.398 185.538C455.967 185.776 455.616 186.133 455.344 186.609C455.083 187.074 454.953 187.629 454.953 188.275C454.953 188.921 455.083 189.488 455.344 189.975C455.616 190.463 455.967 190.837 456.398 191.097C456.84 191.347 457.305 191.471 457.792 191.471C458.291 191.471 458.755 191.347 459.186 191.097C459.617 190.848 459.962 190.485 460.223 190.009C460.495 189.522 460.631 188.955 460.631 188.309ZM55.12 209.481C55.834 209.481 56.4687 209.634 57.024 209.94C57.5907 210.246 58.0327 210.7 58.35 211.3C58.6787 211.901 58.843 212.626 58.843 213.476V219.001H56.922V213.765C56.922 212.927 56.7123 212.286 56.293 211.844C55.8737 211.391 55.3013 211.164 54.576 211.164C53.8507 211.164 53.2727 211.391 52.842 211.844C52.4227 212.286 52.213 212.927 52.213 213.765V219.001H50.275V206.421H52.213V210.722C52.5417 210.326 52.9553 210.02 53.454 209.804C53.964 209.589 54.5193 209.481 55.12 209.481ZM69.798 209.634V219.001H67.86V217.896C67.554 218.282 67.1517 218.588 66.653 218.814C66.1657 219.03 65.6444 219.137 65.089 219.137C64.3524 219.137 63.6894 218.984 63.1 218.678C62.522 218.372 62.063 217.919 61.723 217.318C61.3944 216.718 61.23 215.992 61.23 215.142V209.634H63.151V214.853C63.151 215.692 63.3607 216.338 63.78 216.791C64.1994 217.233 64.7717 217.454 65.497 217.454C66.2224 217.454 66.7947 217.233 67.214 216.791C67.6447 216.338 67.86 215.692 67.86 214.853V209.634H69.798ZM83.6941 209.481C84.4307 209.481 85.0881 209.634 85.6661 209.94C86.2554 210.246 86.7144 210.7 87.0431 211.3C87.3831 211.901 87.5531 212.626 87.5531 213.476V219.001H85.6321V213.765C85.6321 212.927 85.4224 212.286 85.0031 211.844C84.5837 211.391 84.0114 211.164 83.2861 211.164C82.5607 211.164 81.9827 211.391 81.5521 211.844C81.1327 212.286 80.9231 212.927 80.9231 213.765V219.001H79.0021V213.765C79.0021 212.927 78.7924 212.286 78.3731 211.844C77.9537 211.391 77.3814 211.164 76.6561 211.164C75.9307 211.164 75.3527 211.391 74.9221 211.844C74.5027 212.286 74.2931 212.927 74.2931 213.765V219.001H72.3551V209.634H74.2931V210.705C74.6104 210.32 75.0127 210.02 75.5001 209.804C75.9874 209.589 76.5087 209.481 77.0641 209.481C77.8121 209.481 78.4807 209.64 79.0701 209.957C79.6594 210.275 80.1127 210.734 80.4301 211.334C80.7134 210.768 81.1554 210.32 81.7561 209.991C82.3567 209.651 83.0027 209.481 83.6941 209.481ZM89.3731 214.275C89.3731 213.335 89.5658 212.502 89.9511 211.776C90.3478 211.051 90.8805 210.49 91.5491 210.093C92.2291 209.685 92.9771 209.481 93.7931 209.481C94.5298 209.481 95.1701 209.629 95.7141 209.923C96.2695 210.207 96.7115 210.564 97.0401 210.994V209.634H98.9951V219.001H97.0401V217.607C96.7115 218.049 96.2638 218.418 95.6971 218.712C95.1305 219.007 94.4845 219.154 93.7591 219.154C92.9545 219.154 92.2178 218.95 91.5491 218.542C90.8805 218.123 90.3478 217.545 89.9511 216.808C89.5658 216.06 89.3731 215.216 89.3731 214.275ZM97.0401 214.309C97.0401 213.663 96.9041 213.102 96.6321 212.626C96.3715 212.15 96.0258 211.788 95.5951 211.538C95.1645 211.289 94.6998 211.164 94.2011 211.164C93.7025 211.164 93.2378 211.289 92.8071 211.538C92.3765 211.776 92.0251 212.133 91.7531 212.609C91.4925 213.074 91.3621 213.629 91.3621 214.275C91.3621 214.921 91.4925 215.488 91.7531 215.975C92.0251 216.463 92.3765 216.837 92.8071 217.097C93.2491 217.347 93.7138 217.471 94.2011 217.471C94.6998 217.471 95.1645 217.347 95.5951 217.097C96.0258 216.848 96.3715 216.485 96.6321 216.009C96.9041 215.522 97.0401 214.955 97.0401 214.309ZM106.267 209.481C107.003 209.481 107.661 209.634 108.239 209.94C108.828 210.246 109.287 210.7 109.616 211.3C109.944 211.901 110.109 212.626 110.109 213.476V219.001H108.188V213.765C108.188 212.927 107.978 212.286 107.559 211.844C107.139 211.391 106.567 211.164 105.842 211.164C105.116 211.164 104.538 211.391 104.108 211.844C103.688 212.286 103.479 212.927 103.479 213.765V219.001H101.541V209.634H103.479V210.705C103.796 210.32 104.198 210.02 104.686 209.804C105.184 209.589 105.711 209.481 106.267 209.481ZM113.567 208.393C113.215 208.393 112.921 208.274 112.683 208.036C112.445 207.798 112.326 207.504 112.326 207.152C112.326 206.801 112.445 206.506 112.683 206.268C112.921 206.03 113.215 205.911 113.567 205.911C113.907 205.911 114.196 206.03 114.434 206.268C114.672 206.506 114.791 206.801 114.791 207.152C114.791 207.504 114.672 207.798 114.434 208.036C114.196 208.274 113.907 208.393 113.567 208.393ZM114.519 209.634V219.001H112.581V209.634H114.519ZM116.417 214.275C116.417 213.335 116.61 212.502 116.995 211.776C117.392 211.051 117.924 210.49 118.593 210.093C119.273 209.685 120.027 209.481 120.854 209.481C121.466 209.481 122.067 209.617 122.656 209.889C123.257 210.15 123.733 210.501 124.084 210.943V206.421H126.039V219.001H124.084V217.59C123.767 218.044 123.325 218.418 122.758 218.712C122.203 219.007 121.562 219.154 120.837 219.154C120.021 219.154 119.273 218.95 118.593 218.542C117.924 218.123 117.392 217.545 116.995 216.808C116.61 216.06 116.417 215.216 116.417 214.275ZM124.084 214.309C124.084 213.663 123.948 213.102 123.676 212.626C123.415 212.15 123.07 211.788 122.639 211.538C122.208 211.289 121.744 211.164 121.245 211.164C120.746 211.164 120.282 211.289 119.851 211.538C119.42 211.776 119.069 212.133 118.797 212.609C118.536 213.074 118.406 213.629 118.406 214.275C118.406 214.921 118.536 215.488 118.797 215.975C119.069 216.463 119.42 216.837 119.851 217.097C120.293 217.347 120.758 217.471 121.245 217.471C121.744 217.471 122.208 217.347 122.639 217.097C123.07 216.848 123.415 216.485 123.676 216.009C123.948 215.522 124.084 214.955 124.084 214.309ZM127.939 214.275C127.939 213.335 128.131 212.502 128.517 211.776C128.913 211.051 129.446 210.49 130.115 210.093C130.795 209.685 131.543 209.481 132.359 209.481C133.095 209.481 133.736 209.629 134.28 209.923C134.835 210.207 135.277 210.564 135.606 210.994V209.634H137.561V219.001H135.606V217.607C135.277 218.049 134.829 218.418 134.263 218.712C133.696 219.007 133.05 219.154 132.325 219.154C131.52 219.154 130.783 218.95 130.115 218.542C129.446 218.123 128.913 217.545 128.517 216.808C128.131 216.06 127.939 215.216 127.939 214.275ZM135.606 214.309C135.606 213.663 135.47 213.102 135.198 212.626C134.937 212.15 134.591 211.788 134.161 211.538C133.73 211.289 133.265 211.164 132.767 211.164C132.268 211.164 131.803 211.289 131.373 211.538C130.942 211.776 130.591 212.133 130.319 212.609C130.058 213.074 129.928 213.629 129.928 214.275C129.928 214.921 130.058 215.488 130.319 215.975C130.591 216.463 130.942 216.837 131.373 217.097C131.815 217.347 132.279 217.471 132.767 217.471C133.265 217.471 133.73 217.347 134.161 217.097C134.591 216.848 134.937 216.485 135.198 216.009C135.47 215.522 135.606 214.955 135.606 214.309ZM139.46 214.275C139.46 213.335 139.653 212.502 140.038 211.776C140.435 211.051 140.967 210.49 141.636 210.093C142.316 209.685 143.07 209.481 143.897 209.481C144.509 209.481 145.11 209.617 145.699 209.889C146.3 210.15 146.776 210.501 147.127 210.943V206.421H149.082V219.001H147.127V217.59C146.81 218.044 146.368 218.418 145.801 218.712C145.246 219.007 144.605 219.154 143.88 219.154C143.064 219.154 142.316 218.95 141.636 218.542C140.967 218.123 140.435 217.545 140.038 216.808C139.653 216.06 139.46 215.216 139.46 214.275ZM147.127 214.309C147.127 213.663 146.991 213.102 146.719 212.626C146.458 212.15 146.113 211.788 145.682 211.538C145.251 211.289 144.787 211.164 144.288 211.164C143.789 211.164 143.325 211.289 142.894 211.538C142.463 211.776 142.112 212.133 141.84 212.609C141.579 213.074 141.449 213.629 141.449 214.275C141.449 214.921 141.579 215.488 141.84 215.975C142.112 216.463 142.463 216.837 142.894 217.097C143.336 217.347 143.801 217.471 144.288 217.471C144.787 217.471 145.251 217.347 145.682 217.097C146.113 216.848 146.458 216.485 146.719 216.009C146.991 215.522 147.127 214.955 147.127 214.309ZM160.213 214.088C160.213 214.44 160.19 214.757 160.145 215.04H152.988C153.044 215.788 153.322 216.389 153.821 216.842C154.319 217.296 154.931 217.522 155.657 217.522C156.699 217.522 157.436 217.086 157.867 216.213H159.958C159.674 217.075 159.159 217.783 158.411 218.338C157.674 218.882 156.756 219.154 155.657 219.154C154.761 219.154 153.957 218.956 153.243 218.559C152.54 218.151 151.985 217.585 151.577 216.859C151.18 216.123 150.982 215.273 150.982 214.309C150.982 213.346 151.174 212.502 151.56 211.776C151.956 211.04 152.506 210.473 153.209 210.076C153.923 209.68 154.739 209.481 155.657 209.481C156.541 209.481 157.328 209.674 158.02 210.059C158.711 210.445 159.249 210.989 159.635 211.691C160.02 212.383 160.213 213.182 160.213 214.088ZM158.19 213.476C158.178 212.762 157.923 212.19 157.425 211.759C156.926 211.329 156.308 211.113 155.572 211.113C154.903 211.113 154.331 211.329 153.855 211.759C153.379 212.179 153.095 212.751 153.005 213.476H158.19ZM175.121 214.088C175.121 214.44 175.098 214.757 175.053 215.04H167.896C167.952 215.788 168.23 216.389 168.729 216.842C169.227 217.296 169.839 217.522 170.565 217.522C171.607 217.522 172.344 217.086 172.775 216.213H174.866C174.582 217.075 174.067 217.783 173.319 218.338C172.582 218.882 171.664 219.154 170.565 219.154C169.669 219.154 168.865 218.956 168.151 218.559C167.448 218.151 166.893 217.585 166.485 216.859C166.088 216.123 165.89 215.273 165.89 214.309C165.89 213.346 166.082 212.502 166.468 211.776C166.864 211.04 167.414 210.473 168.117 210.076C168.831 209.68 169.647 209.481 170.565 209.481C171.449 209.481 172.236 209.674 172.928 210.059C173.619 210.445 174.157 210.989 174.543 211.691C174.928 212.383 175.121 213.182 175.121 214.088ZM173.098 213.476C173.086 212.762 172.831 212.19 172.333 211.759C171.834 211.329 171.216 211.113 170.48 211.113C169.811 211.113 169.239 211.329 168.763 211.759C168.287 212.179 168.003 212.751 167.913 213.476H173.098ZM188.367 209.481C189.104 209.481 189.761 209.634 190.339 209.94C190.928 210.246 191.387 210.7 191.716 211.3C192.056 211.901 192.226 212.626 192.226 213.476V219.001H190.305V213.765C190.305 212.927 190.095 212.286 189.676 211.844C189.257 211.391 188.684 211.164 187.959 211.164C187.234 211.164 186.656 211.391 186.225 211.844C185.806 212.286 185.596 212.927 185.596 213.765V219.001H183.675V213.765C183.675 212.927 183.465 212.286 183.046 211.844C182.627 211.391 182.054 211.164 181.329 211.164C180.604 211.164 180.026 211.391 179.595 211.844C179.176 212.286 178.966 212.927 178.966 213.765V219.001H177.028V209.634H178.966V210.705C179.283 210.32 179.686 210.02 180.173 209.804C180.66 209.589 181.182 209.481 181.737 209.481C182.485 209.481 183.154 209.64 183.743 209.957C184.332 210.275 184.786 210.734 185.103 211.334C185.386 210.768 185.828 210.32 186.429 209.991C187.03 209.651 187.676 209.481 188.367 209.481ZM210.447 209.481C211.184 209.481 211.841 209.634 212.419 209.94C213.008 210.246 213.467 210.7 213.796 211.3C214.136 211.901 214.306 212.626 214.306 213.476V219.001H212.385V213.765C212.385 212.927 212.175 212.286 211.756 211.844C211.337 211.391 210.764 211.164 210.039 211.164C209.314 211.164 208.736 211.391 208.305 211.844C207.886 212.286 207.676 212.927 207.676 213.765V219.001H205.755V213.765C205.755 212.927 205.545 212.286 205.126 211.844C204.707 211.391 204.134 211.164 203.409 211.164C202.684 211.164 202.106 211.391 201.675 211.844C201.256 212.286 201.046 212.927 201.046 213.765V219.001H199.108V209.634H201.046V210.705C201.363 210.32 201.766 210.02 202.253 209.804C202.74 209.589 203.262 209.481 203.817 209.481C204.565 209.481 205.234 209.64 205.823 209.957C206.412 210.275 206.866 210.734 207.183 211.334C207.466 210.768 207.908 210.32 208.509 209.991C209.11 209.651 209.756 209.481 210.447 209.481ZM220.835 219.154C219.951 219.154 219.152 218.956 218.438 218.559C217.724 218.151 217.163 217.585 216.755 216.859C216.347 216.123 216.143 215.273 216.143 214.309C216.143 213.357 216.353 212.513 216.772 211.776C217.191 211.04 217.764 210.473 218.489 210.076C219.214 209.68 220.025 209.481 220.92 209.481C221.815 209.481 222.626 209.68 223.351 210.076C224.076 210.473 224.649 211.04 225.068 211.776C225.487 212.513 225.697 213.357 225.697 214.309C225.697 215.261 225.482 216.106 225.051 216.842C224.62 217.579 224.031 218.151 223.283 218.559C222.546 218.956 221.73 219.154 220.835 219.154ZM220.835 217.471C221.334 217.471 221.798 217.352 222.229 217.114C222.671 216.876 223.028 216.519 223.3 216.043C223.572 215.567 223.708 214.989 223.708 214.309C223.708 213.629 223.578 213.057 223.317 212.592C223.056 212.116 222.711 211.759 222.28 211.521C221.849 211.283 221.385 211.164 220.886 211.164C220.387 211.164 219.923 211.283 219.492 211.521C219.073 211.759 218.738 212.116 218.489 212.592C218.24 213.057 218.115 213.629 218.115 214.309C218.115 215.318 218.37 216.1 218.88 216.655C219.401 217.199 220.053 217.471 220.835 217.471ZM231.234 217.267L233.886 209.634H235.943L232.373 219.001H230.061L226.508 209.634H228.582L231.234 217.267ZM238.394 208.393C238.042 208.393 237.748 208.274 237.51 208.036C237.272 207.798 237.153 207.504 237.153 207.152C237.153 206.801 237.272 206.506 237.51 206.268C237.748 206.03 238.042 205.911 238.394 205.911C238.734 205.911 239.023 206.03 239.261 206.268C239.499 206.506 239.618 206.801 239.618 207.152C239.618 207.504 239.499 207.798 239.261 208.036C239.023 208.274 238.734 208.393 238.394 208.393ZM239.346 209.634V219.001H237.408V209.634H239.346ZM253.229 209.481C253.966 209.481 254.623 209.634 255.201 209.94C255.791 210.246 256.25 210.7 256.578 211.3C256.918 211.901 257.088 212.626 257.088 213.476V219.001H255.167V213.765C255.167 212.927 254.958 212.286 254.538 211.844C254.119 211.391 253.547 211.164 252.821 211.164C252.096 211.164 251.518 211.391 251.087 211.844C250.668 212.286 250.458 212.927 250.458 213.765V219.001H248.537V213.765C248.537 212.927 248.328 212.286 247.908 211.844C247.489 211.391 246.917 211.164 246.191 211.164C245.466 211.164 244.888 211.391 244.457 211.844C244.038 212.286 243.828 212.927 243.828 213.765V219.001H241.89V209.634H243.828V210.705C244.146 210.32 244.548 210.02 245.035 209.804C245.523 209.589 246.044 209.481 246.599 209.481C247.347 209.481 248.016 209.64 248.605 209.957C249.195 210.275 249.648 210.734 249.965 211.334C250.249 210.768 250.691 210.32 251.291 209.991C251.892 209.651 252.538 209.481 253.229 209.481ZM268.139 214.088C268.139 214.44 268.117 214.757 268.071 215.04H260.914C260.971 215.788 261.249 216.389 261.747 216.842C262.246 217.296 262.858 217.522 263.583 217.522C264.626 217.522 265.363 217.086 265.793 216.213H267.884C267.601 217.075 267.085 217.783 266.337 218.338C265.601 218.882 264.683 219.154 263.583 219.154C262.688 219.154 261.883 218.956 261.169 218.559C260.467 218.151 259.911 217.585 259.503 216.859C259.107 216.123 258.908 215.273 258.908 214.309C258.908 213.346 259.101 212.502 259.486 211.776C259.883 211.04 260.433 210.473 261.135 210.076C261.849 209.68 262.665 209.481 263.583 209.481C264.467 209.481 265.255 209.674 265.946 210.059C266.638 210.445 267.176 210.989 267.561 211.691C267.947 212.383 268.139 213.182 268.139 214.088ZM266.116 213.476C266.105 212.762 265.85 212.19 265.351 211.759C264.853 211.329 264.235 211.113 263.498 211.113C262.83 211.113 262.257 211.329 261.781 211.759C261.305 212.179 261.022 212.751 260.931 213.476H266.116ZM274.772 209.481C275.509 209.481 276.166 209.634 276.744 209.94C277.334 210.246 277.793 210.7 278.121 211.3C278.45 211.901 278.614 212.626 278.614 213.476V219.001H276.693V213.765C276.693 212.927 276.484 212.286 276.064 211.844C275.645 211.391 275.073 211.164 274.347 211.164C273.622 211.164 273.044 211.391 272.613 211.844C272.194 212.286 271.984 212.927 271.984 213.765V219.001H270.046V209.634H271.984V210.705C272.302 210.32 272.704 210.02 273.191 209.804C273.69 209.589 274.217 209.481 274.772 209.481ZM283.348 211.215V216.4C283.348 216.752 283.427 217.007 283.586 217.165C283.756 217.313 284.039 217.386 284.436 217.386H285.626V219.001H284.096C283.223 219.001 282.554 218.797 282.09 218.389C281.625 217.981 281.393 217.318 281.393 216.4V211.215H280.288V209.634H281.393V207.305H283.348V209.634H285.626V211.215H283.348ZM291.475 219.154C290.591 219.154 289.792 218.956 289.078 218.559C288.364 218.151 287.803 217.585 287.395 216.859C286.987 216.123 286.783 215.273 286.783 214.309C286.783 213.357 286.992 212.513 287.412 211.776C287.831 211.04 288.403 210.473 289.129 210.076C289.854 209.68 290.664 209.481 291.56 209.481C292.455 209.481 293.265 209.68 293.991 210.076C294.716 210.473 295.288 211.04 295.708 211.776C296.127 212.513 296.337 213.357 296.337 214.309C296.337 215.261 296.121 216.106 295.691 216.842C295.26 217.579 294.671 218.151 293.923 218.559C293.186 218.956 292.37 219.154 291.475 219.154ZM291.475 217.471C291.973 217.471 292.438 217.352 292.869 217.114C293.311 216.876 293.668 216.519 293.94 216.043C294.212 215.567 294.348 214.989 294.348 214.309C294.348 213.629 294.217 213.057 293.957 212.592C293.696 212.116 293.35 211.759 292.92 211.521C292.489 211.283 292.024 211.164 291.526 211.164C291.027 211.164 290.562 211.283 290.132 211.521C289.712 211.759 289.378 212.116 289.129 212.592C288.879 213.057 288.755 213.629 288.755 214.309C288.755 215.318 289.01 216.1 289.52 216.655C290.041 217.199 290.693 217.471 291.475 217.471ZM299.035 219.12C298.683 219.12 298.389 219.001 298.151 218.763C297.913 218.525 297.794 218.231 297.794 217.879C297.794 217.528 297.913 217.233 298.151 216.995C298.389 216.757 298.683 216.638 299.035 216.638C299.375 216.638 299.664 216.757 299.902 216.995C300.14 217.233 300.259 217.528 300.259 217.879C300.259 218.231 300.14 218.525 299.902 218.763C299.664 219.001 299.375 219.12 299.035 219.12Z" fill="#0076AC"/>
<path d="M60.31 118.991V124.001H47.17V105.191H60.04V110.081H52.72V112.211H58.93V116.771H52.72V118.991H60.31ZM67.3907 124.001H61.9907V109.181H66.6407L66.8507 110.741H66.9707C67.5707 110.101 68.2307 109.631 68.9507 109.331C69.6707 109.031 70.5207 108.881 71.5007 108.881C73.0607 108.881 74.2407 109.291 75.0407 110.111C75.8407 110.931 76.2407 112.141 76.2407 113.741V124.001H70.8407V114.851C70.8407 114.491 70.7107 114.221 70.4507 114.041C70.2107 113.841 69.8407 113.741 69.3407 113.741C69.0007 113.741 68.6707 113.781 68.3507 113.861C68.0307 113.921 67.7107 114.021 67.3907 114.161V124.001ZM85.1212 128.861C84.0412 128.861 83.0012 128.791 82.0012 128.651C81.0012 128.511 80.1912 128.331 79.5712 128.111V123.701C80.0712 123.821 80.8112 123.921 81.7912 124.001C82.7912 124.101 83.7712 124.151 84.7312 124.151C85.6112 124.151 86.2112 124.041 86.5312 123.821C86.8512 123.581 87.0312 123.161 87.0712 122.561V121.751C86.3712 122.071 85.6712 122.321 84.9712 122.501C84.2912 122.661 83.6312 122.741 82.9912 122.741C81.0912 122.741 79.7512 122.231 78.9712 121.211C78.1912 120.171 77.8012 118.411 77.8012 115.931C77.8012 113.411 78.3812 111.611 79.5412 110.531C80.7212 109.431 82.6512 108.881 85.3312 108.881C86.4312 108.881 87.7212 108.941 89.2012 109.061C90.7012 109.181 91.7912 109.311 92.4712 109.451V120.821C92.4712 123.801 91.9312 125.881 90.8512 127.061C89.7712 128.261 87.8612 128.861 85.1212 128.861ZM85.2112 113.681C84.2912 113.681 83.7112 113.801 83.4712 114.041C83.2312 114.281 83.1112 114.901 83.1112 115.901C83.1112 116.821 83.2112 117.401 83.4112 117.641C83.6312 117.881 84.1112 118.001 84.8512 118.001C85.1712 118.001 85.5212 117.971 85.9012 117.911C86.2812 117.831 86.6712 117.721 87.0712 117.581V113.801C86.6912 113.761 86.3512 113.731 86.0512 113.711C85.7712 113.691 85.4912 113.681 85.2112 113.681ZM99.8809 124.001H94.4809V109.181H99.5209L99.7009 110.321H99.7609C100.381 109.861 100.991 109.511 101.591 109.271C102.211 109.031 102.811 108.911 103.391 108.911H103.901V114.131C103.441 114.091 103.131 114.071 102.971 114.071C102.831 114.051 102.681 114.041 102.521 114.041C102.021 114.041 101.551 114.071 101.111 114.131C100.671 114.191 100.261 114.281 99.8809 114.401V124.001ZM117.687 119.171V123.281C117.127 123.561 116.257 123.801 115.077 124.001C113.917 124.221 112.707 124.331 111.447 124.331C109.027 124.331 107.277 123.731 106.197 122.531C105.137 121.311 104.607 119.341 104.607 116.621C104.607 113.961 105.177 112.011 106.317 110.771C107.477 109.511 109.277 108.881 111.717 108.881C114.077 108.881 115.767 109.351 116.787 110.291C117.807 111.211 118.317 112.791 118.317 115.031C118.317 115.711 118.307 116.261 118.287 116.681C118.267 117.081 118.227 117.541 118.167 118.061H109.947C109.967 118.701 110.147 119.141 110.487 119.381C110.827 119.601 111.437 119.711 112.317 119.711C113.277 119.711 114.257 119.661 115.257 119.561C116.277 119.441 117.087 119.311 117.687 119.171ZM111.777 113.141C111.097 113.141 110.617 113.281 110.337 113.561C110.077 113.821 109.947 114.351 109.947 115.151H113.517V114.461C113.477 113.941 113.337 113.591 113.097 113.411C112.877 113.231 112.437 113.141 111.777 113.141ZM125.34 124.001H119.94V109.181H124.59L124.8 110.741H124.92C125.52 110.101 126.18 109.631 126.9 109.331C127.62 109.031 128.47 108.881 129.45 108.881C131.01 108.881 132.19 109.291 132.99 110.111C133.79 110.931 134.19 112.141 134.19 113.741V124.001H128.79V114.851C128.79 114.491 128.66 114.221 128.4 114.041C128.16 113.841 127.79 113.741 127.29 113.741C126.95 113.741 126.62 113.781 126.3 113.861C125.98 113.921 125.66 114.021 125.34 114.161V124.001ZM139.68 124.331C138.24 124.331 137.19 123.951 136.53 123.191C135.87 122.431 135.54 121.241 135.54 119.621C135.54 118.021 135.95 116.881 136.77 116.201C137.61 115.521 139 115.181 140.94 115.181C141.4 115.181 141.86 115.201 142.32 115.241C142.8 115.281 143.22 115.331 143.58 115.391V114.641C143.58 114.241 143.39 113.961 143.01 113.801C142.63 113.621 142.01 113.531 141.15 113.531C140.33 113.531 139.58 113.551 138.9 113.591C138.24 113.631 137.57 113.711 136.89 113.831V109.421C137.63 109.241 138.52 109.111 139.56 109.031C140.62 108.931 141.83 108.881 143.19 108.881C145.07 108.881 146.5 109.301 147.48 110.141C148.48 110.961 148.98 112.171 148.98 113.771V124.001H143.88L143.73 122.831H143.64C143.04 123.331 142.4 123.711 141.72 123.971C141.06 124.211 140.38 124.331 139.68 124.331ZM141.81 118.241C141.29 118.241 140.92 118.321 140.7 118.481C140.5 118.621 140.4 118.891 140.4 119.291C140.4 119.691 140.48 119.971 140.64 120.131C140.82 120.271 141.12 120.341 141.54 120.341C141.88 120.341 142.23 120.311 142.59 120.251C142.97 120.171 143.3 120.071 143.58 119.951V118.361C143.3 118.321 143.01 118.291 142.71 118.271C142.43 118.251 142.13 118.241 141.81 118.241ZM157.836 128.861C156.756 128.861 155.716 128.791 154.716 128.651C153.716 128.511 152.906 128.331 152.286 128.111V123.701C152.786 123.821 153.526 123.921 154.506 124.001C155.506 124.101 156.486 124.151 157.446 124.151C158.326 124.151 158.926 124.041 159.246 123.821C159.566 123.581 159.746 123.161 159.786 122.561V121.751C159.086 122.071 158.386 122.321 157.686 122.501C157.006 122.661 156.346 122.741 155.706 122.741C153.806 122.741 152.466 122.231 151.686 121.211C150.906 120.171 150.516 118.411 150.516 115.931C150.516 113.411 151.096 111.611 152.256 110.531C153.436 109.431 155.366 108.881 158.046 108.881C159.146 108.881 160.436 108.941 161.916 109.061C163.416 109.181 164.506 109.311 165.186 109.451V120.821C165.186 123.801 164.646 125.881 163.566 127.061C162.486 128.261 160.576 128.861 157.836 128.861ZM157.926 113.681C157.006 113.681 156.426 113.801 156.186 114.041C155.946 114.281 155.826 114.901 155.826 115.901C155.826 116.821 155.926 117.401 156.126 117.641C156.346 117.881 156.826 118.001 157.566 118.001C157.886 118.001 158.236 117.971 158.616 117.911C158.996 117.831 159.386 117.721 159.786 117.581V113.801C159.406 113.761 159.066 113.731 158.766 113.711C158.486 113.691 158.206 113.681 157.926 113.681ZM179.826 119.171V123.281C179.266 123.561 178.396 123.801 177.216 124.001C176.056 124.221 174.846 124.331 173.586 124.331C171.166 124.331 169.416 123.731 168.336 122.531C167.276 121.311 166.746 119.341 166.746 116.621C166.746 113.961 167.316 112.011 168.456 110.771C169.616 109.511 171.416 108.881 173.856 108.881C176.216 108.881 177.906 109.351 178.926 110.291C179.946 111.211 180.456 112.791 180.456 115.031C180.456 115.711 180.446 116.261 180.426 116.681C180.406 117.081 180.366 117.541 180.306 118.061H172.086C172.106 118.701 172.286 119.141 172.626 119.381C172.966 119.601 173.576 119.711 174.456 119.711C175.416 119.711 176.396 119.661 177.396 119.561C178.416 119.441 179.226 119.311 179.826 119.171ZM173.916 113.141C173.236 113.141 172.756 113.281 172.476 113.561C172.216 113.821 172.086 114.351 172.086 115.151H175.656V114.461C175.616 113.941 175.476 113.591 175.236 113.411C175.016 113.231 174.576 113.141 173.916 113.141ZM187.479 124.001H182.079V109.181H186.909L187.119 110.441H187.239C187.799 109.941 188.429 109.561 189.129 109.301C189.849 109.021 190.579 108.881 191.319 108.881C192.139 108.881 192.839 109.011 193.419 109.271C193.999 109.531 194.459 109.921 194.799 110.441H194.919C195.499 109.961 196.179 109.581 196.959 109.301C197.759 109.021 198.579 108.881 199.419 108.881C200.839 108.881 201.899 109.291 202.599 110.111C203.319 110.911 203.679 112.121 203.679 113.741V124.001H198.279V114.761C198.279 114.401 198.179 114.141 197.979 113.981C197.799 113.821 197.499 113.741 197.079 113.741C196.839 113.741 196.589 113.771 196.329 113.831C196.069 113.871 195.819 113.931 195.579 114.011V124.001H190.179V114.761C190.179 114.401 190.079 114.141 189.879 113.981C189.679 113.821 189.369 113.741 188.949 113.741C188.709 113.741 188.459 113.771 188.199 113.831C187.959 113.871 187.719 113.931 187.479 114.011V124.001ZM217.143 117.161L213.633 116.411C212.093 116.071 211.013 115.501 210.393 114.701C209.793 113.901 209.493 112.771 209.493 111.311C209.493 109.111 210.073 107.491 211.233 106.451C212.393 105.411 214.223 104.891 216.723 104.891C217.803 104.891 218.773 104.941 219.633 105.041C220.493 105.121 221.233 105.251 221.853 105.431V110.381C220.433 110.141 219.393 110.001 218.733 109.961C218.073 109.901 217.393 109.871 216.693 109.871C216.033 109.871 215.553 109.961 215.253 110.141C214.973 110.321 214.833 110.621 214.833 111.041C214.833 111.261 214.883 111.431 214.983 111.551C215.103 111.671 215.303 111.761 215.583 111.821L218.853 112.541C219.873 112.761 220.633 113.001 221.133 113.261C221.633 113.501 222.033 113.801 222.333 114.161C222.673 114.561 222.913 115.071 223.053 115.691C223.213 116.311 223.293 117.061 223.293 117.941C223.293 120.181 222.693 121.811 221.493 122.831C220.293 123.831 218.443 124.331 215.943 124.331C214.663 124.331 213.423 124.261 212.223 124.121C211.043 123.981 210.163 123.801 209.583 123.581V118.331C210.343 118.571 211.303 118.771 212.463 118.931C213.643 119.091 214.813 119.171 215.973 119.171C216.673 119.171 217.163 119.091 217.443 118.931C217.723 118.771 217.863 118.481 217.863 118.061C217.863 117.781 217.813 117.581 217.713 117.461C217.633 117.341 217.443 117.241 217.143 117.161ZM239.315 116.591C239.315 119.371 238.735 121.361 237.575 122.561C236.415 123.741 234.485 124.331 231.785 124.331C229.125 124.331 227.205 123.731 226.025 122.531C224.865 121.311 224.285 119.331 224.285 116.591C224.285 113.831 224.855 111.861 225.995 110.681C227.155 109.481 229.085 108.881 231.785 108.881C234.465 108.881 236.385 109.481 237.545 110.681C238.725 111.881 239.315 113.851 239.315 116.591ZM229.685 116.531C229.685 117.691 229.815 118.451 230.075 118.811C230.335 119.151 230.905 119.321 231.785 119.321C232.685 119.321 233.265 119.151 233.525 118.811C233.785 118.451 233.915 117.691 233.915 116.531C233.915 115.371 233.785 114.621 233.525 114.281C233.265 113.921 232.685 113.741 231.785 113.741C230.905 113.741 230.335 113.921 230.075 114.281C229.815 114.621 229.685 115.371 229.685 116.531ZM246.307 104.051V124.001H240.907V104.051H246.307ZM253.779 107.951H248.229V104.051H253.779V107.951ZM253.719 124.001H248.319V109.181H253.719V124.001ZM264.611 104.051H270.011V124.001H265.211L264.941 122.621H264.791C264.271 123.201 263.661 123.631 262.961 123.911C262.261 124.191 261.471 124.331 260.591 124.331C258.691 124.331 257.331 123.741 256.511 122.561C255.691 121.361 255.281 119.371 255.281 116.591C255.281 113.911 255.791 111.961 256.811 110.741C257.851 109.501 259.501 108.881 261.761 108.881C262.281 108.881 262.781 108.911 263.261 108.971C263.741 109.031 264.191 109.121 264.611 109.241V104.051ZM262.781 113.741C261.901 113.741 261.331 113.931 261.071 114.311C260.811 114.691 260.681 115.451 260.681 116.591C260.681 117.691 260.801 118.421 261.041 118.781C261.281 119.141 261.801 119.321 262.601 119.321C262.981 119.321 263.331 119.291 263.651 119.231C263.991 119.151 264.311 119.041 264.611 118.901V113.981C264.391 113.901 264.121 113.841 263.801 113.801C263.501 113.761 263.161 113.741 262.781 113.741ZM275.559 124.331C274.119 124.331 273.069 123.951 272.409 123.191C271.749 122.431 271.419 121.241 271.419 119.621C271.419 118.021 271.829 116.881 272.649 116.201C273.489 115.521 274.879 115.181 276.819 115.181C277.279 115.181 277.739 115.201 278.199 115.241C278.679 115.281 279.099 115.331 279.459 115.391V114.641C279.459 114.241 279.269 113.961 278.889 113.801C278.509 113.621 277.889 113.531 277.029 113.531C276.209 113.531 275.459 113.551 274.779 113.591C274.119 113.631 273.449 113.711 272.769 113.831V109.421C273.509 109.241 274.399 109.111 275.439 109.031C276.499 108.931 277.709 108.881 279.069 108.881C280.949 108.881 282.379 109.301 283.359 110.141C284.359 110.961 284.859 112.171 284.859 113.771V124.001H279.759L279.609 122.831H279.519C278.919 123.331 278.279 123.711 277.599 123.971C276.939 124.211 276.259 124.331 275.559 124.331ZM277.689 118.241C277.169 118.241 276.799 118.321 276.579 118.481C276.379 118.621 276.279 118.891 276.279 119.291C276.279 119.691 276.359 119.971 276.519 120.131C276.699 120.271 276.999 120.341 277.419 120.341C277.759 120.341 278.109 120.311 278.469 120.251C278.849 120.171 279.179 120.071 279.459 119.951V118.361C279.179 118.321 278.889 118.291 278.589 118.271C278.309 118.251 278.009 118.241 277.689 118.241ZM278.679 103.661H284.259L279.609 107.741H275.499L278.679 103.661ZM292.215 124.001H286.815V109.181H291.855L292.035 110.321H292.095C292.715 109.861 293.325 109.511 293.925 109.271C294.545 109.031 295.145 108.911 295.725 108.911H296.235V114.131C295.775 114.091 295.465 114.071 295.305 114.071C295.165 114.051 295.015 114.041 294.855 114.041C294.355 114.041 293.885 114.071 293.445 114.131C293.005 114.191 292.595 114.281 292.215 114.401V124.001ZM303.056 107.951H297.506V104.051H303.056V107.951ZM302.996 124.001H297.596V109.181H302.996V124.001ZM308.518 124.331C307.078 124.331 306.028 123.951 305.368 123.191C304.708 122.431 304.378 121.241 304.378 119.621C304.378 118.021 304.788 116.881 305.608 116.201C306.448 115.521 307.838 115.181 309.778 115.181C310.238 115.181 310.698 115.201 311.158 115.241C311.638 115.281 312.058 115.331 312.418 115.391V114.641C312.418 114.241 312.228 113.961 311.848 113.801C311.468 113.621 310.848 113.531 309.988 113.531C309.168 113.531 308.418 113.551 307.738 113.591C307.078 113.631 306.408 113.711 305.728 113.831V109.421C306.468 109.241 307.358 109.111 308.398 109.031C309.458 108.931 310.668 108.881 312.028 108.881C313.908 108.881 315.338 109.301 316.318 110.141C317.318 110.961 317.818 112.171 317.818 113.771V124.001H312.718L312.568 122.831H312.478C311.878 123.331 311.238 123.711 310.558 123.971C309.898 124.211 309.218 124.331 308.518 124.331ZM310.648 118.241C310.128 118.241 309.758 118.321 309.538 118.481C309.338 118.621 309.238 118.891 309.238 119.291C309.238 119.691 309.318 119.971 309.478 120.131C309.658 120.271 309.958 120.341 310.378 120.341C310.718 120.341 311.068 120.311 311.428 120.251C311.808 120.171 312.138 120.071 312.418 119.951V118.361C312.138 118.321 311.848 118.291 311.548 118.271C311.268 118.251 310.968 118.241 310.648 118.241Z" fill="#0076AC"/>
<path d="M82.358 146.337C82.358 146.907 82.2273 147.429 81.966 147.905C81.7047 148.372 81.3033 148.75 80.762 149.039C80.2207 149.329 79.5487 149.473 78.746 149.473H77.262V153.001H74.868V143.173H78.746C79.53 143.173 80.1927 143.309 80.734 143.579C81.2753 143.85 81.6813 144.223 81.952 144.699C82.2227 145.175 82.358 145.721 82.358 146.337ZM78.564 147.569C79.0213 147.569 79.362 147.462 79.586 147.247C79.81 147.033 79.922 146.729 79.922 146.337C79.922 145.945 79.81 145.642 79.586 145.427C79.362 145.213 79.0213 145.105 78.564 145.105H77.262V147.569H78.564ZM85.9983 145.091V147.079H89.2043V148.927H85.9983V151.083H89.6243V153.001H83.6043V143.173H89.6243V145.091H85.9983ZM96.1905 153.001L94.1465 149.291H93.5725V153.001H91.1785V143.173H95.1965C95.9712 143.173 96.6292 143.309 97.1705 143.579C97.7212 143.85 98.1319 144.223 98.4025 144.699C98.6732 145.166 98.8085 145.689 98.8085 146.267C98.8085 146.921 98.6219 147.504 98.2485 148.017C97.8845 148.531 97.3432 148.895 96.6245 149.109L98.8925 153.001H96.1905ZM93.5725 147.597H95.0565C95.4952 147.597 95.8219 147.49 96.0365 147.275C96.2605 147.061 96.3725 146.757 96.3725 146.365C96.3725 145.992 96.2605 145.698 96.0365 145.483C95.8219 145.269 95.4952 145.161 95.0565 145.161H93.5725V147.597ZM103.867 153.099C103.149 153.099 102.505 152.983 101.935 152.749C101.366 152.516 100.909 152.171 100.563 151.713C100.227 151.256 100.05 150.705 100.031 150.061H102.579C102.617 150.425 102.743 150.705 102.957 150.901C103.172 151.088 103.452 151.181 103.797 151.181C104.152 151.181 104.432 151.102 104.637 150.943C104.843 150.775 104.945 150.547 104.945 150.257C104.945 150.015 104.861 149.814 104.693 149.655C104.535 149.497 104.334 149.366 104.091 149.263C103.858 149.161 103.522 149.044 103.083 148.913C102.449 148.717 101.931 148.521 101.529 148.325C101.128 148.129 100.783 147.84 100.493 147.457C100.204 147.075 100.059 146.575 100.059 145.959C100.059 145.045 100.391 144.331 101.053 143.817C101.716 143.295 102.579 143.033 103.643 143.033C104.726 143.033 105.599 143.295 106.261 143.817C106.924 144.331 107.279 145.049 107.325 145.973H104.735C104.717 145.656 104.6 145.409 104.385 145.231C104.171 145.045 103.895 144.951 103.559 144.951C103.27 144.951 103.037 145.031 102.859 145.189C102.682 145.339 102.593 145.558 102.593 145.847C102.593 146.165 102.743 146.412 103.041 146.589C103.34 146.767 103.807 146.958 104.441 147.163C105.076 147.378 105.589 147.583 105.981 147.779C106.383 147.975 106.728 148.26 107.017 148.633C107.307 149.007 107.451 149.487 107.451 150.075C107.451 150.635 107.307 151.144 107.017 151.601C106.737 152.059 106.327 152.423 105.785 152.693C105.244 152.964 104.605 153.099 103.867 153.099ZM113.573 153.099C112.649 153.099 111.799 152.885 111.025 152.455C110.259 152.026 109.648 151.429 109.191 150.663C108.743 149.889 108.519 149.021 108.519 148.059C108.519 147.098 108.743 146.235 109.191 145.469C109.648 144.704 110.259 144.107 111.025 143.677C111.799 143.248 112.649 143.033 113.573 143.033C114.497 143.033 115.341 143.248 116.107 143.677C116.881 144.107 117.488 144.704 117.927 145.469C118.375 146.235 118.599 147.098 118.599 148.059C118.599 149.021 118.375 149.889 117.927 150.663C117.479 151.429 116.872 152.026 116.107 152.455C115.341 152.885 114.497 153.099 113.573 153.099ZM113.573 150.915C114.357 150.915 114.982 150.654 115.449 150.131C115.925 149.609 116.163 148.918 116.163 148.059C116.163 147.191 115.925 146.501 115.449 145.987C114.982 145.465 114.357 145.203 113.573 145.203C112.779 145.203 112.145 145.46 111.669 145.973C111.202 146.487 110.969 147.182 110.969 148.059C110.969 148.927 111.202 149.623 111.669 150.145C112.145 150.659 112.779 150.915 113.573 150.915ZM128.723 153.001H126.329L122.325 146.939V153.001H119.931V143.173H122.325L126.329 149.263V143.173H128.723V153.001ZM136.576 151.265H132.908L132.32 153.001H129.814L133.37 143.173H136.142L139.698 153.001H137.164L136.576 151.265ZM135.96 149.417L134.742 145.819L133.538 149.417H135.96ZM143.174 151.153H146.31V153.001H140.78V143.173H143.174V151.153ZM149.846 143.173V153.001H147.452V143.173H149.846ZM154.129 151.041H158.357V153.001H151.413V151.181L155.613 145.133H151.413V143.173H158.357V144.993L154.129 151.041ZM162.315 145.091V147.079H165.521V148.927H162.315V151.083H165.941V153.001H159.921V143.173H165.941V145.091H162.315ZM174.018 153.099C173.299 153.099 172.655 152.983 172.086 152.749C171.516 152.516 171.059 152.171 170.714 151.713C170.378 151.256 170.2 150.705 170.182 150.061H172.73C172.767 150.425 172.893 150.705 173.108 150.901C173.322 151.088 173.602 151.181 173.948 151.181C174.302 151.181 174.582 151.102 174.788 150.943C174.993 150.775 175.096 150.547 175.096 150.257C175.096 150.015 175.012 149.814 174.844 149.655C174.685 149.497 174.484 149.366 174.242 149.263C174.008 149.161 173.672 149.044 173.234 148.913C172.599 148.717 172.081 148.521 171.68 148.325C171.278 148.129 170.933 147.84 170.644 147.457C170.354 147.075 170.21 146.575 170.21 145.959C170.21 145.045 170.541 144.331 171.204 143.817C171.866 143.295 172.73 143.033 173.794 143.033C174.876 143.033 175.749 143.295 176.412 143.817C177.074 144.331 177.429 145.049 177.476 145.973H174.886C174.867 145.656 174.75 145.409 174.536 145.231C174.321 145.045 174.046 144.951 173.71 144.951C173.42 144.951 173.187 145.031 173.01 145.189C172.832 145.339 172.744 145.558 172.744 145.847C172.744 146.165 172.893 146.412 173.192 146.589C173.49 146.767 173.957 146.958 174.592 147.163C175.226 147.378 175.74 147.583 176.132 147.779C176.533 147.975 176.878 148.26 177.168 148.633C177.457 149.007 177.602 149.487 177.602 150.075C177.602 150.635 177.457 151.144 177.168 151.601C176.888 152.059 176.477 152.423 175.936 152.693C175.394 152.964 174.755 153.099 174.018 153.099ZM181.469 145.091V147.079H184.675V148.927H181.469V151.083H185.095V153.001H179.075V143.173H185.095V145.091H181.469ZM189.001 143.173V149.053C189.001 149.641 189.146 150.094 189.435 150.411C189.725 150.729 190.149 150.887 190.709 150.887C191.269 150.887 191.699 150.729 191.997 150.411C192.296 150.094 192.445 149.641 192.445 149.053V143.173H194.839V149.039C194.839 149.917 194.653 150.659 194.279 151.265C193.906 151.872 193.402 152.329 192.767 152.637C192.142 152.945 191.442 153.099 190.667 153.099C189.893 153.099 189.197 152.95 188.581 152.651C187.975 152.343 187.494 151.886 187.139 151.279C186.785 150.663 186.607 149.917 186.607 149.039V143.173H189.001ZM206.977 146.337C206.977 146.907 206.846 147.429 206.585 147.905C206.324 148.372 205.922 148.75 205.381 149.039C204.84 149.329 204.168 149.473 203.365 149.473H201.881V153.001H199.487V143.173H203.365C204.149 143.173 204.812 143.309 205.353 143.579C205.894 143.85 206.3 144.223 206.571 144.699C206.842 145.175 206.977 145.721 206.977 146.337ZM203.183 147.569C203.64 147.569 203.981 147.462 204.205 147.247C204.429 147.033 204.541 146.729 204.541 146.337C204.541 145.945 204.429 145.642 204.205 145.427C203.981 145.213 203.64 145.105 203.183 145.105H201.881V147.569H203.183ZM210.617 145.091V147.079H213.823V148.927H210.617V151.083H214.243V153.001H208.223V143.173H214.243V145.091H210.617ZM220.81 153.001L218.766 149.291H218.192V153.001H215.798V143.173H219.816C220.59 143.173 221.248 143.309 221.79 143.579C222.34 143.85 222.751 144.223 223.022 144.699C223.292 145.166 223.428 145.689 223.428 146.267C223.428 146.921 223.241 147.504 222.868 148.017C222.504 148.531 221.962 148.895 221.244 149.109L223.512 153.001H220.81ZM218.192 147.597H219.676C220.114 147.597 220.441 147.49 220.656 147.275C220.88 147.061 220.992 146.757 220.992 146.365C220.992 145.992 220.88 145.698 220.656 145.483C220.441 145.269 220.114 145.161 219.676 145.161H218.192V147.597ZM231.329 143.173V145.091H227.325V147.163H230.321V149.025H227.325V153.001H224.931V143.173H231.329ZM234.981 143.173V153.001H232.587V143.173H234.981ZM239.11 151.153H242.246V153.001H236.716V143.173H239.11V151.153Z" fill="#0076AC"/>
<path d="M591.389 183.278C590.9 184.371 589.957 184.699 588.313 184.292C587.367 184.103 586.947 183.681 586.459 182.573C585.859 181.087 585.162 180.447 584.882 181.072C584.795 181.267 584.339 181.344 583.857 181.269C583.124 181.129 582.924 181.367 582.421 183.015C581.656 185.67 580.791 186.033 578.493 184.678C576.98 183.767 576.594 183.688 575.755 184.203C574.356 185.029 574.176 185.745 574.95 187.261C575.555 188.422 575.546 188.652 574.654 189.705C573.927 190.597 573.362 190.813 572.247 190.689C570.975 190.495 570.771 190.638 570.125 192.082C569.479 193.526 569.509 193.774 570.501 194.592C571.338 195.34 571.553 195.905 571.39 197.003C571.179 198.313 570.996 198.513 569.715 198.97C567.999 199.561 567.711 199.994 568.007 201.532C568.183 202.5 568.5 202.735 570.187 203.255C572.729 204.064 573.035 204.95 571.624 207.269C570.726 208.648 570.704 209.012 571.162 209.873C572.005 211.233 572.509 211.365 574.181 210.661C575.441 210.147 575.711 210.174 576.742 211.01C577.595 211.719 577.811 212.284 577.687 213.399C577.493 214.671 577.636 214.875 579.08 215.521C580.524 216.166 580.772 216.136 581.59 215.144C582.338 214.308 582.903 214.092 584.04 214.273C585.407 214.463 585.567 214.628 585.89 215.896C586.325 217.542 586.936 217.956 588.569 217.656C589.516 217.423 589.772 217.164 590.201 215.576C590.988 212.977 591.853 212.615 594.172 214.026C595.763 214.972 596.071 215.016 596.524 214.422C596.833 214.045 597.224 213.799 597.419 213.886C598.044 214.165 598.137 213.223 597.593 211.716C597.218 210.565 597.25 209.97 597.829 209.199C598.783 207.799 599.704 207.414 600.797 207.903C601.655 208.287 601.803 208.166 602.519 206.566C603.234 204.965 603.226 204.774 602.367 204.39C601.274 203.902 600.947 202.959 601.332 201.258C601.556 200.235 601.887 199.914 602.986 199.656C604.367 199.29 605.276 198.198 604.535 197.867C604.34 197.779 604.249 197.458 604.389 197.146C604.79 196.248 604.214 195.756 602.5 195.505C600.17 195.166 599.414 193.189 600.925 191.382C602.035 190.052 602.136 189.301 601.238 188.9C600.926 188.76 600.779 188.461 600.867 188.265C601.198 187.524 599.792 187.317 598.519 187.965C597.528 188.505 597.068 188.487 596.218 187.873C594.797 186.863 594.413 185.942 594.901 184.849C595.285 183.99 595.164 183.842 593.564 183.127C591.964 182.412 591.773 182.42 591.389 183.278ZM592.886 193.127C594.008 194.284 595.41 197.955 595.346 199.565C595.225 201.197 593.672 204.671 592.428 205.988C591.183 207.304 588.398 208.401 586.423 208.314C584.566 208.279 581.114 206.783 579.598 205.356C578.22 204.037 577.141 201.213 577.289 199.312C577.467 197.238 579.042 193.821 580.403 192.556C581.782 191.253 584.623 190.135 586.255 190.256C587.944 190.355 591.786 192.026 592.886 193.127Z" fill="#7CD5FF"/>
<path d="M585.054 195.666C583.391 196.139 582.026 199.088 582.651 200.726C583.277 202.364 586.261 203.651 587.816 202.895C589.446 202.078 590.502 199.506 589.842 197.947C589.159 196.33 586.718 195.192 585.054 195.666Z" fill="#7CD5FF"/>
<path d="M641.866 159.316C641.472 161.778 639.752 162.945 636.225 163.012C634.221 163.142 633.148 162.52 631.569 160.554C629.561 157.888 627.813 156.977 627.588 158.384C627.518 158.824 626.642 159.225 625.633 159.334C624.082 159.446 623.808 160.033 623.685 163.62C623.576 169.374 622.032 170.569 616.68 169.082C613.146 168.065 612.326 168.115 610.916 169.602C608.546 172.018 608.571 173.555 610.944 176.189C612.787 178.197 612.893 178.664 611.665 181.263C610.684 183.451 609.664 184.189 607.354 184.541C604.692 184.836 604.358 185.233 603.837 188.486C603.317 191.739 603.51 192.221 605.947 193.332C608.033 194.387 608.771 195.407 609.035 197.703C609.316 200.453 609.056 200.953 606.725 202.563C603.591 204.677 603.247 205.704 604.671 208.637C605.547 210.49 606.31 210.792 609.985 210.929C615.534 211.186 616.627 212.804 615.038 218.23C613.976 221.486 614.127 222.232 615.513 223.716C617.943 225.998 619.026 225.991 622.011 223.673C624.269 221.961 624.825 221.869 627.35 222.995C629.449 223.962 630.188 224.982 630.539 227.292C630.835 229.954 631.232 230.288 634.485 230.809C637.738 231.329 638.219 231.136 639.331 228.699C640.386 226.613 641.405 225.875 643.79 225.625C646.642 225.27 647.053 225.516 648.386 227.893C650.148 230.97 651.6 231.473 654.723 229.989C656.502 229.011 656.879 228.35 656.886 224.925C657.068 219.274 658.612 218.078 664.038 219.668C667.748 220.712 668.392 220.635 668.983 219.197C669.401 218.272 670.055 217.565 670.495 217.635C671.901 217.86 671.581 215.916 669.675 213.176C668.3 211.063 668.044 209.849 668.793 207.986C669.957 204.655 671.602 203.386 674.064 203.78C675.998 204.089 676.23 203.766 676.807 200.161C677.384 196.557 677.264 196.177 675.33 195.867C672.868 195.474 671.701 193.754 671.56 190.125C671.458 187.944 671.951 187.122 674.022 186.01C676.603 184.53 677.844 181.843 676.174 181.576C675.734 181.506 675.379 180.908 675.492 180.204C675.815 178.182 674.391 177.504 670.808 177.922C665.937 178.495 663.352 174.926 665.417 170.478C666.932 167.204 666.732 165.639 664.71 165.315C664.006 165.203 663.549 164.679 663.62 164.239C663.887 162.569 660.947 162.91 658.735 164.9C657.033 166.521 656.098 166.732 654.058 165.955C650.654 164.689 649.384 163.043 649.778 160.582C650.088 158.648 649.764 158.416 646.16 157.839C642.555 157.262 642.175 157.382 641.866 159.316ZM650.186 178.32C653.066 180.043 657.867 186.672 658.605 189.945C659.242 193.293 657.99 201.118 656.196 204.437C654.403 207.757 649.392 211.464 645.372 212.353C641.616 213.285 633.866 212.135 630.047 210.082C626.565 208.172 622.873 203.073 622.145 199.17C621.385 194.901 622.711 187.178 624.768 183.901C626.839 180.535 631.953 176.755 635.3 176.118C638.75 175.408 647.38 176.698 650.186 178.32Z" fill="#7CD5FF"/>
<path d="M635.8 187.649C632.709 189.499 631.552 196.166 633.694 199.124C635.836 202.081 642.531 203.062 645.253 200.702C648.091 198.181 648.829 192.438 646.66 189.657C644.416 186.773 638.891 185.799 635.8 187.649Z" fill="#7CD5FF"/>
<path d="M531.932 86.4675C531.504 87.4233 530.68 87.71 529.242 87.3537C528.414 87.1886 528.047 86.8195 527.62 85.8504C527.095 84.5508 526.485 83.9914 526.241 84.5375C526.165 84.7082 525.766 84.7757 525.345 84.7102C524.703 84.5873 524.528 84.7957 524.088 86.2374C523.419 88.5594 522.662 88.8767 520.653 87.6914C519.33 86.895 518.992 86.8259 518.258 87.2761C517.034 87.9985 516.877 88.6246 517.554 89.9511C518.083 90.966 518.075 91.1672 517.295 92.088C516.659 92.8687 516.165 93.0574 515.189 92.949C514.077 92.7794 513.899 92.9043 513.334 94.1673C512.769 95.4303 512.795 95.6468 513.663 96.3625C514.394 97.0171 514.583 97.5111 514.44 98.4713C514.256 99.6175 514.096 99.7918 512.975 100.192C511.474 100.709 511.223 101.088 511.482 102.432C511.635 103.279 511.912 103.485 513.388 103.94C515.611 104.647 515.879 105.422 514.645 107.451C513.86 108.656 513.84 108.975 514.241 109.728C514.978 110.918 515.419 111.033 516.882 110.417C517.984 109.968 518.219 109.991 519.121 110.722C519.868 111.342 520.056 111.836 519.948 112.812C519.778 113.924 519.903 114.103 521.166 114.667C522.429 115.232 522.646 115.206 523.361 114.338C524.016 113.607 524.51 113.418 525.504 113.576C526.7 113.742 526.84 113.887 527.122 114.996C527.503 116.435 528.037 116.797 529.465 116.535C530.293 116.332 530.518 116.104 530.893 114.716C531.581 112.443 532.338 112.126 534.366 113.36C535.758 114.187 536.027 114.226 536.423 113.707C536.693 113.377 537.035 113.161 537.206 113.238C537.752 113.482 537.834 112.658 537.358 111.34C537.03 110.333 537.058 109.813 537.565 109.138C538.399 107.914 539.204 107.578 540.16 108.005C540.911 108.341 541.04 108.235 541.666 106.835C542.292 105.436 542.285 105.268 541.534 104.933C540.578 104.505 540.291 103.681 540.629 102.193C540.824 101.298 541.113 101.017 542.075 100.792C543.283 100.472 544.078 99.5168 543.43 99.2268C543.259 99.1505 543.18 98.8694 543.302 98.5963C543.653 97.8112 543.149 97.3811 541.65 97.1613C539.612 96.8644 538.951 95.1355 540.272 93.5553C541.243 92.3919 541.332 91.7353 540.546 91.3842C540.273 91.2621 540.145 90.9999 540.221 90.8292C540.511 90.1806 539.281 89.9995 538.168 90.5665C537.301 91.0391 536.899 91.023 536.156 90.4861C534.912 89.6025 534.576 88.7969 535.004 87.8411C535.339 87.0901 535.233 86.9608 533.834 86.335C532.434 85.7093 532.267 85.7165 531.932 86.4675ZM533.241 95.081C534.222 96.0931 535.449 99.304 535.393 100.712C535.287 102.14 533.929 105.178 532.84 106.329C531.752 107.481 529.316 108.44 527.589 108.364C525.964 108.334 522.945 107.025 521.619 105.777C520.414 104.624 519.47 102.154 519.599 100.491C519.755 98.6768 521.132 95.6881 522.323 94.5822C523.529 93.4421 526.014 92.4643 527.442 92.57C528.918 92.6568 532.279 94.1184 533.241 95.081Z" fill="#7CD5FF"/>
<path d="M508.932 108.467C508.504 109.423 507.68 109.71 506.242 109.354C505.414 109.189 505.047 108.819 504.62 107.85C504.095 106.551 503.485 105.991 503.241 106.538C503.165 106.708 502.766 106.776 502.345 106.71C501.703 106.587 501.528 106.796 501.088 108.237C500.419 110.559 499.662 110.877 497.653 109.691C496.33 108.895 495.992 108.826 495.258 109.276C494.034 109.999 493.877 110.625 494.554 111.951C495.083 112.966 495.075 113.167 494.295 114.088C493.659 114.869 493.165 115.057 492.189 114.949C491.077 114.779 490.899 114.904 490.334 116.167C489.769 117.43 489.795 117.647 490.663 118.362C491.394 119.017 491.583 119.511 491.44 120.471C491.256 121.617 491.096 121.792 489.975 122.192C488.474 122.709 488.223 123.088 488.482 124.432C488.635 125.279 488.912 125.485 490.388 125.94C492.611 126.647 492.879 127.422 491.645 129.451C490.86 130.656 490.84 130.975 491.241 131.728C491.978 132.918 492.419 133.033 493.882 132.417C494.984 131.968 495.219 131.991 496.121 132.722C496.868 133.342 497.056 133.836 496.948 134.812C496.778 135.924 496.903 136.103 498.166 136.667C499.429 137.232 499.646 137.206 500.361 136.338C501.016 135.607 501.51 135.418 502.504 135.576C503.7 135.742 503.84 135.887 504.122 136.996C504.503 138.435 505.037 138.797 506.465 138.535C507.293 138.332 507.518 138.104 507.893 136.716C508.581 134.443 509.338 134.126 511.366 135.36C512.758 136.187 513.027 136.226 513.423 135.707C513.693 135.377 514.035 135.161 514.206 135.238C514.752 135.482 514.834 134.658 514.358 133.34C514.03 132.333 514.058 131.813 514.565 131.138C515.399 129.914 516.204 129.578 517.16 130.005C517.911 130.341 518.04 130.235 518.666 128.835C519.292 127.436 519.285 127.268 518.534 126.933C517.578 126.505 517.291 125.681 517.629 124.193C517.824 123.298 518.113 123.017 519.075 122.792C520.283 122.472 521.078 121.517 520.43 121.227C520.259 121.151 520.18 120.869 520.302 120.596C520.653 119.811 520.149 119.381 518.65 119.161C516.612 118.864 515.951 117.136 517.272 115.555C518.243 114.392 518.332 113.735 517.546 113.384C517.273 113.262 517.145 113 517.221 112.829C517.511 112.181 516.281 111.999 515.168 112.566C514.301 113.039 513.899 113.023 513.156 112.486C511.912 111.602 511.576 110.797 512.004 109.841C512.339 109.09 512.233 108.961 510.834 108.335C509.434 107.709 509.267 107.716 508.932 108.467ZM510.241 117.081C511.222 118.093 512.449 121.304 512.393 122.712C512.287 124.14 510.929 127.178 509.84 128.329C508.752 129.481 506.316 130.44 504.589 130.364C502.964 130.334 499.945 129.025 498.619 127.777C497.414 126.624 496.47 124.154 496.599 122.491C496.755 120.677 498.132 117.688 499.323 116.582C500.529 115.442 503.014 114.464 504.442 114.57C505.918 114.657 509.279 116.118 510.241 117.081Z" fill="#7CD5FF"/>
<path d="M526.392 97.3018C524.937 97.7161 523.743 100.295 524.29 101.728C524.837 103.16 527.447 104.286 528.808 103.625C530.233 102.91 531.157 100.661 530.579 99.2967C529.982 97.883 527.847 96.8874 526.392 97.3018Z" fill="#7CD5FF"/>
<path d="M503.392 119.302C501.937 119.716 500.743 122.295 501.29 123.728C501.837 125.16 504.447 126.286 505.808 125.625C507.233 124.91 508.157 122.661 507.579 121.297C506.982 119.883 504.847 118.887 503.392 119.302Z" fill="#7CD5FF"/>
<path d="M549.79 40.7421C550.662 35.2886 555.791 31.575 561.244 32.4475L663.64 48.8304C669.094 49.703 672.808 54.8312 671.935 60.2847L654.459 169.516C652.277 183.15 639.457 192.434 625.823 190.252L553.05 178.609C539.416 176.428 530.132 163.607 532.313 149.973L549.79 40.7421Z" fill="#1F9DD3"/>
<path d="M549.79 40.7421C550.662 35.2886 555.791 31.575 561.244 32.4475L663.64 48.8304C669.094 49.703 672.808 54.8312 671.935 60.2847L660.291 133.064C655.666 161.967 628.487 181.65 599.583 177.025L582.107 174.229C553.203 169.605 533.521 142.425 538.145 113.521L549.79 40.7421Z" fill="#46C4FF"/>
<path d="M549.79 40.7421C550.662 35.2886 555.791 31.575 561.244 32.4475L663.64 48.8304C669.094 49.703 672.808 54.8312 671.935 60.2847L655.709 161.7C653.615 174.788 641.307 183.701 628.219 181.607L553.471 169.647C540.382 167.553 531.47 155.246 533.564 142.157L549.79 40.7421Z" fill="#46C4FF"/>
<path d="M569.468 49.8244C569.555 49.279 570.068 48.9076 570.613 48.9949L651.049 61.8643C651.595 61.9516 651.966 62.4644 651.879 63.0097L642.197 123.525C638.556 146.282 617.156 161.779 594.398 158.138V158.138C571.641 154.497 556.144 133.097 559.785 110.34L569.468 49.8244Z" fill="#1CB0F6"/>
<path d="M614.138 79.6634C613.253 82.0376 610.979 82.2328 609.535 80.045C607.272 76.6641 602.972 78.6596 604.509 82.3716C604.924 83.2767 604.8 83.7041 603.777 84.4908C602.809 85.2862 602.19 85.299 600.046 84.6766C597.584 83.9472 597.466 83.9842 596.865 85.2857C596.122 87.1236 596.431 88.347 597.798 88.5657C598.4 88.6619 598.857 88.9587 598.813 89.2313C598.769 89.5038 599.192 90.0186 599.767 90.2784C600.342 90.5381 600.876 91.4062 600.918 92.1956C601.048 93.8377 602.452 94.1741 604 92.9123C604.588 92.3914 605.431 92.0232 605.869 92.0932C606.306 92.1632 607.095 91.7863 607.629 91.2567C609.644 89.1752 615.786 88.9839 619.076 90.852C620.868 91.9213 622.476 94.1353 622.936 96.1656C623.69 99.8642 621.591 105.622 618.979 106.881C618.308 107.221 617.702 107.851 617.632 108.287C617.563 108.723 616.948 109.408 616.269 109.802C614.583 110.874 614.466 112.309 615.99 112.944C616.729 113.23 617.39 114.007 617.458 114.633C617.526 115.258 617.885 115.819 618.159 115.863C618.432 115.906 618.572 116.432 618.476 117.032C618.258 118.394 619.328 119.069 621.311 118.939C622.739 118.776 622.811 118.676 622.884 116.116C622.96 113.892 623.165 113.309 624.225 112.64C625.294 111.917 625.74 111.932 626.473 112.609C629.531 115.223 632.775 111.772 630.259 108.574C628.624 106.524 629.52 104.431 632.059 104.334C633.86 104.287 633.987 104.195 634.345 101.96C634.702 99.7254 634.611 99.5988 632.913 98.9919C630.532 98.1076 630.362 96.012 632.509 94.5106C634.076 93.4755 634.603 91.9385 633.992 90.499C633.696 89.8927 632.948 89.6612 631.055 89.5818C627.641 89.5388 626.86 88.4635 627.884 85.2171C628.399 83.3987 628.412 82.618 627.926 82.149C626.745 81.1214 625.116 81.1403 623.64 82.3019C621.54 83.8666 619.595 83.0523 619.496 80.5206C619.447 78.7238 619.355 78.5973 617.113 78.2386C614.872 77.88 614.745 77.9715 614.138 79.6634Z" fill="#0076AC"/>
<path d="M593.238 92.5331C592.994 94.0594 591.925 94.7828 589.731 94.8233C588.485 94.9034 587.818 94.5171 586.835 93.2977C585.586 91.6443 584.499 91.079 584.359 91.9512C584.316 92.2237 583.771 92.4721 583.144 92.5394C582.179 92.6087 582.009 92.9728 581.934 95.1969C581.867 98.7643 580.908 99.5053 577.579 98.5814C575.381 97.9502 574.872 97.9805 573.995 98.9025C572.522 100.4 572.538 101.353 574.015 102.987C575.161 104.232 575.227 104.522 574.464 106.133C573.855 107.489 573.221 107.947 571.784 108.165C570.129 108.347 569.922 108.593 569.599 110.61C569.276 112.627 569.397 112.926 570.912 113.616C572.209 114.27 572.669 114.903 572.834 116.327C573.009 118.032 572.848 118.342 571.398 119.34C569.451 120.649 569.237 121.286 570.123 123.105C570.668 124.254 571.143 124.442 573.428 124.528C576.879 124.689 577.559 125.692 576.572 129.057C575.913 131.076 576.007 131.538 576.869 132.458C578.381 133.874 579.054 133.87 580.91 132.434C582.314 131.373 582.659 131.316 584.229 132.015C585.535 132.615 585.995 133.248 586.214 134.68C586.399 136.331 586.646 136.538 588.669 136.862C590.692 137.186 590.991 137.066 591.681 135.555C592.337 134.262 592.971 133.805 594.453 133.651C596.227 133.431 596.483 133.584 597.312 135.058C598.408 136.967 599.312 137.279 601.253 136.36C602.359 135.754 602.593 135.344 602.596 133.22C602.709 129.716 603.668 128.975 607.043 129.962C609.35 130.611 609.75 130.563 610.117 129.672C610.377 129.098 610.784 128.66 611.057 128.704C611.932 128.844 611.732 127.638 610.546 125.939C609.691 124.628 609.531 123.875 609.996 122.72C610.719 120.655 611.742 119.869 613.273 120.113C614.475 120.306 614.62 120.105 614.977 117.87C615.335 115.636 615.26 115.4 614.057 115.208C612.527 114.963 611.8 113.896 611.712 111.646C611.648 110.294 611.953 109.783 613.241 109.095C614.846 108.178 615.617 106.512 614.578 106.346C614.305 106.302 614.084 105.931 614.154 105.495C614.354 104.242 613.468 103.82 611.24 104.079C608.212 104.433 606.603 102.219 607.886 99.4609C608.827 97.4313 608.702 96.4608 607.445 96.2597C607.007 96.1897 606.723 95.8646 606.766 95.5921C606.932 94.5564 605.104 94.7671 603.729 96.0006C602.671 97.0054 602.09 97.136 600.821 96.6535C598.704 95.8675 597.914 94.8466 598.158 93.3203C598.35 92.1211 598.149 91.9771 595.907 91.6185C593.666 91.2598 593.43 91.3339 593.238 92.5331ZM598.417 104.319C600.209 105.389 603.195 109.5 603.656 111.531C604.052 113.607 603.276 118.458 602.162 120.516C601.048 122.574 597.933 124.871 595.433 125.422C593.098 125.998 588.278 125.283 585.903 124.009C583.738 122.823 581.44 119.661 580.986 117.24C580.513 114.592 581.335 109.804 582.613 107.773C583.9 105.686 587.078 103.344 589.16 102.95C591.305 102.511 596.672 103.313 598.417 104.319Z" fill="#0076AC"/>
<path d="M589.474 110.1C587.552 111.246 586.835 115.38 588.167 117.215C589.5 119.049 593.664 119.659 595.356 118.197C597.12 116.634 597.577 113.074 596.227 111.348C594.831 109.559 591.395 108.954 589.474 110.1Z" fill="#0076AC"/>
<path d="M612.105 96.2223C611.852 96.4053 611.505 97.5238 611.322 98.6685L610.981 100.794L613.359 101.007C615.681 101.211 615.681 101.211 616.03 99.0305C616.37 96.9046 616.324 96.8413 614.491 96.3804C613.415 96.0964 612.359 96.0392 612.105 96.2223Z" fill="#0076AC"/>
<path d="M645.761 43.3083L665.213 46.7694L666.567 47.7381L667.922 48.7073L669.276 49.6763L671.249 51.4967L672.368 53.9331L673.463 59.3751L670.076 80.5403L607.751 123.564L545.427 166.588L542.776 163.356L540.523 159.837L538.668 156.031L537.211 151.937L536.151 147.556L535.779 143.285L535.804 138.726L536.544 134.102L539.308 116.825L645.761 43.3083Z" fill="white" fill-opacity="0.29"/>
<path fill-rule="evenodd" clip-rule="evenodd" d="M60.6354 138.797C60.2492 137.736 58.7508 137.736 58.3646 138.797L56.6123 143.614L51.7951 145.366C50.735 145.752 50.735 147.251 51.7951 147.637L56.6123 149.389L58.3646 154.206C58.7508 155.266 60.2492 155.266 60.6354 154.206L62.3877 149.389L67.2049 147.637C68.265 147.251 68.265 145.752 67.2049 145.366L62.3877 143.614L60.6354 138.797Z" fill="#0076AC"/>
</svg>
