<svg width="637" height="205" viewBox="0 0 637 205" fill="none" xmlns="http://www.w3.org/2000/svg">
<rect y="40.0166" width="635" height="164" rx="30" fill="#BAE8FE"/>
<path d="M52.916 154.013H48.842L48.142 156.001H46.476L49.962 146.257H51.81L55.296 156.001H53.616L52.916 154.013ZM52.468 152.711L50.886 148.189L49.29 152.711H52.468ZM63.2484 156.127C62.6418 156.127 62.0958 156.02 61.6104 155.805C61.1344 155.581 60.7564 155.282 60.4764 154.909C60.1964 154.526 60.0471 154.102 60.0284 153.635H61.6804C61.7084 153.962 61.8624 154.237 62.1424 154.461C62.4318 154.676 62.7911 154.783 63.2204 154.783C63.6684 154.783 64.0138 154.699 64.2564 154.531C64.5084 154.354 64.6344 154.13 64.6344 153.859C64.6344 153.57 64.4944 153.355 64.2144 153.215C63.9438 153.075 63.5098 152.921 62.9124 152.753C62.3338 152.594 61.8624 152.44 61.4984 152.291C61.1344 152.142 60.8171 151.913 60.5464 151.605C60.2851 151.297 60.1544 150.891 60.1544 150.387C60.1544 149.976 60.2758 149.603 60.5184 149.267C60.7611 148.922 61.1064 148.651 61.5544 148.455C62.0118 148.259 62.5344 148.161 63.1224 148.161C63.9998 148.161 64.7044 148.385 65.2364 148.833C65.7778 149.272 66.0671 149.874 66.1044 150.639H64.5084C64.4804 150.294 64.3404 150.018 64.0884 149.813C63.8364 149.608 63.4958 149.505 63.0664 149.505C62.6464 149.505 62.3244 149.584 62.1004 149.743C61.8764 149.902 61.7644 150.112 61.7644 150.373C61.7644 150.578 61.8391 150.751 61.9884 150.891C62.1378 151.031 62.3198 151.143 62.5344 151.227C62.7491 151.302 63.0664 151.4 63.4864 151.521C64.0464 151.67 64.5038 151.824 64.8584 151.983C65.2224 152.132 65.5351 152.356 65.7964 152.655C66.0578 152.954 66.1931 153.35 66.2024 153.845C66.2024 154.284 66.0811 154.676 65.8384 155.021C65.5958 155.366 65.2504 155.637 64.8024 155.833C64.3638 156.029 63.8458 156.127 63.2484 156.127ZM71.273 156.127C70.545 156.127 69.887 155.964 69.299 155.637C68.711 155.301 68.249 154.834 67.913 154.237C67.577 153.63 67.409 152.93 67.409 152.137C67.409 151.353 67.5816 150.658 67.927 150.051C68.2723 149.444 68.7436 148.978 69.341 148.651C69.9383 148.324 70.6056 148.161 71.343 148.161C72.0803 148.161 72.7476 148.324 73.345 148.651C73.9423 148.978 74.4136 149.444 74.759 150.051C75.1043 150.658 75.277 151.353 75.277 152.137C75.277 152.921 75.0996 153.616 74.745 154.223C74.3903 154.83 73.905 155.301 73.289 155.637C72.6823 155.964 72.0103 156.127 71.273 156.127ZM71.273 154.741C71.6836 154.741 72.0663 154.643 72.421 154.447C72.785 154.251 73.079 153.957 73.303 153.565C73.527 153.173 73.639 152.697 73.639 152.137C73.639 151.577 73.5316 151.106 73.317 150.723C73.1023 150.331 72.8176 150.037 72.463 149.841C72.1083 149.645 71.7256 149.547 71.315 149.547C70.9043 149.547 70.5216 149.645 70.167 149.841C69.8216 150.037 69.5463 150.331 69.341 150.723C69.1356 151.106 69.033 151.577 69.033 152.137C69.033 152.968 69.243 153.612 69.663 154.069C70.0923 154.517 70.629 154.741 71.273 154.741ZM78.4507 145.641V156.001H76.8547V145.641H78.4507ZM81.3581 147.265C81.0688 147.265 80.8261 147.167 80.6301 146.971C80.4341 146.775 80.3361 146.532 80.3361 146.243C80.3361 145.954 80.4341 145.711 80.6301 145.515C80.8261 145.319 81.0688 145.221 81.3581 145.221C81.6381 145.221 81.8761 145.319 82.0721 145.515C82.2681 145.711 82.3661 145.954 82.3661 146.243C82.3661 146.532 82.2681 146.775 82.0721 146.971C81.8761 147.167 81.6381 147.265 81.3581 147.265ZM82.1421 148.287V156.001H80.5461V148.287H82.1421ZM83.7055 152.109C83.7055 151.334 83.8642 150.648 84.1815 150.051C84.5082 149.454 84.9468 148.992 85.4975 148.665C86.0575 148.329 86.6782 148.161 87.3595 148.161C87.8635 148.161 88.3582 148.273 88.8435 148.497C89.3382 148.712 89.7302 149.001 90.0195 149.365V145.641H91.6295V156.001H90.0195V154.839C89.7582 155.212 89.3942 155.52 88.9275 155.763C88.4702 156.006 87.9428 156.127 87.3455 156.127C86.6735 156.127 86.0575 155.959 85.4975 155.623C84.9468 155.278 84.5082 154.802 84.1815 154.195C83.8642 153.579 83.7055 152.884 83.7055 152.109ZM90.0195 152.137C90.0195 151.605 89.9075 151.143 89.6835 150.751C89.4688 150.359 89.1842 150.06 88.8295 149.855C88.4748 149.65 88.0922 149.547 87.6815 149.547C87.2708 149.547 86.8882 149.65 86.5335 149.855C86.1788 150.051 85.8895 150.345 85.6655 150.737C85.4508 151.12 85.3435 151.577 85.3435 152.109C85.3435 152.641 85.4508 153.108 85.6655 153.509C85.8895 153.91 86.1788 154.218 86.5335 154.433C86.8975 154.638 87.2802 154.741 87.6815 154.741C88.0922 154.741 88.4748 154.638 88.8295 154.433C89.1842 154.228 89.4688 153.929 89.6835 153.537C89.9075 153.136 90.0195 152.669 90.0195 152.137ZM93.1938 152.109C93.1938 151.334 93.3524 150.648 93.6698 150.051C93.9964 149.454 94.4351 148.992 94.9858 148.665C95.5458 148.329 96.1618 148.161 96.8338 148.161C97.4404 148.161 97.9678 148.282 98.4158 148.525C98.8731 148.758 99.2371 149.052 99.5078 149.407V148.287H101.118V156.001H99.5078V154.853C99.2371 155.217 98.8684 155.52 98.4018 155.763C97.9351 156.006 97.4031 156.127 96.8058 156.127C96.1431 156.127 95.5364 155.959 94.9858 155.623C94.4351 155.278 93.9964 154.802 93.6698 154.195C93.3524 153.579 93.1938 152.884 93.1938 152.109ZM99.5078 152.137C99.5078 151.605 99.3958 151.143 99.1718 150.751C98.9571 150.359 98.6724 150.06 98.3178 149.855C97.9631 149.65 97.5804 149.547 97.1698 149.547C96.7591 149.547 96.3764 149.65 96.0218 149.855C95.6671 150.051 95.3778 150.345 95.1538 150.737C94.9391 151.12 94.8318 151.577 94.8318 152.109C94.8318 152.641 94.9391 153.108 95.1538 153.509C95.3778 153.91 95.6671 154.218 96.0218 154.433C96.3858 154.638 96.7684 154.741 97.1698 154.741C97.5804 154.741 97.9631 154.638 98.3178 154.433C98.6724 154.228 98.9571 153.929 99.1718 153.537C99.3958 153.136 99.5078 152.669 99.5078 152.137ZM104.81 149.407C105.043 149.015 105.351 148.712 105.734 148.497C106.126 148.273 106.588 148.161 107.12 148.161V149.813H106.714C106.089 149.813 105.613 149.972 105.286 150.289C104.969 150.606 104.81 151.157 104.81 151.941V156.001H103.214V148.287H104.81V149.407ZM109.399 147.265C109.11 147.265 108.867 147.167 108.671 146.971C108.475 146.775 108.377 146.532 108.377 146.243C108.377 145.954 108.475 145.711 108.671 145.515C108.867 145.319 109.11 145.221 109.399 145.221C109.679 145.221 109.917 145.319 110.113 145.515C110.309 145.711 110.407 145.954 110.407 146.243C110.407 146.532 110.309 146.775 110.113 146.971C109.917 147.167 109.679 147.265 109.399 147.265ZM110.183 148.287V156.001H108.587V148.287H110.183ZM119.349 151.955C119.349 152.244 119.33 152.506 119.293 152.739H113.399C113.445 153.355 113.674 153.85 114.085 154.223C114.495 154.596 114.999 154.783 115.597 154.783C116.455 154.783 117.062 154.424 117.417 153.705H119.139C118.905 154.414 118.481 154.998 117.865 155.455C117.258 155.903 116.502 156.127 115.597 156.127C114.859 156.127 114.197 155.964 113.609 155.637C113.03 155.301 112.573 154.834 112.237 154.237C111.91 153.63 111.747 152.93 111.747 152.137C111.747 151.344 111.905 150.648 112.223 150.051C112.549 149.444 113.002 148.978 113.581 148.651C114.169 148.324 114.841 148.161 115.597 148.161C116.325 148.161 116.973 148.32 117.543 148.637C118.112 148.954 118.555 149.402 118.873 149.981C119.19 150.55 119.349 151.208 119.349 151.955ZM117.683 151.451C117.673 150.863 117.463 150.392 117.053 150.037C116.642 149.682 116.133 149.505 115.527 149.505C114.976 149.505 114.505 149.682 114.113 150.037C113.721 150.382 113.487 150.854 113.413 151.451H117.683ZM120.387 152.109C120.387 151.334 120.546 150.648 120.863 150.051C121.19 149.454 121.628 148.992 122.179 148.665C122.739 148.329 123.36 148.161 124.041 148.161C124.545 148.161 125.04 148.273 125.525 148.497C126.02 148.712 126.412 149.001 126.701 149.365V145.641H128.311V156.001H126.701V154.839C126.44 155.212 126.076 155.52 125.609 155.763C125.152 156.006 124.624 156.127 124.027 156.127C123.355 156.127 122.739 155.959 122.179 155.623C121.628 155.278 121.19 154.802 120.863 154.195C120.546 153.579 120.387 152.884 120.387 152.109ZM126.701 152.137C126.701 151.605 126.589 151.143 126.365 150.751C126.15 150.359 125.866 150.06 125.511 149.855C125.156 149.65 124.774 149.547 124.363 149.547C123.952 149.547 123.57 149.65 123.215 149.855C122.86 150.051 122.571 150.345 122.347 150.737C122.132 151.12 122.025 151.577 122.025 152.109C122.025 152.641 122.132 153.108 122.347 153.509C122.571 153.91 122.86 154.218 123.215 154.433C123.579 154.638 123.962 154.741 124.363 154.741C124.774 154.741 125.156 154.638 125.511 154.433C125.866 154.228 126.15 153.929 126.365 153.537C126.589 153.136 126.701 152.669 126.701 152.137ZM129.875 152.109C129.875 151.334 130.034 150.648 130.351 150.051C130.678 149.454 131.117 148.992 131.667 148.665C132.227 148.329 132.843 148.161 133.515 148.161C134.122 148.161 134.649 148.282 135.097 148.525C135.555 148.758 135.919 149.052 136.189 149.407V148.287H137.799V156.001H136.189V154.853C135.919 155.217 135.55 155.52 135.083 155.763C134.617 156.006 134.085 156.127 133.487 156.127C132.825 156.127 132.218 155.959 131.667 155.623C131.117 155.278 130.678 154.802 130.351 154.195C130.034 153.579 129.875 152.884 129.875 152.109ZM136.189 152.137C136.189 151.605 136.077 151.143 135.853 150.751C135.639 150.359 135.354 150.06 134.999 149.855C134.645 149.65 134.262 149.547 133.851 149.547C133.441 149.547 133.058 149.65 132.703 149.855C132.349 150.051 132.059 150.345 131.835 150.737C131.621 151.12 131.513 151.577 131.513 152.109C131.513 152.641 131.621 153.108 131.835 153.509C132.059 153.91 132.349 154.218 132.703 154.433C133.067 154.638 133.45 154.741 133.851 154.741C134.262 154.741 134.645 154.638 134.999 154.433C135.354 154.228 135.639 153.929 135.853 153.537C136.077 153.136 136.189 152.669 136.189 152.137ZM139.364 152.109C139.364 151.334 139.522 150.648 139.84 150.051C140.166 149.454 140.605 148.992 141.156 148.665C141.716 148.329 142.336 148.161 143.018 148.161C143.522 148.161 144.016 148.273 144.502 148.497C144.996 148.712 145.388 149.001 145.678 149.365V145.641H147.288V156.001H145.678V154.839C145.416 155.212 145.052 155.52 144.586 155.763C144.128 156.006 143.601 156.127 143.004 156.127C142.332 156.127 141.716 155.959 141.156 155.623C140.605 155.278 140.166 154.802 139.84 154.195C139.522 153.579 139.364 152.884 139.364 152.109ZM145.678 152.137C145.678 151.605 145.566 151.143 145.342 150.751C145.127 150.359 144.842 150.06 144.488 149.855C144.133 149.65 143.75 149.547 143.34 149.547C142.929 149.547 142.546 149.65 142.192 149.855C141.837 150.051 141.548 150.345 141.324 150.737C141.109 151.12 141.002 151.577 141.002 152.109C141.002 152.641 141.109 153.108 141.324 153.509C141.548 153.91 141.837 154.218 142.192 154.433C142.556 154.638 142.938 154.741 143.34 154.741C143.75 154.741 144.133 154.638 144.488 154.433C144.842 154.228 145.127 153.929 145.342 153.537C145.566 153.136 145.678 152.669 145.678 152.137ZM156.454 151.955C156.454 152.244 156.435 152.506 156.398 152.739H150.504C150.551 153.355 150.779 153.85 151.19 154.223C151.601 154.596 152.105 154.783 152.702 154.783C153.561 154.783 154.167 154.424 154.522 153.705H156.244C156.011 154.414 155.586 154.998 154.97 155.455C154.363 155.903 153.607 156.127 152.702 156.127C151.965 156.127 151.302 155.964 150.714 155.637C150.135 155.301 149.678 154.834 149.342 154.237C149.015 153.63 148.852 152.93 148.852 152.137C148.852 151.344 149.011 150.648 149.328 150.051C149.655 149.444 150.107 148.978 150.686 148.651C151.274 148.324 151.946 148.161 152.702 148.161C153.43 148.161 154.079 148.32 154.648 148.637C155.217 148.954 155.661 149.402 155.978 149.981C156.295 150.55 156.454 151.208 156.454 151.955ZM154.788 151.451C154.779 150.863 154.569 150.392 154.158 150.037C153.747 149.682 153.239 149.505 152.632 149.505C152.081 149.505 151.61 149.682 151.218 150.037C150.826 150.382 150.593 150.854 150.518 151.451H154.788ZM168.731 151.955C168.731 152.244 168.713 152.506 168.675 152.739H162.781C162.828 153.355 163.057 153.85 163.467 154.223C163.878 154.596 164.382 154.783 164.979 154.783C165.838 154.783 166.445 154.424 166.799 153.705H168.521C168.288 154.414 167.863 154.998 167.247 155.455C166.641 155.903 165.885 156.127 164.979 156.127C164.242 156.127 163.579 155.964 162.991 155.637C162.413 155.301 161.955 154.834 161.619 154.237C161.293 153.63 161.129 152.93 161.129 152.137C161.129 151.344 161.288 150.648 161.605 150.051C161.932 149.444 162.385 148.978 162.963 148.651C163.551 148.324 164.223 148.161 164.979 148.161C165.707 148.161 166.356 148.32 166.925 148.637C167.495 148.954 167.938 149.402 168.255 149.981C168.573 150.55 168.731 151.208 168.731 151.955ZM167.065 151.451C167.056 150.863 166.846 150.392 166.435 150.037C166.025 149.682 165.516 149.505 164.909 149.505C164.359 149.505 163.887 149.682 163.495 150.037C163.103 150.382 162.87 150.854 162.795 151.451H167.065ZM166.379 146.215L163.285 147.741V146.565L166.379 144.857V146.215ZM173.407 152.109C173.407 151.334 173.565 150.648 173.883 150.051C174.209 149.454 174.648 148.992 175.199 148.665C175.759 148.329 176.375 148.161 177.047 148.161C177.653 148.161 178.181 148.282 178.629 148.525C179.086 148.758 179.45 149.052 179.721 149.407V148.287H181.331V156.001H179.721V154.853C179.45 155.217 179.081 155.52 178.615 155.763C178.148 156.006 177.616 156.127 177.019 156.127C176.356 156.127 175.749 155.959 175.199 155.623C174.648 155.278 174.209 154.802 173.883 154.195C173.565 153.579 173.407 152.884 173.407 152.109ZM179.721 152.137C179.721 151.605 179.609 151.143 179.385 150.751C179.17 150.359 178.885 150.06 178.531 149.855C178.176 149.65 177.793 149.547 177.383 149.547C176.972 149.547 176.589 149.65 176.235 149.855C175.88 150.051 175.591 150.345 175.367 150.737C175.152 151.12 175.045 151.577 175.045 152.109C175.045 152.641 175.152 153.108 175.367 153.509C175.591 153.91 175.88 154.218 176.235 154.433C176.599 154.638 176.981 154.741 177.383 154.741C177.793 154.741 178.176 154.638 178.531 154.433C178.885 154.228 179.17 153.929 179.385 153.537C179.609 153.136 179.721 152.669 179.721 152.137ZM194.134 151.955C194.134 152.244 194.115 152.506 194.078 152.739H188.184C188.23 153.355 188.459 153.85 188.87 154.223C189.28 154.596 189.784 154.783 190.382 154.783C191.24 154.783 191.847 154.424 192.202 153.705H193.924C193.69 154.414 193.266 154.998 192.65 155.455C192.043 155.903 191.287 156.127 190.382 156.127C189.644 156.127 188.982 155.964 188.394 155.637C187.815 155.301 187.358 154.834 187.022 154.237C186.695 153.63 186.532 152.93 186.532 152.137C186.532 151.344 186.69 150.648 187.008 150.051C187.334 149.444 187.787 148.978 188.366 148.651C188.954 148.324 189.626 148.161 190.382 148.161C191.11 148.161 191.758 148.32 192.328 148.637C192.897 148.954 193.34 149.402 193.658 149.981C193.975 150.55 194.134 151.208 194.134 151.955ZM192.468 151.451C192.458 150.863 192.248 150.392 191.838 150.037C191.427 149.682 190.918 149.505 190.312 149.505C189.761 149.505 189.29 149.682 188.898 150.037C188.506 150.382 188.272 150.854 188.198 151.451H192.468ZM199.596 148.161C200.203 148.161 200.744 148.287 201.22 148.539C201.706 148.791 202.084 149.164 202.354 149.659C202.625 150.154 202.76 150.751 202.76 151.451V156.001H201.178V151.689C201.178 150.998 201.006 150.471 200.66 150.107C200.315 149.734 199.844 149.547 199.246 149.547C198.649 149.547 198.173 149.734 197.818 150.107C197.473 150.471 197.3 150.998 197.3 151.689V156.001H195.704V148.287H197.3V149.169C197.562 148.852 197.893 148.604 198.294 148.427C198.705 148.25 199.139 148.161 199.596 148.161ZM207.904 148.161C208.501 148.161 209.029 148.282 209.486 148.525C209.953 148.758 210.317 149.052 210.578 149.407V148.287H212.188V156.127C212.188 156.836 212.039 157.466 211.74 158.017C211.441 158.577 211.007 159.016 210.438 159.333C209.878 159.65 209.206 159.809 208.422 159.809C207.377 159.809 206.509 159.562 205.818 159.067C205.127 158.582 204.735 157.919 204.642 157.079H206.224C206.345 157.48 206.602 157.802 206.994 158.045C207.395 158.297 207.871 158.423 208.422 158.423C209.066 158.423 209.584 158.227 209.976 157.835C210.377 157.443 210.578 156.874 210.578 156.127V154.839C210.307 155.203 209.939 155.511 209.472 155.763C209.015 156.006 208.492 156.127 207.904 156.127C207.232 156.127 206.616 155.959 206.056 155.623C205.505 155.278 205.067 154.802 204.74 154.195C204.423 153.579 204.264 152.884 204.264 152.109C204.264 151.334 204.423 150.648 204.74 150.051C205.067 149.454 205.505 148.992 206.056 148.665C206.616 148.329 207.232 148.161 207.904 148.161ZM210.578 152.137C210.578 151.605 210.466 151.143 210.242 150.751C210.027 150.359 209.743 150.06 209.388 149.855C209.033 149.65 208.651 149.547 208.24 149.547C207.829 149.547 207.447 149.65 207.092 149.855C206.737 150.051 206.448 150.345 206.224 150.737C206.009 151.12 205.902 151.577 205.902 152.109C205.902 152.641 206.009 153.108 206.224 153.509C206.448 153.91 206.737 154.218 207.092 154.433C207.456 154.638 207.839 154.741 208.24 154.741C208.651 154.741 209.033 154.638 209.388 154.433C209.743 154.228 210.027 153.929 210.242 153.537C210.466 153.136 210.578 152.669 210.578 152.137ZM215.88 149.407C216.114 149.015 216.422 148.712 216.804 148.497C217.196 148.273 217.658 148.161 218.19 148.161V149.813H217.784C217.159 149.813 216.683 149.972 216.356 150.289C216.039 150.606 215.88 151.157 215.88 151.941V156.001H214.284V148.287H215.88V149.407ZM226.727 151.955C226.727 152.244 226.709 152.506 226.671 152.739H220.777C220.824 153.355 221.053 153.85 221.463 154.223C221.874 154.596 222.378 154.783 222.975 154.783C223.834 154.783 224.441 154.424 224.795 153.705H226.517C226.284 154.414 225.859 154.998 225.243 155.455C224.637 155.903 223.881 156.127 222.975 156.127C222.238 156.127 221.575 155.964 220.987 155.637C220.409 155.301 219.951 154.834 219.615 154.237C219.289 153.63 219.125 152.93 219.125 152.137C219.125 151.344 219.284 150.648 219.601 150.051C219.928 149.444 220.381 148.978 220.959 148.651C221.547 148.324 222.219 148.161 222.975 148.161C223.703 148.161 224.352 148.32 224.921 148.637C225.491 148.954 225.934 149.402 226.251 149.981C226.569 150.55 226.727 151.208 226.727 151.955ZM225.061 151.451C225.052 150.863 224.842 150.392 224.431 150.037C224.021 149.682 223.512 149.505 222.905 149.505C222.355 149.505 221.883 149.682 221.491 150.037C221.099 150.382 220.866 150.854 220.791 151.451H225.061ZM232.19 148.161C232.797 148.161 233.338 148.287 233.814 148.539C234.299 148.791 234.677 149.164 234.948 149.659C235.219 150.154 235.354 150.751 235.354 151.451V156.001H233.772V151.689C233.772 150.998 233.599 150.471 233.254 150.107C232.909 149.734 232.437 149.547 231.84 149.547C231.243 149.547 230.767 149.734 230.412 150.107C230.067 150.471 229.894 150.998 229.894 151.689V156.001H228.298V148.287H229.894V149.169C230.155 148.852 230.487 148.604 230.888 148.427C231.299 148.25 231.733 148.161 232.19 148.161ZM236.858 152.109C236.858 151.334 237.017 150.648 237.334 150.051C237.661 149.454 238.099 148.992 238.65 148.665C239.21 148.329 239.826 148.161 240.498 148.161C241.105 148.161 241.632 148.282 242.08 148.525C242.537 148.758 242.901 149.052 243.172 149.407V148.287H244.782V156.001H243.172V154.853C242.901 155.217 242.533 155.52 242.066 155.763C241.599 156.006 241.067 156.127 240.47 156.127C239.807 156.127 239.201 155.959 238.65 155.623C238.099 155.278 237.661 154.802 237.334 154.195C237.017 153.579 236.858 152.884 236.858 152.109ZM243.172 152.137C243.172 151.605 243.06 151.143 242.836 150.751C242.621 150.359 242.337 150.06 241.982 149.855C241.627 149.65 241.245 149.547 240.834 149.547C240.423 149.547 240.041 149.65 239.686 149.855C239.331 150.051 239.042 150.345 238.818 150.737C238.603 151.12 238.496 151.577 238.496 152.109C238.496 152.641 238.603 153.108 238.818 153.509C239.042 153.91 239.331 154.218 239.686 154.433C240.05 154.638 240.433 154.741 240.834 154.741C241.245 154.741 241.627 154.638 241.982 154.433C242.337 154.228 242.621 153.929 242.836 153.537C243.06 153.136 243.172 152.669 243.172 152.137ZM249.986 148.161C250.583 148.161 251.111 148.282 251.568 148.525C252.035 148.758 252.399 149.052 252.66 149.407V148.287H254.27V156.127C254.27 156.836 254.121 157.466 253.822 158.017C253.523 158.577 253.089 159.016 252.52 159.333C251.96 159.65 251.288 159.809 250.504 159.809C249.459 159.809 248.591 159.562 247.9 159.067C247.209 158.582 246.817 157.919 246.724 157.079H248.306C248.427 157.48 248.684 157.802 249.076 158.045C249.477 158.297 249.953 158.423 250.504 158.423C251.148 158.423 251.666 158.227 252.058 157.835C252.459 157.443 252.66 156.874 252.66 156.127V154.839C252.389 155.203 252.021 155.511 251.554 155.763C251.097 156.006 250.574 156.127 249.986 156.127C249.314 156.127 248.698 155.959 248.138 155.623C247.587 155.278 247.149 154.802 246.822 154.195C246.505 153.579 246.346 152.884 246.346 152.109C246.346 151.334 246.505 150.648 246.822 150.051C247.149 149.454 247.587 148.992 248.138 148.665C248.698 148.329 249.314 148.161 249.986 148.161ZM252.66 152.137C252.66 151.605 252.548 151.143 252.324 150.751C252.109 150.359 251.825 150.06 251.47 149.855C251.115 149.65 250.733 149.547 250.322 149.547C249.911 149.547 249.529 149.65 249.174 149.855C248.819 150.051 248.53 150.345 248.306 150.737C248.091 151.12 247.984 151.577 247.984 152.109C247.984 152.641 248.091 153.108 248.306 153.509C248.53 153.91 248.819 154.218 249.174 154.433C249.538 154.638 249.921 154.741 250.322 154.741C250.733 154.741 251.115 154.638 251.47 154.433C251.825 154.228 252.109 153.929 252.324 153.537C252.548 153.136 252.66 152.669 252.66 152.137ZM263.436 151.955C263.436 152.244 263.418 152.506 263.38 152.739H257.486C257.533 153.355 257.762 153.85 258.172 154.223C258.583 154.596 259.087 154.783 259.684 154.783C260.543 154.783 261.15 154.424 261.504 153.705H263.226C262.993 154.414 262.568 154.998 261.952 155.455C261.346 155.903 260.59 156.127 259.684 156.127C258.947 156.127 258.284 155.964 257.696 155.637C257.118 155.301 256.66 154.834 256.324 154.237C255.998 153.63 255.834 152.93 255.834 152.137C255.834 151.344 255.993 150.648 256.31 150.051C256.637 149.444 257.09 148.978 257.668 148.651C258.256 148.324 258.928 148.161 259.684 148.161C260.412 148.161 261.061 148.32 261.63 148.637C262.2 148.954 262.643 149.402 262.96 149.981C263.278 150.55 263.436 151.208 263.436 151.955ZM261.77 151.451C261.761 150.863 261.551 150.392 261.14 150.037C260.73 149.682 260.221 149.505 259.614 149.505C259.064 149.505 258.592 149.682 258.2 150.037C257.808 150.382 257.575 150.854 257.5 151.451H261.77ZM274.345 148.161C274.952 148.161 275.493 148.287 275.969 148.539C276.454 148.791 276.832 149.164 277.103 149.659C277.383 150.154 277.523 150.751 277.523 151.451V156.001H275.941V151.689C275.941 150.998 275.768 150.471 275.423 150.107C275.078 149.734 274.606 149.547 274.009 149.547C273.412 149.547 272.936 149.734 272.581 150.107C272.236 150.471 272.063 150.998 272.063 151.689V156.001H270.481V151.689C270.481 150.998 270.308 150.471 269.963 150.107C269.618 149.734 269.146 149.547 268.549 149.547C267.952 149.547 267.476 149.734 267.121 150.107C266.776 150.471 266.603 150.998 266.603 151.689V156.001H265.007V148.287H266.603V149.169C266.864 148.852 267.196 148.604 267.597 148.427C267.998 148.25 268.428 148.161 268.885 148.161C269.501 148.161 270.052 148.292 270.537 148.553C271.022 148.814 271.396 149.192 271.657 149.687C271.89 149.22 272.254 148.852 272.749 148.581C273.244 148.301 273.776 148.161 274.345 148.161ZM282.659 152.109C282.659 151.334 282.817 150.648 283.135 150.051C283.461 149.454 283.9 148.992 284.451 148.665C285.011 148.329 285.631 148.161 286.313 148.161C286.91 148.161 287.437 148.282 287.895 148.525C288.361 148.768 288.721 149.062 288.973 149.407V148.287H290.583V159.669H288.973V154.881C288.721 155.226 288.357 155.52 287.881 155.763C287.405 156.006 286.863 156.127 286.257 156.127C285.594 156.127 284.987 155.959 284.437 155.623C283.895 155.278 283.461 154.802 283.135 154.195C282.817 153.579 282.659 152.884 282.659 152.109ZM288.973 152.137C288.973 151.605 288.861 151.143 288.637 150.751C288.422 150.359 288.137 150.06 287.783 149.855C287.428 149.65 287.045 149.547 286.635 149.547C286.224 149.547 285.841 149.65 285.487 149.855C285.132 150.051 284.843 150.345 284.619 150.737C284.404 151.12 284.297 151.577 284.297 152.109C284.297 152.641 284.404 153.108 284.619 153.509C284.843 153.91 285.132 154.218 285.487 154.433C285.851 154.638 286.233 154.741 286.635 154.741C287.045 154.741 287.428 154.638 287.783 154.433C288.137 154.228 288.422 153.929 288.637 153.537C288.861 153.136 288.973 152.669 288.973 152.137ZM299.665 148.287V156.001H298.069V155.091C297.817 155.408 297.486 155.66 297.075 155.847C296.674 156.024 296.244 156.113 295.787 156.113C295.18 156.113 294.634 155.987 294.149 155.735C293.673 155.483 293.295 155.11 293.015 154.615C292.744 154.12 292.609 153.523 292.609 152.823V148.287H294.191V152.585C294.191 153.276 294.364 153.808 294.709 154.181C295.054 154.545 295.526 154.727 296.123 154.727C296.72 154.727 297.192 154.545 297.537 154.181C297.892 153.808 298.069 153.276 298.069 152.585V148.287H299.665ZM308.841 151.955C308.841 152.244 308.822 152.506 308.785 152.739H302.891C302.937 153.355 303.166 153.85 303.577 154.223C303.987 154.596 304.491 154.783 305.089 154.783C305.947 154.783 306.554 154.424 306.909 153.705H308.631C308.397 154.414 307.973 154.998 307.357 155.455C306.75 155.903 305.994 156.127 305.089 156.127C304.351 156.127 303.689 155.964 303.101 155.637C302.522 155.301 302.065 154.834 301.729 154.237C301.402 153.63 301.239 152.93 301.239 152.137C301.239 151.344 301.397 150.648 301.715 150.051C302.041 149.444 302.494 148.978 303.073 148.651C303.661 148.324 304.333 148.161 305.089 148.161C305.817 148.161 306.465 148.32 307.035 148.637C307.604 148.954 308.047 149.402 308.365 149.981C308.682 150.55 308.841 151.208 308.841 151.955ZM307.175 151.451C307.165 150.863 306.955 150.392 306.545 150.037C306.134 149.682 305.625 149.505 305.019 149.505C304.468 149.505 303.997 149.682 303.605 150.037C303.213 150.382 302.979 150.854 302.905 151.451H307.175ZM323.386 148.161C323.993 148.161 324.534 148.287 325.01 148.539C325.495 148.791 325.873 149.164 326.144 149.659C326.424 150.154 326.564 150.751 326.564 151.451V156.001H324.982V151.689C324.982 150.998 324.809 150.471 324.464 150.107C324.119 149.734 323.647 149.547 323.05 149.547C322.453 149.547 321.977 149.734 321.622 150.107C321.277 150.471 321.104 150.998 321.104 151.689V156.001H319.522V151.689C319.522 150.998 319.349 150.471 319.004 150.107C318.659 149.734 318.187 149.547 317.59 149.547C316.993 149.547 316.517 149.734 316.162 150.107C315.817 150.471 315.644 150.998 315.644 151.689V156.001H314.048V148.287H315.644V149.169C315.905 148.852 316.237 148.604 316.638 148.427C317.039 148.25 317.469 148.161 317.926 148.161C318.542 148.161 319.093 148.292 319.578 148.553C320.063 148.814 320.437 149.192 320.698 149.687C320.931 149.22 321.295 148.852 321.79 148.581C322.285 148.301 322.817 148.161 323.386 148.161ZM328.063 152.109C328.063 151.334 328.222 150.648 328.539 150.051C328.866 149.454 329.304 148.992 329.855 148.665C330.415 148.329 331.031 148.161 331.703 148.161C332.31 148.161 332.837 148.282 333.285 148.525C333.742 148.758 334.106 149.052 334.377 149.407V148.287H335.987V156.001H334.377V154.853C334.106 155.217 333.738 155.52 333.271 155.763C332.804 156.006 332.272 156.127 331.675 156.127C331.012 156.127 330.406 155.959 329.855 155.623C329.304 155.278 328.866 154.802 328.539 154.195C328.222 153.579 328.063 152.884 328.063 152.109ZM334.377 152.137C334.377 151.605 334.265 151.143 334.041 150.751C333.826 150.359 333.542 150.06 333.187 149.855C332.832 149.65 332.45 149.547 332.039 149.547C331.628 149.547 331.246 149.65 330.891 149.855C330.536 150.051 330.247 150.345 330.023 150.737C329.808 151.12 329.701 151.577 329.701 152.109C329.701 152.641 329.808 153.108 330.023 153.509C330.247 153.91 330.536 154.218 330.891 154.433C331.255 154.638 331.638 154.741 332.039 154.741C332.45 154.741 332.832 154.638 333.187 154.433C333.542 154.228 333.826 153.929 334.041 153.537C334.265 153.136 334.377 152.669 334.377 152.137ZM341.975 148.161C342.582 148.161 343.123 148.287 343.599 148.539C344.085 148.791 344.463 149.164 344.733 149.659C345.004 150.154 345.139 150.751 345.139 151.451V156.001H343.557V151.689C343.557 150.998 343.385 150.471 343.039 150.107C342.694 149.734 342.223 149.547 341.625 149.547C341.028 149.547 340.552 149.734 340.197 150.107C339.852 150.471 339.679 150.998 339.679 151.689V156.001H338.083V148.287H339.679V149.169C339.941 148.852 340.272 148.604 340.673 148.427C341.084 148.25 341.518 148.161 341.975 148.161ZM349.037 149.589V153.859C349.037 154.148 349.102 154.358 349.233 154.489C349.373 154.61 349.606 154.671 349.933 154.671H350.913V156.001H349.653C348.934 156.001 348.384 155.833 348.001 155.497C347.618 155.161 347.427 154.615 347.427 153.859V149.589H346.517V148.287H347.427V146.369H349.037V148.287H350.913V149.589H349.037ZM359.454 151.955C359.454 152.244 359.435 152.506 359.398 152.739H353.504C353.551 153.355 353.779 153.85 354.19 154.223C354.601 154.596 355.105 154.783 355.702 154.783C356.561 154.783 357.167 154.424 357.522 153.705H359.244C359.011 154.414 358.586 154.998 357.97 155.455C357.363 155.903 356.607 156.127 355.702 156.127C354.965 156.127 354.302 155.964 353.714 155.637C353.135 155.301 352.678 154.834 352.342 154.237C352.015 153.63 351.852 152.93 351.852 152.137C351.852 151.344 352.011 150.648 352.328 150.051C352.655 149.444 353.107 148.978 353.686 148.651C354.274 148.324 354.946 148.161 355.702 148.161C356.43 148.161 357.079 148.32 357.648 148.637C358.217 148.954 358.661 149.402 358.978 149.981C359.295 150.55 359.454 151.208 359.454 151.955ZM357.788 151.451C357.779 150.863 357.569 150.392 357.158 150.037C356.747 149.682 356.239 149.505 355.632 149.505C355.081 149.505 354.61 149.682 354.218 150.037C353.826 150.382 353.593 150.854 353.518 151.451H357.788ZM357.102 146.215L354.008 147.741V146.565L357.102 144.857V146.215ZM370.363 148.161C370.969 148.161 371.511 148.287 371.987 148.539C372.472 148.791 372.85 149.164 373.121 149.659C373.401 150.154 373.541 150.751 373.541 151.451V156.001H371.959V151.689C371.959 150.998 371.786 150.471 371.441 150.107C371.095 149.734 370.624 149.547 370.027 149.547C369.429 149.547 368.953 149.734 368.599 150.107C368.253 150.471 368.081 150.998 368.081 151.689V156.001H366.499V151.689C366.499 150.998 366.326 150.471 365.981 150.107C365.635 149.734 365.164 149.547 364.567 149.547C363.969 149.547 363.493 149.734 363.139 150.107C362.793 150.471 362.621 150.998 362.621 151.689V156.001H361.025V148.287H362.621V149.169C362.882 148.852 363.213 148.604 363.615 148.427C364.016 148.25 364.445 148.161 364.903 148.161C365.519 148.161 366.069 148.292 366.555 148.553C367.04 148.814 367.413 149.192 367.675 149.687C367.908 149.22 368.272 148.852 368.767 148.581C369.261 148.301 369.793 148.161 370.363 148.161ZM378.676 152.109C378.676 151.334 378.835 150.648 379.152 150.051C379.479 149.454 379.918 148.992 380.468 148.665C381.028 148.329 381.644 148.161 382.316 148.161C382.923 148.161 383.45 148.282 383.898 148.525C384.356 148.758 384.72 149.052 384.99 149.407V148.287H386.6V156.001H384.99V154.853C384.72 155.217 384.351 155.52 383.884 155.763C383.418 156.006 382.886 156.127 382.288 156.127C381.626 156.127 381.019 155.959 380.468 155.623C379.918 155.278 379.479 154.802 379.152 154.195C378.835 153.579 378.676 152.884 378.676 152.109ZM384.99 152.137C384.99 151.605 384.878 151.143 384.654 150.751C384.44 150.359 384.155 150.06 383.8 149.855C383.446 149.65 383.063 149.547 382.652 149.547C382.242 149.547 381.859 149.65 381.504 149.855C381.15 150.051 380.86 150.345 380.636 150.737C380.422 151.12 380.314 151.577 380.314 152.109C380.314 152.641 380.422 153.108 380.636 153.509C380.86 153.91 381.15 154.218 381.504 154.433C381.868 154.638 382.251 154.741 382.652 154.741C383.063 154.741 383.446 154.638 383.8 154.433C384.155 154.228 384.44 153.929 384.654 153.537C384.878 153.136 384.99 152.669 384.99 152.137ZM396.323 148.161C396.911 148.161 397.434 148.287 397.891 148.539C398.358 148.791 398.722 149.164 398.983 149.659C399.254 150.154 399.389 150.751 399.389 151.451V156.001H397.807V151.689C397.807 150.998 397.635 150.471 397.289 150.107C396.944 149.734 396.473 149.547 395.875 149.547C395.278 149.547 394.802 149.734 394.447 150.107C394.102 150.471 393.929 150.998 393.929 151.689V156.001H392.333V145.641H393.929V149.183C394.2 148.856 394.541 148.604 394.951 148.427C395.371 148.25 395.829 148.161 396.323 148.161ZM408.411 148.287V156.001H406.815V155.091C406.563 155.408 406.232 155.66 405.821 155.847C405.42 156.024 404.99 156.113 404.533 156.113C403.926 156.113 403.38 155.987 402.895 155.735C402.419 155.483 402.041 155.11 401.761 154.615C401.49 154.12 401.355 153.523 401.355 152.823V148.287H402.937V152.585C402.937 153.276 403.11 153.808 403.455 154.181C403.8 154.545 404.272 154.727 404.869 154.727C405.466 154.727 405.938 154.545 406.283 154.181C406.638 153.808 406.815 153.276 406.815 152.585V148.287H408.411ZM419.855 148.161C420.461 148.161 421.003 148.287 421.479 148.539C421.964 148.791 422.342 149.164 422.613 149.659C422.893 150.154 423.033 150.751 423.033 151.451V156.001H421.451V151.689C421.451 150.998 421.278 150.471 420.933 150.107C420.587 149.734 420.116 149.547 419.519 149.547C418.921 149.547 418.445 149.734 418.091 150.107C417.745 150.471 417.573 150.998 417.573 151.689V156.001H415.991V151.689C415.991 150.998 415.818 150.471 415.473 150.107C415.127 149.734 414.656 149.547 414.059 149.547C413.461 149.547 412.985 149.734 412.631 150.107C412.285 150.471 412.113 150.998 412.113 151.689V156.001H410.517V148.287H412.113V149.169C412.374 148.852 412.705 148.604 413.107 148.427C413.508 148.25 413.937 148.161 414.395 148.161C415.011 148.161 415.561 148.292 416.047 148.553C416.532 148.814 416.905 149.192 417.167 149.687C417.4 149.22 417.764 148.852 418.259 148.581C418.753 148.301 419.285 148.161 419.855 148.161ZM424.532 152.109C424.532 151.334 424.69 150.648 425.008 150.051C425.334 149.454 425.773 148.992 426.324 148.665C426.884 148.329 427.5 148.161 428.172 148.161C428.778 148.161 429.306 148.282 429.754 148.525C430.211 148.758 430.575 149.052 430.846 149.407V148.287H432.456V156.001H430.846V154.853C430.575 155.217 430.206 155.52 429.74 155.763C429.273 156.006 428.741 156.127 428.144 156.127C427.481 156.127 426.874 155.959 426.324 155.623C425.773 155.278 425.334 154.802 425.008 154.195C424.69 153.579 424.532 152.884 424.532 152.109ZM430.846 152.137C430.846 151.605 430.734 151.143 430.51 150.751C430.295 150.359 430.01 150.06 429.656 149.855C429.301 149.65 428.918 149.547 428.508 149.547C428.097 149.547 427.714 149.65 427.36 149.855C427.005 150.051 426.716 150.345 426.492 150.737C426.277 151.12 426.17 151.577 426.17 152.109C426.17 152.641 426.277 153.108 426.492 153.509C426.716 153.91 427.005 154.218 427.36 154.433C427.724 154.638 428.106 154.741 428.508 154.741C428.918 154.741 429.301 154.638 429.656 154.433C430.01 154.228 430.295 153.929 430.51 153.537C430.734 153.136 430.846 152.669 430.846 152.137ZM438.444 148.161C439.051 148.161 439.592 148.287 440.068 148.539C440.553 148.791 440.931 149.164 441.202 149.659C441.473 150.154 441.608 150.751 441.608 151.451V156.001H440.026V151.689C440.026 150.998 439.853 150.471 439.508 150.107C439.163 149.734 438.691 149.547 438.094 149.547C437.497 149.547 437.021 149.734 436.666 150.107C436.321 150.471 436.148 150.998 436.148 151.689V156.001H434.552V148.287H436.148V149.169C436.409 148.852 436.741 148.604 437.142 148.427C437.553 148.25 437.987 148.161 438.444 148.161ZM444.456 147.265C444.166 147.265 443.924 147.167 443.728 146.971C443.532 146.775 443.434 146.532 443.434 146.243C443.434 145.954 443.532 145.711 443.728 145.515C443.924 145.319 444.166 145.221 444.456 145.221C444.736 145.221 444.974 145.319 445.17 145.515C445.366 145.711 445.464 145.954 445.464 146.243C445.464 146.532 445.366 146.775 445.17 146.971C444.974 147.167 444.736 147.265 444.456 147.265ZM445.24 148.287V156.001H443.644V148.287H445.24ZM446.803 152.109C446.803 151.334 446.962 150.648 447.279 150.051C447.606 149.454 448.044 148.992 448.595 148.665C449.155 148.329 449.776 148.161 450.457 148.161C450.961 148.161 451.456 148.273 451.941 148.497C452.436 148.712 452.828 149.001 453.117 149.365V145.641H454.727V156.001H453.117V154.839C452.856 155.212 452.492 155.52 452.025 155.763C451.568 156.006 451.04 156.127 450.443 156.127C449.771 156.127 449.155 155.959 448.595 155.623C448.044 155.278 447.606 154.802 447.279 154.195C446.962 153.579 446.803 152.884 446.803 152.109ZM453.117 152.137C453.117 151.605 453.005 151.143 452.781 150.751C452.566 150.359 452.282 150.06 451.927 149.855C451.572 149.65 451.19 149.547 450.779 149.547C450.368 149.547 449.986 149.65 449.631 149.855C449.276 150.051 448.987 150.345 448.763 150.737C448.548 151.12 448.441 151.577 448.441 152.109C448.441 152.641 448.548 153.108 448.763 153.509C448.987 153.91 449.276 154.218 449.631 154.433C449.995 154.638 450.378 154.741 450.779 154.741C451.19 154.741 451.572 154.638 451.927 154.433C452.282 154.228 452.566 153.929 452.781 153.537C453.005 153.136 453.117 152.669 453.117 152.137ZM456.291 152.109C456.291 151.334 456.45 150.648 456.767 150.051C457.094 149.454 457.533 148.992 458.083 148.665C458.643 148.329 459.259 148.161 459.931 148.161C460.538 148.161 461.065 148.282 461.513 148.525C461.971 148.758 462.335 149.052 462.605 149.407V148.287H464.215V156.001H462.605V154.853C462.335 155.217 461.966 155.52 461.499 155.763C461.033 156.006 460.501 156.127 459.903 156.127C459.241 156.127 458.634 155.959 458.083 155.623C457.533 155.278 457.094 154.802 456.767 154.195C456.45 153.579 456.291 152.884 456.291 152.109ZM462.605 152.137C462.605 151.605 462.493 151.143 462.269 150.751C462.055 150.359 461.77 150.06 461.415 149.855C461.061 149.65 460.678 149.547 460.267 149.547C459.857 149.547 459.474 149.65 459.119 149.855C458.765 150.051 458.475 150.345 458.251 150.737C458.037 151.12 457.929 151.577 457.929 152.109C457.929 152.641 458.037 153.108 458.251 153.509C458.475 153.91 458.765 154.218 459.119 154.433C459.483 154.638 459.866 154.741 460.267 154.741C460.678 154.741 461.061 154.638 461.415 154.433C461.77 154.228 462.055 153.929 462.269 153.537C462.493 153.136 462.605 152.669 462.605 152.137ZM465.78 152.109C465.78 151.334 465.938 150.648 466.256 150.051C466.582 149.454 467.021 148.992 467.572 148.665C468.132 148.329 468.752 148.161 469.434 148.161C469.938 148.161 470.432 148.273 470.918 148.497C471.412 148.712 471.804 149.001 472.094 149.365V145.641H473.704V156.001H472.094V154.839C471.832 155.212 471.468 155.52 471.002 155.763C470.544 156.006 470.017 156.127 469.42 156.127C468.748 156.127 468.132 155.959 467.572 155.623C467.021 155.278 466.582 154.802 466.256 154.195C465.938 153.579 465.78 152.884 465.78 152.109ZM472.094 152.137C472.094 151.605 471.982 151.143 471.758 150.751C471.543 150.359 471.258 150.06 470.904 149.855C470.549 149.65 470.166 149.547 469.756 149.547C469.345 149.547 468.962 149.65 468.608 149.855C468.253 150.051 467.964 150.345 467.74 150.737C467.525 151.12 467.418 151.577 467.418 152.109C467.418 152.641 467.525 153.108 467.74 153.509C467.964 153.91 468.253 154.218 468.608 154.433C468.972 154.638 469.354 154.741 469.756 154.741C470.166 154.741 470.549 154.638 470.904 154.433C471.258 154.228 471.543 153.929 471.758 153.537C471.982 153.136 472.094 152.669 472.094 152.137ZM482.87 151.955C482.87 152.244 482.851 152.506 482.814 152.739H476.92C476.967 153.355 477.195 153.85 477.606 154.223C478.017 154.596 478.521 154.783 479.118 154.783C479.977 154.783 480.583 154.424 480.938 153.705H482.66C482.427 154.414 482.002 154.998 481.386 155.455C480.779 155.903 480.023 156.127 479.118 156.127C478.381 156.127 477.718 155.964 477.13 155.637C476.551 155.301 476.094 154.834 475.758 154.237C475.431 153.63 475.268 152.93 475.268 152.137C475.268 151.344 475.427 150.648 475.744 150.051C476.071 149.444 476.523 148.978 477.102 148.651C477.69 148.324 478.362 148.161 479.118 148.161C479.846 148.161 480.495 148.32 481.064 148.637C481.633 148.954 482.077 149.402 482.394 149.981C482.711 150.55 482.87 151.208 482.87 151.955ZM481.204 151.451C481.195 150.863 480.985 150.392 480.574 150.037C480.163 149.682 479.655 149.505 479.048 149.505C478.497 149.505 478.026 149.682 477.634 150.037C477.242 150.382 477.009 150.854 476.934 151.451H481.204ZM54.12 172.955C54.12 173.244 54.1013 173.506 54.064 173.739H48.17C48.2167 174.355 48.4453 174.85 48.856 175.223C49.2667 175.596 49.7707 175.783 50.368 175.783C51.2267 175.783 51.8333 175.424 52.188 174.705H53.91C53.6767 175.414 53.252 175.998 52.636 176.455C52.0293 176.903 51.2733 177.127 50.368 177.127C49.6307 177.127 48.968 176.964 48.38 176.637C47.8013 176.301 47.344 175.834 47.008 175.237C46.6813 174.63 46.518 173.93 46.518 173.137C46.518 172.344 46.6767 171.648 46.994 171.051C47.3207 170.444 47.7733 169.978 48.352 169.651C48.94 169.324 49.612 169.161 50.368 169.161C51.096 169.161 51.7447 169.32 52.314 169.637C52.8833 169.954 53.3267 170.402 53.644 170.981C53.9613 171.55 54.12 172.208 54.12 172.955ZM52.454 172.451C52.4447 171.863 52.2347 171.392 51.824 171.037C51.4133 170.682 50.9047 170.505 50.298 170.505C49.7473 170.505 49.276 170.682 48.884 171.037C48.492 171.382 48.2587 171.854 48.184 172.451H52.454ZM65.0286 169.161C65.6353 169.161 66.1766 169.287 66.6526 169.539C67.138 169.791 67.516 170.164 67.7866 170.659C68.0666 171.154 68.2066 171.751 68.2066 172.451V177.001H66.6246V172.689C66.6246 171.998 66.452 171.471 66.1066 171.107C65.7613 170.734 65.29 170.547 64.6926 170.547C64.0953 170.547 63.6193 170.734 63.2646 171.107C62.9193 171.471 62.7466 171.998 62.7466 172.689V177.001H61.1646V172.689C61.1646 171.998 60.992 171.471 60.6466 171.107C60.3013 170.734 59.83 170.547 59.2326 170.547C58.6353 170.547 58.1593 170.734 57.8046 171.107C57.4593 171.471 57.2866 171.998 57.2866 172.689V177.001H55.6906V169.287H57.2866V170.169C57.548 169.852 57.8793 169.604 58.2806 169.427C58.682 169.25 59.1113 169.161 59.5686 169.161C60.1846 169.161 60.7353 169.292 61.2206 169.553C61.706 169.814 62.0793 170.192 62.3406 170.687C62.574 170.22 62.938 169.852 63.4326 169.581C63.9273 169.301 64.4593 169.161 65.0286 169.161ZM83.2122 169.161C83.8189 169.161 84.3602 169.287 84.8362 169.539C85.3216 169.791 85.6996 170.164 85.9702 170.659C86.2502 171.154 86.3902 171.751 86.3902 172.451V177.001H84.8082V172.689C84.8082 171.998 84.6356 171.471 84.2902 171.107C83.9449 170.734 83.4736 170.547 82.8762 170.547C82.2789 170.547 81.8029 170.734 81.4482 171.107C81.1029 171.471 80.9302 171.998 80.9302 172.689V177.001H79.3482V172.689C79.3482 171.998 79.1756 171.471 78.8302 171.107C78.4849 170.734 78.0136 170.547 77.4162 170.547C76.8189 170.547 76.3429 170.734 75.9882 171.107C75.6429 171.471 75.4702 171.998 75.4702 172.689V177.001H73.8742V169.287H75.4702V170.169C75.7316 169.852 76.0629 169.604 76.4642 169.427C76.8656 169.25 77.2949 169.161 77.7522 169.161C78.3682 169.161 78.9189 169.292 79.4042 169.553C79.8896 169.814 80.2629 170.192 80.5242 170.687C80.7576 170.22 81.1216 169.852 81.6162 169.581C82.1109 169.301 82.6429 169.161 83.2122 169.161ZM91.7671 177.127C91.0391 177.127 90.3811 176.964 89.7931 176.637C89.2051 176.301 88.7431 175.834 88.4071 175.237C88.0711 174.63 87.9031 173.93 87.9031 173.137C87.9031 172.353 88.0758 171.658 88.4211 171.051C88.7664 170.444 89.2378 169.978 89.8351 169.651C90.4324 169.324 91.0998 169.161 91.8371 169.161C92.5744 169.161 93.2418 169.324 93.8391 169.651C94.4364 169.978 94.9078 170.444 95.2531 171.051C95.5984 171.658 95.7711 172.353 95.7711 173.137C95.7711 173.921 95.5938 174.616 95.2391 175.223C94.8844 175.83 94.3991 176.301 93.7831 176.637C93.1764 176.964 92.5044 177.127 91.7671 177.127ZM91.7671 175.741C92.1778 175.741 92.5604 175.643 92.9151 175.447C93.2791 175.251 93.5731 174.957 93.7971 174.565C94.0211 174.173 94.1331 173.697 94.1331 173.137C94.1331 172.577 94.0258 172.106 93.8111 171.723C93.5964 171.331 93.3118 171.037 92.9571 170.841C92.6024 170.645 92.2198 170.547 91.8091 170.547C91.3984 170.547 91.0158 170.645 90.6611 170.841C90.3158 171.037 90.0404 171.331 89.8351 171.723C89.6298 172.106 89.5271 172.577 89.5271 173.137C89.5271 173.968 89.7371 174.612 90.1571 175.069C90.5864 175.517 91.1231 175.741 91.7671 175.741ZM100.331 175.573L102.515 169.287H104.209L101.269 177.001H99.3648L96.4388 169.287H98.1468L100.331 175.573ZM106.227 168.265C105.938 168.265 105.695 168.167 105.499 167.971C105.303 167.775 105.205 167.532 105.205 167.243C105.205 166.954 105.303 166.711 105.499 166.515C105.695 166.319 105.938 166.221 106.227 166.221C106.507 166.221 106.745 166.319 106.941 166.515C107.137 166.711 107.235 166.954 107.235 167.243C107.235 167.532 107.137 167.775 106.941 167.971C106.745 168.167 106.507 168.265 106.227 168.265ZM107.011 169.287V177.001H105.415V169.287H107.011ZM118.445 169.161C119.051 169.161 119.593 169.287 120.069 169.539C120.554 169.791 120.932 170.164 121.203 170.659C121.483 171.154 121.623 171.751 121.623 172.451V177.001H120.041V172.689C120.041 171.998 119.868 171.471 119.523 171.107C119.177 170.734 118.706 170.547 118.109 170.547C117.511 170.547 117.035 170.734 116.681 171.107C116.335 171.471 116.163 171.998 116.163 172.689V177.001H114.581V172.689C114.581 171.998 114.408 171.471 114.063 171.107C113.717 170.734 113.246 170.547 112.649 170.547C112.051 170.547 111.575 170.734 111.221 171.107C110.875 171.471 110.703 171.998 110.703 172.689V177.001H109.107V169.287H110.703V170.169C110.964 169.852 111.295 169.604 111.697 169.427C112.098 169.25 112.527 169.161 112.985 169.161C113.601 169.161 114.151 169.292 114.637 169.553C115.122 169.814 115.495 170.192 115.757 170.687C115.99 170.22 116.354 169.852 116.849 169.581C117.343 169.301 117.875 169.161 118.445 169.161ZM130.724 172.955C130.724 173.244 130.705 173.506 130.668 173.739H124.774C124.82 174.355 125.049 174.85 125.46 175.223C125.87 175.596 126.374 175.783 126.972 175.783C127.83 175.783 128.437 175.424 128.792 174.705H130.514C130.28 175.414 129.856 175.998 129.24 176.455C128.633 176.903 127.877 177.127 126.972 177.127C126.234 177.127 125.572 176.964 124.984 176.637C124.405 176.301 123.948 175.834 123.612 175.237C123.285 174.63 123.122 173.93 123.122 173.137C123.122 172.344 123.28 171.648 123.598 171.051C123.924 170.444 124.377 169.978 124.956 169.651C125.544 169.324 126.216 169.161 126.972 169.161C127.7 169.161 128.348 169.32 128.918 169.637C129.487 169.954 129.93 170.402 130.248 170.981C130.565 171.55 130.724 172.208 130.724 172.955ZM129.058 172.451C129.048 171.863 128.838 171.392 128.428 171.037C128.017 170.682 127.508 170.505 126.902 170.505C126.351 170.505 125.88 170.682 125.488 171.037C125.096 171.382 124.862 171.854 124.788 172.451H129.058ZM136.186 169.161C136.793 169.161 137.334 169.287 137.81 169.539C138.295 169.791 138.673 170.164 138.944 170.659C139.215 171.154 139.35 171.751 139.35 172.451V177.001H137.768V172.689C137.768 171.998 137.595 171.471 137.25 171.107C136.905 170.734 136.433 170.547 135.836 170.547C135.239 170.547 134.763 170.734 134.408 171.107C134.063 171.471 133.89 171.998 133.89 172.689V177.001H132.294V169.287H133.89V170.169C134.151 169.852 134.483 169.604 134.884 169.427C135.295 169.25 135.729 169.161 136.186 169.161ZM143.248 170.589V174.859C143.248 175.148 143.313 175.358 143.444 175.489C143.584 175.61 143.817 175.671 144.144 175.671H145.124V177.001H143.864C143.145 177.001 142.595 176.833 142.212 176.497C141.829 176.161 141.638 175.615 141.638 174.859V170.589H140.728V169.287H141.638V167.369H143.248V169.287H145.124V170.589H143.248ZM149.941 177.127C149.213 177.127 148.555 176.964 147.967 176.637C147.379 176.301 146.917 175.834 146.581 175.237C146.245 174.63 146.077 173.93 146.077 173.137C146.077 172.353 146.25 171.658 146.595 171.051C146.94 170.444 147.412 169.978 148.009 169.651C148.606 169.324 149.274 169.161 150.011 169.161C150.748 169.161 151.416 169.324 152.013 169.651C152.61 169.978 153.082 170.444 153.427 171.051C153.772 171.658 153.945 172.353 153.945 173.137C153.945 173.921 153.768 174.616 153.413 175.223C153.058 175.83 152.573 176.301 151.957 176.637C151.35 176.964 150.678 177.127 149.941 177.127ZM149.941 175.741C150.352 175.741 150.734 175.643 151.089 175.447C151.453 175.251 151.747 174.957 151.971 174.565C152.195 174.173 152.307 173.697 152.307 173.137C152.307 172.577 152.2 172.106 151.985 171.723C151.77 171.331 151.486 171.037 151.131 170.841C150.776 170.645 150.394 170.547 149.983 170.547C149.572 170.547 149.19 170.645 148.835 170.841C148.49 171.037 148.214 171.331 148.009 171.723C147.804 172.106 147.701 172.577 147.701 173.137C147.701 173.968 147.911 174.612 148.331 175.069C148.76 175.517 149.297 175.741 149.941 175.741ZM156.167 177.099C155.877 177.099 155.635 177.001 155.439 176.805C155.243 176.609 155.145 176.366 155.145 176.077C155.145 175.788 155.243 175.545 155.439 175.349C155.635 175.153 155.877 175.055 156.167 175.055C156.447 175.055 156.685 175.153 156.881 175.349C157.077 175.545 157.175 175.788 157.175 176.077C157.175 176.366 157.077 176.609 156.881 176.805C156.685 177.001 156.447 177.099 156.167 177.099Z" fill="#0076AC"/>
<path d="M55.54 80.661V84.001H46.78V71.461H55.36V74.721H50.48V76.141H54.62V79.181H50.48V80.661H55.54ZM60.2605 84.001H56.6605V74.121H59.7605L59.9005 75.161H59.9805C60.3805 74.7343 60.8205 74.421 61.3005 74.221C61.7805 74.021 62.3471 73.921 63.0005 73.921C64.0405 73.921 64.8271 74.1943 65.3605 74.741C65.8938 75.2876 66.1605 76.0943 66.1605 77.161V84.001H62.5605V77.901C62.5605 77.661 62.4738 77.481 62.3005 77.361C62.1405 77.2276 61.8938 77.161 61.5605 77.161C61.3338 77.161 61.1138 77.1876 60.9005 77.241C60.6871 77.281 60.4738 77.3476 60.2605 77.441V84.001ZM72.0808 87.241C71.3608 87.241 70.6674 87.1943 70.0008 87.101C69.3341 87.0076 68.7941 86.8876 68.3808 86.741V83.801C68.7141 83.881 69.2074 83.9476 69.8608 84.001C70.5274 84.0676 71.1808 84.101 71.8208 84.101C72.4074 84.101 72.8074 84.0276 73.0208 83.881C73.2341 83.721 73.3541 83.441 73.3808 83.041V82.501C72.9141 82.7143 72.4474 82.881 71.9808 83.001C71.5274 83.1076 71.0874 83.161 70.6608 83.161C69.3941 83.161 68.5008 82.821 67.9808 82.141C67.4608 81.4476 67.2008 80.2743 67.2008 78.621C67.2008 76.941 67.5874 75.741 68.3608 75.021C69.1474 74.2876 70.4341 73.921 72.2208 73.921C72.9541 73.921 73.8141 73.961 74.8008 74.041C75.8008 74.121 76.5274 74.2076 76.9808 74.301V81.881C76.9808 83.8676 76.6208 85.2543 75.9008 86.041C75.1808 86.841 73.9074 87.241 72.0808 87.241ZM72.1408 77.121C71.5274 77.121 71.1408 77.201 70.9808 77.361C70.8208 77.521 70.7408 77.9343 70.7408 78.601C70.7408 79.2143 70.8074 79.601 70.9408 79.761C71.0874 79.921 71.4074 80.001 71.9008 80.001C72.1141 80.001 72.3474 79.981 72.6008 79.941C72.8541 79.8876 73.1141 79.8143 73.3808 79.721V77.201C73.1274 77.1743 72.9008 77.1543 72.7008 77.141C72.5141 77.1276 72.3274 77.121 72.1408 77.121ZM81.9206 84.001H78.3206V74.121H81.6806L81.8006 74.881H81.8406C82.254 74.5743 82.6606 74.341 83.0606 74.181C83.474 74.021 83.874 73.941 84.2606 73.941H84.6006V77.421C84.294 77.3943 84.0873 77.381 83.9806 77.381C83.8873 77.3676 83.7873 77.361 83.6806 77.361C83.3473 77.361 83.034 77.381 82.7406 77.421C82.4473 77.461 82.174 77.521 81.9206 77.601V84.001ZM93.7914 80.781V83.521C93.4181 83.7076 92.8381 83.8676 92.0514 84.001C91.2781 84.1476 90.4714 84.221 89.6314 84.221C88.0181 84.221 86.8514 83.821 86.1314 83.021C85.4247 82.2076 85.0714 80.8943 85.0714 79.081C85.0714 77.3076 85.4514 76.0076 86.2114 75.181C86.9847 74.341 88.1847 73.921 89.8114 73.921C91.3847 73.921 92.5114 74.2343 93.1914 74.861C93.8714 75.4743 94.2114 76.5276 94.2114 78.021C94.2114 78.4743 94.2047 78.841 94.1914 79.121C94.1781 79.3876 94.1514 79.6943 94.1114 80.041H88.6314C88.6447 80.4676 88.7647 80.761 88.9914 80.921C89.2181 81.0676 89.6247 81.141 90.2114 81.141C90.8514 81.141 91.5047 81.1076 92.1714 81.041C92.8514 80.961 93.3914 80.8743 93.7914 80.781ZM89.8514 76.761C89.3981 76.761 89.0781 76.8543 88.8914 77.041C88.7181 77.2143 88.6314 77.5676 88.6314 78.101H91.0114V77.641C90.9847 77.2943 90.8914 77.061 90.7314 76.941C90.5847 76.821 90.2914 76.761 89.8514 76.761ZM98.8933 84.001H95.2933V74.121H98.3933L98.5333 75.161H98.6133C99.0133 74.7343 99.4533 74.421 99.9333 74.221C100.413 74.021 100.98 73.921 101.633 73.921C102.673 73.921 103.46 74.1943 103.993 74.741C104.527 75.2876 104.793 76.0943 104.793 77.161V84.001H101.193V77.901C101.193 77.661 101.107 77.481 100.933 77.361C100.773 77.2276 100.527 77.161 100.193 77.161C99.9666 77.161 99.7466 77.1876 99.5333 77.241C99.3199 77.281 99.1066 77.3476 98.8933 77.441V84.001ZM108.454 84.221C107.494 84.221 106.794 83.9676 106.354 83.461C105.914 82.9543 105.694 82.161 105.694 81.081C105.694 80.0143 105.967 79.2543 106.514 78.801C107.074 78.3476 108 78.121 109.294 78.121C109.6 78.121 109.907 78.1343 110.214 78.161C110.534 78.1876 110.814 78.221 111.054 78.261V77.761C111.054 77.4943 110.927 77.3076 110.674 77.201C110.42 77.081 110.007 77.021 109.434 77.021C108.887 77.021 108.387 77.0343 107.934 77.061C107.494 77.0876 107.047 77.141 106.594 77.221V74.281C107.087 74.161 107.68 74.0743 108.374 74.021C109.08 73.9543 109.887 73.921 110.794 73.921C112.047 73.921 113 74.201 113.654 74.761C114.32 75.3076 114.654 76.1143 114.654 77.181V84.001H111.254L111.154 83.221H111.094C110.694 83.5543 110.267 83.8076 109.814 83.981C109.374 84.141 108.92 84.221 108.454 84.221ZM109.874 80.161C109.527 80.161 109.28 80.2143 109.134 80.321C109 80.4143 108.934 80.5943 108.934 80.861C108.934 81.1276 108.987 81.3143 109.094 81.421C109.214 81.5143 109.414 81.561 109.694 81.561C109.92 81.561 110.154 81.541 110.394 81.501C110.647 81.4476 110.867 81.381 111.054 81.301V80.241C110.867 80.2143 110.674 80.1943 110.474 80.181C110.287 80.1676 110.087 80.161 109.874 80.161ZM120.557 87.241C119.837 87.241 119.144 87.1943 118.477 87.101C117.811 87.0076 117.271 86.8876 116.857 86.741V83.801C117.191 83.881 117.684 83.9476 118.337 84.001C119.004 84.0676 119.657 84.101 120.297 84.101C120.884 84.101 121.284 84.0276 121.497 83.881C121.711 83.721 121.831 83.441 121.857 83.041V82.501C121.391 82.7143 120.924 82.881 120.457 83.001C120.004 83.1076 119.564 83.161 119.137 83.161C117.871 83.161 116.977 82.821 116.457 82.141C115.937 81.4476 115.677 80.2743 115.677 78.621C115.677 76.941 116.064 75.741 116.837 75.021C117.624 74.2876 118.911 73.921 120.697 73.921C121.431 73.921 122.291 73.961 123.277 74.041C124.277 74.121 125.004 74.2076 125.457 74.301V81.881C125.457 83.8676 125.097 85.2543 124.377 86.041C123.657 86.841 122.384 87.241 120.557 87.241ZM120.617 77.121C120.004 77.121 119.617 77.201 119.457 77.361C119.297 77.521 119.217 77.9343 119.217 78.601C119.217 79.2143 119.284 79.601 119.417 79.761C119.564 79.921 119.884 80.001 120.377 80.001C120.591 80.001 120.824 79.981 121.077 79.941C121.331 79.8876 121.591 79.8143 121.857 79.721V77.201C121.604 77.1743 121.377 77.1543 121.177 77.141C120.991 77.1276 120.804 77.121 120.617 77.121ZM135.217 80.781V83.521C134.844 83.7076 134.264 83.8676 133.477 84.001C132.704 84.1476 131.897 84.221 131.057 84.221C129.444 84.221 128.277 83.821 127.557 83.021C126.851 82.2076 126.497 80.8943 126.497 79.081C126.497 77.3076 126.877 76.0076 127.637 75.181C128.411 74.341 129.611 73.921 131.237 73.921C132.811 73.921 133.937 74.2343 134.617 74.861C135.297 75.4743 135.637 76.5276 135.637 78.021C135.637 78.4743 135.631 78.841 135.617 79.121C135.604 79.3876 135.577 79.6943 135.537 80.041H130.057C130.071 80.4676 130.191 80.761 130.417 80.921C130.644 81.0676 131.051 81.141 131.637 81.141C132.277 81.141 132.931 81.1076 133.597 81.041C134.277 80.961 134.817 80.8743 135.217 80.781ZM131.277 76.761C130.824 76.761 130.504 76.8543 130.317 77.041C130.144 77.2143 130.057 77.5676 130.057 78.101H132.437V77.641C132.411 77.2943 132.317 77.061 132.157 76.941C132.011 76.821 131.717 76.761 131.277 76.761ZM140.319 84.001H136.719V74.121H139.939L140.079 74.961H140.159C140.532 74.6276 140.952 74.3743 141.419 74.201C141.899 74.0143 142.386 73.921 142.879 73.921C143.426 73.921 143.892 74.0076 144.279 74.181C144.666 74.3543 144.972 74.6143 145.199 74.961H145.279C145.666 74.641 146.119 74.3876 146.639 74.201C147.172 74.0143 147.719 73.921 148.279 73.921C149.226 73.921 149.932 74.1943 150.399 74.741C150.879 75.2743 151.119 76.081 151.119 77.161V84.001H147.519V77.841C147.519 77.601 147.452 77.4276 147.319 77.321C147.199 77.2143 146.999 77.161 146.719 77.161C146.559 77.161 146.392 77.181 146.219 77.221C146.046 77.2476 145.879 77.2876 145.719 77.341V84.001H142.119V77.841C142.119 77.601 142.052 77.4276 141.919 77.321C141.786 77.2143 141.579 77.161 141.299 77.161C141.139 77.161 140.972 77.181 140.799 77.221C140.639 77.2476 140.479 77.2876 140.319 77.341V84.001ZM160.096 79.441L157.756 78.941C156.729 78.7143 156.009 78.3343 155.596 77.801C155.196 77.2676 154.996 76.5143 154.996 75.541C154.996 74.0743 155.382 72.9943 156.156 72.301C156.929 71.6076 158.149 71.261 159.816 71.261C160.536 71.261 161.182 71.2943 161.756 71.361C162.329 71.4143 162.822 71.501 163.236 71.621V74.921C162.289 74.761 161.596 74.6676 161.156 74.641C160.716 74.601 160.262 74.581 159.796 74.581C159.356 74.581 159.036 74.641 158.836 74.761C158.649 74.881 158.556 75.081 158.556 75.361C158.556 75.5076 158.589 75.621 158.656 75.701C158.736 75.781 158.869 75.841 159.056 75.881L161.236 76.361C161.916 76.5076 162.422 76.6676 162.756 76.841C163.089 77.001 163.356 77.201 163.556 77.441C163.782 77.7076 163.942 78.0476 164.036 78.461C164.142 78.8743 164.196 79.3743 164.196 79.961C164.196 81.4543 163.796 82.541 162.996 83.221C162.196 83.8876 160.962 84.221 159.296 84.221C158.442 84.221 157.616 84.1743 156.816 84.081C156.029 83.9876 155.442 83.8676 155.056 83.721V80.221C155.562 80.381 156.202 80.5143 156.976 80.621C157.762 80.7276 158.542 80.781 159.316 80.781C159.782 80.781 160.109 80.7276 160.296 80.621C160.482 80.5143 160.576 80.321 160.576 80.041C160.576 79.8543 160.542 79.721 160.476 79.641C160.422 79.561 160.296 79.4943 160.096 79.441ZM174.877 79.061C174.877 80.9143 174.49 82.241 173.717 83.041C172.943 83.8276 171.657 84.221 169.857 84.221C168.083 84.221 166.803 83.821 166.017 83.021C165.243 82.2076 164.857 80.8876 164.857 79.061C164.857 77.221 165.237 75.9076 165.997 75.121C166.77 74.321 168.057 73.921 169.857 73.921C171.643 73.921 172.923 74.321 173.697 75.121C174.483 75.921 174.877 77.2343 174.877 79.061ZM168.457 79.021C168.457 79.7943 168.543 80.301 168.717 80.541C168.89 80.7676 169.27 80.881 169.857 80.881C170.457 80.881 170.843 80.7676 171.017 80.541C171.19 80.301 171.277 79.7943 171.277 79.021C171.277 78.2476 171.19 77.7476 171.017 77.521C170.843 77.281 170.457 77.161 169.857 77.161C169.27 77.161 168.89 77.281 168.717 77.521C168.543 77.7476 168.457 78.2476 168.457 79.021ZM179.538 70.701V84.001H175.938V70.701H179.538ZM184.519 73.301H180.819V70.701H184.519V73.301ZM184.479 84.001H180.879V74.121H184.479V84.001ZM191.741 70.701H195.341V84.001H192.141L191.961 83.081H191.861C191.514 83.4676 191.107 83.7543 190.641 83.941C190.174 84.1276 189.647 84.221 189.061 84.221C187.794 84.221 186.887 83.8276 186.341 83.041C185.794 82.241 185.521 80.9143 185.521 79.061C185.521 77.2743 185.861 75.9743 186.541 75.161C187.234 74.3343 188.334 73.921 189.841 73.921C190.187 73.921 190.521 73.941 190.841 73.981C191.161 74.021 191.461 74.081 191.741 74.161V70.701ZM190.521 77.161C189.934 77.161 189.554 77.2876 189.381 77.541C189.207 77.7943 189.121 78.301 189.121 79.061C189.121 79.7943 189.201 80.281 189.361 80.521C189.521 80.761 189.867 80.881 190.401 80.881C190.654 80.881 190.887 80.861 191.101 80.821C191.327 80.7676 191.541 80.6943 191.741 80.601V77.321C191.594 77.2676 191.414 77.2276 191.201 77.201C191.001 77.1743 190.774 77.161 190.521 77.161ZM199.04 84.221C198.08 84.221 197.38 83.9676 196.94 83.461C196.5 82.9543 196.28 82.161 196.28 81.081C196.28 80.0143 196.553 79.2543 197.1 78.801C197.66 78.3476 198.586 78.121 199.88 78.121C200.186 78.121 200.493 78.1343 200.8 78.161C201.12 78.1876 201.4 78.221 201.64 78.261V77.761C201.64 77.4943 201.513 77.3076 201.26 77.201C201.006 77.081 200.593 77.021 200.02 77.021C199.473 77.021 198.973 77.0343 198.52 77.061C198.08 77.0876 197.633 77.141 197.18 77.221V74.281C197.673 74.161 198.266 74.0743 198.96 74.021C199.666 73.9543 200.473 73.921 201.38 73.921C202.633 73.921 203.586 74.201 204.24 74.761C204.906 75.3076 205.24 76.1143 205.24 77.181V84.001H201.84L201.74 83.221H201.68C201.28 83.5543 200.853 83.8076 200.4 83.981C199.96 84.141 199.506 84.221 199.04 84.221ZM200.46 80.161C200.113 80.161 199.866 80.2143 199.72 80.321C199.586 80.4143 199.52 80.5943 199.52 80.861C199.52 81.1276 199.573 81.3143 199.68 81.421C199.8 81.5143 200 81.561 200.28 81.561C200.506 81.561 200.74 81.541 200.98 81.501C201.233 81.4476 201.453 81.381 201.64 81.301V80.241C201.453 80.2143 201.26 80.1943 201.06 80.181C200.873 80.1676 200.673 80.161 200.46 80.161ZM201.12 70.441H204.84L201.74 73.161H199L201.12 70.441ZM210.143 84.001H206.543V74.121H209.903L210.023 74.881H210.063C210.477 74.5743 210.883 74.341 211.283 74.181C211.697 74.021 212.097 73.941 212.483 73.941H212.823V77.421C212.517 77.3943 212.31 77.381 212.203 77.381C212.11 77.3676 212.01 77.361 211.903 77.361C211.57 77.361 211.257 77.381 210.963 77.421C210.67 77.461 210.397 77.521 210.143 77.601V84.001ZM217.371 73.301H213.671V70.701H217.371V73.301ZM217.331 84.001H213.731V74.121H217.331V84.001ZM221.012 84.221C220.052 84.221 219.352 83.9676 218.912 83.461C218.472 82.9543 218.252 82.161 218.252 81.081C218.252 80.0143 218.526 79.2543 219.072 78.801C219.632 78.3476 220.559 78.121 221.852 78.121C222.159 78.121 222.466 78.1343 222.772 78.161C223.092 78.1876 223.372 78.221 223.612 78.261V77.761C223.612 77.4943 223.486 77.3076 223.232 77.201C222.979 77.081 222.566 77.021 221.992 77.021C221.446 77.021 220.946 77.0343 220.492 77.061C220.052 77.0876 219.606 77.141 219.152 77.221V74.281C219.646 74.161 220.239 74.0743 220.932 74.021C221.639 73.9543 222.446 73.921 223.352 73.921C224.606 73.921 225.559 74.201 226.212 74.761C226.879 75.3076 227.212 76.1143 227.212 77.181V84.001H223.812L223.712 83.221H223.652C223.252 83.5543 222.826 83.8076 222.372 83.981C221.932 84.141 221.479 84.221 221.012 84.221ZM222.432 80.161C222.086 80.161 221.839 80.2143 221.692 80.321C221.559 80.4143 221.492 80.5943 221.492 80.861C221.492 81.1276 221.546 81.3143 221.652 81.421C221.772 81.5143 221.972 81.561 222.252 81.561C222.479 81.561 222.712 81.541 222.952 81.501C223.206 81.4476 223.426 81.381 223.612 81.301V80.241C223.426 80.2143 223.232 80.1943 223.032 80.181C222.846 80.1676 222.646 80.161 222.432 80.161Z" fill="#0076AC"/>
<path d="M81.358 113.337C81.358 113.906 81.2273 114.429 80.966 114.905C80.7047 115.372 80.3033 115.75 79.762 116.039C79.2207 116.328 78.5487 116.473 77.746 116.473H76.262V120.001H73.868V110.173H77.746C78.53 110.173 79.1927 110.308 79.734 110.579C80.2753 110.85 80.6813 111.223 80.952 111.699C81.2227 112.175 81.358 112.721 81.358 113.337ZM77.564 114.569C78.0213 114.569 78.362 114.462 78.586 114.247C78.81 114.032 78.922 113.729 78.922 113.337C78.922 112.945 78.81 112.642 78.586 112.427C78.362 112.212 78.0213 112.105 77.564 112.105H76.262V114.569H77.564ZM84.9983 112.091V114.079H88.2043V115.927H84.9983V118.083H88.6243V120.001H82.6043V110.173H88.6243V112.091H84.9983ZM95.1905 120.001L93.1465 116.291H92.5725V120.001H90.1785V110.173H94.1965C94.9712 110.173 95.6292 110.308 96.1705 110.579C96.7212 110.85 97.1319 111.223 97.4025 111.699C97.6732 112.166 97.8085 112.688 97.8085 113.267C97.8085 113.92 97.6219 114.504 97.2485 115.017C96.8845 115.53 96.3432 115.894 95.6245 116.109L97.8925 120.001H95.1905ZM92.5725 114.597H94.0565C94.4952 114.597 94.8219 114.49 95.0365 114.275C95.2605 114.06 95.3725 113.757 95.3725 113.365C95.3725 112.992 95.2605 112.698 95.0365 112.483C94.8219 112.268 94.4952 112.161 94.0565 112.161H92.5725V114.597ZM102.867 120.099C102.149 120.099 101.505 119.982 100.935 119.749C100.366 119.516 99.9087 119.17 99.5634 118.713C99.2274 118.256 99.05 117.705 99.0314 117.061H101.579C101.617 117.425 101.743 117.705 101.957 117.901C102.172 118.088 102.452 118.181 102.797 118.181C103.152 118.181 103.432 118.102 103.637 117.943C103.843 117.775 103.945 117.546 103.945 117.257C103.945 117.014 103.861 116.814 103.693 116.655C103.535 116.496 103.334 116.366 103.091 116.263C102.858 116.16 102.522 116.044 102.083 115.913C101.449 115.717 100.931 115.521 100.529 115.325C100.128 115.129 99.7827 114.84 99.4934 114.457C99.204 114.074 99.0594 113.575 99.0594 112.959C99.0594 112.044 99.3907 111.33 100.053 110.817C100.716 110.294 101.579 110.033 102.643 110.033C103.726 110.033 104.599 110.294 105.261 110.817C105.924 111.33 106.279 112.049 106.325 112.973H103.735C103.717 112.656 103.6 112.408 103.385 112.231C103.171 112.044 102.895 111.951 102.559 111.951C102.27 111.951 102.037 112.03 101.859 112.189C101.682 112.338 101.593 112.558 101.593 112.847C101.593 113.164 101.743 113.412 102.041 113.589C102.34 113.766 102.807 113.958 103.441 114.163C104.076 114.378 104.589 114.583 104.981 114.779C105.383 114.975 105.728 115.26 106.017 115.633C106.307 116.006 106.451 116.487 106.451 117.075C106.451 117.635 106.307 118.144 106.017 118.601C105.737 119.058 105.327 119.422 104.785 119.693C104.244 119.964 103.605 120.099 102.867 120.099ZM112.573 120.099C111.649 120.099 110.799 119.884 110.025 119.455C109.259 119.026 108.648 118.428 108.191 117.663C107.743 116.888 107.519 116.02 107.519 115.059C107.519 114.098 107.743 113.234 108.191 112.469C108.648 111.704 109.259 111.106 110.025 110.677C110.799 110.248 111.649 110.033 112.573 110.033C113.497 110.033 114.341 110.248 115.107 110.677C115.881 111.106 116.488 111.704 116.927 112.469C117.375 113.234 117.599 114.098 117.599 115.059C117.599 116.02 117.375 116.888 116.927 117.663C116.479 118.428 115.872 119.026 115.107 119.455C114.341 119.884 113.497 120.099 112.573 120.099ZM112.573 117.915C113.357 117.915 113.982 117.654 114.449 117.131C114.925 116.608 115.163 115.918 115.163 115.059C115.163 114.191 114.925 113.5 114.449 112.987C113.982 112.464 113.357 112.203 112.573 112.203C111.779 112.203 111.145 112.46 110.669 112.973C110.202 113.486 109.969 114.182 109.969 115.059C109.969 115.927 110.202 116.622 110.669 117.145C111.145 117.658 111.779 117.915 112.573 117.915ZM127.723 120.001H125.329L121.325 113.939V120.001H118.931V110.173H121.325L125.329 116.263V110.173H127.723V120.001ZM135.576 118.265H131.908L131.32 120.001H128.814L132.37 110.173H135.142L138.698 120.001H136.164L135.576 118.265ZM134.96 116.417L133.742 112.819L132.538 116.417H134.96ZM142.174 118.153H145.31V120.001H139.78V110.173H142.174V118.153ZM148.846 110.173V120.001H146.452V110.173H148.846ZM153.129 118.041H157.357V120.001H150.413V118.181L154.613 112.133H150.413V110.173H157.357V111.993L153.129 118.041ZM161.315 112.091V114.079H164.521V115.927H161.315V118.083H164.941V120.001H158.921V110.173H164.941V112.091H161.315ZM173.018 120.099C172.299 120.099 171.655 119.982 171.086 119.749C170.516 119.516 170.059 119.17 169.714 118.713C169.378 118.256 169.2 117.705 169.182 117.061H171.73C171.767 117.425 171.893 117.705 172.108 117.901C172.322 118.088 172.602 118.181 172.948 118.181C173.302 118.181 173.582 118.102 173.788 117.943C173.993 117.775 174.096 117.546 174.096 117.257C174.096 117.014 174.012 116.814 173.844 116.655C173.685 116.496 173.484 116.366 173.242 116.263C173.008 116.16 172.672 116.044 172.234 115.913C171.599 115.717 171.081 115.521 170.68 115.325C170.278 115.129 169.933 114.84 169.644 114.457C169.354 114.074 169.21 113.575 169.21 112.959C169.21 112.044 169.541 111.33 170.204 110.817C170.866 110.294 171.73 110.033 172.794 110.033C173.876 110.033 174.749 110.294 175.412 110.817C176.074 111.33 176.429 112.049 176.476 112.973H173.886C173.867 112.656 173.75 112.408 173.536 112.231C173.321 112.044 173.046 111.951 172.71 111.951C172.42 111.951 172.187 112.03 172.01 112.189C171.832 112.338 171.744 112.558 171.744 112.847C171.744 113.164 171.893 113.412 172.192 113.589C172.49 113.766 172.957 113.958 173.592 114.163C174.226 114.378 174.74 114.583 175.132 114.779C175.533 114.975 175.878 115.26 176.168 115.633C176.457 116.006 176.602 116.487 176.602 117.075C176.602 117.635 176.457 118.144 176.168 118.601C175.888 119.058 175.477 119.422 174.936 119.693C174.394 119.964 173.755 120.099 173.018 120.099ZM180.469 112.091V114.079H183.675V115.927H180.469V118.083H184.095V120.001H178.075V110.173H184.095V112.091H180.469ZM188.001 110.173V116.053C188.001 116.641 188.146 117.094 188.435 117.411C188.725 117.728 189.149 117.887 189.709 117.887C190.269 117.887 190.699 117.728 190.997 117.411C191.296 117.094 191.445 116.641 191.445 116.053V110.173H193.839V116.039C193.839 116.916 193.653 117.658 193.279 118.265C192.906 118.872 192.402 119.329 191.767 119.637C191.142 119.945 190.442 120.099 189.667 120.099C188.893 120.099 188.197 119.95 187.581 119.651C186.975 119.343 186.494 118.886 186.139 118.279C185.785 117.663 185.607 116.916 185.607 116.039V110.173H188.001ZM205.977 113.337C205.977 113.906 205.846 114.429 205.585 114.905C205.324 115.372 204.922 115.75 204.381 116.039C203.84 116.328 203.168 116.473 202.365 116.473H200.881V120.001H198.487V110.173H202.365C203.149 110.173 203.812 110.308 204.353 110.579C204.894 110.85 205.3 111.223 205.571 111.699C205.842 112.175 205.977 112.721 205.977 113.337ZM202.183 114.569C202.64 114.569 202.981 114.462 203.205 114.247C203.429 114.032 203.541 113.729 203.541 113.337C203.541 112.945 203.429 112.642 203.205 112.427C202.981 112.212 202.64 112.105 202.183 112.105H200.881V114.569H202.183ZM209.617 112.091V114.079H212.823V115.927H209.617V118.083H213.243V120.001H207.223V110.173H213.243V112.091H209.617ZM219.81 120.001L217.766 116.291H217.192V120.001H214.798V110.173H218.816C219.59 110.173 220.248 110.308 220.79 110.579C221.34 110.85 221.751 111.223 222.022 111.699C222.292 112.166 222.428 112.688 222.428 113.267C222.428 113.92 222.241 114.504 221.868 115.017C221.504 115.53 220.962 115.894 220.244 116.109L222.512 120.001H219.81ZM217.192 114.597H218.676C219.114 114.597 219.441 114.49 219.656 114.275C219.88 114.06 219.992 113.757 219.992 113.365C219.992 112.992 219.88 112.698 219.656 112.483C219.441 112.268 219.114 112.161 218.676 112.161H217.192V114.597ZM230.329 110.173V112.091H226.325V114.163H229.321V116.025H226.325V120.001H223.931V110.173H230.329ZM233.981 110.173V120.001H231.587V110.173H233.981ZM238.11 118.153H241.246V120.001H235.716V110.173H238.11V118.153Z" fill="#0076AC"/>
<path d="M557.362 154.039C556.983 154.888 556.251 155.142 554.974 154.826C554.24 154.679 553.914 154.352 553.535 153.492C553.069 152.338 552.528 151.842 552.311 152.327C552.244 152.478 551.89 152.538 551.516 152.48C550.947 152.371 550.791 152.556 550.401 153.835C549.807 155.896 549.135 156.178 547.352 155.126C546.177 154.419 545.878 154.358 545.226 154.757C544.14 155.398 544.001 155.954 544.601 157.131C545.071 158.032 545.064 158.211 544.371 159.028C543.807 159.721 543.368 159.888 542.503 159.792C541.516 159.642 541.357 159.752 540.856 160.873C540.355 161.994 540.378 162.186 541.148 162.822C541.797 163.403 541.965 163.841 541.838 164.693C541.674 165.711 541.532 165.865 540.537 166.22C539.205 166.679 538.982 167.015 539.212 168.209C539.349 168.96 539.594 169.143 540.904 169.547C542.877 170.175 543.115 170.862 542.019 172.663C541.323 173.733 541.305 174.016 541.661 174.684C542.316 175.74 542.706 175.842 544.005 175.295C544.983 174.897 545.192 174.917 545.992 175.566C546.655 176.117 546.822 176.555 546.726 177.421C546.576 178.408 546.686 178.567 547.807 179.068C548.928 179.569 549.12 179.546 549.756 178.776C550.337 178.127 550.775 177.959 551.658 178.099C552.719 178.246 552.843 178.375 553.094 179.359C553.431 180.637 553.905 180.958 555.173 180.725C555.908 180.545 556.107 180.343 556.44 179.111C557.051 177.094 557.722 176.812 559.523 177.908C560.758 178.642 560.997 178.676 561.348 178.215C561.588 177.922 561.892 177.731 562.043 177.799C562.528 178.016 562.6 177.285 562.178 176.114C561.887 175.221 561.912 174.759 562.361 174.16C563.102 173.074 563.817 172.775 564.665 173.155C565.332 173.453 565.446 173.359 566.002 172.116C566.557 170.874 566.551 170.726 565.884 170.428C565.036 170.049 564.781 169.317 565.081 167.997C565.255 167.202 565.511 166.953 566.364 166.753C567.436 166.469 568.142 165.621 567.567 165.364C567.415 165.296 567.345 165.047 567.453 164.804C567.765 164.107 567.318 163.726 565.987 163.531C564.178 163.267 563.592 161.733 564.764 160.33C565.626 159.298 565.705 158.715 565.008 158.403C564.766 158.295 564.652 158.062 564.719 157.911C564.977 157.335 563.885 157.174 562.897 157.677C562.128 158.097 561.77 158.083 561.111 157.606C560.008 156.822 559.709 156.107 560.089 155.259C560.387 154.592 560.292 154.477 559.05 153.922C557.808 153.367 557.66 153.373 557.362 154.039ZM558.524 161.684C559.395 162.583 560.484 165.432 560.434 166.682C560.34 167.949 559.134 170.645 558.168 171.668C557.202 172.69 555.041 173.541 553.508 173.473C552.066 173.447 549.386 172.285 548.209 171.177C547.14 170.154 546.302 167.962 546.417 166.486C546.555 164.876 547.777 162.223 548.834 161.242C549.905 160.23 552.11 159.362 553.377 159.456C554.688 159.533 557.67 160.83 558.524 161.684Z" fill="#7CD5FF"/>
<path d="M552.445 163.654C551.153 164.022 550.093 166.311 550.579 167.582C551.065 168.854 553.381 169.853 554.589 169.266C555.854 168.632 556.674 166.636 556.161 165.425C555.631 164.17 553.736 163.286 552.445 163.654Z" fill="#7CD5FF"/>
<path d="M596.545 135.437C596.239 137.348 594.904 138.254 592.166 138.306C590.61 138.407 589.778 137.924 588.552 136.398C586.993 134.329 585.637 133.622 585.462 134.713C585.407 135.055 584.728 135.366 583.944 135.45C582.74 135.538 582.527 135.994 582.432 138.778C582.347 143.244 581.149 144.172 576.994 143.018C574.251 142.229 573.615 142.267 572.52 143.422C570.68 145.297 570.699 146.49 572.542 148.534C573.972 150.093 574.054 150.456 573.101 152.474C572.34 154.172 571.548 154.745 569.755 155.018C567.688 155.247 567.429 155.556 567.025 158.081C566.621 160.606 566.771 160.98 568.663 161.842C570.282 162.661 570.855 163.453 571.06 165.235C571.278 167.37 571.076 167.758 569.266 169.008C566.834 170.649 566.566 171.446 567.672 173.722C568.352 175.161 568.944 175.396 571.797 175.502C576.104 175.701 576.953 176.957 575.72 181.169C574.895 183.697 575.013 184.276 576.088 185.428C577.974 187.199 578.815 187.194 581.133 185.395C582.885 184.066 583.317 183.995 585.277 184.868C586.906 185.619 587.48 186.41 587.753 188.204C587.982 190.27 588.29 190.53 590.815 190.934C593.34 191.338 593.714 191.188 594.577 189.296C595.396 187.677 596.188 187.104 598.038 186.91C600.252 186.634 600.572 186.825 601.606 188.671C602.974 191.059 604.101 191.45 606.525 190.298C607.907 189.539 608.199 189.025 608.204 186.367C608.346 181.98 609.544 181.052 613.757 182.286C616.637 183.096 617.136 183.036 617.595 181.92C617.92 181.202 618.427 180.653 618.768 180.708C619.86 180.882 619.612 179.373 618.132 177.246C617.065 175.606 616.866 174.664 617.447 173.217C618.351 170.632 619.628 169.647 621.539 169.952C623.041 170.192 623.221 169.941 623.668 167.143C624.116 164.345 624.023 164.05 622.522 163.81C620.611 163.504 619.705 162.17 619.596 159.352C619.516 157.66 619.899 157.021 621.506 156.159C623.51 155.009 624.474 152.924 623.177 152.716C622.836 152.662 622.56 152.198 622.647 151.652C622.899 150.082 621.793 149.555 619.011 149.88C615.231 150.325 613.224 147.554 614.826 144.101C616.003 141.56 615.847 140.345 614.278 140.094C613.732 140.006 613.377 139.6 613.432 139.258C613.639 137.962 611.357 138.227 609.64 139.772C608.319 141.03 607.592 141.194 606.009 140.591C603.367 139.608 602.381 138.33 602.687 136.419C602.927 134.918 602.676 134.738 599.878 134.29C597.08 133.843 596.785 133.935 596.545 135.437ZM603.004 150.189C605.239 151.526 608.966 156.672 609.539 159.213C610.033 161.812 609.061 167.886 607.669 170.463C606.277 173.04 602.387 175.917 599.267 176.608C596.351 177.331 590.335 176.438 587.37 174.844C584.668 173.362 581.801 169.404 581.236 166.374C580.647 163.06 581.676 157.065 583.273 154.521C584.881 151.908 588.85 148.974 591.448 148.48C594.126 147.928 600.825 148.93 603.004 150.189Z" fill="#7CD5FF"/>
<path d="M591.836 157.43C589.437 158.866 588.539 164.042 590.201 166.338C591.864 168.633 597.061 169.395 599.174 167.563C601.377 165.606 601.95 161.148 600.266 158.989C598.524 156.751 594.236 155.994 591.836 157.43Z" fill="#7CD5FF"/>
<path d="M511.207 78.8886C510.875 79.6305 510.235 79.8531 509.119 79.5765C508.477 79.4484 508.192 79.1619 507.86 78.4096C507.453 77.4008 506.979 76.9665 506.79 77.3904C506.73 77.5229 506.421 77.5753 506.094 77.5245C505.596 77.429 505.46 77.5908 505.119 78.71C504.599 80.5125 504.012 80.7587 502.452 79.8387C501.425 79.2205 501.163 79.1668 500.593 79.5163C499.643 80.0771 499.521 80.5631 500.046 81.5928C500.457 82.3806 500.451 82.5368 499.845 83.2516C499.351 83.8576 498.968 84.0041 498.211 83.9199C497.348 83.7883 497.209 83.8853 496.77 84.8657C496.332 85.8461 496.352 86.0141 497.026 86.5697C497.594 87.0779 497.74 87.4613 497.63 88.2067C497.486 89.0964 497.362 89.2317 496.492 89.5422C495.327 89.9433 495.132 90.2376 495.333 91.2813C495.452 91.9388 495.667 92.0985 496.813 92.4517C498.538 93.0008 498.746 93.6025 497.788 95.177C497.179 96.1129 497.163 96.3604 497.474 96.9446C498.047 97.8684 498.389 97.9575 499.525 97.4797C500.38 97.1309 500.563 97.149 501.263 97.7164C501.842 98.198 501.989 98.5815 501.905 99.3387C501.773 100.202 501.87 100.341 502.85 100.779C503.831 101.217 503.999 101.197 504.554 100.523C505.063 99.9558 505.446 99.8093 506.218 99.9319C507.146 100.061 507.255 100.173 507.474 101.034C507.769 102.152 508.184 102.432 509.293 102.229C509.935 102.071 510.11 101.894 510.401 100.816C510.935 99.0523 511.522 98.8061 513.097 99.7644C514.177 100.406 514.386 100.436 514.694 100.033C514.903 99.7773 515.169 99.6099 515.302 99.6691C515.726 99.8587 515.789 99.2193 515.42 98.1958C515.165 97.4143 515.187 97.0106 515.58 96.4869C516.227 95.5364 516.853 95.2755 517.595 95.6072C518.178 95.8678 518.278 95.7855 518.764 94.6991C519.25 93.6127 519.244 93.483 518.661 93.2224C517.919 92.8907 517.696 92.2506 517.958 91.0959C518.11 90.4007 518.335 90.1832 519.081 90.008C520.018 89.7596 520.636 89.0183 520.133 88.7932C520 88.7339 519.939 88.5157 520.033 88.3037C520.306 87.6943 519.915 87.3604 518.751 87.1898C517.169 86.9593 516.656 85.6172 517.682 84.3906C518.435 83.4875 518.504 82.9778 517.895 82.7053C517.683 82.6105 517.583 82.4069 517.642 82.2744C517.867 81.771 516.913 81.6303 516.048 82.0705C515.375 82.4374 515.063 82.4249 514.486 82.0081C513.521 81.3222 513.26 80.6968 513.592 79.9549C513.853 79.3719 513.77 79.2715 512.684 78.7858C511.597 78.3 511.468 78.3056 511.207 78.8886ZM512.224 85.575C512.985 86.3606 513.938 88.8531 513.894 89.9463C513.812 91.0543 512.757 93.4126 511.913 94.3066C511.068 95.2007 509.177 95.9451 507.836 95.8861C506.575 95.8626 504.231 94.8466 503.202 93.8776C502.267 92.9825 501.534 91.0653 501.634 89.7746C501.755 88.3662 502.824 86.0462 503.749 85.1877C504.685 84.3027 506.614 83.5437 507.722 83.6257C508.868 83.6931 511.477 84.8277 512.224 85.575Z" fill="#7CD5FF"/>
<path d="M493.353 95.9657C493.022 96.7077 492.382 96.9302 491.265 96.6537C490.623 96.5255 490.338 96.239 490.006 95.4867C489.599 94.4779 489.126 94.0436 488.936 94.4676C488.877 94.6001 488.567 94.6524 488.24 94.6016C487.742 94.5062 487.606 94.668 487.265 95.7871C486.745 97.5896 486.158 97.8359 484.598 96.9159C483.571 96.2976 483.309 96.244 482.739 96.5934C481.789 97.1542 481.667 97.6402 482.192 98.6699C482.603 99.4577 482.597 99.6139 481.991 100.329C481.498 100.935 481.114 101.081 480.357 100.997C479.494 100.865 479.355 100.962 478.917 101.943C478.478 102.923 478.499 103.091 479.172 103.647C479.74 104.155 479.886 104.538 479.776 105.284C479.632 106.174 479.508 106.309 478.638 106.619C477.473 107.02 477.278 107.315 477.479 108.358C477.598 109.016 477.813 109.176 478.959 109.529C480.685 110.078 480.892 110.68 479.934 112.254C479.325 113.19 479.31 113.438 479.621 114.022C480.193 114.946 480.535 115.035 481.671 114.557C482.526 114.208 482.709 114.226 483.409 114.794C483.989 115.275 484.135 115.659 484.051 116.416C483.919 117.279 484.016 117.418 484.997 117.856C485.977 118.295 486.145 118.274 486.701 117.601C487.209 117.033 487.592 116.886 488.364 117.009C489.292 117.138 489.401 117.25 489.62 118.111C489.915 119.229 490.33 119.51 491.439 119.306C492.082 119.148 492.256 118.972 492.547 117.894C493.082 116.129 493.669 115.883 495.243 116.842C496.323 117.484 496.533 117.513 496.84 117.11C497.05 116.854 497.315 116.687 497.448 116.746C497.872 116.936 497.935 116.296 497.566 115.273C497.311 114.491 497.333 114.088 497.726 113.564C498.374 112.614 498.999 112.353 499.741 112.684C500.324 112.945 500.424 112.863 500.91 111.776C501.396 110.69 501.39 110.56 500.807 110.3C500.065 109.968 499.843 109.328 500.105 108.173C500.256 107.478 500.481 107.26 501.227 107.085C502.165 106.837 502.782 106.095 502.279 105.87C502.146 105.811 502.085 105.593 502.18 105.381C502.452 104.771 502.061 104.438 500.897 104.267C499.315 104.036 498.802 102.694 499.828 101.468C500.581 100.565 500.65 100.055 500.041 99.7824C499.829 99.6876 499.729 99.4841 499.788 99.3516C500.013 98.8481 499.059 98.7075 498.194 99.1476C497.522 99.5145 497.209 99.502 496.632 99.0852C495.667 98.3993 495.406 97.774 495.738 97.032C495.999 96.4491 495.917 96.3487 494.83 95.8629C493.744 95.3772 493.614 95.3828 493.353 95.9657ZM494.37 102.652C495.132 103.438 496.084 105.93 496.04 107.023C495.958 108.131 494.904 110.49 494.059 111.384C493.214 112.278 491.323 113.022 489.982 112.963C488.721 112.94 486.377 111.924 485.348 110.955C484.413 110.06 483.68 108.142 483.78 106.852C483.901 105.443 484.97 103.123 485.895 102.265C486.831 101.38 488.76 100.621 489.868 100.703C491.014 100.77 493.623 101.905 494.37 102.652Z" fill="#7CD5FF"/>
<path d="M506.907 87.2993C505.778 87.6209 504.851 89.6229 505.275 90.7349C505.7 91.847 507.726 92.7209 508.782 92.2075C509.889 91.6529 510.606 89.9069 510.157 88.8479C509.694 87.7505 508.036 86.9776 506.907 87.2993Z" fill="#7CD5FF"/>
<path d="M489.053 104.375C487.924 104.697 486.997 106.699 487.422 107.811C487.847 108.923 489.872 109.797 490.928 109.284C492.035 108.729 492.752 106.983 492.303 105.924C491.84 104.827 490.183 104.054 489.053 104.375Z" fill="#7CD5FF"/>
<path d="M519.127 33.6693C520 28.2159 525.128 24.5022 530.582 25.3748L612.946 38.5526C618.399 39.4252 622.113 44.5534 621.24 50.0069L607.537 135.656C605.356 149.289 592.535 158.573 578.901 156.392L526.16 147.954C512.527 145.772 503.243 132.952 505.424 119.318L519.127 33.6693Z" fill="#1F9DD3"/>
<path d="M519.127 33.6693C520 28.2159 525.128 24.5022 530.582 25.3748L612.946 38.5526C618.399 39.4252 622.113 44.5534 621.24 50.0069L612.934 101.925C608.422 130.123 581.906 149.325 553.708 144.813V144.813C525.511 140.302 506.309 113.786 510.821 85.5879L519.127 33.6693Z" fill="#46C4FF"/>
<path d="M519.127 33.6693C520 28.2159 525.128 24.5022 530.582 25.3748L612.946 38.5526C618.399 39.4252 622.113 44.5534 621.24 50.0069L608.556 129.283C606.462 142.372 594.155 151.284 581.066 149.19L526.351 140.436C513.262 138.342 504.35 126.034 506.444 112.946L519.127 33.6693Z" fill="#46C4FF"/>
<path d="M535.811 39.8038C535.898 39.2585 536.411 38.8871 536.956 38.9744L603.877 49.6814C604.422 49.7686 604.793 50.2814 604.706 50.8268L596.638 101.255C593.594 120.28 575.704 133.236 556.679 130.192V130.192C537.654 127.148 524.699 109.257 527.742 90.2324L535.811 39.8038Z" fill="#1CB0F6"/>
<path d="M573.181 64.5884C572.441 66.5732 570.54 66.7364 569.333 64.9075C567.441 62.081 563.846 63.7492 565.131 66.8524C565.479 67.6091 565.375 67.9664 564.519 68.6241C563.71 69.2891 563.193 69.2998 561.401 68.7794C559.342 68.1696 559.243 68.2005 558.741 69.2886C558.12 70.8251 558.378 71.8479 559.521 72.0307C560.024 72.1111 560.406 72.3592 560.37 72.5871C560.333 72.8149 560.686 73.2453 561.167 73.4625C561.648 73.6796 562.094 74.4054 562.129 75.0653C562.238 76.438 563.412 76.7193 564.706 75.6644C565.197 75.2289 565.903 74.9212 566.268 74.9797C566.634 75.0382 567.294 74.7231 567.74 74.2803C569.424 72.5402 574.559 72.3803 577.31 73.942C578.807 74.8359 580.152 76.6869 580.536 78.3842C581.167 81.4762 579.412 86.2898 577.228 87.3425C576.667 87.6266 576.161 88.1532 576.103 88.5178C576.044 88.8823 575.531 89.4545 574.962 89.7842C573.553 90.6805 573.455 91.8799 574.73 92.411C575.348 92.6501 575.9 93.2993 575.957 93.8225C576.014 94.3457 576.314 94.8143 576.542 94.8509C576.771 94.8875 576.888 95.3269 576.808 95.8281C576.626 96.9674 577.52 97.5311 579.178 97.4225C580.372 97.2863 580.432 97.2025 580.493 95.0624C580.556 93.203 580.728 92.7163 581.614 92.1571C582.508 91.5523 582.881 91.5652 583.493 92.1306C586.05 94.3157 588.762 91.4312 586.658 88.7578C585.292 87.0436 586.04 85.2939 588.163 85.2128C589.669 85.1734 589.775 85.0969 590.074 83.2285C590.373 81.3601 590.296 81.2543 588.877 80.7469C586.886 80.0077 586.745 78.2558 588.539 77.0006C589.85 76.1353 590.29 74.8503 589.779 73.6469C589.532 73.14 588.907 72.9465 587.323 72.8802C584.47 72.8442 583.817 71.9452 584.673 69.2312C585.103 67.7111 585.114 67.0585 584.708 66.6664C583.721 65.8073 582.359 65.8231 581.125 66.7941C579.369 68.1022 577.743 67.4215 577.66 65.305C577.619 63.8029 577.542 63.6971 575.668 63.3973C573.794 63.0975 573.688 63.174 573.181 64.5884Z" fill="#0076AC"/>
<path d="M555.709 75.347C555.505 76.623 554.611 77.2278 552.777 77.2616C551.735 77.3286 551.178 77.0057 550.356 75.9863C549.312 74.604 548.403 74.1314 548.286 74.8605C548.25 75.0884 547.795 75.296 547.27 75.3523C546.464 75.4102 546.322 75.7146 546.258 77.574C546.203 80.5563 545.401 81.1757 542.618 80.4034C540.781 79.8757 540.355 79.901 539.622 80.6718C538.391 81.9236 538.404 82.7202 539.638 84.0862C540.597 85.1275 540.652 85.37 540.014 86.7169C539.505 87.8505 538.975 88.2331 537.774 88.4148C536.39 88.5673 536.216 88.7732 535.947 90.4594C535.677 92.1455 535.778 92.3953 537.045 92.9719C538.129 93.5193 538.513 94.0481 538.651 95.2386C538.798 96.6642 538.663 96.923 537.451 97.7573C535.823 98.8522 535.644 99.3844 536.385 100.905C536.84 101.866 537.237 102.023 539.148 102.095C542.032 102.229 542.601 103.068 541.776 105.881C541.225 107.568 541.304 107.955 542.025 108.724C543.288 109.908 543.851 109.905 545.403 108.704C546.576 107.817 546.865 107.77 548.178 108.354C549.269 108.855 549.654 109.384 549.837 110.582C549.991 111.962 550.198 112.135 551.889 112.406C553.58 112.676 553.83 112.576 554.408 111.313C554.955 110.233 555.485 109.85 556.725 109.721C558.207 109.538 558.421 109.665 559.115 110.898C560.031 112.493 560.786 112.754 562.409 111.986C563.334 111.48 563.53 111.137 563.533 109.361C563.626 106.432 564.428 105.813 567.25 106.638C569.179 107.18 569.513 107.14 569.82 106.395C570.037 105.915 570.377 105.549 570.606 105.586C571.337 105.703 571.17 104.695 570.179 103.274C569.463 102.178 569.329 101.549 569.718 100.583C570.323 98.857 571.178 98.1993 572.458 98.4041C573.463 98.565 573.584 98.3973 573.883 96.5289C574.182 94.6605 574.119 94.4636 573.114 94.3028C571.834 94.098 571.227 93.2063 571.153 91.325C571.099 90.1947 571.355 89.7683 572.431 89.1927C573.773 88.4259 574.418 87.0334 573.549 86.8945C573.321 86.8579 573.136 86.5479 573.194 86.1834C573.362 85.1352 572.621 84.7831 570.759 84.9992C568.227 85.2951 566.882 83.4442 567.954 81.1387C568.741 79.4419 568.637 78.6306 567.586 78.4624C567.22 78.4039 566.982 78.1322 567.019 77.9043C567.157 77.0385 565.629 77.2146 564.48 78.2459C563.595 79.0859 563.109 79.195 562.048 78.7917C560.278 78.1346 559.618 77.2811 559.822 76.0052C559.983 75.0026 559.814 74.8822 557.941 74.5824C556.067 74.2826 555.869 74.3445 555.709 75.347ZM560.039 85.2002C561.536 86.0942 564.033 89.5316 564.418 91.2289C564.75 92.9645 564.101 97.0203 563.169 98.7407C562.238 100.461 559.634 102.381 557.544 102.842C555.592 103.324 551.563 102.726 549.577 101.66C547.767 100.67 545.846 98.0255 545.466 96.0018C545.07 93.7886 545.758 89.7857 546.826 88.0872C547.902 86.3431 550.56 84.3847 552.3 84.0555C554.093 83.6881 558.579 84.3592 560.039 85.2002Z" fill="#0076AC"/>
<path d="M552.562 90.032C550.956 90.9902 550.356 94.4462 551.47 95.9798C552.584 97.5134 556.065 98.0236 557.479 96.8011C558.954 95.4947 559.337 92.518 558.208 91.0755C557.041 89.5802 554.169 89.0739 552.562 90.032Z" fill="#0076AC"/>
<path d="M571.482 78.4316C571.27 78.5846 570.98 79.5197 570.827 80.4767L570.542 82.2539L572.529 82.4316C574.471 82.6021 574.471 82.6021 574.763 80.7792C575.047 79.002 575.009 78.9491 573.476 78.5638C572.577 78.3264 571.694 78.2786 571.482 78.4316Z" fill="#0076AC"/>
<path d="M597.824 35.9866L612.315 38.2624L615.729 39.517L616.866 40.5377L618.573 42.2445L619.711 43.9512L620.849 46.2281L621.418 50.2108L618.573 66.6913L567.842 101.287L515.739 137.255L513.522 134.553L511.639 131.611L510.088 128.429L508.87 125.007L507.985 121.344L507.673 117.773L507.694 113.963L508.313 110.096L510.624 95.6533L597.824 35.9866Z" fill="white" fill-opacity="0.29"/>
<path fill-rule="evenodd" clip-rule="evenodd" d="M55.6354 106.796C55.2492 105.736 53.7508 105.736 53.3646 106.796L51.6123 111.613L46.7951 113.366C45.735 113.752 45.735 115.25 46.7951 115.636L51.6123 117.389L53.3646 122.206C53.7508 123.266 55.2492 123.266 55.6354 122.206L57.3877 117.389L62.2049 115.636C63.265 115.25 63.265 113.752 62.2049 113.366L57.3877 111.613L55.6354 106.796Z" fill="#0076AC"/>
</svg>
