<svg width="710" height="257" viewBox="0 0 710 257" fill="none" xmlns="http://www.w3.org/2000/svg">
<rect y="73" width="710" height="184" rx="30" fill="#BAE8FE"/>
<path d="M57.398 190.586H52.451L51.601 193H49.578L53.811 181.168H56.055L60.288 193H58.248L57.398 190.586ZM56.854 189.005L54.933 183.514L52.995 189.005H56.854ZM69.9445 193.153C69.2079 193.153 68.5449 193.023 67.9555 192.762C67.3775 192.49 66.9185 192.127 66.5785 191.674C66.2385 191.209 66.0572 190.694 66.0345 190.127H68.0405C68.0745 190.524 68.2615 190.858 68.6015 191.13C68.9529 191.391 69.3892 191.521 69.9105 191.521C70.4545 191.521 70.8739 191.419 71.1685 191.215C71.4745 191 71.6275 190.728 71.6275 190.399C71.6275 190.048 71.4575 189.787 71.1175 189.617C70.7889 189.447 70.2619 189.26 69.5365 189.056C68.8339 188.863 68.2615 188.676 67.8195 188.495C67.3775 188.314 66.9922 188.036 66.6635 187.662C66.3462 187.288 66.1875 186.795 66.1875 186.183C66.1875 185.684 66.3349 185.231 66.6295 184.823C66.9242 184.404 67.3435 184.075 67.8875 183.837C68.4429 183.599 69.0775 183.48 69.7915 183.48C70.8569 183.48 71.7125 183.752 72.3585 184.296C73.0159 184.829 73.3672 185.56 73.4125 186.489H71.4745C71.4405 186.07 71.2705 185.735 70.9645 185.486C70.6585 185.237 70.2449 185.112 69.7235 185.112C69.2135 185.112 68.8225 185.208 68.5505 185.401C68.2785 185.594 68.1425 185.849 68.1425 186.166C68.1425 186.415 68.2332 186.625 68.4145 186.795C68.5959 186.965 68.8169 187.101 69.0775 187.203C69.3382 187.294 69.7235 187.413 70.2335 187.56C70.9135 187.741 71.4689 187.928 71.8995 188.121C72.3415 188.302 72.7212 188.574 73.0385 188.937C73.3559 189.3 73.5202 189.781 73.5315 190.382C73.5315 190.915 73.3842 191.391 73.0895 191.81C72.7949 192.229 72.3755 192.558 71.8315 192.796C71.2989 193.034 70.6699 193.153 69.9445 193.153ZM79.6886 193.153C78.8046 193.153 78.0056 192.955 77.2916 192.558C76.5776 192.15 76.0166 191.583 75.6086 190.858C75.2006 190.121 74.9966 189.271 74.9966 188.308C74.9966 187.356 75.2063 186.512 75.6256 185.775C76.0449 185.038 76.6173 184.472 77.3426 184.075C78.0679 183.678 78.8783 183.48 79.7736 183.48C80.6689 183.48 81.4793 183.678 82.2046 184.075C82.9299 184.472 83.5023 185.038 83.9216 185.775C84.3409 186.512 84.5506 187.356 84.5506 188.308C84.5506 189.26 84.3353 190.104 83.9046 190.841C83.4739 191.578 82.8846 192.15 82.1366 192.558C81.3999 192.955 80.5839 193.153 79.6886 193.153ZM79.6886 191.47C80.1873 191.47 80.6519 191.351 81.0826 191.113C81.5246 190.875 81.8816 190.518 82.1536 190.042C82.4256 189.566 82.5616 188.988 82.5616 188.308C82.5616 187.628 82.4313 187.056 82.1706 186.591C81.9099 186.115 81.5643 185.758 81.1336 185.52C80.7029 185.282 80.2383 185.163 79.7396 185.163C79.2409 185.163 78.7763 185.282 78.3456 185.52C77.9263 185.758 77.5919 186.115 77.3426 186.591C77.0933 187.056 76.9686 187.628 76.9686 188.308C76.9686 189.317 77.2236 190.099 77.7336 190.654C78.2549 191.198 78.9066 191.47 79.6886 191.47ZM88.4044 180.42V193H86.4664V180.42H88.4044ZM91.9348 182.392C91.5835 182.392 91.2888 182.273 91.0508 182.035C90.8128 181.797 90.6938 181.502 90.6938 181.151C90.6938 180.8 90.8128 180.505 91.0508 180.267C91.2888 180.029 91.5835 179.91 91.9348 179.91C92.2748 179.91 92.5638 180.029 92.8018 180.267C93.0398 180.505 93.1588 180.8 93.1588 181.151C93.1588 181.502 93.0398 181.797 92.8018 182.035C92.5638 182.273 92.2748 182.392 91.9348 182.392ZM92.8868 183.633V193H90.9488V183.633H92.8868ZM94.7853 188.274C94.7853 187.333 94.9779 186.5 95.3633 185.775C95.7599 185.05 96.2926 184.489 96.9613 184.092C97.6413 183.684 98.3949 183.48 99.2223 183.48C99.8343 183.48 100.435 183.616 101.024 183.888C101.625 184.149 102.101 184.5 102.452 184.942V180.42H104.407V193H102.452V191.589C102.135 192.042 101.693 192.416 101.126 192.711C100.571 193.006 99.9306 193.153 99.2053 193.153C98.3893 193.153 97.6413 192.949 96.9613 192.541C96.2926 192.122 95.7599 191.544 95.3633 190.807C94.9779 190.059 94.7853 189.215 94.7853 188.274ZM102.452 188.308C102.452 187.662 102.316 187.101 102.044 186.625C101.784 186.149 101.438 185.786 101.007 185.537C100.577 185.288 100.112 185.163 99.6133 185.163C99.1146 185.163 98.6499 185.288 98.2193 185.537C97.7886 185.775 97.4373 186.132 97.1653 186.608C96.9046 187.073 96.7743 187.628 96.7743 188.274C96.7743 188.92 96.9046 189.487 97.1653 189.974C97.4373 190.461 97.7886 190.835 98.2193 191.096C98.6613 191.345 99.1259 191.47 99.6133 191.47C100.112 191.47 100.577 191.345 101.007 191.096C101.438 190.847 101.784 190.484 102.044 190.008C102.316 189.521 102.452 188.954 102.452 188.308ZM106.307 188.274C106.307 187.333 106.499 186.5 106.885 185.775C107.281 185.05 107.814 184.489 108.483 184.092C109.163 183.684 109.911 183.48 110.727 183.48C111.463 183.48 112.104 183.627 112.648 183.922C113.203 184.205 113.645 184.562 113.974 184.993V183.633H115.929V193H113.974V191.606C113.645 192.048 113.197 192.416 112.631 192.711C112.064 193.006 111.418 193.153 110.693 193.153C109.888 193.153 109.151 192.949 108.483 192.541C107.814 192.122 107.281 191.544 106.885 190.807C106.499 190.059 106.307 189.215 106.307 188.274ZM113.974 188.308C113.974 187.662 113.838 187.101 113.566 186.625C113.305 186.149 112.959 185.786 112.529 185.537C112.098 185.288 111.633 185.163 111.135 185.163C110.636 185.163 110.171 185.288 109.741 185.537C109.31 185.775 108.959 186.132 108.687 186.608C108.426 187.073 108.296 187.628 108.296 188.274C108.296 188.92 108.426 189.487 108.687 189.974C108.959 190.461 109.31 190.835 109.741 191.096C110.183 191.345 110.647 191.47 111.135 191.47C111.633 191.47 112.098 191.345 112.529 191.096C112.959 190.847 113.305 190.484 113.566 190.008C113.838 189.521 113.974 188.954 113.974 188.308ZM120.412 184.993C120.696 184.517 121.07 184.149 121.534 183.888C122.01 183.616 122.571 183.48 123.217 183.48V185.486H122.724C121.965 185.486 121.387 185.679 120.99 186.064C120.605 186.449 120.412 187.118 120.412 188.07V193H118.474V183.633H120.412V184.993ZM125.985 182.392C125.633 182.392 125.339 182.273 125.101 182.035C124.863 181.797 124.744 181.502 124.744 181.151C124.744 180.8 124.863 180.505 125.101 180.267C125.339 180.029 125.633 179.91 125.985 179.91C126.325 179.91 126.614 180.029 126.852 180.267C127.09 180.505 127.209 180.8 127.209 181.151C127.209 181.502 127.09 181.797 126.852 182.035C126.614 182.273 126.325 182.392 125.985 182.392ZM126.937 183.633V193H124.999V183.633H126.937ZM138.066 188.087C138.066 188.438 138.043 188.756 137.998 189.039H130.841C130.898 189.787 131.175 190.388 131.674 190.841C132.173 191.294 132.785 191.521 133.51 191.521C134.553 191.521 135.289 191.085 135.72 190.212H137.811C137.528 191.073 137.012 191.782 136.264 192.337C135.527 192.881 134.609 193.153 133.51 193.153C132.615 193.153 131.81 192.955 131.096 192.558C130.393 192.15 129.838 191.583 129.43 190.858C129.033 190.121 128.835 189.271 128.835 188.308C128.835 187.345 129.028 186.5 129.413 185.775C129.81 185.038 130.359 184.472 131.062 184.075C131.776 183.678 132.592 183.48 133.51 183.48C134.394 183.48 135.182 183.673 135.873 184.058C136.564 184.443 137.103 184.987 137.488 185.69C137.873 186.381 138.066 187.18 138.066 188.087ZM136.043 187.475C136.032 186.761 135.777 186.189 135.278 185.758C134.779 185.327 134.162 185.112 133.425 185.112C132.756 185.112 132.184 185.327 131.708 185.758C131.232 186.177 130.949 186.75 130.858 187.475H136.043ZM139.327 188.274C139.327 187.333 139.52 186.5 139.905 185.775C140.302 185.05 140.835 184.489 141.503 184.092C142.183 183.684 142.937 183.48 143.764 183.48C144.376 183.48 144.977 183.616 145.566 183.888C146.167 184.149 146.643 184.5 146.994 184.942V180.42H148.949V193H146.994V191.589C146.677 192.042 146.235 192.416 145.668 192.711C145.113 193.006 144.473 193.153 143.747 193.153C142.931 193.153 142.183 192.949 141.503 192.541C140.835 192.122 140.302 191.544 139.905 190.807C139.52 190.059 139.327 189.215 139.327 188.274ZM146.994 188.308C146.994 187.662 146.858 187.101 146.586 186.625C146.326 186.149 145.98 185.786 145.549 185.537C145.119 185.288 144.654 185.163 144.155 185.163C143.657 185.163 143.192 185.288 142.761 185.537C142.331 185.775 141.979 186.132 141.707 186.608C141.447 187.073 141.316 187.628 141.316 188.274C141.316 188.92 141.447 189.487 141.707 189.974C141.979 190.461 142.331 190.835 142.761 191.096C143.203 191.345 143.668 191.47 144.155 191.47C144.654 191.47 145.119 191.345 145.549 191.096C145.98 190.847 146.326 190.484 146.586 190.008C146.858 189.521 146.994 188.954 146.994 188.308ZM150.849 188.274C150.849 187.333 151.041 186.5 151.427 185.775C151.823 185.05 152.356 184.489 153.025 184.092C153.705 183.684 154.453 183.48 155.269 183.48C156.005 183.48 156.646 183.627 157.19 183.922C157.745 184.205 158.187 184.562 158.516 184.993V183.633H160.471V193H158.516V191.606C158.187 192.048 157.739 192.416 157.173 192.711C156.606 193.006 155.96 193.153 155.235 193.153C154.43 193.153 153.693 192.949 153.025 192.541C152.356 192.122 151.823 191.544 151.427 190.807C151.041 190.059 150.849 189.215 150.849 188.274ZM158.516 188.308C158.516 187.662 158.38 187.101 158.108 186.625C157.847 186.149 157.501 185.786 157.071 185.537C156.64 185.288 156.175 185.163 155.677 185.163C155.178 185.163 154.713 185.288 154.283 185.537C153.852 185.775 153.501 186.132 153.229 186.608C152.968 187.073 152.838 187.628 152.838 188.274C152.838 188.92 152.968 189.487 153.229 189.974C153.501 190.461 153.852 190.835 154.283 191.096C154.725 191.345 155.189 191.47 155.677 191.47C156.175 191.47 156.64 191.345 157.071 191.096C157.501 190.847 157.847 190.484 158.108 190.008C158.38 189.521 158.516 188.954 158.516 188.308ZM162.37 188.274C162.37 187.333 162.563 186.5 162.948 185.775C163.345 185.05 163.878 184.489 164.546 184.092C165.226 183.684 165.98 183.48 166.807 183.48C167.419 183.48 168.02 183.616 168.609 183.888C169.21 184.149 169.686 184.5 170.037 184.942V180.42H171.992V193H170.037V191.589C169.72 192.042 169.278 192.416 168.711 192.711C168.156 193.006 167.516 193.153 166.79 193.153C165.974 193.153 165.226 192.949 164.546 192.541C163.878 192.122 163.345 191.544 162.948 190.807C162.563 190.059 162.37 189.215 162.37 188.274ZM170.037 188.308C170.037 187.662 169.901 187.101 169.629 186.625C169.369 186.149 169.023 185.786 168.592 185.537C168.162 185.288 167.697 185.163 167.198 185.163C166.7 185.163 166.235 185.288 165.804 185.537C165.374 185.775 165.022 186.132 164.75 186.608C164.49 187.073 164.359 187.628 164.359 188.274C164.359 188.92 164.49 189.487 164.75 189.974C165.022 190.461 165.374 190.835 165.804 191.096C166.246 191.345 166.711 191.47 167.198 191.47C167.697 191.47 168.162 191.345 168.592 191.096C169.023 190.847 169.369 190.484 169.629 190.008C169.901 189.521 170.037 188.954 170.037 188.308ZM183.123 188.087C183.123 188.438 183.1 188.756 183.055 189.039H175.898C175.954 189.787 176.232 190.388 176.731 190.841C177.229 191.294 177.841 191.521 178.567 191.521C179.609 191.521 180.346 191.085 180.777 190.212H182.868C182.584 191.073 182.069 191.782 181.321 192.337C180.584 192.881 179.666 193.153 178.567 193.153C177.671 193.153 176.867 192.955 176.153 192.558C175.45 192.15 174.895 191.583 174.487 190.858C174.09 190.121 173.892 189.271 173.892 188.308C173.892 187.345 174.084 186.5 174.47 185.775C174.866 185.038 175.416 184.472 176.119 184.075C176.833 183.678 177.649 183.48 178.567 183.48C179.451 183.48 180.238 183.673 180.93 184.058C181.621 184.443 182.159 184.987 182.545 185.69C182.93 186.381 183.123 187.18 183.123 188.087ZM181.1 187.475C181.088 186.761 180.833 186.189 180.335 185.758C179.836 185.327 179.218 185.112 178.482 185.112C177.813 185.112 177.241 185.327 176.765 185.758C176.289 186.177 176.005 186.75 175.915 187.475H181.1ZM198.031 188.087C198.031 188.438 198.008 188.756 197.963 189.039H190.806C190.863 189.787 191.14 190.388 191.639 190.841C192.138 191.294 192.75 191.521 193.475 191.521C194.518 191.521 195.254 191.085 195.685 190.212H197.776C197.493 191.073 196.977 191.782 196.229 192.337C195.492 192.881 194.574 193.153 193.475 193.153C192.58 193.153 191.775 192.955 191.061 192.558C190.358 192.15 189.803 191.583 189.395 190.858C188.998 190.121 188.8 189.271 188.8 188.308C188.8 187.345 188.993 186.5 189.378 185.775C189.775 185.038 190.324 184.472 191.027 184.075C191.741 183.678 192.557 183.48 193.475 183.48C194.359 183.48 195.147 183.673 195.838 184.058C196.529 184.443 197.068 184.987 197.453 185.69C197.838 186.381 198.031 187.18 198.031 188.087ZM196.008 187.475C195.997 186.761 195.742 186.189 195.243 185.758C194.744 185.327 194.127 185.112 193.39 185.112C192.721 185.112 192.149 185.327 191.673 185.758C191.197 186.177 190.914 186.75 190.823 187.475H196.008ZM195.175 181.117L191.418 182.97V181.542L195.175 179.468V181.117ZM203.708 188.274C203.708 187.333 203.901 186.5 204.286 185.775C204.683 185.05 205.215 184.489 205.884 184.092C206.564 183.684 207.312 183.48 208.128 183.48C208.865 183.48 209.505 183.627 210.049 183.922C210.604 184.205 211.046 184.562 211.375 184.993V183.633H213.33V193H211.375V191.606C211.046 192.048 210.599 192.416 210.032 192.711C209.465 193.006 208.819 193.153 208.094 193.153C207.289 193.153 206.553 192.949 205.884 192.541C205.215 192.122 204.683 191.544 204.286 190.807C203.901 190.059 203.708 189.215 203.708 188.274ZM211.375 188.308C211.375 187.662 211.239 187.101 210.967 186.625C210.706 186.149 210.361 185.786 209.93 185.537C209.499 185.288 209.035 185.163 208.536 185.163C208.037 185.163 207.573 185.288 207.142 185.537C206.711 185.775 206.36 186.132 206.088 186.608C205.827 187.073 205.697 187.628 205.697 188.274C205.697 188.92 205.827 189.487 206.088 189.974C206.36 190.461 206.711 190.835 207.142 191.096C207.584 191.345 208.049 191.47 208.536 191.47C209.035 191.47 209.499 191.345 209.93 191.096C210.361 190.847 210.706 190.484 210.967 190.008C211.239 189.521 211.375 188.954 211.375 188.308ZM228.877 188.087C228.877 188.438 228.854 188.756 228.809 189.039H221.652C221.708 189.787 221.986 190.388 222.485 190.841C222.983 191.294 223.595 191.521 224.321 191.521C225.363 191.521 226.1 191.085 226.531 190.212H228.622C228.338 191.073 227.823 191.782 227.075 192.337C226.338 192.881 225.42 193.153 224.321 193.153C223.425 193.153 222.621 192.955 221.907 192.558C221.204 192.15 220.649 191.583 220.241 190.858C219.844 190.121 219.646 189.271 219.646 188.308C219.646 187.345 219.838 186.5 220.224 185.775C220.62 185.038 221.17 184.472 221.873 184.075C222.587 183.678 223.403 183.48 224.321 183.48C225.205 183.48 225.992 183.673 226.684 184.058C227.375 184.443 227.913 184.987 228.299 185.69C228.684 186.381 228.877 187.18 228.877 188.087ZM226.854 187.475C226.842 186.761 226.587 186.189 226.089 185.758C225.59 185.327 224.972 185.112 224.236 185.112C223.567 185.112 222.995 185.327 222.519 185.758C222.043 186.177 221.759 186.75 221.669 187.475H226.854ZM235.51 183.48C236.246 183.48 236.904 183.633 237.482 183.939C238.071 184.245 238.53 184.698 238.859 185.299C239.187 185.9 239.352 186.625 239.352 187.475V193H237.431V187.764C237.431 186.925 237.221 186.285 236.802 185.843C236.382 185.39 235.81 185.163 235.085 185.163C234.359 185.163 233.781 185.39 233.351 185.843C232.931 186.285 232.722 186.925 232.722 187.764V193H230.784V183.633H232.722V184.704C233.039 184.319 233.441 184.018 233.929 183.803C234.427 183.588 234.954 183.48 235.51 183.48ZM245.598 183.48C246.323 183.48 246.963 183.627 247.519 183.922C248.085 184.205 248.527 184.562 248.845 184.993V183.633H250.8V193.153C250.8 194.014 250.618 194.779 250.256 195.448C249.893 196.128 249.366 196.661 248.675 197.046C247.995 197.431 247.179 197.624 246.227 197.624C244.957 197.624 243.903 197.324 243.065 196.723C242.226 196.134 241.75 195.329 241.637 194.309H243.558C243.705 194.796 244.017 195.187 244.493 195.482C244.98 195.788 245.558 195.941 246.227 195.941C247.009 195.941 247.638 195.703 248.114 195.227C248.601 194.751 248.845 194.06 248.845 193.153V191.589C248.516 192.031 248.068 192.405 247.502 192.711C246.946 193.006 246.312 193.153 245.598 193.153C244.782 193.153 244.034 192.949 243.354 192.541C242.685 192.122 242.152 191.544 241.756 190.807C241.37 190.059 241.178 189.215 241.178 188.274C241.178 187.333 241.37 186.5 241.756 185.775C242.152 185.05 242.685 184.489 243.354 184.092C244.034 183.684 244.782 183.48 245.598 183.48ZM248.845 188.308C248.845 187.662 248.709 187.101 248.437 186.625C248.176 186.149 247.83 185.786 247.4 185.537C246.969 185.288 246.504 185.163 246.006 185.163C245.507 185.163 245.042 185.288 244.612 185.537C244.181 185.775 243.83 186.132 243.558 186.608C243.297 187.073 243.167 187.628 243.167 188.274C243.167 188.92 243.297 189.487 243.558 189.974C243.83 190.461 244.181 190.835 244.612 191.096C245.054 191.345 245.518 191.47 246.006 191.47C246.504 191.47 246.969 191.345 247.4 191.096C247.83 190.847 248.176 190.484 248.437 190.008C248.709 189.521 248.845 188.954 248.845 188.308ZM255.283 184.993C255.567 184.517 255.941 184.149 256.405 183.888C256.881 183.616 257.442 183.48 258.088 183.48V185.486H257.595C256.836 185.486 256.258 185.679 255.861 186.064C255.476 186.449 255.283 187.118 255.283 188.07V193H253.345V183.633H255.283V184.993ZM268.455 188.087C268.455 188.438 268.432 188.756 268.387 189.039H261.23C261.286 189.787 261.564 190.388 262.063 190.841C262.561 191.294 263.173 191.521 263.899 191.521C264.941 191.521 265.678 191.085 266.109 190.212H268.2C267.916 191.073 267.401 191.782 266.653 192.337C265.916 192.881 264.998 193.153 263.899 193.153C263.003 193.153 262.199 192.955 261.485 192.558C260.782 192.15 260.227 191.583 259.819 190.858C259.422 190.121 259.224 189.271 259.224 188.308C259.224 187.345 259.416 186.5 259.802 185.775C260.198 185.038 260.748 184.472 261.451 184.075C262.165 183.678 262.981 183.48 263.899 183.48C264.783 183.48 265.57 183.673 266.262 184.058C266.953 184.443 267.491 184.987 267.877 185.69C268.262 186.381 268.455 187.18 268.455 188.087ZM266.432 187.475C266.42 186.761 266.165 186.189 265.667 185.758C265.168 185.327 264.55 185.112 263.814 185.112C263.145 185.112 262.573 185.327 262.097 185.758C261.621 186.177 261.337 186.75 261.247 187.475H266.432ZM275.088 183.48C275.825 183.48 276.482 183.633 277.06 183.939C277.649 184.245 278.108 184.698 278.437 185.299C278.766 185.9 278.93 186.625 278.93 187.475V193H277.009V187.764C277.009 186.925 276.799 186.285 276.38 185.843C275.961 185.39 275.388 185.163 274.663 185.163C273.938 185.163 273.36 185.39 272.929 185.843C272.51 186.285 272.3 186.925 272.3 187.764V193H270.362V183.633H272.3V184.704C272.617 184.319 273.02 184.018 273.507 183.803C274.006 183.588 274.533 183.48 275.088 183.48ZM280.756 188.274C280.756 187.333 280.949 186.5 281.334 185.775C281.731 185.05 282.263 184.489 282.932 184.092C283.612 183.684 284.36 183.48 285.176 183.48C285.913 183.48 286.553 183.627 287.097 183.922C287.652 184.205 288.094 184.562 288.423 184.993V183.633H290.378V193H288.423V191.606C288.094 192.048 287.647 192.416 287.08 192.711C286.513 193.006 285.867 193.153 285.142 193.153C284.337 193.153 283.601 192.949 282.932 192.541C282.263 192.122 281.731 191.544 281.334 190.807C280.949 190.059 280.756 189.215 280.756 188.274ZM288.423 188.308C288.423 187.662 288.287 187.101 288.015 186.625C287.754 186.149 287.409 185.786 286.978 185.537C286.547 185.288 286.083 185.163 285.584 185.163C285.085 185.163 284.621 185.288 284.19 185.537C283.759 185.775 283.408 186.132 283.136 186.608C282.875 187.073 282.745 187.628 282.745 188.274C282.745 188.92 282.875 189.487 283.136 189.974C283.408 190.461 283.759 190.835 284.19 191.096C284.632 191.345 285.097 191.47 285.584 191.47C286.083 191.47 286.547 191.345 286.978 191.096C287.409 190.847 287.754 190.484 288.015 190.008C288.287 189.521 288.423 188.954 288.423 188.308ZM296.697 183.48C297.423 183.48 298.063 183.627 298.618 183.922C299.185 184.205 299.627 184.562 299.944 184.993V183.633H301.899V193.153C301.899 194.014 301.718 194.779 301.355 195.448C300.993 196.128 300.466 196.661 299.774 197.046C299.094 197.431 298.278 197.624 297.326 197.624C296.057 197.624 295.003 197.324 294.164 196.723C293.326 196.134 292.85 195.329 292.736 194.309H294.657C294.805 194.796 295.116 195.187 295.592 195.482C296.08 195.788 296.658 195.941 297.326 195.941C298.108 195.941 298.737 195.703 299.213 195.227C299.701 194.751 299.944 194.06 299.944 193.153V191.589C299.616 192.031 299.168 192.405 298.601 192.711C298.046 193.006 297.411 193.153 296.697 193.153C295.881 193.153 295.133 192.949 294.453 192.541C293.785 192.122 293.252 191.544 292.855 190.807C292.47 190.059 292.277 189.215 292.277 188.274C292.277 187.333 292.47 186.5 292.855 185.775C293.252 185.05 293.785 184.489 294.453 184.092C295.133 183.684 295.881 183.48 296.697 183.48ZM299.944 188.308C299.944 187.662 299.808 187.101 299.536 186.625C299.276 186.149 298.93 185.786 298.499 185.537C298.069 185.288 297.604 185.163 297.105 185.163C296.607 185.163 296.142 185.288 295.711 185.537C295.281 185.775 294.929 186.132 294.657 186.608C294.397 187.073 294.266 187.628 294.266 188.274C294.266 188.92 294.397 189.487 294.657 189.974C294.929 190.461 295.281 190.835 295.711 191.096C296.153 191.345 296.618 191.47 297.105 191.47C297.604 191.47 298.069 191.345 298.499 191.096C298.93 190.847 299.276 190.484 299.536 190.008C299.808 189.521 299.944 188.954 299.944 188.308ZM313.03 188.087C313.03 188.438 313.007 188.756 312.962 189.039H305.805C305.862 189.787 306.139 190.388 306.638 190.841C307.137 191.294 307.749 191.521 308.474 191.521C309.517 191.521 310.253 191.085 310.684 190.212H312.775C312.492 191.073 311.976 191.782 311.228 192.337C310.491 192.881 309.573 193.153 308.474 193.153C307.579 193.153 306.774 192.955 306.06 192.558C305.357 192.15 304.802 191.583 304.394 190.858C303.997 190.121 303.799 189.271 303.799 188.308C303.799 187.345 303.992 186.5 304.377 185.775C304.774 185.038 305.323 184.472 306.026 184.075C306.74 183.678 307.556 183.48 308.474 183.48C309.358 183.48 310.146 183.673 310.837 184.058C311.528 184.443 312.067 184.987 312.452 185.69C312.837 186.381 313.03 187.18 313.03 188.087ZM311.007 187.475C310.996 186.761 310.741 186.189 310.242 185.758C309.743 185.327 309.126 185.112 308.389 185.112C307.72 185.112 307.148 185.327 306.672 185.758C306.196 186.177 305.913 186.75 305.822 187.475H311.007ZM326.276 183.48C327.013 183.48 327.67 183.633 328.248 183.939C328.837 184.245 329.296 184.698 329.625 185.299C329.965 185.9 330.135 186.625 330.135 187.475V193H328.214V187.764C328.214 186.925 328.004 186.285 327.585 185.843C327.166 185.39 326.593 185.163 325.868 185.163C325.143 185.163 324.565 185.39 324.134 185.843C323.715 186.285 323.505 186.925 323.505 187.764V193H321.584V187.764C321.584 186.925 321.374 186.285 320.955 185.843C320.536 185.39 319.963 185.163 319.238 185.163C318.513 185.163 317.935 185.39 317.504 185.843C317.085 186.285 316.875 186.925 316.875 187.764V193H314.937V183.633H316.875V184.704C317.192 184.319 317.595 184.018 318.082 183.803C318.569 183.588 319.091 183.48 319.646 183.48C320.394 183.48 321.063 183.639 321.652 183.956C322.241 184.273 322.695 184.732 323.012 185.333C323.295 184.766 323.737 184.319 324.338 183.99C324.939 183.65 325.585 183.48 326.276 183.48ZM336.371 188.274C336.371 187.333 336.564 186.5 336.949 185.775C337.346 185.05 337.879 184.489 338.547 184.092C339.227 183.684 339.981 183.48 340.808 183.48C341.534 183.48 342.174 183.627 342.729 183.922C343.296 184.217 343.732 184.574 344.038 184.993V183.633H345.993V197.454H344.038V191.64C343.732 192.059 343.29 192.416 342.712 192.711C342.134 193.006 341.477 193.153 340.74 193.153C339.936 193.153 339.199 192.949 338.53 192.541C337.873 192.122 337.346 191.544 336.949 190.807C336.564 190.059 336.371 189.215 336.371 188.274ZM344.038 188.308C344.038 187.662 343.902 187.101 343.63 186.625C343.37 186.149 343.024 185.786 342.593 185.537C342.163 185.288 341.698 185.163 341.199 185.163C340.701 185.163 340.236 185.288 339.805 185.537C339.375 185.775 339.023 186.132 338.751 186.608C338.491 187.073 338.36 187.628 338.36 188.274C338.36 188.92 338.491 189.487 338.751 189.974C339.023 190.461 339.375 190.835 339.805 191.096C340.247 191.345 340.712 191.47 341.199 191.47C341.698 191.47 342.163 191.345 342.593 191.096C343.024 190.847 343.37 190.484 343.63 190.008C343.902 189.521 344.038 188.954 344.038 188.308ZM357.022 183.633V193H355.084V191.895C354.778 192.28 354.375 192.586 353.877 192.813C353.389 193.028 352.868 193.136 352.313 193.136C351.576 193.136 350.913 192.983 350.324 192.677C349.746 192.371 349.287 191.918 348.947 191.317C348.618 190.716 348.454 189.991 348.454 189.141V183.633H350.375V188.852C350.375 189.691 350.584 190.337 351.004 190.79C351.423 191.232 351.995 191.453 352.721 191.453C353.446 191.453 354.018 191.232 354.438 190.79C354.868 190.337 355.084 189.691 355.084 188.852V183.633H357.022ZM368.164 188.087C368.164 188.438 368.141 188.756 368.096 189.039H360.939C360.995 189.787 361.273 190.388 361.772 190.841C362.27 191.294 362.882 191.521 363.608 191.521C364.65 191.521 365.387 191.085 365.818 190.212H367.909C367.625 191.073 367.11 191.782 366.362 192.337C365.625 192.881 364.707 193.153 363.608 193.153C362.712 193.153 361.908 192.955 361.194 192.558C360.491 192.15 359.936 191.583 359.528 190.858C359.131 190.121 358.933 189.271 358.933 188.308C358.933 187.345 359.125 186.5 359.511 185.775C359.907 185.038 360.457 184.472 361.16 184.075C361.874 183.678 362.69 183.48 363.608 183.48C364.492 183.48 365.279 183.673 365.971 184.058C366.662 184.443 367.2 184.987 367.586 185.69C367.971 186.381 368.164 187.18 368.164 188.087ZM366.141 187.475C366.129 186.761 365.874 186.189 365.376 185.758C364.877 185.327 364.259 185.112 363.523 185.112C362.854 185.112 362.282 185.327 361.806 185.758C361.33 186.177 361.046 186.75 360.956 187.475H366.141ZM385.826 183.48C386.563 183.48 387.22 183.633 387.798 183.939C388.387 184.245 388.846 184.698 389.175 185.299C389.515 185.9 389.685 186.625 389.685 187.475V193H387.764V187.764C387.764 186.925 387.554 186.285 387.135 185.843C386.716 185.39 386.143 185.163 385.418 185.163C384.693 185.163 384.115 185.39 383.684 185.843C383.265 186.285 383.055 186.925 383.055 187.764V193H381.134V187.764C381.134 186.925 380.924 186.285 380.505 185.843C380.086 185.39 379.513 185.163 378.788 185.163C378.063 185.163 377.485 185.39 377.054 185.843C376.635 186.285 376.425 186.925 376.425 187.764V193H374.487V183.633H376.425V184.704C376.742 184.319 377.145 184.018 377.632 183.803C378.119 183.588 378.641 183.48 379.196 183.48C379.944 183.48 380.613 183.639 381.202 183.956C381.791 184.273 382.245 184.732 382.562 185.333C382.845 184.766 383.287 184.319 383.888 183.99C384.489 183.65 385.135 183.48 385.826 183.48ZM391.505 188.274C391.505 187.333 391.698 186.5 392.083 185.775C392.48 185.05 393.012 184.489 393.681 184.092C394.361 183.684 395.109 183.48 395.925 183.48C396.662 183.48 397.302 183.627 397.846 183.922C398.401 184.205 398.843 184.562 399.172 184.993V183.633H401.127V193H399.172V191.606C398.843 192.048 398.396 192.416 397.829 192.711C397.262 193.006 396.616 193.153 395.891 193.153C395.086 193.153 394.35 192.949 393.681 192.541C393.012 192.122 392.48 191.544 392.083 190.807C391.698 190.059 391.505 189.215 391.505 188.274ZM399.172 188.308C399.172 187.662 399.036 187.101 398.764 186.625C398.503 186.149 398.158 185.786 397.727 185.537C397.296 185.288 396.832 185.163 396.333 185.163C395.834 185.163 395.37 185.288 394.939 185.537C394.508 185.775 394.157 186.132 393.885 186.608C393.624 187.073 393.494 187.628 393.494 188.274C393.494 188.92 393.624 189.487 393.885 189.974C394.157 190.461 394.508 190.835 394.939 191.096C395.381 191.345 395.846 191.47 396.333 191.47C396.832 191.47 397.296 191.345 397.727 191.096C398.158 190.847 398.503 190.484 398.764 190.008C399.036 189.521 399.172 188.954 399.172 188.308ZM408.398 183.48C409.135 183.48 409.792 183.633 410.37 183.939C410.96 184.245 411.419 184.698 411.747 185.299C412.076 185.9 412.24 186.625 412.24 187.475V193H410.319V187.764C410.319 186.925 410.11 186.285 409.69 185.843C409.271 185.39 408.699 185.163 407.973 185.163C407.248 185.163 406.67 185.39 406.239 185.843C405.82 186.285 405.61 186.925 405.61 187.764V193H403.672V183.633H405.61V184.704C405.928 184.319 406.33 184.018 406.817 183.803C407.316 183.588 407.843 183.48 408.398 183.48ZM416.974 185.214V190.399C416.974 190.75 417.053 191.005 417.212 191.164C417.382 191.311 417.665 191.385 418.062 191.385H419.252V193H417.722C416.849 193 416.18 192.796 415.716 192.388C415.251 191.98 415.019 191.317 415.019 190.399V185.214H413.914V183.633H415.019V181.304H416.974V183.633H419.252V185.214H416.974ZM429.623 188.087C429.623 188.438 429.6 188.756 429.555 189.039H422.398C422.454 189.787 422.732 190.388 423.231 190.841C423.729 191.294 424.341 191.521 425.067 191.521C426.109 191.521 426.846 191.085 427.277 190.212H429.368C429.084 191.073 428.569 191.782 427.821 192.337C427.084 192.881 426.166 193.153 425.067 193.153C424.171 193.153 423.367 192.955 422.653 192.558C421.95 192.15 421.395 191.583 420.987 190.858C420.59 190.121 420.392 189.271 420.392 188.308C420.392 187.345 420.584 186.5 420.97 185.775C421.366 185.038 421.916 184.472 422.619 184.075C423.333 183.678 424.149 183.48 425.067 183.48C425.951 183.48 426.738 183.673 427.43 184.058C428.121 184.443 428.659 184.987 429.045 185.69C429.43 186.381 429.623 187.18 429.623 188.087ZM427.6 187.475C427.588 186.761 427.333 186.189 426.835 185.758C426.336 185.327 425.718 185.112 424.982 185.112C424.313 185.112 423.741 185.327 423.265 185.758C422.789 186.177 422.505 186.75 422.415 187.475H427.6ZM426.767 181.117L423.01 182.97V181.542L426.767 179.468V181.117ZM442.869 183.48C443.606 183.48 444.263 183.633 444.841 183.939C445.43 184.245 445.889 184.698 446.218 185.299C446.558 185.9 446.728 186.625 446.728 187.475V193H444.807V187.764C444.807 186.925 444.597 186.285 444.178 185.843C443.759 185.39 443.186 185.163 442.461 185.163C441.736 185.163 441.158 185.39 440.727 185.843C440.308 186.285 440.098 186.925 440.098 187.764V193H438.177V187.764C438.177 186.925 437.967 186.285 437.548 185.843C437.129 185.39 436.556 185.163 435.831 185.163C435.106 185.163 434.528 185.39 434.097 185.843C433.678 186.285 433.468 186.925 433.468 187.764V193H431.53V183.633H433.468V184.704C433.785 184.319 434.188 184.018 434.675 183.803C435.162 183.588 435.684 183.48 436.239 183.48C436.987 183.48 437.656 183.639 438.245 183.956C438.834 184.273 439.288 184.732 439.605 185.333C439.888 184.766 440.33 184.319 440.931 183.99C441.532 183.65 442.178 183.48 442.869 183.48ZM452.964 188.274C452.964 187.333 453.157 186.5 453.542 185.775C453.939 185.05 454.471 184.489 455.14 184.092C455.82 183.684 456.568 183.48 457.384 183.48C458.121 183.48 458.761 183.627 459.305 183.922C459.86 184.205 460.302 184.562 460.631 184.993V183.633H462.586V193H460.631V191.606C460.302 192.048 459.855 192.416 459.288 192.711C458.721 193.006 458.075 193.153 457.35 193.153C456.545 193.153 455.809 192.949 455.14 192.541C454.471 192.122 453.939 191.544 453.542 190.807C453.157 190.059 452.964 189.215 452.964 188.274ZM460.631 188.308C460.631 187.662 460.495 187.101 460.223 186.625C459.962 186.149 459.617 185.786 459.186 185.537C458.755 185.288 458.291 185.163 457.792 185.163C457.293 185.163 456.829 185.288 456.398 185.537C455.967 185.775 455.616 186.132 455.344 186.608C455.083 187.073 454.953 187.628 454.953 188.274C454.953 188.92 455.083 189.487 455.344 189.974C455.616 190.461 455.967 190.835 456.398 191.096C456.84 191.345 457.305 191.47 457.792 191.47C458.291 191.47 458.755 191.345 459.186 191.096C459.617 190.847 459.962 190.484 460.223 190.008C460.495 189.521 460.631 188.954 460.631 188.308ZM55.12 209.48C55.834 209.48 56.4687 209.633 57.024 209.939C57.5907 210.245 58.0327 210.698 58.35 211.299C58.6787 211.9 58.843 212.625 58.843 213.475V219H56.922V213.764C56.922 212.925 56.7123 212.285 56.293 211.843C55.8737 211.39 55.3013 211.163 54.576 211.163C53.8507 211.163 53.2727 211.39 52.842 211.843C52.4227 212.285 52.213 212.925 52.213 213.764V219H50.275V206.42H52.213V210.721C52.5417 210.324 52.9553 210.018 53.454 209.803C53.964 209.588 54.5193 209.48 55.12 209.48ZM69.798 209.633V219H67.86V217.895C67.554 218.28 67.1517 218.586 66.653 218.813C66.1657 219.028 65.6444 219.136 65.089 219.136C64.3524 219.136 63.6894 218.983 63.1 218.677C62.522 218.371 62.063 217.918 61.723 217.317C61.3944 216.716 61.23 215.991 61.23 215.141V209.633H63.151V214.852C63.151 215.691 63.3607 216.337 63.78 216.79C64.1994 217.232 64.7717 217.453 65.497 217.453C66.2224 217.453 66.7947 217.232 67.214 216.79C67.6447 216.337 67.86 215.691 67.86 214.852V209.633H69.798ZM83.6941 209.48C84.4307 209.48 85.0881 209.633 85.6661 209.939C86.2554 210.245 86.7144 210.698 87.0431 211.299C87.3831 211.9 87.5531 212.625 87.5531 213.475V219H85.6321V213.764C85.6321 212.925 85.4224 212.285 85.0031 211.843C84.5837 211.39 84.0114 211.163 83.2861 211.163C82.5607 211.163 81.9827 211.39 81.5521 211.843C81.1327 212.285 80.9231 212.925 80.9231 213.764V219H79.0021V213.764C79.0021 212.925 78.7924 212.285 78.3731 211.843C77.9537 211.39 77.3814 211.163 76.6561 211.163C75.9307 211.163 75.3527 211.39 74.9221 211.843C74.5027 212.285 74.2931 212.925 74.2931 213.764V219H72.3551V209.633H74.2931V210.704C74.6104 210.319 75.0127 210.018 75.5001 209.803C75.9874 209.588 76.5087 209.48 77.0641 209.48C77.8121 209.48 78.4807 209.639 79.0701 209.956C79.6594 210.273 80.1127 210.732 80.4301 211.333C80.7134 210.766 81.1554 210.319 81.7561 209.99C82.3567 209.65 83.0027 209.48 83.6941 209.48ZM89.3731 214.274C89.3731 213.333 89.5658 212.5 89.9511 211.775C90.3478 211.05 90.8805 210.489 91.5491 210.092C92.2291 209.684 92.9771 209.48 93.7931 209.48C94.5298 209.48 95.1701 209.627 95.7141 209.922C96.2695 210.205 96.7115 210.562 97.0401 210.993V209.633H98.9951V219H97.0401V217.606C96.7115 218.048 96.2638 218.416 95.6971 218.711C95.1305 219.006 94.4845 219.153 93.7591 219.153C92.9545 219.153 92.2178 218.949 91.5491 218.541C90.8805 218.122 90.3478 217.544 89.9511 216.807C89.5658 216.059 89.3731 215.215 89.3731 214.274ZM97.0401 214.308C97.0401 213.662 96.9041 213.101 96.6321 212.625C96.3715 212.149 96.0258 211.786 95.5951 211.537C95.1645 211.288 94.6998 211.163 94.2011 211.163C93.7025 211.163 93.2378 211.288 92.8071 211.537C92.3765 211.775 92.0251 212.132 91.7531 212.608C91.4925 213.073 91.3621 213.628 91.3621 214.274C91.3621 214.92 91.4925 215.487 91.7531 215.974C92.0251 216.461 92.3765 216.835 92.8071 217.096C93.2491 217.345 93.7138 217.47 94.2011 217.47C94.6998 217.47 95.1645 217.345 95.5951 217.096C96.0258 216.847 96.3715 216.484 96.6321 216.008C96.9041 215.521 97.0401 214.954 97.0401 214.308ZM106.267 209.48C107.003 209.48 107.661 209.633 108.239 209.939C108.828 210.245 109.287 210.698 109.616 211.299C109.944 211.9 110.109 212.625 110.109 213.475V219H108.188V213.764C108.188 212.925 107.978 212.285 107.559 211.843C107.139 211.39 106.567 211.163 105.842 211.163C105.116 211.163 104.538 211.39 104.108 211.843C103.688 212.285 103.479 212.925 103.479 213.764V219H101.541V209.633H103.479V210.704C103.796 210.319 104.198 210.018 104.686 209.803C105.184 209.588 105.711 209.48 106.267 209.48ZM113.567 208.392C113.215 208.392 112.921 208.273 112.683 208.035C112.445 207.797 112.326 207.502 112.326 207.151C112.326 206.8 112.445 206.505 112.683 206.267C112.921 206.029 113.215 205.91 113.567 205.91C113.907 205.91 114.196 206.029 114.434 206.267C114.672 206.505 114.791 206.8 114.791 207.151C114.791 207.502 114.672 207.797 114.434 208.035C114.196 208.273 113.907 208.392 113.567 208.392ZM114.519 209.633V219H112.581V209.633H114.519ZM116.417 214.274C116.417 213.333 116.61 212.5 116.995 211.775C117.392 211.05 117.924 210.489 118.593 210.092C119.273 209.684 120.027 209.48 120.854 209.48C121.466 209.48 122.067 209.616 122.656 209.888C123.257 210.149 123.733 210.5 124.084 210.942V206.42H126.039V219H124.084V217.589C123.767 218.042 123.325 218.416 122.758 218.711C122.203 219.006 121.562 219.153 120.837 219.153C120.021 219.153 119.273 218.949 118.593 218.541C117.924 218.122 117.392 217.544 116.995 216.807C116.61 216.059 116.417 215.215 116.417 214.274ZM124.084 214.308C124.084 213.662 123.948 213.101 123.676 212.625C123.415 212.149 123.07 211.786 122.639 211.537C122.208 211.288 121.744 211.163 121.245 211.163C120.746 211.163 120.282 211.288 119.851 211.537C119.42 211.775 119.069 212.132 118.797 212.608C118.536 213.073 118.406 213.628 118.406 214.274C118.406 214.92 118.536 215.487 118.797 215.974C119.069 216.461 119.42 216.835 119.851 217.096C120.293 217.345 120.758 217.47 121.245 217.47C121.744 217.47 122.208 217.345 122.639 217.096C123.07 216.847 123.415 216.484 123.676 216.008C123.948 215.521 124.084 214.954 124.084 214.308ZM127.939 214.274C127.939 213.333 128.131 212.5 128.517 211.775C128.913 211.05 129.446 210.489 130.115 210.092C130.795 209.684 131.543 209.48 132.359 209.48C133.095 209.48 133.736 209.627 134.28 209.922C134.835 210.205 135.277 210.562 135.606 210.993V209.633H137.561V219H135.606V217.606C135.277 218.048 134.829 218.416 134.263 218.711C133.696 219.006 133.05 219.153 132.325 219.153C131.52 219.153 130.783 218.949 130.115 218.541C129.446 218.122 128.913 217.544 128.517 216.807C128.131 216.059 127.939 215.215 127.939 214.274ZM135.606 214.308C135.606 213.662 135.47 213.101 135.198 212.625C134.937 212.149 134.591 211.786 134.161 211.537C133.73 211.288 133.265 211.163 132.767 211.163C132.268 211.163 131.803 211.288 131.373 211.537C130.942 211.775 130.591 212.132 130.319 212.608C130.058 213.073 129.928 213.628 129.928 214.274C129.928 214.92 130.058 215.487 130.319 215.974C130.591 216.461 130.942 216.835 131.373 217.096C131.815 217.345 132.279 217.47 132.767 217.47C133.265 217.47 133.73 217.345 134.161 217.096C134.591 216.847 134.937 216.484 135.198 216.008C135.47 215.521 135.606 214.954 135.606 214.308ZM139.46 214.274C139.46 213.333 139.653 212.5 140.038 211.775C140.435 211.05 140.967 210.489 141.636 210.092C142.316 209.684 143.07 209.48 143.897 209.48C144.509 209.48 145.11 209.616 145.699 209.888C146.3 210.149 146.776 210.5 147.127 210.942V206.42H149.082V219H147.127V217.589C146.81 218.042 146.368 218.416 145.801 218.711C145.246 219.006 144.605 219.153 143.88 219.153C143.064 219.153 142.316 218.949 141.636 218.541C140.967 218.122 140.435 217.544 140.038 216.807C139.653 216.059 139.46 215.215 139.46 214.274ZM147.127 214.308C147.127 213.662 146.991 213.101 146.719 212.625C146.458 212.149 146.113 211.786 145.682 211.537C145.251 211.288 144.787 211.163 144.288 211.163C143.789 211.163 143.325 211.288 142.894 211.537C142.463 211.775 142.112 212.132 141.84 212.608C141.579 213.073 141.449 213.628 141.449 214.274C141.449 214.92 141.579 215.487 141.84 215.974C142.112 216.461 142.463 216.835 142.894 217.096C143.336 217.345 143.801 217.47 144.288 217.47C144.787 217.47 145.251 217.345 145.682 217.096C146.113 216.847 146.458 216.484 146.719 216.008C146.991 215.521 147.127 214.954 147.127 214.308ZM160.213 214.087C160.213 214.438 160.19 214.756 160.145 215.039H152.988C153.044 215.787 153.322 216.388 153.821 216.841C154.319 217.294 154.931 217.521 155.657 217.521C156.699 217.521 157.436 217.085 157.867 216.212H159.958C159.674 217.073 159.159 217.782 158.411 218.337C157.674 218.881 156.756 219.153 155.657 219.153C154.761 219.153 153.957 218.955 153.243 218.558C152.54 218.15 151.985 217.583 151.577 216.858C151.18 216.121 150.982 215.271 150.982 214.308C150.982 213.345 151.174 212.5 151.56 211.775C151.956 211.038 152.506 210.472 153.209 210.075C153.923 209.678 154.739 209.48 155.657 209.48C156.541 209.48 157.328 209.673 158.02 210.058C158.711 210.443 159.249 210.987 159.635 211.69C160.02 212.381 160.213 213.18 160.213 214.087ZM158.19 213.475C158.178 212.761 157.923 212.189 157.425 211.758C156.926 211.327 156.308 211.112 155.572 211.112C154.903 211.112 154.331 211.327 153.855 211.758C153.379 212.177 153.095 212.75 153.005 213.475H158.19ZM175.121 214.087C175.121 214.438 175.098 214.756 175.053 215.039H167.896C167.952 215.787 168.23 216.388 168.729 216.841C169.227 217.294 169.839 217.521 170.565 217.521C171.607 217.521 172.344 217.085 172.775 216.212H174.866C174.582 217.073 174.067 217.782 173.319 218.337C172.582 218.881 171.664 219.153 170.565 219.153C169.669 219.153 168.865 218.955 168.151 218.558C167.448 218.15 166.893 217.583 166.485 216.858C166.088 216.121 165.89 215.271 165.89 214.308C165.89 213.345 166.082 212.5 166.468 211.775C166.864 211.038 167.414 210.472 168.117 210.075C168.831 209.678 169.647 209.48 170.565 209.48C171.449 209.48 172.236 209.673 172.928 210.058C173.619 210.443 174.157 210.987 174.543 211.69C174.928 212.381 175.121 213.18 175.121 214.087ZM173.098 213.475C173.086 212.761 172.831 212.189 172.333 211.758C171.834 211.327 171.216 211.112 170.48 211.112C169.811 211.112 169.239 211.327 168.763 211.758C168.287 212.177 168.003 212.75 167.913 213.475H173.098ZM188.367 209.48C189.104 209.48 189.761 209.633 190.339 209.939C190.928 210.245 191.387 210.698 191.716 211.299C192.056 211.9 192.226 212.625 192.226 213.475V219H190.305V213.764C190.305 212.925 190.095 212.285 189.676 211.843C189.257 211.39 188.684 211.163 187.959 211.163C187.234 211.163 186.656 211.39 186.225 211.843C185.806 212.285 185.596 212.925 185.596 213.764V219H183.675V213.764C183.675 212.925 183.465 212.285 183.046 211.843C182.627 211.39 182.054 211.163 181.329 211.163C180.604 211.163 180.026 211.39 179.595 211.843C179.176 212.285 178.966 212.925 178.966 213.764V219H177.028V209.633H178.966V210.704C179.283 210.319 179.686 210.018 180.173 209.803C180.66 209.588 181.182 209.48 181.737 209.48C182.485 209.48 183.154 209.639 183.743 209.956C184.332 210.273 184.786 210.732 185.103 211.333C185.386 210.766 185.828 210.319 186.429 209.99C187.03 209.65 187.676 209.48 188.367 209.48ZM210.447 209.48C211.184 209.48 211.841 209.633 212.419 209.939C213.008 210.245 213.467 210.698 213.796 211.299C214.136 211.9 214.306 212.625 214.306 213.475V219H212.385V213.764C212.385 212.925 212.175 212.285 211.756 211.843C211.337 211.39 210.764 211.163 210.039 211.163C209.314 211.163 208.736 211.39 208.305 211.843C207.886 212.285 207.676 212.925 207.676 213.764V219H205.755V213.764C205.755 212.925 205.545 212.285 205.126 211.843C204.707 211.39 204.134 211.163 203.409 211.163C202.684 211.163 202.106 211.39 201.675 211.843C201.256 212.285 201.046 212.925 201.046 213.764V219H199.108V209.633H201.046V210.704C201.363 210.319 201.766 210.018 202.253 209.803C202.74 209.588 203.262 209.48 203.817 209.48C204.565 209.48 205.234 209.639 205.823 209.956C206.412 210.273 206.866 210.732 207.183 211.333C207.466 210.766 207.908 210.319 208.509 209.99C209.11 209.65 209.756 209.48 210.447 209.48ZM220.835 219.153C219.951 219.153 219.152 218.955 218.438 218.558C217.724 218.15 217.163 217.583 216.755 216.858C216.347 216.121 216.143 215.271 216.143 214.308C216.143 213.356 216.353 212.512 216.772 211.775C217.191 211.038 217.764 210.472 218.489 210.075C219.214 209.678 220.025 209.48 220.92 209.48C221.815 209.48 222.626 209.678 223.351 210.075C224.076 210.472 224.649 211.038 225.068 211.775C225.487 212.512 225.697 213.356 225.697 214.308C225.697 215.26 225.482 216.104 225.051 216.841C224.62 217.578 224.031 218.15 223.283 218.558C222.546 218.955 221.73 219.153 220.835 219.153ZM220.835 217.47C221.334 217.47 221.798 217.351 222.229 217.113C222.671 216.875 223.028 216.518 223.3 216.042C223.572 215.566 223.708 214.988 223.708 214.308C223.708 213.628 223.578 213.056 223.317 212.591C223.056 212.115 222.711 211.758 222.28 211.52C221.849 211.282 221.385 211.163 220.886 211.163C220.387 211.163 219.923 211.282 219.492 211.52C219.073 211.758 218.738 212.115 218.489 212.591C218.24 213.056 218.115 213.628 218.115 214.308C218.115 215.317 218.37 216.099 218.88 216.654C219.401 217.198 220.053 217.47 220.835 217.47ZM231.234 217.266L233.886 209.633H235.943L232.373 219H230.061L226.508 209.633H228.582L231.234 217.266ZM238.394 208.392C238.042 208.392 237.748 208.273 237.51 208.035C237.272 207.797 237.153 207.502 237.153 207.151C237.153 206.8 237.272 206.505 237.51 206.267C237.748 206.029 238.042 205.91 238.394 205.91C238.734 205.91 239.023 206.029 239.261 206.267C239.499 206.505 239.618 206.8 239.618 207.151C239.618 207.502 239.499 207.797 239.261 208.035C239.023 208.273 238.734 208.392 238.394 208.392ZM239.346 209.633V219H237.408V209.633H239.346ZM253.229 209.48C253.966 209.48 254.623 209.633 255.201 209.939C255.791 210.245 256.25 210.698 256.578 211.299C256.918 211.9 257.088 212.625 257.088 213.475V219H255.167V213.764C255.167 212.925 254.958 212.285 254.538 211.843C254.119 211.39 253.547 211.163 252.821 211.163C252.096 211.163 251.518 211.39 251.087 211.843C250.668 212.285 250.458 212.925 250.458 213.764V219H248.537V213.764C248.537 212.925 248.328 212.285 247.908 211.843C247.489 211.39 246.917 211.163 246.191 211.163C245.466 211.163 244.888 211.39 244.457 211.843C244.038 212.285 243.828 212.925 243.828 213.764V219H241.89V209.633H243.828V210.704C244.146 210.319 244.548 210.018 245.035 209.803C245.523 209.588 246.044 209.48 246.599 209.48C247.347 209.48 248.016 209.639 248.605 209.956C249.195 210.273 249.648 210.732 249.965 211.333C250.249 210.766 250.691 210.319 251.291 209.99C251.892 209.65 252.538 209.48 253.229 209.48ZM268.139 214.087C268.139 214.438 268.117 214.756 268.071 215.039H260.914C260.971 215.787 261.249 216.388 261.747 216.841C262.246 217.294 262.858 217.521 263.583 217.521C264.626 217.521 265.363 217.085 265.793 216.212H267.884C267.601 217.073 267.085 217.782 266.337 218.337C265.601 218.881 264.683 219.153 263.583 219.153C262.688 219.153 261.883 218.955 261.169 218.558C260.467 218.15 259.911 217.583 259.503 216.858C259.107 216.121 258.908 215.271 258.908 214.308C258.908 213.345 259.101 212.5 259.486 211.775C259.883 211.038 260.433 210.472 261.135 210.075C261.849 209.678 262.665 209.48 263.583 209.48C264.467 209.48 265.255 209.673 265.946 210.058C266.638 210.443 267.176 210.987 267.561 211.69C267.947 212.381 268.139 213.18 268.139 214.087ZM266.116 213.475C266.105 212.761 265.85 212.189 265.351 211.758C264.853 211.327 264.235 211.112 263.498 211.112C262.83 211.112 262.257 211.327 261.781 211.758C261.305 212.177 261.022 212.75 260.931 213.475H266.116ZM274.772 209.48C275.509 209.48 276.166 209.633 276.744 209.939C277.334 210.245 277.793 210.698 278.121 211.299C278.45 211.9 278.614 212.625 278.614 213.475V219H276.693V213.764C276.693 212.925 276.484 212.285 276.064 211.843C275.645 211.39 275.073 211.163 274.347 211.163C273.622 211.163 273.044 211.39 272.613 211.843C272.194 212.285 271.984 212.925 271.984 213.764V219H270.046V209.633H271.984V210.704C272.302 210.319 272.704 210.018 273.191 209.803C273.69 209.588 274.217 209.48 274.772 209.48ZM283.348 211.214V216.399C283.348 216.75 283.427 217.005 283.586 217.164C283.756 217.311 284.039 217.385 284.436 217.385H285.626V219H284.096C283.223 219 282.554 218.796 282.09 218.388C281.625 217.98 281.393 217.317 281.393 216.399V211.214H280.288V209.633H281.393V207.304H283.348V209.633H285.626V211.214H283.348ZM291.475 219.153C290.591 219.153 289.792 218.955 289.078 218.558C288.364 218.15 287.803 217.583 287.395 216.858C286.987 216.121 286.783 215.271 286.783 214.308C286.783 213.356 286.992 212.512 287.412 211.775C287.831 211.038 288.403 210.472 289.129 210.075C289.854 209.678 290.664 209.48 291.56 209.48C292.455 209.48 293.265 209.678 293.991 210.075C294.716 210.472 295.288 211.038 295.708 211.775C296.127 212.512 296.337 213.356 296.337 214.308C296.337 215.26 296.121 216.104 295.691 216.841C295.26 217.578 294.671 218.15 293.923 218.558C293.186 218.955 292.37 219.153 291.475 219.153ZM291.475 217.47C291.973 217.47 292.438 217.351 292.869 217.113C293.311 216.875 293.668 216.518 293.94 216.042C294.212 215.566 294.348 214.988 294.348 214.308C294.348 213.628 294.217 213.056 293.957 212.591C293.696 212.115 293.35 211.758 292.92 211.52C292.489 211.282 292.024 211.163 291.526 211.163C291.027 211.163 290.562 211.282 290.132 211.52C289.712 211.758 289.378 212.115 289.129 212.591C288.879 213.056 288.755 213.628 288.755 214.308C288.755 215.317 289.01 216.099 289.52 216.654C290.041 217.198 290.693 217.47 291.475 217.47ZM299.035 219.119C298.683 219.119 298.389 219 298.151 218.762C297.913 218.524 297.794 218.229 297.794 217.878C297.794 217.527 297.913 217.232 298.151 216.994C298.389 216.756 298.683 216.637 299.035 216.637C299.375 216.637 299.664 216.756 299.902 216.994C300.14 217.232 300.259 217.527 300.259 217.878C300.259 218.229 300.14 218.524 299.902 218.762C299.664 219 299.375 219.119 299.035 219.119Z" fill="#0076AC"/>
<path d="M60.31 118.99V124H47.17V105.19H60.04V110.08H52.72V112.21H58.93V116.77H52.72V118.99H60.31ZM67.3907 124H61.9907V109.18H66.6407L66.8507 110.74H66.9707C67.5707 110.1 68.2307 109.63 68.9507 109.33C69.6707 109.03 70.5207 108.88 71.5007 108.88C73.0607 108.88 74.2407 109.29 75.0407 110.11C75.8407 110.93 76.2407 112.14 76.2407 113.74V124H70.8407V114.85C70.8407 114.49 70.7107 114.22 70.4507 114.04C70.2107 113.84 69.8407 113.74 69.3407 113.74C69.0007 113.74 68.6707 113.78 68.3507 113.86C68.0307 113.92 67.7107 114.02 67.3907 114.16V124ZM85.1212 128.86C84.0412 128.86 83.0012 128.79 82.0012 128.65C81.0012 128.51 80.1912 128.33 79.5712 128.11V123.7C80.0712 123.82 80.8112 123.92 81.7912 124C82.7912 124.1 83.7712 124.15 84.7312 124.15C85.6112 124.15 86.2112 124.04 86.5312 123.82C86.8512 123.58 87.0312 123.16 87.0712 122.56V121.75C86.3712 122.07 85.6712 122.32 84.9712 122.5C84.2912 122.66 83.6312 122.74 82.9912 122.74C81.0912 122.74 79.7512 122.23 78.9712 121.21C78.1912 120.17 77.8012 118.41 77.8012 115.93C77.8012 113.41 78.3812 111.61 79.5412 110.53C80.7212 109.43 82.6512 108.88 85.3312 108.88C86.4312 108.88 87.7212 108.94 89.2012 109.06C90.7012 109.18 91.7912 109.31 92.4712 109.45V120.82C92.4712 123.8 91.9312 125.88 90.8512 127.06C89.7712 128.26 87.8612 128.86 85.1212 128.86ZM85.2112 113.68C84.2912 113.68 83.7112 113.8 83.4712 114.04C83.2312 114.28 83.1112 114.9 83.1112 115.9C83.1112 116.82 83.2112 117.4 83.4112 117.64C83.6312 117.88 84.1112 118 84.8512 118C85.1712 118 85.5212 117.97 85.9012 117.91C86.2812 117.83 86.6712 117.72 87.0712 117.58V113.8C86.6912 113.76 86.3512 113.73 86.0512 113.71C85.7712 113.69 85.4912 113.68 85.2112 113.68ZM99.8809 124H94.4809V109.18H99.5209L99.7009 110.32H99.7609C100.381 109.86 100.991 109.51 101.591 109.27C102.211 109.03 102.811 108.91 103.391 108.91H103.901V114.13C103.441 114.09 103.131 114.07 102.971 114.07C102.831 114.05 102.681 114.04 102.521 114.04C102.021 114.04 101.551 114.07 101.111 114.13C100.671 114.19 100.261 114.28 99.8809 114.4V124ZM117.687 119.17V123.28C117.127 123.56 116.257 123.8 115.077 124C113.917 124.22 112.707 124.33 111.447 124.33C109.027 124.33 107.277 123.73 106.197 122.53C105.137 121.31 104.607 119.34 104.607 116.62C104.607 113.96 105.177 112.01 106.317 110.77C107.477 109.51 109.277 108.88 111.717 108.88C114.077 108.88 115.767 109.35 116.787 110.29C117.807 111.21 118.317 112.79 118.317 115.03C118.317 115.71 118.307 116.26 118.287 116.68C118.267 117.08 118.227 117.54 118.167 118.06H109.947C109.967 118.7 110.147 119.14 110.487 119.38C110.827 119.6 111.437 119.71 112.317 119.71C113.277 119.71 114.257 119.66 115.257 119.56C116.277 119.44 117.087 119.31 117.687 119.17ZM111.777 113.14C111.097 113.14 110.617 113.28 110.337 113.56C110.077 113.82 109.947 114.35 109.947 115.15H113.517V114.46C113.477 113.94 113.337 113.59 113.097 113.41C112.877 113.23 112.437 113.14 111.777 113.14ZM125.34 124H119.94V109.18H124.59L124.8 110.74H124.92C125.52 110.1 126.18 109.63 126.9 109.33C127.62 109.03 128.47 108.88 129.45 108.88C131.01 108.88 132.19 109.29 132.99 110.11C133.79 110.93 134.19 112.14 134.19 113.74V124H128.79V114.85C128.79 114.49 128.66 114.22 128.4 114.04C128.16 113.84 127.79 113.74 127.29 113.74C126.95 113.74 126.62 113.78 126.3 113.86C125.98 113.92 125.66 114.02 125.34 114.16V124ZM139.68 124.33C138.24 124.33 137.19 123.95 136.53 123.19C135.87 122.43 135.54 121.24 135.54 119.62C135.54 118.02 135.95 116.88 136.77 116.2C137.61 115.52 139 115.18 140.94 115.18C141.4 115.18 141.86 115.2 142.32 115.24C142.8 115.28 143.22 115.33 143.58 115.39V114.64C143.58 114.24 143.39 113.96 143.01 113.8C142.63 113.62 142.01 113.53 141.15 113.53C140.33 113.53 139.58 113.55 138.9 113.59C138.24 113.63 137.57 113.71 136.89 113.83V109.42C137.63 109.24 138.52 109.11 139.56 109.03C140.62 108.93 141.83 108.88 143.19 108.88C145.07 108.88 146.5 109.3 147.48 110.14C148.48 110.96 148.98 112.17 148.98 113.77V124H143.88L143.73 122.83H143.64C143.04 123.33 142.4 123.71 141.72 123.97C141.06 124.21 140.38 124.33 139.68 124.33ZM141.81 118.24C141.29 118.24 140.92 118.32 140.7 118.48C140.5 118.62 140.4 118.89 140.4 119.29C140.4 119.69 140.48 119.97 140.64 120.13C140.82 120.27 141.12 120.34 141.54 120.34C141.88 120.34 142.23 120.31 142.59 120.25C142.97 120.17 143.3 120.07 143.58 119.95V118.36C143.3 118.32 143.01 118.29 142.71 118.27C142.43 118.25 142.13 118.24 141.81 118.24ZM157.836 128.86C156.756 128.86 155.716 128.79 154.716 128.65C153.716 128.51 152.906 128.33 152.286 128.11V123.7C152.786 123.82 153.526 123.92 154.506 124C155.506 124.1 156.486 124.15 157.446 124.15C158.326 124.15 158.926 124.04 159.246 123.82C159.566 123.58 159.746 123.16 159.786 122.56V121.75C159.086 122.07 158.386 122.32 157.686 122.5C157.006 122.66 156.346 122.74 155.706 122.74C153.806 122.74 152.466 122.23 151.686 121.21C150.906 120.17 150.516 118.41 150.516 115.93C150.516 113.41 151.096 111.61 152.256 110.53C153.436 109.43 155.366 108.88 158.046 108.88C159.146 108.88 160.436 108.94 161.916 109.06C163.416 109.18 164.506 109.31 165.186 109.45V120.82C165.186 123.8 164.646 125.88 163.566 127.06C162.486 128.26 160.576 128.86 157.836 128.86ZM157.926 113.68C157.006 113.68 156.426 113.8 156.186 114.04C155.946 114.28 155.826 114.9 155.826 115.9C155.826 116.82 155.926 117.4 156.126 117.64C156.346 117.88 156.826 118 157.566 118C157.886 118 158.236 117.97 158.616 117.91C158.996 117.83 159.386 117.72 159.786 117.58V113.8C159.406 113.76 159.066 113.73 158.766 113.71C158.486 113.69 158.206 113.68 157.926 113.68ZM179.826 119.17V123.28C179.266 123.56 178.396 123.8 177.216 124C176.056 124.22 174.846 124.33 173.586 124.33C171.166 124.33 169.416 123.73 168.336 122.53C167.276 121.31 166.746 119.34 166.746 116.62C166.746 113.96 167.316 112.01 168.456 110.77C169.616 109.51 171.416 108.88 173.856 108.88C176.216 108.88 177.906 109.35 178.926 110.29C179.946 111.21 180.456 112.79 180.456 115.03C180.456 115.71 180.446 116.26 180.426 116.68C180.406 117.08 180.366 117.54 180.306 118.06H172.086C172.106 118.7 172.286 119.14 172.626 119.38C172.966 119.6 173.576 119.71 174.456 119.71C175.416 119.71 176.396 119.66 177.396 119.56C178.416 119.44 179.226 119.31 179.826 119.17ZM173.916 113.14C173.236 113.14 172.756 113.28 172.476 113.56C172.216 113.82 172.086 114.35 172.086 115.15H175.656V114.46C175.616 113.94 175.476 113.59 175.236 113.41C175.016 113.23 174.576 113.14 173.916 113.14ZM187.479 124H182.079V109.18H186.909L187.119 110.44H187.239C187.799 109.94 188.429 109.56 189.129 109.3C189.849 109.02 190.579 108.88 191.319 108.88C192.139 108.88 192.839 109.01 193.419 109.27C193.999 109.53 194.459 109.92 194.799 110.44H194.919C195.499 109.96 196.179 109.58 196.959 109.3C197.759 109.02 198.579 108.88 199.419 108.88C200.839 108.88 201.899 109.29 202.599 110.11C203.319 110.91 203.679 112.12 203.679 113.74V124H198.279V114.76C198.279 114.4 198.179 114.14 197.979 113.98C197.799 113.82 197.499 113.74 197.079 113.74C196.839 113.74 196.589 113.77 196.329 113.83C196.069 113.87 195.819 113.93 195.579 114.01V124H190.179V114.76C190.179 114.4 190.079 114.14 189.879 113.98C189.679 113.82 189.369 113.74 188.949 113.74C188.709 113.74 188.459 113.77 188.199 113.83C187.959 113.87 187.719 113.93 187.479 114.01V124ZM217.143 117.16L213.633 116.41C212.093 116.07 211.013 115.5 210.393 114.7C209.793 113.9 209.493 112.77 209.493 111.31C209.493 109.11 210.073 107.49 211.233 106.45C212.393 105.41 214.223 104.89 216.723 104.89C217.803 104.89 218.773 104.94 219.633 105.04C220.493 105.12 221.233 105.25 221.853 105.43V110.38C220.433 110.14 219.393 110 218.733 109.96C218.073 109.9 217.393 109.87 216.693 109.87C216.033 109.87 215.553 109.96 215.253 110.14C214.973 110.32 214.833 110.62 214.833 111.04C214.833 111.26 214.883 111.43 214.983 111.55C215.103 111.67 215.303 111.76 215.583 111.82L218.853 112.54C219.873 112.76 220.633 113 221.133 113.26C221.633 113.5 222.033 113.8 222.333 114.16C222.673 114.56 222.913 115.07 223.053 115.69C223.213 116.31 223.293 117.06 223.293 117.94C223.293 120.18 222.693 121.81 221.493 122.83C220.293 123.83 218.443 124.33 215.943 124.33C214.663 124.33 213.423 124.26 212.223 124.12C211.043 123.98 210.163 123.8 209.583 123.58V118.33C210.343 118.57 211.303 118.77 212.463 118.93C213.643 119.09 214.813 119.17 215.973 119.17C216.673 119.17 217.163 119.09 217.443 118.93C217.723 118.77 217.863 118.48 217.863 118.06C217.863 117.78 217.813 117.58 217.713 117.46C217.633 117.34 217.443 117.24 217.143 117.16ZM239.315 116.59C239.315 119.37 238.735 121.36 237.575 122.56C236.415 123.74 234.485 124.33 231.785 124.33C229.125 124.33 227.205 123.73 226.025 122.53C224.865 121.31 224.285 119.33 224.285 116.59C224.285 113.83 224.855 111.86 225.995 110.68C227.155 109.48 229.085 108.88 231.785 108.88C234.465 108.88 236.385 109.48 237.545 110.68C238.725 111.88 239.315 113.85 239.315 116.59ZM229.685 116.53C229.685 117.69 229.815 118.45 230.075 118.81C230.335 119.15 230.905 119.32 231.785 119.32C232.685 119.32 233.265 119.15 233.525 118.81C233.785 118.45 233.915 117.69 233.915 116.53C233.915 115.37 233.785 114.62 233.525 114.28C233.265 113.92 232.685 113.74 231.785 113.74C230.905 113.74 230.335 113.92 230.075 114.28C229.815 114.62 229.685 115.37 229.685 116.53ZM246.307 104.05V124H240.907V104.05H246.307ZM253.779 107.95H248.229V104.05H253.779V107.95ZM253.719 124H248.319V109.18H253.719V124ZM264.611 104.05H270.011V124H265.211L264.941 122.62H264.791C264.271 123.2 263.661 123.63 262.961 123.91C262.261 124.19 261.471 124.33 260.591 124.33C258.691 124.33 257.331 123.74 256.511 122.56C255.691 121.36 255.281 119.37 255.281 116.59C255.281 113.91 255.791 111.96 256.811 110.74C257.851 109.5 259.501 108.88 261.761 108.88C262.281 108.88 262.781 108.91 263.261 108.97C263.741 109.03 264.191 109.12 264.611 109.24V104.05ZM262.781 113.74C261.901 113.74 261.331 113.93 261.071 114.31C260.811 114.69 260.681 115.45 260.681 116.59C260.681 117.69 260.801 118.42 261.041 118.78C261.281 119.14 261.801 119.32 262.601 119.32C262.981 119.32 263.331 119.29 263.651 119.23C263.991 119.15 264.311 119.04 264.611 118.9V113.98C264.391 113.9 264.121 113.84 263.801 113.8C263.501 113.76 263.161 113.74 262.781 113.74ZM275.559 124.33C274.119 124.33 273.069 123.95 272.409 123.19C271.749 122.43 271.419 121.24 271.419 119.62C271.419 118.02 271.829 116.88 272.649 116.2C273.489 115.52 274.879 115.18 276.819 115.18C277.279 115.18 277.739 115.2 278.199 115.24C278.679 115.28 279.099 115.33 279.459 115.39V114.64C279.459 114.24 279.269 113.96 278.889 113.8C278.509 113.62 277.889 113.53 277.029 113.53C276.209 113.53 275.459 113.55 274.779 113.59C274.119 113.63 273.449 113.71 272.769 113.83V109.42C273.509 109.24 274.399 109.11 275.439 109.03C276.499 108.93 277.709 108.88 279.069 108.88C280.949 108.88 282.379 109.3 283.359 110.14C284.359 110.96 284.859 112.17 284.859 113.77V124H279.759L279.609 122.83H279.519C278.919 123.33 278.279 123.71 277.599 123.97C276.939 124.21 276.259 124.33 275.559 124.33ZM277.689 118.24C277.169 118.24 276.799 118.32 276.579 118.48C276.379 118.62 276.279 118.89 276.279 119.29C276.279 119.69 276.359 119.97 276.519 120.13C276.699 120.27 276.999 120.34 277.419 120.34C277.759 120.34 278.109 120.31 278.469 120.25C278.849 120.17 279.179 120.07 279.459 119.95V118.36C279.179 118.32 278.889 118.29 278.589 118.27C278.309 118.25 278.009 118.24 277.689 118.24ZM278.679 103.66H284.259L279.609 107.74H275.499L278.679 103.66ZM292.215 124H286.815V109.18H291.855L292.035 110.32H292.095C292.715 109.86 293.325 109.51 293.925 109.27C294.545 109.03 295.145 108.91 295.725 108.91H296.235V114.13C295.775 114.09 295.465 114.07 295.305 114.07C295.165 114.05 295.015 114.04 294.855 114.04C294.355 114.04 293.885 114.07 293.445 114.13C293.005 114.19 292.595 114.28 292.215 114.4V124ZM303.056 107.95H297.506V104.05H303.056V107.95ZM302.996 124H297.596V109.18H302.996V124ZM308.518 124.33C307.078 124.33 306.028 123.95 305.368 123.19C304.708 122.43 304.378 121.24 304.378 119.62C304.378 118.02 304.788 116.88 305.608 116.2C306.448 115.52 307.838 115.18 309.778 115.18C310.238 115.18 310.698 115.2 311.158 115.24C311.638 115.28 312.058 115.33 312.418 115.39V114.64C312.418 114.24 312.228 113.96 311.848 113.8C311.468 113.62 310.848 113.53 309.988 113.53C309.168 113.53 308.418 113.55 307.738 113.59C307.078 113.63 306.408 113.71 305.728 113.83V109.42C306.468 109.24 307.358 109.11 308.398 109.03C309.458 108.93 310.668 108.88 312.028 108.88C313.908 108.88 315.338 109.3 316.318 110.14C317.318 110.96 317.818 112.17 317.818 113.77V124H312.718L312.568 122.83H312.478C311.878 123.33 311.238 123.71 310.558 123.97C309.898 124.21 309.218 124.33 308.518 124.33ZM310.648 118.24C310.128 118.24 309.758 118.32 309.538 118.48C309.338 118.62 309.238 118.89 309.238 119.29C309.238 119.69 309.318 119.97 309.478 120.13C309.658 120.27 309.958 120.34 310.378 120.34C310.718 120.34 311.068 120.31 311.428 120.25C311.808 120.17 312.138 120.07 312.418 119.95V118.36C312.138 118.32 311.848 118.29 311.548 118.27C311.268 118.25 310.968 118.24 310.648 118.24Z" fill="#0076AC"/>
<path d="M82.358 146.336C82.358 146.905 82.2273 147.428 81.966 147.904C81.7047 148.371 81.3033 148.749 80.762 149.038C80.2207 149.327 79.5487 149.472 78.746 149.472H77.262V153H74.868V143.172H78.746C79.53 143.172 80.1927 143.307 80.734 143.578C81.2753 143.849 81.6813 144.222 81.952 144.698C82.2227 145.174 82.358 145.72 82.358 146.336ZM78.564 147.568C79.0213 147.568 79.362 147.461 79.586 147.246C79.81 147.031 79.922 146.728 79.922 146.336C79.922 145.944 79.81 145.641 79.586 145.426C79.362 145.211 79.0213 145.104 78.564 145.104H77.262V147.568H78.564ZM85.9983 145.09V147.078H89.2043V148.926H85.9983V151.082H89.6243V153H83.6043V143.172H89.6243V145.09H85.9983ZM96.1905 153L94.1465 149.29H93.5725V153H91.1785V143.172H95.1965C95.9712 143.172 96.6292 143.307 97.1705 143.578C97.7212 143.849 98.1319 144.222 98.4025 144.698C98.6732 145.165 98.8085 145.687 98.8085 146.266C98.8085 146.919 98.6219 147.503 98.2485 148.016C97.8845 148.529 97.3432 148.893 96.6245 149.108L98.8925 153H96.1905ZM93.5725 147.596H95.0565C95.4952 147.596 95.8219 147.489 96.0365 147.274C96.2605 147.059 96.3725 146.756 96.3725 146.364C96.3725 145.991 96.2605 145.697 96.0365 145.482C95.8219 145.267 95.4952 145.16 95.0565 145.16H93.5725V147.596ZM103.867 153.098C103.149 153.098 102.505 152.981 101.935 152.748C101.366 152.515 100.909 152.169 100.563 151.712C100.227 151.255 100.05 150.704 100.031 150.06H102.579C102.617 150.424 102.743 150.704 102.957 150.9C103.172 151.087 103.452 151.18 103.797 151.18C104.152 151.18 104.432 151.101 104.637 150.942C104.843 150.774 104.945 150.545 104.945 150.256C104.945 150.013 104.861 149.813 104.693 149.654C104.535 149.495 104.334 149.365 104.091 149.262C103.858 149.159 103.522 149.043 103.083 148.912C102.449 148.716 101.931 148.52 101.529 148.324C101.128 148.128 100.783 147.839 100.493 147.456C100.204 147.073 100.059 146.574 100.059 145.958C100.059 145.043 100.391 144.329 101.053 143.816C101.716 143.293 102.579 143.032 103.643 143.032C104.726 143.032 105.599 143.293 106.261 143.816C106.924 144.329 107.279 145.048 107.325 145.972H104.735C104.717 145.655 104.6 145.407 104.385 145.23C104.171 145.043 103.895 144.95 103.559 144.95C103.27 144.95 103.037 145.029 102.859 145.188C102.682 145.337 102.593 145.557 102.593 145.846C102.593 146.163 102.743 146.411 103.041 146.588C103.34 146.765 103.807 146.957 104.441 147.162C105.076 147.377 105.589 147.582 105.981 147.778C106.383 147.974 106.728 148.259 107.017 148.632C107.307 149.005 107.451 149.486 107.451 150.074C107.451 150.634 107.307 151.143 107.017 151.6C106.737 152.057 106.327 152.421 105.785 152.692C105.244 152.963 104.605 153.098 103.867 153.098ZM113.573 153.098C112.649 153.098 111.799 152.883 111.025 152.454C110.259 152.025 109.648 151.427 109.191 150.662C108.743 149.887 108.519 149.019 108.519 148.058C108.519 147.097 108.743 146.233 109.191 145.468C109.648 144.703 110.259 144.105 111.025 143.676C111.799 143.247 112.649 143.032 113.573 143.032C114.497 143.032 115.341 143.247 116.107 143.676C116.881 144.105 117.488 144.703 117.927 145.468C118.375 146.233 118.599 147.097 118.599 148.058C118.599 149.019 118.375 149.887 117.927 150.662C117.479 151.427 116.872 152.025 116.107 152.454C115.341 152.883 114.497 153.098 113.573 153.098ZM113.573 150.914C114.357 150.914 114.982 150.653 115.449 150.13C115.925 149.607 116.163 148.917 116.163 148.058C116.163 147.19 115.925 146.499 115.449 145.986C114.982 145.463 114.357 145.202 113.573 145.202C112.779 145.202 112.145 145.459 111.669 145.972C111.202 146.485 110.969 147.181 110.969 148.058C110.969 148.926 111.202 149.621 111.669 150.144C112.145 150.657 112.779 150.914 113.573 150.914ZM128.723 153H126.329L122.325 146.938V153H119.931V143.172H122.325L126.329 149.262V143.172H128.723V153ZM136.576 151.264H132.908L132.32 153H129.814L133.37 143.172H136.142L139.698 153H137.164L136.576 151.264ZM135.96 149.416L134.742 145.818L133.538 149.416H135.96ZM143.174 151.152H146.31V153H140.78V143.172H143.174V151.152ZM149.846 143.172V153H147.452V143.172H149.846ZM154.129 151.04H158.357V153H151.413V151.18L155.613 145.132H151.413V143.172H158.357V144.992L154.129 151.04ZM162.315 145.09V147.078H165.521V148.926H162.315V151.082H165.941V153H159.921V143.172H165.941V145.09H162.315ZM174.018 153.098C173.299 153.098 172.655 152.981 172.086 152.748C171.516 152.515 171.059 152.169 170.714 151.712C170.378 151.255 170.2 150.704 170.182 150.06H172.73C172.767 150.424 172.893 150.704 173.108 150.9C173.322 151.087 173.602 151.18 173.948 151.18C174.302 151.18 174.582 151.101 174.788 150.942C174.993 150.774 175.096 150.545 175.096 150.256C175.096 150.013 175.012 149.813 174.844 149.654C174.685 149.495 174.484 149.365 174.242 149.262C174.008 149.159 173.672 149.043 173.234 148.912C172.599 148.716 172.081 148.52 171.68 148.324C171.278 148.128 170.933 147.839 170.644 147.456C170.354 147.073 170.21 146.574 170.21 145.958C170.21 145.043 170.541 144.329 171.204 143.816C171.866 143.293 172.73 143.032 173.794 143.032C174.876 143.032 175.749 143.293 176.412 143.816C177.074 144.329 177.429 145.048 177.476 145.972H174.886C174.867 145.655 174.75 145.407 174.536 145.23C174.321 145.043 174.046 144.95 173.71 144.95C173.42 144.95 173.187 145.029 173.01 145.188C172.832 145.337 172.744 145.557 172.744 145.846C172.744 146.163 172.893 146.411 173.192 146.588C173.49 146.765 173.957 146.957 174.592 147.162C175.226 147.377 175.74 147.582 176.132 147.778C176.533 147.974 176.878 148.259 177.168 148.632C177.457 149.005 177.602 149.486 177.602 150.074C177.602 150.634 177.457 151.143 177.168 151.6C176.888 152.057 176.477 152.421 175.936 152.692C175.394 152.963 174.755 153.098 174.018 153.098ZM181.469 145.09V147.078H184.675V148.926H181.469V151.082H185.095V153H179.075V143.172H185.095V145.09H181.469ZM189.001 143.172V149.052C189.001 149.64 189.146 150.093 189.435 150.41C189.725 150.727 190.149 150.886 190.709 150.886C191.269 150.886 191.699 150.727 191.997 150.41C192.296 150.093 192.445 149.64 192.445 149.052V143.172H194.839V149.038C194.839 149.915 194.653 150.657 194.279 151.264C193.906 151.871 193.402 152.328 192.767 152.636C192.142 152.944 191.442 153.098 190.667 153.098C189.893 153.098 189.197 152.949 188.581 152.65C187.975 152.342 187.494 151.885 187.139 151.278C186.785 150.662 186.607 149.915 186.607 149.038V143.172H189.001ZM206.977 146.336C206.977 146.905 206.846 147.428 206.585 147.904C206.324 148.371 205.922 148.749 205.381 149.038C204.84 149.327 204.168 149.472 203.365 149.472H201.881V153H199.487V143.172H203.365C204.149 143.172 204.812 143.307 205.353 143.578C205.894 143.849 206.3 144.222 206.571 144.698C206.842 145.174 206.977 145.72 206.977 146.336ZM203.183 147.568C203.64 147.568 203.981 147.461 204.205 147.246C204.429 147.031 204.541 146.728 204.541 146.336C204.541 145.944 204.429 145.641 204.205 145.426C203.981 145.211 203.64 145.104 203.183 145.104H201.881V147.568H203.183ZM210.617 145.09V147.078H213.823V148.926H210.617V151.082H214.243V153H208.223V143.172H214.243V145.09H210.617ZM220.81 153L218.766 149.29H218.192V153H215.798V143.172H219.816C220.59 143.172 221.248 143.307 221.79 143.578C222.34 143.849 222.751 144.222 223.022 144.698C223.292 145.165 223.428 145.687 223.428 146.266C223.428 146.919 223.241 147.503 222.868 148.016C222.504 148.529 221.962 148.893 221.244 149.108L223.512 153H220.81ZM218.192 147.596H219.676C220.114 147.596 220.441 147.489 220.656 147.274C220.88 147.059 220.992 146.756 220.992 146.364C220.992 145.991 220.88 145.697 220.656 145.482C220.441 145.267 220.114 145.16 219.676 145.16H218.192V147.596ZM231.329 143.172V145.09H227.325V147.162H230.321V149.024H227.325V153H224.931V143.172H231.329ZM234.981 143.172V153H232.587V143.172H234.981ZM239.11 151.152H242.246V153H236.716V143.172H239.11V151.152Z" fill="#0076AC"/>
<path d="M591.389 183.277C590.9 184.37 589.957 184.698 588.313 184.29C587.367 184.101 586.947 183.679 586.459 182.571C585.859 181.086 585.162 180.446 584.882 181.07C584.795 181.265 584.339 181.343 583.857 181.268C583.124 181.127 582.924 181.366 582.421 183.014C581.656 185.669 580.791 186.031 578.493 184.676C576.98 183.766 576.594 183.687 575.755 184.201C574.356 185.027 574.176 185.743 574.95 187.26C575.555 188.42 575.546 188.65 574.654 189.703C573.927 190.596 573.362 190.812 572.247 190.688C570.975 190.494 570.771 190.636 570.125 192.081C569.479 193.525 569.509 193.772 570.501 194.59C571.338 195.339 571.553 195.904 571.39 197.001C571.179 198.312 570.996 198.511 569.715 198.968C567.999 199.559 567.711 199.993 568.007 201.53C568.183 202.498 568.5 202.734 570.187 203.254C572.729 204.063 573.035 204.949 571.624 207.268C570.726 208.646 570.704 209.011 571.162 209.871C572.005 211.232 572.509 211.363 574.181 210.66C575.441 210.146 575.711 210.172 576.742 211.008C577.595 211.718 577.811 212.282 577.687 213.398C577.493 214.669 577.636 214.873 579.08 215.519C580.524 216.165 580.772 216.135 581.59 215.143C582.338 214.307 582.903 214.091 584.04 214.271C585.407 214.461 585.567 214.626 585.89 215.895C586.325 217.541 586.936 217.954 588.569 217.654C589.516 217.422 589.772 217.162 590.201 215.574C590.988 212.976 591.853 212.613 594.172 214.025C595.763 214.97 596.071 215.014 596.524 214.421C596.833 214.044 597.224 213.797 597.419 213.884C598.044 214.164 598.137 213.222 597.593 211.714C597.218 210.563 597.25 209.969 597.829 209.197C598.783 207.797 599.704 207.413 600.797 207.902C601.655 208.285 601.803 208.164 602.519 206.564C603.234 204.964 603.226 204.773 602.367 204.389C601.275 203.9 600.947 202.958 601.332 201.257C601.556 200.233 601.887 199.913 602.986 199.655C604.367 199.289 605.276 198.197 604.535 197.865C604.34 197.778 604.249 197.457 604.389 197.144C604.79 196.247 604.214 195.755 602.5 195.504C600.17 195.164 599.414 193.188 600.925 191.381C602.035 190.051 602.136 189.3 601.238 188.899C600.926 188.759 600.779 188.459 600.867 188.264C601.198 187.522 599.792 187.315 598.519 187.964C597.528 188.504 597.068 188.486 596.218 187.872C594.797 186.861 594.413 185.94 594.901 184.847C595.285 183.989 595.164 183.841 593.564 183.126C591.964 182.41 591.773 182.418 591.389 183.277ZM592.886 193.125C594.008 194.282 595.41 197.953 595.346 199.564C595.225 201.196 593.672 204.669 592.428 205.986C591.183 207.303 588.398 208.399 586.423 208.312C584.566 208.278 581.114 206.781 579.598 205.354C578.22 204.036 577.141 201.212 577.289 199.311C577.467 197.236 579.042 193.819 580.403 192.555C581.782 191.251 584.623 190.133 586.255 190.254C587.944 190.353 591.786 192.025 592.886 193.125Z" fill="#7CD5FF"/>
<path d="M585.054 195.664C583.391 196.138 582.026 199.087 582.651 200.725C583.277 202.362 586.261 203.65 587.816 202.893C589.446 202.077 590.502 199.505 589.842 197.945C589.159 196.329 586.718 195.19 585.054 195.664Z" fill="#7CD5FF"/>
<path d="M641.866 159.314C641.472 161.776 639.752 162.944 636.225 163.01C634.221 163.141 633.148 162.518 631.569 160.552C629.561 157.887 627.813 156.976 627.588 158.383C627.518 158.822 626.642 159.223 625.633 159.332C624.082 159.445 623.808 160.032 623.685 163.619C623.576 169.372 622.032 170.568 616.68 169.08C613.146 168.064 612.326 168.113 610.916 169.601C608.546 172.017 608.571 173.553 610.944 176.187C612.787 178.195 612.893 178.663 611.665 181.262C610.684 183.449 609.664 184.188 607.354 184.539C604.692 184.835 604.358 185.232 603.837 188.485C603.317 191.738 603.51 192.22 605.947 193.331C608.033 194.386 608.771 195.406 609.035 197.702C609.316 200.452 609.056 200.951 606.725 202.562C603.591 204.675 603.247 205.702 604.671 208.635C605.547 210.488 606.31 210.791 609.985 210.928C615.534 211.185 616.627 212.802 615.038 218.228C613.976 221.485 614.127 222.23 615.513 223.714C617.943 225.996 619.026 225.989 622.011 223.672C624.269 221.959 624.825 221.868 627.35 222.993C629.449 223.96 630.188 224.98 630.539 227.291C630.835 229.953 631.232 230.287 634.485 230.807C637.738 231.328 638.219 231.134 639.331 228.697C640.386 226.612 641.405 225.873 643.79 225.624C646.642 225.268 647.053 225.515 648.386 227.892C650.148 230.969 651.6 231.472 654.723 229.988C656.502 229.01 656.879 228.349 656.886 224.924C657.068 219.273 658.612 218.077 664.038 219.666C667.748 220.711 668.392 220.633 668.983 219.195C669.401 218.27 670.055 217.563 670.495 217.634C671.901 217.859 671.581 215.914 669.675 213.175C668.3 211.061 668.044 209.848 668.793 207.984C669.957 204.654 671.602 203.384 674.064 203.778C675.998 204.088 676.23 203.764 676.807 200.16C677.384 196.555 677.264 196.175 675.33 195.866C672.868 195.472 671.701 193.752 671.56 190.123C671.458 187.943 671.951 187.12 674.022 186.009C676.603 184.528 677.844 181.842 676.174 181.574C675.734 181.504 675.379 180.906 675.492 180.203C675.815 178.181 674.391 177.502 670.808 177.921C665.937 178.494 663.352 174.925 665.417 170.476C666.932 167.202 666.732 165.637 664.71 165.314C664.006 165.201 663.549 164.677 663.62 164.238C663.887 162.567 660.947 162.908 658.735 164.899C657.033 166.52 656.098 166.731 654.058 165.954C650.654 164.688 649.384 163.042 649.778 160.58C650.088 158.646 649.764 158.414 646.16 157.837C642.555 157.261 642.175 157.38 641.866 159.314ZM650.186 178.318C653.066 180.041 657.867 186.67 658.605 189.944C659.242 193.292 657.99 201.116 656.196 204.436C654.403 207.756 649.392 211.462 645.372 212.352C641.616 213.284 633.866 212.134 630.047 210.08C626.565 208.171 622.873 203.072 622.145 199.168C621.385 194.899 622.711 187.177 624.768 183.899C626.839 180.534 631.953 176.753 635.3 176.117C638.75 175.406 647.38 176.697 650.186 178.318Z" fill="#7CD5FF"/>
<path d="M635.8 187.647C632.709 189.497 631.552 196.165 633.694 199.122C635.836 202.08 642.531 203.061 645.253 200.701C648.091 198.18 648.829 192.437 646.66 189.655C644.416 186.772 638.891 185.798 635.8 187.647Z" fill="#7CD5FF"/>
<path d="M531.932 86.466C531.504 87.4218 530.68 87.7085 529.242 87.3522C528.414 87.1871 528.047 86.818 527.62 85.849C527.095 84.5494 526.485 83.9899 526.241 84.5361C526.165 84.7067 525.766 84.7742 525.345 84.7087C524.703 84.5858 524.528 84.7942 524.088 86.2359C523.419 88.558 522.662 88.8752 520.653 87.69C519.33 86.8935 518.992 86.8245 518.258 87.2746C517.034 87.997 516.877 88.6231 517.554 89.9496C518.083 90.9645 518.075 91.1657 517.295 92.0866C516.659 92.8672 516.165 93.056 515.189 92.9475C514.077 92.778 513.899 92.9029 513.334 94.1659C512.769 95.4289 512.795 95.6453 513.663 96.361C514.394 97.0157 514.583 97.5096 514.44 98.4699C514.256 99.616 514.096 99.7903 512.975 100.19C511.474 100.707 511.223 101.086 511.482 102.431C511.635 103.278 511.912 103.483 513.388 103.938C515.611 104.646 515.879 105.421 514.645 107.449C513.86 108.655 513.84 108.974 514.241 109.726C514.978 110.916 515.419 111.031 516.882 110.416C517.984 109.966 518.219 109.99 519.121 110.72C519.868 111.341 520.056 111.835 519.948 112.81C519.778 113.922 519.903 114.101 521.166 114.666C522.429 115.231 522.646 115.205 523.361 114.337C524.016 113.605 524.51 113.417 525.504 113.575C526.7 113.74 526.84 113.885 527.122 114.994C527.503 116.434 528.037 116.796 529.465 116.533C530.293 116.33 530.518 116.103 530.893 114.714C531.581 112.441 532.338 112.124 534.366 113.359C535.758 114.186 536.027 114.224 536.423 113.705C536.693 113.375 537.035 113.16 537.206 113.236C537.752 113.48 537.834 112.657 537.358 111.338C537.03 110.331 537.058 109.811 537.565 109.137C538.399 107.912 539.204 107.576 540.16 108.003C540.911 108.339 541.04 108.233 541.666 106.834C542.292 105.434 542.285 105.267 541.534 104.931C540.578 104.504 540.291 103.679 540.629 102.192C540.824 101.296 541.113 101.016 542.075 100.79C543.283 100.47 544.078 99.5153 543.43 99.2254C543.259 99.149 543.18 98.8679 543.302 98.5948C543.653 97.8097 543.149 97.3796 541.65 97.1598C539.612 96.863 538.951 95.1341 540.272 93.5538C541.243 92.3904 541.332 91.7338 540.546 91.3828C540.273 91.2607 540.145 90.9984 540.221 90.8278C540.511 90.1792 539.281 89.998 538.168 90.565C537.301 91.0377 536.899 91.0216 536.156 90.4846C534.912 89.601 534.576 88.7954 535.004 87.8396C535.339 87.0886 535.233 86.9593 533.834 86.3336C532.434 85.7078 532.267 85.715 531.932 86.466ZM533.241 95.0796C534.222 96.0917 535.449 99.3025 535.393 100.711C535.287 102.138 533.929 105.176 532.84 106.328C531.752 107.48 529.316 108.439 527.589 108.363C525.964 108.332 522.945 107.024 521.619 105.775C520.414 104.622 519.47 102.152 519.599 100.49C519.755 98.6753 521.132 95.6867 522.323 94.5807C523.529 93.4406 526.014 92.4628 527.442 92.5685C528.918 92.6553 532.279 94.1169 533.241 95.0796Z" fill="#7CD5FF"/>
<path d="M508.932 108.466C508.504 109.422 507.68 109.708 506.242 109.352C505.414 109.187 505.047 108.818 504.62 107.849C504.095 106.549 503.485 105.99 503.241 106.536C503.165 106.707 502.766 106.774 502.345 106.709C501.703 106.586 501.528 106.794 501.088 108.236C500.419 110.558 499.662 110.875 497.653 109.69C496.33 108.894 495.992 108.824 495.258 109.275C494.034 109.997 493.877 110.623 494.554 111.95C495.083 112.965 495.075 113.166 494.295 114.087C493.659 114.867 493.165 115.056 492.189 114.947C491.077 114.778 490.899 114.903 490.334 116.166C489.769 117.429 489.795 117.645 490.663 118.361C491.394 119.016 491.583 119.51 491.44 120.47C491.256 121.616 491.096 121.79 489.975 122.19C488.474 122.707 488.223 123.086 488.482 124.431C488.635 125.278 488.912 125.483 490.388 125.938C492.611 126.646 492.879 127.421 491.645 129.449C490.86 130.655 490.84 130.974 491.241 131.726C491.978 132.916 492.419 133.031 493.882 132.416C494.984 131.966 495.219 131.99 496.121 132.72C496.868 133.341 497.056 133.835 496.948 134.81C496.778 135.922 496.903 136.101 498.166 136.666C499.429 137.231 499.646 137.205 500.361 136.337C501.016 135.605 501.51 135.417 502.504 135.575C503.7 135.74 503.84 135.885 504.122 136.994C504.503 138.434 505.037 138.796 506.465 138.533C507.293 138.33 507.518 138.103 507.893 136.714C508.581 134.441 509.338 134.124 511.366 135.359C512.758 136.186 513.027 136.224 513.423 135.705C513.693 135.375 514.035 135.16 514.206 135.236C514.752 135.48 514.834 134.657 514.358 133.338C514.03 132.331 514.058 131.811 514.565 131.137C515.399 129.912 516.204 129.576 517.16 130.003C517.911 130.339 518.04 130.233 518.666 128.834C519.292 127.434 519.285 127.267 518.534 126.931C517.578 126.504 517.291 125.679 517.629 124.192C517.824 123.296 518.113 123.016 519.075 122.79C520.283 122.47 521.078 121.515 520.43 121.225C520.259 121.149 520.18 120.868 520.302 120.595C520.653 119.81 520.149 119.38 518.65 119.16C516.612 118.863 515.951 117.134 517.272 115.554C518.243 114.39 518.332 113.734 517.546 113.383C517.273 113.261 517.145 112.998 517.221 112.828C517.511 112.179 516.281 111.998 515.168 112.565C514.301 113.038 513.899 113.022 513.156 112.485C511.912 111.601 511.576 110.795 512.004 109.84C512.339 109.089 512.233 108.959 510.834 108.334C509.434 107.708 509.267 107.715 508.932 108.466ZM510.241 117.08C511.222 118.092 512.449 121.303 512.393 122.711C512.287 124.138 510.929 127.176 509.84 128.328C508.752 129.48 506.316 130.439 504.589 130.363C502.964 130.332 499.945 129.024 498.619 127.775C497.414 126.622 496.47 124.152 496.599 122.49C496.755 120.675 498.132 117.687 499.323 116.581C500.529 115.441 503.014 114.463 504.442 114.569C505.918 114.655 509.279 116.117 510.241 117.08Z" fill="#7CD5FF"/>
<path d="M526.392 97.3003C524.937 97.7147 523.743 100.294 524.29 101.726C524.837 103.159 527.447 104.285 528.808 103.623C530.233 102.909 531.157 100.659 530.579 99.2952C529.982 97.8816 527.847 96.8859 526.392 97.3003Z" fill="#7CD5FF"/>
<path d="M503.392 119.3C501.937 119.715 500.743 122.294 501.29 123.726C501.837 125.159 504.447 126.285 505.808 125.623C507.233 124.909 508.157 122.659 507.579 121.295C506.982 119.882 504.847 118.886 503.392 119.3Z" fill="#7CD5FF"/>
<path d="M549.862 40.29C550.735 34.8365 555.863 31.1229 561.316 31.9954L663.713 48.3783C669.166 49.2508 672.88 54.3791 672.007 59.8326L654.462 169.492C652.281 183.125 639.46 192.409 625.827 190.228L553.053 178.585C539.42 176.403 530.136 163.583 532.317 149.949L549.862 40.29Z" fill="#1F9DD3"/>
<path d="M549.862 40.2899C550.735 34.8365 555.863 31.1229 561.316 31.9954L663.713 48.3783C669.166 49.2508 672.88 54.3791 672.007 59.8326L660.299 133.014C655.674 161.917 628.495 181.599 599.591 176.975L582.115 174.179C553.211 169.554 533.529 142.375 538.153 113.471L549.862 40.2899Z" fill="#46C4FF"/>
<path d="M549.862 40.2899C550.735 34.8365 555.863 31.1229 561.316 31.9954L663.713 48.3783C669.166 49.2508 672.88 54.3791 672.007 59.8326L655.717 161.649C653.623 174.738 641.315 183.65 628.227 181.556L553.479 169.597C540.39 167.503 531.478 155.195 533.572 142.107L549.862 40.2899Z" fill="#46C4FF"/>
<path d="M569.532 49.4157C569.62 48.8703 570.133 48.499 570.678 48.5862L651.114 61.4556C651.66 61.5429 652.031 62.0557 651.944 62.6011L642.213 123.422C638.572 146.179 617.172 161.676 594.414 158.035C571.657 154.394 556.16 132.994 559.801 110.237L569.532 49.4157Z" fill="#1CB0F6"/>
<path d="M614.192 79.3242C613.306 81.7058 611.031 81.9026 609.588 79.7091C607.327 76.3195 603.025 78.3227 604.56 82.0448C604.976 82.9523 604.851 83.381 603.828 84.1705C602.859 84.9687 602.24 84.9818 600.097 84.3585C597.635 83.6281 597.516 83.6653 596.915 84.9709C596.171 86.8145 596.48 88.0413 597.847 88.26C598.448 88.3562 598.905 88.6536 598.861 88.927C598.818 89.2004 599.24 89.7165 599.815 89.9767C600.39 90.2369 600.924 91.1073 600.965 91.899C601.094 93.5457 602.498 93.8825 604.047 92.6163C604.635 92.0936 605.479 91.724 605.916 91.794C606.354 91.864 607.143 91.4856 607.677 90.9542C609.693 88.8657 615.836 88.671 619.125 90.543C620.916 91.6146 622.524 93.8343 622.983 95.8703C623.735 99.5793 621.634 105.355 619.02 106.619C618.349 106.96 617.743 107.592 617.673 108.03C617.603 108.467 616.989 109.154 616.309 109.549C614.623 110.625 614.504 112.064 616.029 112.701C616.768 112.987 617.428 113.766 617.496 114.393C617.564 115.021 617.923 115.583 618.196 115.627C618.469 115.671 618.609 116.198 618.513 116.799C618.294 118.166 619.364 118.842 621.347 118.71C622.775 118.546 622.848 118.446 622.922 115.878C622.998 113.648 623.204 113.064 624.265 112.392C625.334 111.666 625.78 111.682 626.513 112.36C629.57 114.979 632.815 111.518 630.3 108.312C628.667 106.256 629.563 104.156 632.102 104.058C633.904 104.01 634.031 103.918 634.39 101.676C634.749 99.4349 634.657 99.3081 632.96 98.7001C630.578 97.8144 630.41 95.7128 632.557 94.206C634.125 93.1672 634.652 91.6255 634.042 90.1821C633.747 89.5741 632.999 89.3423 631.105 89.2636C627.691 89.2221 626.911 88.1439 627.936 84.8876C628.452 83.0638 628.465 82.2808 627.98 81.8107C626.799 80.7806 625.17 80.8003 623.694 81.966C621.592 83.5362 619.648 82.7205 619.549 80.1815C619.501 78.3795 619.41 78.2526 617.168 77.894C614.926 77.5353 614.8 77.6272 614.192 79.3242Z" fill="#0076AC"/>
<path d="M593.284 92.2407C593.039 93.7715 591.97 94.4976 589.776 94.5391C588.53 94.6201 587.863 94.233 586.881 93.0105C585.632 91.3528 584.545 90.7864 584.405 91.6612C584.362 91.9346 583.817 92.1839 583.189 92.2517C582.225 92.3217 582.054 92.6869 581.978 94.9175C581.91 98.4953 580.95 99.2388 577.622 98.3138C575.424 97.6818 574.914 97.7124 574.037 98.6375C572.563 100.14 572.579 101.096 574.055 102.734C575.201 103.982 575.266 104.273 574.503 105.889C573.893 107.25 573.259 107.709 571.822 107.927C570.166 108.111 569.959 108.358 569.635 110.381C569.311 112.404 569.432 112.704 570.947 113.395C572.244 114.051 572.703 114.685 572.867 116.113C573.042 117.823 572.88 118.134 571.431 119.135C569.482 120.45 569.268 121.088 570.153 122.912C570.698 124.065 571.172 124.253 573.458 124.338C576.909 124.498 577.589 125.504 576.6 128.878C575.94 130.903 576.034 131.367 576.896 132.29C578.407 133.709 579.08 133.704 580.937 132.263C582.341 131.198 582.687 131.141 584.257 131.841C585.562 132.443 586.022 133.077 586.24 134.514C586.424 136.169 586.671 136.377 588.694 136.7C590.717 137.024 591.017 136.904 591.708 135.388C592.364 134.091 592.998 133.632 594.481 133.477C596.254 133.256 596.51 133.409 597.339 134.887C598.435 136.801 599.338 137.114 601.28 136.191C602.386 135.583 602.62 135.172 602.625 133.042C602.738 129.527 603.698 128.784 607.073 129.772C609.38 130.422 609.78 130.374 610.148 129.479C610.408 128.904 610.815 128.464 611.088 128.508C611.963 128.648 611.764 127.439 610.578 125.735C609.723 124.421 609.564 123.666 610.029 122.507C610.753 120.436 611.777 119.647 613.308 119.892C614.51 120.084 614.655 119.883 615.013 117.641C615.372 115.4 615.298 115.164 614.095 114.971C612.564 114.726 611.838 113.657 611.75 111.4C611.687 110.044 611.993 109.532 613.281 108.841C614.886 107.921 615.658 106.25 614.62 106.084C614.346 106.04 614.125 105.668 614.195 105.231C614.397 103.973 613.511 103.551 611.282 103.812C608.254 104.168 606.646 101.948 607.93 99.1818C608.872 97.1458 608.748 96.1727 607.49 95.9715C607.053 95.9015 606.769 95.5756 606.812 95.3023C606.979 94.2635 605.15 94.4756 603.775 95.7134C602.716 96.7216 602.135 96.8528 600.866 96.3695C598.749 95.5822 597.96 94.5588 598.205 93.0279C598.397 91.8251 598.196 91.6808 595.954 91.3222C593.713 90.9635 593.477 91.0379 593.284 92.2407ZM598.458 104.059C600.249 105.13 603.235 109.253 603.694 111.289C604.09 113.37 603.311 118.236 602.196 120.301C601.081 122.365 597.964 124.67 595.465 125.224C593.129 125.803 588.309 125.088 585.934 123.811C583.769 122.623 581.473 119.452 581.02 117.025C580.548 114.37 581.372 109.568 582.651 107.529C583.94 105.437 587.119 103.086 589.201 102.69C591.347 102.248 596.713 103.051 598.458 104.059Z" fill="#0076AC"/>
<path d="M589.512 109.86C587.59 111.011 586.87 115.157 588.202 116.996C589.534 118.836 593.698 119.446 595.39 117.978C597.155 116.41 597.614 112.839 596.265 111.109C594.87 109.316 591.434 108.71 589.512 109.86Z" fill="#0076AC"/>
<path d="M612.151 95.9316C611.897 96.1153 611.55 97.2372 611.366 98.3853L611.025 100.518L613.402 100.73C615.725 100.933 615.725 100.933 616.074 98.7462C616.416 96.6139 616.37 96.5505 614.537 96.0891C613.461 95.8048 612.405 95.7479 612.151 95.9316Z" fill="#0076AC"/>
<path d="M645.834 42.848L665.286 46.3102L666.64 47.2811L667.994 48.2524L669.348 49.2236L671.32 51.0484L672.438 53.4913L673.53 58.9486L670.134 80.1769L607.784 123.355L545.435 166.532L542.785 163.292L540.534 159.764L538.68 155.947L537.225 151.842L536.168 147.449L535.797 143.166L535.825 138.594L536.567 133.956L539.339 116.628L645.834 42.848Z" fill="white" fill-opacity="0.29"/>
<path fill-rule="evenodd" clip-rule="evenodd" d="M60.6354 138.795C60.2492 137.735 58.7508 137.735 58.3646 138.795L56.6123 143.612L51.7951 145.365C50.735 145.751 50.735 147.249 51.7951 147.635L56.6123 149.388L58.3646 154.205C58.7508 155.265 60.2492 155.265 60.6354 154.205L62.3877 149.388L67.2049 147.635C68.265 147.249 68.265 145.751 67.2049 145.365L62.3877 143.612L60.6354 138.795Z" fill="#0076AC"/>
</svg>
