<svg width="56" height="57" viewBox="0 0 56 57" fill="none" xmlns="http://www.w3.org/2000/svg">
<path d="M28.6703 1.9839L28.9787 1.96497L29.2979 1.9839L29.4575 2.00554L29.6225 2.04071L29.9228 2.13269C30.1301 2.20932 30.3272 2.31107 30.5098 2.43567L30.7911 2.6575L31.481 3.24723C36.9382 7.77995 43.8352 10.2139 50.9286 10.1103L51.8538 10.0833C52.4586 10.0557 53.0553 10.2318 53.5482 10.5834C54.0411 10.9351 54.4018 11.442 54.5725 12.0229C55.9018 16.5448 56.3086 21.2878 55.7687 25.9701C55.2287 30.6523 53.7531 35.1783 51.4295 39.279C49.1058 43.3797 45.9816 46.9715 42.2424 49.8409C38.5032 52.7103 34.2254 54.7988 29.6631 55.9823C29.2178 56.0977 28.7504 56.0977 28.3051 55.9823C23.7425 54.7991 19.4644 52.7108 15.7249 49.8415C11.9854 46.9722 8.86089 43.3805 6.53698 39.2798C4.21306 35.179 2.7372 30.653 2.19709 25.9706C1.65698 21.2882 2.06365 16.545 3.39293 12.0229C3.56366 11.442 3.92434 10.9351 4.41725 10.5834C4.91016 10.2318 5.50679 10.0557 6.11165 10.0833C13.517 10.4218 20.7821 7.98399 26.4845 3.24723L27.1959 2.63856L27.4556 2.43567C27.6382 2.31107 27.8353 2.20932 28.0427 2.13269L28.3456 2.04071C28.4517 2.0153 28.5619 1.99633 28.6703 1.9839Z" fill="#0076AC"/>
<path d="M26.7048 0.0189363L27.0132 0L27.3324 0.0189363L27.492 0.0405782L27.6571 0.0757457L27.9573 0.167722C28.1647 0.244355 28.3618 0.346108 28.5444 0.470704L28.8257 0.69253L29.5155 1.28226C34.9727 5.81499 41.8698 8.24895 48.9632 8.14534L49.8883 8.11829C50.4932 8.09069 51.0898 8.26682 51.5827 8.61847C52.0757 8.97013 52.4363 9.47698 52.6071 10.0579C53.9364 14.5799 54.3432 19.3229 53.8032 24.0051C53.2633 28.6874 51.7877 33.2133 49.464 37.314C47.1404 41.4147 44.0161 45.0065 40.2769 47.8759C36.5378 50.7453 32.2599 52.8338 27.6976 54.0173C27.2523 54.1328 26.7849 54.1328 26.3396 54.0173C21.7771 52.8341 17.499 50.7458 13.7595 47.8765C10.02 45.0073 6.89545 41.4155 4.57154 37.3148C2.24762 33.2141 0.771758 28.688 0.23165 24.0056C-0.308458 19.3232 0.098213 14.58 1.4275 10.0579C1.59822 9.47698 1.9589 8.97013 2.45181 8.61847C2.94472 8.26682 3.54135 8.09069 4.14622 8.11829C11.5516 8.4568 18.8167 6.01903 24.519 1.28226L25.2305 0.673593L25.4902 0.470704C25.6728 0.346108 25.8699 0.244355 26.0772 0.167722L26.3802 0.0757457C26.4863 0.0503374 26.5965 0.031366 26.7048 0.0189363Z" fill="#46C4FF"/>
</svg>
