<svg width="81" height="118" viewBox="0 0 81 118" fill="none" xmlns="http://www.w3.org/2000/svg">
<path d="M74.7275 4.76465H11.9902C8.52719 4.76465 5.71765 7.57419 5.71765 11.0372V111.416C5.71765 114.879 8.52719 117.688 11.9902 117.688H74.7275C78.1905 117.688 81 114.879 81 111.416V11.0372C81 7.57419 78.1905 4.76465 74.7275 4.76465Z" fill="#7B2BBE"/>
<path d="M69.0098 0H6.27253C2.80954 0 0 2.80954 0 6.27253V106.651C0 110.114 2.80954 112.924 6.27253 112.924H69.0098C72.4728 112.924 75.2824 110.114 75.2824 106.651V6.27253C75.2824 2.80954 72.4728 0 69.0098 0Z" fill="#C67DFF"/>
<path d="M37.328 81.5547H37.9544H37.328Z" fill="#9D4EDD"/>
<path d="M37.328 81.5547H37.9544" stroke="#9D4EDD" stroke-width="5" stroke-linecap="round" stroke-linejoin="round"/>
<path d="M50.1894 50.1889H25.0933H50.1894Z" fill="#9D4EDD"/>
<path d="M50.1894 50.1889H25.0933M50.1894 25.0928H25.0933" stroke="#9D4EDD" stroke-width="9" stroke-linecap="round" stroke-linejoin="round"/>
</svg>
