<svg width="735" height="279" viewBox="0 0 735 279" fill="none" xmlns="http://www.w3.org/2000/svg">
<rect x="25" y="62" width="710" height="184" rx="30" fill="#E4C2FF"/>
<path opacity="0.5" d="M145.96 153.323C138.763 164.18 39.4735 275.115 36.9402 273.88C34.992 272.93 96.1385 143.125 103.401 132.299C110.664 121.474 126.07 117.444 137.785 123.234C149.552 129.009 153.17 142.512 145.96 153.323Z" fill="#6513A9"/>
<path opacity="0.3" d="M141.633 158.455C131.626 167.466 24.8064 239.553 22.796 237.737C21.2355 236.34 97.406 136.898 107.478 127.92C117.498 118.956 133.245 118.514 142.683 126.974C152.096 135.343 151.64 149.445 141.633 158.455Z" fill="#6513A9"/>
<path opacity="0.3" d="M100.462 138.189C96.4411 150.156 77.7836 265.535 80.5905 266.108C82.7975 266.547 144.473 160 148.494 148.032C152.462 136.078 144.934 124.212 131.682 121.533C118.47 118.793 104.493 126.267 100.462 138.189Z" fill="#6513A9"/>
<path opacity="0.2" d="M136.572 162.118C124.435 168.657 18.8854 209.448 17.445 207.234C16.3629 205.513 100.953 130.748 113.09 124.209C125.227 117.67 140.317 120.887 146.795 131.367C153.273 141.847 148.657 155.593 136.572 162.118Z" fill="#6513A9"/>
<path opacity="0.1" d="M136.573 162.117C124.435 168.656 31.9958 174.93 30.6205 172.748C29.538 171.027 101.018 130.779 113.155 124.24C125.293 117.701 140.383 120.918 146.861 131.398C153.274 141.845 148.658 155.592 136.573 162.117Z" fill="#6513A9"/>
<path opacity="0.1" d="M99.3227 143.842C98.8353 156.139 139.181 227.696 142.145 227.589C144.44 227.514 148.889 154.354 149.325 142.071C149.761 129.789 138.901 120.237 125.105 120.795C111.336 121.246 99.7579 131.559 99.3227 143.842Z" fill="#6513A9"/>
<path opacity="0.2" d="M99.3214 143.842C98.8345 156.139 111.044 254.809 113.955 254.715C116.25 254.64 148.836 154.367 149.311 142.024C149.747 129.742 138.888 120.19 125.091 120.748C111.322 121.199 99.7567 131.559 99.3214 143.842Z" fill="#6513A9"/>
<path d="M56.3338 56.8832C55.4612 51.4297 59.1748 46.3015 64.6283 45.4289L167.025 29.046C172.478 28.1735 177.606 31.8871 178.479 37.3406L196.024 147C198.205 160.633 188.921 173.454 175.288 175.635L102.514 187.279C88.8806 189.46 76.06 180.176 73.8787 166.542L56.3338 56.8832Z" fill="#7B2BBE"/>
<path d="M56.3338 56.8832C55.4612 51.4297 59.1748 46.3015 64.6283 45.4289L167.025 29.046C172.478 28.1735 177.606 31.8871 178.479 37.3406L190.188 110.522C194.812 139.425 175.13 166.605 146.226 171.229L128.75 174.025C99.8465 178.65 72.6668 158.968 68.0424 130.064L56.3338 56.8832Z" fill="#46C4FF"/>
<path d="M56.3338 56.8832C55.4612 51.4297 59.1748 46.3015 64.6283 45.4289L167.025 29.046C172.478 28.1735 177.606 31.8871 178.479 37.3406L194.769 139.157C196.863 152.246 187.951 164.554 174.862 166.648L100.114 178.607C87.0258 180.701 74.718 171.788 72.624 158.7L56.3338 56.8832Z" fill="#C67DFF"/>
<path d="M77.8694 59.4162C77.7822 58.8708 78.1535 58.358 78.6989 58.2707L159.135 45.4013C159.681 45.3141 160.193 45.6854 160.281 46.2308L170.012 107.052C173.653 129.809 158.156 151.209 135.399 154.85C112.642 158.491 91.2415 142.994 87.6005 120.237L77.8694 59.4162Z" fill="#9D4EDD"/>
<g clip-path="url(#clip0_1105_1071)">
<path d="M135.092 66.1646C135.889 66.0371 136.704 66.2313 137.357 66.7047C138.011 67.178 138.45 67.8916 138.577 68.6884L139.058 71.693C139.185 72.4899 138.991 73.3047 138.518 73.9583C138.044 74.612 137.331 75.0508 136.534 75.1783C135.737 75.3058 134.922 75.1115 134.269 74.6382C133.615 74.1649 133.176 73.4513 133.049 72.6544L132.568 69.6499C132.44 68.853 132.635 68.0381 133.108 67.3845C133.581 66.7309 134.295 66.2921 135.092 66.1646ZM124.465 74.7982C124.753 74.0444 125.328 73.4359 126.065 73.1065C126.802 72.7771 127.639 72.7539 128.393 73.0419L131.235 74.1279C131.984 74.4196 132.587 74.9956 132.912 75.7303C133.238 76.4649 133.26 77.2984 132.973 78.049C132.686 78.7996 132.114 79.4063 131.382 79.7366C130.649 80.067 129.816 80.0943 129.063 79.8125L126.221 78.7265C125.467 78.4385 124.859 77.8628 124.529 77.1261C124.2 76.3894 124.177 75.552 124.465 74.7982ZM147.439 75.3317C147.752 75.0807 148.013 74.7703 148.205 74.4183C148.398 74.0663 148.519 73.6797 148.562 73.2807C148.605 72.8817 148.568 72.4781 148.454 72.0934C148.34 71.7086 148.151 71.3502 147.898 71.0387C147.645 70.7273 147.333 70.4689 146.98 70.2786C146.626 70.0883 146.239 69.9697 145.84 69.9297C145.44 69.8897 145.037 69.9291 144.653 70.0456C144.269 70.1621 143.912 70.3534 143.602 70.6085L141.24 72.5271C140.927 72.778 140.667 73.0884 140.474 73.4405C140.282 73.7925 140.16 74.1791 140.118 74.5781C140.075 74.9771 140.112 75.3806 140.226 75.7654C140.34 76.1502 140.529 76.5086 140.782 76.82C141.035 77.1315 141.347 77.3898 141.7 77.5802C142.053 77.7705 142.441 77.8891 142.84 77.929C143.239 77.969 143.643 77.9297 144.027 77.8132C144.411 77.6967 144.768 77.5054 145.078 77.2503L147.439 75.3317ZM133.385 81.3028C133.665 80.5818 134.208 79.9945 134.906 79.6601C135.603 79.3258 136.402 79.2695 137.139 79.5027C137.876 79.7359 138.497 80.2412 138.875 80.9157C139.254 81.5903 139.361 82.3836 139.175 83.1343L139.069 83.4748L138.472 85.0371L141.314 86.1231C141.849 86.3275 142.315 86.6786 142.659 87.1359C143.003 87.5932 143.211 88.1383 143.259 88.7085L143.269 89.0953L143.189 90.9261C149.986 97.3144 152.801 107.208 149.33 116.29C144.678 128.467 130.683 134.179 118.254 129.428C105.821 124.678 99.2007 111.091 103.853 98.9145C107.22 90.1051 115.496 84.6702 124.496 84.1454L125.344 84.1084L126.504 82.6903C126.867 82.2472 127.348 81.9158 127.891 81.734C128.435 81.5522 129.018 81.5275 129.575 81.6627L129.945 81.7792L132.787 82.8652L133.385 81.3028ZM123.294 93.4992C121.203 93.8338 119.238 94.7127 117.595 96.0477C115.952 97.3826 114.69 99.1265 113.935 101.104C113.655 101.83 113.663 102.635 113.958 103.355C114.254 104.075 114.814 104.654 115.523 104.974C116.232 105.293 117.037 105.329 117.772 105.074C118.507 104.819 119.116 104.292 119.474 103.601L119.619 103.276C120.347 101.372 121.944 100.051 123.795 99.6004L124.261 99.5073C125.058 99.3791 125.771 98.9395 126.244 98.2854C126.716 97.6313 126.91 96.8163 126.781 96.0195C126.653 95.2228 126.214 94.5097 125.559 94.037C124.905 93.5643 124.09 93.3709 123.294 93.4992ZM145.446 79.5548L148.289 80.6408C148.664 80.7815 149.009 80.9952 149.302 81.2695C149.594 81.5438 149.83 81.8734 149.995 82.2392C150.16 82.6049 150.251 82.9998 150.263 83.4009C150.275 83.802 150.207 84.2015 150.064 84.5763C149.921 84.9512 149.705 85.294 149.429 85.585C149.152 85.8761 148.821 86.1096 148.454 86.2722C148.087 86.4348 147.692 86.5232 147.291 86.5323C146.89 86.5414 146.491 86.4711 146.117 86.3254L143.274 85.2394C142.899 85.0987 142.554 84.885 142.261 84.6107C141.969 84.3364 141.733 84.0069 141.568 83.6411C141.403 83.2753 141.312 82.8805 141.3 82.4793C141.288 82.0782 141.356 81.6788 141.499 81.3039C141.642 80.929 141.858 80.5862 142.135 80.2952C142.411 80.0041 142.742 79.7706 143.109 79.608C143.476 79.4454 143.871 79.357 144.272 79.3479C144.673 79.3388 145.072 79.4091 145.446 79.5548Z" fill="#6513A9"/>
</g>
<path d="M147.036 31.8948L166.597 29.1148L168.186 29.6149L169.776 30.1152L171.365 30.6156L173.808 31.734L175.633 33.706L178.373 38.5501L181.77 59.7784L136.004 120.254L90.2385 180.73L86.7104 178.478L83.4704 175.828L80.5187 172.781L77.8553 169.335L75.4802 165.49L73.7916 161.537L72.3912 157.184L71.6491 152.546L68.8767 135.218L147.036 31.8948Z" fill="white" fill-opacity="0.29"/>
<path d="M250.31 106.99V112H237.17V93.19H250.04V98.08H242.72V100.21H248.93V104.77H242.72V106.99H250.31ZM261.441 104.29L265.791 112H259.911L258.141 108.04L256.371 112H250.821L255.201 104.29L250.791 97.18H257.061L258.621 100.81L260.271 97.18H265.791L261.441 104.29ZM272.068 116.56H266.668V97.18H271.408L271.678 98.59H271.858C272.358 98.01 272.958 97.58 273.658 97.3C274.358 97.02 275.158 96.88 276.058 96.88C277.978 96.88 279.338 97.47 280.138 98.65C280.958 99.81 281.368 101.79 281.368 104.59C281.368 107.27 280.848 109.23 279.808 110.47C278.788 111.69 277.148 112.3 274.888 112.3C274.368 112.3 273.868 112.27 273.388 112.21C272.908 112.15 272.468 112.06 272.068 111.94V116.56ZM275.968 104.59C275.968 103.45 275.848 102.69 275.608 102.31C275.368 101.93 274.848 101.74 274.048 101.74C273.688 101.74 273.338 101.78 272.998 101.86C272.678 101.92 272.368 102.02 272.068 102.16V107.08C272.288 107.16 272.548 107.22 272.848 107.26C273.148 107.3 273.498 107.32 273.898 107.32C274.778 107.32 275.338 107.15 275.578 106.81C275.838 106.45 275.968 105.71 275.968 104.59ZM288.387 92.05V112H282.987V92.05H288.387ZM304.979 104.59C304.979 107.37 304.399 109.36 303.239 110.56C302.079 111.74 300.149 112.33 297.449 112.33C294.789 112.33 292.869 111.73 291.689 110.53C290.529 109.31 289.949 107.33 289.949 104.59C289.949 101.83 290.519 99.86 291.659 98.68C292.819 97.48 294.749 96.88 297.449 96.88C300.129 96.88 302.049 97.48 303.209 98.68C304.389 99.88 304.979 101.85 304.979 104.59ZM295.349 104.53C295.349 105.69 295.479 106.45 295.739 106.81C295.999 107.15 296.569 107.32 297.449 107.32C298.349 107.32 298.929 107.15 299.189 106.81C299.449 106.45 299.579 105.69 299.579 104.53C299.579 103.37 299.449 102.62 299.189 102.28C298.929 101.92 298.349 101.74 297.449 101.74C296.569 101.74 295.999 101.92 295.739 102.28C295.479 102.62 295.349 103.37 295.349 104.53ZM312.901 101.05C312.201 101.05 311.731 101.1 311.491 101.2C311.251 101.3 311.131 101.5 311.131 101.8C311.131 101.96 311.171 102.08 311.251 102.16C311.351 102.24 311.491 102.29 311.671 102.31L314.851 102.7C316.171 102.86 317.071 103.25 317.551 103.87C318.051 104.49 318.301 105.5 318.301 106.9C318.301 108.78 317.831 110.16 316.891 111.04C315.971 111.9 314.421 112.33 312.241 112.33C311.061 112.33 309.971 112.27 308.971 112.15C307.991 112.05 307.181 111.91 306.541 111.73V107.41C307.341 107.59 308.191 107.73 309.091 107.83C309.991 107.93 310.841 107.98 311.641 107.98C312.321 107.98 312.771 107.92 312.991 107.8C313.231 107.68 313.351 107.45 313.351 107.11C313.351 106.99 313.311 106.89 313.231 106.81C313.151 106.71 313.031 106.65 312.871 106.63L309.361 106.21C308.201 106.05 307.361 105.64 306.841 104.98C306.341 104.32 306.091 103.33 306.091 102.01C306.091 100.29 306.631 99.01 307.711 98.17C308.811 97.31 310.441 96.88 312.601 96.88C313.581 96.88 314.471 96.91 315.271 96.97C316.071 97.01 316.771 97.08 317.371 97.18V101.38C316.691 101.28 315.951 101.2 315.151 101.14C314.351 101.08 313.601 101.05 312.901 101.05ZM323.352 112.33C321.912 112.33 320.862 111.95 320.202 111.19C319.542 110.43 319.212 109.24 319.212 107.62C319.212 106.02 319.622 104.88 320.442 104.2C321.282 103.52 322.672 103.18 324.612 103.18C325.072 103.18 325.532 103.2 325.992 103.24C326.472 103.28 326.892 103.33 327.252 103.39V102.64C327.252 102.24 327.062 101.96 326.682 101.8C326.302 101.62 325.682 101.53 324.822 101.53C324.002 101.53 323.252 101.55 322.572 101.59C321.912 101.63 321.242 101.71 320.562 101.83V97.42C321.302 97.24 322.192 97.11 323.232 97.03C324.292 96.93 325.502 96.88 326.862 96.88C328.742 96.88 330.172 97.3 331.152 98.14C332.152 98.96 332.652 100.17 332.652 101.77V112H327.552L327.402 110.83H327.312C326.712 111.33 326.072 111.71 325.392 111.97C324.732 112.21 324.052 112.33 323.352 112.33ZM325.482 106.24C324.962 106.24 324.592 106.32 324.372 106.48C324.172 106.62 324.072 106.89 324.072 107.29C324.072 107.69 324.152 107.97 324.312 108.13C324.492 108.27 324.792 108.34 325.212 108.34C325.552 108.34 325.902 108.31 326.262 108.25C326.642 108.17 326.972 108.07 327.252 107.95V106.36C326.972 106.32 326.682 106.29 326.382 106.27C326.102 106.25 325.802 106.24 325.482 106.24ZM328.272 91.63H331.032C331.032 92.97 330.812 94.01 330.372 94.75C329.952 95.49 329.332 95.86 328.512 95.86C328.232 95.86 327.922 95.81 327.582 95.71C327.262 95.59 326.802 95.36 326.202 95.02C325.862 94.82 325.622 94.69 325.482 94.63C325.342 94.57 325.222 94.54 325.122 94.54C324.942 94.54 324.812 94.64 324.732 94.84C324.652 95.02 324.612 95.32 324.612 95.74H321.822C321.822 94.4 322.032 93.36 322.452 92.62C322.892 91.88 323.522 91.51 324.342 91.51C324.622 91.51 324.922 91.56 325.242 91.66C325.562 91.76 326.012 91.97 326.592 92.29C326.952 92.47 327.202 92.59 327.342 92.65C327.502 92.71 327.632 92.74 327.732 92.74C327.912 92.74 328.042 92.65 328.122 92.47C328.222 92.29 328.272 92.01 328.272 91.63ZM349.188 104.59C349.188 107.37 348.608 109.36 347.448 110.56C346.288 111.74 344.358 112.33 341.658 112.33C338.998 112.33 337.078 111.73 335.898 110.53C334.738 109.31 334.158 107.33 334.158 104.59C334.158 101.83 334.728 99.86 335.868 98.68C337.028 97.48 338.958 96.88 341.658 96.88C344.338 96.88 346.258 97.48 347.418 98.68C348.598 99.88 349.188 101.85 349.188 104.59ZM339.558 104.53C339.558 105.69 339.688 106.45 339.948 106.81C340.208 107.15 340.778 107.32 341.658 107.32C342.558 107.32 343.138 107.15 343.398 106.81C343.658 106.45 343.788 105.69 343.788 104.53C343.788 103.37 343.658 102.62 343.398 102.28C343.138 101.92 342.558 101.74 341.658 101.74C340.778 101.74 340.208 101.92 339.948 102.28C339.688 102.62 339.558 103.37 339.558 104.53ZM368.201 106.99V112H355.061V93.19H367.931V98.08H360.611V100.21H366.821V104.77H360.611V106.99H368.201ZM375.281 92.05V112H369.881V92.05H375.281ZM389.923 107.17V111.28C389.363 111.56 388.493 111.8 387.313 112C386.153 112.22 384.943 112.33 383.683 112.33C381.263 112.33 379.513 111.73 378.433 110.53C377.373 109.31 376.843 107.34 376.843 104.62C376.843 101.96 377.413 100.01 378.553 98.77C379.713 97.51 381.513 96.88 383.953 96.88C386.313 96.88 388.003 97.35 389.023 98.29C390.043 99.21 390.553 100.79 390.553 103.03C390.553 103.71 390.543 104.26 390.523 104.68C390.503 105.08 390.463 105.54 390.403 106.06H382.183C382.203 106.7 382.383 107.14 382.723 107.38C383.063 107.6 383.673 107.71 384.553 107.71C385.513 107.71 386.493 107.66 387.493 107.56C388.513 107.44 389.323 107.31 389.923 107.17ZM384.013 101.14C383.333 101.14 382.853 101.28 382.573 101.56C382.313 101.82 382.183 102.35 382.183 103.15H385.753V102.46C385.713 101.94 385.573 101.59 385.333 101.41C385.113 101.23 384.673 101.14 384.013 101.14ZM393.019 101.65H391.489V97.18H393.229L393.859 93.79H398.419V97.18H402.139V101.65H398.419V106.12C398.419 106.58 398.539 106.89 398.779 107.05C399.039 107.21 399.509 107.29 400.189 107.29C400.489 107.29 400.859 107.27 401.299 107.23C401.739 107.19 402.089 107.14 402.349 107.08V111.73C402.049 111.87 401.499 112 400.699 112.12C399.919 112.26 399.229 112.33 398.629 112.33C396.629 112.33 395.189 111.9 394.309 111.04C393.449 110.18 393.019 108.79 393.019 106.87V101.65ZM409.031 112H403.631V97.18H408.671L408.851 98.32H408.911C409.531 97.86 410.141 97.51 410.741 97.27C411.361 97.03 411.961 96.91 412.541 96.91H413.051V102.13C412.591 102.09 412.281 102.07 412.121 102.07C411.981 102.05 411.831 102.04 411.671 102.04C411.171 102.04 410.701 102.07 410.261 102.13C409.821 102.19 409.411 102.28 409.031 102.4V112ZM428.788 104.59C428.788 107.37 428.208 109.36 427.048 110.56C425.888 111.74 423.958 112.33 421.258 112.33C418.598 112.33 416.678 111.73 415.498 110.53C414.338 109.31 413.758 107.33 413.758 104.59C413.758 101.83 414.328 99.86 415.468 98.68C416.628 97.48 418.558 96.88 421.258 96.88C423.938 96.88 425.858 97.48 427.018 98.68C428.198 99.88 428.788 101.85 428.788 104.59ZM419.158 104.53C419.158 105.69 419.288 106.45 419.548 106.81C419.808 107.15 420.378 107.32 421.258 107.32C422.158 107.32 422.738 107.15 422.998 106.81C423.258 106.45 423.388 105.69 423.388 104.53C423.388 103.37 423.258 102.62 422.998 102.28C422.738 101.92 422.158 101.74 421.258 101.74C420.378 101.74 419.808 101.92 419.548 102.28C419.288 102.62 419.158 103.37 419.158 104.53ZM426.808 95.74H422.908L421.258 94.09L419.638 95.74H415.738L418.948 91.66H423.598L426.808 95.74ZM435.779 112H430.379V97.18H435.029L435.239 98.74H435.359C435.959 98.1 436.619 97.63 437.339 97.33C438.059 97.03 438.909 96.88 439.889 96.88C441.449 96.88 442.629 97.29 443.429 98.11C444.229 98.93 444.629 100.14 444.629 101.74V112H439.229V102.85C439.229 102.49 439.099 102.22 438.839 102.04C438.599 101.84 438.229 101.74 437.729 101.74C437.389 101.74 437.059 101.78 436.739 101.86C436.419 101.92 436.099 102.02 435.779 102.16V112ZM452.07 95.95H446.52V92.05H452.07V95.95ZM452.01 112H446.61V97.18H452.01V112ZM465.332 106.78V111.22C464.832 111.52 464.022 111.78 462.902 112C461.802 112.22 460.672 112.33 459.512 112.33C457.332 112.33 455.802 111.76 454.922 110.62C454.042 109.46 453.602 107.45 453.602 104.59C453.602 101.71 454.162 99.71 455.282 98.59C456.422 97.45 458.422 96.88 461.282 96.88C461.882 96.88 462.432 96.9 462.932 96.94C463.432 96.96 464.102 97.02 464.942 97.12V101.86C464.922 101.86 464.522 101.84 463.742 101.8C462.962 101.76 462.162 101.74 461.342 101.74C460.322 101.74 459.672 101.9 459.392 102.22C459.132 102.54 459.002 103.33 459.002 104.59C459.002 105.73 459.122 106.47 459.362 106.81C459.602 107.13 460.122 107.29 460.922 107.29C461.662 107.29 462.432 107.24 463.232 107.14C464.032 107.04 464.732 106.92 465.332 106.78ZM470.335 112.33C468.895 112.33 467.845 111.95 467.185 111.19C466.525 110.43 466.195 109.24 466.195 107.62C466.195 106.02 466.605 104.88 467.425 104.2C468.265 103.52 469.655 103.18 471.595 103.18C472.055 103.18 472.515 103.2 472.975 103.24C473.455 103.28 473.875 103.33 474.235 103.39V102.64C474.235 102.24 474.045 101.96 473.665 101.8C473.285 101.62 472.665 101.53 471.805 101.53C470.985 101.53 470.235 101.55 469.555 101.59C468.895 101.63 468.225 101.71 467.545 101.83V97.42C468.285 97.24 469.175 97.11 470.215 97.03C471.275 96.93 472.485 96.88 473.845 96.88C475.725 96.88 477.155 97.3 478.135 98.14C479.135 98.96 479.635 100.17 479.635 101.77V112H474.535L474.385 110.83H474.295C473.695 111.33 473.055 111.71 472.375 111.97C471.715 112.21 471.035 112.33 470.335 112.33ZM472.465 106.24C471.945 106.24 471.575 106.32 471.355 106.48C471.155 106.62 471.055 106.89 471.055 107.29C471.055 107.69 471.135 107.97 471.295 108.13C471.475 108.27 471.775 108.34 472.195 108.34C472.535 108.34 472.885 108.31 473.245 108.25C473.625 108.17 473.955 108.07 474.235 107.95V106.36C473.955 106.32 473.665 106.29 473.365 106.27C473.085 106.25 472.785 106.24 472.465 106.24Z" fill="#6513A9"/>
<path d="M268.986 141.264H265.318L264.73 143H262.224L265.78 133.172H268.552L272.108 143H269.574L268.986 141.264ZM268.37 139.416L267.152 135.818L265.948 139.416H268.37ZM280.26 133.172V135.09H277.656V143H275.262V135.09H272.658V133.172H280.26ZM283.856 133.172V143H281.462V133.172H283.856ZM294.383 143H291.989L287.985 136.938V143H285.591V133.172H287.985L291.989 139.262V133.172H294.383V143ZM302.278 133.172V139.864C302.278 140.9 301.984 141.698 301.396 142.258C300.817 142.818 300.033 143.098 299.044 143.098C298.008 143.098 297.177 142.804 296.552 142.216C295.927 141.628 295.614 140.793 295.614 139.71H297.994C297.994 140.121 298.078 140.433 298.246 140.648C298.414 140.853 298.657 140.956 298.974 140.956C299.263 140.956 299.487 140.863 299.646 140.676C299.805 140.489 299.884 140.219 299.884 139.864V133.172H302.278ZM310.33 141.264H306.662L306.074 143H303.568L307.124 133.172H309.896L313.452 143H310.918L310.33 141.264ZM309.714 139.416L308.496 135.818L307.292 139.416H309.714ZM317.179 141.082C317.496 140.83 317.641 140.713 317.613 140.732C318.527 139.976 319.246 139.355 319.769 138.87C320.301 138.385 320.749 137.876 321.113 137.344C321.477 136.812 321.659 136.294 321.659 135.79C321.659 135.407 321.57 135.109 321.393 134.894C321.215 134.679 320.949 134.572 320.595 134.572C320.24 134.572 319.96 134.707 319.755 134.978C319.559 135.239 319.461 135.613 319.461 136.098H317.151C317.169 135.305 317.337 134.642 317.655 134.11C317.981 133.578 318.406 133.186 318.929 132.934C319.461 132.682 320.049 132.556 320.693 132.556C321.803 132.556 322.639 132.841 323.199 133.41C323.768 133.979 324.053 134.721 324.053 135.636C324.053 136.635 323.712 137.563 323.031 138.422C322.349 139.271 321.481 140.102 320.427 140.914H324.207V142.86H317.179V141.082ZM325.261 137.75C325.261 136.145 325.569 134.88 326.185 133.956C326.81 133.032 327.814 132.57 329.195 132.57C330.576 132.57 331.575 133.032 332.191 133.956C332.816 134.88 333.129 136.145 333.129 137.75C333.129 139.374 332.816 140.648 332.191 141.572C331.575 142.496 330.576 142.958 329.195 142.958C327.814 142.958 326.81 142.496 326.185 141.572C325.569 140.648 325.261 139.374 325.261 137.75ZM330.777 137.75C330.777 136.807 330.674 136.084 330.469 135.58C330.264 135.067 329.839 134.81 329.195 134.81C328.551 134.81 328.126 135.067 327.921 135.58C327.716 136.084 327.613 136.807 327.613 137.75C327.613 138.385 327.65 138.912 327.725 139.332C327.8 139.743 327.949 140.079 328.173 140.34C328.406 140.592 328.747 140.718 329.195 140.718C329.643 140.718 329.979 140.592 330.203 140.34C330.436 140.079 330.59 139.743 330.665 139.332C330.74 138.912 330.777 138.385 330.777 137.75ZM334.394 137.75C334.394 136.145 334.702 134.88 335.318 133.956C335.943 133.032 336.946 132.57 338.328 132.57C339.709 132.57 340.708 133.032 341.324 133.956C341.949 134.88 342.262 136.145 342.262 137.75C342.262 139.374 341.949 140.648 341.324 141.572C340.708 142.496 339.709 142.958 338.328 142.958C336.946 142.958 335.943 142.496 335.318 141.572C334.702 140.648 334.394 139.374 334.394 137.75ZM339.91 137.75C339.91 136.807 339.807 136.084 339.602 135.58C339.396 135.067 338.972 134.81 338.328 134.81C337.684 134.81 337.259 135.067 337.054 135.58C336.848 136.084 336.746 136.807 336.746 137.75C336.746 138.385 336.783 138.912 336.858 139.332C336.932 139.743 337.082 140.079 337.306 140.34C337.539 140.592 337.88 140.718 338.328 140.718C338.776 140.718 339.112 140.592 339.336 140.34C339.569 140.079 339.723 139.743 339.798 139.332C339.872 138.912 339.91 138.385 339.91 137.75ZM343.526 137.75C343.526 136.145 343.834 134.88 344.45 133.956C345.076 133.032 346.079 132.57 347.46 132.57C348.842 132.57 349.84 133.032 350.456 133.956C351.082 134.88 351.394 136.145 351.394 137.75C351.394 139.374 351.082 140.648 350.456 141.572C349.84 142.496 348.842 142.958 347.46 142.958C346.079 142.958 345.076 142.496 344.45 141.572C343.834 140.648 343.526 139.374 343.526 137.75ZM349.042 137.75C349.042 136.807 348.94 136.084 348.734 135.58C348.529 135.067 348.104 134.81 347.46 134.81C346.816 134.81 346.392 135.067 346.186 135.58C345.981 136.084 345.878 136.807 345.878 137.75C345.878 138.385 345.916 138.912 345.99 139.332C346.065 139.743 346.214 140.079 346.438 140.34C346.672 140.592 347.012 140.718 347.46 140.718C347.908 140.718 348.244 140.592 348.468 140.34C348.702 140.079 348.856 139.743 348.93 139.332C349.005 138.912 349.042 138.385 349.042 137.75ZM360.876 143L358.832 139.29H358.258V143H355.864V133.172H359.882C360.657 133.172 361.315 133.307 361.856 133.578C362.407 133.849 362.817 134.222 363.088 134.698C363.359 135.165 363.494 135.687 363.494 136.266C363.494 136.919 363.307 137.503 362.934 138.016C362.57 138.529 362.029 138.893 361.31 139.108L363.578 143H360.876ZM358.258 137.596H359.742C360.181 137.596 360.507 137.489 360.722 137.274C360.946 137.059 361.058 136.756 361.058 136.364C361.058 135.991 360.946 135.697 360.722 135.482C360.507 135.267 360.181 135.16 359.742 135.16H358.258V137.596ZM371.115 141.264H367.447L366.859 143H364.353L367.909 133.172H370.681L374.237 143H371.703L371.115 141.264ZM370.499 139.416L369.281 135.818L368.077 139.416H370.499ZM386.449 133.172V143H384.055V137.106L381.857 143H379.925L377.713 137.092V143H375.319V133.172H378.147L380.905 139.976L383.635 133.172H386.449ZM387.765 138.072C387.765 137.101 387.975 136.238 388.395 135.482C388.815 134.717 389.398 134.124 390.145 133.704C390.901 133.275 391.755 133.06 392.707 133.06C393.873 133.06 394.872 133.368 395.703 133.984C396.533 134.6 397.089 135.44 397.369 136.504H394.737C394.541 136.093 394.261 135.781 393.897 135.566C393.542 135.351 393.136 135.244 392.679 135.244C391.941 135.244 391.344 135.501 390.887 136.014C390.429 136.527 390.201 137.213 390.201 138.072C390.201 138.931 390.429 139.617 390.887 140.13C391.344 140.643 391.941 140.9 392.679 140.9C393.136 140.9 393.542 140.793 393.897 140.578C394.261 140.363 394.541 140.051 394.737 139.64H397.369C397.089 140.704 396.533 141.544 395.703 142.16C394.872 142.767 393.873 143.07 392.707 143.07C391.755 143.07 390.901 142.86 390.145 142.44C389.398 142.011 388.815 141.418 388.395 140.662C387.975 139.906 387.765 139.043 387.765 138.072ZM403.483 143.098C402.559 143.098 401.709 142.883 400.935 142.454C400.169 142.025 399.558 141.427 399.101 140.662C398.653 139.887 398.429 139.019 398.429 138.058C398.429 137.097 398.653 136.233 399.101 135.468C399.558 134.703 400.169 134.105 400.935 133.676C401.709 133.247 402.559 133.032 403.483 133.032C404.407 133.032 405.251 133.247 406.017 133.676C406.791 134.105 407.398 134.703 407.837 135.468C408.285 136.233 408.509 137.097 408.509 138.058C408.509 139.019 408.285 139.887 407.837 140.662C407.389 141.427 406.782 142.025 406.017 142.454C405.251 142.883 404.407 143.098 403.483 143.098ZM403.483 140.914C404.267 140.914 404.892 140.653 405.359 140.13C405.835 139.607 406.073 138.917 406.073 138.058C406.073 137.19 405.835 136.499 405.359 135.986C404.892 135.463 404.267 135.202 403.483 135.202C402.689 135.202 402.055 135.459 401.579 135.972C401.112 136.485 400.879 137.181 400.879 138.058C400.879 138.926 401.112 139.621 401.579 140.144C402.055 140.657 402.689 140.914 403.483 140.914ZM412.235 133.172V143H409.841V133.172H412.235ZM422.762 143H420.368L416.364 136.938V143H413.97V133.172H416.364L420.368 139.262V133.172H422.762V143ZM428.053 143.098C427.334 143.098 426.69 142.981 426.121 142.748C425.552 142.515 425.094 142.169 424.749 141.712C424.413 141.255 424.236 140.704 424.217 140.06H426.765C426.802 140.424 426.928 140.704 427.143 140.9C427.358 141.087 427.638 141.18 427.983 141.18C428.338 141.18 428.618 141.101 428.823 140.942C429.028 140.774 429.131 140.545 429.131 140.256C429.131 140.013 429.047 139.813 428.879 139.654C428.72 139.495 428.52 139.365 428.277 139.262C428.044 139.159 427.708 139.043 427.269 138.912C426.634 138.716 426.116 138.52 425.715 138.324C425.314 138.128 424.968 137.839 424.679 137.456C424.39 137.073 424.245 136.574 424.245 135.958C424.245 135.043 424.576 134.329 425.239 133.816C425.902 133.293 426.765 133.032 427.829 133.032C428.912 133.032 429.784 133.293 430.447 133.816C431.11 134.329 431.464 135.048 431.511 135.972H428.921C428.902 135.655 428.786 135.407 428.571 135.23C428.356 135.043 428.081 134.95 427.745 134.95C427.456 134.95 427.222 135.029 427.045 135.188C426.868 135.337 426.779 135.557 426.779 135.846C426.779 136.163 426.928 136.411 427.227 136.588C427.526 136.765 427.992 136.957 428.627 137.162C429.262 137.377 429.775 137.582 430.167 137.778C430.568 137.974 430.914 138.259 431.203 138.632C431.492 139.005 431.637 139.486 431.637 140.074C431.637 140.634 431.492 141.143 431.203 141.6C430.923 142.057 430.512 142.421 429.971 142.692C429.43 142.963 428.79 143.098 428.053 143.098Z" fill="#6513A9"/>
<path d="M246.982 185H245.044L239.213 176.177V185H237.275V173.168H239.213L245.044 181.974V173.168H246.982V185ZM248.881 180.274C248.881 179.333 249.074 178.5 249.459 177.775C249.856 177.05 250.388 176.489 251.057 176.092C251.737 175.684 252.485 175.48 253.301 175.48C254.038 175.48 254.678 175.627 255.222 175.922C255.777 176.205 256.219 176.562 256.548 176.993V175.633H258.503V185H256.548V183.606C256.219 184.048 255.772 184.416 255.205 184.711C254.638 185.006 253.992 185.153 253.267 185.153C252.462 185.153 251.726 184.949 251.057 184.541C250.388 184.122 249.856 183.544 249.459 182.807C249.074 182.059 248.881 181.215 248.881 180.274ZM256.548 180.308C256.548 179.662 256.412 179.101 256.14 178.625C255.879 178.149 255.534 177.786 255.103 177.537C254.672 177.288 254.208 177.163 253.709 177.163C253.21 177.163 252.746 177.288 252.315 177.537C251.884 177.775 251.533 178.132 251.261 178.608C251 179.073 250.87 179.628 250.87 180.274C250.87 180.92 251 181.487 251.261 181.974C251.533 182.461 251.884 182.835 252.315 183.096C252.757 183.345 253.222 183.47 253.709 183.47C254.208 183.47 254.672 183.345 255.103 183.096C255.534 182.847 255.879 182.484 256.14 182.008C256.412 181.521 256.548 180.954 256.548 180.308ZM274.049 180.087C274.049 180.438 274.027 180.756 273.981 181.039H266.824C266.881 181.787 267.159 182.388 267.657 182.841C268.156 183.294 268.768 183.521 269.493 183.521C270.536 183.521 271.273 183.085 271.703 182.212H273.794C273.511 183.073 272.995 183.782 272.247 184.337C271.511 184.881 270.593 185.153 269.493 185.153C268.598 185.153 267.793 184.955 267.079 184.558C266.377 184.15 265.821 183.583 265.413 182.858C265.017 182.121 264.818 181.271 264.818 180.308C264.818 179.345 265.011 178.5 265.396 177.775C265.793 177.038 266.343 176.472 267.045 176.075C267.759 175.678 268.575 175.48 269.493 175.48C270.377 175.48 271.165 175.673 271.856 176.058C272.548 176.443 273.086 176.987 273.471 177.69C273.857 178.381 274.049 179.18 274.049 180.087ZM272.026 179.475C272.015 178.761 271.76 178.189 271.261 177.758C270.763 177.327 270.145 177.112 269.408 177.112C268.74 177.112 268.167 177.327 267.691 177.758C267.215 178.177 266.932 178.75 266.841 179.475H272.026ZM277.895 176.993C278.178 176.517 278.552 176.149 279.017 175.888C279.493 175.616 280.054 175.48 280.7 175.48V177.486H280.207C279.447 177.486 278.869 177.679 278.473 178.064C278.087 178.449 277.895 179.118 277.895 180.07V185H275.957V175.633H277.895V176.993ZM281.835 180.274C281.835 179.333 282.028 178.5 282.413 177.775C282.81 177.05 283.342 176.489 284.011 176.092C284.691 175.684 285.439 175.48 286.255 175.48C286.992 175.48 287.632 175.627 288.176 175.922C288.731 176.205 289.173 176.562 289.502 176.993V175.633H291.457V185H289.502V183.606C289.173 184.048 288.726 184.416 288.159 184.711C287.592 185.006 286.946 185.153 286.221 185.153C285.416 185.153 284.68 184.949 284.011 184.541C283.342 184.122 282.81 183.544 282.413 182.807C282.028 182.059 281.835 181.215 281.835 180.274ZM289.502 180.308C289.502 179.662 289.366 179.101 289.094 178.625C288.833 178.149 288.488 177.786 288.057 177.537C287.626 177.288 287.162 177.163 286.663 177.163C286.164 177.163 285.7 177.288 285.269 177.537C284.838 177.775 284.487 178.132 284.215 178.608C283.954 179.073 283.824 179.628 283.824 180.274C283.824 180.92 283.954 181.487 284.215 181.974C284.487 182.461 284.838 182.835 285.269 183.096C285.711 183.345 286.176 183.47 286.663 183.47C287.162 183.47 287.626 183.345 288.057 183.096C288.488 182.847 288.833 182.484 289.094 182.008C289.366 181.521 289.502 180.954 289.502 180.308ZM297.773 180.274C297.773 179.333 297.965 178.5 298.351 177.775C298.747 177.05 299.28 176.489 299.949 176.092C300.629 175.684 301.382 175.48 302.21 175.48C302.822 175.48 303.422 175.616 304.012 175.888C304.612 176.149 305.088 176.5 305.44 176.942V172.42H307.395V185H305.44V183.589C305.122 184.042 304.68 184.416 304.114 184.711C303.558 185.006 302.918 185.153 302.193 185.153C301.377 185.153 300.629 184.949 299.949 184.541C299.28 184.122 298.747 183.544 298.351 182.807C297.965 182.059 297.773 181.215 297.773 180.274ZM305.44 180.308C305.44 179.662 305.304 179.101 305.032 178.625C304.771 178.149 304.425 177.786 303.995 177.537C303.564 177.288 303.099 177.163 302.601 177.163C302.102 177.163 301.637 177.288 301.207 177.537C300.776 177.775 300.425 178.132 300.153 178.608C299.892 179.073 299.762 179.628 299.762 180.274C299.762 180.92 299.892 181.487 300.153 181.974C300.425 182.461 300.776 182.835 301.207 183.096C301.649 183.345 302.113 183.47 302.601 183.47C303.099 183.47 303.564 183.345 303.995 183.096C304.425 182.847 304.771 182.484 305.032 182.008C305.304 181.521 305.44 180.954 305.44 180.308ZM310.926 174.392C310.575 174.392 310.28 174.273 310.042 174.035C309.804 173.797 309.685 173.502 309.685 173.151C309.685 172.8 309.804 172.505 310.042 172.267C310.28 172.029 310.575 171.91 310.926 171.91C311.266 171.91 311.555 172.029 311.793 172.267C312.031 172.505 312.15 172.8 312.15 173.151C312.15 173.502 312.031 173.797 311.793 174.035C311.555 174.273 311.266 174.392 310.926 174.392ZM311.878 175.633V185H309.94V175.633H311.878ZM318.196 175.48C318.922 175.48 319.562 175.627 320.117 175.922C320.684 176.205 321.126 176.562 321.443 176.993V175.633H323.398V185.153C323.398 186.014 323.217 186.779 322.854 187.448C322.492 188.128 321.965 188.661 321.273 189.046C320.593 189.431 319.777 189.624 318.825 189.624C317.556 189.624 316.502 189.324 315.663 188.723C314.825 188.134 314.349 187.329 314.235 186.309H316.156C316.304 186.796 316.615 187.187 317.091 187.482C317.579 187.788 318.157 187.941 318.825 187.941C319.607 187.941 320.236 187.703 320.712 187.227C321.2 186.751 321.443 186.06 321.443 185.153V183.589C321.115 184.031 320.667 184.405 320.1 184.711C319.545 185.006 318.91 185.153 318.196 185.153C317.38 185.153 316.632 184.949 315.952 184.541C315.284 184.122 314.751 183.544 314.354 182.807C313.969 182.059 313.776 181.215 313.776 180.274C313.776 179.333 313.969 178.5 314.354 177.775C314.751 177.05 315.284 176.489 315.952 176.092C316.632 175.684 317.38 175.48 318.196 175.48ZM321.443 180.308C321.443 179.662 321.307 179.101 321.035 178.625C320.775 178.149 320.429 177.786 319.998 177.537C319.568 177.288 319.103 177.163 318.604 177.163C318.106 177.163 317.641 177.288 317.21 177.537C316.78 177.775 316.428 178.132 316.156 178.608C315.896 179.073 315.765 179.628 315.765 180.274C315.765 180.92 315.896 181.487 316.156 181.974C316.428 182.461 316.78 182.835 317.21 183.096C317.652 183.345 318.117 183.47 318.604 183.47C319.103 183.47 319.568 183.345 319.998 183.096C320.429 182.847 320.775 182.484 321.035 182.008C321.307 181.521 321.443 180.954 321.443 180.308ZM326.93 174.392C326.579 174.392 326.284 174.273 326.046 174.035C325.808 173.797 325.689 173.502 325.689 173.151C325.689 172.8 325.808 172.505 326.046 172.267C326.284 172.029 326.579 171.91 326.93 171.91C327.27 171.91 327.559 172.029 327.797 172.267C328.035 172.505 328.154 172.8 328.154 173.151C328.154 173.502 328.035 173.797 327.797 174.035C327.559 174.273 327.27 174.392 326.93 174.392ZM327.882 175.633V185H325.944V175.633H327.882ZM332.687 177.214V182.399C332.687 182.75 332.767 183.005 332.925 183.164C333.095 183.311 333.379 183.385 333.775 183.385H334.965V185H333.435C332.563 185 331.894 184.796 331.429 184.388C330.965 183.98 330.732 183.317 330.732 182.399V177.214H329.627V175.633H330.732V173.304H332.687V175.633H334.965V177.214H332.687ZM336.106 180.274C336.106 179.333 336.298 178.5 336.684 177.775C337.08 177.05 337.613 176.489 338.282 176.092C338.962 175.684 339.71 175.48 340.526 175.48C341.262 175.48 341.903 175.627 342.447 175.922C343.002 176.205 343.444 176.562 343.773 176.993V175.633H345.728V185H343.773V183.606C343.444 184.048 342.996 184.416 342.43 184.711C341.863 185.006 341.217 185.153 340.492 185.153C339.687 185.153 338.95 184.949 338.282 184.541C337.613 184.122 337.08 183.544 336.684 182.807C336.298 182.059 336.106 181.215 336.106 180.274ZM343.773 180.308C343.773 179.662 343.637 179.101 343.365 178.625C343.104 178.149 342.758 177.786 342.328 177.537C341.897 177.288 341.432 177.163 340.934 177.163C340.435 177.163 339.97 177.288 339.54 177.537C339.109 177.775 338.758 178.132 338.486 178.608C338.225 179.073 338.095 179.628 338.095 180.274C338.095 180.92 338.225 181.487 338.486 181.974C338.758 182.461 339.109 182.835 339.54 183.096C339.982 183.345 340.446 183.47 340.934 183.47C341.432 183.47 341.897 183.345 342.328 183.096C342.758 182.847 343.104 182.484 343.365 182.008C343.637 181.521 343.773 180.954 343.773 180.308ZM350.211 172.42V185H348.273V172.42H350.211ZM354.88 182.671L352.823 187.363H351.565L352.772 182.671H354.88ZM360.344 180.274C360.344 179.333 360.537 178.5 360.922 177.775C361.319 177.05 361.851 176.489 362.52 176.092C363.2 175.684 363.948 175.48 364.764 175.48C365.501 175.48 366.141 175.627 366.685 175.922C367.24 176.205 367.682 176.562 368.011 176.993V175.633H369.966V185H368.011V183.606C367.682 184.048 367.235 184.416 366.668 184.711C366.101 185.006 365.455 185.153 364.73 185.153C363.925 185.153 363.189 184.949 362.52 184.541C361.851 184.122 361.319 183.544 360.922 182.807C360.537 182.059 360.344 181.215 360.344 180.274ZM368.011 180.308C368.011 179.662 367.875 179.101 367.603 178.625C367.342 178.149 366.997 177.786 366.566 177.537C366.135 177.288 365.671 177.163 365.172 177.163C364.673 177.163 364.209 177.288 363.778 177.537C363.347 177.775 362.996 178.132 362.724 178.608C362.463 179.073 362.333 179.628 362.333 180.274C362.333 180.92 362.463 181.487 362.724 181.974C362.996 182.461 363.347 182.835 363.778 183.096C364.22 183.345 364.685 183.47 365.172 183.47C365.671 183.47 366.135 183.345 366.566 183.096C366.997 182.847 367.342 182.484 367.603 182.008C367.875 181.521 368.011 180.954 368.011 180.308ZM375.911 185.153C375.175 185.153 374.512 185.023 373.922 184.762C373.344 184.49 372.885 184.127 372.545 183.674C372.205 183.209 372.024 182.694 372.001 182.127H374.007C374.041 182.524 374.228 182.858 374.568 183.13C374.92 183.391 375.356 183.521 375.877 183.521C376.421 183.521 376.841 183.419 377.135 183.215C377.441 183 377.594 182.728 377.594 182.399C377.594 182.048 377.424 181.787 377.084 181.617C376.756 181.447 376.229 181.26 375.503 181.056C374.801 180.863 374.228 180.676 373.786 180.495C373.344 180.314 372.959 180.036 372.63 179.662C372.313 179.288 372.154 178.795 372.154 178.183C372.154 177.684 372.302 177.231 372.596 176.823C372.891 176.404 373.31 176.075 373.854 175.837C374.41 175.599 375.044 175.48 375.758 175.48C376.824 175.48 377.679 175.752 378.325 176.296C378.983 176.829 379.334 177.56 379.379 178.489H377.441C377.407 178.07 377.237 177.735 376.931 177.486C376.625 177.237 376.212 177.112 375.69 177.112C375.18 177.112 374.789 177.208 374.517 177.401C374.245 177.594 374.109 177.849 374.109 178.166C374.109 178.415 374.2 178.625 374.381 178.795C374.563 178.965 374.784 179.101 375.044 179.203C375.305 179.294 375.69 179.413 376.2 179.56C376.88 179.741 377.436 179.928 377.866 180.121C378.308 180.302 378.688 180.574 379.005 180.937C379.323 181.3 379.487 181.781 379.498 182.382C379.498 182.915 379.351 183.391 379.056 183.81C378.762 184.229 378.342 184.558 377.798 184.796C377.266 185.034 376.637 185.153 375.911 185.153ZM389.782 175.48C390.508 175.48 391.148 175.627 391.703 175.922C392.27 176.205 392.712 176.562 393.029 176.993V175.633H394.984V185.153C394.984 186.014 394.803 186.779 394.44 187.448C394.078 188.128 393.551 188.661 392.859 189.046C392.179 189.431 391.363 189.624 390.411 189.624C389.142 189.624 388.088 189.324 387.249 188.723C386.411 188.134 385.935 187.329 385.821 186.309H387.742C387.89 186.796 388.201 187.187 388.677 187.482C389.165 187.788 389.743 187.941 390.411 187.941C391.193 187.941 391.822 187.703 392.298 187.227C392.786 186.751 393.029 186.06 393.029 185.153V183.589C392.701 184.031 392.253 184.405 391.686 184.711C391.131 185.006 390.496 185.153 389.782 185.153C388.966 185.153 388.218 184.949 387.538 184.541C386.87 184.122 386.337 183.544 385.94 182.807C385.555 182.059 385.362 181.215 385.362 180.274C385.362 179.333 385.555 178.5 385.94 177.775C386.337 177.05 386.87 176.489 387.538 176.092C388.218 175.684 388.966 175.48 389.782 175.48ZM393.029 180.308C393.029 179.662 392.893 179.101 392.621 178.625C392.361 178.149 392.015 177.786 391.584 177.537C391.154 177.288 390.689 177.163 390.19 177.163C389.692 177.163 389.227 177.288 388.796 177.537C388.366 177.775 388.014 178.132 387.742 178.608C387.482 179.073 387.351 179.628 387.351 180.274C387.351 180.92 387.482 181.487 387.742 181.974C388.014 182.461 388.366 182.835 388.796 183.096C389.238 183.345 389.703 183.47 390.19 183.47C390.689 183.47 391.154 183.345 391.584 183.096C392.015 182.847 392.361 182.484 392.621 182.008C392.893 181.521 393.029 180.954 393.029 180.308ZM399.468 176.993C399.751 176.517 400.125 176.149 400.59 175.888C401.066 175.616 401.627 175.48 402.273 175.48V177.486H401.78C401.021 177.486 400.443 177.679 400.046 178.064C399.661 178.449 399.468 179.118 399.468 180.07V185H397.53V175.633H399.468V176.993ZM403.408 180.274C403.408 179.333 403.601 178.5 403.986 177.775C404.383 177.05 404.916 176.489 405.584 176.092C406.264 175.684 407.012 175.48 407.828 175.48C408.565 175.48 409.205 175.627 409.749 175.922C410.305 176.205 410.747 176.562 411.075 176.993V175.633H413.03V185H411.075V183.606C410.747 184.048 410.299 184.416 409.732 184.711C409.166 185.006 408.52 185.153 407.794 185.153C406.99 185.153 406.253 184.949 405.584 184.541C404.916 184.122 404.383 183.544 403.986 182.807C403.601 182.059 403.408 181.215 403.408 180.274ZM411.075 180.308C411.075 179.662 410.939 179.101 410.667 178.625C410.407 178.149 410.061 177.786 409.63 177.537C409.2 177.288 408.735 177.163 408.236 177.163C407.738 177.163 407.273 177.288 406.842 177.537C406.412 177.775 406.06 178.132 405.788 178.608C405.528 179.073 405.397 179.628 405.397 180.274C405.397 180.92 405.528 181.487 405.788 181.974C406.06 182.461 406.412 182.835 406.842 183.096C407.284 183.345 407.749 183.47 408.236 183.47C408.735 183.47 409.2 183.345 409.63 183.096C410.061 182.847 410.407 182.484 410.667 182.008C410.939 181.521 411.075 180.954 411.075 180.308ZM420.302 175.48C421.038 175.48 421.696 175.633 422.274 175.939C422.863 176.245 423.322 176.698 423.651 177.299C423.979 177.9 424.144 178.625 424.144 179.475V185H422.223V179.764C422.223 178.925 422.013 178.285 421.594 177.843C421.174 177.39 420.602 177.163 419.877 177.163C419.151 177.163 418.573 177.39 418.143 177.843C417.723 178.285 417.514 178.925 417.514 179.764V185H415.576V175.633H417.514V176.704C417.831 176.319 418.233 176.018 418.721 175.803C419.219 175.588 419.746 175.48 420.302 175.48ZM425.97 180.274C425.97 179.333 426.162 178.5 426.548 177.775C426.944 177.05 427.477 176.489 428.146 176.092C428.826 175.684 429.579 175.48 430.407 175.48C431.019 175.48 431.619 175.616 432.209 175.888C432.809 176.149 433.285 176.5 433.637 176.942V172.42H435.592V185H433.637V183.589C433.319 184.042 432.877 184.416 432.311 184.711C431.755 185.006 431.115 185.153 430.39 185.153C429.574 185.153 428.826 184.949 428.146 184.541C427.477 184.122 426.944 183.544 426.548 182.807C426.162 182.059 425.97 181.215 425.97 180.274ZM433.637 180.308C433.637 179.662 433.501 179.101 433.229 178.625C432.968 178.149 432.622 177.786 432.192 177.537C431.761 177.288 431.296 177.163 430.798 177.163C430.299 177.163 429.834 177.288 429.404 177.537C428.973 177.775 428.622 178.132 428.35 178.608C428.089 179.073 427.959 179.628 427.959 180.274C427.959 180.92 428.089 181.487 428.35 181.974C428.622 182.461 428.973 182.835 429.404 183.096C429.846 183.345 430.31 183.47 430.798 183.47C431.296 183.47 431.761 183.345 432.192 183.096C432.622 182.847 432.968 182.484 433.229 182.008C433.501 181.521 433.637 180.954 433.637 180.308ZM446.722 180.087C446.722 180.438 446.7 180.756 446.654 181.039H439.497C439.554 181.787 439.832 182.388 440.33 182.841C440.829 183.294 441.441 183.521 442.166 183.521C443.209 183.521 443.946 183.085 444.376 182.212H446.467C446.184 183.073 445.668 183.782 444.92 184.337C444.184 184.881 443.266 185.153 442.166 185.153C441.271 185.153 440.466 184.955 439.752 184.558C439.05 184.15 438.494 183.583 438.086 182.858C437.69 182.121 437.491 181.271 437.491 180.308C437.491 179.345 437.684 178.5 438.069 177.775C438.466 177.038 439.016 176.472 439.718 176.075C440.432 175.678 441.248 175.48 442.166 175.48C443.05 175.48 443.838 175.673 444.529 176.058C445.221 176.443 445.759 176.987 446.144 177.69C446.53 178.381 446.722 179.18 446.722 180.087ZM444.699 179.475C444.688 178.761 444.433 178.189 443.934 177.758C443.436 177.327 442.818 177.112 442.081 177.112C441.413 177.112 440.84 177.327 440.364 177.758C439.888 178.177 439.605 178.75 439.514 179.475H444.699ZM452.029 185.153C451.293 185.153 450.63 185.023 450.04 184.762C449.462 184.49 449.003 184.127 448.663 183.674C448.323 183.209 448.142 182.694 448.119 182.127H450.125C450.159 182.524 450.346 182.858 450.686 183.13C451.038 183.391 451.474 183.521 451.995 183.521C452.539 183.521 452.959 183.419 453.253 183.215C453.559 183 453.712 182.728 453.712 182.399C453.712 182.048 453.542 181.787 453.202 181.617C452.874 181.447 452.347 181.26 451.621 181.056C450.919 180.863 450.346 180.676 449.904 180.495C449.462 180.314 449.077 180.036 448.748 179.662C448.431 179.288 448.272 178.795 448.272 178.183C448.272 177.684 448.42 177.231 448.714 176.823C449.009 176.404 449.428 176.075 449.972 175.837C450.528 175.599 451.162 175.48 451.876 175.48C452.942 175.48 453.797 175.752 454.443 176.296C455.101 176.829 455.452 177.56 455.497 178.489H453.559C453.525 178.07 453.355 177.735 453.049 177.486C452.743 177.237 452.33 177.112 451.808 177.112C451.298 177.112 450.907 177.208 450.635 177.401C450.363 177.594 450.227 177.849 450.227 178.166C450.227 178.415 450.318 178.625 450.499 178.795C450.681 178.965 450.902 179.101 451.162 179.203C451.423 179.294 451.808 179.413 452.318 179.56C452.998 179.741 453.554 179.928 453.984 180.121C454.426 180.302 454.806 180.574 455.123 180.937C455.441 181.3 455.605 181.781 455.616 182.382C455.616 182.915 455.469 183.391 455.174 183.81C454.88 184.229 454.46 184.558 453.916 184.796C453.384 185.034 452.755 185.153 452.029 185.153ZM463.113 174.392C462.761 174.392 462.467 174.273 462.229 174.035C461.991 173.797 461.872 173.502 461.872 173.151C461.872 172.8 461.991 172.505 462.229 172.267C462.467 172.029 462.761 171.91 463.113 171.91C463.453 171.91 463.742 172.029 463.98 172.267C464.218 172.505 464.337 172.8 464.337 173.151C464.337 173.502 464.218 173.797 463.98 174.035C463.742 174.273 463.453 174.392 463.113 174.392ZM464.065 175.633V185H462.127V175.633H464.065ZM465.963 180.274C465.963 179.333 466.156 178.5 466.541 177.775C466.938 177.05 467.47 176.489 468.139 176.092C468.819 175.684 469.573 175.48 470.4 175.48C471.012 175.48 471.613 175.616 472.202 175.888C472.803 176.149 473.279 176.5 473.63 176.942V172.42H475.585V185H473.63V183.589C473.313 184.042 472.871 184.416 472.304 184.711C471.749 185.006 471.108 185.153 470.383 185.153C469.567 185.153 468.819 184.949 468.139 184.541C467.47 184.122 466.938 183.544 466.541 182.807C466.156 182.059 465.963 181.215 465.963 180.274ZM473.63 180.308C473.63 179.662 473.494 179.101 473.222 178.625C472.961 178.149 472.616 177.786 472.185 177.537C471.754 177.288 471.29 177.163 470.791 177.163C470.292 177.163 469.828 177.288 469.397 177.537C468.966 177.775 468.615 178.132 468.343 178.608C468.082 179.073 467.952 179.628 467.952 180.274C467.952 180.92 468.082 181.487 468.343 181.974C468.615 182.461 468.966 182.835 469.397 183.096C469.839 183.345 470.304 183.47 470.791 183.47C471.29 183.47 471.754 183.345 472.185 183.096C472.616 182.847 472.961 182.484 473.222 182.008C473.494 181.521 473.63 180.954 473.63 180.308ZM486.715 180.087C486.715 180.438 486.693 180.756 486.647 181.039H479.49C479.547 181.787 479.825 182.388 480.323 182.841C480.822 183.294 481.434 183.521 482.159 183.521C483.202 183.521 483.939 183.085 484.369 182.212H486.46C486.177 183.073 485.661 183.782 484.913 184.337C484.177 184.881 483.259 185.153 482.159 185.153C481.264 185.153 480.459 184.955 479.745 184.558C479.043 184.15 478.487 183.583 478.079 182.858C477.683 182.121 477.484 181.271 477.484 180.308C477.484 179.345 477.677 178.5 478.062 177.775C478.459 177.038 479.009 176.472 479.711 176.075C480.425 175.678 481.241 175.48 482.159 175.48C483.043 175.48 483.831 175.673 484.522 176.058C485.214 176.443 485.752 176.987 486.137 177.69C486.523 178.381 486.715 179.18 486.715 180.087ZM484.692 179.475C484.681 178.761 484.426 178.189 483.927 177.758C483.429 177.327 482.811 177.112 482.074 177.112C481.406 177.112 480.833 177.327 480.357 177.758C479.881 178.177 479.598 178.75 479.507 179.475H484.692ZM489.609 174.392C489.257 174.392 488.963 174.273 488.725 174.035C488.487 173.797 488.368 173.502 488.368 173.151C488.368 172.8 488.487 172.505 488.725 172.267C488.963 172.029 489.257 171.91 489.609 171.91C489.949 171.91 490.238 172.029 490.476 172.267C490.714 172.505 490.833 172.8 490.833 173.151C490.833 173.502 490.714 173.797 490.476 174.035C490.238 174.273 489.949 174.392 489.609 174.392ZM490.561 175.633V185H488.623V175.633H490.561ZM492.459 180.274C492.459 179.333 492.652 178.5 493.037 177.775C493.434 177.05 493.966 176.489 494.635 176.092C495.315 175.684 496.063 175.48 496.879 175.48C497.616 175.48 498.256 175.627 498.8 175.922C499.355 176.205 499.797 176.562 500.126 176.993V175.633H502.081V185H500.126V183.606C499.797 184.048 499.35 184.416 498.783 184.711C498.216 185.006 497.57 185.153 496.845 185.153C496.04 185.153 495.304 184.949 494.635 184.541C493.966 184.122 493.434 183.544 493.037 182.807C492.652 182.059 492.459 181.215 492.459 180.274ZM500.126 180.308C500.126 179.662 499.99 179.101 499.718 178.625C499.457 178.149 499.112 177.786 498.681 177.537C498.25 177.288 497.786 177.163 497.287 177.163C496.788 177.163 496.324 177.288 495.893 177.537C495.462 177.775 495.111 178.132 494.839 178.608C494.578 179.073 494.448 179.628 494.448 180.274C494.448 180.92 494.578 181.487 494.839 181.974C495.111 182.461 495.462 182.835 495.893 183.096C496.335 183.345 496.8 183.47 497.287 183.47C497.786 183.47 498.25 183.345 498.681 183.096C499.112 182.847 499.457 182.484 499.718 182.008C499.99 181.521 500.126 180.954 500.126 180.308ZM508.027 185.153C507.29 185.153 506.627 185.023 506.038 184.762C505.46 184.49 505.001 184.127 504.661 183.674C504.321 183.209 504.139 182.694 504.117 182.127H506.123C506.157 182.524 506.344 182.858 506.684 183.13C507.035 183.391 507.471 183.521 507.993 183.521C508.537 183.521 508.956 183.419 509.251 183.215C509.557 183 509.71 182.728 509.71 182.399C509.71 182.048 509.54 181.787 509.2 181.617C508.871 181.447 508.344 181.26 507.619 181.056C506.916 180.863 506.344 180.676 505.902 180.495C505.46 180.314 505.074 180.036 504.746 179.662C504.428 179.288 504.27 178.795 504.27 178.183C504.27 177.684 504.417 177.231 504.712 176.823C505.006 176.404 505.426 176.075 505.97 175.837C506.525 175.599 507.16 175.48 507.874 175.48C508.939 175.48 509.795 175.752 510.441 176.296C511.098 176.829 511.449 177.56 511.495 178.489H509.557C509.523 178.07 509.353 177.735 509.047 177.486C508.741 177.237 508.327 177.112 507.806 177.112C507.296 177.112 506.905 177.208 506.633 177.401C506.361 177.594 506.225 177.849 506.225 178.166C506.225 178.415 506.315 178.625 506.497 178.795C506.678 178.965 506.899 179.101 507.16 179.203C507.42 179.294 507.806 179.413 508.316 179.56C508.996 179.741 509.551 179.928 509.982 180.121C510.424 180.302 510.803 180.574 511.121 180.937C511.438 181.3 511.602 181.781 511.614 182.382C511.614 182.915 511.466 183.391 511.172 183.81C510.877 184.229 510.458 184.558 509.914 184.796C509.381 185.034 508.752 185.153 508.027 185.153ZM526.709 180.087C526.709 180.438 526.686 180.756 526.641 181.039H519.484C519.54 181.787 519.818 182.388 520.317 182.841C520.815 183.294 521.427 183.521 522.153 183.521C523.195 183.521 523.932 183.085 524.363 182.212H526.454C526.17 183.073 525.655 183.782 524.907 184.337C524.17 184.881 523.252 185.153 522.153 185.153C521.257 185.153 520.453 184.955 519.739 184.558C519.036 184.15 518.481 183.583 518.073 182.858C517.676 182.121 517.478 181.271 517.478 180.308C517.478 179.345 517.67 178.5 518.056 177.775C518.452 177.038 519.002 176.472 519.705 176.075C520.419 175.678 521.235 175.48 522.153 175.48C523.037 175.48 523.824 175.673 524.516 176.058C525.207 176.443 525.745 176.987 526.131 177.69C526.516 178.381 526.709 179.18 526.709 180.087ZM524.686 179.475C524.674 178.761 524.419 178.189 523.921 177.758C523.422 177.327 522.804 177.112 522.068 177.112C521.399 177.112 520.827 177.327 520.351 177.758C519.875 178.177 519.591 178.75 519.501 179.475H524.686ZM532.628 180.257L535.654 185H533.461L531.438 181.821L529.534 185H527.511L530.537 180.393L527.511 175.633H529.704L531.727 178.812L533.631 175.633H535.654L532.628 180.257ZM539.037 177.01C539.366 176.579 539.814 176.217 540.38 175.922C540.947 175.627 541.587 175.48 542.301 175.48C543.117 175.48 543.86 175.684 544.528 176.092C545.208 176.489 545.741 177.05 546.126 177.775C546.512 178.5 546.704 179.333 546.704 180.274C546.704 181.215 546.512 182.059 546.126 182.807C545.741 183.544 545.208 184.122 544.528 184.541C543.86 184.949 543.117 185.153 542.301 185.153C541.587 185.153 540.953 185.011 540.397 184.728C539.842 184.433 539.389 184.071 539.037 183.64V189.454H537.099V175.633H539.037V177.01ZM544.732 180.274C544.732 179.628 544.596 179.073 544.324 178.608C544.064 178.132 543.712 177.775 543.27 177.537C542.84 177.288 542.375 177.163 541.876 177.163C541.389 177.163 540.924 177.288 540.482 177.537C540.052 177.786 539.7 178.149 539.428 178.625C539.168 179.101 539.037 179.662 539.037 180.308C539.037 180.954 539.168 181.521 539.428 182.008C539.7 182.484 540.052 182.847 540.482 183.096C540.924 183.345 541.389 183.47 541.876 183.47C542.375 183.47 542.84 183.345 543.27 183.096C543.712 182.835 544.064 182.461 544.324 181.974C544.596 181.487 544.732 180.92 544.732 180.274ZM550.559 172.42V185H548.621V172.42H550.559ZM557.166 185.153C556.282 185.153 555.483 184.955 554.769 184.558C554.055 184.15 553.494 183.583 553.086 182.858C552.678 182.121 552.474 181.271 552.474 180.308C552.474 179.356 552.684 178.512 553.103 177.775C553.522 177.038 554.095 176.472 554.82 176.075C555.545 175.678 556.356 175.48 557.251 175.48C558.146 175.48 558.957 175.678 559.682 176.075C560.407 176.472 560.98 177.038 561.399 177.775C561.818 178.512 562.028 179.356 562.028 180.308C562.028 181.26 561.813 182.104 561.382 182.841C560.951 183.578 560.362 184.15 559.614 184.558C558.877 184.955 558.061 185.153 557.166 185.153ZM557.166 183.47C557.665 183.47 558.129 183.351 558.56 183.113C559.002 182.875 559.359 182.518 559.631 182.042C559.903 181.566 560.039 180.988 560.039 180.308C560.039 179.628 559.909 179.056 559.648 178.591C559.387 178.115 559.042 177.758 558.611 177.52C558.18 177.282 557.716 177.163 557.217 177.163C556.718 177.163 556.254 177.282 555.823 177.52C555.404 177.758 555.069 178.115 554.82 178.591C554.571 179.056 554.446 179.628 554.446 180.308C554.446 181.317 554.701 182.099 555.211 182.654C555.732 183.198 556.384 183.47 557.166 183.47ZM563.298 180.274C563.298 179.333 563.491 178.5 563.876 177.775C564.273 177.05 564.805 176.489 565.474 176.092C566.154 175.684 566.908 175.48 567.735 175.48C568.347 175.48 568.948 175.616 569.537 175.888C570.138 176.149 570.614 176.5 570.965 176.942V172.42H572.92V185H570.965V183.589C570.648 184.042 570.206 184.416 569.639 184.711C569.084 185.006 568.443 185.153 567.718 185.153C566.902 185.153 566.154 184.949 565.474 184.541C564.805 184.122 564.273 183.544 563.876 182.807C563.491 182.059 563.298 181.215 563.298 180.274ZM570.965 180.308C570.965 179.662 570.829 179.101 570.557 178.625C570.296 178.149 569.951 177.786 569.52 177.537C569.089 177.288 568.625 177.163 568.126 177.163C567.627 177.163 567.163 177.288 566.732 177.537C566.301 177.775 565.95 178.132 565.678 178.608C565.417 179.073 565.287 179.628 565.287 180.274C565.287 180.92 565.417 181.487 565.678 181.974C565.95 182.461 566.301 182.835 566.732 183.096C567.174 183.345 567.639 183.47 568.126 183.47C568.625 183.47 569.089 183.345 569.52 183.096C569.951 182.847 570.296 182.484 570.557 182.008C570.829 181.521 570.965 180.954 570.965 180.308ZM584.05 180.087C584.05 180.438 584.028 180.756 583.982 181.039H576.825C576.882 181.787 577.16 182.388 577.658 182.841C578.157 183.294 578.769 183.521 579.494 183.521C580.537 183.521 581.274 183.085 581.704 182.212H583.795C583.512 183.073 582.996 183.782 582.248 184.337C581.512 184.881 580.594 185.153 579.494 185.153C578.599 185.153 577.794 184.955 577.08 184.558C576.378 184.15 575.822 183.583 575.414 182.858C575.018 182.121 574.819 181.271 574.819 180.308C574.819 179.345 575.012 178.5 575.397 177.775C575.794 177.038 576.344 176.472 577.046 176.075C577.76 175.678 578.576 175.48 579.494 175.48C580.378 175.48 581.166 175.673 581.857 176.058C582.549 176.443 583.087 176.987 583.472 177.69C583.858 178.381 584.05 179.18 584.05 180.087ZM582.027 179.475C582.016 178.761 581.761 178.189 581.262 177.758C580.764 177.327 580.146 177.112 579.409 177.112C578.741 177.112 578.168 177.327 577.692 177.758C577.216 178.177 576.933 178.75 576.842 179.475H582.027ZM597.297 175.48C598.033 175.48 598.691 175.633 599.269 175.939C599.858 176.245 600.317 176.698 600.646 177.299C600.986 177.9 601.156 178.625 601.156 179.475V185H599.235V179.764C599.235 178.925 599.025 178.285 598.606 177.843C598.186 177.39 597.614 177.163 596.889 177.163C596.163 177.163 595.585 177.39 595.155 177.843C594.735 178.285 594.526 178.925 594.526 179.764V185H592.605V179.764C592.605 178.925 592.395 178.285 591.976 177.843C591.556 177.39 590.984 177.163 590.259 177.163C589.533 177.163 588.955 177.39 588.525 177.843C588.105 178.285 587.896 178.925 587.896 179.764V185H585.958V175.633H587.896V176.704C588.213 176.319 588.615 176.018 589.103 175.803C589.59 175.588 590.111 175.48 590.667 175.48C591.415 175.48 592.083 175.639 592.673 175.956C593.262 176.273 593.715 176.732 594.033 177.333C594.316 176.766 594.758 176.319 595.359 175.99C595.959 175.65 596.605 175.48 597.297 175.48ZM616.623 180.087C616.623 180.438 616.6 180.756 616.555 181.039H609.398C609.454 181.787 609.732 182.388 610.231 182.841C610.729 183.294 611.341 183.521 612.067 183.521C613.109 183.521 613.846 183.085 614.277 182.212H616.368C616.084 183.073 615.569 183.782 614.821 184.337C614.084 184.881 613.166 185.153 612.067 185.153C611.171 185.153 610.367 184.955 609.653 184.558C608.95 184.15 608.395 183.583 607.987 182.858C607.59 182.121 607.392 181.271 607.392 180.308C607.392 179.345 607.584 178.5 607.97 177.775C608.366 177.038 608.916 176.472 609.619 176.075C610.333 175.678 611.149 175.48 612.067 175.48C612.951 175.48 613.738 175.673 614.43 176.058C615.121 176.443 615.659 176.987 616.045 177.69C616.43 178.381 616.623 179.18 616.623 180.087ZM614.6 179.475C614.588 178.761 614.333 178.189 613.835 177.758C613.336 177.327 612.718 177.112 611.982 177.112C611.313 177.112 610.741 177.327 610.265 177.758C609.789 178.177 609.505 178.75 609.415 179.475H614.6ZM239.536 203.214V208.399C239.536 208.75 239.615 209.005 239.774 209.164C239.944 209.311 240.227 209.385 240.624 209.385H241.814V211H240.284C239.411 211 238.743 210.796 238.278 210.388C237.813 209.98 237.581 209.317 237.581 208.399V203.214H236.476V201.633H237.581V199.304H239.536V201.633H241.814V203.214H239.536ZM245.538 202.993C245.822 202.517 246.196 202.149 246.66 201.888C247.136 201.616 247.697 201.48 248.343 201.48V203.486H247.85C247.091 203.486 246.513 203.679 246.116 204.064C245.731 204.449 245.538 205.118 245.538 206.07V211H243.6V201.633H245.538V202.993ZM249.479 206.274C249.479 205.333 249.671 204.5 250.057 203.775C250.453 203.05 250.986 202.489 251.655 202.092C252.335 201.684 253.083 201.48 253.899 201.48C254.635 201.48 255.276 201.627 255.82 201.922C256.375 202.205 256.817 202.562 257.146 202.993V201.633H259.101V211H257.146V209.606C256.817 210.048 256.369 210.416 255.803 210.711C255.236 211.006 254.59 211.153 253.865 211.153C253.06 211.153 252.323 210.949 251.655 210.541C250.986 210.122 250.453 209.544 250.057 208.807C249.671 208.059 249.479 207.215 249.479 206.274ZM257.146 206.308C257.146 205.662 257.01 205.101 256.738 204.625C256.477 204.149 256.131 203.786 255.701 203.537C255.27 203.288 254.805 203.163 254.307 203.163C253.808 203.163 253.343 203.288 252.913 203.537C252.482 203.775 252.131 204.132 251.859 204.608C251.598 205.073 251.468 205.628 251.468 206.274C251.468 206.92 251.598 207.487 251.859 207.974C252.131 208.461 252.482 208.835 252.913 209.096C253.355 209.345 253.819 209.47 254.307 209.47C254.805 209.47 255.27 209.345 255.701 209.096C256.131 208.847 256.477 208.484 256.738 208.008C257.01 207.521 257.146 206.954 257.146 206.308ZM266.372 201.48C267.109 201.48 267.766 201.633 268.344 201.939C268.933 202.245 269.392 202.698 269.721 203.299C270.05 203.9 270.214 204.625 270.214 205.475V211H268.293V205.764C268.293 204.925 268.083 204.285 267.664 203.843C267.245 203.39 266.672 203.163 265.947 203.163C265.222 203.163 264.644 203.39 264.213 203.843C263.794 204.285 263.584 204.925 263.584 205.764V211H261.646V201.633H263.584V202.704C263.901 202.319 264.304 202.018 264.791 201.803C265.29 201.588 265.817 201.48 266.372 201.48ZM276.086 211.153C275.349 211.153 274.686 211.023 274.097 210.762C273.519 210.49 273.06 210.127 272.72 209.674C272.38 209.209 272.199 208.694 272.176 208.127H274.182C274.216 208.524 274.403 208.858 274.743 209.13C275.094 209.391 275.531 209.521 276.052 209.521C276.596 209.521 277.015 209.419 277.31 209.215C277.616 209 277.769 208.728 277.769 208.399C277.769 208.048 277.599 207.787 277.259 207.617C276.93 207.447 276.403 207.26 275.678 207.056C274.975 206.863 274.403 206.676 273.961 206.495C273.519 206.314 273.134 206.036 272.805 205.662C272.488 205.288 272.329 204.795 272.329 204.183C272.329 203.684 272.476 203.231 272.771 202.823C273.066 202.404 273.485 202.075 274.029 201.837C274.584 201.599 275.219 201.48 275.933 201.48C276.998 201.48 277.854 201.752 278.5 202.296C279.157 202.829 279.509 203.56 279.554 204.489H277.616C277.582 204.07 277.412 203.735 277.106 203.486C276.8 203.237 276.386 203.112 275.865 203.112C275.355 203.112 274.964 203.208 274.692 203.401C274.42 203.594 274.284 203.849 274.284 204.166C274.284 204.415 274.375 204.625 274.556 204.795C274.737 204.965 274.958 205.101 275.219 205.203C275.48 205.294 275.865 205.413 276.375 205.56C277.055 205.741 277.61 205.928 278.041 206.121C278.483 206.302 278.863 206.574 279.18 206.937C279.497 207.3 279.662 207.781 279.673 208.382C279.673 208.915 279.526 209.391 279.231 209.81C278.936 210.229 278.517 210.558 277.973 210.796C277.44 211.034 276.811 211.153 276.086 211.153ZM285.694 203.214H283.96V211H282.005V203.214H280.9V201.633H282.005V200.97C282.005 199.893 282.289 199.111 282.855 198.624C283.433 198.125 284.334 197.876 285.558 197.876V199.491C284.969 199.491 284.555 199.604 284.317 199.831C284.079 200.046 283.96 200.426 283.96 200.97V201.633H285.694V203.214ZM291.475 211.153C290.591 211.153 289.792 210.955 289.078 210.558C288.364 210.15 287.803 209.583 287.395 208.858C286.987 208.121 286.783 207.271 286.783 206.308C286.783 205.356 286.992 204.512 287.412 203.775C287.831 203.038 288.403 202.472 289.129 202.075C289.854 201.678 290.664 201.48 291.56 201.48C292.455 201.48 293.265 201.678 293.991 202.075C294.716 202.472 295.288 203.038 295.708 203.775C296.127 204.512 296.337 205.356 296.337 206.308C296.337 207.26 296.121 208.104 295.691 208.841C295.26 209.578 294.671 210.15 293.923 210.558C293.186 210.955 292.37 211.153 291.475 211.153ZM291.475 209.47C291.973 209.47 292.438 209.351 292.869 209.113C293.311 208.875 293.668 208.518 293.94 208.042C294.212 207.566 294.348 206.988 294.348 206.308C294.348 205.628 294.217 205.056 293.957 204.591C293.696 204.115 293.35 203.758 292.92 203.52C292.489 203.282 292.024 203.163 291.526 203.163C291.027 203.163 290.562 203.282 290.132 203.52C289.712 203.758 289.378 204.115 289.129 204.591C288.879 205.056 288.755 205.628 288.755 206.308C288.755 207.317 289.01 208.099 289.52 208.654C290.041 209.198 290.693 209.47 291.475 209.47ZM300.191 202.993C300.474 202.517 300.848 202.149 301.313 201.888C301.789 201.616 302.35 201.48 302.996 201.48V203.486H302.503C301.743 203.486 301.165 203.679 300.769 204.064C300.383 204.449 300.191 205.118 300.191 206.07V211H298.253V201.633H300.191V202.993ZM316.116 201.48C316.853 201.48 317.51 201.633 318.088 201.939C318.677 202.245 319.136 202.698 319.465 203.299C319.805 203.9 319.975 204.625 319.975 205.475V211H318.054V205.764C318.054 204.925 317.844 204.285 317.425 203.843C317.006 203.39 316.433 203.163 315.708 203.163C314.983 203.163 314.405 203.39 313.974 203.843C313.555 204.285 313.345 204.925 313.345 205.764V211H311.424V205.764C311.424 204.925 311.214 204.285 310.795 203.843C310.376 203.39 309.803 203.163 309.078 203.163C308.353 203.163 307.775 203.39 307.344 203.843C306.925 204.285 306.715 204.925 306.715 205.764V211H304.777V201.633H306.715V202.704C307.032 202.319 307.435 202.018 307.922 201.803C308.409 201.588 308.931 201.48 309.486 201.48C310.234 201.48 310.903 201.639 311.492 201.956C312.081 202.273 312.535 202.732 312.852 203.333C313.135 202.766 313.577 202.319 314.178 201.99C314.779 201.65 315.425 201.48 316.116 201.48ZM321.795 206.274C321.795 205.333 321.988 204.5 322.373 203.775C322.77 203.05 323.302 202.489 323.971 202.092C324.651 201.684 325.399 201.48 326.215 201.48C326.952 201.48 327.592 201.627 328.136 201.922C328.691 202.205 329.133 202.562 329.462 202.993V201.633H331.417V211H329.462V209.606C329.133 210.048 328.686 210.416 328.119 210.711C327.552 211.006 326.906 211.153 326.181 211.153C325.376 211.153 324.64 210.949 323.971 210.541C323.302 210.122 322.77 209.544 322.373 208.807C321.988 208.059 321.795 207.215 321.795 206.274ZM329.462 206.308C329.462 205.662 329.326 205.101 329.054 204.625C328.793 204.149 328.448 203.786 328.017 203.537C327.586 203.288 327.122 203.163 326.623 203.163C326.124 203.163 325.66 203.288 325.229 203.537C324.798 203.775 324.447 204.132 324.175 204.608C323.914 205.073 323.784 205.628 323.784 206.274C323.784 206.92 323.914 207.487 324.175 207.974C324.447 208.461 324.798 208.835 325.229 209.096C325.671 209.345 326.136 209.47 326.623 209.47C327.122 209.47 327.586 209.345 328.017 209.096C328.448 208.847 328.793 208.484 329.054 208.008C329.326 207.521 329.462 206.954 329.462 206.308ZM345.302 201.48C346.038 201.48 346.696 201.633 347.274 201.939C347.863 202.245 348.322 202.698 348.651 203.299C348.991 203.9 349.161 204.625 349.161 205.475V211H347.24V205.764C347.24 204.925 347.03 204.285 346.611 203.843C346.191 203.39 345.619 203.163 344.894 203.163C344.168 203.163 343.59 203.39 343.16 203.843C342.74 204.285 342.531 204.925 342.531 205.764V211H340.61V205.764C340.61 204.925 340.4 204.285 339.981 203.843C339.561 203.39 338.989 203.163 338.264 203.163C337.538 203.163 336.96 203.39 336.53 203.843C336.11 204.285 335.901 204.925 335.901 205.764V211H333.963V201.633H335.901V202.704C336.218 202.319 336.62 202.018 337.108 201.803C337.595 201.588 338.116 201.48 338.672 201.48C339.42 201.48 340.088 201.639 340.678 201.956C341.267 202.273 341.72 202.732 342.038 203.333C342.321 202.766 342.763 202.319 343.364 201.99C343.964 201.65 344.61 201.48 345.302 201.48ZM360.106 211.153C359.222 211.153 358.423 210.955 357.709 210.558C356.995 210.15 356.434 209.583 356.026 208.858C355.618 208.121 355.414 207.271 355.414 206.308C355.414 205.356 355.623 204.512 356.043 203.775C356.462 203.038 357.034 202.472 357.76 202.075C358.485 201.678 359.295 201.48 360.191 201.48C361.086 201.48 361.896 201.678 362.622 202.075C363.347 202.472 363.919 203.038 364.339 203.775C364.758 204.512 364.968 205.356 364.968 206.308C364.968 207.26 364.752 208.104 364.322 208.841C363.891 209.578 363.302 210.15 362.554 210.558C361.817 210.955 361.001 211.153 360.106 211.153ZM360.106 209.47C360.604 209.47 361.069 209.351 361.5 209.113C361.942 208.875 362.299 208.518 362.571 208.042C362.843 207.566 362.979 206.988 362.979 206.308C362.979 205.628 362.848 205.056 362.588 204.591C362.327 204.115 361.981 203.758 361.551 203.52C361.12 203.282 360.655 203.163 360.157 203.163C359.658 203.163 359.193 203.282 358.763 203.52C358.343 203.758 358.009 204.115 357.76 204.591C357.51 205.056 357.386 205.628 357.386 206.308C357.386 207.317 357.641 208.099 358.151 208.654C358.672 209.198 359.324 209.47 360.106 209.47ZM382.638 201.48C383.375 201.48 384.032 201.633 384.61 201.939C385.2 202.245 385.659 202.698 385.987 203.299C386.327 203.9 386.497 204.625 386.497 205.475V211H384.576V205.764C384.576 204.925 384.367 204.285 383.947 203.843C383.528 203.39 382.956 203.163 382.23 203.163C381.505 203.163 380.927 203.39 380.496 203.843C380.077 204.285 379.867 204.925 379.867 205.764V211H377.946V205.764C377.946 204.925 377.737 204.285 377.317 203.843C376.898 203.39 376.326 203.163 375.6 203.163C374.875 203.163 374.297 203.39 373.866 203.843C373.447 204.285 373.237 204.925 373.237 205.764V211H371.299V201.633H373.237V202.704C373.555 202.319 373.957 202.018 374.444 201.803C374.932 201.588 375.453 201.48 376.008 201.48C376.756 201.48 377.425 201.639 378.014 201.956C378.604 202.273 379.057 202.732 379.374 203.333C379.658 202.766 380.1 202.319 380.7 201.99C381.301 201.65 381.947 201.48 382.638 201.48ZM397.446 201.633V211H395.508V209.895C395.202 210.28 394.8 210.586 394.301 210.813C393.814 211.028 393.293 211.136 392.737 211.136C392.001 211.136 391.338 210.983 390.748 210.677C390.17 210.371 389.711 209.918 389.371 209.317C389.043 208.716 388.878 207.991 388.878 207.141V201.633H390.799V206.852C390.799 207.691 391.009 208.337 391.428 208.79C391.848 209.232 392.42 209.453 393.145 209.453C393.871 209.453 394.443 209.232 394.862 208.79C395.293 208.337 395.508 207.691 395.508 206.852V201.633H397.446ZM404.73 201.48C405.466 201.48 406.124 201.633 406.702 201.939C407.291 202.245 407.75 202.698 408.079 203.299C408.407 203.9 408.572 204.625 408.572 205.475V211H406.651V205.764C406.651 204.925 406.441 204.285 406.022 203.843C405.602 203.39 405.03 203.163 404.305 203.163C403.579 203.163 403.001 203.39 402.571 203.843C402.151 204.285 401.942 204.925 401.942 205.764V211H400.004V201.633H401.942V202.704C402.259 202.319 402.661 202.018 403.149 201.803C403.647 201.588 404.174 201.48 404.73 201.48ZM410.398 206.274C410.398 205.333 410.59 204.5 410.976 203.775C411.372 203.05 411.905 202.489 412.574 202.092C413.254 201.684 414.007 201.48 414.835 201.48C415.447 201.48 416.047 201.616 416.637 201.888C417.237 202.149 417.713 202.5 418.065 202.942V198.42H420.02V211H418.065V209.589C417.747 210.042 417.305 210.416 416.739 210.711C416.183 211.006 415.543 211.153 414.818 211.153C414.002 211.153 413.254 210.949 412.574 210.541C411.905 210.122 411.372 209.544 410.976 208.807C410.59 208.059 410.398 207.215 410.398 206.274ZM418.065 206.308C418.065 205.662 417.929 205.101 417.657 204.625C417.396 204.149 417.05 203.786 416.62 203.537C416.189 203.288 415.724 203.163 415.226 203.163C414.727 203.163 414.262 203.288 413.832 203.537C413.401 203.775 413.05 204.132 412.778 204.608C412.517 205.073 412.387 205.628 412.387 206.274C412.387 206.92 412.517 207.487 412.778 207.974C413.05 208.461 413.401 208.835 413.832 209.096C414.274 209.345 414.738 209.47 415.226 209.47C415.724 209.47 416.189 209.345 416.62 209.096C417.05 208.847 417.396 208.484 417.657 208.008C417.929 207.521 418.065 206.954 418.065 206.308ZM426.628 211.153C425.744 211.153 424.945 210.955 424.231 210.558C423.517 210.15 422.956 209.583 422.548 208.858C422.14 208.121 421.936 207.271 421.936 206.308C421.936 205.356 422.146 204.512 422.565 203.775C422.984 203.038 423.557 202.472 424.282 202.075C425.007 201.678 425.818 201.48 426.713 201.48C427.608 201.48 428.419 201.678 429.144 202.075C429.869 202.472 430.442 203.038 430.861 203.775C431.28 204.512 431.49 205.356 431.49 206.308C431.49 207.26 431.275 208.104 430.844 208.841C430.413 209.578 429.824 210.15 429.076 210.558C428.339 210.955 427.523 211.153 426.628 211.153ZM426.628 209.47C427.127 209.47 427.591 209.351 428.022 209.113C428.464 208.875 428.821 208.518 429.093 208.042C429.365 207.566 429.501 206.988 429.501 206.308C429.501 205.628 429.371 205.056 429.11 204.591C428.849 204.115 428.504 203.758 428.073 203.52C427.642 203.282 427.178 203.163 426.679 203.163C426.18 203.163 425.716 203.282 425.285 203.52C424.866 203.758 424.531 204.115 424.282 204.591C424.033 205.056 423.908 205.628 423.908 206.308C423.908 207.317 424.163 208.099 424.673 208.654C425.194 209.198 425.846 209.47 426.628 209.47ZM434.188 211.119C433.837 211.119 433.542 211 433.304 210.762C433.066 210.524 432.947 210.229 432.947 209.878C432.947 209.527 433.066 209.232 433.304 208.994C433.542 208.756 433.837 208.637 434.188 208.637C434.528 208.637 434.817 208.756 435.055 208.994C435.293 209.232 435.412 209.527 435.412 209.878C435.412 210.229 435.293 210.524 435.055 210.762C434.817 211 434.528 211.119 434.188 211.119Z" fill="#6513A9"/>
<defs>
<clipPath id="clip0_1105_1071">
<rect width="73.0269" height="73.0269" fill="white" transform="translate(84.1538 70.3945) rotate(-9.09)"/>
</clipPath>
</defs>
</svg>
