<svg width="710" height="258" viewBox="0 0 710 258" fill="none" xmlns="http://www.w3.org/2000/svg">
<rect y="71.001" width="710" height="184" rx="30" fill="#E4C2FF"/>
<path opacity="0.5" d="M120.569 155.993C114.543 164.767 31.6799 254.592 29.593 253.617C27.9882 252.867 79.4336 148.133 85.5132 139.384C91.5925 130.635 104.361 127.292 114.011 131.866C123.703 136.428 126.604 147.256 120.569 155.993Z" fill="#6513A9"/>
<path opacity="0.3" d="M116.955 160.147C108.618 167.456 19.789 226.11 18.1386 224.665C16.8574 223.553 80.5234 143.12 88.9141 135.837C97.261 128.565 110.287 128.103 118.036 134.839C125.764 141.501 125.292 152.838 116.955 160.147Z" fill="#6513A9"/>
<path opacity="0.3" d="M83.0422 144.137C79.6364 153.782 63.4281 246.636 65.7457 247.077C67.568 247.415 119.294 161.37 122.7 151.725C126.062 142.09 119.917 132.604 108.975 130.541C98.0668 128.428 86.4571 134.529 83.0422 144.137Z" fill="#6513A9"/>
<path opacity="0.2" d="M112.745 163.125C102.663 168.463 15.0951 201.957 13.9187 200.188C13.0354 198.811 83.498 138.155 93.58 132.818C103.662 127.48 116.12 129.964 121.407 138.343C126.694 146.721 122.783 157.8 112.745 163.125Z" fill="#6513A9"/>
<path opacity="0.1" d="M112.746 163.124C102.664 168.461 26.1707 174.127 25.0479 172.382C24.1643 171.007 83.5517 138.178 93.6342 132.841C103.716 127.504 116.175 129.988 121.462 138.366C126.695 146.72 122.784 157.799 112.746 163.124Z" fill="#6513A9"/>
<path opacity="0.1" d="M82.062 148.688C81.5759 158.574 114.461 215.811 116.913 215.704C118.811 215.629 122.984 156.802 123.427 146.928C123.87 137.053 114.954 129.451 103.54 129.992C92.1497 130.447 82.5047 138.814 82.062 148.688Z" fill="#6513A9"/>
<path opacity="0.2" d="M82.0609 148.688C81.5753 158.574 91.0077 237.79 93.4158 237.696C95.3142 237.619 122.94 156.813 123.416 146.89C123.859 137.016 114.943 129.413 103.529 129.954C92.1388 130.41 82.5038 138.813 82.0609 148.688Z" fill="#6513A9"/>
<path d="M30.1966 58.7767C29.324 53.3233 33.0376 48.195 38.4911 47.3225L140.888 30.9396C146.341 30.067 151.469 33.7806 152.342 39.2341L170.945 155.508C173.126 169.141 163.842 181.962 150.209 184.143L77.4354 195.787C63.8017 197.968 50.9811 188.684 48.7997 175.05L30.1966 58.7767Z" fill="#7B2BBE"/>
<path d="M30.1966 58.7767C29.324 53.3233 33.0376 48.195 38.4911 47.3225L140.888 30.9396C146.341 30.067 151.469 33.7806 152.342 39.2341L165.044 118.625C169.668 147.528 149.986 174.708 121.083 179.332L103.606 182.128C74.7028 186.753 47.523 167.071 42.8986 138.167L30.1966 58.7767Z" fill="#46C4FF"/>
<path d="M30.1966 58.7767C29.324 53.3233 33.0376 48.195 38.4911 47.3225L140.888 30.9396C146.341 30.067 151.469 33.7806 152.342 39.2341L169.625 147.26C171.72 160.349 162.807 172.657 149.719 174.751L74.9705 186.71C61.8821 188.804 49.5743 179.891 47.4802 166.803L30.1966 58.7767Z" fill="#C67DFF"/>
<path d="M51.8401 61.9845C51.7529 61.4392 52.1242 60.9263 52.6696 60.8391L133.106 47.9697C133.651 47.8824 134.164 48.2538 134.251 48.7991L144.738 114.345C148.379 137.102 132.883 158.502 110.125 162.143V162.143C87.3681 165.784 65.9681 150.287 62.3271 127.53L51.8401 61.9845Z" fill="#9D4EDD"/>
<g clip-path="url(#clip0_1105_1071)">
<path d="M109.184 69.4888C109.981 69.3613 110.798 69.5701 111.455 70.0692C112.113 70.5684 112.558 71.317 112.691 72.1504L113.194 75.2928C113.327 76.1262 113.138 76.9761 112.669 77.6556C112.2 78.3351 111.489 78.7884 110.692 78.9159C109.895 79.0434 109.078 78.8346 108.42 78.3354C107.762 77.8363 107.318 77.0877 107.185 76.2542L106.682 73.1119C106.548 72.2785 106.737 71.4285 107.206 70.7491C107.676 70.0696 108.387 69.6163 109.184 69.4888ZM98.606 78.4325C98.889 77.647 99.461 77.0154 100.196 76.6766C100.931 76.3377 101.77 76.3194 102.526 76.6257L105.38 77.7806C106.131 78.0907 106.739 78.6969 107.07 79.4666C107.401 80.2364 107.429 81.1074 107.147 81.8895C106.865 82.6716 106.297 83.3013 105.566 83.6412C104.835 83.9812 104.001 84.0037 103.246 83.7039L100.392 82.549C99.6357 82.2427 99.0224 81.6369 98.6874 80.8649C98.3523 80.0929 98.3231 79.218 98.606 78.4325ZM121.611 79.1542C121.922 78.8943 122.181 78.5718 122.371 78.2055C122.562 77.8391 122.68 77.436 122.72 77.0195C122.76 76.6029 122.72 76.1811 122.603 75.7783C122.487 75.3755 122.295 74.9997 122.039 74.6725C121.784 74.3453 121.469 74.0732 121.114 73.8719C120.759 73.6705 120.371 73.5438 119.971 73.4992C119.571 73.4546 119.167 73.4928 118.784 73.6118C118.4 73.7307 118.044 73.928 117.735 74.1923L115.385 76.1798C115.073 76.4397 114.815 76.7622 114.624 77.1285C114.434 77.4949 114.315 77.898 114.276 78.3145C114.236 78.7311 114.275 79.1529 114.392 79.5557C114.509 79.9585 114.701 80.3343 114.956 80.6615C115.212 80.9887 115.526 81.2608 115.881 81.4621C116.236 81.6635 116.625 81.7902 117.025 81.8348C117.425 81.8794 117.828 81.8412 118.212 81.7222C118.596 81.6033 118.952 81.406 119.26 81.1417L121.611 79.1542ZM107.583 85.2918C107.858 84.5406 108.398 83.9309 109.094 83.5865C109.79 83.2422 110.589 83.1891 111.328 83.438C112.068 83.687 112.694 84.2192 113.077 84.9267C113.46 85.6341 113.573 86.4636 113.393 87.2466L113.29 87.6015L112.703 89.2295L115.556 90.3844C116.093 90.6018 116.562 90.9718 116.909 91.452C117.257 91.9323 117.469 92.5032 117.522 93.0993L117.534 93.5034L117.467 95.4156C124.317 102.138 127.207 112.495 123.797 121.958C119.226 134.646 105.257 140.513 92.7789 135.461C80.2981 130.41 73.5728 116.168 78.1434 103.48C81.451 94.3005 89.6979 88.6818 98.7047 88.1979L99.5531 88.1653L100.704 86.6921C101.065 86.2318 101.544 85.8889 102.086 85.7029C102.629 85.5169 103.213 85.4953 103.771 85.6405L104.143 85.7648L106.996 86.9197L107.583 85.2918ZM97.5675 97.9613C95.4772 98.2959 93.516 99.2001 91.8808 100.583C90.2456 101.966 88.9942 103.779 88.2522 105.839C87.977 106.596 87.9913 107.437 88.2922 108.191C88.593 108.945 89.1576 109.554 89.8699 109.893C90.5823 110.232 91.3882 110.276 92.1221 110.014C92.8559 109.753 93.4621 109.207 93.8159 108.488L93.9589 108.149C94.6738 106.165 96.2636 104.796 98.1133 104.339L98.579 104.245C99.3757 104.117 100.087 103.663 100.555 102.983C101.024 102.303 101.211 101.453 101.077 100.619C100.943 99.7861 100.498 99.0379 99.8398 98.5394C99.1816 98.0409 98.3642 97.833 97.5675 97.9613ZM119.646 83.5519L122.499 84.7068C122.876 84.8565 123.223 85.0822 123.518 85.3709C123.813 85.6595 124.051 86.0055 124.219 86.3888C124.387 86.7722 124.481 87.1853 124.496 87.6044C124.51 88.0235 124.445 88.4404 124.305 88.831C124.164 89.2216 123.95 89.5782 123.676 89.8803C123.401 90.1824 123.071 90.424 122.705 90.5912C122.339 90.7584 121.944 90.8479 121.542 90.8546C121.141 90.8613 120.741 90.785 120.365 90.6301L117.512 89.4752C117.135 89.3255 116.789 89.0998 116.493 88.8111C116.198 88.5224 115.96 88.1765 115.792 87.7931C115.624 87.4098 115.53 86.9967 115.516 86.5776C115.501 86.1584 115.566 85.7416 115.707 85.351C115.847 84.9604 116.061 84.6038 116.336 84.3017C116.61 83.9996 116.94 83.758 117.306 83.5908C117.672 83.4235 118.067 83.334 118.469 83.3273C118.87 83.3207 119.27 83.397 119.646 83.5519Z" fill="#6513A9"/>
</g>
<path d="M120.896 33.7735L140.461 31.0091L142.055 31.5429L143.65 32.077L145.244 32.6112L147.698 33.7971L149.539 35.8703L152.317 40.9507L155.869 63.1525L110.484 126.005L65.0989 188.858L61.5507 186.48L58.288 183.689L55.3111 180.483L52.62 176.864L50.2147 172.831L48.4959 168.689L47.0627 164.132L46.2866 159.281L43.3871 141.158L120.896 33.7735Z" fill="white" fill-opacity="0.29"/>
<path d="M225.31 115.991V121.001H212.17V102.191H225.04V107.081H217.72V109.211H223.93V113.771H217.72V115.991H225.31ZM236.441 113.291L240.791 121.001H234.911L233.141 117.041L231.371 121.001H225.821L230.201 113.291L225.791 106.181H232.061L233.621 109.811L235.271 106.181H240.791L236.441 113.291ZM247.068 125.561H241.668V106.181H246.408L246.678 107.591H246.858C247.358 107.011 247.958 106.581 248.658 106.301C249.358 106.021 250.158 105.881 251.058 105.881C252.978 105.881 254.338 106.471 255.138 107.651C255.958 108.811 256.368 110.791 256.368 113.591C256.368 116.271 255.848 118.231 254.808 119.471C253.788 120.691 252.148 121.301 249.888 121.301C249.368 121.301 248.868 121.271 248.388 121.211C247.908 121.151 247.468 121.061 247.068 120.941V125.561ZM250.968 113.591C250.968 112.451 250.848 111.691 250.608 111.311C250.368 110.931 249.848 110.741 249.048 110.741C248.688 110.741 248.338 110.781 247.998 110.861C247.678 110.921 247.368 111.021 247.068 111.161V116.081C247.288 116.161 247.548 116.221 247.848 116.261C248.148 116.301 248.498 116.321 248.898 116.321C249.778 116.321 250.338 116.151 250.578 115.811C250.838 115.451 250.968 114.711 250.968 113.591ZM263.387 101.051V121.001H257.987V101.051H263.387ZM279.979 113.591C279.979 116.371 279.399 118.361 278.239 119.561C277.079 120.741 275.149 121.331 272.449 121.331C269.789 121.331 267.869 120.731 266.689 119.531C265.529 118.311 264.949 116.331 264.949 113.591C264.949 110.831 265.519 108.861 266.659 107.681C267.819 106.481 269.749 105.881 272.449 105.881C275.129 105.881 277.049 106.481 278.209 107.681C279.389 108.881 279.979 110.851 279.979 113.591ZM270.349 113.531C270.349 114.691 270.479 115.451 270.739 115.811C270.999 116.151 271.569 116.321 272.449 116.321C273.349 116.321 273.929 116.151 274.189 115.811C274.449 115.451 274.579 114.691 274.579 113.531C274.579 112.371 274.449 111.621 274.189 111.281C273.929 110.921 273.349 110.741 272.449 110.741C271.569 110.741 270.999 110.921 270.739 111.281C270.479 111.621 270.349 112.371 270.349 113.531ZM287.901 110.051C287.201 110.051 286.731 110.101 286.491 110.201C286.251 110.301 286.131 110.501 286.131 110.801C286.131 110.961 286.171 111.081 286.251 111.161C286.351 111.241 286.491 111.291 286.671 111.311L289.851 111.701C291.171 111.861 292.071 112.251 292.551 112.871C293.051 113.491 293.301 114.501 293.301 115.901C293.301 117.781 292.831 119.161 291.891 120.041C290.971 120.901 289.421 121.331 287.241 121.331C286.061 121.331 284.971 121.271 283.971 121.151C282.991 121.051 282.181 120.911 281.541 120.731V116.411C282.341 116.591 283.191 116.731 284.091 116.831C284.991 116.931 285.841 116.981 286.641 116.981C287.321 116.981 287.771 116.921 287.991 116.801C288.231 116.681 288.351 116.451 288.351 116.111C288.351 115.991 288.311 115.891 288.231 115.811C288.151 115.711 288.031 115.651 287.871 115.631L284.361 115.211C283.201 115.051 282.361 114.641 281.841 113.981C281.341 113.321 281.091 112.331 281.091 111.011C281.091 109.291 281.631 108.011 282.711 107.171C283.811 106.311 285.441 105.881 287.601 105.881C288.581 105.881 289.471 105.911 290.271 105.971C291.071 106.011 291.771 106.081 292.371 106.181V110.381C291.691 110.281 290.951 110.201 290.151 110.141C289.351 110.081 288.601 110.051 287.901 110.051ZM298.352 121.331C296.912 121.331 295.862 120.951 295.202 120.191C294.542 119.431 294.212 118.241 294.212 116.621C294.212 115.021 294.622 113.881 295.442 113.201C296.282 112.521 297.672 112.181 299.612 112.181C300.072 112.181 300.532 112.201 300.992 112.241C301.472 112.281 301.892 112.331 302.252 112.391V111.641C302.252 111.241 302.062 110.961 301.682 110.801C301.302 110.621 300.682 110.531 299.822 110.531C299.002 110.531 298.252 110.551 297.572 110.591C296.912 110.631 296.242 110.711 295.562 110.831V106.421C296.302 106.241 297.192 106.111 298.232 106.031C299.292 105.931 300.502 105.881 301.862 105.881C303.742 105.881 305.172 106.301 306.152 107.141C307.152 107.961 307.652 109.171 307.652 110.771V121.001H302.552L302.402 119.831H302.312C301.712 120.331 301.072 120.711 300.392 120.971C299.732 121.211 299.052 121.331 298.352 121.331ZM300.482 115.241C299.962 115.241 299.592 115.321 299.372 115.481C299.172 115.621 299.072 115.891 299.072 116.291C299.072 116.691 299.152 116.971 299.312 117.131C299.492 117.271 299.792 117.341 300.212 117.341C300.552 117.341 300.902 117.311 301.262 117.251C301.642 117.171 301.972 117.071 302.252 116.951V115.361C301.972 115.321 301.682 115.291 301.382 115.271C301.102 115.251 300.802 115.241 300.482 115.241ZM303.272 100.631H306.032C306.032 101.971 305.812 103.011 305.372 103.751C304.952 104.491 304.332 104.861 303.512 104.861C303.232 104.861 302.922 104.811 302.582 104.711C302.262 104.591 301.802 104.361 301.202 104.021C300.862 103.821 300.622 103.691 300.482 103.631C300.342 103.571 300.222 103.541 300.122 103.541C299.942 103.541 299.812 103.641 299.732 103.841C299.652 104.021 299.612 104.321 299.612 104.741H296.822C296.822 103.401 297.032 102.361 297.452 101.621C297.892 100.881 298.522 100.511 299.342 100.511C299.622 100.511 299.922 100.561 300.242 100.661C300.562 100.761 301.012 100.971 301.592 101.291C301.952 101.471 302.202 101.591 302.342 101.651C302.502 101.711 302.632 101.741 302.732 101.741C302.912 101.741 303.042 101.651 303.122 101.471C303.222 101.291 303.272 101.011 303.272 100.631ZM324.188 113.591C324.188 116.371 323.608 118.361 322.448 119.561C321.288 120.741 319.358 121.331 316.658 121.331C313.998 121.331 312.078 120.731 310.898 119.531C309.738 118.311 309.158 116.331 309.158 113.591C309.158 110.831 309.728 108.861 310.868 107.681C312.028 106.481 313.958 105.881 316.658 105.881C319.338 105.881 321.258 106.481 322.418 107.681C323.598 108.881 324.188 110.851 324.188 113.591ZM314.558 113.531C314.558 114.691 314.688 115.451 314.948 115.811C315.208 116.151 315.778 116.321 316.658 116.321C317.558 116.321 318.138 116.151 318.398 115.811C318.658 115.451 318.788 114.691 318.788 113.531C318.788 112.371 318.658 111.621 318.398 111.281C318.138 110.921 317.558 110.741 316.658 110.741C315.778 110.741 315.208 110.921 314.948 111.281C314.688 111.621 314.558 112.371 314.558 113.531ZM343.201 115.991V121.001H330.061V102.191H342.931V107.081H335.611V109.211H341.821V113.771H335.611V115.991H343.201ZM350.281 101.051V121.001H344.881V101.051H350.281ZM364.923 116.171V120.281C364.363 120.561 363.493 120.801 362.313 121.001C361.153 121.221 359.943 121.331 358.683 121.331C356.263 121.331 354.513 120.731 353.433 119.531C352.373 118.311 351.843 116.341 351.843 113.621C351.843 110.961 352.413 109.011 353.553 107.771C354.713 106.511 356.513 105.881 358.953 105.881C361.313 105.881 363.003 106.351 364.023 107.291C365.043 108.211 365.553 109.791 365.553 112.031C365.553 112.711 365.543 113.261 365.523 113.681C365.503 114.081 365.463 114.541 365.403 115.061H357.183C357.203 115.701 357.383 116.141 357.723 116.381C358.063 116.601 358.673 116.711 359.553 116.711C360.513 116.711 361.493 116.661 362.493 116.561C363.513 116.441 364.323 116.311 364.923 116.171ZM359.013 110.141C358.333 110.141 357.853 110.281 357.573 110.561C357.313 110.821 357.183 111.351 357.183 112.151H360.753V111.461C360.713 110.941 360.573 110.591 360.333 110.411C360.113 110.231 359.673 110.141 359.013 110.141ZM368.019 110.651H366.489V106.181H368.229L368.859 102.791H373.419V106.181H377.139V110.651H373.419V115.121C373.419 115.581 373.539 115.891 373.779 116.051C374.039 116.211 374.509 116.291 375.189 116.291C375.489 116.291 375.859 116.271 376.299 116.231C376.739 116.191 377.089 116.141 377.349 116.081V120.731C377.049 120.871 376.499 121.001 375.699 121.121C374.919 121.261 374.229 121.331 373.629 121.331C371.629 121.331 370.189 120.901 369.309 120.041C368.449 119.181 368.019 117.791 368.019 115.871V110.651ZM384.031 121.001H378.631V106.181H383.671L383.851 107.321H383.911C384.531 106.861 385.141 106.511 385.741 106.271C386.361 106.031 386.961 105.911 387.541 105.911H388.051V111.131C387.591 111.091 387.281 111.071 387.121 111.071C386.981 111.051 386.831 111.041 386.671 111.041C386.171 111.041 385.701 111.071 385.261 111.131C384.821 111.191 384.411 111.281 384.031 111.401V121.001ZM403.788 113.591C403.788 116.371 403.208 118.361 402.048 119.561C400.888 120.741 398.958 121.331 396.258 121.331C393.598 121.331 391.678 120.731 390.498 119.531C389.338 118.311 388.758 116.331 388.758 113.591C388.758 110.831 389.328 108.861 390.468 107.681C391.628 106.481 393.558 105.881 396.258 105.881C398.938 105.881 400.858 106.481 402.018 107.681C403.198 108.881 403.788 110.851 403.788 113.591ZM394.158 113.531C394.158 114.691 394.288 115.451 394.548 115.811C394.808 116.151 395.378 116.321 396.258 116.321C397.158 116.321 397.738 116.151 397.998 115.811C398.258 115.451 398.388 114.691 398.388 113.531C398.388 112.371 398.258 111.621 397.998 111.281C397.738 110.921 397.158 110.741 396.258 110.741C395.378 110.741 394.808 110.921 394.548 111.281C394.288 111.621 394.158 112.371 394.158 113.531ZM401.808 104.741H397.908L396.258 103.091L394.638 104.741H390.738L393.948 100.661H398.598L401.808 104.741ZM410.779 121.001H405.379V106.181H410.029L410.239 107.741H410.359C410.959 107.101 411.619 106.631 412.339 106.331C413.059 106.031 413.909 105.881 414.889 105.881C416.449 105.881 417.629 106.291 418.429 107.111C419.229 107.931 419.629 109.141 419.629 110.741V121.001H414.229V111.851C414.229 111.491 414.099 111.221 413.839 111.041C413.599 110.841 413.229 110.741 412.729 110.741C412.389 110.741 412.059 110.781 411.739 110.861C411.419 110.921 411.099 111.021 410.779 111.161V121.001ZM427.07 104.951H421.52V101.051H427.07V104.951ZM427.01 121.001H421.61V106.181H427.01V121.001ZM440.332 115.781V120.221C439.832 120.521 439.022 120.781 437.902 121.001C436.802 121.221 435.672 121.331 434.512 121.331C432.332 121.331 430.802 120.761 429.922 119.621C429.042 118.461 428.602 116.451 428.602 113.591C428.602 110.711 429.162 108.711 430.282 107.591C431.422 106.451 433.422 105.881 436.282 105.881C436.882 105.881 437.432 105.901 437.932 105.941C438.432 105.961 439.102 106.021 439.942 106.121V110.861C439.922 110.861 439.522 110.841 438.742 110.801C437.962 110.761 437.162 110.741 436.342 110.741C435.322 110.741 434.672 110.901 434.392 111.221C434.132 111.541 434.002 112.331 434.002 113.591C434.002 114.731 434.122 115.471 434.362 115.811C434.602 116.131 435.122 116.291 435.922 116.291C436.662 116.291 437.432 116.241 438.232 116.141C439.032 116.041 439.732 115.921 440.332 115.781ZM445.335 121.331C443.895 121.331 442.845 120.951 442.185 120.191C441.525 119.431 441.195 118.241 441.195 116.621C441.195 115.021 441.605 113.881 442.425 113.201C443.265 112.521 444.655 112.181 446.595 112.181C447.055 112.181 447.515 112.201 447.975 112.241C448.455 112.281 448.875 112.331 449.235 112.391V111.641C449.235 111.241 449.045 110.961 448.665 110.801C448.285 110.621 447.665 110.531 446.805 110.531C445.985 110.531 445.235 110.551 444.555 110.591C443.895 110.631 443.225 110.711 442.545 110.831V106.421C443.285 106.241 444.175 106.111 445.215 106.031C446.275 105.931 447.485 105.881 448.845 105.881C450.725 105.881 452.155 106.301 453.135 107.141C454.135 107.961 454.635 109.171 454.635 110.771V121.001H449.535L449.385 119.831H449.295C448.695 120.331 448.055 120.711 447.375 120.971C446.715 121.211 446.035 121.331 445.335 121.331ZM447.465 115.241C446.945 115.241 446.575 115.321 446.355 115.481C446.155 115.621 446.055 115.891 446.055 116.291C446.055 116.691 446.135 116.971 446.295 117.131C446.475 117.271 446.775 117.341 447.195 117.341C447.535 117.341 447.885 117.311 448.245 117.251C448.625 117.171 448.955 117.071 449.235 116.951V115.361C448.955 115.321 448.665 115.291 448.365 115.271C448.085 115.251 447.785 115.241 447.465 115.241Z" fill="#6513A9"/>
<path d="M243.986 150.265H240.318L239.73 152.001H237.224L240.78 142.173H243.552L247.108 152.001H244.574L243.986 150.265ZM243.37 148.417L242.152 144.819L240.948 148.417H243.37ZM255.26 142.173V144.091H252.656V152.001H250.262V144.091H247.658V142.173H255.26ZM258.856 142.173V152.001H256.462V142.173H258.856ZM269.383 152.001H266.989L262.985 145.939V152.001H260.591V142.173H262.985L266.989 148.263V142.173H269.383V152.001ZM277.278 142.173V148.865C277.278 149.901 276.984 150.699 276.396 151.259C275.817 151.819 275.033 152.099 274.044 152.099C273.008 152.099 272.177 151.805 271.552 151.217C270.927 150.629 270.614 149.794 270.614 148.711H272.994C272.994 149.122 273.078 149.434 273.246 149.649C273.414 149.854 273.657 149.957 273.974 149.957C274.263 149.957 274.487 149.864 274.646 149.677C274.805 149.49 274.884 149.22 274.884 148.865V142.173H277.278ZM285.33 150.265H281.662L281.074 152.001H278.568L282.124 142.173H284.896L288.452 152.001H285.918L285.33 150.265ZM284.714 148.417L283.496 144.819L282.292 148.417H284.714ZM292.179 150.083C292.496 149.831 292.641 149.714 292.613 149.733C293.527 148.977 294.246 148.356 294.769 147.871C295.301 147.386 295.749 146.877 296.113 146.345C296.477 145.813 296.659 145.295 296.659 144.791C296.659 144.408 296.57 144.11 296.393 143.895C296.215 143.68 295.949 143.573 295.595 143.573C295.24 143.573 294.96 143.708 294.755 143.979C294.559 144.24 294.461 144.614 294.461 145.099H292.151C292.169 144.306 292.337 143.643 292.655 143.111C292.981 142.579 293.406 142.187 293.929 141.935C294.461 141.683 295.049 141.557 295.693 141.557C296.803 141.557 297.639 141.842 298.199 142.411C298.768 142.98 299.053 143.722 299.053 144.637C299.053 145.636 298.712 146.564 298.031 147.423C297.349 148.272 296.481 149.103 295.427 149.915H299.207V151.861H292.179V150.083ZM300.261 146.751C300.261 145.146 300.569 143.881 301.185 142.957C301.81 142.033 302.814 141.571 304.195 141.571C305.576 141.571 306.575 142.033 307.191 142.957C307.816 143.881 308.129 145.146 308.129 146.751C308.129 148.375 307.816 149.649 307.191 150.573C306.575 151.497 305.576 151.959 304.195 151.959C302.814 151.959 301.81 151.497 301.185 150.573C300.569 149.649 300.261 148.375 300.261 146.751ZM305.777 146.751C305.777 145.808 305.674 145.085 305.469 144.581C305.264 144.068 304.839 143.811 304.195 143.811C303.551 143.811 303.126 144.068 302.921 144.581C302.716 145.085 302.613 145.808 302.613 146.751C302.613 147.386 302.65 147.913 302.725 148.333C302.8 148.744 302.949 149.08 303.173 149.341C303.406 149.593 303.747 149.719 304.195 149.719C304.643 149.719 304.979 149.593 305.203 149.341C305.436 149.08 305.59 148.744 305.665 148.333C305.74 147.913 305.777 147.386 305.777 146.751ZM309.394 146.751C309.394 145.146 309.702 143.881 310.318 142.957C310.943 142.033 311.946 141.571 313.328 141.571C314.709 141.571 315.708 142.033 316.324 142.957C316.949 143.881 317.262 145.146 317.262 146.751C317.262 148.375 316.949 149.649 316.324 150.573C315.708 151.497 314.709 151.959 313.328 151.959C311.946 151.959 310.943 151.497 310.318 150.573C309.702 149.649 309.394 148.375 309.394 146.751ZM314.91 146.751C314.91 145.808 314.807 145.085 314.602 144.581C314.396 144.068 313.972 143.811 313.328 143.811C312.684 143.811 312.259 144.068 312.054 144.581C311.848 145.085 311.746 145.808 311.746 146.751C311.746 147.386 311.783 147.913 311.858 148.333C311.932 148.744 312.082 149.08 312.306 149.341C312.539 149.593 312.88 149.719 313.328 149.719C313.776 149.719 314.112 149.593 314.336 149.341C314.569 149.08 314.723 148.744 314.798 148.333C314.872 147.913 314.91 147.386 314.91 146.751ZM318.526 146.751C318.526 145.146 318.834 143.881 319.45 142.957C320.076 142.033 321.079 141.571 322.46 141.571C323.842 141.571 324.84 142.033 325.456 142.957C326.082 143.881 326.394 145.146 326.394 146.751C326.394 148.375 326.082 149.649 325.456 150.573C324.84 151.497 323.842 151.959 322.46 151.959C321.079 151.959 320.076 151.497 319.45 150.573C318.834 149.649 318.526 148.375 318.526 146.751ZM324.042 146.751C324.042 145.808 323.94 145.085 323.734 144.581C323.529 144.068 323.104 143.811 322.46 143.811C321.816 143.811 321.392 144.068 321.186 144.581C320.981 145.085 320.878 145.808 320.878 146.751C320.878 147.386 320.916 147.913 320.99 148.333C321.065 148.744 321.214 149.08 321.438 149.341C321.672 149.593 322.012 149.719 322.46 149.719C322.908 149.719 323.244 149.593 323.468 149.341C323.702 149.08 323.856 148.744 323.93 148.333C324.005 147.913 324.042 147.386 324.042 146.751ZM335.876 152.001L333.832 148.291H333.258V152.001H330.864V142.173H334.882C335.657 142.173 336.315 142.308 336.856 142.579C337.407 142.85 337.817 143.223 338.088 143.699C338.359 144.166 338.494 144.688 338.494 145.267C338.494 145.92 338.307 146.504 337.934 147.017C337.57 147.53 337.029 147.894 336.31 148.109L338.578 152.001H335.876ZM333.258 146.597H334.742C335.181 146.597 335.507 146.49 335.722 146.275C335.946 146.06 336.058 145.757 336.058 145.365C336.058 144.992 335.946 144.698 335.722 144.483C335.507 144.268 335.181 144.161 334.742 144.161H333.258V146.597ZM346.115 150.265H342.447L341.859 152.001H339.353L342.909 142.173H345.681L349.237 152.001H346.703L346.115 150.265ZM345.499 148.417L344.281 144.819L343.077 148.417H345.499ZM361.449 142.173V152.001H359.055V146.107L356.857 152.001H354.925L352.713 146.093V152.001H350.319V142.173H353.147L355.905 148.977L358.635 142.173H361.449ZM362.765 147.073C362.765 146.102 362.975 145.239 363.395 144.483C363.815 143.718 364.398 143.125 365.145 142.705C365.901 142.276 366.755 142.061 367.707 142.061C368.873 142.061 369.872 142.369 370.703 142.985C371.533 143.601 372.089 144.441 372.369 145.505H369.737C369.541 145.094 369.261 144.782 368.897 144.567C368.542 144.352 368.136 144.245 367.679 144.245C366.941 144.245 366.344 144.502 365.887 145.015C365.429 145.528 365.201 146.214 365.201 147.073C365.201 147.932 365.429 148.618 365.887 149.131C366.344 149.644 366.941 149.901 367.679 149.901C368.136 149.901 368.542 149.794 368.897 149.579C369.261 149.364 369.541 149.052 369.737 148.641H372.369C372.089 149.705 371.533 150.545 370.703 151.161C369.872 151.768 368.873 152.071 367.707 152.071C366.755 152.071 365.901 151.861 365.145 151.441C364.398 151.012 363.815 150.419 363.395 149.663C362.975 148.907 362.765 148.044 362.765 147.073ZM378.483 152.099C377.559 152.099 376.709 151.884 375.935 151.455C375.169 151.026 374.558 150.428 374.101 149.663C373.653 148.888 373.429 148.02 373.429 147.059C373.429 146.098 373.653 145.234 374.101 144.469C374.558 143.704 375.169 143.106 375.935 142.677C376.709 142.248 377.559 142.033 378.483 142.033C379.407 142.033 380.251 142.248 381.017 142.677C381.791 143.106 382.398 143.704 382.837 144.469C383.285 145.234 383.509 146.098 383.509 147.059C383.509 148.02 383.285 148.888 382.837 149.663C382.389 150.428 381.782 151.026 381.017 151.455C380.251 151.884 379.407 152.099 378.483 152.099ZM378.483 149.915C379.267 149.915 379.892 149.654 380.359 149.131C380.835 148.608 381.073 147.918 381.073 147.059C381.073 146.191 380.835 145.5 380.359 144.987C379.892 144.464 379.267 144.203 378.483 144.203C377.689 144.203 377.055 144.46 376.579 144.973C376.112 145.486 375.879 146.182 375.879 147.059C375.879 147.927 376.112 148.622 376.579 149.145C377.055 149.658 377.689 149.915 378.483 149.915ZM387.235 142.173V152.001H384.841V142.173H387.235ZM397.762 152.001H395.368L391.364 145.939V152.001H388.97V142.173H391.364L395.368 148.263V142.173H397.762V152.001ZM403.053 152.099C402.334 152.099 401.69 151.982 401.121 151.749C400.552 151.516 400.094 151.17 399.749 150.713C399.413 150.256 399.236 149.705 399.217 149.061H401.765C401.802 149.425 401.928 149.705 402.143 149.901C402.358 150.088 402.638 150.181 402.983 150.181C403.338 150.181 403.618 150.102 403.823 149.943C404.028 149.775 404.131 149.546 404.131 149.257C404.131 149.014 404.047 148.814 403.879 148.655C403.72 148.496 403.52 148.366 403.277 148.263C403.044 148.16 402.708 148.044 402.269 147.913C401.634 147.717 401.116 147.521 400.715 147.325C400.314 147.129 399.968 146.84 399.679 146.457C399.39 146.074 399.245 145.575 399.245 144.959C399.245 144.044 399.576 143.33 400.239 142.817C400.902 142.294 401.765 142.033 402.829 142.033C403.912 142.033 404.784 142.294 405.447 142.817C406.11 143.33 406.464 144.049 406.511 144.973H403.921C403.902 144.656 403.786 144.408 403.571 144.231C403.356 144.044 403.081 143.951 402.745 143.951C402.456 143.951 402.222 144.03 402.045 144.189C401.868 144.338 401.779 144.558 401.779 144.847C401.779 145.164 401.928 145.412 402.227 145.589C402.526 145.766 402.992 145.958 403.627 146.163C404.262 146.378 404.775 146.583 405.167 146.779C405.568 146.975 405.914 147.26 406.203 147.633C406.492 148.006 406.637 148.487 406.637 149.075C406.637 149.635 406.492 150.144 406.203 150.601C405.923 151.058 405.512 151.422 404.971 151.693C404.43 151.964 403.79 152.099 403.053 152.099Z" fill="#6513A9"/>
<path d="M221.982 194.001H220.044L214.213 185.178V194.001H212.275V182.169H214.213L220.044 190.975V182.169H221.982V194.001ZM223.881 189.275C223.881 188.334 224.074 187.501 224.459 186.776C224.856 186.051 225.388 185.49 226.057 185.093C226.737 184.685 227.485 184.481 228.301 184.481C229.038 184.481 229.678 184.628 230.222 184.923C230.777 185.206 231.219 185.563 231.548 185.994V184.634H233.503V194.001H231.548V192.607C231.219 193.049 230.772 193.417 230.205 193.712C229.638 194.007 228.992 194.154 228.267 194.154C227.462 194.154 226.726 193.95 226.057 193.542C225.388 193.123 224.856 192.545 224.459 191.808C224.074 191.06 223.881 190.216 223.881 189.275ZM231.548 189.309C231.548 188.663 231.412 188.102 231.14 187.626C230.879 187.15 230.534 186.787 230.103 186.538C229.672 186.289 229.208 186.164 228.709 186.164C228.21 186.164 227.746 186.289 227.315 186.538C226.884 186.776 226.533 187.133 226.261 187.609C226 188.074 225.87 188.629 225.87 189.275C225.87 189.921 226 190.488 226.261 190.975C226.533 191.462 226.884 191.836 227.315 192.097C227.757 192.346 228.222 192.471 228.709 192.471C229.208 192.471 229.672 192.346 230.103 192.097C230.534 191.848 230.879 191.485 231.14 191.009C231.412 190.522 231.548 189.955 231.548 189.309ZM249.049 189.088C249.049 189.439 249.027 189.757 248.981 190.04H241.824C241.881 190.788 242.159 191.389 242.657 191.842C243.156 192.295 243.768 192.522 244.493 192.522C245.536 192.522 246.273 192.086 246.703 191.213H248.794C248.511 192.074 247.995 192.783 247.247 193.338C246.511 193.882 245.593 194.154 244.493 194.154C243.598 194.154 242.793 193.956 242.079 193.559C241.377 193.151 240.821 192.584 240.413 191.859C240.017 191.122 239.818 190.272 239.818 189.309C239.818 188.346 240.011 187.501 240.396 186.776C240.793 186.039 241.343 185.473 242.045 185.076C242.759 184.679 243.575 184.481 244.493 184.481C245.377 184.481 246.165 184.674 246.856 185.059C247.548 185.444 248.086 185.988 248.471 186.691C248.857 187.382 249.049 188.181 249.049 189.088ZM247.026 188.476C247.015 187.762 246.76 187.19 246.261 186.759C245.763 186.328 245.145 186.113 244.408 186.113C243.74 186.113 243.167 186.328 242.691 186.759C242.215 187.178 241.932 187.751 241.841 188.476H247.026ZM252.895 185.994C253.178 185.518 253.552 185.15 254.017 184.889C254.493 184.617 255.054 184.481 255.7 184.481V186.487H255.207C254.447 186.487 253.869 186.68 253.473 187.065C253.087 187.45 252.895 188.119 252.895 189.071V194.001H250.957V184.634H252.895V185.994ZM256.835 189.275C256.835 188.334 257.028 187.501 257.413 186.776C257.81 186.051 258.342 185.49 259.011 185.093C259.691 184.685 260.439 184.481 261.255 184.481C261.992 184.481 262.632 184.628 263.176 184.923C263.731 185.206 264.173 185.563 264.502 185.994V184.634H266.457V194.001H264.502V192.607C264.173 193.049 263.726 193.417 263.159 193.712C262.592 194.007 261.946 194.154 261.221 194.154C260.416 194.154 259.68 193.95 259.011 193.542C258.342 193.123 257.81 192.545 257.413 191.808C257.028 191.06 256.835 190.216 256.835 189.275ZM264.502 189.309C264.502 188.663 264.366 188.102 264.094 187.626C263.833 187.15 263.488 186.787 263.057 186.538C262.626 186.289 262.162 186.164 261.663 186.164C261.164 186.164 260.7 186.289 260.269 186.538C259.838 186.776 259.487 187.133 259.215 187.609C258.954 188.074 258.824 188.629 258.824 189.275C258.824 189.921 258.954 190.488 259.215 190.975C259.487 191.462 259.838 191.836 260.269 192.097C260.711 192.346 261.176 192.471 261.663 192.471C262.162 192.471 262.626 192.346 263.057 192.097C263.488 191.848 263.833 191.485 264.094 191.009C264.366 190.522 264.502 189.955 264.502 189.309ZM272.773 189.275C272.773 188.334 272.965 187.501 273.351 186.776C273.747 186.051 274.28 185.49 274.949 185.093C275.629 184.685 276.382 184.481 277.21 184.481C277.822 184.481 278.422 184.617 279.012 184.889C279.612 185.15 280.088 185.501 280.44 185.943V181.421H282.395V194.001H280.44V192.59C280.122 193.043 279.68 193.417 279.114 193.712C278.558 194.007 277.918 194.154 277.193 194.154C276.377 194.154 275.629 193.95 274.949 193.542C274.28 193.123 273.747 192.545 273.351 191.808C272.965 191.06 272.773 190.216 272.773 189.275ZM280.44 189.309C280.44 188.663 280.304 188.102 280.032 187.626C279.771 187.15 279.425 186.787 278.995 186.538C278.564 186.289 278.099 186.164 277.601 186.164C277.102 186.164 276.637 186.289 276.207 186.538C275.776 186.776 275.425 187.133 275.153 187.609C274.892 188.074 274.762 188.629 274.762 189.275C274.762 189.921 274.892 190.488 275.153 190.975C275.425 191.462 275.776 191.836 276.207 192.097C276.649 192.346 277.113 192.471 277.601 192.471C278.099 192.471 278.564 192.346 278.995 192.097C279.425 191.848 279.771 191.485 280.032 191.009C280.304 190.522 280.44 189.955 280.44 189.309ZM285.926 183.393C285.575 183.393 285.28 183.274 285.042 183.036C284.804 182.798 284.685 182.503 284.685 182.152C284.685 181.801 284.804 181.506 285.042 181.268C285.28 181.03 285.575 180.911 285.926 180.911C286.266 180.911 286.555 181.03 286.793 181.268C287.031 181.506 287.15 181.801 287.15 182.152C287.15 182.503 287.031 182.798 286.793 183.036C286.555 183.274 286.266 183.393 285.926 183.393ZM286.878 184.634V194.001H284.94V184.634H286.878ZM293.196 184.481C293.922 184.481 294.562 184.628 295.117 184.923C295.684 185.206 296.126 185.563 296.443 185.994V184.634H298.398V194.154C298.398 195.015 298.217 195.78 297.854 196.449C297.492 197.129 296.965 197.662 296.273 198.047C295.593 198.432 294.777 198.625 293.825 198.625C292.556 198.625 291.502 198.325 290.663 197.724C289.825 197.135 289.349 196.33 289.235 195.31H291.156C291.304 195.797 291.615 196.188 292.091 196.483C292.579 196.789 293.157 196.942 293.825 196.942C294.607 196.942 295.236 196.704 295.712 196.228C296.2 195.752 296.443 195.061 296.443 194.154V192.59C296.115 193.032 295.667 193.406 295.1 193.712C294.545 194.007 293.91 194.154 293.196 194.154C292.38 194.154 291.632 193.95 290.952 193.542C290.284 193.123 289.751 192.545 289.354 191.808C288.969 191.06 288.776 190.216 288.776 189.275C288.776 188.334 288.969 187.501 289.354 186.776C289.751 186.051 290.284 185.49 290.952 185.093C291.632 184.685 292.38 184.481 293.196 184.481ZM296.443 189.309C296.443 188.663 296.307 188.102 296.035 187.626C295.775 187.15 295.429 186.787 294.998 186.538C294.568 186.289 294.103 186.164 293.604 186.164C293.106 186.164 292.641 186.289 292.21 186.538C291.78 186.776 291.428 187.133 291.156 187.609C290.896 188.074 290.765 188.629 290.765 189.275C290.765 189.921 290.896 190.488 291.156 190.975C291.428 191.462 291.78 191.836 292.21 192.097C292.652 192.346 293.117 192.471 293.604 192.471C294.103 192.471 294.568 192.346 294.998 192.097C295.429 191.848 295.775 191.485 296.035 191.009C296.307 190.522 296.443 189.955 296.443 189.309ZM301.93 183.393C301.579 183.393 301.284 183.274 301.046 183.036C300.808 182.798 300.689 182.503 300.689 182.152C300.689 181.801 300.808 181.506 301.046 181.268C301.284 181.03 301.579 180.911 301.93 180.911C302.27 180.911 302.559 181.03 302.797 181.268C303.035 181.506 303.154 181.801 303.154 182.152C303.154 182.503 303.035 182.798 302.797 183.036C302.559 183.274 302.27 183.393 301.93 183.393ZM302.882 184.634V194.001H300.944V184.634H302.882ZM307.687 186.215V191.4C307.687 191.751 307.767 192.006 307.925 192.165C308.095 192.312 308.379 192.386 308.775 192.386H309.965V194.001H308.435C307.563 194.001 306.894 193.797 306.429 193.389C305.965 192.981 305.732 192.318 305.732 191.4V186.215H304.627V184.634H305.732V182.305H307.687V184.634H309.965V186.215H307.687ZM311.106 189.275C311.106 188.334 311.298 187.501 311.684 186.776C312.08 186.051 312.613 185.49 313.282 185.093C313.962 184.685 314.71 184.481 315.526 184.481C316.262 184.481 316.903 184.628 317.447 184.923C318.002 185.206 318.444 185.563 318.773 185.994V184.634H320.728V194.001H318.773V192.607C318.444 193.049 317.996 193.417 317.43 193.712C316.863 194.007 316.217 194.154 315.492 194.154C314.687 194.154 313.95 193.95 313.282 193.542C312.613 193.123 312.08 192.545 311.684 191.808C311.298 191.06 311.106 190.216 311.106 189.275ZM318.773 189.309C318.773 188.663 318.637 188.102 318.365 187.626C318.104 187.15 317.758 186.787 317.328 186.538C316.897 186.289 316.432 186.164 315.934 186.164C315.435 186.164 314.97 186.289 314.54 186.538C314.109 186.776 313.758 187.133 313.486 187.609C313.225 188.074 313.095 188.629 313.095 189.275C313.095 189.921 313.225 190.488 313.486 190.975C313.758 191.462 314.109 191.836 314.54 192.097C314.982 192.346 315.446 192.471 315.934 192.471C316.432 192.471 316.897 192.346 317.328 192.097C317.758 191.848 318.104 191.485 318.365 191.009C318.637 190.522 318.773 189.955 318.773 189.309ZM325.211 181.421V194.001H323.273V181.421H325.211ZM329.88 191.672L327.823 196.364H326.565L327.772 191.672H329.88ZM335.344 189.275C335.344 188.334 335.537 187.501 335.922 186.776C336.319 186.051 336.851 185.49 337.52 185.093C338.2 184.685 338.948 184.481 339.764 184.481C340.501 184.481 341.141 184.628 341.685 184.923C342.24 185.206 342.682 185.563 343.011 185.994V184.634H344.966V194.001H343.011V192.607C342.682 193.049 342.235 193.417 341.668 193.712C341.101 194.007 340.455 194.154 339.73 194.154C338.925 194.154 338.189 193.95 337.52 193.542C336.851 193.123 336.319 192.545 335.922 191.808C335.537 191.06 335.344 190.216 335.344 189.275ZM343.011 189.309C343.011 188.663 342.875 188.102 342.603 187.626C342.342 187.15 341.997 186.787 341.566 186.538C341.135 186.289 340.671 186.164 340.172 186.164C339.673 186.164 339.209 186.289 338.778 186.538C338.347 186.776 337.996 187.133 337.724 187.609C337.463 188.074 337.333 188.629 337.333 189.275C337.333 189.921 337.463 190.488 337.724 190.975C337.996 191.462 338.347 191.836 338.778 192.097C339.22 192.346 339.685 192.471 340.172 192.471C340.671 192.471 341.135 192.346 341.566 192.097C341.997 191.848 342.342 191.485 342.603 191.009C342.875 190.522 343.011 189.955 343.011 189.309ZM350.911 194.154C350.175 194.154 349.512 194.024 348.922 193.763C348.344 193.491 347.885 193.128 347.545 192.675C347.205 192.21 347.024 191.695 347.001 191.128H349.007C349.041 191.525 349.228 191.859 349.568 192.131C349.92 192.392 350.356 192.522 350.877 192.522C351.421 192.522 351.841 192.42 352.135 192.216C352.441 192.001 352.594 191.729 352.594 191.4C352.594 191.049 352.424 190.788 352.084 190.618C351.756 190.448 351.229 190.261 350.503 190.057C349.801 189.864 349.228 189.677 348.786 189.496C348.344 189.315 347.959 189.037 347.63 188.663C347.313 188.289 347.154 187.796 347.154 187.184C347.154 186.685 347.302 186.232 347.596 185.824C347.891 185.405 348.31 185.076 348.854 184.838C349.41 184.6 350.044 184.481 350.758 184.481C351.824 184.481 352.679 184.753 353.325 185.297C353.983 185.83 354.334 186.561 354.379 187.49H352.441C352.407 187.071 352.237 186.736 351.931 186.487C351.625 186.238 351.212 186.113 350.69 186.113C350.18 186.113 349.789 186.209 349.517 186.402C349.245 186.595 349.109 186.85 349.109 187.167C349.109 187.416 349.2 187.626 349.381 187.796C349.563 187.966 349.784 188.102 350.044 188.204C350.305 188.295 350.69 188.414 351.2 188.561C351.88 188.742 352.436 188.929 352.866 189.122C353.308 189.303 353.688 189.575 354.005 189.938C354.323 190.301 354.487 190.782 354.498 191.383C354.498 191.916 354.351 192.392 354.056 192.811C353.762 193.23 353.342 193.559 352.798 193.797C352.266 194.035 351.637 194.154 350.911 194.154ZM364.782 184.481C365.508 184.481 366.148 184.628 366.703 184.923C367.27 185.206 367.712 185.563 368.029 185.994V184.634H369.984V194.154C369.984 195.015 369.803 195.78 369.44 196.449C369.078 197.129 368.551 197.662 367.859 198.047C367.179 198.432 366.363 198.625 365.411 198.625C364.142 198.625 363.088 198.325 362.249 197.724C361.411 197.135 360.935 196.33 360.821 195.31H362.742C362.89 195.797 363.201 196.188 363.677 196.483C364.165 196.789 364.743 196.942 365.411 196.942C366.193 196.942 366.822 196.704 367.298 196.228C367.786 195.752 368.029 195.061 368.029 194.154V192.59C367.701 193.032 367.253 193.406 366.686 193.712C366.131 194.007 365.496 194.154 364.782 194.154C363.966 194.154 363.218 193.95 362.538 193.542C361.87 193.123 361.337 192.545 360.94 191.808C360.555 191.06 360.362 190.216 360.362 189.275C360.362 188.334 360.555 187.501 360.94 186.776C361.337 186.051 361.87 185.49 362.538 185.093C363.218 184.685 363.966 184.481 364.782 184.481ZM368.029 189.309C368.029 188.663 367.893 188.102 367.621 187.626C367.361 187.15 367.015 186.787 366.584 186.538C366.154 186.289 365.689 186.164 365.19 186.164C364.692 186.164 364.227 186.289 363.796 186.538C363.366 186.776 363.014 187.133 362.742 187.609C362.482 188.074 362.351 188.629 362.351 189.275C362.351 189.921 362.482 190.488 362.742 190.975C363.014 191.462 363.366 191.836 363.796 192.097C364.238 192.346 364.703 192.471 365.19 192.471C365.689 192.471 366.154 192.346 366.584 192.097C367.015 191.848 367.361 191.485 367.621 191.009C367.893 190.522 368.029 189.955 368.029 189.309ZM374.468 185.994C374.751 185.518 375.125 185.15 375.59 184.889C376.066 184.617 376.627 184.481 377.273 184.481V186.487H376.78C376.021 186.487 375.443 186.68 375.046 187.065C374.661 187.45 374.468 188.119 374.468 189.071V194.001H372.53V184.634H374.468V185.994ZM378.408 189.275C378.408 188.334 378.601 187.501 378.986 186.776C379.383 186.051 379.916 185.49 380.584 185.093C381.264 184.685 382.012 184.481 382.828 184.481C383.565 184.481 384.205 184.628 384.749 184.923C385.305 185.206 385.747 185.563 386.075 185.994V184.634H388.03V194.001H386.075V192.607C385.747 193.049 385.299 193.417 384.732 193.712C384.166 194.007 383.52 194.154 382.794 194.154C381.99 194.154 381.253 193.95 380.584 193.542C379.916 193.123 379.383 192.545 378.986 191.808C378.601 191.06 378.408 190.216 378.408 189.275ZM386.075 189.309C386.075 188.663 385.939 188.102 385.667 187.626C385.407 187.15 385.061 186.787 384.63 186.538C384.2 186.289 383.735 186.164 383.236 186.164C382.738 186.164 382.273 186.289 381.842 186.538C381.412 186.776 381.06 187.133 380.788 187.609C380.528 188.074 380.397 188.629 380.397 189.275C380.397 189.921 380.528 190.488 380.788 190.975C381.06 191.462 381.412 191.836 381.842 192.097C382.284 192.346 382.749 192.471 383.236 192.471C383.735 192.471 384.2 192.346 384.63 192.097C385.061 191.848 385.407 191.485 385.667 191.009C385.939 190.522 386.075 189.955 386.075 189.309ZM395.302 184.481C396.038 184.481 396.696 184.634 397.274 184.94C397.863 185.246 398.322 185.699 398.651 186.3C398.979 186.901 399.144 187.626 399.144 188.476V194.001H397.223V188.765C397.223 187.926 397.013 187.286 396.594 186.844C396.174 186.391 395.602 186.164 394.877 186.164C394.151 186.164 393.573 186.391 393.143 186.844C392.723 187.286 392.514 187.926 392.514 188.765V194.001H390.576V184.634H392.514V185.705C392.831 185.32 393.233 185.019 393.721 184.804C394.219 184.589 394.746 184.481 395.302 184.481ZM400.97 189.275C400.97 188.334 401.162 187.501 401.548 186.776C401.944 186.051 402.477 185.49 403.146 185.093C403.826 184.685 404.579 184.481 405.407 184.481C406.019 184.481 406.619 184.617 407.209 184.889C407.809 185.15 408.285 185.501 408.637 185.943V181.421H410.592V194.001H408.637V192.59C408.319 193.043 407.877 193.417 407.311 193.712C406.755 194.007 406.115 194.154 405.39 194.154C404.574 194.154 403.826 193.95 403.146 193.542C402.477 193.123 401.944 192.545 401.548 191.808C401.162 191.06 400.97 190.216 400.97 189.275ZM408.637 189.309C408.637 188.663 408.501 188.102 408.229 187.626C407.968 187.15 407.622 186.787 407.192 186.538C406.761 186.289 406.296 186.164 405.798 186.164C405.299 186.164 404.834 186.289 404.404 186.538C403.973 186.776 403.622 187.133 403.35 187.609C403.089 188.074 402.959 188.629 402.959 189.275C402.959 189.921 403.089 190.488 403.35 190.975C403.622 191.462 403.973 191.836 404.404 192.097C404.846 192.346 405.31 192.471 405.798 192.471C406.296 192.471 406.761 192.346 407.192 192.097C407.622 191.848 407.968 191.485 408.229 191.009C408.501 190.522 408.637 189.955 408.637 189.309ZM421.722 189.088C421.722 189.439 421.7 189.757 421.654 190.04H414.497C414.554 190.788 414.832 191.389 415.33 191.842C415.829 192.295 416.441 192.522 417.166 192.522C418.209 192.522 418.946 192.086 419.376 191.213H421.467C421.184 192.074 420.668 192.783 419.92 193.338C419.184 193.882 418.266 194.154 417.166 194.154C416.271 194.154 415.466 193.956 414.752 193.559C414.05 193.151 413.494 192.584 413.086 191.859C412.69 191.122 412.491 190.272 412.491 189.309C412.491 188.346 412.684 187.501 413.069 186.776C413.466 186.039 414.016 185.473 414.718 185.076C415.432 184.679 416.248 184.481 417.166 184.481C418.05 184.481 418.838 184.674 419.529 185.059C420.221 185.444 420.759 185.988 421.144 186.691C421.53 187.382 421.722 188.181 421.722 189.088ZM419.699 188.476C419.688 187.762 419.433 187.19 418.934 186.759C418.436 186.328 417.818 186.113 417.081 186.113C416.413 186.113 415.84 186.328 415.364 186.759C414.888 187.178 414.605 187.751 414.514 188.476H419.699ZM427.029 194.154C426.293 194.154 425.63 194.024 425.04 193.763C424.462 193.491 424.003 193.128 423.663 192.675C423.323 192.21 423.142 191.695 423.119 191.128H425.125C425.159 191.525 425.346 191.859 425.686 192.131C426.038 192.392 426.474 192.522 426.995 192.522C427.539 192.522 427.959 192.42 428.253 192.216C428.559 192.001 428.712 191.729 428.712 191.4C428.712 191.049 428.542 190.788 428.202 190.618C427.874 190.448 427.347 190.261 426.621 190.057C425.919 189.864 425.346 189.677 424.904 189.496C424.462 189.315 424.077 189.037 423.748 188.663C423.431 188.289 423.272 187.796 423.272 187.184C423.272 186.685 423.42 186.232 423.714 185.824C424.009 185.405 424.428 185.076 424.972 184.838C425.528 184.6 426.162 184.481 426.876 184.481C427.942 184.481 428.797 184.753 429.443 185.297C430.101 185.83 430.452 186.561 430.497 187.49H428.559C428.525 187.071 428.355 186.736 428.049 186.487C427.743 186.238 427.33 186.113 426.808 186.113C426.298 186.113 425.907 186.209 425.635 186.402C425.363 186.595 425.227 186.85 425.227 187.167C425.227 187.416 425.318 187.626 425.499 187.796C425.681 187.966 425.902 188.102 426.162 188.204C426.423 188.295 426.808 188.414 427.318 188.561C427.998 188.742 428.554 188.929 428.984 189.122C429.426 189.303 429.806 189.575 430.123 189.938C430.441 190.301 430.605 190.782 430.616 191.383C430.616 191.916 430.469 192.392 430.174 192.811C429.88 193.23 429.46 193.559 428.916 193.797C428.384 194.035 427.755 194.154 427.029 194.154ZM438.113 183.393C437.761 183.393 437.467 183.274 437.229 183.036C436.991 182.798 436.872 182.503 436.872 182.152C436.872 181.801 436.991 181.506 437.229 181.268C437.467 181.03 437.761 180.911 438.113 180.911C438.453 180.911 438.742 181.03 438.98 181.268C439.218 181.506 439.337 181.801 439.337 182.152C439.337 182.503 439.218 182.798 438.98 183.036C438.742 183.274 438.453 183.393 438.113 183.393ZM439.065 184.634V194.001H437.127V184.634H439.065ZM440.963 189.275C440.963 188.334 441.156 187.501 441.541 186.776C441.938 186.051 442.47 185.49 443.139 185.093C443.819 184.685 444.573 184.481 445.4 184.481C446.012 184.481 446.613 184.617 447.202 184.889C447.803 185.15 448.279 185.501 448.63 185.943V181.421H450.585V194.001H448.63V192.59C448.313 193.043 447.871 193.417 447.304 193.712C446.749 194.007 446.108 194.154 445.383 194.154C444.567 194.154 443.819 193.95 443.139 193.542C442.47 193.123 441.938 192.545 441.541 191.808C441.156 191.06 440.963 190.216 440.963 189.275ZM448.63 189.309C448.63 188.663 448.494 188.102 448.222 187.626C447.961 187.15 447.616 186.787 447.185 186.538C446.754 186.289 446.29 186.164 445.791 186.164C445.292 186.164 444.828 186.289 444.397 186.538C443.966 186.776 443.615 187.133 443.343 187.609C443.082 188.074 442.952 188.629 442.952 189.275C442.952 189.921 443.082 190.488 443.343 190.975C443.615 191.462 443.966 191.836 444.397 192.097C444.839 192.346 445.304 192.471 445.791 192.471C446.29 192.471 446.754 192.346 447.185 192.097C447.616 191.848 447.961 191.485 448.222 191.009C448.494 190.522 448.63 189.955 448.63 189.309ZM461.715 189.088C461.715 189.439 461.693 189.757 461.647 190.04H454.49C454.547 190.788 454.825 191.389 455.323 191.842C455.822 192.295 456.434 192.522 457.159 192.522C458.202 192.522 458.939 192.086 459.369 191.213H461.46C461.177 192.074 460.661 192.783 459.913 193.338C459.177 193.882 458.259 194.154 457.159 194.154C456.264 194.154 455.459 193.956 454.745 193.559C454.043 193.151 453.487 192.584 453.079 191.859C452.683 191.122 452.484 190.272 452.484 189.309C452.484 188.346 452.677 187.501 453.062 186.776C453.459 186.039 454.009 185.473 454.711 185.076C455.425 184.679 456.241 184.481 457.159 184.481C458.043 184.481 458.831 184.674 459.522 185.059C460.214 185.444 460.752 185.988 461.137 186.691C461.523 187.382 461.715 188.181 461.715 189.088ZM459.692 188.476C459.681 187.762 459.426 187.19 458.927 186.759C458.429 186.328 457.811 186.113 457.074 186.113C456.406 186.113 455.833 186.328 455.357 186.759C454.881 187.178 454.598 187.751 454.507 188.476H459.692ZM464.609 183.393C464.257 183.393 463.963 183.274 463.725 183.036C463.487 182.798 463.368 182.503 463.368 182.152C463.368 181.801 463.487 181.506 463.725 181.268C463.963 181.03 464.257 180.911 464.609 180.911C464.949 180.911 465.238 181.03 465.476 181.268C465.714 181.506 465.833 181.801 465.833 182.152C465.833 182.503 465.714 182.798 465.476 183.036C465.238 183.274 464.949 183.393 464.609 183.393ZM465.561 184.634V194.001H463.623V184.634H465.561ZM467.459 189.275C467.459 188.334 467.652 187.501 468.037 186.776C468.434 186.051 468.966 185.49 469.635 185.093C470.315 184.685 471.063 184.481 471.879 184.481C472.616 184.481 473.256 184.628 473.8 184.923C474.355 185.206 474.797 185.563 475.126 185.994V184.634H477.081V194.001H475.126V192.607C474.797 193.049 474.35 193.417 473.783 193.712C473.216 194.007 472.57 194.154 471.845 194.154C471.04 194.154 470.304 193.95 469.635 193.542C468.966 193.123 468.434 192.545 468.037 191.808C467.652 191.06 467.459 190.216 467.459 189.275ZM475.126 189.309C475.126 188.663 474.99 188.102 474.718 187.626C474.457 187.15 474.112 186.787 473.681 186.538C473.25 186.289 472.786 186.164 472.287 186.164C471.788 186.164 471.324 186.289 470.893 186.538C470.462 186.776 470.111 187.133 469.839 187.609C469.578 188.074 469.448 188.629 469.448 189.275C469.448 189.921 469.578 190.488 469.839 190.975C470.111 191.462 470.462 191.836 470.893 192.097C471.335 192.346 471.8 192.471 472.287 192.471C472.786 192.471 473.25 192.346 473.681 192.097C474.112 191.848 474.457 191.485 474.718 191.009C474.99 190.522 475.126 189.955 475.126 189.309ZM483.027 194.154C482.29 194.154 481.627 194.024 481.038 193.763C480.46 193.491 480.001 193.128 479.661 192.675C479.321 192.21 479.139 191.695 479.117 191.128H481.123C481.157 191.525 481.344 191.859 481.684 192.131C482.035 192.392 482.471 192.522 482.993 192.522C483.537 192.522 483.956 192.42 484.251 192.216C484.557 192.001 484.71 191.729 484.71 191.4C484.71 191.049 484.54 190.788 484.2 190.618C483.871 190.448 483.344 190.261 482.619 190.057C481.916 189.864 481.344 189.677 480.902 189.496C480.46 189.315 480.074 189.037 479.746 188.663C479.428 188.289 479.27 187.796 479.27 187.184C479.27 186.685 479.417 186.232 479.712 185.824C480.006 185.405 480.426 185.076 480.97 184.838C481.525 184.6 482.16 184.481 482.874 184.481C483.939 184.481 484.795 184.753 485.441 185.297C486.098 185.83 486.449 186.561 486.495 187.49H484.557C484.523 187.071 484.353 186.736 484.047 186.487C483.741 186.238 483.327 186.113 482.806 186.113C482.296 186.113 481.905 186.209 481.633 186.402C481.361 186.595 481.225 186.85 481.225 187.167C481.225 187.416 481.315 187.626 481.497 187.796C481.678 187.966 481.899 188.102 482.16 188.204C482.42 188.295 482.806 188.414 483.316 188.561C483.996 188.742 484.551 188.929 484.982 189.122C485.424 189.303 485.803 189.575 486.121 189.938C486.438 190.301 486.602 190.782 486.614 191.383C486.614 191.916 486.466 192.392 486.172 192.811C485.877 193.23 485.458 193.559 484.914 193.797C484.381 194.035 483.752 194.154 483.027 194.154ZM501.709 189.088C501.709 189.439 501.686 189.757 501.641 190.04H494.484C494.54 190.788 494.818 191.389 495.317 191.842C495.815 192.295 496.427 192.522 497.153 192.522C498.195 192.522 498.932 192.086 499.363 191.213H501.454C501.17 192.074 500.655 192.783 499.907 193.338C499.17 193.882 498.252 194.154 497.153 194.154C496.257 194.154 495.453 193.956 494.739 193.559C494.036 193.151 493.481 192.584 493.073 191.859C492.676 191.122 492.478 190.272 492.478 189.309C492.478 188.346 492.67 187.501 493.056 186.776C493.452 186.039 494.002 185.473 494.705 185.076C495.419 184.679 496.235 184.481 497.153 184.481C498.037 184.481 498.824 184.674 499.516 185.059C500.207 185.444 500.745 185.988 501.131 186.691C501.516 187.382 501.709 188.181 501.709 189.088ZM499.686 188.476C499.674 187.762 499.419 187.19 498.921 186.759C498.422 186.328 497.804 186.113 497.068 186.113C496.399 186.113 495.827 186.328 495.351 186.759C494.875 187.178 494.591 187.751 494.501 188.476H499.686ZM507.628 189.258L510.654 194.001H508.461L506.438 190.822L504.534 194.001H502.511L505.537 189.394L502.511 184.634H504.704L506.727 187.813L508.631 184.634H510.654L507.628 189.258ZM514.037 186.011C514.366 185.58 514.814 185.218 515.38 184.923C515.947 184.628 516.587 184.481 517.301 184.481C518.117 184.481 518.86 184.685 519.528 185.093C520.208 185.49 520.741 186.051 521.126 186.776C521.512 187.501 521.704 188.334 521.704 189.275C521.704 190.216 521.512 191.06 521.126 191.808C520.741 192.545 520.208 193.123 519.528 193.542C518.86 193.95 518.117 194.154 517.301 194.154C516.587 194.154 515.953 194.012 515.397 193.729C514.842 193.434 514.389 193.072 514.037 192.641V198.455H512.099V184.634H514.037V186.011ZM519.732 189.275C519.732 188.629 519.596 188.074 519.324 187.609C519.064 187.133 518.712 186.776 518.27 186.538C517.84 186.289 517.375 186.164 516.876 186.164C516.389 186.164 515.924 186.289 515.482 186.538C515.052 186.787 514.7 187.15 514.428 187.626C514.168 188.102 514.037 188.663 514.037 189.309C514.037 189.955 514.168 190.522 514.428 191.009C514.7 191.485 515.052 191.848 515.482 192.097C515.924 192.346 516.389 192.471 516.876 192.471C517.375 192.471 517.84 192.346 518.27 192.097C518.712 191.836 519.064 191.462 519.324 190.975C519.596 190.488 519.732 189.921 519.732 189.275ZM525.559 181.421V194.001H523.621V181.421H525.559ZM532.166 194.154C531.282 194.154 530.483 193.956 529.769 193.559C529.055 193.151 528.494 192.584 528.086 191.859C527.678 191.122 527.474 190.272 527.474 189.309C527.474 188.357 527.684 187.513 528.103 186.776C528.522 186.039 529.095 185.473 529.82 185.076C530.545 184.679 531.356 184.481 532.251 184.481C533.146 184.481 533.957 184.679 534.682 185.076C535.407 185.473 535.98 186.039 536.399 186.776C536.818 187.513 537.028 188.357 537.028 189.309C537.028 190.261 536.813 191.105 536.382 191.842C535.951 192.579 535.362 193.151 534.614 193.559C533.877 193.956 533.061 194.154 532.166 194.154ZM532.166 192.471C532.665 192.471 533.129 192.352 533.56 192.114C534.002 191.876 534.359 191.519 534.631 191.043C534.903 190.567 535.039 189.989 535.039 189.309C535.039 188.629 534.909 188.057 534.648 187.592C534.387 187.116 534.042 186.759 533.611 186.521C533.18 186.283 532.716 186.164 532.217 186.164C531.718 186.164 531.254 186.283 530.823 186.521C530.404 186.759 530.069 187.116 529.82 187.592C529.571 188.057 529.446 188.629 529.446 189.309C529.446 190.318 529.701 191.1 530.211 191.655C530.732 192.199 531.384 192.471 532.166 192.471ZM538.298 189.275C538.298 188.334 538.491 187.501 538.876 186.776C539.273 186.051 539.805 185.49 540.474 185.093C541.154 184.685 541.908 184.481 542.735 184.481C543.347 184.481 543.948 184.617 544.537 184.889C545.138 185.15 545.614 185.501 545.965 185.943V181.421H547.92V194.001H545.965V192.59C545.648 193.043 545.206 193.417 544.639 193.712C544.084 194.007 543.443 194.154 542.718 194.154C541.902 194.154 541.154 193.95 540.474 193.542C539.805 193.123 539.273 192.545 538.876 191.808C538.491 191.06 538.298 190.216 538.298 189.275ZM545.965 189.309C545.965 188.663 545.829 188.102 545.557 187.626C545.296 187.15 544.951 186.787 544.52 186.538C544.089 186.289 543.625 186.164 543.126 186.164C542.627 186.164 542.163 186.289 541.732 186.538C541.301 186.776 540.95 187.133 540.678 187.609C540.417 188.074 540.287 188.629 540.287 189.275C540.287 189.921 540.417 190.488 540.678 190.975C540.95 191.462 541.301 191.836 541.732 192.097C542.174 192.346 542.639 192.471 543.126 192.471C543.625 192.471 544.089 192.346 544.52 192.097C544.951 191.848 545.296 191.485 545.557 191.009C545.829 190.522 545.965 189.955 545.965 189.309ZM559.05 189.088C559.05 189.439 559.028 189.757 558.982 190.04H551.825C551.882 190.788 552.16 191.389 552.658 191.842C553.157 192.295 553.769 192.522 554.494 192.522C555.537 192.522 556.274 192.086 556.704 191.213H558.795C558.512 192.074 557.996 192.783 557.248 193.338C556.512 193.882 555.594 194.154 554.494 194.154C553.599 194.154 552.794 193.956 552.08 193.559C551.378 193.151 550.822 192.584 550.414 191.859C550.018 191.122 549.819 190.272 549.819 189.309C549.819 188.346 550.012 187.501 550.397 186.776C550.794 186.039 551.344 185.473 552.046 185.076C552.76 184.679 553.576 184.481 554.494 184.481C555.378 184.481 556.166 184.674 556.857 185.059C557.549 185.444 558.087 185.988 558.472 186.691C558.858 187.382 559.05 188.181 559.05 189.088ZM557.027 188.476C557.016 187.762 556.761 187.19 556.262 186.759C555.764 186.328 555.146 186.113 554.409 186.113C553.741 186.113 553.168 186.328 552.692 186.759C552.216 187.178 551.933 187.751 551.842 188.476H557.027ZM572.297 184.481C573.033 184.481 573.691 184.634 574.269 184.94C574.858 185.246 575.317 185.699 575.646 186.3C575.986 186.901 576.156 187.626 576.156 188.476V194.001H574.235V188.765C574.235 187.926 574.025 187.286 573.606 186.844C573.186 186.391 572.614 186.164 571.889 186.164C571.163 186.164 570.585 186.391 570.155 186.844C569.735 187.286 569.526 187.926 569.526 188.765V194.001H567.605V188.765C567.605 187.926 567.395 187.286 566.976 186.844C566.556 186.391 565.984 186.164 565.259 186.164C564.533 186.164 563.955 186.391 563.525 186.844C563.105 187.286 562.896 187.926 562.896 188.765V194.001H560.958V184.634H562.896V185.705C563.213 185.32 563.615 185.019 564.103 184.804C564.59 184.589 565.111 184.481 565.667 184.481C566.415 184.481 567.083 184.64 567.673 184.957C568.262 185.274 568.715 185.733 569.033 186.334C569.316 185.767 569.758 185.32 570.359 184.991C570.959 184.651 571.605 184.481 572.297 184.481ZM591.623 189.088C591.623 189.439 591.6 189.757 591.555 190.04H584.398C584.454 190.788 584.732 191.389 585.231 191.842C585.729 192.295 586.341 192.522 587.067 192.522C588.109 192.522 588.846 192.086 589.277 191.213H591.368C591.084 192.074 590.569 192.783 589.821 193.338C589.084 193.882 588.166 194.154 587.067 194.154C586.171 194.154 585.367 193.956 584.653 193.559C583.95 193.151 583.395 192.584 582.987 191.859C582.59 191.122 582.392 190.272 582.392 189.309C582.392 188.346 582.584 187.501 582.97 186.776C583.366 186.039 583.916 185.473 584.619 185.076C585.333 184.679 586.149 184.481 587.067 184.481C587.951 184.481 588.738 184.674 589.43 185.059C590.121 185.444 590.659 185.988 591.045 186.691C591.43 187.382 591.623 188.181 591.623 189.088ZM589.6 188.476C589.588 187.762 589.333 187.19 588.835 186.759C588.336 186.328 587.718 186.113 586.982 186.113C586.313 186.113 585.741 186.328 585.265 186.759C584.789 187.178 584.505 187.751 584.415 188.476H589.6ZM214.536 212.215V217.4C214.536 217.751 214.615 218.006 214.774 218.165C214.944 218.312 215.227 218.386 215.624 218.386H216.814V220.001H215.284C214.411 220.001 213.743 219.797 213.278 219.389C212.813 218.981 212.581 218.318 212.581 217.4V212.215H211.476V210.634H212.581V208.305H214.536V210.634H216.814V212.215H214.536ZM220.538 211.994C220.822 211.518 221.196 211.15 221.66 210.889C222.136 210.617 222.697 210.481 223.343 210.481V212.487H222.85C222.091 212.487 221.513 212.68 221.116 213.065C220.731 213.45 220.538 214.119 220.538 215.071V220.001H218.6V210.634H220.538V211.994ZM224.479 215.275C224.479 214.334 224.671 213.501 225.057 212.776C225.453 212.051 225.986 211.49 226.655 211.093C227.335 210.685 228.083 210.481 228.899 210.481C229.635 210.481 230.276 210.628 230.82 210.923C231.375 211.206 231.817 211.563 232.146 211.994V210.634H234.101V220.001H232.146V218.607C231.817 219.049 231.369 219.417 230.803 219.712C230.236 220.007 229.59 220.154 228.865 220.154C228.06 220.154 227.323 219.95 226.655 219.542C225.986 219.123 225.453 218.545 225.057 217.808C224.671 217.06 224.479 216.216 224.479 215.275ZM232.146 215.309C232.146 214.663 232.01 214.102 231.738 213.626C231.477 213.15 231.131 212.787 230.701 212.538C230.27 212.289 229.805 212.164 229.307 212.164C228.808 212.164 228.343 212.289 227.913 212.538C227.482 212.776 227.131 213.133 226.859 213.609C226.598 214.074 226.468 214.629 226.468 215.275C226.468 215.921 226.598 216.488 226.859 216.975C227.131 217.462 227.482 217.836 227.913 218.097C228.355 218.346 228.819 218.471 229.307 218.471C229.805 218.471 230.27 218.346 230.701 218.097C231.131 217.848 231.477 217.485 231.738 217.009C232.01 216.522 232.146 215.955 232.146 215.309ZM241.372 210.481C242.109 210.481 242.766 210.634 243.344 210.94C243.933 211.246 244.392 211.699 244.721 212.3C245.05 212.901 245.214 213.626 245.214 214.476V220.001H243.293V214.765C243.293 213.926 243.083 213.286 242.664 212.844C242.245 212.391 241.672 212.164 240.947 212.164C240.222 212.164 239.644 212.391 239.213 212.844C238.794 213.286 238.584 213.926 238.584 214.765V220.001H236.646V210.634H238.584V211.705C238.901 211.32 239.304 211.019 239.791 210.804C240.29 210.589 240.817 210.481 241.372 210.481ZM251.086 220.154C250.349 220.154 249.686 220.024 249.097 219.763C248.519 219.491 248.06 219.128 247.72 218.675C247.38 218.21 247.199 217.695 247.176 217.128H249.182C249.216 217.525 249.403 217.859 249.743 218.131C250.094 218.392 250.531 218.522 251.052 218.522C251.596 218.522 252.015 218.42 252.31 218.216C252.616 218.001 252.769 217.729 252.769 217.4C252.769 217.049 252.599 216.788 252.259 216.618C251.93 216.448 251.403 216.261 250.678 216.057C249.975 215.864 249.403 215.677 248.961 215.496C248.519 215.315 248.134 215.037 247.805 214.663C247.488 214.289 247.329 213.796 247.329 213.184C247.329 212.685 247.476 212.232 247.771 211.824C248.066 211.405 248.485 211.076 249.029 210.838C249.584 210.6 250.219 210.481 250.933 210.481C251.998 210.481 252.854 210.753 253.5 211.297C254.157 211.83 254.509 212.561 254.554 213.49H252.616C252.582 213.071 252.412 212.736 252.106 212.487C251.8 212.238 251.386 212.113 250.865 212.113C250.355 212.113 249.964 212.209 249.692 212.402C249.42 212.595 249.284 212.85 249.284 213.167C249.284 213.416 249.375 213.626 249.556 213.796C249.737 213.966 249.958 214.102 250.219 214.204C250.48 214.295 250.865 214.414 251.375 214.561C252.055 214.742 252.61 214.929 253.041 215.122C253.483 215.303 253.863 215.575 254.18 215.938C254.497 216.301 254.662 216.782 254.673 217.383C254.673 217.916 254.526 218.392 254.231 218.811C253.936 219.23 253.517 219.559 252.973 219.797C252.44 220.035 251.811 220.154 251.086 220.154ZM260.694 212.215H258.96V220.001H257.005V212.215H255.9V210.634H257.005V209.971C257.005 208.894 257.289 208.112 257.855 207.625C258.433 207.126 259.334 206.877 260.558 206.877V208.492C259.969 208.492 259.555 208.605 259.317 208.832C259.079 209.047 258.96 209.427 258.96 209.971V210.634H260.694V212.215ZM266.475 220.154C265.591 220.154 264.792 219.956 264.078 219.559C263.364 219.151 262.803 218.584 262.395 217.859C261.987 217.122 261.783 216.272 261.783 215.309C261.783 214.357 261.992 213.513 262.412 212.776C262.831 212.039 263.403 211.473 264.129 211.076C264.854 210.679 265.664 210.481 266.56 210.481C267.455 210.481 268.265 210.679 268.991 211.076C269.716 211.473 270.288 212.039 270.708 212.776C271.127 213.513 271.337 214.357 271.337 215.309C271.337 216.261 271.121 217.105 270.691 217.842C270.26 218.579 269.671 219.151 268.923 219.559C268.186 219.956 267.37 220.154 266.475 220.154ZM266.475 218.471C266.973 218.471 267.438 218.352 267.869 218.114C268.311 217.876 268.668 217.519 268.94 217.043C269.212 216.567 269.348 215.989 269.348 215.309C269.348 214.629 269.217 214.057 268.957 213.592C268.696 213.116 268.35 212.759 267.92 212.521C267.489 212.283 267.024 212.164 266.526 212.164C266.027 212.164 265.562 212.283 265.132 212.521C264.712 212.759 264.378 213.116 264.129 213.592C263.879 214.057 263.755 214.629 263.755 215.309C263.755 216.318 264.01 217.1 264.52 217.655C265.041 218.199 265.693 218.471 266.475 218.471ZM275.191 211.994C275.474 211.518 275.848 211.15 276.313 210.889C276.789 210.617 277.35 210.481 277.996 210.481V212.487H277.503C276.743 212.487 276.165 212.68 275.769 213.065C275.383 213.45 275.191 214.119 275.191 215.071V220.001H273.253V210.634H275.191V211.994ZM291.116 210.481C291.853 210.481 292.51 210.634 293.088 210.94C293.677 211.246 294.136 211.699 294.465 212.3C294.805 212.901 294.975 213.626 294.975 214.476V220.001H293.054V214.765C293.054 213.926 292.844 213.286 292.425 212.844C292.006 212.391 291.433 212.164 290.708 212.164C289.983 212.164 289.405 212.391 288.974 212.844C288.555 213.286 288.345 213.926 288.345 214.765V220.001H286.424V214.765C286.424 213.926 286.214 213.286 285.795 212.844C285.376 212.391 284.803 212.164 284.078 212.164C283.353 212.164 282.775 212.391 282.344 212.844C281.925 213.286 281.715 213.926 281.715 214.765V220.001H279.777V210.634H281.715V211.705C282.032 211.32 282.435 211.019 282.922 210.804C283.409 210.589 283.931 210.481 284.486 210.481C285.234 210.481 285.903 210.64 286.492 210.957C287.081 211.274 287.535 211.733 287.852 212.334C288.135 211.767 288.577 211.32 289.178 210.991C289.779 210.651 290.425 210.481 291.116 210.481ZM296.795 215.275C296.795 214.334 296.988 213.501 297.373 212.776C297.77 212.051 298.302 211.49 298.971 211.093C299.651 210.685 300.399 210.481 301.215 210.481C301.952 210.481 302.592 210.628 303.136 210.923C303.691 211.206 304.133 211.563 304.462 211.994V210.634H306.417V220.001H304.462V218.607C304.133 219.049 303.686 219.417 303.119 219.712C302.552 220.007 301.906 220.154 301.181 220.154C300.376 220.154 299.64 219.95 298.971 219.542C298.302 219.123 297.77 218.545 297.373 217.808C296.988 217.06 296.795 216.216 296.795 215.275ZM304.462 215.309C304.462 214.663 304.326 214.102 304.054 213.626C303.793 213.15 303.448 212.787 303.017 212.538C302.586 212.289 302.122 212.164 301.623 212.164C301.124 212.164 300.66 212.289 300.229 212.538C299.798 212.776 299.447 213.133 299.175 213.609C298.914 214.074 298.784 214.629 298.784 215.275C298.784 215.921 298.914 216.488 299.175 216.975C299.447 217.462 299.798 217.836 300.229 218.097C300.671 218.346 301.136 218.471 301.623 218.471C302.122 218.471 302.586 218.346 303.017 218.097C303.448 217.848 303.793 217.485 304.054 217.009C304.326 216.522 304.462 215.955 304.462 215.309ZM320.302 210.481C321.038 210.481 321.696 210.634 322.274 210.94C322.863 211.246 323.322 211.699 323.651 212.3C323.991 212.901 324.161 213.626 324.161 214.476V220.001H322.24V214.765C322.24 213.926 322.03 213.286 321.611 212.844C321.191 212.391 320.619 212.164 319.894 212.164C319.168 212.164 318.59 212.391 318.16 212.844C317.74 213.286 317.531 213.926 317.531 214.765V220.001H315.61V214.765C315.61 213.926 315.4 213.286 314.981 212.844C314.561 212.391 313.989 212.164 313.264 212.164C312.538 212.164 311.96 212.391 311.53 212.844C311.11 213.286 310.901 213.926 310.901 214.765V220.001H308.963V210.634H310.901V211.705C311.218 211.32 311.62 211.019 312.108 210.804C312.595 210.589 313.116 210.481 313.672 210.481C314.42 210.481 315.088 210.64 315.678 210.957C316.267 211.274 316.72 211.733 317.038 212.334C317.321 211.767 317.763 211.32 318.364 210.991C318.964 210.651 319.61 210.481 320.302 210.481ZM335.106 220.154C334.222 220.154 333.423 219.956 332.709 219.559C331.995 219.151 331.434 218.584 331.026 217.859C330.618 217.122 330.414 216.272 330.414 215.309C330.414 214.357 330.623 213.513 331.043 212.776C331.462 212.039 332.034 211.473 332.76 211.076C333.485 210.679 334.295 210.481 335.191 210.481C336.086 210.481 336.896 210.679 337.622 211.076C338.347 211.473 338.919 212.039 339.339 212.776C339.758 213.513 339.968 214.357 339.968 215.309C339.968 216.261 339.752 217.105 339.322 217.842C338.891 218.579 338.302 219.151 337.554 219.559C336.817 219.956 336.001 220.154 335.106 220.154ZM335.106 218.471C335.604 218.471 336.069 218.352 336.5 218.114C336.942 217.876 337.299 217.519 337.571 217.043C337.843 216.567 337.979 215.989 337.979 215.309C337.979 214.629 337.848 214.057 337.588 213.592C337.327 213.116 336.981 212.759 336.551 212.521C336.12 212.283 335.655 212.164 335.157 212.164C334.658 212.164 334.193 212.283 333.763 212.521C333.343 212.759 333.009 213.116 332.76 213.592C332.51 214.057 332.386 214.629 332.386 215.309C332.386 216.318 332.641 217.1 333.151 217.655C333.672 218.199 334.324 218.471 335.106 218.471ZM357.638 210.481C358.375 210.481 359.032 210.634 359.61 210.94C360.2 211.246 360.659 211.699 360.987 212.3C361.327 212.901 361.497 213.626 361.497 214.476V220.001H359.576V214.765C359.576 213.926 359.367 213.286 358.947 212.844C358.528 212.391 357.956 212.164 357.23 212.164C356.505 212.164 355.927 212.391 355.496 212.844C355.077 213.286 354.867 213.926 354.867 214.765V220.001H352.946V214.765C352.946 213.926 352.737 213.286 352.317 212.844C351.898 212.391 351.326 212.164 350.6 212.164C349.875 212.164 349.297 212.391 348.866 212.844C348.447 213.286 348.237 213.926 348.237 214.765V220.001H346.299V210.634H348.237V211.705C348.555 211.32 348.957 211.019 349.444 210.804C349.932 210.589 350.453 210.481 351.008 210.481C351.756 210.481 352.425 210.64 353.014 210.957C353.604 211.274 354.057 211.733 354.374 212.334C354.658 211.767 355.1 211.32 355.7 210.991C356.301 210.651 356.947 210.481 357.638 210.481ZM372.446 210.634V220.001H370.508V218.896C370.202 219.281 369.8 219.587 369.301 219.814C368.814 220.029 368.293 220.137 367.737 220.137C367.001 220.137 366.338 219.984 365.748 219.678C365.17 219.372 364.711 218.919 364.371 218.318C364.043 217.717 363.878 216.992 363.878 216.142V210.634H365.799V215.853C365.799 216.692 366.009 217.338 366.428 217.791C366.848 218.233 367.42 218.454 368.145 218.454C368.871 218.454 369.443 218.233 369.862 217.791C370.293 217.338 370.508 216.692 370.508 215.853V210.634H372.446ZM379.73 210.481C380.466 210.481 381.124 210.634 381.702 210.94C382.291 211.246 382.75 211.699 383.079 212.3C383.407 212.901 383.572 213.626 383.572 214.476V220.001H381.651V214.765C381.651 213.926 381.441 213.286 381.022 212.844C380.602 212.391 380.03 212.164 379.305 212.164C378.579 212.164 378.001 212.391 377.571 212.844C377.151 213.286 376.942 213.926 376.942 214.765V220.001H375.004V210.634H376.942V211.705C377.259 211.32 377.661 211.019 378.149 210.804C378.647 210.589 379.174 210.481 379.73 210.481ZM385.398 215.275C385.398 214.334 385.59 213.501 385.976 212.776C386.372 212.051 386.905 211.49 387.574 211.093C388.254 210.685 389.007 210.481 389.835 210.481C390.447 210.481 391.047 210.617 391.637 210.889C392.237 211.15 392.713 211.501 393.065 211.943V207.421H395.02V220.001H393.065V218.59C392.747 219.043 392.305 219.417 391.739 219.712C391.183 220.007 390.543 220.154 389.818 220.154C389.002 220.154 388.254 219.95 387.574 219.542C386.905 219.123 386.372 218.545 385.976 217.808C385.59 217.06 385.398 216.216 385.398 215.275ZM393.065 215.309C393.065 214.663 392.929 214.102 392.657 213.626C392.396 213.15 392.05 212.787 391.62 212.538C391.189 212.289 390.724 212.164 390.226 212.164C389.727 212.164 389.262 212.289 388.832 212.538C388.401 212.776 388.05 213.133 387.778 213.609C387.517 214.074 387.387 214.629 387.387 215.275C387.387 215.921 387.517 216.488 387.778 216.975C388.05 217.462 388.401 217.836 388.832 218.097C389.274 218.346 389.738 218.471 390.226 218.471C390.724 218.471 391.189 218.346 391.62 218.097C392.05 217.848 392.396 217.485 392.657 217.009C392.929 216.522 393.065 215.955 393.065 215.309ZM401.628 220.154C400.744 220.154 399.945 219.956 399.231 219.559C398.517 219.151 397.956 218.584 397.548 217.859C397.14 217.122 396.936 216.272 396.936 215.309C396.936 214.357 397.146 213.513 397.565 212.776C397.984 212.039 398.557 211.473 399.282 211.076C400.007 210.679 400.818 210.481 401.713 210.481C402.608 210.481 403.419 210.679 404.144 211.076C404.869 211.473 405.442 212.039 405.861 212.776C406.28 213.513 406.49 214.357 406.49 215.309C406.49 216.261 406.275 217.105 405.844 217.842C405.413 218.579 404.824 219.151 404.076 219.559C403.339 219.956 402.523 220.154 401.628 220.154ZM401.628 218.471C402.127 218.471 402.591 218.352 403.022 218.114C403.464 217.876 403.821 217.519 404.093 217.043C404.365 216.567 404.501 215.989 404.501 215.309C404.501 214.629 404.371 214.057 404.11 213.592C403.849 213.116 403.504 212.759 403.073 212.521C402.642 212.283 402.178 212.164 401.679 212.164C401.18 212.164 400.716 212.283 400.285 212.521C399.866 212.759 399.531 213.116 399.282 213.592C399.033 214.057 398.908 214.629 398.908 215.309C398.908 216.318 399.163 217.1 399.673 217.655C400.194 218.199 400.846 218.471 401.628 218.471ZM409.188 220.12C408.837 220.12 408.542 220.001 408.304 219.763C408.066 219.525 407.947 219.23 407.947 218.879C407.947 218.528 408.066 218.233 408.304 217.995C408.542 217.757 408.837 217.638 409.188 217.638C409.528 217.638 409.817 217.757 410.055 217.995C410.293 218.233 410.412 218.528 410.412 218.879C410.412 219.23 410.293 219.525 410.055 219.763C409.817 220.001 409.528 220.12 409.188 220.12Z" fill="#6513A9"/>
<defs>
<clipPath id="clip0_1105_1071">
<rect width="73.0269" height="76.3762" fill="white" transform="translate(58.2173 73.5439) rotate(-9.09)"/>
</clipPath>
</defs>
</svg>
