<svg width="130" height="130" viewBox="0 0 130 130" fill="none" xmlns="http://www.w3.org/2000/svg">
<g clip-path="url(#clip0_772_1222)">
<path d="M56.8503 46.4423C79.4512 40.7281 104.464 22.8307 113.453 14.0977C113.453 54.5285 103.208 77.3638 97.2811 84.1777C70.3273 115.175 40.8532 100.781 35.2873 89.5685C22.2012 63.2157 40.8667 50.4854 56.8503 46.4423Z" fill="#499136" stroke="#499136" stroke-width="4" stroke-linecap="round" stroke-linejoin="round"/>
<path d="M16.4194 116.522C17.5299 111.131 22.856 98.7326 35.2871 92.2637" stroke="#499136" stroke-width="4" stroke-linecap="round" stroke-linejoin="round"/>
<path d="M52.5378 44.286C75.1387 38.5718 100.152 20.6745 109.141 11.9414C109.141 52.3722 98.8958 75.2075 92.9686 82.0214C66.0148 113.018 36.5407 98.625 30.9748 87.4122C17.8887 61.0594 36.5542 48.3291 52.5378 44.286Z" fill="#80CF60" stroke="#80CF60" stroke-width="4" stroke-linecap="round" stroke-linejoin="round"/>
<path d="M12.1069 114.366C13.2174 108.975 18.5435 96.5763 30.9746 90.1074" stroke="#80CF60" stroke-width="4" stroke-linecap="round" stroke-linejoin="round"/>
</g>
<defs>
<clipPath id="clip0_772_1222">
<rect width="129.379" height="129.379" fill="white" transform="translate(0.24707 0.621094)"/>
</clipPath>
</defs>
</svg>
