<svg width="45" height="46" viewBox="0 0 45 46" fill="none" xmlns="http://www.w3.org/2000/svg">
<path d="M44.5624 18.5934H42.75V18.5H22.5V27.5H35.2159C33.3608 32.7391 28.3759 36.5 22.5 36.5C15.0446 36.5 9 30.4554 9 23C9 15.5446 15.0446 9.5 22.5 9.5C25.9414 9.5 29.0723 10.7982 31.4561 12.9189L37.8203 6.55475C33.8018 2.80962 28.4265 0.5 22.5 0.5C10.0744 0.5 0 10.5744 0 23C0 35.4256 10.0744 45.5 22.5 45.5C34.9256 45.5 45 35.4256 45 23C45 21.4914 44.8447 20.0187 44.5624 18.5934Z" fill="#FFC107"/>
<path d="M2.59375 12.5274L9.98612 17.9488C11.9864 12.9965 16.8306 9.5 22.4995 9.5C25.9409 9.5 29.0717 10.7983 31.4556 12.9189L37.8197 6.55475C33.8012 2.80963 28.426 0.5 22.4995 0.5C13.8572 0.5 6.3625 5.37913 2.59375 12.5274Z" fill="#FF3D00"/>
<path d="M22.5013 45.4978C28.3131 45.4978 33.5938 43.2737 37.5865 39.6568L30.6227 33.7641C28.2878 35.5398 25.4347 36.5002 22.5013 36.4978C16.6491 36.4978 11.68 32.7662 9.80795 27.5586L2.4707 33.2117C6.19445 40.4983 13.7567 45.4978 22.5013 45.4978Z" fill="#4CAF50"/>
<path d="M44.5624 18.5904H42.75V18.4971H22.5V27.4971H35.2159C34.3285 29.9905 32.73 32.1694 30.618 33.7644L30.6214 33.7622L37.5851 39.6549C37.0924 40.1027 45 34.2471 45 22.9971C45 21.4884 44.8447 20.0158 44.5624 18.5904Z" fill="#1976D2"/>
</svg>
