<svg width="129" height="129" viewBox="0 0 129 129" fill="none" xmlns="http://www.w3.org/2000/svg">
<g clip-path="url(#clip0_672_1359)">
<path d="M84.9805 78.1799C92.0353 67.5913 100.887 64.8994 104.716 67.4499L109.75 70.8039C109.893 65.0461 109.36 61.2584 100.031 55.0427L61.7191 29.5168C47.4248 19.993 32.5234 29.0847 25.9965 38.881C19.4696 48.6772 16.8182 65.9307 31.1125 75.4545L69.4245 100.98C78.7575 107.199 82.4546 106.229 87.7128 103.879L82.6788 100.525C78.8507 97.9745 77.9257 88.7685 84.9805 78.1799ZM69.9897 78.1139C68.7243 78.6526 67.3611 76.451 67.3611 76.451L59.4539 63.7869C59.4539 63.7869 56.7344 65.6784 54.756 66.9637C52.7699 68.2439 50.8133 69.8864 49.0871 65.442C47.3623 60.9874 43.6678 43.867 43.6678 43.867C43.6678 43.867 43.0715 41.8999 44.4109 41.3165C45.6777 40.7675 47.0396 42.9794 47.0396 42.9794L54.948 55.6332C54.948 55.6332 57.6662 53.7519 59.6447 52.4666C61.6282 51.1903 63.5925 49.5363 65.3135 53.9884C67.0435 58.4354 70.729 75.5608 70.729 75.5608C70.729 75.5608 71.3279 77.5241 69.9897 78.1139ZM103.534 79.0882L100.666 77.1778C98.5264 75.7521 94.5131 77.2459 91.3887 81.9354C88.2591 86.6325 88.4326 90.9102 90.5687 92.3335L93.436 94.2438C95.5797 95.6721 99.6696 94.2293 102.797 89.536C105.921 84.8465 105.677 80.5165 103.534 79.0882Z" fill="#F89701"/>
</g>
<defs>
<clipPath id="clip0_672_1359">
<rect width="92" height="92" fill="white" transform="translate(51.502 0.599609) rotate(33.6741)"/>
</clipPath>
</defs>
</svg>
