<svg width="105" height="105" viewBox="0 0 105 105" fill="none" xmlns="http://www.w3.org/2000/svg">
<g clip-path="url(#clip0_672_1321)">
<path d="M85.2625 51.425L83.6875 47.3125L91.825 44.25C87.8 34.975 80.625 27.5375 71.6125 22.9875L68.1125 30.775L64.0875 28.9375L67.5875 21.0625C62.6875 19.1375 57.35 18 51.75 18C47.1125 18 42.65 18.9625 38.45 20.1875L41.425 28.2375L37.3125 29.8125L34.25 21.675C24.975 25.7 17.5375 32.875 12.9875 41.8875L20.775 45.3875L18.9375 49.4125L11.0625 45.9125C9.1375 50.8125 8 56.15 8 61.75C8 66.3875 8.9625 70.85 10.1875 75.05L18.2375 72.075L19.8125 76.1875L11.675 79.25C15.7 88.525 22.875 95.9625 31.8875 100.513L35.3875 92.725L39.4125 94.5625L35.9125 102.438C40.8125 104.362 46.15 105.5 51.75 105.5C56.3875 105.5 60.85 104.537 65.05 103.312L62.075 95.2625L66.1875 93.6875L69.25 101.825C78.525 97.8 85.9625 90.625 90.5125 81.6125L82.725 78.1125L84.5625 74.0875L92.4375 77.5875C94.3625 72.6875 95.5 67.35 95.5 61.75C95.5 57.1125 94.5375 52.65 93.3125 48.45L85.2625 51.425ZM61.8125 85.9875C48.425 91.5 33.025 85.2 27.5125 71.8125C22 58.425 28.3 43.025 41.6875 37.5125C55.075 32 70.475 38.3 75.9875 51.6875C77.3163 54.8695 78.0037 58.2826 78.0101 61.731C78.0164 65.1793 77.3418 68.595 76.0247 71.7819C74.7077 74.9688 72.7742 77.8643 70.3353 80.302C67.8964 82.7398 65 84.6719 61.8125 85.9875Z" fill="#0076AC"/>
</g>
<defs>
<clipPath id="clip0_672_1321">
<rect width="105" height="105" fill="white"/>
</clipPath>
</defs>
</svg>
