<svg width="111" height="84" viewBox="0 0 111 84" fill="none" xmlns="http://www.w3.org/2000/svg">
<path d="M19.7901 4.49265C18.6285 4.26733 17.4255 4.51538 16.4458 5.18224C15.466 5.8491 14.7898 6.88014 14.5658 8.04855L4.43044 60.9143C4.20644 62.0827 4.45304 63.2928 5.116 64.2783C5.77896 65.2638 6.80397 65.9441 7.96554 66.1694L21.1047 68.7181L22.7939 59.9072L31.5533 61.6063L29.8641 70.4173L38.6235 72.1165L40.3127 63.3055L49.0721 65.0047L47.3829 73.8156L56.1423 75.5148L57.8315 66.7038L66.5909 68.403L64.9017 77.2139L73.6611 78.9131L75.3503 70.1021L84.1098 71.8013L82.4205 80.6123L95.5597 83.161C96.7212 83.3863 97.9242 83.1383 98.904 82.4714C99.8837 81.8046 100.56 80.7735 100.784 79.6051L110.919 26.7393C111.143 25.5709 110.897 24.3608 110.234 23.3753C109.571 22.3898 108.546 21.7096 107.384 21.4843L19.7901 4.49265ZM29.5508 24.6633L55.829 29.7608L53.2952 42.9772L27.0169 37.8798L29.5508 24.6633ZM64.5884 31.46L90.8666 36.5574L88.3328 49.7739L62.0546 44.6764L64.5884 31.46Z" fill="#7B2BBE"/>
<path d="M15.4403 0.323377C14.2788 0.0980545 13.0758 0.346109 12.096 1.01297C11.1163 1.67983 10.44 2.71087 10.216 3.87928L0.0807149 56.7451C-0.143289 57.9135 0.103312 59.1235 0.766271 60.109C1.42923 61.0946 2.45424 61.7748 3.61581 62.0001L16.7549 64.5489L18.4441 55.7379L27.2036 57.4371L25.5143 66.248L34.2738 67.9472L35.963 59.1362L44.7224 60.8354L43.0332 69.6463L51.7926 71.3455L53.4818 62.5345L62.2412 64.2337L60.552 73.0447L69.3114 74.7438L71.0006 65.9329L79.76 67.632L78.0708 76.443L91.2099 78.9917C92.3715 79.217 93.5745 78.969 94.5542 78.3021C95.534 77.6353 96.2102 76.6042 96.4342 75.4358L106.57 22.57C106.794 21.4016 106.547 20.1916 105.884 19.2061C105.221 18.2205 104.196 17.5403 103.034 17.315L15.4403 0.323377ZM25.201 20.494L51.4793 25.5915L48.9454 38.808L22.6672 33.7105L25.201 20.494ZM60.2387 27.2907L86.5169 32.3882L83.9831 45.6046L57.7048 40.5071L60.2387 27.2907Z" fill="#C67DFF"/>
</svg>
