<svg width="100" height="100" viewBox="0 0 100 100" fill="none" xmlns="http://www.w3.org/2000/svg">
<path d="M69.6062 24.25L72.8562 22.375C74.1687 21.625 75.7625 22.75 75.45 24.1875L71.1687 44.1562C70.95 45.1562 69.9187 45.75 68.95 45.4375L49.4812 39.2812C49.1603 39.1798 48.8758 38.9872 48.6625 38.7269C48.4491 38.4666 48.3161 38.1499 48.2797 37.8153C48.2432 37.4807 48.3049 37.1427 48.4573 36.8426C48.6096 36.5425 48.8459 36.2931 49.1375 36.125L53.0438 33.8438L49.7187 28.1219L41.1031 41.7812C40.0719 43.4062 37.9469 43.9062 36.3219 42.875L25.9469 36.3438C24.3219 35.3125 23.8219 33.1875 24.8531 31.5625L36.5031 13.0906C36.5237 13.0571 36.5446 13.0238 36.5656 12.9906L36.6969 12.7813L36.7344 12.75C37.5 11.7048 38.5009 10.8546 39.6563 10.2682C40.8116 9.68188 42.0888 9.37588 43.3844 9.375H56.2281C59.1656 9.375 61.9156 10.9375 63.3844 13.5L69.6062 24.25ZM31.325 43.3438L36.5125 63.0938C36.8875 64.5312 35.3563 65.7812 34.0438 65.0625L30.0438 62.9688L26.9719 68.8125H42.9812C44.8875 68.8125 46.45 70.375 46.45 72.2812V84.5625C46.45 86.4688 44.8875 88.0312 42.9812 88.0312H20.9969C21.1344 88.0531 21.275 88.0625 21.4156 88.0625C18.5719 88.0625 15.9156 86.625 14.4156 84.2188L7.54063 73.3437C5.94688 70.8437 5.82188 67.7188 7.19688 65.0938L12.9469 54.0938L9.63438 52.3438C9.33956 52.1824 9.09713 51.9399 8.93578 51.6451C8.77444 51.3502 8.70092 51.0153 8.72393 50.68C8.74694 50.3447 8.86552 50.023 9.06563 49.753C9.26575 49.4829 9.53902 49.2758 9.85313 49.1562L29.0406 42.1562C30.0094 41.8125 31.0719 42.3438 31.3219 43.3438M73.2 68.5344L65.7625 54.2219C64.8562 52.5031 65.5437 50.4094 67.2312 49.5344L78.1375 43.8781C79.8562 42.9719 81.95 43.6594 82.825 45.3469L93.0437 65.0656L93.0531 65.1469C94.0875 67.5531 93.9375 70.3031 92.6062 72.5625L86.1062 83.6562C85.3698 84.9066 84.3188 85.9424 83.0578 86.6606C81.7969 87.3788 80.3699 87.7544 78.9187 87.75L66.4812 87.6875V91.4375C66.4812 92.9688 64.7 93.75 63.575 92.7188L48.5125 78.9375C48.3352 78.7745 48.1937 78.5764 48.0969 78.3559C48.0001 78.1353 47.9501 77.8971 47.9501 77.6562C47.9501 77.4154 48.0001 77.1772 48.0969 76.9566C48.1937 76.7361 48.3352 76.538 48.5125 76.375L63.6687 62.6875C64.7937 61.6562 66.575 62.4687 66.575 63.9687L66.5437 68.5L73.2 68.5344Z" fill="#499136"/>
</svg>
