<svg width="90" height="72" viewBox="0 0 90 72" fill="none" xmlns="http://www.w3.org/2000/svg">
<path d="M4.5 0H27C28.1935 0 29.3381 0.474106 30.182 1.31802C31.0259 2.16193 31.5 3.30653 31.5 4.5V67.5C31.5 68.6935 31.0259 69.8381 30.182 70.682C29.3381 71.5259 28.1935 72 27 72H4.5C3.30653 72 2.16193 71.5259 1.31802 70.682C0.474106 69.8381 0 68.6935 0 67.5V4.5C0 3.30653 0.474106 2.16193 1.31802 1.31802C2.16193 0.474106 3.30653 0 4.5 0ZM4.5 49.5V58.5H13.5V49.5H4.5ZM45 13.5H81C83.3869 13.5 85.6761 14.4482 87.364 16.136C89.0518 17.8239 90 20.1131 90 22.5V49.5C90 51.8869 89.0518 54.1761 87.364 55.864C85.6761 57.5518 83.3869 58.5 81 58.5H45C42.6131 58.5 40.3239 57.5518 38.636 55.864C36.9482 54.1761 36 51.8869 36 49.5V22.5C36 20.1131 36.9482 17.8239 38.636 16.136C40.3239 14.4482 42.6131 13.5 45 13.5ZM54 63H72C73.1935 63 74.3381 63.4741 75.182 64.318C76.0259 65.1619 76.5 66.3065 76.5 67.5C76.5 68.6935 76.0259 69.8381 75.182 70.682C74.3381 71.5259 73.1935 72 72 72H54C52.8065 72 51.6619 71.5259 50.818 70.682C49.9741 69.8381 49.5 68.6935 49.5 67.5C49.5 66.3065 49.9741 65.1619 50.818 64.318C51.6619 63.4741 52.8065 63 54 63Z" fill="#6B0015"/>
</svg>
