<svg width="482" height="448" viewBox="0 0 482 448" fill="none" xmlns="http://www.w3.org/2000/svg">
<circle cx="223.901" cy="223.901" r="223.901" fill="#C6F0AC"/>
<g clip-path="url(#clip0_1775_1541)">
<path fill-rule="evenodd" clip-rule="evenodd" d="M45.1361 189.182C44.5998 187.71 42.5186 187.71 41.9823 189.182L39.5486 195.873L32.8582 198.307C31.3858 198.843 31.3858 200.924 32.8582 201.46L39.5486 203.894L41.9823 210.584C42.5186 212.057 44.5998 212.057 45.1361 210.584L47.5698 203.894L54.2602 201.46C55.7326 200.924 55.7326 198.843 54.2602 198.307L47.5698 195.873L45.1361 189.182Z" fill="#FEE333"/>
</g>
<g clip-path="url(#clip1_1775_1541)">
<path fill-rule="evenodd" clip-rule="evenodd" d="M430.247 296.656C429.711 295.184 427.629 295.184 427.093 296.656L424.659 303.346L417.969 305.78C416.497 306.316 416.497 308.398 417.969 308.934L424.659 311.368L427.093 318.058C427.629 319.53 429.711 319.53 430.247 318.058L432.681 311.368L439.371 308.934C440.843 308.398 440.843 306.316 439.371 305.78L432.681 303.346L430.247 296.656Z" fill="#FEE333"/>
</g>
<g clip-path="url(#clip2_1775_1541)">
<path d="M158.337 323.394C159.048 323.757 159.521 324.454 159.521 325.215V361.584C159.521 366.027 163.355 369.629 168.085 369.629L183.092 369.629C190.05 369.629 196.984 366.592 199.415 360.467C201.152 356.093 202.031 351.408 202.601 345.667C202.721 344.466 203.914 343.614 205.173 343.85L213.475 333.085L158.337 323.394Z" fill="#61D243"/>
<path d="M170.358 362.803C170.358 361.326 169.082 360.127 167.51 360.127C165.936 360.127 164.661 361.326 164.661 362.803V368.96C166.431 369.656 167.71 369.738 170.358 369.635V362.803Z" fill="#499136"/>
<path d="M181.752 362.803C181.752 361.326 180.477 360.127 178.904 360.127C177.33 360.127 176.055 361.326 176.055 362.803V369.645H181.752V362.803Z" fill="#499136"/>
<path d="M193.053 367.277V362.461C192.334 360.89 191.716 360.451 190.205 360.32C176.377 358.026 170.022 354.644 159.439 347.477V326.07C159.166 324.671 158.79 324.087 157.73 323.394L215.304 333.166C214.743 333.396 204.771 344.724 204.449 345.336C203.656 350.476 202.897 353.263 201.03 358.18C198.867 363.259 197.068 365.467 193.053 367.277Z" fill="#5EBE45"/>
<path d="M193.147 362.803C193.147 361.326 191.871 360.127 190.298 360.127C188.725 360.127 187.45 361.326 187.45 362.803V369.227C189.726 368.747 190.985 368.303 193.147 367.253V362.803Z" fill="#499136"/>
<path d="M296.818 312.016C296.392 312.691 296.342 313.532 296.73 314.186L315.293 345.459C317.561 349.28 316.102 354.335 312.034 356.75L299.13 364.41C293.146 367.962 285.633 368.89 280.416 364.865C276.69 361.99 273.543 358.41 270.122 353.764C269.407 352.792 267.945 352.669 266.983 353.515L251.752 339.207L296.818 312.016Z" fill="#61D243"/>
<path d="M306.596 352.039C305.842 350.769 306.327 349.088 307.679 348.285C309.033 347.481 310.741 347.861 311.495 349.132L314.637 354.426C313.471 355.927 312.412 356.651 310.083 357.914L306.596 352.039Z" fill="#499136"/>
<path d="M296.797 357.856C296.043 356.585 296.528 354.904 297.88 354.101C299.234 353.298 300.942 353.677 301.696 354.948L305.188 360.832L300.29 363.74L296.797 357.856Z" fill="#499136"/>
<path d="M289.363 367.473L286.905 363.332C286.721 361.613 287.029 360.921 288.261 360.037C298.981 351.005 302.72 344.853 308.162 333.288L297.236 314.88C296.757 313.537 296.782 312.843 297.34 311.706L251.408 339.379C252.008 339.291 267.484 354.143 268.073 354.505C271.378 358.52 273.745 360.448 277.86 363.723C282.313 366.985 284.987 367.966 289.363 367.473Z" fill="#5EBE45"/>
<path d="M286.998 363.673C286.244 362.402 286.73 360.72 288.082 359.917C289.436 359.114 291.144 359.494 291.898 360.764L295.177 366.288C292.975 367.037 291.665 367.298 289.269 367.499L286.998 363.673Z" fill="#499136"/>
<path d="M282.154 328.604C319.05 308.718 298.869 234.298 284.025 199.295H223.219H162.88C147.885 234.666 127.496 309.581 164.713 328.612L203.259 345.447L205.319 345.834C216.605 347.954 228.223 347.977 239.518 345.901L242.043 345.437L282.154 328.604Z" fill="#61D243"/>
<path d="M223.35 349.046C259.605 349.046 288.995 316.115 288.995 275.492C288.995 234.87 259.605 201.938 223.35 201.938C187.095 201.938 157.705 234.87 157.705 275.492C157.705 316.115 187.095 349.046 223.35 349.046Z" fill="#ABF47D"/>
<path d="M288.526 285.622C281.123 319.111 271.035 332.955 243.043 345.522L282.676 328.874C290.469 324.346 292.892 320.089 296.937 312.981L296.966 312.93C302.674 299.422 304.078 290.136 302.593 269.767C300.65 281.533 298.176 285.955 288.526 285.622Z" fill="#5EBE45"/>
<path d="M158.255 285.622C165.658 319.111 175.747 332.955 203.741 345.522L164.351 328.345C156.539 323.806 153.878 320.068 149.815 312.93C144.106 299.422 142.703 290.136 144.188 269.767C146.13 281.533 148.605 285.955 158.255 285.622Z" fill="#5EBE45"/>
<path d="M276.804 301.477C277.84 301.477 278.679 300.689 278.679 299.716C278.679 298.743 277.84 297.954 276.804 297.954C275.768 297.954 274.928 298.743 274.928 299.716C274.928 300.689 275.768 301.477 276.804 301.477Z" fill="#9EE075"/>
<path d="M167.082 301.477C168.118 301.477 168.958 300.689 168.958 299.716C168.958 298.743 168.118 297.954 167.082 297.954C166.046 297.954 165.207 298.743 165.207 299.716C165.207 300.689 166.046 301.477 167.082 301.477Z" fill="#9EE075"/>
<path d="M267.426 308.525C268.461 308.525 269.301 307.736 269.301 306.763C269.301 305.79 268.461 305.001 267.426 305.001C266.39 305.001 265.55 305.79 265.55 306.763C265.55 307.736 266.39 308.525 267.426 308.525Z" fill="#9EE075"/>
<path d="M175.522 308.525C176.558 308.525 177.398 307.736 177.398 306.763C177.398 305.79 176.558 305.001 175.522 305.001C174.486 305.001 173.646 305.79 173.646 306.763C173.646 307.736 174.486 308.525 175.522 308.525Z" fill="#9EE075"/>
<path d="M265.55 299.716C266.585 299.716 267.425 298.927 267.425 297.954C267.425 296.981 266.585 296.192 265.55 296.192C264.514 296.192 263.674 296.981 263.674 297.954C263.674 298.927 264.514 299.716 265.55 299.716Z" fill="#9EE075"/>
<path d="M175.522 300.597C176.558 300.597 177.398 299.808 177.398 298.835C177.398 297.862 176.558 297.073 175.522 297.073C174.486 297.073 173.646 297.862 173.646 298.835C173.646 299.808 174.486 300.597 175.522 300.597Z" fill="#9EE075"/>
<path d="M281.962 308.524C272.115 328.785 258.516 346.843 222.643 349.045C193.34 347.724 175.053 330.106 164.737 308.524C211.2 344.468 235.981 344.165 281.962 308.524Z" fill="#9EE075"/>
<path d="M158.843 192.42H170.763C163.726 208.11 151.222 227.776 147.254 254.297C137.299 256.084 128.983 246.627 132.673 237.209C140.157 218.103 147.427 207.182 158.843 192.42Z" fill="#417932"/>
<path d="M285.991 192.764H274.26C281.186 208.254 293.49 227.67 297.395 253.855C307.193 255.619 315.385 246.316 311.766 237.041C304.393 218.142 297.236 207.354 285.991 192.764Z" fill="#417932"/>
<g filter="url(#filter0_d_1775_1541)">
<path fill-rule="evenodd" clip-rule="evenodd" d="M140.258 137.583C140.258 140.171 140.843 142.668 141.93 145.019C134.325 150.495 129.984 157.161 129.984 164.903C129.984 187.157 171.383 209.296 222.451 209.296C273.518 209.296 312.862 188.524 312.862 166.268C313.525 158.558 309.667 151.772 302.422 146.115C303.859 143.449 304.643 140.577 304.643 137.583C304.643 123.626 287.623 112.312 266.629 112.312C251.022 112.312 237.611 118.565 231.756 127.507C228.696 127.395 225.592 127.338 222.451 127.338C219.306 127.338 216.198 127.39 213.135 127.493C207.275 118.558 193.871 112.312 178.272 112.312C157.277 112.312 140.258 123.626 140.258 137.583Z" fill="#61D243"/>
</g>
<g filter="url(#filter1_d_1775_1541)">
<path d="M288.671 160.805C265.996 163.352 244.431 165.752 222.007 160.805C202.425 163.938 169.399 163.657 157.155 160.805C158.858 224.522 284.611 227.558 289.364 163.912C289.44 162.891 289.364 161.822 288.671 160.805Z" fill="#ABF47D"/>
</g>
<path d="M147.197 115.575C151.035 104.28 155.934 100.976 171.204 94.6061C171.729 94.3875 172.405 94.3957 172.92 94.6236L173.266 94.7762C192.241 103.158 198.28 105.827 197.894 111.84C197.889 111.925 197.707 111.943 197.621 111.882C185.183 102.926 163.399 105.059 150.448 113.661C149.494 114.295 148.507 114.968 147.473 115.683C147.357 115.763 147.16 115.685 147.197 115.575Z" fill="#333333"/>
<path d="M296.629 115.575C292.996 104.28 288.359 100.976 273.907 94.6061C273.411 94.3875 272.771 94.3957 272.283 94.6236L271.956 94.7762C253.998 103.158 248.282 105.827 248.647 111.84C248.652 111.925 248.825 111.943 248.906 111.882C260.678 102.926 281.294 105.059 293.552 113.661C294.455 114.295 295.389 114.968 296.367 115.683C296.477 115.763 296.664 115.685 296.629 115.575Z" fill="#333333"/>
<path d="M149.909 157.402C156.574 160.829 162.202 162.701 172.76 163.347L161.168 177.982C149.401 170.296 146.082 165.831 149.909 157.402Z" fill="#ABF47D"/>
<path d="M296.421 157.699C289.556 161.249 283.759 163.187 272.886 163.856L284.825 179.013C296.944 171.052 300.362 166.429 296.421 157.699Z" fill="#ABF47D"/>
<path d="M296.62 157.427C287.201 162.617 273.211 163.372 260.135 163.372C248.849 163.371 239.084 162.788 226.312 161.36C223.495 161.045 220.597 160.996 217.756 161.232C201.097 162.611 191.469 163.485 172.746 163.372C162.189 162.726 156.561 160.854 149.896 157.427" stroke="#499036" stroke-width="3" stroke-linecap="round"/>
<path d="M146.751 178.471C152.832 181.981 159.658 181.541 161.999 177.487C164.339 173.433 161.307 167.301 155.226 163.79C149.146 160.28 142.32 160.72 139.979 164.774C137.639 168.828 140.671 174.96 146.751 178.471Z" fill="#EB8884"/>
<path d="M296.495 179.08C302.576 175.57 305.608 169.437 303.267 165.383C300.927 161.33 294.1 160.889 288.02 164.4C281.939 167.911 278.907 174.043 281.248 178.097C283.588 182.151 290.415 182.591 296.495 179.08Z" fill="#EB8884"/>
<path d="M160.119 197.469C151.841 188.795 145.962 180.355 146.895 175.558C148.094 169.399 158.03 169.145 164.007 171.058C168.428 172.472 173.129 175.663 177.074 179.459C180.482 182.739 182.493 187.181 183.192 191.859C185.485 207.217 181.793 216.705 172.773 231.539C163.473 245.574 158.151 251.454 148.259 254.469C146.993 254.945 144.324 254.814 140.776 254.266C126.614 252.076 128.122 234.508 142.313 232.515C146.686 231.901 150.531 229.258 152.585 225.349C159.882 211.458 162.183 204.634 160.927 198.925C160.806 198.374 160.508 197.878 160.119 197.469Z" fill="#499136"/>
<path d="M284.594 197.644C292.657 189.164 298.409 180.911 297.644 176.144C296.648 169.93 286.574 169.615 280.598 171.588C276.308 173.005 271.763 176.106 267.935 179.792C264.534 183.065 262.533 187.501 261.842 192.17C259.603 207.316 263.243 216.69 272.119 231.336C281.282 245.213 286.525 251.027 296.273 254.007C297.524 254.48 300.169 254.348 303.683 253.801C317.664 251.624 316.17 234.279 302.159 232.305C297.834 231.695 294.032 229.077 292.006 225.207C284.822 211.486 282.556 204.74 283.789 199.098C283.909 198.548 284.205 198.052 284.594 197.644Z" fill="#499136"/>
<path d="M275.006 376.679C276.303 376.679 277.354 377.731 277.354 379.028C277.354 380.325 276.303 381.376 275.006 381.376L168.724 381.374C167.427 381.374 166.376 380.322 166.376 379.025C166.376 377.728 167.427 376.677 168.724 376.677L275.006 376.679Z" fill="#F0F0F0"/>
<path d="M292.135 131.988C292.135 145.653 271.748 156.713 270.88 157.17C270.651 157.292 270.395 157.356 270.135 157.356C269.876 157.356 269.62 157.292 269.391 157.17C268.523 156.713 248.136 145.653 248.136 131.988C248.14 128.78 249.424 125.703 251.707 123.435C253.99 121.166 257.086 119.889 260.314 119.886C264.371 119.886 267.922 121.619 270.135 124.549C272.349 121.619 275.9 119.886 279.957 119.886C283.185 119.889 286.281 121.166 288.564 123.435C290.847 125.703 292.131 128.78 292.135 131.988Z" fill="#E6322B"/>
<path d="M347.113 144.867C346.127 148.104 340.453 149.24 340.212 149.285C340.149 149.297 340.083 149.294 340.021 149.275C339.959 149.256 339.902 149.222 339.856 149.176C339.682 149.005 335.604 144.898 336.591 141.661C336.823 140.901 337.352 140.265 338.062 139.894C338.772 139.523 339.604 139.446 340.377 139.68C341.347 139.976 342.071 140.645 342.389 141.501C343.13 140.968 344.104 140.816 345.074 141.111C345.846 141.347 346.494 141.875 346.877 142.579C347.259 143.283 347.344 144.106 347.113 144.867Z" fill="#E6322B"/>
<path d="M96.4781 142.961C97.6351 147.28 92.069 152.518 91.8307 152.736C91.7681 152.794 91.6919 152.836 91.6091 152.859C91.5262 152.881 91.4392 152.882 91.3558 152.863C91.0402 152.793 83.601 151.04 82.4439 146.722C82.1734 145.707 82.3225 144.625 82.8586 143.713C83.3947 142.801 84.274 142.133 85.3036 141.856C86.5973 141.509 87.8769 141.754 88.8311 142.49C89.2891 141.375 90.275 140.524 91.5688 140.177C92.599 139.902 93.6944 140.041 94.6148 140.563C95.5351 141.085 96.2052 141.947 96.4781 142.961Z" fill="#AE1F19"/>
<path d="M115.936 194.9C116.686 197.701 113.076 201.098 112.922 201.24C112.881 201.278 112.831 201.305 112.778 201.32C112.724 201.334 112.668 201.335 112.613 201.323C112.409 201.277 107.584 200.14 106.833 197.339C106.658 196.681 106.754 195.98 107.102 195.388C107.45 194.797 108.02 194.363 108.688 194.184C109.527 193.958 110.357 194.117 110.976 194.595C111.273 193.871 111.912 193.319 112.752 193.095C113.42 192.916 114.13 193.006 114.727 193.345C115.324 193.683 115.759 194.243 115.936 194.9Z" fill="#E6322B"/>
<path d="M112.693 257.673C113.195 259.544 110.783 261.814 110.68 261.908C110.652 261.934 110.619 261.952 110.583 261.962C110.548 261.971 110.51 261.972 110.474 261.964C110.337 261.933 107.114 261.174 106.612 259.303C106.495 258.863 106.56 258.395 106.792 257.999C107.024 257.604 107.405 257.314 107.851 257.194C108.412 257.044 108.966 257.15 109.38 257.469C109.578 256.986 110.005 256.617 110.566 256.467C111.012 256.348 111.487 256.408 111.886 256.634C112.285 256.86 112.575 257.234 112.693 257.673Z" fill="#EB8884"/>
<path d="M326.483 200.808C326.304 204.188 321.069 206.654 320.846 206.756C320.788 206.783 320.723 206.796 320.658 206.792C320.593 206.789 320.53 206.77 320.475 206.737C320.264 206.612 315.319 203.607 315.498 200.227C315.541 199.433 315.902 198.689 316.502 198.158C317.102 197.627 317.891 197.352 318.697 197.394C319.71 197.447 320.574 197.923 321.088 198.677C321.679 197.982 322.588 197.6 323.601 197.654C324.407 197.697 325.163 198.054 325.703 198.645C326.244 199.237 326.524 200.015 326.483 200.808Z" fill="#E86A90"/>
<path d="M197.949 131.988C197.949 145.653 177.561 156.713 176.694 157.17C176.465 157.292 176.209 157.356 175.949 157.356C175.689 157.356 175.433 157.292 175.204 157.17C174.336 156.713 153.949 145.653 153.949 131.988C153.953 128.78 155.237 125.703 157.52 123.435C159.803 121.166 162.899 119.889 166.128 119.886C170.184 119.886 173.735 121.619 175.949 124.549C178.163 121.619 181.714 119.886 185.77 119.886C188.999 119.889 192.095 121.166 194.378 123.435C196.661 125.703 197.945 128.78 197.949 131.988Z" fill="#E6322B"/>
<path d="M358.501 222.054C358.959 221.166 360.286 221.384 360.437 222.371L360.544 223.072C360.611 223.513 360.956 223.861 361.396 223.934L362.096 224.048C363.082 224.21 363.284 225.539 362.392 225.987L361.759 226.306C361.36 226.507 361.135 226.941 361.203 227.383L361.31 228.083C361.461 229.071 360.26 229.675 359.557 228.964L359.059 228.46C358.745 228.143 358.262 228.064 357.862 228.265L357.229 228.582C356.337 229.031 355.391 228.076 355.85 227.188L356.175 226.558C356.38 226.161 356.306 225.678 355.992 225.36L355.493 224.856C354.791 224.146 355.408 222.952 356.394 223.113L357.093 223.228C357.534 223.3 357.971 223.08 358.176 222.684L358.501 222.054Z" fill="#AE1F19"/>
<path d="M125.098 103.455C125.556 102.568 126.883 102.785 127.034 103.773L127.14 104.473C127.208 104.915 127.552 105.263 127.993 105.335L128.692 105.45C129.678 105.611 129.881 106.94 128.989 107.389L128.356 107.707C127.957 107.908 127.732 108.343 127.799 108.784L127.906 109.485C128.057 110.472 126.856 111.076 126.154 110.366L125.655 109.862C125.341 109.544 124.858 109.465 124.459 109.666L123.826 109.984C122.933 110.433 121.988 109.477 122.447 108.589L122.772 107.96C122.977 107.563 122.903 107.079 122.589 106.761L122.09 106.258C121.388 105.547 122.005 104.353 122.99 104.515L123.69 104.629C124.131 104.702 124.568 104.482 124.773 104.085L125.098 103.455Z" fill="#E86A90"/>
</g>
<g clip-path="url(#clip3_1775_1541)">
<rect x="369.177" y="313.685" width="67.8462" height="47.4915" rx="10" transform="rotate(15.06 369.177 313.685)" fill="#1F9DD3"/>
<path d="M360.284 358.061C358.482 357.577 357.113 356.521 356.176 354.894C355.238 353.267 355.012 351.551 355.495 349.747L364.309 316.987C364.794 315.186 365.851 313.817 367.48 312.88C369.109 311.944 370.824 311.716 372.624 312.198L425.039 326.302C426.841 326.787 428.211 327.844 429.15 329.474C430.088 331.103 430.314 332.818 429.828 334.617L421.013 367.376C420.529 369.178 419.472 370.548 417.845 371.487C416.217 372.427 414.502 372.652 412.699 372.165L360.284 358.061ZM376.032 351.76L402.239 358.811L404.002 352.259L377.795 345.208L376.032 351.76ZM368.848 339.287L375.4 341.05L377.163 334.498L370.611 332.736L368.848 339.287ZM378.676 341.932L385.228 343.695L386.991 337.143L380.439 335.38L378.676 341.932ZM388.504 344.576L395.056 346.339L396.819 339.787L390.267 338.024L388.504 344.576ZM398.332 347.22L404.884 348.983L406.647 342.432L400.095 340.669L398.332 347.22ZM408.16 349.865L414.711 351.628L416.474 345.076L409.922 343.313L408.16 349.865ZM371.493 329.46L378.045 331.222L379.808 324.671L373.256 322.908L371.493 329.46ZM381.321 332.104L387.872 333.867L389.635 327.315L383.083 325.552L381.321 332.104ZM391.148 334.748L397.7 336.511L399.463 329.959L392.911 328.196L391.148 334.748ZM400.976 337.393L407.528 339.156L409.291 332.604L402.739 330.841L400.976 337.393ZM410.804 340.037L417.356 341.8L419.119 335.248L412.567 333.485L410.804 340.037Z" fill="#46C4FF"/>
</g>
<g clip-path="url(#clip4_1775_1541)">
<path d="M399.706 93.9706C398.703 93.7772 397.664 93.9901 396.818 94.5627C395.972 95.1352 395.388 96.0204 395.194 97.0236L386.441 142.412C386.248 143.415 386.461 144.454 387.034 145.3C387.606 146.146 388.491 146.73 389.494 146.924L400.841 149.112L402.3 141.547L409.865 143.006L408.406 150.571L415.971 152.03L417.43 144.465L424.994 145.924L423.536 153.488L431.1 154.947L432.559 147.382L440.124 148.841L438.665 156.406L446.23 157.865L447.689 150.3L455.253 151.759L453.795 159.324L465.142 161.512C466.145 161.705 467.184 161.492 468.03 160.92C468.876 160.347 469.46 159.462 469.653 158.459L478.406 113.071C478.6 112.068 478.387 111.029 477.814 110.182C477.242 109.336 476.357 108.752 475.353 108.559L399.706 93.9706ZM408.136 111.288L430.83 115.665L428.642 127.012L405.947 122.635L408.136 111.288ZM438.394 117.124L461.089 121.5L458.9 132.847L436.206 128.471L438.394 117.124Z" fill="#7B2BBE"/>
<path d="M395.034 90.29C394.031 90.0965 392.992 90.3095 392.146 90.882C391.3 91.4546 390.716 92.3398 390.522 93.3429L381.769 138.731C381.576 139.734 381.789 140.773 382.361 141.619C382.934 142.466 383.819 143.05 384.822 143.243L396.169 145.431L397.628 137.867L405.193 139.325L403.734 146.89L411.299 148.349L412.757 140.784L420.322 142.243L418.863 149.808L426.428 151.267L427.887 143.702L435.452 145.161L433.993 152.725L441.557 154.184L443.016 146.619L450.581 148.078L449.122 155.643L460.469 157.831C461.472 158.025 462.511 157.812 463.357 157.239C464.204 156.667 464.788 155.781 464.981 154.778L473.734 109.39C473.927 108.387 473.714 107.348 473.142 106.502C472.569 105.656 471.684 105.072 470.681 104.878L395.034 90.29ZM403.463 107.608L426.157 111.984L423.969 123.331L401.275 118.955L403.463 107.608ZM433.722 113.443L456.416 117.819L454.228 129.167L431.534 124.79L433.722 113.443Z" fill="#C67DFF"/>
</g>
<path fill-rule="evenodd" clip-rule="evenodd" d="M95.8207 343.178C99.9577 341.157 105.051 343.238 106.427 347.764L116.945 382.358C118.321 386.885 115.252 391.447 110.687 392.075C102.356 393.203 94.1132 394.904 86.0166 397.167L87.5089 402.075C90.1319 401.47 92.6352 401.067 94.657 400.803C96.3453 400.581 98.0363 400.394 99.7341 400.307C100.228 400.282 100.723 400.354 101.189 400.52C101.655 400.686 102.084 400.943 102.451 401.274C102.818 401.606 103.116 402.007 103.328 402.454C103.54 402.901 103.662 403.386 103.686 403.88C103.724 404.885 103.364 405.863 102.683 406.603C102.003 407.343 101.058 407.785 100.053 407.831C98.5746 407.926 97.1014 408.079 95.6356 408.269C92.3953 408.673 89.1926 409.336 86.0582 410.251C82.7284 411.264 79.4645 412.713 76.9978 413.935C75.6744 414.593 74.3656 415.287 73.0841 416.031C72.224 416.551 71.1932 416.711 70.216 416.475C69.2388 416.239 68.3945 415.626 67.8667 414.771C67.3681 413.908 67.2251 412.886 67.4679 411.92C67.7107 410.954 68.3202 410.12 69.1672 409.596C70.6319 408.736 72.129 407.933 73.6553 407.188C75.481 406.279 77.7824 405.225 80.3017 404.266L78.8094 399.358C70.8237 401.985 63.0287 405.16 55.48 408.86C51.3419 410.878 46.2478 408.793 44.8728 404.271L34.3548 369.676C32.9787 365.15 36.0479 360.587 40.6136 359.963C59.803 357.392 78.4478 351.724 95.8207 343.178Z" fill="#F89701"/>
<g clip-path="url(#clip5_1775_1541)">
<path fill-rule="evenodd" clip-rule="evenodd" d="M99.5116 344.384C103.649 342.363 108.742 344.444 110.118 348.97L120.636 383.564C122.012 388.091 118.943 392.653 114.378 393.281C106.047 394.409 97.8042 396.11 89.7076 398.373L91.1998 403.281C93.8228 402.676 96.3261 402.273 98.348 402.009C100.036 401.787 101.727 401.6 103.425 401.513C103.919 401.488 104.413 401.56 104.88 401.726C105.346 401.892 105.775 402.149 106.142 402.48C106.509 402.812 106.807 403.213 107.019 403.66C107.231 404.107 107.353 404.592 107.377 405.086C107.415 406.091 107.055 407.07 106.374 407.809C105.694 408.549 104.748 408.991 103.744 409.037C102.266 409.132 100.792 409.285 99.3266 409.475C96.0863 409.879 92.8835 410.542 89.7491 411.458C86.4194 412.47 83.1555 413.919 80.6887 415.141C79.3654 415.8 78.0565 416.493 76.775 417.237C75.9149 417.757 74.8841 417.917 73.9069 417.681C72.9298 417.445 72.0854 416.832 71.5576 415.977C71.0591 415.114 70.916 414.092 71.1588 413.126C71.4016 412.16 72.0112 411.326 72.8582 410.802C74.3228 409.942 75.8199 409.139 77.3462 408.394C79.1719 407.485 81.4733 406.431 83.9926 405.472L82.5004 400.564C74.5146 403.191 66.7196 406.366 59.1709 410.066C55.0328 412.084 49.9387 409.999 48.5637 405.477L38.0458 370.882C36.6697 366.356 39.7388 361.793 44.3045 361.169C63.4939 358.598 82.1387 352.93 99.5116 344.384Z" fill="#FEE333"/>
</g>
<path d="M47.9389 103.919L35.3471 97.2302L42.0355 84.6384L54.6273 91.3268L47.9389 103.919ZM18.9505 72.3763C19.2462 71.8197 19.7508 71.4034 20.3534 71.2188C20.9561 71.0343 21.6073 71.0968 22.1639 71.3924L26.3612 73.6219L31.9348 63.1287C32.5261 62.0155 33.5354 61.1828 34.7407 60.8138C35.9459 60.4448 37.2484 60.5696 38.3616 61.1609L48.8547 66.7346L51.0842 62.5373C51.3798 61.9807 51.8845 61.5644 52.4871 61.3799C53.0897 61.1954 53.741 61.2578 54.2976 61.5534C54.8542 61.8491 55.2705 62.3537 55.455 62.9563C55.6395 63.559 55.5771 64.2102 55.2815 64.7668L53.052 68.9641L61.4465 73.423L63.676 69.2257C63.9716 68.6692 64.4763 68.2528 65.0789 68.0683C65.6815 67.8838 66.3328 67.9462 66.8894 68.2419C67.4459 68.5375 67.8623 69.0421 68.0468 69.6448C68.2313 70.2474 68.1689 70.8986 67.8732 71.4552L65.6438 75.6525L76.1369 81.2262C77.2501 81.8174 78.0828 82.8267 78.4519 84.032C78.8209 85.2372 78.696 86.5397 78.1047 87.6529L72.5311 98.146L76.7283 100.376C77.2849 100.671 77.7013 101.176 77.8858 101.778C78.0703 102.381 78.0079 103.032 77.7122 103.589C77.4166 104.145 76.9119 104.562 76.3093 104.746C75.7067 104.931 75.0554 104.868 74.4988 104.573L70.3016 102.343L65.8426 110.738L70.0399 112.967C70.5965 113.263 71.0128 113.768 71.1974 114.37C71.3819 114.973 71.3195 115.624 71.0238 116.181C70.7282 116.737 70.2235 117.154 69.6209 117.338C69.0183 117.523 68.367 117.46 67.8104 117.165L63.6132 114.935L58.0395 125.428C57.4482 126.541 56.4389 127.374 55.2337 127.743C54.0284 128.112 52.7259 127.987 51.6128 127.396L41.1196 121.822L38.8901 126.02C38.5945 126.576 38.0898 126.993 37.4872 127.177C36.8846 127.362 36.2334 127.299 35.6768 127.004C35.1202 126.708 34.7038 126.203 34.5193 125.601C34.3348 124.998 34.3972 124.347 34.6929 123.79L36.9223 119.593L28.5278 115.134L26.2983 119.331C26.0027 119.888 25.4981 120.304 24.8954 120.489C24.2928 120.673 23.6416 120.611 23.085 120.315C22.5284 120.019 22.112 119.515 21.9275 118.912C21.743 118.31 21.8054 117.658 22.1011 117.102L24.3306 112.904L13.8374 107.331C12.7242 106.74 11.8915 105.73 11.5225 104.525C11.1534 103.32 11.2783 102.017 11.8696 100.904L17.4433 90.4109L13.246 88.1815C12.6894 87.8858 12.2731 87.3812 12.0885 86.7785C11.904 86.1759 11.9665 85.5247 12.2621 84.9681C12.5578 84.4115 13.0624 83.9952 13.665 83.8106C14.2676 83.6261 14.9189 83.6886 15.4755 83.9842L19.6727 86.2137L24.1317 77.8191L19.9344 75.5897C19.3778 75.294 18.9615 74.7894 18.777 74.1868C18.5924 73.5841 18.6549 72.9329 18.9505 72.3763ZM30.0351 97.0993C29.7394 97.6559 29.677 98.3072 29.8615 98.9098C30.046 99.5124 30.4624 100.017 31.019 100.313L47.808 109.231C48.3646 109.526 49.0158 109.589 49.6185 109.404C50.2211 109.22 50.7257 108.803 51.0214 108.247L59.9393 91.4576C60.2349 90.901 60.2973 90.2498 60.1128 89.6472C59.9283 89.0446 59.512 88.5399 58.9554 88.2443L42.1663 79.3264C41.6097 79.0307 40.9585 78.9683 40.3559 79.1528C39.7532 79.3373 39.2486 79.7537 38.9529 80.3103L30.0351 97.0993Z" fill="#850014"/>
<path d="M51.2338 102.663L38.642 95.9743L45.3304 83.3825L57.9222 90.0709L51.2338 102.663ZM22.2454 71.1204C22.5411 70.5638 23.0457 70.1475 23.6484 69.963C24.251 69.7785 24.9022 69.8409 25.4588 70.1365L29.6561 72.366L35.2298 61.8729C35.821 60.7597 36.8303 59.927 38.0356 59.5579C39.2408 59.1889 40.5433 59.3138 41.6565 59.9051L52.1496 65.4787L54.3791 61.2815C54.6748 60.7249 55.1794 60.3085 55.782 60.124C56.3846 59.9395 57.0359 60.0019 57.5925 60.2976C58.1491 60.5932 58.5654 61.0979 58.7499 61.7005C58.9345 62.3031 58.872 62.9544 58.5764 63.5109L56.3469 67.7082L64.7414 72.1672L66.9709 67.9699C67.2666 67.4133 67.7712 66.9969 68.3738 66.8124C68.9764 66.6279 69.6277 66.6903 70.1843 66.986C70.7409 67.2816 71.1572 67.7863 71.3417 68.3889C71.5262 68.9915 71.4638 69.6428 71.1682 70.1994L68.9387 74.3966L79.4319 79.9703C80.545 80.5616 81.3777 81.5709 81.7468 82.7761C82.1158 83.9814 81.9909 85.2838 81.3997 86.397L75.826 96.8902L80.0232 99.1197C80.5798 99.4153 80.9962 99.9199 81.1807 100.523C81.3652 101.125 81.3028 101.776 81.0071 102.333C80.7115 102.89 80.2068 103.306 79.6042 103.49C79.0016 103.675 78.3504 103.613 77.7938 103.317L73.5965 101.087L69.1376 109.482L73.3348 111.711C73.8914 112.007 74.3078 112.512 74.4923 113.114C74.6768 113.717 74.6144 114.368 74.3187 114.925C74.0231 115.481 73.5184 115.898 72.9158 116.082C72.3132 116.267 71.662 116.204 71.1054 115.909L66.9081 113.679L61.3344 124.172C60.7431 125.286 59.7338 126.118 58.5286 126.487C57.3234 126.856 56.0209 126.731 54.9077 126.14L44.4145 120.567L42.1851 124.764C41.8894 125.32 41.3848 125.737 40.7821 125.921C40.1795 126.106 39.5283 126.043 38.9717 125.748C38.4151 125.452 37.9987 124.947 37.8142 124.345C37.6297 123.742 37.6921 123.091 37.9878 122.534L40.2173 118.337L31.8227 113.878L29.5933 118.075C29.2976 118.632 28.793 119.048 28.1904 119.233C27.5877 119.417 26.9365 119.355 26.3799 119.059C25.8233 118.764 25.407 118.259 25.2224 117.656C25.0379 117.054 25.1004 116.402 25.396 115.846L27.6255 111.649L17.1323 106.075C16.0191 105.484 15.1864 104.474 14.8174 103.269C14.4484 102.064 14.5732 100.761 15.1645 99.6482L20.7382 89.1551L16.5409 86.9256C15.9843 86.63 15.568 86.1253 15.3835 85.5227C15.199 84.9201 15.2614 84.2688 15.557 83.7122C15.8527 83.1556 16.3573 82.7393 16.9599 82.5548C17.5626 82.3703 18.2138 82.4327 18.7704 82.7283L22.9677 84.9578L27.4266 76.5633L23.2293 74.3338C22.6728 74.0382 22.2564 73.5335 22.0719 72.9309C21.8874 72.3283 21.9498 71.677 22.2454 71.1204ZM33.33 95.8435C33.0343 96.4001 32.9719 97.0513 33.1564 97.6539C33.3409 98.2566 33.7573 98.7612 34.3139 99.0568L51.1029 107.975C51.6595 108.27 52.3108 108.333 52.9134 108.148C53.516 107.964 54.0207 107.547 54.3163 106.991L63.2342 90.2018C63.5298 89.6452 63.5923 88.9939 63.4077 88.3913C63.2232 87.7887 62.8069 87.2841 62.2503 86.9884L45.4612 78.0705C44.9046 77.7749 44.2534 77.7124 43.6508 77.897C43.0482 78.0815 42.5435 78.4978 42.2479 79.0544L33.33 95.8435Z" fill="#E10531"/>
<defs>
<filter id="filter0_d_1775_1541" x="119.984" y="104.312" width="202.952" height="116.983" filterUnits="userSpaceOnUse" color-interpolation-filters="sRGB">
<feFlood flood-opacity="0" result="BackgroundImageFix"/>
<feColorMatrix in="SourceAlpha" type="matrix" values="0 0 0 0 0 0 0 0 0 0 0 0 0 0 0 0 0 0 127 0" result="hardAlpha"/>
<feOffset dy="2"/>
<feGaussianBlur stdDeviation="5"/>
<feComposite in2="hardAlpha" operator="out"/>
<feColorMatrix type="matrix" values="0 0 0 0 0 0 0 0 0 0 0 0 0 0 0 0 0 0 0.05 0"/>
<feBlend mode="normal" in2="BackgroundImageFix" result="effect1_dropShadow_1775_1541"/>
<feBlend mode="normal" in="SourceGraphic" in2="effect1_dropShadow_1775_1541" result="shape"/>
</filter>
<filter id="filter1_d_1775_1541" x="147.155" y="152.805" width="152.232" height="69.3428" filterUnits="userSpaceOnUse" color-interpolation-filters="sRGB">
<feFlood flood-opacity="0" result="BackgroundImageFix"/>
<feColorMatrix in="SourceAlpha" type="matrix" values="0 0 0 0 0 0 0 0 0 0 0 0 0 0 0 0 0 0 127 0" result="hardAlpha"/>
<feOffset dy="2"/>
<feGaussianBlur stdDeviation="5"/>
<feComposite in2="hardAlpha" operator="out"/>
<feColorMatrix type="matrix" values="0 0 0 0 0 0 0 0 0 0 0 0 0 0 0 0 0 0 0.05 0"/>
<feBlend mode="normal" in2="BackgroundImageFix" result="effect1_dropShadow_1775_1541"/>
<feBlend mode="normal" in="SourceGraphic" in2="effect1_dropShadow_1775_1541" result="shape"/>
</filter>
<clipPath id="clip0_1775_1541">
<rect width="23.6114" height="23.6114" fill="white" transform="translate(31.7534 188.077)"/>
</clipPath>
<clipPath id="clip1_1775_1541">
<rect width="23.6114" height="23.6114" fill="white" transform="translate(416.864 295.551)"/>
</clipPath>
<clipPath id="clip2_1775_1541">
<rect width="284.965" height="287.042" fill="white" transform="translate(81.4189 94.4473)"/>
</clipPath>
<clipPath id="clip3_1775_1541">
<rect width="81.4187" height="81.4187" fill="white" transform="translate(363.113 291.479) rotate(15.06)"/>
</clipPath>
<clipPath id="clip4_1775_1541">
<rect width="92.4492" height="92.4492" fill="white" transform="translate(391.218 70.0205) rotate(10.9153)"/>
</clipPath>
<clipPath id="clip5_1775_1541">
<rect width="90.3953" height="90.3953" fill="white" transform="translate(23.3672 350.731) rotate(-16.9111)"/>
</clipPath>
</defs>
</svg>
