<svg width="968" height="489" viewBox="0 0 968 489" fill="none" xmlns="http://www.w3.org/2000/svg">
<path d="M725.843 136.48L693.984 168.339L772.277 246.632L662.126 283.488L693.984 251.629L615.691 173.336L725.843 136.48ZM943.855 1.75781L506.581 147.516L610.694 251.629L444.113 418.21L881.388 272.452L777.275 168.339L943.855 1.75781Z" fill="#EAECF0"/>
<path d="M725.843 136.48L693.984 168.339L772.277 246.632L662.126 283.488L693.984 251.629L615.691 173.336L725.843 136.48Z" fill="#EAECF0"/>
<rect x="251" y="383.142" width="20" height="20" rx="5" transform="rotate(-44.9977 251 383.142)" fill="#1CB0F6" fill-opacity="0.5"/>
<rect x="178" y="305.142" width="20" height="20" rx="5" transform="rotate(-44.9977 178 305.142)" fill="#7AD761" fill-opacity="0.5"/>
<g clip-path="url(#clip0_1189_1149)">
<path d="M847.221 328.218C845.831 327.95 844.392 328.245 843.22 329.039C842.048 329.832 841.239 331.058 840.971 332.448L828.845 395.322C828.577 396.712 828.872 398.151 829.666 399.323C830.459 400.495 831.685 401.304 833.074 401.572L848.793 404.604L850.814 394.125L861.293 396.145L859.272 406.625L869.751 408.645L871.772 398.166L882.251 400.187L880.231 410.666L890.71 412.687L892.731 402.208L903.21 404.229L901.189 414.708L911.668 416.729L913.689 406.25L924.168 408.271L922.147 418.75L937.866 421.781C939.255 422.049 940.695 421.754 941.867 420.961C943.039 420.168 943.848 418.942 944.116 417.552L956.241 354.677C956.509 353.287 956.214 351.848 955.421 350.676C954.628 349.504 953.402 348.695 952.012 348.427L847.221 328.218ZM858.898 352.208L890.335 358.271L887.304 373.989L855.866 367.927L858.898 352.208ZM900.814 360.291L932.251 366.354L929.22 382.073L897.783 376.01L900.814 360.291Z" fill="#7B2BBE"/>
<g clip-path="url(#clip1_1189_1149)">
<path d="M842.017 323.259C840.627 322.991 839.188 323.286 838.016 324.08C836.844 324.873 836.035 326.099 835.767 327.489L823.642 390.363C823.374 391.753 823.669 393.192 824.462 394.364C825.255 395.536 826.481 396.345 827.871 396.613L843.589 399.645L845.61 389.166L856.089 391.186L854.069 401.666L864.548 403.686L866.569 393.207L877.048 395.228L875.027 405.707L885.506 407.728L887.527 397.249L898.006 399.27L895.985 409.749L906.464 411.77L908.485 401.291L918.964 403.312L916.943 413.791L932.662 416.822C934.052 417.09 935.491 416.795 936.663 416.002C937.835 415.209 938.644 413.983 938.912 412.593L951.037 349.718C951.305 348.328 951.01 346.889 950.217 345.717C949.424 344.545 948.198 343.736 946.808 343.468L842.017 323.259ZM853.694 347.249L885.131 353.312L882.1 369.03L850.662 362.968L853.694 347.249ZM895.61 355.332L927.048 361.395L924.016 377.114L892.579 371.051L895.61 355.332Z" fill="#C67DFF"/>
</g>
</g>
<g clip-path="url(#clip2_1189_1149)">
<rect x="840.664" y="39.457" width="108.329" height="75.829" rx="10" transform="rotate(15.06 840.664 39.457)" fill="#1F9DD3"/>
<path d="M826.465 110.312C823.588 109.538 821.401 107.852 819.905 105.255C818.409 102.657 818.047 99.9174 818.818 97.0361L832.892 44.7298C833.666 41.853 835.354 39.6669 837.955 38.1717C840.556 36.6765 843.294 36.3137 846.168 37.0834L929.858 59.602C932.735 60.376 934.923 62.0641 936.422 64.6662C937.92 67.2684 938.282 70.0056 937.505 72.878L923.431 125.184C922.657 128.061 920.97 130.249 918.372 131.749C915.773 133.249 913.034 133.609 910.155 132.831L826.465 110.312ZM851.609 100.25L893.454 111.509L896.269 101.048L854.424 89.7887L851.609 100.25ZM840.14 80.3358L850.601 83.1506L853.416 72.6894L842.955 69.8746L840.14 80.3358ZM855.832 84.558L866.293 87.3729L869.108 76.9116L858.646 74.0968L855.832 84.558ZM871.524 88.7803L881.985 91.5951L884.8 81.1339L874.338 78.319L871.524 88.7803ZM887.215 93.0025L897.677 95.8173L900.491 85.3561L890.03 82.5413L887.215 93.0025ZM902.907 97.2247L913.369 100.04L916.183 89.5783L905.722 86.7635L902.907 97.2247ZM844.362 64.6439L854.823 67.4588L857.638 56.9975L847.177 54.1827L844.362 64.6439ZM860.054 68.8662L870.515 71.681L873.33 61.2197L862.869 58.4049L860.054 68.8662ZM875.746 73.0884L886.207 75.9032L889.022 65.442L878.561 62.6271L875.746 73.0884ZM891.438 77.3106L901.899 80.1255L904.714 69.6642L894.252 66.8494L891.438 77.3106ZM907.13 81.5329L917.591 84.3477L920.406 73.8864L909.944 71.0716L907.13 81.5329Z" fill="#46C4FF"/>
</g>
<path fill-rule="evenodd" clip-rule="evenodd" d="M110.793 349.287C116.867 346.319 124.344 349.375 126.364 356.02L141.806 406.809C143.826 413.454 139.32 420.152 132.619 421.074C120.388 422.73 108.286 425.227 96.3995 428.549L98.5903 435.755C102.441 434.867 106.116 434.276 109.085 433.888C111.563 433.562 114.046 433.287 116.538 433.159C117.264 433.122 117.99 433.229 118.674 433.472C119.358 433.716 119.988 434.093 120.527 434.58C121.066 435.067 121.503 435.656 121.815 436.312C122.126 436.968 122.305 437.68 122.341 438.405C122.396 439.88 121.867 441.317 120.868 442.403C119.869 443.49 118.481 444.138 117.007 444.206C114.836 444.346 112.673 444.57 110.521 444.848C105.764 445.442 101.062 446.415 96.4605 447.759C91.572 449.245 86.7802 451.373 83.1588 453.167C81.2159 454.134 79.2944 455.151 77.4129 456.244C76.1502 457.008 74.6368 457.242 73.2022 456.895C71.7677 456.549 70.528 455.65 69.7532 454.394C69.0212 453.128 68.8112 451.627 69.1677 450.208C69.5241 448.79 70.419 447.566 71.6625 446.797C73.8128 445.535 76.0108 444.356 78.2515 443.262C80.9319 441.927 84.3106 440.38 88.0092 438.972L85.8185 431.766C74.0944 435.623 62.6503 440.284 51.568 445.717C45.4927 448.679 38.0139 445.618 35.9952 438.979L20.5536 388.19C18.5333 381.545 23.0392 374.846 29.7422 373.929C57.9146 370.155 85.2875 361.833 110.793 349.287Z" fill="#F89701"/>
<g clip-path="url(#clip3_1189_1149)">
<path fill-rule="evenodd" clip-rule="evenodd" d="M116.213 351.054C122.286 348.086 129.764 351.141 131.784 357.786L147.225 408.575C149.246 415.22 144.74 421.919 138.039 422.841C125.808 424.496 113.706 426.994 101.819 430.316L104.01 437.521C107.861 436.634 111.536 436.042 114.504 435.654C116.983 435.328 119.466 435.053 121.958 434.926C122.684 434.889 123.409 434.995 124.094 435.239C124.778 435.483 125.408 435.859 125.946 436.346C126.485 436.834 126.923 437.422 127.234 438.079C127.546 438.735 127.724 439.446 127.761 440.172C127.816 441.647 127.287 443.084 126.288 444.17C125.289 445.256 123.901 445.904 122.427 445.972C120.256 446.112 118.093 446.336 115.941 446.615C111.184 447.208 106.482 448.182 101.88 449.526C96.9917 451.012 92.1999 453.139 88.5785 454.934C86.6356 455.9 84.7141 456.918 82.8326 458.01C81.5699 458.774 80.0565 459.009 78.6219 458.662C77.1873 458.316 75.9477 457.417 75.1729 456.16C74.4409 454.894 74.2309 453.393 74.5874 451.975C74.9438 450.557 75.8387 449.333 77.0822 448.564C79.2325 447.301 81.4304 446.122 83.6712 445.029C86.3516 443.694 89.7303 442.146 93.4289 440.738L91.2382 433.533C79.514 437.39 68.07 442.051 56.9876 447.483C50.9124 450.446 43.4336 447.385 41.4149 440.745L25.9733 389.956C23.953 383.311 28.4589 376.613 35.1619 375.696C63.3343 371.922 90.7072 363.6 116.213 351.054Z" fill="#FEE333"/>
</g>
<path d="M86.0495 89.8732L65.7989 79.1166L76.5555 58.8659L96.8061 69.6225L86.0495 89.8732ZM39.4293 39.1456C39.9048 38.2504 40.7164 37.5808 41.6855 37.2841C42.6547 36.9873 43.702 37.0877 44.5972 37.5632L51.3474 41.1487L60.3112 24.2732C61.2622 22.4829 62.8853 21.1438 64.8237 20.5503C66.762 19.9568 68.8567 20.1576 70.647 21.1085L87.5225 30.0723L91.108 23.3221C91.5835 22.427 92.3951 21.7574 93.3642 21.4606C94.3334 21.1639 95.3807 21.2643 96.2759 21.7398C97.171 22.2152 97.8406 23.0268 98.1374 23.996C98.4341 24.9652 98.3337 26.0125 97.8582 26.9076L94.2727 33.6579L107.773 40.8289L111.359 34.0787C111.834 33.1836 112.646 32.514 113.615 32.2172C114.584 31.9205 115.631 32.0209 116.527 32.4964C117.422 32.9718 118.091 33.7834 118.388 34.7526C118.685 35.7217 118.584 36.7691 118.109 37.6642L114.523 44.4144L131.399 53.3783C133.189 54.3292 134.528 55.9524 135.122 57.8907C135.715 59.829 135.514 61.9237 134.564 63.714L125.6 80.5895L132.35 84.175C133.245 84.6505 133.915 85.4621 134.211 86.4313C134.508 87.4004 134.408 88.4478 133.932 89.3429C133.457 90.2381 132.645 90.9076 131.676 91.2044C130.707 91.5011 129.66 91.4007 128.764 90.9253L122.014 87.3397L114.843 100.84L121.593 104.426C122.489 104.901 123.158 105.713 123.455 106.682C123.752 107.651 123.651 108.698 123.176 109.594C122.7 110.489 121.889 111.158 120.919 111.455C119.95 111.752 118.903 111.651 118.008 111.176L111.258 107.59L102.294 124.466C101.343 126.256 99.7197 127.595 97.7814 128.189C95.8431 128.782 93.7483 128.582 91.9581 127.631L75.0825 118.667L71.497 125.417C71.0216 126.312 70.21 126.982 69.2408 127.278C68.2716 127.575 67.2243 127.475 66.3292 126.999C65.434 126.524 64.7644 125.712 64.4677 124.743C64.1709 123.774 64.2713 122.727 64.7468 121.831L68.3323 115.081L54.8319 107.91L51.2464 114.66C50.7709 115.556 49.9593 116.225 48.9902 116.522C48.021 116.819 46.9736 116.718 46.0785 116.243C45.1834 115.767 44.5138 114.956 44.217 113.987C43.9203 113.017 44.0207 111.97 44.4962 111.075L48.0817 104.325L31.2062 95.3609C29.4159 94.4099 28.0767 92.7867 27.4832 90.8484C26.8897 88.9101 27.0905 86.8154 28.0415 85.0251L37.0053 68.1496L30.2551 64.5641C29.3599 64.0886 28.6903 63.277 28.3936 62.3078C28.0969 61.3387 28.1973 60.2913 28.6727 59.3962C29.1482 58.5011 29.9598 57.8315 30.9289 57.5347C31.8981 57.238 32.9455 57.3384 33.8406 57.8139L40.5908 61.3994L47.7619 47.8989L41.0117 44.3134C40.1165 43.838 39.4469 43.0264 39.1502 42.0572C38.8534 41.088 38.9538 40.0407 39.4293 39.1456ZM57.2559 78.9062C56.7805 79.8013 56.6801 80.8486 56.9768 81.8178C57.2735 82.787 57.9431 83.5986 58.8383 84.074L85.8391 98.4161C86.7343 98.8916 87.7816 98.992 88.7508 98.6953C89.7199 98.3985 90.5315 97.7289 91.007 96.8338L105.349 69.8329C105.825 68.9378 105.925 67.8905 105.628 66.9213C105.331 65.9521 104.662 65.1405 103.767 64.6651L76.7659 50.323C75.8708 49.8475 74.8234 49.7471 73.8543 50.0438C72.8851 50.3406 72.0735 51.0102 71.598 51.9053L57.2559 78.9062Z" fill="#850014"/>
<path d="M91.3493 87.8536L71.0987 77.0971L81.8553 56.8464L102.106 67.603L91.3493 87.8536ZM44.7291 37.126C45.2046 36.2309 46.0162 35.5613 46.9853 35.2645C47.9545 34.9678 49.0019 35.0682 49.897 35.5437L56.6472 39.1292L65.611 22.2537C66.562 20.4634 68.1851 19.1242 70.1235 18.5307C72.0618 17.9372 74.1565 18.138 75.9468 19.089L92.8223 28.0528L96.4078 21.3026C96.8833 20.4075 97.6949 19.7379 98.664 19.4411C99.6332 19.1444 100.681 19.2448 101.576 19.7202C102.471 20.1957 103.14 21.0073 103.437 21.9765C103.734 22.9456 103.633 23.993 103.158 24.8881L99.5725 31.6383L113.073 38.8094L116.658 32.0592C117.134 31.164 117.946 30.4944 118.915 30.1977C119.884 29.9009 120.931 30.0014 121.826 30.4768C122.721 30.9523 123.391 31.7639 123.688 32.733C123.985 33.7022 123.884 34.7496 123.409 35.6447L119.823 42.3949L136.699 51.3587C138.489 52.3097 139.828 53.9328 140.422 55.8712C141.015 57.8095 140.814 59.9042 139.863 61.6945L130.9 78.57L137.65 82.1555C138.545 82.631 139.214 83.4426 139.511 84.4117C139.808 85.3809 139.708 86.4283 139.232 87.3234C138.757 88.2185 137.945 88.8881 136.976 89.1849C136.007 89.4816 134.959 89.3812 134.064 88.9057L127.314 85.3202L120.143 98.8206L126.893 102.406C127.788 102.882 128.458 103.693 128.755 104.662C129.051 105.632 128.951 106.679 128.476 107.574C128 108.469 127.188 109.139 126.219 109.435C125.25 109.732 124.203 109.632 123.308 109.156L116.557 105.571L107.594 122.446C106.643 124.237 105.02 125.576 103.081 126.169C101.143 126.763 99.0482 126.562 97.2579 125.611L80.3824 116.647L76.7968 123.397C76.3214 124.293 75.5098 124.962 74.5406 125.259C73.5714 125.556 72.5241 125.455 71.629 124.98C70.7338 124.504 70.0642 123.693 69.7675 122.724C69.4707 121.754 69.5711 120.707 70.0466 119.812L73.6321 113.062L60.1317 105.891L56.5462 112.641C56.0707 113.536 55.2591 114.206 54.29 114.502C53.3208 114.799 52.2734 114.699 51.3783 114.223C50.4832 113.748 49.8136 112.936 49.5168 111.967C49.2201 110.998 49.3205 109.95 49.796 109.055L53.3815 102.305L36.506 93.3413C34.7157 92.3904 33.3765 90.7672 32.783 88.8289C32.1895 86.8906 32.3903 84.7959 33.3413 83.0056L42.3051 66.1301L35.5549 62.5445C34.6598 62.0691 33.9902 61.2575 33.6934 60.2883C33.3967 59.3191 33.4971 58.2718 33.9725 57.3767C34.448 56.4815 35.2596 55.8119 36.2288 55.5152C37.1979 55.2184 38.2453 55.3189 39.1404 55.7943L45.8906 59.3798L53.0617 45.8794L46.3115 42.2939C45.4163 41.8184 44.7467 41.0068 44.45 40.0377C44.1532 39.0685 44.2537 38.0212 44.7291 37.126ZM62.5557 76.8866C62.0803 77.7818 61.9799 78.8291 62.2766 79.7983C62.5734 80.7674 63.2429 81.579 64.1381 82.0545L91.1389 96.3966C92.0341 96.8721 93.0814 96.9725 94.0506 96.6757C95.0197 96.379 95.8313 95.7094 96.3068 94.8143L110.649 67.8134C111.124 66.9183 111.225 65.8709 110.928 64.9018C110.631 63.9326 109.962 63.121 109.067 62.6455L82.0657 48.3034C81.1706 47.828 80.1232 47.7276 79.1541 48.0243C78.1849 48.3211 77.3733 48.9906 76.8978 49.8858L62.5557 76.8866Z" fill="#E10531"/>
<g clip-path="url(#clip4_1189_1149)">
<path fill-rule="evenodd" clip-rule="evenodd" d="M277.437 51.3572C276.778 49.5489 274.222 49.5489 273.563 51.3572L270.574 59.5746L262.357 62.5637C260.548 63.2224 260.548 65.7785 262.357 66.4372L270.574 69.4263L273.563 77.6437C274.222 79.452 276.778 79.452 277.437 77.6437L280.426 69.4263L288.643 66.4372C290.452 65.7785 290.452 63.2224 288.643 62.5637L280.426 59.5746L277.437 51.3572Z" fill="#FEE333"/>
</g>
<g clip-path="url(#clip5_1189_1149)">
<path fill-rule="evenodd" clip-rule="evenodd" d="M653.437 382.357C652.778 380.549 650.222 380.549 649.563 382.357L646.574 390.575L638.357 393.564C636.548 394.222 636.548 396.779 638.357 397.437L646.574 400.426L649.563 408.644C650.222 410.452 652.778 410.452 653.437 408.644L656.426 400.426L664.643 397.437C666.452 396.779 666.452 394.222 664.643 393.564L656.426 390.575L653.437 382.357Z" fill="#FEE333"/>
</g>
<rect x="731" y="310.677" width="25" height="25" rx="5" transform="rotate(-44.9977 731 310.677)" fill="#E10531" fill-opacity="0.5"/>
<rect x="597" y="43.6768" width="25" height="25" rx="5" transform="rotate(-44.9977 597 43.6768)" fill="#9D4EDD" fill-opacity="0.5"/>
<rect x="731" y="314.677" width="25" height="25" rx="5" transform="rotate(-44.9977 731 314.677)" fill="#E10531" fill-opacity="0.5"/>
<g filter="url(#filter0_d_1189_1149)">
<path d="M223.451 159.2L211.751 156.7C206.617 155.567 203.017 153.667 200.951 151C198.951 148.333 197.951 144.567 197.951 139.7C197.951 132.367 199.884 126.967 203.751 123.5C207.617 120.033 213.717 118.3 222.051 118.3C225.651 118.3 228.884 118.467 231.751 118.8C234.617 119.067 237.084 119.5 239.151 120.1V136.6C234.417 135.8 230.951 135.333 228.751 135.2C226.551 135 224.284 134.9 221.951 134.9C219.751 134.9 218.151 135.2 217.151 135.8C216.217 136.4 215.751 137.4 215.751 138.8C215.751 139.533 215.917 140.1 216.251 140.5C216.651 140.9 217.317 141.2 218.251 141.4L229.151 143.8C232.551 144.533 235.084 145.333 236.751 146.2C238.417 147 239.751 148 240.751 149.2C241.884 150.533 242.684 152.233 243.151 154.3C243.684 156.367 243.951 158.867 243.951 161.8C243.951 169.267 241.951 174.7 237.951 178.1C233.951 181.433 227.784 183.1 219.451 183.1C215.184 183.1 211.051 182.867 207.051 182.4C203.117 181.933 200.184 181.333 198.251 180.6V163.1C200.784 163.9 203.984 164.567 207.851 165.1C211.784 165.633 215.684 165.9 219.551 165.9C221.884 165.9 223.517 165.633 224.451 165.1C225.384 164.567 225.851 163.6 225.851 162.2C225.851 161.267 225.684 160.6 225.351 160.2C225.084 159.8 224.451 159.467 223.451 159.2ZM262.586 182H243.486L265.986 119.3H285.286L307.086 182H288.086L285.486 173.3H265.086L262.586 182ZM275.186 137.9C274.519 140.5 273.786 143.2 272.986 146C272.253 148.733 271.553 151.2 270.886 153.4L269.286 158.9H281.286L279.686 153.4C276.686 143.067 275.186 137.9 275.186 137.9ZM329.181 119.3V182H310.681V119.3H329.181ZM387.551 163.4C387.551 169.8 385.651 174.5 381.851 177.5C378.051 180.5 372.117 182 364.051 182H336.951V119.3H364.051C371.317 119.3 376.517 120.567 379.651 123.1C382.784 125.633 384.351 129.833 384.351 135.7C384.351 139.367 383.817 142.233 382.751 144.3C381.684 146.3 379.884 147.767 377.351 148.7C380.884 149.5 383.451 151.1 385.051 153.5C386.717 155.9 387.551 159.2 387.551 163.4ZM367.951 138.9C367.951 137.3 367.617 136.133 366.951 135.4C366.351 134.667 365.317 134.3 363.851 134.3H355.151V144.1H363.851C365.317 144.1 366.351 143.7 366.951 142.9C367.617 142.1 367.951 140.767 367.951 138.9ZM369.451 161.6C369.451 159.8 369.017 158.533 368.151 157.8C367.351 157 365.984 156.6 364.051 156.6H355.151V166.4H364.051C365.984 166.4 367.351 166.033 368.151 165.3C369.017 164.567 369.451 163.333 369.451 161.6ZM406.141 182H387.041L409.541 119.3H428.841L450.641 182H431.641L429.041 173.3H408.641L406.141 182ZM418.741 137.9C418.074 140.5 417.341 143.2 416.541 146C415.807 148.733 415.107 151.2 414.441 153.4L412.841 158.9H424.841L423.241 153.4C420.241 143.067 418.741 137.9 418.741 137.9ZM491.322 159.2L479.622 156.7C474.489 155.567 470.889 153.667 468.822 151C466.822 148.333 465.822 144.567 465.822 139.7C465.822 132.367 467.755 126.967 471.622 123.5C475.489 120.033 481.589 118.3 489.922 118.3C493.522 118.3 496.755 118.467 499.622 118.8C502.489 119.067 504.955 119.5 507.022 120.1V136.6C502.289 135.8 498.822 135.333 496.622 135.2C494.422 135 492.155 134.9 489.822 134.9C487.622 134.9 486.022 135.2 485.022 135.8C484.089 136.4 483.622 137.4 483.622 138.8C483.622 139.533 483.789 140.1 484.122 140.5C484.522 140.9 485.189 141.2 486.122 141.4L497.022 143.8C500.422 144.533 502.955 145.333 504.622 146.2C506.289 147 507.622 148 508.622 149.2C509.755 150.533 510.555 152.233 511.022 154.3C511.555 156.367 511.822 158.867 511.822 161.8C511.822 169.267 509.822 174.7 505.822 178.1C501.822 181.433 495.655 183.1 487.322 183.1C483.055 183.1 478.922 182.867 474.922 182.4C470.989 181.933 468.055 181.333 466.122 180.6V163.1C468.655 163.9 471.855 164.567 475.722 165.1C479.655 165.633 483.555 165.9 487.422 165.9C489.755 165.9 491.389 165.633 492.322 165.1C493.255 164.567 493.722 163.6 493.722 162.2C493.722 161.267 493.555 160.6 493.222 160.2C492.955 159.8 492.322 159.467 491.322 159.2ZM575.627 150.6C575.627 162.067 573.227 170.367 568.427 175.5C563.693 180.567 556.027 183.1 545.427 183.1C534.427 183.1 526.66 180.667 522.127 175.8C517.593 170.933 515.327 162.533 515.327 150.6C515.327 139.267 517.693 131.067 522.427 126C527.227 120.867 534.893 118.3 545.427 118.3C556.427 118.3 564.193 120.733 568.727 125.6C573.327 130.4 575.627 138.733 575.627 150.6ZM534.127 150.6C534.127 156.533 534.827 160.533 536.227 162.6C537.693 164.667 540.76 165.7 545.427 165.7C550.16 165.7 553.227 164.7 554.627 162.7C556.093 160.633 556.827 156.6 556.827 150.6C556.827 144.467 556.093 140.367 554.627 138.3C553.16 136.167 550.093 135.1 545.427 135.1C540.76 135.1 537.693 136.167 536.227 138.3C534.827 140.367 534.127 144.467 534.127 150.6ZM632.18 163.4C632.18 169.8 630.28 174.5 626.48 177.5C622.68 180.5 616.746 182 608.68 182H581.58V119.3H608.68C615.946 119.3 621.146 120.567 624.28 123.1C627.413 125.633 628.98 129.833 628.98 135.7C628.98 139.367 628.446 142.233 627.38 144.3C626.313 146.3 624.513 147.767 621.98 148.7C625.513 149.5 628.08 151.1 629.68 153.5C631.346 155.9 632.18 159.2 632.18 163.4ZM612.58 138.9C612.58 137.3 612.246 136.133 611.58 135.4C610.98 134.667 609.946 134.3 608.48 134.3H599.78V144.1H608.48C609.946 144.1 610.98 143.7 611.58 142.9C612.246 142.1 612.58 140.767 612.58 138.9ZM614.08 161.6C614.08 159.8 613.646 158.533 612.78 157.8C611.98 157 610.613 156.6 608.68 156.6H599.78V166.4H608.68C610.613 166.4 611.98 166.033 612.78 165.3C613.646 164.567 614.08 163.333 614.08 161.6ZM656.037 162.4V182H637.537V119.3H661.037C671.103 119.3 678.203 121 682.337 124.4C686.537 127.733 688.637 133.367 688.637 141.3C688.637 146.033 687.703 149.933 685.837 153C684.037 156.067 681.27 158.367 677.537 159.9L691.237 182H670.037L659.537 162.4H656.037ZM669.737 141.6C669.737 139.533 669.17 138.067 668.037 137.2C666.903 136.333 664.87 135.9 661.937 135.9H656.037V148.2H661.937C664.87 148.2 666.903 147.7 668.037 146.7C669.17 145.7 669.737 144 669.737 141.6ZM739.247 165.3V182H695.447V119.3H738.347V135.6H713.947V142.7H734.647V157.9H713.947V165.3H739.247ZM245.05 267H226.55V204.3H245.05V226.8H262.25V204.3H280.85V267H262.25V243.6H245.05V267ZM303.26 267H284.16L306.66 204.3H325.96L347.76 267H328.76L326.16 258.3H305.76L303.26 267ZM315.86 222.9C315.193 225.5 314.46 228.2 313.66 231C312.926 233.733 312.226 236.2 311.56 238.4L309.96 243.9H321.96L320.36 238.4C317.36 228.067 315.86 222.9 315.86 222.9ZM369.855 247.4V267H351.355V204.3H374.855C384.922 204.3 392.022 206 396.155 209.4C400.355 212.733 402.455 218.367 402.455 226.3C402.455 231.033 401.522 234.933 399.655 238C397.855 241.067 395.088 243.367 391.355 244.9L405.055 267H383.855L373.355 247.4H369.855ZM383.555 226.6C383.555 224.533 382.988 223.067 381.855 222.2C380.722 221.333 378.688 220.9 375.755 220.9H369.855V233.2H375.755C378.688 233.2 380.722 232.7 381.855 231.7C382.988 230.7 383.555 229 383.555 226.6ZM432.765 267H409.265V204.3H432.765C439.032 204.3 444.065 204.833 447.865 205.9C451.665 206.967 454.699 208.7 456.965 211.1C459.232 213.5 460.899 216.7 461.965 220.7C463.032 224.633 463.565 229.6 463.565 235.6C463.565 246.467 461.132 254.433 456.265 259.5C451.399 264.5 443.565 267 432.765 267ZM444.365 235.6C444.365 229.733 443.632 225.8 442.165 223.8C440.765 221.733 437.632 220.7 432.765 220.7H427.765V250.1H432.765C437.632 250.1 440.765 249.1 442.165 247.1C443.632 245.1 444.365 241.267 444.365 235.6ZM479.759 267L463.659 204.3H483.259L488.759 231.4C488.892 232.133 489.059 233.167 489.259 234.5C489.526 235.767 490.126 239.767 491.059 246.5C491.926 239.633 492.426 235.633 492.559 234.5C492.759 233.3 492.926 232.333 493.059 231.6L497.959 204.3H515.859L520.959 231.4C521.159 232.267 521.359 233.467 521.559 235C521.759 236.467 522.259 240.367 523.059 246.7C523.659 242.367 524.126 238.933 524.459 236.4C524.859 233.867 525.126 232.267 525.259 231.6L530.459 204.3H549.459L533.559 267H513.159L510.259 251.9C509.726 248.9 509.159 245.6 508.559 242C507.959 238.333 507.326 234.133 506.659 229.4C506.126 232.933 505.526 236.6 504.859 240.4C504.259 244.2 503.626 248.033 502.959 251.9L500.059 267H479.759ZM562.342 267H543.242L565.742 204.3H585.042L606.842 267H587.842L585.242 258.3H564.842L562.342 267ZM574.942 222.9C574.275 225.5 573.542 228.2 572.742 231C572.008 233.733 571.308 236.2 570.642 238.4L569.042 243.9H581.042L579.442 238.4C576.442 228.067 574.942 222.9 574.942 222.9ZM628.937 247.4V267H610.437V204.3H633.937C644.004 204.3 651.104 206 655.237 209.4C659.437 212.733 661.537 218.367 661.537 226.3C661.537 231.033 660.604 234.933 658.737 238C656.937 241.067 654.17 243.367 650.437 244.9L664.137 267H642.937L632.437 247.4H628.937ZM642.637 226.6C642.637 224.533 642.07 223.067 640.937 222.2C639.804 221.333 637.77 220.9 634.837 220.9H628.937V233.2H634.837C637.77 233.2 639.804 232.7 640.937 231.7C642.07 230.7 642.637 229 642.637 226.6ZM712.147 250.3V267H668.347V204.3H711.247V220.6H686.847V227.7H707.547V242.9H686.847V250.3H712.147Z" fill="#121212"/>
</g>
<g filter="url(#filter1_d_1189_1149)">
<path d="M259.63 316.172C260.666 316.172 261.571 316.377 262.346 316.788C263.121 317.199 263.718 317.777 264.138 318.524C264.567 319.261 264.782 320.115 264.782 321.086C264.782 322.047 264.567 322.901 264.138 323.648C263.718 324.395 263.116 324.973 262.332 325.384C261.557 325.795 260.657 326 259.63 326H255.948V316.172H259.63ZM259.476 323.928C260.381 323.928 261.086 323.681 261.59 323.186C262.094 322.691 262.346 321.991 262.346 321.086C262.346 320.181 262.094 319.476 261.59 318.972C261.086 318.468 260.381 318.216 259.476 318.216H258.342V323.928H259.476ZM273.484 321.968C273.484 322.192 273.47 322.425 273.442 322.668H268.024C268.061 323.153 268.215 323.527 268.486 323.788C268.766 324.04 269.107 324.166 269.508 324.166C270.105 324.166 270.521 323.914 270.754 323.41H273.302C273.171 323.923 272.933 324.385 272.588 324.796C272.252 325.207 271.827 325.529 271.314 325.762C270.801 325.995 270.227 326.112 269.592 326.112C268.827 326.112 268.145 325.949 267.548 325.622C266.951 325.295 266.484 324.829 266.148 324.222C265.812 323.615 265.644 322.906 265.644 322.094C265.644 321.282 265.807 320.573 266.134 319.966C266.47 319.359 266.937 318.893 267.534 318.566C268.131 318.239 268.817 318.076 269.592 318.076C270.348 318.076 271.02 318.235 271.608 318.552C272.196 318.869 272.653 319.322 272.98 319.91C273.316 320.498 273.484 321.184 273.484 321.968ZM271.034 321.338C271.034 320.927 270.894 320.601 270.614 320.358C270.334 320.115 269.984 319.994 269.564 319.994C269.163 319.994 268.822 320.111 268.542 320.344C268.271 320.577 268.103 320.909 268.038 321.338H271.034ZM279.101 323.97V326H277.883C277.015 326 276.338 325.79 275.853 325.37C275.368 324.941 275.125 324.245 275.125 323.284V320.176H274.173V318.188H275.125V316.284H277.519V318.188H279.087V320.176H277.519V323.312C277.519 323.545 277.575 323.713 277.687 323.816C277.799 323.919 277.986 323.97 278.247 323.97H279.101ZM287.798 321.968C287.798 322.192 287.784 322.425 287.756 322.668H282.338C282.376 323.153 282.53 323.527 282.8 323.788C283.08 324.04 283.421 324.166 283.822 324.166C284.42 324.166 284.835 323.914 285.068 323.41H287.616C287.486 323.923 287.248 324.385 286.902 324.796C286.566 325.207 286.142 325.529 285.628 325.762C285.115 325.995 284.541 326.112 283.906 326.112C283.141 326.112 282.46 325.949 281.862 325.622C281.265 325.295 280.798 324.829 280.462 324.222C280.126 323.615 279.958 322.906 279.958 322.094C279.958 321.282 280.122 320.573 280.448 319.966C280.784 319.359 281.251 318.893 281.848 318.566C282.446 318.239 283.132 318.076 283.906 318.076C284.662 318.076 285.334 318.235 285.922 318.552C286.51 318.869 286.968 319.322 287.294 319.91C287.63 320.498 287.798 321.184 287.798 321.968ZM285.348 321.338C285.348 320.927 285.208 320.601 284.928 320.358C284.648 320.115 284.298 319.994 283.878 319.994C283.477 319.994 283.136 320.111 282.856 320.344C282.586 320.577 282.418 320.909 282.352 321.338H285.348ZM288.585 322.094C288.585 321.282 288.749 320.573 289.075 319.966C289.411 319.359 289.873 318.893 290.461 318.566C291.059 318.239 291.74 318.076 292.505 318.076C293.485 318.076 294.302 318.333 294.955 318.846C295.618 319.359 296.052 320.083 296.257 321.016H293.709C293.495 320.419 293.079 320.12 292.463 320.12C292.025 320.12 291.675 320.293 291.413 320.638C291.152 320.974 291.021 321.459 291.021 322.094C291.021 322.729 291.152 323.219 291.413 323.564C291.675 323.9 292.025 324.068 292.463 324.068C293.079 324.068 293.495 323.769 293.709 323.172H296.257C296.052 324.087 295.618 324.805 294.955 325.328C294.293 325.851 293.476 326.112 292.505 326.112C291.74 326.112 291.059 325.949 290.461 325.622C289.873 325.295 289.411 324.829 289.075 324.222C288.749 323.615 288.585 322.906 288.585 322.094ZM301.892 323.97V326H300.674C299.806 326 299.129 325.79 298.644 325.37C298.159 324.941 297.916 324.245 297.916 323.284V320.176H296.964V318.188H297.916V316.284H300.31V318.188H301.878V320.176H300.31V323.312C300.31 323.545 300.366 323.713 300.478 323.816C300.59 323.919 300.777 323.97 301.038 323.97H301.892ZM310.589 321.968C310.589 322.192 310.575 322.425 310.547 322.668H305.129C305.167 323.153 305.321 323.527 305.591 323.788C305.871 324.04 306.212 324.166 306.613 324.166C307.211 324.166 307.626 323.914 307.859 323.41H310.407C310.277 323.923 310.039 324.385 309.693 324.796C309.357 325.207 308.933 325.529 308.419 325.762C307.906 325.995 307.332 326.112 306.697 326.112C305.932 326.112 305.251 325.949 304.653 325.622C304.056 325.295 303.589 324.829 303.253 324.222C302.917 323.615 302.749 322.906 302.749 322.094C302.749 321.282 302.913 320.573 303.239 319.966C303.575 319.359 304.042 318.893 304.639 318.566C305.237 318.239 305.923 318.076 306.697 318.076C307.453 318.076 308.125 318.235 308.713 318.552C309.301 318.869 309.759 319.322 310.085 319.91C310.421 320.498 310.589 321.184 310.589 321.968ZM308.139 321.338C308.139 320.927 307.999 320.601 307.719 320.358C307.439 320.115 307.089 319.994 306.669 319.994C306.268 319.994 305.927 320.111 305.647 320.344C305.377 320.577 305.209 320.909 305.143 321.338H308.139ZM322.183 321.968C322.183 322.192 322.169 322.425 322.141 322.668H316.723C316.761 323.153 316.915 323.527 317.185 323.788C317.465 324.04 317.806 324.166 318.207 324.166C318.805 324.166 319.22 323.914 319.453 323.41H322.001C321.871 323.923 321.633 324.385 321.287 324.796C320.951 325.207 320.527 325.529 320.013 325.762C319.5 325.995 318.926 326.112 318.291 326.112C317.526 326.112 316.845 325.949 316.247 325.622C315.65 325.295 315.183 324.829 314.847 324.222C314.511 323.615 314.343 322.906 314.343 322.094C314.343 321.282 314.507 320.573 314.833 319.966C315.169 319.359 315.636 318.893 316.233 318.566C316.831 318.239 317.517 318.076 318.291 318.076C319.047 318.076 319.719 318.235 320.307 318.552C320.895 318.869 321.353 319.322 321.679 319.91C322.015 320.498 322.183 321.184 322.183 321.968ZM319.733 321.338C319.733 320.927 319.593 320.601 319.313 320.358C319.033 320.115 318.683 319.994 318.263 319.994C317.862 319.994 317.521 320.111 317.241 320.344C316.971 320.577 316.803 320.909 316.737 321.338H319.733ZM330.095 316.172C331.131 316.172 332.036 316.377 332.811 316.788C333.586 317.199 334.183 317.777 334.603 318.524C335.032 319.261 335.247 320.115 335.247 321.086C335.247 322.047 335.032 322.901 334.603 323.648C334.183 324.395 333.581 324.973 332.797 325.384C332.022 325.795 331.122 326 330.095 326H326.413V316.172H330.095ZM329.941 323.928C330.846 323.928 331.551 323.681 332.055 323.186C332.559 322.691 332.811 321.991 332.811 321.086C332.811 320.181 332.559 319.476 332.055 318.972C331.551 318.468 330.846 318.216 329.941 318.216H328.807V323.928H329.941ZM340.141 326.112C339.375 326.112 338.685 325.949 338.069 325.622C337.462 325.295 336.981 324.829 336.627 324.222C336.281 323.615 336.109 322.906 336.109 322.094C336.109 321.291 336.286 320.587 336.641 319.98C336.995 319.364 337.481 318.893 338.097 318.566C338.713 318.239 339.403 318.076 340.169 318.076C340.934 318.076 341.625 318.239 342.241 318.566C342.857 318.893 343.342 319.364 343.697 319.98C344.051 320.587 344.229 321.291 344.229 322.094C344.229 322.897 344.047 323.606 343.683 324.222C343.328 324.829 342.838 325.295 342.213 325.622C341.597 325.949 340.906 326.112 340.141 326.112ZM340.141 324.04C340.598 324.04 340.985 323.872 341.303 323.536C341.629 323.2 341.793 322.719 341.793 322.094C341.793 321.469 341.634 320.988 341.317 320.652C341.009 320.316 340.626 320.148 340.169 320.148C339.702 320.148 339.315 320.316 339.007 320.652C338.699 320.979 338.545 321.459 338.545 322.094C338.545 322.719 338.694 323.2 338.993 323.536C339.301 323.872 339.683 324.04 340.141 324.04ZM352.863 321.968C352.863 322.192 352.849 322.425 352.821 322.668H347.403C347.44 323.153 347.594 323.527 347.865 323.788C348.145 324.04 348.486 324.166 348.887 324.166C349.484 324.166 349.9 323.914 350.133 323.41H352.681C352.55 323.923 352.312 324.385 351.967 324.796C351.631 325.207 351.206 325.529 350.693 325.762C350.18 325.995 349.606 326.112 348.971 326.112C348.206 326.112 347.524 325.949 346.927 325.622C346.33 325.295 345.863 324.829 345.527 324.222C345.191 323.615 345.023 322.906 345.023 322.094C345.023 321.282 345.186 320.573 345.513 319.966C345.849 319.359 346.316 318.893 346.913 318.566C347.51 318.239 348.196 318.076 348.971 318.076C349.727 318.076 350.399 318.235 350.987 318.552C351.575 318.869 352.032 319.322 352.359 319.91C352.695 320.498 352.863 321.184 352.863 321.968ZM350.413 321.338C350.413 320.927 350.273 320.601 349.993 320.358C349.713 320.115 349.363 319.994 348.943 319.994C348.542 319.994 348.201 320.111 347.921 320.344C347.65 320.577 347.482 320.909 347.417 321.338H350.413ZM355.246 326.112C354.826 326.112 354.48 325.991 354.21 325.748C353.948 325.496 353.818 325.188 353.818 324.824C353.818 324.451 353.948 324.138 354.21 323.886C354.48 323.634 354.826 323.508 355.246 323.508C355.656 323.508 355.992 323.634 356.254 323.886C356.524 324.138 356.66 324.451 356.66 324.824C356.66 325.188 356.524 325.496 356.254 325.748C355.992 325.991 355.656 326.112 355.246 326.112ZM355.246 320.414C354.826 320.414 354.48 320.293 354.21 320.05C353.948 319.798 353.818 319.49 353.818 319.126C353.818 318.753 353.948 318.44 354.21 318.188C354.48 317.936 354.826 317.81 355.246 317.81C355.656 317.81 355.992 317.936 356.254 318.188C356.524 318.44 356.66 318.753 356.66 319.126C356.66 319.49 356.524 319.798 356.254 320.05C355.992 320.293 355.656 320.414 355.246 320.414ZM364.912 326.098C364.231 326.098 363.615 325.981 363.064 325.748C362.523 325.515 362.094 325.179 361.776 324.74C361.459 324.301 361.296 323.783 361.286 323.186H363.386C363.414 323.587 363.554 323.905 363.806 324.138C364.068 324.371 364.422 324.488 364.87 324.488C365.328 324.488 365.687 324.381 365.948 324.166C366.21 323.942 366.34 323.653 366.34 323.298C366.34 323.009 366.252 322.771 366.074 322.584C365.897 322.397 365.673 322.253 365.402 322.15C365.141 322.038 364.777 321.917 364.31 321.786C363.676 321.599 363.158 321.417 362.756 321.24C362.364 321.053 362.024 320.778 361.734 320.414C361.454 320.041 361.314 319.546 361.314 318.93C361.314 318.351 361.459 317.847 361.748 317.418C362.038 316.989 362.444 316.662 362.966 316.438C363.489 316.205 364.086 316.088 364.758 316.088C365.766 316.088 366.583 316.335 367.208 316.83C367.843 317.315 368.193 317.997 368.258 318.874H366.102C366.084 318.538 365.939 318.263 365.668 318.048C365.407 317.824 365.057 317.712 364.618 317.712C364.236 317.712 363.928 317.81 363.694 318.006C363.47 318.202 363.358 318.487 363.358 318.86C363.358 319.121 363.442 319.341 363.61 319.518C363.788 319.686 364.002 319.826 364.254 319.938C364.516 320.041 364.88 320.162 365.346 320.302C365.981 320.489 366.499 320.675 366.9 320.862C367.302 321.049 367.647 321.329 367.936 321.702C368.226 322.075 368.37 322.565 368.37 323.172C368.37 323.695 368.235 324.18 367.964 324.628C367.694 325.076 367.297 325.435 366.774 325.706C366.252 325.967 365.631 326.098 364.912 326.098ZM377.28 321.954C377.28 322.234 377.261 322.486 377.224 322.71H371.554C371.6 323.27 371.796 323.709 372.142 324.026C372.487 324.343 372.912 324.502 373.416 324.502C374.144 324.502 374.662 324.189 374.97 323.564H377.084C376.86 324.311 376.43 324.927 375.796 325.412C375.161 325.888 374.382 326.126 373.458 326.126C372.711 326.126 372.039 325.963 371.442 325.636C370.854 325.3 370.392 324.829 370.056 324.222C369.729 323.615 369.566 322.915 369.566 322.122C369.566 321.319 369.729 320.615 370.056 320.008C370.382 319.401 370.84 318.935 371.428 318.608C372.016 318.281 372.692 318.118 373.458 318.118C374.195 318.118 374.853 318.277 375.432 318.594C376.02 318.911 376.472 319.364 376.79 319.952C377.116 320.531 377.28 321.198 377.28 321.954ZM375.25 321.394C375.24 320.89 375.058 320.489 374.704 320.19C374.349 319.882 373.915 319.728 373.402 319.728C372.916 319.728 372.506 319.877 372.17 320.176C371.843 320.465 371.642 320.871 371.568 321.394H375.25ZM379.704 317.32C379.349 317.32 379.055 317.213 378.822 316.998C378.598 316.774 378.486 316.499 378.486 316.172C378.486 315.845 378.598 315.575 378.822 315.36C379.055 315.136 379.349 315.024 379.704 315.024C380.049 315.024 380.334 315.136 380.558 315.36C380.782 315.575 380.894 315.845 380.894 316.172C380.894 316.499 380.782 316.774 380.558 316.998C380.334 317.213 380.049 317.32 379.704 317.32ZM380.67 327.274C380.67 328.133 380.455 328.749 380.026 329.122C379.606 329.505 378.999 329.696 378.206 329.696H377.338V328.03H377.898C378.197 328.03 378.407 327.969 378.528 327.848C378.649 327.736 378.71 327.549 378.71 327.288V318.244H380.67V327.274ZM382.103 322.094C382.103 321.31 382.257 320.615 382.565 320.008C382.882 319.401 383.307 318.935 383.839 318.608C384.38 318.281 384.982 318.118 385.645 318.118C386.223 318.118 386.727 318.235 387.157 318.468C387.595 318.701 387.945 318.995 388.207 319.35V318.244H390.181V326H388.207V324.866C387.955 325.23 387.605 325.533 387.157 325.776C386.718 326.009 386.209 326.126 385.631 326.126C384.977 326.126 384.38 325.958 383.839 325.622C383.307 325.286 382.882 324.815 382.565 324.208C382.257 323.592 382.103 322.887 382.103 322.094ZM388.207 322.122C388.207 321.646 388.113 321.24 387.927 320.904C387.74 320.559 387.488 320.297 387.171 320.12C386.853 319.933 386.513 319.84 386.149 319.84C385.785 319.84 385.449 319.929 385.141 320.106C384.833 320.283 384.581 320.545 384.385 320.89C384.198 321.226 384.105 321.627 384.105 322.094C384.105 322.561 384.198 322.971 384.385 323.326C384.581 323.671 384.833 323.937 385.141 324.124C385.458 324.311 385.794 324.404 386.149 324.404C386.513 324.404 386.853 324.315 387.171 324.138C387.488 323.951 387.74 323.69 387.927 323.354C388.113 323.009 388.207 322.598 388.207 322.122ZM398.875 326.126C398.128 326.126 397.456 325.963 396.859 325.636C396.262 325.3 395.79 324.829 395.445 324.222C395.109 323.615 394.941 322.915 394.941 322.122C394.941 321.329 395.114 320.629 395.459 320.022C395.814 319.415 396.294 318.949 396.901 318.622C397.508 318.286 398.184 318.118 398.931 318.118C399.678 318.118 400.354 318.286 400.961 318.622C401.568 318.949 402.044 319.415 402.389 320.022C402.744 320.629 402.921 321.329 402.921 322.122C402.921 322.915 402.739 323.615 402.375 324.222C402.02 324.829 401.535 325.3 400.919 325.636C400.312 325.963 399.631 326.126 398.875 326.126ZM398.875 324.418C399.23 324.418 399.561 324.334 399.869 324.166C400.186 323.989 400.438 323.727 400.625 323.382C400.812 323.037 400.905 322.617 400.905 322.122C400.905 321.385 400.709 320.82 400.317 320.428C399.934 320.027 399.463 319.826 398.903 319.826C398.343 319.826 397.872 320.027 397.489 320.428C397.116 320.82 396.929 321.385 396.929 322.122C396.929 322.859 397.111 323.429 397.475 323.83C397.848 324.222 398.315 324.418 398.875 324.418ZM412.063 318.132C412.651 318.132 413.173 318.263 413.631 318.524C414.088 318.776 414.443 319.154 414.695 319.658C414.956 320.153 415.087 320.75 415.087 321.45V326H413.127V321.716C413.127 321.1 412.973 320.629 412.665 320.302C412.357 319.966 411.937 319.798 411.405 319.798C410.863 319.798 410.434 319.966 410.117 320.302C409.809 320.629 409.655 321.1 409.655 321.716V326H407.695V315.64H409.655V319.21C409.907 318.874 410.243 318.613 410.663 318.426C411.083 318.23 411.549 318.132 412.063 318.132ZM424.16 321.954C424.16 322.234 424.142 322.486 424.104 322.71H418.434C418.481 323.27 418.677 323.709 419.022 324.026C419.368 324.343 419.792 324.502 420.296 324.502C421.024 324.502 421.542 324.189 421.85 323.564H423.964C423.74 324.311 423.311 324.927 422.676 325.412C422.042 325.888 421.262 326.126 420.338 326.126C419.592 326.126 418.92 325.963 418.322 325.636C417.734 325.3 417.272 324.829 416.936 324.222C416.61 323.615 416.446 322.915 416.446 322.122C416.446 321.319 416.61 320.615 416.936 320.008C417.263 319.401 417.72 318.935 418.308 318.608C418.896 318.281 419.573 318.118 420.338 318.118C421.076 318.118 421.734 318.277 422.312 318.594C422.9 318.911 423.353 319.364 423.67 319.952C423.997 320.531 424.16 321.198 424.16 321.954ZM422.13 321.394C422.121 320.89 421.939 320.489 421.584 320.19C421.23 319.882 420.796 319.728 420.282 319.728C419.797 319.728 419.386 319.877 419.05 320.176C418.724 320.465 418.523 320.871 418.448 321.394H422.13ZM427.551 319.448C427.803 319.037 428.13 318.715 428.531 318.482C428.942 318.249 429.408 318.132 429.931 318.132V320.19H429.413C428.797 320.19 428.33 320.335 428.013 320.624C427.705 320.913 427.551 321.417 427.551 322.136V326H425.591V318.244H427.551V319.448ZM434.695 326.126C433.948 326.126 433.276 325.963 432.679 325.636C432.082 325.3 431.61 324.829 431.265 324.222C430.929 323.615 430.761 322.915 430.761 322.122C430.761 321.329 430.934 320.629 431.279 320.022C431.634 319.415 432.114 318.949 432.721 318.622C433.328 318.286 434.004 318.118 434.751 318.118C435.498 318.118 436.174 318.286 436.781 318.622C437.388 318.949 437.864 319.415 438.209 320.022C438.564 320.629 438.741 321.329 438.741 322.122C438.741 322.915 438.559 323.615 438.195 324.222C437.84 324.829 437.355 325.3 436.739 325.636C436.132 325.963 435.451 326.126 434.695 326.126ZM434.695 324.418C435.05 324.418 435.381 324.334 435.689 324.166C436.006 323.989 436.258 323.727 436.445 323.382C436.632 323.037 436.725 322.617 436.725 322.122C436.725 321.385 436.529 320.82 436.137 320.428C435.754 320.027 435.283 319.826 434.723 319.826C434.163 319.826 433.692 320.027 433.309 320.428C432.936 320.82 432.749 321.385 432.749 322.122C432.749 322.859 432.931 323.429 433.295 323.83C433.668 324.222 434.135 324.418 434.695 324.418ZM436.361 316.13L433.141 317.6V316.2L436.361 314.534V316.13ZM441.173 317.32C440.828 317.32 440.538 317.213 440.305 316.998C440.081 316.774 439.969 316.499 439.969 316.172C439.969 315.845 440.081 315.575 440.305 315.36C440.538 315.136 440.828 315.024 441.173 315.024C441.518 315.024 441.803 315.136 442.027 315.36C442.26 315.575 442.377 315.845 442.377 316.172C442.377 316.499 442.26 316.774 442.027 316.998C441.803 317.213 441.518 317.32 441.173 317.32ZM442.139 318.244V326H440.179V318.244H442.139ZM446.907 322.094C446.907 321.31 447.061 320.615 447.369 320.008C447.687 319.401 448.116 318.935 448.657 318.608C449.199 318.281 449.801 318.118 450.463 318.118C450.967 318.118 451.448 318.23 451.905 318.454C452.363 318.669 452.727 318.958 452.997 319.322V315.64H454.985V326H452.997V324.852C452.755 325.235 452.414 325.543 451.975 325.776C451.537 326.009 451.028 326.126 450.449 326.126C449.796 326.126 449.199 325.958 448.657 325.622C448.116 325.286 447.687 324.815 447.369 324.208C447.061 323.592 446.907 322.887 446.907 322.094ZM453.011 322.122C453.011 321.646 452.918 321.24 452.731 320.904C452.545 320.559 452.293 320.297 451.975 320.12C451.658 319.933 451.317 319.84 450.953 319.84C450.589 319.84 450.253 319.929 449.945 320.106C449.637 320.283 449.385 320.545 449.189 320.89C449.003 321.226 448.909 321.627 448.909 322.094C448.909 322.561 449.003 322.971 449.189 323.326C449.385 323.671 449.637 323.937 449.945 324.124C450.263 324.311 450.599 324.404 450.953 324.404C451.317 324.404 451.658 324.315 451.975 324.138C452.293 323.951 452.545 323.69 452.731 323.354C452.918 323.009 453.011 322.598 453.011 322.122ZM460.344 326.126C459.597 326.126 458.925 325.963 458.328 325.636C457.73 325.3 457.259 324.829 456.914 324.222C456.578 323.615 456.41 322.915 456.41 322.122C456.41 321.329 456.582 320.629 456.928 320.022C457.282 319.415 457.763 318.949 458.37 318.622C458.976 318.286 459.653 318.118 460.4 318.118C461.146 318.118 461.823 318.286 462.43 318.622C463.036 318.949 463.512 319.415 463.858 320.022C464.212 320.629 464.39 321.329 464.39 322.122C464.39 322.915 464.208 323.615 463.844 324.222C463.489 324.829 463.004 325.3 462.388 325.636C461.781 325.963 461.1 326.126 460.344 326.126ZM460.344 324.418C460.698 324.418 461.03 324.334 461.338 324.166C461.655 323.989 461.907 323.727 462.094 323.382C462.28 323.037 462.374 322.617 462.374 322.122C462.374 321.385 462.178 320.82 461.786 320.428C461.403 320.027 460.932 319.826 460.372 319.826C459.812 319.826 459.34 320.027 458.958 320.428C458.584 320.82 458.398 321.385 458.398 322.122C458.398 322.859 458.58 323.429 458.944 323.83C459.317 324.222 459.784 324.418 460.344 324.418ZM472.131 326.126C471.497 326.126 470.927 326.014 470.423 325.79C469.919 325.557 469.518 325.244 469.219 324.852C468.93 324.46 468.771 324.026 468.743 323.55H470.717C470.755 323.849 470.899 324.096 471.151 324.292C471.413 324.488 471.735 324.586 472.117 324.586C472.491 324.586 472.78 324.511 472.985 324.362C473.2 324.213 473.307 324.021 473.307 323.788C473.307 323.536 473.177 323.349 472.915 323.228C472.663 323.097 472.257 322.957 471.697 322.808C471.119 322.668 470.643 322.523 470.269 322.374C469.905 322.225 469.588 321.996 469.317 321.688C469.056 321.38 468.925 320.965 468.925 320.442C468.925 320.013 469.047 319.621 469.289 319.266C469.541 318.911 469.896 318.631 470.353 318.426C470.82 318.221 471.366 318.118 471.991 318.118C472.915 318.118 473.653 318.351 474.203 318.818C474.754 319.275 475.057 319.896 475.113 320.68H473.237C473.209 320.372 473.079 320.129 472.845 319.952C472.621 319.765 472.318 319.672 471.935 319.672C471.581 319.672 471.305 319.737 471.109 319.868C470.923 319.999 470.829 320.181 470.829 320.414C470.829 320.675 470.96 320.876 471.221 321.016C471.483 321.147 471.889 321.282 472.439 321.422C472.999 321.562 473.461 321.707 473.825 321.856C474.189 322.005 474.502 322.239 474.763 322.556C475.034 322.864 475.174 323.275 475.183 323.788C475.183 324.236 475.057 324.637 474.805 324.992C474.563 325.347 474.208 325.627 473.741 325.832C473.284 326.028 472.747 326.126 472.131 326.126ZM484.002 321.954C484.002 322.234 483.984 322.486 483.946 322.71H478.276C478.323 323.27 478.519 323.709 478.864 324.026C479.21 324.343 479.634 324.502 480.138 324.502C480.866 324.502 481.384 324.189 481.692 323.564H483.806C483.582 324.311 483.153 324.927 482.518 325.412C481.884 325.888 481.104 326.126 480.18 326.126C479.434 326.126 478.762 325.963 478.164 325.636C477.576 325.3 477.114 324.829 476.778 324.222C476.452 323.615 476.288 322.915 476.288 322.122C476.288 321.319 476.452 320.615 476.778 320.008C477.105 319.401 477.562 318.935 478.15 318.608C478.738 318.281 479.415 318.118 480.18 318.118C480.918 318.118 481.576 318.277 482.154 318.594C482.742 318.911 483.195 319.364 483.512 319.952C483.839 320.531 484.002 321.198 484.002 321.954ZM481.972 321.394C481.963 320.89 481.781 320.489 481.426 320.19C481.072 319.882 480.638 319.728 480.124 319.728C479.639 319.728 479.228 319.877 478.892 320.176C478.566 320.465 478.365 320.871 478.29 321.394H481.972ZM492.755 318.244V326H490.781V325.02C490.529 325.356 490.197 325.622 489.787 325.818C489.385 326.005 488.947 326.098 488.471 326.098C487.864 326.098 487.327 325.972 486.861 325.72C486.394 325.459 486.025 325.081 485.755 324.586C485.493 324.082 485.363 323.485 485.363 322.794V318.244H487.323V322.514C487.323 323.13 487.477 323.606 487.785 323.942C488.093 324.269 488.513 324.432 489.045 324.432C489.586 324.432 490.011 324.269 490.319 323.942C490.627 323.606 490.781 323.13 490.781 322.514V318.244H492.755ZM570.837 323.942L569.199 327.876H567.939L568.849 323.942H570.837ZM575.081 322.094C575.081 321.31 575.235 320.615 575.543 320.008C575.86 319.401 576.29 318.935 576.831 318.608C577.372 318.281 577.974 318.118 578.637 318.118C579.141 318.118 579.622 318.23 580.079 318.454C580.536 318.669 580.9 318.958 581.171 319.322V315.64H583.159V326H581.171V324.852C580.928 325.235 580.588 325.543 580.149 325.776C579.71 326.009 579.202 326.126 578.623 326.126C577.97 326.126 577.372 325.958 576.831 325.622C576.29 325.286 575.86 324.815 575.543 324.208C575.235 323.592 575.081 322.887 575.081 322.094ZM581.185 322.122C581.185 321.646 581.092 321.24 580.905 320.904C580.718 320.559 580.466 320.297 580.149 320.12C579.832 319.933 579.491 319.84 579.127 319.84C578.763 319.84 578.427 319.929 578.119 320.106C577.811 320.283 577.559 320.545 577.363 320.89C577.176 321.226 577.083 321.627 577.083 322.094C577.083 322.561 577.176 322.971 577.363 323.326C577.559 323.671 577.811 323.937 578.119 324.124C578.436 324.311 578.772 324.404 579.127 324.404C579.491 324.404 579.832 324.315 580.149 324.138C580.466 323.951 580.718 323.69 580.905 323.354C581.092 323.009 581.185 322.598 581.185 322.122ZM588.517 326.126C587.771 326.126 587.099 325.963 586.501 325.636C585.904 325.3 585.433 324.829 585.087 324.222C584.751 323.615 584.583 322.915 584.583 322.122C584.583 321.329 584.756 320.629 585.101 320.022C585.456 319.415 585.937 318.949 586.543 318.622C587.15 318.286 587.827 318.118 588.573 318.118C589.32 318.118 589.997 318.286 590.603 318.622C591.21 318.949 591.686 319.415 592.031 320.022C592.386 320.629 592.563 321.329 592.563 322.122C592.563 322.915 592.381 323.615 592.017 324.222C591.663 324.829 591.177 325.3 590.561 325.636C589.955 325.963 589.273 326.126 588.517 326.126ZM588.517 324.418C588.872 324.418 589.203 324.334 589.511 324.166C589.829 323.989 590.081 323.727 590.267 323.382C590.454 323.037 590.547 322.617 590.547 322.122C590.547 321.385 590.351 320.82 589.959 320.428C589.577 320.027 589.105 319.826 588.545 319.826C587.985 319.826 587.514 320.027 587.131 320.428C586.758 320.82 586.571 321.385 586.571 322.122C586.571 322.859 586.753 323.429 587.117 323.83C587.491 324.222 587.957 324.418 588.517 324.418ZM593.497 322.094C593.497 321.31 593.651 320.615 593.959 320.008C594.276 319.401 594.701 318.935 595.233 318.608C595.774 318.281 596.376 318.118 597.039 318.118C597.618 318.118 598.122 318.235 598.551 318.468C598.99 318.701 599.34 318.995 599.601 319.35V318.244H601.575V326H599.601V324.866C599.349 325.23 598.999 325.533 598.551 325.776C598.112 326.009 597.604 326.126 597.025 326.126C596.372 326.126 595.774 325.958 595.233 325.622C594.701 325.286 594.276 324.815 593.959 324.208C593.651 323.592 593.497 322.887 593.497 322.094ZM599.601 322.122C599.601 321.646 599.508 321.24 599.321 320.904C599.134 320.559 598.882 320.297 598.565 320.12C598.248 319.933 597.907 319.84 597.543 319.84C597.179 319.84 596.843 319.929 596.535 320.106C596.227 320.283 595.975 320.545 595.779 320.89C595.592 321.226 595.499 321.627 595.499 322.094C595.499 322.561 595.592 322.971 595.779 323.326C595.975 323.671 596.227 323.937 596.535 324.124C596.852 324.311 597.188 324.404 597.543 324.404C597.907 324.404 598.248 324.315 598.565 324.138C598.882 323.951 599.134 323.69 599.321 323.354C599.508 323.009 599.601 322.598 599.601 322.122ZM607.787 318.132C608.711 318.132 609.458 318.426 610.027 319.014C610.597 319.593 610.881 320.405 610.881 321.45V326H608.921V321.716C608.921 321.1 608.767 320.629 608.459 320.302C608.151 319.966 607.731 319.798 607.199 319.798C606.658 319.798 606.229 319.966 605.911 320.302C605.603 320.629 605.449 321.1 605.449 321.716V326H603.489V318.244H605.449V319.21C605.711 318.874 606.042 318.613 606.443 318.426C606.854 318.23 607.302 318.132 607.787 318.132ZM612.241 322.094C612.241 321.31 612.395 320.615 612.703 320.008C613.021 319.401 613.45 318.935 613.991 318.608C614.533 318.281 615.135 318.118 615.797 318.118C616.301 318.118 616.782 318.23 617.239 318.454C617.697 318.669 618.061 318.958 618.331 319.322V315.64H620.319V326H618.331V324.852C618.089 325.235 617.748 325.543 617.309 325.776C616.871 326.009 616.362 326.126 615.783 326.126C615.13 326.126 614.533 325.958 613.991 325.622C613.45 325.286 613.021 324.815 612.703 324.208C612.395 323.592 612.241 322.887 612.241 322.094ZM618.345 322.122C618.345 321.646 618.252 321.24 618.065 320.904C617.879 320.559 617.627 320.297 617.309 320.12C616.992 319.933 616.651 319.84 616.287 319.84C615.923 319.84 615.587 319.929 615.279 320.106C614.971 320.283 614.719 320.545 614.523 320.89C614.337 321.226 614.243 321.627 614.243 322.094C614.243 322.561 614.337 322.971 614.523 323.326C614.719 323.671 614.971 323.937 615.279 324.124C615.597 324.311 615.933 324.404 616.287 324.404C616.651 324.404 616.992 324.315 617.309 324.138C617.627 323.951 617.879 323.69 618.065 323.354C618.252 323.009 618.345 322.598 618.345 322.122ZM625.678 326.126C624.931 326.126 624.259 325.963 623.662 325.636C623.064 325.3 622.593 324.829 622.248 324.222C621.912 323.615 621.744 322.915 621.744 322.122C621.744 321.329 621.916 320.629 622.262 320.022C622.616 319.415 623.097 318.949 623.704 318.622C624.31 318.286 624.987 318.118 625.734 318.118C626.48 318.118 627.157 318.286 627.764 318.622C628.37 318.949 628.846 319.415 629.192 320.022C629.546 320.629 629.724 321.329 629.724 322.122C629.724 322.915 629.542 323.615 629.178 324.222C628.823 324.829 628.338 325.3 627.722 325.636C627.115 325.963 626.434 326.126 625.678 326.126ZM625.678 324.418C626.032 324.418 626.364 324.334 626.672 324.166C626.989 323.989 627.241 323.727 627.428 323.382C627.614 323.037 627.708 322.617 627.708 322.122C627.708 321.385 627.512 320.82 627.12 320.428C626.737 320.027 626.266 319.826 625.706 319.826C625.146 319.826 624.674 320.027 624.292 320.428C623.918 320.82 623.732 321.385 623.732 322.122C623.732 322.859 623.914 323.429 624.278 323.83C624.651 324.222 625.118 324.418 625.678 324.418ZM636.457 319.364C636.709 319.009 637.055 318.715 637.493 318.482C637.941 318.239 638.45 318.118 639.019 318.118C639.682 318.118 640.279 318.281 640.811 318.608C641.353 318.935 641.777 319.401 642.085 320.008C642.403 320.605 642.561 321.301 642.561 322.094C642.561 322.887 642.403 323.592 642.085 324.208C641.777 324.815 641.353 325.286 640.811 325.622C640.279 325.958 639.682 326.126 639.019 326.126C638.45 326.126 637.946 326.009 637.507 325.776C637.078 325.543 636.728 325.249 636.457 324.894V329.696H634.497V318.244H636.457V319.364ZM640.559 322.094C640.559 321.627 640.461 321.226 640.265 320.89C640.079 320.545 639.827 320.283 639.509 320.106C639.201 319.929 638.865 319.84 638.501 319.84C638.147 319.84 637.811 319.933 637.493 320.12C637.185 320.297 636.933 320.559 636.737 320.904C636.551 321.249 636.457 321.655 636.457 322.122C636.457 322.589 636.551 322.995 636.737 323.34C636.933 323.685 637.185 323.951 637.493 324.138C637.811 324.315 638.147 324.404 638.501 324.404C638.865 324.404 639.201 324.311 639.509 324.124C639.827 323.937 640.079 323.671 640.265 323.326C640.461 322.981 640.559 322.57 640.559 322.094ZM643.482 322.094C643.482 321.31 643.636 320.615 643.944 320.008C644.261 319.401 644.686 318.935 645.218 318.608C645.759 318.281 646.361 318.118 647.024 318.118C647.602 318.118 648.106 318.235 648.536 318.468C648.974 318.701 649.324 318.995 649.586 319.35V318.244H651.56V326H649.586V324.866C649.334 325.23 648.984 325.533 648.536 325.776C648.097 326.009 647.588 326.126 647.01 326.126C646.356 326.126 645.759 325.958 645.218 325.622C644.686 325.286 644.261 324.815 643.944 324.208C643.636 323.592 643.482 322.887 643.482 322.094ZM649.586 322.122C649.586 321.646 649.492 321.24 649.306 320.904C649.119 320.559 648.867 320.297 648.55 320.12C648.232 319.933 647.892 319.84 647.528 319.84C647.164 319.84 646.828 319.929 646.52 320.106C646.212 320.283 645.96 320.545 645.764 320.89C645.577 321.226 645.484 321.627 645.484 322.094C645.484 322.561 645.577 322.971 645.764 323.326C645.96 323.671 646.212 323.937 646.52 324.124C646.837 324.311 647.173 324.404 647.528 324.404C647.892 324.404 648.232 324.315 648.55 324.138C648.867 323.951 649.119 323.69 649.306 323.354C649.492 323.009 649.586 322.598 649.586 322.122ZM655.434 319.448C655.686 319.037 656.012 318.715 656.414 318.482C656.824 318.249 657.291 318.132 657.814 318.132V320.19H657.296C656.68 320.19 656.213 320.335 655.896 320.624C655.588 320.913 655.434 321.417 655.434 322.136V326H653.474V318.244H655.434V319.448ZM658.63 322.094C658.63 321.31 658.784 320.615 659.092 320.008C659.409 319.401 659.834 318.935 660.366 318.608C660.907 318.281 661.509 318.118 662.172 318.118C662.751 318.118 663.255 318.235 663.684 318.468C664.123 318.701 664.473 318.995 664.734 319.35V318.244H666.708V326H664.734V324.866C664.482 325.23 664.132 325.533 663.684 325.776C663.245 326.009 662.737 326.126 662.158 326.126C661.505 326.126 660.907 325.958 660.366 325.622C659.834 325.286 659.409 324.815 659.092 324.208C658.784 323.592 658.63 322.887 658.63 322.094ZM664.734 322.122C664.734 321.646 664.641 321.24 664.454 320.904C664.267 320.559 664.015 320.297 663.698 320.12C663.381 319.933 663.04 319.84 662.676 319.84C662.312 319.84 661.976 319.929 661.668 320.106C661.36 320.283 661.108 320.545 660.912 320.89C660.725 321.226 660.632 321.627 660.632 322.094C660.632 322.561 660.725 322.971 660.912 323.326C661.108 323.671 661.36 323.937 661.668 324.124C661.985 324.311 662.321 324.404 662.676 324.404C663.04 324.404 663.381 324.315 663.698 324.138C664.015 323.951 664.267 323.69 664.454 323.354C664.641 323.009 664.734 322.598 664.734 322.122ZM675.402 326.126C674.656 326.126 673.984 325.963 673.386 325.636C672.789 325.3 672.318 324.829 671.972 324.222C671.636 323.615 671.468 322.915 671.468 322.122C671.468 321.329 671.641 320.629 671.986 320.022C672.341 319.415 672.822 318.949 673.428 318.622C674.035 318.286 674.712 318.118 675.458 318.118C676.205 318.118 676.882 318.286 677.488 318.622C678.095 318.949 678.571 319.415 678.916 320.022C679.271 320.629 679.448 321.329 679.448 322.122C679.448 322.915 679.266 323.615 678.902 324.222C678.548 324.829 678.062 325.3 677.446 325.636C676.84 325.963 676.158 326.126 675.402 326.126ZM675.402 324.418C675.757 324.418 676.088 324.334 676.396 324.166C676.714 323.989 676.966 323.727 677.152 323.382C677.339 323.037 677.432 322.617 677.432 322.122C677.432 321.385 677.236 320.82 676.844 320.428C676.462 320.027 675.99 319.826 675.43 319.826C674.87 319.826 674.399 320.027 674.016 320.428C673.643 320.82 673.456 321.385 673.456 322.122C673.456 322.859 673.638 323.429 674.002 323.83C674.376 324.222 674.842 324.418 675.402 324.418ZM388.449 342.954C388.449 343.234 388.431 343.486 388.393 343.71H382.723C382.77 344.27 382.966 344.709 383.311 345.026C383.657 345.343 384.081 345.502 384.585 345.502C385.313 345.502 385.831 345.189 386.139 344.564H388.253C388.029 345.311 387.6 345.927 386.965 346.412C386.331 346.888 385.551 347.126 384.627 347.126C383.881 347.126 383.209 346.963 382.611 346.636C382.023 346.3 381.561 345.829 381.225 345.222C380.899 344.615 380.735 343.915 380.735 343.122C380.735 342.319 380.899 341.615 381.225 341.008C381.552 340.401 382.009 339.935 382.597 339.608C383.185 339.281 383.862 339.118 384.627 339.118C385.365 339.118 386.023 339.277 386.601 339.594C387.189 339.911 387.642 340.364 387.959 340.952C388.286 341.531 388.449 342.198 388.449 342.954ZM386.419 342.394C386.41 341.89 386.228 341.489 385.873 341.19C385.519 340.882 385.085 340.728 384.571 340.728C384.086 340.728 383.675 340.877 383.339 341.176C383.013 341.465 382.812 341.871 382.737 342.394H386.419ZM389.376 343.122C389.376 342.319 389.539 341.619 389.866 341.022C390.193 340.415 390.645 339.949 391.224 339.622C391.803 339.286 392.465 339.118 393.212 339.118C394.173 339.118 394.967 339.361 395.592 339.846C396.227 340.322 396.651 340.994 396.866 341.862H394.752C394.64 341.526 394.449 341.265 394.178 341.078C393.917 340.882 393.59 340.784 393.198 340.784C392.638 340.784 392.195 340.989 391.868 341.4C391.541 341.801 391.378 342.375 391.378 343.122C391.378 343.859 391.541 344.433 391.868 344.844C392.195 345.245 392.638 345.446 393.198 345.446C393.991 345.446 394.509 345.091 394.752 344.382H396.866C396.651 345.222 396.227 345.889 395.592 346.384C394.957 346.879 394.164 347.126 393.212 347.126C392.465 347.126 391.803 346.963 391.224 346.636C390.645 346.3 390.193 345.833 389.866 345.236C389.539 344.629 389.376 343.925 389.376 343.122ZM401.746 347.126C400.999 347.126 400.327 346.963 399.73 346.636C399.133 346.3 398.661 345.829 398.316 345.222C397.98 344.615 397.812 343.915 397.812 343.122C397.812 342.329 397.985 341.629 398.33 341.022C398.685 340.415 399.165 339.949 399.772 339.622C400.379 339.286 401.055 339.118 401.802 339.118C402.549 339.118 403.225 339.286 403.832 339.622C404.439 339.949 404.915 340.415 405.26 341.022C405.615 341.629 405.792 342.329 405.792 343.122C405.792 343.915 405.61 344.615 405.246 345.222C404.891 345.829 404.406 346.3 403.79 346.636C403.183 346.963 402.502 347.126 401.746 347.126ZM401.746 345.418C402.101 345.418 402.432 345.334 402.74 345.166C403.057 344.989 403.309 344.727 403.496 344.382C403.683 344.037 403.776 343.617 403.776 343.122C403.776 342.385 403.58 341.82 403.188 341.428C402.805 341.027 402.334 340.826 401.774 340.826C401.214 340.826 400.743 341.027 400.36 341.428C399.987 341.82 399.8 342.385 399.8 343.122C399.8 343.859 399.982 344.429 400.346 344.83C400.719 345.222 401.186 345.418 401.746 345.418ZM409.19 340.364C409.442 340.009 409.787 339.715 410.226 339.482C410.674 339.239 411.182 339.118 411.752 339.118C412.414 339.118 413.012 339.281 413.544 339.608C414.085 339.935 414.51 340.401 414.818 341.008C415.135 341.605 415.294 342.301 415.294 343.094C415.294 343.887 415.135 344.592 414.818 345.208C414.51 345.815 414.085 346.286 413.544 346.622C413.012 346.958 412.414 347.126 411.752 347.126C411.182 347.126 410.678 347.009 410.24 346.776C409.81 346.543 409.46 346.249 409.19 345.894V350.696H407.23V339.244H409.19V340.364ZM413.292 343.094C413.292 342.627 413.194 342.226 412.998 341.89C412.811 341.545 412.559 341.283 412.242 341.106C411.934 340.929 411.598 340.84 411.234 340.84C410.879 340.84 410.543 340.933 410.226 341.12C409.918 341.297 409.666 341.559 409.47 341.904C409.283 342.249 409.19 342.655 409.19 343.122C409.19 343.589 409.283 343.995 409.47 344.34C409.666 344.685 409.918 344.951 410.226 345.138C410.543 345.315 410.879 345.404 411.234 345.404C411.598 345.404 411.934 345.311 412.242 345.124C412.559 344.937 412.811 344.671 412.998 344.326C413.194 343.981 413.292 343.57 413.292 343.094ZM420.162 347.126C419.415 347.126 418.743 346.963 418.146 346.636C417.549 346.3 417.077 345.829 416.732 345.222C416.396 344.615 416.228 343.915 416.228 343.122C416.228 342.329 416.401 341.629 416.746 341.022C417.101 340.415 417.581 339.949 418.188 339.622C418.795 339.286 419.471 339.118 420.218 339.118C420.965 339.118 421.641 339.286 422.248 339.622C422.855 339.949 423.331 340.415 423.676 341.022C424.031 341.629 424.208 342.329 424.208 343.122C424.208 343.915 424.026 344.615 423.662 345.222C423.307 345.829 422.822 346.3 422.206 346.636C421.599 346.963 420.918 347.126 420.162 347.126ZM420.162 345.418C420.517 345.418 420.848 345.334 421.156 345.166C421.473 344.989 421.725 344.727 421.912 344.382C422.099 344.037 422.192 343.617 422.192 343.122C422.192 342.385 421.996 341.82 421.604 341.428C421.221 341.027 420.75 340.826 420.19 340.826C419.63 340.826 419.159 341.027 418.776 341.428C418.403 341.82 418.216 342.385 418.216 343.122C418.216 343.859 418.398 344.429 418.762 344.83C419.135 345.222 419.602 345.418 420.162 345.418ZM429.944 339.132C430.868 339.132 431.614 339.426 432.184 340.014C432.753 340.593 433.038 341.405 433.038 342.45V347H431.078V342.716C431.078 342.1 430.924 341.629 430.616 341.302C430.308 340.966 429.888 340.798 429.356 340.798C428.814 340.798 428.385 340.966 428.068 341.302C427.76 341.629 427.606 342.1 427.606 342.716V347H425.646V339.244H427.606V340.21C427.867 339.874 428.198 339.613 428.6 339.426C429.01 339.23 429.458 339.132 429.944 339.132ZM437.184 340.854V344.606C437.184 344.867 437.244 345.059 437.366 345.18C437.496 345.292 437.711 345.348 438.01 345.348H438.92V347H437.688C436.036 347 435.21 346.197 435.21 344.592V340.854H434.286V339.244H435.21V337.326H437.184V339.244H438.92V340.854H437.184ZM443.773 347.126C443.027 347.126 442.355 346.963 441.757 346.636C441.16 346.3 440.689 345.829 440.343 345.222C440.007 344.615 439.839 343.915 439.839 343.122C439.839 342.329 440.012 341.629 440.357 341.022C440.712 340.415 441.193 339.949 441.799 339.622C442.406 339.286 443.083 339.118 443.829 339.118C444.576 339.118 445.253 339.286 445.859 339.622C446.466 339.949 446.942 340.415 447.287 341.022C447.642 341.629 447.819 342.329 447.819 343.122C447.819 343.915 447.637 344.615 447.273 345.222C446.919 345.829 446.433 346.3 445.817 346.636C445.211 346.963 444.529 347.126 443.773 347.126ZM443.773 345.418C444.128 345.418 444.459 345.334 444.767 345.166C445.085 344.989 445.337 344.727 445.523 344.382C445.71 344.037 445.803 343.617 445.803 343.122C445.803 342.385 445.607 341.82 445.215 341.428C444.833 341.027 444.361 340.826 443.801 340.826C443.241 340.826 442.77 341.027 442.387 341.428C442.014 341.82 441.827 342.385 441.827 343.122C441.827 343.859 442.009 344.429 442.373 344.83C442.747 345.222 443.213 345.418 443.773 345.418ZM462.225 339.132C463.177 339.132 463.942 339.426 464.521 340.014C465.109 340.593 465.403 341.405 465.403 342.45V347H463.443V342.716C463.443 342.109 463.289 341.647 462.981 341.33C462.673 341.003 462.253 340.84 461.721 340.84C461.189 340.84 460.764 341.003 460.447 341.33C460.139 341.647 459.985 342.109 459.985 342.716V347H458.025V342.716C458.025 342.109 457.871 341.647 457.563 341.33C457.255 341.003 456.835 340.84 456.303 340.84C455.762 340.84 455.332 341.003 455.015 341.33C454.707 341.647 454.553 342.109 454.553 342.716V347H452.593V339.244H454.553V340.182C454.805 339.855 455.127 339.599 455.519 339.412C455.92 339.225 456.359 339.132 456.835 339.132C457.442 339.132 457.983 339.263 458.459 339.524C458.935 339.776 459.304 340.14 459.565 340.616C459.817 340.168 460.181 339.809 460.657 339.538C461.142 339.267 461.665 339.132 462.225 339.132ZM466.759 343.094C466.759 342.31 466.913 341.615 467.221 341.008C467.538 340.401 467.963 339.935 468.495 339.608C469.036 339.281 469.638 339.118 470.301 339.118C470.88 339.118 471.384 339.235 471.813 339.468C472.252 339.701 472.602 339.995 472.863 340.35V339.244H474.837V347H472.863V345.866C472.611 346.23 472.261 346.533 471.813 346.776C471.374 347.009 470.866 347.126 470.287 347.126C469.634 347.126 469.036 346.958 468.495 346.622C467.963 346.286 467.538 345.815 467.221 345.208C466.913 344.592 466.759 343.887 466.759 343.094ZM472.863 343.122C472.863 342.646 472.77 342.24 472.583 341.904C472.396 341.559 472.144 341.297 471.827 341.12C471.51 340.933 471.169 340.84 470.805 340.84C470.441 340.84 470.105 340.929 469.797 341.106C469.489 341.283 469.237 341.545 469.041 341.89C468.854 342.226 468.761 342.627 468.761 343.094C468.761 343.561 468.854 343.971 469.041 344.326C469.237 344.671 469.489 344.937 469.797 345.124C470.114 345.311 470.45 345.404 470.805 345.404C471.169 345.404 471.51 345.315 471.827 345.138C472.144 344.951 472.396 344.69 472.583 344.354C472.77 344.009 472.863 343.598 472.863 343.122ZM477.745 338.32C477.4 338.32 477.11 338.213 476.877 337.998C476.653 337.774 476.541 337.499 476.541 337.172C476.541 336.845 476.653 336.575 476.877 336.36C477.11 336.136 477.4 336.024 477.745 336.024C478.09 336.024 478.375 336.136 478.599 336.36C478.832 336.575 478.949 336.845 478.949 337.172C478.949 337.499 478.832 337.774 478.599 337.998C478.375 338.213 478.09 338.32 477.745 338.32ZM478.711 339.244V347H476.751V339.244H478.711ZM483.616 347.126C482.981 347.126 482.412 347.014 481.908 346.79C481.404 346.557 481.002 346.244 480.704 345.852C480.414 345.46 480.256 345.026 480.228 344.55H482.202C482.239 344.849 482.384 345.096 482.636 345.292C482.897 345.488 483.219 345.586 483.602 345.586C483.975 345.586 484.264 345.511 484.47 345.362C484.684 345.213 484.792 345.021 484.792 344.788C484.792 344.536 484.661 344.349 484.4 344.228C484.148 344.097 483.742 343.957 483.182 343.808C482.603 343.668 482.127 343.523 481.754 343.374C481.39 343.225 481.072 342.996 480.802 342.688C480.54 342.38 480.41 341.965 480.41 341.442C480.41 341.013 480.531 340.621 480.774 340.266C481.026 339.911 481.38 339.631 481.838 339.426C482.304 339.221 482.85 339.118 483.476 339.118C484.4 339.118 485.137 339.351 485.688 339.818C486.238 340.275 486.542 340.896 486.598 341.68H484.722C484.694 341.372 484.563 341.129 484.33 340.952C484.106 340.765 483.802 340.672 483.42 340.672C483.065 340.672 482.79 340.737 482.594 340.868C482.407 340.999 482.314 341.181 482.314 341.414C482.314 341.675 482.444 341.876 482.706 342.016C482.967 342.147 483.373 342.282 483.924 342.422C484.484 342.562 484.946 342.707 485.31 342.856C485.674 343.005 485.986 343.239 486.248 343.556C486.518 343.864 486.658 344.275 486.668 344.788C486.668 345.236 486.542 345.637 486.29 345.992C486.047 346.347 485.692 346.627 485.226 346.832C484.768 347.028 484.232 347.126 483.616 347.126ZM493.572 340.364C493.824 340.009 494.17 339.715 494.608 339.482C495.056 339.239 495.565 339.118 496.134 339.118C496.797 339.118 497.394 339.281 497.926 339.608C498.468 339.935 498.892 340.401 499.2 341.008C499.518 341.605 499.676 342.301 499.676 343.094C499.676 343.887 499.518 344.592 499.2 345.208C498.892 345.815 498.468 346.286 497.926 346.622C497.394 346.958 496.797 347.126 496.134 347.126C495.565 347.126 495.061 347.009 494.622 346.776C494.193 346.543 493.843 346.249 493.572 345.894V350.696H491.612V339.244H493.572V340.364ZM497.674 343.094C497.674 342.627 497.576 342.226 497.38 341.89C497.194 341.545 496.942 341.283 496.624 341.106C496.316 340.929 495.98 340.84 495.616 340.84C495.262 340.84 494.926 340.933 494.608 341.12C494.3 341.297 494.048 341.559 493.852 341.904C493.666 342.249 493.572 342.655 493.572 343.122C493.572 343.589 493.666 343.995 493.852 344.34C494.048 344.685 494.3 344.951 494.608 345.138C494.926 345.315 495.262 345.404 495.616 345.404C495.98 345.404 496.316 345.311 496.624 345.124C496.942 344.937 497.194 344.671 497.38 344.326C497.576 343.981 497.674 343.57 497.674 343.094ZM503.061 340.448C503.313 340.037 503.639 339.715 504.041 339.482C504.451 339.249 504.918 339.132 505.441 339.132V341.19H504.923C504.307 341.19 503.84 341.335 503.523 341.624C503.215 341.913 503.061 342.417 503.061 343.136V347H501.101V339.244H503.061V340.448ZM510.205 347.126C509.458 347.126 508.786 346.963 508.189 346.636C507.592 346.3 507.12 345.829 506.775 345.222C506.439 344.615 506.271 343.915 506.271 343.122C506.271 342.329 506.444 341.629 506.789 341.022C507.144 340.415 507.624 339.949 508.231 339.622C508.838 339.286 509.514 339.118 510.261 339.118C511.008 339.118 511.684 339.286 512.291 339.622C512.898 339.949 513.374 340.415 513.719 341.022C514.074 341.629 514.251 342.329 514.251 343.122C514.251 343.915 514.069 344.615 513.705 345.222C513.35 345.829 512.865 346.3 512.249 346.636C511.642 346.963 510.961 347.126 510.205 347.126ZM510.205 345.418C510.56 345.418 510.891 345.334 511.199 345.166C511.516 344.989 511.768 344.727 511.955 344.382C512.142 344.037 512.235 343.617 512.235 343.122C512.235 342.385 512.039 341.82 511.647 341.428C511.264 341.027 510.793 340.826 510.233 340.826C509.673 340.826 509.202 341.027 508.819 341.428C508.446 341.82 508.259 342.385 508.259 343.122C508.259 343.859 508.441 344.429 508.805 344.83C509.178 345.222 509.645 345.418 510.205 345.418ZM511.871 337.13L508.651 338.6V337.2L511.871 335.534V337.13ZM519.973 347L518.377 344.592L516.963 347H514.863L517.397 343.108L514.835 339.244H517.047L518.629 341.638L520.057 339.244H522.157L519.609 343.108L522.185 347H519.973ZM524.243 338.32C523.898 338.32 523.609 338.213 523.375 337.998C523.151 337.774 523.039 337.499 523.039 337.172C523.039 336.845 523.151 336.575 523.375 336.36C523.609 336.136 523.898 336.024 524.243 336.024C524.589 336.024 524.873 336.136 525.097 336.36C525.331 336.575 525.447 336.845 525.447 337.172C525.447 337.499 525.331 337.774 525.097 337.998C524.873 338.213 524.589 338.32 524.243 338.32ZM525.209 339.244V347H523.249V339.244H525.209ZM536.778 339.132C537.73 339.132 538.495 339.426 539.074 340.014C539.662 340.593 539.956 341.405 539.956 342.45V347H537.996V342.716C537.996 342.109 537.842 341.647 537.534 341.33C537.226 341.003 536.806 340.84 536.274 340.84C535.742 340.84 535.317 341.003 535 341.33C534.692 341.647 534.538 342.109 534.538 342.716V347H532.578V342.716C532.578 342.109 532.424 341.647 532.116 341.33C531.808 341.003 531.388 340.84 530.856 340.84C530.314 340.84 529.885 341.003 529.568 341.33C529.26 341.647 529.106 342.109 529.106 342.716V347H527.146V339.244H529.106V340.182C529.358 339.855 529.68 339.599 530.072 339.412C530.473 339.225 530.912 339.132 531.388 339.132C531.994 339.132 532.536 339.263 533.012 339.524C533.488 339.776 533.856 340.14 534.118 340.616C534.37 340.168 534.734 339.809 535.21 339.538C535.695 339.267 536.218 339.132 536.778 339.132ZM545.26 347.126C544.513 347.126 543.841 346.963 543.244 346.636C542.646 346.3 542.175 345.829 541.83 345.222C541.494 344.615 541.326 343.915 541.326 343.122C541.326 342.329 541.498 341.629 541.844 341.022C542.198 340.415 542.679 339.949 543.286 339.622C543.892 339.286 544.569 339.118 545.316 339.118C546.062 339.118 546.739 339.286 547.346 339.622C547.952 339.949 548.428 340.415 548.774 341.022C549.128 341.629 549.306 342.329 549.306 343.122C549.306 343.915 549.124 344.615 548.76 345.222C548.405 345.829 547.92 346.3 547.304 346.636C546.697 346.963 546.016 347.126 545.26 347.126ZM545.26 345.418C545.614 345.418 545.946 345.334 546.254 345.166C546.571 344.989 546.823 344.727 547.01 344.382C547.196 344.037 547.29 343.617 547.29 343.122C547.29 342.385 547.094 341.82 546.702 341.428C546.319 341.027 545.848 340.826 545.288 340.826C544.728 340.826 544.256 341.027 543.874 341.428C543.5 341.82 543.314 342.385 543.314 343.122C543.314 343.859 543.496 344.429 543.86 344.83C544.233 345.222 544.7 345.418 545.26 345.418ZM553.277 337.06L553.053 343.822H551.401L551.163 337.06H553.277ZM552.269 347.098C551.915 347.098 551.621 346.991 551.387 346.776C551.163 346.552 551.051 346.277 551.051 345.95C551.051 345.623 551.163 345.353 551.387 345.138C551.621 344.914 551.915 344.802 552.269 344.802C552.615 344.802 552.899 344.914 553.123 345.138C553.347 345.353 553.459 345.623 553.459 345.95C553.459 346.277 553.347 346.552 553.123 346.776C552.899 346.991 552.615 347.098 552.269 347.098Z" fill="#121212"/>
<path d="M502.729 318.104C503.625 318.104 504.343 318.403 504.885 319C505.426 319.588 505.697 320.4 505.697 321.436V326H503.317V321.758C503.317 321.235 503.181 320.829 502.911 320.54C502.64 320.251 502.276 320.106 501.819 320.106C501.361 320.106 500.997 320.251 500.727 320.54C500.456 320.829 500.321 321.235 500.321 321.758V326H497.927V315.64H500.321V319.238C500.563 318.893 500.895 318.617 501.315 318.412C501.735 318.207 502.206 318.104 502.729 318.104ZM506.884 322.08C506.884 321.277 507.034 320.573 507.332 319.966C507.64 319.359 508.056 318.893 508.578 318.566C509.101 318.239 509.684 318.076 510.328 318.076C510.879 318.076 511.36 318.188 511.77 318.412C512.19 318.636 512.512 318.93 512.736 319.294V318.188H515.13V326H512.736V324.894C512.503 325.258 512.176 325.552 511.756 325.776C511.346 326 510.865 326.112 510.314 326.112C509.68 326.112 509.101 325.949 508.578 325.622C508.056 325.286 507.64 324.815 507.332 324.208C507.034 323.592 506.884 322.883 506.884 322.08ZM512.736 322.094C512.736 321.497 512.568 321.025 512.232 320.68C511.906 320.335 511.504 320.162 511.028 320.162C510.552 320.162 510.146 320.335 509.81 320.68C509.484 321.016 509.32 321.483 509.32 322.08C509.32 322.677 509.484 323.153 509.81 323.508C510.146 323.853 510.552 324.026 511.028 324.026C511.504 324.026 511.906 323.853 512.232 323.508C512.568 323.163 512.736 322.691 512.736 322.094ZM519.256 319.49C519.536 319.061 519.886 318.725 520.306 318.482C520.726 318.23 521.193 318.104 521.706 318.104V320.638H521.048C520.451 320.638 520.003 320.769 519.704 321.03C519.405 321.282 519.256 321.73 519.256 322.374V326H516.862V318.188H519.256V319.49ZM522.374 322.08C522.374 321.277 522.524 320.573 522.822 319.966C523.13 319.359 523.546 318.893 524.068 318.566C524.591 318.239 525.174 318.076 525.818 318.076C526.332 318.076 526.798 318.183 527.218 318.398C527.648 318.613 527.984 318.902 528.226 319.266V315.64H530.62V326H528.226V324.88C528.002 325.253 527.68 325.552 527.26 325.776C526.85 326 526.369 326.112 525.818 326.112C525.174 326.112 524.591 325.949 524.068 325.622C523.546 325.286 523.13 324.815 522.822 324.208C522.524 323.592 522.374 322.883 522.374 322.08ZM528.226 322.094C528.226 321.497 528.058 321.025 527.722 320.68C527.396 320.335 526.994 320.162 526.518 320.162C526.042 320.162 525.636 320.335 525.3 320.68C524.974 321.016 524.81 321.483 524.81 322.08C524.81 322.677 524.974 323.153 525.3 323.508C525.636 323.853 526.042 324.026 526.518 324.026C526.994 324.026 527.396 323.853 527.722 323.508C528.058 323.163 528.226 322.691 528.226 322.094ZM543.566 318.188L541.452 326H538.806L537.574 320.932L536.3 326H533.668L531.54 318.188H533.934L535.04 323.774L536.356 318.188H538.89L540.22 323.746L541.312 318.188H543.566ZM544.003 322.08C544.003 321.277 544.153 320.573 544.451 319.966C544.759 319.359 545.175 318.893 545.697 318.566C546.22 318.239 546.803 318.076 547.447 318.076C547.998 318.076 548.479 318.188 548.889 318.412C549.309 318.636 549.631 318.93 549.855 319.294V318.188H552.249V326H549.855V324.894C549.622 325.258 549.295 325.552 548.875 325.776C548.465 326 547.984 326.112 547.433 326.112C546.799 326.112 546.22 325.949 545.697 325.622C545.175 325.286 544.759 324.815 544.451 324.208C544.153 323.592 544.003 322.883 544.003 322.08ZM549.855 322.094C549.855 321.497 549.687 321.025 549.351 320.68C549.025 320.335 548.623 320.162 548.147 320.162C547.671 320.162 547.265 320.335 546.929 320.68C546.603 321.016 546.439 321.483 546.439 322.08C546.439 322.677 546.603 323.153 546.929 323.508C547.265 323.853 547.671 324.026 548.147 324.026C548.623 324.026 549.025 323.853 549.351 323.508C549.687 323.163 549.855 322.691 549.855 322.094ZM556.375 319.49C556.655 319.061 557.005 318.725 557.425 318.482C557.845 318.23 558.312 318.104 558.825 318.104V320.638H558.167C557.57 320.638 557.122 320.769 556.823 321.03C556.525 321.282 556.375 321.73 556.375 322.374V326H553.981V318.188H556.375V319.49ZM567.334 321.968C567.334 322.192 567.32 322.425 567.292 322.668H561.874C561.911 323.153 562.065 323.527 562.336 323.788C562.616 324.04 562.956 324.166 563.358 324.166C563.955 324.166 564.37 323.914 564.604 323.41H567.152C567.021 323.923 566.783 324.385 566.438 324.796C566.102 325.207 565.677 325.529 565.164 325.762C564.65 325.995 564.076 326.112 563.442 326.112C562.676 326.112 561.995 325.949 561.398 325.622C560.8 325.295 560.334 324.829 559.998 324.222C559.662 323.615 559.494 322.906 559.494 322.094C559.494 321.282 559.657 320.573 559.984 319.966C560.32 319.359 560.786 318.893 561.384 318.566C561.981 318.239 562.667 318.076 563.442 318.076C564.198 318.076 564.87 318.235 565.458 318.552C566.046 318.869 566.503 319.322 566.83 319.91C567.166 320.498 567.334 321.184 567.334 321.968ZM564.884 321.338C564.884 320.927 564.744 320.601 564.464 320.358C564.184 320.115 563.834 319.994 563.414 319.994C563.012 319.994 562.672 320.111 562.392 320.344C562.121 320.577 561.953 320.909 561.888 321.338H564.884Z" fill="#E6322B"/>
</g>
<g filter="url(#filter2_d_1189_1149)">
<circle cx="460" cy="440" r="35" fill="#2A55C2"/>
</g>
<path d="M443.333 434.75L455.581 446.998C458.021 449.438 461.979 449.438 464.419 446.998L476.667 434.75" stroke="#F8F8FF" stroke-width="4" stroke-linecap="round" stroke-linejoin="round"/>
<defs>
<filter id="filter0_d_1189_1149" x="190.951" y="115.3" width="555.296" height="162.7" filterUnits="userSpaceOnUse" color-interpolation-filters="sRGB">
<feFlood flood-opacity="0" result="BackgroundImageFix"/>
<feColorMatrix in="SourceAlpha" type="matrix" values="0 0 0 0 0 0 0 0 0 0 0 0 0 0 0 0 0 0 127 0" result="hardAlpha"/>
<feOffset dy="4"/>
<feGaussianBlur stdDeviation="3.5"/>
<feComposite in2="hardAlpha" operator="out"/>
<feColorMatrix type="matrix" values="0 0 0 0 0 0 0 0 0 0 0 0 0 0 0 0 0 0 0.2 0"/>
<feBlend mode="normal" in2="BackgroundImageFix" result="effect1_dropShadow_1189_1149"/>
<feBlend mode="normal" in="SourceGraphic" in2="effect1_dropShadow_1189_1149" result="shape"/>
</filter>
<filter id="filter1_d_1189_1149" x="248.948" y="311.534" width="437.5" height="50.1621" filterUnits="userSpaceOnUse" color-interpolation-filters="sRGB">
<feFlood flood-opacity="0" result="BackgroundImageFix"/>
<feColorMatrix in="SourceAlpha" type="matrix" values="0 0 0 0 0 0 0 0 0 0 0 0 0 0 0 0 0 0 127 0" result="hardAlpha"/>
<feOffset dy="4"/>
<feGaussianBlur stdDeviation="3.5"/>
<feComposite in2="hardAlpha" operator="out"/>
<feColorMatrix type="matrix" values="0 0 0 0 0 0 0 0 0 0 0 0 0 0 0 0 0 0 0.2 0"/>
<feBlend mode="normal" in2="BackgroundImageFix" result="effect1_dropShadow_1189_1149"/>
<feBlend mode="normal" in="SourceGraphic" in2="effect1_dropShadow_1189_1149" result="shape"/>
</filter>
<filter id="filter2_d_1189_1149" x="415" y="399" width="90" height="90" filterUnits="userSpaceOnUse" color-interpolation-filters="sRGB">
<feFlood flood-opacity="0" result="BackgroundImageFix"/>
<feColorMatrix in="SourceAlpha" type="matrix" values="0 0 0 0 0 0 0 0 0 0 0 0 0 0 0 0 0 0 127 0" result="hardAlpha"/>
<feOffset dy="4"/>
<feGaussianBlur stdDeviation="5"/>
<feComposite in2="hardAlpha" operator="out"/>
<feColorMatrix type="matrix" values="0 0 0 0 0 0 0 0 0 0 0 0 0 0 0 0 0 0 0.25 0"/>
<feBlend mode="normal" in2="BackgroundImageFix" result="effect1_dropShadow_1189_1149"/>
<feBlend mode="normal" in="SourceGraphic" in2="effect1_dropShadow_1189_1149" result="shape"/>
</filter>
<clipPath id="clip0_1189_1149">
<rect width="128.067" height="128.067" fill="white" transform="translate(841.794 300) rotate(10.9153)"/>
</clipPath>
<clipPath id="clip1_1189_1149">
<rect width="128.067" height="128.067" fill="white" transform="translate(836.59 295.041) rotate(10.9153)"/>
</clipPath>
<clipPath id="clip2_1189_1149">
<rect width="130" height="130" fill="white" transform="translate(830.983 4) rotate(15.06)"/>
</clipPath>
<clipPath id="clip3_1189_1149">
<rect width="132.711" height="132.711" fill="white" transform="translate(4.42334 360.372) rotate(-16.9111)"/>
</clipPath>
<clipPath id="clip4_1189_1149">
<rect width="29" height="29" fill="white" transform="translate(261 50)"/>
</clipPath>
<clipPath id="clip5_1189_1149">
<rect width="29" height="29" fill="white" transform="translate(637 381)"/>
</clipPath>
</defs>
</svg>
