<svg width="985" height="492" viewBox="0 0 985 492" fill="none" xmlns="http://www.w3.org/2000/svg">
<path d="M25.8727 96.9797C24.3694 91.6654 27.4588 86.1386 32.7731 84.6353L92.4713 67.7473C97.7856 66.244 103.312 69.3333 104.816 74.6476L121.657 134.179C125.415 147.465 117.691 161.282 104.406 165.04L73.5747 173.762C60.2889 177.52 46.4719 169.797 42.7135 156.511L25.8727 96.9797Z" fill="#850014"/>
<path d="M25.8727 96.9797C24.3694 91.6654 27.4588 86.1386 32.7731 84.6353L92.4713 67.7473C97.7856 66.244 103.312 69.3333 104.816 74.6476L115.681 113.057C121.848 134.856 109.175 157.528 87.3758 163.694C65.5763 169.861 42.9051 157.188 36.7383 135.389L25.8727 96.9797Z" fill="#46C4FF"/>
<path d="M25.8727 96.9797C24.3694 91.6654 27.4588 86.1386 32.7731 84.6353L92.4713 67.7473C97.7856 66.244 103.312 69.3333 104.816 74.6476L120.314 129.435C123.922 142.189 116.508 155.453 103.754 159.061L70.998 168.327C58.2437 171.936 44.9794 164.521 41.3714 151.767L25.8727 96.9797Z" fill="#E10531"/>
<path d="M39.4286 94.0633C39.2782 93.5319 39.5872 92.9792 40.1186 92.8289L91.4568 78.3058C91.9883 78.1555 92.541 78.4644 92.6913 78.9959L103.72 117.981C107.88 132.689 99.3301 147.985 84.622 152.146C69.9139 156.307 54.6177 147.756 50.4569 133.048L39.4286 94.0633Z" fill="#AE001A"/>
<path d="M59.2283 106.668L55.7268 107.658L56.7173 111.16L53.2159 112.15L57.9209 128.782L61.4223 127.792L62.4129 131.293L64.1636 130.798C65.8706 130.315 65.9267 130.346 66.3477 131.834C66.7563 133.279 66.8686 133.342 68.3129 132.933C69.8011 132.512 69.8572 132.543 70.3401 134.25L70.8354 136.001L74.3368 135.011L75.3274 138.512L85.3941 135.664L84.4035 132.163L87.905 131.172L87.4098 129.422C86.9269 127.715 86.9583 127.658 88.4464 127.238C89.8907 126.829 89.9535 126.717 89.5449 125.272C89.1239 123.784 89.1553 123.728 90.8623 123.245L92.613 122.75L91.6225 119.248L95.124 118.258L90.419 101.626L86.9175 102.616L85.927 99.1149L82.4255 100.105L81.435 96.604L77.9335 97.5945L78.924 101.096L75.4226 102.087L75.9178 103.837C76.4007 105.544 76.3693 105.6 74.8812 106.021C73.4369 106.43 73.3741 106.542 73.7827 107.987C74.1913 109.431 74.1285 109.543 72.6841 109.952C71.2398 110.36 71.1275 110.298 70.7189 108.853C70.3103 107.409 70.198 107.346 68.7536 107.755C67.2655 108.176 67.2094 108.144 66.7265 106.437L66.2312 104.687L62.7297 105.677L61.7392 102.176L58.2378 103.166L59.2283 106.668Z" fill="#6B0015"/>
<path d="M82.7647 70.2536L95.4346 66.9074L98.6913 67.5268L100.387 68.0743L101.742 69.2319L103.922 72.2105L107.803 85.9304L56.8791 172.689L54.3808 171.479L52.0414 169.985L49.8611 168.206L47.8399 166.142L45.9777 163.794L44.5592 161.32L43.2997 158.562L39.2836 144.365L82.7647 70.2536Z" fill="white" fill-opacity="0.29"/>
<path d="M913.989 142.579C916.156 137.499 922.031 135.138 927.111 137.305L976.447 158.35C981.527 160.517 983.889 166.392 981.722 171.472L961.34 219.252C955.923 231.952 941.236 237.855 928.536 232.438L906.794 223.164C894.094 217.746 888.19 203.059 893.608 190.359L913.989 142.579Z" fill="#FFC100"/>
<path d="M913.989 142.579C916.156 137.499 922.031 135.138 927.111 137.305L976.447 158.35C981.527 160.517 983.889 166.392 981.722 171.472L968.066 203.484C960.088 222.188 938.457 230.883 919.753 222.904C901.05 214.926 892.355 193.296 900.333 174.592L913.989 142.579Z" fill="#46C4FF"/>
<path d="M913.989 142.579C916.156 137.499 922.031 135.138 927.111 137.305L976.447 158.35C981.527 160.517 983.889 166.392 981.722 171.472L963.036 215.275C957.836 227.467 943.736 233.135 931.544 227.934L907.963 217.875C895.771 212.674 890.103 198.575 895.304 186.383L913.989 142.579Z" fill="#FEE333"/>
<path d="M925.463 147.335C925.679 146.827 926.267 146.591 926.775 146.807L970.634 165.516C971.142 165.733 971.379 166.321 971.162 166.829L956.934 200.183C951.551 212.802 936.957 218.669 924.338 213.286C911.718 207.903 905.852 193.309 911.235 180.689L925.463 147.335Z" fill="#FEC701"/>
<path d="M942.734 167.996C942.43 168.427 942.019 168.733 941.883 168.675C941.747 168.618 941.084 169.137 940.349 169.826C939.647 170.53 938.984 171.05 938.849 170.992C938.713 170.934 938.021 171.521 937.276 172.327C936.546 173.099 935.839 173.72 935.738 173.677C935.602 173.619 934.953 174.104 934.247 174.726C933.56 175.396 932.849 175.935 932.704 175.993C932.524 176.037 931.832 176.624 931.131 177.328C930.43 178.032 929.738 178.619 929.593 178.678C928.793 178.858 927.178 180.576 926.642 181.832L926.063 183.19L929.966 184.855C933.836 186.506 933.87 186.52 933.415 187.209C933.125 187.607 932.063 189.44 931.019 191.322C929.976 193.204 928.825 194.959 928.497 195.26C928.119 195.581 927.54 196.658 927.173 197.705L926.479 199.615L927.861 200.325C929.107 200.977 929.306 200.981 929.842 200.288C930.147 199.856 930.558 199.55 930.694 199.608C930.83 199.666 931.527 199.161 932.262 198.471C932.963 197.768 933.626 197.248 933.728 197.291C933.864 197.349 934.556 196.762 935.301 195.956C936.031 195.185 936.737 194.563 936.839 194.607C936.975 194.665 937.623 194.179 938.344 193.524C939.017 192.888 939.694 192.334 939.873 192.29C940.018 192.232 940.778 191.673 941.548 190.999C942.317 190.324 943.483 189.377 944.097 188.877C944.746 188.391 945.558 187.334 945.906 186.519L946.514 185.093L942.61 183.428C938.741 181.778 938.707 181.763 939.176 181.041C939.451 180.677 940.514 178.843 941.558 176.962C942.601 175.08 943.751 173.324 944.08 173.023C944.458 172.702 945.037 171.626 945.404 170.579L946.098 168.668L944.716 167.958C943.47 167.306 943.271 167.302 942.734 167.996Z" fill="#F89701"/>
<path d="M928.25 164.144C927.039 164.631 926.897 166.094 927.763 168.389C928.493 170.346 928.78 170.709 929.968 171.215C931.122 171.708 931.369 171.693 931.692 171.028C932.46 169.51 932.425 168.934 931.52 166.823C930.577 164.615 929.412 163.677 928.25 164.144Z" fill="#F89701"/>
<path d="M952.041 175.616C949.842 176.444 949.465 176.764 948.901 178.369C948.679 179.077 948.839 179.265 949.993 179.758C951.181 180.264 951.642 180.22 953.559 179.393C955.815 178.43 956.773 177.314 956.286 176.103C955.8 174.893 954.336 174.75 952.041 175.616Z" fill="#F89701"/>
<path d="M919.095 188.803C916.587 189.98 915.963 190.596 916.217 191.788C916.559 193.338 917.999 193.631 920.57 192.682C922.589 191.898 922.889 191.665 923.265 190.501C923.685 189.236 923.631 189.173 922.37 188.555C921.177 187.966 920.848 187.986 919.095 188.803Z" fill="#F89701"/>
<path d="M941.388 196.828C941.209 196.872 940.846 197.439 940.571 198.084C940.18 199.001 940.268 199.64 941.037 201.412C942 203.669 943.116 204.626 944.327 204.139C945.537 203.653 945.68 202.189 944.814 199.894C944.142 198.083 943.763 197.56 942.847 197.169C942.202 196.894 941.548 196.736 941.388 196.828Z" fill="#F89701"/>
<path d="M969.195 155.034L982.138 160.554L983.198 161.232L983.797 161.937L984.452 163.566L984.427 164.68L977.851 180.097L893.38 212.001L892.317 209.748L891.525 207.386L891.004 204.914L890.755 202.334L890.778 199.644L891.181 197.116L891.856 194.48L897.052 182.299L969.195 155.034Z" fill="white" fill-opacity="0.29"/>
<path d="M794.048 421.424C792.122 416.247 794.757 410.49 799.933 408.564L854.651 388.206C859.827 386.28 865.585 388.915 867.511 394.091L887.578 448.027C892.393 460.968 885.805 475.361 872.865 480.176L846.263 490.073C833.323 494.888 818.93 488.3 814.115 475.36L794.048 421.424Z" fill="#7B2BBE"/>
<path d="M794.048 421.424C792.122 416.247 794.757 410.49 799.933 408.564L854.651 388.206C859.827 386.28 865.585 388.915 867.511 394.091L880.654 429.416C888.201 449.702 877.874 472.266 857.588 479.814C837.302 487.361 814.738 477.035 807.191 456.749L794.048 421.424Z" fill="#46C4FF"/>
<path d="M794.048 421.424C792.122 416.247 794.757 410.49 799.933 408.564L854.651 388.206C859.827 386.28 865.585 388.915 867.511 394.091L885.951 443.654C890.573 456.077 884.249 469.895 871.826 474.517L843.35 485.111C830.927 489.733 817.11 483.409 812.488 470.986L794.048 421.424Z" fill="#C67DFF"/>
<path d="M806.594 417.229C806.401 416.711 806.665 416.135 807.182 415.943L854.873 398.199C855.391 398.007 855.966 398.27 856.159 398.788L869.641 435.024C874.733 448.712 867.766 463.935 854.079 469.028C840.392 474.12 825.168 467.153 820.076 453.466L806.594 417.229Z" fill="#9D4EDD"/>
<path d="M842.86 413.962C843.339 413.784 843.87 413.803 844.335 414.016C844.8 414.229 845.161 414.617 845.339 415.097L846.012 416.904C846.19 417.383 846.17 417.913 845.958 418.378C845.745 418.843 845.356 419.205 844.877 419.383C844.398 419.561 843.867 419.542 843.402 419.329C842.937 419.116 842.576 418.728 842.397 418.248L841.725 416.441C841.547 415.962 841.566 415.432 841.779 414.967C841.992 414.502 842.381 414.14 842.86 413.962ZM837.33 420.648C837.416 420.144 837.698 419.694 838.114 419.398C838.531 419.101 839.049 418.983 839.553 419.068L841.454 419.389C841.955 419.478 842.402 419.76 842.695 420.176C842.989 420.592 843.106 421.108 843.021 421.61C842.936 422.112 842.656 422.56 842.242 422.856C841.828 423.152 841.314 423.273 840.811 423.192L838.91 422.87C838.406 422.785 837.956 422.503 837.66 422.086C837.364 421.669 837.245 421.152 837.33 420.648ZM851.672 418.122C851.835 417.927 851.958 417.702 852.034 417.459C852.11 417.217 852.137 416.961 852.114 416.708C852.091 416.455 852.018 416.209 851.899 415.984C851.781 415.759 851.619 415.56 851.423 415.398C851.227 415.236 851.001 415.114 850.758 415.04C850.515 414.965 850.259 414.94 850.006 414.965C849.753 414.99 849.507 415.064 849.283 415.184C849.059 415.304 848.861 415.468 848.7 415.665L847.471 417.15C847.308 417.345 847.185 417.571 847.109 417.813C847.033 418.056 847.006 418.311 847.029 418.564C847.052 418.818 847.125 419.064 847.244 419.289C847.362 419.514 847.524 419.713 847.72 419.875C847.916 420.037 848.142 420.159 848.385 420.233C848.629 420.307 848.884 420.333 849.137 420.308C849.39 420.283 849.636 420.209 849.86 420.088C850.084 419.968 850.282 419.805 850.443 419.608L851.672 418.122ZM843.682 423.58C843.766 423.097 844.031 422.665 844.422 422.37C844.814 422.076 845.303 421.942 845.79 421.995C846.278 422.048 846.726 422.285 847.045 422.657C847.364 423.029 847.529 423.508 847.507 423.998L847.484 424.223L847.307 425.268L849.208 425.589C849.566 425.65 849.899 425.81 850.169 426.051C850.44 426.292 850.637 426.605 850.738 426.954L850.792 427.193L850.97 428.34C855.988 431.464 858.967 437.262 857.94 443.336C856.564 451.481 848.579 456.77 840.265 455.364C831.95 453.959 826.146 446.34 827.523 438.195C828.519 432.303 832.986 427.897 838.513 426.452L839.035 426.323L839.579 425.298C839.749 424.977 840.007 424.712 840.322 424.531C840.637 424.351 840.997 424.263 841.359 424.277L841.604 424.304L843.505 424.625L843.682 423.58ZM838.928 432.413C837.671 432.881 836.559 433.671 835.705 434.705C834.85 435.739 834.282 436.979 834.059 438.302C833.975 438.788 834.081 439.287 834.354 439.698C834.627 440.108 835.047 440.398 835.527 440.509C836.008 440.619 836.512 440.542 836.937 440.292C837.362 440.042 837.675 439.638 837.812 439.165L837.861 438.945C838.077 437.671 838.905 436.651 839.999 436.142L840.277 436.026C840.756 435.847 841.144 435.485 841.357 435.02C841.569 434.555 841.588 434.024 841.409 433.545C841.23 433.066 840.868 432.678 840.403 432.465C839.938 432.253 839.407 432.234 838.928 432.413ZM850.959 420.994L852.86 421.315C853.111 421.356 853.351 421.446 853.567 421.58C853.783 421.714 853.971 421.889 854.119 422.096C854.267 422.303 854.372 422.537 854.43 422.785C854.487 423.032 854.495 423.289 854.452 423.54C854.41 423.791 854.318 424.03 854.183 424.246C854.047 424.461 853.871 424.647 853.663 424.794C853.455 424.94 853.22 425.044 852.972 425.1C852.724 425.156 852.468 425.162 852.217 425.117L850.316 424.796C850.065 424.755 849.825 424.666 849.608 424.532C849.392 424.398 849.205 424.222 849.057 424.015C848.909 423.809 848.803 423.575 848.746 423.327C848.689 423.079 848.681 422.822 848.724 422.572C848.766 422.321 848.858 422.081 848.993 421.866C849.128 421.651 849.305 421.464 849.513 421.318C849.721 421.171 849.955 421.067 850.203 421.011C850.451 420.956 850.708 420.95 850.959 420.994Z" fill="#6513A9"/>
<path d="M846.018 391.184L857.827 387.024L860.976 387.364L862.633 387.755L864.012 388.753L866.317 391.422L871.068 404.19L829.237 490.724L826.765 489.764L824.422 488.52L822.209 486.994L820.126 485.184L818.172 483.091L816.631 480.844L815.22 478.314L810.305 465.103L846.018 391.184Z" fill="white" fill-opacity="0.29"/>
<path d="M724.606 25.8082C723.294 20.4434 726.58 15.0309 731.945 13.7191L782.987 1.23784C788.352 -0.0740035 793.764 3.21156 795.076 8.57634L806.342 54.6483C809.621 68.0603 801.408 81.5915 787.996 84.8711L766.095 90.2264C752.683 93.506 739.152 85.2921 735.872 71.8802L724.606 25.8082Z" fill="#1F9DD3"/>
<path d="M724.606 25.8082C723.294 20.4434 726.58 15.0309 731.945 13.7191L782.987 1.23784C788.352 -0.0740035 793.764 3.21156 795.076 8.57634L802.465 38.7958C807.224 58.2554 795.306 77.8881 775.846 82.6465C756.387 87.4049 736.754 75.4873 731.996 56.0276L724.606 25.8082Z" fill="#46C4FF"/>
<path d="M724.606 25.8082C723.294 20.4434 726.58 15.0309 731.945 13.7191L782.987 1.23784C788.352 -0.0740035 793.764 3.21156 795.076 8.57634L805.381 50.7175C808.529 63.593 800.644 76.5829 787.768 79.7313L763.925 85.5617C751.049 88.7101 738.059 80.8248 734.911 67.9493L724.606 25.8082Z" fill="#46C4FF"/>
<path d="M736.353 22.3304C736.222 21.7939 736.551 21.2527 737.087 21.1215L782.69 9.97029C783.227 9.8391 783.768 10.1677 783.899 10.7041L791.834 43.153C795.044 56.2824 787.004 69.5285 773.874 72.739C760.745 75.9495 747.499 67.9087 744.288 54.7793L736.353 22.3304Z" fill="#1CB0F6"/>
<path d="M767.077 27.4291C767.128 28.8645 765.94 29.4765 764.671 28.6609C762.693 27.4075 760.81 29.4121 762.469 31.0009C762.895 31.3791 762.923 31.6297 762.545 32.2691C762.198 32.9008 761.866 33.0464 760.567 33.2031C759.071 33.3758 759.016 33.4216 758.98 34.2344C758.988 35.3585 759.428 35.9265 760.216 35.7337C760.563 35.6489 760.877 35.7009 760.914 35.8526C760.951 36.0044 761.294 36.1778 761.663 36.184C762.033 36.1903 762.515 36.5227 762.714 36.9245C763.15 37.7508 763.985 37.6109 764.541 36.6063C764.743 36.2029 765.118 35.8218 765.371 35.7601C765.623 35.6984 765.966 35.3249 766.137 34.9293C766.764 33.3927 770.046 31.9145 772.243 32.1494C773.451 32.3044 774.815 33.0968 775.516 34.0512C776.748 35.8088 776.895 39.2794 775.761 40.5216C775.474 40.8493 775.286 41.3133 775.346 41.5562C775.405 41.799 775.225 42.2934 774.945 42.6514C774.271 43.5882 774.527 44.3619 775.494 44.3507C775.958 44.3338 776.489 44.5901 776.665 44.9008C776.841 45.2116 777.16 45.4231 777.318 45.3845C777.476 45.346 777.669 45.5883 777.75 45.9222C777.936 46.681 778.665 46.7922 779.71 46.2795C780.446 45.8742 780.463 45.8057 779.932 44.4557C779.478 43.2801 779.459 42.9308 779.884 42.3444C780.301 41.7276 780.546 41.6355 781.094 41.8234C783.331 42.4986 784.318 39.9733 782.244 38.8721C780.903 38.1707 780.921 36.8794 782.274 36.2591C783.239 35.8302 783.287 35.754 782.982 34.5095C782.678 33.265 782.6 33.2197 781.546 33.2844C780.06 33.3583 779.502 32.3046 780.329 31.0407C780.947 30.1497 780.889 29.2309 780.238 28.6181C779.943 28.3685 779.487 28.4158 778.444 28.7995C776.587 29.5432 775.924 29.1583 775.755 27.2372C775.629 26.1744 775.462 25.7648 775.095 25.6295C774.226 25.3593 773.349 25.7347 772.809 26.671C772.02 27.9575 770.786 27.9697 770.169 26.6732C769.742 25.7482 769.664 25.7029 768.371 26.0191C767.077 26.3354 767.029 26.4115 767.077 27.4291Z" fill="#0076AC"/>
<path d="M758.632 38.8237C758.84 39.6736 758.422 40.2904 757.244 40.8037C756.587 41.1252 756.14 41.0737 755.336 40.6589C754.292 40.078 753.577 40.0275 753.696 40.5131C753.733 40.6649 753.494 40.9164 753.169 41.0923C752.663 41.3449 752.652 41.5728 753.106 42.7484C753.865 44.6216 753.511 45.223 751.503 45.4887C750.173 45.6532 749.904 45.7833 749.635 46.4603C749.171 47.571 749.392 48.0638 750.555 48.5836C751.453 48.9752 751.553 49.1116 751.5 50.1219C751.472 50.9651 751.231 51.3458 750.501 51.7815C749.646 52.248 749.589 52.4229 749.863 53.546C750.138 54.6691 750.27 54.7977 751.244 54.8169C752.092 54.8669 752.481 55.0933 752.888 55.7982C753.363 56.6471 753.344 56.8446 752.782 57.6898C752.019 58.8092 752.045 59.1889 752.93 59.9375C753.481 60.414 753.78 60.4053 755.036 59.9373C756.94 59.2466 757.532 59.6165 757.747 61.5905C757.84 62.7903 757.994 63.01 758.666 63.2961C759.799 63.6944 760.163 63.5412 760.848 62.3765C761.371 61.5087 761.545 61.4017 762.551 61.4131C763.391 61.4328 763.781 61.6592 764.219 62.3563C764.687 63.1749 764.867 63.2274 766.034 62.942C767.201 62.6566 767.336 62.527 767.373 61.585C767.44 60.7645 767.681 60.3838 768.449 59.9708C769.36 59.4585 769.533 59.4807 770.31 60.0626C771.329 60.8108 771.888 60.7707 772.734 59.8561C773.197 59.2923 773.233 59.0263 772.761 57.9192C772.041 56.0685 772.396 55.4672 774.442 55.2241C775.836 55.0442 776.042 54.9295 776.042 54.3826C776.055 54.0256 776.177 53.7061 776.335 53.6676C776.84 53.5442 776.463 52.9607 775.442 52.3417C774.687 51.8508 774.433 51.4948 774.427 50.7884C774.359 49.5506 774.737 48.9112 775.62 48.6952C776.314 48.5255 776.348 48.3887 776.043 47.1442C775.739 45.8997 775.646 45.7937 774.952 45.9634C774.069 46.1793 773.438 45.7867 772.889 44.6343C772.553 43.9443 772.605 43.6099 773.149 42.9623C773.813 42.1243 773.859 41.0836 773.26 41.2301C773.102 41.2687 772.9 41.1251 772.841 40.8823C772.67 40.1841 772.097 40.1635 770.948 40.7982C769.388 41.6623 768.024 40.8699 768.104 39.1454C768.161 37.8767 767.877 37.3993 767.152 37.5767C766.9 37.6384 766.673 37.5329 766.636 37.3811C766.495 36.8044 765.552 37.3244 765.083 38.2756C764.734 39.0364 764.449 39.235 763.654 39.2683C762.333 39.334 761.678 38.9795 761.471 38.1296C761.307 37.4618 761.166 37.4319 759.873 37.7481C758.58 38.0644 758.468 38.1559 758.632 38.8237ZM764.061 43.8013C765.269 43.9563 767.801 45.428 768.503 46.3824C769.18 47.3748 769.841 50.0764 769.696 51.3985C769.551 52.7206 768.377 54.6163 767.147 55.464C766.011 56.2885 763.243 56.9976 761.673 56.8667C760.237 56.7354 758.289 55.6033 757.504 54.4441C756.658 53.1713 756.036 50.4924 756.276 49.1471C756.507 47.7715 757.706 45.8378 758.745 45.1655C759.808 44.4552 762.892 43.6689 764.061 43.8013Z" fill="#0076AC"/>
<path d="M760.508 48.8204C759.723 49.8487 760.256 52.1634 761.385 52.8199C762.515 53.4765 764.905 52.86 765.495 51.7185C766.102 50.5085 765.556 48.551 764.441 47.9551C763.287 47.3365 761.293 47.7921 760.508 48.8204Z" fill="#0076AC"/>
<path d="M769.665 36.5116C769.568 36.6638 769.63 37.3244 769.786 37.9618L770.075 39.1456L771.409 38.7229C772.712 38.3079 772.712 38.3079 772.415 37.0938C772.125 35.9099 772.086 35.8873 770.992 36.0585C770.346 36.152 769.761 36.3593 769.665 36.5116Z" fill="#0076AC"/>
<path d="M775.457 2.87808L786.757 0.31543L789.604 0.918026L791.077 1.42364L792.226 2.4416L794.031 5.03092L796.913 16.8168L748.61 89.6173L746.455 88.5286L744.451 87.201L742.599 85.6344L740.899 83.8288L739.349 81.7842L738.196 79.6428L737.194 77.2624L734.212 65.0668L775.457 2.87808Z" fill="white" fill-opacity="0.29"/>
<path fill-rule="evenodd" clip-rule="evenodd" d="M303.005 43.0607C302.347 41.2524 299.79 41.2524 299.132 43.0607L296.143 51.2781L287.925 54.2671C286.117 54.9259 286.117 57.482 287.925 58.1407L296.143 61.1298L299.132 69.3471C299.79 71.1555 302.347 71.1555 303.005 69.3471L305.994 61.1298L314.212 58.1407C316.02 57.482 316.02 54.9259 314.212 54.2671L305.994 51.2781L303.005 43.0607Z" fill="#FEE333"/>
<path fill-rule="evenodd" clip-rule="evenodd" d="M679.005 366.061C678.347 364.252 675.79 364.252 675.132 366.061L672.143 374.278L663.925 377.267C662.117 377.926 662.117 380.482 663.925 381.141L672.143 384.13L675.132 392.347C675.79 394.156 678.347 394.156 679.005 392.347L681.994 384.13L690.212 381.141C692.02 380.482 692.02 377.926 690.212 377.267L681.994 374.278L679.005 366.061Z" fill="#FEE333"/>
<path d="M753.104 305.916C751.151 303.964 751.151 300.798 753.104 298.845L763.711 288.239C765.664 286.287 768.83 286.287 770.782 288.239L781.388 298.846C783.341 300.799 783.341 303.965 781.388 305.918L770.781 316.524C768.828 318.476 765.663 318.476 763.71 316.523L753.104 305.916Z" fill="#E10531" fill-opacity="0.5"/>
<path d="M289.104 378.381C287.151 376.428 287.151 373.263 289.104 371.31L296.175 364.239C298.128 362.287 301.294 362.287 303.247 364.24L310.317 371.311C312.27 373.264 312.27 376.43 310.317 378.382L303.246 385.453C301.293 387.405 298.127 387.405 296.175 385.453L289.104 378.381Z" fill="#1CB0F6" fill-opacity="0.5"/>
<path d="M219.104 300.381C217.151 298.428 217.151 295.263 219.104 293.31L226.175 286.239C228.128 284.287 231.294 284.287 233.247 286.24L240.317 293.311C242.27 295.264 242.27 298.43 240.317 300.382L233.246 307.453C231.293 309.405 228.127 309.405 226.175 307.453L219.104 300.381Z" fill="#7AD761" fill-opacity="0.5"/>
<path d="M626.104 45.9163C624.151 43.9636 624.151 40.7978 626.104 38.8453L636.711 28.2391C638.664 26.2866 641.83 26.2867 643.782 28.2394L654.388 38.8464C656.341 40.7991 656.341 43.965 654.388 45.9175L643.781 56.5237C641.828 58.4762 638.663 58.4761 636.71 56.5234L626.104 45.9163Z" fill="#9D4EDD" fill-opacity="0.5"/>
<path d="M15.179 347.988C16.4337 342.609 21.8109 339.267 27.1893 340.521L85.9351 354.225C91.3136 355.48 94.6565 360.857 93.4019 366.236L79.8075 424.51C76.6708 437.957 63.2278 446.314 49.7817 443.177L20.2515 436.288C6.80541 433.152 -1.55202 419.709 1.58468 406.263L15.179 347.988Z" fill="#508D3F"/>
<path d="M15.179 347.988C16.4337 342.609 21.8109 339.267 27.1893 340.521L85.9351 354.225C91.3136 355.48 94.6565 360.857 93.4019 366.236L84.5711 404.091C79.5321 425.691 57.9364 439.117 36.3357 434.078C14.7351 429.039 1.30921 407.443 6.34821 385.843L15.179 347.988Z" fill="#46C4FF"/>
<path d="M15.179 347.988C16.4337 342.609 21.8109 339.267 27.1893 340.521L85.9351 354.225C91.3136 355.48 94.6565 360.857 93.4019 366.236L80.8995 419.83C77.8883 432.738 64.983 440.761 52.0747 437.75L20.5968 430.407C7.68852 427.395 -0.334615 414.49 2.67662 401.582L15.179 347.988Z" fill="#7AD761"/>
<path d="M28.2193 351.725C28.3447 351.187 28.8824 350.853 29.4203 350.978L80.2495 362.836C80.7873 362.961 81.1216 363.499 80.9961 364.037L71.9895 402.646C68.5897 417.22 54.0191 426.278 39.4451 422.878C24.8712 419.478 15.8128 404.908 19.2126 390.334L28.2193 351.725Z" fill="#60AF4B"/>
<path d="M36.1051 369.693C35.04 370.092 33.811 371.021 33.3425 371.64C32.3696 373.033 31.1164 377.884 31.4711 379.141C31.676 379.999 30.529 382.485 29.7391 382.747C29.5586 382.826 28.7265 383.442 27.8854 384.096C26.5438 385.16 26.2737 385.623 25.7898 387.698C25.315 389.733 25.3432 390.307 25.9872 391.712C27.6991 395.311 30.8819 398.159 35.158 399.967C36.4869 400.52 37.7122 401.17 37.8299 401.36C38.1334 401.795 49.5789 404.465 50.0436 404.209C50.2331 404.091 51.6196 404.05 53.056 404.142C57.6905 404.413 61.8052 403.267 64.9327 400.798C66.1322 399.822 66.4113 399.32 66.8861 397.284C67.37 395.21 67.3328 394.675 66.6004 393.128C66.1357 392.169 65.6619 391.248 65.5352 391.097C64.9424 390.513 65.0139 387.776 65.5772 387.098C66.4516 386.127 67.4742 381.222 67.2181 379.543C67.0721 378.78 66.3807 377.404 65.6023 376.574C64.3937 375.158 63.9981 374.944 61.4247 374.344C59.0435 373.789 58.2395 373.763 56.6686 374.247C55.6214 374.57 54.6152 375.064 54.4283 375.344C53.9239 376.118 46.78 374.451 46.6699 373.534C46.6263 373.2 45.9427 372.312 45.1463 371.559C43.9518 370.43 43.2195 370.097 40.8382 369.542C38.2649 368.941 37.8155 368.958 36.1051 369.693ZM42.3043 374.541C42.4925 374.949 42.8369 375.556 43.0341 375.926C43.4285 376.666 42.7975 379.718 42.2598 379.593C42.0677 379.548 41.813 379.772 41.7413 380.079C41.4815 381.193 38.7264 381.198 36.6421 380.064C34.915 379.135 35.3565 374.985 37.3369 373.787C38.7196 372.895 41.7217 373.393 42.3043 374.541ZM62.686 379.701C63.9318 381.652 62.4917 385.568 60.5317 385.637C58.1607 385.732 55.6923 384.508 55.9522 383.394C56.0238 383.087 55.9329 382.782 55.7025 382.729C55.1648 382.603 55.9494 379.587 56.6689 379.107C56.971 378.853 57.5484 378.461 57.8979 378.179C58.9284 377.406 61.841 378.288 62.686 379.701ZM35.4301 388.731C35.9192 389.413 37.0049 390.314 37.7961 390.741C38.6257 391.178 39.4579 391.777 39.7114 392.079C39.9854 392.467 42.1388 393.131 45.9796 394.027C49.8204 394.923 52.0455 395.28 52.4628 395.054C52.8238 394.895 53.8352 394.726 54.7723 394.702C55.6711 394.668 57.0435 394.34 57.7834 393.946C59.3965 393.107 60.5372 393.252 60.2953 394.289C60.143 394.942 59.3556 395.366 56.5955 396.261C53.1402 397.358 47.548 397.026 42.7394 395.418C38.4505 394.012 32.6584 389.502 33.0348 387.889C33.2677 386.891 34.3931 387.275 35.4301 388.731Z" fill="#2B5121"/>
<path d="M37.2577 378.466L38.8977 378.727C40.6913 379.024 41.1624 378.567 41.1611 376.663C41.1482 375.85 40.9152 375.634 39.6093 375.329L38.073 374.971L37.2577 378.466Z" fill="#2B5121"/>
<path d="M57.9835 380.588C57.1399 382.294 57.3602 382.913 59.1 383.44L60.6863 383.932L61.5016 380.436L59.9653 380.078C58.6594 379.773 58.3548 379.864 57.9835 380.588Z" fill="#2B5121"/>
<path d="M76.6351 351.825L91.5816 355.311L92.8492 355.839L93.6259 356.484L94.637 358.11L94.8202 359.312L90.6669 377.116L5.94379 427.344L4.3759 425.125L3.07897 422.736L2.0531 420.179L1.29832 417.454L0.814608 414.56L0.770508 411.768L0.997438 408.808L4.27908 394.741L76.6351 351.825Z" fill="white" fill-opacity="0.29"/>
</svg>
