<svg width="944" height="464" viewBox="0 0 944 464" fill="none" xmlns="http://www.w3.org/2000/svg">
<path d="M725.843 135.48L693.984 167.339L772.277 245.632L662.126 282.488L693.984 250.629L615.691 172.336L725.843 135.48ZM943.855 0.757812L506.581 146.516L610.694 250.629L444.113 417.21L881.388 271.452L777.275 167.339L943.855 0.757812Z" fill="#EAECF0"/>
<path d="M725.843 135.48L693.984 167.339L772.277 245.632L662.126 282.488L693.984 250.629L615.691 172.336L725.843 135.48Z" fill="#EAECF0"/>
<rect x="251.986" y="393.501" width="18.9001" height="18.9001" rx="5" transform="rotate(-44.9977 251.986 393.501)" fill="#1CB0F6" fill-opacity="0.5"/>
<rect x="183" y="319.791" width="18.9001" height="18.9001" rx="5" transform="rotate(-44.9977 183 319.791)" fill="#7AD761" fill-opacity="0.5"/>
<path d="M843.79 326.25C842.629 326.025 841.426 326.273 840.446 326.94C839.466 327.607 838.79 328.638 838.566 329.806L828.43 382.672C828.206 383.841 828.453 385.051 829.116 386.036C829.779 387.022 830.804 387.702 831.966 387.927L845.105 390.476L846.794 381.665L855.553 383.364L853.864 392.175L862.623 393.874L864.313 385.063L873.072 386.762L871.383 395.573L880.142 397.273L881.832 388.462L890.591 390.161L888.902 398.972L897.661 400.671L899.35 391.86L908.11 393.559L906.421 402.37L919.56 404.919C920.721 405.144 921.924 404.896 922.904 404.229C923.884 403.562 924.56 402.531 924.784 401.363L934.919 348.497C935.143 347.329 934.897 346.119 934.234 345.133C933.571 344.148 932.546 343.467 931.384 343.242L843.79 326.25ZM853.551 346.421L879.829 351.519L877.295 364.735L851.017 359.638L853.551 346.421ZM888.588 353.218L914.867 358.315L912.333 371.532L886.055 366.434L888.588 353.218Z" fill="#7B2BBE"/>
<path d="M839.44 322.081C838.279 321.856 837.076 322.104 836.096 322.771C835.116 323.438 834.44 324.469 834.216 325.637L824.081 378.503C823.857 379.671 824.103 380.881 824.766 381.867C825.429 382.852 826.454 383.533 827.616 383.758L840.755 386.307L842.444 377.496L851.204 379.195L849.514 388.006L858.274 389.705L859.963 380.894L868.722 382.593L867.033 391.404L875.793 393.103L877.482 384.292L886.241 385.992L884.552 394.802L893.311 396.502L895.001 387.691L903.76 389.39L902.071 398.201L915.21 400.75C916.371 400.975 917.574 400.727 918.554 400.06C919.534 399.393 920.21 398.362 920.434 397.194L930.57 344.328C930.794 343.159 930.547 341.949 929.884 340.964C929.221 339.978 928.196 339.298 927.034 339.073L839.44 322.081ZM849.201 342.252L875.479 347.349L872.945 360.566L846.667 355.468L849.201 342.252ZM884.239 349.048L910.517 354.146L907.983 367.362L881.705 362.265L884.239 349.048Z" fill="#C67DFF"/>
<path d="M835.341 46.8515C836.607 42.1928 841.451 39.4324 846.16 40.6859L921.463 60.7339C926.172 61.9875 928.961 66.7802 927.695 71.4389L914.888 118.532C913.621 123.191 908.777 125.951 904.069 124.698L828.765 104.65C824.057 103.396 821.267 98.6035 822.534 93.9448L835.341 46.8515Z" fill="#1F9DD3"/>
<path d="M825.098 100.31C822.558 99.634 820.628 98.1614 819.307 95.8922C817.986 93.6231 817.666 91.2301 818.348 88.7132L830.773 43.0221C831.456 40.5091 832.946 38.5995 835.243 37.2934C837.539 35.9873 839.956 35.6704 842.494 36.3427L916.38 56.0134C918.92 56.6895 920.851 58.1641 922.175 60.4372C923.498 62.7102 923.816 65.1013 923.131 67.6104L910.705 113.301C910.022 115.815 908.533 117.726 906.239 119.036C903.945 120.346 901.527 120.661 898.985 119.981L825.098 100.31ZM847.297 91.5206L884.241 101.356L886.726 92.2177L849.783 82.3823L847.297 91.5206ZM837.171 74.125L846.407 76.5838L848.892 67.4456L839.657 64.9868L837.171 74.125ZM851.025 77.8132L860.261 80.2721L862.746 71.1339L853.51 68.675L851.025 77.8132ZM864.879 81.5015L874.115 83.9603L876.6 74.8221L867.364 72.3633L864.879 81.5015ZM878.732 85.1897L887.968 87.6486L890.453 78.5103L881.218 76.0515L878.732 85.1897ZM892.586 88.878L901.822 91.3368L904.307 82.1986L895.071 79.7398L892.586 88.878ZM840.899 60.4177L850.135 62.8765L852.62 53.7383L843.384 51.2794L840.899 60.4177ZM854.753 64.1059L863.989 66.5647L866.474 57.4265L857.238 54.9677L854.753 64.1059ZM868.606 67.7942L877.842 70.253L880.327 61.1148L871.091 58.6559L868.606 67.7942ZM882.46 71.4824L891.696 73.9412L894.181 64.803L884.945 62.3442L882.46 71.4824ZM896.314 75.1706L905.549 77.6295L908.035 68.4913L898.799 66.0324L896.314 75.1706Z" fill="#46C4FF"/>
<path fill-rule="evenodd" clip-rule="evenodd" d="M95.8035 344.376C101.055 341.804 107.521 344.452 109.268 350.209L122.62 394.217C124.367 399.975 120.471 405.779 114.676 406.578C104.1 408.012 93.6359 410.176 83.3573 413.054L85.2517 419.298C88.5816 418.529 91.7595 418.016 94.3262 417.68C96.4695 417.398 98.6161 417.159 100.771 417.049C101.399 417.017 102.026 417.109 102.618 417.32C103.21 417.532 103.754 417.858 104.22 418.28C104.686 418.702 105.065 419.212 105.334 419.781C105.603 420.35 105.758 420.966 105.789 421.595C105.837 422.872 105.379 424.118 104.515 425.059C103.652 426 102.452 426.561 101.177 426.62C99.2995 426.742 97.4294 426.936 95.5685 427.177C91.455 427.691 87.3892 428.535 83.41 429.7C79.1829 430.987 75.0394 432.831 71.9079 434.386C70.2279 435.223 68.5664 436.105 66.9394 437.051C65.8476 437.713 64.539 437.916 63.2985 437.616C62.058 437.316 60.986 436.537 60.316 435.448C59.6831 434.351 59.5015 433.05 59.8097 431.822C60.118 430.593 60.8918 429.532 61.9671 428.866C63.8264 427.772 65.727 426.75 67.6646 425.803C69.9823 424.646 72.9039 423.305 76.1022 422.086L74.2078 415.842C64.0699 419.184 54.1742 423.223 44.5912 427.93C39.3379 430.497 32.8709 427.845 31.1254 422.092L17.7729 378.084C16.0259 372.326 19.9222 366.522 25.7183 365.728C50.0791 362.458 73.7487 355.246 95.8035 344.376Z" fill="#F89701"/>
<path fill-rule="evenodd" clip-rule="evenodd" d="M100.49 345.907C105.742 343.336 112.207 345.983 113.954 351.741L127.307 395.748C129.054 401.506 125.157 407.31 119.363 408.109C108.787 409.544 98.3221 411.708 88.0435 414.586L89.9379 420.829C93.2679 420.06 96.4458 419.548 99.0125 419.212C101.156 418.929 103.302 418.691 105.458 418.58C106.085 418.548 106.713 418.641 107.304 418.852C107.896 419.063 108.441 419.389 108.907 419.811C109.373 420.233 109.751 420.743 110.02 421.312C110.289 421.881 110.444 422.497 110.475 423.126C110.523 424.404 110.065 425.649 109.202 426.59C108.338 427.532 107.138 428.093 105.863 428.152C103.986 428.273 102.116 428.467 100.255 428.709C96.1413 429.223 92.0754 430.066 88.0963 431.231C83.8692 432.519 79.7257 434.362 76.5942 435.917C74.9142 436.754 73.2526 437.636 71.6257 438.582C70.5339 439.244 69.2252 439.447 67.9847 439.147C66.7442 438.847 65.6723 438.068 65.0023 436.98C64.3694 435.883 64.1878 434.582 64.496 433.353C64.8042 432.124 65.578 431.064 66.6533 430.397C68.5127 429.303 70.4133 428.282 72.3509 427.334C74.6686 426.177 77.5902 424.837 80.7884 423.617L78.894 417.373C68.7561 420.715 58.8604 424.754 49.2774 429.461C44.0242 432.028 37.5572 429.376 35.8116 423.623L22.4592 379.615C20.7122 373.858 24.6084 368.053 30.4046 367.259C54.7654 363.989 78.435 356.778 100.49 345.907Z" fill="#FEE333"/>
<path d="M74.6983 74.821L58.2993 66.1438L67.01 49.8078L83.409 58.485L74.6983 74.821ZM36.9452 33.8996C37.3302 33.1775 37.9874 32.6373 38.7723 32.3979C39.5571 32.1586 40.4053 32.2396 41.1301 32.6231L46.5965 35.5155L53.8554 21.9022C54.6255 20.458 55.9399 19.3777 57.5096 18.899C59.0792 18.4202 60.7755 18.5822 62.2253 19.3493L75.8911 26.5803L78.7947 21.135C79.1797 20.4129 79.8369 19.8727 80.6218 19.6334C81.4066 19.394 82.2547 19.475 82.9796 19.8585C83.7045 20.2421 84.2467 20.8968 84.487 21.6786C84.7274 22.4604 84.646 23.3053 84.261 24.0274L81.3574 29.4727L92.2901 35.2575L95.1937 29.8122C95.5787 29.0901 96.2359 28.55 97.0208 28.3106C97.8056 28.0712 98.6537 28.1522 99.3786 28.5357C100.103 28.9193 100.646 29.574 100.886 30.3558C101.126 31.1376 101.045 31.9825 100.66 32.7046L97.7564 38.1499L111.422 45.3809C112.872 46.148 113.956 47.4574 114.437 49.0211C114.918 50.5847 114.755 52.2745 113.985 53.7187L106.726 67.332L112.192 70.2244C112.917 70.6079 113.46 71.2626 113.7 72.0444C113.94 72.8262 113.859 73.6711 113.474 74.3932C113.089 75.1153 112.432 75.6555 111.647 75.8949C110.862 76.1342 110.014 76.0532 109.289 75.6697L103.823 72.7773L98.0154 83.6679L103.482 86.5603C104.207 86.9439 104.749 87.5986 104.989 88.3804C105.229 89.1622 105.148 90.0071 104.763 90.7292C104.378 91.4513 103.721 91.9914 102.936 92.2308C102.151 92.4702 101.303 92.3892 100.578 92.0057L95.1119 89.1133L87.853 102.727C87.0829 104.171 85.7684 105.251 84.1988 105.73C82.6291 106.209 80.9328 106.047 79.4831 105.279L65.8172 98.0485L62.9137 103.494C62.5286 104.216 61.8714 104.756 61.0866 104.995C60.3017 105.235 59.4536 105.154 58.7287 104.77C58.0038 104.387 57.4616 103.732 57.2213 102.95C56.981 102.168 57.0623 101.323 57.4473 100.601L60.3509 95.1561L49.4182 89.3713L46.5147 94.8166C46.1296 95.5387 45.4724 96.0788 44.6876 96.3182C43.9027 96.5576 43.0546 96.4766 42.3297 96.093C41.6048 95.7095 41.0626 95.0548 40.8223 94.273C40.582 93.4912 40.6633 92.6463 41.0483 91.9242L43.9519 86.4789L30.2861 79.2478C28.8363 78.4807 27.7518 77.1713 27.2712 75.6077C26.7906 74.0441 26.9532 72.3543 27.7233 70.9101L34.9822 57.2968L29.5159 54.4044C28.791 54.0208 28.2488 53.3662 28.0085 52.5843C27.7681 51.8025 27.8495 50.9576 28.2345 50.2355C28.6195 49.5135 29.2768 48.9733 30.0616 48.7339C30.8464 48.4945 31.6946 48.5755 32.4194 48.9591L37.8858 51.8515L43.6929 40.9608L38.2266 38.0684C37.5017 37.6849 36.9595 37.0302 36.7191 36.2484C36.4788 35.4666 36.5602 34.6217 36.9452 33.8996ZM51.3812 65.974C50.9962 66.6961 50.9149 67.541 51.1552 68.3228C51.3955 69.1046 51.9377 69.7593 52.6626 70.1429L74.5279 81.7125C75.2528 82.0961 76.1009 82.1771 76.8858 81.9377C77.6706 81.6983 78.3278 81.1581 78.7129 80.436L90.3271 58.6548C90.7122 57.9327 90.7935 57.0878 90.5532 56.306C90.3129 55.5241 89.7706 54.8694 89.0457 54.4859L67.1804 42.9163C66.4555 42.5327 65.6074 42.4517 64.8226 42.6911C64.0377 42.9305 63.3805 43.4706 62.9955 44.1927L51.3812 65.974Z" fill="#850014"/>
<path d="M78.99 73.1922L62.591 64.515L71.3017 48.179L87.7007 56.8562L78.99 73.1922ZM41.2369 32.2708C41.6219 31.5487 42.2791 31.0085 43.0639 30.7692C43.8488 30.5298 44.6969 30.6108 45.4218 30.9943L50.8881 33.8867L58.147 20.2734C58.9171 18.8293 60.2316 17.7489 61.8012 17.2702C63.3709 16.7914 65.0672 16.9534 66.5169 17.7205L80.1828 24.9515L83.0863 19.5062C83.4714 18.7841 84.1286 18.244 84.9134 18.0046C85.6983 17.7652 86.5464 17.8462 87.2713 18.2298C87.9962 18.6133 88.5384 19.268 88.7787 20.0498C89.019 20.8316 88.9377 21.6765 88.5527 22.3986L85.6491 27.8439L96.5818 33.6288L99.4853 28.1834C99.8704 27.4613 100.528 26.9212 101.312 26.6818C102.097 26.4424 102.945 26.5234 103.67 26.907C104.395 27.2905 104.937 27.9452 105.178 28.727C105.418 29.5088 105.337 30.3537 104.952 31.0758L102.048 36.5212L115.714 43.7522C117.164 44.5193 118.248 45.8287 118.729 47.3923C119.209 48.9559 119.047 50.6457 118.277 52.0899L111.018 65.7032L116.484 68.5956C117.209 68.9792 117.751 69.6338 117.992 70.4157C118.232 71.1975 118.151 72.0424 117.766 72.7645C117.38 73.4866 116.723 74.0267 115.938 74.2661C115.154 74.5055 114.305 74.4245 113.581 74.0409L108.114 71.1485L102.307 82.0392L107.773 84.9316C108.498 85.3151 109.041 85.9698 109.281 86.7516C109.521 87.5334 109.44 88.3783 109.055 89.1004C108.67 89.8225 108.013 90.3627 107.228 90.6021C106.443 90.8414 105.595 90.7604 104.87 90.3769L99.4035 87.4845L92.1446 101.098C91.3745 102.542 90.0601 103.622 88.4904 104.101C86.9208 104.58 85.2245 104.418 83.7747 103.651L70.1089 96.4197L67.2053 101.865C66.8203 102.587 66.1631 103.127 65.3782 103.367C64.5934 103.606 63.7453 103.525 63.0204 103.141C62.2955 102.758 61.7533 102.103 61.513 101.321C61.2727 100.54 61.354 99.6947 61.739 98.9726L64.6426 93.5273L53.7099 87.7425L50.8063 93.1878C50.4213 93.9099 49.7641 94.45 48.9792 94.6894C48.1944 94.9288 47.3463 94.8478 46.6214 94.4643C45.8965 94.0807 45.3543 93.426 45.114 92.6442C44.8737 91.8624 44.955 91.0175 45.34 90.2954L48.2436 84.8501L34.5777 77.6191C33.128 76.852 32.0435 75.5426 31.5629 73.9789C31.0823 72.4153 31.2449 70.7255 32.015 69.2813L39.2739 55.668L33.8075 52.7756C33.0827 52.3921 32.5404 51.7374 32.3001 50.9556C32.0598 50.1737 32.1411 49.3289 32.5262 48.6068C32.9112 47.8847 33.5684 47.3445 34.3532 47.1051C35.1381 46.8658 35.9862 46.9468 36.7111 47.3303L42.1774 50.2227L47.9846 39.3321L42.5182 36.4397C41.7934 36.0561 41.2511 35.4014 41.0108 34.6196C40.7705 33.8378 40.8518 32.9929 41.2369 32.2708ZM55.6729 64.3452C55.2878 65.0673 55.2065 65.9122 55.4468 66.694C55.6871 67.4759 56.2294 68.1306 56.9543 68.5141L78.8196 80.0837C79.5445 80.4673 80.3926 80.5483 81.1774 80.3089C81.9623 80.0695 82.6195 79.5294 83.0045 78.8073L94.6188 57.026C95.0038 56.3039 95.0851 55.459 94.8448 54.6772C94.6045 53.8954 94.0623 53.2407 93.3374 52.8571L71.4721 41.2875C70.7472 40.9039 69.8991 40.8229 69.1142 41.0623C68.3294 41.3017 67.6722 41.8419 67.2871 42.564L55.6729 64.3452Z" fill="#E10531"/>
<g clip-path="url(#clip0_1870_1186)">
<path fill-rule="evenodd" clip-rule="evenodd" d="M276.87 80.2637C276.234 78.5801 273.766 78.5801 273.13 80.2637L270.244 87.9144L262.31 90.6973C260.564 91.3106 260.564 93.6904 262.31 94.3037L270.244 97.0866L273.13 104.737C273.766 106.421 276.234 106.421 276.87 104.737L279.756 97.0866L287.69 94.3037C289.436 93.6904 289.436 91.3106 287.69 90.6973L279.756 87.9144L276.87 80.2637Z" fill="#FEE333"/>
</g>
<g clip-path="url(#clip1_1870_1186)">
<path fill-rule="evenodd" clip-rule="evenodd" d="M632.303 392.31C631.69 390.564 629.31 390.564 628.697 392.31L625.914 400.244L618.263 403.13C616.58 403.766 616.58 406.234 618.263 406.87L625.914 409.756L628.697 417.69C629.31 419.436 631.69 419.436 632.303 417.69L635.086 409.756L642.737 406.87C644.42 406.234 644.42 403.766 642.737 403.13L635.086 400.244L632.303 392.31Z" fill="#FEE333"/>
</g>
<rect x="705.589" y="325.021" width="23.6252" height="23.6252" rx="5" transform="rotate(-44.9977 705.589 325.021)" fill="#E10531" fill-opacity="0.5"/>
<rect x="578.958" y="72.7051" width="23.6252" height="23.6252" rx="5" transform="rotate(-44.9977 578.958 72.7051)" fill="#9D4EDD" fill-opacity="0.5"/>
<defs>
<clipPath id="clip0_1870_1186">
<rect width="28" height="27" fill="white" transform="translate(261 79)"/>
</clipPath>
<clipPath id="clip1_1870_1186">
<rect width="27" height="28" fill="white" transform="translate(617 391)"/>
</clipPath>
</defs>
</svg>
