<svg width="1132" height="414" viewBox="0 0 1132 414" fill="none" xmlns="http://www.w3.org/2000/svg">
<ellipse cx="909.5" cy="207" rx="206.5" ry="207" fill="#C6F0AC"/>
<g clip-path="url(#clip0_1889_1383)">
<mask id="mask0_1889_1383" style="mask-type:luminance" maskUnits="userSpaceOnUse" x="812" y="104" width="194" height="249">
<path d="M1005.03 104.132H812.066V352.661H1005.03V104.132Z" fill="white"/>
</mask>
<g mask="url(#mask0_1889_1383)">
<path d="M977.275 300.739C992.859 271.579 974.913 220.549 964.523 197.638H974.441C986.949 213.637 993.475 224.151 1002.3 251.792C1004.37 258.252 1007.5 278.348 1000.89 291.366C995.599 301.78 982.941 301.954 977.275 300.739Z" fill="#499136"/>
<path d="M839.058 300.714C823.82 270.131 841.367 216.612 851.526 192.583H841.829C829.598 209.363 823.218 220.391 814.585 249.379C812.567 256.154 809.505 277.231 815.97 290.884C821.142 301.806 833.517 301.988 839.058 300.714Z" fill="#499136"/>
<path d="M964.259 316.242C999.542 297.225 980.244 226.057 966.049 192.583H907.899H850.198C835.859 226.408 816.36 298.05 851.951 316.249C852.51 316.535 852.882 317.084 852.882 317.683V346.306C852.882 349.802 855.9 352.637 859.623 352.637H871.433C876.91 352.637 882.367 350.247 884.281 345.427C885.648 341.984 886.339 338.297 886.788 333.778C886.882 332.833 887.822 332.163 888.813 332.349L890.782 332.719C901.575 334.746 912.685 334.769 923.487 332.783L925.901 332.34C926.889 332.158 927.822 332.826 927.934 333.766C928.471 338.262 929.572 342.099 931.601 345.928C933.968 350.396 939.208 352.637 944.521 352.637H956.624C960.347 352.637 963.365 349.802 963.365 346.306V317.657C963.365 317.072 963.72 316.533 964.259 316.242Z" fill="#61D243"/>
<path d="M908.025 335.79C942.695 335.79 970.801 304.297 970.801 265.45C970.801 226.603 942.695 195.11 908.025 195.11C873.354 195.11 845.248 226.603 845.248 265.45C845.248 304.297 873.354 335.79 908.025 335.79Z" fill="#ABF47D"/>
<g filter="url(#filter0_d_1889_1383)">
<path fill-rule="evenodd" clip-rule="evenodd" d="M830.859 145.383C830.859 147.858 831.419 150.246 832.459 152.494C825.186 157.731 821.034 164.106 821.034 171.509C821.034 192.791 860.624 213.963 909.46 213.963C958.296 213.963 995.92 194.098 995.92 172.815C996.554 165.442 992.864 158.952 985.936 153.542C987.31 150.993 988.06 148.246 988.06 145.383C988.06 132.036 971.784 121.217 951.707 121.217C936.783 121.217 923.958 127.196 918.359 135.748C915.433 135.64 912.464 135.586 909.46 135.586C906.453 135.586 903.481 135.635 900.551 135.734C894.947 127.189 882.129 121.217 867.212 121.217C847.135 121.217 830.859 132.036 830.859 145.383Z" fill="#61D243"/>
</g>
<path d="M954.758 156.169C960.81 156.108 964.079 156.438 969.53 157.731C969.659 157.761 969.875 157.677 969.967 157.603C979.253 150.113 981.46 137.241 970.963 130.681C970.235 130.227 969.455 129.811 968.62 129.432C959.117 125.109 946.038 125.002 936.475 129.263C936.107 129.428 935.751 129.599 935.405 129.777C923.217 136.067 925.094 151.074 936.14 158.407C936.218 158.459 936.359 158.496 936.461 158.474C944.388 156.754 948.404 156.263 954.758 156.169Z" fill="white"/>
<path d="M864.572 155.173C858.403 155.092 855.068 155.396 849.5 156.615C849.367 156.644 849.148 156.562 849.055 156.491C839.653 149.271 837.512 136.913 848.271 130.661C849.017 130.228 849.815 129.832 850.669 129.471C860.396 125.361 873.73 125.307 883.442 129.431C883.816 129.59 884.178 129.756 884.528 129.928C896.9 136.009 894.857 150.399 883.534 157.391C883.453 157.441 883.31 157.475 883.206 157.453C875.139 155.774 871.049 155.287 864.572 155.173Z" fill="white"/>
<path fill-rule="evenodd" clip-rule="evenodd" d="M950.519 154.573C959.368 154.573 966.542 149.656 966.542 143.59C966.542 140.937 965.171 138.504 962.886 136.606C963.639 137.4 964.077 138.348 964.077 139.365C964.077 142.165 960.766 144.435 956.682 144.435C952.597 144.435 949.286 142.165 949.286 139.365C949.286 136.566 952.597 134.296 956.682 134.296C958.167 134.296 959.549 134.596 960.707 135.112C957.938 133.547 954.388 132.606 950.519 132.606C941.67 132.606 934.496 137.524 934.496 143.59C934.496 149.656 941.67 154.573 950.519 154.573Z" fill="black" fill-opacity="0.8"/>
<path fill-rule="evenodd" clip-rule="evenodd" d="M869.97 153.759C878.819 153.759 885.993 149.632 885.993 143.575C885.993 140.926 884.621 138.496 882.337 136.6C883.091 137.394 883.528 138.34 883.528 139.356C883.528 142.152 880.217 144.418 876.133 144.418C872.049 144.418 868.738 142.152 868.738 139.356C868.738 136.56 872.049 134.294 876.133 134.294C877.618 134.294 879 134.593 880.159 135.109C877.39 133.546 873.84 132.606 869.97 132.606C861.121 132.606 853.947 137.517 853.947 143.575C853.947 149.632 861.121 153.759 869.97 153.759Z" fill="black" fill-opacity="0.8"/>
<g filter="url(#filter1_d_1889_1383)">
<path d="M972.786 167.59C951.102 170.025 930.48 172.321 909.035 167.59C890.31 170.586 858.727 170.318 847.018 167.59C848.646 228.523 968.904 231.426 973.449 170.561C973.521 169.585 973.448 168.563 972.786 167.59Z" fill="#ABF47D"/>
</g>
<path d="M837.495 124.336C841.166 113.535 845.85 110.375 860.453 104.284C860.955 104.075 861.601 104.083 862.094 104.3L862.424 104.446C880.57 112.462 886.346 115.014 885.977 120.764C885.972 120.846 885.797 120.863 885.715 120.804C873.821 112.24 852.989 114.28 840.604 122.506C839.692 123.112 838.747 123.756 837.759 124.439C837.648 124.516 837.459 124.442 837.495 124.336Z" fill="#333333"/>
<path d="M980.396 124.336C976.922 113.535 972.488 110.375 958.667 104.284C958.193 104.075 957.581 104.083 957.114 104.3L956.802 104.446C939.628 112.462 934.162 115.014 934.511 120.764C934.516 120.846 934.681 120.863 934.759 120.804C946.016 112.24 965.732 114.28 977.453 122.506C978.317 123.112 979.21 123.756 980.145 124.439C980.251 124.516 980.43 124.442 980.396 124.336Z" fill="#333333"/>
<path d="M984.019 278.507C982.995 287.629 981.701 292.225 977.976 301C988.63 302.272 998.315 298.878 1002.19 287.419C991.563 288.514 989.243 285.539 984.019 278.507Z" fill="#417932" stroke="#417932" stroke-width="0.4"/>
<path d="M954.525 347.206C954.525 346.043 955.528 345.1 956.766 345.1C958.005 345.1 959.008 346.043 959.008 347.206V352.104C957.616 352.652 956.609 352.762 954.525 352.681V347.206Z" fill="#499136"/>
<path d="M945.557 347.206C945.557 346.043 946.56 345.1 947.798 345.1C949.037 345.1 950.04 346.043 950.04 347.206V352.681H945.557V347.206Z" fill="#499136"/>
<path d="M861.257 347.206C861.257 346.043 860.253 345.1 859.015 345.1C857.777 345.1 856.773 346.043 856.773 347.206V352.015C858.165 352.563 859.172 352.764 861.257 352.683V347.206Z" fill="#499136"/>
<path d="M870.225 347.206C870.225 346.043 869.221 345.1 867.983 345.1C866.744 345.1 865.74 346.043 865.74 347.206V352.681H870.225V347.206Z" fill="#499136"/>
<path d="M936.588 347.206C936.588 346.043 937.592 345.1 938.83 345.1C940.069 345.1 941.072 346.043 941.072 347.206V352.312C939.281 351.934 938.29 351.579 936.588 350.752V347.206Z" fill="#499136"/>
<path d="M879.193 347.206C879.193 346.043 878.189 345.1 876.951 345.1C875.712 345.1 874.709 346.043 874.709 347.206V352.26C876.5 351.883 877.491 351.497 879.193 350.671V347.206Z" fill="#499136"/>
<path d="M964.075 297.039C954.659 316.414 941.655 333.683 907.349 335.789C879.327 334.526 861.839 317.677 851.974 297.039C896.407 331.412 920.104 331.122 964.075 297.039Z" fill="#9EE075"/>
<path d="M936.723 346.741V350.531C933.563 349.106 932.147 347.368 930.445 343.371C928.975 339.502 928.378 337.308 927.754 333.262C927.5 332.781 927.299 332.601 926.858 332.42C953.626 320.402 963.274 307.163 970.353 275.137C979.581 275.456 981.947 271.226 983.805 259.975C985.225 279.454 983.883 288.335 978.424 301.252C974.539 308.078 971.994 311.653 964.524 315.993C963.689 316.539 963.394 316.999 963.179 318.1V334.947C954.849 340.588 949.848 343.25 938.964 345.055C937.776 345.158 937.289 345.503 936.723 346.741Z" fill="#5EBE45" stroke="#5EBE45" stroke-width="0.4"/>
<path d="M879.407 346.741V350.531C882.566 349.106 883.982 347.368 885.685 343.371C887.155 339.502 887.752 337.308 888.375 333.262C888.629 332.781 888.83 332.601 889.272 332.42C862.502 320.402 852.855 307.163 845.775 275.137C836.546 275.456 834.18 271.226 832.322 259.975C830.902 279.454 832.245 288.335 837.703 301.252C841.589 308.078 844.133 311.653 851.604 315.993C852.439 316.539 852.735 316.999 852.95 318.1V334.947C861.279 340.588 866.281 343.25 877.165 345.055C878.354 345.158 878.84 345.503 879.407 346.741Z" fill="#5EBE45" stroke="#5EBE45" stroke-width="0.4"/>
<path d="M831.581 278.507C832.53 287.561 833.727 292.121 837.177 300.83C827.312 302.094 818.344 298.725 814.757 287.352C824.596 288.438 826.745 285.485 831.581 278.507Z" fill="#417932" stroke="#417932" stroke-width="0.4"/>
<path d="M959.143 290.3C960.133 290.3 960.936 289.546 960.936 288.615C960.936 287.685 960.133 286.931 959.143 286.931C958.152 286.931 957.349 287.685 957.349 288.615C957.349 289.546 958.152 290.3 959.143 290.3Z" fill="#9EE075"/>
<path d="M854.216 290.3C855.207 290.3 856.01 289.546 856.01 288.615C856.01 287.685 855.207 286.931 854.216 286.931C853.226 286.931 852.423 287.685 852.423 288.615C852.423 289.546 853.226 290.3 854.216 290.3Z" fill="#9EE075"/>
<path d="M950.175 297.04C951.165 297.04 951.968 296.285 951.968 295.355C951.968 294.424 951.165 293.67 950.175 293.67C949.184 293.67 948.381 294.424 948.381 295.355C948.381 296.285 949.184 297.04 950.175 297.04Z" fill="#9EE075"/>
<path d="M862.287 297.04C863.278 297.04 864.081 296.285 864.081 295.355C864.081 294.424 863.278 293.67 862.287 293.67C861.297 293.67 860.494 294.424 860.494 295.355C860.494 296.285 861.297 297.04 862.287 297.04Z" fill="#9EE075"/>
<path d="M948.38 288.616C949.371 288.616 950.174 287.861 950.174 286.931C950.174 286 949.371 285.246 948.38 285.246C947.39 285.246 946.587 286 946.587 286.931C946.587 287.861 947.39 288.616 948.38 288.616Z" fill="#9EE075"/>
<path d="M990.531 178.262C991.521 178.262 992.324 177.508 992.324 176.577C992.324 175.647 991.521 174.893 990.531 174.893C989.54 174.893 988.737 175.647 988.737 176.577C988.737 177.508 989.54 178.262 990.531 178.262Z" fill="#499136"/>
<path d="M981.563 185.001C982.553 185.001 983.357 184.247 983.357 183.317C983.357 182.386 982.553 181.632 981.563 181.632C980.572 181.632 979.77 182.386 979.77 183.317C979.77 184.247 980.572 185.001 981.563 185.001Z" fill="#499136"/>
<path d="M979.769 176.578C980.76 176.578 981.563 175.823 981.563 174.893C981.563 173.962 980.76 173.208 979.769 173.208C978.778 173.208 977.975 173.962 977.975 174.893C977.975 175.823 978.778 176.578 979.769 176.578Z" fill="#499136"/>
<path d="M843.454 178.262C844.445 178.262 845.248 177.508 845.248 176.577C845.248 175.647 844.445 174.893 843.454 174.893C842.464 174.893 841.661 175.647 841.661 176.577C841.661 177.508 842.464 178.262 843.454 178.262Z" fill="#499136"/>
<path d="M834.486 185.001C835.477 185.001 836.28 184.247 836.28 183.317C836.28 182.386 835.477 181.632 834.486 181.632C833.496 181.632 832.693 182.386 832.693 183.317C832.693 184.247 833.496 185.001 834.486 185.001Z" fill="#499136"/>
<path d="M832.693 176.578C833.684 176.578 834.487 175.823 834.487 174.893C834.487 173.962 833.684 173.208 832.693 173.208C831.702 173.208 830.899 173.962 830.899 174.893C830.899 175.823 831.702 176.578 832.693 176.578Z" fill="#499136"/>
<path d="M862.287 289.458C863.278 289.458 864.081 288.704 864.081 287.774C864.081 286.843 863.278 286.089 862.287 286.089C861.297 286.089 860.494 286.843 860.494 287.774C860.494 288.704 861.297 289.458 862.287 289.458Z" fill="#9EE075"/>
<path d="M980.4 164.336C971.393 169.299 958.015 170.022 945.51 170.021C934.717 170.021 925.379 169.463 913.166 168.097C910.471 167.796 907.701 167.75 904.983 167.974C889.052 169.294 879.845 170.13 861.941 170.021C851.844 169.403 846.462 167.613 840.089 164.336" stroke="#499036" stroke-width="5" stroke-linecap="round"/>
</g>
</g>
<path d="M996.449 180.344C990.77 168.217 989.908 165.401 981.609 147.222C979.252 136.447 992.988 130.931 1005.85 134.542C1018.7 138.153 1023.52 148.98 1019.49 163.335C1015.46 177.69 1000.79 186.595 996.449 180.344Z" fill="#2A55C2"/>
<path d="M825.208 180.344C829.601 167.693 830.166 164.802 836.537 145.862C837.764 134.901 823.53 130.837 811.117 135.761C798.704 140.685 795.031 151.954 800.529 165.814C806.026 179.674 821.543 187.01 825.208 180.344Z" fill="#2A55C2"/>
<path d="M1005.88 143.467C974.866 48.8691 851.52 37.3053 812.245 140.75C810.721 144.764 811.748 143.467 818.905 143.467C858.334 52.7458 960.155 57.9147 998.822 143.467L1005.88 143.467Z" fill="#2A55C2"/>
<path d="M927.982 193.322C949.663 215.276 998.947 204.519 1001.19 170.213C1001.27 168.865 1001.84 169.363 999.397 170.28C995.707 201.381 952.099 212.56 929.683 192.943L927.982 193.322Z" fill="#2A55C2"/>
<path d="M928.148 200.601C925.032 199.008 923.798 195.19 925.391 192.074V192.074C926.985 188.959 930.802 187.725 933.918 189.318L942.447 193.68C944.7 194.832 945.592 197.592 944.44 199.844L942.841 202.971C941.689 205.223 938.929 206.115 936.677 204.963L928.148 200.601Z" fill="#2A55C2"/>
<path d="M942.01 193.443C944.492 194.607 945.561 197.563 944.397 200.045L943.231 202.531C942.067 205.013 939.112 206.081 936.63 204.917V204.917C935.915 204.582 935.608 203.731 935.943 203.017L940.111 194.13C940.446 193.416 941.296 193.108 942.01 193.443V193.443Z" fill="#02216E"/>
<path d="M813.997 168.102C816.574 160.68 816.905 158.985 820.643 147.873C821.363 141.442 813.013 139.058 805.73 141.947C798.447 144.835 796.293 151.447 799.518 159.578C802.743 167.709 811.846 172.013 813.997 168.102Z" fill="#02216F"/>
<path d="M1007.13 168.327C1003.8 161.212 1003.29 159.56 998.421 148.895C997.038 142.573 1005.1 139.337 1012.64 141.455C1020.18 143.574 1023.01 149.926 1020.65 158.348C1018.28 166.77 1009.67 171.994 1007.13 168.327Z" fill="#02216E"/>
<path d="M972.53 362.817C974.078 362.817 975.333 363.789 975.333 364.988C975.333 366.187 974.078 367.159 972.53 367.159L845.657 367.156C844.109 367.156 842.854 366.184 842.854 364.985C842.854 363.786 844.109 362.814 845.657 362.814L972.53 362.817Z" fill="#F0F0F0"/>
<path d="M1100.5 155.537C1100.29 156.849 1099.57 158.026 1098.5 158.807C1097.42 159.589 1096.08 159.911 1094.77 159.704C1093.46 159.496 1092.28 158.776 1091.5 157.701C1090.72 156.626 1090.39 155.285 1090.6 153.972C1090.81 152.66 1091.53 151.484 1092.6 150.702C1093.68 149.921 1095.02 149.598 1096.33 149.806C1097.64 150.013 1098.82 150.733 1099.6 151.808C1100.38 152.883 1100.71 154.224 1100.5 155.537Z" fill="#850014"/>
<path fill-rule="evenodd" clip-rule="evenodd" d="M1099.96 126.414C1098.3 126.152 1096.8 126.422 1095.68 126.972C1094.61 127.502 1094.01 128.221 1093.76 128.885C1093.41 129.768 1092.73 130.48 1091.86 130.867C1090.99 131.254 1090.01 131.285 1089.12 130.953C1088.22 130.622 1087.5 129.955 1087.09 129.095C1086.69 128.235 1086.64 127.25 1086.95 126.353C1087.95 123.655 1090.04 121.654 1092.47 120.453C1095 119.205 1098.03 118.755 1101.09 119.238C1107.42 120.238 1113.31 125.506 1112.23 132.301C1111.61 136.236 1108.77 139.049 1105.45 140.426C1104.56 140.794 1103.56 140.794 1102.67 140.425C1101.78 140.056 1101.07 139.349 1100.7 138.458C1100.33 137.568 1100.33 136.568 1100.7 135.678C1101.07 134.787 1101.78 134.08 1102.67 133.712C1104.22 133.071 1104.92 132.053 1105.06 131.167C1105.28 129.747 1103.9 127.037 1099.96 126.414Z" fill="#850014"/>
<path fill-rule="evenodd" clip-rule="evenodd" d="M1098.44 135.978C1100.42 136.291 1101.78 138.149 1101.47 140.133L1100.88 143.85C1100.73 144.802 1100.2 145.655 1099.43 146.221C1098.65 146.788 1097.67 147.021 1096.72 146.871C1095.77 146.721 1094.92 146.198 1094.35 145.419C1093.78 144.64 1093.55 143.668 1093.7 142.716L1094.29 138.999C1094.6 137.02 1096.46 135.665 1098.44 135.978Z" fill="#850014"/>
<path fill-rule="evenodd" clip-rule="evenodd" d="M1107.44 135.716C1107.61 136.158 1107.7 136.632 1107.7 137.109C1107.69 137.587 1107.6 138.059 1107.41 138.498C1107.22 138.937 1106.95 139.335 1106.61 139.669C1106.27 140.003 1105.86 140.266 1105.42 140.444L1099.23 142.934C1098.34 143.294 1097.34 143.284 1096.45 142.906C1095.57 142.529 1094.87 141.815 1094.51 140.921C1094.15 140.027 1094.16 139.027 1094.54 138.141C1094.91 137.255 1095.63 136.554 1096.52 136.194L1102.71 133.703C1103.15 133.525 1103.63 133.436 1104.1 133.441C1104.58 133.445 1105.05 133.544 1105.49 133.731C1105.93 133.919 1106.33 134.19 1106.66 134.531C1106.99 134.872 1107.26 135.273 1107.44 135.716Z" fill="#850014"/>
<path d="M1098.68 154.234C1098.47 155.547 1097.75 156.723 1096.67 157.504C1095.6 158.286 1094.26 158.608 1092.94 158.401C1091.63 158.194 1090.46 157.473 1089.67 156.398C1088.89 155.324 1088.57 153.982 1088.78 152.67C1088.99 151.357 1089.71 150.181 1090.78 149.399C1091.86 148.618 1093.2 148.295 1094.51 148.503C1095.82 148.71 1097 149.431 1097.78 150.505C1098.56 151.58 1098.88 152.921 1098.68 154.234Z" fill="#E10531"/>
<path fill-rule="evenodd" clip-rule="evenodd" d="M1098.13 125.112C1096.47 124.85 1094.97 125.12 1093.86 125.669C1092.79 126.199 1092.18 126.918 1091.94 127.582C1091.59 128.466 1090.9 129.177 1090.04 129.564C1089.17 129.951 1088.18 129.982 1087.29 129.651C1086.4 129.319 1085.68 128.652 1085.27 127.792C1084.87 126.932 1084.81 125.948 1085.13 125.05C1086.13 122.353 1088.22 120.351 1090.65 119.151C1093.18 117.902 1096.21 117.452 1099.27 117.936C1105.59 118.936 1111.48 124.204 1110.41 130.999C1109.79 134.933 1106.95 137.746 1103.63 139.123C1102.74 139.492 1101.73 139.491 1100.84 139.122C1099.95 138.753 1099.25 138.046 1098.88 137.156C1098.51 136.265 1098.51 135.265 1098.88 134.375C1099.25 133.485 1099.96 132.778 1100.85 132.409C1102.39 131.768 1103.09 130.751 1103.23 129.865C1103.46 128.444 1102.07 125.735 1098.13 125.112Z" fill="#E10531"/>
<path fill-rule="evenodd" clip-rule="evenodd" d="M1096.62 134.676C1098.6 134.989 1099.96 136.847 1099.64 138.832L1099.05 142.548C1098.9 143.5 1098.38 144.353 1097.6 144.919C1096.82 145.486 1095.85 145.72 1094.9 145.569C1093.95 145.419 1093.09 144.897 1092.53 144.117C1091.96 143.338 1091.73 142.366 1091.88 141.414L1092.47 137.697C1092.78 135.718 1094.64 134.363 1096.62 134.676Z" fill="#E10531"/>
<path fill-rule="evenodd" clip-rule="evenodd" d="M1105.61 134.413C1105.79 134.856 1105.88 135.329 1105.88 135.807C1105.87 136.284 1105.77 136.756 1105.59 137.195C1105.4 137.634 1105.13 138.032 1104.79 138.366C1104.44 138.7 1104.04 138.964 1103.6 139.142L1097.41 141.631C1096.52 141.991 1095.52 141.981 1094.63 141.604C1093.74 141.226 1093.04 140.512 1092.68 139.618C1092.32 138.725 1092.33 137.725 1092.71 136.838C1093.09 135.952 1093.8 135.252 1094.7 134.892L1100.89 132.4C1101.33 132.222 1101.8 132.133 1102.28 132.138C1102.76 132.143 1103.23 132.242 1103.67 132.429C1104.11 132.616 1104.5 132.888 1104.84 133.228C1105.17 133.569 1105.43 133.97 1105.61 134.413Z" fill="#E10531"/>
<path d="M1081.87 131.764C1082 134.146 1081.19 136.484 1079.6 138.262C1078 140.041 1075.77 141.114 1073.39 141.247C1071.01 141.38 1068.67 140.561 1066.89 138.971C1065.11 137.38 1064.04 135.148 1063.91 132.766C1063.78 130.384 1064.59 128.047 1066.18 126.268C1067.77 124.49 1070.01 123.416 1072.39 123.283C1074.77 123.15 1077.11 123.969 1078.89 125.56C1080.67 127.15 1081.74 129.382 1081.87 131.764Z" fill="#1F9DD3"/>
<path fill-rule="evenodd" clip-rule="evenodd" d="M1069.89 80.859C1066.88 81.0268 1064.35 82.069 1062.6 83.4548C1060.92 84.792 1060.14 86.282 1059.95 87.54C1059.67 89.2236 1058.75 90.7308 1057.37 91.7383C1055.99 92.7458 1054.27 93.1733 1052.59 92.9291C1050.9 92.6849 1049.37 91.7885 1048.33 90.4322C1047.3 89.0758 1046.84 87.3676 1047.05 85.674C1047.78 80.5603 1050.69 76.2582 1054.5 73.23C1058.47 70.0804 1063.62 68.1447 1069.17 67.8351C1080.65 67.1947 1092.98 74.2103 1093.67 86.5426C1094.07 93.6832 1090.15 99.6953 1084.84 103.37C1083.42 104.354 1081.66 104.732 1079.96 104.422C1078.26 104.111 1076.75 103.137 1075.76 101.714C1074.78 100.291 1074.4 98.5351 1074.71 96.8332C1075.02 95.1313 1076 93.6224 1077.42 92.6386C1079.89 90.9285 1080.74 88.8767 1080.65 87.2689C1080.5 84.6911 1077.05 80.46 1069.89 80.859Z" fill="#1F9DD3"/>
<path fill-rule="evenodd" clip-rule="evenodd" d="M1070.86 98.2169C1074.45 98.0166 1077.53 100.764 1077.74 104.366L1078.11 111.111C1078.21 112.838 1077.61 114.533 1076.46 115.822C1075.31 117.111 1073.69 117.89 1071.96 117.986C1070.24 118.083 1068.54 117.489 1067.25 116.336C1065.96 115.183 1065.18 113.565 1065.09 111.837L1064.71 105.092C1064.51 101.499 1067.26 98.4175 1070.86 98.2169Z" fill="#1F9DD3"/>
<path fill-rule="evenodd" clip-rule="evenodd" d="M1086.54 94.3507C1087.02 95.0603 1087.36 95.8577 1087.53 96.6973C1087.7 97.5369 1087.71 98.4023 1087.55 99.244C1087.39 100.086 1087.06 100.887 1086.59 101.602C1086.11 102.318 1085.51 102.933 1084.8 103.413L1074.88 110.124C1073.45 111.094 1071.69 111.455 1069.99 111.129C1068.29 110.802 1066.79 109.814 1065.82 108.381C1064.85 106.949 1064.49 105.19 1064.82 103.492C1065.15 101.793 1066.13 100.294 1067.57 99.3238L1077.48 92.6078C1078.19 92.1277 1078.99 91.7921 1079.83 91.62C1080.67 91.448 1081.53 91.443 1082.38 91.6052C1083.22 91.7675 1084.02 92.0939 1084.73 92.5657C1085.45 93.0375 1086.06 93.6411 1086.54 94.3507Z" fill="#1F9DD3"/>
<path d="M1078.18 130.169C1078.31 132.551 1077.49 134.888 1075.9 136.667C1074.31 138.445 1072.08 139.519 1069.7 139.652C1067.32 139.784 1064.98 138.965 1063.2 137.375C1061.42 135.784 1060.35 133.553 1060.22 131.17C1060.08 128.788 1060.9 126.451 1062.49 124.673C1064.08 122.894 1066.31 121.82 1068.7 121.688C1071.08 121.555 1073.42 122.374 1075.19 123.964C1076.97 125.555 1078.05 127.786 1078.18 130.169Z" fill="#46C4FF"/>
<path fill-rule="evenodd" clip-rule="evenodd" d="M1066.2 79.2633C1063.19 79.4311 1060.66 80.4733 1058.91 81.8591C1057.23 83.1963 1056.44 84.6863 1056.26 85.9443C1055.98 87.6279 1055.05 89.1351 1053.68 90.1426C1052.3 91.1501 1050.58 91.5776 1048.89 91.3334C1047.2 91.0892 1045.68 90.1928 1044.64 88.8365C1043.61 87.4801 1043.14 85.7719 1043.35 84.0783C1044.09 78.9646 1047 74.6625 1050.81 71.6343C1054.78 68.4847 1059.92 66.549 1065.47 66.2394C1076.96 65.599 1089.29 72.6146 1089.98 84.9469C1090.38 92.0875 1086.45 98.0996 1081.15 101.774C1079.72 102.758 1077.97 103.136 1076.26 102.826C1074.56 102.515 1073.05 101.541 1072.07 100.118C1071.09 98.6951 1070.71 96.9394 1071.02 95.2375C1071.33 93.5356 1072.3 92.0267 1073.73 91.0429C1076.2 89.3328 1077.04 87.281 1076.95 85.6732C1076.81 83.0954 1073.35 78.8643 1066.2 79.2633Z" fill="#46C4FF"/>
<path fill-rule="evenodd" clip-rule="evenodd" d="M1067.17 96.6212C1070.76 96.4209 1073.84 99.1682 1074.04 102.77L1074.42 109.515C1074.52 111.243 1073.92 112.937 1072.77 114.226C1071.62 115.516 1070 116.294 1068.27 116.391C1066.54 116.487 1064.85 115.893 1063.56 114.74C1062.27 113.587 1061.49 111.969 1061.39 110.242L1061.02 103.496C1060.82 99.9035 1063.57 96.8218 1067.17 96.6212Z" fill="#46C4FF"/>
<path fill-rule="evenodd" clip-rule="evenodd" d="M1082.85 92.755C1083.33 93.4646 1083.67 94.262 1083.84 95.1016C1084.01 95.9412 1084.02 96.8066 1083.85 97.6483C1083.69 98.4899 1083.37 99.2913 1082.89 100.007C1082.42 100.722 1081.81 101.337 1081.1 101.817L1071.19 108.528C1069.76 109.498 1068 109.86 1066.3 109.533C1064.6 109.206 1063.1 108.218 1062.13 106.786C1061.16 105.353 1060.8 103.595 1061.13 101.896C1061.45 100.197 1062.44 98.6981 1063.87 97.7281L1073.79 91.0121C1074.5 90.532 1075.3 90.1964 1076.14 90.0243C1076.98 89.8523 1077.84 89.8473 1078.68 90.0095C1079.52 90.1718 1080.32 90.4982 1081.04 90.97C1081.75 91.4418 1082.37 92.0454 1082.85 92.755Z" fill="#46C4FF"/>
<g clip-path="url(#clip1_1889_1383)">
<path fill-rule="evenodd" clip-rule="evenodd" d="M1120.52 79.3293C1120.35 77.6317 1118.16 77.0648 1117.2 78.4702L1112.81 84.8573L1105.1 85.5994C1103.4 85.7635 1102.83 87.9565 1104.24 88.9227L1110.62 93.3095L1111.37 101.022C1111.53 102.72 1113.72 103.287 1114.69 101.882L1119.08 95.4944L1126.79 94.7524C1128.49 94.5883 1129.05 92.3953 1127.65 91.4291L1121.26 87.0422L1120.52 79.3293Z" fill="#FEE333"/>
</g>
<path d="M758.4 357.867C758.241 360.288 757.127 362.548 755.302 364.148C753.478 365.748 751.093 366.557 748.671 366.399C746.25 366.24 743.99 365.126 742.39 363.301C740.79 361.477 739.981 359.092 740.139 356.67C740.298 354.249 741.412 351.989 743.237 350.389C745.061 348.789 747.446 347.98 749.868 348.138C752.289 348.297 754.549 349.411 756.149 351.236C757.749 353.06 758.558 355.445 758.4 357.867Z" fill="#850014"/>
<path fill-rule="evenodd" clip-rule="evenodd" d="M752.562 304.999C749.504 304.798 746.819 305.539 744.884 306.723C743.021 307.867 742.044 309.274 741.706 310.522C741.217 312.188 740.096 313.595 738.581 314.443C737.067 315.291 735.28 315.512 733.605 315.058C731.93 314.603 730.499 313.511 729.62 312.014C728.741 310.517 728.484 308.736 728.904 307.051C730.277 301.979 733.738 297.993 737.961 295.404C742.355 292.712 747.787 291.39 753.43 291.76C765.103 292.525 776.693 301.124 775.871 313.66C775.396 320.918 770.697 326.506 764.885 329.564C763.327 330.382 761.508 330.548 759.828 330.025C758.148 329.503 756.744 328.334 755.926 326.776C755.107 325.218 754.941 323.399 755.464 321.719C755.987 320.039 757.156 318.635 758.714 317.817C761.42 316.394 762.526 314.427 762.633 312.792C762.805 310.172 759.834 305.475 752.562 304.999Z" fill="#850014"/>
<path fill-rule="evenodd" clip-rule="evenodd" d="M751.406 322.643C755.058 322.882 757.831 326.035 757.591 329.696L757.142 336.553C757.027 338.308 756.219 339.946 754.897 341.106C753.574 342.266 751.844 342.853 750.089 342.738C748.333 342.623 746.695 341.815 745.535 340.493C744.375 339.17 743.788 337.441 743.903 335.685L744.353 328.828C744.592 325.176 747.749 322.403 751.406 322.643Z" fill="#850014"/>
<path fill-rule="evenodd" clip-rule="evenodd" d="M767.715 320.668C768.113 321.443 768.354 322.29 768.425 323.159C768.496 324.028 768.395 324.902 768.128 325.732C767.861 326.562 767.432 327.331 766.868 327.995C766.303 328.659 765.613 329.206 764.837 329.603L754.001 335.16C752.436 335.963 750.616 336.112 748.941 335.573C747.266 335.034 745.874 333.852 745.071 332.287C744.267 330.722 744.119 328.901 744.658 327.226C745.196 325.552 746.378 324.159 747.944 323.356L758.784 317.795C759.559 317.397 760.405 317.156 761.274 317.086C762.142 317.015 763.016 317.117 763.845 317.384C764.675 317.651 765.443 318.079 766.107 318.643C766.771 319.208 767.317 319.893 767.715 320.668Z" fill="#850014"/>
<path d="M754.867 355.801C754.708 358.222 753.594 360.481 751.77 362.081C749.945 363.681 747.56 364.491 745.138 364.332C742.717 364.174 740.458 363.059 738.858 361.235C737.258 359.411 736.448 357.025 736.607 354.604C736.765 352.182 737.88 349.923 739.704 348.323C741.528 346.723 743.914 345.913 746.335 346.072C748.757 346.231 751.016 347.345 752.616 349.169C754.216 350.994 755.026 353.379 754.867 355.801Z" fill="#E10531"/>
<path fill-rule="evenodd" clip-rule="evenodd" d="M749.03 302.932C745.971 302.732 743.286 303.473 741.352 304.657C739.489 305.8 738.512 307.208 738.173 308.456C737.685 310.121 736.563 311.529 735.049 312.377C733.534 313.225 731.748 313.445 730.072 312.991C728.397 312.537 726.967 311.444 726.088 309.948C725.209 308.451 724.952 306.669 725.371 304.985C726.744 299.913 730.206 295.926 734.428 293.338C738.823 290.646 744.255 289.324 749.897 289.693C761.57 290.459 773.161 299.058 772.339 311.594C771.863 318.852 767.165 324.44 761.352 327.498C759.795 328.316 757.976 328.482 756.296 327.959C754.615 327.436 753.212 326.267 752.393 324.71C751.575 323.152 751.409 321.333 751.932 319.653C752.455 317.973 753.623 316.569 755.181 315.751C757.888 314.328 758.993 312.36 759.1 310.726C759.272 308.106 756.302 303.409 749.03 302.932Z" fill="#E10531"/>
<path fill-rule="evenodd" clip-rule="evenodd" d="M747.873 320.576C751.526 320.816 754.299 323.968 754.059 327.63L753.61 334.486C753.495 336.242 752.687 337.88 751.364 339.04C750.041 340.2 748.312 340.787 746.556 340.672C744.801 340.557 743.163 339.749 742.003 338.426C740.843 337.104 740.256 335.374 740.371 333.619L740.82 326.762C741.06 323.11 744.217 320.337 747.873 320.576Z" fill="#E10531"/>
<path fill-rule="evenodd" clip-rule="evenodd" d="M764.182 318.602C764.58 319.377 764.822 320.223 764.893 321.092C764.963 321.961 764.862 322.836 764.595 323.666C764.328 324.495 763.9 325.264 763.335 325.929C762.77 326.593 762.08 327.139 761.304 327.536L750.468 333.093C748.903 333.897 747.083 334.045 745.408 333.507C743.733 332.968 742.341 331.786 741.538 330.22C740.735 328.655 740.586 326.835 741.125 325.16C741.664 323.485 742.846 322.093 744.411 321.29L755.251 315.728C756.027 315.331 756.873 315.09 757.741 315.019C758.61 314.949 759.483 315.05 760.313 315.317C761.142 315.585 761.91 316.013 762.574 316.577C763.238 317.141 763.785 317.826 764.182 318.602Z" fill="#E10531"/>
<path d="M727.397 363.425C727.59 364.65 727.288 365.902 726.557 366.905C725.826 367.908 724.727 368.58 723.501 368.772C722.275 368.964 721.023 368.662 720.021 367.931C719.018 367.201 718.346 366.102 718.154 364.876C717.961 363.65 718.264 362.398 718.994 361.395C719.725 360.392 720.824 359.721 722.05 359.528C723.276 359.336 724.528 359.638 725.531 360.369C726.534 361.1 727.205 362.199 727.397 363.425Z" fill="#FEC701"/>
<path fill-rule="evenodd" clip-rule="evenodd" d="M718.555 337.705C717.007 337.948 715.751 338.619 714.919 339.427C714.117 340.206 713.788 341.018 713.759 341.678C713.702 342.564 713.3 343.392 712.64 343.985C711.98 344.578 711.113 344.888 710.226 344.849C709.34 344.811 708.504 344.426 707.897 343.778C707.291 343.13 706.963 342.27 706.983 341.383C707.099 338.698 708.379 336.321 710.195 334.556C712.085 332.72 714.647 331.452 717.503 331.003C723.412 330.076 730.159 333.065 731.155 339.411C731.732 343.086 730.015 346.4 727.458 348.578C726.773 349.16 725.884 349.447 724.987 349.375C724.09 349.303 723.259 348.877 722.676 348.192C722.093 347.506 721.806 346.618 721.879 345.721C721.951 344.824 722.377 343.993 723.062 343.41C724.253 342.396 724.583 341.291 724.453 340.463C724.245 339.137 722.237 337.127 718.555 337.705Z" fill="#FEC701"/>
<path fill-rule="evenodd" clip-rule="evenodd" d="M719.958 346.636C721.806 346.346 723.544 347.607 723.835 349.461L724.38 352.932C724.519 353.821 724.3 354.728 723.77 355.455C723.24 356.182 722.443 356.669 721.555 356.809C720.666 356.948 719.758 356.729 719.031 356.199C718.304 355.67 717.817 354.873 717.678 353.984L717.133 350.513C716.843 348.664 718.107 346.927 719.958 346.636Z" fill="#FEC701"/>
<path fill-rule="evenodd" clip-rule="evenodd" d="M727.872 343.821C728.158 344.164 728.373 344.559 728.506 344.984C728.639 345.41 728.686 345.857 728.646 346.301C728.606 346.745 728.478 347.177 728.271 347.572C728.064 347.966 727.781 348.316 727.438 348.601L722.656 352.589C721.965 353.165 721.074 353.444 720.178 353.363C719.282 353.282 718.455 352.848 717.879 352.158C717.302 351.467 717.024 350.575 717.105 349.679C717.186 348.783 717.62 347.956 718.31 347.38L723.094 343.39C723.437 343.104 723.832 342.889 724.257 342.757C724.682 342.624 725.13 342.577 725.573 342.617C726.017 342.657 726.448 342.785 726.843 342.992C727.237 343.199 727.587 343.479 727.872 343.821Z" fill="#FEC701"/>
<path d="M725.404 362.791C725.596 364.017 725.294 365.269 724.563 366.271C723.832 367.274 722.733 367.946 721.507 368.138C720.282 368.331 719.03 368.028 718.027 367.298C717.024 366.567 716.352 365.468 716.16 364.242C715.967 363.016 716.27 361.764 717.001 360.761C717.731 359.758 718.83 359.087 720.056 358.895C721.282 358.702 722.534 359.004 723.537 359.735C724.54 360.466 725.211 361.565 725.404 362.791Z" fill="#FEE333"/>
<path fill-rule="evenodd" clip-rule="evenodd" d="M716.561 337.071C715.013 337.314 713.757 337.985 712.925 338.793C712.124 339.572 711.794 340.384 711.765 341.044C711.708 341.93 711.306 342.758 710.646 343.351C709.986 343.944 709.119 344.254 708.232 344.216C707.346 344.177 706.51 343.792 705.903 343.144C705.297 342.496 704.969 341.636 704.989 340.749C705.105 338.064 706.385 335.688 708.201 333.922C710.091 332.087 712.653 330.818 715.509 330.369C721.418 329.442 728.165 332.432 729.161 338.777C729.738 342.452 728.021 345.766 725.464 347.944C724.779 348.527 723.89 348.814 722.993 348.741C722.096 348.669 721.265 348.243 720.682 347.558C720.099 346.873 719.812 345.984 719.885 345.087C719.957 344.19 720.383 343.359 721.068 342.776C722.259 341.762 722.589 340.657 722.46 339.83C722.251 338.503 720.243 336.493 716.561 337.071Z" fill="#FEE333"/>
<path fill-rule="evenodd" clip-rule="evenodd" d="M717.964 346.003C719.812 345.713 721.55 346.975 721.84 348.828L722.385 352.299C722.525 353.188 722.306 354.095 721.776 354.823C721.246 355.55 720.449 356.036 719.561 356.176C718.672 356.315 717.764 356.096 717.037 355.566C716.31 355.037 715.823 354.24 715.684 353.351L715.139 349.88C714.849 348.031 716.113 346.294 717.964 346.003Z" fill="#FEE333"/>
<path fill-rule="evenodd" clip-rule="evenodd" d="M725.878 343.189C726.164 343.531 726.379 343.926 726.512 344.351C726.645 344.777 726.692 345.224 726.652 345.668C726.612 346.112 726.484 346.544 726.277 346.939C726.07 347.333 725.787 347.683 725.445 347.969L720.662 351.956C719.972 352.533 719.08 352.811 718.184 352.73C717.288 352.649 716.461 352.215 715.885 351.525C715.309 350.834 715.03 349.943 715.111 349.047C715.192 348.151 715.626 347.324 716.316 346.747L721.101 342.757C721.443 342.472 721.838 342.257 722.263 342.124C722.688 341.991 723.136 341.944 723.579 341.984C724.023 342.024 724.454 342.152 724.849 342.359C725.243 342.566 725.593 342.846 725.878 343.189Z" fill="#FEE333"/>
<g clip-path="url(#clip2_1889_1383)">
<path fill-rule="evenodd" clip-rule="evenodd" d="M754.246 379.934C754.15 378.94 752.865 378.608 752.299 379.431L749.729 383.173L745.211 383.607C744.216 383.704 743.884 384.988 744.708 385.554L748.449 388.124L748.884 392.643C748.98 393.637 750.265 393.969 750.831 393.146L753.401 389.404L757.919 388.969C758.914 388.873 759.246 387.589 758.422 387.023L754.681 384.453L754.246 379.934Z" fill="#FEE333"/>
</g>
<g filter="url(#filter2_d_1889_1383)">
<path d="M26.38 127.22C27.98 127.22 29.7 127.06 31.54 126.74C33.42 126.42 35.08 126 36.52 125.48V135.32C34.32 136.2 32.32 136.8 30.52 137.12C28.76 137.48 26.9 137.66 24.94 137.66C21.34 137.66 18.48 137.28 16.36 136.52C14.28 135.72 12.62 134.46 11.38 132.74C10.34 131.22 9.56 129.26 9.04 126.86C8.52 124.46 8.26 121.56 8.26 118.16C8.26 111.48 9.74 106.58 12.7 103.46C15.66 100.34 20.38 98.78 26.86 98.78C28.7 98.78 30.34 98.82 31.78 98.9C33.22 98.98 34.52 99.12 35.68 99.32V109.1C34.4 109.02 33.06 108.96 31.66 108.92C30.26 108.88 28.7 108.86 26.98 108.86C24.06 108.86 22.14 109.52 21.22 110.84C20.3 112.12 19.84 114.56 19.84 118.16C19.84 121.56 20.26 123.92 21.1 125.24C21.98 126.56 23.74 127.22 26.38 127.22ZM74.733 118.16C74.733 125.04 73.293 130.02 70.413 133.1C67.573 136.14 62.973 137.66 56.613 137.66C50.013 137.66 45.353 136.2 42.633 133.28C39.913 130.36 38.553 125.32 38.553 118.16C38.553 111.36 39.973 106.44 42.813 103.4C45.693 100.32 50.293 98.78 56.613 98.78C63.213 98.78 67.873 100.24 70.593 103.16C73.353 106.04 74.733 111.04 74.733 118.16ZM49.833 118.16C49.833 121.72 50.253 124.12 51.093 125.36C51.973 126.6 53.813 127.22 56.613 127.22C59.453 127.22 61.293 126.62 62.133 125.42C63.013 124.18 63.453 121.76 63.453 118.16C63.453 114.48 63.013 112.02 62.133 110.78C61.253 109.5 59.413 108.86 56.613 108.86C53.813 108.86 51.973 109.5 51.093 110.78C50.253 112.02 49.833 114.48 49.833 118.16ZM117.485 99.38V137H107.045V117.02L102.125 129.92H93.4248L88.6848 117.08V137H78.3048V99.38H91.8048L97.9848 116.18L104.465 99.38H117.485ZM157.233 118.16C157.233 125.04 155.793 130.02 152.913 133.1C150.073 136.14 145.473 137.66 139.113 137.66C132.513 137.66 127.853 136.2 125.133 133.28C122.413 130.36 121.053 125.32 121.053 118.16C121.053 111.36 122.473 106.44 125.313 103.4C128.193 100.32 132.793 98.78 139.113 98.78C145.713 98.78 150.373 100.24 153.093 103.16C155.853 106.04 157.233 111.04 157.233 118.16ZM132.333 118.16C132.333 121.72 132.753 124.12 133.593 125.36C134.473 126.6 136.313 127.22 139.113 127.22C141.953 127.22 143.793 126.62 144.633 125.42C145.513 124.18 145.953 121.76 145.953 118.16C145.953 114.48 145.513 112.02 144.633 110.78C143.753 109.5 141.913 108.86 139.113 108.86C136.313 108.86 134.473 109.5 133.593 110.78C132.753 112.02 132.333 114.48 132.333 118.16ZM20.44 177.04V187H9.34V149.38H23.44C29.48 149.38 33.74 150.42 36.22 152.5C38.74 154.54 40 158.02 40 162.94C40 167.78 38.68 171.34 36.04 173.62C33.4 175.9 29.26 177.04 23.62 177.04H20.44ZM28.66 163.12C28.66 161.8 28.32 160.86 27.64 160.3C26.96 159.74 25.74 159.46 23.98 159.46H20.44V167.38H23.98C25.74 167.38 26.96 167.06 27.64 166.42C28.32 165.78 28.66 164.68 28.66 163.12ZM78.3072 168.16C78.3072 175.04 76.8672 180.02 73.9872 183.1C71.1472 186.14 66.5472 187.66 60.1872 187.66C53.5872 187.66 48.9272 186.2 46.2072 183.28C43.4872 180.36 42.1272 175.32 42.1272 168.16C42.1272 161.36 43.5472 156.44 46.3872 153.4C49.2672 150.32 53.8672 148.78 60.1872 148.78C66.7872 148.78 71.4472 150.24 74.1672 153.16C76.9272 156.04 78.3072 161.04 78.3072 168.16ZM53.4072 168.16C53.4072 171.72 53.8272 174.12 54.6672 175.36C55.5472 176.6 57.3872 177.22 60.1872 177.22C63.0272 177.22 64.8672 176.62 65.7072 175.42C66.5872 174.18 67.0272 171.76 67.0272 168.16C67.0272 164.48 66.5872 162.02 65.7072 160.78C64.8272 159.5 62.9872 158.86 60.1872 158.86C57.3872 158.86 55.5472 159.5 54.6672 160.78C53.8272 162.02 53.4072 164.48 53.4072 168.16ZM95.9791 187H81.8791V149.38H95.9791C99.7391 149.38 102.759 149.7 105.039 150.34C107.319 150.98 109.139 152.02 110.499 153.46C111.859 154.9 112.859 156.82 113.499 159.22C114.139 161.58 114.459 164.56 114.459 168.16C114.459 174.68 112.999 179.46 110.079 182.5C107.159 185.5 102.459 187 95.9791 187ZM102.939 168.16C102.939 164.64 102.499 162.28 101.619 161.08C100.779 159.84 98.8991 159.22 95.9791 159.22H92.9791V176.86H95.9791C98.8991 176.86 100.779 176.26 101.619 175.06C102.499 173.86 102.939 171.56 102.939 168.16ZM144.311 176.98V187H118.031V149.38H143.771V159.16H129.131V163.42H141.551V172.54H129.131V176.98H144.311ZM187.153 149.38V187H176.713V167.02L171.793 179.92H163.093L158.353 167.08V187H147.973V149.38H161.473L167.653 166.18L174.133 149.38H187.153ZM226.901 168.16C226.901 175.04 225.461 180.02 222.581 183.1C219.741 186.14 215.141 187.66 208.781 187.66C202.181 187.66 197.521 186.2 194.801 183.28C192.081 180.36 190.721 175.32 190.721 168.16C190.721 161.36 192.141 156.44 194.981 153.4C197.861 150.32 202.461 148.78 208.781 148.78C215.381 148.78 220.041 150.24 222.761 153.16C225.521 156.04 226.901 161.04 226.901 168.16ZM202.001 168.16C202.001 171.72 202.421 174.12 203.261 175.36C204.141 176.6 205.981 177.22 208.781 177.22C211.621 177.22 213.461 176.62 214.301 175.42C215.181 174.18 215.621 171.76 215.621 168.16C215.621 164.48 215.181 162.02 214.301 160.78C213.421 159.5 211.581 158.86 208.781 158.86C205.981 158.86 204.141 159.5 203.261 160.78C202.421 162.02 202.001 164.48 202.001 168.16ZM244.873 173.32L237.853 171.82C234.773 171.14 232.613 170 231.373 168.4C230.173 166.8 229.573 164.54 229.573 161.62C229.573 157.22 230.733 153.98 233.053 151.9C235.373 149.82 239.033 148.78 244.033 148.78C246.193 148.78 248.133 148.88 249.853 149.08C251.573 149.24 253.053 149.5 254.293 149.86V159.76C251.453 159.28 249.373 159 248.053 158.92C246.733 158.8 245.373 158.74 243.973 158.74C242.653 158.74 241.693 158.92 241.093 159.28C240.533 159.64 240.253 160.24 240.253 161.08C240.253 161.52 240.353 161.86 240.553 162.1C240.793 162.34 241.193 162.52 241.753 162.64L248.293 164.08C250.333 164.52 251.853 165 252.853 165.52C253.853 166 254.653 166.6 255.253 167.32C255.933 168.12 256.413 169.14 256.693 170.38C257.013 171.62 257.173 173.12 257.173 174.88C257.173 179.36 255.973 182.62 253.573 184.66C251.173 186.66 247.473 187.66 242.473 187.66C239.913 187.66 237.433 187.52 235.033 187.24C232.673 186.96 230.913 186.6 229.753 186.16V175.66C231.273 176.14 233.193 176.54 235.513 176.86C237.873 177.18 240.213 177.34 242.533 177.34C243.933 177.34 244.913 177.18 245.473 176.86C246.033 176.54 246.313 175.96 246.313 175.12C246.313 174.56 246.213 174.16 246.013 173.92C245.853 173.68 245.473 173.48 244.873 173.32ZM37.42 199.38V209.46H28.18V237H17.02V209.46H7.72V199.38H37.42ZM66.7333 226.98V237H40.4533V199.38H66.1933V209.16H51.5533V213.42H63.9733V222.54H51.5533V226.98H66.7333ZM87.0063 237H75.5462L89.0463 199.38H100.626L113.706 237H102.306L100.746 231.78H88.5063L87.0063 237ZM94.5663 210.54C94.1663 212.1 93.7263 213.72 93.2463 215.4C92.8063 217.04 92.3863 218.52 91.9863 219.84L91.0263 223.14H98.2263L97.2663 219.84C95.4663 213.64 94.5663 210.54 94.5663 210.54ZM125.103 222V199.38H136.203V222.84C136.203 228.16 135.043 231.96 132.723 234.24C130.403 236.52 126.483 237.66 120.963 237.66C119.763 237.66 118.623 237.62 117.543 237.54C116.503 237.46 115.403 237.3 114.243 237.06V226.86C114.883 226.98 115.603 227.08 116.403 227.16C117.203 227.2 118.163 227.22 119.283 227.22C121.643 227.22 123.203 226.88 123.963 226.2C124.723 225.48 125.103 224.08 125.103 222ZM162.489 220.8V199.38H173.649V220.86C173.649 226.42 172.249 230.62 169.449 233.46C166.689 236.26 162.569 237.66 157.089 237.66C151.249 237.66 146.989 236.34 144.309 233.7C141.669 231.02 140.349 226.74 140.349 220.86V199.38H151.449V220.8C151.449 223.32 151.829 225.02 152.589 225.9C153.389 226.78 154.869 227.22 157.029 227.22C159.149 227.22 160.589 226.78 161.349 225.9C162.109 224.98 162.489 223.28 162.489 220.8ZM192.073 237H177.973V199.38H192.073C195.833 199.38 198.853 199.7 201.133 200.34C203.413 200.98 205.233 202.02 206.593 203.46C207.953 204.9 208.953 206.82 209.593 209.22C210.233 211.58 210.553 214.56 210.553 218.16C210.553 224.68 209.093 229.46 206.173 232.5C203.253 235.5 198.553 237 192.073 237ZM199.033 218.16C199.033 214.64 198.593 212.28 197.713 211.08C196.873 209.84 194.993 209.22 192.073 209.22H189.073V226.86H192.073C194.993 226.86 196.873 226.26 197.713 225.06C198.593 223.86 199.033 221.56 199.033 218.16ZM220.893 237H209.433L222.933 199.38H234.513L247.593 237H236.193L234.633 231.78H222.393L220.893 237ZM228.453 210.54C228.053 212.1 227.613 213.72 227.133 215.4C226.693 217.04 226.273 218.52 225.873 219.84L224.913 223.14H232.113L231.153 219.84C229.353 213.64 228.453 210.54 228.453 210.54ZM260.85 225.24V237H249.75V199.38H263.85C269.89 199.38 274.15 200.4 276.63 202.44C279.15 204.44 280.41 207.82 280.41 212.58C280.41 215.42 279.85 217.76 278.73 219.6C277.65 221.44 275.99 222.82 273.75 223.74L281.97 237H269.25L262.95 225.24H260.85ZM269.07 212.76C269.07 211.52 268.73 210.64 268.05 210.12C267.37 209.6 266.15 209.34 264.39 209.34H260.85V216.72H264.39C266.15 216.72 267.37 216.42 268.05 215.82C268.73 215.22 269.07 214.2 269.07 212.76ZM293.323 198.78C296.483 198.78 298.963 199.52 300.763 201C302.603 202.48 303.523 204.54 303.523 207.18C303.523 209.38 302.983 211.36 301.903 213.12C300.863 214.84 299.063 216.58 296.503 218.34V224.04H286.723V215.82C289.163 214.58 290.883 213.52 291.883 212.64C292.923 211.76 293.443 210.92 293.443 210.12C293.443 209.48 293.263 209.02 292.903 208.74C292.543 208.42 291.963 208.26 291.163 208.26C290.083 208.26 288.723 208.42 287.083 208.74C285.443 209.02 284.063 209.34 282.943 209.7V200.46C284.583 199.86 286.183 199.44 287.743 199.2C289.303 198.92 291.163 198.78 293.323 198.78ZM297.163 227.52V237H286.063V227.52H297.163Z" fill="#121212"/>
</g>
<g filter="url(#filter3_d_1889_1383)">
<path d="M11.55 276.172C12.586 276.172 13.4913 276.377 14.266 276.788C15.0407 277.199 15.638 277.777 16.058 278.524C16.4873 279.261 16.702 280.115 16.702 281.086C16.702 282.047 16.4873 282.901 16.058 283.648C15.638 284.395 15.036 284.973 14.252 285.384C13.4773 285.795 12.5767 286 11.55 286H7.868V276.172H11.55ZM11.396 283.928C12.3013 283.928 13.006 283.681 13.51 283.186C14.014 282.691 14.266 281.991 14.266 281.086C14.266 280.181 14.014 279.476 13.51 278.972C13.006 278.468 12.3013 278.216 11.396 278.216H10.262V283.928H11.396ZM25.4039 281.968C25.4039 282.192 25.3899 282.425 25.3619 282.668H19.9439C19.9812 283.153 20.1352 283.527 20.4059 283.788C20.6859 284.04 21.0265 284.166 21.4279 284.166C22.0252 284.166 22.4405 283.914 22.6739 283.41H25.2219C25.0912 283.923 24.8532 284.385 24.5079 284.796C24.1719 285.207 23.7472 285.529 23.2339 285.762C22.7205 285.995 22.1465 286.112 21.5119 286.112C20.7465 286.112 20.0652 285.949 19.4679 285.622C18.8705 285.295 18.4039 284.829 18.0679 284.222C17.7319 283.615 17.5639 282.906 17.5639 282.094C17.5639 281.282 17.7272 280.573 18.0539 279.966C18.3899 279.359 18.8565 278.893 19.4539 278.566C20.0512 278.239 20.7372 278.076 21.5119 278.076C22.2679 278.076 22.9399 278.235 23.5279 278.552C24.1159 278.869 24.5732 279.322 24.8999 279.91C25.2359 280.498 25.4039 281.184 25.4039 281.968ZM22.9539 281.338C22.9539 280.927 22.8139 280.601 22.5339 280.358C22.2539 280.115 21.9039 279.994 21.4839 279.994C21.0825 279.994 20.7419 280.111 20.4619 280.344C20.1912 280.577 20.0232 280.909 19.9579 281.338H22.9539ZM29.8448 286.112C29.1635 286.112 28.5568 285.995 28.0248 285.762C27.4928 285.529 27.0728 285.211 26.7648 284.81C26.4568 284.399 26.2842 283.942 26.2468 283.438H28.6128C28.6408 283.709 28.7668 283.928 28.9908 284.096C29.2148 284.264 29.4902 284.348 29.8168 284.348C30.1155 284.348 30.3442 284.292 30.5028 284.18C30.6708 284.059 30.7548 283.905 30.7548 283.718C30.7548 283.494 30.6382 283.331 30.4048 283.228C30.1715 283.116 29.7935 282.995 29.2708 282.864C28.7108 282.733 28.2442 282.598 27.8708 282.458C27.4975 282.309 27.1755 282.08 26.9048 281.772C26.6342 281.455 26.4988 281.03 26.4988 280.498C26.4988 280.05 26.6202 279.644 26.8628 279.28C27.1148 278.907 27.4788 278.613 27.9548 278.398C28.4402 278.183 29.0142 278.076 29.6768 278.076C30.6568 278.076 31.4268 278.319 31.9868 278.804C32.5562 279.289 32.8828 279.933 32.9668 280.736H30.7548C30.7175 280.465 30.5962 280.251 30.3908 280.092C30.1948 279.933 29.9335 279.854 29.6068 279.854C29.3268 279.854 29.1122 279.91 28.9628 280.022C28.8135 280.125 28.7388 280.269 28.7388 280.456C28.7388 280.68 28.8555 280.848 29.0888 280.96C29.3315 281.072 29.7048 281.184 30.2088 281.296C30.7875 281.445 31.2588 281.595 31.6228 281.744C31.9868 281.884 32.3042 282.117 32.5748 282.444C32.8548 282.761 32.9995 283.191 33.0088 283.732C33.0088 284.189 32.8782 284.6 32.6168 284.964C32.3648 285.319 31.9962 285.599 31.5108 285.804C31.0348 286.009 30.4795 286.112 29.8448 286.112ZM37.9875 283.76L39.6815 278.188H42.2295L39.4575 286H36.5035L33.7315 278.188H36.2935L37.9875 283.76ZM50.6011 281.968C50.6011 282.192 50.5871 282.425 50.5591 282.668H45.1411C45.1785 283.153 45.3325 283.527 45.6031 283.788C45.8831 284.04 46.2238 284.166 46.6251 284.166C47.2225 284.166 47.6378 283.914 47.8711 283.41H50.4191C50.2885 283.923 50.0505 284.385 49.7051 284.796C49.3691 285.207 48.9445 285.529 48.4311 285.762C47.9178 285.995 47.3438 286.112 46.7091 286.112C45.9438 286.112 45.2625 285.949 44.6651 285.622C44.0678 285.295 43.6011 284.829 43.2651 284.222C42.9291 283.615 42.7611 282.906 42.7611 282.094C42.7611 281.282 42.9245 280.573 43.2511 279.966C43.5871 279.359 44.0538 278.893 44.6511 278.566C45.2485 278.239 45.9345 278.076 46.7091 278.076C47.4651 278.076 48.1371 278.235 48.7251 278.552C49.3131 278.869 49.7705 279.322 50.0971 279.91C50.4331 280.498 50.6011 281.184 50.6011 281.968ZM48.1511 281.338C48.1511 280.927 48.0111 280.601 47.7311 280.358C47.4511 280.115 47.1011 279.994 46.6811 279.994C46.2798 279.994 45.9391 280.111 45.6591 280.344C45.3885 280.577 45.2205 280.909 45.1551 281.338H48.1511ZM56.6241 278.104C57.5388 278.104 58.2668 278.403 58.8081 279C59.3588 279.588 59.6341 280.4 59.6341 281.436V286H57.2541V281.758C57.2541 281.235 57.1188 280.829 56.8481 280.54C56.5774 280.251 56.2134 280.106 55.7561 280.106C55.2988 280.106 54.9348 280.251 54.6641 280.54C54.3934 280.829 54.2581 281.235 54.2581 281.758V286H51.8641V278.188H54.2581V279.224C54.5008 278.879 54.8274 278.608 55.2381 278.412C55.6488 278.207 56.1108 278.104 56.6241 278.104ZM60.8217 282.08C60.8217 281.277 60.971 280.573 61.2697 279.966C61.5777 279.359 61.993 278.893 62.5157 278.566C63.0384 278.239 63.6217 278.076 64.2657 278.076C64.779 278.076 65.2457 278.183 65.6657 278.398C66.095 278.613 66.431 278.902 66.6737 279.266V275.64H69.0677V286H66.6737V284.88C66.4497 285.253 66.1277 285.552 65.7077 285.776C65.297 286 64.8164 286.112 64.2657 286.112C63.6217 286.112 63.0384 285.949 62.5157 285.622C61.993 285.286 61.5777 284.815 61.2697 284.208C60.971 283.592 60.8217 282.883 60.8217 282.08ZM66.6737 282.094C66.6737 281.497 66.5057 281.025 66.1697 280.68C65.843 280.335 65.4417 280.162 64.9657 280.162C64.4897 280.162 64.0837 280.335 63.7477 280.68C63.421 281.016 63.2577 281.483 63.2577 282.08C63.2577 282.677 63.421 283.153 63.7477 283.508C64.0837 283.853 64.4897 284.026 64.9657 284.026C65.4417 284.026 65.843 283.853 66.1697 283.508C66.5057 283.163 66.6737 282.691 66.6737 282.094ZM78.1636 281.968C78.1636 282.192 78.1496 282.425 78.1216 282.668H72.7036C72.741 283.153 72.895 283.527 73.1656 283.788C73.4456 284.04 73.7863 284.166 74.1876 284.166C74.785 284.166 75.2003 283.914 75.4336 283.41H77.9816C77.851 283.923 77.613 284.385 77.2676 284.796C76.9316 285.207 76.507 285.529 75.9936 285.762C75.4803 285.995 74.9063 286.112 74.2716 286.112C73.5063 286.112 72.825 285.949 72.2276 285.622C71.6303 285.295 71.1636 284.829 70.8276 284.222C70.4916 283.615 70.3236 282.906 70.3236 282.094C70.3236 281.282 70.487 280.573 70.8136 279.966C71.1496 279.359 71.6163 278.893 72.2136 278.566C72.811 278.239 73.497 278.076 74.2716 278.076C75.0276 278.076 75.6996 278.235 76.2876 278.552C76.8756 278.869 77.333 279.322 77.6596 279.91C77.9956 280.498 78.1636 281.184 78.1636 281.968ZM75.7136 281.338C75.7136 280.927 75.5736 280.601 75.2936 280.358C75.0136 280.115 74.6636 279.994 74.2436 279.994C73.8423 279.994 73.5016 280.111 73.2216 280.344C72.951 280.577 72.783 280.909 72.7176 281.338H75.7136ZM81.9174 282.08C81.9174 281.277 82.0667 280.573 82.3654 279.966C82.6734 279.359 83.0887 278.893 83.6114 278.566C84.1341 278.239 84.7174 278.076 85.3614 278.076C85.8747 278.076 86.3414 278.183 86.7614 278.398C87.1907 278.613 87.5267 278.902 87.7694 279.266V275.64H90.1634V286H87.7694V284.88C87.5454 285.253 87.2234 285.552 86.8034 285.776C86.3927 286 85.9121 286.112 85.3614 286.112C84.7174 286.112 84.1341 285.949 83.6114 285.622C83.0887 285.286 82.6734 284.815 82.3654 284.208C82.0667 283.592 81.9174 282.883 81.9174 282.08ZM87.7694 282.094C87.7694 281.497 87.6014 281.025 87.2654 280.68C86.9387 280.335 86.5374 280.162 86.0614 280.162C85.5854 280.162 85.1794 280.335 84.8434 280.68C84.5167 281.016 84.3534 281.483 84.3534 282.08C84.3534 282.677 84.5167 283.153 84.8434 283.508C85.1794 283.853 85.5854 284.026 86.0614 284.026C86.5374 284.026 86.9387 283.853 87.2654 283.508C87.6014 283.163 87.7694 282.691 87.7694 282.094ZM99.6093 278.188V286H97.2153V284.936C96.9727 285.281 96.6413 285.561 96.2213 285.776C95.8107 285.981 95.3533 286.084 94.8493 286.084C94.252 286.084 93.7247 285.953 93.2673 285.692C92.81 285.421 92.4553 285.034 92.2033 284.53C91.9513 284.026 91.8253 283.433 91.8253 282.752V278.188H94.2053V282.43C94.2053 282.953 94.3407 283.359 94.6113 283.648C94.882 283.937 95.246 284.082 95.7033 284.082C96.17 284.082 96.5387 283.937 96.8093 283.648C97.08 283.359 97.2153 282.953 97.2153 282.43V278.188H99.6093ZM97.3833 276.242L94.0093 277.656V276.004L97.3833 274.38V276.242ZM104.843 283.76L106.537 278.188H109.085L106.313 286H103.359L100.587 278.188H103.149L104.843 283.76ZM111.297 277.376C110.877 277.376 110.531 277.255 110.261 277.012C109.999 276.76 109.869 276.452 109.869 276.088C109.869 275.715 109.999 275.407 110.261 275.164C110.531 274.912 110.877 274.786 111.297 274.786C111.707 274.786 112.043 274.912 112.305 275.164C112.575 275.407 112.711 275.715 112.711 276.088C112.711 276.452 112.575 276.76 112.305 277.012C112.043 277.255 111.707 277.376 111.297 277.376ZM112.487 278.188V286H110.093V278.188H112.487ZM113.746 282.08C113.746 281.277 113.895 280.573 114.194 279.966C114.502 279.359 114.917 278.893 115.44 278.566C115.962 278.239 116.546 278.076 117.19 278.076C117.703 278.076 118.17 278.183 118.59 278.398C119.019 278.613 119.355 278.902 119.598 279.266V275.64H121.992V286H119.598V284.88C119.374 285.253 119.052 285.552 118.632 285.776C118.221 286 117.74 286.112 117.19 286.112C116.546 286.112 115.962 285.949 115.44 285.622C114.917 285.286 114.502 284.815 114.194 284.208C113.895 283.592 113.746 282.883 113.746 282.08ZM119.598 282.094C119.598 281.497 119.43 281.025 119.094 280.68C118.767 280.335 118.366 280.162 117.89 280.162C117.414 280.162 117.008 280.335 116.672 280.68C116.345 281.016 116.182 281.483 116.182 282.08C116.182 282.677 116.345 283.153 116.672 283.508C117.008 283.853 117.414 284.026 117.89 284.026C118.366 284.026 118.767 283.853 119.094 283.508C119.43 283.163 119.598 282.691 119.598 282.094ZM123.247 282.08C123.247 281.277 123.397 280.573 123.695 279.966C124.003 279.359 124.419 278.893 124.941 278.566C125.464 278.239 126.047 278.076 126.691 278.076C127.242 278.076 127.723 278.188 128.133 278.412C128.553 278.636 128.875 278.93 129.099 279.294V278.188H131.493V286H129.099V284.894C128.866 285.258 128.539 285.552 128.119 285.776C127.709 286 127.228 286.112 126.677 286.112C126.043 286.112 125.464 285.949 124.941 285.622C124.419 285.286 124.003 284.815 123.695 284.208C123.397 283.592 123.247 282.883 123.247 282.08ZM129.099 282.094C129.099 281.497 128.931 281.025 128.595 280.68C128.269 280.335 127.867 280.162 127.391 280.162C126.915 280.162 126.509 280.335 126.173 280.68C125.847 281.016 125.683 281.483 125.683 282.08C125.683 282.677 125.847 283.153 126.173 283.508C126.509 283.853 126.915 284.026 127.391 284.026C127.867 284.026 128.269 283.853 128.595 283.508C128.931 283.163 129.099 282.691 129.099 282.094ZM136.403 286.112C135.722 286.112 135.115 285.995 134.583 285.762C134.051 285.529 133.631 285.211 133.323 284.81C133.015 284.399 132.843 283.942 132.805 283.438H135.171C135.199 283.709 135.325 283.928 135.549 284.096C135.773 284.264 136.049 284.348 136.375 284.348C136.674 284.348 136.903 284.292 137.061 284.18C137.229 284.059 137.313 283.905 137.313 283.718C137.313 283.494 137.197 283.331 136.963 283.228C136.73 283.116 136.352 282.995 135.829 282.864C135.269 282.733 134.803 282.598 134.429 282.458C134.056 282.309 133.734 282.08 133.463 281.772C133.193 281.455 133.057 281.03 133.057 280.498C133.057 280.05 133.179 279.644 133.421 279.28C133.673 278.907 134.037 278.613 134.513 278.398C134.999 278.183 135.573 278.076 136.235 278.076C137.215 278.076 137.985 278.319 138.545 278.804C139.115 279.289 139.441 279.933 139.525 280.736H137.313C137.276 280.465 137.155 280.251 136.949 280.092C136.753 279.933 136.492 279.854 136.165 279.854C135.885 279.854 135.671 279.91 135.521 280.022C135.372 280.125 135.297 280.269 135.297 280.456C135.297 280.68 135.414 280.848 135.647 280.96C135.89 281.072 136.263 281.184 136.767 281.296C137.346 281.445 137.817 281.595 138.181 281.744C138.545 281.884 138.863 282.117 139.133 282.444C139.413 282.761 139.558 283.191 139.567 283.732C139.567 284.189 139.437 284.6 139.175 284.964C138.923 285.319 138.555 285.599 138.069 285.804C137.593 286.009 137.038 286.112 136.403 286.112ZM143.608 283.788L142.054 287.806H140.528L141.34 283.788H143.608ZM147.542 282.08C147.542 281.277 147.692 280.573 147.99 279.966C148.298 279.359 148.714 278.893 149.236 278.566C149.759 278.239 150.342 278.076 150.986 278.076C151.537 278.076 152.018 278.188 152.428 278.412C152.848 278.636 153.17 278.93 153.394 279.294V278.188H155.788V286H153.394V284.894C153.161 285.258 152.834 285.552 152.414 285.776C152.004 286 151.523 286.112 150.972 286.112C150.338 286.112 149.759 285.949 149.236 285.622C148.714 285.286 148.298 284.815 147.99 284.208C147.692 283.592 147.542 282.883 147.542 282.08ZM153.394 282.094C153.394 281.497 153.226 281.025 152.89 280.68C152.564 280.335 152.162 280.162 151.686 280.162C151.21 280.162 150.804 280.335 150.468 280.68C150.142 281.016 149.978 281.483 149.978 282.08C149.978 282.677 150.142 283.153 150.468 283.508C150.804 283.853 151.21 284.026 151.686 284.026C152.162 284.026 152.564 283.853 152.89 283.508C153.226 283.163 153.394 282.691 153.394 282.094ZM159.914 279.294C160.138 278.93 160.46 278.636 160.88 278.412C161.3 278.188 161.781 278.076 162.322 278.076C162.966 278.076 163.55 278.239 164.072 278.566C164.595 278.893 165.006 279.359 165.304 279.966C165.612 280.573 165.766 281.277 165.766 282.08C165.766 282.883 165.612 283.592 165.304 284.208C165.006 284.815 164.595 285.286 164.072 285.622C163.55 285.949 162.966 286.112 162.322 286.112C161.772 286.112 161.291 286.005 160.88 285.79C160.47 285.566 160.148 285.272 159.914 284.908V286H157.52V275.64H159.914V279.294ZM163.33 282.08C163.33 281.483 163.162 281.016 162.826 280.68C162.5 280.335 162.094 280.162 161.608 280.162C161.132 280.162 160.726 280.335 160.39 280.68C160.064 281.025 159.9 281.497 159.9 282.094C159.9 282.691 160.064 283.163 160.39 283.508C160.726 283.853 161.132 284.026 161.608 284.026C162.084 284.026 162.49 283.853 162.826 283.508C163.162 283.153 163.33 282.677 163.33 282.08ZM169.416 279.49C169.696 279.061 170.046 278.725 170.466 278.482C170.886 278.23 171.353 278.104 171.866 278.104V280.638H171.208C170.611 280.638 170.163 280.769 169.864 281.03C169.566 281.282 169.416 281.73 169.416 282.374V286H167.022V278.188H169.416V279.49ZM172.535 282.08C172.535 281.277 172.684 280.573 172.983 279.966C173.291 279.359 173.706 278.893 174.229 278.566C174.751 278.239 175.335 278.076 175.979 278.076C176.529 278.076 177.01 278.188 177.421 278.412C177.841 278.636 178.163 278.93 178.387 279.294V278.188H180.781V286H178.387V284.894C178.153 285.258 177.827 285.552 177.407 285.776C176.996 286 176.515 286.112 175.965 286.112C175.33 286.112 174.751 285.949 174.229 285.622C173.706 285.286 173.291 284.815 172.983 284.208C172.684 283.592 172.535 282.883 172.535 282.08ZM178.387 282.094C178.387 281.497 178.219 281.025 177.883 280.68C177.556 280.335 177.155 280.162 176.679 280.162C176.203 280.162 175.797 280.335 175.461 280.68C175.134 281.016 174.971 281.483 174.971 282.08C174.971 282.677 175.134 283.153 175.461 283.508C175.797 283.853 176.203 284.026 176.679 284.026C177.155 284.026 177.556 283.853 177.883 283.508C178.219 283.163 178.387 282.691 178.387 282.094ZM185.003 282.094C185.003 281.282 185.167 280.573 185.493 279.966C185.829 279.359 186.291 278.893 186.879 278.566C187.477 278.239 188.158 278.076 188.923 278.076C189.903 278.076 190.72 278.333 191.373 278.846C192.036 279.359 192.47 280.083 192.675 281.016H190.127C189.913 280.419 189.497 280.12 188.881 280.12C188.443 280.12 188.093 280.293 187.831 280.638C187.57 280.974 187.439 281.459 187.439 282.094C187.439 282.729 187.57 283.219 187.831 283.564C188.093 283.9 188.443 284.068 188.881 284.068C189.497 284.068 189.913 283.769 190.127 283.172H192.675C192.47 284.087 192.036 284.805 191.373 285.328C190.711 285.851 189.894 286.112 188.923 286.112C188.158 286.112 187.477 285.949 186.879 285.622C186.291 285.295 185.829 284.829 185.493 284.222C185.167 283.615 185.003 282.906 185.003 282.094ZM193.48 282.08C193.48 281.277 193.629 280.573 193.928 279.966C194.236 279.359 194.651 278.893 195.174 278.566C195.697 278.239 196.28 278.076 196.924 278.076C197.475 278.076 197.955 278.188 198.366 278.412C198.786 278.636 199.108 278.93 199.332 279.294V278.188H201.726V286H199.332V284.894C199.099 285.258 198.772 285.552 198.352 285.776C197.941 286 197.461 286.112 196.91 286.112C196.275 286.112 195.697 285.949 195.174 285.622C194.651 285.286 194.236 284.815 193.928 284.208C193.629 283.592 193.48 282.883 193.48 282.08ZM199.332 282.094C199.332 281.497 199.164 281.025 198.828 280.68C198.501 280.335 198.1 280.162 197.624 280.162C197.148 280.162 196.742 280.335 196.406 280.68C196.079 281.016 195.916 281.483 195.916 282.08C195.916 282.677 196.079 283.153 196.406 283.508C196.742 283.853 197.148 284.026 197.624 284.026C198.1 284.026 198.501 283.853 198.828 283.508C199.164 283.163 199.332 282.691 199.332 282.094ZM213.426 278.104C214.397 278.104 215.167 278.398 215.736 278.986C216.315 279.574 216.604 280.391 216.604 281.436V286H214.224V281.758C214.224 281.254 214.089 280.867 213.818 280.596C213.557 280.316 213.193 280.176 212.726 280.176C212.259 280.176 211.891 280.316 211.62 280.596C211.359 280.867 211.228 281.254 211.228 281.758V286H208.848V281.758C208.848 281.254 208.713 280.867 208.442 280.596C208.181 280.316 207.817 280.176 207.35 280.176C206.883 280.176 206.515 280.316 206.244 280.596C205.983 280.867 205.852 281.254 205.852 281.758V286H203.458V278.188H205.852V279.168C206.095 278.841 206.412 278.585 206.804 278.398C207.196 278.202 207.639 278.104 208.134 278.104C208.722 278.104 209.245 278.23 209.702 278.482C210.169 278.734 210.533 279.093 210.794 279.56C211.065 279.131 211.433 278.781 211.9 278.51C212.367 278.239 212.875 278.104 213.426 278.104ZM219.482 277.376C219.062 277.376 218.717 277.255 218.446 277.012C218.185 276.76 218.054 276.452 218.054 276.088C218.054 275.715 218.185 275.407 218.446 275.164C218.717 274.912 219.062 274.786 219.482 274.786C219.893 274.786 220.229 274.912 220.49 275.164C220.761 275.407 220.896 275.715 220.896 276.088C220.896 276.452 220.761 276.76 220.49 277.012C220.229 277.255 219.893 277.376 219.482 277.376ZM220.672 278.188V286H218.278V278.188H220.672ZM227.167 278.104C228.082 278.104 228.81 278.403 229.351 279C229.902 279.588 230.177 280.4 230.177 281.436V286H227.797V281.758C227.797 281.235 227.662 280.829 227.391 280.54C227.12 280.251 226.756 280.106 226.299 280.106C225.842 280.106 225.478 280.251 225.207 280.54C224.936 280.829 224.801 281.235 224.801 281.758V286H222.407V278.188H224.801V279.224C225.044 278.879 225.37 278.608 225.781 278.412C226.192 278.207 226.654 278.104 227.167 278.104ZM236.643 278.104C237.539 278.104 238.257 278.403 238.799 279C239.34 279.588 239.611 280.4 239.611 281.436V286H237.231V281.758C237.231 281.235 237.095 280.829 236.825 280.54C236.554 280.251 236.19 280.106 235.733 280.106C235.275 280.106 234.911 280.251 234.641 280.54C234.37 280.829 234.235 281.235 234.235 281.758V286H231.841V275.64H234.235V279.238C234.477 278.893 234.809 278.617 235.229 278.412C235.649 278.207 236.12 278.104 236.643 278.104ZM244.83 286.112C244.065 286.112 243.374 285.949 242.758 285.622C242.152 285.295 241.671 284.829 241.316 284.222C240.971 283.615 240.798 282.906 240.798 282.094C240.798 281.291 240.976 280.587 241.33 279.98C241.685 279.364 242.17 278.893 242.786 278.566C243.402 278.239 244.093 278.076 244.858 278.076C245.624 278.076 246.314 278.239 246.93 278.566C247.546 278.893 248.032 279.364 248.386 279.98C248.741 280.587 248.918 281.291 248.918 282.094C248.918 282.897 248.736 283.606 248.372 284.222C248.018 284.829 247.528 285.295 246.902 285.622C246.286 285.949 245.596 286.112 244.83 286.112ZM244.83 284.04C245.288 284.04 245.675 283.872 245.992 283.536C246.319 283.2 246.482 282.719 246.482 282.094C246.482 281.469 246.324 280.988 246.006 280.652C245.698 280.316 245.316 280.148 244.858 280.148C244.392 280.148 244.004 280.316 243.696 280.652C243.388 280.979 243.234 281.459 243.234 282.094C243.234 282.719 243.384 283.2 243.682 283.536C243.99 283.872 244.373 284.04 244.83 284.04ZM253.366 286.112C252.685 286.112 252.078 285.995 251.546 285.762C251.014 285.529 250.594 285.211 250.286 284.81C249.978 284.399 249.806 283.942 249.768 283.438H252.134C252.162 283.709 252.288 283.928 252.512 284.096C252.736 284.264 253.012 284.348 253.338 284.348C253.637 284.348 253.866 284.292 254.024 284.18C254.192 284.059 254.276 283.905 254.276 283.718C254.276 283.494 254.16 283.331 253.926 283.228C253.693 283.116 253.315 282.995 252.792 282.864C252.232 282.733 251.766 282.598 251.392 282.458C251.019 282.309 250.697 282.08 250.426 281.772C250.156 281.455 250.02 281.03 250.02 280.498C250.02 280.05 250.142 279.644 250.384 279.28C250.636 278.907 251 278.613 251.476 278.398C251.962 278.183 252.536 278.076 253.198 278.076C254.178 278.076 254.948 278.319 255.508 278.804C256.078 279.289 256.404 279.933 256.488 280.736H254.276C254.239 280.465 254.118 280.251 253.912 280.092C253.716 279.933 253.455 279.854 253.128 279.854C252.848 279.854 252.634 279.91 252.484 280.022C252.335 280.125 252.26 280.269 252.26 280.456C252.26 280.68 252.377 280.848 252.61 280.96C252.853 281.072 253.226 281.184 253.73 281.296C254.309 281.445 254.78 281.595 255.144 281.744C255.508 281.884 255.826 282.117 256.096 282.444C256.376 282.761 256.521 283.191 256.53 283.732C256.53 284.189 256.4 284.6 256.138 284.964C255.886 285.319 255.518 285.599 255.032 285.804C254.556 286.009 254.001 286.112 253.366 286.112ZM259.115 286.112C258.695 286.112 258.35 285.991 258.079 285.748C257.818 285.496 257.687 285.188 257.687 284.824C257.687 284.451 257.818 284.138 258.079 283.886C258.35 283.634 258.695 283.508 259.115 283.508C259.526 283.508 259.862 283.634 260.123 283.886C260.394 284.138 260.529 284.451 260.529 284.824C260.529 285.188 260.394 285.496 260.123 285.748C259.862 285.991 259.526 286.112 259.115 286.112ZM259.115 280.414C258.695 280.414 258.35 280.293 258.079 280.05C257.818 279.798 257.687 279.49 257.687 279.126C257.687 278.753 257.818 278.44 258.079 278.188C258.35 277.936 258.695 277.81 259.115 277.81C259.526 277.81 259.862 277.936 260.123 278.188C260.394 278.44 260.529 278.753 260.529 279.126C260.529 279.49 260.394 279.798 260.123 280.05C259.862 280.293 259.526 280.414 259.115 280.414ZM266.998 277.81V280.26H270.288V281.814H266.998V284.404H270.708V286H265.038V276.214H270.708V277.81H266.998ZM276.787 278.132C277.711 278.132 278.458 278.426 279.027 279.014C279.597 279.593 279.881 280.405 279.881 281.45V286H277.921V281.716C277.921 281.1 277.767 280.629 277.459 280.302C277.151 279.966 276.731 279.798 276.199 279.798C275.658 279.798 275.229 279.966 274.911 280.302C274.603 280.629 274.449 281.1 274.449 281.716V286H272.489V278.244H274.449V279.21C274.711 278.874 275.042 278.613 275.443 278.426C275.854 278.23 276.302 278.132 276.787 278.132ZM284.027 279.854V283.606C284.027 283.867 284.088 284.059 284.209 284.18C284.34 284.292 284.555 284.348 284.853 284.348H285.763V286H284.531C282.879 286 282.053 285.197 282.053 283.592V279.854H281.129V278.244H282.053V276.326H284.027V278.244H285.763V279.854H284.027ZM289.133 279.448C289.385 279.037 289.712 278.715 290.113 278.482C290.524 278.249 290.99 278.132 291.513 278.132V280.19H290.995C290.379 280.19 289.912 280.335 289.595 280.624C289.287 280.913 289.133 281.417 289.133 282.136V286H287.173V278.244H289.133V279.448ZM300.043 281.954C300.043 282.234 300.025 282.486 299.987 282.71H294.317C294.364 283.27 294.56 283.709 294.905 284.026C295.251 284.343 295.675 284.502 296.179 284.502C296.907 284.502 297.425 284.189 297.733 283.564H299.847C299.623 284.311 299.194 284.927 298.559 285.412C297.925 285.888 297.145 286.126 296.221 286.126C295.475 286.126 294.803 285.963 294.205 285.636C293.617 285.3 293.155 284.829 292.819 284.222C292.493 283.615 292.329 282.915 292.329 282.122C292.329 281.319 292.493 280.615 292.819 280.008C293.146 279.401 293.603 278.935 294.191 278.608C294.779 278.281 295.456 278.118 296.221 278.118C296.959 278.118 297.617 278.277 298.195 278.594C298.783 278.911 299.236 279.364 299.553 279.952C299.88 280.531 300.043 281.198 300.043 281.954ZM298.013 281.394C298.004 280.89 297.822 280.489 297.467 280.19C297.113 279.882 296.679 279.728 296.165 279.728C295.68 279.728 295.269 279.877 294.933 280.176C294.607 280.465 294.406 280.871 294.331 281.394H298.013ZM312.02 281.954C312.02 282.234 312.001 282.486 311.964 282.71H306.294C306.34 283.27 306.536 283.709 306.882 284.026C307.227 284.343 307.652 284.502 308.156 284.502C308.884 284.502 309.402 284.189 309.71 283.564H311.824C311.6 284.311 311.17 284.927 310.536 285.412C309.901 285.888 309.122 286.126 308.198 286.126C307.451 286.126 306.779 285.963 306.182 285.636C305.594 285.3 305.132 284.829 304.796 284.222C304.469 283.615 304.306 282.915 304.306 282.122C304.306 281.319 304.469 280.615 304.796 280.008C305.122 279.401 305.58 278.935 306.168 278.608C306.756 278.281 307.432 278.118 308.198 278.118C308.935 278.118 309.593 278.277 310.172 278.594C310.76 278.911 311.212 279.364 311.53 279.952C311.856 280.531 312.02 281.198 312.02 281.954ZM309.99 281.394C309.98 280.89 309.798 280.489 309.444 280.19C309.089 279.882 308.655 279.728 308.142 279.728C307.656 279.728 307.246 279.877 306.91 280.176C306.583 280.465 306.382 280.871 306.308 281.394H309.99ZM323.082 278.132C324.034 278.132 324.8 278.426 325.378 279.014C325.966 279.593 326.26 280.405 326.26 281.45V286H324.3V281.716C324.3 281.109 324.146 280.647 323.838 280.33C323.53 280.003 323.11 279.84 322.578 279.84C322.046 279.84 321.622 280.003 321.304 280.33C320.996 280.647 320.842 281.109 320.842 281.716V286H318.882V281.716C318.882 281.109 318.728 280.647 318.42 280.33C318.112 280.003 317.692 279.84 317.16 279.84C316.619 279.84 316.19 280.003 315.872 280.33C315.564 280.647 315.41 281.109 315.41 281.716V286H313.45V278.244H315.41V279.182C315.662 278.855 315.984 278.599 316.376 278.412C316.778 278.225 317.216 278.132 317.692 278.132C318.299 278.132 318.84 278.263 319.316 278.524C319.792 278.776 320.161 279.14 320.422 279.616C320.674 279.168 321.038 278.809 321.514 278.538C322 278.267 322.522 278.132 323.082 278.132ZM330.952 282.122C330.952 281.319 331.116 280.619 331.442 280.022C331.769 279.415 332.222 278.949 332.8 278.622C333.379 278.286 334.042 278.118 334.788 278.118C335.75 278.118 336.543 278.361 337.168 278.846C337.803 279.322 338.228 279.994 338.442 280.862H336.328C336.216 280.526 336.025 280.265 335.754 280.078C335.493 279.882 335.166 279.784 334.774 279.784C334.214 279.784 333.771 279.989 333.444 280.4C333.118 280.801 332.954 281.375 332.954 282.122C332.954 282.859 333.118 283.433 333.444 283.844C333.771 284.245 334.214 284.446 334.774 284.446C335.568 284.446 336.086 284.091 336.328 283.382H338.442C338.228 284.222 337.803 284.889 337.168 285.384C336.534 285.879 335.74 286.126 334.788 286.126C334.042 286.126 333.379 285.963 332.8 285.636C332.222 285.3 331.769 284.833 331.442 284.236C331.116 283.629 330.952 282.925 330.952 282.122ZM343.322 286.126C342.575 286.126 341.903 285.963 341.306 285.636C340.709 285.3 340.237 284.829 339.892 284.222C339.556 283.615 339.388 282.915 339.388 282.122C339.388 281.329 339.561 280.629 339.906 280.022C340.261 279.415 340.741 278.949 341.348 278.622C341.955 278.286 342.631 278.118 343.378 278.118C344.125 278.118 344.801 278.286 345.408 278.622C346.015 278.949 346.491 279.415 346.836 280.022C347.191 280.629 347.368 281.329 347.368 282.122C347.368 282.915 347.186 283.615 346.822 284.222C346.467 284.829 345.982 285.3 345.366 285.636C344.759 285.963 344.078 286.126 343.322 286.126ZM343.322 284.418C343.677 284.418 344.008 284.334 344.316 284.166C344.633 283.989 344.885 283.727 345.072 283.382C345.259 283.037 345.352 282.617 345.352 282.122C345.352 281.385 345.156 280.82 344.764 280.428C344.381 280.027 343.91 279.826 343.35 279.826C342.79 279.826 342.319 280.027 341.936 280.428C341.563 280.82 341.376 281.385 341.376 282.122C341.376 282.859 341.558 283.429 341.922 283.83C342.295 284.222 342.762 284.418 343.322 284.418ZM353.104 278.132C354.028 278.132 354.775 278.426 355.344 279.014C355.913 279.593 356.198 280.405 356.198 281.45V286H354.238V281.716C354.238 281.1 354.084 280.629 353.776 280.302C353.468 279.966 353.048 279.798 352.516 279.798C351.975 279.798 351.545 279.966 351.228 280.302C350.92 280.629 350.766 281.1 350.766 281.716V286H348.806V278.244H350.766V279.21C351.027 278.874 351.359 278.613 351.76 278.426C352.171 278.23 352.619 278.132 353.104 278.132ZM360.344 279.854V283.606C360.344 283.867 360.404 284.059 360.526 284.18C360.656 284.292 360.871 284.348 361.17 284.348H362.08V286H360.848C359.196 286 358.37 285.197 358.37 283.592V279.854H357.446V278.244H358.37V276.326H360.344V278.244H362.08V279.854H360.344ZM362.985 282.094C362.985 281.31 363.139 280.615 363.447 280.008C363.765 279.401 364.189 278.935 364.721 278.608C365.263 278.281 365.865 278.118 366.527 278.118C367.106 278.118 367.61 278.235 368.039 278.468C368.478 278.701 368.828 278.995 369.089 279.35V278.244H371.063V286H369.089V284.866C368.837 285.23 368.487 285.533 368.039 285.776C367.601 286.009 367.092 286.126 366.513 286.126C365.86 286.126 365.263 285.958 364.721 285.622C364.189 285.286 363.765 284.815 363.447 284.208C363.139 283.592 362.985 282.887 362.985 282.094ZM369.089 282.122C369.089 281.646 368.996 281.24 368.809 280.904C368.623 280.559 368.371 280.297 368.053 280.12C367.736 279.933 367.395 279.84 367.031 279.84C366.667 279.84 366.331 279.929 366.023 280.106C365.715 280.283 365.463 280.545 365.267 280.89C365.081 281.226 364.987 281.627 364.987 282.094C364.987 282.561 365.081 282.971 365.267 283.326C365.463 283.671 365.715 283.937 366.023 284.124C366.341 284.311 366.677 284.404 367.031 284.404C367.395 284.404 367.736 284.315 368.053 284.138C368.371 283.951 368.623 283.69 368.809 283.354C368.996 283.009 369.089 282.598 369.089 282.122ZM375.26 279.854V283.606C375.26 283.867 375.32 284.059 375.442 284.18C375.572 284.292 375.787 284.348 376.086 284.348H376.996V286H375.764C374.112 286 373.286 285.197 373.286 283.592V279.854H372.362V278.244H373.286V276.326H375.26V278.244H376.996V279.854H375.26ZM381.849 286.126C381.103 286.126 380.431 285.963 379.833 285.636C379.236 285.3 378.765 284.829 378.419 284.222C378.083 283.615 377.915 282.915 377.915 282.122C377.915 281.329 378.088 280.629 378.433 280.022C378.788 279.415 379.269 278.949 379.875 278.622C380.482 278.286 381.159 278.118 381.905 278.118C382.652 278.118 383.329 278.286 383.935 278.622C384.542 278.949 385.018 279.415 385.363 280.022C385.718 280.629 385.895 281.329 385.895 282.122C385.895 282.915 385.713 283.615 385.349 284.222C384.995 284.829 384.509 285.3 383.893 285.636C383.287 285.963 382.605 286.126 381.849 286.126ZM381.849 284.418C382.204 284.418 382.535 284.334 382.843 284.166C383.161 283.989 383.413 283.727 383.599 283.382C383.786 283.037 383.879 282.617 383.879 282.122C383.879 281.385 383.683 280.82 383.291 280.428C382.909 280.027 382.437 279.826 381.877 279.826C381.317 279.826 380.846 280.027 380.463 280.428C380.09 280.82 379.903 281.385 379.903 282.122C379.903 282.859 380.085 283.429 380.449 283.83C380.823 284.222 381.289 284.418 381.849 284.418ZM397.879 281.954C397.879 282.234 397.86 282.486 397.823 282.71H392.153C392.2 283.27 392.396 283.709 392.741 284.026C393.086 284.343 393.511 284.502 394.015 284.502C394.743 284.502 395.261 284.189 395.569 283.564H397.683C397.459 284.311 397.03 284.927 396.395 285.412C395.76 285.888 394.981 286.126 394.057 286.126C393.31 286.126 392.638 285.963 392.041 285.636C391.453 285.3 390.991 284.829 390.655 284.222C390.328 283.615 390.165 282.915 390.165 282.122C390.165 281.319 390.328 280.615 390.655 280.008C390.982 279.401 391.439 278.935 392.027 278.608C392.615 278.281 393.292 278.118 394.057 278.118C394.794 278.118 395.452 278.277 396.031 278.594C396.619 278.911 397.072 279.364 397.389 279.952C397.716 280.531 397.879 281.198 397.879 281.954ZM395.849 281.394C395.84 280.89 395.658 280.489 395.303 280.19C394.948 279.882 394.514 279.728 394.001 279.728C393.516 279.728 393.105 279.877 392.769 280.176C392.442 280.465 392.242 280.871 392.167 281.394H395.849ZM11.2 305.194L13.16 299.244H15.246L12.376 307H9.996L7.14 299.244H9.24L11.2 305.194ZM15.8429 303.094C15.8429 302.31 15.9969 301.615 16.3049 301.008C16.6222 300.401 17.0469 299.935 17.5789 299.608C18.1202 299.281 18.7222 299.118 19.3849 299.118C19.9635 299.118 20.4675 299.235 20.8969 299.468C21.3355 299.701 21.6855 299.995 21.9469 300.35V299.244H23.9209V307H21.9469V305.866C21.6949 306.23 21.3449 306.533 20.8969 306.776C20.4582 307.009 19.9495 307.126 19.3709 307.126C18.7175 307.126 18.1202 306.958 17.5789 306.622C17.0469 306.286 16.6222 305.815 16.3049 305.208C15.9969 304.592 15.8429 303.887 15.8429 303.094ZM21.9469 303.122C21.9469 302.646 21.8535 302.24 21.6669 301.904C21.4802 301.559 21.2282 301.297 20.9109 301.12C20.5935 300.933 20.2529 300.84 19.8889 300.84C19.5249 300.84 19.1889 300.929 18.8809 301.106C18.5729 301.283 18.3209 301.545 18.1249 301.89C17.9382 302.226 17.8449 302.627 17.8449 303.094C17.8449 303.561 17.9382 303.971 18.1249 304.326C18.3209 304.671 18.5729 304.937 18.8809 305.124C19.1982 305.311 19.5342 305.404 19.8889 305.404C20.2529 305.404 20.5935 305.315 20.9109 305.138C21.2282 304.951 21.4802 304.69 21.6669 304.354C21.8535 304.009 21.9469 303.598 21.9469 303.122ZM35.4671 299.132C36.4191 299.132 37.1845 299.426 37.7631 300.014C38.3511 300.593 38.6451 301.405 38.6451 302.45V307H36.6851V302.716C36.6851 302.109 36.5311 301.647 36.2231 301.33C35.9151 301.003 35.4951 300.84 34.9631 300.84C34.4311 300.84 34.0065 301.003 33.6891 301.33C33.3811 301.647 33.2271 302.109 33.2271 302.716V307H31.2671V302.716C31.2671 302.109 31.1131 301.647 30.8051 301.33C30.4971 301.003 30.0771 300.84 29.5451 300.84C29.0038 300.84 28.5745 301.003 28.2571 301.33C27.9491 301.647 27.7951 302.109 27.7951 302.716V307H25.8351V299.244H27.7951V300.182C28.0471 299.855 28.3691 299.599 28.7611 299.412C29.1625 299.225 29.6011 299.132 30.0771 299.132C30.6838 299.132 31.2251 299.263 31.7011 299.524C32.1771 299.776 32.5458 300.14 32.8071 300.616C33.0591 300.168 33.4231 299.809 33.8991 299.538C34.3845 299.267 34.9071 299.132 35.4671 299.132ZM43.9491 307.126C43.2024 307.126 42.5304 306.963 41.9331 306.636C41.3357 306.3 40.8644 305.829 40.5191 305.222C40.1831 304.615 40.0151 303.915 40.0151 303.122C40.0151 302.329 40.1877 301.629 40.5331 301.022C40.8877 300.415 41.3684 299.949 41.9751 299.622C42.5817 299.286 43.2584 299.118 44.0051 299.118C44.7517 299.118 45.4284 299.286 46.0351 299.622C46.6417 299.949 47.1177 300.415 47.4631 301.022C47.8177 301.629 47.9951 302.329 47.9951 303.122C47.9951 303.915 47.8131 304.615 47.4491 305.222C47.0944 305.829 46.6091 306.3 45.9931 306.636C45.3864 306.963 44.7051 307.126 43.9491 307.126ZM43.9491 305.418C44.3037 305.418 44.6351 305.334 44.9431 305.166C45.2604 304.989 45.5124 304.727 45.6991 304.382C45.8857 304.037 45.9791 303.617 45.9791 303.122C45.9791 302.385 45.7831 301.82 45.3911 301.428C45.0084 301.027 44.5371 300.826 43.9771 300.826C43.4171 300.826 42.9457 301.027 42.5631 301.428C42.1897 301.82 42.0031 302.385 42.0031 303.122C42.0031 303.859 42.1851 304.429 42.5491 304.83C42.9224 305.222 43.3891 305.418 43.9491 305.418ZM52.4008 307.126C51.7661 307.126 51.1968 307.014 50.6928 306.79C50.1888 306.557 49.7875 306.244 49.4888 305.852C49.1995 305.46 49.0408 305.026 49.0128 304.55H50.9868C51.0241 304.849 51.1688 305.096 51.4208 305.292C51.6821 305.488 52.0041 305.586 52.3868 305.586C52.7601 305.586 53.0495 305.511 53.2548 305.362C53.4695 305.213 53.5768 305.021 53.5768 304.788C53.5768 304.536 53.4461 304.349 53.1848 304.228C52.9328 304.097 52.5268 303.957 51.9668 303.808C51.3881 303.668 50.9121 303.523 50.5388 303.374C50.1748 303.225 49.8575 302.996 49.5868 302.688C49.3255 302.38 49.1948 301.965 49.1948 301.442C49.1948 301.013 49.3161 300.621 49.5588 300.266C49.8108 299.911 50.1655 299.631 50.6228 299.426C51.0895 299.221 51.6355 299.118 52.2608 299.118C53.1848 299.118 53.9221 299.351 54.4728 299.818C55.0235 300.275 55.3268 300.896 55.3828 301.68H53.5068C53.4788 301.372 53.3481 301.129 53.1148 300.952C52.8908 300.765 52.5875 300.672 52.2048 300.672C51.8501 300.672 51.5748 300.737 51.3788 300.868C51.1921 300.999 51.0988 301.181 51.0988 301.414C51.0988 301.675 51.2295 301.876 51.4908 302.016C51.7521 302.147 52.1581 302.282 52.7088 302.422C53.2688 302.562 53.7308 302.707 54.0948 302.856C54.4588 303.005 54.7715 303.239 55.0328 303.556C55.3035 303.864 55.4435 304.275 55.4528 304.788C55.4528 305.236 55.3268 305.637 55.0748 305.992C54.8321 306.347 54.4775 306.627 54.0108 306.832C53.5535 307.028 53.0168 307.126 52.4008 307.126ZM67.6076 302.954C67.6076 303.234 67.589 303.486 67.5516 303.71H61.8816C61.9283 304.27 62.1243 304.709 62.4696 305.026C62.815 305.343 63.2396 305.502 63.7436 305.502C64.4716 305.502 64.9896 305.189 65.2976 304.564H67.4116C67.1876 305.311 66.7583 305.927 66.1236 306.412C65.489 306.888 64.7096 307.126 63.7856 307.126C63.039 307.126 62.367 306.963 61.7696 306.636C61.1816 306.3 60.7196 305.829 60.3836 305.222C60.057 304.615 59.8936 303.915 59.8936 303.122C59.8936 302.319 60.057 301.615 60.3836 301.008C60.7103 300.401 61.1676 299.935 61.7556 299.608C62.3436 299.281 63.0203 299.118 63.7856 299.118C64.523 299.118 65.181 299.277 65.7596 299.594C66.3476 299.911 66.8003 300.364 67.1176 300.952C67.4443 301.531 67.6076 302.198 67.6076 302.954ZM65.5776 302.394C65.5683 301.89 65.3863 301.489 65.0316 301.19C64.677 300.882 64.243 300.728 63.7296 300.728C63.2443 300.728 62.8336 300.877 62.4976 301.176C62.171 301.465 61.9703 301.871 61.8956 302.394H65.5776ZM72.0063 307.126C71.3716 307.126 70.8023 307.014 70.2983 306.79C69.7943 306.557 69.3929 306.244 69.0943 305.852C68.8049 305.46 68.6463 305.026 68.6183 304.55H70.5923C70.6296 304.849 70.7743 305.096 71.0263 305.292C71.2876 305.488 71.6096 305.586 71.9923 305.586C72.3656 305.586 72.6549 305.511 72.8603 305.362C73.0749 305.213 73.1823 305.021 73.1823 304.788C73.1823 304.536 73.0516 304.349 72.7903 304.228C72.5383 304.097 72.1323 303.957 71.5723 303.808C70.9936 303.668 70.5176 303.523 70.1443 303.374C69.7803 303.225 69.4629 302.996 69.1923 302.688C68.9309 302.38 68.8003 301.965 68.8003 301.442C68.8003 301.013 68.9216 300.621 69.1643 300.266C69.4163 299.911 69.7709 299.631 70.2283 299.426C70.6949 299.221 71.2409 299.118 71.8663 299.118C72.7903 299.118 73.5276 299.351 74.0783 299.818C74.6289 300.275 74.9323 300.896 74.9883 301.68H73.1123C73.0843 301.372 72.9536 301.129 72.7203 300.952C72.4963 300.765 72.1929 300.672 71.8103 300.672C71.4556 300.672 71.1803 300.737 70.9843 300.868C70.7976 300.999 70.7043 301.181 70.7043 301.414C70.7043 301.675 70.8349 301.876 71.0963 302.016C71.3576 302.147 71.7636 302.282 72.3143 302.422C72.8743 302.562 73.3363 302.707 73.7003 302.856C74.0643 303.005 74.3769 303.239 74.6383 303.556C74.9089 303.864 75.0489 304.275 75.0583 304.788C75.0583 305.236 74.9323 305.637 74.6803 305.992C74.4376 306.347 74.0829 306.627 73.6163 306.832C73.1589 307.028 72.6223 307.126 72.0063 307.126ZM76.1632 303.122C76.1632 302.319 76.3265 301.619 76.6532 301.022C76.9798 300.415 77.4325 299.949 78.0112 299.622C78.5898 299.286 79.2525 299.118 79.9992 299.118C80.9605 299.118 81.7538 299.361 82.3792 299.846C83.0138 300.322 83.4385 300.994 83.6532 301.862H81.5392C81.4272 301.526 81.2358 301.265 80.9652 301.078C80.7038 300.882 80.3772 300.784 79.9852 300.784C79.4252 300.784 78.9818 300.989 78.6552 301.4C78.3285 301.801 78.1652 302.375 78.1652 303.122C78.1652 303.859 78.3285 304.433 78.6552 304.844C78.9818 305.245 79.4252 305.446 79.9852 305.446C80.7785 305.446 81.2965 305.091 81.5392 304.382H83.6532C83.4385 305.222 83.0138 305.889 82.3792 306.384C81.7445 306.879 80.9512 307.126 79.9992 307.126C79.2525 307.126 78.5898 306.963 78.0112 306.636C77.4325 306.3 76.9798 305.833 76.6532 305.236C76.3265 304.629 76.1632 303.925 76.1632 303.122ZM87.049 296.64V307H85.089V296.64H87.049ZM88.4815 303.094C88.4815 302.31 88.6355 301.615 88.9435 301.008C89.2609 300.401 89.6855 299.935 90.2175 299.608C90.7589 299.281 91.3609 299.118 92.0235 299.118C92.6022 299.118 93.1062 299.235 93.5355 299.468C93.9742 299.701 94.3242 299.995 94.5855 300.35V299.244H96.5595V307H94.5855V305.866C94.3335 306.23 93.9835 306.533 93.5355 306.776C93.0969 307.009 92.5882 307.126 92.0095 307.126C91.3562 307.126 90.7589 306.958 90.2175 306.622C89.6855 306.286 89.2609 305.815 88.9435 305.208C88.6355 304.592 88.4815 303.887 88.4815 303.094ZM94.5855 303.122C94.5855 302.646 94.4922 302.24 94.3055 301.904C94.1189 301.559 93.8669 301.297 93.5495 301.12C93.2322 300.933 92.8915 300.84 92.5275 300.84C92.1635 300.84 91.8275 300.929 91.5195 301.106C91.2115 301.283 90.9595 301.545 90.7635 301.89C90.5769 302.226 90.4835 302.627 90.4835 303.094C90.4835 303.561 90.5769 303.971 90.7635 304.326C90.9595 304.671 91.2115 304.937 91.5195 305.124C91.8369 305.311 92.1729 305.404 92.5275 305.404C92.8915 305.404 93.2322 305.315 93.5495 305.138C93.8669 304.951 94.1189 304.69 94.3055 304.354C94.4922 304.009 94.5855 303.598 94.5855 303.122ZM100.434 300.448C100.686 300.037 101.012 299.715 101.414 299.482C101.824 299.249 102.291 299.132 102.814 299.132V301.19H102.296C101.68 301.19 101.213 301.335 100.896 301.624C100.588 301.913 100.434 302.417 100.434 303.136V307H98.4738V299.244H100.434V300.448ZM111.344 302.954C111.344 303.234 111.325 303.486 111.288 303.71H105.618C105.665 304.27 105.861 304.709 106.206 305.026C106.551 305.343 106.976 305.502 107.48 305.502C108.208 305.502 108.726 305.189 109.034 304.564H111.148C110.924 305.311 110.495 305.927 109.86 306.412C109.225 306.888 108.446 307.126 107.522 307.126C106.775 307.126 106.103 306.963 105.506 306.636C104.918 306.3 104.456 305.829 104.12 305.222C103.793 304.615 103.63 303.915 103.63 303.122C103.63 302.319 103.793 301.615 104.12 301.008C104.447 300.401 104.904 299.935 105.492 299.608C106.08 299.281 106.757 299.118 107.522 299.118C108.259 299.118 108.917 299.277 109.496 299.594C110.084 299.911 110.537 300.364 110.854 300.952C111.181 301.531 111.344 302.198 111.344 302.954ZM109.314 302.394C109.305 301.89 109.123 301.489 108.768 301.19C108.413 300.882 107.979 300.728 107.466 300.728C106.981 300.728 106.57 300.877 106.234 301.176C105.907 301.465 105.707 301.871 105.632 302.394H109.314ZM112.271 303.122C112.271 302.319 112.434 301.619 112.761 301.022C113.087 300.415 113.54 299.949 114.119 299.622C114.697 299.286 115.36 299.118 116.107 299.118C117.068 299.118 117.861 299.361 118.487 299.846C119.121 300.322 119.546 300.994 119.761 301.862H117.647C117.535 301.526 117.343 301.265 117.073 301.078C116.811 300.882 116.485 300.784 116.093 300.784C115.533 300.784 115.089 300.989 114.763 301.4C114.436 301.801 114.273 302.375 114.273 303.122C114.273 303.859 114.436 304.433 114.763 304.844C115.089 305.245 115.533 305.446 116.093 305.446C116.886 305.446 117.404 305.091 117.647 304.382H119.761C119.546 305.222 119.121 305.889 118.487 306.384C117.852 306.879 117.059 307.126 116.107 307.126C115.36 307.126 114.697 306.963 114.119 306.636C113.54 306.3 113.087 305.833 112.761 305.236C112.434 304.629 112.271 303.925 112.271 303.122ZM128.406 302.954C128.406 303.234 128.388 303.486 128.35 303.71H122.68C122.727 304.27 122.923 304.709 123.268 305.026C123.614 305.343 124.038 305.502 124.542 305.502C125.27 305.502 125.788 305.189 126.096 304.564H128.21C127.986 305.311 127.557 305.927 126.922 306.412C126.288 306.888 125.508 307.126 124.584 307.126C123.838 307.126 123.166 306.963 122.568 306.636C121.98 306.3 121.518 305.829 121.182 305.222C120.856 304.615 120.692 303.915 120.692 303.122C120.692 302.319 120.856 301.615 121.182 301.008C121.509 300.401 121.966 299.935 122.554 299.608C123.142 299.281 123.819 299.118 124.584 299.118C125.322 299.118 125.98 299.277 126.558 299.594C127.146 299.911 127.599 300.364 127.916 300.952C128.243 301.531 128.406 302.198 128.406 302.954ZM126.376 302.394C126.367 301.89 126.185 301.489 125.83 301.19C125.476 300.882 125.042 300.728 124.528 300.728C124.043 300.728 123.632 300.877 123.296 301.176C122.97 301.465 122.769 301.871 122.694 302.394H126.376ZM131.797 300.448C132.049 300.037 132.376 299.715 132.777 299.482C133.188 299.249 133.654 299.132 134.177 299.132V301.19H133.659C133.043 301.19 132.576 301.335 132.259 301.624C131.951 301.913 131.797 302.417 131.797 303.136V307H129.837V299.244H131.797V300.448ZM141.115 300.854V304.606C141.115 304.867 141.176 305.059 141.297 305.18C141.428 305.292 141.643 305.348 141.941 305.348H142.851V307H141.619C139.967 307 139.141 306.197 139.141 304.592V300.854H138.217V299.244H139.141V297.326H141.115V299.244H142.851V300.854H141.115ZM151.583 299.244V307H149.609V306.02C149.357 306.356 149.026 306.622 148.615 306.818C148.214 307.005 147.775 307.098 147.299 307.098C146.692 307.098 146.156 306.972 145.689 306.72C145.222 306.459 144.854 306.081 144.583 305.586C144.322 305.082 144.191 304.485 144.191 303.794V299.244H146.151V303.514C146.151 304.13 146.305 304.606 146.613 304.942C146.921 305.269 147.341 305.432 147.873 305.432C148.414 305.432 148.839 305.269 149.147 304.942C149.455 304.606 149.609 304.13 149.609 303.514V299.244H151.583ZM153.013 303.094C153.013 302.31 153.167 301.615 153.475 301.008C153.792 300.401 154.221 299.935 154.763 299.608C155.304 299.281 155.906 299.118 156.569 299.118C157.073 299.118 157.553 299.23 158.011 299.454C158.468 299.669 158.832 299.958 159.103 300.322V296.64H161.091V307H159.103V305.852C158.86 306.235 158.519 306.543 158.081 306.776C157.642 307.009 157.133 307.126 156.555 307.126C155.901 307.126 155.304 306.958 154.763 306.622C154.221 306.286 153.792 305.815 153.475 305.208C153.167 304.592 153.013 303.887 153.013 303.094ZM159.117 303.122C159.117 302.646 159.023 302.24 158.837 301.904C158.65 301.559 158.398 301.297 158.081 301.12C157.763 300.933 157.423 300.84 157.059 300.84C156.695 300.84 156.359 300.929 156.051 301.106C155.743 301.283 155.491 301.545 155.295 301.89C155.108 302.226 155.015 302.627 155.015 303.094C155.015 303.561 155.108 303.971 155.295 304.326C155.491 304.671 155.743 304.937 156.051 305.124C156.368 305.311 156.704 305.404 157.059 305.404C157.423 305.404 157.763 305.315 158.081 305.138C158.398 304.951 158.65 304.69 158.837 304.354C159.023 304.009 159.117 303.598 159.117 303.122ZM166.449 307.126C165.702 307.126 165.03 306.963 164.433 306.636C163.836 306.3 163.364 305.829 163.019 305.222C162.683 304.615 162.515 303.915 162.515 303.122C162.515 302.329 162.688 301.629 163.033 301.022C163.388 300.415 163.868 299.949 164.475 299.622C165.082 299.286 165.758 299.118 166.505 299.118C167.252 299.118 167.928 299.286 168.535 299.622C169.142 299.949 169.618 300.415 169.963 301.022C170.318 301.629 170.495 302.329 170.495 303.122C170.495 303.915 170.313 304.615 169.949 305.222C169.594 305.829 169.109 306.3 168.493 306.636C167.886 306.963 167.205 307.126 166.449 307.126ZM166.449 305.418C166.804 305.418 167.135 305.334 167.443 305.166C167.76 304.989 168.012 304.727 168.199 304.382C168.386 304.037 168.479 303.617 168.479 303.122C168.479 302.385 168.283 301.82 167.891 301.428C167.508 301.027 167.037 300.826 166.477 300.826C165.917 300.826 165.446 301.027 165.063 301.428C164.69 301.82 164.503 302.385 164.503 303.122C164.503 303.859 164.685 304.429 165.049 304.83C165.422 305.222 165.889 305.418 166.449 305.418ZM176.263 298.32C175.908 298.32 175.614 298.213 175.381 297.998C175.157 297.774 175.045 297.499 175.045 297.172C175.045 296.845 175.157 296.575 175.381 296.36C175.614 296.136 175.908 296.024 176.263 296.024C176.608 296.024 176.893 296.136 177.117 296.36C177.341 296.575 177.453 296.845 177.453 297.172C177.453 297.499 177.341 297.774 177.117 297.998C176.893 298.213 176.608 298.32 176.263 298.32ZM177.229 308.274C177.229 309.133 177.014 309.749 176.585 310.122C176.165 310.505 175.558 310.696 174.765 310.696H173.897V309.03H174.457C174.755 309.03 174.965 308.969 175.087 308.848C175.208 308.736 175.269 308.549 175.269 308.288V299.244H177.229V308.274ZM186.487 299.244V307H184.513V306.02C184.261 306.356 183.93 306.622 183.519 306.818C183.118 307.005 182.679 307.098 182.203 307.098C181.597 307.098 181.06 306.972 180.593 306.72C180.127 306.459 179.758 306.081 179.487 305.586C179.226 305.082 179.095 304.485 179.095 303.794V299.244H181.055V303.514C181.055 304.13 181.209 304.606 181.517 304.942C181.825 305.269 182.245 305.432 182.777 305.432C183.319 305.432 183.743 305.269 184.051 304.942C184.359 304.606 184.513 304.13 184.513 303.514V299.244H186.487ZM192.719 299.132C193.643 299.132 194.39 299.426 194.959 300.014C195.528 300.593 195.813 301.405 195.813 302.45V307H193.853V302.716C193.853 302.1 193.699 301.629 193.391 301.302C193.083 300.966 192.663 300.798 192.131 300.798C191.59 300.798 191.16 300.966 190.843 301.302C190.535 301.629 190.381 302.1 190.381 302.716V307H188.421V299.244H190.381V300.21C190.642 299.874 190.974 299.613 191.375 299.426C191.786 299.23 192.234 299.132 192.719 299.132ZM199.959 300.854V304.606C199.959 304.867 200.02 305.059 200.141 305.18C200.272 305.292 200.486 305.348 200.785 305.348H201.695V307H200.463C198.811 307 197.985 306.197 197.985 304.592V300.854H197.061V299.244H197.985V297.326H199.959V299.244H201.695V300.854H199.959ZM206.549 307.126C205.802 307.126 205.13 306.963 204.533 306.636C203.935 306.3 203.464 305.829 203.119 305.222C202.783 304.615 202.615 303.915 202.615 303.122C202.615 302.329 202.787 301.629 203.133 301.022C203.487 300.415 203.968 299.949 204.575 299.622C205.181 299.286 205.858 299.118 206.605 299.118C207.351 299.118 208.028 299.286 208.635 299.622C209.241 299.949 209.717 300.415 210.063 301.022C210.417 301.629 210.595 302.329 210.595 303.122C210.595 303.915 210.413 304.615 210.049 305.222C209.694 305.829 209.209 306.3 208.593 306.636C207.986 306.963 207.305 307.126 206.549 307.126ZM206.549 305.418C206.903 305.418 207.235 305.334 207.543 305.166C207.86 304.989 208.112 304.727 208.299 304.382C208.485 304.037 208.579 303.617 208.579 303.122C208.579 302.385 208.383 301.82 207.991 301.428C207.608 301.027 207.137 300.826 206.577 300.826C206.017 300.826 205.545 301.027 205.163 301.428C204.789 301.82 204.603 302.385 204.603 303.122C204.603 303.859 204.785 304.429 205.149 304.83C205.522 305.222 205.989 305.418 206.549 305.418ZM215 307.126C214.366 307.126 213.796 307.014 213.292 306.79C212.788 306.557 212.387 306.244 212.088 305.852C211.799 305.46 211.64 305.026 211.612 304.55H213.586C213.624 304.849 213.768 305.096 214.02 305.292C214.282 305.488 214.604 305.586 214.986 305.586C215.36 305.586 215.649 305.511 215.854 305.362C216.069 305.213 216.176 305.021 216.176 304.788C216.176 304.536 216.046 304.349 215.784 304.228C215.532 304.097 215.126 303.957 214.566 303.808C213.988 303.668 213.512 303.523 213.138 303.374C212.774 303.225 212.457 302.996 212.186 302.688C211.925 302.38 211.794 301.965 211.794 301.442C211.794 301.013 211.916 300.621 212.158 300.266C212.41 299.911 212.765 299.631 213.222 299.426C213.689 299.221 214.235 299.118 214.86 299.118C215.784 299.118 216.522 299.351 217.072 299.818C217.623 300.275 217.926 300.896 217.982 301.68H216.106C216.078 301.372 215.948 301.129 215.714 300.952C215.49 300.765 215.187 300.672 214.804 300.672C214.45 300.672 214.174 300.737 213.978 300.868C213.792 300.999 213.698 301.181 213.698 301.414C213.698 301.675 213.829 301.876 214.09 302.016C214.352 302.147 214.758 302.282 215.308 302.422C215.868 302.562 216.33 302.707 216.694 302.856C217.058 303.005 217.371 303.239 217.632 303.556C217.903 303.864 218.043 304.275 218.052 304.788C218.052 305.236 217.926 305.637 217.674 305.992C217.432 306.347 217.077 306.627 216.61 306.832C216.153 307.028 215.616 307.126 215 307.126ZM222.195 297.06L221.971 303.822H220.319L220.081 297.06H222.195ZM221.187 307.098C220.833 307.098 220.539 306.991 220.305 306.776C220.081 306.552 219.969 306.277 219.969 305.95C219.969 305.623 220.081 305.353 220.305 305.138C220.539 304.914 220.833 304.802 221.187 304.802C221.533 304.802 221.817 304.914 222.041 305.138C222.265 305.353 222.377 305.623 222.377 305.95C222.377 306.277 222.265 306.552 222.041 306.776C221.817 306.991 221.533 307.098 221.187 307.098Z" fill="#121212"/>
</g>
<defs>
<filter id="filter0_d_1889_1383" x="811.034" y="113.217" width="194.956" height="112.746" filterUnits="userSpaceOnUse" color-interpolation-filters="sRGB">
<feFlood flood-opacity="0" result="BackgroundImageFix"/>
<feColorMatrix in="SourceAlpha" type="matrix" values="0 0 0 0 0 0 0 0 0 0 0 0 0 0 0 0 0 0 127 0" result="hardAlpha"/>
<feOffset dy="2"/>
<feGaussianBlur stdDeviation="5"/>
<feComposite in2="hardAlpha" operator="out"/>
<feColorMatrix type="matrix" values="0 0 0 0 0 0 0 0 0 0 0 0 0 0 0 0 0 0 0.05 0"/>
<feBlend mode="normal" in2="BackgroundImageFix" result="effect1_dropShadow_1889_1383"/>
<feBlend mode="normal" in="SourceGraphic" in2="effect1_dropShadow_1889_1383" result="shape"/>
</filter>
<filter id="filter1_d_1889_1383" x="837.018" y="159.59" width="146.453" height="67.1865" filterUnits="userSpaceOnUse" color-interpolation-filters="sRGB">
<feFlood flood-opacity="0" result="BackgroundImageFix"/>
<feColorMatrix in="SourceAlpha" type="matrix" values="0 0 0 0 0 0 0 0 0 0 0 0 0 0 0 0 0 0 127 0" result="hardAlpha"/>
<feOffset dy="2"/>
<feGaussianBlur stdDeviation="5"/>
<feComposite in2="hardAlpha" operator="out"/>
<feColorMatrix type="matrix" values="0 0 0 0 0 0 0 0 0 0 0 0 0 0 0 0 0 0 0.05 0"/>
<feBlend mode="normal" in2="BackgroundImageFix" result="effect1_dropShadow_1889_1383"/>
<feBlend mode="normal" in="SourceGraphic" in2="effect1_dropShadow_1889_1383" result="shape"/>
</filter>
<filter id="filter2_d_1889_1383" x="0.719971" y="95.7803" width="309.803" height="152.88" filterUnits="userSpaceOnUse" color-interpolation-filters="sRGB">
<feFlood flood-opacity="0" result="BackgroundImageFix"/>
<feColorMatrix in="SourceAlpha" type="matrix" values="0 0 0 0 0 0 0 0 0 0 0 0 0 0 0 0 0 0 127 0" result="hardAlpha"/>
<feOffset dy="4"/>
<feGaussianBlur stdDeviation="3.5"/>
<feComposite in2="hardAlpha" operator="out"/>
<feColorMatrix type="matrix" values="0 0 0 0 0 0 0 0 0 0 0 0 0 0 0 0 0 0 0.2 0"/>
<feBlend mode="normal" in2="BackgroundImageFix" result="effect1_dropShadow_1889_1383"/>
<feBlend mode="normal" in="SourceGraphic" in2="effect1_dropShadow_1889_1383" result="shape"/>
</filter>
<filter id="filter3_d_1889_1383" x="0.140015" y="271.38" width="404.739" height="50.3164" filterUnits="userSpaceOnUse" color-interpolation-filters="sRGB">
<feFlood flood-opacity="0" result="BackgroundImageFix"/>
<feColorMatrix in="SourceAlpha" type="matrix" values="0 0 0 0 0 0 0 0 0 0 0 0 0 0 0 0 0 0 127 0" result="hardAlpha"/>
<feOffset dy="4"/>
<feGaussianBlur stdDeviation="3.5"/>
<feComposite in2="hardAlpha" operator="out"/>
<feColorMatrix type="matrix" values="0 0 0 0 0 0 0 0 0 0 0 0 0 0 0 0 0 0 0.2 0"/>
<feBlend mode="normal" in2="BackgroundImageFix" result="effect1_dropShadow_1889_1383"/>
<feBlend mode="normal" in="SourceGraphic" in2="effect1_dropShadow_1889_1383" result="shape"/>
</filter>
<clipPath id="clip0_1889_1383">
<rect width="192.96" height="248.529" fill="white" transform="translate(812.066 104.132)"/>
</clipPath>
<clipPath id="clip1_1889_1383">
<rect width="25.6982" height="25.6982" fill="white" transform="translate(1106.72 74.5195) rotate(14.4936)"/>
</clipPath>
<clipPath id="clip2_1889_1383">
<rect width="15.0545" height="15.0545" fill="white" transform="translate(746.161 377.116) rotate(14.4936)"/>
</clipPath>
</defs>
</svg>
