<svg width="771" height="678" viewBox="0 0 771 678" fill="none" xmlns="http://www.w3.org/2000/svg">
<path d="M484.52 266.531L461.297 300.968L545.925 358.039L452.732 410.776L475.955 376.34L391.327 319.269L484.52 266.531ZM658.097 106.25L288.045 315.105L400.583 390.998L279.155 571.058L649.206 362.202L536.669 286.31L658.097 106.25Z" fill="#EAECF0"/>
<path d="M484.52 266.531L461.297 300.968L545.925 358.039L452.732 410.776L475.955 376.34L391.327 319.269L484.52 266.531Z" fill="#EAECF0"/>
<rect x="183.655" y="449.84" width="14.8109" height="14.8109" rx="5" transform="rotate(-44.9977 183.655 449.84)" fill="#1CB0F6" fill-opacity="0.5"/>
<rect x="129.595" y="392.077" width="14.8109" height="14.8109" rx="5" transform="rotate(-44.9977 129.595 392.077)" fill="#7AD761" fill-opacity="0.5"/>
<g clip-path="url(#clip0_786_821)">
<path d="M622.69 394.207C621.778 394.031 620.833 394.225 620.063 394.746C619.293 395.267 618.762 396.072 618.586 396.984L610.625 438.267C610.449 439.179 610.643 440.124 611.164 440.894C611.684 441.664 612.489 442.195 613.402 442.371L623.723 444.361L625.049 437.481L631.93 438.807L630.603 445.688L637.484 447.015L638.81 440.134L645.691 441.461L644.364 448.342L651.245 449.669L652.571 442.788L659.452 444.115L658.125 450.995L665.005 452.322L666.332 445.442L673.213 446.769L671.886 453.649L682.207 455.64C683.119 455.815 684.064 455.622 684.834 455.101C685.603 454.58 686.134 453.775 686.31 452.863L694.272 411.58C694.448 410.667 694.254 409.722 693.733 408.953C693.212 408.183 692.407 407.652 691.495 407.476L622.69 394.207ZM630.357 409.959L650.998 413.939L649.008 424.26L628.367 420.279L630.357 409.959ZM657.879 415.266L678.52 419.247L676.53 429.568L655.889 425.587L657.879 415.266Z" fill="#7B2BBE"/>
<g clip-path="url(#clip1_786_821)">
<path d="M619.273 390.952C618.361 390.776 617.416 390.969 616.646 391.49C615.877 392.011 615.346 392.816 615.17 393.728L607.208 435.011C607.032 435.924 607.226 436.869 607.747 437.638C608.268 438.408 609.073 438.939 609.985 439.115L620.306 441.105L621.633 434.225L628.513 435.552L627.186 442.432L634.067 443.759L635.394 436.878L642.274 438.205L640.947 445.086L647.828 446.413L649.155 439.532L656.035 440.859L654.708 447.74L661.589 449.066L662.916 442.186L669.796 443.513L668.469 450.393L678.79 452.384C679.702 452.56 680.647 452.366 681.417 451.845C682.186 451.324 682.718 450.519 682.894 449.607L690.855 408.324C691.031 407.412 690.837 406.467 690.316 405.697C689.796 404.927 688.99 404.396 688.078 404.22L619.273 390.952ZM626.94 406.703L647.582 410.683L645.591 421.004L624.95 417.024L626.94 406.703ZM654.462 412.01L675.104 415.991L673.113 426.312L652.472 422.331L654.462 412.01Z" fill="#C67DFF"/>
</g>
</g>
<g clip-path="url(#clip2_786_821)">
<rect x="592.753" y="191.488" width="61.7094" height="43.1959" rx="10" transform="rotate(15.06 592.753 191.488)" fill="#1F9DD3"/>
<path d="M584.664 231.85C583.025 231.409 581.78 230.449 580.927 228.969C580.075 227.49 579.869 225.929 580.308 224.288L588.325 194.491C588.766 192.853 589.728 191.607 591.21 190.756C592.691 189.904 594.251 189.697 595.888 190.136L643.562 202.963C645.201 203.404 646.447 204.366 647.301 205.848C648.155 207.331 648.36 208.89 647.918 210.526L639.901 240.322C639.46 241.961 638.499 243.208 637.019 244.062C635.538 244.916 633.978 245.121 632.338 244.678L584.664 231.85ZM598.988 226.118L622.825 232.532L624.428 226.573L600.591 220.159L598.988 226.118ZM592.454 214.774L598.413 216.378L600.017 210.419L594.057 208.815L592.454 214.774ZM601.393 217.18L607.352 218.783L608.956 212.824L602.996 211.22L601.393 217.18ZM610.332 219.585L616.291 221.188L617.894 215.229L611.935 213.626L610.332 219.585ZM619.271 221.99L625.23 223.593L626.833 217.634L620.874 216.031L619.271 221.99ZM628.209 224.395L634.169 225.999L635.772 220.039L629.813 218.436L628.209 224.395ZM594.859 205.836L600.818 207.439L602.422 201.48L596.463 199.876L594.859 205.836ZM603.798 208.241L609.757 209.844L611.361 203.885L605.401 202.281L603.798 208.241ZM612.737 210.646L618.696 212.249L620.3 206.29L614.34 204.687L612.737 210.646ZM621.676 213.051L627.635 214.655L629.238 208.695L623.279 207.092L621.676 213.051ZM630.615 215.456L636.574 217.06L638.177 211.1L632.218 209.497L630.615 215.456Z" fill="#46C4FF"/>
</g>
<path fill-rule="evenodd" clip-rule="evenodd" d="M68.6397 420.484C72.4025 418.646 77.0349 420.538 78.2865 424.655L87.8531 456.121C89.1047 460.237 86.3132 464.387 82.1615 464.959C74.5842 465.984 67.0867 467.532 59.7225 469.59L61.0797 474.054C63.4655 473.504 65.7424 473.137 67.5814 472.897C69.1169 472.695 70.6549 472.525 72.1991 472.445C72.6486 472.423 73.0982 472.489 73.5222 472.64C73.9462 472.791 74.3362 473.024 74.6701 473.326C75.0039 473.628 75.275 473.992 75.4679 474.399C75.6607 474.806 75.7716 475.246 75.794 475.696C75.8284 476.609 75.5004 477.5 74.8815 478.173C74.2626 478.846 73.4029 479.247 72.4896 479.289C71.1446 479.376 69.8046 479.515 68.4714 479.687C65.5242 480.055 62.6112 480.658 59.7602 481.491C56.7317 482.412 53.763 483.729 51.5194 484.841C50.3157 485.44 49.1253 486.07 47.9597 486.747C47.1774 487.22 46.2398 487.366 45.351 487.151C44.4623 486.936 43.6943 486.379 43.2142 485.601C42.7608 484.817 42.6306 483.887 42.8515 483.008C43.0723 482.129 43.6267 481.371 44.3971 480.895C45.7293 480.113 47.091 479.382 48.4792 478.705C50.1398 477.877 52.233 476.919 54.5244 476.047L53.1672 471.583C45.9037 473.972 38.8138 476.86 31.9479 480.225C28.1841 482.061 23.5507 480.164 22.3001 476.051L12.7335 444.586C11.4819 440.469 14.2734 436.319 18.4262 435.751C35.8798 433.413 52.8383 428.257 68.6397 420.484Z" fill="#F89701"/>
<g clip-path="url(#clip3_786_821)">
<path fill-rule="evenodd" clip-rule="evenodd" d="M71.9972 421.58C75.76 419.741 80.3923 421.634 81.644 425.751L91.2105 457.216C92.4622 461.333 89.6706 465.483 85.5189 466.054C77.9416 467.08 70.4442 468.627 63.0799 470.685L64.4372 475.149C66.823 474.599 69.0998 474.233 70.9388 473.993C72.4744 473.791 74.0123 473.62 75.5566 473.541C76.0061 473.518 76.4557 473.584 76.8796 473.735C77.3036 473.886 77.6937 474.12 78.0275 474.421C78.3614 474.723 78.6325 475.088 78.8253 475.495C79.0182 475.901 79.129 476.342 79.1515 476.791C79.1858 477.705 78.8579 478.595 78.239 479.268C77.6201 479.941 76.7604 480.343 75.847 480.385C74.502 480.472 73.1621 480.61 71.8288 480.783C68.8816 481.151 65.9686 481.754 63.1177 482.586C60.0891 483.507 57.1204 484.825 54.8768 485.937C53.6732 486.536 52.4827 487.166 51.3171 487.843C50.5348 488.316 49.5972 488.461 48.7085 488.247C47.8197 488.032 47.0517 487.475 46.5716 486.697C46.1182 485.912 45.9881 484.982 46.2089 484.104C46.4297 483.225 46.9842 482.467 47.7546 481.99C49.0867 481.208 50.4484 480.478 51.8366 479.8C53.4972 478.973 55.5904 478.015 57.8819 477.142L56.5246 472.678C49.2611 475.068 42.1712 477.955 35.3053 481.321C31.5415 483.156 26.9082 481.26 25.6575 477.147L16.091 445.681C14.8393 441.565 17.6309 437.414 21.7836 436.847C39.2373 434.508 56.1957 429.352 71.9972 421.58Z" fill="#FEE333"/>
</g>
<path d="M58.3785 220.636L46.9256 214.553L53.0091 203.1L64.4619 209.183L58.3785 220.636ZM32.0122 191.947C32.2811 191.441 32.7401 191.062 33.2882 190.894C33.8363 190.726 34.4287 190.783 34.9349 191.052L38.7525 193.08L43.822 183.536C44.3599 182.523 45.2779 181.766 46.3741 181.43C47.4703 181.095 48.655 181.208 49.6675 181.746L59.2115 186.816L61.2393 182.998C61.5082 182.492 61.9672 182.113 62.5153 181.945C63.0635 181.777 63.6558 181.834 64.162 182.103C64.6683 182.372 65.047 182.831 65.2148 183.379C65.3826 183.927 65.3258 184.52 65.0569 185.026L63.0291 188.843L70.6644 192.899L72.6922 189.081C72.9611 188.575 73.4201 188.196 73.9682 188.029C74.5163 187.861 75.1086 187.918 75.6149 188.187C76.1211 188.455 76.4998 188.914 76.6677 189.463C76.8355 190.011 76.7787 190.603 76.5098 191.109L74.482 194.927L84.026 199.996C85.0385 200.534 85.7959 201.452 86.1316 202.548C86.4672 203.645 86.3536 204.829 85.8158 205.842L80.7463 215.386L84.5639 217.414C85.0702 217.683 85.4489 218.142 85.6167 218.69C85.7845 219.238 85.7277 219.83 85.4588 220.336C85.1899 220.843 84.7309 221.221 84.1828 221.389C83.6347 221.557 83.0423 221.5 82.5361 221.231L78.7185 219.203L74.6629 226.839L78.4805 228.867C78.9867 229.135 79.3654 229.594 79.5332 230.143C79.7011 230.691 79.6443 231.283 79.3754 231.789C79.1065 232.295 78.6475 232.674 78.0994 232.842C77.5512 233.01 76.9589 232.953 76.4527 232.684L72.635 230.656L67.5655 240.2C67.0277 241.213 66.1097 241.97 65.0135 242.306C63.9173 242.642 62.7326 242.528 61.7201 241.99L52.176 236.921L50.1482 240.738C49.8793 241.245 49.4203 241.623 48.8722 241.791C48.3241 241.959 47.7318 241.902 47.2255 241.633C46.7193 241.364 46.3406 240.905 46.1728 240.357C46.0049 239.809 46.0617 239.217 46.3306 238.71L48.3584 234.893L40.7232 230.837L38.6954 234.655C38.4265 235.161 37.9675 235.54 37.4194 235.708C36.8713 235.875 36.2789 235.819 35.7727 235.55C35.2664 235.281 34.8877 234.822 34.7199 234.274C34.5521 233.726 34.6089 233.133 34.8778 232.627L36.9056 228.809L27.3615 223.74C26.349 223.202 25.5917 222.284 25.256 221.188C24.9204 220.092 25.0339 218.907 25.5717 217.894L30.6413 208.35L26.8237 206.323C26.3174 206.054 25.9387 205.595 25.7709 205.047C25.6031 204.498 25.6598 203.906 25.9288 203.4C26.1977 202.894 26.6566 202.515 27.2048 202.347C27.7529 202.179 28.3452 202.236 28.8515 202.505L32.6691 204.533L36.7247 196.898L32.9071 194.87C32.4008 194.601 32.0221 194.142 31.8543 193.594C31.6865 193.046 31.7433 192.453 32.0122 191.947ZM42.0941 214.434C41.8252 214.94 41.7684 215.532 41.9363 216.081C42.1041 216.629 42.4828 217.088 42.989 217.357L58.2595 225.468C58.7657 225.737 59.3581 225.793 59.9062 225.626C60.4543 225.458 60.9133 225.079 61.1822 224.573L69.2934 209.302C69.5624 208.796 69.6191 208.204 69.4513 207.656C69.2835 207.108 68.9048 206.649 68.3985 206.38L53.1281 198.268C52.6218 198 52.0295 197.943 51.4814 198.111C50.9333 198.278 50.4743 198.657 50.2054 199.163L42.0941 214.434Z" fill="#850014"/>
<path d="M61.3758 219.495L49.923 213.411L56.0064 201.958L67.4592 208.042L61.3758 219.495ZM35.0095 190.805C35.2784 190.299 35.7374 189.92 36.2855 189.753C36.8336 189.585 37.426 189.642 37.9322 189.911L41.7498 191.938L46.8194 182.394C47.3572 181.382 48.2752 180.624 49.3714 180.289C50.4676 179.953 51.6523 180.067 52.6648 180.604L62.2088 185.674L64.2366 181.856C64.5055 181.35 64.9645 180.971 65.5127 180.804C66.0608 180.636 66.6531 180.693 67.1594 180.962C67.6656 181.23 68.0443 181.689 68.2121 182.238C68.38 182.786 68.3232 183.378 68.0543 183.884L66.0264 187.702L73.6617 191.757L75.6895 187.94C75.9584 187.434 76.4174 187.055 76.9655 186.887C77.5136 186.719 78.106 186.776 78.6122 187.045C79.1185 187.314 79.4971 187.773 79.665 188.321C79.8328 188.869 79.776 189.461 79.5071 189.968L77.4793 193.785L87.0233 198.855C88.0358 199.393 88.7932 200.311 89.1289 201.407C89.4645 202.503 89.351 203.688 88.8131 204.7L83.7436 214.244L87.5612 216.272C88.0675 216.541 88.4462 217 88.614 217.548C88.7818 218.096 88.725 218.689 88.4561 219.195C88.1872 219.701 87.7282 220.08 87.1801 220.248C86.632 220.415 86.0397 220.359 85.5334 220.09L81.7158 218.062L77.6602 225.697L81.4778 227.725C81.984 227.994 82.3627 228.453 82.5306 229.001C82.6984 229.549 82.6416 230.141 82.3727 230.648C82.1038 231.154 81.6448 231.533 81.0967 231.7C80.5486 231.868 79.9562 231.811 79.45 231.543L75.6324 229.515L70.5628 239.059C70.025 240.071 69.107 240.829 68.0108 241.164C66.9146 241.5 65.7299 241.386 64.7174 240.849L55.1734 235.779L53.1456 239.597C52.8766 240.103 52.4176 240.482 51.8695 240.649C51.3214 240.817 50.7291 240.76 50.2228 240.492C49.7166 240.223 49.3379 239.764 49.1701 239.216C49.0022 238.667 49.059 238.075 49.3279 237.569L51.3557 233.751L43.7205 229.696L41.6927 233.513C41.4238 234.019 40.9648 234.398 40.4167 234.566C39.8686 234.734 39.2762 234.677 38.77 234.408C38.2637 234.139 37.885 233.68 37.7172 233.132C37.5494 232.584 37.6062 231.992 37.8751 231.485L39.9029 227.668L30.3589 222.598C29.3464 222.06 28.589 221.142 28.2533 220.046C27.9177 218.95 28.0312 217.765 28.5691 216.753L33.6386 207.209L29.821 205.181C29.3147 204.912 28.936 204.453 28.7682 203.905C28.6004 203.357 28.6572 202.765 28.9261 202.258C29.195 201.752 29.654 201.373 30.2021 201.206C30.7502 201.038 31.3425 201.094 31.8488 201.363L35.6664 203.391L39.722 195.756L35.9044 193.728C35.3982 193.459 35.0195 193 34.8516 192.452C34.6838 191.904 34.7406 191.312 35.0095 190.805ZM45.0914 213.292C44.8225 213.798 44.7657 214.391 44.9336 214.939C45.1014 215.487 45.4801 215.946 45.9863 216.215L61.2568 224.326C61.763 224.595 62.3554 224.652 62.9035 224.484C63.4516 224.316 63.9106 223.938 64.1795 223.431L72.2908 208.161C72.5597 207.655 72.6164 207.062 72.4486 206.514C72.2808 205.966 71.9021 205.507 71.3959 205.238L56.1254 197.127C55.6191 196.858 55.0268 196.801 54.4787 196.969C53.9306 197.137 53.4716 197.516 53.2027 198.022L45.0914 213.292Z" fill="#E10531"/>
<g clip-path="url(#clip4_786_821)">
<path fill-rule="evenodd" clip-rule="evenodd" d="M203.232 204.139C202.745 202.8 200.852 202.8 200.364 204.139L198.15 210.224L192.065 212.438C190.726 212.926 190.726 214.819 192.065 215.307L198.15 217.52L200.364 223.605C200.852 224.945 202.745 224.945 203.232 223.605L205.446 217.52L211.531 215.307C212.87 214.819 212.87 212.926 211.531 212.438L205.446 210.224L203.232 204.139Z" fill="#FEE333"/>
</g>
<g clip-path="url(#clip5_786_821)">
<path fill-rule="evenodd" clip-rule="evenodd" d="M481.676 449.258C481.189 447.919 479.296 447.919 478.808 449.258L476.594 455.344L470.509 457.557C469.17 458.045 469.17 459.938 470.509 460.426L476.594 462.639L478.808 468.725C479.296 470.064 481.189 470.064 481.676 468.725L483.89 462.639L489.975 460.426C491.314 459.938 491.314 458.045 489.975 457.557L483.89 455.344L481.676 449.258Z" fill="#FEE333"/>
</g>
<rect x="539.115" y="396.176" width="18.5136" height="18.5136" rx="5" transform="rotate(-44.9977 539.115 396.176)" fill="#E10531" fill-opacity="0.5"/>
<rect x="439.882" y="198.451" width="18.5136" height="18.5136" rx="5" transform="rotate(-44.9977 439.882 198.451)" fill="#9D4EDD" fill-opacity="0.5"/>
<defs>
<clipPath id="clip0_786_821">
<rect width="84.0871" height="84.0871" fill="white" transform="translate(619.127 375.68) rotate(10.9153)"/>
</clipPath>
<clipPath id="clip1_786_821">
<rect width="84.0871" height="84.0871" fill="white" transform="translate(615.71 372.424) rotate(10.9153)"/>
</clipPath>
<clipPath id="clip2_786_821">
<rect width="74.0543" height="74.0543" fill="white" transform="translate(587.238 171.29) rotate(15.06)"/>
</clipPath>
<clipPath id="clip3_786_821">
<rect width="82.2189" height="82.2189" fill="white" transform="translate(2.74023 427.353) rotate(-16.9111)"/>
</clipPath>
<clipPath id="clip4_786_821">
<rect width="21.4757" height="21.4757" fill="white" transform="translate(191.06 203.134)"/>
</clipPath>
<clipPath id="clip5_786_821">
<rect width="21.4757" height="21.4757" fill="white" transform="translate(469.504 448.253)"/>
</clipPath>
</defs>
</svg>
