<svg width="957" height="404" viewBox="0 0 957 404" fill="none" xmlns="http://www.w3.org/2000/svg">
<g filter="url(#filter0_d_1963_1737)">
<path d="M23.9099 176.32L16.8899 174.82C13.8099 174.14 11.6499 173 10.4099 171.4C9.20992 169.8 8.60992 167.54 8.60992 164.62C8.60992 160.22 9.76992 156.98 12.0899 154.9C14.4099 152.82 18.0699 151.78 23.0699 151.78C25.2299 151.78 27.1699 151.88 28.8899 152.08C30.6099 152.24 32.0899 152.5 33.3299 152.86V162.76C30.4899 162.28 28.4099 162 27.0899 161.92C25.7699 161.8 24.4099 161.74 23.0099 161.74C21.6899 161.74 20.7299 161.92 20.1299 162.28C19.5699 162.64 19.2899 163.24 19.2899 164.08C19.2899 164.52 19.3899 164.86 19.5899 165.1C19.8299 165.34 20.2299 165.52 20.7899 165.64L27.3299 167.08C29.3699 167.52 30.8899 168 31.8899 168.52C32.8899 169 33.6899 169.6 34.2899 170.32C34.9699 171.12 35.4499 172.14 35.7299 173.38C36.0499 174.62 36.2099 176.12 36.2099 177.88C36.2099 182.36 35.0099 185.62 32.6099 187.66C30.2099 189.66 26.5099 190.66 21.5099 190.66C18.9499 190.66 16.4699 190.52 14.0699 190.24C11.7099 189.96 9.94992 189.6 8.78992 189.16V178.66C10.3099 179.14 12.2299 179.54 14.5499 179.86C16.9099 180.18 19.2499 180.34 21.5699 180.34C22.9699 180.34 23.9499 180.18 24.5099 179.86C25.0699 179.54 25.3499 178.96 25.3499 178.12C25.3499 177.56 25.2499 177.16 25.0499 176.92C24.8899 176.68 24.5099 176.48 23.9099 176.32ZM74.4927 171.16C74.4927 178.04 73.0527 183.02 70.1727 186.1C67.3327 189.14 62.7327 190.66 56.3727 190.66C49.7727 190.66 45.1127 189.2 42.3927 186.28C39.6727 183.36 38.3127 178.32 38.3127 171.16C38.3127 164.36 39.7327 159.44 42.5727 156.4C45.4527 153.32 50.0527 151.78 56.3727 151.78C62.9727 151.78 67.6327 153.24 70.3527 156.16C73.1127 159.04 74.4927 164.04 74.4927 171.16ZM49.5927 171.16C49.5927 174.72 50.0127 177.12 50.8527 178.36C51.7327 179.6 53.5727 180.22 56.3727 180.22C59.2127 180.22 61.0527 179.62 61.8927 178.42C62.7727 177.18 63.2127 174.76 63.2127 171.16C63.2127 167.48 62.7727 165.02 61.8927 163.78C61.0127 162.5 59.1727 161.86 56.3727 161.86C53.5727 161.86 51.7327 162.5 50.8527 163.78C50.0127 165.02 49.5927 167.48 49.5927 171.16ZM108.425 178.84C108.425 182.68 107.285 185.5 105.005 187.3C102.725 189.1 99.1646 190 94.3246 190H78.0646V152.38H94.3246C98.6846 152.38 101.805 153.14 103.685 154.66C105.565 156.18 106.505 158.7 106.505 162.22C106.505 164.42 106.185 166.14 105.545 167.38C104.905 168.58 103.825 169.46 102.305 170.02C104.425 170.5 105.965 171.46 106.925 172.9C107.925 174.34 108.425 176.32 108.425 178.84ZM96.6646 164.14C96.6646 163.18 96.4646 162.48 96.0646 162.04C95.7046 161.6 95.0846 161.38 94.2046 161.38H88.9846V167.26H94.2046C95.0846 167.26 95.7046 167.02 96.0646 166.54C96.4646 166.06 96.6646 165.26 96.6646 164.14ZM97.5646 177.76C97.5646 176.68 97.3046 175.92 96.7846 175.48C96.3046 175 95.4846 174.76 94.3246 174.76H88.9846V180.64H94.3246C95.4846 180.64 96.3046 180.42 96.7846 179.98C97.3046 179.54 97.5646 178.8 97.5646 177.76ZM122.739 178.24V190H111.639V152.38H125.739C131.779 152.38 136.039 153.4 138.519 155.44C141.039 157.44 142.299 160.82 142.299 165.58C142.299 168.42 141.739 170.76 140.619 172.6C139.539 174.44 137.879 175.82 135.639 176.74L143.859 190H131.139L124.839 178.24H122.739ZM130.959 165.76C130.959 164.52 130.619 163.64 129.939 163.12C129.259 162.6 128.039 162.34 126.279 162.34H122.739V169.72H126.279C128.039 169.72 129.259 169.42 129.939 168.82C130.619 168.22 130.959 167.2 130.959 165.76ZM172.665 179.98V190H146.385V152.38H172.125V162.16H157.485V166.42H169.905V175.54H157.485V179.98H172.665ZM217.948 152.38V190H207.448L194.968 171.34V190H184.588V152.38H194.968L207.568 172.06V152.38H217.948ZM257.715 171.16C257.715 178.04 256.275 183.02 253.395 186.1C250.555 189.14 245.955 190.66 239.595 190.66C232.995 190.66 228.335 189.2 225.615 186.28C222.895 183.36 221.535 178.32 221.535 171.16C221.535 164.36 222.955 159.44 225.795 156.4C228.675 153.32 233.275 151.78 239.595 151.78C246.195 151.78 250.855 153.24 253.575 156.16C256.335 159.04 257.715 164.04 257.715 171.16ZM232.815 171.16C232.815 174.72 233.235 177.12 234.075 178.36C234.955 179.6 236.795 180.22 239.595 180.22C242.435 180.22 244.275 179.62 245.115 178.42C245.995 177.18 246.435 174.76 246.435 171.16C246.435 167.48 245.995 165.02 245.115 163.78C244.235 162.5 242.395 161.86 239.595 161.86C236.795 161.86 234.955 162.5 234.075 163.78C233.235 165.02 232.815 167.48 232.815 171.16ZM239.535 142.3H250.695L241.515 149.86H233.295L239.535 142.3ZM275.687 176.32L268.667 174.82C265.587 174.14 263.427 173 262.187 171.4C260.987 169.8 260.387 167.54 260.387 164.62C260.387 160.22 261.547 156.98 263.867 154.9C266.187 152.82 269.847 151.78 274.847 151.78C277.007 151.78 278.947 151.88 280.667 152.08C282.387 152.24 283.867 152.5 285.107 152.86V162.76C282.267 162.28 280.187 162 278.867 161.92C277.547 161.8 276.187 161.74 274.787 161.74C273.467 161.74 272.507 161.92 271.907 162.28C271.347 162.64 271.067 163.24 271.067 164.08C271.067 164.52 271.167 164.86 271.367 165.1C271.607 165.34 272.007 165.52 272.567 165.64L279.107 167.08C281.147 167.52 282.667 168 283.667 168.52C284.667 169 285.467 169.6 286.067 170.32C286.747 171.12 287.227 172.14 287.507 173.38C287.827 174.62 287.987 176.12 287.987 177.88C287.987 182.36 286.787 185.62 284.387 187.66C281.987 189.66 278.287 190.66 273.287 190.66C270.727 190.66 268.247 190.52 265.847 190.24C263.487 189.96 261.727 189.6 260.567 189.16V178.66C262.087 179.14 264.007 179.54 266.327 179.86C268.687 180.18 271.027 180.34 273.347 180.34C274.747 180.34 275.727 180.18 276.287 179.86C276.847 179.54 277.127 178.96 277.127 178.12C277.127 177.56 277.027 177.16 276.827 176.92C276.667 176.68 276.287 176.48 275.687 176.32Z" fill="#121212"/>
</g>
<g filter="url(#filter1_d_1963_1737)">
<path d="M7.49 249.1C7.49 248.139 7.70467 247.28 8.134 246.524C8.57267 245.759 9.16533 245.166 9.912 244.746C10.668 244.317 11.5127 244.102 12.446 244.102C13.538 244.102 14.4947 244.382 15.316 244.942C16.1373 245.502 16.7113 246.277 17.038 247.266H14.784C14.56 246.799 14.2427 246.449 13.832 246.216C13.4307 245.983 12.964 245.866 12.432 245.866C11.8627 245.866 11.354 246.001 10.906 246.272C10.4673 246.533 10.122 246.907 9.87 247.392C9.62733 247.877 9.506 248.447 9.506 249.1C9.506 249.744 9.62733 250.313 9.87 250.808C10.122 251.293 10.4673 251.671 10.906 251.942C11.354 252.203 11.8627 252.334 12.432 252.334C12.964 252.334 13.4307 252.217 13.832 251.984C14.2427 251.741 14.56 251.387 14.784 250.92H17.038C16.7113 251.919 16.1373 252.698 15.316 253.258C14.504 253.809 13.5473 254.084 12.446 254.084C11.5127 254.084 10.668 253.874 9.912 253.454C9.16533 253.025 8.57267 252.432 8.134 251.676C7.70467 250.92 7.49 250.061 7.49 249.1ZM22.1561 254.126C21.4094 254.126 20.7374 253.963 20.1401 253.636C19.5428 253.3 19.0714 252.829 18.7261 252.222C18.3901 251.615 18.2221 250.915 18.2221 250.122C18.2221 249.329 18.3948 248.629 18.7401 248.022C19.0948 247.415 19.5754 246.949 20.1821 246.622C20.7888 246.286 21.4654 246.118 22.2121 246.118C22.9588 246.118 23.6354 246.286 24.2421 246.622C24.8488 246.949 25.3248 247.415 25.6701 248.022C26.0248 248.629 26.2021 249.329 26.2021 250.122C26.2021 250.915 26.0201 251.615 25.6561 252.222C25.3014 252.829 24.8161 253.3 24.2001 253.636C23.5934 253.963 22.9121 254.126 22.1561 254.126ZM22.1561 252.418C22.5108 252.418 22.8421 252.334 23.1501 252.166C23.4674 251.989 23.7194 251.727 23.9061 251.382C24.0928 251.037 24.1861 250.617 24.1861 250.122C24.1861 249.385 23.9901 248.82 23.5981 248.428C23.2154 248.027 22.7441 247.826 22.1841 247.826C21.6241 247.826 21.1528 248.027 20.7701 248.428C20.3968 248.82 20.2101 249.385 20.2101 250.122C20.2101 250.859 20.3921 251.429 20.7561 251.83C21.1294 252.222 21.5961 252.418 22.1561 252.418ZM31.9378 246.132C32.8618 246.132 33.6085 246.426 34.1778 247.014C34.7472 247.593 35.0318 248.405 35.0318 249.45V254H33.0718V249.716C33.0718 249.1 32.9178 248.629 32.6098 248.302C32.3018 247.966 31.8818 247.798 31.3498 247.798C30.8085 247.798 30.3792 247.966 30.0618 248.302C29.7538 248.629 29.5998 249.1 29.5998 249.716V254H27.6398V246.244H29.5998V247.21C29.8612 246.874 30.1925 246.613 30.5938 246.426C31.0045 246.23 31.4525 246.132 31.9378 246.132ZM41.2637 246.132C41.8517 246.132 42.3744 246.263 42.8317 246.524C43.289 246.776 43.6437 247.154 43.8957 247.658C44.157 248.153 44.2877 248.75 44.2877 249.45V254H42.3277V249.716C42.3277 249.1 42.1737 248.629 41.8657 248.302C41.5577 247.966 41.1377 247.798 40.6057 247.798C40.0644 247.798 39.635 247.966 39.3177 248.302C39.0097 248.629 38.8557 249.1 38.8557 249.716V254H36.8957V243.64H38.8557V247.21C39.1077 246.874 39.4437 246.613 39.8637 246.426C40.2837 246.23 40.7504 246.132 41.2637 246.132ZM53.3615 249.954C53.3615 250.234 53.3429 250.486 53.3055 250.71H47.6355C47.6822 251.27 47.8782 251.709 48.2235 252.026C48.5689 252.343 48.9935 252.502 49.4975 252.502C50.2255 252.502 50.7435 252.189 51.0515 251.564H53.1655C52.9415 252.311 52.5122 252.927 51.8775 253.412C51.2429 253.888 50.4635 254.126 49.5395 254.126C48.7929 254.126 48.1209 253.963 47.5235 253.636C46.9355 253.3 46.4735 252.829 46.1375 252.222C45.8109 251.615 45.6475 250.915 45.6475 250.122C45.6475 249.319 45.8109 248.615 46.1375 248.008C46.4642 247.401 46.9215 246.935 47.5095 246.608C48.0975 246.281 48.7742 246.118 49.5395 246.118C50.2769 246.118 50.9349 246.277 51.5135 246.594C52.1015 246.911 52.5542 247.364 52.8715 247.952C53.1982 248.531 53.3615 249.198 53.3615 249.954ZM51.3315 249.394C51.3222 248.89 51.1402 248.489 50.7855 248.19C50.4309 247.882 49.9969 247.728 49.4835 247.728C48.9982 247.728 48.5875 247.877 48.2515 248.176C47.9249 248.465 47.7242 248.871 47.6495 249.394H51.3315ZM58.1102 252.446C58.9035 252.446 59.4215 252.091 59.6642 251.382H61.7782C61.5822 252.138 61.2182 252.754 60.6862 253.23C60.1635 253.706 59.5055 253.991 58.7122 254.084V254.63C59.2255 254.63 59.6548 254.761 60.0002 255.022C60.3548 255.283 60.5322 255.661 60.5322 256.156C60.5322 256.66 60.3502 257.047 59.9862 257.318C59.6315 257.589 59.1928 257.724 58.6702 257.724H56.6822V256.576H58.3482C58.5722 256.576 58.7402 256.543 58.8522 256.478C58.9735 256.413 59.0342 256.296 59.0342 256.128C59.0342 255.96 58.9735 255.843 58.8522 255.778C58.7402 255.722 58.5722 255.694 58.3482 255.694H57.4802V254.084C56.8455 253.991 56.2855 253.771 55.8002 253.426C55.3242 253.071 54.9508 252.614 54.6802 252.054C54.4188 251.485 54.2882 250.841 54.2882 250.122C54.2882 249.319 54.4515 248.619 54.7782 248.022C55.1048 247.415 55.5575 246.949 56.1362 246.622C56.7148 246.286 57.3775 246.118 58.1242 246.118C59.0855 246.118 59.8788 246.361 60.5042 246.846C61.1388 247.322 61.5635 247.994 61.7782 248.862H59.6642C59.5522 248.526 59.3608 248.265 59.0902 248.078C58.8288 247.882 58.5022 247.784 58.1102 247.784C57.5502 247.784 57.1068 247.989 56.7802 248.4C56.4535 248.801 56.2902 249.375 56.2902 250.122C56.2902 250.859 56.4535 251.433 56.7802 251.844C57.1068 252.245 57.5502 252.446 58.1102 252.446ZM62.71 250.094C62.71 249.31 62.864 248.615 63.172 248.008C63.4894 247.401 63.914 246.935 64.446 246.608C64.9874 246.281 65.5894 246.118 66.252 246.118C66.8307 246.118 67.3347 246.235 67.764 246.468C68.2027 246.701 68.5527 246.995 68.814 247.35V246.244H70.788V254H68.814V252.866C68.562 253.23 68.212 253.533 67.764 253.776C67.3254 254.009 66.8167 254.126 66.238 254.126C65.5847 254.126 64.9874 253.958 64.446 253.622C63.914 253.286 63.4894 252.815 63.172 252.208C62.864 251.592 62.71 250.887 62.71 250.094ZM68.814 250.122C68.814 249.646 68.7207 249.24 68.534 248.904C68.3474 248.559 68.0954 248.297 67.778 248.12C67.4607 247.933 67.12 247.84 66.756 247.84C66.392 247.84 66.056 247.929 65.748 248.106C65.44 248.283 65.188 248.545 64.992 248.89C64.8054 249.226 64.712 249.627 64.712 250.094C64.712 250.561 64.8054 250.971 64.992 251.326C65.188 251.671 65.44 251.937 65.748 252.124C66.0654 252.311 66.4014 252.404 66.756 252.404C67.12 252.404 67.4607 252.315 67.778 252.138C68.0954 251.951 68.3474 251.69 68.534 251.354C68.7207 251.009 68.814 250.598 68.814 250.122ZM75.5343 250.108C75.5343 249.333 75.6929 248.647 76.0103 248.05C76.3369 247.443 76.7756 246.972 77.3263 246.636C77.8769 246.3 78.4836 246.132 79.1463 246.132C79.6969 246.132 80.1823 246.239 80.6023 246.454C81.0316 246.659 81.3769 246.925 81.6383 247.252V246.244H83.6123V257.696H81.6383V252.936C81.3769 253.272 81.0269 253.552 80.5883 253.776C80.1496 254 79.6549 254.112 79.1043 254.112C78.4509 254.112 77.8489 253.944 77.2983 253.608C76.7569 253.263 76.3276 252.787 76.0103 252.18C75.6929 251.573 75.5343 250.883 75.5343 250.108ZM81.6383 250.122C81.6383 249.646 81.5403 249.235 81.3443 248.89C81.1483 248.545 80.8916 248.283 80.5743 248.106C80.2663 247.929 79.9349 247.84 79.5803 247.84C79.2349 247.84 78.9036 247.929 78.5863 248.106C78.2783 248.283 78.0263 248.545 77.8303 248.89C77.6343 249.226 77.5363 249.632 77.5363 250.108C77.5363 250.584 77.6343 250.999 77.8303 251.354C78.0263 251.699 78.2783 251.961 78.5863 252.138C78.9036 252.315 79.2349 252.404 79.5803 252.404C79.9349 252.404 80.2663 252.315 80.5743 252.138C80.8916 251.961 81.1483 251.699 81.3443 251.354C81.5403 251.009 81.6383 250.598 81.6383 250.122ZM92.8485 246.244V254H90.8745V253.02C90.6225 253.356 90.2912 253.622 89.8805 253.818C89.4792 254.005 89.0405 254.098 88.5645 254.098C87.9579 254.098 87.4212 253.972 86.9545 253.72C86.4879 253.459 86.1192 253.081 85.8485 252.586C85.5872 252.082 85.4565 251.485 85.4565 250.794V246.244H87.4165V250.514C87.4165 251.13 87.5705 251.606 87.8785 251.942C88.1865 252.269 88.6065 252.432 89.1385 252.432C89.6799 252.432 90.1045 252.269 90.4125 251.942C90.7205 251.606 90.8745 251.13 90.8745 250.514V246.244H92.8485ZM101.992 249.954C101.992 250.234 101.974 250.486 101.936 250.71H96.2664C96.3131 251.27 96.5091 251.709 96.8544 252.026C97.1997 252.343 97.6244 252.502 98.1284 252.502C98.8564 252.502 99.3744 252.189 99.6824 251.564H101.796C101.572 252.311 101.143 252.927 100.508 253.412C99.8737 253.888 99.0944 254.126 98.1704 254.126C97.4237 254.126 96.7517 253.963 96.1544 253.636C95.5664 253.3 95.1044 252.829 94.7684 252.222C94.4417 251.615 94.2784 250.915 94.2784 250.122C94.2784 249.319 94.4417 248.615 94.7684 248.008C95.0951 247.401 95.5524 246.935 96.1404 246.608C96.7284 246.281 97.4051 246.118 98.1704 246.118C98.9077 246.118 99.5657 246.277 100.144 246.594C100.732 246.911 101.185 247.364 101.502 247.952C101.829 248.531 101.992 249.198 101.992 249.954ZM99.9624 249.394C99.9531 248.89 99.7711 248.489 99.4164 248.19C99.0617 247.882 98.6277 247.728 98.1144 247.728C97.6291 247.728 97.2184 247.877 96.8824 248.176C96.5557 248.465 96.3551 248.871 96.2804 249.394H99.9624ZM113.055 246.132C114.007 246.132 114.772 246.426 115.351 247.014C115.939 247.593 116.233 248.405 116.233 249.45V254H114.273V249.716C114.273 249.109 114.119 248.647 113.811 248.33C113.503 248.003 113.083 247.84 112.551 247.84C112.019 247.84 111.594 248.003 111.277 248.33C110.969 248.647 110.815 249.109 110.815 249.716V254H108.855V249.716C108.855 249.109 108.701 248.647 108.393 248.33C108.085 248.003 107.665 247.84 107.133 247.84C106.592 247.84 106.162 248.003 105.845 248.33C105.537 248.647 105.383 249.109 105.383 249.716V254H103.423V246.244H105.383V247.182C105.635 246.855 105.957 246.599 106.349 246.412C106.75 246.225 107.189 246.132 107.665 246.132C108.272 246.132 108.813 246.263 109.289 246.524C109.765 246.776 110.134 247.14 110.395 247.616C110.647 247.168 111.011 246.809 111.487 246.538C111.972 246.267 112.495 246.132 113.055 246.132ZM128.639 249.954C128.639 250.234 128.62 250.486 128.583 250.71H122.913C122.96 251.27 123.156 251.709 123.501 252.026C123.846 252.343 124.271 252.502 124.775 252.502C125.503 252.502 126.021 252.189 126.329 251.564H128.443C128.219 252.311 127.79 252.927 127.155 253.412C126.52 253.888 125.741 254.126 124.817 254.126C124.07 254.126 123.398 253.963 122.801 253.636C122.213 253.3 121.751 252.829 121.415 252.222C121.088 251.615 120.925 250.915 120.925 250.122C120.925 249.319 121.088 248.615 121.415 248.008C121.742 247.401 122.199 246.935 122.787 246.608C123.375 246.281 124.052 246.118 124.817 246.118C125.554 246.118 126.212 246.277 126.791 246.594C127.379 246.911 127.832 247.364 128.149 247.952C128.476 248.531 128.639 249.198 128.639 249.954ZM126.609 249.394C126.6 248.89 126.418 248.489 126.063 248.19C125.708 247.882 125.274 247.728 124.761 247.728C124.276 247.728 123.865 247.877 123.529 248.176C123.202 248.465 123.002 248.871 122.927 249.394H126.609ZM133.038 254.126C132.403 254.126 131.834 254.014 131.33 253.79C130.826 253.557 130.424 253.244 130.126 252.852C129.836 252.46 129.678 252.026 129.65 251.55H131.624C131.661 251.849 131.806 252.096 132.058 252.292C132.319 252.488 132.641 252.586 133.024 252.586C133.397 252.586 133.686 252.511 133.892 252.362C134.106 252.213 134.214 252.021 134.214 251.788C134.214 251.536 134.083 251.349 133.822 251.228C133.57 251.097 133.164 250.957 132.604 250.808C132.025 250.668 131.549 250.523 131.176 250.374C130.812 250.225 130.494 249.996 130.224 249.688C129.962 249.38 129.832 248.965 129.832 248.442C129.832 248.013 129.953 247.621 130.196 247.266C130.448 246.911 130.802 246.631 131.26 246.426C131.726 246.221 132.272 246.118 132.898 246.118C133.822 246.118 134.559 246.351 135.11 246.818C135.66 247.275 135.964 247.896 136.02 248.68H134.144C134.116 248.372 133.985 248.129 133.752 247.952C133.528 247.765 133.224 247.672 132.842 247.672C132.487 247.672 132.212 247.737 132.016 247.868C131.829 247.999 131.736 248.181 131.736 248.414C131.736 248.675 131.866 248.876 132.128 249.016C132.389 249.147 132.795 249.282 133.346 249.422C133.906 249.562 134.368 249.707 134.732 249.856C135.096 250.005 135.408 250.239 135.67 250.556C135.94 250.864 136.08 251.275 136.09 251.788C136.09 252.236 135.964 252.637 135.712 252.992C135.469 253.347 135.114 253.627 134.648 253.832C134.19 254.028 133.654 254.126 133.038 254.126ZM139.98 247.854V251.606C139.98 251.867 140.041 252.059 140.162 252.18C140.293 252.292 140.508 252.348 140.806 252.348H141.716V254H140.484C138.832 254 138.006 253.197 138.006 251.592V247.854H137.082V246.244H138.006V244.326H139.98V246.244H141.716V247.854H139.98ZM142.622 250.094C142.622 249.31 142.776 248.615 143.084 248.008C143.401 247.401 143.826 246.935 144.358 246.608C144.899 246.281 145.501 246.118 146.164 246.118C146.743 246.118 147.247 246.235 147.676 246.468C148.115 246.701 148.465 246.995 148.726 247.35V246.244H150.7V254H148.726V252.866C148.474 253.23 148.124 253.533 147.676 253.776C147.237 254.009 146.729 254.126 146.15 254.126C145.497 254.126 144.899 253.958 144.358 253.622C143.826 253.286 143.401 252.815 143.084 252.208C142.776 251.592 142.622 250.887 142.622 250.094ZM148.726 250.122C148.726 249.646 148.633 249.24 148.446 248.904C148.259 248.559 148.007 248.297 147.69 248.12C147.373 247.933 147.032 247.84 146.668 247.84C146.304 247.84 145.968 247.929 145.66 248.106C145.352 248.283 145.1 248.545 144.904 248.89C144.717 249.226 144.624 249.627 144.624 250.094C144.624 250.561 144.717 250.971 144.904 251.326C145.1 251.671 145.352 251.937 145.66 252.124C145.977 252.311 146.313 252.404 146.668 252.404C147.032 252.404 147.373 252.315 147.69 252.138C148.007 251.951 148.259 251.69 148.446 251.354C148.633 251.009 148.726 250.598 148.726 250.122ZM148.46 244.228L145.24 245.698V244.298L148.46 242.632V244.228ZM157.91 247.364C158.162 247.009 158.508 246.715 158.946 246.482C159.394 246.239 159.903 246.118 160.472 246.118C161.135 246.118 161.732 246.281 162.264 246.608C162.806 246.935 163.23 247.401 163.538 248.008C163.856 248.605 164.014 249.301 164.014 250.094C164.014 250.887 163.856 251.592 163.538 252.208C163.23 252.815 162.806 253.286 162.264 253.622C161.732 253.958 161.135 254.126 160.472 254.126C159.903 254.126 159.399 254.009 158.96 253.776C158.531 253.543 158.181 253.249 157.91 252.894V257.696H155.95V246.244H157.91V247.364ZM162.012 250.094C162.012 249.627 161.914 249.226 161.718 248.89C161.532 248.545 161.28 248.283 160.962 248.106C160.654 247.929 160.318 247.84 159.954 247.84C159.6 247.84 159.264 247.933 158.946 248.12C158.638 248.297 158.386 248.559 158.19 248.904C158.004 249.249 157.91 249.655 157.91 250.122C157.91 250.589 158.004 250.995 158.19 251.34C158.386 251.685 158.638 251.951 158.946 252.138C159.264 252.315 159.6 252.404 159.954 252.404C160.318 252.404 160.654 252.311 160.962 252.124C161.28 251.937 161.532 251.671 161.718 251.326C161.914 250.981 162.012 250.57 162.012 250.094ZM168.883 254.126C168.136 254.126 167.464 253.963 166.867 253.636C166.269 253.3 165.798 252.829 165.453 252.222C165.117 251.615 164.949 250.915 164.949 250.122C164.949 249.329 165.121 248.629 165.467 248.022C165.821 247.415 166.302 246.949 166.909 246.622C167.515 246.286 168.192 246.118 168.939 246.118C169.685 246.118 170.362 246.286 170.969 246.622C171.575 246.949 172.051 247.415 172.397 248.022C172.751 248.629 172.929 249.329 172.929 250.122C172.929 250.915 172.747 251.615 172.383 252.222C172.028 252.829 171.543 253.3 170.927 253.636C170.32 253.963 169.639 254.126 168.883 254.126ZM168.883 252.418C169.237 252.418 169.569 252.334 169.877 252.166C170.194 251.989 170.446 251.727 170.633 251.382C170.819 251.037 170.913 250.617 170.913 250.122C170.913 249.385 170.717 248.82 170.325 248.428C169.942 248.027 169.471 247.826 168.911 247.826C168.351 247.826 167.879 248.027 167.497 248.428C167.123 248.82 166.937 249.385 166.937 250.122C166.937 250.859 167.119 251.429 167.483 251.83C167.856 252.222 168.323 252.418 168.883 252.418ZM176.326 247.448C176.578 247.037 176.905 246.715 177.306 246.482C177.717 246.249 178.184 246.132 178.706 246.132V248.19H178.188C177.572 248.19 177.106 248.335 176.788 248.624C176.48 248.913 176.326 249.417 176.326 250.136V254H174.366V246.244H176.326V247.448ZM185.644 247.854V251.606C185.644 251.867 185.705 252.059 185.826 252.18C185.957 252.292 186.172 252.348 186.47 252.348H187.38V254H186.148C184.496 254 183.67 253.197 183.67 251.592V247.854H182.746V246.244H183.67V244.326H185.644V246.244H187.38V247.854H185.644ZM190.75 247.448C191.002 247.037 191.329 246.715 191.73 246.482C192.141 246.249 192.608 246.132 193.13 246.132V248.19H192.612C191.996 248.19 191.53 248.335 191.212 248.624C190.904 248.913 190.75 249.417 190.75 250.136V254H188.79V246.244H190.75V247.448ZM193.946 250.094C193.946 249.31 194.1 248.615 194.408 248.008C194.726 247.401 195.15 246.935 195.682 246.608C196.224 246.281 196.826 246.118 197.488 246.118C198.067 246.118 198.571 246.235 199 246.468C199.439 246.701 199.789 246.995 200.05 247.35V246.244H202.024V254H200.05V252.866C199.798 253.23 199.448 253.533 199 253.776C198.562 254.009 198.053 254.126 197.474 254.126C196.821 254.126 196.224 253.958 195.682 253.622C195.15 253.286 194.726 252.815 194.408 252.208C194.1 251.592 193.946 250.887 193.946 250.094ZM200.05 250.122C200.05 249.646 199.957 249.24 199.77 248.904C199.584 248.559 199.332 248.297 199.014 248.12C198.697 247.933 198.356 247.84 197.992 247.84C197.628 247.84 197.292 247.929 196.984 248.106C196.676 248.283 196.424 248.545 196.228 248.89C196.042 249.226 195.948 249.627 195.948 250.094C195.948 250.561 196.042 250.971 196.228 251.326C196.424 251.671 196.676 251.937 196.984 252.124C197.302 252.311 197.638 252.404 197.992 252.404C198.356 252.404 198.697 252.315 199.014 252.138C199.332 251.951 199.584 251.69 199.77 251.354C199.957 251.009 200.05 250.598 200.05 250.122ZM199.784 244.228L196.564 245.698V244.298L199.784 242.632V244.228ZM206.907 254.126C206.272 254.126 205.703 254.014 205.199 253.79C204.695 253.557 204.293 253.244 203.995 252.852C203.705 252.46 203.547 252.026 203.519 251.55H205.493C205.53 251.849 205.675 252.096 205.927 252.292C206.188 252.488 206.51 252.586 206.893 252.586C207.266 252.586 207.555 252.511 207.761 252.362C207.975 252.213 208.083 252.021 208.083 251.788C208.083 251.536 207.952 251.349 207.691 251.228C207.439 251.097 207.033 250.957 206.473 250.808C205.894 250.668 205.418 250.523 205.045 250.374C204.681 250.225 204.363 249.996 204.093 249.688C203.831 249.38 203.701 248.965 203.701 248.442C203.701 248.013 203.822 247.621 204.065 247.266C204.317 246.911 204.671 246.631 205.129 246.426C205.595 246.221 206.141 246.118 206.767 246.118C207.691 246.118 208.428 246.351 208.979 246.818C209.529 247.275 209.833 247.896 209.889 248.68H208.013C207.985 248.372 207.854 248.129 207.621 247.952C207.397 247.765 207.093 247.672 206.711 247.672C206.356 247.672 206.081 247.737 205.885 247.868C205.698 247.999 205.605 248.181 205.605 248.414C205.605 248.675 205.735 248.876 205.997 249.016C206.258 249.147 206.664 249.282 207.215 249.422C207.775 249.562 208.237 249.707 208.601 249.856C208.965 250.005 209.277 250.239 209.539 250.556C209.809 250.864 209.949 251.275 209.959 251.788C209.959 252.236 209.833 252.637 209.581 252.992C209.338 253.347 208.983 253.627 208.517 253.832C208.059 254.028 207.523 254.126 206.907 254.126ZM214.399 250.094C214.399 249.31 214.553 248.615 214.861 248.008C215.179 247.401 215.608 246.935 216.15 246.608C216.691 246.281 217.293 246.118 217.956 246.118C218.46 246.118 218.94 246.23 219.398 246.454C219.855 246.669 220.219 246.958 220.49 247.322V243.64H222.478V254H220.49V252.852C220.247 253.235 219.906 253.543 219.468 253.776C219.029 254.009 218.52 254.126 217.942 254.126C217.288 254.126 216.691 253.958 216.15 253.622C215.608 253.286 215.179 252.815 214.861 252.208C214.553 251.592 214.399 250.887 214.399 250.094ZM220.504 250.122C220.504 249.646 220.41 249.24 220.224 248.904C220.037 248.559 219.785 248.297 219.468 248.12C219.15 247.933 218.81 247.84 218.446 247.84C218.082 247.84 217.746 247.929 217.438 248.106C217.13 248.283 216.878 248.545 216.682 248.89C216.495 249.226 216.402 249.627 216.402 250.094C216.402 250.561 216.495 250.971 216.682 251.326C216.878 251.671 217.13 251.937 217.438 252.124C217.755 252.311 218.091 252.404 218.446 252.404C218.81 252.404 219.15 252.315 219.468 252.138C219.785 251.951 220.037 251.69 220.224 251.354C220.41 251.009 220.504 250.598 220.504 250.122ZM231.602 249.954C231.602 250.234 231.583 250.486 231.546 250.71H225.876C225.922 251.27 226.118 251.709 226.464 252.026C226.809 252.343 227.234 252.502 227.738 252.502C228.466 252.502 228.984 252.189 229.292 251.564H231.406C231.182 252.311 230.752 252.927 230.118 253.412C229.483 253.888 228.704 254.126 227.78 254.126C227.033 254.126 226.361 253.963 225.764 253.636C225.176 253.3 224.714 252.829 224.378 252.222C224.051 251.615 223.888 250.915 223.888 250.122C223.888 249.319 224.051 248.615 224.378 248.008C224.704 247.401 225.162 246.935 225.75 246.608C226.338 246.281 227.014 246.118 227.78 246.118C228.517 246.118 229.175 246.277 229.754 246.594C230.342 246.911 230.794 247.364 231.112 247.952C231.438 248.531 231.602 249.198 231.602 249.954ZM229.572 249.394C229.562 248.89 229.38 248.489 229.026 248.19C228.671 247.882 228.237 247.728 227.724 247.728C227.238 247.728 226.828 247.877 226.492 248.176C226.165 248.465 225.964 248.871 225.89 249.394H229.572ZM238.65 247.854V251.606C238.65 251.867 238.711 252.059 238.832 252.18C238.963 252.292 239.178 252.348 239.476 252.348H240.386V254H239.154C237.502 254 236.676 253.197 236.676 251.592V247.854H235.752V246.244H236.676V244.326H238.65V246.244H240.386V247.854H238.65ZM245.24 254.126C244.493 254.126 243.821 253.963 243.224 253.636C242.627 253.3 242.155 252.829 241.81 252.222C241.474 251.615 241.306 250.915 241.306 250.122C241.306 249.329 241.479 248.629 241.824 248.022C242.179 247.415 242.659 246.949 243.266 246.622C243.873 246.286 244.549 246.118 245.296 246.118C246.043 246.118 246.719 246.286 247.326 246.622C247.933 246.949 248.409 247.415 248.754 248.022C249.109 248.629 249.286 249.329 249.286 250.122C249.286 250.915 249.104 251.615 248.74 252.222C248.385 252.829 247.9 253.3 247.284 253.636C246.677 253.963 245.996 254.126 245.24 254.126ZM245.24 252.418C245.595 252.418 245.926 252.334 246.234 252.166C246.551 251.989 246.803 251.727 246.99 251.382C247.177 251.037 247.27 250.617 247.27 250.122C247.27 249.385 247.074 248.82 246.682 248.428C246.299 248.027 245.828 247.826 245.268 247.826C244.708 247.826 244.237 248.027 243.854 248.428C243.481 248.82 243.294 249.385 243.294 250.122C243.294 250.859 243.476 251.429 243.84 251.83C244.213 252.222 244.68 252.418 245.24 252.418ZM250.22 250.094C250.22 249.31 250.374 248.615 250.682 248.008C250.999 247.401 251.428 246.935 251.97 246.608C252.511 246.281 253.113 246.118 253.776 246.118C254.28 246.118 254.76 246.23 255.218 246.454C255.675 246.669 256.039 246.958 256.31 247.322V243.64H258.298V254H256.31V252.852C256.067 253.235 255.726 253.543 255.288 253.776C254.849 254.009 254.34 254.126 253.762 254.126C253.108 254.126 252.511 253.958 251.97 253.622C251.428 253.286 250.999 252.815 250.682 252.208C250.374 251.592 250.22 250.887 250.22 250.094ZM256.324 250.122C256.324 249.646 256.23 249.24 256.044 248.904C255.857 248.559 255.605 248.297 255.288 248.12C254.97 247.933 254.63 247.84 254.266 247.84C253.902 247.84 253.566 247.929 253.258 248.106C252.95 248.283 252.698 248.545 252.502 248.89C252.315 249.226 252.222 249.627 252.222 250.094C252.222 250.561 252.315 250.971 252.502 251.326C252.698 251.671 252.95 251.937 253.258 252.124C253.575 252.311 253.911 252.404 254.266 252.404C254.63 252.404 254.97 252.315 255.288 252.138C255.605 251.951 255.857 251.69 256.044 251.354C256.23 251.009 256.324 250.598 256.324 250.122ZM263.656 254.126C262.909 254.126 262.237 253.963 261.64 253.636C261.043 253.3 260.571 252.829 260.226 252.222C259.89 251.615 259.722 250.915 259.722 250.122C259.722 249.329 259.895 248.629 260.24 248.022C260.595 247.415 261.075 246.949 261.682 246.622C262.289 246.286 262.965 246.118 263.712 246.118C264.459 246.118 265.135 246.286 265.742 246.622C266.349 246.949 266.825 247.415 267.17 248.022C267.525 248.629 267.702 249.329 267.702 250.122C267.702 250.915 267.52 251.615 267.156 252.222C266.801 252.829 266.316 253.3 265.7 253.636C265.093 253.963 264.412 254.126 263.656 254.126ZM263.656 252.418C264.011 252.418 264.342 252.334 264.65 252.166C264.967 251.989 265.219 251.727 265.406 251.382C265.593 251.037 265.686 250.617 265.686 250.122C265.686 249.385 265.49 248.82 265.098 248.428C264.715 248.027 264.244 247.826 263.684 247.826C263.124 247.826 262.653 248.027 262.27 248.428C261.897 248.82 261.71 249.385 261.71 250.122C261.71 250.859 261.892 251.429 262.256 251.83C262.629 252.222 263.096 252.418 263.656 252.418ZM275.92 254.126C275.173 254.126 274.501 253.963 273.904 253.636C273.306 253.3 272.835 252.829 272.49 252.222C272.154 251.615 271.986 250.915 271.986 250.122C271.986 249.329 272.158 248.629 272.504 248.022C272.858 247.415 273.339 246.949 273.946 246.622C274.552 246.286 275.229 246.118 275.976 246.118C276.722 246.118 277.399 246.286 278.006 246.622C278.612 246.949 279.088 247.415 279.434 248.022C279.788 248.629 279.966 249.329 279.966 250.122C279.966 250.915 279.784 251.615 279.42 252.222C279.065 252.829 278.58 253.3 277.964 253.636C277.357 253.963 276.676 254.126 275.92 254.126ZM275.92 252.418C276.274 252.418 276.606 252.334 276.914 252.166C277.231 251.989 277.483 251.727 277.67 251.382C277.856 251.037 277.95 250.617 277.95 250.122C277.95 249.385 277.754 248.82 277.362 248.428C276.979 248.027 276.508 247.826 275.948 247.826C275.388 247.826 274.916 248.027 274.534 248.428C274.16 248.82 273.974 249.385 273.974 250.122C273.974 250.859 274.156 251.429 274.52 251.83C274.893 252.222 275.36 252.418 275.92 252.418ZM134.857 271.094C134.857 270.31 135.011 269.615 135.319 269.008C135.636 268.401 136.065 267.935 136.607 267.608C137.148 267.281 137.75 267.118 138.413 267.118C138.917 267.118 139.397 267.23 139.855 267.454C140.312 267.669 140.676 267.958 140.947 268.322V264.64H142.935V275H140.947V273.852C140.704 274.235 140.363 274.543 139.925 274.776C139.486 275.009 138.977 275.126 138.399 275.126C137.745 275.126 137.148 274.958 136.607 274.622C136.065 274.286 135.636 273.815 135.319 273.208C135.011 272.592 134.857 271.887 134.857 271.094ZM140.961 271.122C140.961 270.646 140.867 270.24 140.681 269.904C140.494 269.559 140.242 269.297 139.925 269.12C139.607 268.933 139.267 268.84 138.903 268.84C138.539 268.84 138.203 268.929 137.895 269.106C137.587 269.283 137.335 269.545 137.139 269.89C136.952 270.226 136.859 270.627 136.859 271.094C136.859 271.561 136.952 271.971 137.139 272.326C137.335 272.671 137.587 272.937 137.895 273.124C138.212 273.311 138.548 273.404 138.903 273.404C139.267 273.404 139.607 273.315 139.925 273.138C140.242 272.951 140.494 272.69 140.681 272.354C140.867 272.009 140.961 271.598 140.961 271.122ZM144.345 271.094C144.345 270.31 144.499 269.615 144.807 269.008C145.124 268.401 145.549 267.935 146.081 267.608C146.622 267.281 147.224 267.118 147.887 267.118C148.465 267.118 148.969 267.235 149.399 267.468C149.837 267.701 150.187 267.995 150.449 268.35V267.244H152.423V275H150.449V273.866C150.197 274.23 149.847 274.533 149.399 274.776C148.96 275.009 148.451 275.126 147.873 275.126C147.219 275.126 146.622 274.958 146.081 274.622C145.549 274.286 145.124 273.815 144.807 273.208C144.499 272.592 144.345 271.887 144.345 271.094ZM150.449 271.122C150.449 270.646 150.355 270.24 150.169 269.904C149.982 269.559 149.73 269.297 149.413 269.12C149.095 268.933 148.755 268.84 148.391 268.84C148.027 268.84 147.691 268.929 147.383 269.106C147.075 269.283 146.823 269.545 146.627 269.89C146.44 270.226 146.347 270.627 146.347 271.094C146.347 271.561 146.44 271.971 146.627 272.326C146.823 272.671 147.075 272.937 147.383 273.124C147.7 273.311 148.036 273.404 148.391 273.404C148.755 273.404 149.095 273.315 149.413 273.138C149.73 272.951 149.982 272.69 150.169 272.354C150.355 272.009 150.449 271.598 150.449 271.122ZM159.633 268.448C159.885 268.037 160.212 267.715 160.613 267.482C161.024 267.249 161.49 267.132 162.013 267.132V269.19H161.495C160.879 269.19 160.412 269.335 160.095 269.624C159.787 269.913 159.633 270.417 159.633 271.136V275H157.673V267.244H159.633V268.448ZM162.829 271.094C162.829 270.31 162.983 269.615 163.291 269.008C163.609 268.401 164.033 267.935 164.565 267.608C165.107 267.281 165.709 267.118 166.371 267.118C166.95 267.118 167.454 267.235 167.883 267.468C168.322 267.701 168.672 267.995 168.933 268.35V267.244H170.907V275H168.933V273.866C168.681 274.23 168.331 274.533 167.883 274.776C167.445 275.009 166.936 275.126 166.357 275.126C165.704 275.126 165.107 274.958 164.565 274.622C164.033 274.286 163.609 273.815 163.291 273.208C162.983 272.592 162.829 271.887 162.829 271.094ZM168.933 271.122C168.933 270.646 168.84 270.24 168.653 269.904C168.467 269.559 168.215 269.297 167.897 269.12C167.58 268.933 167.239 268.84 166.875 268.84C166.511 268.84 166.175 268.929 165.867 269.106C165.559 269.283 165.307 269.545 165.111 269.89C164.925 270.226 164.831 270.627 164.831 271.094C164.831 271.561 164.925 271.971 165.111 272.326C165.307 272.671 165.559 272.937 165.867 273.124C166.185 273.311 166.521 273.404 166.875 273.404C167.239 273.404 167.58 273.315 167.897 273.138C168.215 272.951 168.467 272.69 168.653 272.354C168.84 272.009 168.933 271.598 168.933 271.122ZM182.453 267.132C183.405 267.132 184.171 267.426 184.749 268.014C185.337 268.593 185.631 269.405 185.631 270.45V275H183.671V270.716C183.671 270.109 183.517 269.647 183.209 269.33C182.901 269.003 182.481 268.84 181.949 268.84C181.417 268.84 180.993 269.003 180.675 269.33C180.367 269.647 180.213 270.109 180.213 270.716V275H178.253V270.716C178.253 270.109 178.099 269.647 177.791 269.33C177.483 269.003 177.063 268.84 176.531 268.84C175.99 268.84 175.561 269.003 175.243 269.33C174.935 269.647 174.781 270.109 174.781 270.716V275H172.821V267.244H174.781V268.182C175.033 267.855 175.355 267.599 175.747 267.412C176.149 267.225 176.587 267.132 177.063 267.132C177.67 267.132 178.211 267.263 178.687 267.524C179.163 267.776 179.532 268.14 179.793 268.616C180.045 268.168 180.409 267.809 180.885 267.538C181.371 267.267 181.893 267.132 182.453 267.132ZM189.451 268.364C189.703 268.009 190.049 267.715 190.487 267.482C190.935 267.239 191.444 267.118 192.013 267.118C192.676 267.118 193.273 267.281 193.805 267.608C194.347 267.935 194.771 268.401 195.079 269.008C195.397 269.605 195.555 270.301 195.555 271.094C195.555 271.887 195.397 272.592 195.079 273.208C194.771 273.815 194.347 274.286 193.805 274.622C193.273 274.958 192.676 275.126 192.013 275.126C191.444 275.126 190.94 275.009 190.501 274.776C190.072 274.543 189.722 274.249 189.451 273.894V278.696H187.491V267.244H189.451V268.364ZM193.553 271.094C193.553 270.627 193.455 270.226 193.259 269.89C193.073 269.545 192.821 269.283 192.503 269.106C192.195 268.929 191.859 268.84 191.495 268.84C191.141 268.84 190.805 268.933 190.487 269.12C190.179 269.297 189.927 269.559 189.731 269.904C189.545 270.249 189.451 270.655 189.451 271.122C189.451 271.589 189.545 271.995 189.731 272.34C189.927 272.685 190.179 272.951 190.487 273.138C190.805 273.315 191.141 273.404 191.495 273.404C191.859 273.404 192.195 273.311 192.503 273.124C192.821 272.937 193.073 272.671 193.259 272.326C193.455 271.981 193.553 271.57 193.553 271.094ZM200.424 275.126C199.677 275.126 199.005 274.963 198.408 274.636C197.81 274.3 197.339 273.829 196.994 273.222C196.658 272.615 196.49 271.915 196.49 271.122C196.49 270.329 196.662 269.629 197.008 269.022C197.362 268.415 197.843 267.949 198.45 267.622C199.056 267.286 199.733 267.118 200.48 267.118C201.226 267.118 201.903 267.286 202.51 267.622C203.116 267.949 203.592 268.415 203.938 269.022C204.292 269.629 204.47 270.329 204.47 271.122C204.47 271.915 204.288 272.615 203.924 273.222C203.569 273.829 203.084 274.3 202.468 274.636C201.861 274.963 201.18 275.126 200.424 275.126ZM200.424 273.418C200.778 273.418 201.11 273.334 201.418 273.166C201.735 272.989 201.987 272.727 202.174 272.382C202.36 272.037 202.454 271.617 202.454 271.122C202.454 270.385 202.258 269.82 201.866 269.428C201.483 269.027 201.012 268.826 200.452 268.826C199.892 268.826 199.42 269.027 199.038 269.428C198.664 269.82 198.478 270.385 198.478 271.122C198.478 271.859 198.66 272.429 199.024 272.83C199.397 273.222 199.864 273.418 200.424 273.418ZM206.901 266.32C206.556 266.32 206.267 266.213 206.033 265.998C205.809 265.774 205.697 265.499 205.697 265.172C205.697 264.845 205.809 264.575 206.033 264.36C206.267 264.136 206.556 264.024 206.901 264.024C207.247 264.024 207.531 264.136 207.755 264.36C207.989 264.575 208.105 264.845 208.105 265.172C208.105 265.499 207.989 265.774 207.755 265.998C207.531 266.213 207.247 266.32 206.901 266.32ZM207.867 267.244V275H205.907V267.244H207.867ZM214.102 267.132C215.026 267.132 215.773 267.426 216.342 268.014C216.911 268.593 217.196 269.405 217.196 270.45V275H215.236V270.716C215.236 270.1 215.082 269.629 214.774 269.302C214.466 268.966 214.046 268.798 213.514 268.798C212.973 268.798 212.543 268.966 212.226 269.302C211.918 269.629 211.764 270.1 211.764 270.716V275H209.804V267.244H211.764V268.21C212.025 267.874 212.357 267.613 212.758 267.426C213.169 267.23 213.617 267.132 214.102 267.132ZM221.342 268.854V272.606C221.342 272.867 221.402 273.059 221.524 273.18C221.654 273.292 221.869 273.348 222.168 273.348H223.078V275H221.846C220.194 275 219.368 274.197 219.368 272.592V268.854H218.444V267.244H219.368V265.326H221.342V267.244H223.078V268.854H221.342ZM227.021 265.06L226.797 271.822H225.145L224.907 265.06H227.021ZM226.013 275.098C225.659 275.098 225.365 274.991 225.131 274.776C224.907 274.552 224.795 274.277 224.795 273.95C224.795 273.623 224.907 273.353 225.131 273.138C225.365 272.914 225.659 272.802 226.013 272.802C226.359 272.802 226.643 272.914 226.867 273.138C227.091 273.353 227.203 273.623 227.203 273.95C227.203 274.277 227.091 274.552 226.867 274.776C226.643 274.991 226.359 275.098 226.013 275.098Z" fill="#121212"/>
<path d="M7.462 271.094C7.462 270.31 7.616 269.615 7.924 269.008C8.24133 268.401 8.67067 267.935 9.212 267.608C9.75333 267.281 10.3553 267.118 11.018 267.118C11.522 267.118 12.0027 267.23 12.46 267.454C12.9173 267.669 13.2813 267.958 13.552 268.322V264.64H15.54V275H13.552V273.852C13.3093 274.235 12.9687 274.543 12.53 274.776C12.0913 275.009 11.5827 275.126 11.004 275.126C10.3507 275.126 9.75333 274.958 9.212 274.622C8.67067 274.286 8.24133 273.815 7.924 273.208C7.616 272.592 7.462 271.887 7.462 271.094ZM13.566 271.122C13.566 270.646 13.4727 270.24 13.286 269.904C13.0993 269.559 12.8473 269.297 12.53 269.12C12.2127 268.933 11.872 268.84 11.508 268.84C11.144 268.84 10.808 268.929 10.5 269.106C10.192 269.283 9.94 269.545 9.744 269.89C9.55733 270.226 9.464 270.627 9.464 271.094C9.464 271.561 9.55733 271.971 9.744 272.326C9.94 272.671 10.192 272.937 10.5 273.124C10.8173 273.311 11.1533 273.404 11.508 273.404C11.872 273.404 12.2127 273.315 12.53 273.138C12.8473 272.951 13.0993 272.69 13.286 272.354C13.4727 272.009 13.566 271.598 13.566 271.122ZM24.6643 270.954C24.6643 271.234 24.6456 271.486 24.6083 271.71H18.9383C18.9849 272.27 19.1809 272.709 19.5263 273.026C19.8716 273.343 20.2963 273.502 20.8003 273.502C21.5283 273.502 22.0463 273.189 22.3543 272.564H24.4683C24.2443 273.311 23.8149 273.927 23.1803 274.412C22.5456 274.888 21.7663 275.126 20.8423 275.126C20.0956 275.126 19.4236 274.963 18.8263 274.636C18.2383 274.3 17.7763 273.829 17.4403 273.222C17.1136 272.615 16.9503 271.915 16.9503 271.122C16.9503 270.319 17.1136 269.615 17.4403 269.008C17.7669 268.401 18.2243 267.935 18.8123 267.608C19.4003 267.281 20.0769 267.118 20.8423 267.118C21.5796 267.118 22.2376 267.277 22.8163 267.594C23.4043 267.911 23.8569 268.364 24.1743 268.952C24.5009 269.531 24.6643 270.198 24.6643 270.954ZM22.6343 270.394C22.6249 269.89 22.4429 269.489 22.0883 269.19C21.7336 268.882 21.2996 268.728 20.7863 268.728C20.3009 268.728 19.8903 268.877 19.5543 269.176C19.2276 269.465 19.0269 269.871 18.9523 270.394H22.6343ZM29.0629 275.126C28.4282 275.126 27.8589 275.014 27.3549 274.79C26.8509 274.557 26.4496 274.244 26.1509 273.852C25.8616 273.46 25.7029 273.026 25.6749 272.55H27.6489C27.6862 272.849 27.8309 273.096 28.0829 273.292C28.3442 273.488 28.6662 273.586 29.0489 273.586C29.4222 273.586 29.7116 273.511 29.9169 273.362C30.1316 273.213 30.2389 273.021 30.2389 272.788C30.2389 272.536 30.1082 272.349 29.8469 272.228C29.5949 272.097 29.1889 271.957 28.6289 271.808C28.0502 271.668 27.5742 271.523 27.2009 271.374C26.8369 271.225 26.5196 270.996 26.2489 270.688C25.9876 270.38 25.8569 269.965 25.8569 269.442C25.8569 269.013 25.9782 268.621 26.2209 268.266C26.4729 267.911 26.8276 267.631 27.2849 267.426C27.7516 267.221 28.2976 267.118 28.9229 267.118C29.8469 267.118 30.5842 267.351 31.1349 267.818C31.6856 268.275 31.9889 268.896 32.0449 269.68H30.1689C30.1409 269.372 30.0102 269.129 29.7769 268.952C29.5529 268.765 29.2496 268.672 28.8669 268.672C28.5122 268.672 28.2369 268.737 28.0409 268.868C27.8542 268.999 27.7609 269.181 27.7609 269.414C27.7609 269.675 27.8916 269.876 28.1529 270.016C28.4142 270.147 28.8202 270.282 29.3709 270.422C29.9309 270.562 30.3929 270.707 30.7569 270.856C31.1209 271.005 31.4336 271.239 31.6949 271.556C31.9656 271.864 32.1056 272.275 32.1149 272.788C32.1149 273.236 31.9889 273.637 31.7369 273.992C31.4942 274.347 31.1396 274.627 30.6729 274.832C30.2156 275.028 29.6789 275.126 29.0629 275.126ZM40.9338 270.954C40.9338 271.234 40.9151 271.486 40.8778 271.71H35.2078C35.2545 272.27 35.4505 272.709 35.7958 273.026C36.1411 273.343 36.5658 273.502 37.0698 273.502C37.7978 273.502 38.3158 273.189 38.6238 272.564H40.7378C40.5138 273.311 40.0845 273.927 39.4498 274.412C38.8151 274.888 38.0358 275.126 37.1118 275.126C36.3651 275.126 35.6931 274.963 35.0958 274.636C34.5078 274.3 34.0458 273.829 33.7098 273.222C33.3831 272.615 33.2198 271.915 33.2198 271.122C33.2198 270.319 33.3831 269.615 33.7098 269.008C34.0365 268.401 34.4938 267.935 35.0818 267.608C35.6698 267.281 36.3465 267.118 37.1118 267.118C37.8491 267.118 38.5071 267.277 39.0858 267.594C39.6738 267.911 40.1265 268.364 40.4438 268.952C40.7705 269.531 40.9338 270.198 40.9338 270.954ZM38.9038 270.394C38.8945 269.89 38.7125 269.489 38.3578 269.19C38.0031 268.882 37.5691 268.728 37.0558 268.728C36.5705 268.728 36.1598 268.877 35.8238 269.176C35.4971 269.465 35.2965 269.871 35.2218 270.394H38.9038ZM46.6624 267.132C47.5864 267.132 48.3331 267.426 48.9024 268.014C49.4718 268.593 49.7564 269.405 49.7564 270.45V275H47.7964V270.716C47.7964 270.1 47.6424 269.629 47.3344 269.302C47.0264 268.966 46.6064 268.798 46.0744 268.798C45.5331 268.798 45.1038 268.966 44.7864 269.302C44.4784 269.629 44.3244 270.1 44.3244 270.716V275H42.3644V267.244H44.3244V268.21C44.5858 267.874 44.9171 267.613 45.3184 267.426C45.7291 267.23 46.1771 267.132 46.6624 267.132ZM54.8543 273.194L56.8143 267.244H58.9003L56.0303 275H53.6503L50.7943 267.244H52.8943L54.8543 273.194ZM63.4452 275.126C62.6985 275.126 62.0265 274.963 61.4292 274.636C60.8318 274.3 60.3605 273.829 60.0152 273.222C59.6792 272.615 59.5112 271.915 59.5112 271.122C59.5112 270.329 59.6838 269.629 60.0292 269.022C60.3838 268.415 60.8645 267.949 61.4712 267.622C62.0778 267.286 62.7545 267.118 63.5012 267.118C64.2478 267.118 64.9245 267.286 65.5312 267.622C66.1378 267.949 66.6138 268.415 66.9592 269.022C67.3138 269.629 67.4912 270.329 67.4912 271.122C67.4912 271.915 67.3092 272.615 66.9452 273.222C66.5905 273.829 66.1052 274.3 65.4892 274.636C64.8825 274.963 64.2012 275.126 63.4452 275.126ZM63.4452 273.418C63.7998 273.418 64.1312 273.334 64.4392 273.166C64.7565 272.989 65.0085 272.727 65.1952 272.382C65.3818 272.037 65.4752 271.617 65.4752 271.122C65.4752 270.385 65.2792 269.82 64.8872 269.428C64.5045 269.027 64.0332 268.826 63.4732 268.826C62.9132 268.826 62.4418 269.027 62.0592 269.428C61.6858 269.82 61.4992 270.385 61.4992 271.122C61.4992 271.859 61.6812 272.429 62.0452 272.83C62.4185 273.222 62.8852 273.418 63.4452 273.418ZM70.8889 264.64V275H68.9289V264.64H70.8889ZM76.0594 273.194L78.0194 267.244H80.1054L77.2354 275H74.8554L71.9994 267.244H74.0994L76.0594 273.194ZM82.2002 266.32C81.8549 266.32 81.5656 266.213 81.3322 265.998C81.1082 265.774 80.9962 265.499 80.9962 265.172C80.9962 264.845 81.1082 264.575 81.3322 264.36C81.5656 264.136 81.8549 264.024 82.2002 264.024C82.5456 264.024 82.8302 264.136 83.0542 264.36C83.2876 264.575 83.4042 264.845 83.4042 265.172C83.4042 265.499 83.2876 265.774 83.0542 265.998C82.8302 266.213 82.5456 266.32 82.2002 266.32ZM83.1662 267.244V275H81.2062V267.244H83.1662ZM94.7347 267.132C95.6867 267.132 96.4521 267.426 97.0307 268.014C97.6187 268.593 97.9127 269.405 97.9127 270.45V275H95.9527V270.716C95.9527 270.109 95.7987 269.647 95.4907 269.33C95.1827 269.003 94.7627 268.84 94.2307 268.84C93.6987 268.84 93.2741 269.003 92.9567 269.33C92.6487 269.647 92.4947 270.109 92.4947 270.716V275H90.5347V270.716C90.5347 270.109 90.3807 269.647 90.0727 269.33C89.7647 269.003 89.3447 268.84 88.8127 268.84C88.2714 268.84 87.8421 269.003 87.5247 269.33C87.2167 269.647 87.0627 270.109 87.0627 270.716V275H85.1027V267.244H87.0627V268.182C87.3147 267.855 87.6367 267.599 88.0287 267.412C88.4301 267.225 88.8687 267.132 89.3447 267.132C89.9514 267.132 90.4927 267.263 90.9687 267.524C91.4447 267.776 91.8134 268.14 92.0747 268.616C92.3267 268.168 92.6907 267.809 93.1667 267.538C93.6521 267.267 94.1747 267.132 94.7347 267.132ZM106.983 270.954C106.983 271.234 106.964 271.486 106.927 271.71H101.257C101.303 272.27 101.499 272.709 101.845 273.026C102.19 273.343 102.615 273.502 103.119 273.502C103.847 273.502 104.365 273.189 104.673 272.564H106.787C106.563 273.311 106.133 273.927 105.499 274.412C104.864 274.888 104.085 275.126 103.161 275.126C102.414 275.126 101.742 274.963 101.145 274.636C100.557 274.3 100.095 273.829 99.7586 273.222C99.432 272.615 99.2686 271.915 99.2686 271.122C99.2686 270.319 99.432 269.615 99.7586 269.008C100.085 268.401 100.543 267.935 101.131 267.608C101.719 267.281 102.395 267.118 103.161 267.118C103.898 267.118 104.556 267.277 105.135 267.594C105.723 267.911 106.175 268.364 106.493 268.952C106.819 269.531 106.983 270.198 106.983 270.954ZM104.953 270.394C104.943 269.89 104.761 269.489 104.407 269.19C104.052 268.882 103.618 268.728 103.105 268.728C102.619 268.728 102.209 268.877 101.873 269.176C101.546 269.465 101.345 269.871 101.271 270.394H104.953ZM112.711 267.132C113.635 267.132 114.382 267.426 114.951 268.014C115.521 268.593 115.805 269.405 115.805 270.45V275H113.845V270.716C113.845 270.1 113.691 269.629 113.383 269.302C113.075 268.966 112.655 268.798 112.123 268.798C111.582 268.798 111.153 268.966 110.835 269.302C110.527 269.629 110.373 270.1 110.373 270.716V275H108.413V267.244H110.373V268.21C110.635 267.874 110.966 267.613 111.367 267.426C111.778 267.23 112.226 267.132 112.711 267.132ZM119.951 268.854V272.606C119.951 272.867 120.012 273.059 120.133 273.18C120.264 273.292 120.478 273.348 120.777 273.348H121.687V275H120.455C118.803 275 117.977 274.197 117.977 272.592V268.854H117.053V267.244H117.977V265.326H119.951V267.244H121.687V268.854H119.951ZM126.541 275.126C125.794 275.126 125.122 274.963 124.525 274.636C123.928 274.3 123.456 273.829 123.111 273.222C122.775 272.615 122.607 271.915 122.607 271.122C122.607 270.329 122.78 269.629 123.125 269.022C123.48 268.415 123.96 267.949 124.567 267.622C125.174 267.286 125.85 267.118 126.597 267.118C127.344 267.118 128.02 267.286 128.627 267.622C129.234 267.949 129.71 268.415 130.055 269.022C130.41 269.629 130.587 270.329 130.587 271.122C130.587 271.915 130.405 272.615 130.041 273.222C129.686 273.829 129.201 274.3 128.585 274.636C127.978 274.963 127.297 275.126 126.541 275.126ZM126.541 273.418C126.896 273.418 127.227 273.334 127.535 273.166C127.852 272.989 128.104 272.727 128.291 272.382C128.478 272.037 128.571 271.617 128.571 271.122C128.571 270.385 128.375 269.82 127.983 269.428C127.6 269.027 127.129 268.826 126.569 268.826C126.009 268.826 125.538 269.027 125.155 269.428C124.782 269.82 124.595 270.385 124.595 271.122C124.595 271.859 124.777 272.429 125.141 272.83C125.514 273.222 125.981 273.418 126.541 273.418Z" fill="#499136"/>
</g>
<ellipse cx="744.97" cy="201.726" rx="201.36" ry="201.726" fill="#C6F0AC"/>
<path d="M578.287 256.938C581.368 257.909 584.225 259.255 586.826 260.91L577.213 265.913C576.483 266.295 575.799 266.76 575.175 267.297L575.037 267.254C570.276 265.754 565.178 265.699 560.386 267.097C555.594 268.495 551.325 271.282 548.117 275.106C544.91 278.93 542.908 283.62 542.366 288.582C541.823 293.544 542.764 298.555 545.07 302.982C547.376 307.409 550.942 311.052 555.319 313.452C559.695 315.852 564.685 316.901 569.658 316.465C574.63 316.028 579.361 314.128 583.253 311.003C587.145 307.878 590.023 303.669 591.523 298.908L591.567 298.771C592.362 298.567 593.128 298.274 593.867 297.889L603.48 292.885C603.345 295.965 602.81 299.077 601.839 302.158C595.855 321.15 575.61 331.694 556.619 325.71C537.627 319.727 527.083 299.481 533.067 280.49C539.051 261.498 559.296 250.954 578.287 256.938ZM571.428 273.741C570.506 276.667 569.427 279.589 568.664 282.562L566.222 283.834C565.382 284.271 564.637 284.87 564.028 285.595C563.419 286.321 562.96 287.159 562.675 288.063C562.39 288.966 562.286 289.917 562.369 290.86C562.452 291.804 562.72 292.722 563.157 293.562C563.595 294.402 564.193 295.147 564.919 295.756C565.645 296.364 566.483 296.824 567.386 297.109C568.29 297.393 569.24 297.497 570.184 297.415C571.127 297.332 572.045 297.064 572.885 296.627L575.327 295.355C578.2 296.434 581.209 297.223 584.139 298.146C582.838 301.329 580.654 304.073 577.844 306.054C575.035 308.036 571.717 309.173 568.283 309.331C564.848 309.489 561.44 308.662 558.461 306.947C555.481 305.231 553.054 302.7 551.466 299.651C549.878 296.601 549.195 293.161 549.498 289.737C549.8 286.312 551.076 283.045 553.174 280.322C555.273 277.598 558.106 275.532 561.34 274.366C564.574 273.2 568.075 272.983 571.428 273.741ZM600.515 264.421C601.06 264.879 601.458 265.489 601.658 266.172C601.857 266.856 601.85 267.584 601.636 268.264L599.654 274.556L605.943 276.538C606.623 276.752 607.224 277.163 607.67 277.719C608.116 278.275 608.388 278.951 608.45 279.661C608.512 280.372 608.363 281.084 608.02 281.709C607.677 282.335 607.157 282.844 606.524 283.174L590.534 291.49C589.686 291.932 588.698 292.019 587.786 291.732L579.488 289.117L571.221 293.426C570.372 293.868 569.383 293.955 568.471 293.667C567.558 293.38 566.797 292.742 566.355 291.893C565.913 291.044 565.827 290.055 566.114 289.143C566.402 288.23 567.04 287.469 567.888 287.027L576.157 282.727L578.772 274.426C578.915 273.973 579.144 273.554 579.449 273.19C579.753 272.827 580.127 272.528 580.547 272.309L596.532 263.983C597.165 263.653 597.881 263.519 598.59 263.596C599.299 263.673 599.969 263.959 600.516 264.418" fill="#850014"/>
<path d="M576.991 256.196C580.072 257.166 582.929 258.513 585.53 260.167L575.917 265.171C575.187 265.553 574.503 266.017 573.878 266.555L573.74 266.512C568.98 265.012 563.881 264.957 559.09 266.355C554.298 267.752 550.028 270.54 546.821 274.364C543.613 278.188 541.611 282.878 541.069 287.84C540.527 292.801 541.468 297.813 543.773 302.24C546.079 306.666 549.646 310.31 554.022 312.71C558.399 315.11 563.389 316.158 568.361 315.722C573.333 315.286 578.065 313.386 581.957 310.261C585.849 307.136 588.727 302.927 590.227 298.166L590.27 298.028C591.065 297.825 591.832 297.531 592.57 297.147L602.183 292.143C602.048 295.223 601.513 298.335 600.543 301.416C594.559 320.408 574.314 330.952 555.322 324.968C536.331 318.984 525.786 298.739 531.77 279.748C537.754 260.756 557.999 250.212 576.991 256.196ZM570.132 272.999C569.21 275.925 568.13 278.847 567.367 281.82L564.925 283.091C564.085 283.529 563.34 284.128 562.731 284.853C562.123 285.579 561.663 286.417 561.378 287.321C561.094 288.224 560.99 289.174 561.072 290.118C561.155 291.061 561.423 291.979 561.86 292.819C562.298 293.659 562.897 294.405 563.622 295.014C564.348 295.622 565.186 296.082 566.09 296.367C566.993 296.651 567.943 296.755 568.887 296.672C569.83 296.59 570.748 296.322 571.588 295.884L574.03 294.613C576.903 295.692 579.913 296.481 582.843 297.404C581.541 300.587 579.357 303.33 576.548 305.312C573.738 307.294 570.421 308.431 566.986 308.589C563.552 308.747 560.144 307.92 557.164 306.204C554.184 304.489 551.757 301.958 550.169 298.908C548.581 295.859 547.898 292.419 548.201 288.995C548.504 285.57 549.779 282.303 551.878 279.58C553.976 276.856 556.809 274.79 560.044 273.624C563.278 272.458 566.778 272.241 570.132 272.999ZM599.218 263.679C599.764 264.137 600.161 264.746 600.361 265.43C600.561 266.114 600.553 266.842 600.34 267.521L598.357 273.814L604.646 275.796C605.326 276.01 605.927 276.421 606.374 276.977C606.82 277.533 607.091 278.209 607.153 278.919C607.216 279.629 607.066 280.342 606.723 280.967C606.381 281.592 605.86 282.102 605.228 282.431L589.238 290.748C588.39 291.19 587.401 291.277 586.489 290.989L578.192 288.375L569.924 292.684C569.076 293.126 568.086 293.213 567.174 292.925C566.261 292.638 565.501 291.999 565.059 291.151C564.617 290.302 564.53 289.313 564.817 288.4C565.105 287.488 565.743 286.727 566.592 286.285L574.86 281.984L577.476 273.684C577.618 273.231 577.848 272.812 578.152 272.448C578.457 272.085 578.83 271.785 579.25 271.566L595.236 263.241C595.868 262.911 596.584 262.777 597.293 262.854C598.002 262.931 598.673 263.217 599.219 263.676" fill="#DE0530"/>
<path d="M919.725 40.502L920.135 40.5397L920.551 40.6295L920.757 40.6904L920.967 40.7702L921.343 40.9522C921.601 41.0952 921.839 41.2691 922.054 41.4702L922.38 41.8193L923.168 42.7356C929.43 49.8097 938.013 54.4138 947.37 55.718L948.593 55.8703C949.395 55.9568 950.145 56.3098 950.722 56.8728C951.299 57.4357 951.671 58.1761 951.778 58.9753C952.609 65.1969 952.181 71.5221 950.52 77.5751C948.858 83.6281 945.997 89.2853 942.106 94.2106C938.215 99.1359 933.373 103.229 927.869 106.246C922.365 109.263 916.31 111.143 910.065 111.774C909.456 111.836 908.841 111.741 908.278 111.499C902.513 109.015 897.307 105.397 892.968 100.862C888.628 96.3256 885.245 90.9638 883.02 85.0946C880.794 79.2254 879.77 72.9686 880.011 66.6961C880.251 60.4236 881.749 54.2634 884.417 48.5815C884.76 47.8516 885.337 47.2577 886.058 46.895C886.778 46.5322 887.599 46.4216 888.389 46.5808C898.067 48.5302 908.124 46.7971 916.591 41.7208L917.652 41.0642L918.035 40.8499C918.3 40.723 918.58 40.6291 918.869 40.5704L919.286 40.5108C919.431 40.4989 919.58 40.4964 919.725 40.502Z" fill="#0076AC"/>
<path d="M917.537 37.5167L917.947 37.5544L918.363 37.6441L918.569 37.705L918.779 37.7848L919.155 37.9668C919.413 38.1098 919.652 38.2838 919.867 38.4848L920.192 38.8339L920.98 39.7502C927.242 46.8243 935.825 51.4285 945.182 52.7327L946.406 52.885C947.207 52.9715 947.957 53.3245 948.534 53.8874C949.112 54.4504 949.483 55.1907 949.59 55.99C950.421 62.2116 949.993 68.5368 948.332 74.5897C946.67 80.6427 943.809 86.2999 939.918 91.2252C936.027 96.1505 931.185 100.243 925.681 103.261C920.177 106.278 914.123 108.158 907.878 108.789C907.268 108.851 906.653 108.756 906.09 108.513C900.325 106.029 895.119 102.412 890.78 97.8762C886.441 93.3403 883.058 87.9784 880.832 82.1092C878.606 76.24 877.583 69.9833 877.823 63.7108C878.063 57.4383 879.561 51.278 882.229 45.5961C882.572 44.8662 883.15 44.2724 883.87 43.9096C884.59 43.5469 885.411 43.4362 886.201 43.5954C895.879 45.5449 905.937 43.8118 914.404 38.7355L915.464 38.0789L915.847 37.8646C916.112 37.7377 916.393 37.6438 916.681 37.585L917.098 37.5255C917.243 37.5136 917.392 37.511 917.537 37.5167Z" fill="#46C4FF"/>
<g clip-path="url(#clip0_1963_1737)">
<path d="M806.885 216.773L787.915 194.475C816.928 173.87 836.727 157.277 849.296 135.796C852.47 130.369 860.232 129.215 864.296 134.012C866.364 136.453 866.894 139.845 865.557 142.752C856.166 163.159 836.138 197.984 806.885 216.773Z" fill="#499136"/>
<path d="M851.495 141.358C850.795 137.854 847.742 135.511 844.676 136.123C841.61 136.736 839.693 140.073 840.393 143.576C841.094 147.08 844.147 149.423 847.212 148.811C850.278 148.198 852.195 144.862 851.495 141.358Z" fill="#499136"/>
<path d="M670.103 285.228C655.109 255.136 672.374 202.473 682.37 178.829H672.829C660.795 195.34 654.516 206.191 646.022 234.716C644.036 241.382 641.024 262.122 647.385 275.556C652.474 286.303 664.65 286.482 670.103 285.228Z" fill="#499136"/>
<path d="M793.294 300.508C828.011 281.795 809.022 211.767 795.055 178.829H737.839H681.063C666.954 212.113 647.769 282.608 682.788 300.515C683.339 300.796 683.704 301.337 683.704 301.925V330.09C683.704 333.531 686.674 336.321 690.337 336.321H701.958C707.347 336.321 712.716 333.969 714.599 329.225C715.944 325.838 716.625 322.21 717.066 317.764C717.159 316.834 718.084 316.174 719.059 316.357L720.997 316.721C731.616 318.716 742.548 318.738 753.176 316.785L755.552 316.348C756.523 316.169 757.442 316.827 757.552 317.751C758.08 322.176 759.164 325.95 761.161 329.719C763.49 334.115 768.645 336.321 773.873 336.321H785.781C789.445 336.321 792.414 333.531 792.414 330.09V301.9C792.414 301.325 792.763 300.794 793.294 300.508Z" fill="#61D243"/>
<path d="M737.962 319.743C772.076 319.743 799.731 288.755 799.731 250.53C799.731 212.304 772.076 181.316 737.962 181.316C703.848 181.316 676.193 212.304 676.193 250.53C676.193 288.755 703.848 319.743 737.962 319.743Z" fill="#ABF47D"/>
<g filter="url(#filter2_d_1963_1737)">
<path fill-rule="evenodd" clip-rule="evenodd" d="M662.035 132.385C662.035 134.82 662.586 137.169 663.609 139.382C656.453 144.535 652.368 150.808 652.368 158.092C652.368 179.033 691.322 199.866 739.374 199.866C787.426 199.866 824.446 180.319 824.446 159.377C825.071 152.122 821.44 145.736 814.623 140.413C815.976 137.905 816.713 135.202 816.713 132.385C816.713 119.252 800.698 108.605 780.944 108.605C766.259 108.605 753.64 114.489 748.131 122.904C745.251 122.798 742.33 122.744 739.374 122.744C736.415 122.744 733.491 122.793 730.608 122.89C725.095 114.482 712.482 108.605 697.804 108.605C678.05 108.605 662.035 119.252 662.035 132.385Z" fill="#61D243"/>
<g filter="url(#filter3_d_1963_1737)">
<path d="M801.95 153.255C787.567 157.636 760.238 158.412 739.244 153.742C720.912 156.7 687.365 158.285 678.153 153.255C679.747 213.406 797.479 216.272 801.928 156.188C801.999 155.224 802.112 154.229 801.95 153.255Z" fill="#ABF47D"/>
</g>
<path d="M774.846 156.629C764.227 156.628 755.038 156.079 743.021 154.735C740.369 154.439 737.643 154.393 734.97 154.615C719.295 155.912 710.235 156.735 692.618 156.629C686.29 156.241 681.844 155.386 677.829 153.982C726.742 202.298 753.938 201.395 802.033 153.903C793.971 156.221 784.162 156.629 774.846 156.629Z" fill="#2B5220"/>
<path fill-rule="evenodd" clip-rule="evenodd" d="M768.718 181.074C748.179 168.833 731.198 169.164 711.144 181.074C731.683 193.043 748.664 192.719 768.718 181.074Z" fill="#EB8884"/>
<path d="M809.176 151.034C800.314 155.918 787.15 156.629 774.846 156.629C764.227 156.628 755.038 156.079 743.021 154.735C740.369 154.439 737.643 154.393 734.97 154.615C719.295 155.913 710.235 156.735 692.618 156.629C682.684 156.021 677.388 154.259 671.117 151.034" stroke="#499036" stroke-width="3" stroke-linecap="round"/>
<path d="M759.338 133.78C779.192 123.444 785.176 123.592 804.621 133.78" stroke="#417932" stroke-width="5" stroke-linecap="round"/>
<path d="M723.112 133.779C703.257 123.444 697.274 123.592 677.829 133.779" stroke="#417932" stroke-width="5" stroke-linecap="round"/>
<path d="M807.401 103.541C796.033 100.219 787.308 96.4862 778.234 89.1942C773.373 85.2874 765.79 87.803 764.604 94.2025C763.729 98.9213 766.939 103.31 771.478 103.603L807.01 105.891C808.295 105.974 808.637 103.902 807.401 103.541Z" fill="#333333"/>
<path d="M670.704 103.177C682.128 100.054 690.917 96.4743 700.117 89.3421C705.046 85.5209 712.585 88.1682 713.658 94.587C714.451 99.32 711.165 103.652 706.621 103.865L671.054 105.533C669.767 105.593 669.462 103.517 670.704 103.177Z" fill="#333333"/>
<path d="M819.144 164.737C820.119 164.737 820.909 163.995 820.909 163.079C820.909 162.164 820.119 161.422 819.144 161.422C818.17 161.422 817.38 162.164 817.38 163.079C817.38 163.995 818.17 164.737 819.144 164.737Z" fill="#499136"/>
<path d="M810.32 171.368C811.295 171.368 812.085 170.626 812.085 169.711C812.085 168.795 811.295 168.053 810.32 168.053C809.346 168.053 808.555 168.795 808.555 169.711C808.555 170.626 809.346 171.368 810.32 171.368Z" fill="#499136"/>
<path d="M808.555 163.079C809.53 163.079 810.32 162.337 810.32 161.421C810.32 160.506 809.53 159.764 808.555 159.764C807.58 159.764 806.79 160.506 806.79 161.421C806.79 162.337 807.58 163.079 808.555 163.079Z" fill="#499136"/>
<path d="M674.428 164.737C675.403 164.737 676.193 163.995 676.193 163.079C676.193 162.164 675.403 161.422 674.428 161.422C673.454 161.422 672.664 162.164 672.664 163.079C672.664 163.995 673.454 164.737 674.428 164.737Z" fill="#499136"/>
<path d="M665.604 171.368C666.579 171.368 667.369 170.626 667.369 169.711C667.369 168.795 666.579 168.053 665.604 168.053C664.63 168.053 663.839 168.795 663.839 169.711C663.839 170.626 664.63 171.368 665.604 171.368Z" fill="#499136"/>
<path d="M663.839 163.079C664.814 163.079 665.604 162.337 665.604 161.421C665.604 160.506 664.814 159.764 663.839 159.764C662.865 159.764 662.074 160.506 662.074 161.421C662.074 162.337 662.865 163.079 663.839 163.079Z" fill="#499136"/>
</g>
<path d="M783.716 330.976C783.716 329.832 784.704 328.903 785.922 328.903C787.14 328.903 788.128 329.832 788.128 330.976V335.796C786.757 336.335 785.767 336.443 783.716 336.364V330.976Z" fill="#499136"/>
<path d="M774.892 330.976C774.892 329.832 775.88 328.903 777.098 328.903C778.316 328.903 779.304 329.832 779.304 330.976V336.364H774.892V330.976Z" fill="#499136"/>
<path d="M691.945 330.976C691.945 329.832 690.957 328.903 689.739 328.903C688.521 328.903 687.533 329.832 687.533 330.976V335.708C688.903 336.247 689.894 336.445 691.945 336.365V330.976Z" fill="#499136"/>
<path d="M700.769 330.976C700.769 329.832 699.781 328.903 698.563 328.903C697.344 328.903 696.357 329.832 696.357 330.976V336.364H700.769V330.976Z" fill="#499136"/>
<path d="M766.067 330.976C766.067 329.832 767.056 328.903 768.273 328.903C769.492 328.903 770.48 329.832 770.48 330.976V336C768.717 335.628 767.742 335.279 766.067 334.466V330.976Z" fill="#499136"/>
<path d="M709.593 330.976C709.593 329.832 708.605 328.903 707.387 328.903C706.168 328.903 705.181 329.832 705.181 330.976V335.949C706.943 335.578 707.919 335.199 709.593 334.386V330.976Z" fill="#499136"/>
<path d="M793.114 281.612C783.848 300.677 771.053 317.669 737.298 319.742C709.725 318.499 692.518 301.92 682.812 281.612C726.531 315.435 749.848 315.15 793.114 281.612Z" fill="#9EE075"/>
<path d="M766.2 330.518V334.248C763.091 332.846 761.698 331.136 760.022 327.203C758.576 323.395 757.989 321.236 757.375 317.256C757.125 316.782 756.927 316.605 756.493 316.427C782.832 304.601 792.325 291.574 799.29 260.061C808.37 260.375 810.699 256.213 812.527 245.142C813.924 264.309 812.603 273.047 807.232 285.758C803.409 292.475 800.905 295.992 793.554 300.263C792.734 300.8 792.443 301.252 792.231 302.336V318.914C784.036 324.464 779.114 327.083 768.405 328.86C767.235 328.961 766.757 329.301 766.2 330.518Z" fill="#5EBE45" stroke="#5EBE45" stroke-width="0.4"/>
<path d="M709.804 330.518V334.248C712.912 332.846 714.305 331.136 715.981 327.203C717.427 323.395 718.015 321.236 718.628 317.256C718.878 316.782 719.076 316.605 719.511 316.427C693.17 304.601 683.678 291.574 676.712 260.061C667.631 260.375 665.303 256.213 663.475 245.142C662.077 264.309 663.398 273.047 668.77 285.758C672.593 292.475 675.096 295.992 682.447 300.263C683.268 300.8 683.559 301.252 683.771 302.336V318.914C691.967 324.464 696.889 327.083 707.598 328.86C708.768 328.961 709.246 329.301 709.804 330.518Z" fill="#5EBE45" stroke="#5EBE45" stroke-width="0.4"/>
<path d="M662.745 263.377C663.679 272.286 664.857 276.773 668.251 285.343C658.545 286.587 649.721 283.271 646.191 272.08C655.873 273.15 657.987 270.244 662.745 263.377Z" fill="#417932" stroke="#417932" stroke-width="0.4"/>
<path d="M788.26 274.982C789.234 274.982 790.025 274.239 790.025 273.324C790.025 272.408 789.234 271.666 788.26 271.666C787.285 271.666 786.495 272.408 786.495 273.324C786.495 274.239 787.285 274.982 788.26 274.982Z" fill="#9EE075"/>
<path d="M685.017 274.982C685.992 274.982 686.782 274.239 686.782 273.324C686.782 272.408 685.992 271.666 685.017 271.666C684.043 271.666 683.253 272.408 683.253 273.324C683.253 274.239 684.043 274.982 685.017 274.982Z" fill="#9EE075"/>
<path d="M779.436 281.613C780.41 281.613 781.2 280.87 781.2 279.955C781.2 279.039 780.41 278.297 779.436 278.297C778.461 278.297 777.671 279.039 777.671 279.955C777.671 280.87 778.461 281.613 779.436 281.613Z" fill="#9EE075"/>
<path d="M692.959 281.613C693.934 281.613 694.724 280.87 694.724 279.955C694.724 279.039 693.934 278.297 692.959 278.297C691.984 278.297 691.194 279.039 691.194 279.955C691.194 280.87 691.984 281.613 692.959 281.613Z" fill="#9EE075"/>
<path d="M777.67 273.323C778.645 273.323 779.436 272.581 779.436 271.666C779.436 270.75 778.645 270.008 777.67 270.008C776.696 270.008 775.906 270.75 775.906 271.666C775.906 272.581 776.696 273.323 777.67 273.323Z" fill="#9EE075"/>
<path d="M692.959 274.153C693.934 274.153 694.724 273.411 694.724 272.495C694.724 271.579 693.934 270.837 692.959 270.837C691.984 270.837 691.194 271.579 691.194 272.495C691.194 273.411 691.984 274.153 692.959 274.153Z" fill="#9EE075"/>
<path d="M840.98 125.685C838.527 127.345 837.556 128.284 838.789 129.244C840.021 130.204 841.124 128.294 842.884 127.251C844.644 126.208 849.543 124.256 852 124.258C854.458 124.26 855.374 124.883 855.792 124.198C856.534 122.982 856.861 122.054 852.328 122.022C847.796 121.989 843.432 124.024 840.98 125.685Z" fill="#D9D9D9"/>
<path d="M877.489 147.203C878.366 144.374 878.538 143.035 876.976 143.054C875.414 143.074 875.746 145.256 875.023 147.169C874.3 149.083 871.694 153.668 869.775 155.202C867.855 156.736 866.75 156.821 866.851 157.618C867.031 159.03 867.355 159.959 870.915 157.153C874.475 154.346 876.611 150.032 877.489 147.203Z" fill="#D9D9D9"/>
<path d="M838.877 120.96C836.425 122.62 835.454 123.559 836.686 124.519C837.918 125.48 839.021 123.569 840.781 122.526C842.541 121.484 847.441 119.531 849.898 119.533C852.355 119.535 853.271 120.158 853.689 119.473C854.432 118.258 854.759 117.33 850.226 117.297C845.693 117.265 841.33 119.3 838.877 120.96Z" fill="#D9D9D9"/>
<path d="M882.082 149.578C882.96 146.749 883.132 145.41 881.57 145.429C880.007 145.449 880.34 147.631 879.617 149.544C878.894 151.458 876.288 156.043 874.368 157.577C872.449 159.111 871.344 159.196 871.445 159.993C871.625 161.405 871.949 162.334 875.509 159.528C879.069 156.721 881.204 152.407 882.082 149.578Z" fill="#D9D9D9"/>
</g>
<path d="M883.674 382.194C881.859 381.562 880.53 380.376 879.687 378.634C878.845 376.893 878.739 375.112 879.369 373.294L892.575 377.889C891.943 379.705 890.756 381.035 889.014 381.88C887.271 382.724 885.492 382.829 883.674 382.194ZM873.916 367.694L876.213 361.091L902.625 370.283L900.327 376.886L873.916 367.694ZM878.188 358.077C875.176 354.5 873.216 350.425 872.308 345.853C871.4 341.28 871.722 336.766 873.275 332.31C875.669 325.432 880.111 320.424 886.602 317.286C893.093 314.149 899.776 313.775 906.653 316.166C913.53 318.556 918.538 322.999 921.68 329.494C924.821 335.988 925.193 342.671 922.797 349.543C921.246 354 918.696 357.74 915.147 360.761C911.599 363.783 907.532 365.76 902.948 366.694L878.188 358.077Z" fill="#F89701"/>
<path d="M881.597 380.415C879.781 379.783 878.452 378.596 877.61 376.855C876.767 375.113 876.661 373.333 877.292 371.514L890.498 376.11C889.866 377.926 888.679 379.256 886.936 380.101C885.194 380.945 883.414 381.05 881.597 380.415ZM871.838 365.915L874.136 359.312L900.547 368.504L898.249 375.106L871.838 365.915ZM876.11 356.298C873.099 352.721 871.139 348.646 870.23 344.073C869.322 339.501 869.644 334.986 871.198 330.53C873.591 323.652 878.034 318.644 884.524 315.507C891.015 312.369 897.699 311.996 904.575 314.386C911.452 316.777 916.461 321.22 919.602 327.714C922.743 334.209 923.116 340.892 920.719 347.764C919.168 352.221 916.618 355.96 913.07 358.982C909.521 362.003 905.455 363.981 900.871 364.915L876.11 356.298Z" fill="#FEE333"/>
<defs>
<filter id="filter0_d_1963_1737" x="1.60986" y="139.3" width="293.377" height="62.3604" filterUnits="userSpaceOnUse" color-interpolation-filters="sRGB">
<feFlood flood-opacity="0" result="BackgroundImageFix"/>
<feColorMatrix in="SourceAlpha" type="matrix" values="0 0 0 0 0 0 0 0 0 0 0 0 0 0 0 0 0 0 127 0" result="hardAlpha"/>
<feOffset dy="4"/>
<feGaussianBlur stdDeviation="3.5"/>
<feComposite in2="hardAlpha" operator="out"/>
<feColorMatrix type="matrix" values="0 0 0 0 0 0 0 0 0 0 0 0 0 0 0 0 0 0 0.2 0"/>
<feBlend mode="normal" in2="BackgroundImageFix" result="effect1_dropShadow_1963_1737"/>
<feBlend mode="normal" in="SourceGraphic" in2="effect1_dropShadow_1963_1737" result="shape"/>
</filter>
<filter id="filter1_d_1963_1737" x="0.462036" y="239.632" width="286.504" height="50.0645" filterUnits="userSpaceOnUse" color-interpolation-filters="sRGB">
<feFlood flood-opacity="0" result="BackgroundImageFix"/>
<feColorMatrix in="SourceAlpha" type="matrix" values="0 0 0 0 0 0 0 0 0 0 0 0 0 0 0 0 0 0 127 0" result="hardAlpha"/>
<feOffset dy="4"/>
<feGaussianBlur stdDeviation="3.5"/>
<feComposite in2="hardAlpha" operator="out"/>
<feColorMatrix type="matrix" values="0 0 0 0 0 0 0 0 0 0 0 0 0 0 0 0 0 0 0.2 0"/>
<feBlend mode="normal" in2="BackgroundImageFix" result="effect1_dropShadow_1963_1737"/>
<feBlend mode="normal" in="SourceGraphic" in2="effect1_dropShadow_1963_1737" result="shape"/>
</filter>
<filter id="filter2_d_1963_1737" x="642.368" y="79.333" width="192.147" height="132.533" filterUnits="userSpaceOnUse" color-interpolation-filters="sRGB">
<feFlood flood-opacity="0" result="BackgroundImageFix"/>
<feColorMatrix in="SourceAlpha" type="matrix" values="0 0 0 0 0 0 0 0 0 0 0 0 0 0 0 0 0 0 127 0" result="hardAlpha"/>
<feOffset dy="2"/>
<feGaussianBlur stdDeviation="5"/>
<feComposite in2="hardAlpha" operator="out"/>
<feColorMatrix type="matrix" values="0 0 0 0 0 0 0 0 0 0 0 0 0 0 0 0 0 0 0.05 0"/>
<feBlend mode="normal" in2="BackgroundImageFix" result="effect1_dropShadow_1963_1737"/>
<feBlend mode="normal" in="SourceGraphic" in2="effect1_dropShadow_1963_1737" result="shape"/>
</filter>
<filter id="filter3_d_1963_1737" x="668.153" y="145.255" width="143.88" height="66.5811" filterUnits="userSpaceOnUse" color-interpolation-filters="sRGB">
<feFlood flood-opacity="0" result="BackgroundImageFix"/>
<feColorMatrix in="SourceAlpha" type="matrix" values="0 0 0 0 0 0 0 0 0 0 0 0 0 0 0 0 0 0 127 0" result="hardAlpha"/>
<feOffset dy="2"/>
<feGaussianBlur stdDeviation="5"/>
<feComposite in2="hardAlpha" operator="out"/>
<feColorMatrix type="matrix" values="0 0 0 0 0 0 0 0 0 0 0 0 0 0 0 0 0 0 0.05 0"/>
<feBlend mode="normal" in2="BackgroundImageFix" result="effect1_dropShadow_1963_1737"/>
<feBlend mode="normal" in="SourceGraphic" in2="effect1_dropShadow_1963_1737" result="shape"/>
</filter>
<clipPath id="clip0_1963_1737">
<rect width="261.022" height="264.282" fill="white" transform="translate(643.544 72.3398)"/>
</clipPath>
</defs>
</svg>
