<svg width="1039" height="550" viewBox="0 0 1039 550" fill="none" xmlns="http://www.w3.org/2000/svg">
<circle cx="727" cy="275" r="275" fill="#C6F0AC"/>
<g filter="url(#filter0_d_1165_1066)">
<path d="M28.4 192H4.9V129.3H28.4C34.6667 129.3 39.7 129.833 43.5 130.9C47.3 131.967 50.3333 133.7 52.6 136.1C54.8667 138.5 56.5333 141.7 57.6 145.7C58.6667 149.633 59.2 154.6 59.2 160.6C59.2 171.467 56.7667 179.433 51.9 184.5C47.0333 189.5 39.2 192 28.4 192ZM40 160.6C40 154.733 39.2667 150.8 37.8 148.8C36.4 146.733 33.2667 145.7 28.4 145.7H23.4V175.1H28.4C33.2667 175.1 36.4 174.1 37.8 172.1C39.2667 170.1 40 166.267 40 160.6ZM123.654 160.6C123.654 172.067 121.254 180.367 116.454 185.5C111.721 190.567 104.054 193.1 93.4539 193.1C82.4539 193.1 74.6872 190.667 70.1539 185.8C65.6206 180.933 63.3539 172.533 63.3539 160.6C63.3539 149.267 65.7206 141.067 70.4539 136C75.2539 130.867 82.9206 128.3 93.4539 128.3C104.454 128.3 112.221 130.733 116.754 135.6C121.354 140.4 123.654 148.733 123.654 160.6ZM82.1539 160.6C82.1539 166.533 82.8539 170.533 84.2539 172.6C85.7206 174.667 88.7872 175.7 93.4539 175.7C98.1872 175.7 101.254 174.7 102.654 172.7C104.121 170.633 104.854 166.6 104.854 160.6C104.854 154.467 104.121 150.367 102.654 148.3C101.187 146.167 98.1206 145.1 93.4539 145.1C88.7872 145.1 85.7206 146.167 84.2539 148.3C82.8539 150.367 82.1539 154.467 82.1539 160.6ZM173.407 175.3V192H129.607V129.3H172.507V145.6H148.107V152.7H168.807V167.9H148.107V175.3H173.407ZM19.5 262H0.4L22.9 199.3H42.2L64 262H45L42.4 253.3H22L19.5 262ZM32.1 217.9C31.4333 220.5 30.7 223.2 29.9 226C29.1667 228.733 28.4667 231.2 27.8 233.4L26.2 238.9H38.2L36.6 233.4C33.6 223.067 32.1 217.9 32.1 217.9ZM98.8633 238.9H90.0633V225H115.763V259.2C113.23 260.267 109.763 261.2 105.363 262C101.03 262.733 96.7633 263.1 92.5633 263.1C81.6299 263.1 73.9633 260.6 69.5633 255.6C65.1633 250.533 62.9633 242.2 62.9633 230.6C62.9633 219.4 65.4633 211.233 70.4633 206.1C75.4633 200.9 83.4299 198.3 94.3633 198.3C98.2299 198.3 101.697 198.4 104.763 198.6C107.83 198.8 110.363 199.067 112.363 199.4V215.6C109.563 215.467 106.663 215.367 103.663 215.3C100.663 215.167 97.6299 215.1 94.5633 215.1C89.4299 215.1 86.0633 216.2 84.4633 218.4C82.9299 220.533 82.1633 224.6 82.1633 230.6C82.1633 236.8 82.8966 241.067 84.3633 243.4C85.8299 245.667 88.8299 246.8 93.3633 246.8C94.23 246.8 95.13 246.767 96.0633 246.7C96.9966 246.633 97.93 246.567 98.8633 246.5V238.9ZM180.783 230.6C180.783 242.067 178.383 250.367 173.583 255.5C168.849 260.567 161.183 263.1 150.583 263.1C139.583 263.1 131.816 260.667 127.283 255.8C122.749 250.933 120.483 242.533 120.483 230.6C120.483 219.267 122.849 211.067 127.583 206C132.383 200.867 140.049 198.3 150.583 198.3C161.583 198.3 169.349 200.733 173.883 205.6C178.483 210.4 180.783 218.733 180.783 230.6ZM139.283 230.6C139.283 236.533 139.983 240.533 141.383 242.6C142.849 244.667 145.916 245.7 150.583 245.7C155.316 245.7 158.383 244.7 159.783 242.7C161.249 240.633 161.983 236.6 161.983 230.6C161.983 224.467 161.249 220.367 159.783 218.3C158.316 216.167 155.249 215.1 150.583 215.1C145.916 215.1 142.849 216.167 141.383 218.3C139.983 220.367 139.283 224.467 139.283 230.6ZM205.236 242.4V262H186.736V199.3H210.236C220.303 199.3 227.403 201 231.536 204.4C235.736 207.733 237.836 213.367 237.836 221.3C237.836 226.033 236.903 229.933 235.036 233C233.236 236.067 230.469 238.367 226.736 239.9L240.436 262H219.236L208.736 242.4H205.236ZM218.936 221.6C218.936 219.533 218.369 218.067 217.236 217.2C216.103 216.333 214.069 215.9 211.136 215.9H205.236V228.2H211.136C214.069 228.2 216.103 227.7 217.236 226.7C218.369 225.7 218.936 224 218.936 221.6ZM259.637 262H240.537L263.037 199.3H282.337L304.137 262H285.137L282.537 253.3H262.137L259.637 262ZM272.237 217.9C271.57 220.5 270.837 223.2 270.037 226C269.303 228.733 268.603 231.2 267.937 233.4L266.337 238.9H278.337L276.737 233.4C273.737 223.067 272.237 217.9 272.237 217.9Z" fill="#121212"/>
</g>
<g filter="url(#filter1_d_1165_1066)">
<path d="M7.776 303.27V304.572H3.646V307.442H6.866V308.744H3.646V313H2.05V303.27H7.776ZM8.72308 309.108C8.72308 308.333 8.88174 307.647 9.19908 307.05C9.52574 306.453 9.96441 305.991 10.5151 305.664C11.0751 305.328 11.6911 305.16 12.3631 305.16C12.9697 305.16 13.4971 305.281 13.9451 305.524C14.4024 305.757 14.7664 306.051 15.0371 306.406V305.286H16.6471V313H15.0371V311.852C14.7664 312.216 14.3977 312.519 13.9311 312.762C13.4644 313.005 12.9324 313.126 12.3351 313.126C11.6724 313.126 11.0657 312.958 10.5151 312.622C9.96441 312.277 9.52574 311.801 9.19908 311.194C8.88174 310.578 8.72308 309.883 8.72308 309.108ZM15.0371 309.136C15.0371 308.604 14.9251 308.142 14.7011 307.75C14.4864 307.358 14.2017 307.059 13.8471 306.854C13.4924 306.649 13.1097 306.546 12.6991 306.546C12.2884 306.546 11.9057 306.649 11.5511 306.854C11.1964 307.05 10.9071 307.344 10.6831 307.736C10.4684 308.119 10.3611 308.576 10.3611 309.108C10.3611 309.64 10.4684 310.107 10.6831 310.508C10.9071 310.909 11.1964 311.217 11.5511 311.432C11.9151 311.637 12.2977 311.74 12.6991 311.74C13.1097 311.74 13.4924 311.637 13.8471 311.432C14.2017 311.227 14.4864 310.928 14.7011 310.536C14.9251 310.135 15.0371 309.668 15.0371 309.136ZM21.9914 311.782C22.9154 311.782 23.5267 311.376 23.8254 310.564H25.5474C25.342 311.273 24.9734 311.857 24.4414 312.314C23.9187 312.762 23.2607 313.023 22.4674 313.098V313.672C23.0087 313.672 23.4474 313.798 23.7834 314.05C24.1194 314.311 24.2874 314.675 24.2874 315.142C24.2874 315.609 24.1194 315.977 23.7834 316.248C23.4474 316.528 23.0227 316.668 22.5094 316.668H20.6614V315.66H22.1874C22.4487 315.66 22.6447 315.623 22.7754 315.548C22.906 315.473 22.9714 315.338 22.9714 315.142C22.9714 314.946 22.906 314.811 22.7754 314.736C22.6447 314.661 22.4487 314.624 22.1874 314.624H21.4174V313.084C20.7827 313.009 20.2227 312.799 19.7374 312.454C19.252 312.099 18.874 311.642 18.6034 311.082C18.342 310.513 18.2114 309.864 18.2114 309.136C18.2114 308.343 18.37 307.647 18.6874 307.05C19.014 306.443 19.462 305.977 20.0314 305.65C20.6007 305.323 21.254 305.16 21.9914 305.16C22.9247 305.16 23.6947 305.384 24.3014 305.832C24.9174 306.271 25.3327 306.901 25.5474 307.722H23.8254C23.6854 307.339 23.4614 307.041 23.1534 306.826C22.8454 306.611 22.458 306.504 21.9914 306.504C21.338 306.504 20.8154 306.737 20.4234 307.204C20.0407 307.661 19.8494 308.305 19.8494 309.136C19.8494 309.967 20.0407 310.615 20.4234 311.082C20.8154 311.549 21.338 311.782 21.9914 311.782ZM26.6059 309.108C26.6059 308.333 26.7646 307.647 27.0819 307.05C27.4086 306.453 27.8472 305.991 28.3979 305.664C28.9579 305.328 29.5739 305.16 30.2459 305.16C30.8526 305.16 31.3799 305.281 31.8279 305.524C32.2852 305.757 32.6492 306.051 32.9199 306.406V305.286H34.5299V313H32.9199V311.852C32.6492 312.216 32.2806 312.519 31.8139 312.762C31.3472 313.005 30.8152 313.126 30.2179 313.126C29.5552 313.126 28.9486 312.958 28.3979 312.622C27.8472 312.277 27.4086 311.801 27.0819 311.194C26.7646 310.578 26.6059 309.883 26.6059 309.108ZM32.9199 309.136C32.9199 308.604 32.8079 308.142 32.5839 307.75C32.3692 307.358 32.0846 307.059 31.7299 306.854C31.3752 306.649 30.9926 306.546 30.5819 306.546C30.1712 306.546 29.7886 306.649 29.4339 306.854C29.0792 307.05 28.7899 307.344 28.5659 307.736C28.3512 308.119 28.2439 308.576 28.2439 309.108C28.2439 309.64 28.3512 310.107 28.5659 310.508C28.7899 310.909 29.0792 311.217 29.4339 311.432C29.7979 311.637 30.1806 311.74 30.5819 311.74C30.9926 311.74 31.3752 311.637 31.7299 311.432C32.0846 311.227 32.3692 310.928 32.5839 310.536C32.8079 310.135 32.9199 309.668 32.9199 309.136ZM43.0629 313.126C42.4562 313.126 41.9102 313.019 41.4249 312.804C40.9489 312.58 40.5709 312.281 40.2909 311.908C40.0109 311.525 39.8616 311.101 39.8429 310.634H41.4949C41.5229 310.961 41.6769 311.236 41.9569 311.46C42.2462 311.675 42.6056 311.782 43.0349 311.782C43.4829 311.782 43.8282 311.698 44.0709 311.53C44.3229 311.353 44.4489 311.129 44.4489 310.858C44.4489 310.569 44.3089 310.354 44.0289 310.214C43.7582 310.074 43.3242 309.92 42.7269 309.752C42.1482 309.593 41.6769 309.439 41.3129 309.29C40.9489 309.141 40.6316 308.912 40.3609 308.604C40.0996 308.296 39.9689 307.89 39.9689 307.386C39.9689 306.975 40.0902 306.602 40.3329 306.266C40.5756 305.921 40.9209 305.65 41.3689 305.454C41.8262 305.258 42.3489 305.16 42.9369 305.16C43.8142 305.16 44.5189 305.384 45.0509 305.832C45.5922 306.271 45.8816 306.873 45.9189 307.638H44.3229C44.2949 307.293 44.1549 307.017 43.9029 306.812C43.6509 306.607 43.3102 306.504 42.8809 306.504C42.4609 306.504 42.1389 306.583 41.9149 306.742C41.6909 306.901 41.5789 307.111 41.5789 307.372C41.5789 307.577 41.6536 307.75 41.8029 307.89C41.9522 308.03 42.1342 308.142 42.3489 308.226C42.5636 308.301 42.8809 308.399 43.3009 308.52C43.8609 308.669 44.3182 308.823 44.6729 308.982C45.0369 309.131 45.3496 309.355 45.6109 309.654C45.8722 309.953 46.0076 310.349 46.0169 310.844C46.0169 311.283 45.8956 311.675 45.6529 312.02C45.4102 312.365 45.0649 312.636 44.6169 312.832C44.1782 313.028 43.6602 313.126 43.0629 313.126ZM54.7274 305.286V313H53.1314V312.09C52.8794 312.407 52.5481 312.659 52.1374 312.846C51.7361 313.023 51.3067 313.112 50.8494 313.112C50.2427 313.112 49.6967 312.986 49.2114 312.734C48.7354 312.482 48.3574 312.109 48.0774 311.614C47.8067 311.119 47.6714 310.522 47.6714 309.822V305.286H49.2534V309.584C49.2534 310.275 49.4261 310.807 49.7714 311.18C50.1167 311.544 50.5881 311.726 51.1854 311.726C51.7827 311.726 52.2541 311.544 52.5994 311.18C52.9541 310.807 53.1314 310.275 53.1314 309.584V305.286H54.7274ZM56.3012 309.108C56.3012 308.333 56.4599 307.647 56.7772 307.05C57.1039 306.453 57.5425 305.991 58.0932 305.664C58.6532 305.328 59.2692 305.16 59.9412 305.16C60.5479 305.16 61.0752 305.281 61.5232 305.524C61.9805 305.757 62.3445 306.051 62.6152 306.406V305.286H64.2252V313H62.6152V311.852C62.3445 312.216 61.9759 312.519 61.5092 312.762C61.0425 313.005 60.5105 313.126 59.9132 313.126C59.2505 313.126 58.6439 312.958 58.0932 312.622C57.5425 312.277 57.1039 311.801 56.7772 311.194C56.4599 310.578 56.3012 309.883 56.3012 309.108ZM62.6152 309.136C62.6152 308.604 62.5032 308.142 62.2792 307.75C62.0645 307.358 61.7799 307.059 61.4252 306.854C61.0705 306.649 60.6879 306.546 60.2772 306.546C59.8665 306.546 59.4839 306.649 59.1292 306.854C58.7745 307.05 58.4852 307.344 58.2612 307.736C58.0465 308.119 57.9392 308.576 57.9392 309.108C57.9392 309.64 58.0465 310.107 58.2612 310.508C58.4852 310.909 58.7745 311.217 59.1292 311.432C59.4932 311.637 59.8759 311.74 60.2772 311.74C60.6879 311.74 61.0705 311.637 61.4252 311.432C61.7799 311.227 62.0645 310.928 62.2792 310.536C62.5032 310.135 62.6152 309.668 62.6152 309.136ZM71.5542 306.42C71.8249 306.065 72.1935 305.767 72.6602 305.524C73.1269 305.281 73.6542 305.16 74.2422 305.16C74.9142 305.16 75.5255 305.328 76.0762 305.664C76.6362 305.991 77.0749 306.453 77.3922 307.05C77.7095 307.647 77.8682 308.333 77.8682 309.108C77.8682 309.883 77.7095 310.578 77.3922 311.194C77.0749 311.801 76.6362 312.277 76.0762 312.622C75.5255 312.958 74.9142 313.126 74.2422 313.126C73.6542 313.126 73.1315 313.009 72.6742 312.776C72.2169 312.533 71.8435 312.235 71.5542 311.88V316.668H69.9582V305.286H71.5542V306.42ZM76.2442 309.108C76.2442 308.576 76.1322 308.119 75.9082 307.736C75.6935 307.344 75.4042 307.05 75.0402 306.854C74.6855 306.649 74.3029 306.546 73.8922 306.546C73.4909 306.546 73.1082 306.649 72.7442 306.854C72.3895 307.059 72.1002 307.358 71.8762 307.75C71.6615 308.142 71.5542 308.604 71.5542 309.136C71.5542 309.668 71.6615 310.135 71.8762 310.536C72.1002 310.928 72.3895 311.227 72.7442 311.432C73.1082 311.637 73.4909 311.74 73.8922 311.74C74.3029 311.74 74.6855 311.637 75.0402 311.432C75.4042 311.217 75.6935 310.909 75.9082 310.508C76.1322 310.107 76.2442 309.64 76.2442 309.108ZM78.9145 309.108C78.9145 308.333 79.0732 307.647 79.3905 307.05C79.7172 306.453 80.1558 305.991 80.7065 305.664C81.2665 305.328 81.8825 305.16 82.5545 305.16C83.1612 305.16 83.6885 305.281 84.1365 305.524C84.5938 305.757 84.9578 306.051 85.2285 306.406V305.286H86.8385V313H85.2285V311.852C84.9578 312.216 84.5892 312.519 84.1225 312.762C83.6558 313.005 83.1238 313.126 82.5265 313.126C81.8638 313.126 81.2572 312.958 80.7065 312.622C80.1558 312.277 79.7172 311.801 79.3905 311.194C79.0732 310.578 78.9145 309.883 78.9145 309.108ZM85.2285 309.136C85.2285 308.604 85.1165 308.142 84.8925 307.75C84.6778 307.358 84.3932 307.059 84.0385 306.854C83.6838 306.649 83.3012 306.546 82.8905 306.546C82.4798 306.546 82.0972 306.649 81.7425 306.854C81.3878 307.05 81.0985 307.344 80.8745 307.736C80.6598 308.119 80.5525 308.576 80.5525 309.108C80.5525 309.64 80.6598 310.107 80.8745 310.508C81.0985 310.909 81.3878 311.217 81.7425 311.432C82.1065 311.637 82.4892 311.74 82.8905 311.74C83.3012 311.74 83.6838 311.637 84.0385 311.432C84.3932 311.227 84.6778 310.928 84.8925 310.536C85.1165 310.135 85.2285 309.668 85.2285 309.136ZM90.5308 306.406C90.7641 306.014 91.0721 305.711 91.4548 305.496C91.8468 305.272 92.3088 305.16 92.8408 305.16V306.812H92.4348C91.8094 306.812 91.3334 306.971 91.0068 307.288C90.6894 307.605 90.5308 308.156 90.5308 308.94V313H88.9348V305.286H90.5308V306.406ZM96.1698 306.588V310.858C96.1698 311.147 96.2351 311.357 96.3658 311.488C96.5058 311.609 96.7391 311.67 97.0658 311.67H98.0458V313H96.7858C96.0671 313 95.5165 312.832 95.1338 312.496C94.7511 312.16 94.5598 311.614 94.5598 310.858V306.588H93.6498V305.286H94.5598V303.368H96.1698V305.286H98.0458V306.588H96.1698ZM106.587 308.954C106.587 309.243 106.568 309.505 106.531 309.738H100.637C100.683 310.354 100.912 310.849 101.323 311.222C101.733 311.595 102.237 311.782 102.835 311.782C103.693 311.782 104.3 311.423 104.655 310.704H106.377C106.143 311.413 105.719 311.997 105.103 312.454C104.496 312.902 103.74 313.126 102.835 313.126C102.097 313.126 101.435 312.963 100.847 312.636C100.268 312.3 99.8108 311.833 99.4748 311.236C99.1481 310.629 98.9848 309.929 98.9848 309.136C98.9848 308.343 99.1435 307.647 99.4608 307.05C99.7875 306.443 100.24 305.977 100.819 305.65C101.407 305.323 102.079 305.16 102.835 305.16C103.563 305.16 104.211 305.319 104.781 305.636C105.35 305.953 105.793 306.401 106.111 306.98C106.428 307.549 106.587 308.207 106.587 308.954ZM104.921 308.45C104.911 307.862 104.701 307.391 104.291 307.036C103.88 306.681 103.371 306.504 102.765 306.504C102.214 306.504 101.743 306.681 101.351 307.036C100.959 307.381 100.725 307.853 100.651 308.45H104.921ZM118.864 308.954C118.864 309.243 118.845 309.505 118.808 309.738H112.914C112.961 310.354 113.189 310.849 113.6 311.222C114.011 311.595 114.515 311.782 115.112 311.782C115.971 311.782 116.577 311.423 116.932 310.704H118.654C118.421 311.413 117.996 311.997 117.38 312.454C116.773 312.902 116.017 313.126 115.112 313.126C114.375 313.126 113.712 312.963 113.124 312.636C112.545 312.3 112.088 311.833 111.752 311.236C111.425 310.629 111.262 309.929 111.262 309.136C111.262 308.343 111.421 307.647 111.738 307.05C112.065 306.443 112.517 305.977 113.096 305.65C113.684 305.323 114.356 305.16 115.112 305.16C115.84 305.16 116.489 305.319 117.058 305.636C117.627 305.953 118.071 306.401 118.388 306.98C118.705 307.549 118.864 308.207 118.864 308.954ZM117.198 308.45C117.189 307.862 116.979 307.391 116.568 307.036C116.157 306.681 115.649 306.504 115.042 306.504C114.491 306.504 114.02 306.681 113.628 307.036C113.236 307.381 113.003 307.853 112.928 308.45H117.198ZM123.539 309.108C123.539 308.333 123.698 307.647 124.015 307.05C124.342 306.453 124.781 305.991 125.331 305.664C125.891 305.328 126.512 305.16 127.193 305.16C127.697 305.16 128.192 305.272 128.677 305.496C129.172 305.711 129.564 306 129.853 306.364V302.64H131.463V313H129.853V311.838C129.592 312.211 129.228 312.519 128.761 312.762C128.304 313.005 127.777 313.126 127.179 313.126C126.507 313.126 125.891 312.958 125.331 312.622C124.781 312.277 124.342 311.801 124.015 311.194C123.698 310.578 123.539 309.883 123.539 309.108ZM129.853 309.136C129.853 308.604 129.741 308.142 129.517 307.75C129.303 307.358 129.018 307.059 128.663 306.854C128.309 306.649 127.926 306.546 127.515 306.546C127.105 306.546 126.722 306.649 126.367 306.854C126.013 307.05 125.723 307.344 125.499 307.736C125.285 308.119 125.177 308.576 125.177 309.108C125.177 309.64 125.285 310.107 125.499 310.508C125.723 310.909 126.013 311.217 126.367 311.432C126.731 311.637 127.114 311.74 127.515 311.74C127.926 311.74 128.309 311.637 128.663 311.432C129.018 311.227 129.303 310.928 129.517 310.536C129.741 310.135 129.853 309.668 129.853 309.136ZM136.906 313.126C136.178 313.126 135.52 312.963 134.932 312.636C134.344 312.3 133.882 311.833 133.546 311.236C133.21 310.629 133.042 309.929 133.042 309.136C133.042 308.352 133.214 307.657 133.56 307.05C133.905 306.443 134.376 305.977 134.974 305.65C135.571 305.323 136.238 305.16 136.976 305.16C137.713 305.16 138.38 305.323 138.978 305.65C139.575 305.977 140.046 306.443 140.392 307.05C140.737 307.657 140.91 308.352 140.91 309.136C140.91 309.92 140.732 310.615 140.378 311.222C140.023 311.829 139.538 312.3 138.922 312.636C138.315 312.963 137.643 313.126 136.906 313.126ZM136.906 311.74C137.316 311.74 137.699 311.642 138.054 311.446C138.418 311.25 138.712 310.956 138.936 310.564C139.16 310.172 139.272 309.696 139.272 309.136C139.272 308.576 139.164 308.105 138.95 307.722C138.735 307.33 138.45 307.036 138.096 306.84C137.741 306.644 137.358 306.546 136.948 306.546C136.537 306.546 136.154 306.644 135.8 306.84C135.454 307.036 135.179 307.33 134.974 307.722C134.768 308.105 134.666 308.576 134.666 309.136C134.666 309.967 134.876 310.611 135.296 311.068C135.725 311.516 136.262 311.74 136.906 311.74ZM149.558 308.954C149.558 309.243 149.539 309.505 149.502 309.738H143.608C143.654 310.354 143.883 310.849 144.294 311.222C144.704 311.595 145.208 311.782 145.806 311.782C146.664 311.782 147.271 311.423 147.626 310.704H149.347C149.114 311.413 148.69 311.997 148.074 312.454C147.467 312.902 146.711 313.126 145.806 313.126C145.068 313.126 144.406 312.963 143.818 312.636C143.239 312.3 142.782 311.833 142.446 311.236C142.119 310.629 141.956 309.929 141.956 309.136C141.956 308.343 142.114 307.647 142.432 307.05C142.758 306.443 143.211 305.977 143.79 305.65C144.378 305.323 145.05 305.16 145.806 305.16C146.534 305.16 147.182 305.319 147.752 305.636C148.321 305.953 148.764 306.401 149.082 306.98C149.399 307.549 149.558 308.207 149.558 308.954ZM147.892 308.45C147.882 307.862 147.672 307.391 147.262 307.036C146.851 306.681 146.342 306.504 145.736 306.504C145.185 306.504 144.714 306.681 144.322 307.036C143.93 307.381 143.696 307.853 143.622 308.45H147.892ZM161.751 305.286V313H160.155V312.09C159.903 312.407 159.572 312.659 159.161 312.846C158.76 313.023 158.33 313.112 157.873 313.112C157.266 313.112 156.72 312.986 156.235 312.734C155.759 312.482 155.381 312.109 155.101 311.614C154.83 311.119 154.695 310.522 154.695 309.822V305.286H156.277V309.584C156.277 310.275 156.45 310.807 156.795 311.18C157.14 311.544 157.612 311.726 158.209 311.726C158.806 311.726 159.278 311.544 159.623 311.18C159.978 310.807 160.155 310.275 160.155 309.584V305.286H161.751ZM173.195 305.16C173.801 305.16 174.343 305.286 174.819 305.538C175.304 305.79 175.682 306.163 175.953 306.658C176.233 307.153 176.373 307.75 176.373 308.45V313H174.791V308.688C174.791 307.997 174.618 307.47 174.273 307.106C173.927 306.733 173.456 306.546 172.859 306.546C172.261 306.546 171.785 306.733 171.431 307.106C171.085 307.47 170.913 307.997 170.913 308.688V313H169.331V308.688C169.331 307.997 169.158 307.47 168.813 307.106C168.467 306.733 167.996 306.546 167.399 306.546C166.801 306.546 166.325 306.733 165.971 307.106C165.625 307.47 165.453 307.997 165.453 308.688V313H163.857V305.286H165.453V306.168C165.714 305.851 166.045 305.603 166.447 305.426C166.848 305.249 167.277 305.16 167.735 305.16C168.351 305.16 168.901 305.291 169.387 305.552C169.872 305.813 170.245 306.191 170.507 306.686C170.74 306.219 171.104 305.851 171.599 305.58C172.093 305.3 172.625 305.16 173.195 305.16ZM183.636 306.42C183.907 306.065 184.276 305.767 184.742 305.524C185.209 305.281 185.736 305.16 186.324 305.16C186.996 305.16 187.608 305.328 188.158 305.664C188.718 305.991 189.157 306.453 189.474 307.05C189.792 307.647 189.95 308.333 189.95 309.108C189.95 309.883 189.792 310.578 189.474 311.194C189.157 311.801 188.718 312.277 188.158 312.622C187.608 312.958 186.996 313.126 186.324 313.126C185.736 313.126 185.214 313.009 184.756 312.776C184.299 312.533 183.926 312.235 183.636 311.88V316.668H182.04V305.286H183.636V306.42ZM188.326 309.108C188.326 308.576 188.214 308.119 187.99 307.736C187.776 307.344 187.486 307.05 187.122 306.854C186.768 306.649 186.385 306.546 185.974 306.546C185.573 306.546 185.19 306.649 184.826 306.854C184.472 307.059 184.182 307.358 183.958 307.75C183.744 308.142 183.636 308.604 183.636 309.136C183.636 309.668 183.744 310.135 183.958 310.536C184.182 310.928 184.472 311.227 184.826 311.432C185.19 311.637 185.573 311.74 185.974 311.74C186.385 311.74 186.768 311.637 187.122 311.432C187.486 311.217 187.776 310.909 187.99 310.508C188.214 310.107 188.326 309.64 188.326 309.108ZM198.599 308.954C198.599 309.243 198.58 309.505 198.543 309.738H192.649C192.695 310.354 192.924 310.849 193.335 311.222C193.745 311.595 194.249 311.782 194.847 311.782C195.705 311.782 196.312 311.423 196.667 310.704H198.389C198.155 311.413 197.731 311.997 197.115 312.454C196.508 312.902 195.752 313.126 194.847 313.126C194.109 313.126 193.447 312.963 192.859 312.636C192.28 312.3 191.823 311.833 191.487 311.236C191.16 310.629 190.997 309.929 190.997 309.136C190.997 308.343 191.155 307.647 191.473 307.05C191.799 306.443 192.252 305.977 192.831 305.65C193.419 305.323 194.091 305.16 194.847 305.16C195.575 305.16 196.223 305.319 196.793 305.636C197.362 305.953 197.805 306.401 198.123 306.98C198.44 307.549 198.599 308.207 198.599 308.954ZM196.933 308.45C196.923 307.862 196.713 307.391 196.303 307.036C195.892 306.681 195.383 306.504 194.777 306.504C194.226 306.504 193.755 306.681 193.363 307.036C192.971 307.381 192.737 307.853 192.663 308.45H196.933ZM201.765 306.406C201.998 306.014 202.306 305.711 202.689 305.496C203.081 305.272 203.543 305.16 204.075 305.16V306.812H203.669C203.044 306.812 202.568 306.971 202.241 307.288C201.924 307.605 201.765 308.156 201.765 308.94V313H200.169V305.286H201.765V306.406ZM206.354 304.264C206.065 304.264 205.822 304.166 205.626 303.97C205.43 303.774 205.332 303.531 205.332 303.242C205.332 302.953 205.43 302.71 205.626 302.514C205.822 302.318 206.065 302.22 206.354 302.22C206.634 302.22 206.872 302.318 207.068 302.514C207.264 302.71 207.362 302.953 207.362 303.242C207.362 303.531 207.264 303.774 207.068 303.97C206.872 304.166 206.634 304.264 206.354 304.264ZM207.138 305.286V313H205.542V305.286H207.138ZM212.468 306.588H211.04V313H209.43V306.588H208.52V305.286H209.43V304.74C209.43 303.853 209.663 303.209 210.13 302.808C210.606 302.397 211.348 302.192 212.356 302.192V303.522C211.87 303.522 211.53 303.615 211.334 303.802C211.138 303.979 211.04 304.292 211.04 304.74V305.286H212.468V306.588ZM220.952 308.954C220.952 309.243 220.933 309.505 220.896 309.738H215.002C215.049 310.354 215.277 310.849 215.688 311.222C216.099 311.595 216.603 311.782 217.2 311.782C218.059 311.782 218.665 311.423 219.02 310.704H220.742C220.509 311.413 220.084 311.997 219.468 312.454C218.861 312.902 218.105 313.126 217.2 313.126C216.463 313.126 215.8 312.963 215.212 312.636C214.633 312.3 214.176 311.833 213.84 311.236C213.513 310.629 213.35 309.929 213.35 309.136C213.35 308.343 213.509 307.647 213.826 307.05C214.153 306.443 214.605 305.977 215.184 305.65C215.772 305.323 216.444 305.16 217.2 305.16C217.928 305.16 218.577 305.319 219.146 305.636C219.715 305.953 220.159 306.401 220.476 306.98C220.793 307.549 220.952 308.207 220.952 308.954ZM219.286 308.45C219.277 307.862 219.067 307.391 218.656 307.036C218.245 306.681 217.737 306.504 217.13 306.504C216.579 306.504 216.108 306.681 215.716 307.036C215.324 307.381 215.091 307.853 215.016 308.45H219.286ZM218.6 303.214L215.506 304.74V303.564L218.6 301.856V303.214ZM224.119 306.406C224.352 306.014 224.66 305.711 225.043 305.496C225.435 305.272 225.897 305.16 226.429 305.16V306.812H226.023C225.397 306.812 224.921 306.971 224.595 307.288C224.277 307.605 224.119 308.156 224.119 308.94V313H222.523V305.286H224.119V306.406ZM228.708 304.264C228.418 304.264 228.176 304.166 227.98 303.97C227.784 303.774 227.686 303.531 227.686 303.242C227.686 302.953 227.784 302.71 227.98 302.514C228.176 302.318 228.418 302.22 228.708 302.22C228.988 302.22 229.226 302.318 229.422 302.514C229.618 302.71 229.716 302.953 229.716 303.242C229.716 303.531 229.618 303.774 229.422 303.97C229.226 304.166 228.988 304.264 228.708 304.264ZM229.492 305.286V313H227.896V305.286H229.492ZM231.055 309.136C231.055 308.343 231.214 307.647 231.531 307.05C231.858 306.443 232.306 305.977 232.875 305.65C233.444 305.323 234.098 305.16 234.835 305.16C235.768 305.16 236.538 305.384 237.145 305.832C237.761 306.271 238.176 306.901 238.391 307.722H236.669C236.529 307.339 236.305 307.041 235.997 306.826C235.689 306.611 235.302 306.504 234.835 306.504C234.182 306.504 233.659 306.737 233.267 307.204C232.884 307.661 232.693 308.305 232.693 309.136C232.693 309.967 232.884 310.615 233.267 311.082C233.659 311.549 234.182 311.782 234.835 311.782C235.759 311.782 236.37 311.376 236.669 310.564H238.391C238.167 311.348 237.747 311.973 237.131 312.44C236.515 312.897 235.75 313.126 234.835 313.126C234.098 313.126 233.444 312.963 232.875 312.636C232.306 312.3 231.858 311.833 231.531 311.236C231.214 310.629 231.055 309.929 231.055 309.136ZM243.328 313.126C242.6 313.126 241.942 312.963 241.354 312.636C240.766 312.3 240.304 311.833 239.968 311.236C239.632 310.629 239.464 309.929 239.464 309.136C239.464 308.352 239.636 307.657 239.982 307.05C240.327 306.443 240.798 305.977 241.396 305.65C241.993 305.323 242.66 305.16 243.398 305.16C244.135 305.16 244.802 305.323 245.4 305.65C245.997 305.977 246.468 306.443 246.814 307.05C247.159 307.657 247.332 308.352 247.332 309.136C247.332 309.92 247.154 310.615 246.8 311.222C246.445 311.829 245.96 312.3 245.344 312.636C244.737 312.963 244.065 313.126 243.328 313.126ZM243.328 311.74C243.738 311.74 244.121 311.642 244.476 311.446C244.84 311.25 245.134 310.956 245.358 310.564C245.582 310.172 245.694 309.696 245.694 309.136C245.694 308.576 245.586 308.105 245.372 307.722C245.157 307.33 244.872 307.036 244.518 306.84C244.163 306.644 243.78 306.546 243.37 306.546C242.959 306.546 242.576 306.644 242.222 306.84C241.876 307.036 241.601 307.33 241.396 307.722C241.19 308.105 241.088 308.576 241.088 309.136C241.088 309.967 241.298 310.611 241.718 311.068C242.147 311.516 242.684 311.74 243.328 311.74ZM259.616 308.954C259.616 309.243 259.597 309.505 259.56 309.738H253.666C253.713 310.354 253.941 310.849 254.352 311.222C254.763 311.595 255.267 311.782 255.864 311.782C256.723 311.782 257.329 311.423 257.684 310.704H259.406C259.173 311.413 258.748 311.997 258.132 312.454C257.525 312.902 256.769 313.126 255.864 313.126C255.127 313.126 254.464 312.963 253.876 312.636C253.297 312.3 252.84 311.833 252.504 311.236C252.177 310.629 252.014 309.929 252.014 309.136C252.014 308.343 252.173 307.647 252.49 307.05C252.817 306.443 253.269 305.977 253.848 305.65C254.436 305.323 255.108 305.16 255.864 305.16C256.592 305.16 257.241 305.319 257.81 305.636C258.379 305.953 258.823 306.401 259.14 306.98C259.457 307.549 259.616 308.207 259.616 308.954ZM257.95 308.45C257.941 307.862 257.731 307.391 257.32 307.036C256.909 306.681 256.401 306.504 255.794 306.504C255.243 306.504 254.772 306.681 254.38 307.036C253.988 307.381 253.755 307.853 253.68 308.45H257.95ZM270.525 305.16C271.131 305.16 271.673 305.286 272.149 305.538C272.634 305.79 273.012 306.163 273.283 306.658C273.563 307.153 273.703 307.75 273.703 308.45V313H272.121V308.688C272.121 307.997 271.948 307.47 271.603 307.106C271.257 306.733 270.786 306.546 270.189 306.546C269.591 306.546 269.115 306.733 268.761 307.106C268.415 307.47 268.243 307.997 268.243 308.688V313H266.661V308.688C266.661 307.997 266.488 307.47 266.143 307.106C265.797 306.733 265.326 306.546 264.729 306.546C264.131 306.546 263.655 306.733 263.301 307.106C262.955 307.47 262.783 307.997 262.783 308.688V313H261.187V305.286H262.783V306.168C263.044 305.851 263.375 305.603 263.777 305.426C264.178 305.249 264.607 305.16 265.065 305.16C265.681 305.16 266.231 305.291 266.717 305.552C267.202 305.813 267.575 306.191 267.837 306.686C268.07 306.219 268.434 305.851 268.929 305.58C269.423 305.3 269.955 305.16 270.525 305.16ZM281.232 306.588V310.858C281.232 311.147 281.298 311.357 281.428 311.488C281.568 311.609 281.802 311.67 282.128 311.67H283.108V313H281.848C281.13 313 280.579 312.832 280.196 312.496C279.814 312.16 279.622 311.614 279.622 310.858V306.588H278.712V305.286H279.622V303.368H281.232V305.286H283.108V306.588H281.232ZM286.175 306.406C286.409 306.014 286.717 305.711 287.099 305.496C287.491 305.272 287.953 305.16 288.485 305.16V306.812H288.079C287.454 306.812 286.978 306.971 286.651 307.288C286.334 307.605 286.175 308.156 286.175 308.94V313H284.579V305.286H286.175V306.406ZM293.298 313.126C292.57 313.126 291.912 312.963 291.324 312.636C290.736 312.3 290.274 311.833 289.938 311.236C289.602 310.629 289.434 309.929 289.434 309.136C289.434 308.352 289.607 307.657 289.952 307.05C290.298 306.443 290.769 305.977 291.366 305.65C291.964 305.323 292.631 305.16 293.368 305.16C294.106 305.16 294.773 305.323 295.37 305.65C295.968 305.977 296.439 306.443 296.784 307.05C297.13 307.657 297.302 308.352 297.302 309.136C297.302 309.92 297.125 310.615 296.77 311.222C296.416 311.829 295.93 312.3 295.314 312.636C294.708 312.963 294.036 313.126 293.298 313.126ZM293.298 311.74C293.709 311.74 294.092 311.642 294.446 311.446C294.81 311.25 295.104 310.956 295.328 310.564C295.552 310.172 295.664 309.696 295.664 309.136C295.664 308.576 295.557 308.105 295.342 307.722C295.128 307.33 294.843 307.036 294.488 306.84C294.134 306.644 293.751 306.546 293.34 306.546C292.93 306.546 292.547 306.644 292.192 306.84C291.847 307.036 291.572 307.33 291.366 307.722C291.161 308.105 291.058 308.576 291.058 309.136C291.058 309.967 291.268 310.611 291.688 311.068C292.118 311.516 292.654 311.74 293.298 311.74ZM298.348 309.136C298.348 308.343 298.507 307.647 298.824 307.05C299.151 306.443 299.599 305.977 300.168 305.65C300.737 305.323 301.391 305.16 302.128 305.16C303.061 305.16 303.831 305.384 304.438 305.832C305.054 306.271 305.469 306.901 305.684 307.722H303.962C303.822 307.339 303.598 307.041 303.29 306.826C302.982 306.611 302.595 306.504 302.128 306.504C301.475 306.504 300.952 306.737 300.56 307.204C300.177 307.661 299.986 308.305 299.986 309.136C299.986 309.967 300.177 310.615 300.56 311.082C300.952 311.549 301.475 311.782 302.128 311.782C303.052 311.782 303.663 311.376 303.962 310.564H305.684C305.46 311.348 305.04 311.973 304.424 312.44C303.808 312.897 303.043 313.126 302.128 313.126C301.391 313.126 300.737 312.963 300.168 312.636C299.599 312.3 299.151 311.833 298.824 311.236C298.507 310.629 298.348 309.929 298.348 309.136ZM306.743 309.108C306.743 308.333 306.901 307.647 307.219 307.05C307.545 306.453 307.984 305.991 308.535 305.664C309.095 305.328 309.711 305.16 310.383 305.16C310.989 305.16 311.517 305.281 311.965 305.524C312.422 305.757 312.786 306.051 313.057 306.406V305.286H314.667V313H313.057V311.852C312.786 312.216 312.417 312.519 311.951 312.762C311.484 313.005 310.952 313.126 310.355 313.126C309.692 313.126 309.085 312.958 308.535 312.622C307.984 312.277 307.545 311.801 307.219 311.194C306.901 310.578 306.743 309.883 306.743 309.108ZM313.057 309.136C313.057 308.604 312.945 308.142 312.721 307.75C312.506 307.358 312.221 307.059 311.867 306.854C311.512 306.649 311.129 306.546 310.719 306.546C310.308 306.546 309.925 306.649 309.571 306.854C309.216 307.05 308.927 307.344 308.703 307.736C308.488 308.119 308.381 308.576 308.381 309.108C308.381 309.64 308.488 310.107 308.703 310.508C308.927 310.909 309.216 311.217 309.571 311.432C309.935 311.637 310.317 311.74 310.719 311.74C311.129 311.74 311.512 311.637 311.867 311.432C312.221 311.227 312.506 310.928 312.721 310.536C312.945 310.135 313.057 309.668 313.057 309.136ZM319.868 309.108C319.868 308.333 320.026 307.647 320.344 307.05C320.67 306.453 321.109 305.991 321.66 305.664C322.22 305.328 322.84 305.16 323.522 305.16C324.026 305.16 324.52 305.272 325.006 305.496C325.5 305.711 325.892 306 326.182 306.364V302.64H327.792V313H326.182V311.838C325.92 312.211 325.556 312.519 325.09 312.762C324.632 313.005 324.105 313.126 323.508 313.126C322.836 313.126 322.22 312.958 321.66 312.622C321.109 312.277 320.67 311.801 320.344 311.194C320.026 310.578 319.868 309.883 319.868 309.108ZM326.182 309.136C326.182 308.604 326.07 308.142 325.846 307.75C325.631 307.358 325.346 307.059 324.992 306.854C324.637 306.649 324.254 306.546 323.844 306.546C323.433 306.546 323.05 306.649 322.696 306.854C322.341 307.05 322.052 307.344 321.828 307.736C321.613 308.119 321.506 308.576 321.506 309.108C321.506 309.64 321.613 310.107 321.828 310.508C322.052 310.909 322.341 311.217 322.696 311.432C323.06 311.637 323.442 311.74 323.844 311.74C324.254 311.74 324.637 311.637 324.992 311.432C325.346 311.227 325.631 310.928 325.846 310.536C326.07 310.135 326.182 309.668 326.182 309.136ZM336.958 308.954C336.958 309.243 336.939 309.505 336.902 309.738H331.008C331.055 310.354 331.283 310.849 331.694 311.222C332.105 311.595 332.609 311.782 333.206 311.782C334.065 311.782 334.671 311.423 335.026 310.704H336.748C336.515 311.413 336.09 311.997 335.474 312.454C334.867 312.902 334.111 313.126 333.206 313.126C332.469 313.126 331.806 312.963 331.218 312.636C330.639 312.3 330.182 311.833 329.846 311.236C329.519 310.629 329.356 309.929 329.356 309.136C329.356 308.343 329.515 307.647 329.832 307.05C330.159 306.443 330.611 305.977 331.19 305.65C331.778 305.323 332.45 305.16 333.206 305.16C333.934 305.16 334.583 305.319 335.152 305.636C335.721 305.953 336.165 306.401 336.482 306.98C336.799 307.549 336.958 308.207 336.958 308.954ZM335.292 308.45C335.283 307.862 335.073 307.391 334.662 307.036C334.251 306.681 333.743 306.504 333.136 306.504C332.585 306.504 332.114 306.681 331.722 307.036C331.33 307.381 331.097 307.853 331.022 308.45H335.292ZM349.151 305.286V313H347.555V312.09C347.303 312.407 346.972 312.659 346.561 312.846C346.16 313.023 345.731 313.112 345.273 313.112C344.667 313.112 344.121 312.986 343.635 312.734C343.159 312.482 342.781 312.109 342.501 311.614C342.231 311.119 342.095 310.522 342.095 309.822V305.286H343.677V309.584C343.677 310.275 343.85 310.807 344.195 311.18C344.541 311.544 345.012 311.726 345.609 311.726C346.207 311.726 346.678 311.544 347.023 311.18C347.378 310.807 347.555 310.275 347.555 309.584V305.286H349.151ZM360.595 305.16C361.202 305.16 361.743 305.286 362.219 305.538C362.704 305.79 363.082 306.163 363.353 306.658C363.633 307.153 363.773 307.75 363.773 308.45V313H362.191V308.688C362.191 307.997 362.018 307.47 361.673 307.106C361.328 306.733 360.856 306.546 360.259 306.546C359.662 306.546 359.186 306.733 358.831 307.106C358.486 307.47 358.313 307.997 358.313 308.688V313H356.731V308.688C356.731 307.997 356.558 307.47 356.213 307.106C355.868 306.733 355.396 306.546 354.799 306.546C354.202 306.546 353.726 306.733 353.371 307.106C353.026 307.47 352.853 307.997 352.853 308.688V313H351.257V305.286H352.853V306.168C353.114 305.851 353.446 305.603 353.847 305.426C354.248 305.249 354.678 305.16 355.135 305.16C355.751 305.16 356.302 305.291 356.787 305.552C357.272 305.813 357.646 306.191 357.907 306.686C358.14 306.219 358.504 305.851 358.999 305.58C359.494 305.3 360.026 305.16 360.595 305.16ZM365.272 309.108C365.272 308.333 365.431 307.647 365.748 307.05C366.075 306.453 366.513 305.991 367.064 305.664C367.624 305.328 368.24 305.16 368.912 305.16C369.519 305.16 370.046 305.281 370.494 305.524C370.951 305.757 371.315 306.051 371.586 306.406V305.286H373.196V313H371.586V311.852C371.315 312.216 370.947 312.519 370.48 312.762C370.013 313.005 369.481 313.126 368.884 313.126C368.221 313.126 367.615 312.958 367.064 312.622C366.513 312.277 366.075 311.801 365.748 311.194C365.431 310.578 365.272 309.883 365.272 309.108ZM371.586 309.136C371.586 308.604 371.474 308.142 371.25 307.75C371.035 307.358 370.751 307.059 370.396 306.854C370.041 306.649 369.659 306.546 369.248 306.546C368.837 306.546 368.455 306.649 368.1 306.854C367.745 307.05 367.456 307.344 367.232 307.736C367.017 308.119 366.91 308.576 366.91 309.108C366.91 309.64 367.017 310.107 367.232 310.508C367.456 310.909 367.745 311.217 368.1 311.432C368.464 311.637 368.847 311.74 369.248 311.74C369.659 311.74 370.041 311.637 370.396 311.432C370.751 311.227 371.035 310.928 371.25 310.536C371.474 310.135 371.586 309.668 371.586 309.136ZM3.646 327.406C3.87933 327.014 4.18733 326.711 4.57 326.496C4.962 326.272 5.424 326.16 5.956 326.16V327.812H5.55C4.92467 327.812 4.44867 327.971 4.122 328.288C3.80467 328.605 3.646 329.156 3.646 329.94V334H2.05V326.286H3.646V327.406ZM14.493 329.954C14.493 330.243 14.4744 330.505 14.437 330.738H8.54305C8.58971 331.354 8.81838 331.849 9.22905 332.222C9.63971 332.595 10.1437 332.782 10.741 332.782C11.5997 332.782 12.2064 332.423 12.561 331.704H14.283C14.0497 332.413 13.625 332.997 13.009 333.454C12.4024 333.902 11.6464 334.126 10.741 334.126C10.0037 334.126 9.34105 333.963 8.75305 333.636C8.17438 333.3 7.71705 332.833 7.38105 332.236C7.05438 331.629 6.89105 330.929 6.89105 330.136C6.89105 329.343 7.04971 328.647 7.36705 328.05C7.69371 327.443 8.14638 326.977 8.72505 326.65C9.31305 326.323 9.98505 326.16 10.741 326.16C11.469 326.16 12.1177 326.319 12.687 326.636C13.2564 326.953 13.6997 327.401 14.017 327.98C14.3344 328.549 14.493 329.207 14.493 329.954ZM12.827 329.45C12.8177 328.862 12.6077 328.391 12.197 328.036C11.7864 327.681 11.2777 327.504 10.671 327.504C10.1204 327.504 9.64905 327.681 9.25705 328.036C8.86505 328.381 8.63171 328.853 8.55705 329.45H12.827ZM15.5317 330.136C15.5317 329.343 15.6903 328.647 16.0077 328.05C16.3343 327.443 16.7823 326.977 17.3517 326.65C17.921 326.323 18.5743 326.16 19.3117 326.16C20.245 326.16 21.015 326.384 21.6217 326.832C22.2377 327.271 22.653 327.901 22.8677 328.722H21.1457C21.0057 328.339 20.7817 328.041 20.4737 327.826C20.1657 327.611 19.7783 327.504 19.3117 327.504C18.6583 327.504 18.1357 327.737 17.7437 328.204C17.361 328.661 17.1697 329.305 17.1697 330.136C17.1697 330.967 17.361 331.615 17.7437 332.082C18.1357 332.549 18.6583 332.782 19.3117 332.782C20.2357 332.782 20.847 332.376 21.1457 331.564H22.8677C22.6437 332.348 22.2237 332.973 21.6077 333.44C20.9917 333.897 20.2263 334.126 19.3117 334.126C18.5743 334.126 17.921 333.963 17.3517 333.636C16.7823 333.3 16.3343 332.833 16.0077 332.236C15.6903 331.629 15.5317 330.929 15.5317 330.136ZM27.8042 334.126C27.0762 334.126 26.4182 333.963 25.8302 333.636C25.2422 333.3 24.7802 332.833 24.4442 332.236C24.1082 331.629 23.9402 330.929 23.9402 330.136C23.9402 329.352 24.1129 328.657 24.4582 328.05C24.8035 327.443 25.2749 326.977 25.8722 326.65C26.4695 326.323 27.1369 326.16 27.8742 326.16C28.6115 326.16 29.2789 326.323 29.8762 326.65C30.4735 326.977 30.9449 327.443 31.2902 328.05C31.6355 328.657 31.8082 329.352 31.8082 330.136C31.8082 330.92 31.6309 331.615 31.2762 332.222C30.9215 332.829 30.4362 333.3 29.8202 333.636C29.2135 333.963 28.5415 334.126 27.8042 334.126ZM27.8042 332.74C28.2149 332.74 28.5975 332.642 28.9522 332.446C29.3162 332.25 29.6102 331.956 29.8342 331.564C30.0582 331.172 30.1702 330.696 30.1702 330.136C30.1702 329.576 30.0629 329.105 29.8482 328.722C29.6335 328.33 29.3489 328.036 28.9942 327.84C28.6395 327.644 28.2569 327.546 27.8462 327.546C27.4355 327.546 27.0529 327.644 26.6982 327.84C26.3529 328.036 26.0775 328.33 25.8722 328.722C25.6669 329.105 25.5642 329.576 25.5642 330.136C25.5642 330.967 25.7742 331.611 26.1942 332.068C26.6235 332.516 27.1602 332.74 27.8042 332.74ZM42.7239 326.16C43.3306 326.16 43.8719 326.286 44.3479 326.538C44.8333 326.79 45.2113 327.163 45.4819 327.658C45.7619 328.153 45.9019 328.75 45.9019 329.45V334H44.3199V329.688C44.3199 328.997 44.1473 328.47 43.8019 328.106C43.4566 327.733 42.9853 327.546 42.3879 327.546C41.7906 327.546 41.3146 327.733 40.9599 328.106C40.6146 328.47 40.4419 328.997 40.4419 329.688V334H38.8599V329.688C38.8599 328.997 38.6873 328.47 38.3419 328.106C37.9966 327.733 37.5253 327.546 36.9279 327.546C36.3306 327.546 35.8546 327.733 35.4999 328.106C35.1546 328.47 34.9819 328.997 34.9819 329.688V334H33.3859V326.286H34.9819V327.168C35.2433 326.851 35.5746 326.603 35.9759 326.426C36.3773 326.249 36.8066 326.16 37.2639 326.16C37.8799 326.16 38.4306 326.291 38.9159 326.552C39.4013 326.813 39.7746 327.191 40.0359 327.686C40.2693 327.219 40.6333 326.851 41.1279 326.58C41.6226 326.3 42.1546 326.16 42.7239 326.16ZM49.5288 327.42C49.7995 327.065 50.1681 326.767 50.6348 326.524C51.1015 326.281 51.6288 326.16 52.2168 326.16C52.8888 326.16 53.5001 326.328 54.0508 326.664C54.6108 326.991 55.0495 327.453 55.3668 328.05C55.6841 328.647 55.8428 329.333 55.8428 330.108C55.8428 330.883 55.6841 331.578 55.3668 332.194C55.0495 332.801 54.6108 333.277 54.0508 333.622C53.5001 333.958 52.8888 334.126 52.2168 334.126C51.6288 334.126 51.1061 334.009 50.6488 333.776C50.1915 333.533 49.8181 333.235 49.5288 332.88V337.668H47.9328V326.286H49.5288V327.42ZM54.2188 330.108C54.2188 329.576 54.1068 329.119 53.8828 328.736C53.6681 328.344 53.3788 328.05 53.0148 327.854C52.6601 327.649 52.2775 327.546 51.8668 327.546C51.4655 327.546 51.0828 327.649 50.7188 327.854C50.3641 328.059 50.0748 328.358 49.8508 328.75C49.6361 329.142 49.5288 329.604 49.5288 330.136C49.5288 330.668 49.6361 331.135 49.8508 331.536C50.0748 331.928 50.3641 332.227 50.7188 332.432C51.0828 332.637 51.4655 332.74 51.8668 332.74C52.2775 332.74 52.6601 332.637 53.0148 332.432C53.3788 332.217 53.6681 331.909 53.8828 331.508C54.1068 331.107 54.2188 330.64 54.2188 330.108ZM64.4911 329.954C64.4911 330.243 64.4724 330.505 64.4351 330.738H58.5411C58.5878 331.354 58.8164 331.849 59.2271 332.222C59.6378 332.595 60.1418 332.782 60.7391 332.782C61.5978 332.782 62.2044 332.423 62.5591 331.704H64.2811C64.0478 332.413 63.6231 332.997 63.0071 333.454C62.4004 333.902 61.6444 334.126 60.7391 334.126C60.0018 334.126 59.3391 333.963 58.7511 333.636C58.1724 333.3 57.7151 332.833 57.3791 332.236C57.0524 331.629 56.8891 330.929 56.8891 330.136C56.8891 329.343 57.0478 328.647 57.3651 328.05C57.6918 327.443 58.1444 326.977 58.7231 326.65C59.3111 326.323 59.9831 326.16 60.7391 326.16C61.4671 326.16 62.1158 326.319 62.6851 326.636C63.2544 326.953 63.6978 327.401 64.0151 327.98C64.3324 328.549 64.4911 329.207 64.4911 329.954ZM62.8251 329.45C62.8158 328.862 62.6058 328.391 62.1951 328.036C61.7844 327.681 61.2758 327.504 60.6691 327.504C60.1184 327.504 59.6471 327.681 59.2551 328.036C58.8631 328.381 58.6298 328.853 58.5551 329.45H62.8251ZM69.9537 326.16C70.5604 326.16 71.1017 326.286 71.5777 326.538C72.0631 326.79 72.4411 327.163 72.7117 327.658C72.9824 328.153 73.1177 328.75 73.1177 329.45V334H71.5357V329.688C71.5357 328.997 71.3631 328.47 71.0177 328.106C70.6724 327.733 70.2011 327.546 69.6037 327.546C69.0064 327.546 68.5304 327.733 68.1757 328.106C67.8304 328.47 67.6577 328.997 67.6577 329.688V334H66.0617V326.286H67.6577V327.168C67.9191 326.851 68.2504 326.603 68.6517 326.426C69.0624 326.249 69.4964 326.16 69.9537 326.16ZM77.9535 334.126C77.3468 334.126 76.8008 334.019 76.3155 333.804C75.8395 333.58 75.4615 333.281 75.1815 332.908C74.9015 332.525 74.7522 332.101 74.7335 331.634H76.3855C76.4135 331.961 76.5675 332.236 76.8475 332.46C77.1368 332.675 77.4962 332.782 77.9255 332.782C78.3735 332.782 78.7188 332.698 78.9615 332.53C79.2135 332.353 79.3395 332.129 79.3395 331.858C79.3395 331.569 79.1995 331.354 78.9195 331.214C78.6488 331.074 78.2148 330.92 77.6175 330.752C77.0388 330.593 76.5675 330.439 76.2035 330.29C75.8395 330.141 75.5222 329.912 75.2515 329.604C74.9902 329.296 74.8595 328.89 74.8595 328.386C74.8595 327.975 74.9808 327.602 75.2235 327.266C75.4662 326.921 75.8115 326.65 76.2595 326.454C76.7168 326.258 77.2395 326.16 77.8275 326.16C78.7048 326.16 79.4095 326.384 79.9415 326.832C80.4828 327.271 80.7722 327.873 80.8095 328.638H79.2135C79.1855 328.293 79.0455 328.017 78.7935 327.812C78.5415 327.607 78.2008 327.504 77.7715 327.504C77.3515 327.504 77.0295 327.583 76.8055 327.742C76.5815 327.901 76.4695 328.111 76.4695 328.372C76.4695 328.577 76.5442 328.75 76.6935 328.89C76.8428 329.03 77.0248 329.142 77.2395 329.226C77.4542 329.301 77.7715 329.399 78.1915 329.52C78.7515 329.669 79.2088 329.823 79.5635 329.982C79.9275 330.131 80.2402 330.355 80.5015 330.654C80.7628 330.953 80.8982 331.349 80.9075 331.844C80.9075 332.283 80.7862 332.675 80.5435 333.02C80.3008 333.365 79.9555 333.636 79.5075 333.832C79.0688 334.028 78.5508 334.126 77.9535 334.126ZM82.1 330.108C82.1 329.333 82.2587 328.647 82.576 328.05C82.9027 327.453 83.3414 326.991 83.892 326.664C84.452 326.328 85.068 326.16 85.74 326.16C86.3467 326.16 86.874 326.281 87.322 326.524C87.7794 326.757 88.1434 327.051 88.414 327.406V326.286H90.024V334H88.414V332.852C88.1434 333.216 87.7747 333.519 87.308 333.762C86.8414 334.005 86.3094 334.126 85.712 334.126C85.0494 334.126 84.4427 333.958 83.892 333.622C83.3414 333.277 82.9027 332.801 82.576 332.194C82.2587 331.578 82.1 330.883 82.1 330.108ZM88.414 330.136C88.414 329.604 88.302 329.142 88.078 328.75C87.8634 328.358 87.5787 328.059 87.224 327.854C86.8694 327.649 86.4867 327.546 86.076 327.546C85.6654 327.546 85.2827 327.649 84.928 327.854C84.5734 328.05 84.284 328.344 84.06 328.736C83.8454 329.119 83.738 329.576 83.738 330.108C83.738 330.64 83.8454 331.107 84.06 331.508C84.284 331.909 84.5734 332.217 84.928 332.432C85.292 332.637 85.6747 332.74 86.076 332.74C86.4867 332.74 86.8694 332.637 87.224 332.432C87.5787 332.227 87.8634 331.928 88.078 331.536C88.302 331.135 88.414 330.668 88.414 330.136ZM100.587 334L98.543 330.29H97.969V334H95.575V324.172H99.593C100.368 324.172 101.026 324.307 101.567 324.578C102.118 324.849 102.528 325.222 102.799 325.698C103.07 326.165 103.205 326.687 103.205 327.266C103.205 327.919 103.018 328.503 102.645 329.016C102.281 329.529 101.74 329.893 101.021 330.108L103.289 334H100.587ZM97.969 328.596H99.453C99.8917 328.596 100.218 328.489 100.433 328.274C100.657 328.059 100.769 327.756 100.769 327.364C100.769 326.991 100.657 326.697 100.433 326.482C100.218 326.267 99.8917 326.16 99.453 326.16H97.969V328.596ZM110.826 332.264H107.158L106.57 334H104.064L107.62 324.172H110.392L113.948 334H111.414L110.826 332.264ZM110.21 330.416L108.992 326.818L107.788 330.416H110.21ZM126.16 324.172V334H123.766V328.106L121.568 334H119.636L117.424 328.092V334H115.03V324.172H117.858L120.616 330.976L123.346 324.172H126.16ZM134.952 324.172V326.09H132.348V334H129.954V326.09H127.35V324.172H134.952ZM142.271 332.264H138.603L138.015 334H135.509L139.065 324.172H141.837L145.393 334H142.859L142.271 332.264ZM141.655 330.416L140.437 326.818L139.233 330.416H141.655ZM142.075 322.198L138.701 323.612V321.96L142.075 320.336V322.198ZM150.031 334.098C149.313 334.098 148.669 333.981 148.099 333.748C147.53 333.515 147.073 333.169 146.727 332.712C146.391 332.255 146.214 331.704 146.195 331.06H148.743C148.781 331.424 148.907 331.704 149.121 331.9C149.336 332.087 149.616 332.18 149.961 332.18C150.316 332.18 150.596 332.101 150.801 331.942C151.007 331.774 151.109 331.545 151.109 331.256C151.109 331.013 151.025 330.813 150.857 330.654C150.699 330.495 150.498 330.365 150.255 330.262C150.022 330.159 149.686 330.043 149.247 329.912C148.613 329.716 148.095 329.52 147.693 329.324C147.292 329.128 146.947 328.839 146.657 328.456C146.368 328.073 146.223 327.574 146.223 326.958C146.223 326.043 146.555 325.329 147.217 324.816C147.88 324.293 148.743 324.032 149.807 324.032C150.89 324.032 151.763 324.293 152.425 324.816C153.088 325.329 153.443 326.048 153.489 326.972H150.899C150.881 326.655 150.764 326.407 150.549 326.23C150.335 326.043 150.059 325.95 149.723 325.95C149.434 325.95 149.201 326.029 149.023 326.188C148.846 326.337 148.757 326.557 148.757 326.846C148.757 327.163 148.907 327.411 149.205 327.588C149.504 327.765 149.971 327.957 150.605 328.162C151.24 328.377 151.753 328.582 152.145 328.778C152.547 328.974 152.892 329.259 153.181 329.632C153.471 330.005 153.615 330.486 153.615 331.074C153.615 331.634 153.471 332.143 153.181 332.6C152.901 333.057 152.491 333.421 151.949 333.692C151.408 333.963 150.769 334.098 150.031 334.098ZM162.159 324.172V326.09H159.555V334H157.161V326.09H154.557V324.172H162.159ZM165.754 324.172V334H163.36V324.172H165.754ZM167.083 329.072C167.083 328.101 167.293 327.238 167.713 326.482C168.133 325.717 168.716 325.124 169.463 324.704C170.219 324.275 171.073 324.06 172.025 324.06C173.192 324.06 174.19 324.368 175.021 324.984C175.852 325.6 176.407 326.44 176.687 327.504H174.055C173.859 327.093 173.579 326.781 173.215 326.566C172.86 326.351 172.454 326.244 171.997 326.244C171.26 326.244 170.662 326.501 170.205 327.014C169.748 327.527 169.519 328.213 169.519 329.072C169.519 329.931 169.748 330.617 170.205 331.13C170.662 331.643 171.26 331.9 171.997 331.9C172.454 331.9 172.86 331.793 173.215 331.578C173.579 331.363 173.859 331.051 174.055 330.64H176.687C176.407 331.704 175.852 332.544 175.021 333.16C174.19 333.767 173.192 334.07 172.025 334.07C171.073 334.07 170.219 333.86 169.463 333.44C168.716 333.011 168.133 332.418 167.713 331.662C167.293 330.906 167.083 330.043 167.083 329.072ZM184.271 332.264H180.603L180.015 334H177.509L181.065 324.172H183.837L187.393 334H184.859L184.271 332.264ZM183.655 330.416L182.437 326.818L181.233 330.416H183.655ZM190.659 324.27L190.477 331.06H189.147L188.965 324.27H190.659ZM189.861 334.098C189.572 334.098 189.329 334 189.133 333.804C188.937 333.608 188.839 333.365 188.839 333.076C188.839 332.787 188.937 332.544 189.133 332.348C189.329 332.152 189.572 332.054 189.861 332.054C190.141 332.054 190.379 332.152 190.575 332.348C190.771 332.544 190.869 332.787 190.869 333.076C190.869 333.365 190.771 333.608 190.575 333.804C190.379 334 190.141 334.098 189.861 334.098Z" fill="#121212"/>
</g>
<rect x="30" y="400" width="250" height="40" rx="20" fill="#499136"/>
<rect x="30" y="393" width="250" height="40" rx="20" fill="#7AD761"/>
<path d="M99.4312 417.414C100.018 417.414 100.649 417.355 101.323 417.238C102.013 417.121 102.621 416.967 103.149 416.776V420.384C102.343 420.707 101.609 420.927 100.949 421.044C100.304 421.176 99.6219 421.242 98.9032 421.242C97.5832 421.242 96.5345 421.103 95.7572 420.824C94.9945 420.531 94.3859 420.069 93.9312 419.438C93.5499 418.881 93.2639 418.162 93.0732 417.282C92.8825 416.402 92.7872 415.339 92.7872 414.092C92.7872 411.643 93.3299 409.846 94.4152 408.702C95.5005 407.558 97.2312 406.986 99.6072 406.986C100.282 406.986 100.883 407.001 101.411 407.03C101.939 407.059 102.416 407.111 102.841 407.184V410.77C102.372 410.741 101.881 410.719 101.367 410.704C100.854 410.689 100.282 410.682 99.6512 410.682C98.5805 410.682 97.8765 410.924 97.5392 411.408C97.2019 411.877 97.0332 412.772 97.0332 414.092C97.0332 415.339 97.1872 416.204 97.4952 416.688C97.8179 417.172 98.4632 417.414 99.4312 417.414ZM107.546 421H103.344L108.294 407.206H112.54L117.336 421H113.156L112.584 419.086H108.096L107.546 421ZM110.318 411.298C110.171 411.87 110.01 412.464 109.834 413.08C109.672 413.681 109.518 414.224 109.372 414.708L109.02 415.918H111.66L111.308 414.708C110.648 412.435 110.318 411.298 110.318 411.298ZM123.297 421H118.127V407.206H123.297C124.675 407.206 125.783 407.323 126.619 407.558C127.455 407.793 128.122 408.174 128.621 408.702C129.119 409.23 129.486 409.934 129.721 410.814C129.955 411.679 130.073 412.772 130.073 414.092C130.073 416.483 129.537 418.235 128.467 419.35C127.396 420.45 125.673 421 123.297 421ZM125.849 414.092C125.849 412.801 125.687 411.936 125.365 411.496C125.057 411.041 124.367 410.814 123.297 410.814H122.197V417.282H123.297C124.367 417.282 125.057 417.062 125.365 416.622C125.687 416.182 125.849 415.339 125.849 414.092ZM133.864 421H129.662L134.612 407.206H138.858L143.654 421H139.474L138.902 419.086H134.414L133.864 421ZM136.636 411.298C136.489 411.87 136.328 412.464 136.152 413.08C135.991 413.681 135.837 414.224 135.69 414.708L135.338 415.918H137.978L137.626 414.708C136.966 412.435 136.636 411.298 136.636 411.298ZM149.617 415.984L147.043 415.434C145.914 415.185 145.122 414.767 144.667 414.18C144.227 413.593 144.007 412.765 144.007 411.694C144.007 410.081 144.433 408.893 145.283 408.13C146.134 407.367 147.476 406.986 149.309 406.986C150.101 406.986 150.813 407.023 151.443 407.096C152.074 407.155 152.617 407.25 153.071 407.382V411.012C152.03 410.836 151.267 410.733 150.783 410.704C150.299 410.66 149.801 410.638 149.287 410.638C148.803 410.638 148.451 410.704 148.231 410.836C148.026 410.968 147.923 411.188 147.923 411.496C147.923 411.657 147.96 411.782 148.033 411.87C148.121 411.958 148.268 412.024 148.473 412.068L150.871 412.596C151.619 412.757 152.177 412.933 152.543 413.124C152.91 413.3 153.203 413.52 153.423 413.784C153.673 414.077 153.849 414.451 153.951 414.906C154.069 415.361 154.127 415.911 154.127 416.556C154.127 418.199 153.687 419.394 152.807 420.142C151.927 420.875 150.571 421.242 148.737 421.242C147.799 421.242 146.889 421.191 146.009 421.088C145.144 420.985 144.499 420.853 144.073 420.692V416.842C144.631 417.018 145.335 417.165 146.185 417.282C147.051 417.399 147.909 417.458 148.759 417.458C149.273 417.458 149.632 417.399 149.837 417.282C150.043 417.165 150.145 416.952 150.145 416.644C150.145 416.439 150.109 416.292 150.035 416.204C149.977 416.116 149.837 416.043 149.617 415.984ZM165.096 407.206V410.902H161.708V421H157.616V410.902H154.206V407.206H165.096ZM170.279 416.688V421H166.209V407.206H171.379C173.593 407.206 175.155 407.58 176.065 408.328C176.989 409.061 177.451 410.301 177.451 412.046C177.451 413.087 177.245 413.945 176.835 414.62C176.439 415.295 175.83 415.801 175.009 416.138L178.023 421H173.359L171.049 416.688H170.279ZM173.293 412.112C173.293 411.657 173.168 411.335 172.919 411.144C172.669 410.953 172.222 410.858 171.577 410.858H170.279V413.564H171.577C172.222 413.564 172.669 413.454 172.919 413.234C173.168 413.014 173.293 412.64 173.293 412.112ZM188.585 417.326V421H178.949V407.206H188.387V410.792H183.019V412.354H187.573V415.698H183.019V417.326H188.585ZM196.273 412.508V415.478H189.255V412.508H196.273ZM202.877 415.984L200.303 415.434C199.174 415.185 198.382 414.767 197.927 414.18C197.487 413.593 197.267 412.765 197.267 411.694C197.267 410.081 197.693 408.893 198.543 408.13C199.394 407.367 200.736 406.986 202.569 406.986C203.361 406.986 204.073 407.023 204.703 407.096C205.334 407.155 205.877 407.25 206.331 407.382V411.012C205.29 410.836 204.527 410.733 204.043 410.704C203.559 410.66 203.061 410.638 202.547 410.638C202.063 410.638 201.711 410.704 201.491 410.836C201.286 410.968 201.183 411.188 201.183 411.496C201.183 411.657 201.22 411.782 201.293 411.87C201.381 411.958 201.528 412.024 201.733 412.068L204.131 412.596C204.879 412.757 205.437 412.933 205.803 413.124C206.17 413.3 206.463 413.52 206.683 413.784C206.933 414.077 207.109 414.451 207.211 414.906C207.329 415.361 207.387 415.911 207.387 416.556C207.387 418.199 206.947 419.394 206.067 420.142C205.187 420.875 203.831 421.242 201.997 421.242C201.059 421.242 200.149 421.191 199.269 421.088C198.404 420.985 197.759 420.853 197.333 420.692V416.842C197.891 417.018 198.595 417.165 199.445 417.282C200.311 417.399 201.169 417.458 202.019 417.458C202.533 417.458 202.892 417.399 203.097 417.282C203.303 417.165 203.405 416.952 203.405 416.644C203.405 416.439 203.369 416.292 203.295 416.204C203.237 416.116 203.097 416.043 202.877 415.984ZM218.19 417.326V421H208.554V407.206H217.992V410.792H212.624V412.354H217.178V415.698H212.624V417.326H218.19Z" fill="#F8F8FF"/>
<rect x="30" y="462" width="250" height="40" rx="20" fill="#0076AC"/>
<rect x="30" y="456" width="250" height="40" rx="20" fill="#46C4FF"/>
<path d="M82.3056 478.5V470.206H86.3756V478.808C86.3756 480.759 85.9502 482.152 85.0996 482.988C84.2489 483.824 82.8116 484.242 80.7876 484.242C80.3476 484.242 79.9296 484.227 79.5336 484.198C79.1522 484.169 78.7489 484.11 78.3236 484.022V480.282C78.5582 480.326 78.8222 480.363 79.1156 480.392C79.4089 480.407 79.7609 480.414 80.1716 480.414C81.0369 480.414 81.6089 480.289 81.8876 480.04C82.1662 479.776 82.3056 479.263 82.3056 478.5ZM90.6374 484H86.4354L91.3854 470.206H95.6314L100.427 484H96.2474L95.6754 482.086H91.1874L90.6374 484ZM93.4094 474.298C93.2627 474.87 93.1014 475.464 92.9254 476.08C92.764 476.681 92.61 477.224 92.4634 477.708L92.1114 478.918H94.7514L94.3994 477.708C93.7394 475.435 93.4094 474.298 93.4094 474.298ZM93.4534 466.73H97.5454L94.1794 469.502H91.1654L93.4534 466.73ZM114.243 470.206V473.902H110.855V484H106.763V473.902H103.353V470.206H114.243ZM124.991 480.326V484H115.355V470.206H124.793V473.792H119.425V475.354H123.979V478.698H119.425V480.326H124.991ZM138.566 470.206V484H134.716L130.14 477.158V484H126.334V470.206H130.14L134.76 477.422V470.206H138.566ZM144.347 484H140.277V470.206H144.347V475.156H148.131V470.206H152.223V484H148.131V478.852H144.347V484ZM166.811 477.092C166.811 479.615 166.283 481.441 165.227 482.57C164.186 483.685 162.499 484.242 160.167 484.242C157.747 484.242 156.038 483.707 155.041 482.636C154.044 481.565 153.545 479.717 153.545 477.092C153.545 474.599 154.066 472.795 155.107 471.68C156.163 470.551 157.85 469.986 160.167 469.986C162.587 469.986 164.296 470.521 165.293 471.592C166.305 472.648 166.811 474.481 166.811 477.092ZM157.681 477.092C157.681 478.397 157.835 479.277 158.143 479.732C158.466 480.187 159.14 480.414 160.167 480.414C161.208 480.414 161.883 480.194 162.191 479.754C162.514 479.299 162.675 478.412 162.675 477.092C162.675 475.743 162.514 474.841 162.191 474.386C161.868 473.917 161.194 473.682 160.167 473.682C159.14 473.682 158.466 473.917 158.143 474.386C157.835 474.841 157.681 475.743 157.681 477.092ZM177.398 480.414C177.985 480.414 178.615 480.355 179.29 480.238C179.979 480.121 180.588 479.967 181.116 479.776V483.384C180.309 483.707 179.576 483.927 178.916 484.044C178.271 484.176 177.589 484.242 176.87 484.242C175.55 484.242 174.501 484.103 173.724 483.824C172.961 483.531 172.353 483.069 171.898 482.438C171.517 481.881 171.231 481.162 171.04 480.282C170.849 479.402 170.754 478.339 170.754 477.092C170.754 474.643 171.297 472.846 172.382 471.702C173.467 470.558 175.198 469.986 177.574 469.986C178.249 469.986 178.85 470.001 179.378 470.03C179.906 470.059 180.383 470.111 180.808 470.184V473.77C180.339 473.741 179.847 473.719 179.334 473.704C178.821 473.689 178.249 473.682 177.618 473.682C176.547 473.682 175.843 473.924 175.506 474.408C175.169 474.877 175 475.772 175 477.092C175 478.339 175.154 479.204 175.462 479.688C175.785 480.172 176.43 480.414 177.398 480.414ZM195.127 477.092C195.127 479.615 194.599 481.441 193.543 482.57C192.502 483.685 190.815 484.242 188.483 484.242C186.063 484.242 184.355 483.707 183.357 482.636C182.36 481.565 181.861 479.717 181.861 477.092C181.861 474.599 182.382 472.795 183.423 471.68C184.479 470.551 186.166 469.986 188.483 469.986C190.903 469.986 192.612 470.521 193.609 471.592C194.621 472.648 195.127 474.481 195.127 477.092ZM185.997 477.092C185.997 478.397 186.151 479.277 186.459 479.732C186.782 480.187 187.457 480.414 188.483 480.414C189.525 480.414 190.199 480.194 190.507 479.754C190.83 479.299 190.991 478.412 190.991 477.092C190.991 475.743 190.83 474.841 190.507 474.386C190.185 473.917 189.51 473.682 188.483 473.682C187.457 473.682 186.782 473.917 186.459 474.386C186.151 474.841 185.997 475.743 185.997 477.092ZM208.669 470.206V484H204.819L200.243 477.158V484H196.437V470.206H200.243L204.863 477.422V470.206H208.669ZM220.676 470.206V473.902H217.288V484H213.196V473.902H209.786V470.206H220.676ZM223.217 484H219.015L223.965 470.206H228.211L233.007 484H228.827L228.255 482.086H223.767L223.217 484ZM225.989 474.298C225.843 474.87 225.681 475.464 225.505 476.08C225.344 476.681 225.19 477.224 225.043 477.708L224.691 478.918H227.331L226.979 477.708C226.319 475.435 225.989 474.298 225.989 474.298Z" fill="#F8F8FF"/>
<g clip-path="url(#clip0_1165_1066)">
<rect x="894.43" y="396.274" width="83.33" height="58.33" rx="10" transform="rotate(15.06 894.43 396.274)" fill="#1F9DD3"/>
<path d="M883.508 450.778C881.295 450.183 879.613 448.886 878.462 446.888C877.311 444.89 877.032 442.782 877.626 440.566L888.452 400.33C889.047 398.117 890.346 396.436 892.346 395.286C894.347 394.135 896.453 393.856 898.664 394.448L963.041 411.77C965.254 412.366 966.937 413.664 968.09 415.666C969.243 417.668 969.521 419.773 968.923 421.983L958.097 462.218C957.501 464.431 956.204 466.115 954.205 467.268C952.206 468.422 950.099 468.699 947.885 468.1L883.508 450.778ZM902.85 443.038L935.038 451.699L937.203 443.652L905.015 434.991L902.85 443.038ZM894.027 427.72L902.074 429.885L904.239 421.838L896.192 419.672L894.027 427.72ZM906.098 430.967L914.145 433.133L916.31 425.086L908.263 422.92L906.098 430.967ZM918.168 434.215L926.215 436.381L928.381 428.333L920.333 426.168L918.168 434.215ZM930.239 437.463L938.286 439.628L940.451 431.581L932.404 429.416L930.239 437.463ZM942.31 440.711L950.357 442.876L952.522 434.829L944.475 432.664L942.31 440.711ZM897.275 415.649L905.322 417.814L907.487 409.767L899.44 407.602L897.275 415.649ZM909.345 418.897L917.393 421.062L919.558 413.015L911.511 410.85L909.345 418.897ZM921.416 422.145L929.463 424.31L931.628 416.263L923.581 414.098L921.416 422.145ZM933.487 425.392L941.534 427.558L943.699 419.511L935.652 417.345L933.487 425.392ZM945.557 428.64L953.605 430.806L955.77 422.758L947.723 420.593L945.557 428.64Z" fill="#46C4FF"/>
</g>
<path d="M937.926 114.416C936.694 114.179 935.418 114.44 934.379 115.144C933.34 115.847 932.622 116.934 932.385 118.166L921.634 173.913C921.397 175.145 921.658 176.421 922.361 177.46C923.065 178.499 924.152 179.217 925.384 179.454L939.321 182.142L941.112 172.851L950.404 174.643L948.612 183.934L957.903 185.725L959.695 176.434L968.986 178.226L967.194 187.517L976.485 189.309L978.277 180.018L987.568 181.81L985.776 191.101L995.068 192.893L996.859 183.601L1006.15 185.393L1004.36 194.684L1018.3 197.372C1019.53 197.61 1020.8 197.348 1021.84 196.645C1022.88 195.942 1023.6 194.854 1023.84 193.622L1034.59 137.875C1034.82 136.643 1034.56 135.367 1033.86 134.328C1033.16 133.289 1032.07 132.572 1030.84 132.334L937.926 114.416ZM948.28 135.686L976.153 141.062L973.465 154.998L945.592 149.623L948.28 135.686ZM985.444 142.853L1013.32 148.229L1010.63 162.165L982.756 156.79L985.444 142.853Z" fill="#7B2BBE"/>
<g clip-path="url(#clip1_1165_1066)">
<path d="M932.313 110.02C931.08 109.782 929.804 110.044 928.765 110.747C927.726 111.45 927.009 112.538 926.771 113.77L916.021 169.516C915.783 170.748 916.045 172.024 916.748 173.064C917.451 174.103 918.538 174.82 919.77 175.058L933.707 177.745L935.499 168.454L944.79 170.246L942.998 179.537L952.289 181.329L954.081 172.038L963.372 173.83L961.58 183.121L970.871 184.913L972.663 175.621L981.954 177.413L980.163 186.704L989.454 188.496L991.245 179.205L1000.54 180.997L998.745 190.288L1012.68 192.975C1013.91 193.213 1015.19 192.951 1016.23 192.248C1017.27 191.545 1017.99 190.458 1018.22 189.226L1028.97 133.479C1029.21 132.247 1028.95 130.971 1028.25 129.932C1027.54 128.892 1026.46 128.175 1025.22 127.937L932.313 110.02ZM942.666 131.29L970.539 136.665L967.851 150.602L939.978 145.227L942.666 131.29ZM979.83 138.457L1007.7 143.832L1005.02 157.769L977.143 152.394L979.83 138.457Z" fill="#C67DFF"/>
</g>
<path fill-rule="evenodd" clip-rule="evenodd" d="M558.688 432.5C563.769 430.018 570.025 432.574 571.715 438.133L584.633 480.622C586.323 486.181 582.554 491.786 576.948 492.557C566.715 493.942 556.591 496.031 546.647 498.81L548.48 504.838C551.701 504.096 554.776 503.601 557.259 503.276C559.333 503.004 561.41 502.774 563.495 502.667C564.102 502.636 564.709 502.725 565.281 502.929C565.854 503.133 566.381 503.448 566.831 503.855C567.282 504.263 567.648 504.755 567.909 505.305C568.169 505.854 568.319 506.449 568.349 507.056C568.396 508.29 567.953 509.492 567.117 510.401C566.281 511.309 565.12 511.851 563.887 511.908C562.071 512.025 560.261 512.213 558.461 512.446C554.481 512.942 550.548 513.757 546.698 514.881C542.608 516.125 538.599 517.904 535.57 519.406C533.944 520.214 532.337 521.065 530.763 521.979C529.706 522.618 528.44 522.814 527.24 522.525C526.04 522.235 525.003 521.483 524.355 520.432C523.742 519.373 523.567 518.117 523.865 516.93C524.163 515.744 524.912 514.72 525.952 514.076C527.751 513.02 529.59 512.034 531.464 511.119C533.707 510.002 536.533 508.707 539.628 507.53L537.795 501.502C527.986 504.728 518.413 508.628 509.141 513.172C504.059 515.651 497.802 513.09 496.113 507.536L483.195 465.046C481.505 459.487 485.274 453.883 490.882 453.116C514.451 449.958 537.351 442.996 558.688 432.5Z" fill="#F89701"/>
<g clip-path="url(#clip2_1165_1066)">
<path fill-rule="evenodd" clip-rule="evenodd" d="M563.222 433.98C568.303 431.497 574.558 434.053 576.249 439.612L589.167 482.102C590.857 487.661 587.088 493.265 581.481 494.036C571.249 495.421 561.125 497.511 551.18 500.29L553.013 506.318C556.235 505.575 559.31 505.081 561.793 504.756C563.866 504.483 565.943 504.253 568.028 504.146C568.635 504.115 569.243 504.205 569.815 504.409C570.388 504.613 570.914 504.927 571.365 505.335C571.816 505.743 572.182 506.235 572.442 506.784C572.703 507.333 572.853 507.928 572.883 508.535C572.929 509.769 572.486 510.971 571.651 511.88C570.815 512.789 569.654 513.331 568.421 513.388C566.604 513.505 564.795 513.692 562.995 513.925C559.015 514.422 555.081 515.236 551.231 516.361C547.142 517.604 543.133 519.384 540.103 520.885C538.478 521.694 536.87 522.545 535.296 523.459C534.24 524.098 532.974 524.294 531.774 524.004C530.574 523.714 529.537 522.962 528.888 521.911C528.276 520.852 528.1 519.596 528.399 518.41C528.697 517.223 529.445 516.199 530.486 515.556C532.285 514.5 534.123 513.513 535.998 512.598C538.24 511.482 541.067 510.187 544.161 509.009L542.328 502.981C532.52 506.208 522.946 510.107 513.675 514.652C508.592 517.13 502.336 514.57 500.647 509.015L487.728 466.525C486.038 460.966 489.808 455.362 495.416 454.595C518.984 451.438 541.884 444.476 563.222 433.98Z" fill="#FEE333"/>
</g>
<path d="M499.88 138.636L484.414 130.421L492.629 114.956L508.094 123.17L499.88 138.636ZM464.275 99.8951C464.639 99.2115 465.258 98.7001 465.999 98.4735C466.739 98.2468 467.539 98.3235 468.222 98.6866L473.377 101.425L480.223 88.537C480.949 87.1698 482.189 86.147 483.669 85.6938C485.15 85.2405 486.749 85.3939 488.117 86.1201L501.004 92.9658L503.743 87.8107C504.106 87.127 504.726 86.6157 505.466 86.389C506.206 86.1624 507.006 86.2391 507.689 86.6022C508.373 86.9653 508.884 87.5851 509.111 88.3253C509.338 89.0655 509.261 89.8653 508.898 90.5489L506.16 95.7041L516.47 101.181L519.208 96.0255C519.571 95.3419 520.191 94.8305 520.931 94.6039C521.671 94.3773 522.471 94.4539 523.155 94.8171C523.838 95.1802 524.35 95.8 524.576 96.5401C524.803 97.2803 524.726 98.0802 524.363 98.7638L521.625 103.919L534.513 110.765C535.88 111.491 536.903 112.73 537.356 114.211C537.809 115.691 537.656 117.291 536.93 118.658L530.084 131.546L535.239 134.284C535.923 134.647 536.434 135.267 536.661 136.007C536.888 136.747 536.811 137.547 536.448 138.231C536.085 138.915 535.465 139.426 534.725 139.653C533.984 139.879 533.185 139.803 532.501 139.439L527.346 136.701L521.869 147.011L527.024 149.75C527.708 150.113 528.219 150.733 528.446 151.473C528.673 152.213 528.596 153.013 528.233 153.696C527.87 154.38 527.25 154.891 526.51 155.118C525.77 155.345 524.97 155.268 524.286 154.905L519.131 152.167L512.285 165.054C511.559 166.422 510.319 167.444 508.839 167.898C507.359 168.351 505.759 168.198 504.392 167.471L491.504 160.626L488.766 165.781C488.403 166.464 487.783 166.976 487.043 167.202C486.302 167.429 485.503 167.352 484.819 166.989C484.135 166.626 483.624 166.006 483.397 165.266C483.171 164.526 483.247 163.726 483.611 163.043L486.349 157.887L476.039 152.411L473.3 157.566C472.937 158.25 472.317 158.761 471.577 158.988C470.837 159.214 470.037 159.138 469.354 158.774C468.67 158.411 468.159 157.792 467.932 157.051C467.705 156.311 467.782 155.511 468.145 154.828L470.883 149.673L457.995 142.827C456.628 142.101 455.605 140.861 455.152 139.381C454.699 137.9 454.852 136.301 455.579 134.933L462.424 122.046L457.269 119.307C456.585 118.944 456.074 118.324 455.847 117.584C455.621 116.844 455.698 116.044 456.061 115.361C456.424 114.677 457.044 114.166 457.784 113.939C458.524 113.712 459.324 113.789 460.007 114.152L465.163 116.89L470.639 106.58L465.484 103.842C464.8 103.479 464.289 102.859 464.062 102.119C463.836 101.379 463.912 100.579 464.275 99.8951ZM477.89 130.26C477.527 130.944 477.45 131.744 477.677 132.484C477.903 133.224 478.415 133.844 479.098 134.207L499.719 145.16C500.402 145.523 501.202 145.6 501.942 145.373C502.683 145.147 503.302 144.635 503.666 143.952L514.619 123.331C514.982 122.648 515.058 121.848 514.832 121.107C514.605 120.367 514.094 119.748 513.41 119.384L492.79 108.431C492.106 108.068 491.306 107.991 490.566 108.218C489.826 108.445 489.206 108.956 488.843 109.64L477.89 130.26Z" fill="#850014"/>
<path d="M503.927 137.094L488.461 128.879L496.676 113.414L512.142 121.628L503.927 137.094ZM468.323 98.3531C468.686 97.6695 469.306 97.1581 470.046 96.9315C470.786 96.7048 471.586 96.7815 472.27 97.1446L477.425 99.8829L484.27 86.995C484.997 85.6278 486.236 84.605 487.717 84.1518C489.197 83.6985 490.797 83.8519 492.164 84.5781L505.052 91.4238L507.79 86.2687C508.153 85.5851 508.773 85.0737 509.513 84.847C510.253 84.6204 511.053 84.6971 511.737 85.0602C512.42 85.4233 512.932 86.0432 513.158 86.7833C513.385 87.5235 513.308 88.3233 512.945 89.0069L510.207 94.1621L520.517 99.6387L523.256 94.4835C523.619 93.7999 524.238 93.2885 524.979 93.0619C525.719 92.8353 526.519 92.9119 527.202 93.2751C527.886 93.6382 528.397 94.258 528.624 94.9981C528.85 95.7383 528.774 96.5382 528.411 97.2218L525.672 102.377L538.56 109.223C539.928 109.949 540.95 111.188 541.404 112.669C541.857 114.149 541.703 115.749 540.977 117.116L534.131 130.004L539.287 132.742C539.97 133.105 540.482 133.725 540.708 134.465C540.935 135.205 540.858 136.005 540.495 136.689C540.132 137.373 539.512 137.884 538.772 138.111C538.032 138.337 537.232 138.261 536.548 137.897L531.393 135.159L525.917 145.469L531.072 148.208C531.755 148.571 532.267 149.191 532.493 149.931C532.72 150.671 532.643 151.471 532.28 152.154C531.917 152.838 531.297 153.349 530.557 153.576C529.817 153.803 529.017 153.726 528.334 153.363L523.178 150.625L516.333 163.512C515.606 164.88 514.367 165.902 512.887 166.356C511.406 166.809 509.806 166.656 508.439 165.929L495.551 159.084L492.813 164.239C492.45 164.922 491.83 165.434 491.09 165.66C490.35 165.887 489.55 165.81 488.866 165.447C488.183 165.084 487.671 164.464 487.445 163.724C487.218 162.984 487.295 162.184 487.658 161.501L490.396 156.345L480.086 150.869L477.348 156.024C476.984 156.708 476.365 157.219 475.625 157.446C474.884 157.672 474.084 157.596 473.401 157.232C472.717 156.869 472.206 156.25 471.979 155.509C471.753 154.769 471.829 153.969 472.192 153.286L474.931 148.131L462.043 141.285C460.676 140.559 459.653 139.319 459.2 137.839C458.746 136.358 458.9 134.759 459.626 133.391L466.472 120.504L461.316 117.765C460.633 117.402 460.121 116.782 459.895 116.042C459.668 115.302 459.745 114.502 460.108 113.819C460.471 113.135 461.091 112.624 461.831 112.397C462.571 112.17 463.371 112.247 464.055 112.61L469.21 115.348L474.686 105.038L469.531 102.3C468.848 101.937 468.336 101.317 468.11 100.577C467.883 99.8366 467.96 99.0367 468.323 98.3531ZM481.937 128.718C481.574 129.402 481.497 130.202 481.724 130.942C481.951 131.682 482.462 132.302 483.146 132.665L503.766 143.618C504.45 143.981 505.25 144.058 505.99 143.831C506.73 143.605 507.35 143.093 507.713 142.41L518.666 121.789C519.029 121.106 519.106 120.306 518.879 119.565C518.653 118.825 518.141 118.206 517.458 117.842L496.837 106.889C496.153 106.526 495.353 106.45 494.613 106.676C493.873 106.903 493.253 107.414 492.89 108.098L481.937 128.718Z" fill="#E10531"/>
<g clip-path="url(#clip3_1165_1066)">
<path fill-rule="evenodd" clip-rule="evenodd" d="M507.437 232.357C506.778 230.549 504.222 230.549 503.563 232.357L500.574 240.575L492.357 243.564C490.548 244.222 490.548 246.779 492.357 247.437L500.574 250.426L503.563 258.644C504.222 260.452 506.778 260.452 507.437 258.644L510.426 250.426L518.643 247.437C520.452 246.779 520.452 244.222 518.643 243.564L510.426 240.575L507.437 232.357Z" fill="#FEE333"/>
</g>
<g clip-path="url(#clip4_1165_1066)">
<path fill-rule="evenodd" clip-rule="evenodd" d="M980.437 364.357C979.778 362.549 977.222 362.549 976.563 364.357L973.574 372.575L965.357 375.564C963.548 376.222 963.548 378.779 965.357 379.437L973.574 382.426L976.563 390.644C977.222 392.452 979.778 392.452 980.437 390.644L983.426 382.426L991.643 379.437C993.452 378.779 993.452 376.222 991.643 375.564L983.426 372.575L980.437 364.357Z" fill="#FEE333"/>
</g>
<g clip-path="url(#clip5_1165_1066)">
<path d="M646.473 397.196C647.346 397.642 647.926 398.499 647.926 399.433V444.102C647.926 449.559 652.635 453.984 658.445 453.984L676.876 453.984C685.423 453.984 693.939 450.253 696.925 442.731C699.059 437.358 700.137 431.604 700.838 424.553C700.985 423.078 702.451 422.031 703.997 422.322L714.194 409.1L646.473 397.196Z" fill="#61D243"/>
<path d="M661.236 445.599C661.236 443.785 659.669 442.312 657.738 442.312C655.805 442.312 654.239 443.785 654.239 445.599V453.161C656.413 454.016 657.984 454.116 661.236 453.99V445.599Z" fill="#499136"/>
<path d="M675.231 445.599C675.231 443.785 673.665 442.312 671.733 442.312C669.8 442.312 668.234 443.785 668.234 445.599V454.003H675.231V445.599Z" fill="#499136"/>
<path d="M689.111 451.095V445.18C688.228 443.25 687.469 442.711 685.614 442.55C668.63 439.733 660.824 435.579 647.826 426.776V400.483C647.491 398.765 647.029 398.047 645.728 397.196L716.441 409.199C715.752 409.482 703.504 423.395 703.108 424.146C702.135 430.459 701.202 433.883 698.909 439.922C696.252 446.159 694.042 448.872 689.111 451.095Z" fill="#5EBE45"/>
<path d="M689.227 445.599C689.227 443.785 687.66 442.312 685.728 442.312C683.795 442.312 682.229 443.785 682.229 445.599V453.489C685.024 452.9 686.571 452.354 689.227 451.065V445.599Z" fill="#499136"/>
<path d="M816.557 383.222C816.034 384.051 815.973 385.084 816.449 385.887L839.248 424.298C842.034 428.99 840.242 435.199 835.246 438.165L819.396 447.573C812.047 451.937 802.819 453.076 796.412 448.132C791.835 444.601 787.971 440.204 783.769 434.497C782.89 433.304 781.095 433.153 779.914 434.192L761.206 416.619L816.557 383.222Z" fill="#61D243"/>
<path d="M828.567 432.379C827.641 430.819 828.236 428.754 829.897 427.767C831.56 426.781 833.658 427.248 834.584 428.808L838.443 435.31C837.01 437.155 835.71 438.043 832.85 439.595L828.567 432.379Z" fill="#499136"/>
<path d="M816.532 439.524C815.606 437.963 816.202 435.898 817.863 434.912C819.525 433.925 821.623 434.392 822.549 435.952L826.838 443.179L820.822 446.751L816.532 439.524Z" fill="#499136"/>
<path d="M807.401 451.335L804.382 446.248C804.156 444.137 804.534 443.287 806.047 442.202C819.214 431.109 823.807 423.553 830.491 409.348L817.071 386.739C816.483 385.09 816.513 384.237 817.198 382.841L760.784 416.829C761.521 416.721 780.529 434.963 781.252 435.407C785.311 440.339 788.218 442.706 793.273 446.729C798.742 450.736 802.026 451.94 807.401 451.335Z" fill="#5EBE45"/>
<path d="M804.496 446.668C803.57 445.108 804.167 443.041 805.828 442.056C807.49 441.069 809.588 441.535 810.514 443.096L814.541 449.88C811.837 450.801 810.228 451.121 807.286 451.368L804.496 446.668Z" fill="#499136"/>
<path d="M798.546 403.597C843.862 379.172 819.076 287.768 800.845 244.776H726.161H652.052C633.635 288.22 608.593 380.232 654.303 403.606L701.647 424.283L704.177 424.758C718.037 427.362 732.308 427.391 746.181 424.841L749.281 424.271L798.546 403.597Z" fill="#61D243"/>
<path d="M726.322 428.702C770.851 428.702 806.949 388.256 806.949 338.362C806.949 288.469 770.851 248.022 726.322 248.022C681.793 248.022 645.695 288.469 645.695 338.362C645.695 388.256 681.793 428.702 726.322 428.702Z" fill="#ABF47D"/>
<path d="M806.373 350.804C797.281 391.935 784.89 408.939 750.51 424.374L799.187 403.927C808.759 398.365 811.735 393.137 816.703 384.407L816.74 384.344C823.75 367.754 825.474 356.348 823.65 331.33C821.264 345.781 818.225 351.214 806.373 350.804Z" fill="#5EBE45"/>
<path d="M646.372 350.804C655.464 391.935 667.856 408.939 702.238 424.374L653.859 403.277C644.263 397.702 640.995 393.111 636.005 384.344C628.994 367.754 627.27 356.348 629.094 331.33C631.48 345.781 634.519 351.214 646.372 350.804Z" fill="#5EBE45"/>
<path d="M791.975 370.278C793.247 370.278 794.278 369.31 794.278 368.115C794.278 366.92 793.247 365.951 791.975 365.951C790.703 365.951 789.671 366.92 789.671 368.115C789.671 369.31 790.703 370.278 791.975 370.278Z" fill="#9EE075"/>
<path d="M657.213 370.278C658.485 370.278 659.517 369.31 659.517 368.115C659.517 366.92 658.485 365.951 657.213 365.951C655.941 365.951 654.909 366.92 654.909 368.115C654.909 369.31 655.941 370.278 657.213 370.278Z" fill="#9EE075"/>
<path d="M780.457 378.933C781.729 378.933 782.761 377.965 782.761 376.769C782.761 375.574 781.729 374.605 780.457 374.605C779.185 374.605 778.153 375.574 778.153 376.769C778.153 377.965 779.185 378.933 780.457 378.933Z" fill="#9EE075"/>
<path d="M667.579 378.933C668.851 378.933 669.883 377.965 669.883 376.769C669.883 375.574 668.851 374.605 667.579 374.605C666.307 374.605 665.275 375.574 665.275 376.769C665.275 377.965 666.307 378.933 667.579 378.933Z" fill="#9EE075"/>
<path d="M778.153 368.115C779.425 368.115 780.457 367.146 780.457 365.951C780.457 364.756 779.425 363.787 778.153 363.787C776.881 363.787 775.849 364.756 775.849 365.951C775.849 367.146 776.881 368.115 778.153 368.115Z" fill="#9EE075"/>
<path d="M667.579 369.197C668.851 369.197 669.883 368.228 669.883 367.033C669.883 365.838 668.851 364.869 667.579 364.869C666.307 364.869 665.275 365.838 665.275 367.033C665.275 368.228 666.307 369.197 667.579 369.197Z" fill="#9EE075"/>
<path d="M798.311 378.934C786.217 403.818 769.515 425.997 725.454 428.702C689.464 427.079 667.004 405.44 654.333 378.934C711.4 423.08 741.836 422.708 798.311 378.934Z" fill="#9EE075"/>
<path d="M647.093 236.332H661.734C653.09 255.603 637.733 279.757 632.86 312.331C620.632 314.525 610.419 302.91 614.95 291.343C624.143 267.876 633.072 254.464 647.093 236.332Z" fill="#417932"/>
<path d="M803.259 236.754H788.852C797.358 255.78 812.47 279.627 817.266 311.787C829.3 313.954 839.361 302.529 834.917 291.136C825.861 267.924 817.071 254.674 803.259 236.754Z" fill="#417932"/>
<g filter="url(#filter2_d_1165_1066)">
<path fill-rule="evenodd" clip-rule="evenodd" d="M624.267 168.98C624.267 172.159 624.986 175.225 626.321 178.113C616.981 184.839 611.648 193.027 611.648 202.535C611.648 229.868 662.495 257.06 725.218 257.06C787.94 257.06 836.263 231.546 836.263 204.212C837.078 194.742 832.338 186.407 823.44 179.459C825.205 176.185 826.168 172.657 826.168 168.98C826.168 151.838 805.264 137.942 779.478 137.942C760.31 137.942 743.839 145.622 736.647 156.605C732.889 156.467 729.076 156.397 725.218 156.397C721.355 156.397 717.538 156.461 713.776 156.587C706.579 145.613 690.116 137.942 670.957 137.942C645.171 137.942 624.267 151.838 624.267 168.98Z" fill="#61D243"/>
</g>
<g filter="url(#filter3_d_1165_1066)">
<path d="M806.551 197.502C778.701 200.63 752.215 203.578 724.672 197.502C700.622 201.35 660.059 201.006 645.02 197.502C647.112 275.761 801.564 279.489 807.401 201.318C807.495 200.064 807.401 198.752 806.551 197.502Z" fill="#ABF47D"/>
</g>
<path d="M632.789 141.949C637.504 128.077 643.52 124.018 662.276 116.195C662.92 115.927 663.75 115.937 664.383 116.217L664.807 116.404C688.113 126.699 695.531 129.976 695.057 137.362C695.05 137.467 694.826 137.489 694.721 137.413C679.445 126.414 652.689 129.034 636.783 139.598C635.61 140.377 634.398 141.204 633.129 142.082C632.986 142.18 632.743 142.085 632.789 141.949Z" fill="#333333"/>
<path d="M816.325 141.949C811.862 128.077 806.168 124.018 788.417 116.195C787.808 115.927 787.022 115.937 786.423 116.217L786.021 116.404C763.964 126.699 756.944 129.976 757.392 137.362C757.398 137.467 757.611 137.489 757.71 137.413C772.169 126.414 797.49 129.034 812.545 139.598C813.655 140.377 814.802 141.204 816.003 142.082C816.138 142.18 816.368 142.085 816.325 141.949Z" fill="#333333"/>
<path d="M636.121 193.322C644.307 197.531 651.219 199.831 664.187 200.624L649.949 218.599C635.497 209.158 631.42 203.675 636.121 193.322Z" fill="#ABF47D"/>
<path d="M816.069 193.688C807.638 198.047 800.518 200.428 787.163 201.25L801.827 219.865C816.712 210.088 820.91 204.409 816.069 193.688Z" fill="#ABF47D"/>
<path d="M816.314 193.353C804.746 199.727 787.563 200.655 771.502 200.654C757.641 200.654 745.647 199.937 729.961 198.184C726.5 197.797 722.942 197.737 719.452 198.026C698.991 199.72 687.166 200.794 664.17 200.654C651.203 199.861 644.291 197.562 636.105 193.353" stroke="#499036" stroke-width="5" stroke-linecap="round"/>
<path d="M632.242 219.199C639.71 223.511 648.095 222.971 650.969 217.992C653.844 213.013 650.12 205.481 642.652 201.169C635.184 196.857 626.799 197.398 623.925 202.377C621.05 207.356 624.774 214.887 632.242 219.199Z" fill="#EB8884"/>
<path d="M816.161 219.948C823.629 215.636 827.353 208.104 824.478 203.125C821.604 198.146 813.219 197.605 805.751 201.917C798.283 206.229 794.559 213.761 797.434 218.74C800.308 223.719 808.693 224.26 816.161 219.948Z" fill="#EB8884"/>
<path d="M648.66 242.534C638.494 231.881 631.273 221.514 632.419 215.623C633.891 208.057 646.095 207.745 653.436 210.095C658.866 211.833 664.64 215.751 669.485 220.414C673.671 224.442 676.141 229.897 676.999 235.643C679.815 254.507 675.281 266.159 664.202 284.379C652.78 301.617 646.244 308.839 634.094 312.542C632.54 313.127 629.261 312.966 624.904 312.293C607.509 309.604 609.361 288.025 626.791 285.578C632.162 284.824 636.885 281.577 639.407 276.776C648.37 259.716 651.195 251.334 649.653 244.322C649.504 243.645 649.139 243.036 648.66 242.534Z" fill="#499136"/>
<path d="M801.543 242.748C811.446 232.333 818.511 222.197 817.572 216.341C816.348 208.71 803.975 208.322 796.636 210.746C791.366 212.486 785.784 216.295 781.082 220.822C776.905 224.842 774.447 230.29 773.599 236.025C770.849 254.628 775.32 266.141 786.221 284.13C797.475 301.173 803.915 308.314 815.888 311.975C817.424 312.556 820.673 312.393 824.989 311.721C842.16 309.048 840.325 287.744 823.117 285.32C817.804 284.571 813.135 281.355 810.647 276.602C801.823 259.749 799.04 251.464 800.554 244.535C800.702 243.858 801.066 243.25 801.543 242.748Z" fill="#499136"/>
<path d="M789.767 462.642C791.36 462.642 792.651 463.934 792.651 465.527C792.651 467.12 791.36 468.411 789.767 468.411L659.23 468.408C657.637 468.408 656.346 467.117 656.346 465.524C656.346 463.931 657.637 462.64 659.23 462.64L789.767 462.642Z" fill="#F0F0F0"/>
<path d="M810.806 162.109C810.806 178.891 785.766 192.476 784.7 193.037C784.418 193.187 784.104 193.266 783.785 193.266C783.466 193.266 783.152 193.187 782.871 193.037C781.805 192.476 756.765 178.891 756.765 162.109C756.769 158.168 758.347 154.39 761.15 151.603C763.955 148.816 767.757 147.249 771.723 147.244C776.705 147.244 781.066 149.373 783.785 152.972C786.504 149.373 790.866 147.244 795.848 147.244C799.813 147.249 803.616 148.816 806.42 151.603C809.224 154.39 810.801 158.168 810.806 162.109Z" fill="#E6322B"/>
<path d="M878.331 177.925C877.12 181.902 870.15 183.296 869.855 183.352C869.777 183.367 869.696 183.363 869.62 183.339C869.544 183.316 869.474 183.274 869.418 183.219C869.203 183.008 864.195 177.965 865.407 173.988C865.692 173.054 866.343 172.274 867.214 171.818C868.086 171.362 869.108 171.267 870.057 171.555C871.249 171.918 872.138 172.74 872.528 173.791C873.438 173.137 874.635 172.95 875.827 173.313C876.775 173.603 877.571 174.252 878.04 175.116C878.51 175.981 878.614 176.991 878.331 177.925Z" fill="#E6322B"/>
<path d="M570.496 175.586C571.917 180.89 565.08 187.323 564.788 187.591C564.711 187.663 564.617 187.715 564.515 187.742C564.414 187.769 564.307 187.771 564.204 187.748C563.817 187.662 554.68 185.509 553.259 180.205C552.926 178.959 553.11 177.63 553.768 176.51C554.426 175.389 555.506 174.569 556.771 174.229C558.36 173.803 559.932 174.103 561.104 175.008C561.666 173.638 562.877 172.593 564.466 172.167C565.731 171.829 567.077 171.999 568.207 172.64C569.338 173.282 570.161 174.341 570.496 175.586Z" fill="#AE1F19"/>
<path d="M594.395 239.379C595.316 242.819 590.882 246.991 590.692 247.166C590.642 247.212 590.582 247.246 590.516 247.263C590.45 247.281 590.38 247.282 590.314 247.267C590.063 247.211 584.136 245.815 583.214 242.374C582.999 241.566 583.118 240.705 583.545 239.978C583.972 239.251 584.672 238.719 585.493 238.498C586.523 238.222 587.543 238.417 588.303 239.003C588.668 238.115 589.453 237.437 590.484 237.161C591.304 236.942 592.177 237.052 592.91 237.468C593.643 237.884 594.177 238.571 594.395 239.379Z" fill="#E6322B"/>
<path d="M590.412 316.477C591.028 318.775 588.065 321.562 587.939 321.679C587.905 321.71 587.865 321.732 587.821 321.744C587.777 321.756 587.73 321.757 587.686 321.747C587.518 321.709 583.559 320.776 582.943 318.478C582.799 317.938 582.879 317.363 583.164 316.877C583.449 316.392 583.917 316.036 584.465 315.889C585.154 315.704 585.835 315.834 586.342 316.227C586.586 315.633 587.111 315.18 587.799 314.995C588.347 314.849 588.93 314.923 589.42 315.201C589.91 315.478 590.267 315.937 590.412 316.477Z" fill="#EB8884"/>
<path d="M852.992 246.634C852.772 250.786 846.343 253.815 846.069 253.94C845.998 253.973 845.918 253.988 845.839 253.984C845.759 253.98 845.681 253.956 845.613 253.916C845.354 253.762 839.281 250.071 839.501 245.92C839.554 244.945 839.997 244.032 840.733 243.379C841.47 242.727 842.439 242.39 843.429 242.441C844.673 242.506 845.735 243.091 846.366 244.017C847.092 243.163 848.209 242.694 849.453 242.76C850.443 242.813 851.371 243.251 852.035 243.977C852.698 244.704 853.042 245.66 852.992 246.634Z" fill="#E86A90"/>
<path d="M695.124 162.109C695.124 178.891 670.084 192.476 669.018 193.037C668.737 193.187 668.423 193.266 668.104 193.266C667.784 193.266 667.47 193.187 667.189 193.037C666.123 192.476 641.083 178.891 641.083 162.109C641.088 158.168 642.665 154.39 645.469 151.603C648.273 148.816 652.075 147.249 656.041 147.244C661.023 147.244 665.385 149.373 668.104 152.972C670.822 149.373 675.184 147.244 680.166 147.244C684.132 147.249 687.934 148.816 690.738 151.603C693.542 154.39 695.119 158.168 695.124 162.109Z" fill="#E6322B"/>
<path d="M892.318 272.729C892.88 271.639 894.51 271.906 894.695 273.119L894.826 273.979C894.909 274.522 895.332 274.949 895.873 275.038L896.732 275.179C897.943 275.377 898.192 277.01 897.096 277.561L896.319 277.951C895.829 278.198 895.552 278.732 895.636 279.274L895.767 280.135C895.952 281.348 894.477 282.089 893.614 281.217L893.002 280.598C892.616 280.208 892.023 280.111 891.533 280.357L890.755 280.748C889.659 281.299 888.498 280.125 889.061 279.035L889.461 278.262C889.712 277.774 889.621 277.18 889.236 276.79L888.623 276.171C887.761 275.299 888.518 273.832 889.729 274.03L890.588 274.171C891.129 274.26 891.667 273.99 891.918 273.503L892.318 272.729Z" fill="#AE1F19"/>
<path d="M605.647 127.064C606.21 125.974 607.839 126.241 608.025 127.454L608.156 128.314C608.239 128.857 608.662 129.284 609.203 129.373L610.062 129.514C611.273 129.712 611.522 131.344 610.426 131.896L609.648 132.286C609.158 132.533 608.882 133.067 608.965 133.609L609.096 134.47C609.282 135.683 607.807 136.424 606.944 135.552L606.332 134.933C605.946 134.543 605.353 134.446 604.862 134.692L604.085 135.083C602.989 135.634 601.828 134.46 602.391 133.37L602.79 132.597C603.042 132.109 602.951 131.515 602.565 131.125L601.953 130.506C601.09 129.634 601.848 128.167 603.059 128.365L603.917 128.506C604.459 128.595 604.996 128.325 605.248 127.837L605.647 127.064Z" fill="#E86A90"/>
</g>
<defs>
<filter id="filter0_d_1165_1066" x="0.399902" y="128.3" width="311.737" height="142.8" filterUnits="userSpaceOnUse" color-interpolation-filters="sRGB">
<feFlood flood-opacity="0" result="BackgroundImageFix"/>
<feColorMatrix in="SourceAlpha" type="matrix" values="0 0 0 0 0 0 0 0 0 0 0 0 0 0 0 0 0 0 127 0" result="hardAlpha"/>
<feOffset dx="4" dy="4"/>
<feGaussianBlur stdDeviation="2"/>
<feComposite in2="hardAlpha" operator="out"/>
<feColorMatrix type="matrix" values="0 0 0 0 0 0 0 0 0 0 0 0 0 0 0 0 0 0 0.08 0"/>
<feBlend mode="normal" in2="BackgroundImageFix" result="effect1_dropShadow_1165_1066"/>
<feBlend mode="normal" in="SourceGraphic" in2="effect1_dropShadow_1165_1066" result="shape"/>
</filter>
<filter id="filter1_d_1165_1066" x="2.0498" y="301.856" width="379.146" height="43.8115" filterUnits="userSpaceOnUse" color-interpolation-filters="sRGB">
<feFlood flood-opacity="0" result="BackgroundImageFix"/>
<feColorMatrix in="SourceAlpha" type="matrix" values="0 0 0 0 0 0 0 0 0 0 0 0 0 0 0 0 0 0 127 0" result="hardAlpha"/>
<feOffset dx="4" dy="4"/>
<feGaussianBlur stdDeviation="2"/>
<feComposite in2="hardAlpha" operator="out"/>
<feColorMatrix type="matrix" values="0 0 0 0 0 0 0 0 0 0 0 0 0 0 0 0 0 0 0.08 0"/>
<feBlend mode="normal" in2="BackgroundImageFix" result="effect1_dropShadow_1165_1066"/>
<feBlend mode="normal" in="SourceGraphic" in2="effect1_dropShadow_1165_1066" result="shape"/>
</filter>
<filter id="filter2_d_1165_1066" x="601.648" y="129.942" width="244.705" height="139.117" filterUnits="userSpaceOnUse" color-interpolation-filters="sRGB">
<feFlood flood-opacity="0" result="BackgroundImageFix"/>
<feColorMatrix in="SourceAlpha" type="matrix" values="0 0 0 0 0 0 0 0 0 0 0 0 0 0 0 0 0 0 127 0" result="hardAlpha"/>
<feOffset dy="2"/>
<feGaussianBlur stdDeviation="5"/>
<feComposite in2="hardAlpha" operator="out"/>
<feColorMatrix type="matrix" values="0 0 0 0 0 0 0 0 0 0 0 0 0 0 0 0 0 0 0.05 0"/>
<feBlend mode="normal" in2="BackgroundImageFix" result="effect1_dropShadow_1165_1066"/>
<feBlend mode="normal" in="SourceGraphic" in2="effect1_dropShadow_1165_1066" result="shape"/>
</filter>
<filter id="filter3_d_1165_1066" x="635.02" y="189.502" width="182.411" height="80.6035" filterUnits="userSpaceOnUse" color-interpolation-filters="sRGB">
<feFlood flood-opacity="0" result="BackgroundImageFix"/>
<feColorMatrix in="SourceAlpha" type="matrix" values="0 0 0 0 0 0 0 0 0 0 0 0 0 0 0 0 0 0 127 0" result="hardAlpha"/>
<feOffset dy="2"/>
<feGaussianBlur stdDeviation="5"/>
<feComposite in2="hardAlpha" operator="out"/>
<feColorMatrix type="matrix" values="0 0 0 0 0 0 0 0 0 0 0 0 0 0 0 0 0 0 0.05 0"/>
<feBlend mode="normal" in2="BackgroundImageFix" result="effect1_dropShadow_1165_1066"/>
<feBlend mode="normal" in="SourceGraphic" in2="effect1_dropShadow_1165_1066" result="shape"/>
</filter>
<clipPath id="clip0_1165_1066">
<rect width="100" height="100" fill="white" transform="translate(886.983 369) rotate(15.06)"/>
</clipPath>
<clipPath id="clip1_1165_1066">
<rect width="113.548" height="113.548" fill="white" transform="translate(927.501 85) rotate(10.9153)"/>
</clipPath>
<clipPath id="clip2_1165_1066">
<rect width="111.025" height="111.025" fill="white" transform="translate(469.7 441.775) rotate(-16.9111)"/>
</clipPath>
<clipPath id="clip3_1165_1066">
<rect width="29" height="29" fill="white" transform="translate(491 231)"/>
</clipPath>
<clipPath id="clip4_1165_1066">
<rect width="29" height="29" fill="white" transform="translate(964 363)"/>
</clipPath>
<clipPath id="clip5_1165_1066">
<rect width="350" height="352.551" fill="white" transform="translate(552 116)"/>
</clipPath>
</defs>
</svg>
