<svg width="68" height="69" viewBox="0 0 68 69" fill="none" xmlns="http://www.w3.org/2000/svg">
<path d="M43.4446 31.7072L39.2833 44.662L26.1696 40.551L30.331 27.5962L43.4446 31.7072ZM18.5405 64.3014C17.9608 64.1197 17.478 63.7179 17.1981 63.1845C16.9183 62.6511 16.8645 62.0298 17.0484 61.4571L18.4355 57.1389L7.50754 53.7131C6.34822 53.3496 5.38254 52.5461 4.82291 51.4793C4.26329 50.4125 4.15557 49.1698 4.52346 48.0245L7.99127 37.2288L3.62007 35.8585C3.04041 35.6768 2.55756 35.275 2.27775 34.7416C1.99794 34.2082 1.94409 33.5869 2.12803 33.0142C2.31197 32.4416 2.71865 31.9646 3.2586 31.6882C3.79854 31.4117 4.42753 31.3585 5.00719 31.5403L9.3784 32.9106L12.1526 24.2741L7.78144 22.9037C7.20178 22.722 6.71894 22.3203 6.43912 21.7869C6.15931 21.2535 6.10546 20.6321 6.2894 20.0595C6.47335 19.4868 6.88002 19.0098 7.41997 18.7334C7.95992 18.457 8.58891 18.4038 9.16857 18.5855L13.5398 19.9558L17.0076 9.16016C17.3755 8.01489 18.1888 7.0609 19.2687 6.50805C20.3486 5.95521 21.6066 5.8488 22.7659 6.21223L33.6939 9.63804L35.081 5.31978C35.265 4.74714 35.6717 4.27015 36.2116 3.99372C36.7516 3.7173 37.3806 3.6641 37.9602 3.84581C38.5399 4.02753 39.0227 4.42928 39.3025 4.96269C39.5823 5.4961 39.6362 6.11747 39.4522 6.6901L38.0651 11.0084L46.8075 13.749L48.1947 9.43075C48.3786 8.85811 48.7853 8.38112 49.3252 8.10469C49.8652 7.82827 50.4942 7.77506 51.0738 7.95678C51.6535 8.1385 52.1363 8.54025 52.4161 9.07366C52.6959 9.60706 52.7498 10.2284 52.5659 10.8011L51.1787 15.1193L62.1067 18.5451C63.2661 18.9086 64.2318 19.7121 64.7914 20.7789C65.351 21.8457 65.4587 23.0884 65.0908 24.2337L61.623 35.0294L65.9942 36.3997C66.5739 36.5814 67.0567 36.9832 67.3365 37.5166C67.6163 38.05 67.6702 38.6713 67.4863 39.244C67.3023 39.8166 66.8956 40.2936 66.3557 40.57C65.8157 40.8464 65.1867 40.8997 64.6071 40.7179L60.2359 39.3476L57.4616 47.9841L61.8328 49.3545C62.4125 49.5362 62.8953 49.9379 63.1752 50.4713C63.455 51.0047 63.5088 51.6261 63.3249 52.1987C63.1409 52.7714 62.7343 53.2484 62.1943 53.5248C61.6544 53.8012 61.0254 53.8544 60.4457 53.6727L56.0745 52.3024L52.6067 63.098C52.2388 64.2433 51.4255 65.1973 50.3456 65.7501C49.2657 66.303 48.0077 66.4094 46.8484 66.046L35.9204 62.6202L34.5332 66.9384C34.3493 67.5111 33.9426 67.9881 33.4027 68.2645C32.8627 68.5409 32.2337 68.5941 31.6541 68.4124C31.0744 68.2307 30.5916 67.8289 30.3118 67.2955C30.0319 66.7621 29.9781 66.1407 30.162 65.5681L31.5492 61.2498L22.8068 58.5092L21.4196 62.8274C21.2357 63.4001 20.829 63.8771 20.2891 64.1535C19.7491 64.4299 19.1201 64.4831 18.5405 64.3014ZM40.0817 49.6654C40.6614 49.8471 41.2904 49.7939 41.8303 49.5175C42.3703 49.2411 42.777 48.7641 42.9609 48.1914L48.5094 30.9184C48.6933 30.3458 48.6395 29.7244 48.3597 29.191C48.0799 28.6576 47.597 28.2558 47.0174 28.0741L29.5325 22.5928C28.9529 22.4111 28.3239 22.4643 27.7839 22.7407C27.244 23.0171 26.8373 23.4941 26.6534 24.0668L21.1049 41.3398C20.9209 41.9124 20.9748 42.5338 21.2546 43.0672C21.5344 43.6006 22.0173 44.0024 22.5969 44.1841L40.0817 49.6654Z" fill="#F89701"/>
<path d="M41.6801 28.8322L37.5188 41.787L24.4052 37.676L28.5665 24.7213L41.6801 28.8322ZM16.776 61.4265C16.1963 61.2447 15.7135 60.843 15.4337 60.3096C15.1538 59.7762 15.1 59.1548 15.2839 58.5822L16.6711 54.2639L5.74305 50.8381C4.58374 50.4747 3.61805 49.6712 3.05842 48.6044C2.4988 47.5375 2.39109 46.2948 2.75898 45.1495L6.22679 34.3539L1.85558 32.9836C1.27593 32.8018 0.793076 32.4001 0.513264 31.8667C0.233453 31.3333 0.1796 30.7119 0.363545 30.1393C0.547489 29.5666 0.954163 29.0896 1.49411 28.8132C2.03406 28.5368 2.66305 28.4836 3.24271 28.6653L7.61391 30.0356L10.3882 21.3991L6.01696 20.0288C5.4373 19.8471 4.95445 19.4453 4.67464 18.9119C4.39483 18.3785 4.34097 17.7571 4.52492 17.1845C4.70886 16.6119 5.11554 16.1349 5.65548 15.8584C6.19543 15.582 6.82443 15.5288 7.40408 15.7105L11.7753 17.0809L15.2431 6.28521C15.611 5.13993 16.4243 4.18594 17.5042 3.63309C18.5841 3.08025 19.8421 2.97384 21.0014 3.33727L31.9294 6.76308L33.3166 2.44482C33.5005 1.87218 33.9072 1.39519 34.4471 1.11876C34.9871 0.842343 35.6161 0.789138 36.1957 0.970854C36.7754 1.15257 37.2582 1.55432 37.538 2.08773C37.8179 2.62114 37.8717 3.24251 37.6878 3.81514L36.3006 8.1334L45.043 10.874L46.4302 6.55579C46.6141 5.98315 47.0208 5.50616 47.5607 5.22973C48.1007 4.95331 48.7297 4.90011 49.3093 5.08182C49.889 5.26354 50.3718 5.66529 50.6516 6.1987C50.9315 6.73211 50.9853 7.35348 50.8014 7.92611L49.4142 12.2444L60.3423 15.6702C61.5016 16.0336 62.4673 16.8371 63.0269 17.9039C63.5865 18.9707 63.6942 20.2135 63.3263 21.3588L59.8585 32.1544L64.2297 33.5247C64.8094 33.7064 65.2922 34.1082 65.572 34.6416C65.8519 35.175 65.9057 35.7964 65.7218 36.369C65.5378 36.9417 65.1311 37.4186 64.5912 37.6951C64.0513 37.9715 63.4223 38.0247 62.8426 37.843L58.4714 36.4727L55.6972 45.1092L60.0684 46.4795C60.648 46.6612 61.1309 47.063 61.4107 47.5964C61.6905 48.1298 61.7443 48.7512 61.5604 49.3238C61.3765 49.8964 60.9698 50.3734 60.4298 50.6498C59.8899 50.9263 59.2609 50.9795 58.6812 50.7978L54.31 49.4274L50.8422 60.2231C50.4743 61.3683 49.661 62.3223 48.5811 62.8752C47.5012 63.428 46.2432 63.5344 45.0839 63.171L34.1559 59.7452L32.7688 64.0635C32.5848 64.6361 32.1781 65.1131 31.6382 65.3895C31.0982 65.6659 30.4692 65.7191 29.8896 65.5374C29.3099 65.3557 28.8271 64.954 28.5473 64.4206C28.2675 63.8871 28.2136 63.2658 28.3976 62.6931L29.7847 58.3749L21.0423 55.6342L19.6551 59.9525C19.4712 60.5251 19.0645 61.0021 18.5246 61.2785C17.9846 61.555 17.3556 61.6082 16.776 61.4265ZM38.3173 46.7904C38.8969 46.9721 39.5259 46.9189 40.0658 46.6425C40.6058 46.3661 41.0125 45.8891 41.1964 45.3165L46.7449 28.0434C46.9289 27.4708 46.875 26.8494 46.5952 26.316C46.3154 25.7826 45.8325 25.3809 45.2529 25.1991L27.7681 19.7178C27.1884 19.5361 26.5594 19.5893 26.0195 19.8658C25.4795 20.1422 25.0728 20.6192 24.8889 21.1918L19.3404 38.4648C19.1565 39.0375 19.2103 39.6589 19.4901 40.1923C19.7699 40.7257 20.2528 41.1274 20.8324 41.3091L38.3173 46.7904Z" fill="#FEE333"/>
</svg>
