<svg width="60" height="82" viewBox="0 0 60 82" fill="none" xmlns="http://www.w3.org/2000/svg">
<path d="M43.5459 69.0299C43.6787 71.412 42.8598 73.7494 41.2693 75.5278C39.6788 77.3062 37.447 78.3799 35.0648 78.5127C32.6826 78.6456 30.3453 77.8267 28.5669 76.2362C26.7885 74.6457 25.7148 72.4139 25.5819 70.0317C25.4491 67.6495 26.268 65.3122 27.8585 63.5338C29.449 61.7554 31.6808 60.6817 34.063 60.5488C36.4451 60.416 38.7825 61.2349 40.5609 62.8254C42.3393 64.4159 43.413 66.6477 43.5459 69.0299Z" fill="#1F9DD3"/>
<path fill-rule="evenodd" clip-rule="evenodd" d="M31.5663 18.1248C28.5574 18.2926 26.0252 19.3348 24.2779 20.7206C22.5956 22.0578 21.8092 23.5478 21.6271 24.8058C21.3482 26.4894 20.4206 27.9966 19.0432 29.0041C17.6658 30.0116 15.9485 30.4391 14.2595 30.1949C12.5706 29.9507 11.0446 29.0543 10.009 27.6979C8.97334 26.3416 8.51058 24.6334 8.71995 22.9397C9.4574 17.826 12.3619 13.524 16.1754 10.4957C20.1443 7.34619 25.2892 5.41046 30.84 5.1009C42.3235 4.46049 54.6573 11.4761 55.3451 23.8084C55.7433 30.949 51.8214 36.9611 46.5123 40.6359C45.0892 41.6197 43.3336 41.9979 41.6316 41.6873C39.9297 41.3767 38.4209 40.4027 37.4371 38.9796C36.4532 37.5566 36.075 35.8009 36.3856 34.099C36.6963 32.3971 37.6702 30.8882 39.0933 29.9044C41.5658 28.1943 42.4109 26.1425 42.3212 24.5347C42.1775 21.9569 38.7205 17.7258 31.5663 18.1248Z" fill="#1F9DD3"/>
<path fill-rule="evenodd" clip-rule="evenodd" d="M32.5344 35.4827C36.1272 35.2823 39.2086 38.0297 39.4095 41.6315L39.7857 48.3769C39.882 50.104 39.2883 51.7986 38.1352 53.0879C36.982 54.3772 35.364 55.1557 33.6369 55.252C31.9098 55.3483 30.2152 54.7546 28.9259 53.6015C27.6366 52.4484 26.8581 50.8303 26.7618 49.1032L26.3856 42.3578C26.1853 38.765 28.9371 35.6833 32.5344 35.4827Z" fill="#1F9DD3"/>
<path fill-rule="evenodd" clip-rule="evenodd" d="M48.2164 31.6164C48.6973 32.326 49.0335 33.1234 49.2059 33.963C49.3784 34.8027 49.3836 35.668 49.2213 36.5097C49.0591 37.3514 48.7325 38.1528 48.2603 38.8681C47.7881 39.5835 47.1795 40.1987 46.4693 40.6787L36.5543 47.3899C35.1221 48.3599 33.3632 48.7212 31.6646 48.3944C29.966 48.0675 28.4667 47.0793 27.4967 45.6471C26.5268 44.2148 26.1655 42.456 26.4923 40.7573C26.8191 39.0587 27.8074 37.5595 29.2396 36.5895L39.1589 29.8736C39.8683 29.3934 40.6654 29.0578 41.5046 28.8857C42.3438 28.7137 43.2086 28.7087 44.0497 28.871C44.8909 29.0332 45.6918 29.3596 46.4067 29.8314C47.1217 30.3033 47.7365 30.9068 48.2164 31.6164Z" fill="#1F9DD3"/>
<path d="M39.8532 67.434C39.9861 69.8162 39.1672 72.1535 37.5767 73.9319C35.9861 75.7103 33.7543 76.784 31.3722 76.9169C28.99 77.0497 26.6526 76.2308 24.8742 74.6403C23.0958 73.0498 22.0221 70.818 21.8893 68.4358C21.7564 66.0537 22.5753 63.7163 24.1658 61.9379C25.7563 60.1595 27.9882 59.0858 30.3703 58.9529C32.7525 58.8201 35.0899 59.639 36.8683 61.2295C38.6466 62.82 39.7204 65.0518 39.8532 67.434Z" fill="#46C4FF"/>
<path fill-rule="evenodd" clip-rule="evenodd" d="M27.8737 16.529C24.8648 16.6969 22.3325 17.7391 20.5853 19.1249C18.903 20.4621 18.1166 21.9521 17.9345 23.2101C17.6556 24.8937 16.728 26.4009 15.3506 27.4084C13.9732 28.4159 12.2558 28.8434 10.5669 28.5992C8.87793 28.355 7.35195 27.4586 6.31633 26.1022C5.28071 24.7459 4.81795 23.0377 5.02733 21.344C5.76477 16.2303 8.66931 11.9283 12.4828 8.90004C16.4517 5.75048 21.5965 3.81475 27.1474 3.50519C38.6308 2.86478 50.9647 9.88041 51.6525 22.2127C52.0507 29.3533 48.1288 35.3654 42.8197 39.0402C41.3966 40.024 39.641 40.4022 37.939 40.0916C36.2371 39.781 34.7282 38.807 33.7444 37.3839C32.7606 35.9608 32.3824 34.2052 32.693 32.5033C33.0036 30.8014 33.9776 29.2925 35.4007 28.3087C37.8731 26.5986 38.7183 24.5467 38.6286 22.939C38.4848 20.3611 35.0278 16.1301 27.8737 16.529Z" fill="#46C4FF"/>
<path fill-rule="evenodd" clip-rule="evenodd" d="M28.8418 33.8868C32.4345 33.6865 35.516 36.4338 35.7168 40.0356L36.093 46.7811C36.1893 48.5081 35.5956 50.2027 34.4425 51.4921C33.2894 52.7814 31.6713 53.5598 29.9443 53.6561C28.2172 53.7525 26.5226 53.1588 25.2333 52.0056C23.9439 50.8525 23.1655 49.2344 23.0692 47.5074L22.693 40.7619C22.4926 37.1691 25.2445 34.0874 28.8418 33.8868Z" fill="#46C4FF"/>
<path fill-rule="evenodd" clip-rule="evenodd" d="M44.5238 30.0205C45.0046 30.7301 45.3409 31.5275 45.5133 32.3672C45.6857 33.2068 45.691 34.0722 45.5287 34.9138C45.3664 35.7555 45.0399 36.5569 44.5677 37.2722C44.0954 37.9876 43.4869 38.6029 42.7767 39.0828L32.8617 45.794C31.4294 46.764 29.6705 47.1253 27.9719 46.7985C26.2733 46.4716 24.7741 45.4834 23.8041 44.0512C22.8341 42.619 22.4728 40.8601 22.7997 39.1615C23.1265 37.4628 24.1147 35.9636 25.547 34.9936L35.4662 28.2777C36.1757 27.7976 36.9727 27.4619 37.8119 27.2899C38.6511 27.1178 39.516 27.1128 40.3571 27.2751C41.1982 27.4373 41.9991 27.7637 42.7141 28.2356C43.4291 28.7074 44.0438 29.311 44.5238 30.0205Z" fill="#46C4FF"/>
</svg>
