<svg width="172" height="175" viewBox="0 0 172 175" fill="none" xmlns="http://www.w3.org/2000/svg">
<path d="M102.04 82.4563L95.091 104.354L73.193 97.4053L80.142 75.5074L102.04 82.4563ZM60.4534 137.552C59.4854 137.244 58.6791 136.565 58.2119 135.664C57.7446 134.762 57.6547 133.712 57.9619 132.744L60.2782 125.444L42.0299 119.654C40.094 119.039 38.4814 117.681 37.5469 115.878C36.6124 114.075 36.4326 111.974 37.0469 110.038L42.8377 91.7897L35.5383 89.4734C34.5704 89.1663 33.7641 88.4872 33.2969 87.5855C32.8296 86.6839 32.7397 85.6336 33.0468 84.6656C33.354 83.6977 34.0331 82.8914 34.9347 82.4241C35.8364 81.9569 36.8867 81.867 37.8547 82.1741L45.154 84.4904L49.7866 69.8918L42.4873 67.5755C41.5193 67.2683 40.713 66.5892 40.2458 65.6876C39.7785 64.786 39.6886 63.7356 39.9958 62.7677C40.3029 61.7998 40.982 60.9935 41.8837 60.5262C42.7853 60.059 43.8356 59.969 44.8036 60.2762L52.1029 62.5925L57.8936 44.3442C58.508 42.4083 59.8662 40.7958 61.6695 39.8613C63.4727 38.9268 65.5734 38.7469 67.5093 39.3612L85.7575 45.152L88.0738 37.8527C88.381 36.8847 89.0601 36.0785 89.9617 35.6112C90.8634 35.144 91.9137 35.054 92.8817 35.3612C93.8496 35.6684 94.6559 36.3475 95.1231 37.2491C95.5904 38.1507 95.6803 39.2011 95.3732 40.169L93.0568 47.4683L107.655 52.1009L109.972 44.8016C110.279 43.8337 110.958 43.0274 111.86 42.5601C112.761 42.0929 113.812 42.003 114.78 42.3101C115.748 42.6173 116.554 43.2964 117.021 44.198C117.488 45.0997 117.578 46.15 117.271 47.1179L114.955 54.4172L133.203 60.208C135.139 60.8223 136.752 62.1805 137.686 63.9838C138.621 65.7871 138.8 67.8877 138.186 69.8236L132.395 88.0719L139.695 90.3882C140.663 90.6954 141.469 91.3745 141.936 92.2761C142.403 93.1777 142.493 94.2281 142.186 95.196C141.879 96.164 141.2 96.9702 140.298 97.4375C139.397 97.9047 138.346 97.9947 137.378 97.6875L130.079 95.3712L125.446 109.97L132.746 112.286C133.714 112.593 134.52 113.272 134.987 114.174C135.454 115.076 135.544 116.126 135.237 117.094C134.93 118.062 134.251 118.868 133.349 119.335C132.448 119.803 131.397 119.893 130.429 119.585L123.13 117.269L117.339 135.517C116.725 137.453 115.367 139.066 113.563 140C111.76 140.935 109.66 141.115 107.724 140.5L89.4754 134.71L87.1591 142.009C86.8519 142.977 86.1728 143.783 85.2712 144.25C84.3695 144.718 83.3192 144.808 82.3513 144.5C81.3833 144.193 80.577 143.514 80.1098 142.613C79.6426 141.711 79.5526 140.661 79.8598 139.693L82.1761 132.393L67.5775 127.761L65.2612 135.06C64.954 136.028 64.2749 136.834 63.3733 137.302C62.4716 137.769 61.4213 137.859 60.4534 137.552ZM96.4243 112.812C97.3923 113.119 98.4426 113.029 99.3442 112.562C100.246 112.094 100.925 111.288 101.232 110.32L110.497 81.123C110.805 80.155 110.715 79.1047 110.247 78.2031C109.78 77.3014 108.974 76.6223 108.006 76.3152L78.8086 67.0499C77.8407 66.7428 76.7903 66.8327 75.8887 67.3C74.9871 67.7672 74.308 68.5735 74.0008 69.5414L64.7356 98.7387C64.4284 99.7066 64.5184 100.757 64.9856 101.659C65.4528 102.56 66.2591 103.239 67.2271 103.546L96.4243 112.812Z" fill="#F89701"/>
<path d="M99.0943 77.5969L92.1454 99.4949L70.2475 92.5459L77.1964 70.648L99.0943 77.5969ZM57.5078 132.692C56.5398 132.385 55.7336 131.706 55.2663 130.804C54.7991 129.903 54.7091 128.852 55.0163 127.884L57.3326 120.585L39.0843 114.794C37.1484 114.18 35.5359 112.822 34.6014 111.018C33.6669 109.215 33.487 107.115 34.1013 105.179L39.8921 86.9304L32.5928 84.6141C31.6248 84.3069 30.8185 83.6278 30.3513 82.7262C29.8841 81.8245 29.7941 80.7742 30.1013 79.8063C30.4084 78.8383 31.0875 78.032 31.9892 77.5648C32.8908 77.0975 33.9411 77.0076 34.9091 77.3148L42.2084 79.6311L46.841 65.0324L39.5417 62.7161C38.5738 62.409 37.7675 61.7299 37.3002 60.8282C36.833 59.9266 36.743 58.8763 37.0502 57.9083C37.3574 56.9404 38.0365 56.1341 38.9381 55.6668C39.8397 55.1996 40.8901 55.1097 41.858 55.4168L49.1573 57.7331L54.9481 39.4849C55.5624 37.549 56.9206 35.9364 58.7239 35.0019C60.5272 34.0674 62.6278 33.8875 64.5637 34.5019L82.812 40.2926L85.1283 32.9933C85.4354 32.0254 86.1145 31.2191 87.0162 30.7518C87.9178 30.2846 88.9682 30.1947 89.9361 30.5018C90.904 30.809 91.7103 31.4881 92.1776 32.3897C92.6448 33.2914 92.7348 34.3417 92.4276 35.3096L90.1113 42.6089L104.71 47.2415L107.026 39.9422C107.333 38.9743 108.012 38.168 108.914 37.7008C109.816 37.2335 110.866 37.1436 111.834 37.4507C112.802 37.7579 113.608 38.437 114.076 39.3386C114.543 40.2403 114.633 41.2906 114.326 42.2585L112.009 49.5579L130.257 55.3486C132.193 55.9629 133.806 57.3211 134.74 59.1244C135.675 60.9277 135.855 63.0283 135.24 64.9642L129.45 83.2125L136.749 85.5288C137.717 85.836 138.523 86.5151 138.991 87.4167C139.458 88.3184 139.548 89.3687 139.241 90.3366C138.933 91.3046 138.254 92.1109 137.353 92.5781C136.451 93.0454 135.401 93.1353 134.433 92.8281L127.133 90.5118L122.501 105.11L129.8 107.427C130.768 107.734 131.574 108.413 132.042 109.315C132.509 110.216 132.599 111.267 132.292 112.235C131.984 113.203 131.305 114.009 130.404 114.476C129.502 114.943 128.452 115.033 127.484 114.726L120.184 112.41L114.394 130.658C113.779 132.594 112.421 134.206 110.618 135.141C108.815 136.075 106.714 136.255 104.778 135.641L86.5298 129.85L84.2135 137.15C83.9064 138.118 83.2273 138.924 82.3256 139.391C81.424 139.858 80.3737 139.948 79.4057 139.641C78.4378 139.334 77.6315 138.655 77.1642 137.753C76.697 136.852 76.6071 135.801 76.9142 134.833L79.2305 127.534L64.6319 122.901L62.3156 130.201C62.0084 131.169 61.3293 131.975 60.4277 132.442C59.5261 132.909 58.4757 132.999 57.5078 132.692ZM93.4788 107.952C94.4467 108.259 95.497 108.17 96.3987 107.702C97.3003 107.235 97.9794 106.429 98.2866 105.461L107.552 76.2636C107.859 75.2956 107.769 74.2453 107.302 73.3437C106.835 72.442 106.028 71.7629 105.06 71.4558L75.8631 62.1906C74.8951 61.8834 73.8448 61.9733 72.9431 62.4406C72.0415 62.9078 71.3624 63.7141 71.0553 64.6821L61.79 93.8793C61.4829 94.8472 61.5728 95.8976 62.04 96.7992C62.5073 97.7008 63.3136 98.3799 64.2815 98.6871L93.4788 107.952Z" fill="#FEE333"/>
</svg>
