<svg width="93" height="95" viewBox="0 0 93 95" fill="none" xmlns="http://www.w3.org/2000/svg">
<path d="M55.0147 44.6532L51.2872 56.3994L39.541 52.672L43.2684 40.9258L55.0147 44.6532ZM32.7073 74.2067C32.1881 74.0419 31.7556 73.6777 31.505 73.194C31.2543 72.7104 31.2061 72.147 31.3708 71.6278L32.6133 67.7124L22.8248 64.6062C21.7864 64.2766 20.9214 63.5481 20.4201 62.5808C19.9189 61.6135 19.8224 60.4867 20.1519 59.4483L23.2581 49.6597L19.3427 48.4173C18.8235 48.2525 18.391 47.8882 18.1403 47.4046C17.8897 46.9209 17.8415 46.3575 18.0062 45.8383C18.171 45.3191 18.5353 44.8866 19.0189 44.636C19.5026 44.3853 20.066 44.3371 20.5852 44.5018L24.5006 45.7443L26.9856 37.9135L23.0702 36.671C22.5509 36.5063 22.1184 36.142 21.8678 35.6584C21.6172 35.1747 21.5689 34.6113 21.7337 34.0921C21.8985 33.5729 22.2627 33.1404 22.7464 32.8897C23.23 32.6391 23.7934 32.5909 24.3126 32.7556L28.228 33.9981L31.3343 24.2096C31.6638 23.1712 32.3923 22.3062 33.3596 21.8049C34.3269 21.3036 35.4537 21.2071 36.4922 21.5367L46.2807 24.6429L47.5232 20.7275C47.6879 20.2083 48.0522 19.7758 48.5358 19.5251C49.0195 19.2745 49.5829 19.2263 50.1021 19.391C50.6213 19.5558 51.0538 19.9201 51.3044 20.4037C51.5551 20.8874 51.6033 21.4508 51.4386 21.97L50.1961 25.8854L58.0269 28.3703L59.2694 24.4549C59.4341 23.9357 59.7984 23.5032 60.2821 23.2526C60.7657 23.002 61.3291 22.9537 61.8483 23.1185C62.3675 23.2832 62.8 23.6475 63.0507 24.1312C63.3013 24.6148 63.3495 25.1782 63.1848 25.6974L61.9423 29.6128L71.7308 32.719C72.7692 33.0486 73.6342 33.7771 74.1355 34.7444C74.6368 35.7117 74.7333 36.8385 74.4037 37.8769L71.2975 47.6655L75.2129 48.9079C75.7321 49.0727 76.1646 49.437 76.4153 49.9206C76.6659 50.4043 76.7142 50.9677 76.5494 51.4869C76.3846 52.0061 76.0204 52.4386 75.5367 52.6892C75.0531 52.9399 74.4897 52.9881 73.9704 52.8233L70.055 51.5809L67.5701 59.4117L71.4855 60.6542C72.0047 60.8189 72.4372 61.1832 72.6878 61.6668C72.9385 62.1505 72.9867 62.7139 72.8219 63.2331C72.6572 63.7523 72.2929 64.1848 71.8092 64.4355C71.3256 64.6861 70.7622 64.7343 70.243 64.5696L66.3276 63.3271L63.2214 73.1156C62.8918 74.154 62.1633 75.019 61.196 75.5203C60.2287 76.0216 59.1019 76.118 58.0635 75.7885L48.275 72.6823L47.0325 76.5977C46.8677 77.1169 46.5034 77.5494 46.0198 77.8001C45.5361 78.0507 44.9727 78.0989 44.4535 77.9342C43.9343 77.7694 43.5018 77.4051 43.2512 76.9215C43.0005 76.4378 42.9523 75.8744 43.1171 75.3552L44.3596 71.4398L36.5287 68.9548L35.2863 72.8703C35.1215 73.3895 34.7572 73.822 34.2736 74.0726C33.7899 74.3232 33.2265 74.3715 32.7073 74.2067ZM52.0024 60.9361C52.5216 61.1008 53.085 61.0526 53.5687 60.802C54.0523 60.5513 54.4166 60.1188 54.5814 59.5996L59.5513 43.938C59.7161 43.4188 59.6678 42.8554 59.4172 42.3717C59.1666 41.8881 58.7341 41.5238 58.2148 41.3591L42.5532 36.3891C42.034 36.2243 41.4706 36.2726 40.9869 36.5232C40.5033 36.7739 40.139 37.2064 39.9743 37.7256L35.0043 53.3872C34.8396 53.9064 34.8878 54.4698 35.1384 54.9535C35.3891 55.4371 35.8216 55.8014 36.3408 55.9661L52.0024 60.9361Z" fill="#F89701"/>
<path d="M53.4343 42.0477L49.7069 53.794L37.9607 50.0665L41.6881 38.3203L53.4343 42.0477ZM31.127 71.6012C30.6078 71.4365 30.1753 71.0722 29.9246 70.5886C29.674 70.1049 29.6258 69.5415 29.7905 69.0223L31.033 65.1069L21.2445 62.0007C20.2061 61.6711 19.3411 60.9426 18.8398 59.9753C18.3385 59.008 18.242 57.8812 18.5716 56.8428L21.6778 47.0543L17.7624 45.8118C17.2432 45.647 16.8107 45.2828 16.56 44.7991C16.3094 44.3155 16.2612 43.7521 16.4259 43.2328C16.5907 42.7136 16.955 42.2811 17.4386 42.0305C17.9222 41.7799 18.4857 41.7316 19.0049 41.8964L22.9203 43.1389L25.4052 35.3081L21.4898 34.0656C20.9706 33.9008 20.5381 33.5365 20.2875 33.0529C20.0369 32.5692 19.9886 32.0058 20.1534 31.4866C20.3181 30.9674 20.6824 30.5349 21.1661 30.2843C21.6497 30.0336 22.2131 29.9854 22.7323 30.1502L26.6477 31.3926L29.7539 21.6041C30.0835 20.5657 30.812 19.7007 31.7793 19.1994C32.7466 18.6982 33.8734 18.6017 34.9118 18.9312L44.7003 22.0374L45.9428 18.122C46.1076 17.6028 46.4719 17.1703 46.9555 16.9197C47.4392 16.669 48.0026 16.6208 48.5218 16.7856C49.041 16.9503 49.4735 17.3146 49.7241 17.7982C49.9748 18.2819 50.023 18.8453 49.8582 19.3645L48.6158 23.2799L56.4466 25.7649L57.6891 21.8495C57.8538 21.3303 58.2181 20.8978 58.7017 20.6471C59.1854 20.3965 59.7488 20.3482 60.268 20.513C60.7872 20.6778 61.2197 21.042 61.4703 21.5257C61.721 22.0093 61.7692 22.5727 61.6045 23.092L60.362 27.0074L70.1505 30.1136C71.1889 30.4431 72.0539 31.1716 72.5552 32.1389C73.0565 33.1062 73.1529 34.233 72.8234 35.2715L69.7172 45.06L73.6326 46.3025C74.1518 46.4672 74.5843 46.8315 74.835 47.3152C75.0856 47.7988 75.1338 48.3622 74.9691 48.8814C74.8043 49.4006 74.44 49.8331 73.9564 50.0838C73.4727 50.3344 72.9093 50.3826 72.3901 50.2179L68.4747 48.9754L65.9897 56.8062L69.9051 58.0487C70.4244 58.2135 70.8569 58.5777 71.1075 59.0614C71.3581 59.545 71.4064 60.1084 71.2416 60.6276C71.0768 61.1468 70.7126 61.5793 70.2289 61.83C69.7453 62.0806 69.1819 62.1289 68.6627 61.9641L64.7473 60.7216L61.641 70.5101C61.3115 71.5486 60.583 72.4136 59.6157 72.9148C58.6484 73.4161 57.5216 73.5126 56.4832 73.183L46.6946 70.0768L45.4522 73.9922C45.2874 74.5115 44.9231 74.944 44.4395 75.1946C43.9558 75.4452 43.3924 75.4935 42.8732 75.3287C42.354 75.1639 41.9215 74.7997 41.6709 74.316C41.4202 73.8324 41.372 73.269 41.5367 72.7498L42.7792 68.8343L34.9484 66.3494L33.7059 70.2648C33.5412 70.784 33.1769 71.2165 32.6932 71.4671C32.2096 71.7178 31.6462 71.766 31.127 71.6012ZM50.4221 58.3306C50.9413 58.4954 51.5047 58.4471 51.9884 58.1965C52.472 57.9459 52.8363 57.5134 53.001 56.9942L57.971 41.3325C58.1357 40.8133 58.0875 40.2499 57.8369 39.7663C57.5862 39.2826 57.1537 38.9183 56.6345 38.7536L40.9729 33.7836C40.4537 33.6189 39.8903 33.6671 39.4066 33.9178C38.923 34.1684 38.5587 34.6009 38.3939 35.1201L33.424 50.7817C33.2592 51.3009 33.3075 51.8643 33.5581 52.348C33.8088 52.8316 34.2413 53.1959 34.7605 53.3607L50.4221 58.3306Z" fill="#FEE333"/>
</svg>
