<svg width="46" height="60" viewBox="0 0 46 60" fill="none" xmlns="http://www.w3.org/2000/svg">
<path d="M24 59.1667C22.3958 59.1667 21.0231 58.596 19.8817 57.4546C18.7403 56.3132 18.1686 54.9394 18.1667 53.3333H29.8333C29.8333 54.9375 29.2626 56.3112 28.1213 57.4546C26.9799 58.5979 25.6061 59.1686 24 59.1667ZM12.3333 50.4167V44.5833H35.6667V50.4167H12.3333ZM13.0625 41.6667C9.70833 39.6736 7.04639 37 5.07667 33.6458C3.10694 30.2917 2.12306 26.6458 2.125 22.7083C2.125 16.6319 4.25222 11.4675 8.50667 7.215C12.7611 2.9625 17.9256 0.835278 24 0.833333C30.0744 0.831389 35.2399 2.95861 39.4962 7.215C43.7526 11.4714 45.8789 16.6358 45.875 22.7083C45.875 26.6458 44.8911 30.2917 42.9233 33.6458C40.9556 37 38.2936 39.6736 34.9375 41.6667H13.0625Z" fill="#F89701"/>
<path d="M21.875 58.3333C20.2708 58.3333 18.8981 57.7626 17.7567 56.6213C16.6153 55.4799 16.0436 54.1061 16.0417 52.5H27.7083C27.7083 54.1042 27.1376 55.4779 25.9963 56.6213C24.8549 57.7646 23.4811 58.3353 21.875 58.3333ZM10.2083 49.5833V43.75H33.5417V49.5833H10.2083ZM10.9375 40.8333C7.58334 38.8403 4.92139 36.1667 2.95167 32.8125C0.981947 29.4583 -0.00194157 25.8125 2.8764e-06 21.875C2.8764e-06 15.7986 2.12723 10.6342 6.38167 6.38167C10.6361 2.12917 15.8006 0.00194578 21.875 1.33181e-06C27.9494 -0.00194311 33.1149 2.12528 37.3713 6.38167C41.6276 10.6381 43.7539 15.8025 43.75 21.875C43.75 25.8125 42.7661 29.4583 40.7983 32.8125C38.8306 36.1667 36.1686 38.8403 32.8125 40.8333H10.9375Z" fill="#FEE333"/>
</svg>
