<svg width="100" height="106" viewBox="0 0 100 106" fill="none" xmlns="http://www.w3.org/2000/svg">
<path d="M26.9832 5.30067C28.7258 1.21548 33.4502 -0.683574 37.5354 1.05903L93.5812 24.9663C97.6664 26.7089 99.5654 31.4333 97.8228 35.5185L73.1874 93.2713C68.8309 103.484 57.02 108.232 46.807 103.875L12.9519 89.4339C2.73887 85.0774 -2.00874 73.2665 2.34778 63.0535L26.9832 5.30067Z" fill="#FFC100"/>
<path d="M26.9832 5.30067C28.7258 1.21548 33.4502 -0.683574 37.5354 1.05903L93.5812 24.9663C97.6664 26.7089 99.5654 31.4333 97.8228 35.5185L82.5926 71.2228C74.2482 90.7846 51.6257 99.8781 32.0638 91.5337C12.502 83.1893 3.40851 60.5668 11.7529 41.005L26.9832 5.30067Z" fill="#46C4FF"/>
<path d="M26.9832 5.30067C28.7258 1.21548 33.4502 -0.683574 37.5354 1.05903L93.5812 24.9663C97.6664 26.7089 99.5654 31.4333 97.8228 35.5185L75.0563 88.89C70.8741 98.6945 59.5356 103.252 49.7311 99.07L14.3966 83.9975C4.59212 79.8152 0.034416 68.4767 4.21668 58.6722L26.9832 5.30067Z" fill="#FEE333"/>
<path d="M38.1299 12.2754C38.3041 11.8668 38.7766 11.6769 39.1851 11.8512L85.5011 31.6081C85.9096 31.7823 86.0995 32.2548 85.9253 32.6633L70.9499 67.7702C65.3199 80.9685 50.0565 87.1039 36.8582 81.4739C23.6599 75.8439 17.5245 60.5806 23.1544 47.3822L38.1299 12.2754Z" fill="#FEC701"/>
<path d="M56.099 34.1059C55.7805 34.5575 55.3503 34.8775 55.2083 34.8169C55.0663 34.7563 54.373 35.2997 53.6039 36.0206C52.8704 36.7567 52.177 37.3001 52.035 37.2395C51.893 37.179 51.1694 37.7934 50.3904 38.6359C49.6266 39.443 48.8878 40.0929 48.7813 40.0474C48.6393 39.9869 47.9611 40.4948 47.2223 41.1447C46.5039 41.8452 45.7599 42.409 45.608 42.4701C45.4206 42.516 44.6969 43.1304 43.9634 43.8665C43.2298 44.6025 42.5062 45.2169 42.3543 45.278C41.5184 45.4669 39.8289 47.2637 39.2686 48.5772L38.6629 49.9972L42.7453 51.7386C46.7922 53.4648 46.8277 53.48 46.3525 54.2004C46.0492 54.6165 44.9376 56.5339 43.8463 58.502C42.755 60.4701 41.552 62.3066 41.208 62.6214C40.8133 62.9565 40.207 64.0826 39.8238 65.1778L39.0974 67.1757L40.5429 67.9182C41.8465 68.6001 42.0543 68.6048 42.6155 67.8792C42.934 67.4277 43.3642 67.1077 43.5062 67.1682C43.6482 67.2288 44.3771 66.7005 45.1461 65.9796C45.8797 65.2436 46.573 64.7002 46.6795 64.7456C46.8215 64.8062 47.5452 64.1918 48.3242 63.3492C49.088 62.5422 49.8268 61.8922 49.9333 61.9377C50.0753 61.9982 50.7535 61.4903 51.5074 60.8049C52.2107 60.1399 52.9192 59.561 53.1066 59.515C53.2585 59.454 54.0531 58.8698 54.8577 58.1641C55.6622 57.4583 56.8819 56.4681 57.5246 55.945C58.2028 55.4371 59.0523 54.3309 59.4157 53.4789L60.0517 51.988L55.9693 50.2465C51.9224 48.5203 51.8869 48.5051 52.3772 47.7492C52.6654 47.3687 53.777 45.4512 54.8683 43.4831C55.9595 41.515 57.1625 39.6785 57.5066 39.3637C57.9013 39.0286 58.5075 37.9025 58.8908 36.8073L59.6171 34.8094L58.1716 34.0669C56.8681 33.385 56.6603 33.3803 56.099 34.1059Z" fill="#F89701"/>
<path d="M40.95 30.0775C39.684 30.5864 39.5346 32.1171 40.4407 34.5176C41.2043 36.5637 41.5039 36.9432 42.7464 37.4732C43.9534 37.9881 44.2118 37.9724 44.5501 37.2776C45.3532 35.6901 45.3167 35.0871 44.3704 32.8792C43.3833 30.57 42.1654 29.589 40.95 30.0775Z" fill="#F89701"/>
<path d="M65.8323 42.0761C63.533 42.9415 63.1383 43.2766 62.5483 44.955C62.3164 45.6953 62.484 45.8926 63.6909 46.4075C64.9334 46.9375 65.4147 46.8911 67.4201 46.0262C69.7799 45.0188 70.7813 43.8515 70.2724 42.5855C69.7635 41.3194 68.2328 41.17 65.8323 42.0761Z" fill="#F89701"/>
<path d="M31.3754 55.868C28.7525 57.0988 28.0998 57.7435 28.3655 58.9897C28.7229 60.6107 30.2286 60.9173 32.9178 59.9245C35.0296 59.105 35.3434 58.8613 35.7366 57.6444C36.1752 56.321 36.1194 56.2552 34.8007 55.6088C33.553 54.9926 33.2085 55.0135 31.3754 55.868Z" fill="#F89701"/>
<path d="M54.6907 64.2612C54.5033 64.3071 54.1242 64.9006 53.8365 65.5751C53.4277 66.5336 53.52 67.2024 54.3238 69.0558C55.3312 71.4156 56.4985 72.417 57.7645 71.9081C59.0306 71.3992 59.18 69.8685 58.2739 67.468C57.5714 65.5739 57.1752 65.0272 56.2167 64.6184C55.5422 64.3307 54.8578 64.1646 54.6907 64.2612Z" fill="#F89701"/>
<path d="M83.7739 20.5495L97.3098 26.3234L98.4192 27.0319L99.0456 27.7697L99.7305 29.4735L99.704 30.6386L92.8263 46.7622L4.48047 80.1303L3.36837 77.7738L2.54012 75.303L1.99583 72.718L1.73551 70.019L1.75916 67.2057L2.18092 64.5623L2.8866 61.8048L8.32089 49.0651L83.7739 20.5495Z" fill="white" fill-opacity="0.29"/>
</svg>
