<svg width="579" height="1045" viewBox="0 0 579 1045" fill="none" xmlns="http://www.w3.org/2000/svg">
<path d="M556.081 260.644C525.45 268.686 506.171 265.144 473.957 263.954C448.351 263.009 433.911 256.141 408.456 257.529C381.331 259.007 366.208 263.168 341.259 272.541C316.404 281.88 302.141 288.204 282.126 304.917C258.825 324.373 246.86 338.629 235.78 366.659C225.688 392.186 224.378 408.934 226.255 436.785C228.247 466.344 236.026 482.658 247.289 510.689C260.661 543.972 278.229 558.56 292.044 591.693C303.101 618.211 318.128 633.875 314.096 661.446C310.98 682.749 305.155 696.569 287.817 709.452C265.834 725.786 243.892 713.798 215.844 717.141C181.362 721.251 160.85 719.532 127.797 728.98C109.303 734.267 105.667 727.091 81.9461 746.261C58.2253 765.43 51 799 51 799C51 799 45.9784 818.877 58.2253 826.273C71.4142 834.239 80.9526 813.123 97 808.909C122.788 802.137 137.5 808.909 165.271 809.53C193.042 810.151 215.3 818.272 247.186 824.941C285.576 832.97 345.046 847.903 345.046 847.903C345.046 847.903 392.929 863.527 424.483 867.842C458.893 872.548 480.051 877.829 512.87 869.138C534.317 863.458 548.602 860.589 563.653 845.14C574.957 833.536 577.883 824.057 583.485 808.909C589.468 792.731 590.032 782.657 592.227 765.43C594.481 747.741 597.096 737.597 594.68 719.685C591.756 698.012 574.873 666.464 574.873 666.464C574.873 666.464 547.258 627.879 530.901 602.37C511.693 572.417 494.768 557.572 484.658 524.083C481.84 514.749 478.815 509.415 479.1 499.851C479.597 483.117 488.218 474.945 499.428 462.715C509.339 451.902 516.693 446.981 530.273 440.752C561.179 426.578 585.348 444.992 619.652 440.236C642.595 437.056 658.141 439.163 677.115 426.959C694.869 415.54 700.317 403.354 710.127 384.993C719.373 367.684 722.449 356.66 726.201 337.287C731.099 312.004 727.678 296.842 727.428 270.859C727.087 235.488 723.095 180.199 723.095 180.199C723.095 180.199 717.476 153.365 703.549 147.133C691.234 141.621 669.99 151.129 669.99 151.129C669.99 151.129 640 218.591 601.462 241.93C585.21 251.772 574.781 255.735 556.081 260.644Z" fill="#EAECF0" fill-opacity="0.7"/>
<path d="M170.265 467.296C168.339 462.12 170.974 456.363 176.15 454.437L233.347 433.156C238.523 431.23 244.281 433.865 246.207 439.042L267.363 495.905C272.177 508.845 265.59 523.238 252.65 528.053L223.569 538.872C210.629 543.687 196.236 537.1 191.421 524.159L170.265 467.296Z" fill="#7B2BBE"/>
<path d="M170.265 467.296C168.339 462.12 170.974 456.363 176.15 454.437L233.347 433.156C238.523 431.23 244.281 433.865 246.207 439.042L259.911 475.875C267.713 496.846 257.038 520.171 236.067 527.973C215.096 535.775 191.771 525.1 183.969 504.129L170.265 467.296Z" fill="#46C4FF"/>
<path d="M170.265 467.296C168.339 462.12 170.974 456.363 176.15 454.437L233.347 433.156C238.523 431.23 244.281 433.865 246.207 439.042L265.669 491.352C270.291 503.775 263.967 517.593 251.544 522.215L220.59 533.731C208.167 538.353 194.349 532.029 189.727 519.607L170.265 467.296Z" fill="#C67DFF"/>
<path d="M183.339 463.244C183.147 462.726 183.41 462.151 183.928 461.958L233.291 443.592C233.809 443.399 234.385 443.663 234.577 444.181L248.526 481.672C253.79 495.821 246.588 511.558 232.439 516.822C218.29 522.086 202.552 514.884 197.288 500.735L183.339 463.244Z" fill="#9D4EDD"/>
<g clip-path="url(#clip0_1169_1152)">
<path d="M220.841 459.9C221.337 459.715 221.885 459.735 222.366 459.955C222.846 460.175 223.22 460.577 223.404 461.073L224.099 462.941C224.284 463.436 224.264 463.985 224.044 464.465C223.824 464.946 223.422 465.319 222.926 465.504C222.431 465.688 221.883 465.668 221.402 465.448C220.921 465.228 220.548 464.826 220.363 464.331L219.668 462.463C219.484 461.967 219.504 461.419 219.724 460.938C219.944 460.458 220.346 460.084 220.841 459.9ZM215.125 466.811C215.213 466.29 215.505 465.825 215.936 465.519C216.367 465.213 216.901 465.09 217.423 465.178L219.388 465.51C219.906 465.601 220.368 465.894 220.671 466.324C220.975 466.754 221.096 467.286 221.008 467.805C220.92 468.324 220.631 468.788 220.203 469.094C219.775 469.4 219.243 469.525 218.724 469.441L216.758 469.109C216.237 469.02 215.772 468.729 215.466 468.298C215.16 467.867 215.037 467.332 215.125 466.811ZM229.951 464.2C230.119 463.999 230.247 463.766 230.325 463.515C230.404 463.264 230.432 463 230.408 462.739C230.384 462.477 230.309 462.222 230.186 461.99C230.063 461.757 229.896 461.552 229.693 461.384C229.491 461.217 229.257 461.091 229.006 461.014C228.754 460.937 228.49 460.911 228.229 460.936C227.967 460.962 227.713 461.039 227.481 461.163C227.25 461.287 227.045 461.456 226.879 461.66L225.609 463.196C225.44 463.397 225.312 463.63 225.234 463.881C225.155 464.132 225.127 464.396 225.151 464.658C225.175 464.919 225.25 465.174 225.373 465.406C225.496 465.639 225.663 465.845 225.866 466.012C226.068 466.18 226.302 466.306 226.553 466.382C226.805 466.459 227.069 466.486 227.33 466.46C227.592 466.434 227.846 466.357 228.078 466.233C228.309 466.109 228.514 465.94 228.68 465.736L229.951 464.2ZM221.691 469.842C221.778 469.343 222.052 468.896 222.457 468.592C222.862 468.287 223.367 468.149 223.871 468.204C224.374 468.259 224.838 468.503 225.168 468.888C225.497 469.273 225.668 469.768 225.646 470.274L225.621 470.507L225.438 471.587L227.404 471.919C227.773 471.982 228.118 472.147 228.398 472.397C228.677 472.646 228.881 472.97 228.985 473.33L229.041 473.577L229.225 474.763C234.412 477.993 237.492 483.986 236.43 490.265C235.008 498.684 226.753 504.152 218.159 502.699C209.563 501.246 203.564 493.37 204.987 484.951C206.017 478.86 210.634 474.305 216.347 472.811L216.887 472.678L217.45 471.618C217.626 471.287 217.892 471.012 218.218 470.826C218.544 470.639 218.915 470.548 219.29 470.563L219.543 470.591L221.508 470.923L221.691 469.842ZM216.777 478.973C215.478 479.457 214.328 480.274 213.445 481.343C212.561 482.411 211.974 483.694 211.744 485.061C211.657 485.563 211.766 486.08 212.048 486.504C212.331 486.928 212.765 487.228 213.261 487.342C213.758 487.457 214.279 487.376 214.719 487.118C215.158 486.859 215.481 486.443 215.623 485.953L215.674 485.725C215.897 484.409 216.753 483.355 217.884 482.828L218.171 482.708C218.666 482.523 219.068 482.149 219.287 481.668C219.507 481.188 219.526 480.639 219.341 480.144C219.157 479.649 218.783 479.247 218.302 479.028C217.821 478.808 217.272 478.789 216.777 478.973ZM229.213 467.169L231.179 467.501C231.438 467.543 231.687 467.636 231.91 467.775C232.133 467.913 232.327 468.095 232.48 468.308C232.633 468.522 232.742 468.764 232.802 469.02C232.861 469.276 232.869 469.542 232.825 469.801C232.781 470.06 232.686 470.308 232.546 470.53C232.406 470.753 232.224 470.945 232.009 471.097C231.794 471.249 231.552 471.356 231.295 471.414C231.039 471.471 230.773 471.477 230.514 471.432L228.549 471.1C228.29 471.057 228.041 470.964 227.818 470.826C227.594 470.687 227.401 470.506 227.248 470.292C227.095 470.079 226.985 469.837 226.926 469.581C226.867 469.324 226.859 469.059 226.903 468.8C226.947 468.541 227.041 468.293 227.181 468.07C227.321 467.848 227.504 467.655 227.719 467.504C227.934 467.352 228.176 467.245 228.433 467.187C228.689 467.13 228.955 467.124 229.213 467.169Z" fill="#6513A9"/>
</g>
<path d="M224.107 436.353L236.314 432.052L237.399 432.169L238.485 432.286L239.569 432.403L241.282 432.808L242.708 433.84L245.091 436.599L250.001 449.797L228.38 494.524L206.759 539.251L204.204 538.259L201.782 536.973L199.495 535.395L197.341 533.524L195.321 531.36L193.728 529.038L192.269 526.422L191.196 523.538L187.188 512.765L224.107 436.353Z" fill="white" fill-opacity="0.29"/>
<path d="M280.69 394.599C281.235 389.103 286.133 385.09 291.628 385.635L368.806 393.293C374.302 393.839 378.315 398.736 377.769 404.232L369.851 484.027C368.488 497.767 356.244 507.799 342.505 506.436L295.181 501.74C281.441 500.377 271.408 488.133 272.772 474.394L280.69 394.599Z" fill="#508D3F"/>
<path d="M280.69 394.599C281.235 389.103 286.133 385.09 291.628 385.635L368.806 393.293C374.302 393.839 378.315 398.736 377.769 404.232L372.896 453.347C370.235 480.155 346.347 499.73 319.539 497.07C292.731 494.41 273.156 470.522 275.816 443.714L280.69 394.599Z" fill="#46C4FF"/>
<path d="M280.69 394.599C281.235 389.103 286.133 385.09 291.628 385.635L368.806 393.293C374.302 393.839 378.315 398.736 377.769 404.232L370.449 478.004C369.14 491.194 357.386 500.826 344.196 499.517L294.882 494.624C281.692 493.315 272.061 481.561 273.369 468.371L280.69 394.599Z" fill="#7AD761"/>
<path d="M296.793 398.964C296.847 398.414 297.337 398.013 297.887 398.067L361.396 404.37C361.946 404.424 362.347 404.914 362.292 405.463L357.516 453.593C355.722 471.68 339.604 484.888 321.517 483.093C303.43 481.298 290.222 465.181 292.017 447.093L296.793 398.964Z" fill="#60AF4B"/>
<path d="M309.104 419.571C307.884 420.22 306.55 421.531 306.084 422.352C305.132 424.183 304.388 430.222 305.014 431.68C305.396 432.681 304.407 435.856 303.497 436.295C303.292 436.419 302.387 437.292 301.478 438.213C300.03 439.705 299.778 440.306 299.522 442.88C299.272 445.407 299.396 446.093 300.393 447.684C303.023 451.748 307.305 454.676 312.74 456.178C314.427 456.634 316.005 457.224 316.177 457.433C316.611 457.91 330.816 459.319 331.335 458.937C331.545 458.766 333.208 458.497 334.952 458.382C340.576 457.977 345.35 455.948 348.727 452.48C350.018 451.116 350.275 450.468 350.525 447.941C350.781 445.367 350.652 444.729 349.525 442.98C348.814 441.899 348.099 440.865 347.922 440.703C347.116 440.094 346.771 436.786 347.342 435.88C348.242 434.574 348.699 428.506 348.126 426.523C347.83 425.628 346.78 424.079 345.712 423.203C344.033 421.689 343.523 421.494 340.329 421.177C337.374 420.884 336.401 420.98 334.586 421.81C333.376 422.364 332.242 423.118 332.061 423.485C331.576 424.496 322.71 423.616 322.433 422.53C322.327 422.134 321.364 421.172 320.286 420.391C318.669 419.22 317.735 418.935 314.78 418.642C311.586 418.325 311.047 418.416 309.104 419.571ZM317.334 424.431C317.625 424.893 318.136 425.569 318.431 425.984C319.023 426.812 318.745 430.588 318.077 430.521C317.839 430.498 317.568 430.808 317.53 431.189C317.393 432.571 314.076 433.012 311.387 431.975C309.16 431.129 309.037 426.062 311.233 424.307C312.757 423.014 316.451 423.14 317.334 424.431ZM342.693 427.428C344.501 429.581 343.385 434.525 341.035 434.917C338.195 435.406 335.029 434.321 335.166 432.939C335.204 432.558 335.047 432.205 334.761 432.177C334.093 432.111 334.562 428.354 335.353 427.663C335.677 427.31 336.31 426.747 336.687 426.351C337.806 425.259 341.453 425.861 342.693 427.428ZM311.295 442.604C311.991 443.347 313.441 444.261 314.461 444.651C315.529 445.046 316.626 445.636 316.979 445.96C317.37 446.384 320.068 446.844 324.835 447.317C329.601 447.79 332.337 447.869 332.804 447.531C333.214 447.282 334.405 446.919 335.53 446.742C336.607 446.56 338.208 445.949 339.037 445.357C340.847 444.093 342.243 444.087 342.116 445.374C342.035 446.184 341.154 446.819 337.971 448.332C333.983 450.199 327.196 450.681 321.152 449.503C315.765 448.487 308.079 443.97 308.277 441.968C308.4 440.729 309.816 441.014 311.295 442.604Z" fill="#2B5121"/>
<path d="M312.089 427.809L311.876 429.954L313.892 430.01C316.099 430.084 316.594 429.46 316.292 427.167C316.148 426.19 315.834 425.966 314.213 425.806L312.306 425.616L312.089 427.809Z" fill="#2B5121"/>
<path d="M337.171 429.238C336.424 431.427 336.787 432.137 338.966 432.497L340.954 432.839L341.166 430.694L341.384 428.501L339.477 428.312C337.857 428.151 337.504 428.309 337.171 429.238Z" fill="#2B5121"/>
<path d="M355.092 391.66L371.732 393.311L373.642 393.5L375.252 393.935L376.289 394.589L377.026 395.489L377.763 396.388L378.173 397.807L375.981 419.903L328.929 456.83L281.877 493.758L279.639 491.332L277.7 488.661L276.061 485.743L274.722 482.58L273.683 479.171L273.19 475.817L272.996 472.216L273.362 468.53L274.728 454.758L355.092 391.66Z" fill="white" fill-opacity="0.29"/>
<path d="M257.459 517.956C259.626 512.876 265.501 510.514 270.581 512.681L331.514 538.673C336.594 540.84 338.955 546.715 336.788 551.795L310.566 613.267C305.149 625.967 290.462 631.871 277.762 626.454L244.423 612.233C231.723 606.815 225.82 592.128 231.237 579.428L257.459 517.956Z" fill="#FFC100"/>
<path d="M257.459 517.956C259.626 512.876 265.501 510.514 270.581 512.681L331.514 538.673C336.594 540.84 338.955 546.715 336.788 551.795L320.123 590.864C310.779 612.77 285.445 622.953 263.539 613.609C241.633 604.264 231.45 578.931 240.794 557.024L257.459 517.956Z" fill="#46C4FF"/>
<path d="M257.459 517.956C259.626 512.876 265.501 510.514 270.581 512.681L331.514 538.673C336.594 540.84 338.955 546.715 336.788 551.795L312.62 608.453C307.419 620.645 293.32 626.312 281.128 621.111L245.95 606.106C233.758 600.905 228.09 586.805 233.291 574.613L257.459 517.956Z" fill="#FEE333"/>
<path d="M270.293 524.943C270.51 524.435 271.097 524.199 271.605 524.416L323.289 546.462C323.797 546.679 324.033 547.266 323.816 547.774L307.085 586.997C300.781 601.777 283.688 608.648 268.908 602.343C254.128 596.039 247.257 578.946 253.562 564.166L270.293 524.943Z" fill="#FEC701"/>
<g clip-path="url(#clip1_1169_1152)">
<path d="M290.455 549.298C290.098 549.804 289.616 550.162 289.457 550.094C289.298 550.027 288.522 550.635 287.661 551.442C286.839 552.267 286.063 552.875 285.904 552.807C285.745 552.74 284.935 553.428 284.062 554.371C283.207 555.275 282.379 556.003 282.26 555.952C282.101 555.884 281.342 556.453 280.514 557.181C279.71 557.965 278.877 558.596 278.707 558.665C278.497 558.716 277.686 559.404 276.865 560.229C276.043 561.053 275.233 561.741 275.063 561.809C274.127 562.021 272.235 564.033 271.608 565.504L270.929 567.094L275.501 569.044C280.033 570.977 280.072 570.994 279.54 571.801C279.201 572.267 277.956 574.414 276.734 576.618C275.512 578.822 274.165 580.879 273.779 581.231C273.337 581.606 272.658 582.867 272.229 584.094L271.416 586.331L273.035 587.163C274.494 587.926 274.727 587.932 275.356 587.119C275.712 586.613 276.194 586.255 276.353 586.323C276.512 586.391 277.328 585.799 278.189 584.992C279.011 584.168 279.787 583.559 279.907 583.61C280.066 583.678 280.876 582.99 281.748 582.046C282.604 581.142 283.431 580.415 283.55 580.465C283.709 580.533 284.469 579.965 285.313 579.197C286.101 578.452 286.894 577.804 287.104 577.752C287.274 577.684 288.164 577.03 289.065 576.24C289.966 575.449 291.332 574.34 292.051 573.755C292.811 573.186 293.762 571.947 294.169 570.993L294.881 569.323L290.31 567.373C285.778 565.44 285.738 565.423 286.287 564.577C286.61 564.15 287.855 562.003 289.077 559.799C290.299 557.595 291.646 555.539 292.031 555.186C292.473 554.811 293.152 553.55 293.581 552.323L294.395 550.086L292.776 549.255C291.316 548.491 291.083 548.486 290.455 549.298Z" fill="#F89701"/>
<path d="M273.49 544.787C272.073 545.357 271.905 547.071 272.92 549.76C273.775 552.051 274.111 552.476 275.502 553.069C276.854 553.646 277.143 553.628 277.522 552.85C278.421 551.073 278.38 550.397 277.321 547.925C276.215 545.339 274.851 544.24 273.49 544.787Z" fill="#F89701"/>
<path d="M301.355 558.223C298.78 559.192 298.338 559.568 297.677 561.447C297.417 562.276 297.605 562.497 298.957 563.074C300.348 563.667 300.887 563.615 303.133 562.647C305.775 561.519 306.897 560.211 306.327 558.794C305.757 557.376 304.043 557.209 301.355 558.223Z" fill="#F89701"/>
<path d="M262.768 573.668C259.831 575.047 259.1 575.769 259.398 577.164C259.798 578.98 261.484 579.323 264.495 578.211C266.86 577.294 267.212 577.021 267.652 575.658C268.143 574.176 268.081 574.102 266.604 573.378C265.207 572.688 264.821 572.712 262.768 573.668Z" fill="#F89701"/>
<path d="M288.878 583.067C288.668 583.118 288.244 583.783 287.921 584.538C287.464 585.611 287.567 586.36 288.467 588.436C289.595 591.078 290.902 592.2 292.32 591.63C293.738 591.06 293.905 589.346 292.891 586.658C292.104 584.537 291.66 583.924 290.587 583.467C289.831 583.144 289.065 582.958 288.878 583.067Z" fill="#F89701"/>
</g>
<path d="M321.446 534.117L335.044 539.918L336.604 540.583L337.847 541.377L338.548 542.203L338.932 543.157L339.315 544.111L339.285 545.415L331.583 563.471L282.117 582.155L232.65 600.838L231.405 598.199L230.477 595.433L229.868 592.538L229.576 589.515L229.603 586.365L230.075 583.405L230.865 580.317L232.15 577.304L236.951 566.05L321.446 534.117Z" fill="white" fill-opacity="0.29"/>
<path d="M344.43 501.646C343.119 496.282 346.404 490.869 351.769 489.557L424.008 471.893C429.373 470.581 434.785 473.867 436.097 479.231L453.252 549.388C456.532 562.8 448.318 576.331 434.906 579.611L391.809 590.149C378.397 593.429 364.865 585.215 361.586 571.803L344.43 501.646Z" fill="#1F9DD3"/>
<path d="M344.43 501.646C343.119 496.282 346.404 490.869 351.769 489.557L424.008 471.893C429.373 470.581 434.785 473.867 436.097 479.231L446.424 521.463C452.613 546.776 437.111 572.314 411.798 578.503C386.485 584.693 360.947 569.191 354.757 543.878L344.43 501.646Z" fill="#46C4FF"/>
<path d="M344.43 501.646C343.119 496.282 346.404 490.869 351.769 489.557L424.008 471.893C429.373 470.581 434.785 473.867 436.097 479.231L451.93 543.983C455.079 556.858 447.194 569.848 434.318 572.996L389.278 584.01C376.402 587.159 363.412 579.273 360.264 566.398L344.43 501.646Z" fill="#46C4FF"/>
<path d="M360.354 499.752C360.223 499.215 360.551 498.674 361.088 498.543L420.992 483.894C421.529 483.763 422.07 484.092 422.201 484.628L432.594 527.13C436.77 544.208 426.311 561.439 409.232 565.615C392.153 569.791 374.923 559.332 370.747 542.253L360.354 499.752Z" fill="#1CB0F6"/>
<path d="M400.391 506.676C400.457 508.543 398.912 509.34 397.261 508.279C394.688 506.648 392.238 509.256 394.396 511.323C394.951 511.814 394.987 512.14 394.495 512.972C394.044 513.794 393.612 513.983 391.922 514.187C389.977 514.412 389.905 514.471 389.859 515.529C389.868 516.991 390.44 517.73 391.466 517.479C391.918 517.369 392.325 517.436 392.374 517.634C392.422 517.831 392.869 518.057 393.349 518.065C393.829 518.073 394.457 518.505 394.715 519.028C395.282 520.103 396.368 519.921 397.092 518.614C397.355 518.089 397.843 517.593 398.171 517.513C398.499 517.433 398.946 516.947 399.168 516.433C399.984 514.434 404.253 512.511 407.111 512.816C408.682 513.018 410.456 514.049 411.368 515.29C412.971 517.577 413.162 522.091 411.687 523.707C411.313 524.133 411.069 524.737 411.147 525.053C411.224 525.369 410.99 526.012 410.625 526.477C409.749 527.696 410.082 528.702 411.34 528.688C411.943 528.666 412.633 528.999 412.863 529.403C413.092 529.808 413.507 530.083 413.712 530.033C413.917 529.982 414.168 530.298 414.275 530.732C414.516 531.719 415.465 531.864 416.823 531.197C417.782 530.67 417.803 530.581 417.113 528.824C416.522 527.295 416.497 526.841 417.05 526.078C417.593 525.276 417.912 525.156 418.624 525.4C421.534 526.279 422.818 522.994 420.12 521.561C418.375 520.649 418.399 518.969 420.159 518.162C421.414 517.604 421.476 517.505 421.081 515.886C420.685 514.268 420.583 514.209 419.212 514.293C417.279 514.389 416.553 513.018 417.629 511.374C418.433 510.215 418.358 509.02 417.511 508.223C417.127 507.898 416.533 507.96 415.177 508.459C412.761 509.426 411.899 508.926 411.68 506.427C411.515 505.044 411.298 504.511 410.82 504.335C409.691 503.984 408.549 504.472 407.847 505.69C406.821 507.364 405.216 507.38 404.412 505.693C403.857 504.49 403.756 504.431 402.074 504.842C400.391 505.254 400.329 505.353 400.391 506.676Z" fill="#0076AC"/>
<path d="M389.405 521.497C389.675 522.603 389.132 523.405 387.6 524.073C386.745 524.491 386.164 524.424 385.119 523.885C383.76 523.129 382.831 523.063 382.985 523.695C383.033 523.892 382.722 524.22 382.3 524.448C381.641 524.777 381.626 525.073 382.218 526.603C383.205 529.039 382.744 529.822 380.132 530.167C378.402 530.381 378.052 530.55 377.702 531.431C377.099 532.876 377.386 533.517 378.899 534.193C380.067 534.702 380.198 534.88 380.128 536.194C380.091 537.291 379.778 537.786 378.829 538.353C377.717 538.96 377.642 539.187 377.999 540.648C378.356 542.109 378.528 542.276 379.795 542.301C380.898 542.366 381.405 542.661 381.933 543.578C382.551 544.682 382.527 544.939 381.796 546.038C380.804 547.494 380.838 547.988 381.989 548.962C382.706 549.582 383.094 549.571 384.728 548.962C387.204 548.063 387.974 548.545 388.254 551.112C388.375 552.673 388.575 552.959 389.449 553.331C390.924 553.849 391.397 553.65 392.288 552.135C392.968 551.006 393.195 550.867 394.503 550.882C395.596 550.907 396.103 551.202 396.673 552.109C397.281 553.173 397.515 553.242 399.033 552.87C400.552 552.499 400.728 552.331 400.776 551.105C400.863 550.038 401.177 549.543 402.176 549.006C403.361 548.339 403.585 548.368 404.597 549.125C405.922 550.098 406.648 550.046 407.749 548.856C408.352 548.123 408.398 547.777 407.785 546.337C406.848 543.929 407.309 543.147 409.971 542.831C411.784 542.597 412.052 542.448 412.052 541.736C412.069 541.272 412.228 540.856 412.433 540.806C413.09 540.646 412.6 539.887 411.272 539.082C410.29 538.443 409.959 537.98 409.952 537.061C409.863 535.451 410.355 534.619 411.504 534.338C412.407 534.118 412.45 533.94 412.054 532.321C411.658 530.702 411.538 530.564 410.635 530.785C409.486 531.066 408.665 530.555 407.951 529.056C407.514 528.158 407.582 527.723 408.289 526.881C409.153 525.791 409.213 524.437 408.434 524.628C408.228 524.678 407.965 524.491 407.888 524.175C407.666 523.267 406.92 523.24 405.426 524.066C403.397 525.19 401.623 524.159 401.726 521.916C401.801 520.266 401.432 519.645 400.488 519.875C400.16 519.956 399.865 519.818 399.817 519.621C399.634 518.871 398.408 519.547 397.797 520.784C397.343 521.774 396.972 522.032 395.939 522.076C394.22 522.161 393.368 521.7 393.098 520.595C392.885 519.726 392.702 519.687 391.02 520.098C389.337 520.51 389.193 520.629 389.405 521.497ZM396.467 527.972C398.038 528.174 401.333 530.088 402.245 531.33C403.126 532.621 403.986 536.135 403.797 537.855C403.609 539.575 402.082 542.04 400.481 543.143C399.004 544.216 395.403 545.138 393.361 544.968C391.493 544.797 388.959 543.324 387.938 541.816C386.837 540.161 386.029 536.676 386.34 534.926C386.642 533.137 388.201 530.621 389.552 529.747C390.935 528.823 394.947 527.8 396.467 527.972Z" fill="#0076AC"/>
<path d="M391.846 534.501C390.825 535.839 391.517 538.85 392.987 539.704C394.457 540.558 397.566 539.756 398.333 538.271C399.122 536.697 398.413 534.151 396.962 533.376C395.461 532.571 392.866 533.164 391.846 534.501Z" fill="#0076AC"/>
<path d="M403.757 518.491C403.632 518.689 403.711 519.548 403.914 520.377L404.291 521.917L406.026 521.367C407.72 520.827 407.72 520.827 407.334 519.248C406.957 517.708 406.907 517.679 405.483 517.901C404.643 518.023 403.883 518.293 403.757 518.491Z" fill="#0076AC"/>
<path d="M411.291 474.74L425.991 471.407L427.225 471.668L428.46 471.929L429.694 472.191L431.61 472.848L433.105 474.173L435.452 477.541L439.201 492.872L407.785 540.221L376.369 587.57L373.566 586.154L370.96 584.427L368.551 582.389L366.338 580.041L364.323 577.381L362.823 574.596L361.52 571.499L360.701 568.149L357.641 555.635L411.291 474.74Z" fill="white" fill-opacity="0.29"/>
<path d="M302.604 619.086C301.81 613.62 305.598 608.546 311.063 607.753L377.475 598.111C382.941 597.317 388.015 601.105 388.808 606.57L398.557 673.717C400.54 687.381 391.072 700.066 377.408 702.05L340.685 707.381C327.021 709.365 314.336 699.896 312.352 686.232L302.604 619.086Z" fill="#850014"/>
<path d="M302.604 619.086C301.81 613.62 305.598 608.546 311.063 607.753L377.475 598.111C382.941 597.317 388.015 601.105 388.808 606.57L394.986 649.124C398.442 672.928 381.946 695.028 358.142 698.484C334.337 701.94 312.238 685.444 308.782 661.639L302.604 619.086Z" fill="#46C4FF"/>
<path d="M302.604 619.086C301.81 613.62 305.598 608.546 311.063 607.753L377.475 598.111C382.941 597.317 388.015 601.105 388.808 606.57L397.796 668.475C399.7 681.592 390.61 693.77 377.493 695.674L338.79 701.293C325.673 703.198 313.496 694.108 311.591 680.99L302.604 619.086Z" fill="#E10531"/>
<path d="M317.359 618.453C317.28 617.907 317.658 617.4 318.205 617.32L374.388 609.163C374.934 609.084 375.442 609.463 375.521 610.009L381.71 652.641C384.042 668.702 372.913 683.613 356.851 685.944C340.79 688.276 325.88 677.146 323.548 661.085L317.359 618.453Z" fill="#AE001A"/>
<path d="M336.177 632.628L336.455 634.539L334.543 634.817L332.631 635.094L332.909 637.006L333.187 638.918L331.275 639.196L329.363 639.473L330.681 648.554L332 657.635L333.912 657.357L335.823 657.08L336.101 658.992L336.378 660.903L338.29 660.626C340.154 660.355 340.209 660.396 340.445 662.021C340.674 663.598 340.783 663.68 342.361 663.451C343.986 663.215 344.04 663.256 344.311 665.12L344.588 667.032L346.5 666.754L348.412 666.477L348.69 668.388L348.967 670.3L354.463 669.502L359.96 668.704L359.682 666.792L359.405 664.881L361.316 664.603L363.228 664.326L362.951 662.414C362.68 660.55 362.721 660.495 364.346 660.259C365.923 660.03 366.005 659.921 365.776 658.343C365.54 656.718 365.581 656.664 367.445 656.393L369.357 656.116L369.079 654.204L368.801 652.292L370.713 652.014L372.625 651.737L371.307 642.656L369.988 633.575L368.076 633.853L366.165 634.13L365.887 632.218L365.61 630.307L363.698 630.584L361.786 630.862L361.508 628.95L361.231 627.038L359.319 627.316L357.407 627.593L357.685 629.505L357.962 631.417L356.051 631.694L354.139 631.972L354.416 633.884C354.687 635.748 354.646 635.802 353.021 636.038C351.444 636.267 351.362 636.377 351.591 637.954C351.82 639.531 351.739 639.641 350.161 639.87C348.584 640.099 348.475 640.017 348.246 638.44C348.017 636.862 347.907 636.781 346.33 637.01C344.705 637.246 344.65 637.205 344.38 635.341L344.102 633.429L342.19 633.707L340.279 633.984L340.001 632.072L339.723 630.161L337.812 630.438L335.9 630.716L336.177 632.628Z" fill="#6B0015"/>
<path d="M366.299 599.487L380.101 597.729L381.215 598.097L382.329 598.465L383.443 598.834L385.151 599.646L386.416 601.054L388.296 604.492L390.471 619.474L357.63 661.59L324.789 703.706L322.328 702.085L320.074 700.186L318.027 698.01L316.186 695.556L314.553 692.825L313.404 690.024L312.463 686.945L311.987 683.672L310.212 671.443L366.299 599.487Z" fill="white" fill-opacity="0.29"/>
<g clip-path="url(#clip2_1169_1152)">
<path fill-rule="evenodd" clip-rule="evenodd" d="M249.655 394.451C249.118 392.977 247.035 392.977 246.498 394.451L244.063 401.148L237.366 403.583C235.892 404.12 235.892 406.203 237.366 406.74L244.063 409.176L246.498 415.873C247.035 417.346 249.118 417.346 249.655 415.873L252.091 409.176L258.788 406.74C260.261 406.203 260.261 404.12 258.788 403.583L252.091 401.148L249.655 394.451Z" fill="#FEE333"/>
</g>
<g clip-path="url(#clip3_1169_1152)">
<path fill-rule="evenodd" clip-rule="evenodd" d="M428.913 601.709C428.246 599.88 425.66 599.88 424.994 601.709L421.97 610.022L413.657 613.046C411.828 613.712 411.828 616.298 413.657 616.964L421.97 619.988L424.994 628.301C425.66 630.131 428.246 630.131 428.913 628.301L431.937 619.988L440.249 616.964C442.079 616.298 442.079 613.712 440.249 613.046L431.937 610.022L428.913 601.709Z" fill="#FEE333"/>
</g>
<rect x="399.246" y="439.434" width="20.3732" height="20.3732" rx="5" transform="rotate(-44.9977 399.246 439.434)" fill="#9D4EDD" fill-opacity="0.5"/>
<rect x="262.338" y="683.097" width="16.2986" height="16.2986" rx="5" transform="rotate(-44.9977 262.338 683.097)" fill="#7AD761" fill-opacity="0.5"/>
<rect x="185.734" y="571.451" width="16.2986" height="16.2986" rx="5" transform="rotate(-44.9977 185.734 571.451)" fill="#1CB0F6" fill-opacity="0.5"/>
<rect x="228.926" y="646.425" width="20.3732" height="20.3732" rx="5" transform="rotate(-44.9977 228.926 646.425)" fill="#E10531" fill-opacity="0.5"/>
<defs>
<clipPath id="clip0_1169_1152">
<rect width="47.8356" height="47.8356" fill="white" transform="translate(188.667 469.165) rotate(-20.408)"/>
</clipPath>
<clipPath id="clip1_1169_1152">
<rect width="48.8376" height="48.8376" fill="white" transform="translate(270.025 536.167) rotate(23.1015)"/>
</clipPath>
<clipPath id="clip2_1169_1152">
<rect width="23.6329" height="23.6329" fill="white" transform="translate(236.26 393.345)"/>
</clipPath>
<clipPath id="clip3_1169_1152">
<rect width="29.3374" height="29.3374" fill="white" transform="translate(412.285 600.336)"/>
</clipPath>
</defs>
</svg>
