<svg width="66" height="78" viewBox="0 0 66 78" fill="none" xmlns="http://www.w3.org/2000/svg">
<path d="M0 8.36014C0 3.84455 3.66586 0.183937 8.18793 0.183937H57.8121C62.3341 0.183937 66 3.84455 66 8.36013V57.5595C66 68.8485 56.8354 78 45.5302 78H20.4698C9.16466 78 0 68.8485 0 57.5595V8.36014Z" fill="#7B2BBE"/>
<path d="M0 8.36014C0 3.84455 3.66586 0.183937 8.18793 0.183937H57.8121C62.3341 0.183937 66 3.84455 66 8.36013V40.283C66 58.4823 51.2254 73.2358 33 73.2358C14.7746 73.2358 0 58.4823 0 40.283V8.36014Z" fill="#46C4FF"/>
<path d="M0 8.36014C0 3.84455 3.66586 0.183937 8.18793 0.183937H57.8121C62.3341 0.183937 66 3.84455 66 8.36013V53.6129C66 64.4503 57.2019 73.2358 46.349 73.2358H19.651C8.79807 73.2358 0 64.4503 0 53.6129V8.36014Z" fill="#C67DFF"/>
<path d="M11.1326 8.94184C11.1326 8.49028 11.4991 8.12423 11.9513 8.12423H54.8439C55.2961 8.12423 55.6627 8.49029 55.6627 8.94185V41.474C55.6627 53.753 45.6943 63.7071 33.3976 63.7071C21.101 63.7071 11.1326 53.753 11.1326 41.474V8.94184Z" fill="#9D4EDD"/>
<path d="M40.7116 17.024C41.1421 17.024 41.5551 17.1948 41.8596 17.4989C42.164 17.8029 42.3351 18.2153 42.3351 18.6452V20.2664C42.3351 20.6963 42.164 21.1087 41.8596 21.4127C41.5551 21.7167 41.1421 21.8875 40.7116 21.8875C40.281 21.8875 39.868 21.7167 39.5636 21.4127C39.2591 21.1087 39.0881 20.6963 39.0881 20.2664V18.6452C39.0881 18.2153 39.2591 17.8029 39.5636 17.4989C39.868 17.1948 40.281 17.024 40.7116 17.024ZM34.3848 20.6717C34.6001 20.2993 34.9547 20.0276 35.3706 19.9164C35.7865 19.8051 36.2296 19.8634 36.6025 20.0783L38.0084 20.8889C38.3783 21.1054 38.6474 21.4592 38.7569 21.8731C38.8665 22.287 38.8077 22.7273 38.5934 23.0981C38.379 23.4688 38.0265 23.7398 37.6127 23.852C37.199 23.9642 36.7576 23.9084 36.385 23.6968L34.979 22.8862C34.6061 22.6712 34.3341 22.3171 34.2226 21.9018C34.1112 21.4865 34.1695 21.044 34.3848 20.6717ZM46.4441 22.8862C46.6303 22.7805 46.7936 22.6391 46.9248 22.4702C47.056 22.3012 47.1524 22.108 47.2085 21.9016C47.2646 21.6953 47.2793 21.4799 47.2517 21.2679C47.2241 21.0559 47.1547 20.8514 47.0477 20.6663C46.9406 20.4811 46.798 20.3189 46.6279 20.1891C46.4578 20.0592 46.2637 19.9642 46.0567 19.9096C45.8497 19.8549 45.6339 19.8417 45.4218 19.8707C45.2096 19.8996 45.0053 19.9702 44.8206 20.0783L43.4147 20.8889C43.2286 20.9946 43.0652 21.136 42.934 21.3049C42.8028 21.4739 42.7064 21.6671 42.6503 21.8735C42.5942 22.0798 42.5796 22.2952 42.6072 22.5072C42.6347 22.7192 42.7041 22.9237 42.8111 23.1088C42.9182 23.294 43.0609 23.4562 43.2309 23.586C43.401 23.7159 43.5951 23.8109 43.8021 23.8655C44.0091 23.9202 44.2249 23.9334 44.437 23.9044C44.6492 23.8755 44.8535 23.8049 45.0382 23.6968L46.4441 22.8862ZM38.5361 24.8446C38.7443 24.4888 39.0803 24.2256 39.4759 24.1084C39.8715 23.9912 40.2969 24.0288 40.6657 24.2135C41.0346 24.3983 41.3191 24.7164 41.4615 25.1031C41.6039 25.4898 41.5935 25.9162 41.4324 26.2955L41.348 26.4657L40.9015 27.2374L42.3075 28.048C42.5719 28.2005 42.7878 28.4244 42.9305 28.694C43.0733 28.9635 43.137 29.2678 43.1143 29.5719L43.0867 29.7762L42.8903 30.7326C45.9327 34.6656 46.5821 40.1079 43.9878 44.5936C40.5103 50.6082 32.6558 52.4352 26.5076 48.8897C20.3578 45.3442 18.0151 37.6388 21.4927 31.6243C24.0091 27.2731 28.8276 25.1104 33.6137 25.5919L34.0634 25.6438L34.7939 24.9953C35.0227 24.7928 35.304 24.6589 35.6056 24.609C35.9071 24.5591 36.2167 24.5952 36.4986 24.7132L36.6837 24.8057L38.0896 25.6162L38.5361 24.8446ZM32.1915 30.4116C31.062 30.4117 29.9525 30.7087 28.9744 31.2728C27.9964 31.8368 27.1842 32.648 26.6196 33.6248C26.4109 33.983 26.3475 34.4075 26.4424 34.811C26.5374 35.2145 26.7835 35.5663 27.1302 35.7942C27.4769 36.0221 27.8979 36.1088 28.3066 36.0364C28.7152 35.9639 29.0806 35.738 29.3276 35.4048L29.4315 35.246C29.9754 34.3057 30.9284 33.7448 31.9415 33.6637L32.1947 33.654C32.6253 33.6536 33.0381 33.4823 33.3422 33.178C33.6464 32.8737 33.817 32.4612 33.8166 32.0312C33.8162 31.6012 33.6447 31.1891 33.3399 30.8853C33.0352 30.5816 32.6221 30.4112 32.1915 30.4116ZM45.0382 24.9402L46.4441 25.7508C46.6303 25.8565 46.7936 25.9979 46.9248 26.1668C47.056 26.3358 47.1524 26.529 47.2085 26.7353C47.2646 26.9417 47.2793 27.157 47.2517 27.3691C47.2241 27.5811 47.1547 27.7855 47.0477 27.9707C46.9406 28.1559 46.798 28.318 46.6279 28.4479C46.4578 28.5778 46.2637 28.6728 46.0567 28.7274C45.8497 28.7821 45.6339 28.7953 45.4218 28.7663C45.2096 28.7374 45.0053 28.6668 44.8206 28.5587L43.4147 27.7481C43.2286 27.6424 43.0652 27.501 42.934 27.332C42.8028 27.1631 42.7064 26.9699 42.6503 26.7635C42.5942 26.5572 42.5796 26.3418 42.6072 26.1298C42.6347 25.9178 42.7041 25.7133 42.8111 25.5282C42.9182 25.343 43.0609 25.1808 43.2309 25.051C43.401 24.9211 43.5951 24.8261 43.8021 24.7714C44.0091 24.7168 44.2249 24.7036 44.437 24.7325C44.6492 24.7615 44.8535 24.8321 45.0382 24.9402Z" fill="#6513A9"/>
<path d="M49.8931 0L60.4337 0.184034L62.819 1.37492L64.0118 2.16896L64.807 3.36002L65.8424 6.13917L65.8424 17.5932L7.42344 73.521L5.75445 72.0396L4.27079 70.3728L2.97259 68.5209L1.85985 66.4838L0.932566 64.2615L0.376193 62.0392L0.00524118 59.6317L0.00524292 47.7795L49.8931 0Z" fill="white" fill-opacity="0.29"/>
</svg>
