<svg width="564" height="605" viewBox="0 0 564 605" fill="none" xmlns="http://www.w3.org/2000/svg">
<path d="M420.433 96.06C395.008 102.735 379.006 99.7947 352.267 98.8074C331.013 98.0227 319.027 92.3226 297.899 93.474C275.383 94.7009 262.83 98.1545 242.122 105.935C221.491 113.686 209.652 118.936 193.039 132.808C173.698 148.958 163.767 160.791 154.57 184.056C146.194 205.245 145.106 219.147 146.664 242.264C148.317 266.799 154.775 280.341 164.123 303.608C175.223 331.234 189.804 343.342 201.271 370.844C210.449 392.855 222.922 405.857 219.575 428.742C216.989 446.424 212.154 457.896 197.763 468.589C179.516 482.147 161.303 472.197 138.023 474.972C109.401 478.383 92.3747 476.956 64.9393 484.799C49.5885 489.187 46.5706 483.23 26.8814 499.142C7.19216 515.053 1.1948 542.918 1.1948 542.918C1.1948 542.918 -2.97331 559.416 7.19215 565.556C18.1395 572.167 26.0567 554.64 39.3768 551.143C60.7821 545.522 72.9935 551.143 96.0445 551.658C119.096 552.174 137.571 558.914 164.038 564.45C195.903 571.114 245.266 583.509 245.266 583.509C245.266 583.509 285.011 596.478 311.201 600.06C339.763 603.966 357.325 608.349 384.566 601.135C402.368 596.421 414.226 594.04 426.718 581.216C436.101 571.584 438.53 563.716 443.18 551.143C448.146 537.714 448.614 529.353 450.436 515.053C452.307 500.371 454.478 491.951 452.472 477.083C450.045 459.094 436.031 432.908 436.031 432.908C436.031 432.908 413.11 400.88 399.532 379.706C383.59 354.845 369.541 342.523 361.149 314.726C358.81 306.977 356.299 302.55 356.535 294.612C356.948 280.722 364.104 273.939 373.409 263.787C381.635 254.812 387.739 250.727 399.012 245.557C424.665 233.792 444.726 249.076 473.2 245.129C492.244 242.489 505.148 244.238 520.897 234.108C535.633 224.63 540.155 214.515 548.298 199.274C555.973 184.908 558.526 175.758 561.64 159.677C565.705 138.691 562.866 126.105 562.658 104.539C562.375 75.1792 559.062 29.2867 559.062 29.2867C559.062 29.2867 554.398 7.01412 542.838 1.84058C532.616 -2.73419 514.982 5.15754 514.982 5.15754C514.982 5.15754 490.09 61.1542 458.101 80.5263C444.611 88.6958 435.955 91.9853 420.433 96.06Z" fill="#EAECF0" fill-opacity="0.7"/>
<path d="M100.782 269.182C98.8566 264.006 101.492 258.248 106.668 256.323L150.958 239.844C156.134 237.918 161.891 240.553 163.817 245.729L179.304 287.353C184.118 300.293 177.531 314.687 164.59 319.501L148.417 325.519C135.477 330.333 121.083 323.746 116.269 310.805L100.782 269.182Z" fill="#7B2BBE"/>
<path d="M100.782 269.182C98.8566 264.006 101.492 258.248 106.668 256.323L150.958 239.844C156.134 237.918 161.891 240.553 163.817 245.729L174.6 274.71C181.076 292.116 172.215 311.477 154.808 317.953V317.953C137.402 324.429 118.041 315.569 111.565 298.162L100.782 269.182Z" fill="#46C4FF"/>
<path d="M100.782 269.182C98.8566 264.006 101.492 258.248 106.668 256.323L150.958 239.844C156.134 237.918 161.891 240.553 163.817 245.729L177.957 283.733C182.579 296.156 176.255 309.974 163.832 314.596L145.785 321.311C133.362 325.933 119.544 319.609 114.922 307.186L100.782 269.182Z" fill="#C67DFF"/>
<path d="M111.101 264.385C110.909 263.868 111.172 263.292 111.69 263.1L152.345 247.974C152.862 247.781 153.438 248.044 153.631 248.562L165.149 279.522C169.519 291.266 163.541 304.329 151.796 308.698V308.698C140.052 313.068 126.989 307.09 122.62 295.345L111.101 264.385Z" fill="#9D4EDD"/>
<g clip-path="url(#clip0_1254_1187)">
<path d="M142.17 261.45C142.581 261.297 143.036 261.313 143.435 261.496C143.834 261.679 144.144 262.012 144.297 262.423L144.874 263.974C145.027 264.385 145.011 264.84 144.828 265.239C144.646 265.638 144.312 265.948 143.901 266.101C143.489 266.254 143.034 266.238 142.635 266.055C142.236 265.873 141.926 265.539 141.773 265.128L141.196 263.577C141.043 263.166 141.06 262.711 141.243 262.312C141.425 261.913 141.759 261.603 142.17 261.45ZM137.426 267.187C137.499 266.754 137.741 266.368 138.098 266.114C138.456 265.86 138.9 265.758 139.332 265.831L140.964 266.107C141.394 266.182 141.777 266.425 142.029 266.782C142.281 267.139 142.381 267.581 142.308 268.012C142.236 268.443 141.995 268.827 141.64 269.081C141.285 269.336 140.844 269.439 140.412 269.369L138.781 269.094C138.348 269.02 137.963 268.778 137.708 268.421C137.454 268.063 137.352 267.619 137.426 267.187ZM149.731 265.02C149.871 264.852 149.977 264.659 150.042 264.451C150.107 264.243 150.131 264.024 150.111 263.806C150.091 263.589 150.028 263.378 149.926 263.185C149.825 262.992 149.686 262.821 149.518 262.682C149.349 262.543 149.155 262.438 148.947 262.375C148.738 262.311 148.519 262.289 148.302 262.31C148.085 262.332 147.874 262.396 147.682 262.499C147.489 262.602 147.319 262.742 147.181 262.911L146.127 264.186C145.987 264.353 145.881 264.546 145.816 264.754C145.751 264.963 145.727 265.182 145.747 265.399C145.767 265.616 145.83 265.828 145.932 266.021C146.033 266.213 146.172 266.384 146.341 266.523C146.509 266.663 146.703 266.767 146.911 266.831C147.12 266.894 147.339 266.916 147.556 266.895C147.773 266.874 147.984 266.81 148.177 266.707C148.369 266.604 148.539 266.464 148.677 266.294L149.731 265.02ZM142.875 269.703C142.947 269.288 143.175 268.917 143.511 268.665C143.847 268.412 144.267 268.297 144.685 268.342C145.103 268.388 145.488 268.591 145.761 268.91C146.035 269.23 146.177 269.641 146.158 270.061L146.138 270.254L145.986 271.151L147.617 271.426C147.924 271.478 148.21 271.616 148.442 271.823C148.674 272.03 148.843 272.298 148.93 272.597L148.976 272.802L149.129 273.787C153.434 276.468 155.991 281.442 155.11 286.654C153.929 293.643 147.077 298.181 139.944 296.975C132.808 295.769 127.829 289.232 129.01 282.243C129.865 277.187 133.697 273.407 138.44 272.167L138.888 272.056L139.355 271.177C139.501 270.902 139.722 270.674 139.993 270.519C140.263 270.364 140.571 270.288 140.883 270.301L141.092 270.324L142.723 270.599L142.875 269.703ZM138.797 277.282C137.718 277.683 136.764 278.362 136.031 279.249C135.297 280.136 134.81 281.2 134.619 282.335C134.547 282.752 134.637 283.18 134.871 283.532C135.106 283.885 135.466 284.134 135.878 284.228C136.29 284.323 136.723 284.256 137.088 284.042C137.452 283.828 137.721 283.482 137.838 283.075L137.881 282.886C138.066 281.794 138.776 280.919 139.715 280.481L139.954 280.382C140.365 280.228 140.698 279.918 140.88 279.519C141.062 279.12 141.079 278.664 140.925 278.253C140.772 277.842 140.461 277.509 140.062 277.327C139.663 277.145 139.208 277.128 138.797 277.282ZM149.119 267.484L150.75 267.759C150.966 267.794 151.172 267.872 151.358 267.987C151.543 268.102 151.704 268.252 151.831 268.429C151.958 268.607 152.048 268.808 152.098 269.02C152.147 269.233 152.153 269.453 152.117 269.668C152.08 269.883 152.002 270.089 151.886 270.274C151.769 270.458 151.618 270.618 151.44 270.744C151.261 270.87 151.06 270.959 150.847 271.007C150.634 271.055 150.414 271.06 150.199 271.022L148.568 270.746C148.352 270.711 148.146 270.634 147.961 270.519C147.775 270.404 147.614 270.254 147.487 270.076C147.36 269.899 147.27 269.698 147.221 269.485C147.172 269.273 147.165 269.053 147.201 268.837C147.238 268.622 147.316 268.416 147.433 268.232C147.549 268.047 147.7 267.887 147.879 267.762C148.057 267.636 148.258 267.546 148.471 267.499C148.684 267.451 148.904 267.446 149.119 267.484Z" fill="#6513A9"/>
</g>
<path d="M144.881 241.905L155.013 238.335L155.914 238.433L156.815 238.53L157.715 238.627L159.137 238.962L160.32 239.819L162.298 242.109L166.374 253.064L148.428 290.19L130.482 327.315L128.361 326.491L126.35 325.424L124.452 324.114L122.664 322.561L120.988 320.765L119.665 318.837L118.454 316.667L117.564 314.273L114.237 305.331L144.881 241.905Z" fill="white" fill-opacity="0.29"/>
<path d="M191.679 208.938C192.224 203.443 197.122 199.429 202.618 199.975L263.295 205.996C268.791 206.541 272.805 211.439 272.259 216.934L266.274 277.248C264.911 290.988 252.667 301.021 238.928 299.657L208.103 296.599C194.364 295.235 184.331 282.992 185.694 269.252L191.679 208.938Z" fill="#508D3F"/>
<path d="M191.679 208.938C192.224 203.443 197.122 199.429 202.618 199.975L263.295 205.996C268.791 206.541 272.805 211.439 272.259 216.934L268.382 256.011C266.174 278.262 246.345 294.511 224.094 292.303V292.303C201.842 290.095 185.593 270.267 187.801 248.015L191.679 208.938Z" fill="#46C4FF"/>
<path d="M191.679 208.938C192.224 203.443 197.122 199.429 202.618 199.975L263.295 205.996C268.791 206.541 272.805 211.439 272.259 216.934L266.753 272.418C265.445 285.608 253.691 295.24 240.501 293.931L207.686 290.675C194.496 289.366 184.865 277.612 186.173 264.422L191.679 208.938Z" fill="#7AD761"/>
<path d="M205.196 211.04C205.251 210.49 205.74 210.089 206.29 210.144L258.667 215.341C259.217 215.396 259.618 215.885 259.563 216.435L255.616 256.215C254.126 271.228 240.748 282.191 225.735 280.701V280.701C210.722 279.212 199.759 265.834 201.249 250.82L205.196 211.04Z" fill="#60AF4B"/>
<path d="M215.431 227.975C214.419 228.514 213.312 229.602 212.925 230.283C212.135 231.803 211.517 236.816 212.036 238.026C212.354 238.857 211.533 241.492 210.777 241.857C210.607 241.96 209.856 242.684 209.101 243.448C207.899 244.688 207.69 245.186 207.478 247.323C207.27 249.42 207.373 249.989 208.201 251.31C210.384 254.683 213.938 257.113 218.449 258.36C219.85 258.739 221.16 259.229 221.302 259.402C221.663 259.798 233.453 260.968 233.884 260.651C234.058 260.508 235.439 260.286 236.887 260.19C241.555 259.854 245.517 258.169 248.32 255.291C249.392 254.159 249.605 253.621 249.813 251.524C250.025 249.387 249.918 248.857 248.983 247.406C248.393 246.508 247.799 245.65 247.652 245.516C246.983 245.01 246.696 242.265 247.17 241.513C247.917 240.428 248.297 235.391 247.821 233.746C247.575 233.002 246.704 231.717 245.817 230.99C244.424 229.733 244 229.571 241.349 229.308C238.896 229.065 238.089 229.144 236.583 229.834C235.578 230.294 234.637 230.919 234.487 231.224C234.084 232.063 226.725 231.333 226.495 230.431C226.407 230.103 225.608 229.304 224.713 228.656C223.371 227.684 222.595 227.447 220.142 227.204C217.492 226.941 217.045 227.016 215.431 227.975ZM222.263 232.009C222.504 232.392 222.928 232.954 223.174 233.298C223.665 233.986 223.434 237.119 222.88 237.064C222.682 237.045 222.457 237.302 222.425 237.619C222.311 238.766 219.558 239.132 217.326 238.271C215.478 237.569 215.376 233.363 217.199 231.906C218.464 230.833 221.53 230.937 222.263 232.009ZM243.312 234.497C244.812 236.284 243.886 240.388 241.936 240.713C239.578 241.119 236.95 240.219 237.064 239.071C237.096 238.755 236.965 238.462 236.728 238.439C236.174 238.384 236.563 235.266 237.219 234.692C237.488 234.399 238.014 233.932 238.326 233.603C239.255 232.696 242.282 233.196 243.312 234.497ZM217.25 247.094C217.828 247.711 219.031 248.469 219.878 248.793C220.764 249.121 221.675 249.611 221.968 249.879C222.292 250.231 224.532 250.613 228.488 251.006C232.445 251.398 234.716 251.464 235.103 251.183C235.443 250.977 236.432 250.675 237.366 250.528C238.26 250.377 239.589 249.87 240.277 249.379C241.779 248.329 242.938 248.324 242.832 249.393C242.766 250.065 242.034 250.592 239.392 251.848C236.082 253.398 230.449 253.797 225.432 252.82C220.96 251.977 214.58 248.227 214.745 246.566C214.847 245.537 216.022 245.773 217.25 247.094Z" fill="#2B5121"/>
<path d="M217.91 234.813L217.733 236.594L219.406 236.64C221.238 236.702 221.649 236.183 221.399 234.281C221.279 233.47 221.018 233.284 219.673 233.15L218.09 232.993L217.91 234.813Z" fill="#2B5121"/>
<path d="M238.728 236.001C238.109 237.817 238.41 238.406 240.218 238.705L241.868 238.989L242.045 237.209L242.225 235.389L240.643 235.232C239.297 235.098 239.005 235.229 238.728 236.001Z" fill="#2B5121"/>
<path d="M253.604 204.808L267.416 206.179L269.001 206.336L270.337 206.697L271.198 207.24L271.81 207.987L272.422 208.733L272.762 209.91L270.942 228.251L231.887 258.903L192.832 289.554L190.974 287.541L189.365 285.323L188.005 282.902L186.893 280.276L186.031 277.447L185.621 274.662L185.461 271.674L185.764 268.614L186.898 257.182L253.604 204.808Z" fill="white" fill-opacity="0.29"/>
<path d="M171.897 311.201C174.064 306.121 179.939 303.76 185.019 305.927L232.469 326.167C237.549 328.334 239.911 334.209 237.744 339.289L218.312 384.842C212.895 397.542 198.208 403.446 185.508 398.028L165.652 389.558C152.952 384.141 147.048 369.454 152.466 356.754L171.897 311.201Z" fill="#FFC100"/>
<path d="M171.897 311.201C174.064 306.121 179.939 303.76 185.019 305.927L232.469 326.167C237.549 328.334 239.911 334.209 237.744 339.289L224.578 370.154C216.821 388.337 195.793 396.79 177.61 389.033V389.033C159.427 381.277 150.975 360.249 158.731 342.066L171.897 311.201Z" fill="#46C4FF"/>
<path d="M171.897 311.201C174.064 306.121 179.939 303.76 185.019 305.927L232.469 326.167C237.549 328.334 239.911 334.209 237.744 339.289L219.95 381.002C214.75 393.194 200.65 398.861 188.458 393.661L166.763 384.406C154.571 379.205 148.903 365.106 154.104 352.914L171.897 311.201Z" fill="#FEE333"/>
<path d="M183.151 315.595C183.367 315.087 183.955 314.85 184.463 315.067L227.05 333.233C227.558 333.45 227.794 334.038 227.577 334.546L213.756 366.946C208.523 379.214 194.336 384.917 182.068 379.683V379.683C169.8 374.45 164.097 360.263 169.33 347.995L183.151 315.595Z" fill="#FEC701"/>
<g clip-path="url(#clip1_1254_1187)">
<path d="M199.952 335.653C199.656 336.073 199.256 336.37 199.124 336.314C198.992 336.258 198.348 336.763 197.633 337.433C196.951 338.117 196.306 338.622 196.174 338.566C196.042 338.51 195.37 339.081 194.646 339.864C193.936 340.614 193.249 341.218 193.15 341.176C193.018 341.12 192.388 341.592 191.701 342.196C191.033 342.847 190.342 343.371 190.2 343.428C190.026 343.47 189.354 344.042 188.672 344.726C187.99 345.41 187.317 345.981 187.176 346.038C186.399 346.213 184.829 347.884 184.308 349.104L183.745 350.424L187.539 352.043C191.301 353.648 191.334 353.662 190.892 354.331C190.611 354.718 189.577 356.5 188.563 358.33C187.549 360.159 186.43 361.866 186.111 362.159C185.744 362.47 185.18 363.517 184.824 364.535L184.149 366.392L185.492 367.082C186.704 367.716 186.897 367.72 187.419 367.046C187.715 366.626 188.115 366.329 188.247 366.385C188.379 366.441 189.056 365.95 189.771 365.28C190.453 364.596 191.097 364.091 191.196 364.133C191.328 364.19 192.001 363.618 192.725 362.835C193.435 362.085 194.122 361.481 194.221 361.523C194.353 361.58 194.983 361.107 195.684 360.47C196.338 359.852 196.996 359.314 197.17 359.271C197.312 359.215 198.05 358.672 198.798 358.016C199.546 357.36 200.68 356.439 201.277 355.953C201.907 355.481 202.697 354.453 203.035 353.661L203.626 352.275L199.831 350.656C196.07 349.052 196.037 349.037 196.492 348.335C196.76 347.981 197.794 346.199 198.808 344.369C199.822 342.54 200.941 340.833 201.26 340.54C201.627 340.229 202.191 339.182 202.547 338.164L203.222 336.307L201.879 335.617C200.667 334.983 200.474 334.979 199.952 335.653Z" fill="#F89701"/>
<path d="M185.87 331.909C184.694 332.382 184.555 333.805 185.397 336.036C186.107 337.938 186.385 338.291 187.54 338.783C188.662 339.262 188.902 339.247 189.217 338.601C189.963 337.126 189.929 336.565 189.05 334.513C188.132 332.367 187 331.455 185.87 331.909Z" fill="#F89701"/>
<path d="M208.999 343.061C206.862 343.866 206.495 344.177 205.946 345.737C205.731 346.426 205.886 346.609 207.008 347.088C208.163 347.58 208.611 347.537 210.475 346.733C212.668 345.797 213.599 344.712 213.126 343.535C212.653 342.358 211.23 342.219 208.999 343.061Z" fill="#F89701"/>
<path d="M176.97 355.881C174.532 357.025 173.926 357.625 174.173 358.783C174.505 360.29 175.904 360.575 178.404 359.652C180.367 358.89 180.659 358.664 181.024 357.533C181.432 356.302 181.38 356.241 180.154 355.64C178.995 355.068 178.674 355.087 176.97 355.881Z" fill="#F89701"/>
<path d="M198.643 363.682C198.469 363.725 198.116 364.277 197.849 364.904C197.469 365.795 197.555 366.416 198.302 368.139C199.238 370.332 200.323 371.263 201.5 370.79C202.677 370.317 202.816 368.894 201.973 366.663C201.32 364.903 200.952 364.394 200.061 364.014C199.434 363.747 198.798 363.593 198.643 363.682Z" fill="#F89701"/>
</g>
<path d="M225.677 323.053L236.963 327.868L238.258 328.42L239.29 329.079L239.872 329.764L240.19 330.556L240.508 331.348L240.484 332.431L234.091 347.418L193.031 362.926L151.972 378.434L150.938 376.244L150.168 373.947L149.662 371.545L149.421 369.036L149.442 366.421L149.835 363.964L150.49 361.4L151.557 358.9L155.542 349.559L225.677 323.053Z" fill="white" fill-opacity="0.29"/>
<path d="M245.158 297.753C243.846 292.388 247.132 286.976 252.497 285.664L309.156 271.809C314.521 270.497 319.933 273.783 321.245 279.147L334.072 331.602C337.351 345.014 329.137 358.545 315.725 361.825L288.207 368.554C274.795 371.833 261.264 363.62 257.985 350.208L245.158 297.753Z" fill="#1F9DD3"/>
<path d="M245.158 297.753C243.846 292.388 247.132 286.976 252.497 285.664L309.156 271.809C314.521 270.497 319.933 273.783 321.245 279.147L329.413 312.55C334.551 333.561 321.683 354.759 300.672 359.896V359.896C279.661 365.034 258.464 352.166 253.326 331.156L245.158 297.753Z" fill="#46C4FF"/>
<path d="M245.158 297.753C243.846 292.388 247.132 286.976 252.497 285.664L309.156 271.809C314.521 270.497 319.933 273.783 321.245 279.147L333.015 327.281C336.163 340.156 328.278 353.146 315.403 356.294L285.942 363.498C273.066 366.647 260.076 358.761 256.928 345.886L245.158 297.753Z" fill="#46C4FF"/>
<path d="M258.011 294.694C257.88 294.158 258.209 293.616 258.745 293.485L308.138 281.407C308.675 281.276 309.216 281.604 309.347 282.141L317.933 317.254C321.4 331.43 312.718 345.732 298.542 349.198V349.198C284.366 352.665 270.064 343.983 266.598 329.807L258.011 294.694Z" fill="#1CB0F6"/>
<path d="M291.204 300.277C291.258 301.827 289.976 302.487 288.606 301.607C286.47 300.253 284.437 302.418 286.228 304.133C286.689 304.542 286.719 304.812 286.31 305.503C285.936 306.185 285.577 306.342 284.175 306.511C282.56 306.697 282.5 306.747 282.462 307.625C282.47 308.838 282.945 309.452 283.796 309.243C284.171 309.152 284.509 309.208 284.549 309.372C284.589 309.536 284.96 309.723 285.359 309.73C285.757 309.736 286.278 310.095 286.493 310.529C286.963 311.421 287.865 311.27 288.466 310.185C288.684 309.75 289.089 309.338 289.361 309.272C289.634 309.205 290.004 308.802 290.189 308.375C290.866 306.716 294.41 305.12 296.782 305.373C298.086 305.541 299.558 306.396 300.316 307.427C301.646 309.324 301.804 313.072 300.58 314.413C300.27 314.767 300.067 315.268 300.131 315.53C300.196 315.792 300.001 316.326 299.699 316.712C298.972 317.724 299.248 318.559 300.292 318.547C300.793 318.529 301.366 318.806 301.556 319.141C301.746 319.477 302.091 319.705 302.261 319.663C302.431 319.622 302.64 319.883 302.728 320.244C302.928 321.063 303.716 321.183 304.843 320.63C305.639 320.192 305.657 320.118 305.084 318.661C304.593 317.391 304.573 317.014 305.032 316.381C305.482 315.715 305.747 315.616 306.338 315.818C308.754 316.548 309.82 313.821 307.58 312.632C306.131 311.875 306.151 310.48 307.612 309.811C308.654 309.347 308.706 309.265 308.377 307.922C308.049 306.578 307.964 306.529 306.826 306.599C305.222 306.679 304.619 305.541 305.512 304.176C306.179 303.214 306.117 302.222 305.414 301.561C305.095 301.291 304.603 301.342 303.477 301.756C301.471 302.559 300.756 302.144 300.574 300.07C300.438 298.922 300.257 298.48 299.861 298.334C298.923 298.042 297.976 298.447 297.393 299.458C296.541 300.847 295.209 300.86 294.542 299.461C294.081 298.462 293.997 298.413 292.601 298.754C291.204 299.096 291.152 299.178 291.204 300.277Z" fill="#0076AC"/>
<path d="M282.085 312.578C282.309 313.496 281.859 314.162 280.587 314.716C279.877 315.063 279.395 315.008 278.527 314.56C277.399 313.932 276.628 313.878 276.756 314.402C276.796 314.566 276.538 314.838 276.187 315.028C275.64 315.3 275.628 315.546 276.119 316.816C276.939 318.838 276.556 319.488 274.388 319.775C272.952 319.952 272.661 320.093 272.371 320.824C271.87 322.023 272.109 322.555 273.365 323.116C274.334 323.539 274.442 323.686 274.384 324.777C274.354 325.688 274.094 326.099 273.307 326.569C272.383 327.073 272.321 327.261 272.618 328.474C272.914 329.687 273.056 329.826 274.108 329.846C275.024 329.9 275.444 330.145 275.883 330.906C276.396 331.822 276.376 332.036 275.769 332.948C274.946 334.157 274.974 334.567 275.929 335.375C276.524 335.89 276.847 335.88 278.203 335.375C280.258 334.629 280.898 335.029 281.13 337.16C281.23 338.455 281.396 338.692 282.122 339.001C283.346 339.432 283.738 339.266 284.478 338.009C285.042 337.072 285.231 336.956 286.317 336.968C287.224 336.99 287.645 337.234 288.118 337.987C288.623 338.871 288.817 338.927 290.077 338.619C291.337 338.311 291.483 338.171 291.523 337.154C291.595 336.268 291.856 335.857 292.685 335.411C293.669 334.858 293.855 334.882 294.695 335.51C295.794 336.318 296.397 336.275 297.311 335.287C297.812 334.678 297.85 334.391 297.341 333.196C296.564 331.198 296.946 330.548 299.156 330.286C300.66 330.092 300.883 329.968 300.883 329.377C300.897 328.992 301.029 328.647 301.199 328.605C301.744 328.472 301.338 327.842 300.236 327.174C299.42 326.644 299.146 326.259 299.14 325.497C299.066 324.16 299.474 323.47 300.428 323.237C301.177 323.053 301.213 322.906 300.885 321.562C300.556 320.218 300.456 320.104 299.707 320.287C298.753 320.52 298.072 320.096 297.479 318.852C297.116 318.107 297.172 317.746 297.759 317.047C298.477 316.142 298.527 315.018 297.879 315.176C297.709 315.218 297.491 315.063 297.427 314.801C297.242 314.047 296.623 314.025 295.383 314.71C293.699 315.643 292.226 314.788 292.312 312.926C292.374 311.556 292.068 311.04 291.284 311.232C291.012 311.298 290.768 311.185 290.727 311.021C290.575 310.398 289.557 310.959 289.051 311.986C288.674 312.808 288.366 313.022 287.508 313.058C286.082 313.129 285.375 312.746 285.15 311.829C284.974 311.108 284.822 311.075 283.425 311.417C282.029 311.758 281.909 311.857 282.085 312.578ZM287.947 317.953C289.251 318.12 291.986 319.709 292.743 320.739C293.474 321.811 294.188 324.728 294.031 326.155C293.875 327.583 292.607 329.63 291.279 330.545C290.053 331.435 287.064 332.201 285.369 332.06C283.818 331.918 281.715 330.695 280.867 329.444C279.954 328.07 279.283 325.177 279.541 323.725C279.791 322.239 281.085 320.151 282.207 319.426C283.355 318.659 286.685 317.81 287.947 317.953Z" fill="#0076AC"/>
<path d="M284.111 323.372C283.264 324.482 283.839 326.982 285.059 327.691C286.279 328.399 288.859 327.734 289.496 326.501C290.151 325.195 289.562 323.081 288.358 322.438C287.112 321.77 284.958 322.262 284.111 323.372Z" fill="#0076AC"/>
<path d="M293.998 310.082C293.894 310.246 293.96 310.959 294.128 311.648L294.441 312.926L295.881 312.469C297.288 312.021 297.288 312.021 296.967 310.71C296.655 309.432 296.612 309.408 295.431 309.593C294.733 309.694 294.102 309.917 293.998 310.082Z" fill="#0076AC"/>
<path d="M300.251 273.768L312.453 271.001L313.477 271.218L314.502 271.435L315.526 271.652L317.117 272.198L318.358 273.297L320.306 276.093L323.418 288.818L297.341 328.12L271.264 367.422L268.938 366.246L266.775 364.813L264.775 363.121L262.939 361.172L261.266 358.964L260.021 356.652L258.939 354.082L258.259 351.301L255.719 340.914L300.251 273.768Z" fill="white" fill-opacity="0.29"/>
<path d="M210.281 395.263C209.487 389.798 213.274 384.724 218.74 383.93L270.501 376.416C275.966 375.622 281.04 379.41 281.834 384.875L289.071 434.723C291.055 448.387 281.586 461.072 267.922 463.055L245.85 466.26C232.186 468.244 219.501 458.775 217.518 445.111L210.281 395.263Z" fill="#850014"/>
<path d="M210.281 395.263C209.487 389.798 213.274 384.724 218.74 383.93L270.501 376.416C275.966 375.622 281.04 379.41 281.834 384.875L286.718 418.514C289.586 438.273 275.894 456.616 256.135 459.485V459.485C236.376 462.354 218.033 448.662 215.164 428.903L210.281 395.263Z" fill="#46C4FF"/>
<path d="M210.281 395.263C209.487 389.798 213.274 384.724 218.74 383.93L270.501 376.416C275.966 375.622 281.04 379.41 281.834 384.875L288.464 430.54C290.368 443.657 281.278 455.835 268.161 457.739L244.109 461.231C230.992 463.135 218.815 454.046 216.91 440.928L210.281 395.263Z" fill="#E10531"/>
<path d="M222.308 393.225C222.229 392.678 222.608 392.171 223.154 392.092L269.452 385.37C269.998 385.291 270.506 385.669 270.585 386.216L275.698 421.434C277.634 434.765 268.396 447.142 255.064 449.077V449.077C241.733 451.012 229.357 441.774 227.421 428.443L222.308 393.225Z" fill="#AE001A"/>
<path d="M237.904 404.822L238.134 406.409L236.547 406.639L234.961 406.869L235.191 408.456L235.421 410.043L233.834 410.273L232.248 410.504L233.342 418.041L234.436 425.579L236.023 425.348L237.61 425.118L237.84 426.705L238.071 428.292L239.658 428.061C241.205 427.837 241.25 427.871 241.446 429.22C241.636 430.529 241.727 430.596 243.036 430.406C244.385 430.211 244.43 430.245 244.655 431.792L244.885 433.379L246.472 433.148L248.059 432.918L248.289 434.505L248.52 436.091L253.082 435.429L257.644 434.767L257.414 433.18L257.183 431.593L258.77 431.363L260.357 431.132L260.127 429.545C259.902 427.998 259.936 427.953 261.285 427.757C262.594 427.567 262.662 427.476 262.472 426.167C262.276 424.818 262.31 424.773 263.857 424.548L265.444 424.318L265.213 422.731L264.983 421.144L266.57 420.914L268.157 420.683L267.062 413.146L265.968 405.608L264.381 405.838L262.794 406.069L262.564 404.482L262.334 402.895L260.747 403.126L259.16 403.356L258.93 401.769L258.699 400.182L257.112 400.413L255.526 400.643L255.756 402.23L255.986 403.817L254.399 404.047L252.813 404.277L253.043 405.864C253.268 407.411 253.234 407.457 251.885 407.653C250.576 407.843 250.508 407.934 250.698 409.243C250.888 410.552 250.82 410.643 249.511 410.833C248.202 411.023 248.111 410.955 247.921 409.646C247.731 408.337 247.64 408.269 246.331 408.459C244.982 408.655 244.937 408.621 244.712 407.074L244.482 405.487L242.895 405.717L241.308 405.948L241.078 404.361L240.847 402.774L239.26 403.004L237.673 403.235L237.904 404.822Z" fill="#6B0015"/>
<path d="M262.906 377.314L274.362 375.855L275.287 376.16L276.212 376.466L277.136 376.772L278.554 377.447L279.604 378.615L281.165 381.469L282.97 393.905L255.711 428.862L228.451 463.82L226.408 462.474L224.537 460.898L222.838 459.092L221.31 457.056L219.955 454.789L219.001 452.464L218.22 449.908L217.825 447.191L216.351 437.04L262.906 377.314Z" fill="white" fill-opacity="0.29"/>
<g clip-path="url(#clip2_1254_1187)">
<path fill-rule="evenodd" clip-rule="evenodd" d="M166.087 207.124C165.641 205.901 163.912 205.901 163.466 207.124L161.445 212.683L155.886 214.705C154.663 215.15 154.663 216.879 155.886 217.325L161.445 219.347L163.466 224.905C163.912 226.128 165.641 226.128 166.087 224.905L168.109 219.347L173.667 217.325C174.89 216.879 174.89 215.15 173.667 214.705L168.109 212.683L166.087 207.124Z" fill="#FEE333"/>
</g>
<g clip-path="url(#clip3_1254_1187)">
<path fill-rule="evenodd" clip-rule="evenodd" d="M314.878 379.157C314.325 377.639 312.179 377.639 311.626 379.157L309.116 386.058L302.216 388.567C300.697 389.121 300.697 391.267 302.216 391.82L309.116 394.33L311.626 401.23C312.179 402.749 314.325 402.749 314.878 401.23L317.388 394.33L324.288 391.82C325.807 391.267 325.807 389.121 324.288 388.567L317.388 386.058L314.878 379.157Z" fill="#FEE333"/>
</g>
<rect x="290.253" y="244.463" width="16.9106" height="16.9106" rx="5" transform="rotate(-44.9977 290.253 244.463)" fill="#9D4EDD" fill-opacity="0.5"/>
<rect x="176.614" y="446.712" width="13.5285" height="13.5285" rx="5" transform="rotate(-44.9977 176.614 446.712)" fill="#7AD761" fill-opacity="0.5"/>
<rect x="113.029" y="354.042" width="13.5285" height="13.5285" rx="5" transform="rotate(-44.9977 113.029 354.042)" fill="#1CB0F6" fill-opacity="0.5"/>
<rect x="148.881" y="416.273" width="16.9106" height="16.9106" rx="5" transform="rotate(-44.9977 148.881 416.273)" fill="#E10531" fill-opacity="0.5"/>
<defs>
<clipPath id="clip0_1254_1187">
<rect width="39.7055" height="39.7055" fill="white" transform="translate(115.464 269.141) rotate(-20.408)"/>
</clipPath>
<clipPath id="clip1_1254_1187">
<rect width="40.5372" height="40.5372" fill="white" transform="translate(182.995 324.754) rotate(23.1015)"/>
</clipPath>
<clipPath id="clip2_1254_1187">
<rect width="19.6163" height="19.6163" fill="white" transform="translate(154.968 206.206)"/>
</clipPath>
<clipPath id="clip3_1254_1187">
<rect width="24.3513" height="24.3513" fill="white" transform="translate(301.076 378.018)"/>
</clipPath>
</defs>
</svg>
