<svg width="574" height="729" viewBox="0 0 574 729" fill="none" xmlns="http://www.w3.org/2000/svg">
<path d="M507.074 115.644C476.443 123.686 457.164 120.144 424.95 118.954C399.345 118.009 384.904 111.142 359.449 112.529C332.324 114.007 317.201 118.168 292.252 127.541C267.397 136.88 253.134 143.204 233.119 159.917C209.818 179.374 197.853 193.629 186.773 221.659C176.681 247.186 175.371 263.934 177.248 291.785C179.24 321.344 187.02 337.658 198.282 365.689C211.655 398.972 229.222 413.56 243.037 446.693C254.094 473.211 269.121 488.875 265.089 516.446C261.973 537.749 256.148 551.569 238.81 564.452C216.827 580.786 194.885 568.798 166.838 572.141C132.355 576.252 111.843 574.532 78.7897 583.981C60.2957 589.267 56.66 582.091 32.9392 601.261C9.21843 620.43 1.99306 654 1.99306 654C1.99306 654 -3.02851 673.877 9.21842 681.273C22.4073 689.239 31.9456 668.123 47.9931 663.909C73.7814 657.138 88.4931 663.909 116.264 664.53C144.035 665.151 166.293 673.272 198.179 679.941C236.569 687.97 296.04 702.903 296.04 702.903C296.04 702.903 343.922 718.527 375.476 722.842C409.886 727.549 431.044 732.829 463.863 724.138C485.31 718.458 499.596 715.59 514.646 700.14C525.95 688.536 528.876 679.057 534.478 663.909C540.462 647.731 541.025 637.658 543.22 620.43C545.474 602.741 548.089 592.597 545.673 574.685C542.749 553.012 525.866 521.464 525.866 521.464C525.866 521.464 498.251 482.879 481.894 457.37C462.687 427.417 445.761 412.573 435.651 379.084C432.833 369.749 429.808 364.415 430.093 354.851C430.59 338.117 439.212 329.945 450.421 317.715C460.332 306.902 467.686 301.981 481.267 295.752C512.172 281.578 536.341 299.992 570.645 295.236C593.588 292.056 609.134 294.163 628.109 281.959C645.862 270.54 651.31 258.354 661.12 239.993C670.366 222.684 673.442 211.661 677.195 192.287C682.092 167.004 678.671 151.842 678.421 125.859C678.08 90.488 674.088 35.1987 674.088 35.1987C674.088 35.1987 668.469 8.36554 654.542 2.13267C642.227 -3.37883 620.983 6.12881 620.983 6.12881C620.983 6.12881 590.994 73.5913 552.455 96.9299C536.203 106.772 525.774 110.735 507.074 115.644Z" fill="#EAECF0" fill-opacity="0.7"/>
<path d="M119.258 322.296C117.332 317.12 119.967 311.363 125.143 309.437L182.34 288.156C187.517 286.231 193.274 288.865 195.2 294.042L216.356 350.905C221.17 363.845 214.583 378.239 201.643 383.053L172.563 393.873C159.622 398.687 145.229 392.1 140.414 379.159L119.258 322.296Z" fill="#7B2BBE"/>
<path d="M119.258 322.296C117.332 317.12 119.967 311.363 125.143 309.437L182.34 288.156C187.517 286.231 193.274 288.865 195.2 294.042L208.904 330.875C216.706 351.846 206.031 375.171 185.06 382.973C164.089 390.775 140.764 380.1 132.962 359.129L119.258 322.296Z" fill="#46C4FF"/>
<path d="M119.258 322.296C117.332 317.12 119.967 311.363 125.143 309.437L182.34 288.156C187.517 286.231 193.274 288.865 195.2 294.042L214.662 346.352C219.284 358.775 212.96 372.593 200.537 377.215L169.583 388.731C157.16 393.353 143.342 387.03 138.72 374.607L119.258 322.296Z" fill="#C67DFF"/>
<path d="M132.333 318.244C132.14 317.727 132.404 317.151 132.921 316.958L182.285 298.592C182.802 298.4 183.378 298.663 183.57 299.181L197.519 336.672C202.783 350.821 195.581 366.558 181.432 371.823C167.283 377.087 151.546 369.884 146.281 355.735L132.333 318.244Z" fill="#9D4EDD"/>
<path d="M169.834 314.9C170.33 314.715 170.878 314.735 171.359 314.955C171.84 315.175 172.213 315.577 172.397 316.073L173.092 317.941C173.277 318.436 173.257 318.985 173.037 319.465C172.817 319.946 172.415 320.32 171.919 320.504C171.424 320.688 170.876 320.668 170.395 320.448C169.914 320.228 169.541 319.826 169.356 319.331L168.661 317.463C168.477 316.967 168.497 316.419 168.717 315.938C168.937 315.458 169.339 315.084 169.834 314.9ZM164.118 321.811C164.207 321.29 164.498 320.825 164.929 320.519C165.36 320.213 165.895 320.09 166.416 320.178L168.381 320.51C168.899 320.602 169.361 320.894 169.664 321.324C169.968 321.754 170.089 322.287 170.001 322.806C169.913 323.325 169.624 323.788 169.196 324.094C168.768 324.4 168.236 324.525 167.717 324.441L165.751 324.109C165.23 324.021 164.765 323.729 164.459 323.298C164.153 322.867 164.03 322.333 164.118 321.811ZM178.944 319.201C179.112 318.999 179.24 318.766 179.318 318.515C179.397 318.264 179.425 318.001 179.401 317.739C179.377 317.477 179.302 317.223 179.179 316.99C179.056 316.758 178.889 316.552 178.686 316.384C178.484 316.217 178.25 316.091 177.999 316.014C177.747 315.937 177.483 315.911 177.222 315.936C176.96 315.962 176.706 316.039 176.474 316.163C176.243 316.288 176.038 316.456 175.872 316.66L174.602 318.196C174.433 318.397 174.305 318.63 174.227 318.881C174.148 319.132 174.12 319.396 174.144 319.658C174.168 319.919 174.244 320.174 174.366 320.406C174.489 320.639 174.656 320.845 174.859 321.012C175.061 321.18 175.295 321.306 175.546 321.382C175.798 321.459 176.062 321.486 176.324 321.46C176.585 321.434 176.839 321.357 177.071 321.233C177.302 321.109 177.507 320.94 177.673 320.736L178.944 319.201ZM170.684 324.843C170.771 324.343 171.045 323.896 171.45 323.592C171.855 323.288 172.36 323.149 172.864 323.204C173.367 323.259 173.831 323.503 174.161 323.888C174.491 324.273 174.661 324.768 174.639 325.275L174.614 325.507L174.432 326.587L176.397 326.919C176.766 326.982 177.111 327.147 177.391 327.397C177.67 327.646 177.874 327.97 177.979 328.33L178.034 328.577L178.218 329.763C183.405 332.993 186.486 338.986 185.424 345.265C184.001 353.684 175.746 359.152 167.152 357.699C158.556 356.246 152.557 348.37 153.98 339.951C155.01 333.86 159.627 329.305 165.34 327.811L165.88 327.678L166.443 326.618C166.619 326.287 166.885 326.012 167.211 325.826C167.537 325.639 167.908 325.548 168.283 325.563L168.536 325.591L170.501 325.923L170.684 324.843ZM165.77 333.974C164.471 334.457 163.321 335.274 162.438 336.343C161.554 337.412 160.968 338.694 160.737 340.061C160.65 340.563 160.759 341.08 161.041 341.504C161.324 341.928 161.758 342.228 162.254 342.343C162.751 342.457 163.272 342.376 163.712 342.118C164.151 341.86 164.474 341.443 164.616 340.953L164.667 340.726C164.89 339.409 165.746 338.355 166.877 337.828L167.164 337.708C167.659 337.523 168.061 337.149 168.28 336.669C168.5 336.188 168.519 335.639 168.335 335.144C168.15 334.649 167.776 334.247 167.295 334.028C166.814 333.808 166.266 333.789 165.77 333.974ZM178.206 322.169L180.172 322.501C180.431 322.543 180.68 322.636 180.903 322.775C181.127 322.914 181.32 323.095 181.473 323.309C181.626 323.522 181.736 323.764 181.795 324.02C181.854 324.276 181.862 324.542 181.818 324.801C181.774 325.06 181.679 325.308 181.539 325.531C181.399 325.753 181.217 325.946 181.002 326.097C180.787 326.249 180.545 326.356 180.288 326.414C180.032 326.471 179.766 326.477 179.507 326.432L177.542 326.1C177.283 326.058 177.034 325.965 176.811 325.826C176.587 325.688 176.394 325.506 176.241 325.292C176.088 325.079 175.978 324.837 175.919 324.581C175.86 324.325 175.852 324.059 175.896 323.8C175.94 323.541 176.034 323.293 176.174 323.07C176.315 322.848 176.497 322.655 176.712 322.504C176.927 322.352 177.169 322.245 177.426 322.187C177.682 322.13 177.948 322.124 178.206 322.169Z" fill="#6513A9"/>
<path d="M173.1 291.353L185.307 287.052L188.562 287.403L190.275 287.808L191.701 288.84L194.084 291.599L198.994 304.797L155.752 394.251L153.197 393.258L150.775 391.973L148.488 390.395L146.334 388.524L144.314 386.36L142.721 384.038L141.262 381.422L136.181 367.765L173.1 291.353Z" fill="white" fill-opacity="0.29"/>
<path d="M229.683 249.599C230.228 244.103 235.126 240.09 240.621 240.635L317.799 248.293C323.295 248.839 327.308 253.736 326.762 259.232L318.844 339.027C317.481 352.767 305.238 362.8 291.498 361.436L244.174 356.74C230.434 355.377 220.401 343.133 221.765 329.394L229.683 249.599Z" fill="#508D3F"/>
<path d="M229.683 249.599C230.228 244.103 235.126 240.09 240.621 240.635L317.799 248.293C323.295 248.839 327.308 253.736 326.762 259.232L321.889 308.347C319.229 335.155 295.34 354.731 268.532 352.07C241.724 349.41 222.149 325.522 224.809 298.714L229.683 249.599Z" fill="#46C4FF"/>
<path d="M229.683 249.599C230.228 244.103 235.126 240.09 240.621 240.635L317.799 248.293C323.295 248.839 327.308 253.736 326.762 259.232L319.442 333.004C318.133 346.194 306.379 355.826 293.189 354.517L243.875 349.624C230.685 348.315 221.054 336.561 222.362 323.371L229.683 249.599Z" fill="#7AD761"/>
<path d="M245.786 253.964C245.84 253.414 246.33 253.013 246.88 253.068L310.389 259.37C310.938 259.424 311.34 259.914 311.285 260.464L306.509 308.593C304.714 326.68 288.597 339.888 270.51 338.093C252.423 336.298 239.215 320.181 241.01 302.094L245.786 253.964Z" fill="#60AF4B"/>
<path d="M258.097 274.571C256.877 275.22 255.544 276.532 255.077 277.352C254.125 279.183 253.381 285.222 254.007 286.68C254.389 287.681 253.4 290.856 252.49 291.295C252.285 291.419 251.38 292.292 250.471 293.213C249.023 294.706 248.771 295.306 248.515 297.88C248.265 300.407 248.389 301.093 249.386 302.684C252.016 306.748 256.298 309.676 261.733 311.178C263.42 311.634 264.998 312.224 265.17 312.433C265.604 312.91 279.809 314.319 280.328 313.938C280.538 313.766 282.201 313.498 283.945 313.382C289.569 312.977 294.344 310.948 297.72 307.48C299.011 306.116 299.268 305.468 299.518 302.941C299.774 300.367 299.645 299.729 298.518 297.98C297.807 296.899 297.092 295.865 296.915 295.703C296.109 295.094 295.764 291.786 296.335 290.88C297.235 289.574 297.692 283.506 297.119 281.523C296.823 280.628 295.773 279.079 294.705 278.203C293.026 276.689 292.516 276.494 289.322 276.177C286.367 275.884 285.394 275.98 283.579 276.81C282.369 277.364 281.235 278.118 281.054 278.485C280.569 279.496 271.703 278.616 271.426 277.53C271.32 277.134 270.357 276.172 269.279 275.391C267.662 274.22 266.728 273.935 263.773 273.642C260.579 273.325 260.041 273.416 258.097 274.571ZM266.327 279.431C266.618 279.893 267.129 280.569 267.424 280.984C268.016 281.813 267.738 285.588 267.07 285.521C266.832 285.498 266.561 285.808 266.523 286.189C266.386 287.572 263.069 288.013 260.38 286.976C258.153 286.129 258.03 281.062 260.226 279.307C261.75 278.014 265.444 278.14 266.327 279.431ZM291.686 282.428C293.494 284.581 292.378 289.525 290.028 289.918C287.188 290.406 284.022 289.322 284.159 287.939C284.197 287.558 284.04 287.205 283.754 287.177C283.086 287.111 283.555 283.355 284.346 282.663C284.67 282.31 285.303 281.747 285.68 281.351C286.799 280.259 290.446 280.861 291.686 282.428ZM260.288 297.604C260.984 298.347 262.434 299.261 263.454 299.652C264.522 300.046 265.619 300.636 265.972 300.96C266.363 301.384 269.061 301.844 273.828 302.317C278.594 302.79 281.33 302.869 281.797 302.531C282.207 302.283 283.398 301.919 284.523 301.742C285.6 301.56 287.201 300.949 288.03 300.357C289.84 299.093 291.236 299.087 291.109 300.374C291.028 301.184 290.147 301.819 286.964 303.332C282.976 305.199 276.189 305.681 270.145 304.503C264.758 303.487 257.072 298.97 257.27 296.968C257.393 295.729 258.809 296.014 260.288 297.604Z" fill="#2B5121"/>
<path d="M260.869 284.954L262.885 285.01C265.092 285.084 265.587 284.459 265.285 282.167C265.141 281.19 264.827 280.966 263.206 280.806L261.299 280.616L260.869 284.954Z" fill="#2B5121"/>
<path d="M286.164 284.238C285.417 286.427 285.78 287.137 287.959 287.497L289.946 287.839L290.377 283.501L288.47 283.312C286.849 283.151 286.497 283.309 286.164 284.238Z" fill="#2B5121"/>
<path d="M304.085 246.66L322.635 248.5L324.244 248.936L325.281 249.589L326.756 251.389L327.166 252.807L324.973 274.903L230.87 348.758L228.632 346.332L226.693 343.661L225.054 340.743L223.715 337.58L222.676 334.171L222.182 330.817L221.989 327.216L223.721 309.758L304.085 246.66Z" fill="white" fill-opacity="0.29"/>
<path d="M206.452 372.956C208.619 367.876 214.494 365.515 219.574 367.682L280.507 393.673C285.587 395.84 287.948 401.715 285.781 406.795L259.559 468.268C254.142 480.968 239.455 486.871 226.755 481.454L193.416 467.233C180.717 461.815 174.813 447.128 180.23 434.428L206.452 372.956Z" fill="#FFC100"/>
<path d="M206.452 372.956C208.619 367.876 214.494 365.515 219.574 367.682L280.507 393.673C285.587 395.84 287.948 401.715 285.781 406.795L269.116 445.864C259.772 467.77 234.438 477.953 212.532 468.609C190.626 459.264 180.443 433.931 189.787 412.024L206.452 372.956Z" fill="#46C4FF"/>
<path d="M206.452 372.956C208.619 367.876 214.494 365.515 219.574 367.682L280.507 393.673C285.587 395.84 287.948 401.715 285.781 406.795L261.613 463.453C256.413 475.645 242.313 481.312 230.121 476.112L194.943 461.106C182.751 455.905 177.083 441.806 182.284 429.614L206.452 372.956Z" fill="#FEE333"/>
<path d="M219.286 379.943C219.503 379.435 220.09 379.199 220.598 379.416L272.282 401.462C272.79 401.679 273.026 402.267 272.81 402.775L256.079 441.997C249.774 456.777 232.681 463.648 217.901 457.343C203.121 451.039 196.251 433.946 202.555 419.166L219.286 379.943Z" fill="#FEC701"/>
<path d="M239.448 404.298C239.091 404.804 238.609 405.162 238.45 405.095C238.291 405.027 237.515 405.635 236.654 406.443C235.832 407.267 235.056 407.875 234.897 407.808C234.738 407.74 233.927 408.428 233.055 409.371C232.2 410.275 231.372 411.003 231.253 410.952C231.094 410.884 230.335 411.453 229.507 412.181C228.703 412.965 227.87 413.597 227.7 413.665C227.49 413.716 226.679 414.404 225.858 415.229C225.036 416.053 224.226 416.741 224.056 416.809C223.12 417.021 221.228 419.033 220.6 420.504L219.922 422.094L224.494 424.044C229.026 425.977 229.065 425.994 228.533 426.801C228.194 427.267 226.949 429.414 225.727 431.618C224.505 433.822 223.158 435.879 222.772 436.231C222.33 436.606 221.651 437.867 221.222 439.094L220.409 441.331L222.028 442.163C223.487 442.926 223.72 442.932 224.349 442.119C224.705 441.613 225.187 441.255 225.346 441.323C225.505 441.391 226.321 440.799 227.182 439.992C228.004 439.168 228.78 438.559 228.9 438.61C229.059 438.678 229.869 437.99 230.741 437.046C231.597 436.142 232.424 435.415 232.543 435.466C232.702 435.533 233.462 434.965 234.306 434.197C235.094 433.452 235.887 432.804 236.097 432.753C236.267 432.684 237.157 432.03 238.058 431.24C238.959 430.449 240.325 429.34 241.044 428.755C241.804 428.186 242.755 426.947 243.162 425.993L243.874 424.323L239.303 422.373C234.771 420.44 234.731 420.423 235.28 419.577C235.603 419.151 236.848 417.003 238.07 414.799C239.292 412.595 240.639 410.539 241.024 410.186C241.466 409.811 242.145 408.55 242.574 407.323L243.388 405.086L241.769 404.255C240.309 403.491 240.076 403.486 239.448 404.298Z" fill="#F89701"/>
<path d="M222.483 399.787C221.066 400.357 220.898 402.071 221.913 404.759C222.768 407.051 223.104 407.476 224.495 408.069C225.847 408.646 226.136 408.628 226.515 407.85C227.414 406.072 227.373 405.397 226.314 402.925C225.208 400.339 223.845 399.24 222.483 399.787Z" fill="#F89701"/>
<path d="M250.347 413.223C247.773 414.192 247.331 414.568 246.67 416.447C246.41 417.276 246.598 417.497 247.949 418.074C249.341 418.667 249.88 418.615 252.126 417.647C254.768 416.519 255.89 415.211 255.32 413.794C254.75 412.376 253.036 412.209 250.347 413.223Z" fill="#F89701"/>
<path d="M211.761 428.668C208.824 430.047 208.093 430.769 208.39 432.164C208.791 433.98 210.477 434.323 213.488 433.211C215.853 432.293 216.205 432.02 216.645 430.658C217.136 429.176 217.074 429.102 215.597 428.378C214.2 427.688 213.814 427.712 211.761 428.668Z" fill="#F89701"/>
<path d="M237.871 438.067C237.661 438.118 237.236 438.783 236.914 439.538C236.456 440.611 236.56 441.36 237.46 443.436C238.588 446.078 239.895 447.2 241.313 446.63C242.731 446.06 242.898 444.346 241.883 441.658C241.097 439.537 240.653 438.924 239.58 438.467C238.824 438.144 238.058 437.958 237.871 438.067Z" fill="#F89701"/>
<path d="M270.439 389.117L285.597 395.583L286.84 396.377L287.541 397.203L288.308 399.111L288.278 400.416L280.576 418.471L181.643 455.838L180.398 453.2L179.47 450.433L178.861 447.538L178.569 444.515L178.596 441.365L179.068 438.405L179.858 435.317L185.944 421.05L270.439 389.117Z" fill="white" fill-opacity="0.29"/>
<path d="M293.424 356.647C292.112 351.282 295.397 345.869 300.762 344.557L373.001 326.893C378.366 325.581 383.778 328.867 385.09 334.231L402.245 404.388C405.525 417.8 397.311 431.331 383.899 434.611L340.802 445.15C327.39 448.429 313.858 440.215 310.579 426.803L293.424 356.647Z" fill="#1F9DD3"/>
<path d="M293.424 356.647C292.112 351.282 295.397 345.869 300.762 344.557L373.001 326.893C378.366 325.581 383.778 328.867 385.09 334.231L395.417 376.463C401.607 401.776 386.104 427.314 360.791 433.503C335.478 439.693 309.94 424.191 303.75 398.878L293.424 356.647Z" fill="#46C4FF"/>
<path d="M293.424 356.647C292.112 351.282 295.397 345.869 300.762 344.557L373.001 326.893C378.366 325.581 383.778 328.867 385.09 334.231L400.924 398.983C404.072 411.858 396.187 424.848 383.311 427.997L338.271 439.01C325.395 442.159 312.406 434.273 309.257 421.398L293.424 356.647Z" fill="#46C4FF"/>
<path d="M309.347 354.752C309.216 354.215 309.544 353.674 310.081 353.543L369.985 338.895C370.522 338.763 371.063 339.092 371.194 339.628L381.587 382.13C385.763 399.208 375.304 416.439 358.225 420.615C341.146 424.791 323.916 414.332 319.74 397.253L309.347 354.752Z" fill="#1CB0F6"/>
<path d="M349.384 361.676C349.45 363.543 347.905 364.339 346.254 363.279C343.681 361.648 341.232 364.256 343.389 366.322C343.944 366.814 343.981 367.14 343.488 367.972C343.037 368.794 342.605 368.983 340.915 369.187C338.97 369.412 338.898 369.471 338.852 370.529C338.862 371.991 339.434 372.73 340.459 372.479C340.911 372.368 341.319 372.436 341.367 372.634C341.415 372.831 341.862 373.057 342.342 373.065C342.822 373.073 343.45 373.505 343.708 374.028C344.275 375.103 345.361 374.921 346.085 373.614C346.348 373.089 346.836 372.593 347.164 372.513C347.492 372.433 347.939 371.947 348.161 371.432C348.977 369.434 353.246 367.511 356.104 367.816C357.675 368.018 359.449 369.049 360.362 370.29C361.964 372.576 362.155 377.091 360.68 378.707C360.306 379.133 360.062 379.737 360.14 380.053C360.217 380.369 359.983 381.012 359.618 381.477C358.742 382.696 359.075 383.702 360.333 383.688C360.936 383.666 361.627 383.999 361.856 384.403C362.085 384.808 362.5 385.083 362.705 385.033C362.911 384.982 363.162 385.298 363.268 385.732C363.509 386.719 364.458 386.864 365.817 386.197C366.775 385.669 366.796 385.58 366.106 383.824C365.515 382.295 365.491 381.841 366.043 381.078C366.586 380.276 366.905 380.156 367.617 380.4C370.528 381.279 371.812 377.994 369.113 376.561C367.368 375.649 367.392 373.969 369.152 373.162C370.407 372.604 370.47 372.505 370.074 370.886C369.678 369.268 369.576 369.209 368.206 369.293C366.272 369.389 365.546 368.018 366.622 366.374C367.426 365.215 367.351 364.02 366.504 363.223C366.12 362.898 365.526 362.96 364.17 363.459C361.754 364.426 360.892 363.926 360.673 361.427C360.509 360.044 360.291 359.511 359.813 359.335C358.684 358.984 357.542 359.472 356.84 360.69C355.814 362.364 354.209 362.379 353.405 360.693C352.85 359.49 352.749 359.431 351.067 359.842C349.384 360.253 349.322 360.353 349.384 361.676Z" fill="#0076AC"/>
<path d="M338.398 376.497C338.669 377.603 338.126 378.405 336.593 379.073C335.739 379.491 335.157 379.424 334.112 378.885C332.753 378.129 331.824 378.063 331.978 378.695C332.027 378.892 331.715 379.22 331.293 379.448C330.634 379.777 330.619 380.073 331.211 381.603C332.198 384.039 331.737 384.822 329.126 385.167C327.395 385.381 327.045 385.55 326.695 386.431C326.092 387.876 326.379 388.517 327.892 389.193C329.06 389.702 329.191 389.88 329.121 391.194C329.085 392.291 328.771 392.786 327.822 393.353C326.71 393.96 326.635 394.187 326.992 395.648C327.349 397.109 327.521 397.276 328.788 397.301C329.891 397.366 330.398 397.661 330.926 398.578C331.544 399.682 331.52 399.939 330.789 401.038C329.797 402.494 329.831 402.988 330.982 403.962C331.699 404.582 332.087 404.571 333.721 403.962C336.198 403.063 336.968 403.545 337.248 406.112C337.368 407.673 337.569 407.959 338.442 408.331C339.917 408.849 340.39 408.65 341.281 407.135C341.961 406.006 342.188 405.867 343.496 405.882C344.59 405.907 345.096 406.202 345.666 407.109C346.274 408.173 346.508 408.242 348.027 407.87C349.545 407.499 349.721 407.331 349.769 406.105C349.856 405.038 350.17 404.543 351.169 404.005C352.354 403.339 352.578 403.368 353.59 404.125C354.915 405.098 355.641 405.046 356.742 403.856C357.345 403.123 357.391 402.777 356.778 401.337C355.841 398.929 356.302 398.147 358.965 397.831C360.777 397.597 361.045 397.448 361.045 396.736C361.062 396.272 361.221 395.856 361.426 395.806C362.083 395.646 361.593 394.887 360.265 394.082C359.283 393.443 358.952 392.98 358.945 392.061C358.856 390.451 359.348 389.619 360.497 389.338C361.4 389.117 361.443 388.94 361.047 387.321C360.651 385.702 360.531 385.564 359.628 385.785C358.479 386.066 357.659 385.555 356.944 384.056C356.507 383.158 356.575 382.723 357.282 381.881C358.146 380.791 358.206 379.437 357.427 379.628C357.222 379.678 356.959 379.491 356.881 379.175C356.659 378.267 355.913 378.24 354.419 379.066C352.39 380.19 350.616 379.159 350.719 376.916C350.794 375.266 350.425 374.645 349.481 374.875C349.153 374.956 348.859 374.818 348.81 374.621C348.627 373.871 347.401 374.547 346.79 375.784C346.336 376.774 345.965 377.032 344.932 377.076C343.213 377.161 342.361 376.7 342.091 375.594C341.879 374.726 341.695 374.687 340.013 375.098C338.331 375.51 338.186 375.629 338.398 376.497ZM345.46 382.972C347.032 383.174 350.326 385.088 351.239 386.33C352.12 387.621 352.979 391.135 352.791 392.855C352.602 394.574 351.075 397.04 349.475 398.143C347.997 399.216 344.396 400.138 342.355 399.968C340.486 399.797 337.952 398.324 336.931 396.816C335.831 395.161 335.022 391.676 335.333 389.926C335.635 388.137 337.194 385.621 338.546 384.747C339.929 383.823 343.94 382.8 345.46 382.972Z" fill="#0076AC"/>
<path d="M340.839 389.501C339.818 390.839 340.511 393.85 341.98 394.704C343.45 395.558 346.559 394.756 347.326 393.271C348.116 391.697 347.406 389.151 345.955 388.376C344.454 387.571 341.86 388.164 340.839 389.501Z" fill="#0076AC"/>
<path d="M352.75 373.49C352.625 373.688 352.705 374.548 352.907 375.377L353.284 376.917L355.019 376.367C356.714 375.827 356.714 375.827 356.327 374.248C355.951 372.708 355.9 372.678 354.476 372.901C353.636 373.023 352.876 373.292 352.75 373.49Z" fill="#0076AC"/>
<path d="M360.284 329.741L374.984 326.407L378.687 327.191L380.603 327.849L382.098 329.173L384.445 332.541L388.194 347.872L325.362 442.571L322.559 441.155L319.953 439.428L317.544 437.39L315.331 435.041L313.316 432.381L311.816 429.596L310.513 426.5L306.634 410.636L360.284 329.741Z" fill="white" fill-opacity="0.29"/>
<path d="M251.597 474.086C250.804 468.62 254.591 463.546 260.057 462.753L326.469 453.111C331.934 452.317 337.008 456.105 337.802 461.57L347.55 528.717C349.534 542.381 340.065 555.066 326.401 557.049L289.678 562.381C276.014 564.365 263.329 554.896 261.346 541.232L251.597 474.086Z" fill="#850014"/>
<path d="M251.597 474.086C250.804 468.62 254.591 463.546 260.057 462.753L326.469 453.111C331.934 452.317 337.008 456.105 337.802 461.57L343.98 504.124C347.436 527.928 330.94 550.028 307.135 553.484C283.33 556.94 261.231 540.444 257.775 516.639L251.597 474.086Z" fill="#46C4FF"/>
<path d="M251.597 474.086C250.804 468.62 254.591 463.546 260.057 462.753L326.469 453.111C331.934 452.317 337.008 456.105 337.802 461.57L346.789 523.475C348.693 536.592 339.604 548.77 326.486 550.674L287.784 556.293C274.666 558.197 262.489 549.108 260.585 535.99L251.597 474.086Z" fill="#E10531"/>
<path d="M266.352 473.453C266.273 472.907 266.652 472.399 267.198 472.32L323.381 464.163C323.928 464.084 324.435 464.463 324.514 465.009L330.704 507.641C333.036 523.702 321.906 538.612 305.845 540.944C289.784 543.276 274.874 532.146 272.542 516.085L266.352 473.453Z" fill="#AE001A"/>
<path d="M285.448 489.539L281.625 490.094L282.18 493.918L278.356 494.473L280.993 512.635L284.817 512.08L285.372 515.903L287.284 515.626C289.148 515.355 289.202 515.396 289.438 517.021C289.667 518.598 289.777 518.68 291.354 518.451C292.979 518.215 293.034 518.256 293.304 520.12L293.582 522.032L297.405 521.476L297.96 525.3L308.953 523.704L308.398 519.88L312.222 519.325L311.944 517.414C311.673 515.55 311.714 515.495 313.339 515.259C314.916 515.03 314.998 514.921 314.769 513.343C314.533 511.718 314.574 511.664 316.438 511.393L318.35 511.115L317.795 507.292L321.618 506.737L318.982 488.575L315.158 489.13L314.603 485.306L310.779 485.862L310.224 482.038L306.401 482.593L306.956 486.417L303.132 486.972L303.41 488.884C303.68 490.748 303.64 490.802 302.015 491.038C300.437 491.267 300.356 491.377 300.585 492.954C300.814 494.531 300.732 494.641 299.155 494.87C297.577 495.099 297.468 495.017 297.239 493.44C297.01 491.862 296.901 491.781 295.323 492.01C293.698 492.246 293.644 492.205 293.373 490.341L293.095 488.429L289.272 488.984L288.717 485.161L284.893 485.716L285.448 489.539Z" fill="#6B0015"/>
<path d="M315.292 454.487L329.094 452.729L332.436 453.834L334.145 454.646L335.41 456.054L337.29 459.492L339.465 474.474L273.783 558.706L271.322 557.084L269.067 555.186L267.02 553.01L265.18 550.556L263.546 547.825L262.398 545.024L261.456 541.945L259.205 526.442L315.292 454.487Z" fill="white" fill-opacity="0.29"/>
<path fill-rule="evenodd" clip-rule="evenodd" d="M198.648 249.451C198.112 247.977 196.029 247.977 195.492 249.451L193.056 256.148L186.359 258.583C184.886 259.12 184.886 261.203 186.359 261.74L193.056 264.176L195.492 270.873C196.029 272.346 198.112 272.346 198.648 270.873L201.084 264.176L207.781 261.74C209.255 261.203 209.255 259.12 207.781 258.583L201.084 256.148L198.648 249.451Z" fill="#FEE333"/>
<path fill-rule="evenodd" clip-rule="evenodd" d="M377.906 456.709C377.239 454.88 374.653 454.88 373.987 456.709L370.963 465.022L362.65 468.046C360.821 468.712 360.821 471.298 362.65 471.965L370.963 474.989L373.987 483.302C374.653 485.131 377.239 485.131 377.906 483.302L380.93 474.989L389.242 471.965C391.072 471.298 391.072 468.712 389.242 468.046L380.93 465.022L377.906 456.709Z" fill="#FEE333"/>
<path d="M351.774 297.969C349.822 296.017 349.822 292.851 351.775 290.898L359.11 283.564C361.063 281.611 364.228 281.611 366.181 283.564L373.516 290.899C375.468 292.852 375.468 296.018 373.515 297.97L366.18 305.305C364.227 307.257 361.062 307.257 359.109 305.305L351.774 297.969Z" fill="#9D4EDD" fill-opacity="0.5"/>
<path d="M214.866 541.632C212.914 539.68 212.914 536.514 214.867 534.561L219.321 530.108C221.273 528.155 224.439 528.155 226.392 530.108L230.845 534.562C232.798 536.515 232.798 539.681 230.845 541.633L226.391 546.087C224.438 548.039 221.272 548.039 219.32 546.086L214.866 541.632Z" fill="#7AD761" fill-opacity="0.5"/>
<path d="M138.263 429.987C136.31 428.034 136.31 424.868 138.263 422.916L142.717 418.462C144.67 416.51 147.836 416.51 149.788 418.463L154.242 422.917C156.194 424.869 156.194 428.035 154.241 429.988L149.788 434.441C147.835 436.394 144.669 436.394 142.716 434.441L138.263 429.987Z" fill="#1CB0F6" fill-opacity="0.5"/>
<path d="M181.454 504.961C179.502 503.008 179.502 499.842 181.455 497.89L188.79 490.555C190.743 488.602 193.908 488.603 195.861 490.555L203.196 497.891C205.148 499.843 205.148 503.009 203.195 504.962L195.86 512.296C193.907 514.249 190.742 514.249 188.789 512.296L181.454 504.961Z" fill="#E10531" fill-opacity="0.5"/>
</svg>
