<svg width="105" height="68" viewBox="0 0 105 68" fill="none" xmlns="http://www.w3.org/2000/svg">
<path d="M3.06986 36.0687C2.21635 26.9385 23.111 12.9414 50.2629 10.4032C77.4147 7.86497 100.542 17.7469 101.395 26.8771L102.05 38.4387C102.903 47.5689 84.2804 60.5539 57.1285 63.0921C29.9767 65.6303 5.68496 57.7039 4.83145 48.5737L3.06986 36.0687Z" fill="#7AD761"/>
<path fill-rule="evenodd" clip-rule="evenodd" d="M54.1917 52.4302C81.3435 49.892 102.3 36.5551 101.394 26.863C100.487 17.1639 77.4147 7.86497 50.2629 10.4032C23.111 12.9414 2.16186 26.3556 3.06855 36.0547C3.97459 45.7468 27.0398 54.9685 54.1917 52.4302Z" fill="#BAFB92"/>
<path fill-rule="evenodd" clip-rule="evenodd" d="M25.7233 26.0203C25.7798 26.8393 26.019 27.6167 26.4133 28.3371C24.1339 30.2359 22.9101 32.4404 23.0793 34.8903C23.5656 41.9338 37.1087 48.039 53.2183 46.9267C69.3278 45.8145 81.2849 38.3833 80.7986 31.3397C80.8394 28.885 79.474 26.8212 77.065 25.1887C77.4601 24.3138 77.6445 23.3876 77.5791 22.44C77.2741 18.0229 71.6581 14.8128 65.0352 15.27C60.1121 15.6099 56.0182 17.8809 54.3666 20.8386C53.3988 20.8697 52.4184 20.9193 51.4274 20.9877C50.4354 21.0562 49.4562 21.1403 48.492 21.2395C46.4483 18.5394 42.0835 16.8547 37.1628 17.1944C30.54 17.6517 25.4183 21.6031 25.7233 26.0203Z" fill="#7AD761"/>
<path d="M91.0862 16.2087L93.6999 17.3552L95.9571 19.1437L96.7634 19.9831L98.0116 20.8985L98.5783 21.6963L99.1442 22.4962L17.1786 48.216L18.8265 48.8476L15.5307 47.5845L12.9173 46.4375L11.9755 45.9639L10.2916 45.0234L9.73768 44.492L8.48906 43.5773L7.24043 42.6626L5.99178 41.748L91.0862 16.2087Z" fill="white" fill-opacity="0.25"/>
</svg>
