<svg width="76" height="66" viewBox="0 0 76 66" fill="none" xmlns="http://www.w3.org/2000/svg">
<path fill-rule="evenodd" clip-rule="evenodd" d="M54.2024 1.26523C57.7711 -0.478574 62.1645 1.31671 63.3516 5.22106L72.4246 35.0632C73.6117 38.9676 70.9642 42.9035 67.0266 43.4453C59.8402 44.418 52.7295 45.8855 45.7452 47.8373L47.0324 52.0711C49.2952 51.5496 51.4546 51.2021 53.1987 50.974C54.655 50.7826 56.1137 50.6209 57.5782 50.5458C58.0045 50.5242 58.4309 50.5868 58.833 50.7301C59.2351 50.8733 59.6051 51.0944 59.9217 51.3807C60.2383 51.667 60.4954 52.0128 60.6783 52.3985C60.8612 52.7842 60.9664 53.2021 60.9877 53.6285C61.0203 54.495 60.7092 55.3393 60.1222 55.9776C59.5353 56.6159 58.7199 56.9965 57.8537 57.0365C56.578 57.1187 55.3073 57.2504 54.0428 57.4141C51.2476 57.7628 48.4849 58.3348 45.781 59.1245C42.9087 59.9978 40.0932 61.2478 37.9653 62.3022C36.8238 62.87 35.6947 63.468 34.5892 64.1097C33.8473 64.5586 32.9581 64.6963 32.1152 64.4927C31.2722 64.2892 30.5439 63.7609 30.0886 63.0228C29.6585 62.279 29.5351 61.3968 29.7446 60.5635C29.954 59.7302 30.4798 59.0112 31.2105 58.5591C32.4739 57.8175 33.7654 57.1246 35.082 56.4821C36.6569 55.6977 38.6421 54.7885 40.8153 53.9613L39.5281 49.7275C32.6393 51.9936 25.9152 54.7324 19.4035 57.9243C15.8339 59.665 11.4395 57.8666 10.2534 53.9654L1.18038 24.1232C-0.0066756 20.2189 2.64082 16.2829 6.57931 15.7443C23.1326 13.5267 39.2161 8.63677 54.2024 1.26523Z" fill="#F89701"/>
<path fill-rule="evenodd" clip-rule="evenodd" d="M57.3865 2.30473C60.9552 0.560922 65.3486 2.3562 66.5356 6.26056L75.6087 36.1027C76.7957 40.0071 74.1482 43.943 70.2107 44.4848C63.0243 45.4575 55.9136 46.925 48.9293 48.8768L50.2165 53.1106C52.4792 52.5891 54.6386 52.2416 56.3827 52.0135C57.8391 51.8221 59.2977 51.6604 60.7623 51.5853C61.1886 51.5637 61.615 51.6263 62.0171 51.7696C62.4192 51.9128 62.7891 52.1339 63.1058 52.4202C63.4224 52.7065 63.6795 53.0523 63.8624 53.438C64.0453 53.8237 64.1504 54.2416 64.1717 54.668C64.2043 55.5345 63.8933 56.3788 63.3063 57.0171C62.7193 57.6554 61.904 58.036 61.0378 58.076C59.7621 58.1582 58.4913 58.2899 57.2269 58.4536C54.4317 58.8023 51.669 59.3743 48.9651 60.1641C46.0928 61.0373 43.2773 62.2873 41.1494 63.3417C40.0078 63.9095 38.8788 64.5075 37.7733 65.1492C37.0314 65.5982 36.1422 65.7358 35.2992 65.5322C34.4563 65.3287 33.7279 64.8004 33.2727 64.0623C32.8426 63.3185 32.7192 62.4363 32.9286 61.603C33.1381 60.7697 33.6639 60.0507 34.3946 59.5986C35.658 58.857 36.9494 58.1641 38.2661 57.5216C39.841 56.7372 41.8262 55.828 43.9994 55.0008L42.7122 50.767C35.8234 53.0331 29.0992 55.7719 22.5876 58.9638C19.0179 60.7045 14.6236 58.9062 13.4375 55.0049L4.36445 25.1627C3.17739 21.2584 5.82489 17.3224 9.76338 16.7838C26.3167 14.5662 42.4002 9.67627 57.3865 2.30473Z" fill="#FEE333"/>
</svg>
