<svg width="57" height="57" viewBox="0 0 57 57" fill="none" xmlns="http://www.w3.org/2000/svg">
<circle cx="28.5" cy="28.5" r="28.5" fill="#D9D9D9"/>
<path fill-rule="evenodd" clip-rule="evenodd" d="M22.6667 20.981C22.6667 19.4683 23.2812 18.0176 24.3752 16.9479C25.4692 15.8783 26.9529 15.2773 28.5 15.2773C30.0471 15.2773 31.5308 15.8783 32.6248 16.9479C33.7188 18.0176 34.3333 19.4683 34.3333 20.981C34.3333 22.4938 33.7188 23.9445 32.6248 25.0142C31.5308 26.0838 30.0471 26.6848 28.5 26.6848C26.9529 26.6848 25.4692 26.0838 24.3752 25.0142C23.2812 23.9445 22.6667 22.4938 22.6667 20.981ZM22.6667 29.5366C20.7328 29.5366 18.8781 30.2878 17.5107 31.6248C16.1432 32.9619 15.375 34.7753 15.375 36.6662C15.375 37.8008 15.8359 38.8888 16.6564 39.6911C17.4769 40.4933 18.5897 40.944 19.75 40.944H37.25C38.4103 40.944 39.5231 40.4933 40.3436 39.6911C41.1641 38.8888 41.625 37.8008 41.625 36.6662C41.625 34.7753 40.8568 32.9619 39.4893 31.6248C38.1219 30.2878 36.2672 29.5366 34.3333 29.5366H22.6667Z" fill="black" fill-opacity="0.5"/>
</svg>
