<svg width="57" height="34" viewBox="0 0 57 34" fill="none" xmlns="http://www.w3.org/2000/svg">
<path fill-rule="evenodd" clip-rule="evenodd" d="M40 3.4C37.6213 3.39956 35.2841 4.02303 33.2216 5.20816C31.1592 6.3933 29.4436 8.09866 28.2462 10.154C27.0488 12.2094 26.4115 14.5428 26.3977 16.9215C26.384 19.3002 26.9944 21.6408 28.168 23.7099C28.9612 22.679 29.9809 21.8443 31.1483 21.2703C32.3156 20.6964 33.5992 20.3986 34.9 20.4H45.1C46.4008 20.3986 47.6844 20.6964 48.8517 21.2703C50.0191 21.8443 51.0387 22.679 51.832 23.7099C53.0056 21.6408 53.616 19.3002 53.6023 16.9215C53.5885 14.5428 52.9512 12.2094 51.7538 10.154C50.5564 8.09866 48.8408 6.3933 46.7784 5.20816C44.7159 4.02303 42.3787 3.39956 40 3.4ZM53.5031 27.3292C55.776 24.366 57.0055 20.7345 57 17C57 7.61089 49.3891 0 40 0C30.6109 0 23 7.61089 23 17C22.9944 20.7345 24.2239 24.3661 26.4969 27.3292L26.4884 27.3598L27.0919 28.0619C28.6863 29.9259 30.666 31.4221 32.8944 32.4473C35.1228 33.4724 37.5471 34.0021 40 34C43.4465 34.0063 46.8126 32.9594 49.6475 30.9995C50.8561 30.1644 51.952 29.1771 52.9081 28.0619L53.5116 27.3598L53.5031 27.3292ZM40 6.79999C38.6474 6.79999 37.3502 7.33731 36.3938 8.29375C35.4373 9.25018 34.9 10.5474 34.9 11.9C34.9 13.2526 35.4373 14.5498 36.3938 15.5062C37.3502 16.4627 38.6474 17 40 17C41.3526 17 42.6498 16.4627 43.6062 15.5062C44.5627 14.5498 45.1 13.2526 45.1 11.9C45.1 10.5474 44.5627 9.25018 43.6062 8.29375C42.6498 7.33731 41.3526 6.79999 40 6.79999Z" fill="#121212"/>
<path d="M2.5 15.6253L6.17418 19.2995C6.90641 20.0317 8.09359 20.0317 8.82583 19.2995L12.5 15.6253" stroke="#121212" stroke-width="2" stroke-linecap="round" stroke-linejoin="round"/>
</svg>
