<svg width="162" height="162" viewBox="0 0 162 162" fill="none" xmlns="http://www.w3.org/2000/svg">
<g clip-path="url(#clip0_694_956)">
<rect x="40.8485" y="36.0752" width="109.662" height="76.7618" rx="10" transform="rotate(15.06 40.8485 36.0752)" fill="#1F9DD3"/>
<path d="M30.2802 107.802C27.3679 107.019 25.1545 105.312 23.64 102.682C22.1254 100.053 21.7586 97.2796 22.5397 94.3629L36.7869 41.4132C37.5705 38.5009 39.2789 36.288 41.9121 34.7744C44.5452 33.2608 47.3166 32.8936 50.2263 33.6727L134.946 56.4683C137.858 57.2519 140.073 58.9607 141.59 61.5949C143.107 64.229 143.472 66.9999 142.686 69.9077L128.439 122.857C127.655 125.77 125.948 127.985 123.318 129.503C120.687 131.021 117.914 131.386 115 130.598L30.2802 107.802ZM55.7342 97.6163L98.094 109.014L100.943 98.4241L58.5837 87.0263L55.7342 97.6163ZM44.1235 77.4572L54.7134 80.3066L57.5629 69.7167L46.9729 66.8672L44.1235 77.4572ZM60.0084 81.7313L70.5983 84.5808L73.4478 73.9909L62.8578 71.1414L60.0084 81.7313ZM75.8933 86.0055L86.4832 88.855L89.3327 78.265L78.7427 75.4156L75.8933 86.0055ZM91.7782 90.2797L102.368 93.1291L105.218 82.5392L94.6276 79.6898L91.7782 90.2797ZM107.663 94.5539L118.253 97.4033L121.102 86.8134L110.513 83.9639L107.663 94.5539ZM48.3976 61.5723L58.9876 64.4217L61.837 53.8318L51.2471 50.9823L48.3976 61.5723ZM64.2826 65.8464L74.8725 68.6959L77.7219 58.1059L67.132 55.2565L64.2826 65.8464ZM80.1675 70.1206L90.7574 72.9701L93.6068 62.3801L83.0169 59.5307L80.1675 70.1206ZM96.0524 74.3948L106.642 77.2442L109.492 66.6543L98.9018 63.8048L96.0524 74.3948ZM111.937 78.669L122.527 81.5184L125.377 70.9285L114.787 68.079L111.937 78.669Z" fill="#46C4FF"/>
</g>
<defs>
<clipPath id="clip0_694_956">
<rect width="131.599" height="131.599" fill="white" transform="translate(34.8538 0.182617) rotate(15.06)"/>
</clipPath>
</defs>
</svg>
