<svg width="55" height="45" viewBox="0 0 55 45" fill="none" xmlns="http://www.w3.org/2000/svg">
<path d="M8.19974 5.87742C8.91724 3.21084 11.6606 1.6308 14.3272 2.3483L50.7806 12.1569C53.4472 12.8744 55.0273 15.6178 54.3098 18.2843L48.2234 40.9043C47.5059 43.5708 44.7625 45.1509 42.096 44.4334L5.64248 34.6248C2.97589 33.9073 1.39585 31.1639 2.11335 28.4974L8.19974 5.87742Z" fill="#1F9DD3"/>
<path d="M4.02619 32.5548C2.75811 32.2136 1.79433 31.4704 1.13484 30.3254C0.475358 29.1804 0.315655 27.9729 0.655735 26.7028L6.85943 3.64689C7.20063 2.37882 7.94451 1.41524 9.09108 0.756172C10.2376 0.0971003 11.4444 -0.0628086 12.7114 0.276444L49.6009 10.2023C50.8689 10.5436 51.8333 11.2876 52.4939 12.4346C53.1545 13.5816 53.3136 14.7881 52.9713 16.0543L46.7676 39.1102C46.4264 40.3783 45.6831 41.3428 44.5377 42.0039C43.3922 42.6649 42.1849 42.8238 40.9157 42.4807L4.02619 32.5548ZM15.1097 28.1195L33.5544 33.0824L34.7952 28.4712L16.3504 23.5083L15.1097 28.1195ZM10.054 19.3416L14.6652 20.5823L15.9059 15.9711L11.2947 14.7304L10.054 19.3416ZM16.9708 21.2027L21.582 22.4434L22.8227 17.8322L18.2115 16.5915L16.9708 21.2027ZM23.8876 23.0638L28.4987 24.3045L29.7395 19.6933L25.1283 18.4526L23.8876 23.0638ZM30.8043 24.9249L35.4155 26.1656L36.6563 21.5544L32.0451 20.3137L30.8043 24.9249ZM37.7211 26.786L42.3323 28.0267L43.573 23.4155L38.9619 22.1748L37.7211 26.786ZM11.9151 12.4248L16.5263 13.6655L17.767 9.05433L13.1558 7.8136L11.9151 12.4248ZM18.8319 14.2859L23.4431 15.5266L24.6838 10.9154L20.0726 9.6747L18.8319 14.2859ZM25.7487 16.147L30.3599 17.3877L31.6006 12.7765L26.9894 11.5358L25.7487 16.147ZM32.6655 18.0081L37.2766 19.2488L38.5174 14.6377L33.9062 13.3969L32.6655 18.0081ZM39.5822 19.8692L44.1934 21.11L45.4342 16.4988L40.823 15.258L39.5822 19.8692Z" fill="#46C4FF"/>
</svg>
