<svg width="132" height="132" viewBox="0 0 132 132" fill="none" xmlns="http://www.w3.org/2000/svg">
<path d="M30.045 101.905V101.978M30.045 29.4053V29.4778M102.545 29.4053V29.4778M102.545 80.1553H80.795V101.905M124.295 80.1553V80.2278M80.795 123.655H102.545M102.545 101.905H124.295V123.655M8.29504 14.9053C8.29504 12.9825 9.05888 11.1384 10.4185 9.77875C11.7782 8.41911 13.6222 7.65527 15.545 7.65527H44.545C46.4679 7.65527 48.3119 8.41911 49.6716 9.77875C51.0312 11.1384 51.795 12.9825 51.795 14.9053V43.9053C51.795 45.8281 51.0312 47.6722 49.6716 49.0318C48.3119 50.3914 46.4679 51.1553 44.545 51.1553H15.545C13.6222 51.1553 11.7782 50.3914 10.4185 49.0318C9.05888 47.6722 8.29504 45.8281 8.29504 43.9053V14.9053ZM80.795 14.9053C80.795 12.9825 81.5589 11.1384 82.9185 9.77875C84.2782 8.41911 86.1222 7.65527 88.045 7.65527H117.045C118.968 7.65527 120.812 8.41911 122.172 9.77875C123.531 11.1384 124.295 12.9825 124.295 14.9053V43.9053C124.295 45.8281 123.531 47.6722 122.172 49.0318C120.812 50.3914 118.968 51.1553 117.045 51.1553H88.045C86.1222 51.1553 84.2782 50.3914 82.9185 49.0318C81.5589 47.6722 80.795 45.8281 80.795 43.9053V14.9053ZM8.29504 87.4053C8.29504 85.4824 9.05888 83.6384 10.4185 82.2787C11.7782 80.9191 13.6222 80.1553 15.545 80.1553H44.545C46.4679 80.1553 48.3119 80.9191 49.6716 82.2787C51.0312 83.6384 51.795 85.4824 51.795 87.4053V116.405C51.795 118.328 51.0312 120.172 49.6716 121.532C48.3119 122.891 46.4679 123.655 44.545 123.655H15.545C13.6222 123.655 11.7782 122.891 10.4185 121.532C9.05888 120.172 8.29504 118.328 8.29504 116.405V87.4053Z" stroke="#CDCDCD" stroke-width="15" stroke-linecap="round" stroke-linejoin="round"/>
</svg>
