<svg width="174" height="174" viewBox="0 0 174 174" fill="none" xmlns="http://www.w3.org/2000/svg">
<path d="M39.0835 134.916V135.012M39.0835 39.083V39.1788M134.917 39.083V39.1788M134.917 106.166H106.167V134.916M163.667 106.166V106.262M106.167 163.666H134.917M134.917 134.916H163.667V163.666M10.3335 19.9163C10.3335 17.3747 11.3432 14.9371 13.1404 13.1399C14.9376 11.3427 17.3752 10.333 19.9168 10.333H58.2502C60.7918 10.333 63.2294 11.3427 65.0266 13.1399C66.8238 14.9371 67.8335 17.3747 67.8335 19.9163V58.2497C67.8335 60.7913 66.8238 63.2289 65.0266 65.0261C63.2294 66.8233 60.7918 67.833 58.2502 67.833H19.9168C17.3752 67.833 14.9376 66.8233 13.1404 65.0261C11.3432 63.2289 10.3335 60.7913 10.3335 58.2497V19.9163ZM106.167 19.9163C106.167 17.3747 107.176 14.9371 108.974 13.1399C110.771 11.3427 113.209 10.333 115.75 10.333H154.083C156.625 10.333 159.063 11.3427 160.86 13.1399C162.657 14.9371 163.667 17.3747 163.667 19.9163V58.2497C163.667 60.7913 162.657 63.2289 160.86 65.0261C159.063 66.8233 156.625 67.833 154.083 67.833H115.75C113.209 67.833 110.771 66.8233 108.974 65.0261C107.176 63.2289 106.167 60.7913 106.167 58.2497V19.9163ZM10.3335 115.75C10.3335 113.208 11.3432 110.77 13.1404 108.973C14.9376 107.176 17.3752 106.166 19.9168 106.166H58.2502C60.7918 106.166 63.2294 107.176 65.0266 108.973C66.8238 110.77 67.8335 113.208 67.8335 115.75V154.083C67.8335 156.625 66.8238 159.062 65.0266 160.859C63.2294 162.657 60.7918 163.666 58.2502 163.666H19.9168C17.3752 163.666 14.9376 162.657 13.1404 160.859C11.3432 159.062 10.3335 156.625 10.3335 154.083V115.75Z" stroke="#CDCDCD" stroke-width="20" stroke-linecap="round" stroke-linejoin="round"/>
</svg>
