<svg width="230" height="230" viewBox="0 0 230 230" fill="none" xmlns="http://www.w3.org/2000/svg">
<path d="M67.0835 162.916V163.012M67.0835 67.083V67.1788M162.917 67.083V67.1788M162.917 134.166H134.167V162.916M191.667 134.166V134.262M134.167 191.666H162.917M162.917 162.916H191.667V191.666M38.3335 47.9163C38.3335 45.3747 39.3432 42.9371 41.1404 41.1399C42.9376 39.3427 45.3752 38.333 47.9168 38.333H86.2502C88.7918 38.333 91.2294 39.3427 93.0266 41.1399C94.8238 42.9371 95.8335 45.3747 95.8335 47.9163V86.2497C95.8335 88.7913 94.8238 91.2289 93.0266 93.0261C91.2294 94.8233 88.7918 95.833 86.2502 95.833H47.9168C45.3752 95.833 42.9376 94.8233 41.1404 93.0261C39.3432 91.2289 38.3335 88.7913 38.3335 86.2497V47.9163ZM134.167 47.9163C134.167 45.3747 135.176 42.9371 136.974 41.1399C138.771 39.3427 141.209 38.333 143.75 38.333H182.083C184.625 38.333 187.063 39.3427 188.86 41.1399C190.657 42.9371 191.667 45.3747 191.667 47.9163V86.2497C191.667 88.7913 190.657 91.2289 188.86 93.0261C187.063 94.8233 184.625 95.833 182.083 95.833H143.75C141.209 95.833 138.771 94.8233 136.974 93.0261C135.176 91.2289 134.167 88.7913 134.167 86.2497V47.9163ZM38.3335 143.75C38.3335 141.208 39.3432 138.77 41.1404 136.973C42.9376 135.176 45.3752 134.166 47.9168 134.166H86.2502C88.7918 134.166 91.2294 135.176 93.0266 136.973C94.8238 138.77 95.8335 141.208 95.8335 143.75V182.083C95.8335 184.625 94.8238 187.062 93.0266 188.859C91.2294 190.657 88.7918 191.666 86.2502 191.666H47.9168C45.3752 191.666 42.9376 190.657 41.1404 188.859C39.3432 187.062 38.3335 184.625 38.3335 182.083V143.75Z" stroke="#CDCDCD" stroke-width="20" stroke-linecap="round" stroke-linejoin="round"/>
</svg>
