<svg xmlns="http://www.w3.org/2000/svg" xml:space="preserve" xmlns:xlink="http://www.w3.org/1999/xlink" style="max-width: 100%;height: auto;" width="1005.3333333333" height="1047.2222222222" viewBox="0 0 1005.3333333333 1047.2222222222">
<rect width="930.77111111111" height="930.77111111111" fill="#ffffff" x="41.888888888889" y="41.888888888889" />
<g transform="scale(41.888888888889)" fill="#000000"></g>
<g fill="#000000">
<g transform="translate(294.66666666667,38.666666666667) scale(5.4933333333333)"><rect width="6" height="6"/></g>
<g transform="translate(326.66666666667,38.666666666667) scale(5.4933333333333)"><rect width="6" height="6"/></g>
<g transform="translate(486.66666666667,38.666666666667) scale(5.4933333333333)"><rect width="6" height="6"/></g>
<g transform="translate(550.66666666667,38.666666666667) scale(5.4933333333333)"><rect width="6" height="6"/></g>
<g transform="translate(582.66666666667,38.666666666667) scale(5.4933333333333)"><rect width="6" height="6"/></g>
<g transform="translate(614.66666666667,38.666666666667) scale(5.4933333333333)"><rect width="6" height="6"/></g>
<g transform="translate(294.66666666667,70.666666666667) scale(5.4933333333333)"><rect width="6" height="6"/></g>
<g transform="translate(326.66666666667,70.666666666667) scale(5.4933333333333)"><rect width="6" height="6"/></g>
<g transform="translate(358.66666666667,70.666666666667) scale(5.4933333333333)"><rect width="6" height="6"/></g>
<g transform="translate(390.66666666667,70.666666666667) scale(5.4933333333333)"><rect width="6" height="6"/></g>
<g transform="translate(486.66666666667,70.666666666667) scale(5.4933333333333)"><rect width="6" height="6"/></g>
<g transform="translate(518.66666666667,70.666666666667) scale(5.4933333333333)"><rect width="6" height="6"/></g>
<g transform="translate(550.66666666667,70.666666666667) scale(5.4933333333333)"><rect width="6" height="6"/></g>
<g transform="translate(582.66666666667,70.666666666667) scale(5.4933333333333)"><rect width="6" height="6"/></g>
<g transform="translate(294.66666666667,102.66666666667) scale(5.4933333333333)"><rect width="6" height="6"/></g>
<g transform="translate(390.66666666667,102.66666666667) scale(5.4933333333333)"><rect width="6" height="6"/></g>
<g transform="translate(454.66666666667,102.66666666667) scale(5.4933333333333)"><rect width="6" height="6"/></g>
<g transform="translate(486.66666666667,102.66666666667) scale(5.4933333333333)"><rect width="6" height="6"/></g>
<g transform="translate(614.66666666667,102.66666666667) scale(5.4933333333333)"><rect width="6" height="6"/></g>
<g transform="translate(678.66666666667,102.66666666667) scale(5.4933333333333)"><rect width="6" height="6"/></g>
<g transform="translate(358.66666666667,134.66666666667) scale(5.4933333333333)"><rect width="6" height="6"/></g>
<g transform="translate(454.66666666667,134.66666666667) scale(5.4933333333333)"><rect width="6" height="6"/></g>
<g transform="translate(518.66666666667,134.66666666667) scale(5.4933333333333)"><rect width="6" height="6"/></g>
<g transform="translate(550.66666666667,134.66666666667) scale(5.4933333333333)"><rect width="6" height="6"/></g>
<g transform="translate(582.66666666667,134.66666666667) scale(5.4933333333333)"><rect width="6" height="6"/></g>
<g transform="translate(646.66666666667,134.66666666667) scale(5.4933333333333)"><rect width="6" height="6"/></g>
<g transform="translate(326.66666666667,166.66666666667) scale(5.4933333333333)"><rect width="6" height="6"/></g>
<g transform="translate(358.66666666667,166.66666666667) scale(5.4933333333333)"><rect width="6" height="6"/></g>
<g transform="translate(390.66666666667,166.66666666667) scale(5.4933333333333)"><rect width="6" height="6"/></g>
<g transform="translate(454.66666666667,166.66666666667) scale(5.4933333333333)"><rect width="6" height="6"/></g>
<g transform="translate(486.66666666667,166.66666666667) scale(5.4933333333333)"><rect width="6" height="6"/></g>
<g transform="translate(582.66666666667,166.66666666667) scale(5.4933333333333)"><rect width="6" height="6"/></g>
<g transform="translate(614.66666666667,166.66666666667) scale(5.4933333333333)"><rect width="6" height="6"/></g>
<g transform="translate(646.66666666667,166.66666666667) scale(5.4933333333333)"><rect width="6" height="6"/></g>
<g transform="translate(294.66666666667,198.66666666667) scale(5.4933333333333)"><rect width="6" height="6"/></g>
<g transform="translate(326.66666666667,198.66666666667) scale(5.4933333333333)"><rect width="6" height="6"/></g>
<g transform="translate(358.66666666667,198.66666666667) scale(5.4933333333333)"><rect width="6" height="6"/></g>
<g transform="translate(454.66666666667,198.66666666667) scale(5.4933333333333)"><rect width="6" height="6"/></g>
<g transform="translate(486.66666666667,198.66666666667) scale(5.4933333333333)"><rect width="6" height="6"/></g>
<g transform="translate(550.66666666667,198.66666666667) scale(5.4933333333333)"><rect width="6" height="6"/></g>
<g transform="translate(582.66666666667,198.66666666667) scale(5.4933333333333)"><rect width="6" height="6"/></g>
<g transform="translate(294.66666666667,230.66666666667) scale(5.4933333333333)"><rect width="6" height="6"/></g>
<g transform="translate(358.66666666667,230.66666666667) scale(5.4933333333333)"><rect width="6" height="6"/></g>
<g transform="translate(422.66666666667,230.66666666667) scale(5.4933333333333)"><rect width="6" height="6"/></g>
<g transform="translate(486.66666666667,230.66666666667) scale(5.4933333333333)"><rect width="6" height="6"/></g>
<g transform="translate(550.66666666667,230.66666666667) scale(5.4933333333333)"><rect width="6" height="6"/></g>
<g transform="translate(614.66666666667,230.66666666667) scale(5.4933333333333)"><rect width="6" height="6"/></g>
<g transform="translate(678.66666666667,230.66666666667) scale(5.4933333333333)"><rect width="6" height="6"/></g>
<g transform="translate(294.66666666667,262.66666666667) scale(5.4933333333333)"><rect width="6" height="6"/></g>
<g transform="translate(326.66666666667,262.66666666667) scale(5.4933333333333)"><rect width="6" height="6"/></g>
<g transform="translate(358.66666666667,262.66666666667) scale(5.4933333333333)"><rect width="6" height="6"/></g>
<g transform="translate(550.66666666667,262.66666666667) scale(5.4933333333333)"><rect width="6" height="6"/></g>
<g transform="translate(582.66666666667,262.66666666667) scale(5.4933333333333)"><rect width="6" height="6"/></g>
<g transform="translate(614.66666666667,262.66666666667) scale(5.4933333333333)"><rect width="6" height="6"/></g>
<g transform="translate(646.66666666667,262.66666666667) scale(5.4933333333333)"><rect width="6" height="6"/></g>
<g transform="translate(102.66666666667,294.66666666667) scale(5.4933333333333)"><rect width="6" height="6"/></g>
<g transform="translate(134.66666666667,294.66666666667) scale(5.4933333333333)"><rect width="6" height="6"/></g>
<g transform="translate(166.66666666667,294.66666666667) scale(5.4933333333333)"><rect width="6" height="6"/></g>
<g transform="translate(230.66666666667,294.66666666667) scale(5.4933333333333)"><rect width="6" height="6"/></g>
<g transform="translate(294.66666666667,294.66666666667) scale(5.4933333333333)"><rect width="6" height="6"/></g>
<g transform="translate(390.66666666667,294.66666666667) scale(5.4933333333333)"><rect width="6" height="6"/></g>
<g transform="translate(422.66666666667,294.66666666667) scale(5.4933333333333)"><rect width="6" height="6"/></g>
<g transform="translate(454.66666666667,294.66666666667) scale(5.4933333333333)"><rect width="6" height="6"/></g>
<g transform="translate(486.66666666667,294.66666666667) scale(5.4933333333333)"><rect width="6" height="6"/></g>
<g transform="translate(550.66666666667,294.66666666667) scale(5.4933333333333)"><rect width="6" height="6"/></g>
<g transform="translate(710.66666666667,294.66666666667) scale(5.4933333333333)"><rect width="6" height="6"/></g>
<g transform="translate(742.66666666667,294.66666666667) scale(5.4933333333333)"><rect width="6" height="6"/></g>
<g transform="translate(774.66666666667,294.66666666667) scale(5.4933333333333)"><rect width="6" height="6"/></g>
<g transform="translate(870.66666666667,294.66666666667) scale(5.4933333333333)"><rect width="6" height="6"/></g>
<g transform="translate(902.66666666667,294.66666666667) scale(5.4933333333333)"><rect width="6" height="6"/></g>
<g transform="translate(934.66666666667,294.66666666667) scale(5.4933333333333)"><rect width="6" height="6"/></g>
<g transform="translate(38.666666666667,326.66666666667) scale(5.4933333333333)"><rect width="6" height="6"/></g>
<g transform="translate(134.66666666667,326.66666666667) scale(5.4933333333333)"><rect width="6" height="6"/></g>
<g transform="translate(198.66666666667,326.66666666667) scale(5.4933333333333)"><rect width="6" height="6"/></g>
<g transform="translate(294.66666666667,326.66666666667) scale(5.4933333333333)"><rect width="6" height="6"/></g>
<g transform="translate(486.66666666667,326.66666666667) scale(5.4933333333333)"><rect width="6" height="6"/></g>
<g transform="translate(518.66666666667,326.66666666667) scale(5.4933333333333)"><rect width="6" height="6"/></g>
<g transform="translate(550.66666666667,326.66666666667) scale(5.4933333333333)"><rect width="6" height="6"/></g>
<g transform="translate(614.66666666667,326.66666666667) scale(5.4933333333333)"><rect width="6" height="6"/></g>
<g transform="translate(678.66666666667,326.66666666667) scale(5.4933333333333)"><rect width="6" height="6"/></g>
<g transform="translate(742.66666666667,326.66666666667) scale(5.4933333333333)"><rect width="6" height="6"/></g>
<g transform="translate(774.66666666667,326.66666666667) scale(5.4933333333333)"><rect width="6" height="6"/></g>
<g transform="translate(806.66666666667,326.66666666667) scale(5.4933333333333)"><rect width="6" height="6"/></g>
<g transform="translate(838.66666666667,326.66666666667) scale(5.4933333333333)"><rect width="6" height="6"/></g>
<g transform="translate(934.66666666667,326.66666666667) scale(5.4933333333333)"><rect width="6" height="6"/></g>
<g transform="translate(38.666666666667,358.66666666667) scale(5.4933333333333)"><rect width="6" height="6"/></g>
<g transform="translate(70.666666666667,358.66666666667) scale(5.4933333333333)"><rect width="6" height="6"/></g>
<g transform="translate(102.66666666667,358.66666666667) scale(5.4933333333333)"><rect width="6" height="6"/></g>
<g transform="translate(134.66666666667,358.66666666667) scale(5.4933333333333)"><rect width="6" height="6"/></g>
<g transform="translate(198.66666666667,358.66666666667) scale(5.4933333333333)"><rect width="6" height="6"/></g>
<g transform="translate(230.66666666667,358.66666666667) scale(5.4933333333333)"><rect width="6" height="6"/></g>
<g transform="translate(326.66666666667,358.66666666667) scale(5.4933333333333)"><rect width="6" height="6"/></g>
<g transform="translate(358.66666666667,358.66666666667) scale(5.4933333333333)"><rect width="6" height="6"/></g>
<g transform="translate(390.66666666667,358.66666666667) scale(5.4933333333333)"><rect width="6" height="6"/></g>
<g transform="translate(518.66666666667,358.66666666667) scale(5.4933333333333)"><rect width="6" height="6"/></g>
<g transform="translate(582.66666666667,358.66666666667) scale(5.4933333333333)"><rect width="6" height="6"/></g>
<g transform="translate(614.66666666667,358.66666666667) scale(5.4933333333333)"><rect width="6" height="6"/></g>
<g transform="translate(710.66666666667,358.66666666667) scale(5.4933333333333)"><rect width="6" height="6"/></g>
<g transform="translate(742.66666666667,358.66666666667) scale(5.4933333333333)"><rect width="6" height="6"/></g>
<g transform="translate(166.66666666667,390.66666666667) scale(5.4933333333333)"><rect width="6" height="6"/></g>
<g transform="translate(326.66666666667,390.66666666667) scale(5.4933333333333)"><rect width="6" height="6"/></g>
<g transform="translate(358.66666666667,390.66666666667) scale(5.4933333333333)"><rect width="6" height="6"/></g>
<g transform="translate(390.66666666667,390.66666666667) scale(5.4933333333333)"><rect width="6" height="6"/></g>
<g transform="translate(422.66666666667,390.66666666667) scale(5.4933333333333)"><rect width="6" height="6"/></g>
<g transform="translate(454.66666666667,390.66666666667) scale(5.4933333333333)"><rect width="6" height="6"/></g>
<g transform="translate(582.66666666667,390.66666666667) scale(5.4933333333333)"><rect width="6" height="6"/></g>
<g transform="translate(614.66666666667,390.66666666667) scale(5.4933333333333)"><rect width="6" height="6"/></g>
<g transform="translate(710.66666666667,390.66666666667) scale(5.4933333333333)"><rect width="6" height="6"/></g>
<g transform="translate(742.66666666667,390.66666666667) scale(5.4933333333333)"><rect width="6" height="6"/></g>
<g transform="translate(806.66666666667,390.66666666667) scale(5.4933333333333)"><rect width="6" height="6"/></g>
<g transform="translate(838.66666666667,390.66666666667) scale(5.4933333333333)"><rect width="6" height="6"/></g>
<g transform="translate(902.66666666667,390.66666666667) scale(5.4933333333333)"><rect width="6" height="6"/></g>
<g transform="translate(70.666666666667,422.66666666667) scale(5.4933333333333)"><rect width="6" height="6"/></g>
<g transform="translate(134.66666666667,422.66666666667) scale(5.4933333333333)"><rect width="6" height="6"/></g>
<g transform="translate(166.66666666667,422.66666666667) scale(5.4933333333333)"><rect width="6" height="6"/></g>
<g transform="translate(198.66666666667,422.66666666667) scale(5.4933333333333)"><rect width="6" height="6"/></g>
<g transform="translate(230.66666666667,422.66666666667) scale(5.4933333333333)"><rect width="6" height="6"/></g>
<g transform="translate(262.66666666667,422.66666666667) scale(5.4933333333333)"><rect width="6" height="6"/></g>
<g transform="translate(390.66666666667,422.66666666667) scale(5.4933333333333)"><rect width="6" height="6"/></g>
<g transform="translate(486.66666666667,422.66666666667) scale(5.4933333333333)"><rect width="6" height="6"/></g>
<g transform="translate(518.66666666667,422.66666666667) scale(5.4933333333333)"><rect width="6" height="6"/></g>
<g transform="translate(614.66666666667,422.66666666667) scale(5.4933333333333)"><rect width="6" height="6"/></g>
<g transform="translate(646.66666666667,422.66666666667) scale(5.4933333333333)"><rect width="6" height="6"/></g>
<g transform="translate(678.66666666667,422.66666666667) scale(5.4933333333333)"><rect width="6" height="6"/></g>
<g transform="translate(710.66666666667,422.66666666667) scale(5.4933333333333)"><rect width="6" height="6"/></g>
<g transform="translate(774.66666666667,422.66666666667) scale(5.4933333333333)"><rect width="6" height="6"/></g>
<g transform="translate(870.66666666667,422.66666666667) scale(5.4933333333333)"><rect width="6" height="6"/></g>
<g transform="translate(902.66666666667,422.66666666667) scale(5.4933333333333)"><rect width="6" height="6"/></g>
<g transform="translate(934.66666666667,422.66666666667) scale(5.4933333333333)"><rect width="6" height="6"/></g>
<g transform="translate(38.666666666667,454.66666666667) scale(5.4933333333333)"><rect width="6" height="6"/></g>
<g transform="translate(70.666666666667,454.66666666667) scale(5.4933333333333)"><rect width="6" height="6"/></g>
<g transform="translate(102.66666666667,454.66666666667) scale(5.4933333333333)"><rect width="6" height="6"/></g>
<g transform="translate(134.66666666667,454.66666666667) scale(5.4933333333333)"><rect width="6" height="6"/></g>
<g transform="translate(166.66666666667,454.66666666667) scale(5.4933333333333)"><rect width="6" height="6"/></g>
<g transform="translate(198.66666666667,454.66666666667) scale(5.4933333333333)"><rect width="6" height="6"/></g>
<g transform="translate(262.66666666667,454.66666666667) scale(5.4933333333333)"><rect width="6" height="6"/></g>
<g transform="translate(358.66666666667,454.66666666667) scale(5.4933333333333)"><rect width="6" height="6"/></g>
<g transform="translate(486.66666666667,454.66666666667) scale(5.4933333333333)"><rect width="6" height="6"/></g>
<g transform="translate(518.66666666667,454.66666666667) scale(5.4933333333333)"><rect width="6" height="6"/></g>
<g transform="translate(614.66666666667,454.66666666667) scale(5.4933333333333)"><rect width="6" height="6"/></g>
<g transform="translate(646.66666666667,454.66666666667) scale(5.4933333333333)"><rect width="6" height="6"/></g>
<g transform="translate(678.66666666667,454.66666666667) scale(5.4933333333333)"><rect width="6" height="6"/></g>
<g transform="translate(710.66666666667,454.66666666667) scale(5.4933333333333)"><rect width="6" height="6"/></g>
<g transform="translate(742.66666666667,454.66666666667) scale(5.4933333333333)"><rect width="6" height="6"/></g>
<g transform="translate(806.66666666667,454.66666666667) scale(5.4933333333333)"><rect width="6" height="6"/></g>
<g transform="translate(838.66666666667,454.66666666667) scale(5.4933333333333)"><rect width="6" height="6"/></g>
<g transform="translate(902.66666666667,454.66666666667) scale(5.4933333333333)"><rect width="6" height="6"/></g>
<g transform="translate(934.66666666667,454.66666666667) scale(5.4933333333333)"><rect width="6" height="6"/></g>
<g transform="translate(166.66666666667,486.66666666667) scale(5.4933333333333)"><rect width="6" height="6"/></g>
<g transform="translate(198.66666666667,486.66666666667) scale(5.4933333333333)"><rect width="6" height="6"/></g>
<g transform="translate(230.66666666667,486.66666666667) scale(5.4933333333333)"><rect width="6" height="6"/></g>
<g transform="translate(262.66666666667,486.66666666667) scale(5.4933333333333)"><rect width="6" height="6"/></g>
<g transform="translate(390.66666666667,486.66666666667) scale(5.4933333333333)"><rect width="6" height="6"/></g>
<g transform="translate(422.66666666667,486.66666666667) scale(5.4933333333333)"><rect width="6" height="6"/></g>
<g transform="translate(454.66666666667,486.66666666667) scale(5.4933333333333)"><rect width="6" height="6"/></g>
<g transform="translate(486.66666666667,486.66666666667) scale(5.4933333333333)"><rect width="6" height="6"/></g>
<g transform="translate(550.66666666667,486.66666666667) scale(5.4933333333333)"><rect width="6" height="6"/></g>
<g transform="translate(582.66666666667,486.66666666667) scale(5.4933333333333)"><rect width="6" height="6"/></g>
<g transform="translate(614.66666666667,486.66666666667) scale(5.4933333333333)"><rect width="6" height="6"/></g>
<g transform="translate(678.66666666667,486.66666666667) scale(5.4933333333333)"><rect width="6" height="6"/></g>
<g transform="translate(774.66666666667,486.66666666667) scale(5.4933333333333)"><rect width="6" height="6"/></g>
<g transform="translate(38.666666666667,518.66666666667) scale(5.4933333333333)"><rect width="6" height="6"/></g>
<g transform="translate(70.666666666667,518.66666666667) scale(5.4933333333333)"><rect width="6" height="6"/></g>
<g transform="translate(102.66666666667,518.66666666667) scale(5.4933333333333)"><rect width="6" height="6"/></g>
<g transform="translate(166.66666666667,518.66666666667) scale(5.4933333333333)"><rect width="6" height="6"/></g>
<g transform="translate(198.66666666667,518.66666666667) scale(5.4933333333333)"><rect width="6" height="6"/></g>
<g transform="translate(294.66666666667,518.66666666667) scale(5.4933333333333)"><rect width="6" height="6"/></g>
<g transform="translate(518.66666666667,518.66666666667) scale(5.4933333333333)"><rect width="6" height="6"/></g>
<g transform="translate(550.66666666667,518.66666666667) scale(5.4933333333333)"><rect width="6" height="6"/></g>
<g transform="translate(582.66666666667,518.66666666667) scale(5.4933333333333)"><rect width="6" height="6"/></g>
<g transform="translate(806.66666666667,518.66666666667) scale(5.4933333333333)"><rect width="6" height="6"/></g>
<g transform="translate(838.66666666667,518.66666666667) scale(5.4933333333333)"><rect width="6" height="6"/></g>
<g transform="translate(934.66666666667,518.66666666667) scale(5.4933333333333)"><rect width="6" height="6"/></g>
<g transform="translate(166.66666666667,550.66666666667) scale(5.4933333333333)"><rect width="6" height="6"/></g>
<g transform="translate(198.66666666667,550.66666666667) scale(5.4933333333333)"><rect width="6" height="6"/></g>
<g transform="translate(230.66666666667,550.66666666667) scale(5.4933333333333)"><rect width="6" height="6"/></g>
<g transform="translate(358.66666666667,550.66666666667) scale(5.4933333333333)"><rect width="6" height="6"/></g>
<g transform="translate(486.66666666667,550.66666666667) scale(5.4933333333333)"><rect width="6" height="6"/></g>
<g transform="translate(614.66666666667,550.66666666667) scale(5.4933333333333)"><rect width="6" height="6"/></g>
<g transform="translate(710.66666666667,550.66666666667) scale(5.4933333333333)"><rect width="6" height="6"/></g>
<g transform="translate(838.66666666667,550.66666666667) scale(5.4933333333333)"><rect width="6" height="6"/></g>
<g transform="translate(870.66666666667,550.66666666667) scale(5.4933333333333)"><rect width="6" height="6"/></g>
<g transform="translate(934.66666666667,550.66666666667) scale(5.4933333333333)"><rect width="6" height="6"/></g>
<g transform="translate(38.666666666667,582.66666666667) scale(5.4933333333333)"><rect width="6" height="6"/></g>
<g transform="translate(70.666666666667,582.66666666667) scale(5.4933333333333)"><rect width="6" height="6"/></g>
<g transform="translate(166.66666666667,582.66666666667) scale(5.4933333333333)"><rect width="6" height="6"/></g>
<g transform="translate(262.66666666667,582.66666666667) scale(5.4933333333333)"><rect width="6" height="6"/></g>
<g transform="translate(390.66666666667,582.66666666667) scale(5.4933333333333)"><rect width="6" height="6"/></g>
<g transform="translate(486.66666666667,582.66666666667) scale(5.4933333333333)"><rect width="6" height="6"/></g>
<g transform="translate(518.66666666667,582.66666666667) scale(5.4933333333333)"><rect width="6" height="6"/></g>
<g transform="translate(582.66666666667,582.66666666667) scale(5.4933333333333)"><rect width="6" height="6"/></g>
<g transform="translate(646.66666666667,582.66666666667) scale(5.4933333333333)"><rect width="6" height="6"/></g>
<g transform="translate(678.66666666667,582.66666666667) scale(5.4933333333333)"><rect width="6" height="6"/></g>
<g transform="translate(742.66666666667,582.66666666667) scale(5.4933333333333)"><rect width="6" height="6"/></g>
<g transform="translate(774.66666666667,582.66666666667) scale(5.4933333333333)"><rect width="6" height="6"/></g>
<g transform="translate(806.66666666667,582.66666666667) scale(5.4933333333333)"><rect width="6" height="6"/></g>
<g transform="translate(838.66666666667,582.66666666667) scale(5.4933333333333)"><rect width="6" height="6"/></g>
<g transform="translate(902.66666666667,582.66666666667) scale(5.4933333333333)"><rect width="6" height="6"/></g>
<g transform="translate(934.66666666667,582.66666666667) scale(5.4933333333333)"><rect width="6" height="6"/></g>
<g transform="translate(38.666666666667,614.66666666667) scale(5.4933333333333)"><rect width="6" height="6"/></g>
<g transform="translate(102.66666666667,614.66666666667) scale(5.4933333333333)"><rect width="6" height="6"/></g>
<g transform="translate(166.66666666667,614.66666666667) scale(5.4933333333333)"><rect width="6" height="6"/></g>
<g transform="translate(198.66666666667,614.66666666667) scale(5.4933333333333)"><rect width="6" height="6"/></g>
<g transform="translate(230.66666666667,614.66666666667) scale(5.4933333333333)"><rect width="6" height="6"/></g>
<g transform="translate(294.66666666667,614.66666666667) scale(5.4933333333333)"><rect width="6" height="6"/></g>
<g transform="translate(358.66666666667,614.66666666667) scale(5.4933333333333)"><rect width="6" height="6"/></g>
<g transform="translate(422.66666666667,614.66666666667) scale(5.4933333333333)"><rect width="6" height="6"/></g>
<g transform="translate(518.66666666667,614.66666666667) scale(5.4933333333333)"><rect width="6" height="6"/></g>
<g transform="translate(550.66666666667,614.66666666667) scale(5.4933333333333)"><rect width="6" height="6"/></g>
<g transform="translate(582.66666666667,614.66666666667) scale(5.4933333333333)"><rect width="6" height="6"/></g>
<g transform="translate(742.66666666667,614.66666666667) scale(5.4933333333333)"><rect width="6" height="6"/></g>
<g transform="translate(774.66666666667,614.66666666667) scale(5.4933333333333)"><rect width="6" height="6"/></g>
<g transform="translate(838.66666666667,614.66666666667) scale(5.4933333333333)"><rect width="6" height="6"/></g>
<g transform="translate(38.666666666667,646.66666666667) scale(5.4933333333333)"><rect width="6" height="6"/></g>
<g transform="translate(134.66666666667,646.66666666667) scale(5.4933333333333)"><rect width="6" height="6"/></g>
<g transform="translate(166.66666666667,646.66666666667) scale(5.4933333333333)"><rect width="6" height="6"/></g>
<g transform="translate(198.66666666667,646.66666666667) scale(5.4933333333333)"><rect width="6" height="6"/></g>
<g transform="translate(262.66666666667,646.66666666667) scale(5.4933333333333)"><rect width="6" height="6"/></g>
<g transform="translate(294.66666666667,646.66666666667) scale(5.4933333333333)"><rect width="6" height="6"/></g>
<g transform="translate(326.66666666667,646.66666666667) scale(5.4933333333333)"><rect width="6" height="6"/></g>
<g transform="translate(422.66666666667,646.66666666667) scale(5.4933333333333)"><rect width="6" height="6"/></g>
<g transform="translate(518.66666666667,646.66666666667) scale(5.4933333333333)"><rect width="6" height="6"/></g>
<g transform="translate(550.66666666667,646.66666666667) scale(5.4933333333333)"><rect width="6" height="6"/></g>
<g transform="translate(582.66666666667,646.66666666667) scale(5.4933333333333)"><rect width="6" height="6"/></g>
<g transform="translate(614.66666666667,646.66666666667) scale(5.4933333333333)"><rect width="6" height="6"/></g>
<g transform="translate(646.66666666667,646.66666666667) scale(5.4933333333333)"><rect width="6" height="6"/></g>
<g transform="translate(678.66666666667,646.66666666667) scale(5.4933333333333)"><rect width="6" height="6"/></g>
<g transform="translate(742.66666666667,646.66666666667) scale(5.4933333333333)"><rect width="6" height="6"/></g>
<g transform="translate(774.66666666667,646.66666666667) scale(5.4933333333333)"><rect width="6" height="6"/></g>
<g transform="translate(838.66666666667,646.66666666667) scale(5.4933333333333)"><rect width="6" height="6"/></g>
<g transform="translate(934.66666666667,646.66666666667) scale(5.4933333333333)"><rect width="6" height="6"/></g>
<g transform="translate(38.666666666667,678.66666666667) scale(5.4933333333333)"><rect width="6" height="6"/></g>
<g transform="translate(134.66666666667,678.66666666667) scale(5.4933333333333)"><rect width="6" height="6"/></g>
<g transform="translate(166.66666666667,678.66666666667) scale(5.4933333333333)"><rect width="6" height="6"/></g>
<g transform="translate(198.66666666667,678.66666666667) scale(5.4933333333333)"><rect width="6" height="6"/></g>
<g transform="translate(230.66666666667,678.66666666667) scale(5.4933333333333)"><rect width="6" height="6"/></g>
<g transform="translate(358.66666666667,678.66666666667) scale(5.4933333333333)"><rect width="6" height="6"/></g>
<g transform="translate(422.66666666667,678.66666666667) scale(5.4933333333333)"><rect width="6" height="6"/></g>
<g transform="translate(454.66666666667,678.66666666667) scale(5.4933333333333)"><rect width="6" height="6"/></g>
<g transform="translate(518.66666666667,678.66666666667) scale(5.4933333333333)"><rect width="6" height="6"/></g>
<g transform="translate(582.66666666667,678.66666666667) scale(5.4933333333333)"><rect width="6" height="6"/></g>
<g transform="translate(678.66666666667,678.66666666667) scale(5.4933333333333)"><rect width="6" height="6"/></g>
<g transform="translate(710.66666666667,678.66666666667) scale(5.4933333333333)"><rect width="6" height="6"/></g>
<g transform="translate(742.66666666667,678.66666666667) scale(5.4933333333333)"><rect width="6" height="6"/></g>
<g transform="translate(774.66666666667,678.66666666667) scale(5.4933333333333)"><rect width="6" height="6"/></g>
<g transform="translate(806.66666666667,678.66666666667) scale(5.4933333333333)"><rect width="6" height="6"/></g>
<g transform="translate(838.66666666667,678.66666666667) scale(5.4933333333333)"><rect width="6" height="6"/></g>
<g transform="translate(870.66666666667,678.66666666667) scale(5.4933333333333)"><rect width="6" height="6"/></g>
<g transform="translate(294.66666666667,710.66666666667) scale(5.4933333333333)"><rect width="6" height="6"/></g>
<g transform="translate(326.66666666667,710.66666666667) scale(5.4933333333333)"><rect width="6" height="6"/></g>
<g transform="translate(390.66666666667,710.66666666667) scale(5.4933333333333)"><rect width="6" height="6"/></g>
<g transform="translate(614.66666666667,710.66666666667) scale(5.4933333333333)"><rect width="6" height="6"/></g>
<g transform="translate(646.66666666667,710.66666666667) scale(5.4933333333333)"><rect width="6" height="6"/></g>
<g transform="translate(678.66666666667,710.66666666667) scale(5.4933333333333)"><rect width="6" height="6"/></g>
<g transform="translate(806.66666666667,710.66666666667) scale(5.4933333333333)"><rect width="6" height="6"/></g>
<g transform="translate(838.66666666667,710.66666666667) scale(5.4933333333333)"><rect width="6" height="6"/></g>
<g transform="translate(902.66666666667,710.66666666667) scale(5.4933333333333)"><rect width="6" height="6"/></g>
<g transform="translate(934.66666666667,710.66666666667) scale(5.4933333333333)"><rect width="6" height="6"/></g>
<g transform="translate(358.66666666667,742.66666666667) scale(5.4933333333333)"><rect width="6" height="6"/></g>
<g transform="translate(422.66666666667,742.66666666667) scale(5.4933333333333)"><rect width="6" height="6"/></g>
<g transform="translate(518.66666666667,742.66666666667) scale(5.4933333333333)"><rect width="6" height="6"/></g>
<g transform="translate(646.66666666667,742.66666666667) scale(5.4933333333333)"><rect width="6" height="6"/></g>
<g transform="translate(678.66666666667,742.66666666667) scale(5.4933333333333)"><rect width="6" height="6"/></g>
<g transform="translate(742.66666666667,742.66666666667) scale(5.4933333333333)"><rect width="6" height="6"/></g>
<g transform="translate(806.66666666667,742.66666666667) scale(5.4933333333333)"><rect width="6" height="6"/></g>
<g transform="translate(358.66666666667,774.66666666667) scale(5.4933333333333)"><rect width="6" height="6"/></g>
<g transform="translate(390.66666666667,774.66666666667) scale(5.4933333333333)"><rect width="6" height="6"/></g>
<g transform="translate(486.66666666667,774.66666666667) scale(5.4933333333333)"><rect width="6" height="6"/></g>
<g transform="translate(550.66666666667,774.66666666667) scale(5.4933333333333)"><rect width="6" height="6"/></g>
<g transform="translate(614.66666666667,774.66666666667) scale(5.4933333333333)"><rect width="6" height="6"/></g>
<g transform="translate(646.66666666667,774.66666666667) scale(5.4933333333333)"><rect width="6" height="6"/></g>
<g transform="translate(678.66666666667,774.66666666667) scale(5.4933333333333)"><rect width="6" height="6"/></g>
<g transform="translate(806.66666666667,774.66666666667) scale(5.4933333333333)"><rect width="6" height="6"/></g>
<g transform="translate(838.66666666667,774.66666666667) scale(5.4933333333333)"><rect width="6" height="6"/></g>
<g transform="translate(934.66666666667,774.66666666667) scale(5.4933333333333)"><rect width="6" height="6"/></g>
<g transform="translate(294.66666666667,806.66666666667) scale(5.4933333333333)"><rect width="6" height="6"/></g>
<g transform="translate(326.66666666667,806.66666666667) scale(5.4933333333333)"><rect width="6" height="6"/></g>
<g transform="translate(454.66666666667,806.66666666667) scale(5.4933333333333)"><rect width="6" height="6"/></g>
<g transform="translate(582.66666666667,806.66666666667) scale(5.4933333333333)"><rect width="6" height="6"/></g>
<g transform="translate(614.66666666667,806.66666666667) scale(5.4933333333333)"><rect width="6" height="6"/></g>
<g transform="translate(678.66666666667,806.66666666667) scale(5.4933333333333)"><rect width="6" height="6"/></g>
<g transform="translate(710.66666666667,806.66666666667) scale(5.4933333333333)"><rect width="6" height="6"/></g>
<g transform="translate(742.66666666667,806.66666666667) scale(5.4933333333333)"><rect width="6" height="6"/></g>
<g transform="translate(774.66666666667,806.66666666667) scale(5.4933333333333)"><rect width="6" height="6"/></g>
<g transform="translate(806.66666666667,806.66666666667) scale(5.4933333333333)"><rect width="6" height="6"/></g>
<g transform="translate(838.66666666667,806.66666666667) scale(5.4933333333333)"><rect width="6" height="6"/></g>
<g transform="translate(870.66666666667,806.66666666667) scale(5.4933333333333)"><rect width="6" height="6"/></g>
<g transform="translate(902.66666666667,806.66666666667) scale(5.4933333333333)"><rect width="6" height="6"/></g>
<g transform="translate(294.66666666667,838.66666666667) scale(5.4933333333333)"><rect width="6" height="6"/></g>
<g transform="translate(358.66666666667,838.66666666667) scale(5.4933333333333)"><rect width="6" height="6"/></g>
<g transform="translate(390.66666666667,838.66666666667) scale(5.4933333333333)"><rect width="6" height="6"/></g>
<g transform="translate(422.66666666667,838.66666666667) scale(5.4933333333333)"><rect width="6" height="6"/></g>
<g transform="translate(518.66666666667,838.66666666667) scale(5.4933333333333)"><rect width="6" height="6"/></g>
<g transform="translate(550.66666666667,838.66666666667) scale(5.4933333333333)"><rect width="6" height="6"/></g>
<g transform="translate(646.66666666667,838.66666666667) scale(5.4933333333333)"><rect width="6" height="6"/></g>
<g transform="translate(678.66666666667,838.66666666667) scale(5.4933333333333)"><rect width="6" height="6"/></g>
<g transform="translate(710.66666666667,838.66666666667) scale(5.4933333333333)"><rect width="6" height="6"/></g>
<g transform="translate(774.66666666667,838.66666666667) scale(5.4933333333333)"><rect width="6" height="6"/></g>
<g transform="translate(294.66666666667,870.66666666667) scale(5.4933333333333)"><rect width="6" height="6"/></g>
<g transform="translate(326.66666666667,870.66666666667) scale(5.4933333333333)"><rect width="6" height="6"/></g>
<g transform="translate(358.66666666667,870.66666666667) scale(5.4933333333333)"><rect width="6" height="6"/></g>
<g transform="translate(422.66666666667,870.66666666667) scale(5.4933333333333)"><rect width="6" height="6"/></g>
<g transform="translate(454.66666666667,870.66666666667) scale(5.4933333333333)"><rect width="6" height="6"/></g>
<g transform="translate(550.66666666667,870.66666666667) scale(5.4933333333333)"><rect width="6" height="6"/></g>
<g transform="translate(614.66666666667,870.66666666667) scale(5.4933333333333)"><rect width="6" height="6"/></g>
<g transform="translate(646.66666666667,870.66666666667) scale(5.4933333333333)"><rect width="6" height="6"/></g>
<g transform="translate(678.66666666667,870.66666666667) scale(5.4933333333333)"><rect width="6" height="6"/></g>
<g transform="translate(710.66666666667,870.66666666667) scale(5.4933333333333)"><rect width="6" height="6"/></g>
<g transform="translate(742.66666666667,870.66666666667) scale(5.4933333333333)"><rect width="6" height="6"/></g>
<g transform="translate(774.66666666667,870.66666666667) scale(5.4933333333333)"><rect width="6" height="6"/></g>
<g transform="translate(806.66666666667,870.66666666667) scale(5.4933333333333)"><rect width="6" height="6"/></g>
<g transform="translate(838.66666666667,870.66666666667) scale(5.4933333333333)"><rect width="6" height="6"/></g>
<g transform="translate(870.66666666667,870.66666666667) scale(5.4933333333333)"><rect width="6" height="6"/></g>
<g transform="translate(902.66666666667,870.66666666667) scale(5.4933333333333)"><rect width="6" height="6"/></g>
<g transform="translate(358.66666666667,902.66666666667) scale(5.4933333333333)"><rect width="6" height="6"/></g>
<g transform="translate(390.66666666667,902.66666666667) scale(5.4933333333333)"><rect width="6" height="6"/></g>
<g transform="translate(422.66666666667,902.66666666667) scale(5.4933333333333)"><rect width="6" height="6"/></g>
<g transform="translate(486.66666666667,902.66666666667) scale(5.4933333333333)"><rect width="6" height="6"/></g>
<g transform="translate(518.66666666667,902.66666666667) scale(5.4933333333333)"><rect width="6" height="6"/></g>
<g transform="translate(550.66666666667,902.66666666667) scale(5.4933333333333)"><rect width="6" height="6"/></g>
<g transform="translate(582.66666666667,902.66666666667) scale(5.4933333333333)"><rect width="6" height="6"/></g>
<g transform="translate(614.66666666667,902.66666666667) scale(5.4933333333333)"><rect width="6" height="6"/></g>
<g transform="translate(646.66666666667,902.66666666667) scale(5.4933333333333)"><rect width="6" height="6"/></g>
<g transform="translate(806.66666666667,902.66666666667) scale(5.4933333333333)"><rect width="6" height="6"/></g>
<g transform="translate(902.66666666667,902.66666666667) scale(5.4933333333333)"><rect width="6" height="6"/></g>
<g transform="translate(326.66666666667,934.66666666667) scale(5.4933333333333)"><rect width="6" height="6"/></g>
<g transform="translate(358.66666666667,934.66666666667) scale(5.4933333333333)"><rect width="6" height="6"/></g>
<g transform="translate(454.66666666667,934.66666666667) scale(5.4933333333333)"><rect width="6" height="6"/></g>
<g transform="translate(486.66666666667,934.66666666667) scale(5.4933333333333)"><rect width="6" height="6"/></g>
<g transform="translate(518.66666666667,934.66666666667) scale(5.4933333333333)"><rect width="6" height="6"/></g>
<g transform="translate(614.66666666667,934.66666666667) scale(5.4933333333333)"><rect width="6" height="6"/></g>
<g transform="translate(646.66666666667,934.66666666667) scale(5.4933333333333)"><rect width="6" height="6"/></g>
<g transform="translate(806.66666666667,934.66666666667) scale(5.4933333333333)"><rect width="6" height="6"/></g>
<g transform="translate(870.66666666667,934.66666666667) scale(5.4933333333333)"><rect width="6" height="6"/></g>
</g><g fill="#000000" transform="scale(41.888888888889)"></g>
<g><g transform="translate(38.666666666667,38.666666666667)"  fill="#000000"><g transform="scale(16)"><path d="M0,0v14h14V0H0z M12,12H2V2h10V12z"/></g></g>
<g transform="translate(742.66666666667,38.666666666667)"  fill="#000000"><g transform="scale(16)"><path d="M0,0v14h14V0H0z M12,12H2V2h10V12z"/></g></g>
<g transform="translate(38.666666666667,742.66666666667)"  fill="#000000"><g transform="scale(16)"><path d="M0,0v14h14V0H0z M12,12H2V2h10V12z"/></g></g>
<g transform="translate(102.66666666667,102.66666666667)"  fill="#000000"><g transform="scale(16)"><rect width="6" height="6"/></g></g>
<g transform="translate(806.66666666667,102.66666666667)"  fill="#000000"><g transform="scale(16)"><rect width="6" height="6"/></g></g>
<g transform="translate(102.66666666667,806.66666666667)"  fill="#000000"><g transform="scale(16)"><rect width="6" height="6"/></g></g></g>
<text fill="#FFFFFF" font-family="Arial, Helvetica, sans-serif" font-size="0px" text-anchor="middle" x="525.625" y="41.888888888889">SCAN ME</text></svg>