<svg width="286" height="279" viewBox="0 0 286 279" fill="none" xmlns="http://www.w3.org/2000/svg">
<path d="M68.5395 85.8759L80.4186 218.733C82.023 236.677 103.936 244.475 116.515 231.58L139.756 207.755C147.018 200.31 158.625 199.272 167.093 205.311L194.191 224.634C208.859 235.094 229.041 223.532 227.436 205.588L215.557 72.7306C214.002 55.3316 198.636 42.488 181.237 44.0437L97.2265 51.5552C79.8274 53.1109 66.9838 68.4768 68.5395 85.8759Z" fill="#FEC701"/>
<path d="M59.477 85.4139L71.3561 218.271C72.9605 236.215 94.8731 244.013 107.453 231.118L130.694 207.293C137.956 199.848 149.562 198.81 158.03 204.849L185.129 224.172C199.797 234.632 219.978 223.07 218.374 205.126L206.495 72.2687C204.939 54.8696 189.573 42.0261 172.174 43.5818L88.164 51.0933C70.7649 52.649 57.9213 68.0149 59.477 85.4139Z" fill="#FEE333"/>
<circle cx="134.708" cy="72.0144" r="12.2431" transform="rotate(-38.8002 134.708 72.0144)" fill="#2A55C2"/>
<path d="M127.974 69.9346C125.937 76.3823 127.294 78.4241 130.79 83.6637C124.343 81.627 120.767 74.7491 122.803 68.3015C124.84 61.8538 131.718 58.278 138.166 60.3147C134.71 61.689 130.01 63.487 127.974 69.9346Z" fill="#F89701"/>
<path d="M121.391 184.743C121.339 184.186 121.419 183.545 121.633 182.822C121.844 182.079 122.06 181.487 122.279 181.044C122.497 180.582 122.626 180.349 122.666 180.345C123.886 180.934 125.133 181.168 126.408 181.048C127.204 180.974 127.827 180.755 128.275 180.391C128.743 180.026 128.95 179.564 128.898 179.007C128.844 178.429 128.58 178.083 128.107 177.966C127.654 177.848 126.937 177.805 125.956 177.837L124.881 177.938C124.642 177.96 124.386 177.693 124.112 177.136C123.857 176.557 123.703 175.989 123.651 175.431C123.563 174.496 123.797 173.991 124.353 173.919L125.216 173.808C125.754 173.758 126.298 173.556 126.847 173.203C127.414 172.828 127.676 172.402 127.631 171.924C127.552 171.088 126.767 170.74 125.273 170.88C124.158 170.985 123.103 171.305 122.109 171.84C121.061 170.311 120.496 169.098 120.412 168.202C120.326 167.286 120.889 166.541 122.1 165.965C123.331 165.387 124.903 165.009 126.815 164.83C128.726 164.65 130.257 164.908 131.407 165.604C132.557 166.3 133.196 167.334 133.325 168.708C133.551 171.118 132.69 173.067 130.74 174.555C133.345 175.335 134.761 176.94 134.989 179.37C135.166 181.261 134.643 182.857 133.419 184.157C132.193 185.437 130.336 186.194 127.847 186.428C126.274 186.575 124.819 186.491 123.484 186.174C122.147 185.837 121.449 185.361 121.391 184.743ZM146.315 184.695C143.826 184.928 141.699 184.204 139.934 182.521C138.189 180.837 137.151 178.233 136.821 174.708C136.49 171.184 137.037 168.45 138.462 166.509C139.885 164.547 141.851 163.449 144.36 163.214C146.889 162.976 149.014 163.681 150.735 165.327C152.457 166.974 153.486 169.599 153.825 173.203C154.163 176.807 153.618 179.57 152.192 181.492C150.783 183.392 148.824 184.459 146.315 184.695ZM144.838 168.954C144.082 169.025 143.476 169.524 143.02 170.45C142.583 171.355 142.439 172.604 142.588 174.197C142.738 175.79 143.102 176.991 143.68 177.801C144.276 178.589 144.972 178.945 145.769 178.87C146.585 178.794 147.202 178.304 147.62 177.401C148.057 176.496 148.201 175.247 148.051 173.654C147.902 172.061 147.518 170.862 146.9 170.056C146.302 169.248 145.615 168.881 144.838 168.954Z" fill="#F89701"/>
<path d="M160.468 167.177C161.37 167.092 162.138 167.348 162.77 167.945C163.401 168.542 163.776 169.471 163.895 170.732C164.012 171.98 163.816 172.956 163.306 173.66C162.809 174.363 162.116 174.756 161.227 174.839C160.337 174.923 159.578 174.679 158.949 174.109C158.318 173.525 157.943 172.596 157.823 171.322C157.703 170.034 157.891 169.046 158.389 168.356C158.885 167.653 159.578 167.26 160.468 167.177ZM161.802 170.908C161.721 170.045 161.369 169.643 160.745 169.702C160.121 169.76 159.849 170.221 159.93 171.084C159.969 171.496 160.084 171.799 160.277 171.996C160.469 172.192 160.705 172.277 160.984 172.251C161.263 172.225 161.478 172.097 161.631 171.869C161.784 171.64 161.841 171.32 161.802 170.908ZM169.316 173.056C170.218 172.971 170.986 173.227 171.617 173.824C172.249 174.421 172.624 175.35 172.743 176.611C172.86 177.859 172.663 178.835 172.154 179.539C171.657 180.242 170.964 180.635 170.075 180.719C169.185 180.802 168.426 180.558 167.796 179.988C167.166 179.404 166.791 178.475 166.671 177.201C166.55 175.913 166.739 174.925 167.237 174.235C167.733 173.532 168.426 173.139 169.316 173.056ZM170.65 176.788C170.569 175.925 170.217 175.523 169.593 175.581C168.969 175.64 168.697 176.1 168.778 176.963C168.817 177.375 168.932 177.679 169.125 177.875C169.317 178.071 169.553 178.156 169.832 178.13C170.111 178.104 170.326 177.976 170.479 177.748C170.632 177.519 170.689 177.199 170.65 176.788ZM168.29 166.624C168.4 166.506 168.521 166.441 168.654 166.429C169.145 166.383 169.613 166.587 170.057 167.04C170.235 167.225 170.33 167.383 170.343 167.516C170.354 167.635 170.336 167.731 170.289 167.802L162.019 181.354C161.909 181.471 161.788 181.536 161.655 181.549C161.177 181.593 160.716 181.382 160.27 180.915C160.079 180.732 159.978 180.581 159.966 180.462C159.955 180.342 159.973 180.247 160.02 180.175L168.29 166.624Z" fill="#F89701"/>
<path d="M109.602 107.251C108.248 108.35 106.912 110.297 106.532 111.426C105.795 113.924 106.332 121.586 107.459 123.241C108.174 124.389 107.715 128.561 106.693 129.325C106.47 129.528 105.559 130.828 104.655 132.188C103.221 134.387 103.054 135.192 103.359 138.443C103.658 141.633 103.978 142.453 105.598 144.184C109.836 148.583 115.849 151.177 122.944 151.726C125.145 151.884 127.243 152.233 127.506 152.452C128.159 152.937 146.097 151.254 146.648 150.656C146.866 150.392 148.862 149.658 150.995 149.094C157.865 147.235 163.29 143.568 166.636 138.457C167.906 136.455 168.067 135.59 167.768 132.4C167.463 129.149 167.149 128.389 165.332 126.495C164.19 125.327 163.053 124.219 162.796 124.061C161.65 123.5 160.423 119.486 160.912 118.226C161.712 116.39 160.814 108.762 159.625 106.444C159.042 105.406 157.367 103.741 155.832 102.914C153.387 101.443 152.707 101.325 148.674 101.703C144.942 102.053 143.761 102.407 141.712 103.874C140.347 104.853 139.124 106.06 138.989 106.559C138.632 107.928 127.435 108.979 126.829 107.7C126.604 107.235 125.178 106.276 123.654 105.569C121.368 104.508 120.142 104.38 116.41 104.73C112.376 105.109 111.731 105.351 109.602 107.251ZM120.972 111.286C121.444 111.788 122.24 112.503 122.706 112.945C123.639 113.829 124.206 118.573 123.363 118.652C123.062 118.68 122.801 119.13 122.846 119.611C123.01 121.357 119.007 122.704 115.425 122.069C112.462 121.557 111.087 115.31 113.383 112.605C114.96 110.635 119.566 109.899 120.972 111.286ZM153.112 108.877C155.872 111.108 155.683 117.502 152.867 118.556C149.466 119.846 145.282 119.267 145.118 117.522C145.073 117.04 144.793 116.641 144.432 116.675C143.589 116.754 143.263 111.987 144.076 110.94C144.392 110.424 145.041 109.574 145.411 108.993C146.534 107.369 151.197 107.235 153.112 108.877ZM117.877 135.259C118.919 136.011 120.936 136.794 122.294 137.031C123.713 137.262 125.214 137.728 125.729 138.044C126.316 138.475 129.77 138.394 135.789 137.829C141.809 137.264 145.218 136.702 145.714 136.169C146.162 135.763 147.55 135.025 148.901 134.534C150.191 134.049 152.027 132.905 152.911 131.972C154.848 129.968 156.577 129.624 156.73 131.249C156.826 132.273 155.887 133.271 152.309 135.915C147.819 139.19 139.527 141.425 131.755 141.426C124.836 141.468 114.222 137.727 113.985 135.199C113.838 133.634 115.661 133.645 117.877 135.259Z" fill="#F89701"/>
<path d="M115.289 116.737L115.543 119.446L118.055 119.028C120.807 118.588 121.269 117.695 120.342 114.927C119.928 113.752 119.484 113.551 117.437 113.743L115.03 113.968L115.289 116.737Z" fill="#F89701"/>
<path d="M146.708 112.454C146.311 115.345 146.932 116.137 149.718 116.058L152.263 116.001L152.009 113.292L151.749 110.523L149.341 110.749C147.294 110.941 146.896 111.222 146.708 112.454Z" fill="#F89701"/>
<path d="M66 79C75.0538 79 79 75.191 79 66C79 75.191 82.9188 79 92 79C82.9188 79 79 82.9188 79 92C79 82.9188 75.0538 79 66 79Z" fill="white" stroke="white" stroke-width="1.5" stroke-linejoin="round"/>
<path d="M186.5 45.9322C186.5 45.9322 186.938 45.8354 187.5 46.0005C187.919 46.1235 189 46.4999 189 46.4999C189 46.4999 189.894 47.1429 190.501 47.5004C191.253 47.9436 191.755 48.0443 192.5 48.4994C193.334 49.0085 194.5 50 194.5 50C194.5 50 196.422 51.4216 197.5 52.5C198.579 53.5783 199.096 54.272 200 55.5C201.609 57.6842 203.5 61.5 203.5 61.5L140.186 161.115L90.0005 237.5C90.0005 237.5 87.5131 237.052 86.0005 236.5C84.3598 235.901 82.5005 235 82.5005 235L80.5005 234C80.5005 234 79.2142 233.166 78.5005 232.5C77.8528 231.896 77.2244 231.379 76.666 230.691C75.8192 229.648 75.3952 229.021 74.666 227.893C73.8114 226.57 73.2921 225.837 72.666 224.393C71.4017 221.476 72.6664 221 72.6664 221L186.5 45.9322Z" fill="white" fill-opacity="0.2"/>
<path d="M202 172C206.179 172 208 170.242 208 166C208 170.242 209.809 172 214 172C209.809 172 208 173.809 208 178C208 173.809 206.179 172 202 172Z" fill="white" stroke="white" stroke-width="1.5" stroke-linejoin="round"/>
</svg>
