<svg width="710" height="256" viewBox="0 0 710 256" fill="none" xmlns="http://www.w3.org/2000/svg">
<rect y="72.0005" width="710" height="184" rx="30" fill="#FFF092"/>
<path d="M31.7464 60.3329C30.8738 54.8794 34.5874 49.7512 40.0409 48.8786L141.227 32.6894C146.68 31.8168 151.809 35.5304 152.681 40.9839L170.694 153.564C172.875 167.198 163.591 180.019 149.957 182.2L78.3944 193.65C64.7606 195.831 51.94 186.547 49.7587 172.913L31.7464 60.3329Z" fill="#FFC100"/>
<path d="M31.7464 60.3329C30.8738 54.8794 34.5874 49.7512 40.0409 48.8786L141.227 32.6894C146.68 31.8168 151.809 35.5304 152.681 40.9839L164.829 116.907C169.453 145.811 149.771 172.991 120.867 177.615L104.601 180.218C75.6979 184.842 48.5182 165.16 43.8937 136.256L31.7464 60.3329Z" fill="#46C4FF"/>
<path d="M31.7464 60.3329C30.8738 54.8794 34.5874 49.7512 40.0409 48.8786L141.227 32.6894C146.68 31.8168 151.809 35.5304 152.681 40.9839L169.41 145.543C171.504 158.632 162.592 170.939 149.503 173.033L75.9656 184.799C62.8772 186.893 50.5694 177.981 48.4753 164.892L31.7464 60.3329Z" fill="#FEE333"/>
<path d="M53.1248 63.1969C53.0375 62.6516 53.4089 62.1387 53.9542 62.0515L133.574 49.3127C134.119 49.2255 134.632 49.5968 134.719 50.1422L144.85 113.458C148.455 135.99 133.111 157.178 110.58 160.783V160.783C88.048 164.388 66.86 149.045 63.255 126.513L53.1248 63.1969Z" fill="#FEC701"/>
<g clip-path="url(#clip0_1105_1076)">
<path d="M95.9506 78.291C95.9087 79.1943 95.6044 80.0116 95.362 80.0504C95.1195 80.0892 94.6527 81.4448 94.2359 83.1127C93.8797 84.7709 93.4129 86.1265 93.1705 86.1653C92.928 86.2041 92.4812 87.6846 92.155 89.5302C91.8187 91.3133 91.3819 92.8563 91.2001 92.8853C90.9577 92.9241 90.4809 94.2173 90.044 95.7603C89.6778 97.356 89.1604 98.7838 89.0086 99.0003C88.7961 99.2264 88.3493 100.707 87.9931 102.365C87.6368 104.023 87.19 105.504 87.0382 105.72C86.0772 106.707 85.3435 110.667 85.7131 112.978L86.1128 115.476L93.0821 114.36C99.9909 113.255 100.051 113.245 100.029 114.658C99.9769 115.499 100.122 119.126 100.338 122.807C100.554 126.487 100.508 130.081 100.314 130.816C100.071 131.624 100.219 133.714 100.64 135.568L101.371 138.974L103.946 138.754C106.279 138.573 106.562 138.399 106.696 136.905C106.738 136.001 107.042 135.184 107.285 135.145C107.527 135.107 108.054 133.741 108.471 132.073C108.827 130.415 109.294 129.059 109.476 129.03C109.719 128.992 110.165 127.511 110.492 125.666C110.828 123.882 111.265 122.339 111.446 122.31C111.689 122.272 112.166 120.978 112.593 119.373C112.969 117.84 113.426 116.422 113.638 116.195C113.79 115.979 114.358 114.479 114.835 112.802C115.313 111.124 116.104 108.692 116.521 107.408C116.997 106.115 117.193 103.842 116.953 102.343L116.534 99.7202L109.564 100.835C102.656 101.941 102.595 101.95 102.608 100.475C102.67 99.6967 102.524 96.0692 102.308 92.389C102.093 88.7088 102.139 85.1147 102.332 84.3792C102.576 83.5717 102.428 81.4818 102.007 79.6277L101.276 76.2221L98.7003 76.442C96.3675 76.6231 96.0844 76.7964 95.9506 78.291Z" fill="#F89701"/>
<path d="M72.1679 85.8108C70.9027 87.6144 72.0096 89.8712 75.2769 92.4227C78.0501 94.605 78.7766 94.873 80.8977 94.5336C82.9582 94.204 83.2919 93.9584 83.1527 92.6998C82.8748 89.798 82.3107 88.9916 79.154 86.7426C75.856 84.3881 73.3826 84.0793 72.1679 85.8108Z" fill="#F89701"/>
<path d="M115.829 80.939C113.481 84.1328 113.237 84.9404 113.878 87.784C114.199 89.0136 114.593 89.1427 116.653 88.8131C118.774 88.4737 119.381 87.9923 121.335 85.0538C123.643 81.6102 123.991 79.1208 122.226 77.8019C120.461 76.4831 118.278 77.601 115.829 80.939Z" fill="#F89701"/>
<path d="M81.3425 129.945C78.8718 133.927 78.5462 135.388 79.9675 136.89C81.8322 138.833 84.1158 137.955 86.8788 134.247C89.0145 131.279 89.2276 130.669 88.716 128.637C88.1745 126.418 88.0433 126.375 85.7204 126.618C83.5187 126.843 83.0739 127.17 81.3425 129.945Z" fill="#F89701"/>
<path d="M119.819 121.419C119.607 121.645 119.605 122.798 119.794 123.985C120.064 125.671 120.759 126.521 123.422 128.4C126.791 130.807 129.213 131.188 130.479 129.385C131.744 127.581 130.637 125.324 127.37 122.773C124.808 120.749 123.809 120.332 122.173 120.594C121.022 120.778 119.961 121.14 119.819 121.419Z" fill="#F89701"/>
</g>
<path d="M121.532 35.4843L142.262 32.1677L144.64 31.7871L146.735 31.8111L148.207 32.294L149.394 33.1814L150.582 34.0688L151.542 35.7109L156.08 64.0751L111.018 125.515L65.9558 186.954L62.4494 184.642L59.2266 181.926L56.2876 178.805L53.6324 175.279L51.2609 171.349L49.5692 167.31L48.1611 162.866L47.4039 158.134L44.5754 140.455L121.532 35.4843Z" fill="white" fill-opacity="0.29"/>
<path d="M617.608 210.795C616.68 210.371 615.91 209.625 615.417 208.674C614.925 207.724 614.739 206.623 614.889 205.545L623.136 147.406H601.25C600.556 147.426 599.867 147.274 599.236 146.96C598.606 146.646 598.05 146.18 597.612 145.597C597.174 145.013 596.866 144.329 596.711 143.597C596.556 142.864 596.559 142.103 596.719 141.371L610.312 77.5901C610.551 76.4924 611.133 75.5175 611.958 74.8294C612.783 74.1414 613.802 73.7822 614.844 73.8123H660.156C660.833 73.8098 661.502 73.9716 662.113 74.2857C662.725 74.5999 663.264 75.0584 663.69 75.6276C664.123 76.2033 664.429 76.8777 664.586 77.6C664.743 78.3224 664.747 79.0739 664.597 79.7979L656.758 117.969H678.281C679.13 117.967 679.963 118.223 680.684 118.709C681.405 119.195 681.986 119.89 682.359 120.716C682.684 121.509 682.809 122.38 682.721 123.242C682.634 124.104 682.337 124.925 681.861 125.622L622.954 209.029C622.556 209.668 622.025 210.196 621.403 210.571C620.781 210.946 620.086 211.157 619.375 211.187C618.769 211.174 618.17 211.041 617.608 210.795Z" fill="#FEC701"/>
<path d="M217.72 116.12V122H212.17V103.19H219.22C222.24 103.19 224.37 103.7 225.61 104.72C226.87 105.72 227.5 107.41 227.5 109.79C227.5 111.21 227.22 112.38 226.66 113.3C226.12 114.22 225.29 114.91 224.17 115.37L228.28 122H221.92L218.77 116.12H217.72ZM221.83 109.88C221.83 109.26 221.66 108.82 221.32 108.56C220.98 108.3 220.37 108.17 219.49 108.17H217.72V111.86H219.49C220.37 111.86 220.98 111.71 221.32 111.41C221.66 111.11 221.83 110.6 221.83 109.88ZM232.581 122.33C231.141 122.33 230.091 121.95 229.431 121.19C228.771 120.43 228.441 119.24 228.441 117.62C228.441 116.02 228.851 114.88 229.671 114.2C230.511 113.52 231.901 113.18 233.841 113.18C234.301 113.18 234.761 113.2 235.221 113.24C235.701 113.28 236.121 113.33 236.481 113.39V112.64C236.481 112.24 236.291 111.96 235.911 111.8C235.531 111.62 234.911 111.53 234.051 111.53C233.231 111.53 232.481 111.55 231.801 111.59C231.141 111.63 230.471 111.71 229.791 111.83V107.42C230.531 107.24 231.421 107.11 232.461 107.03C233.521 106.93 234.731 106.88 236.091 106.88C237.971 106.88 239.401 107.3 240.381 108.14C241.381 108.96 241.881 110.17 241.881 111.77V122H236.781L236.631 120.83H236.541C235.941 121.33 235.301 121.71 234.621 121.97C233.961 122.21 233.281 122.33 232.581 122.33ZM234.711 116.24C234.191 116.24 233.821 116.32 233.601 116.48C233.401 116.62 233.301 116.89 233.301 117.29C233.301 117.69 233.381 117.97 233.541 118.13C233.721 118.27 234.021 118.34 234.441 118.34C234.781 118.34 235.131 118.31 235.491 118.25C235.871 118.17 236.201 118.07 236.481 117.95V116.36C236.201 116.32 235.911 116.29 235.611 116.27C235.331 116.25 235.031 116.24 234.711 116.24ZM249.296 105.95H243.746V102.05H249.296V105.95ZM249.236 122H243.836V107.18H249.236V122ZM265.829 114.59C265.829 117.37 265.249 119.36 264.089 120.56C262.929 121.74 260.999 122.33 258.299 122.33C255.639 122.33 253.719 121.73 252.539 120.53C251.379 119.31 250.799 117.33 250.799 114.59C250.799 111.83 251.369 109.86 252.509 108.68C253.669 107.48 255.599 106.88 258.299 106.88C260.979 106.88 262.899 107.48 264.059 108.68C265.239 109.88 265.829 111.85 265.829 114.59ZM256.199 114.53C256.199 115.69 256.329 116.45 256.589 116.81C256.849 117.15 257.419 117.32 258.299 117.32C259.199 117.32 259.779 117.15 260.039 116.81C260.299 116.45 260.429 115.69 260.429 114.53C260.429 113.37 260.299 112.62 260.039 112.28C259.779 111.92 259.199 111.74 258.299 111.74C257.419 111.74 256.849 111.92 256.589 112.28C256.329 112.62 256.199 113.37 256.199 114.53ZM280.431 102.05H285.831V122H281.031L280.761 120.62H280.611C280.091 121.2 279.481 121.63 278.781 121.91C278.081 122.19 277.291 122.33 276.411 122.33C274.511 122.33 273.151 121.74 272.331 120.56C271.511 119.36 271.101 117.37 271.101 114.59C271.101 111.91 271.611 109.96 272.631 108.74C273.671 107.5 275.321 106.88 277.581 106.88C278.101 106.88 278.601 106.91 279.081 106.97C279.561 107.03 280.011 107.12 280.431 107.24V102.05ZM278.601 111.74C277.721 111.74 277.151 111.93 276.891 112.31C276.631 112.69 276.501 113.45 276.501 114.59C276.501 115.69 276.621 116.42 276.861 116.78C277.101 117.14 277.621 117.32 278.421 117.32C278.801 117.32 279.151 117.29 279.471 117.23C279.811 117.15 280.131 117.04 280.431 116.9V111.98C280.211 111.9 279.941 111.84 279.621 111.8C279.321 111.76 278.981 111.74 278.601 111.74ZM291.38 122.33C289.94 122.33 288.89 121.95 288.23 121.19C287.57 120.43 287.24 119.24 287.24 117.62C287.24 116.02 287.65 114.88 288.47 114.2C289.31 113.52 290.7 113.18 292.64 113.18C293.1 113.18 293.56 113.2 294.02 113.24C294.5 113.28 294.92 113.33 295.28 113.39V112.64C295.28 112.24 295.09 111.96 294.71 111.8C294.33 111.62 293.71 111.53 292.85 111.53C292.03 111.53 291.28 111.55 290.6 111.59C289.94 111.63 289.27 111.71 288.59 111.83V107.42C289.33 107.24 290.22 107.11 291.26 107.03C292.32 106.93 293.53 106.88 294.89 106.88C296.77 106.88 298.2 107.3 299.18 108.14C300.18 108.96 300.68 110.17 300.68 111.77V122H295.58L295.43 120.83H295.34C294.74 121.33 294.1 121.71 293.42 121.97C292.76 122.21 292.08 122.33 291.38 122.33ZM293.51 116.24C292.99 116.24 292.62 116.32 292.4 116.48C292.2 116.62 292.1 116.89 292.1 117.29C292.1 117.69 292.18 117.97 292.34 118.13C292.52 118.27 292.82 118.34 293.24 118.34C293.58 118.34 293.93 118.31 294.29 118.25C294.67 118.17 295 118.07 295.28 117.95V116.36C295 116.32 294.71 116.29 294.41 116.27C294.13 116.25 293.83 116.24 293.51 116.24ZM320.056 116.99V122H306.916V103.19H319.786V108.08H312.466V110.21H318.676V114.77H312.466V116.99H320.056ZM327.95 111.05C327.25 111.05 326.78 111.1 326.54 111.2C326.3 111.3 326.18 111.5 326.18 111.8C326.18 111.96 326.22 112.08 326.3 112.16C326.4 112.24 326.54 112.29 326.72 112.31L329.9 112.7C331.22 112.86 332.12 113.25 332.6 113.87C333.1 114.49 333.35 115.5 333.35 116.9C333.35 118.78 332.88 120.16 331.94 121.04C331.02 121.9 329.47 122.33 327.29 122.33C326.11 122.33 325.02 122.27 324.02 122.15C323.04 122.05 322.23 121.91 321.59 121.73V117.41C322.39 117.59 323.24 117.73 324.14 117.83C325.04 117.93 325.89 117.98 326.69 117.98C327.37 117.98 327.82 117.92 328.04 117.8C328.28 117.68 328.4 117.45 328.4 117.11C328.4 116.99 328.36 116.89 328.28 116.81C328.2 116.71 328.08 116.65 327.92 116.63L324.41 116.21C323.25 116.05 322.41 115.64 321.89 114.98C321.39 114.32 321.14 113.33 321.14 112.01C321.14 110.29 321.68 109.01 322.76 108.17C323.86 107.31 325.49 106.88 327.65 106.88C328.63 106.88 329.52 106.91 330.32 106.97C331.12 107.01 331.82 107.08 332.42 107.18V111.38C331.74 111.28 331 111.2 330.2 111.14C329.4 111.08 328.65 111.05 327.95 111.05ZM340.291 126.56H334.891V107.18H339.631L339.901 108.59H340.081C340.581 108.01 341.181 107.58 341.881 107.3C342.581 107.02 343.381 106.88 344.281 106.88C346.201 106.88 347.561 107.47 348.361 108.65C349.181 109.81 349.591 111.79 349.591 114.59C349.591 117.27 349.071 119.23 348.031 120.47C347.011 121.69 345.371 122.3 343.111 122.3C342.591 122.3 342.091 122.27 341.611 122.21C341.131 122.15 340.691 122.06 340.291 121.94V126.56ZM344.191 114.59C344.191 113.45 344.071 112.69 343.831 112.31C343.591 111.93 343.071 111.74 342.271 111.74C341.911 111.74 341.561 111.78 341.221 111.86C340.901 111.92 340.591 112.02 340.291 112.16V117.08C340.511 117.16 340.771 117.22 341.071 117.26C341.371 117.3 341.721 117.32 342.121 117.32C343.001 117.32 343.561 117.15 343.801 116.81C344.061 116.45 344.191 115.71 344.191 114.59ZM363.839 117.17V121.28C363.279 121.56 362.409 121.8 361.229 122C360.069 122.22 358.859 122.33 357.599 122.33C355.179 122.33 353.429 121.73 352.349 120.53C351.289 119.31 350.759 117.34 350.759 114.62C350.759 111.96 351.329 110.01 352.469 108.77C353.629 107.51 355.429 106.88 357.869 106.88C360.229 106.88 361.919 107.35 362.939 108.29C363.959 109.21 364.469 110.79 364.469 113.03C364.469 113.71 364.459 114.26 364.439 114.68C364.419 115.08 364.379 115.54 364.319 116.06H356.099C356.119 116.7 356.299 117.14 356.639 117.38C356.979 117.6 357.589 117.71 358.469 117.71C359.429 117.71 360.409 117.66 361.409 117.56C362.429 117.44 363.239 117.31 363.839 117.17ZM357.929 111.14C357.249 111.14 356.769 111.28 356.489 111.56C356.229 111.82 356.099 112.35 356.099 113.15H359.669V112.46C359.629 111.94 359.489 111.59 359.249 111.41C359.029 111.23 358.589 111.14 357.929 111.14ZM371.492 122H366.092V107.18H371.132L371.312 108.32H371.372C371.992 107.86 372.602 107.51 373.202 107.27C373.822 107.03 374.422 106.91 375.002 106.91H375.512V112.13C375.052 112.09 374.742 112.07 374.582 112.07C374.442 112.05 374.292 112.04 374.132 112.04C373.632 112.04 373.162 112.07 372.722 112.13C372.282 112.19 371.872 112.28 371.492 112.4V122ZM379.739 122.33C378.299 122.33 377.249 121.95 376.589 121.19C375.929 120.43 375.599 119.24 375.599 117.62C375.599 116.02 376.009 114.88 376.829 114.2C377.669 113.52 379.059 113.18 380.999 113.18C381.459 113.18 381.919 113.2 382.379 113.24C382.859 113.28 383.279 113.33 383.639 113.39V112.64C383.639 112.24 383.449 111.96 383.069 111.8C382.689 111.62 382.069 111.53 381.209 111.53C380.389 111.53 379.639 111.55 378.959 111.59C378.299 111.63 377.629 111.71 376.949 111.83V107.42C377.689 107.24 378.579 107.11 379.619 107.03C380.679 106.93 381.889 106.88 383.249 106.88C385.129 106.88 386.559 107.3 387.539 108.14C388.539 108.96 389.039 110.17 389.039 111.77V122H383.939L383.789 120.83H383.699C383.099 121.33 382.459 121.71 381.779 121.97C381.119 122.21 380.439 122.33 379.739 122.33ZM381.869 116.24C381.349 116.24 380.979 116.32 380.759 116.48C380.559 116.62 380.459 116.89 380.459 117.29C380.459 117.69 380.539 117.97 380.699 118.13C380.879 118.27 381.179 118.34 381.599 118.34C381.939 118.34 382.289 118.31 382.649 118.25C383.029 118.17 383.359 118.07 383.639 117.95V116.36C383.359 116.32 383.069 116.29 382.769 116.27C382.489 116.25 382.189 116.24 381.869 116.24ZM396.395 122H390.995V107.18H395.645L395.855 108.74H395.975C396.575 108.1 397.235 107.63 397.955 107.33C398.675 107.03 399.525 106.88 400.505 106.88C402.065 106.88 403.245 107.29 404.045 108.11C404.845 108.93 405.245 110.14 405.245 111.74V122H399.845V112.85C399.845 112.49 399.715 112.22 399.455 112.04C399.215 111.84 398.845 111.74 398.345 111.74C398.005 111.74 397.675 111.78 397.355 111.86C397.035 111.92 396.715 112.02 396.395 112.16V122ZM417.455 125.27C417.455 126.13 417.155 126.77 416.555 127.19C415.955 127.63 415.055 127.85 413.855 127.85C413.275 127.85 412.665 127.81 412.025 127.73C411.405 127.67 411.005 127.6 410.825 127.52V125.36C411.065 125.42 411.415 125.48 411.875 125.54C412.335 125.6 412.735 125.63 413.075 125.63C413.415 125.63 413.655 125.58 413.795 125.48C413.935 125.4 414.005 125.24 414.005 125C414.005 124.8 413.905 124.65 413.705 124.55C413.525 124.45 413.225 124.4 412.805 124.4C412.625 124.4 412.375 124.41 412.055 124.43C411.755 124.45 411.515 124.46 411.335 124.46L411.785 122.3C409.965 122.16 408.675 121.51 407.915 120.35C407.175 119.19 406.805 117.27 406.805 114.59C406.805 111.71 407.365 109.71 408.485 108.59C409.625 107.45 411.625 106.88 414.485 106.88C415.085 106.88 415.635 106.9 416.135 106.94C416.635 106.96 417.305 107.02 418.145 107.12V111.86C418.125 111.86 417.725 111.84 416.945 111.8C416.165 111.76 415.365 111.74 414.545 111.74C413.525 111.74 412.875 111.9 412.595 112.22C412.335 112.54 412.205 113.33 412.205 114.59C412.205 115.73 412.325 116.47 412.565 116.81C412.805 117.13 413.325 117.29 414.125 117.29C414.865 117.29 415.635 117.24 416.435 117.14C417.235 117.04 417.935 116.92 418.535 116.78V121.22C418.235 121.42 417.765 121.61 417.125 121.79C416.505 121.95 415.815 122.08 415.055 122.18L414.875 123.14C415.655 123.14 416.275 123.33 416.735 123.71C417.215 124.09 417.455 124.61 417.455 125.27ZM423.538 122.33C422.098 122.33 421.048 121.95 420.388 121.19C419.728 120.43 419.398 119.24 419.398 117.62C419.398 116.02 419.808 114.88 420.628 114.2C421.468 113.52 422.858 113.18 424.798 113.18C425.258 113.18 425.718 113.2 426.178 113.24C426.658 113.28 427.078 113.33 427.438 113.39V112.64C427.438 112.24 427.248 111.96 426.868 111.8C426.488 111.62 425.868 111.53 425.008 111.53C424.188 111.53 423.438 111.55 422.758 111.59C422.098 111.63 421.428 111.71 420.748 111.83V107.42C421.488 107.24 422.378 107.11 423.418 107.03C424.478 106.93 425.688 106.88 427.048 106.88C428.928 106.88 430.358 107.3 431.338 108.14C432.338 108.96 432.838 110.17 432.838 111.77V122H427.738L427.588 120.83H427.498C426.898 121.33 426.258 121.71 425.578 121.97C424.918 122.21 424.238 122.33 423.538 122.33ZM425.668 116.24C425.148 116.24 424.778 116.32 424.558 116.48C424.358 116.62 424.258 116.89 424.258 117.29C424.258 117.69 424.338 117.97 424.498 118.13C424.678 118.27 424.978 118.34 425.398 118.34C425.738 118.34 426.088 118.31 426.448 118.25C426.828 118.17 427.158 118.07 427.438 117.95V116.36C427.158 116.32 426.868 116.29 426.568 116.27C426.288 116.25 425.988 116.24 425.668 116.24Z" fill="#945A01"/>
<path d="M241.55 143.172C242.586 143.172 243.491 143.378 244.266 143.788C245.041 144.199 245.638 144.778 246.058 145.524C246.487 146.262 246.702 147.116 246.702 148.086C246.702 149.048 246.487 149.902 246.058 150.648C245.638 151.395 245.036 151.974 244.252 152.384C243.477 152.795 242.577 153 241.55 153H237.868V143.172H241.55ZM241.396 150.928C242.301 150.928 243.006 150.681 243.51 150.186C244.014 149.692 244.266 148.992 244.266 148.086C244.266 147.181 244.014 146.476 243.51 145.972C243.006 145.468 242.301 145.216 241.396 145.216H240.262V150.928H241.396ZM252.688 153.098C251.764 153.098 250.915 152.884 250.14 152.454C249.375 152.025 248.763 151.428 248.306 150.662C247.858 149.888 247.634 149.02 247.634 148.058C247.634 147.097 247.858 146.234 248.306 145.468C248.763 144.703 249.375 144.106 250.14 143.676C250.915 143.247 251.764 143.032 252.688 143.032C253.612 143.032 254.457 143.247 255.222 143.676C255.997 144.106 256.603 144.703 257.042 145.468C257.49 146.234 257.714 147.097 257.714 148.058C257.714 149.02 257.49 149.888 257.042 150.662C256.594 151.428 255.987 152.025 255.222 152.454C254.457 152.884 253.612 153.098 252.688 153.098ZM252.688 150.914C253.472 150.914 254.097 150.653 254.564 150.13C255.04 149.608 255.278 148.917 255.278 148.058C255.278 147.19 255.04 146.5 254.564 145.986C254.097 145.464 253.472 145.202 252.688 145.202C251.895 145.202 251.26 145.459 250.784 145.972C250.317 146.486 250.084 147.181 250.084 148.058C250.084 148.926 250.317 149.622 250.784 150.144C251.26 150.658 251.895 150.914 252.688 150.914ZM261.44 145.09V147.078H264.646V148.926H261.44V151.082H265.066V153H259.046V143.172H265.066V145.09H261.44ZM269.433 145.664C269.47 144.666 269.797 143.896 270.413 143.354C271.029 142.813 271.864 142.542 272.919 142.542C273.619 142.542 274.216 142.664 274.711 142.906C275.215 143.149 275.593 143.48 275.845 143.9C276.106 144.32 276.237 144.792 276.237 145.314C276.237 145.93 276.083 146.434 275.775 146.826C275.467 147.209 275.107 147.47 274.697 147.61V147.666C275.229 147.844 275.649 148.138 275.957 148.548C276.265 148.959 276.419 149.486 276.419 150.13C276.419 150.709 276.283 151.222 276.013 151.67C275.751 152.109 275.364 152.454 274.851 152.706C274.347 152.958 273.745 153.084 273.045 153.084C271.925 153.084 271.029 152.809 270.357 152.258C269.694 151.708 269.344 150.877 269.307 149.766H271.631C271.64 150.177 271.757 150.504 271.981 150.746C272.205 150.98 272.531 151.096 272.961 151.096C273.325 151.096 273.605 150.994 273.801 150.788C274.006 150.574 274.109 150.294 274.109 149.948C274.109 149.5 273.964 149.178 273.675 148.982C273.395 148.777 272.942 148.674 272.317 148.674H271.869V146.728H272.317C272.793 146.728 273.175 146.649 273.465 146.49C273.763 146.322 273.913 146.028 273.913 145.608C273.913 145.272 273.819 145.011 273.633 144.824C273.446 144.638 273.189 144.544 272.863 144.544C272.508 144.544 272.242 144.652 272.065 144.866C271.897 145.081 271.799 145.347 271.771 145.664H269.433ZM290.256 143.172L286.77 153H283.774L280.288 143.172H282.836L285.272 150.592L287.722 143.172H290.256ZM293.651 145.09V147.078H296.857V148.926H293.651V151.082H297.277V153H291.257V143.172H297.277V145.09H293.651ZM301.379 151.04H305.607V153H298.663V151.18L302.863 145.132H298.663V143.172H305.607V144.992L301.379 151.04ZM309.565 145.09V147.078H312.771V148.926H309.565V151.082H313.191V153H307.171V143.172H313.191V145.09H309.565ZM318.301 153.098C317.582 153.098 316.938 152.982 316.369 152.748C315.8 152.515 315.342 152.17 314.997 151.712C314.661 151.255 314.484 150.704 314.465 150.06H317.013C317.05 150.424 317.176 150.704 317.391 150.9C317.606 151.087 317.886 151.18 318.231 151.18C318.586 151.18 318.866 151.101 319.071 150.942C319.276 150.774 319.379 150.546 319.379 150.256C319.379 150.014 319.295 149.813 319.127 149.654C318.968 149.496 318.768 149.365 318.525 149.262C318.292 149.16 317.956 149.043 317.517 148.912C316.882 148.716 316.364 148.52 315.963 148.324C315.562 148.128 315.216 147.839 314.927 147.456C314.638 147.074 314.493 146.574 314.493 145.958C314.493 145.044 314.824 144.33 315.487 143.816C316.15 143.294 317.013 143.032 318.077 143.032C319.16 143.032 320.032 143.294 320.695 143.816C321.358 144.33 321.712 145.048 321.759 145.972H319.169C319.15 145.655 319.034 145.408 318.819 145.23C318.604 145.044 318.329 144.95 317.993 144.95C317.704 144.95 317.47 145.03 317.293 145.188C317.116 145.338 317.027 145.557 317.027 145.846C317.027 146.164 317.176 146.411 317.475 146.588C317.774 146.766 318.24 146.957 318.875 147.162C319.51 147.377 320.023 147.582 320.415 147.778C320.816 147.974 321.162 148.259 321.451 148.632C321.74 149.006 321.885 149.486 321.885 150.074C321.885 150.634 321.74 151.143 321.451 151.6C321.171 152.058 320.76 152.422 320.219 152.692C319.678 152.963 319.038 153.098 318.301 153.098Z" fill="#945A01"/>
<path d="M224.719 183.185V195H222.781V186.908L219.177 195H217.834L214.213 186.908V195H212.275V183.185H214.366L218.514 192.45L222.645 183.185H224.719ZM235.851 190.087C235.851 190.439 235.829 190.756 235.783 191.039H228.626C228.683 191.787 228.961 192.388 229.459 192.841C229.958 193.295 230.57 193.521 231.295 193.521C232.338 193.521 233.075 193.085 233.505 192.212H235.596C235.313 193.074 234.797 193.782 234.049 194.337C233.313 194.881 232.395 195.153 231.295 195.153C230.4 195.153 229.595 194.955 228.881 194.558C228.179 194.15 227.623 193.584 227.215 192.858C226.819 192.122 226.62 191.272 226.62 190.308C226.62 189.345 226.813 188.501 227.198 187.775C227.595 187.039 228.145 186.472 228.847 186.075C229.561 185.679 230.377 185.48 231.295 185.48C232.179 185.48 232.967 185.673 233.658 186.058C234.35 186.444 234.888 186.988 235.273 187.69C235.659 188.382 235.851 189.181 235.851 190.087ZM233.828 189.475C233.817 188.761 233.562 188.189 233.063 187.758C232.565 187.328 231.947 187.112 231.21 187.112C230.542 187.112 229.969 187.328 229.493 187.758C229.017 188.178 228.734 188.75 228.643 189.475H233.828ZM241.158 195.153C240.422 195.153 239.759 195.023 239.169 194.762C238.591 194.49 238.132 194.128 237.792 193.674C237.452 193.21 237.271 192.694 237.248 192.127H239.254C239.288 192.524 239.475 192.858 239.815 193.13C240.167 193.391 240.603 193.521 241.124 193.521C241.668 193.521 242.088 193.419 242.382 193.215C242.688 193 242.841 192.728 242.841 192.399C242.841 192.048 242.671 191.787 242.331 191.617C242.003 191.447 241.476 191.26 240.75 191.056C240.048 190.864 239.475 190.677 239.033 190.495C238.591 190.314 238.206 190.036 237.877 189.662C237.56 189.288 237.401 188.795 237.401 188.183C237.401 187.685 237.549 187.231 237.843 186.823C238.138 186.404 238.557 186.075 239.101 185.837C239.657 185.599 240.291 185.48 241.005 185.48C242.071 185.48 242.926 185.752 243.572 186.296C244.23 186.829 244.581 187.56 244.626 188.489H242.688C242.654 188.07 242.484 187.736 242.178 187.486C241.872 187.237 241.459 187.112 240.937 187.112C240.427 187.112 240.036 187.209 239.764 187.401C239.492 187.594 239.356 187.849 239.356 188.166C239.356 188.416 239.447 188.625 239.628 188.795C239.81 188.965 240.031 189.101 240.291 189.203C240.552 189.294 240.937 189.413 241.447 189.56C242.127 189.742 242.683 189.929 243.113 190.121C243.555 190.303 243.935 190.575 244.252 190.937C244.57 191.3 244.734 191.782 244.745 192.382C244.745 192.915 244.598 193.391 244.303 193.81C244.009 194.23 243.589 194.558 243.045 194.796C242.513 195.034 241.884 195.153 241.158 195.153ZM258.178 185.48C258.915 185.48 259.572 185.633 260.15 185.939C260.74 186.245 261.199 186.699 261.527 187.299C261.867 187.9 262.037 188.625 262.037 189.475V195H260.116V189.764C260.116 188.926 259.907 188.285 259.487 187.843C259.068 187.39 258.496 187.163 257.77 187.163C257.045 187.163 256.467 187.39 256.036 187.843C255.617 188.285 255.407 188.926 255.407 189.764V195H253.486V189.764C253.486 188.926 253.277 188.285 252.857 187.843C252.438 187.39 251.866 187.163 251.14 187.163C250.415 187.163 249.837 187.39 249.406 187.843C248.987 188.285 248.777 188.926 248.777 189.764V195H246.839V185.633H248.777V186.704C249.095 186.319 249.497 186.019 249.984 185.803C250.472 185.588 250.993 185.48 251.548 185.48C252.296 185.48 252.965 185.639 253.554 185.956C254.144 186.274 254.597 186.733 254.914 187.333C255.198 186.767 255.64 186.319 256.24 185.99C256.841 185.65 257.487 185.48 258.178 185.48ZM268.567 195.153C267.683 195.153 266.884 194.955 266.17 194.558C265.456 194.15 264.895 193.584 264.487 192.858C264.079 192.122 263.875 191.272 263.875 190.308C263.875 189.356 264.084 188.512 264.504 187.775C264.923 187.039 265.495 186.472 266.221 186.075C266.946 185.679 267.756 185.48 268.652 185.48C269.547 185.48 270.357 185.679 271.083 186.075C271.808 186.472 272.38 187.039 272.8 187.775C273.219 188.512 273.429 189.356 273.429 190.308C273.429 191.26 273.213 192.105 272.783 192.841C272.352 193.578 271.763 194.15 271.015 194.558C270.278 194.955 269.462 195.153 268.567 195.153ZM268.567 193.47C269.065 193.47 269.53 193.351 269.961 193.113C270.403 192.875 270.76 192.518 271.032 192.042C271.304 191.566 271.44 190.988 271.44 190.308C271.44 189.628 271.309 189.056 271.049 188.591C270.788 188.115 270.442 187.758 270.012 187.52C269.581 187.282 269.116 187.163 268.618 187.163C268.119 187.163 267.654 187.282 267.224 187.52C266.804 187.758 266.47 188.115 266.221 188.591C265.971 189.056 265.847 189.628 265.847 190.308C265.847 191.317 266.102 192.099 266.612 192.654C267.133 193.198 267.785 193.47 268.567 193.47ZM284.486 185.48C285.223 185.48 285.88 185.633 286.458 185.939C287.048 186.245 287.507 186.699 287.835 187.299C288.164 187.9 288.328 188.625 288.328 189.475V195H286.407V189.764C286.407 188.926 286.198 188.285 285.778 187.843C285.359 187.39 284.787 187.163 284.061 187.163C283.336 187.163 282.758 187.39 282.327 187.843C281.908 188.285 281.698 188.926 281.698 189.764V195H279.76V185.633H281.698V186.704C282.016 186.319 282.418 186.019 282.905 185.803C283.404 185.588 283.931 185.48 284.486 185.48ZM290.154 190.274C290.154 189.334 290.347 188.501 290.732 187.775C291.129 187.05 291.662 186.489 292.33 186.092C293.01 185.684 293.758 185.48 294.574 185.48C295.311 185.48 295.951 185.628 296.495 185.922C297.051 186.206 297.493 186.563 297.821 186.993V185.633H299.776V195H297.821V193.606C297.493 194.048 297.045 194.417 296.478 194.711C295.912 195.006 295.266 195.153 294.54 195.153C293.736 195.153 292.999 194.949 292.33 194.541C291.662 194.122 291.129 193.544 290.732 192.807C290.347 192.059 290.154 191.215 290.154 190.274ZM297.821 190.308C297.821 189.662 297.685 189.101 297.413 188.625C297.153 188.149 296.807 187.787 296.376 187.537C295.946 187.288 295.481 187.163 294.982 187.163C294.484 187.163 294.019 187.288 293.588 187.537C293.158 187.775 292.806 188.132 292.534 188.608C292.274 189.073 292.143 189.628 292.143 190.274C292.143 190.92 292.274 191.487 292.534 191.974C292.806 192.462 293.158 192.836 293.588 193.096C294.03 193.346 294.495 193.47 294.982 193.47C295.481 193.47 295.946 193.346 296.376 193.096C296.807 192.847 297.153 192.484 297.413 192.008C297.685 191.521 297.821 190.954 297.821 190.308ZM305.722 195.153C304.985 195.153 304.322 195.023 303.733 194.762C303.155 194.49 302.696 194.128 302.356 193.674C302.016 193.21 301.835 192.694 301.812 192.127H303.818C303.852 192.524 304.039 192.858 304.379 193.13C304.73 193.391 305.167 193.521 305.688 193.521C306.232 193.521 306.651 193.419 306.946 193.215C307.252 193 307.405 192.728 307.405 192.399C307.405 192.048 307.235 191.787 306.895 191.617C306.566 191.447 306.039 191.26 305.314 191.056C304.611 190.864 304.039 190.677 303.597 190.495C303.155 190.314 302.77 190.036 302.441 189.662C302.124 189.288 301.965 188.795 301.965 188.183C301.965 187.685 302.112 187.231 302.407 186.823C302.702 186.404 303.121 186.075 303.665 185.837C304.22 185.599 304.855 185.48 305.569 185.48C306.634 185.48 307.49 185.752 308.136 186.296C308.793 186.829 309.145 187.56 309.19 188.489H307.252C307.218 188.07 307.048 187.736 306.742 187.486C306.436 187.237 306.022 187.112 305.501 187.112C304.991 187.112 304.6 187.209 304.328 187.401C304.056 187.594 303.92 187.849 303.92 188.166C303.92 188.416 304.011 188.625 304.192 188.795C304.373 188.965 304.594 189.101 304.855 189.203C305.116 189.294 305.501 189.413 306.011 189.56C306.691 189.742 307.246 189.929 307.677 190.121C308.119 190.303 308.499 190.575 308.816 190.937C309.133 191.3 309.298 191.782 309.309 192.382C309.309 192.915 309.162 193.391 308.867 193.81C308.572 194.23 308.153 194.558 307.609 194.796C307.076 195.034 306.447 195.153 305.722 195.153ZM318.08 187.214V192.399C318.08 192.751 318.159 193.006 318.318 193.164C318.488 193.312 318.771 193.385 319.168 193.385H320.358V195H318.828C317.955 195 317.287 194.796 316.822 194.388C316.357 193.98 316.125 193.317 316.125 192.399V187.214H315.02V185.633H316.125V183.304H318.08V185.633H320.358V187.214H318.08ZM330.729 190.087C330.729 190.439 330.706 190.756 330.661 191.039H323.504C323.561 191.787 323.838 192.388 324.337 192.841C324.836 193.295 325.448 193.521 326.173 193.521C327.216 193.521 327.952 193.085 328.383 192.212H330.474C330.191 193.074 329.675 193.782 328.927 194.337C328.19 194.881 327.272 195.153 326.173 195.153C325.278 195.153 324.473 194.955 323.759 194.558C323.056 194.15 322.501 193.584 322.093 192.858C321.696 192.122 321.498 191.272 321.498 190.308C321.498 189.345 321.691 188.501 322.076 187.775C322.473 187.039 323.022 186.472 323.725 186.075C324.439 185.679 325.255 185.48 326.173 185.48C327.057 185.48 327.845 185.673 328.536 186.058C329.227 186.444 329.766 186.988 330.151 187.69C330.536 188.382 330.729 189.181 330.729 190.087ZM328.706 189.475C328.695 188.761 328.44 188.189 327.941 187.758C327.442 187.328 326.825 187.112 326.088 187.112C325.419 187.112 324.847 187.328 324.371 187.758C323.895 188.178 323.612 188.75 323.521 189.475H328.706ZM343.975 185.48C344.712 185.48 345.369 185.633 345.947 185.939C346.537 186.245 346.996 186.699 347.324 187.299C347.664 187.9 347.834 188.625 347.834 189.475V195H345.913V189.764C345.913 188.926 345.704 188.285 345.284 187.843C344.865 187.39 344.293 187.163 343.567 187.163C342.842 187.163 342.264 187.39 341.833 187.843C341.414 188.285 341.204 188.926 341.204 189.764V195H339.283V189.764C339.283 188.926 339.074 188.285 338.654 187.843C338.235 187.39 337.663 187.163 336.937 187.163C336.212 187.163 335.634 187.39 335.203 187.843C334.784 188.285 334.574 188.926 334.574 189.764V195H332.636V185.633H334.574V186.704C334.892 186.319 335.294 186.019 335.781 185.803C336.269 185.588 336.79 185.48 337.345 185.48C338.093 185.48 338.762 185.639 339.351 185.956C339.941 186.274 340.394 186.733 340.711 187.333C340.995 186.767 341.437 186.319 342.037 185.99C342.638 185.65 343.284 185.48 343.975 185.48ZM352.238 187.01C352.567 186.58 353.015 186.217 353.581 185.922C354.148 185.628 354.788 185.48 355.502 185.48C356.318 185.48 357.061 185.684 357.729 186.092C358.409 186.489 358.942 187.05 359.327 187.775C359.713 188.501 359.905 189.334 359.905 190.274C359.905 191.215 359.713 192.059 359.327 192.807C358.942 193.544 358.409 194.122 357.729 194.541C357.061 194.949 356.318 195.153 355.502 195.153C354.788 195.153 354.154 195.012 353.598 194.728C353.043 194.434 352.59 194.071 352.238 193.64V199.454H350.3V185.633H352.238V187.01ZM357.933 190.274C357.933 189.628 357.797 189.073 357.525 188.608C357.265 188.132 356.913 187.775 356.471 187.537C356.041 187.288 355.576 187.163 355.077 187.163C354.59 187.163 354.125 187.288 353.683 187.537C353.253 187.787 352.901 188.149 352.629 188.625C352.369 189.101 352.238 189.662 352.238 190.308C352.238 190.954 352.369 191.521 352.629 192.008C352.901 192.484 353.253 192.847 353.683 193.096C354.125 193.346 354.59 193.47 355.077 193.47C355.576 193.47 356.041 193.346 356.471 193.096C356.913 192.836 357.265 192.462 357.525 191.974C357.797 191.487 357.933 190.92 357.933 190.274ZM370.407 190.087C370.407 190.439 370.384 190.756 370.339 191.039H363.182C363.239 191.787 363.516 192.388 364.015 192.841C364.514 193.295 365.126 193.521 365.851 193.521C366.894 193.521 367.63 193.085 368.061 192.212H370.152C369.869 193.074 369.353 193.782 368.605 194.337C367.868 194.881 366.95 195.153 365.851 195.153C364.956 195.153 364.151 194.955 363.437 194.558C362.734 194.15 362.179 193.584 361.771 192.858C361.374 192.122 361.176 191.272 361.176 190.308C361.176 189.345 361.369 188.501 361.754 187.775C362.151 187.039 362.7 186.472 363.403 186.075C364.117 185.679 364.933 185.48 365.851 185.48C366.735 185.48 367.523 185.673 368.214 186.058C368.905 186.444 369.444 186.988 369.829 187.69C370.214 188.382 370.407 189.181 370.407 190.087ZM368.384 189.475C368.373 188.761 368.118 188.189 367.619 187.758C367.12 187.328 366.503 187.112 365.766 187.112C365.097 187.112 364.525 187.328 364.049 187.758C363.573 188.178 363.29 188.75 363.199 189.475H368.384ZM375.714 195.153C374.977 195.153 374.314 195.023 373.725 194.762C373.147 194.49 372.688 194.128 372.348 193.674C372.008 193.21 371.827 192.694 371.804 192.127H373.81C373.844 192.524 374.031 192.858 374.371 193.13C374.722 193.391 375.159 193.521 375.68 193.521C376.224 193.521 376.643 193.419 376.938 193.215C377.244 193 377.397 192.728 377.397 192.399C377.397 192.048 377.227 191.787 376.887 191.617C376.558 191.447 376.031 191.26 375.306 191.056C374.603 190.864 374.031 190.677 373.589 190.495C373.147 190.314 372.762 190.036 372.433 189.662C372.116 189.288 371.957 188.795 371.957 188.183C371.957 187.685 372.104 187.231 372.399 186.823C372.694 186.404 373.113 186.075 373.657 185.837C374.212 185.599 374.847 185.48 375.561 185.48C376.626 185.48 377.482 185.752 378.128 186.296C378.785 186.829 379.137 187.56 379.182 188.489H377.244C377.21 188.07 377.04 187.736 376.734 187.486C376.428 187.237 376.014 187.112 375.493 187.112C374.983 187.112 374.592 187.209 374.32 187.401C374.048 187.594 373.912 187.849 373.912 188.166C373.912 188.416 374.003 188.625 374.184 188.795C374.365 188.965 374.586 189.101 374.847 189.203C375.108 189.294 375.493 189.413 376.003 189.56C376.683 189.742 377.238 189.929 377.669 190.121C378.111 190.303 378.491 190.575 378.808 190.937C379.125 191.3 379.29 191.782 379.301 192.382C379.301 192.915 379.154 193.391 378.859 193.81C378.564 194.23 378.145 194.558 377.601 194.796C377.068 195.034 376.439 195.153 375.714 195.153ZM383.656 187.214V192.399C383.656 192.751 383.735 193.006 383.894 193.164C384.064 193.312 384.347 193.385 384.744 193.385H385.934V195H384.404C383.531 195 382.863 194.796 382.398 194.388C381.933 193.98 381.701 193.317 381.701 192.399V187.214H380.596V185.633H381.701V183.304H383.656V185.633H385.934V187.214H383.656ZM387.074 190.274C387.074 189.334 387.267 188.501 387.652 187.775C388.049 187.05 388.582 186.489 389.25 186.092C389.93 185.684 390.678 185.48 391.494 185.48C392.231 185.48 392.871 185.628 393.415 185.922C393.971 186.206 394.413 186.563 394.741 186.993V185.633H396.696V195H394.741V193.606C394.413 194.048 393.965 194.417 393.398 194.711C392.832 195.006 392.186 195.153 391.46 195.153C390.656 195.153 389.919 194.949 389.25 194.541C388.582 194.122 388.049 193.544 387.652 192.807C387.267 192.059 387.074 191.215 387.074 190.274ZM394.741 190.308C394.741 189.662 394.605 189.101 394.333 188.625C394.073 188.149 393.727 187.787 393.296 187.537C392.866 187.288 392.401 187.163 391.902 187.163C391.404 187.163 390.939 187.288 390.508 187.537C390.078 187.775 389.726 188.132 389.454 188.608C389.194 189.073 389.063 189.628 389.063 190.274C389.063 190.92 389.194 191.487 389.454 191.974C389.726 192.462 390.078 192.836 390.508 193.096C390.95 193.346 391.415 193.47 391.902 193.47C392.401 193.47 392.866 193.346 393.296 193.096C393.727 192.847 394.073 192.484 394.333 192.008C394.605 191.521 394.741 190.954 394.741 190.308ZM398.596 190.274C398.596 189.334 398.788 188.501 399.174 187.775C399.57 187.05 400.103 186.489 400.772 186.092C401.452 185.684 402.205 185.48 403.033 185.48C403.645 185.48 404.245 185.616 404.835 185.888C405.435 186.149 405.911 186.5 406.263 186.942V182.42H408.218V195H406.263V193.589C405.945 194.043 405.503 194.417 404.937 194.711C404.381 195.006 403.741 195.153 403.016 195.153C402.2 195.153 401.452 194.949 400.772 194.541C400.103 194.122 399.57 193.544 399.174 192.807C398.788 192.059 398.596 191.215 398.596 190.274ZM406.263 190.308C406.263 189.662 406.127 189.101 405.855 188.625C405.594 188.149 405.248 187.787 404.818 187.537C404.387 187.288 403.922 187.163 403.424 187.163C402.925 187.163 402.46 187.288 402.03 187.537C401.599 187.775 401.248 188.132 400.976 188.608C400.715 189.073 400.585 189.628 400.585 190.274C400.585 190.92 400.715 191.487 400.976 191.974C401.248 192.462 401.599 192.836 402.03 193.096C402.472 193.346 402.936 193.47 403.424 193.47C403.922 193.47 404.387 193.346 404.818 193.096C405.248 192.847 405.594 192.484 405.855 192.008C406.127 191.521 406.263 190.954 406.263 190.308ZM419.348 190.087C419.348 190.439 419.326 190.756 419.28 191.039H412.123C412.18 191.787 412.458 192.388 412.956 192.841C413.455 193.295 414.067 193.521 414.792 193.521C415.835 193.521 416.572 193.085 417.002 192.212H419.093C418.81 193.074 418.294 193.782 417.546 194.337C416.81 194.881 415.892 195.153 414.792 195.153C413.897 195.153 413.092 194.955 412.378 194.558C411.676 194.15 411.12 193.584 410.712 192.858C410.316 192.122 410.117 191.272 410.117 190.308C410.117 189.345 410.31 188.501 410.695 187.775C411.092 187.039 411.642 186.472 412.344 186.075C413.058 185.679 413.874 185.48 414.792 185.48C415.676 185.48 416.464 185.673 417.155 186.058C417.847 186.444 418.385 186.988 418.77 187.69C419.156 188.382 419.348 189.181 419.348 190.087ZM417.325 189.475C417.314 188.761 417.059 188.189 416.56 187.758C416.062 187.328 415.444 187.112 414.707 187.112C414.039 187.112 413.466 187.328 412.99 187.758C412.514 188.178 412.231 188.75 412.14 189.475H417.325ZM424.655 195.153C423.919 195.153 423.256 195.023 422.666 194.762C422.088 194.49 421.629 194.128 421.289 193.674C420.949 193.21 420.768 192.694 420.745 192.127H422.751C422.785 192.524 422.972 192.858 423.312 193.13C423.664 193.391 424.1 193.521 424.621 193.521C425.165 193.521 425.585 193.419 425.879 193.215C426.185 193 426.338 192.728 426.338 192.399C426.338 192.048 426.168 191.787 425.828 191.617C425.5 191.447 424.973 191.26 424.247 191.056C423.545 190.864 422.972 190.677 422.53 190.495C422.088 190.314 421.703 190.036 421.374 189.662C421.057 189.288 420.898 188.795 420.898 188.183C420.898 187.685 421.046 187.231 421.34 186.823C421.635 186.404 422.054 186.075 422.598 185.837C423.154 185.599 423.788 185.48 424.502 185.48C425.568 185.48 426.423 185.752 427.069 186.296C427.727 186.829 428.078 187.56 428.123 188.489H426.185C426.151 188.07 425.981 187.736 425.675 187.486C425.369 187.237 424.956 187.112 424.434 187.112C423.924 187.112 423.533 187.209 423.261 187.401C422.989 187.594 422.853 187.849 422.853 188.166C422.853 188.416 422.944 188.625 423.125 188.795C423.307 188.965 423.528 189.101 423.788 189.203C424.049 189.294 424.434 189.413 424.944 189.56C425.624 189.742 426.18 189.929 426.61 190.121C427.052 190.303 427.432 190.575 427.749 190.937C428.067 191.3 428.231 191.782 428.242 192.382C428.242 192.915 428.095 193.391 427.8 193.81C427.506 194.23 427.086 194.558 426.542 194.796C426.01 195.034 425.381 195.153 424.655 195.153ZM432.462 192.671L430.405 197.363H429.147L430.354 192.671H432.462ZM442.634 195.153C441.75 195.153 440.951 194.955 440.237 194.558C439.523 194.15 438.962 193.584 438.554 192.858C438.146 192.122 437.942 191.272 437.942 190.308C437.942 189.356 438.152 188.512 438.571 187.775C438.99 187.039 439.563 186.472 440.288 186.075C441.013 185.679 441.824 185.48 442.719 185.48C443.614 185.48 444.425 185.679 445.15 186.075C445.875 186.472 446.448 187.039 446.867 187.775C447.286 188.512 447.496 189.356 447.496 190.308C447.496 191.26 447.281 192.105 446.85 192.841C446.419 193.578 445.83 194.15 445.082 194.558C444.345 194.955 443.529 195.153 442.634 195.153ZM442.634 193.47C443.133 193.47 443.597 193.351 444.028 193.113C444.47 192.875 444.827 192.518 445.099 192.042C445.371 191.566 445.507 190.988 445.507 190.308C445.507 189.628 445.377 189.056 445.116 188.591C444.855 188.115 444.51 187.758 444.079 187.52C443.648 187.282 443.184 187.163 442.685 187.163C442.186 187.163 441.722 187.282 441.291 187.52C440.872 187.758 440.537 188.115 440.288 188.591C440.039 189.056 439.914 189.628 439.914 190.308C439.914 191.317 440.169 192.099 440.679 192.654C441.2 193.198 441.852 193.47 442.634 193.47ZM455.766 186.993C456.049 186.517 456.423 186.149 456.888 185.888C457.364 185.616 457.925 185.48 458.571 185.48V187.486H458.078C457.318 187.486 456.74 187.679 456.344 188.064C455.958 188.45 455.766 189.118 455.766 190.07V195H453.828V185.633H455.766V186.993ZM459.706 190.274C459.706 189.334 459.899 188.501 460.284 187.775C460.681 187.05 461.213 186.489 461.882 186.092C462.562 185.684 463.31 185.48 464.126 185.48C464.863 185.48 465.503 185.628 466.047 185.922C466.602 186.206 467.044 186.563 467.373 186.993V185.633H469.328V195H467.373V193.606C467.044 194.048 466.597 194.417 466.03 194.711C465.463 195.006 464.817 195.153 464.092 195.153C463.287 195.153 462.551 194.949 461.882 194.541C461.213 194.122 460.681 193.544 460.284 192.807C459.899 192.059 459.706 191.215 459.706 190.274ZM467.373 190.308C467.373 189.662 467.237 189.101 466.965 188.625C466.704 188.149 466.359 187.787 465.928 187.537C465.497 187.288 465.033 187.163 464.534 187.163C464.035 187.163 463.571 187.288 463.14 187.537C462.709 187.775 462.358 188.132 462.086 188.608C461.825 189.073 461.695 189.628 461.695 190.274C461.695 190.92 461.825 191.487 462.086 191.974C462.358 192.462 462.709 192.836 463.14 193.096C463.582 193.346 464.047 193.47 464.534 193.47C465.033 193.47 465.497 193.346 465.928 193.096C466.359 192.847 466.704 192.484 466.965 192.008C467.237 191.521 467.373 190.954 467.373 190.308ZM472.86 184.392C472.508 184.392 472.214 184.273 471.976 184.035C471.738 183.797 471.619 183.503 471.619 183.151C471.619 182.8 471.738 182.505 471.976 182.267C472.214 182.029 472.508 181.91 472.86 181.91C473.2 181.91 473.489 182.029 473.727 182.267C473.965 182.505 474.084 182.8 474.084 183.151C474.084 183.503 473.965 183.797 473.727 184.035C473.489 184.273 473.2 184.392 472.86 184.392ZM473.812 185.633V195H471.874V185.633H473.812ZM480.419 195.153C479.535 195.153 478.736 194.955 478.022 194.558C477.308 194.15 476.747 193.584 476.339 192.858C475.931 192.122 475.727 191.272 475.727 190.308C475.727 189.356 475.937 188.512 476.356 187.775C476.775 187.039 477.348 186.472 478.073 186.075C478.798 185.679 479.609 185.48 480.504 185.48C481.399 185.48 482.21 185.679 482.935 186.075C483.66 186.472 484.233 187.039 484.652 187.775C485.071 188.512 485.281 189.356 485.281 190.308C485.281 191.26 485.066 192.105 484.635 192.841C484.204 193.578 483.615 194.15 482.867 194.558C482.13 194.955 481.314 195.153 480.419 195.153ZM480.419 193.47C480.918 193.47 481.382 193.351 481.813 193.113C482.255 192.875 482.612 192.518 482.884 192.042C483.156 191.566 483.292 190.988 483.292 190.308C483.292 189.628 483.162 189.056 482.901 188.591C482.64 188.115 482.295 187.758 481.864 187.52C481.433 187.282 480.969 187.163 480.47 187.163C479.971 187.163 479.507 187.282 479.076 187.52C478.657 187.758 478.322 188.115 478.073 188.591C477.824 189.056 477.699 189.628 477.699 190.308C477.699 191.317 477.954 192.099 478.464 192.654C478.985 193.198 479.637 193.47 480.419 193.47ZM490.967 190.274C490.967 189.334 491.16 188.501 491.545 187.775C491.942 187.05 492.474 186.489 493.143 186.092C493.823 185.684 494.577 185.48 495.404 185.48C496.016 185.48 496.617 185.616 497.206 185.888C497.807 186.149 498.283 186.5 498.634 186.942V182.42H500.589V195H498.634V193.589C498.317 194.043 497.875 194.417 497.308 194.711C496.753 195.006 496.112 195.153 495.387 195.153C494.571 195.153 493.823 194.949 493.143 194.541C492.474 194.122 491.942 193.544 491.545 192.807C491.16 192.059 490.967 191.215 490.967 190.274ZM498.634 190.308C498.634 189.662 498.498 189.101 498.226 188.625C497.965 188.149 497.62 187.787 497.189 187.537C496.758 187.288 496.294 187.163 495.795 187.163C495.296 187.163 494.832 187.288 494.401 187.537C493.97 187.775 493.619 188.132 493.347 188.608C493.086 189.073 492.956 189.628 492.956 190.274C492.956 190.92 493.086 191.487 493.347 191.974C493.619 192.462 493.97 192.836 494.401 193.096C494.843 193.346 495.308 193.47 495.795 193.47C496.294 193.47 496.758 193.346 497.189 193.096C497.62 192.847 497.965 192.484 498.226 192.008C498.498 191.521 498.634 190.954 498.634 190.308ZM502.488 190.274C502.488 189.334 502.681 188.501 503.066 187.775C503.463 187.05 503.996 186.489 504.664 186.092C505.344 185.684 506.092 185.48 506.908 185.48C507.645 185.48 508.285 185.628 508.829 185.922C509.385 186.206 509.827 186.563 510.155 186.993V185.633H512.11V195H510.155V193.606C509.827 194.048 509.379 194.417 508.812 194.711C508.246 195.006 507.6 195.153 506.874 195.153C506.07 195.153 505.333 194.949 504.664 194.541C503.996 194.122 503.463 193.544 503.066 192.807C502.681 192.059 502.488 191.215 502.488 190.274ZM510.155 190.308C510.155 189.662 510.019 189.101 509.747 188.625C509.487 188.149 509.141 187.787 508.71 187.537C508.28 187.288 507.815 187.163 507.316 187.163C506.818 187.163 506.353 187.288 505.922 187.537C505.492 187.775 505.14 188.132 504.868 188.608C504.608 189.073 504.477 189.628 504.477 190.274C504.477 190.92 504.608 191.487 504.868 191.974C505.14 192.462 505.492 192.836 505.922 193.096C506.364 193.346 506.829 193.47 507.316 193.47C507.815 193.47 508.28 193.346 508.71 193.096C509.141 192.847 509.487 192.484 509.747 192.008C510.019 191.521 510.155 190.954 510.155 190.308ZM527.657 190.087C527.657 190.439 527.634 190.756 527.589 191.039H520.432C520.489 191.787 520.766 192.388 521.265 192.841C521.764 193.295 522.376 193.521 523.101 193.521C524.144 193.521 524.88 193.085 525.311 192.212H527.402C527.119 193.074 526.603 193.782 525.855 194.337C525.118 194.881 524.2 195.153 523.101 195.153C522.206 195.153 521.401 194.955 520.687 194.558C519.984 194.15 519.429 193.584 519.021 192.858C518.624 192.122 518.426 191.272 518.426 190.308C518.426 189.345 518.619 188.501 519.004 187.775C519.401 187.039 519.95 186.472 520.653 186.075C521.367 185.679 522.183 185.48 523.101 185.48C523.985 185.48 524.773 185.673 525.464 186.058C526.155 186.444 526.694 186.988 527.079 187.69C527.464 188.382 527.657 189.181 527.657 190.087ZM525.634 189.475C525.623 188.761 525.368 188.189 524.869 187.758C524.37 187.328 523.753 187.112 523.016 187.112C522.347 187.112 521.775 187.328 521.299 187.758C520.823 188.178 520.54 188.75 520.449 189.475H525.634ZM532.964 195.153C532.227 195.153 531.564 195.023 530.975 194.762C530.397 194.49 529.938 194.128 529.598 193.674C529.258 193.21 529.077 192.694 529.054 192.127H531.06C531.094 192.524 531.281 192.858 531.621 193.13C531.972 193.391 532.409 193.521 532.93 193.521C533.474 193.521 533.893 193.419 534.188 193.215C534.494 193 534.647 192.728 534.647 192.399C534.647 192.048 534.477 191.787 534.137 191.617C533.808 191.447 533.281 191.26 532.556 191.056C531.853 190.864 531.281 190.677 530.839 190.495C530.397 190.314 530.012 190.036 529.683 189.662C529.366 189.288 529.207 188.795 529.207 188.183C529.207 187.685 529.354 187.231 529.649 186.823C529.944 186.404 530.363 186.075 530.907 185.837C531.462 185.599 532.097 185.48 532.811 185.48C533.876 185.48 534.732 185.752 535.378 186.296C536.035 186.829 536.387 187.56 536.432 188.489H534.494C534.46 188.07 534.29 187.736 533.984 187.486C533.678 187.237 533.264 187.112 532.743 187.112C532.233 187.112 531.842 187.209 531.57 187.401C531.298 187.594 531.162 187.849 531.162 188.166C531.162 188.416 531.253 188.625 531.434 188.795C531.615 188.965 531.836 189.101 532.097 189.203C532.358 189.294 532.743 189.413 533.253 189.56C533.933 189.742 534.488 189.929 534.919 190.121C535.361 190.303 535.741 190.575 536.058 190.937C536.375 191.3 536.54 191.782 536.551 192.382C536.551 192.915 536.404 193.391 536.109 193.81C535.814 194.23 535.395 194.558 534.851 194.796C534.318 195.034 533.689 195.153 532.964 195.153ZM540.583 187.01C540.912 186.58 541.359 186.217 541.926 185.922C542.493 185.628 543.133 185.48 543.847 185.48C544.663 185.48 545.405 185.684 546.074 186.092C546.754 186.489 547.287 187.05 547.672 187.775C548.057 188.501 548.25 189.334 548.25 190.274C548.25 191.215 548.057 192.059 547.672 192.807C547.287 193.544 546.754 194.122 546.074 194.541C545.405 194.949 544.663 195.153 543.847 195.153C543.133 195.153 542.498 195.012 541.943 194.728C541.388 194.434 540.934 194.071 540.583 193.64V199.454H538.645V185.633H540.583V187.01ZM546.278 190.274C546.278 189.628 546.142 189.073 545.87 188.608C545.609 188.132 545.258 187.775 544.816 187.537C544.385 187.288 543.921 187.163 543.422 187.163C542.935 187.163 542.47 187.288 542.028 187.537C541.597 187.787 541.246 188.149 540.974 188.625C540.713 189.101 540.583 189.662 540.583 190.308C540.583 190.954 540.713 191.521 540.974 192.008C541.246 192.484 541.597 192.847 542.028 193.096C542.47 193.346 542.935 193.47 543.422 193.47C543.921 193.47 544.385 193.346 544.816 193.096C545.258 192.836 545.609 192.462 545.87 191.974C546.142 191.487 546.278 190.92 546.278 190.274ZM558.752 190.087C558.752 190.439 558.729 190.756 558.684 191.039H551.527C551.583 191.787 551.861 192.388 552.36 192.841C552.858 193.295 553.47 193.521 554.196 193.521C555.238 193.521 555.975 193.085 556.406 192.212H558.497C558.213 193.074 557.698 193.782 556.95 194.337C556.213 194.881 555.295 195.153 554.196 195.153C553.3 195.153 552.496 194.955 551.782 194.558C551.079 194.15 550.524 193.584 550.116 192.858C549.719 192.122 549.521 191.272 549.521 190.308C549.521 189.345 549.713 188.501 550.099 187.775C550.495 187.039 551.045 186.472 551.748 186.075C552.462 185.679 553.278 185.48 554.196 185.48C555.08 185.48 555.867 185.673 556.559 186.058C557.25 186.444 557.788 186.988 558.174 187.69C558.559 188.382 558.752 189.181 558.752 190.087ZM556.729 189.475C556.717 188.761 556.462 188.189 555.964 187.758C555.465 187.328 554.847 187.112 554.111 187.112C553.442 187.112 552.87 187.328 552.394 187.758C551.918 188.178 551.634 188.75 551.544 189.475H556.729ZM562.597 186.993C562.88 186.517 563.254 186.149 563.719 185.888C564.195 185.616 564.756 185.48 565.402 185.48V187.486H564.909C564.149 187.486 563.571 187.679 563.175 188.064C562.789 188.45 562.597 189.118 562.597 190.07V195H560.659V185.633H562.597V186.993ZM566.537 190.274C566.537 189.334 566.73 188.501 567.115 187.775C567.512 187.05 568.045 186.489 568.713 186.092C569.393 185.684 570.141 185.48 570.957 185.48C571.694 185.48 572.334 185.628 572.878 185.922C573.434 186.206 573.876 186.563 574.204 186.993V185.633H576.159V195H574.204V193.606C573.876 194.048 573.428 194.417 572.861 194.711C572.295 195.006 571.649 195.153 570.923 195.153C570.119 195.153 569.382 194.949 568.713 194.541C568.045 194.122 567.512 193.544 567.115 192.807C566.73 192.059 566.537 191.215 566.537 190.274ZM574.204 190.308C574.204 189.662 574.068 189.101 573.796 188.625C573.536 188.149 573.19 187.787 572.759 187.537C572.329 187.288 571.864 187.163 571.365 187.163C570.867 187.163 570.402 187.288 569.971 187.537C569.541 187.775 569.189 188.132 568.917 188.608C568.657 189.073 568.526 189.628 568.526 190.274C568.526 190.92 568.657 191.487 568.917 191.974C569.189 192.462 569.541 192.836 569.971 193.096C570.413 193.346 570.878 193.47 571.365 193.47C571.864 193.47 572.329 193.346 572.759 193.096C573.19 192.847 573.536 192.484 573.796 192.008C574.068 191.521 574.204 190.954 574.204 190.308ZM583.431 185.48C584.167 185.48 584.825 185.633 585.403 185.939C585.992 186.245 586.451 186.699 586.78 187.299C587.108 187.9 587.273 188.625 587.273 189.475V195H585.352V189.764C585.352 188.926 585.142 188.285 584.723 187.843C584.303 187.39 583.731 187.163 583.006 187.163C582.28 187.163 581.702 187.39 581.272 187.843C580.852 188.285 580.643 188.926 580.643 189.764V195H578.705V185.633H580.643V186.704C580.96 186.319 581.362 186.019 581.85 185.803C582.348 185.588 582.875 185.48 583.431 185.48ZM593.689 193.521C594.811 193.521 595.553 193.028 595.916 192.042H598.007C597.757 192.904 597.31 193.612 596.664 194.167C596.029 194.711 595.23 195.029 594.267 195.119V195.816C594.924 195.816 595.457 195.969 595.865 196.275C596.273 196.593 596.477 197.035 596.477 197.601C596.477 198.168 596.273 198.616 595.865 198.944C595.457 199.284 594.941 199.454 594.318 199.454H592.074V198.23H593.927C594.244 198.23 594.482 198.185 594.641 198.094C594.799 198.004 594.879 197.839 594.879 197.601C594.879 197.363 594.799 197.199 594.641 197.108C594.482 197.018 594.244 196.972 593.927 196.972H592.992V195.102C592.221 195.012 591.541 194.757 590.952 194.337C590.362 193.907 589.903 193.351 589.575 192.671C589.257 191.98 589.099 191.192 589.099 190.308C589.099 189.345 589.291 188.501 589.677 187.775C590.073 187.039 590.617 186.472 591.309 186.075C592 185.679 592.793 185.48 593.689 185.48C594.822 185.48 595.757 185.752 596.494 186.296C597.242 186.829 597.746 187.594 598.007 188.591H595.916C595.746 188.127 595.474 187.764 595.1 187.503C594.726 187.243 594.255 187.112 593.689 187.112C592.895 187.112 592.261 187.396 591.785 187.962C591.32 188.518 591.088 189.3 591.088 190.308C591.088 191.317 591.32 192.105 591.785 192.671C592.261 193.238 592.895 193.521 593.689 193.521ZM599.292 190.274C599.292 189.334 599.485 188.501 599.87 187.775C600.267 187.05 600.799 186.489 601.468 186.092C602.148 185.684 602.896 185.48 603.712 185.48C604.449 185.48 605.089 185.628 605.633 185.922C606.188 186.206 606.63 186.563 606.959 186.993V185.633H608.914V195H606.959V193.606C606.63 194.048 606.183 194.417 605.616 194.711C605.049 195.006 604.403 195.153 603.678 195.153C602.873 195.153 602.137 194.949 601.468 194.541C600.799 194.122 600.267 193.544 599.87 192.807C599.485 192.059 599.292 191.215 599.292 190.274ZM606.959 190.308C606.959 189.662 606.823 189.101 606.551 188.625C606.29 188.149 605.945 187.787 605.514 187.537C605.083 187.288 604.619 187.163 604.12 187.163C603.621 187.163 603.157 187.288 602.726 187.537C602.295 187.775 601.944 188.132 601.672 188.608C601.411 189.073 601.281 189.628 601.281 190.274C601.281 190.92 601.411 191.487 601.672 191.974C601.944 192.462 602.295 192.836 602.726 193.096C603.168 193.346 603.633 193.47 604.12 193.47C604.619 193.47 605.083 193.346 605.514 193.096C605.945 192.847 606.29 192.484 606.551 192.008C606.823 191.521 606.959 190.954 606.959 190.308ZM213.261 210.392C212.91 210.392 212.615 210.273 212.377 210.035C212.139 209.797 212.02 209.503 212.02 209.151C212.02 208.8 212.139 208.505 212.377 208.267C212.615 208.029 212.91 207.91 213.261 207.91C213.601 207.91 213.89 208.029 214.128 208.267C214.366 208.505 214.485 208.8 214.485 209.151C214.485 209.503 214.366 209.797 214.128 210.035C213.89 210.273 213.601 210.392 213.261 210.392ZM214.213 211.633V221H212.275V211.633H214.213ZM218.695 208.42V221H216.757V208.42H218.695ZM229.723 211.633V221H227.785V219.895C227.479 220.281 227.077 220.587 226.578 220.813C226.091 221.029 225.569 221.136 225.014 221.136C224.277 221.136 223.614 220.983 223.025 220.677C222.447 220.371 221.988 219.918 221.648 219.317C221.319 218.717 221.155 217.991 221.155 217.141V211.633H223.076V216.852C223.076 217.691 223.286 218.337 223.705 218.79C224.124 219.232 224.697 219.453 225.422 219.453C226.147 219.453 226.72 219.232 227.139 218.79C227.57 218.337 227.785 217.691 227.785 216.852V211.633H229.723ZM243.619 211.48C244.356 211.48 245.013 211.633 245.591 211.939C246.18 212.245 246.639 212.699 246.968 213.299C247.308 213.9 247.478 214.625 247.478 215.475V221H245.557V215.764C245.557 214.926 245.347 214.285 244.928 213.843C244.509 213.39 243.936 213.163 243.211 213.163C242.486 213.163 241.908 213.39 241.477 213.843C241.058 214.285 240.848 214.926 240.848 215.764V221H238.927V215.764C238.927 214.926 238.717 214.285 238.298 213.843C237.879 213.39 237.306 213.163 236.581 213.163C235.856 213.163 235.278 213.39 234.847 213.843C234.428 214.285 234.218 214.926 234.218 215.764V221H232.28V211.633H234.218V212.704C234.535 212.319 234.938 212.019 235.425 211.803C235.912 211.588 236.434 211.48 236.989 211.48C237.737 211.48 238.406 211.639 238.995 211.956C239.584 212.274 240.038 212.733 240.355 213.333C240.638 212.767 241.08 212.319 241.681 211.99C242.282 211.65 242.928 211.48 243.619 211.48ZM250.93 210.392C250.579 210.392 250.284 210.273 250.046 210.035C249.808 209.797 249.689 209.503 249.689 209.151C249.689 208.8 249.808 208.505 250.046 208.267C250.284 208.029 250.579 207.91 250.93 207.91C251.27 207.91 251.559 208.029 251.797 208.267C252.035 208.505 252.154 208.8 252.154 209.151C252.154 209.503 252.035 209.797 251.797 210.035C251.559 210.273 251.27 210.392 250.93 210.392ZM251.882 211.633V221H249.944V211.633H251.882ZM259.152 211.48C259.889 211.48 260.546 211.633 261.124 211.939C261.714 212.245 262.173 212.699 262.501 213.299C262.83 213.9 262.994 214.625 262.994 215.475V221H261.073V215.764C261.073 214.926 260.864 214.285 260.444 213.843C260.025 213.39 259.453 213.163 258.727 213.163C258.002 213.163 257.424 213.39 256.993 213.843C256.574 214.285 256.364 214.926 256.364 215.764V221H254.426V211.633H256.364V212.704C256.682 212.319 257.084 212.019 257.571 211.803C258.07 211.588 258.597 211.48 259.152 211.48ZM264.82 216.274C264.82 215.334 265.013 214.501 265.398 213.775C265.795 213.05 266.328 212.489 266.996 212.092C267.676 211.684 268.424 211.48 269.24 211.48C269.977 211.48 270.617 211.628 271.161 211.922C271.717 212.206 272.159 212.563 272.487 212.993V211.633H274.442V221H272.487V219.606C272.159 220.048 271.711 220.417 271.144 220.711C270.578 221.006 269.932 221.153 269.206 221.153C268.402 221.153 267.665 220.949 266.996 220.541C266.328 220.122 265.795 219.544 265.398 218.807C265.013 218.059 264.82 217.215 264.82 216.274ZM272.487 216.308C272.487 215.662 272.351 215.101 272.079 214.625C271.819 214.149 271.473 213.787 271.042 213.537C270.612 213.288 270.147 213.163 269.648 213.163C269.15 213.163 268.685 213.288 268.254 213.537C267.824 213.775 267.472 214.132 267.2 214.608C266.94 215.073 266.809 215.628 266.809 216.274C266.809 216.92 266.94 217.487 267.2 217.974C267.472 218.462 267.824 218.836 268.254 219.096C268.696 219.346 269.161 219.47 269.648 219.47C270.147 219.47 270.612 219.346 271.042 219.096C271.473 218.847 271.819 218.484 272.079 218.008C272.351 217.521 272.487 216.954 272.487 216.308ZM286.13 211.48C286.867 211.48 287.524 211.633 288.102 211.939C288.691 212.245 289.15 212.699 289.479 213.299C289.808 213.9 289.972 214.625 289.972 215.475V221H288.051V215.764C288.051 214.926 287.841 214.285 287.422 213.843C287.003 213.39 286.43 213.163 285.705 213.163C284.98 213.163 284.402 213.39 283.971 213.843C283.552 214.285 283.342 214.926 283.342 215.764V221H281.404V211.633H283.342V212.704C283.659 212.319 284.062 212.019 284.549 211.803C285.048 211.588 285.575 211.48 286.13 211.48ZM296.507 221.153C295.623 221.153 294.824 220.955 294.11 220.558C293.396 220.15 292.835 219.584 292.427 218.858C292.019 218.122 291.815 217.272 291.815 216.308C291.815 215.356 292.025 214.512 292.444 213.775C292.863 213.039 293.436 212.472 294.161 212.075C294.886 211.679 295.697 211.48 296.592 211.48C297.487 211.48 298.298 211.679 299.023 212.075C299.748 212.472 300.321 213.039 300.74 213.775C301.159 214.512 301.369 215.356 301.369 216.308C301.369 217.26 301.154 218.105 300.723 218.841C300.292 219.578 299.703 220.15 298.955 220.558C298.218 220.955 297.402 221.153 296.507 221.153ZM296.507 219.47C297.006 219.47 297.47 219.351 297.901 219.113C298.343 218.875 298.7 218.518 298.972 218.042C299.244 217.566 299.38 216.988 299.38 216.308C299.38 215.628 299.25 215.056 298.989 214.591C298.728 214.115 298.383 213.758 297.952 213.52C297.521 213.282 297.057 213.163 296.558 213.163C296.059 213.163 295.595 213.282 295.164 213.52C294.745 213.758 294.41 214.115 294.161 214.591C293.912 215.056 293.787 215.628 293.787 216.308C293.787 217.317 294.042 218.099 294.552 218.654C295.073 219.198 295.725 219.47 296.507 219.47ZM306.685 221.153C305.948 221.153 305.285 221.023 304.696 220.762C304.118 220.49 303.659 220.128 303.319 219.674C302.979 219.21 302.797 218.694 302.775 218.127H304.781C304.815 218.524 305.002 218.858 305.342 219.13C305.693 219.391 306.129 219.521 306.651 219.521C307.195 219.521 307.614 219.419 307.909 219.215C308.215 219 308.368 218.728 308.368 218.399C308.368 218.048 308.198 217.787 307.858 217.617C307.529 217.447 307.002 217.26 306.277 217.056C305.574 216.864 305.002 216.677 304.56 216.495C304.118 216.314 303.732 216.036 303.404 215.662C303.086 215.288 302.928 214.795 302.928 214.183C302.928 213.685 303.075 213.231 303.37 212.823C303.664 212.404 304.084 212.075 304.628 211.837C305.183 211.599 305.818 211.48 306.532 211.48C307.597 211.48 308.453 211.752 309.099 212.296C309.756 212.829 310.107 213.56 310.153 214.489H308.215C308.181 214.07 308.011 213.736 307.705 213.486C307.399 213.237 306.985 213.112 306.464 213.112C305.954 213.112 305.563 213.209 305.291 213.401C305.019 213.594 304.883 213.849 304.883 214.166C304.883 214.416 304.973 214.625 305.155 214.795C305.336 214.965 305.557 215.101 305.818 215.203C306.078 215.294 306.464 215.413 306.974 215.56C307.654 215.742 308.209 215.929 308.64 216.121C309.082 216.303 309.461 216.575 309.779 216.937C310.096 217.3 310.26 217.782 310.272 218.382C310.272 218.915 310.124 219.391 309.83 219.81C309.535 220.23 309.116 220.558 308.572 220.796C308.039 221.034 307.41 221.153 306.685 221.153ZM315.766 221.153C315.029 221.153 314.366 221.023 313.777 220.762C313.199 220.49 312.74 220.128 312.4 219.674C312.06 219.21 311.878 218.694 311.856 218.127H313.862C313.896 218.524 314.083 218.858 314.423 219.13C314.774 219.391 315.21 219.521 315.732 219.521C316.276 219.521 316.695 219.419 316.99 219.215C317.296 219 317.449 218.728 317.449 218.399C317.449 218.048 317.279 217.787 316.939 217.617C316.61 217.447 316.083 217.26 315.358 217.056C314.655 216.864 314.083 216.677 313.641 216.495C313.199 216.314 312.813 216.036 312.485 215.662C312.167 215.288 312.009 214.795 312.009 214.183C312.009 213.685 312.156 213.231 312.451 212.823C312.745 212.404 313.165 212.075 313.709 211.837C314.264 211.599 314.899 211.48 315.613 211.48C316.678 211.48 317.534 211.752 318.18 212.296C318.837 212.829 319.188 213.56 319.234 214.489H317.296C317.262 214.07 317.092 213.736 316.786 213.486C316.48 213.237 316.066 213.112 315.545 213.112C315.035 213.112 314.644 213.209 314.372 213.401C314.1 213.594 313.964 213.849 313.964 214.166C313.964 214.416 314.054 214.625 314.236 214.795C314.417 214.965 314.638 215.101 314.899 215.203C315.159 215.294 315.545 215.413 316.055 215.56C316.735 215.742 317.29 215.929 317.721 216.121C318.163 216.303 318.542 216.575 318.86 216.937C319.177 217.3 319.341 217.782 319.353 218.382C319.353 218.915 319.205 219.391 318.911 219.81C318.616 220.23 318.197 220.558 317.653 220.796C317.12 221.034 316.491 221.153 315.766 221.153ZM325.51 221.153C324.626 221.153 323.827 220.955 323.113 220.558C322.399 220.15 321.838 219.584 321.43 218.858C321.022 218.122 320.818 217.272 320.818 216.308C320.818 215.356 321.028 214.512 321.447 213.775C321.866 213.039 322.439 212.472 323.164 212.075C323.889 211.679 324.7 211.48 325.595 211.48C326.49 211.48 327.301 211.679 328.026 212.075C328.751 212.472 329.324 213.039 329.743 213.775C330.162 214.512 330.372 215.356 330.372 216.308C330.372 217.26 330.157 218.105 329.726 218.841C329.295 219.578 328.706 220.15 327.958 220.558C327.221 220.955 326.405 221.153 325.51 221.153ZM325.51 219.47C326.009 219.47 326.473 219.351 326.904 219.113C327.346 218.875 327.703 218.518 327.975 218.042C328.247 217.566 328.383 216.988 328.383 216.308C328.383 215.628 328.253 215.056 327.992 214.591C327.731 214.115 327.386 213.758 326.955 213.52C326.524 213.282 326.06 213.163 325.561 213.163C325.062 213.163 324.598 213.282 324.167 213.52C323.748 213.758 323.413 214.115 323.164 214.591C322.915 215.056 322.79 215.628 322.79 216.308C322.79 217.317 323.045 218.099 323.555 218.654C324.076 219.198 324.728 219.47 325.51 219.47ZM335.688 221.153C334.951 221.153 334.288 221.023 333.699 220.762C333.121 220.49 332.662 220.128 332.322 219.674C331.982 219.21 331.8 218.694 331.778 218.127H333.784C333.818 218.524 334.005 218.858 334.345 219.13C334.696 219.391 335.132 219.521 335.654 219.521C336.198 219.521 336.617 219.419 336.912 219.215C337.218 219 337.371 218.728 337.371 218.399C337.371 218.048 337.201 217.787 336.861 217.617C336.532 217.447 336.005 217.26 335.28 217.056C334.577 216.864 334.005 216.677 333.563 216.495C333.121 216.314 332.735 216.036 332.407 215.662C332.089 215.288 331.931 214.795 331.931 214.183C331.931 213.685 332.078 213.231 332.373 212.823C332.667 212.404 333.087 212.075 333.631 211.837C334.186 211.599 334.821 211.48 335.535 211.48C336.6 211.48 337.456 211.752 338.102 212.296C338.759 212.829 339.11 213.56 339.156 214.489H337.218C337.184 214.07 337.014 213.736 336.708 213.486C336.402 213.237 335.988 213.112 335.467 213.112C334.957 213.112 334.566 213.209 334.294 213.401C334.022 213.594 333.886 213.849 333.886 214.166C333.886 214.416 333.976 214.625 334.158 214.795C334.339 214.965 334.56 215.101 334.821 215.203C335.081 215.294 335.467 215.413 335.977 215.56C336.657 215.742 337.212 215.929 337.643 216.121C338.085 216.303 338.464 216.575 338.782 216.937C339.099 217.3 339.263 217.782 339.275 218.382C339.275 218.915 339.127 219.391 338.833 219.81C338.538 220.23 338.119 220.558 337.575 220.796C337.042 221.034 336.413 221.153 335.688 221.153ZM349.185 221.153C348.448 221.153 347.785 221.023 347.196 220.762C346.618 220.49 346.159 220.128 345.819 219.674C345.479 219.21 345.297 218.694 345.275 218.127H347.281C347.315 218.524 347.502 218.858 347.842 219.13C348.193 219.391 348.629 219.521 349.151 219.521C349.695 219.521 350.114 219.419 350.409 219.215C350.715 219 350.868 218.728 350.868 218.399C350.868 218.048 350.698 217.787 350.358 217.617C350.029 217.447 349.502 217.26 348.777 217.056C348.074 216.864 347.502 216.677 347.06 216.495C346.618 216.314 346.232 216.036 345.904 215.662C345.586 215.288 345.428 214.795 345.428 214.183C345.428 213.685 345.575 213.231 345.87 212.823C346.164 212.404 346.584 212.075 347.128 211.837C347.683 211.599 348.318 211.48 349.032 211.48C350.097 211.48 350.953 211.752 351.599 212.296C352.256 212.829 352.607 213.56 352.653 214.489H350.715C350.681 214.07 350.511 213.736 350.205 213.486C349.899 213.237 349.485 213.112 348.964 213.112C348.454 213.112 348.063 213.209 347.791 213.401C347.519 213.594 347.383 213.849 347.383 214.166C347.383 214.416 347.473 214.625 347.655 214.795C347.836 214.965 348.057 215.101 348.318 215.203C348.578 215.294 348.964 215.413 349.474 215.56C350.154 215.742 350.709 215.929 351.14 216.121C351.582 216.303 351.961 216.575 352.279 216.937C352.596 217.3 352.76 217.782 352.772 218.382C352.772 218.915 352.624 219.391 352.33 219.81C352.035 220.23 351.616 220.558 351.072 220.796C350.539 221.034 349.91 221.153 349.185 221.153ZM358.929 221.153C358.045 221.153 357.246 220.955 356.532 220.558C355.818 220.15 355.257 219.584 354.849 218.858C354.441 218.122 354.237 217.272 354.237 216.308C354.237 215.356 354.446 214.512 354.866 213.775C355.285 213.039 355.857 212.472 356.583 212.075C357.308 211.679 358.118 211.48 359.014 211.48C359.909 211.48 360.719 211.679 361.445 212.075C362.17 212.472 362.742 213.039 363.162 213.775C363.581 214.512 363.791 215.356 363.791 216.308C363.791 217.26 363.575 218.105 363.145 218.841C362.714 219.578 362.125 220.15 361.377 220.558C360.64 220.955 359.824 221.153 358.929 221.153ZM358.929 219.47C359.427 219.47 359.892 219.351 360.323 219.113C360.765 218.875 361.122 218.518 361.394 218.042C361.666 217.566 361.802 216.988 361.802 216.308C361.802 215.628 361.671 215.056 361.411 214.591C361.15 214.115 360.804 213.758 360.374 213.52C359.943 213.282 359.478 213.163 358.98 213.163C358.481 213.163 358.016 213.282 357.586 213.52C357.166 213.758 356.832 214.115 356.583 214.591C356.333 215.056 356.209 215.628 356.209 216.308C356.209 217.317 356.464 218.099 356.974 218.654C357.495 219.198 358.147 219.47 358.929 219.47ZM370.433 211.48C371.169 211.48 371.827 211.633 372.405 211.939C372.994 212.245 373.453 212.699 373.782 213.299C374.11 213.9 374.275 214.625 374.275 215.475V221H372.354V215.764C372.354 214.926 372.144 214.285 371.725 213.843C371.305 213.39 370.733 213.163 370.008 213.163C369.282 213.163 368.704 213.39 368.274 213.843C367.854 214.285 367.645 214.926 367.645 215.764V221H365.707V211.633H367.645V212.704C367.962 212.319 368.364 212.019 368.852 211.803C369.35 211.588 369.877 211.48 370.433 211.48ZM381.592 211.48C382.306 211.48 382.94 211.633 383.496 211.939C384.062 212.245 384.504 212.699 384.822 213.299C385.15 213.9 385.315 214.625 385.315 215.475V221H383.394V215.764C383.394 214.926 383.184 214.285 382.765 213.843C382.345 213.39 381.773 213.163 381.048 213.163C380.322 213.163 379.744 213.39 379.314 213.843C378.894 214.285 378.685 214.926 378.685 215.764V221H376.747V208.42H378.685V212.721C379.013 212.325 379.427 212.019 379.926 211.803C380.436 211.588 380.991 211.48 381.592 211.48ZM391.85 221.153C390.966 221.153 390.167 220.955 389.453 220.558C388.739 220.15 388.178 219.584 387.77 218.858C387.362 218.122 387.158 217.272 387.158 216.308C387.158 215.356 387.367 214.512 387.787 213.775C388.206 213.039 388.778 212.472 389.504 212.075C390.229 211.679 391.039 211.48 391.935 211.48C392.83 211.48 393.64 211.679 394.366 212.075C395.091 212.472 395.663 213.039 396.083 213.775C396.502 214.512 396.712 215.356 396.712 216.308C396.712 217.26 396.496 218.105 396.066 218.841C395.635 219.578 395.046 220.15 394.298 220.558C393.561 220.955 392.745 221.153 391.85 221.153ZM391.85 219.47C392.348 219.47 392.813 219.351 393.244 219.113C393.686 218.875 394.043 218.518 394.315 218.042C394.587 217.566 394.723 216.988 394.723 216.308C394.723 215.628 394.592 215.056 394.332 214.591C394.071 214.115 393.725 213.758 393.295 213.52C392.864 213.282 392.399 213.163 391.901 213.163C391.402 213.163 390.937 213.282 390.507 213.52C390.087 213.758 389.753 214.115 389.504 214.591C389.254 215.056 389.13 215.628 389.13 216.308C389.13 217.317 389.385 218.099 389.895 218.654C390.416 219.198 391.068 219.47 391.85 219.47ZM402.028 221.153C401.291 221.153 400.628 221.023 400.039 220.762C399.461 220.49 399.002 220.128 398.662 219.674C398.322 219.21 398.14 218.694 398.118 218.127H400.124C400.158 218.524 400.345 218.858 400.685 219.13C401.036 219.391 401.472 219.521 401.994 219.521C402.538 219.521 402.957 219.419 403.252 219.215C403.558 219 403.711 218.728 403.711 218.399C403.711 218.048 403.541 217.787 403.201 217.617C402.872 217.447 402.345 217.26 401.62 217.056C400.917 216.864 400.345 216.677 399.903 216.495C399.461 216.314 399.075 216.036 398.747 215.662C398.429 215.288 398.271 214.795 398.271 214.183C398.271 213.685 398.418 213.231 398.713 212.823C399.007 212.404 399.427 212.075 399.971 211.837C400.526 211.599 401.161 211.48 401.875 211.48C402.94 211.48 403.796 211.752 404.442 212.296C405.099 212.829 405.45 213.56 405.496 214.489H403.558C403.524 214.07 403.354 213.736 403.048 213.486C402.742 213.237 402.328 213.112 401.807 213.112C401.297 213.112 400.906 213.209 400.634 213.401C400.362 213.594 400.226 213.849 400.226 214.166C400.226 214.416 400.316 214.625 400.498 214.795C400.679 214.965 400.9 215.101 401.161 215.203C401.421 215.294 401.807 215.413 402.317 215.56C402.997 215.742 403.552 215.929 403.983 216.121C404.425 216.303 404.804 216.575 405.122 216.937C405.439 217.3 405.603 217.782 405.615 218.382C405.615 218.915 405.467 219.391 405.173 219.81C404.878 220.23 404.459 220.558 403.915 220.796C403.382 221.034 402.753 221.153 402.028 221.153ZM410.14 209.185L409.919 217.43H408.304L408.083 209.185H410.14ZM409.171 221.119C408.819 221.119 408.525 221 408.287 220.762C408.049 220.524 407.93 220.23 407.93 219.878C407.93 219.527 408.049 219.232 408.287 218.994C408.525 218.756 408.819 218.637 409.171 218.637C409.511 218.637 409.8 218.756 410.038 218.994C410.276 219.232 410.395 219.527 410.395 219.878C410.395 220.23 410.276 220.524 410.038 220.762C409.8 221 409.511 221.119 409.171 221.119Z" fill="#945A01"/>
<path fill-rule="evenodd" clip-rule="evenodd" d="M30.0488 190.907C51.3325 208.833 50.2102 207.786 50.4898 209.976C50.7482 212 50.743 212.01 43.4976 222.715C39.93 227.986 37.0505 232.331 37.0987 232.37C37.1468 232.408 40.4705 228.421 44.4845 223.509C52.6364 213.533 52.6455 213.524 54.5947 213.275C56.7047 213.006 55.4473 212.14 77.4967 229.038C88.4163 237.406 97.3836 244.248 97.4242 244.243C97.4646 244.238 97.4933 244.199 97.4879 244.157C97.4825 244.114 88.8543 236.817 78.3141 227.939C57.0316 210.014 58.1524 211.06 57.873 208.871C57.6147 206.848 57.6209 206.837 64.864 196.13C68.4306 190.859 71.3093 186.514 71.2613 186.475C71.2131 186.436 67.89 190.424 63.8769 195.337C55.7262 205.315 55.7187 205.323 53.768 205.572C51.6586 205.841 52.915 206.706 30.8662 189.809C19.9467 181.441 10.9794 174.598 10.9387 174.604C10.8981 174.609 10.8694 174.647 10.8747 174.689C10.8801 174.731 19.5085 182.029 30.0488 190.907Z" fill="#FEC701"/>
<path fill-rule="evenodd" clip-rule="evenodd" d="M219.635 139.796C219.249 138.735 217.751 138.735 217.365 139.796L215.612 144.613L210.795 146.365C209.735 146.751 209.735 148.25 210.795 148.636L215.612 150.388L217.365 155.205C217.751 156.266 219.249 156.266 219.635 155.205L221.388 150.388L226.205 148.636C227.265 148.25 227.265 146.751 226.205 146.365L221.388 144.613L219.635 139.796Z" fill="#945A01"/>
<defs>
<clipPath id="clip0_1105_1076">
<rect width="69.3521" height="71.4651" fill="white" transform="translate(61.4375 77.7925) rotate(-9.09)"/>
</clipPath>
</defs>
</svg>
