<svg width="756" height="294" viewBox="0 0 756 294" fill="none" xmlns="http://www.w3.org/2000/svg">
<rect x="34" y="66.0005" width="710" height="184" rx="30" fill="#FFF092"/>
<path d="M66.4939 59.0053C65.6214 53.5518 69.335 48.4235 74.7885 47.551L175.974 31.3617C181.428 30.4892 186.556 34.2028 187.429 39.6563L204.745 147.886C206.926 161.52 197.642 174.341 184.009 176.522L112.446 187.972C98.8122 190.153 85.9915 180.869 83.8102 167.235L66.4939 59.0053Z" fill="#FFC100"/>
<path d="M66.4939 59.0053C65.6214 53.5518 69.335 48.4235 74.7885 47.551L175.974 31.3617C181.428 30.4892 186.556 34.2028 187.429 39.6563L198.923 111.496C203.547 140.399 183.865 167.579 154.962 172.203L138.696 174.806C109.792 179.43 82.6123 159.748 77.9879 130.845L66.4939 59.0053Z" fill="#46C4FF"/>
<path d="M66.4939 59.0053C65.6214 53.5518 69.335 48.4235 74.7885 47.551L175.974 31.3617C181.428 30.4892 186.556 34.2028 187.429 39.6563L203.504 140.132C205.598 153.22 196.686 165.528 183.597 167.622L110.06 179.387C96.9713 181.482 84.6635 172.569 82.5695 159.481L66.4939 59.0053Z" fill="#FEE333"/>
<path d="M87.8015 61.4254C87.7143 60.8801 88.0856 60.3673 88.631 60.28L168.251 47.5412C168.796 47.454 169.309 47.8254 169.396 48.3707L179.029 108.579C182.634 131.111 167.291 152.299 144.759 155.904C122.228 159.509 101.04 144.166 97.4346 121.634L87.8015 61.4254Z" fill="#FEC701"/>
<g clip-path="url(#clip0_1105_1076)">
<path d="M130.521 75.8575C130.475 76.7351 130.167 77.5302 129.925 77.5689C129.683 77.6077 129.21 78.9264 128.786 80.5482C128.422 82.1602 127.949 83.4789 127.707 83.5177C127.465 83.5565 127.011 84.9964 126.677 86.7902C126.332 88.5235 125.889 90.024 125.707 90.0531C125.465 90.0919 124.982 91.35 124.539 92.8505C124.165 94.4019 123.642 95.7909 123.489 96.0018C123.276 96.2224 122.822 97.6624 122.459 99.2744C122.095 100.886 121.642 102.326 121.489 102.537C120.524 103.5 119.773 107.349 120.131 109.591L120.519 112.016L127.489 110.9C134.397 109.795 134.458 109.785 134.429 111.157C134.373 111.974 134.502 115.497 134.7 119.07C134.899 122.643 134.836 126.134 134.64 126.849C134.392 127.634 134.531 129.663 134.943 131.462L135.658 134.766L138.232 134.54C140.564 134.354 140.848 134.184 140.988 132.732C141.034 131.855 141.342 131.059 141.585 131.021C141.827 130.982 142.36 129.653 142.785 128.032C143.148 126.42 143.621 125.101 143.803 125.072C144.045 125.033 144.499 123.593 144.833 121.799C145.177 120.066 145.621 118.566 145.803 118.536C146.045 118.498 146.528 117.24 146.961 115.678C147.345 114.188 147.808 112.808 148.021 112.588C148.174 112.377 148.748 110.918 149.233 109.286C149.718 107.655 150.52 105.289 150.942 104.04C151.424 102.782 151.63 100.574 151.398 99.1194L150.99 96.5741L144.021 97.6891C137.112 98.7945 137.052 98.8042 137.071 97.3715C137.137 96.6152 137.008 93.093 136.809 89.5198C136.611 85.9467 136.674 82.456 136.87 81.7409C137.117 80.9555 136.979 78.9265 136.567 77.1278L135.852 73.8237L133.278 74.0491C130.946 74.2358 130.662 74.4055 130.521 75.8575Z" fill="#F89701"/>
<path d="M106.721 83.2705C105.449 85.028 106.544 87.2145 109.798 89.6774C112.559 91.784 113.283 92.041 115.405 91.7016C117.465 91.3719 117.8 91.1319 117.666 89.9102C117.402 87.0934 116.842 86.3128 113.698 84.1432C110.413 81.8718 107.943 81.5833 106.721 83.2705Z" fill="#F89701"/>
<path d="M150.372 78.3373C148.011 81.4499 147.764 82.2353 148.392 84.9939C148.707 86.1866 149.1 86.3102 151.16 85.9805C153.281 85.6412 153.89 85.1709 155.856 82.308C158.178 78.9531 158.537 76.5338 156.779 75.2611C155.022 73.9885 152.835 75.0842 150.372 78.3373Z" fill="#F89701"/>
<path d="M115.685 126.09C113.198 129.968 112.866 131.389 114.279 132.841C116.134 134.72 118.42 133.857 121.198 130.242C123.346 127.35 123.561 126.756 123.06 124.786C122.529 122.633 122.398 122.592 120.076 122.839C117.874 123.067 117.428 123.387 115.685 126.09Z" fill="#F89701"/>
<path d="M154.174 117.632C153.96 117.853 153.953 118.973 154.137 120.124C154.399 121.76 155.09 122.582 157.742 124.395C161.097 126.718 163.516 127.077 164.789 125.319C166.061 123.562 164.966 121.375 161.712 118.912C159.162 116.958 158.166 116.558 156.53 116.82C155.378 117.004 154.317 117.361 154.174 117.632Z" fill="#F89701"/>
</g>
<path d="M156.281 34.1667L177.011 30.8501L179.389 30.4696L181.483 30.4832L182.951 30.9454L184.133 31.8017L185.316 32.6581L186.267 34.2484L190.671 61.774L145.359 121.65L100.047 181.527L96.554 179.297L93.3461 176.674L90.4237 173.656L87.7867 170.245L85.4352 166.439L83.7633 162.524L82.3767 158.215L81.6419 153.622L78.8971 136.466L156.281 34.1667Z" fill="white" fill-opacity="0.29"/>
<path d="M655.962 204.795C654.958 204.371 654.123 203.625 653.59 202.675C653.057 201.724 652.856 200.623 653.018 199.546L661.947 141.407H638.25C637.499 141.427 636.753 141.274 636.07 140.96C635.387 140.647 634.785 140.18 634.311 139.597C633.837 139.014 633.503 138.33 633.336 137.597C633.168 136.865 633.171 136.103 633.344 135.372L648.063 71.5906C648.322 70.4929 648.951 69.518 649.844 68.8299C650.738 68.1418 651.841 67.7826 652.969 67.8128H702.031C702.764 67.8103 703.489 67.9721 704.151 68.2862C704.813 68.6003 705.396 69.0589 705.858 69.6281C706.327 70.2038 706.658 70.8781 706.828 71.6005C706.998 72.3228 707.002 73.0743 706.839 73.7984L698.352 111.969H721.656C722.576 111.967 723.477 112.224 724.258 112.71C725.039 113.195 725.667 113.891 726.072 114.717C726.424 115.509 726.559 116.381 726.464 117.242C726.369 118.104 726.048 118.926 725.532 119.623L661.751 203.029C661.32 203.668 660.744 204.196 660.071 204.572C659.398 204.947 658.645 205.158 657.875 205.188C657.219 205.174 656.57 205.041 655.962 204.795Z" fill="#FEC701"/>
<path d="M251.72 110.12V116H246.17V97.1905H253.22C256.24 97.1905 258.37 97.7005 259.61 98.7205C260.87 99.7205 261.5 101.41 261.5 103.79C261.5 105.21 261.22 106.38 260.66 107.3C260.12 108.22 259.29 108.91 258.17 109.37L262.28 116H255.92L252.77 110.12H251.72ZM255.83 103.88C255.83 103.26 255.66 102.82 255.32 102.56C254.98 102.3 254.37 102.17 253.49 102.17H251.72V105.86H253.49C254.37 105.86 254.98 105.71 255.32 105.41C255.66 105.11 255.83 104.6 255.83 103.88ZM266.581 116.33C265.141 116.33 264.091 115.95 263.431 115.19C262.771 114.43 262.441 113.24 262.441 111.62C262.441 110.02 262.851 108.88 263.671 108.2C264.511 107.52 265.901 107.18 267.841 107.18C268.301 107.18 268.761 107.2 269.221 107.24C269.701 107.28 270.121 107.33 270.481 107.39V106.64C270.481 106.24 270.291 105.96 269.911 105.8C269.531 105.62 268.911 105.53 268.051 105.53C267.231 105.53 266.481 105.55 265.801 105.59C265.141 105.63 264.471 105.71 263.791 105.83V101.42C264.531 101.24 265.421 101.11 266.461 101.03C267.521 100.93 268.731 100.88 270.091 100.88C271.971 100.88 273.401 101.3 274.381 102.14C275.381 102.96 275.881 104.17 275.881 105.77V116H270.781L270.631 114.83H270.541C269.941 115.33 269.301 115.71 268.621 115.97C267.961 116.21 267.281 116.33 266.581 116.33ZM268.711 110.24C268.191 110.24 267.821 110.32 267.601 110.48C267.401 110.62 267.301 110.89 267.301 111.29C267.301 111.69 267.381 111.97 267.541 112.13C267.721 112.27 268.021 112.34 268.441 112.34C268.781 112.34 269.131 112.31 269.491 112.25C269.871 112.17 270.201 112.07 270.481 111.95V110.36C270.201 110.32 269.911 110.29 269.611 110.27C269.331 110.25 269.031 110.24 268.711 110.24ZM283.296 99.9505H277.746V96.0505H283.296V99.9505ZM283.236 116H277.836V101.18H283.236V116ZM299.829 108.59C299.829 111.37 299.249 113.36 298.089 114.56C296.929 115.74 294.999 116.33 292.299 116.33C289.639 116.33 287.719 115.73 286.539 114.53C285.379 113.31 284.799 111.33 284.799 108.59C284.799 105.83 285.369 103.86 286.509 102.68C287.669 101.48 289.599 100.88 292.299 100.88C294.979 100.88 296.899 101.48 298.059 102.68C299.239 103.88 299.829 105.85 299.829 108.59ZM290.199 108.53C290.199 109.69 290.329 110.45 290.589 110.81C290.849 111.15 291.419 111.32 292.299 111.32C293.199 111.32 293.779 111.15 294.039 110.81C294.299 110.45 294.429 109.69 294.429 108.53C294.429 107.37 294.299 106.62 294.039 106.28C293.779 105.92 293.199 105.74 292.299 105.74C291.419 105.74 290.849 105.92 290.589 106.28C290.329 106.62 290.199 107.37 290.199 108.53ZM314.431 96.0505H319.831V116H315.031L314.761 114.62H314.611C314.091 115.2 313.481 115.63 312.781 115.91C312.081 116.19 311.291 116.33 310.411 116.33C308.511 116.33 307.151 115.74 306.331 114.56C305.511 113.36 305.101 111.37 305.101 108.59C305.101 105.91 305.611 103.96 306.631 102.74C307.671 101.5 309.321 100.88 311.581 100.88C312.101 100.88 312.601 100.91 313.081 100.97C313.561 101.03 314.011 101.12 314.431 101.24V96.0505ZM312.601 105.74C311.721 105.74 311.151 105.93 310.891 106.31C310.631 106.69 310.501 107.45 310.501 108.59C310.501 109.69 310.621 110.42 310.861 110.78C311.101 111.14 311.621 111.32 312.421 111.32C312.801 111.32 313.151 111.29 313.471 111.23C313.811 111.15 314.131 111.04 314.431 110.9V105.98C314.211 105.9 313.941 105.84 313.621 105.8C313.321 105.76 312.981 105.74 312.601 105.74ZM325.38 116.33C323.94 116.33 322.89 115.95 322.23 115.19C321.57 114.43 321.24 113.24 321.24 111.62C321.24 110.02 321.65 108.88 322.47 108.2C323.31 107.52 324.7 107.18 326.64 107.18C327.1 107.18 327.56 107.2 328.02 107.24C328.5 107.28 328.92 107.33 329.28 107.39V106.64C329.28 106.24 329.09 105.96 328.71 105.8C328.33 105.62 327.71 105.53 326.85 105.53C326.03 105.53 325.28 105.55 324.6 105.59C323.94 105.63 323.27 105.71 322.59 105.83V101.42C323.33 101.24 324.22 101.11 325.26 101.03C326.32 100.93 327.53 100.88 328.89 100.88C330.77 100.88 332.2 101.3 333.18 102.14C334.18 102.96 334.68 104.17 334.68 105.77V116H329.58L329.43 114.83H329.34C328.74 115.33 328.1 115.71 327.42 115.97C326.76 116.21 326.08 116.33 325.38 116.33ZM327.51 110.24C326.99 110.24 326.62 110.32 326.4 110.48C326.2 110.62 326.1 110.89 326.1 111.29C326.1 111.69 326.18 111.97 326.34 112.13C326.52 112.27 326.82 112.34 327.24 112.34C327.58 112.34 327.93 112.31 328.29 112.25C328.67 112.17 329 112.07 329.28 111.95V110.36C329 110.32 328.71 110.29 328.41 110.27C328.13 110.25 327.83 110.24 327.51 110.24ZM354.056 110.99V116H340.916V97.1905H353.786V102.08H346.466V104.21H352.676V108.77H346.466V110.99H354.056ZM361.95 105.05C361.25 105.05 360.78 105.1 360.54 105.2C360.3 105.3 360.18 105.5 360.18 105.8C360.18 105.96 360.22 106.08 360.3 106.16C360.4 106.24 360.54 106.29 360.72 106.31L363.9 106.7C365.22 106.86 366.12 107.25 366.6 107.87C367.1 108.49 367.35 109.5 367.35 110.9C367.35 112.78 366.88 114.16 365.94 115.04C365.02 115.9 363.47 116.33 361.29 116.33C360.11 116.33 359.02 116.27 358.02 116.15C357.04 116.05 356.23 115.91 355.59 115.73V111.41C356.39 111.59 357.24 111.73 358.14 111.83C359.04 111.93 359.89 111.98 360.69 111.98C361.37 111.98 361.82 111.92 362.04 111.8C362.28 111.68 362.4 111.45 362.4 111.11C362.4 110.99 362.36 110.89 362.28 110.81C362.2 110.71 362.08 110.65 361.92 110.63L358.41 110.21C357.25 110.05 356.41 109.64 355.89 108.98C355.39 108.32 355.14 107.33 355.14 106.01C355.14 104.29 355.68 103.01 356.76 102.17C357.86 101.31 359.49 100.88 361.65 100.88C362.63 100.88 363.52 100.91 364.32 100.97C365.12 101.01 365.82 101.08 366.42 101.18V105.38C365.74 105.28 365 105.2 364.2 105.14C363.4 105.08 362.65 105.05 361.95 105.05ZM374.291 120.56H368.891V101.18H373.631L373.901 102.59H374.081C374.581 102.01 375.181 101.58 375.881 101.3C376.581 101.02 377.381 100.88 378.281 100.88C380.201 100.88 381.561 101.47 382.361 102.65C383.181 103.81 383.591 105.79 383.591 108.59C383.591 111.27 383.071 113.23 382.031 114.47C381.011 115.69 379.371 116.3 377.111 116.3C376.591 116.3 376.091 116.27 375.611 116.21C375.131 116.15 374.691 116.06 374.291 115.94V120.56ZM378.191 108.59C378.191 107.45 378.071 106.69 377.831 106.31C377.591 105.93 377.071 105.74 376.271 105.74C375.911 105.74 375.561 105.78 375.221 105.86C374.901 105.92 374.591 106.02 374.291 106.16V111.08C374.511 111.16 374.771 111.22 375.071 111.26C375.371 111.3 375.721 111.32 376.121 111.32C377.001 111.32 377.561 111.15 377.801 110.81C378.061 110.45 378.191 109.71 378.191 108.59ZM397.839 111.17V115.28C397.279 115.56 396.409 115.8 395.229 116C394.069 116.22 392.859 116.33 391.599 116.33C389.179 116.33 387.429 115.73 386.349 114.53C385.289 113.31 384.759 111.34 384.759 108.62C384.759 105.96 385.329 104.01 386.469 102.77C387.629 101.51 389.429 100.88 391.869 100.88C394.229 100.88 395.919 101.35 396.939 102.29C397.959 103.21 398.469 104.79 398.469 107.03C398.469 107.71 398.459 108.26 398.439 108.68C398.419 109.08 398.379 109.54 398.319 110.06H390.099C390.119 110.7 390.299 111.14 390.639 111.38C390.979 111.6 391.589 111.71 392.469 111.71C393.429 111.71 394.409 111.66 395.409 111.56C396.429 111.44 397.239 111.31 397.839 111.17ZM391.929 105.14C391.249 105.14 390.769 105.28 390.489 105.56C390.229 105.82 390.099 106.35 390.099 107.15H393.669V106.46C393.629 105.94 393.489 105.59 393.249 105.41C393.029 105.23 392.589 105.14 391.929 105.14ZM405.492 116H400.092V101.18H405.132L405.312 102.32H405.372C405.992 101.86 406.602 101.51 407.202 101.27C407.822 101.03 408.422 100.91 409.002 100.91H409.512V106.13C409.052 106.09 408.742 106.07 408.582 106.07C408.442 106.05 408.292 106.04 408.132 106.04C407.632 106.04 407.162 106.07 406.722 106.13C406.282 106.19 405.872 106.28 405.492 106.4V116ZM413.739 116.33C412.299 116.33 411.249 115.95 410.589 115.19C409.929 114.43 409.599 113.24 409.599 111.62C409.599 110.02 410.009 108.88 410.829 108.2C411.669 107.52 413.059 107.18 414.999 107.18C415.459 107.18 415.919 107.2 416.379 107.24C416.859 107.28 417.279 107.33 417.639 107.39V106.64C417.639 106.24 417.449 105.96 417.069 105.8C416.689 105.62 416.069 105.53 415.209 105.53C414.389 105.53 413.639 105.55 412.959 105.59C412.299 105.63 411.629 105.71 410.949 105.83V101.42C411.689 101.24 412.579 101.11 413.619 101.03C414.679 100.93 415.889 100.88 417.249 100.88C419.129 100.88 420.559 101.3 421.539 102.14C422.539 102.96 423.039 104.17 423.039 105.77V116H417.939L417.789 114.83H417.699C417.099 115.33 416.459 115.71 415.779 115.97C415.119 116.21 414.439 116.33 413.739 116.33ZM415.869 110.24C415.349 110.24 414.979 110.32 414.759 110.48C414.559 110.62 414.459 110.89 414.459 111.29C414.459 111.69 414.539 111.97 414.699 112.13C414.879 112.27 415.179 112.34 415.599 112.34C415.939 112.34 416.289 112.31 416.649 112.25C417.029 112.17 417.359 112.07 417.639 111.95V110.36C417.359 110.32 417.069 110.29 416.769 110.27C416.489 110.25 416.189 110.24 415.869 110.24ZM430.395 116H424.995V101.18H429.645L429.855 102.74H429.975C430.575 102.1 431.235 101.63 431.955 101.33C432.675 101.03 433.525 100.88 434.505 100.88C436.065 100.88 437.245 101.29 438.045 102.11C438.845 102.93 439.245 104.14 439.245 105.74V116H433.845V106.85C433.845 106.49 433.715 106.22 433.455 106.04C433.215 105.84 432.845 105.74 432.345 105.74C432.005 105.74 431.675 105.78 431.355 105.86C431.035 105.92 430.715 106.02 430.395 106.16V116ZM451.455 119.27C451.455 120.13 451.155 120.77 450.555 121.19C449.955 121.63 449.055 121.85 447.855 121.85C447.275 121.85 446.665 121.81 446.025 121.73C445.405 121.67 445.005 121.6 444.825 121.52V119.36C445.065 119.42 445.415 119.48 445.875 119.54C446.335 119.6 446.735 119.63 447.075 119.63C447.415 119.63 447.655 119.58 447.795 119.48C447.935 119.4 448.005 119.24 448.005 119C448.005 118.8 447.905 118.65 447.705 118.55C447.525 118.45 447.225 118.4 446.805 118.4C446.625 118.4 446.375 118.41 446.055 118.43C445.755 118.45 445.515 118.46 445.335 118.46L445.785 116.3C443.965 116.16 442.675 115.51 441.915 114.35C441.175 113.19 440.805 111.27 440.805 108.59C440.805 105.71 441.365 103.71 442.485 102.59C443.625 101.45 445.625 100.88 448.485 100.88C449.085 100.88 449.635 100.9 450.135 100.94C450.635 100.96 451.305 101.02 452.145 101.12V105.86C452.125 105.86 451.725 105.84 450.945 105.8C450.165 105.76 449.365 105.74 448.545 105.74C447.525 105.74 446.875 105.9 446.595 106.22C446.335 106.54 446.205 107.33 446.205 108.59C446.205 109.73 446.325 110.47 446.565 110.81C446.805 111.13 447.325 111.29 448.125 111.29C448.865 111.29 449.635 111.24 450.435 111.14C451.235 111.04 451.935 110.92 452.535 110.78V115.22C452.235 115.42 451.765 115.61 451.125 115.79C450.505 115.95 449.815 116.08 449.055 116.18L448.875 117.14C449.655 117.14 450.275 117.33 450.735 117.71C451.215 118.09 451.455 118.61 451.455 119.27ZM457.538 116.33C456.098 116.33 455.048 115.95 454.388 115.19C453.728 114.43 453.398 113.24 453.398 111.62C453.398 110.02 453.808 108.88 454.628 108.2C455.468 107.52 456.858 107.18 458.798 107.18C459.258 107.18 459.718 107.2 460.178 107.24C460.658 107.28 461.078 107.33 461.438 107.39V106.64C461.438 106.24 461.248 105.96 460.868 105.8C460.488 105.62 459.868 105.53 459.008 105.53C458.188 105.53 457.438 105.55 456.758 105.59C456.098 105.63 455.428 105.71 454.748 105.83V101.42C455.488 101.24 456.378 101.11 457.418 101.03C458.478 100.93 459.688 100.88 461.048 100.88C462.928 100.88 464.358 101.3 465.338 102.14C466.338 102.96 466.838 104.17 466.838 105.77V116H461.738L461.588 114.83H461.498C460.898 115.33 460.258 115.71 459.578 115.97C458.918 116.21 458.238 116.33 457.538 116.33ZM459.668 110.24C459.148 110.24 458.778 110.32 458.558 110.48C458.358 110.62 458.258 110.89 458.258 111.29C458.258 111.69 458.338 111.97 458.498 112.13C458.678 112.27 458.978 112.34 459.398 112.34C459.738 112.34 460.088 112.31 460.448 112.25C460.828 112.17 461.158 112.07 461.438 111.95V110.36C461.158 110.32 460.868 110.29 460.568 110.27C460.288 110.25 459.988 110.24 459.668 110.24Z" fill="#945A01"/>
<path d="M275.55 137.172C276.586 137.172 277.491 137.378 278.266 137.788C279.041 138.199 279.638 138.778 280.058 139.524C280.487 140.262 280.702 141.116 280.702 142.086C280.702 143.048 280.487 143.902 280.058 144.648C279.638 145.395 279.036 145.974 278.252 146.384C277.477 146.795 276.577 147 275.55 147H271.868V137.172H275.55ZM275.396 144.928C276.301 144.928 277.006 144.681 277.51 144.186C278.014 143.692 278.266 142.992 278.266 142.086C278.266 141.181 278.014 140.476 277.51 139.972C277.006 139.468 276.301 139.216 275.396 139.216H274.262V144.928H275.396ZM286.688 147.098C285.764 147.098 284.915 146.884 284.14 146.454C283.375 146.025 282.763 145.428 282.306 144.662C281.858 143.888 281.634 143.02 281.634 142.058C281.634 141.097 281.858 140.234 282.306 139.468C282.763 138.703 283.375 138.106 284.14 137.676C284.915 137.247 285.764 137.032 286.688 137.032C287.612 137.032 288.457 137.247 289.222 137.676C289.997 138.106 290.603 138.703 291.042 139.468C291.49 140.234 291.714 141.097 291.714 142.058C291.714 143.02 291.49 143.888 291.042 144.662C290.594 145.428 289.987 146.025 289.222 146.454C288.457 146.884 287.612 147.098 286.688 147.098ZM286.688 144.914C287.472 144.914 288.097 144.653 288.564 144.13C289.04 143.608 289.278 142.917 289.278 142.058C289.278 141.19 289.04 140.5 288.564 139.986C288.097 139.464 287.472 139.202 286.688 139.202C285.895 139.202 285.26 139.459 284.784 139.972C284.317 140.486 284.084 141.181 284.084 142.058C284.084 142.926 284.317 143.622 284.784 144.144C285.26 144.658 285.895 144.914 286.688 144.914ZM295.44 139.09V141.078H298.646V142.926H295.44V145.082H299.066V147H293.046V137.172H299.066V139.09H295.44ZM303.433 139.664C303.47 138.666 303.797 137.896 304.413 137.354C305.029 136.813 305.864 136.542 306.919 136.542C307.619 136.542 308.216 136.664 308.711 136.906C309.215 137.149 309.593 137.48 309.845 137.9C310.106 138.32 310.237 138.792 310.237 139.314C310.237 139.93 310.083 140.434 309.775 140.826C309.467 141.209 309.107 141.47 308.697 141.61V141.666C309.229 141.844 309.649 142.138 309.957 142.548C310.265 142.959 310.419 143.486 310.419 144.13C310.419 144.709 310.283 145.222 310.013 145.67C309.751 146.109 309.364 146.454 308.851 146.706C308.347 146.958 307.745 147.084 307.045 147.084C305.925 147.084 305.029 146.809 304.357 146.258C303.694 145.708 303.344 144.877 303.307 143.766H305.631C305.64 144.177 305.757 144.504 305.981 144.746C306.205 144.98 306.531 145.096 306.961 145.096C307.325 145.096 307.605 144.994 307.801 144.788C308.006 144.574 308.109 144.294 308.109 143.948C308.109 143.5 307.964 143.178 307.675 142.982C307.395 142.777 306.942 142.674 306.317 142.674H305.869V140.728H306.317C306.793 140.728 307.175 140.649 307.465 140.49C307.763 140.322 307.913 140.028 307.913 139.608C307.913 139.272 307.819 139.011 307.633 138.824C307.446 138.638 307.189 138.544 306.863 138.544C306.508 138.544 306.242 138.652 306.065 138.866C305.897 139.081 305.799 139.347 305.771 139.664H303.433ZM324.256 137.172L320.77 147H317.774L314.288 137.172H316.836L319.272 144.592L321.722 137.172H324.256ZM327.651 139.09V141.078H330.857V142.926H327.651V145.082H331.277V147H325.257V137.172H331.277V139.09H327.651ZM335.379 145.04H339.607V147H332.663V145.18L336.863 139.132H332.663V137.172H339.607V138.992L335.379 145.04ZM343.565 139.09V141.078H346.771V142.926H343.565V145.082H347.191V147H341.171V137.172H347.191V139.09H343.565ZM352.301 147.098C351.582 147.098 350.938 146.982 350.369 146.748C349.8 146.515 349.342 146.17 348.997 145.712C348.661 145.255 348.484 144.704 348.465 144.06H351.013C351.05 144.424 351.176 144.704 351.391 144.9C351.606 145.087 351.886 145.18 352.231 145.18C352.586 145.18 352.866 145.101 353.071 144.942C353.276 144.774 353.379 144.546 353.379 144.256C353.379 144.014 353.295 143.813 353.127 143.654C352.968 143.496 352.768 143.365 352.525 143.262C352.292 143.16 351.956 143.043 351.517 142.912C350.882 142.716 350.364 142.52 349.963 142.324C349.562 142.128 349.216 141.839 348.927 141.456C348.638 141.074 348.493 140.574 348.493 139.958C348.493 139.044 348.824 138.33 349.487 137.816C350.15 137.294 351.013 137.032 352.077 137.032C353.16 137.032 354.032 137.294 354.695 137.816C355.358 138.33 355.712 139.048 355.759 139.972H353.169C353.15 139.655 353.034 139.408 352.819 139.23C352.604 139.044 352.329 138.95 351.993 138.95C351.704 138.95 351.47 139.03 351.293 139.188C351.116 139.338 351.027 139.557 351.027 139.846C351.027 140.164 351.176 140.411 351.475 140.588C351.774 140.766 352.24 140.957 352.875 141.162C353.51 141.377 354.023 141.582 354.415 141.778C354.816 141.974 355.162 142.259 355.451 142.632C355.74 143.006 355.885 143.486 355.885 144.074C355.885 144.634 355.74 145.143 355.451 145.6C355.171 146.058 354.76 146.422 354.219 146.692C353.678 146.963 353.038 147.098 352.301 147.098Z" fill="#945A01"/>
<path d="M258.719 177.185V189H256.781V180.908L253.177 189H251.834L248.213 180.908V189H246.275V177.185H248.366L252.514 186.45L256.645 177.185H258.719ZM269.851 184.087C269.851 184.439 269.829 184.756 269.783 185.039H262.626C262.683 185.787 262.961 186.388 263.459 186.841C263.958 187.295 264.57 187.521 265.295 187.521C266.338 187.521 267.075 187.085 267.505 186.212H269.596C269.313 187.074 268.797 187.782 268.049 188.337C267.313 188.881 266.395 189.153 265.295 189.153C264.4 189.153 263.595 188.955 262.881 188.558C262.179 188.15 261.623 187.584 261.215 186.858C260.819 186.122 260.62 185.272 260.62 184.308C260.62 183.345 260.813 182.501 261.198 181.775C261.595 181.039 262.145 180.472 262.847 180.075C263.561 179.679 264.377 179.48 265.295 179.48C266.179 179.48 266.967 179.673 267.658 180.058C268.35 180.444 268.888 180.988 269.273 181.69C269.659 182.382 269.851 183.181 269.851 184.087ZM267.828 183.475C267.817 182.761 267.562 182.189 267.063 181.758C266.565 181.328 265.947 181.112 265.21 181.112C264.542 181.112 263.969 181.328 263.493 181.758C263.017 182.178 262.734 182.75 262.643 183.475H267.828ZM275.158 189.153C274.422 189.153 273.759 189.023 273.169 188.762C272.591 188.49 272.132 188.128 271.792 187.674C271.452 187.21 271.271 186.694 271.248 186.127H273.254C273.288 186.524 273.475 186.858 273.815 187.13C274.167 187.391 274.603 187.521 275.124 187.521C275.668 187.521 276.088 187.419 276.382 187.215C276.688 187 276.841 186.728 276.841 186.399C276.841 186.048 276.671 185.787 276.331 185.617C276.003 185.447 275.476 185.26 274.75 185.056C274.048 184.864 273.475 184.677 273.033 184.495C272.591 184.314 272.206 184.036 271.877 183.662C271.56 183.288 271.401 182.795 271.401 182.183C271.401 181.685 271.549 181.231 271.843 180.823C272.138 180.404 272.557 180.075 273.101 179.837C273.657 179.599 274.291 179.48 275.005 179.48C276.071 179.48 276.926 179.752 277.572 180.296C278.23 180.829 278.581 181.56 278.626 182.489H276.688C276.654 182.07 276.484 181.736 276.178 181.486C275.872 181.237 275.459 181.112 274.937 181.112C274.427 181.112 274.036 181.209 273.764 181.401C273.492 181.594 273.356 181.849 273.356 182.166C273.356 182.416 273.447 182.625 273.628 182.795C273.81 182.965 274.031 183.101 274.291 183.203C274.552 183.294 274.937 183.413 275.447 183.56C276.127 183.742 276.683 183.929 277.113 184.121C277.555 184.303 277.935 184.575 278.252 184.937C278.57 185.3 278.734 185.782 278.745 186.382C278.745 186.915 278.598 187.391 278.303 187.81C278.009 188.23 277.589 188.558 277.045 188.796C276.513 189.034 275.884 189.153 275.158 189.153ZM292.178 179.48C292.915 179.48 293.572 179.633 294.15 179.939C294.74 180.245 295.199 180.699 295.527 181.299C295.867 181.9 296.037 182.625 296.037 183.475V189H294.116V183.764C294.116 182.926 293.907 182.285 293.487 181.843C293.068 181.39 292.496 181.163 291.77 181.163C291.045 181.163 290.467 181.39 290.036 181.843C289.617 182.285 289.407 182.926 289.407 183.764V189H287.486V183.764C287.486 182.926 287.277 182.285 286.857 181.843C286.438 181.39 285.866 181.163 285.14 181.163C284.415 181.163 283.837 181.39 283.406 181.843C282.987 182.285 282.777 182.926 282.777 183.764V189H280.839V179.633H282.777V180.704C283.095 180.319 283.497 180.019 283.984 179.803C284.472 179.588 284.993 179.48 285.548 179.48C286.296 179.48 286.965 179.639 287.554 179.956C288.144 180.274 288.597 180.733 288.914 181.333C289.198 180.767 289.64 180.319 290.24 179.99C290.841 179.65 291.487 179.48 292.178 179.48ZM302.567 189.153C301.683 189.153 300.884 188.955 300.17 188.558C299.456 188.15 298.895 187.584 298.487 186.858C298.079 186.122 297.875 185.272 297.875 184.308C297.875 183.356 298.084 182.512 298.504 181.775C298.923 181.039 299.495 180.472 300.221 180.075C300.946 179.679 301.756 179.48 302.652 179.48C303.547 179.48 304.357 179.679 305.083 180.075C305.808 180.472 306.38 181.039 306.8 181.775C307.219 182.512 307.429 183.356 307.429 184.308C307.429 185.26 307.213 186.105 306.783 186.841C306.352 187.578 305.763 188.15 305.015 188.558C304.278 188.955 303.462 189.153 302.567 189.153ZM302.567 187.47C303.065 187.47 303.53 187.351 303.961 187.113C304.403 186.875 304.76 186.518 305.032 186.042C305.304 185.566 305.44 184.988 305.44 184.308C305.44 183.628 305.309 183.056 305.049 182.591C304.788 182.115 304.442 181.758 304.012 181.52C303.581 181.282 303.116 181.163 302.618 181.163C302.119 181.163 301.654 181.282 301.224 181.52C300.804 181.758 300.47 182.115 300.221 182.591C299.971 183.056 299.847 183.628 299.847 184.308C299.847 185.317 300.102 186.099 300.612 186.654C301.133 187.198 301.785 187.47 302.567 187.47ZM318.486 179.48C319.223 179.48 319.88 179.633 320.458 179.939C321.048 180.245 321.507 180.699 321.835 181.299C322.164 181.9 322.328 182.625 322.328 183.475V189H320.407V183.764C320.407 182.926 320.198 182.285 319.778 181.843C319.359 181.39 318.787 181.163 318.061 181.163C317.336 181.163 316.758 181.39 316.327 181.843C315.908 182.285 315.698 182.926 315.698 183.764V189H313.76V179.633H315.698V180.704C316.016 180.319 316.418 180.019 316.905 179.803C317.404 179.588 317.931 179.48 318.486 179.48ZM324.154 184.274C324.154 183.334 324.347 182.501 324.732 181.775C325.129 181.05 325.662 180.489 326.33 180.092C327.01 179.684 327.758 179.48 328.574 179.48C329.311 179.48 329.951 179.628 330.495 179.922C331.051 180.206 331.493 180.563 331.821 180.993V179.633H333.776V189H331.821V187.606C331.493 188.048 331.045 188.417 330.478 188.711C329.912 189.006 329.266 189.153 328.54 189.153C327.736 189.153 326.999 188.949 326.33 188.541C325.662 188.122 325.129 187.544 324.732 186.807C324.347 186.059 324.154 185.215 324.154 184.274ZM331.821 184.308C331.821 183.662 331.685 183.101 331.413 182.625C331.153 182.149 330.807 181.787 330.376 181.537C329.946 181.288 329.481 181.163 328.982 181.163C328.484 181.163 328.019 181.288 327.588 181.537C327.158 181.775 326.806 182.132 326.534 182.608C326.274 183.073 326.143 183.628 326.143 184.274C326.143 184.92 326.274 185.487 326.534 185.974C326.806 186.462 327.158 186.836 327.588 187.096C328.03 187.346 328.495 187.47 328.982 187.47C329.481 187.47 329.946 187.346 330.376 187.096C330.807 186.847 331.153 186.484 331.413 186.008C331.685 185.521 331.821 184.954 331.821 184.308ZM339.722 189.153C338.985 189.153 338.322 189.023 337.733 188.762C337.155 188.49 336.696 188.128 336.356 187.674C336.016 187.21 335.835 186.694 335.812 186.127H337.818C337.852 186.524 338.039 186.858 338.379 187.13C338.73 187.391 339.167 187.521 339.688 187.521C340.232 187.521 340.651 187.419 340.946 187.215C341.252 187 341.405 186.728 341.405 186.399C341.405 186.048 341.235 185.787 340.895 185.617C340.566 185.447 340.039 185.26 339.314 185.056C338.611 184.864 338.039 184.677 337.597 184.495C337.155 184.314 336.77 184.036 336.441 183.662C336.124 183.288 335.965 182.795 335.965 182.183C335.965 181.685 336.112 181.231 336.407 180.823C336.702 180.404 337.121 180.075 337.665 179.837C338.22 179.599 338.855 179.48 339.569 179.48C340.634 179.48 341.49 179.752 342.136 180.296C342.793 180.829 343.145 181.56 343.19 182.489H341.252C341.218 182.07 341.048 181.736 340.742 181.486C340.436 181.237 340.022 181.112 339.501 181.112C338.991 181.112 338.6 181.209 338.328 181.401C338.056 181.594 337.92 181.849 337.92 182.166C337.92 182.416 338.011 182.625 338.192 182.795C338.373 182.965 338.594 183.101 338.855 183.203C339.116 183.294 339.501 183.413 340.011 183.56C340.691 183.742 341.246 183.929 341.677 184.121C342.119 184.303 342.499 184.575 342.816 184.937C343.133 185.3 343.298 185.782 343.309 186.382C343.309 186.915 343.162 187.391 342.867 187.81C342.572 188.23 342.153 188.558 341.609 188.796C341.076 189.034 340.447 189.153 339.722 189.153ZM352.08 181.214V186.399C352.08 186.751 352.159 187.006 352.318 187.164C352.488 187.312 352.771 187.385 353.168 187.385H354.358V189H352.828C351.955 189 351.287 188.796 350.822 188.388C350.357 187.98 350.125 187.317 350.125 186.399V181.214H349.02V179.633H350.125V177.304H352.08V179.633H354.358V181.214H352.08ZM364.729 184.087C364.729 184.439 364.706 184.756 364.661 185.039H357.504C357.561 185.787 357.838 186.388 358.337 186.841C358.836 187.295 359.448 187.521 360.173 187.521C361.216 187.521 361.952 187.085 362.383 186.212H364.474C364.191 187.074 363.675 187.782 362.927 188.337C362.19 188.881 361.272 189.153 360.173 189.153C359.278 189.153 358.473 188.955 357.759 188.558C357.056 188.15 356.501 187.584 356.093 186.858C355.696 186.122 355.498 185.272 355.498 184.308C355.498 183.345 355.691 182.501 356.076 181.775C356.473 181.039 357.022 180.472 357.725 180.075C358.439 179.679 359.255 179.48 360.173 179.48C361.057 179.48 361.845 179.673 362.536 180.058C363.227 180.444 363.766 180.988 364.151 181.69C364.536 182.382 364.729 183.181 364.729 184.087ZM362.706 183.475C362.695 182.761 362.44 182.189 361.941 181.758C361.442 181.328 360.825 181.112 360.088 181.112C359.419 181.112 358.847 181.328 358.371 181.758C357.895 182.178 357.612 182.75 357.521 183.475H362.706ZM377.975 179.48C378.712 179.48 379.369 179.633 379.947 179.939C380.537 180.245 380.996 180.699 381.324 181.299C381.664 181.9 381.834 182.625 381.834 183.475V189H379.913V183.764C379.913 182.926 379.704 182.285 379.284 181.843C378.865 181.39 378.293 181.163 377.567 181.163C376.842 181.163 376.264 181.39 375.833 181.843C375.414 182.285 375.204 182.926 375.204 183.764V189H373.283V183.764C373.283 182.926 373.074 182.285 372.654 181.843C372.235 181.39 371.663 181.163 370.937 181.163C370.212 181.163 369.634 181.39 369.203 181.843C368.784 182.285 368.574 182.926 368.574 183.764V189H366.636V179.633H368.574V180.704C368.892 180.319 369.294 180.019 369.781 179.803C370.269 179.588 370.79 179.48 371.345 179.48C372.093 179.48 372.762 179.639 373.351 179.956C373.941 180.274 374.394 180.733 374.711 181.333C374.995 180.767 375.437 180.319 376.037 179.99C376.638 179.65 377.284 179.48 377.975 179.48ZM386.238 181.01C386.567 180.58 387.015 180.217 387.581 179.922C388.148 179.628 388.788 179.48 389.502 179.48C390.318 179.48 391.061 179.684 391.729 180.092C392.409 180.489 392.942 181.05 393.327 181.775C393.713 182.501 393.905 183.334 393.905 184.274C393.905 185.215 393.713 186.059 393.327 186.807C392.942 187.544 392.409 188.122 391.729 188.541C391.061 188.949 390.318 189.153 389.502 189.153C388.788 189.153 388.154 189.012 387.598 188.728C387.043 188.434 386.59 188.071 386.238 187.64V193.454H384.3V179.633H386.238V181.01ZM391.933 184.274C391.933 183.628 391.797 183.073 391.525 182.608C391.265 182.132 390.913 181.775 390.471 181.537C390.041 181.288 389.576 181.163 389.077 181.163C388.59 181.163 388.125 181.288 387.683 181.537C387.253 181.787 386.901 182.149 386.629 182.625C386.369 183.101 386.238 183.662 386.238 184.308C386.238 184.954 386.369 185.521 386.629 186.008C386.901 186.484 387.253 186.847 387.683 187.096C388.125 187.346 388.59 187.47 389.077 187.47C389.576 187.47 390.041 187.346 390.471 187.096C390.913 186.836 391.265 186.462 391.525 185.974C391.797 185.487 391.933 184.92 391.933 184.274ZM404.407 184.087C404.407 184.439 404.384 184.756 404.339 185.039H397.182C397.239 185.787 397.516 186.388 398.015 186.841C398.514 187.295 399.126 187.521 399.851 187.521C400.894 187.521 401.63 187.085 402.061 186.212H404.152C403.869 187.074 403.353 187.782 402.605 188.337C401.868 188.881 400.95 189.153 399.851 189.153C398.956 189.153 398.151 188.955 397.437 188.558C396.734 188.15 396.179 187.584 395.771 186.858C395.374 186.122 395.176 185.272 395.176 184.308C395.176 183.345 395.369 182.501 395.754 181.775C396.151 181.039 396.7 180.472 397.403 180.075C398.117 179.679 398.933 179.48 399.851 179.48C400.735 179.48 401.523 179.673 402.214 180.058C402.905 180.444 403.444 180.988 403.829 181.69C404.214 182.382 404.407 183.181 404.407 184.087ZM402.384 183.475C402.373 182.761 402.118 182.189 401.619 181.758C401.12 181.328 400.503 181.112 399.766 181.112C399.097 181.112 398.525 181.328 398.049 181.758C397.573 182.178 397.29 182.75 397.199 183.475H402.384ZM409.714 189.153C408.977 189.153 408.314 189.023 407.725 188.762C407.147 188.49 406.688 188.128 406.348 187.674C406.008 187.21 405.827 186.694 405.804 186.127H407.81C407.844 186.524 408.031 186.858 408.371 187.13C408.722 187.391 409.159 187.521 409.68 187.521C410.224 187.521 410.643 187.419 410.938 187.215C411.244 187 411.397 186.728 411.397 186.399C411.397 186.048 411.227 185.787 410.887 185.617C410.558 185.447 410.031 185.26 409.306 185.056C408.603 184.864 408.031 184.677 407.589 184.495C407.147 184.314 406.762 184.036 406.433 183.662C406.116 183.288 405.957 182.795 405.957 182.183C405.957 181.685 406.104 181.231 406.399 180.823C406.694 180.404 407.113 180.075 407.657 179.837C408.212 179.599 408.847 179.48 409.561 179.48C410.626 179.48 411.482 179.752 412.128 180.296C412.785 180.829 413.137 181.56 413.182 182.489H411.244C411.21 182.07 411.04 181.736 410.734 181.486C410.428 181.237 410.014 181.112 409.493 181.112C408.983 181.112 408.592 181.209 408.32 181.401C408.048 181.594 407.912 181.849 407.912 182.166C407.912 182.416 408.003 182.625 408.184 182.795C408.365 182.965 408.586 183.101 408.847 183.203C409.108 183.294 409.493 183.413 410.003 183.56C410.683 183.742 411.238 183.929 411.669 184.121C412.111 184.303 412.491 184.575 412.808 184.937C413.125 185.3 413.29 185.782 413.301 186.382C413.301 186.915 413.154 187.391 412.859 187.81C412.564 188.23 412.145 188.558 411.601 188.796C411.068 189.034 410.439 189.153 409.714 189.153ZM417.656 181.214V186.399C417.656 186.751 417.735 187.006 417.894 187.164C418.064 187.312 418.347 187.385 418.744 187.385H419.934V189H418.404C417.531 189 416.863 188.796 416.398 188.388C415.933 187.98 415.701 187.317 415.701 186.399V181.214H414.596V179.633H415.701V177.304H417.656V179.633H419.934V181.214H417.656ZM421.074 184.274C421.074 183.334 421.267 182.501 421.652 181.775C422.049 181.05 422.582 180.489 423.25 180.092C423.93 179.684 424.678 179.48 425.494 179.48C426.231 179.48 426.871 179.628 427.415 179.922C427.971 180.206 428.413 180.563 428.741 180.993V179.633H430.696V189H428.741V187.606C428.413 188.048 427.965 188.417 427.398 188.711C426.832 189.006 426.186 189.153 425.46 189.153C424.656 189.153 423.919 188.949 423.25 188.541C422.582 188.122 422.049 187.544 421.652 186.807C421.267 186.059 421.074 185.215 421.074 184.274ZM428.741 184.308C428.741 183.662 428.605 183.101 428.333 182.625C428.073 182.149 427.727 181.787 427.296 181.537C426.866 181.288 426.401 181.163 425.902 181.163C425.404 181.163 424.939 181.288 424.508 181.537C424.078 181.775 423.726 182.132 423.454 182.608C423.194 183.073 423.063 183.628 423.063 184.274C423.063 184.92 423.194 185.487 423.454 185.974C423.726 186.462 424.078 186.836 424.508 187.096C424.95 187.346 425.415 187.47 425.902 187.47C426.401 187.47 426.866 187.346 427.296 187.096C427.727 186.847 428.073 186.484 428.333 186.008C428.605 185.521 428.741 184.954 428.741 184.308ZM432.596 184.274C432.596 183.334 432.788 182.501 433.174 181.775C433.57 181.05 434.103 180.489 434.772 180.092C435.452 179.684 436.205 179.48 437.033 179.48C437.645 179.48 438.245 179.616 438.835 179.888C439.435 180.149 439.911 180.5 440.263 180.942V176.42H442.218V189H440.263V187.589C439.945 188.043 439.503 188.417 438.937 188.711C438.381 189.006 437.741 189.153 437.016 189.153C436.2 189.153 435.452 188.949 434.772 188.541C434.103 188.122 433.57 187.544 433.174 186.807C432.788 186.059 432.596 185.215 432.596 184.274ZM440.263 184.308C440.263 183.662 440.127 183.101 439.855 182.625C439.594 182.149 439.248 181.787 438.818 181.537C438.387 181.288 437.922 181.163 437.424 181.163C436.925 181.163 436.46 181.288 436.03 181.537C435.599 181.775 435.248 182.132 434.976 182.608C434.715 183.073 434.585 183.628 434.585 184.274C434.585 184.92 434.715 185.487 434.976 185.974C435.248 186.462 435.599 186.836 436.03 187.096C436.472 187.346 436.936 187.47 437.424 187.47C437.922 187.47 438.387 187.346 438.818 187.096C439.248 186.847 439.594 186.484 439.855 186.008C440.127 185.521 440.263 184.954 440.263 184.308ZM453.348 184.087C453.348 184.439 453.326 184.756 453.28 185.039H446.123C446.18 185.787 446.458 186.388 446.956 186.841C447.455 187.295 448.067 187.521 448.792 187.521C449.835 187.521 450.572 187.085 451.002 186.212H453.093C452.81 187.074 452.294 187.782 451.546 188.337C450.81 188.881 449.892 189.153 448.792 189.153C447.897 189.153 447.092 188.955 446.378 188.558C445.676 188.15 445.12 187.584 444.712 186.858C444.316 186.122 444.117 185.272 444.117 184.308C444.117 183.345 444.31 182.501 444.695 181.775C445.092 181.039 445.642 180.472 446.344 180.075C447.058 179.679 447.874 179.48 448.792 179.48C449.676 179.48 450.464 179.673 451.155 180.058C451.847 180.444 452.385 180.988 452.77 181.69C453.156 182.382 453.348 183.181 453.348 184.087ZM451.325 183.475C451.314 182.761 451.059 182.189 450.56 181.758C450.062 181.328 449.444 181.112 448.707 181.112C448.039 181.112 447.466 181.328 446.99 181.758C446.514 182.178 446.231 182.75 446.14 183.475H451.325ZM458.655 189.153C457.919 189.153 457.256 189.023 456.666 188.762C456.088 188.49 455.629 188.128 455.289 187.674C454.949 187.21 454.768 186.694 454.745 186.127H456.751C456.785 186.524 456.972 186.858 457.312 187.13C457.664 187.391 458.1 187.521 458.621 187.521C459.165 187.521 459.585 187.419 459.879 187.215C460.185 187 460.338 186.728 460.338 186.399C460.338 186.048 460.168 185.787 459.828 185.617C459.5 185.447 458.973 185.26 458.247 185.056C457.545 184.864 456.972 184.677 456.53 184.495C456.088 184.314 455.703 184.036 455.374 183.662C455.057 183.288 454.898 182.795 454.898 182.183C454.898 181.685 455.046 181.231 455.34 180.823C455.635 180.404 456.054 180.075 456.598 179.837C457.154 179.599 457.788 179.48 458.502 179.48C459.568 179.48 460.423 179.752 461.069 180.296C461.727 180.829 462.078 181.56 462.123 182.489H460.185C460.151 182.07 459.981 181.736 459.675 181.486C459.369 181.237 458.956 181.112 458.434 181.112C457.924 181.112 457.533 181.209 457.261 181.401C456.989 181.594 456.853 181.849 456.853 182.166C456.853 182.416 456.944 182.625 457.125 182.795C457.307 182.965 457.528 183.101 457.788 183.203C458.049 183.294 458.434 183.413 458.944 183.56C459.624 183.742 460.18 183.929 460.61 184.121C461.052 184.303 461.432 184.575 461.749 184.937C462.067 185.3 462.231 185.782 462.242 186.382C462.242 186.915 462.095 187.391 461.8 187.81C461.506 188.23 461.086 188.558 460.542 188.796C460.01 189.034 459.381 189.153 458.655 189.153ZM466.462 186.671L464.405 191.363H463.147L464.354 186.671H466.462ZM476.634 189.153C475.75 189.153 474.951 188.955 474.237 188.558C473.523 188.15 472.962 187.584 472.554 186.858C472.146 186.122 471.942 185.272 471.942 184.308C471.942 183.356 472.152 182.512 472.571 181.775C472.99 181.039 473.563 180.472 474.288 180.075C475.013 179.679 475.824 179.48 476.719 179.48C477.614 179.48 478.425 179.679 479.15 180.075C479.875 180.472 480.448 181.039 480.867 181.775C481.286 182.512 481.496 183.356 481.496 184.308C481.496 185.26 481.281 186.105 480.85 186.841C480.419 187.578 479.83 188.15 479.082 188.558C478.345 188.955 477.529 189.153 476.634 189.153ZM476.634 187.47C477.133 187.47 477.597 187.351 478.028 187.113C478.47 186.875 478.827 186.518 479.099 186.042C479.371 185.566 479.507 184.988 479.507 184.308C479.507 183.628 479.377 183.056 479.116 182.591C478.855 182.115 478.51 181.758 478.079 181.52C477.648 181.282 477.184 181.163 476.685 181.163C476.186 181.163 475.722 181.282 475.291 181.52C474.872 181.758 474.537 182.115 474.288 182.591C474.039 183.056 473.914 183.628 473.914 184.308C473.914 185.317 474.169 186.099 474.679 186.654C475.2 187.198 475.852 187.47 476.634 187.47ZM489.766 180.993C490.049 180.517 490.423 180.149 490.888 179.888C491.364 179.616 491.925 179.48 492.571 179.48V181.486H492.078C491.318 181.486 490.74 181.679 490.344 182.064C489.958 182.45 489.766 183.118 489.766 184.07V189H487.828V179.633H489.766V180.993ZM493.706 184.274C493.706 183.334 493.899 182.501 494.284 181.775C494.681 181.05 495.213 180.489 495.882 180.092C496.562 179.684 497.31 179.48 498.126 179.48C498.863 179.48 499.503 179.628 500.047 179.922C500.602 180.206 501.044 180.563 501.373 180.993V179.633H503.328V189H501.373V187.606C501.044 188.048 500.597 188.417 500.03 188.711C499.463 189.006 498.817 189.153 498.092 189.153C497.287 189.153 496.551 188.949 495.882 188.541C495.213 188.122 494.681 187.544 494.284 186.807C493.899 186.059 493.706 185.215 493.706 184.274ZM501.373 184.308C501.373 183.662 501.237 183.101 500.965 182.625C500.704 182.149 500.359 181.787 499.928 181.537C499.497 181.288 499.033 181.163 498.534 181.163C498.035 181.163 497.571 181.288 497.14 181.537C496.709 181.775 496.358 182.132 496.086 182.608C495.825 183.073 495.695 183.628 495.695 184.274C495.695 184.92 495.825 185.487 496.086 185.974C496.358 186.462 496.709 186.836 497.14 187.096C497.582 187.346 498.047 187.47 498.534 187.47C499.033 187.47 499.497 187.346 499.928 187.096C500.359 186.847 500.704 186.484 500.965 186.008C501.237 185.521 501.373 184.954 501.373 184.308ZM506.86 178.392C506.508 178.392 506.214 178.273 505.976 178.035C505.738 177.797 505.619 177.503 505.619 177.151C505.619 176.8 505.738 176.505 505.976 176.267C506.214 176.029 506.508 175.91 506.86 175.91C507.2 175.91 507.489 176.029 507.727 176.267C507.965 176.505 508.084 176.8 508.084 177.151C508.084 177.503 507.965 177.797 507.727 178.035C507.489 178.273 507.2 178.392 506.86 178.392ZM507.812 179.633V189H505.874V179.633H507.812ZM514.419 189.153C513.535 189.153 512.736 188.955 512.022 188.558C511.308 188.15 510.747 187.584 510.339 186.858C509.931 186.122 509.727 185.272 509.727 184.308C509.727 183.356 509.937 182.512 510.356 181.775C510.775 181.039 511.348 180.472 512.073 180.075C512.798 179.679 513.609 179.48 514.504 179.48C515.399 179.48 516.21 179.679 516.935 180.075C517.66 180.472 518.233 181.039 518.652 181.775C519.071 182.512 519.281 183.356 519.281 184.308C519.281 185.26 519.066 186.105 518.635 186.841C518.204 187.578 517.615 188.15 516.867 188.558C516.13 188.955 515.314 189.153 514.419 189.153ZM514.419 187.47C514.918 187.47 515.382 187.351 515.813 187.113C516.255 186.875 516.612 186.518 516.884 186.042C517.156 185.566 517.292 184.988 517.292 184.308C517.292 183.628 517.162 183.056 516.901 182.591C516.64 182.115 516.295 181.758 515.864 181.52C515.433 181.282 514.969 181.163 514.47 181.163C513.971 181.163 513.507 181.282 513.076 181.52C512.657 181.758 512.322 182.115 512.073 182.591C511.824 183.056 511.699 183.628 511.699 184.308C511.699 185.317 511.954 186.099 512.464 186.654C512.985 187.198 513.637 187.47 514.419 187.47ZM524.967 184.274C524.967 183.334 525.16 182.501 525.545 181.775C525.942 181.05 526.474 180.489 527.143 180.092C527.823 179.684 528.577 179.48 529.404 179.48C530.016 179.48 530.617 179.616 531.206 179.888C531.807 180.149 532.283 180.5 532.634 180.942V176.42H534.589V189H532.634V187.589C532.317 188.043 531.875 188.417 531.308 188.711C530.753 189.006 530.112 189.153 529.387 189.153C528.571 189.153 527.823 188.949 527.143 188.541C526.474 188.122 525.942 187.544 525.545 186.807C525.16 186.059 524.967 185.215 524.967 184.274ZM532.634 184.308C532.634 183.662 532.498 183.101 532.226 182.625C531.965 182.149 531.62 181.787 531.189 181.537C530.758 181.288 530.294 181.163 529.795 181.163C529.296 181.163 528.832 181.288 528.401 181.537C527.97 181.775 527.619 182.132 527.347 182.608C527.086 183.073 526.956 183.628 526.956 184.274C526.956 184.92 527.086 185.487 527.347 185.974C527.619 186.462 527.97 186.836 528.401 187.096C528.843 187.346 529.308 187.47 529.795 187.47C530.294 187.47 530.758 187.346 531.189 187.096C531.62 186.847 531.965 186.484 532.226 186.008C532.498 185.521 532.634 184.954 532.634 184.308ZM536.488 184.274C536.488 183.334 536.681 182.501 537.066 181.775C537.463 181.05 537.996 180.489 538.664 180.092C539.344 179.684 540.092 179.48 540.908 179.48C541.645 179.48 542.285 179.628 542.829 179.922C543.385 180.206 543.827 180.563 544.155 180.993V179.633H546.11V189H544.155V187.606C543.827 188.048 543.379 188.417 542.812 188.711C542.246 189.006 541.6 189.153 540.874 189.153C540.07 189.153 539.333 188.949 538.664 188.541C537.996 188.122 537.463 187.544 537.066 186.807C536.681 186.059 536.488 185.215 536.488 184.274ZM544.155 184.308C544.155 183.662 544.019 183.101 543.747 182.625C543.487 182.149 543.141 181.787 542.71 181.537C542.28 181.288 541.815 181.163 541.316 181.163C540.818 181.163 540.353 181.288 539.922 181.537C539.492 181.775 539.14 182.132 538.868 182.608C538.608 183.073 538.477 183.628 538.477 184.274C538.477 184.92 538.608 185.487 538.868 185.974C539.14 186.462 539.492 186.836 539.922 187.096C540.364 187.346 540.829 187.47 541.316 187.47C541.815 187.47 542.28 187.346 542.71 187.096C543.141 186.847 543.487 186.484 543.747 186.008C544.019 185.521 544.155 184.954 544.155 184.308ZM561.657 184.087C561.657 184.439 561.634 184.756 561.589 185.039H554.432C554.489 185.787 554.766 186.388 555.265 186.841C555.764 187.295 556.376 187.521 557.101 187.521C558.144 187.521 558.88 187.085 559.311 186.212H561.402C561.119 187.074 560.603 187.782 559.855 188.337C559.118 188.881 558.2 189.153 557.101 189.153C556.206 189.153 555.401 188.955 554.687 188.558C553.984 188.15 553.429 187.584 553.021 186.858C552.624 186.122 552.426 185.272 552.426 184.308C552.426 183.345 552.619 182.501 553.004 181.775C553.401 181.039 553.95 180.472 554.653 180.075C555.367 179.679 556.183 179.48 557.101 179.48C557.985 179.48 558.773 179.673 559.464 180.058C560.155 180.444 560.694 180.988 561.079 181.69C561.464 182.382 561.657 183.181 561.657 184.087ZM559.634 183.475C559.623 182.761 559.368 182.189 558.869 181.758C558.37 181.328 557.753 181.112 557.016 181.112C556.347 181.112 555.775 181.328 555.299 181.758C554.823 182.178 554.54 182.75 554.449 183.475H559.634ZM566.964 189.153C566.227 189.153 565.564 189.023 564.975 188.762C564.397 188.49 563.938 188.128 563.598 187.674C563.258 187.21 563.077 186.694 563.054 186.127H565.06C565.094 186.524 565.281 186.858 565.621 187.13C565.972 187.391 566.409 187.521 566.93 187.521C567.474 187.521 567.893 187.419 568.188 187.215C568.494 187 568.647 186.728 568.647 186.399C568.647 186.048 568.477 185.787 568.137 185.617C567.808 185.447 567.281 185.26 566.556 185.056C565.853 184.864 565.281 184.677 564.839 184.495C564.397 184.314 564.012 184.036 563.683 183.662C563.366 183.288 563.207 182.795 563.207 182.183C563.207 181.685 563.354 181.231 563.649 180.823C563.944 180.404 564.363 180.075 564.907 179.837C565.462 179.599 566.097 179.48 566.811 179.48C567.876 179.48 568.732 179.752 569.378 180.296C570.035 180.829 570.387 181.56 570.432 182.489H568.494C568.46 182.07 568.29 181.736 567.984 181.486C567.678 181.237 567.264 181.112 566.743 181.112C566.233 181.112 565.842 181.209 565.57 181.401C565.298 181.594 565.162 181.849 565.162 182.166C565.162 182.416 565.253 182.625 565.434 182.795C565.615 182.965 565.836 183.101 566.097 183.203C566.358 183.294 566.743 183.413 567.253 183.56C567.933 183.742 568.488 183.929 568.919 184.121C569.361 184.303 569.741 184.575 570.058 184.937C570.375 185.3 570.54 185.782 570.551 186.382C570.551 186.915 570.404 187.391 570.109 187.81C569.814 188.23 569.395 188.558 568.851 188.796C568.318 189.034 567.689 189.153 566.964 189.153ZM574.583 181.01C574.912 180.58 575.359 180.217 575.926 179.922C576.493 179.628 577.133 179.48 577.847 179.48C578.663 179.48 579.405 179.684 580.074 180.092C580.754 180.489 581.287 181.05 581.672 181.775C582.057 182.501 582.25 183.334 582.25 184.274C582.25 185.215 582.057 186.059 581.672 186.807C581.287 187.544 580.754 188.122 580.074 188.541C579.405 188.949 578.663 189.153 577.847 189.153C577.133 189.153 576.498 189.012 575.943 188.728C575.388 188.434 574.934 188.071 574.583 187.64V193.454H572.645V179.633H574.583V181.01ZM580.278 184.274C580.278 183.628 580.142 183.073 579.87 182.608C579.609 182.132 579.258 181.775 578.816 181.537C578.385 181.288 577.921 181.163 577.422 181.163C576.935 181.163 576.47 181.288 576.028 181.537C575.597 181.787 575.246 182.149 574.974 182.625C574.713 183.101 574.583 183.662 574.583 184.308C574.583 184.954 574.713 185.521 574.974 186.008C575.246 186.484 575.597 186.847 576.028 187.096C576.47 187.346 576.935 187.47 577.422 187.47C577.921 187.47 578.385 187.346 578.816 187.096C579.258 186.836 579.609 186.462 579.87 185.974C580.142 185.487 580.278 184.92 580.278 184.274ZM592.752 184.087C592.752 184.439 592.729 184.756 592.684 185.039H585.527C585.583 185.787 585.861 186.388 586.36 186.841C586.858 187.295 587.47 187.521 588.196 187.521C589.238 187.521 589.975 187.085 590.406 186.212H592.497C592.213 187.074 591.698 187.782 590.95 188.337C590.213 188.881 589.295 189.153 588.196 189.153C587.3 189.153 586.496 188.955 585.782 188.558C585.079 188.15 584.524 187.584 584.116 186.858C583.719 186.122 583.521 185.272 583.521 184.308C583.521 183.345 583.713 182.501 584.099 181.775C584.495 181.039 585.045 180.472 585.748 180.075C586.462 179.679 587.278 179.48 588.196 179.48C589.08 179.48 589.867 179.673 590.559 180.058C591.25 180.444 591.788 180.988 592.174 181.69C592.559 182.382 592.752 183.181 592.752 184.087ZM590.729 183.475C590.717 182.761 590.462 182.189 589.964 181.758C589.465 181.328 588.847 181.112 588.111 181.112C587.442 181.112 586.87 181.328 586.394 181.758C585.918 182.178 585.634 182.75 585.544 183.475H590.729ZM596.597 180.993C596.88 180.517 597.254 180.149 597.719 179.888C598.195 179.616 598.756 179.48 599.402 179.48V181.486H598.909C598.149 181.486 597.571 181.679 597.175 182.064C596.789 182.45 596.597 183.118 596.597 184.07V189H594.659V179.633H596.597V180.993ZM600.537 184.274C600.537 183.334 600.73 182.501 601.115 181.775C601.512 181.05 602.045 180.489 602.713 180.092C603.393 179.684 604.141 179.48 604.957 179.48C605.694 179.48 606.334 179.628 606.878 179.922C607.434 180.206 607.876 180.563 608.204 180.993V179.633H610.159V189H608.204V187.606C607.876 188.048 607.428 188.417 606.861 188.711C606.295 189.006 605.649 189.153 604.923 189.153C604.119 189.153 603.382 188.949 602.713 188.541C602.045 188.122 601.512 187.544 601.115 186.807C600.73 186.059 600.537 185.215 600.537 184.274ZM608.204 184.308C608.204 183.662 608.068 183.101 607.796 182.625C607.536 182.149 607.19 181.787 606.759 181.537C606.329 181.288 605.864 181.163 605.365 181.163C604.867 181.163 604.402 181.288 603.971 181.537C603.541 181.775 603.189 182.132 602.917 182.608C602.657 183.073 602.526 183.628 602.526 184.274C602.526 184.92 602.657 185.487 602.917 185.974C603.189 186.462 603.541 186.836 603.971 187.096C604.413 187.346 604.878 187.47 605.365 187.47C605.864 187.47 606.329 187.346 606.759 187.096C607.19 186.847 607.536 186.484 607.796 186.008C608.068 185.521 608.204 184.954 608.204 184.308ZM617.431 179.48C618.167 179.48 618.825 179.633 619.403 179.939C619.992 180.245 620.451 180.699 620.78 181.299C621.108 181.9 621.273 182.625 621.273 183.475V189H619.352V183.764C619.352 182.926 619.142 182.285 618.723 181.843C618.303 181.39 617.731 181.163 617.006 181.163C616.28 181.163 615.702 181.39 615.272 181.843C614.852 182.285 614.643 182.926 614.643 183.764V189H612.705V179.633H614.643V180.704C614.96 180.319 615.362 180.019 615.85 179.803C616.348 179.588 616.875 179.48 617.431 179.48ZM627.689 187.521C628.811 187.521 629.553 187.028 629.916 186.042H632.007C631.757 186.904 631.31 187.612 630.664 188.167C630.029 188.711 629.23 189.029 628.267 189.119V189.816C628.924 189.816 629.457 189.969 629.865 190.275C630.273 190.593 630.477 191.035 630.477 191.601C630.477 192.168 630.273 192.616 629.865 192.944C629.457 193.284 628.941 193.454 628.318 193.454H626.074V192.23H627.927C628.244 192.23 628.482 192.185 628.641 192.094C628.799 192.004 628.879 191.839 628.879 191.601C628.879 191.363 628.799 191.199 628.641 191.108C628.482 191.018 628.244 190.972 627.927 190.972H626.992V189.102C626.221 189.012 625.541 188.757 624.952 188.337C624.362 187.907 623.903 187.351 623.575 186.671C623.257 185.98 623.099 185.192 623.099 184.308C623.099 183.345 623.291 182.501 623.677 181.775C624.073 181.039 624.617 180.472 625.309 180.075C626 179.679 626.793 179.48 627.689 179.48C628.822 179.48 629.757 179.752 630.494 180.296C631.242 180.829 631.746 181.594 632.007 182.591H629.916C629.746 182.127 629.474 181.764 629.1 181.503C628.726 181.243 628.255 181.112 627.689 181.112C626.895 181.112 626.261 181.396 625.785 181.962C625.32 182.518 625.088 183.3 625.088 184.308C625.088 185.317 625.32 186.105 625.785 186.671C626.261 187.238 626.895 187.521 627.689 187.521ZM633.292 184.274C633.292 183.334 633.485 182.501 633.87 181.775C634.267 181.05 634.799 180.489 635.468 180.092C636.148 179.684 636.896 179.48 637.712 179.48C638.449 179.48 639.089 179.628 639.633 179.922C640.188 180.206 640.63 180.563 640.959 180.993V179.633H642.914V189H640.959V187.606C640.63 188.048 640.183 188.417 639.616 188.711C639.049 189.006 638.403 189.153 637.678 189.153C636.873 189.153 636.137 188.949 635.468 188.541C634.799 188.122 634.267 187.544 633.87 186.807C633.485 186.059 633.292 185.215 633.292 184.274ZM640.959 184.308C640.959 183.662 640.823 183.101 640.551 182.625C640.29 182.149 639.945 181.787 639.514 181.537C639.083 181.288 638.619 181.163 638.12 181.163C637.621 181.163 637.157 181.288 636.726 181.537C636.295 181.775 635.944 182.132 635.672 182.608C635.411 183.073 635.281 183.628 635.281 184.274C635.281 184.92 635.411 185.487 635.672 185.974C635.944 186.462 636.295 186.836 636.726 187.096C637.168 187.346 637.633 187.47 638.12 187.47C638.619 187.47 639.083 187.346 639.514 187.096C639.945 186.847 640.29 186.484 640.551 186.008C640.823 185.521 640.959 184.954 640.959 184.308ZM247.261 204.392C246.91 204.392 246.615 204.273 246.377 204.035C246.139 203.797 246.02 203.503 246.02 203.151C246.02 202.8 246.139 202.505 246.377 202.267C246.615 202.029 246.91 201.91 247.261 201.91C247.601 201.91 247.89 202.029 248.128 202.267C248.366 202.505 248.485 202.8 248.485 203.151C248.485 203.503 248.366 203.797 248.128 204.035C247.89 204.273 247.601 204.392 247.261 204.392ZM248.213 205.633V215H246.275V205.633H248.213ZM252.695 202.42V215H250.757V202.42H252.695ZM263.723 205.633V215H261.785V213.895C261.479 214.281 261.077 214.587 260.578 214.813C260.091 215.029 259.569 215.136 259.014 215.136C258.277 215.136 257.614 214.983 257.025 214.677C256.447 214.371 255.988 213.918 255.648 213.317C255.319 212.717 255.155 211.991 255.155 211.141V205.633H257.076V210.852C257.076 211.691 257.286 212.337 257.705 212.79C258.124 213.232 258.697 213.453 259.422 213.453C260.147 213.453 260.72 213.232 261.139 212.79C261.57 212.337 261.785 211.691 261.785 210.852V205.633H263.723ZM277.619 205.48C278.356 205.48 279.013 205.633 279.591 205.939C280.18 206.245 280.639 206.699 280.968 207.299C281.308 207.9 281.478 208.625 281.478 209.475V215H279.557V209.764C279.557 208.926 279.347 208.285 278.928 207.843C278.509 207.39 277.936 207.163 277.211 207.163C276.486 207.163 275.908 207.39 275.477 207.843C275.058 208.285 274.848 208.926 274.848 209.764V215H272.927V209.764C272.927 208.926 272.717 208.285 272.298 207.843C271.879 207.39 271.306 207.163 270.581 207.163C269.856 207.163 269.278 207.39 268.847 207.843C268.428 208.285 268.218 208.926 268.218 209.764V215H266.28V205.633H268.218V206.704C268.535 206.319 268.938 206.019 269.425 205.803C269.912 205.588 270.434 205.48 270.989 205.48C271.737 205.48 272.406 205.639 272.995 205.956C273.584 206.274 274.038 206.733 274.355 207.333C274.638 206.767 275.08 206.319 275.681 205.99C276.282 205.65 276.928 205.48 277.619 205.48ZM284.93 204.392C284.579 204.392 284.284 204.273 284.046 204.035C283.808 203.797 283.689 203.503 283.689 203.151C283.689 202.8 283.808 202.505 284.046 202.267C284.284 202.029 284.579 201.91 284.93 201.91C285.27 201.91 285.559 202.029 285.797 202.267C286.035 202.505 286.154 202.8 286.154 203.151C286.154 203.503 286.035 203.797 285.797 204.035C285.559 204.273 285.27 204.392 284.93 204.392ZM285.882 205.633V215H283.944V205.633H285.882ZM293.152 205.48C293.889 205.48 294.546 205.633 295.124 205.939C295.714 206.245 296.173 206.699 296.501 207.299C296.83 207.9 296.994 208.625 296.994 209.475V215H295.073V209.764C295.073 208.926 294.864 208.285 294.444 207.843C294.025 207.39 293.453 207.163 292.727 207.163C292.002 207.163 291.424 207.39 290.993 207.843C290.574 208.285 290.364 208.926 290.364 209.764V215H288.426V205.633H290.364V206.704C290.682 206.319 291.084 206.019 291.571 205.803C292.07 205.588 292.597 205.48 293.152 205.48ZM298.82 210.274C298.82 209.334 299.013 208.501 299.398 207.775C299.795 207.05 300.328 206.489 300.996 206.092C301.676 205.684 302.424 205.48 303.24 205.48C303.977 205.48 304.617 205.628 305.161 205.922C305.717 206.206 306.159 206.563 306.487 206.993V205.633H308.442V215H306.487V213.606C306.159 214.048 305.711 214.417 305.144 214.711C304.578 215.006 303.932 215.153 303.206 215.153C302.402 215.153 301.665 214.949 300.996 214.541C300.328 214.122 299.795 213.544 299.398 212.807C299.013 212.059 298.82 211.215 298.82 210.274ZM306.487 210.308C306.487 209.662 306.351 209.101 306.079 208.625C305.819 208.149 305.473 207.787 305.042 207.537C304.612 207.288 304.147 207.163 303.648 207.163C303.15 207.163 302.685 207.288 302.254 207.537C301.824 207.775 301.472 208.132 301.2 208.608C300.94 209.073 300.809 209.628 300.809 210.274C300.809 210.92 300.94 211.487 301.2 211.974C301.472 212.462 301.824 212.836 302.254 213.096C302.696 213.346 303.161 213.47 303.648 213.47C304.147 213.47 304.612 213.346 305.042 213.096C305.473 212.847 305.819 212.484 306.079 212.008C306.351 211.521 306.487 210.954 306.487 210.308ZM320.13 205.48C320.867 205.48 321.524 205.633 322.102 205.939C322.691 206.245 323.15 206.699 323.479 207.299C323.808 207.9 323.972 208.625 323.972 209.475V215H322.051V209.764C322.051 208.926 321.841 208.285 321.422 207.843C321.003 207.39 320.43 207.163 319.705 207.163C318.98 207.163 318.402 207.39 317.971 207.843C317.552 208.285 317.342 208.926 317.342 209.764V215H315.404V205.633H317.342V206.704C317.659 206.319 318.062 206.019 318.549 205.803C319.048 205.588 319.575 205.48 320.13 205.48ZM330.507 215.153C329.623 215.153 328.824 214.955 328.11 214.558C327.396 214.15 326.835 213.584 326.427 212.858C326.019 212.122 325.815 211.272 325.815 210.308C325.815 209.356 326.025 208.512 326.444 207.775C326.863 207.039 327.436 206.472 328.161 206.075C328.886 205.679 329.697 205.48 330.592 205.48C331.487 205.48 332.298 205.679 333.023 206.075C333.748 206.472 334.321 207.039 334.74 207.775C335.159 208.512 335.369 209.356 335.369 210.308C335.369 211.26 335.154 212.105 334.723 212.841C334.292 213.578 333.703 214.15 332.955 214.558C332.218 214.955 331.402 215.153 330.507 215.153ZM330.507 213.47C331.006 213.47 331.47 213.351 331.901 213.113C332.343 212.875 332.7 212.518 332.972 212.042C333.244 211.566 333.38 210.988 333.38 210.308C333.38 209.628 333.25 209.056 332.989 208.591C332.728 208.115 332.383 207.758 331.952 207.52C331.521 207.282 331.057 207.163 330.558 207.163C330.059 207.163 329.595 207.282 329.164 207.52C328.745 207.758 328.41 208.115 328.161 208.591C327.912 209.056 327.787 209.628 327.787 210.308C327.787 211.317 328.042 212.099 328.552 212.654C329.073 213.198 329.725 213.47 330.507 213.47ZM340.685 215.153C339.948 215.153 339.285 215.023 338.696 214.762C338.118 214.49 337.659 214.128 337.319 213.674C336.979 213.21 336.797 212.694 336.775 212.127H338.781C338.815 212.524 339.002 212.858 339.342 213.13C339.693 213.391 340.129 213.521 340.651 213.521C341.195 213.521 341.614 213.419 341.909 213.215C342.215 213 342.368 212.728 342.368 212.399C342.368 212.048 342.198 211.787 341.858 211.617C341.529 211.447 341.002 211.26 340.277 211.056C339.574 210.864 339.002 210.677 338.56 210.495C338.118 210.314 337.732 210.036 337.404 209.662C337.086 209.288 336.928 208.795 336.928 208.183C336.928 207.685 337.075 207.231 337.37 206.823C337.664 206.404 338.084 206.075 338.628 205.837C339.183 205.599 339.818 205.48 340.532 205.48C341.597 205.48 342.453 205.752 343.099 206.296C343.756 206.829 344.107 207.56 344.153 208.489H342.215C342.181 208.07 342.011 207.736 341.705 207.486C341.399 207.237 340.985 207.112 340.464 207.112C339.954 207.112 339.563 207.209 339.291 207.401C339.019 207.594 338.883 207.849 338.883 208.166C338.883 208.416 338.973 208.625 339.155 208.795C339.336 208.965 339.557 209.101 339.818 209.203C340.078 209.294 340.464 209.413 340.974 209.56C341.654 209.742 342.209 209.929 342.64 210.121C343.082 210.303 343.461 210.575 343.779 210.937C344.096 211.3 344.26 211.782 344.272 212.382C344.272 212.915 344.124 213.391 343.83 213.81C343.535 214.23 343.116 214.558 342.572 214.796C342.039 215.034 341.41 215.153 340.685 215.153ZM349.766 215.153C349.029 215.153 348.366 215.023 347.777 214.762C347.199 214.49 346.74 214.128 346.4 213.674C346.06 213.21 345.878 212.694 345.856 212.127H347.862C347.896 212.524 348.083 212.858 348.423 213.13C348.774 213.391 349.21 213.521 349.732 213.521C350.276 213.521 350.695 213.419 350.99 213.215C351.296 213 351.449 212.728 351.449 212.399C351.449 212.048 351.279 211.787 350.939 211.617C350.61 211.447 350.083 211.26 349.358 211.056C348.655 210.864 348.083 210.677 347.641 210.495C347.199 210.314 346.813 210.036 346.485 209.662C346.167 209.288 346.009 208.795 346.009 208.183C346.009 207.685 346.156 207.231 346.451 206.823C346.745 206.404 347.165 206.075 347.709 205.837C348.264 205.599 348.899 205.48 349.613 205.48C350.678 205.48 351.534 205.752 352.18 206.296C352.837 206.829 353.188 207.56 353.234 208.489H351.296C351.262 208.07 351.092 207.736 350.786 207.486C350.48 207.237 350.066 207.112 349.545 207.112C349.035 207.112 348.644 207.209 348.372 207.401C348.1 207.594 347.964 207.849 347.964 208.166C347.964 208.416 348.054 208.625 348.236 208.795C348.417 208.965 348.638 209.101 348.899 209.203C349.159 209.294 349.545 209.413 350.055 209.56C350.735 209.742 351.29 209.929 351.721 210.121C352.163 210.303 352.542 210.575 352.86 210.937C353.177 211.3 353.341 211.782 353.353 212.382C353.353 212.915 353.205 213.391 352.911 213.81C352.616 214.23 352.197 214.558 351.653 214.796C351.12 215.034 350.491 215.153 349.766 215.153ZM359.51 215.153C358.626 215.153 357.827 214.955 357.113 214.558C356.399 214.15 355.838 213.584 355.43 212.858C355.022 212.122 354.818 211.272 354.818 210.308C354.818 209.356 355.028 208.512 355.447 207.775C355.866 207.039 356.439 206.472 357.164 206.075C357.889 205.679 358.7 205.48 359.595 205.48C360.49 205.48 361.301 205.679 362.026 206.075C362.751 206.472 363.324 207.039 363.743 207.775C364.162 208.512 364.372 209.356 364.372 210.308C364.372 211.26 364.157 212.105 363.726 212.841C363.295 213.578 362.706 214.15 361.958 214.558C361.221 214.955 360.405 215.153 359.51 215.153ZM359.51 213.47C360.009 213.47 360.473 213.351 360.904 213.113C361.346 212.875 361.703 212.518 361.975 212.042C362.247 211.566 362.383 210.988 362.383 210.308C362.383 209.628 362.253 209.056 361.992 208.591C361.731 208.115 361.386 207.758 360.955 207.52C360.524 207.282 360.06 207.163 359.561 207.163C359.062 207.163 358.598 207.282 358.167 207.52C357.748 207.758 357.413 208.115 357.164 208.591C356.915 209.056 356.79 209.628 356.79 210.308C356.79 211.317 357.045 212.099 357.555 212.654C358.076 213.198 358.728 213.47 359.51 213.47ZM369.688 215.153C368.951 215.153 368.288 215.023 367.699 214.762C367.121 214.49 366.662 214.128 366.322 213.674C365.982 213.21 365.8 212.694 365.778 212.127H367.784C367.818 212.524 368.005 212.858 368.345 213.13C368.696 213.391 369.132 213.521 369.654 213.521C370.198 213.521 370.617 213.419 370.912 213.215C371.218 213 371.371 212.728 371.371 212.399C371.371 212.048 371.201 211.787 370.861 211.617C370.532 211.447 370.005 211.26 369.28 211.056C368.577 210.864 368.005 210.677 367.563 210.495C367.121 210.314 366.735 210.036 366.407 209.662C366.089 209.288 365.931 208.795 365.931 208.183C365.931 207.685 366.078 207.231 366.373 206.823C366.667 206.404 367.087 206.075 367.631 205.837C368.186 205.599 368.821 205.48 369.535 205.48C370.6 205.48 371.456 205.752 372.102 206.296C372.759 206.829 373.11 207.56 373.156 208.489H371.218C371.184 208.07 371.014 207.736 370.708 207.486C370.402 207.237 369.988 207.112 369.467 207.112C368.957 207.112 368.566 207.209 368.294 207.401C368.022 207.594 367.886 207.849 367.886 208.166C367.886 208.416 367.976 208.625 368.158 208.795C368.339 208.965 368.56 209.101 368.821 209.203C369.081 209.294 369.467 209.413 369.977 209.56C370.657 209.742 371.212 209.929 371.643 210.121C372.085 210.303 372.464 210.575 372.782 210.937C373.099 211.3 373.263 211.782 373.275 212.382C373.275 212.915 373.127 213.391 372.833 213.81C372.538 214.23 372.119 214.558 371.575 214.796C371.042 215.034 370.413 215.153 369.688 215.153ZM383.185 215.153C382.448 215.153 381.785 215.023 381.196 214.762C380.618 214.49 380.159 214.128 379.819 213.674C379.479 213.21 379.297 212.694 379.275 212.127H381.281C381.315 212.524 381.502 212.858 381.842 213.13C382.193 213.391 382.629 213.521 383.151 213.521C383.695 213.521 384.114 213.419 384.409 213.215C384.715 213 384.868 212.728 384.868 212.399C384.868 212.048 384.698 211.787 384.358 211.617C384.029 211.447 383.502 211.26 382.777 211.056C382.074 210.864 381.502 210.677 381.06 210.495C380.618 210.314 380.232 210.036 379.904 209.662C379.586 209.288 379.428 208.795 379.428 208.183C379.428 207.685 379.575 207.231 379.87 206.823C380.164 206.404 380.584 206.075 381.128 205.837C381.683 205.599 382.318 205.48 383.032 205.48C384.097 205.48 384.953 205.752 385.599 206.296C386.256 206.829 386.607 207.56 386.653 208.489H384.715C384.681 208.07 384.511 207.736 384.205 207.486C383.899 207.237 383.485 207.112 382.964 207.112C382.454 207.112 382.063 207.209 381.791 207.401C381.519 207.594 381.383 207.849 381.383 208.166C381.383 208.416 381.473 208.625 381.655 208.795C381.836 208.965 382.057 209.101 382.318 209.203C382.578 209.294 382.964 209.413 383.474 209.56C384.154 209.742 384.709 209.929 385.14 210.121C385.582 210.303 385.961 210.575 386.279 210.937C386.596 211.3 386.76 211.782 386.772 212.382C386.772 212.915 386.624 213.391 386.33 213.81C386.035 214.23 385.616 214.558 385.072 214.796C384.539 215.034 383.91 215.153 383.185 215.153ZM392.929 215.153C392.045 215.153 391.246 214.955 390.532 214.558C389.818 214.15 389.257 213.584 388.849 212.858C388.441 212.122 388.237 211.272 388.237 210.308C388.237 209.356 388.446 208.512 388.866 207.775C389.285 207.039 389.857 206.472 390.583 206.075C391.308 205.679 392.118 205.48 393.014 205.48C393.909 205.48 394.719 205.679 395.445 206.075C396.17 206.472 396.742 207.039 397.162 207.775C397.581 208.512 397.791 209.356 397.791 210.308C397.791 211.26 397.575 212.105 397.145 212.841C396.714 213.578 396.125 214.15 395.377 214.558C394.64 214.955 393.824 215.153 392.929 215.153ZM392.929 213.47C393.427 213.47 393.892 213.351 394.323 213.113C394.765 212.875 395.122 212.518 395.394 212.042C395.666 211.566 395.802 210.988 395.802 210.308C395.802 209.628 395.671 209.056 395.411 208.591C395.15 208.115 394.804 207.758 394.374 207.52C393.943 207.282 393.478 207.163 392.98 207.163C392.481 207.163 392.016 207.282 391.586 207.52C391.166 207.758 390.832 208.115 390.583 208.591C390.333 209.056 390.209 209.628 390.209 210.308C390.209 211.317 390.464 212.099 390.974 212.654C391.495 213.198 392.147 213.47 392.929 213.47ZM404.433 205.48C405.169 205.48 405.827 205.633 406.405 205.939C406.994 206.245 407.453 206.699 407.782 207.299C408.11 207.9 408.275 208.625 408.275 209.475V215H406.354V209.764C406.354 208.926 406.144 208.285 405.725 207.843C405.305 207.39 404.733 207.163 404.008 207.163C403.282 207.163 402.704 207.39 402.274 207.843C401.854 208.285 401.645 208.926 401.645 209.764V215H399.707V205.633H401.645V206.704C401.962 206.319 402.364 206.019 402.852 205.803C403.35 205.588 403.877 205.48 404.433 205.48ZM415.592 205.48C416.306 205.48 416.94 205.633 417.496 205.939C418.062 206.245 418.504 206.699 418.822 207.299C419.15 207.9 419.315 208.625 419.315 209.475V215H417.394V209.764C417.394 208.926 417.184 208.285 416.765 207.843C416.345 207.39 415.773 207.163 415.048 207.163C414.322 207.163 413.744 207.39 413.314 207.843C412.894 208.285 412.685 208.926 412.685 209.764V215H410.747V202.42H412.685V206.721C413.013 206.325 413.427 206.019 413.926 205.803C414.436 205.588 414.991 205.48 415.592 205.48ZM425.85 215.153C424.966 215.153 424.167 214.955 423.453 214.558C422.739 214.15 422.178 213.584 421.77 212.858C421.362 212.122 421.158 211.272 421.158 210.308C421.158 209.356 421.367 208.512 421.787 207.775C422.206 207.039 422.778 206.472 423.504 206.075C424.229 205.679 425.039 205.48 425.935 205.48C426.83 205.48 427.64 205.679 428.366 206.075C429.091 206.472 429.663 207.039 430.083 207.775C430.502 208.512 430.712 209.356 430.712 210.308C430.712 211.26 430.496 212.105 430.066 212.841C429.635 213.578 429.046 214.15 428.298 214.558C427.561 214.955 426.745 215.153 425.85 215.153ZM425.85 213.47C426.348 213.47 426.813 213.351 427.244 213.113C427.686 212.875 428.043 212.518 428.315 212.042C428.587 211.566 428.723 210.988 428.723 210.308C428.723 209.628 428.592 209.056 428.332 208.591C428.071 208.115 427.725 207.758 427.295 207.52C426.864 207.282 426.399 207.163 425.901 207.163C425.402 207.163 424.937 207.282 424.507 207.52C424.087 207.758 423.753 208.115 423.504 208.591C423.254 209.056 423.13 209.628 423.13 210.308C423.13 211.317 423.385 212.099 423.895 212.654C424.416 213.198 425.068 213.47 425.85 213.47ZM436.028 215.153C435.291 215.153 434.628 215.023 434.039 214.762C433.461 214.49 433.002 214.128 432.662 213.674C432.322 213.21 432.14 212.694 432.118 212.127H434.124C434.158 212.524 434.345 212.858 434.685 213.13C435.036 213.391 435.472 213.521 435.994 213.521C436.538 213.521 436.957 213.419 437.252 213.215C437.558 213 437.711 212.728 437.711 212.399C437.711 212.048 437.541 211.787 437.201 211.617C436.872 211.447 436.345 211.26 435.62 211.056C434.917 210.864 434.345 210.677 433.903 210.495C433.461 210.314 433.075 210.036 432.747 209.662C432.429 209.288 432.271 208.795 432.271 208.183C432.271 207.685 432.418 207.231 432.713 206.823C433.007 206.404 433.427 206.075 433.971 205.837C434.526 205.599 435.161 205.48 435.875 205.48C436.94 205.48 437.796 205.752 438.442 206.296C439.099 206.829 439.45 207.56 439.496 208.489H437.558C437.524 208.07 437.354 207.736 437.048 207.486C436.742 207.237 436.328 207.112 435.807 207.112C435.297 207.112 434.906 207.209 434.634 207.401C434.362 207.594 434.226 207.849 434.226 208.166C434.226 208.416 434.316 208.625 434.498 208.795C434.679 208.965 434.9 209.101 435.161 209.203C435.421 209.294 435.807 209.413 436.317 209.56C436.997 209.742 437.552 209.929 437.983 210.121C438.425 210.303 438.804 210.575 439.122 210.937C439.439 211.3 439.603 211.782 439.615 212.382C439.615 212.915 439.467 213.391 439.173 213.81C438.878 214.23 438.459 214.558 437.915 214.796C437.382 215.034 436.753 215.153 436.028 215.153ZM444.14 203.185L443.919 211.43H442.304L442.083 203.185H444.14ZM443.171 215.119C442.819 215.119 442.525 215 442.287 214.762C442.049 214.524 441.93 214.23 441.93 213.878C441.93 213.527 442.049 213.232 442.287 212.994C442.525 212.756 442.819 212.637 443.171 212.637C443.511 212.637 443.8 212.756 444.038 212.994C444.276 213.232 444.395 213.527 444.395 213.878C444.395 214.23 444.276 214.524 444.038 214.762C443.8 215 443.511 215.119 443.171 215.119Z" fill="#945A01"/>
<path fill-rule="evenodd" clip-rule="evenodd" d="M33.0587 191.101C68.7777 220.073 66.8951 218.38 67.3492 221.937C67.769 225.225 67.7602 225.24 55.4712 242.696C49.4201 251.291 44.5353 258.375 44.6162 258.437C44.6971 258.5 50.3272 251.993 57.1277 243.978C70.9383 227.701 70.9538 227.686 74.2395 227.267C77.7964 226.813 75.6847 225.416 112.702 252.71C131.034 266.227 146.089 277.28 146.157 277.271C146.225 277.262 146.274 277.199 146.265 277.13C146.256 277.061 131.776 265.266 114.087 250.919C78.3701 221.948 80.2503 223.639 79.7964 220.083C79.377 216.798 79.3875 216.779 91.6727 199.322C97.722 190.726 102.605 183.642 102.525 183.579C102.444 183.517 96.8146 190.024 90.0157 198.041C76.2072 214.321 76.1945 214.333 72.9062 214.753C69.3503 215.207 71.4603 216.603 34.4442 189.31C16.1123 175.792 1.05757 164.74 0.988938 164.749C0.920561 164.758 0.871801 164.821 0.880496 164.889C0.889226 164.957 15.3695 176.752 33.0587 191.101Z" fill="#FEC701"/>
<path fill-rule="evenodd" clip-rule="evenodd" d="M253.635 133.796C253.249 132.735 251.751 132.735 251.365 133.796L249.612 138.613L244.795 140.365C243.735 140.751 243.735 142.25 244.795 142.636L249.612 144.388L251.365 149.205C251.751 150.266 253.249 150.266 253.635 149.205L255.388 144.388L260.205 142.636C261.265 142.25 261.265 140.751 260.205 140.365L255.388 138.613L253.635 133.796Z" fill="#945A01"/>
<defs>
<clipPath id="clip0_1105_1076">
<rect width="69.3521" height="69.3521" fill="white" transform="translate(96.0361 75.5327) rotate(-9.09)"/>
</clipPath>
</defs>
</svg>
