<svg width="88" height="71" viewBox="0 0 88 71" fill="none" xmlns="http://www.w3.org/2000/svg">
<path fill-rule="evenodd" clip-rule="evenodd" d="M4.90273 23.845C4.90273 25.0816 5.18233 26.2746 5.70174 27.398C2.06796 30.0147 -0.00634766 33.2004 -0.00634766 36.8992C-0.00634766 47.5332 19.7744 58.1121 44.1753 58.1121C68.5761 58.1121 87.3747 48.1861 87.3747 37.5518C87.6919 33.8676 85.8482 30.6248 82.3866 27.9219C83.0733 26.6483 83.4476 25.2758 83.4476 23.845C83.4476 17.1762 75.3156 11.77 65.2841 11.77C57.8272 11.77 51.4193 14.7576 48.6217 19.0305C47.1594 18.9768 45.6763 18.9497 44.1753 18.9497C42.6727 18.9497 41.1878 18.9745 39.724 19.0236C36.9241 14.7543 30.5195 11.77 23.0662 11.77C13.0347 11.77 4.90273 17.1762 4.90273 23.845Z" fill="#FFC01E"/>
<g filter="url(#filter0_d_1535_1928)">
<path d="M75.9515 34.4419C68.6475 36.6667 54.77 37.0609 44.1092 34.6891C34.8002 36.1913 17.7653 36.9962 13.0874 34.4419C13.8968 64.9865 73.6808 66.4418 75.9403 35.9314C75.9763 35.4419 76.0336 34.9363 75.9515 34.4419Z" fill="#FBE9BB"/>
</g>
<path d="M62.1876 36.1564C56.7952 36.156 52.1292 35.8773 46.0269 35.1949C44.6804 35.0445 43.2962 35.0212 41.9385 35.1337C33.9788 35.7927 29.3785 36.2106 20.4323 36.1564C17.2192 35.9596 14.9615 35.5253 12.9229 34.8125C37.7606 59.3471 51.5706 58.8887 75.9933 34.7725C71.8996 35.9494 66.9185 36.1565 62.1876 36.1564Z" fill="#413621"/>
<path fill-rule="evenodd" clip-rule="evenodd" d="M59.0761 48.5686C48.6465 42.3524 40.0236 42.5204 29.8403 48.5686C40.2699 54.6462 48.8929 54.482 59.0761 48.5686Z" fill="#EB8884"/>
<path d="M79.6209 33.3154C75.1207 35.7953 68.4363 36.1567 62.188 36.1563C56.7957 36.156 52.1296 35.8773 46.0274 35.1949C44.6809 35.0444 43.2966 35.0211 41.939 35.1336C33.9793 35.7927 29.3789 36.2105 20.4328 36.1563C15.3883 35.8475 12.6991 34.953 9.51465 33.3154" stroke="#5B4B22" stroke-width="2" stroke-linecap="round"/>
<path d="M54.313 24.5528C64.3951 19.3043 67.4334 19.3794 77.3074 24.5528" stroke="#5B4B22" stroke-width="5" stroke-linecap="round"/>
<path d="M35.9173 24.5523C25.835 19.3045 22.7968 19.3795 12.9229 24.5523" stroke="#5B4B22" stroke-width="5" stroke-linecap="round"/>
<path d="M78.7194 9.19826C72.9471 7.51103 68.5166 5.61576 63.9089 1.91287C61.4402 -0.0709867 57.5893 1.20643 56.9872 4.45609C56.5431 6.85227 58.1729 9.08103 60.4778 9.22945L78.5208 10.3913C79.1735 10.4334 79.347 9.38169 78.7194 9.19826Z" fill="#333333"/>
<path d="M9.30497 9.01357C15.1059 7.42738 19.569 5.60979 24.2408 1.98805C26.7437 0.047698 30.5718 1.39198 31.1171 4.65142C31.5194 7.05481 29.8508 9.25465 27.5436 9.36284L9.48264 10.2098C8.82936 10.2404 8.67425 9.18602 9.30497 9.01357Z" fill="#333333"/>
<path d="M84.6827 40.2734C85.1776 40.2734 85.5789 39.8965 85.5789 39.4315C85.5789 38.9667 85.1776 38.5898 84.6827 38.5898C84.1879 38.5898 83.7866 38.9667 83.7866 39.4315C83.7866 39.8965 84.1879 40.2734 84.6827 40.2734Z" fill="#5B4B22"/>
<path d="M80.202 43.6412C80.6968 43.6412 81.0981 43.2642 81.0981 42.7994C81.0981 42.3345 80.6968 41.9575 80.202 41.9575C79.7069 41.9575 79.3057 42.3345 79.3057 42.7994C79.3057 43.2642 79.7069 43.6412 80.202 43.6412Z" fill="#5B4B22"/>
<path d="M79.3053 39.4317C79.8003 39.4317 80.2016 39.0547 80.2016 38.5899C80.2016 38.1249 79.8003 37.748 79.3053 37.748C78.8104 37.748 78.4092 38.1249 78.4092 38.5899C78.4092 39.0547 78.8104 39.4317 79.3053 39.4317Z" fill="#5B4B22"/>
<path d="M11.196 40.2734C11.6909 40.2734 12.0922 39.8965 12.0922 39.4315C12.0922 38.9667 11.6909 38.5898 11.196 38.5898C10.701 38.5898 10.2998 38.9667 10.2998 39.4315C10.2998 39.8965 10.701 40.2734 11.196 40.2734Z" fill="#5B4B22"/>
<path d="M6.71502 43.6412C7.20998 43.6412 7.6112 43.2642 7.6112 42.7994C7.6112 42.3345 7.20998 41.9575 6.71502 41.9575C6.22008 41.9575 5.81885 42.3345 5.81885 42.7994C5.81885 43.2642 6.22008 43.6412 6.71502 43.6412Z" fill="#5B4B22"/>
<path d="M5.81903 39.4317C6.31398 39.4317 6.7152 39.0547 6.7152 38.5899C6.7152 38.1249 6.31398 37.748 5.81903 37.748C5.32409 37.748 4.92285 38.1249 4.92285 38.5899C4.92285 39.0547 5.32409 39.4317 5.81903 39.4317Z" fill="#5B4B22"/>
<defs>
<filter id="filter0_d_1535_1928" x="3.0874" y="26.4419" width="82.9062" height="43.6538" filterUnits="userSpaceOnUse" color-interpolation-filters="sRGB">
<feFlood flood-opacity="0" result="BackgroundImageFix"/>
<feColorMatrix in="SourceAlpha" type="matrix" values="0 0 0 0 0 0 0 0 0 0 0 0 0 0 0 0 0 0 127 0" result="hardAlpha"/>
<feOffset dy="2"/>
<feGaussianBlur stdDeviation="5"/>
<feComposite in2="hardAlpha" operator="out"/>
<feColorMatrix type="matrix" values="0 0 0 0 0 0 0 0 0 0 0 0 0 0 0 0 0 0 0.05 0"/>
<feBlend mode="normal" in2="BackgroundImageFix" result="effect1_dropShadow_1535_1928"/>
<feBlend mode="normal" in="SourceGraphic" in2="effect1_dropShadow_1535_1928" result="shape"/>
</filter>
</defs>
</svg>
