<svg width="66" height="51" viewBox="0 0 66 51" fill="none" xmlns="http://www.w3.org/2000/svg">
<path d="M9.31402 1.92331C7.83364 2.91599 6.29159 4.77727 5.79813 5.89403C4.81122 8.37572 4.62617 16.2551 5.61308 18.0543C6.22991 19.2952 5.36636 23.5141 4.25607 24.1965C4.00935 24.3827 2.96075 25.6235 1.91215 26.9264C0.246729 29.0358 0 29.8424 0 33.1927C0 36.4809 0.246729 37.3495 1.7271 39.2728C5.61308 44.1742 11.4729 47.4004 18.628 48.6412C20.8486 49.0135 22.9458 49.5719 23.1925 49.82C23.8093 50.3784 42.1907 50.3784 42.8075 49.82C43.0542 49.5719 45.1514 49.0135 47.372 48.6412C54.5271 47.4004 60.3869 44.1742 64.2729 39.2728C65.7533 37.3495 66 36.4809 66 33.1927C66 29.8424 65.7533 29.0358 64.0878 26.9264C63.0392 25.6235 61.9907 24.3827 61.7439 24.1965C60.6336 23.5141 59.7701 19.2952 60.3869 18.0543C61.3738 16.2551 61.1888 8.37572 60.2019 5.89403C59.7084 4.77727 58.1664 2.91599 56.686 1.92331C54.3421 0.186127 53.6636 0 49.5308 0C45.7065 0 44.4729 0.248173 42.2523 1.55106C40.772 2.41965 39.415 3.53642 39.2299 4.03276C38.7364 5.39769 27.2636 5.39769 26.7701 4.03276C26.585 3.53642 25.228 2.41965 23.7477 1.55106C21.5271 0.248173 20.2935 0 16.4692 0C12.3364 0 11.6579 0.186127 9.31402 1.92331ZM20.4785 7.13487C20.9103 7.69326 21.6505 8.49981 22.0822 8.99615C22.9458 9.98882 23.0692 14.8902 22.2056 14.8902C21.8972 14.8902 21.5888 15.3245 21.5888 15.8208C21.5888 17.62 17.3944 18.6127 13.8168 17.62C10.8561 16.8135 10.0542 10.299 12.6449 7.7553C14.4336 5.89403 19.1832 5.58382 20.4785 7.13487ZM53.3551 7.7553C55.9458 10.299 55.1439 16.8135 52.1832 17.62C48.6056 18.6127 44.4112 17.62 44.4112 15.8208C44.4112 15.3245 44.1645 14.8902 43.7944 14.8902C42.9308 14.8902 43.0542 9.98882 43.9794 8.99615C44.3495 8.49981 45.0897 7.69326 45.5215 7.13487C46.8168 5.58382 51.5664 5.89403 53.3551 7.7553ZM15.0505 31.3314C16.0374 32.2 18.0112 33.1927 19.3682 33.5649C20.7869 33.9372 22.2673 34.5576 22.7607 34.9299C23.3159 35.4262 26.8318 35.6744 33 35.6744C39.1682 35.6744 42.6841 35.4262 43.2393 34.9299C43.7327 34.5576 45.2131 33.9372 46.6318 33.5649C47.9888 33.1927 49.9626 32.2 50.9495 31.3314C53.1084 29.4701 54.8972 29.284 54.8972 30.9591C54.8972 32.0139 53.8486 32.9445 49.9626 35.3021C45.0897 38.2181 36.4542 39.7071 28.5589 38.9626C21.5271 38.3422 11.1028 33.5029 11.1028 30.8971C11.1028 29.284 12.9533 29.4701 15.0505 31.3314Z" fill="#FEC701"/>
<path d="M14.1869 14.9522L16.7776 14.7661C19.615 14.58 20.1701 13.7114 19.4916 10.7954C19.1832 9.55453 18.7514 9.30636 16.6542 9.30636H14.1869V14.9522Z" fill="#FEC701"/>
<path d="M46.5084 10.7954C45.8299 13.7114 46.385 14.58 49.2224 14.7661L51.8131 14.9522V9.30636H49.3458C47.2486 9.30636 46.8168 9.55453 46.5084 10.7954Z" fill="#FEC701"/>
</svg>
