<svg width="114" height="108" viewBox="0 0 114 108" fill="none" xmlns="http://www.w3.org/2000/svg">
<path d="M83.7806 21.1582L87.8431 18.8145C89.4837 17.877 91.4759 19.2832 91.0853 21.0801L85.7337 46.041C85.4603 47.291 84.1712 48.0332 82.9603 47.6426L58.6244 39.9473C58.2232 39.8205 57.8676 39.5797 57.6009 39.2544C57.3342 38.929 57.168 38.533 57.1224 38.1148C57.0769 37.6965 57.154 37.2741 57.3444 36.8989C57.5348 36.5238 57.8302 36.2121 58.1947 36.002L63.0775 33.1504L58.9213 25.998L48.1517 43.0723C46.8627 45.1035 44.2064 45.7285 42.1752 44.4395L29.2064 36.2754C27.1752 34.9863 26.5502 32.3301 27.8392 30.2988L42.4017 7.20898C42.4275 7.16714 42.4535 7.12547 42.4799 7.08398L42.6439 6.82227L42.6908 6.7832C43.6478 5.47669 44.899 4.41393 46.3432 3.68099C47.7873 2.94806 49.3838 2.56555 51.0033 2.56445H67.058C70.7299 2.56445 74.1674 4.51758 76.0033 7.7207L83.7806 21.1582ZM35.9291 45.0254L42.4135 69.7129C42.8822 71.5098 40.9681 73.0723 39.3275 72.1738L34.3275 69.5566L30.4877 76.8613H50.4994C52.8822 76.8613 54.8353 78.8144 54.8353 81.1973V96.5488C54.8353 98.9316 52.8822 100.885 50.4994 100.885H23.0189C23.1908 100.912 23.3666 100.924 23.5424 100.924C19.9877 100.924 16.6674 99.127 14.7924 96.1191L6.19861 82.5254C4.20643 79.4004 4.05017 75.4941 5.76892 72.2129L12.9564 58.4629L8.8158 56.2754C8.44727 56.0737 8.14424 55.7706 7.94256 55.402C7.74087 55.0335 7.64898 54.6149 7.67774 54.1957C7.70651 53.7766 7.85473 53.3744 8.10487 53.0369C8.35501 52.6993 8.69661 52.4405 9.08924 52.291L33.0736 43.541C34.2845 43.1113 35.6127 43.7754 35.9252 45.0254M88.2728 76.5137L78.9759 58.623C77.8431 56.4746 78.7025 53.8574 80.8119 52.7637L94.4447 45.6934C96.5931 44.5605 99.2103 45.4199 100.304 47.5293L113.077 72.1777L113.089 72.2793C114.382 75.2871 114.195 78.7246 112.531 81.5488L104.406 95.416C103.485 96.979 102.171 98.2737 100.595 99.1714C99.0189 100.069 97.2352 100.539 95.4212 100.533L79.8744 100.455V105.143C79.8744 107.057 77.6478 108.033 76.2416 106.744L57.4134 89.5176C57.1918 89.3138 57.0149 89.0662 56.8939 88.7905C56.7729 88.5149 56.7104 88.2171 56.7104 87.916C56.7104 87.6149 56.7729 87.3172 56.8939 87.0415C57.0149 86.7658 57.1918 86.5182 57.4134 86.3145L76.3588 69.2051C77.765 67.916 79.9916 68.9316 79.9916 70.8066L79.9525 76.4707L88.2728 76.5137Z" fill="#F89701"/>
<path d="M79.1971 18.6562L83.2596 16.3125C84.9003 15.375 86.8924 16.7812 86.5018 18.5781L81.1503 43.5391C80.8768 44.7891 79.5878 45.5312 78.3768 45.1406L54.0409 37.4453C53.6397 37.3185 53.2841 37.0778 53.0174 36.7524C52.7507 36.427 52.5845 36.0311 52.5389 35.6128C52.4934 35.1946 52.5705 34.7721 52.7609 34.397C52.9513 34.0218 53.2467 33.7102 53.6112 33.5L58.494 30.6484L54.3378 23.4961L43.5682 40.5703C42.2792 42.6016 39.6229 43.2266 37.5917 41.9375L24.6229 33.7734C22.5917 32.4844 21.9667 29.8281 23.2557 27.7969L37.8182 4.70703C37.844 4.66518 37.87 4.62352 37.8964 4.58203L38.0604 4.32031L38.1073 4.28125C39.0643 2.97474 40.3155 1.91198 41.7597 1.17904C43.2038 0.446104 44.8003 0.0635976 46.4198 0.0625H62.4745C66.1464 0.0625 69.5839 2.01563 71.4198 5.21875L79.1971 18.6562ZM31.3456 42.5234L37.83 67.2109C38.2987 69.0078 36.3846 70.5703 34.744 69.6719L29.744 67.0547L25.9042 74.3594H45.9159C48.2987 74.3594 50.2518 76.3125 50.2518 78.6953V94.0469C50.2518 96.4297 48.2987 98.3828 45.9159 98.3828H18.4354C18.6073 98.4101 18.7831 98.4219 18.9589 98.4219C15.4042 98.4219 12.0839 96.625 10.2089 93.6172L1.61512 80.0234C-0.377071 76.8984 -0.533321 72.9922 1.18543 69.7109L8.37293 55.9609L4.2323 53.7734C3.86378 53.5717 3.56074 53.2686 3.35906 52.9001C3.15738 52.5315 3.06548 52.1129 3.09425 51.6938C3.12301 51.2746 3.27123 50.8725 3.52137 50.5349C3.77152 50.1974 4.11311 49.9386 4.50574 49.7891L28.4901 41.0391C29.7011 40.6094 31.0292 41.2734 31.3417 42.5234M83.6893 74.0117L74.3925 56.1211C73.2596 53.9726 74.119 51.3555 76.2284 50.2617L89.8612 43.1914C92.0096 42.0586 94.6268 42.918 95.7206 45.0273L108.494 69.6758L108.506 69.7773C109.799 72.7851 109.611 76.2226 107.947 79.0469L99.8221 92.9141C98.9015 94.477 97.5878 95.7717 96.0116 96.6695C94.4354 97.5672 92.6517 98.0367 90.8378 98.0312L75.2909 97.9531V102.641C75.2909 104.555 73.0643 105.531 71.6581 104.242L52.83 87.0156C52.6083 86.8118 52.4314 86.5643 52.3104 86.2886C52.1894 86.0129 52.1269 85.7151 52.1269 85.4141C52.1269 85.113 52.1894 84.8152 52.3104 84.5395C52.4314 84.2638 52.6083 84.0163 52.83 83.8125L71.7753 66.7031C73.1815 65.4141 75.4081 66.4297 75.4081 68.3047L75.369 73.9687L83.6893 74.0117Z" fill="#FEE333"/>
</svg>
