<svg width="78" height="77" viewBox="0 0 78 77" fill="none" xmlns="http://www.w3.org/2000/svg">
<path d="M26.6669 33.3128C30.1907 38.0144 31.5918 33.6941 28.4637 28.7204C25.0876 23.3525 24.147 16.925 31.3336 11.5351C34.5193 9.14576 43.778 6.86843 51.5557 14.6462C54.5206 17.6111 53.5313 20.5542 46.8891 25.535C42.1869 29.0593 46.508 30.4611 51.4823 27.3326C56.85 23.9566 63.2771 23.0155 68.6668 30.2017C71.0561 33.3906 73.3334 42.6461 65.5557 50.4239C62.5908 53.3887 59.6477 52.3994 54.6668 45.7572C51.1409 41.0576 49.7415 45.3757 52.8697 50.3489C56.2461 55.717 57.1871 62.1448 50.0002 67.5349C46.8113 69.9274 37.5558 72.2016 29.778 64.4238C26.8131 61.4589 27.8025 58.5189 34.4447 53.535C39.1468 50.012 34.8261 48.6099 29.8526 51.738C24.4846 55.1143 18.057 56.055 12.667 48.8683C10.2776 45.6825 8.0003 36.4239 15.7781 28.6461C18.7429 25.6813 21.686 26.6706 26.6669 33.3128Z" fill="#417932"/>
<path d="M23.3334 31.2454C26.8572 35.9471 28.2583 31.6267 25.1301 26.653C21.754 21.2851 20.8134 14.8576 28 9.4677C31.1858 7.07838 40.4444 4.80105 48.2222 12.5788C51.1871 15.5437 50.1978 18.4868 43.5555 23.4677C38.8533 26.9919 43.1745 28.3937 48.1488 25.2652C53.5165 21.8892 59.9436 20.9481 65.3333 28.1343C67.7226 31.3232 69.9999 40.5787 62.2222 48.3565C59.2573 51.3214 56.3142 50.332 51.3333 43.6898C47.8074 38.9902 46.408 43.3083 49.5361 48.2815C52.9126 53.6496 53.8535 60.0774 46.6666 65.4675C43.4778 67.86 34.2222 70.1342 26.4445 62.3564C23.4796 59.3916 24.4689 56.4516 31.1111 51.4676C35.8133 47.9447 31.4926 46.5425 26.5191 49.6706C21.1511 53.0469 14.7235 53.9876 9.33343 46.8009C6.9441 43.6152 4.66677 34.3565 12.4445 26.5788C15.4094 23.6139 18.3525 24.6032 23.3334 31.2454Z" fill="#61D243"/>
</svg>
