<svg width="710" height="256" viewBox="0 0 710 256" fill="none" xmlns="http://www.w3.org/2000/svg">
<rect y="72" width="710" height="184" rx="30" fill="#C6F0AC"/>
<path fill-rule="evenodd" clip-rule="evenodd" d="M218.635 139.795C218.249 138.735 216.751 138.735 216.365 139.795L214.612 144.612L209.795 146.365C208.735 146.751 208.735 148.249 209.795 148.635L214.612 150.388L216.365 155.205C216.751 156.265 218.249 156.265 218.635 155.205L220.388 150.388L225.205 148.635C226.265 148.249 226.265 146.751 225.205 146.365L220.388 144.612L218.635 139.795Z" fill="#2B5121"/>
<path d="M219.37 115.16L215.86 114.41C214.32 114.07 213.24 113.5 212.62 112.7C212.02 111.9 211.72 110.77 211.72 109.31C211.72 107.11 212.3 105.49 213.46 104.45C214.62 103.41 216.45 102.89 218.95 102.89C220.03 102.89 221 102.94 221.86 103.04C222.72 103.12 223.46 103.25 224.08 103.43V108.38C222.66 108.14 221.62 108 220.96 107.96C220.3 107.9 219.62 107.87 218.92 107.87C218.26 107.87 217.78 107.96 217.48 108.14C217.2 108.32 217.06 108.62 217.06 109.04C217.06 109.26 217.11 109.43 217.21 109.55C217.33 109.67 217.53 109.76 217.81 109.82L221.08 110.54C222.1 110.76 222.86 111 223.36 111.26C223.86 111.5 224.26 111.8 224.56 112.16C224.9 112.56 225.14 113.07 225.28 113.69C225.44 114.31 225.52 115.06 225.52 115.94C225.52 118.18 224.92 119.81 223.72 120.83C222.52 121.83 220.67 122.33 218.17 122.33C216.89 122.33 215.65 122.26 214.45 122.12C213.27 121.98 212.39 121.8 211.81 121.58V116.33C212.57 116.57 213.53 116.77 214.69 116.93C215.87 117.09 217.04 117.17 218.2 117.17C218.9 117.17 219.39 117.09 219.67 116.93C219.95 116.77 220.09 116.48 220.09 116.06C220.09 115.78 220.04 115.58 219.94 115.46C219.86 115.34 219.67 115.24 219.37 115.16ZM230.471 122.33C229.031 122.33 227.981 121.95 227.321 121.19C226.661 120.43 226.331 119.24 226.331 117.62C226.331 116.02 226.741 114.88 227.561 114.2C228.401 113.52 229.791 113.18 231.731 113.18C232.191 113.18 232.651 113.2 233.111 113.24C233.591 113.28 234.011 113.33 234.371 113.39V112.64C234.371 112.24 234.181 111.96 233.801 111.8C233.421 111.62 232.801 111.53 231.941 111.53C231.121 111.53 230.371 111.55 229.691 111.59C229.031 111.63 228.361 111.71 227.681 111.83V107.42C228.421 107.24 229.311 107.11 230.351 107.03C231.411 106.93 232.621 106.88 233.981 106.88C235.861 106.88 237.291 107.3 238.271 108.14C239.271 108.96 239.771 110.17 239.771 111.77V122H234.671L234.521 120.83H234.431C233.831 121.33 233.191 121.71 232.511 121.97C231.851 122.21 231.171 122.33 230.471 122.33ZM232.601 116.24C232.081 116.24 231.711 116.32 231.491 116.48C231.291 116.62 231.191 116.89 231.191 117.29C231.191 117.69 231.271 117.97 231.431 118.13C231.611 118.27 231.911 118.34 232.331 118.34C232.671 118.34 233.021 118.31 233.381 118.25C233.761 118.17 234.091 118.07 234.371 117.95V116.36C234.091 116.32 233.801 116.29 233.501 116.27C233.221 116.25 232.921 116.24 232.601 116.24ZM247.127 102.05V122H241.727V102.05H247.127ZM250.099 111.65H248.569V107.18H250.309L250.939 103.79H255.499V107.18H259.219V111.65H255.499V116.12C255.499 116.58 255.619 116.89 255.859 117.05C256.119 117.21 256.589 117.29 257.269 117.29C257.569 117.29 257.939 117.27 258.379 117.23C258.819 117.19 259.169 117.14 259.429 117.08V121.73C259.129 121.87 258.579 122 257.779 122.12C256.999 122.26 256.309 122.33 255.709 122.33C253.709 122.33 252.269 121.9 251.389 121.04C250.529 120.18 250.099 118.79 250.099 116.87V111.65ZM275.145 114.59C275.145 117.37 274.565 119.36 273.405 120.56C272.245 121.74 270.315 122.33 267.615 122.33C264.955 122.33 263.035 121.73 261.855 120.53C260.695 119.31 260.115 117.33 260.115 114.59C260.115 111.83 260.685 109.86 261.825 108.68C262.985 107.48 264.915 106.88 267.615 106.88C270.295 106.88 272.215 107.48 273.375 108.68C274.555 109.88 275.145 111.85 275.145 114.59ZM265.515 114.53C265.515 115.69 265.645 116.45 265.905 116.81C266.165 117.15 266.735 117.32 267.615 117.32C268.515 117.32 269.095 117.15 269.355 116.81C269.615 116.45 269.745 115.69 269.745 114.53C269.745 113.37 269.615 112.62 269.355 112.28C269.095 111.92 268.515 111.74 267.615 111.74C266.735 111.74 266.165 111.92 265.905 112.28C265.645 112.62 265.515 113.37 265.515 114.53ZM294.853 103.19V108.23H290.233V122H284.653V108.23H280.003V103.19H294.853ZM307.062 117.17V121.28C306.502 121.56 305.632 121.8 304.452 122C303.292 122.22 302.082 122.33 300.822 122.33C298.402 122.33 296.652 121.73 295.572 120.53C294.512 119.31 293.982 117.34 293.982 114.62C293.982 111.96 294.552 110.01 295.692 108.77C296.852 107.51 298.652 106.88 301.092 106.88C303.452 106.88 305.142 107.35 306.162 108.29C307.182 109.21 307.692 110.79 307.692 113.03C307.692 113.71 307.682 114.26 307.662 114.68C307.642 115.08 307.602 115.54 307.542 116.06H299.322C299.342 116.7 299.522 117.14 299.862 117.38C300.202 117.6 300.812 117.71 301.692 117.71C302.652 117.71 303.632 117.66 304.632 117.56C305.652 117.44 306.462 117.31 307.062 117.17ZM301.152 111.14C300.472 111.14 299.992 111.28 299.712 111.56C299.452 111.82 299.322 112.35 299.322 113.15H302.892V112.46C302.852 111.94 302.712 111.59 302.472 111.41C302.252 111.23 301.812 111.14 301.152 111.14ZM320.625 116.78V121.22C320.125 121.52 319.315 121.78 318.195 122C317.095 122.22 315.965 122.33 314.805 122.33C312.625 122.33 311.095 121.76 310.215 120.62C309.335 119.46 308.895 117.45 308.895 114.59C308.895 111.71 309.455 109.71 310.575 108.59C311.715 107.45 313.715 106.88 316.575 106.88C317.175 106.88 317.725 106.9 318.225 106.94C318.725 106.96 319.395 107.02 320.235 107.12V111.86C320.215 111.86 319.815 111.84 319.035 111.8C318.255 111.76 317.455 111.74 316.635 111.74C315.615 111.74 314.965 111.9 314.685 112.22C314.425 112.54 314.295 113.33 314.295 114.59C314.295 115.73 314.415 116.47 314.655 116.81C314.895 117.13 315.415 117.29 316.215 117.29C316.955 117.29 317.725 117.24 318.525 117.14C319.325 117.04 320.025 116.92 320.625 116.78ZM327.518 122H322.118V107.18H326.768L326.978 108.74H327.098C327.698 108.1 328.358 107.63 329.078 107.33C329.798 107.03 330.648 106.88 331.628 106.88C333.188 106.88 334.368 107.29 335.168 108.11C335.968 108.93 336.368 110.14 336.368 111.74V122H330.968V112.85C330.968 112.49 330.838 112.22 330.578 112.04C330.338 111.84 329.968 111.74 329.468 111.74C329.128 111.74 328.798 111.78 328.478 111.86C328.158 111.92 327.838 112.02 327.518 112.16V122ZM352.928 114.59C352.928 117.37 352.348 119.36 351.188 120.56C350.028 121.74 348.098 122.33 345.398 122.33C342.738 122.33 340.818 121.73 339.638 120.53C338.478 119.31 337.898 117.33 337.898 114.59C337.898 111.83 338.468 109.86 339.608 108.68C340.768 107.48 342.698 106.88 345.398 106.88C348.078 106.88 349.998 107.48 351.158 108.68C352.338 109.88 352.928 111.85 352.928 114.59ZM343.298 114.53C343.298 115.69 343.428 116.45 343.688 116.81C343.948 117.15 344.518 117.32 345.398 117.32C346.298 117.32 346.878 117.15 347.138 116.81C347.398 116.45 347.528 115.69 347.528 114.53C347.528 113.37 347.398 112.62 347.138 112.28C346.878 111.92 346.298 111.74 345.398 111.74C344.518 111.74 343.948 111.92 343.688 112.28C343.428 112.62 343.298 113.37 343.298 114.53ZM359.92 102.05V122H354.52V102.05H359.92ZM376.512 114.59C376.512 117.37 375.932 119.36 374.772 120.56C373.612 121.74 371.682 122.33 368.982 122.33C366.322 122.33 364.402 121.73 363.222 120.53C362.062 119.31 361.482 117.33 361.482 114.59C361.482 111.83 362.052 109.86 363.192 108.68C364.352 107.48 366.282 106.88 368.982 106.88C371.662 106.88 373.582 107.48 374.742 108.68C375.922 109.88 376.512 111.85 376.512 114.59ZM366.882 114.53C366.882 115.69 367.012 116.45 367.272 116.81C367.532 117.15 368.102 117.32 368.982 117.32C369.882 117.32 370.462 117.15 370.722 116.81C370.982 116.45 371.112 115.69 371.112 114.53C371.112 113.37 370.982 112.62 370.722 112.28C370.462 111.92 369.882 111.74 368.982 111.74C368.102 111.74 367.532 111.92 367.272 112.28C367.012 112.62 366.882 113.37 366.882 114.53ZM369.012 101.66H374.592L369.942 105.74H365.832L369.012 101.66ZM385.004 126.86C383.924 126.86 382.884 126.79 381.884 126.65C380.884 126.51 380.074 126.33 379.454 126.11V121.7C379.954 121.82 380.694 121.92 381.674 122C382.674 122.1 383.654 122.15 384.614 122.15C385.494 122.15 386.094 122.04 386.414 121.82C386.734 121.58 386.914 121.16 386.954 120.56V119.75C386.254 120.07 385.554 120.32 384.854 120.5C384.174 120.66 383.514 120.74 382.874 120.74C380.974 120.74 379.634 120.23 378.854 119.21C378.074 118.17 377.684 116.41 377.684 113.93C377.684 111.41 378.264 109.61 379.424 108.53C380.604 107.43 382.534 106.88 385.214 106.88C386.314 106.88 387.604 106.94 389.084 107.06C390.584 107.18 391.674 107.31 392.354 107.45V118.82C392.354 121.8 391.814 123.88 390.734 125.06C389.654 126.26 387.744 126.86 385.004 126.86ZM385.094 111.68C384.174 111.68 383.594 111.8 383.354 112.04C383.114 112.28 382.994 112.9 382.994 113.9C382.994 114.82 383.094 115.4 383.294 115.64C383.514 115.88 383.994 116 384.734 116C385.054 116 385.404 115.97 385.784 115.91C386.164 115.83 386.554 115.72 386.954 115.58V111.8C386.574 111.76 386.234 111.73 385.934 111.71C385.654 111.69 385.374 111.68 385.094 111.68ZM399.824 105.95H394.274V102.05H399.824V105.95ZM399.764 122H394.364V107.18H399.764V122ZM413.086 116.78V121.22C412.586 121.52 411.776 121.78 410.656 122C409.556 122.22 408.426 122.33 407.266 122.33C405.086 122.33 403.556 121.76 402.676 120.62C401.796 119.46 401.356 117.45 401.356 114.59C401.356 111.71 401.916 109.71 403.036 108.59C404.176 107.45 406.176 106.88 409.036 106.88C409.636 106.88 410.186 106.9 410.686 106.94C411.186 106.96 411.856 107.02 412.696 107.12V111.86C412.676 111.86 412.276 111.84 411.496 111.8C410.716 111.76 409.916 111.74 409.096 111.74C408.076 111.74 407.426 111.9 407.146 112.22C406.886 112.54 406.756 113.33 406.756 114.59C406.756 115.73 406.876 116.47 407.116 116.81C407.356 117.13 407.876 117.29 408.676 117.29C409.416 117.29 410.186 117.24 410.986 117.14C411.786 117.04 412.486 116.92 413.086 116.78ZM429.129 114.59C429.129 117.37 428.549 119.36 427.389 120.56C426.229 121.74 424.299 122.33 421.599 122.33C418.939 122.33 417.019 121.73 415.839 120.53C414.679 119.31 414.099 117.33 414.099 114.59C414.099 111.83 414.669 109.86 415.809 108.68C416.969 107.48 418.899 106.88 421.599 106.88C424.279 106.88 426.199 107.48 427.359 108.68C428.539 109.88 429.129 111.85 429.129 114.59ZM419.499 114.53C419.499 115.69 419.629 116.45 419.889 116.81C420.149 117.15 420.719 117.32 421.599 117.32C422.499 117.32 423.079 117.15 423.339 116.81C423.599 116.45 423.729 115.69 423.729 114.53C423.729 113.37 423.599 112.62 423.339 112.28C423.079 111.92 422.499 111.74 421.599 111.74C420.719 111.74 420.149 111.92 419.889 112.28C419.629 112.62 419.499 113.37 419.499 114.53Z" fill="#2B5121"/>
<path d="M241.55 143.172C242.586 143.172 243.491 143.377 244.266 143.788C245.041 144.199 245.638 144.777 246.058 145.524C246.487 146.261 246.702 147.115 246.702 148.086C246.702 149.047 246.487 149.901 246.058 150.648C245.638 151.395 245.036 151.973 244.252 152.384C243.477 152.795 242.577 153 241.55 153H237.868V143.172H241.55ZM241.396 150.928C242.301 150.928 243.006 150.681 243.51 150.186C244.014 149.691 244.266 148.991 244.266 148.086C244.266 147.181 244.014 146.476 243.51 145.972C243.006 145.468 242.301 145.216 241.396 145.216H240.262V150.928H241.396ZM252.688 153.098C251.764 153.098 250.915 152.883 250.14 152.454C249.375 152.025 248.763 151.427 248.306 150.662C247.858 149.887 247.634 149.019 247.634 148.058C247.634 147.097 247.858 146.233 248.306 145.468C248.763 144.703 249.375 144.105 250.14 143.676C250.915 143.247 251.764 143.032 252.688 143.032C253.612 143.032 254.457 143.247 255.222 143.676C255.997 144.105 256.603 144.703 257.042 145.468C257.49 146.233 257.714 147.097 257.714 148.058C257.714 149.019 257.49 149.887 257.042 150.662C256.594 151.427 255.987 152.025 255.222 152.454C254.457 152.883 253.612 153.098 252.688 153.098ZM252.688 150.914C253.472 150.914 254.097 150.653 254.564 150.13C255.04 149.607 255.278 148.917 255.278 148.058C255.278 147.19 255.04 146.499 254.564 145.986C254.097 145.463 253.472 145.202 252.688 145.202C251.895 145.202 251.26 145.459 250.784 145.972C250.317 146.485 250.084 147.181 250.084 148.058C250.084 148.926 250.317 149.621 250.784 150.144C251.26 150.657 251.895 150.914 252.688 150.914ZM261.44 145.09V147.078H264.646V148.926H261.44V151.082H265.066V153H259.046V143.172H265.066V145.09H261.44ZM277.077 146.336C277.077 146.905 276.946 147.428 276.685 147.904C276.423 148.371 276.022 148.749 275.481 149.038C274.939 149.327 274.267 149.472 273.465 149.472H271.981V153H269.587V143.172H273.465C274.249 143.172 274.911 143.307 275.453 143.578C275.994 143.849 276.4 144.222 276.671 144.698C276.941 145.174 277.077 145.72 277.077 146.336ZM273.283 147.568C273.74 147.568 274.081 147.461 274.305 147.246C274.529 147.031 274.641 146.728 274.641 146.336C274.641 145.944 274.529 145.641 274.305 145.426C274.081 145.211 273.74 145.104 273.283 145.104H271.981V147.568H273.283ZM280.717 145.09V147.078H283.923V148.926H280.717V151.082H284.343V153H278.323V143.172H284.343V145.09H280.717ZM288.291 151.152H291.427V153H285.897V143.172H288.291V151.152ZM298.687 151.264H295.019L294.431 153H291.925L295.481 143.172H298.253L301.809 153H299.275L298.687 151.264ZM298.071 149.416L296.853 145.818L295.649 149.416H298.071ZM313.348 146.336C313.348 146.905 313.218 147.428 312.956 147.904C312.695 148.371 312.294 148.749 311.752 149.038C311.211 149.327 310.539 149.472 309.736 149.472H308.252V153H305.858V143.172H309.736C310.52 143.172 311.183 143.307 311.724 143.578C312.266 143.849 312.672 144.222 312.942 144.698C313.213 145.174 313.348 145.72 313.348 146.336ZM309.554 147.568C310.012 147.568 310.352 147.461 310.576 147.246C310.8 147.031 310.912 146.728 310.912 146.336C310.912 145.944 310.8 145.641 310.576 145.426C310.352 145.211 310.012 145.104 309.554 145.104H308.252V147.568H309.554ZM319.607 153L317.563 149.29H316.989V153H314.595V143.172H318.613C319.387 143.172 320.045 143.307 320.587 143.578C321.137 143.849 321.548 144.222 321.819 144.698C322.089 145.165 322.225 145.687 322.225 146.266C322.225 146.919 322.038 147.503 321.665 148.016C321.301 148.529 320.759 148.893 320.041 149.108L322.309 153H319.607ZM316.989 147.596H318.473C318.911 147.596 319.238 147.489 319.453 147.274C319.677 147.059 319.789 146.756 319.789 146.364C319.789 145.991 319.677 145.697 319.453 145.482C319.238 145.267 318.911 145.16 318.473 145.16H316.989V147.596ZM326.121 143.172V153H323.727V143.172H326.121ZM338.986 143.172V153H336.592V147.106L334.394 153H332.462L330.25 147.092V153H327.856V143.172H330.684L333.442 149.976L336.172 143.172H338.986ZM343.102 145.09V147.078H346.308V148.926H343.102V151.082H346.728V153H340.708V143.172H346.728V145.09H343.102ZM350.676 143.172V153H348.282V143.172H350.676ZM357.423 153L355.379 149.29H354.805V153H352.411V143.172H356.429C357.204 143.172 357.862 143.307 358.403 143.578C358.954 143.849 359.364 144.222 359.635 144.698C359.906 145.165 360.041 145.687 360.041 146.266C360.041 146.919 359.854 147.503 359.481 148.016C359.117 148.529 358.576 148.893 357.857 149.108L360.125 153H357.423ZM354.805 147.596H356.289C356.728 147.596 357.054 147.489 357.269 147.274C357.493 147.059 357.605 146.756 357.605 146.364C357.605 145.991 357.493 145.697 357.269 145.482C357.054 145.267 356.728 145.16 356.289 145.16H354.805V147.596ZM367.662 151.264H363.994L363.406 153H360.9L364.456 143.172H367.228L370.784 153H368.25L367.662 151.264ZM367.046 149.416L365.828 145.818L364.624 149.416H367.046ZM384.059 143.172L380.573 153H377.577L374.091 143.172H376.639L379.075 150.592L381.525 143.172H384.059ZM387.453 145.09V147.078H390.659V148.926H387.453V151.082H391.079V153H385.059V143.172H391.079V145.09H387.453ZM395.182 151.04H399.41V153H392.466V151.18L396.666 145.132H392.466V143.172H399.41V144.992L395.182 151.04Z" fill="#2B5121"/>
<path d="M216.134 183.185C217.392 183.185 218.491 183.429 219.432 183.916C220.384 184.392 221.115 185.083 221.625 185.99C222.146 186.885 222.407 187.934 222.407 189.135C222.407 190.336 222.146 191.379 221.625 192.263C221.115 193.147 220.384 193.827 219.432 194.303C218.491 194.768 217.392 195 216.134 195H212.275V183.185H216.134ZM216.134 193.419C217.517 193.419 218.576 193.045 219.313 192.297C220.05 191.549 220.418 190.495 220.418 189.135C220.418 187.764 220.05 186.693 219.313 185.922C218.576 185.151 217.517 184.766 216.134 184.766H214.213V193.419H216.134ZM223.682 190.274C223.682 189.333 223.874 188.5 224.26 187.775C224.656 187.05 225.189 186.489 225.858 186.092C226.538 185.684 227.286 185.48 228.102 185.48C228.838 185.48 229.479 185.627 230.023 185.922C230.578 186.205 231.02 186.562 231.349 186.993V185.633H233.304V195H231.349V193.606C231.02 194.048 230.572 194.416 230.006 194.711C229.439 195.006 228.793 195.153 228.068 195.153C227.263 195.153 226.526 194.949 225.858 194.541C225.189 194.122 224.656 193.544 224.26 192.807C223.874 192.059 223.682 191.215 223.682 190.274ZM231.349 190.308C231.349 189.662 231.213 189.101 230.941 188.625C230.68 188.149 230.334 187.786 229.904 187.537C229.473 187.288 229.008 187.163 228.51 187.163C228.011 187.163 227.546 187.288 227.116 187.537C226.685 187.775 226.334 188.132 226.062 188.608C225.801 189.073 225.671 189.628 225.671 190.274C225.671 190.92 225.801 191.487 226.062 191.974C226.334 192.461 226.685 192.835 227.116 193.096C227.558 193.345 228.022 193.47 228.51 193.47C229.008 193.47 229.473 193.345 229.904 193.096C230.334 192.847 230.68 192.484 230.941 192.008C231.213 191.521 231.349 190.954 231.349 190.308ZM240.575 185.48C241.312 185.48 241.969 185.633 242.547 185.939C243.137 186.245 243.596 186.698 243.924 187.299C244.253 187.9 244.417 188.625 244.417 189.475V195H242.496V189.764C242.496 188.925 242.287 188.285 241.867 187.843C241.448 187.39 240.876 187.163 240.15 187.163C239.425 187.163 238.847 187.39 238.416 187.843C237.997 188.285 237.787 188.925 237.787 189.764V195H235.849V185.633H237.787V186.704C238.105 186.319 238.507 186.018 238.994 185.803C239.493 185.588 240.02 185.48 240.575 185.48ZM246.243 190.274C246.243 189.333 246.436 188.5 246.821 187.775C247.218 187.05 247.751 186.489 248.419 186.092C249.099 185.684 249.853 185.48 250.68 185.48C251.292 185.48 251.893 185.616 252.482 185.888C253.083 186.149 253.559 186.5 253.91 186.942V182.42H255.865V195H253.91V193.589C253.593 194.042 253.151 194.416 252.584 194.711C252.029 195.006 251.389 195.153 250.663 195.153C249.847 195.153 249.099 194.949 248.419 194.541C247.751 194.122 247.218 193.544 246.821 192.807C246.436 192.059 246.243 191.215 246.243 190.274ZM253.91 190.308C253.91 189.662 253.774 189.101 253.502 188.625C253.242 188.149 252.896 187.786 252.465 187.537C252.035 187.288 251.57 187.163 251.071 187.163C250.573 187.163 250.108 187.288 249.677 187.537C249.247 187.775 248.895 188.132 248.623 188.608C248.363 189.073 248.232 189.628 248.232 190.274C248.232 190.92 248.363 191.487 248.623 191.974C248.895 192.461 249.247 192.835 249.677 193.096C250.119 193.345 250.584 193.47 251.071 193.47C251.57 193.47 252.035 193.345 252.465 193.096C252.896 192.847 253.242 192.484 253.502 192.008C253.774 191.521 253.91 190.954 253.91 190.308ZM262.474 195.153C261.59 195.153 260.791 194.955 260.077 194.558C259.363 194.15 258.802 193.583 258.394 192.858C257.986 192.121 257.782 191.271 257.782 190.308C257.782 189.356 257.991 188.512 258.411 187.775C258.83 187.038 259.402 186.472 260.128 186.075C260.853 185.678 261.663 185.48 262.559 185.48C263.454 185.48 264.264 185.678 264.99 186.075C265.715 186.472 266.287 187.038 266.707 187.775C267.126 188.512 267.336 189.356 267.336 190.308C267.336 191.26 267.12 192.104 266.69 192.841C266.259 193.578 265.67 194.15 264.922 194.558C264.185 194.955 263.369 195.153 262.474 195.153ZM262.474 193.47C262.972 193.47 263.437 193.351 263.868 193.113C264.31 192.875 264.667 192.518 264.939 192.042C265.211 191.566 265.347 190.988 265.347 190.308C265.347 189.628 265.216 189.056 264.956 188.591C264.695 188.115 264.349 187.758 263.919 187.52C263.488 187.282 263.023 187.163 262.525 187.163C262.026 187.163 261.561 187.282 261.131 187.52C260.711 187.758 260.377 188.115 260.128 188.591C259.878 189.056 259.754 189.628 259.754 190.308C259.754 191.317 260.009 192.099 260.519 192.654C261.04 193.198 261.692 193.47 262.474 193.47ZM277.442 185.48C278.167 185.48 278.807 185.627 279.363 185.922C279.929 186.205 280.371 186.562 280.689 186.993V185.633H282.644V195.153C282.644 196.014 282.462 196.779 282.1 197.448C281.737 198.128 281.21 198.661 280.519 199.046C279.839 199.431 279.023 199.624 278.071 199.624C276.801 199.624 275.747 199.324 274.909 198.723C274.07 198.134 273.594 197.329 273.481 196.309H275.402C275.549 196.796 275.861 197.187 276.337 197.482C276.824 197.788 277.402 197.941 278.071 197.941C278.853 197.941 279.482 197.703 279.958 197.227C280.445 196.751 280.689 196.06 280.689 195.153V193.589C280.36 194.031 279.912 194.405 279.346 194.711C278.79 195.006 278.156 195.153 277.442 195.153C276.626 195.153 275.878 194.949 275.198 194.541C274.529 194.122 273.996 193.544 273.6 192.807C273.214 192.059 273.022 191.215 273.022 190.274C273.022 189.333 273.214 188.5 273.6 187.775C273.996 187.05 274.529 186.489 275.198 186.092C275.878 185.684 276.626 185.48 277.442 185.48ZM280.689 190.308C280.689 189.662 280.553 189.101 280.281 188.625C280.02 188.149 279.674 187.786 279.244 187.537C278.813 187.288 278.348 187.163 277.85 187.163C277.351 187.163 276.886 187.288 276.456 187.537C276.025 187.775 275.674 188.132 275.402 188.608C275.141 189.073 275.011 189.628 275.011 190.274C275.011 190.92 275.141 191.487 275.402 191.974C275.674 192.461 276.025 192.835 276.456 193.096C276.898 193.345 277.362 193.47 277.85 193.47C278.348 193.47 278.813 193.345 279.244 193.096C279.674 192.847 280.02 192.484 280.281 192.008C280.553 191.521 280.689 190.954 280.689 190.308ZM287.127 186.993C287.41 186.517 287.784 186.149 288.249 185.888C288.725 185.616 289.286 185.48 289.932 185.48V187.486H289.439C288.68 187.486 288.102 187.679 287.705 188.064C287.32 188.449 287.127 189.118 287.127 190.07V195H285.189V185.633H287.127V186.993ZM291.067 190.274C291.067 189.333 291.26 188.5 291.645 187.775C292.042 187.05 292.575 186.489 293.243 186.092C293.923 185.684 294.671 185.48 295.487 185.48C296.224 185.48 296.864 185.627 297.408 185.922C297.964 186.205 298.406 186.562 298.734 186.993V185.633H300.689V195H298.734V193.606C298.406 194.048 297.958 194.416 297.391 194.711C296.825 195.006 296.179 195.153 295.453 195.153C294.649 195.153 293.912 194.949 293.243 194.541C292.575 194.122 292.042 193.544 291.645 192.807C291.26 192.059 291.067 191.215 291.067 190.274ZM298.734 190.308C298.734 189.662 298.598 189.101 298.326 188.625C298.066 188.149 297.72 187.786 297.289 187.537C296.859 187.288 296.394 187.163 295.895 187.163C295.397 187.163 294.932 187.288 294.501 187.537C294.071 187.775 293.719 188.132 293.447 188.608C293.187 189.073 293.056 189.628 293.056 190.274C293.056 190.92 293.187 191.487 293.447 191.974C293.719 192.461 294.071 192.835 294.501 193.096C294.943 193.345 295.408 193.47 295.895 193.47C296.394 193.47 296.859 193.345 297.289 193.096C297.72 192.847 298.066 192.484 298.326 192.008C298.598 191.521 298.734 190.954 298.734 190.308ZM307.961 185.48C308.698 185.48 309.355 185.633 309.933 185.939C310.522 186.245 310.981 186.698 311.31 187.299C311.639 187.9 311.803 188.625 311.803 189.475V195H309.882V189.764C309.882 188.925 309.672 188.285 309.253 187.843C308.834 187.39 308.261 187.163 307.536 187.163C306.811 187.163 306.233 187.39 305.802 187.843C305.383 188.285 305.173 188.925 305.173 189.764V195H303.235V185.633H305.173V186.704C305.49 186.319 305.893 186.018 306.38 185.803C306.879 185.588 307.406 185.48 307.961 185.48ZM313.629 190.274C313.629 189.333 313.822 188.5 314.207 187.775C314.604 187.05 315.136 186.489 315.805 186.092C316.485 185.684 317.239 185.48 318.066 185.48C318.678 185.48 319.279 185.616 319.868 185.888C320.469 186.149 320.945 186.5 321.296 186.942V182.42H323.251V195H321.296V193.589C320.979 194.042 320.537 194.416 319.97 194.711C319.415 195.006 318.774 195.153 318.049 195.153C317.233 195.153 316.485 194.949 315.805 194.541C315.136 194.122 314.604 193.544 314.207 192.807C313.822 192.059 313.629 191.215 313.629 190.274ZM321.296 190.308C321.296 189.662 321.16 189.101 320.888 188.625C320.627 188.149 320.282 187.786 319.851 187.537C319.42 187.288 318.956 187.163 318.457 187.163C317.958 187.163 317.494 187.288 317.063 187.537C316.632 187.775 316.281 188.132 316.009 188.608C315.748 189.073 315.618 189.628 315.618 190.274C315.618 190.92 315.748 191.487 316.009 191.974C316.281 192.461 316.632 192.835 317.063 193.096C317.505 193.345 317.97 193.47 318.457 193.47C318.956 193.47 319.42 193.345 319.851 193.096C320.282 192.847 320.627 192.484 320.888 192.008C321.16 191.521 321.296 190.954 321.296 190.308ZM334.381 190.087C334.381 190.438 334.359 190.756 334.313 191.039H327.156C327.213 191.787 327.491 192.388 327.989 192.841C328.488 193.294 329.1 193.521 329.825 193.521C330.868 193.521 331.605 193.085 332.035 192.212H334.126C333.843 193.073 333.327 193.782 332.579 194.337C331.843 194.881 330.925 195.153 329.825 195.153C328.93 195.153 328.125 194.955 327.411 194.558C326.709 194.15 326.153 193.583 325.745 192.858C325.349 192.121 325.15 191.271 325.15 190.308C325.15 189.345 325.343 188.5 325.728 187.775C326.125 187.038 326.675 186.472 327.377 186.075C328.091 185.678 328.907 185.48 329.825 185.48C330.709 185.48 331.497 185.673 332.188 186.058C332.88 186.443 333.418 186.987 333.803 187.69C334.189 188.381 334.381 189.18 334.381 190.087ZM332.358 189.475C332.347 188.761 332.092 188.189 331.593 187.758C331.095 187.327 330.477 187.112 329.74 187.112C329.072 187.112 328.499 187.327 328.023 187.758C327.547 188.177 327.264 188.75 327.173 189.475H332.358ZM339.689 195.153C338.952 195.153 338.289 195.023 337.7 194.762C337.122 194.49 336.663 194.127 336.323 193.674C335.983 193.209 335.801 192.694 335.779 192.127H337.785C337.819 192.524 338.006 192.858 338.346 193.13C338.697 193.391 339.133 193.521 339.655 193.521C340.199 193.521 340.618 193.419 340.913 193.215C341.219 193 341.372 192.728 341.372 192.399C341.372 192.048 341.202 191.787 340.862 191.617C340.533 191.447 340.006 191.26 339.281 191.056C338.578 190.863 338.006 190.676 337.564 190.495C337.122 190.314 336.736 190.036 336.408 189.662C336.09 189.288 335.932 188.795 335.932 188.183C335.932 187.684 336.079 187.231 336.374 186.823C336.668 186.404 337.088 186.075 337.632 185.837C338.187 185.599 338.822 185.48 339.536 185.48C340.601 185.48 341.457 185.752 342.103 186.296C342.76 186.829 343.111 187.56 343.157 188.489H341.219C341.185 188.07 341.015 187.735 340.709 187.486C340.403 187.237 339.989 187.112 339.468 187.112C338.958 187.112 338.567 187.208 338.295 187.401C338.023 187.594 337.887 187.849 337.887 188.166C337.887 188.415 337.977 188.625 338.159 188.795C338.34 188.965 338.561 189.101 338.822 189.203C339.082 189.294 339.468 189.413 339.978 189.56C340.658 189.741 341.213 189.928 341.644 190.121C342.086 190.302 342.465 190.574 342.783 190.937C343.1 191.3 343.264 191.781 343.276 192.382C343.276 192.915 343.128 193.391 342.834 193.81C342.539 194.229 342.12 194.558 341.576 194.796C341.043 195.034 340.414 195.153 339.689 195.153ZM353.186 195.153C352.449 195.153 351.786 195.023 351.197 194.762C350.619 194.49 350.16 194.127 349.82 193.674C349.48 193.209 349.298 192.694 349.276 192.127H351.282C351.316 192.524 351.503 192.858 351.843 193.13C352.194 193.391 352.63 193.521 353.152 193.521C353.696 193.521 354.115 193.419 354.41 193.215C354.716 193 354.869 192.728 354.869 192.399C354.869 192.048 354.699 191.787 354.359 191.617C354.03 191.447 353.503 191.26 352.778 191.056C352.075 190.863 351.503 190.676 351.061 190.495C350.619 190.314 350.233 190.036 349.905 189.662C349.587 189.288 349.429 188.795 349.429 188.183C349.429 187.684 349.576 187.231 349.871 186.823C350.165 186.404 350.585 186.075 351.129 185.837C351.684 185.599 352.319 185.48 353.033 185.48C354.098 185.48 354.954 185.752 355.6 186.296C356.257 186.829 356.608 187.56 356.654 188.489H354.716C354.682 188.07 354.512 187.735 354.206 187.486C353.9 187.237 353.486 187.112 352.965 187.112C352.455 187.112 352.064 187.208 351.792 187.401C351.52 187.594 351.384 187.849 351.384 188.166C351.384 188.415 351.474 188.625 351.656 188.795C351.837 188.965 352.058 189.101 352.319 189.203C352.579 189.294 352.965 189.413 353.475 189.56C354.155 189.741 354.71 189.928 355.141 190.121C355.583 190.302 355.962 190.574 356.28 190.937C356.597 191.3 356.761 191.781 356.773 192.382C356.773 192.915 356.625 193.391 356.331 193.81C356.036 194.229 355.617 194.558 355.073 194.796C354.54 195.034 353.911 195.153 353.186 195.153ZM358.221 190.274C358.221 189.333 358.413 188.5 358.799 187.775C359.195 187.05 359.728 186.489 360.397 186.092C361.077 185.684 361.825 185.48 362.641 185.48C363.377 185.48 364.018 185.627 364.562 185.922C365.117 186.205 365.559 186.562 365.888 186.993V185.633H367.843V195H365.888V193.606C365.559 194.048 365.111 194.416 364.545 194.711C363.978 195.006 363.332 195.153 362.607 195.153C361.802 195.153 361.065 194.949 360.397 194.541C359.728 194.122 359.195 193.544 358.799 192.807C358.413 192.059 358.221 191.215 358.221 190.274ZM365.888 190.308C365.888 189.662 365.752 189.101 365.48 188.625C365.219 188.149 364.873 187.786 364.443 187.537C364.012 187.288 363.547 187.163 363.049 187.163C362.55 187.163 362.085 187.288 361.655 187.537C361.224 187.775 360.873 188.132 360.601 188.608C360.34 189.073 360.21 189.628 360.21 190.274C360.21 190.92 360.34 191.487 360.601 191.974C360.873 192.461 361.224 192.835 361.655 193.096C362.097 193.345 362.561 193.47 363.049 193.47C363.547 193.47 364.012 193.345 364.443 193.096C364.873 192.847 365.219 192.484 365.48 192.008C365.752 191.521 365.888 190.954 365.888 190.308ZM372.326 182.42V195H370.388V182.42H372.326ZM377.132 187.214V192.399C377.132 192.75 377.211 193.005 377.37 193.164C377.54 193.311 377.823 193.385 378.22 193.385H379.41V195H377.88C377.007 195 376.338 194.796 375.874 194.388C375.409 193.98 375.177 193.317 375.177 192.399V187.214H374.072V185.633H375.177V183.304H377.132V185.633H379.41V187.214H377.132ZM385.259 195.153C384.375 195.153 383.576 194.955 382.862 194.558C382.148 194.15 381.587 193.583 381.179 192.858C380.771 192.121 380.567 191.271 380.567 190.308C380.567 189.356 380.777 188.512 381.196 187.775C381.615 187.038 382.188 186.472 382.913 186.075C383.638 185.678 384.449 185.48 385.344 185.48C386.239 185.48 387.05 185.678 387.775 186.075C388.5 186.472 389.073 187.038 389.492 187.775C389.911 188.512 390.121 189.356 390.121 190.308C390.121 191.26 389.906 192.104 389.475 192.841C389.044 193.578 388.455 194.15 387.707 194.558C386.97 194.955 386.154 195.153 385.259 195.153ZM385.259 193.47C385.758 193.47 386.222 193.351 386.653 193.113C387.095 192.875 387.452 192.518 387.724 192.042C387.996 191.566 388.132 190.988 388.132 190.308C388.132 189.628 388.002 189.056 387.741 188.591C387.48 188.115 387.135 187.758 386.704 187.52C386.273 187.282 385.809 187.163 385.31 187.163C384.811 187.163 384.347 187.282 383.916 187.52C383.497 187.758 383.162 188.115 382.913 188.591C382.664 189.056 382.539 189.628 382.539 190.308C382.539 191.317 382.794 192.099 383.304 192.654C383.825 193.198 384.477 193.47 385.259 193.47ZM395.437 195.153C394.7 195.153 394.037 195.023 393.448 194.762C392.87 194.49 392.411 194.127 392.071 193.674C391.731 193.209 391.549 192.694 391.527 192.127H393.533C393.567 192.524 393.754 192.858 394.094 193.13C394.445 193.391 394.881 193.521 395.403 193.521C395.947 193.521 396.366 193.419 396.661 193.215C396.967 193 397.12 192.728 397.12 192.399C397.12 192.048 396.95 191.787 396.61 191.617C396.281 191.447 395.754 191.26 395.029 191.056C394.326 190.863 393.754 190.676 393.312 190.495C392.87 190.314 392.484 190.036 392.156 189.662C391.838 189.288 391.68 188.795 391.68 188.183C391.68 187.684 391.827 187.231 392.122 186.823C392.416 186.404 392.836 186.075 393.38 185.837C393.935 185.599 394.57 185.48 395.284 185.48C396.349 185.48 397.205 185.752 397.851 186.296C398.508 186.829 398.859 187.56 398.905 188.489H396.967C396.933 188.07 396.763 187.735 396.457 187.486C396.151 187.237 395.737 187.112 395.216 187.112C394.706 187.112 394.315 187.208 394.043 187.401C393.771 187.594 393.635 187.849 393.635 188.166C393.635 188.415 393.725 188.625 393.907 188.795C394.088 188.965 394.309 189.101 394.57 189.203C394.83 189.294 395.216 189.413 395.726 189.56C396.406 189.741 396.961 189.928 397.392 190.121C397.834 190.302 398.213 190.574 398.531 190.937C398.848 191.3 399.012 191.781 399.024 192.382C399.024 192.915 398.876 193.391 398.582 193.81C398.287 194.229 397.868 194.558 397.324 194.796C396.791 195.034 396.162 195.153 395.437 195.153ZM407.472 186.993C407.755 186.517 408.129 186.149 408.594 185.888C409.07 185.616 409.631 185.48 410.277 185.48V187.486H409.784C409.024 187.486 408.446 187.679 408.05 188.064C407.664 188.449 407.472 189.118 407.472 190.07V195H405.534V185.633H407.472V186.993ZM420.541 185.633V195H418.603V193.895C418.297 194.28 417.895 194.586 417.396 194.813C416.909 195.028 416.388 195.136 415.832 195.136C415.096 195.136 414.433 194.983 413.843 194.677C413.265 194.371 412.806 193.918 412.466 193.317C412.138 192.716 411.973 191.991 411.973 191.141V185.633H413.894V190.852C413.894 191.691 414.104 192.337 414.523 192.79C414.943 193.232 415.515 193.453 416.24 193.453C416.966 193.453 417.538 193.232 417.957 192.79C418.388 192.337 418.603 191.691 418.603 190.852V185.633H420.541ZM434.437 185.48C435.174 185.48 435.831 185.633 436.409 185.939C436.999 186.245 437.458 186.698 437.786 187.299C438.126 187.9 438.296 188.625 438.296 189.475V195H436.375V189.764C436.375 188.925 436.166 188.285 435.746 187.843C435.327 187.39 434.755 187.163 434.029 187.163C433.304 187.163 432.726 187.39 432.295 187.843C431.876 188.285 431.666 188.925 431.666 189.764V195H429.745V189.764C429.745 188.925 429.536 188.285 429.116 187.843C428.697 187.39 428.125 187.163 427.399 187.163C426.674 187.163 426.096 187.39 425.665 187.843C425.246 188.285 425.036 188.925 425.036 189.764V195H423.098V185.633H425.036V186.704C425.354 186.319 425.756 186.018 426.243 185.803C426.731 185.588 427.252 185.48 427.807 185.48C428.555 185.48 429.224 185.639 429.813 185.956C430.403 186.273 430.856 186.732 431.173 187.333C431.457 186.766 431.899 186.319 432.499 185.99C433.1 185.65 433.746 185.48 434.437 185.48ZM444.825 195.153C443.941 195.153 443.142 194.955 442.428 194.558C441.714 194.15 441.153 193.583 440.745 192.858C440.337 192.121 440.133 191.271 440.133 190.308C440.133 189.356 440.343 188.512 440.762 187.775C441.182 187.038 441.754 186.472 442.479 186.075C443.205 185.678 444.015 185.48 444.91 185.48C445.806 185.48 446.616 185.678 447.341 186.075C448.067 186.472 448.639 187.038 449.058 187.775C449.478 188.512 449.687 189.356 449.687 190.308C449.687 191.26 449.472 192.104 449.041 192.841C448.611 193.578 448.021 194.15 447.273 194.558C446.537 194.955 445.721 195.153 444.825 195.153ZM444.825 193.47C445.324 193.47 445.789 193.351 446.219 193.113C446.661 192.875 447.018 192.518 447.29 192.042C447.562 191.566 447.698 190.988 447.698 190.308C447.698 189.628 447.568 189.056 447.307 188.591C447.047 188.115 446.701 187.758 446.27 187.52C445.84 187.282 445.375 187.163 444.876 187.163C444.378 187.163 443.913 187.282 443.482 187.52C443.063 187.758 442.729 188.115 442.479 188.591C442.23 189.056 442.105 189.628 442.105 190.308C442.105 191.317 442.36 192.099 442.87 192.654C443.392 193.198 444.043 193.47 444.825 193.47ZM455.373 190.274C455.373 189.333 455.566 188.5 455.951 187.775C456.348 187.05 456.88 186.489 457.549 186.092C458.229 185.684 458.977 185.48 459.793 185.48C460.53 185.48 461.17 185.627 461.714 185.922C462.269 186.205 462.711 186.562 463.04 186.993V185.633H464.995V195H463.04V193.606C462.711 194.048 462.264 194.416 461.697 194.711C461.13 195.006 460.484 195.153 459.759 195.153C458.954 195.153 458.218 194.949 457.549 194.541C456.88 194.122 456.348 193.544 455.951 192.807C455.566 192.059 455.373 191.215 455.373 190.274ZM463.04 190.308C463.04 189.662 462.904 189.101 462.632 188.625C462.371 188.149 462.026 187.786 461.595 187.537C461.164 187.288 460.7 187.163 460.201 187.163C459.702 187.163 459.238 187.288 458.807 187.537C458.376 187.775 458.025 188.132 457.753 188.608C457.492 189.073 457.362 189.628 457.362 190.274C457.362 190.92 457.492 191.487 457.753 191.974C458.025 192.461 458.376 192.835 458.807 193.096C459.249 193.345 459.714 193.47 460.201 193.47C460.7 193.47 461.164 193.345 461.595 193.096C462.026 192.847 462.371 192.484 462.632 192.008C462.904 191.521 463.04 190.954 463.04 190.308ZM471.604 195.153C470.72 195.153 469.921 194.955 469.207 194.558C468.493 194.15 467.932 193.583 467.524 192.858C467.116 192.121 466.912 191.271 466.912 190.308C466.912 189.356 467.121 188.512 467.541 187.775C467.96 187.038 468.532 186.472 469.258 186.075C469.983 185.678 470.793 185.48 471.689 185.48C472.584 185.48 473.394 185.678 474.12 186.075C474.845 186.472 475.417 187.038 475.837 187.775C476.256 188.512 476.466 189.356 476.466 190.308C476.466 191.26 476.25 192.104 475.82 192.841C475.389 193.578 474.8 194.15 474.052 194.558C473.315 194.955 472.499 195.153 471.604 195.153ZM471.604 193.47C472.102 193.47 472.567 193.351 472.998 193.113C473.44 192.875 473.797 192.518 474.069 192.042C474.341 191.566 474.477 190.988 474.477 190.308C474.477 189.628 474.346 189.056 474.086 188.591C473.825 188.115 473.479 187.758 473.049 187.52C472.618 187.282 472.153 187.163 471.655 187.163C471.156 187.163 470.691 187.282 470.261 187.52C469.841 187.758 469.507 188.115 469.258 188.591C469.008 189.056 468.884 189.628 468.884 190.308C468.884 191.317 469.139 192.099 469.649 192.654C470.17 193.198 470.822 193.47 471.604 193.47ZM486.724 187.214H484.99V195H483.035V187.214H481.93V185.633H483.035V184.97C483.035 183.893 483.319 183.111 483.885 182.624C484.463 182.125 485.364 181.876 486.588 181.876V183.491C485.999 183.491 485.585 183.604 485.347 183.831C485.109 184.046 484.99 184.426 484.99 184.97V185.633H486.724V187.214ZM496.925 185.633V195H494.987V193.895C494.681 194.28 494.279 194.586 493.78 194.813C493.293 195.028 492.771 195.136 492.216 195.136C491.479 195.136 490.816 194.983 490.227 194.677C489.649 194.371 489.19 193.918 488.85 193.317C488.521 192.716 488.357 191.991 488.357 191.141V185.633H490.278V190.852C490.278 191.691 490.488 192.337 490.907 192.79C491.326 193.232 491.899 193.453 492.624 193.453C493.349 193.453 493.922 193.232 494.341 192.79C494.772 192.337 494.987 191.691 494.987 190.852V185.633H496.925ZM501.743 187.214V192.399C501.743 192.75 501.822 193.005 501.981 193.164C502.151 193.311 502.434 193.385 502.831 193.385H504.021V195H502.491C501.618 195 500.95 194.796 500.485 194.388C500.02 193.98 499.788 193.317 499.788 192.399V187.214H498.683V185.633H499.788V183.304H501.743V185.633H504.021V187.214H501.743ZM514.29 185.633V195H512.352V193.895C512.046 194.28 511.644 194.586 511.145 194.813C510.658 195.028 510.137 195.136 509.581 195.136C508.845 195.136 508.182 194.983 507.592 194.677C507.014 194.371 506.555 193.918 506.215 193.317C505.887 192.716 505.722 191.991 505.722 191.141V185.633H507.643V190.852C507.643 191.691 507.853 192.337 508.272 192.79C508.692 193.232 509.264 193.453 509.989 193.453C510.715 193.453 511.287 193.232 511.706 192.79C512.137 192.337 512.352 191.691 512.352 190.852V185.633H514.29ZM518.785 186.993C519.069 186.517 519.443 186.149 519.907 185.888C520.383 185.616 520.944 185.48 521.59 185.48V187.486H521.097C520.338 187.486 519.76 187.679 519.363 188.064C518.978 188.449 518.785 189.118 518.785 190.07V195H516.847V185.633H518.785V186.993ZM527.435 195.153C526.551 195.153 525.752 194.955 525.038 194.558C524.324 194.15 523.763 193.583 523.355 192.858C522.947 192.121 522.743 191.271 522.743 190.308C522.743 189.356 522.952 188.512 523.372 187.775C523.791 187.038 524.363 186.472 525.089 186.075C525.814 185.678 526.624 185.48 527.52 185.48C528.415 185.48 529.225 185.678 529.951 186.075C530.676 186.472 531.248 187.038 531.668 187.775C532.087 188.512 532.297 189.356 532.297 190.308C532.297 191.26 532.081 192.104 531.651 192.841C531.22 193.578 530.631 194.15 529.883 194.558C529.146 194.955 528.33 195.153 527.435 195.153ZM527.435 193.47C527.933 193.47 528.398 193.351 528.829 193.113C529.271 192.875 529.628 192.518 529.9 192.042C530.172 191.566 530.308 190.988 530.308 190.308C530.308 189.628 530.177 189.056 529.917 188.591C529.656 188.115 529.31 187.758 528.88 187.52C528.449 187.282 527.984 187.163 527.486 187.163C526.987 187.163 526.522 187.282 526.092 187.52C525.672 187.758 525.338 188.115 525.089 188.591C524.839 189.056 524.715 189.628 524.715 190.308C524.715 191.317 524.97 192.099 525.48 192.654C526.001 193.198 526.653 193.47 527.435 193.47ZM536.338 192.671L534.281 197.363H533.023L534.23 192.671H536.338ZM543.433 184.392C543.082 184.392 542.787 184.273 542.549 184.035C542.311 183.797 542.192 183.502 542.192 183.151C542.192 182.8 542.311 182.505 542.549 182.267C542.787 182.029 543.082 181.91 543.433 181.91C543.773 181.91 544.062 182.029 544.3 182.267C544.538 182.505 544.657 182.8 544.657 183.151C544.657 183.502 544.538 183.797 544.3 184.035C544.062 184.273 543.773 184.392 543.433 184.392ZM544.385 185.633V195H542.447V185.633H544.385ZM551.655 185.48C552.392 185.48 553.049 185.633 553.627 185.939C554.217 186.245 554.676 186.698 555.004 187.299C555.333 187.9 555.497 188.625 555.497 189.475V195H553.576V189.764C553.576 188.925 553.367 188.285 552.947 187.843C552.528 187.39 551.956 187.163 551.23 187.163C550.505 187.163 549.927 187.39 549.496 187.843C549.077 188.285 548.867 188.925 548.867 189.764V195H546.929V185.633H548.867V186.704C549.185 186.319 549.587 186.018 550.074 185.803C550.573 185.588 551.1 185.48 551.655 185.48ZM562.032 195.153C561.148 195.153 560.349 194.955 559.635 194.558C558.921 194.15 558.36 193.583 557.952 192.858C557.544 192.121 557.34 191.271 557.34 190.308C557.34 189.356 557.55 188.512 557.969 187.775C558.389 187.038 558.961 186.472 559.686 186.075C560.412 185.678 561.222 185.48 562.117 185.48C563.013 185.48 563.823 185.678 564.548 186.075C565.274 186.472 565.846 187.038 566.265 187.775C566.685 188.512 566.894 189.356 566.894 190.308C566.894 191.26 566.679 192.104 566.248 192.841C565.818 193.578 565.228 194.15 564.48 194.558C563.744 194.955 562.928 195.153 562.032 195.153ZM562.032 193.47C562.531 193.47 562.996 193.351 563.426 193.113C563.868 192.875 564.225 192.518 564.497 192.042C564.769 191.566 564.905 190.988 564.905 190.308C564.905 189.628 564.775 189.056 564.514 188.591C564.254 188.115 563.908 187.758 563.477 187.52C563.047 187.282 562.582 187.163 562.083 187.163C561.585 187.163 561.12 187.282 560.689 187.52C560.27 187.758 559.936 188.115 559.686 188.591C559.437 189.056 559.312 189.628 559.312 190.308C559.312 191.317 559.567 192.099 560.077 192.654C560.599 193.198 561.25 193.47 562.032 193.47ZM572.431 193.266L575.083 185.633H577.14L573.57 195H571.258L567.705 185.633H569.779L572.431 193.266ZM577.959 190.274C577.959 189.333 578.152 188.5 578.537 187.775C578.934 187.05 579.466 186.489 580.135 186.092C580.815 185.684 581.563 185.48 582.379 185.48C583.116 185.48 583.756 185.627 584.3 185.922C584.855 186.205 585.297 186.562 585.626 186.993V185.633H587.581V195H585.626V193.606C585.297 194.048 584.85 194.416 584.283 194.711C583.716 195.006 583.07 195.153 582.345 195.153C581.54 195.153 580.804 194.949 580.135 194.541C579.466 194.122 578.934 193.544 578.537 192.807C578.152 192.059 577.959 191.215 577.959 190.274ZM585.626 190.308C585.626 189.662 585.49 189.101 585.218 188.625C584.957 188.149 584.612 187.786 584.181 187.537C583.75 187.288 583.286 187.163 582.787 187.163C582.288 187.163 581.824 187.288 581.393 187.537C580.962 187.775 580.611 188.132 580.339 188.608C580.078 189.073 579.948 189.628 579.948 190.274C579.948 190.92 580.078 191.487 580.339 191.974C580.611 192.461 580.962 192.835 581.393 193.096C581.835 193.345 582.3 193.47 582.787 193.47C583.286 193.47 583.75 193.345 584.181 193.096C584.612 192.847 584.957 192.484 585.218 192.008C585.49 191.521 585.626 190.954 585.626 190.308ZM601.466 185.48C602.202 185.48 602.86 185.633 603.438 185.939C604.027 186.245 604.486 186.698 604.815 187.299C605.155 187.9 605.325 188.625 605.325 189.475V195H603.404V189.764C603.404 188.925 603.194 188.285 602.775 187.843C602.355 187.39 601.783 187.163 601.058 187.163C600.332 187.163 599.754 187.39 599.324 187.843C598.904 188.285 598.695 188.925 598.695 189.764V195H596.774V189.764C596.774 188.925 596.564 188.285 596.145 187.843C595.725 187.39 595.153 187.163 594.428 187.163C593.702 187.163 593.124 187.39 592.694 187.843C592.274 188.285 592.065 188.925 592.065 189.764V195H590.127V185.633H592.065V186.704C592.382 186.319 592.784 186.018 593.272 185.803C593.759 185.588 594.28 185.48 594.836 185.48C595.584 185.48 596.252 185.639 596.842 185.956C597.431 186.273 597.884 186.732 598.202 187.333C598.485 186.766 598.927 186.319 599.528 185.99C600.128 185.65 600.774 185.48 601.466 185.48ZM611.854 195.153C610.97 195.153 610.171 194.955 609.457 194.558C608.743 194.15 608.182 193.583 607.774 192.858C607.366 192.121 607.162 191.271 607.162 190.308C607.162 189.356 607.371 188.512 607.791 187.775C608.21 187.038 608.782 186.472 609.508 186.075C610.233 185.678 611.043 185.48 611.939 185.48C612.834 185.48 613.644 185.678 614.37 186.075C615.095 186.472 615.667 187.038 616.087 187.775C616.506 188.512 616.716 189.356 616.716 190.308C616.716 191.26 616.5 192.104 616.07 192.841C615.639 193.578 615.05 194.15 614.302 194.558C613.565 194.955 612.749 195.153 611.854 195.153ZM611.854 193.47C612.352 193.47 612.817 193.351 613.248 193.113C613.69 192.875 614.047 192.518 614.319 192.042C614.591 191.566 614.727 190.988 614.727 190.308C614.727 189.628 614.596 189.056 614.336 188.591C614.075 188.115 613.729 187.758 613.299 187.52C612.868 187.282 612.403 187.163 611.905 187.163C611.406 187.163 610.941 187.282 610.511 187.52C610.091 187.758 609.757 188.115 609.508 188.591C609.258 189.056 609.134 189.628 609.134 190.308C609.134 191.317 609.389 192.099 609.899 192.654C610.42 193.198 611.072 193.47 611.854 193.47ZM622.031 195.153C621.295 195.153 620.632 195.023 620.042 194.762C619.464 194.49 619.005 194.127 618.665 193.674C618.325 193.209 618.144 192.694 618.121 192.127H620.127C620.161 192.524 620.348 192.858 620.688 193.13C621.04 193.391 621.476 193.521 621.997 193.521C622.541 193.521 622.961 193.419 623.255 193.215C623.561 193 623.714 192.728 623.714 192.399C623.714 192.048 623.544 191.787 623.204 191.617C622.876 191.447 622.349 191.26 621.623 191.056C620.921 190.863 620.348 190.676 619.906 190.495C619.464 190.314 619.079 190.036 618.75 189.662C618.433 189.288 618.274 188.795 618.274 188.183C618.274 187.684 618.422 187.231 618.716 186.823C619.011 186.404 619.43 186.075 619.974 185.837C620.53 185.599 621.164 185.48 621.878 185.48C622.944 185.48 623.799 185.752 624.445 186.296C625.103 186.829 625.454 187.56 625.499 188.489H623.561C623.527 188.07 623.357 187.735 623.051 187.486C622.745 187.237 622.332 187.112 621.81 187.112C621.3 187.112 620.909 187.208 620.637 187.401C620.365 187.594 620.229 187.849 620.229 188.166C620.229 188.415 620.32 188.625 620.501 188.795C620.683 188.965 620.904 189.101 621.164 189.203C621.425 189.294 621.81 189.413 622.32 189.56C623 189.741 623.556 189.928 623.986 190.121C624.428 190.302 624.808 190.574 625.125 190.937C625.443 191.3 625.607 191.781 625.618 192.382C625.618 192.915 625.471 193.391 625.176 193.81C624.882 194.229 624.462 194.558 623.918 194.796C623.386 195.034 622.757 195.153 622.031 195.153ZM211.629 216.308C211.629 215.345 211.822 214.5 212.207 213.775C212.604 213.038 213.148 212.472 213.839 212.075C214.53 211.678 215.324 211.48 216.219 211.48C217.352 211.48 218.287 211.752 219.024 212.296C219.772 212.829 220.276 213.594 220.537 214.591H218.446C218.276 214.126 218.004 213.764 217.63 213.503C217.256 213.242 216.786 213.112 216.219 213.112C215.426 213.112 214.791 213.395 214.315 213.962C213.85 214.517 213.618 215.299 213.618 216.308C213.618 217.317 213.85 218.104 214.315 218.671C214.791 219.238 215.426 219.521 216.219 219.521C217.341 219.521 218.083 219.028 218.446 218.042H220.537C220.265 218.994 219.755 219.753 219.007 220.32C218.259 220.875 217.33 221.153 216.219 221.153C215.324 221.153 214.53 220.955 213.839 220.558C213.148 220.15 212.604 219.583 212.207 218.858C211.822 218.121 211.629 217.271 211.629 216.308ZM226.531 221.153C225.647 221.153 224.848 220.955 224.134 220.558C223.42 220.15 222.859 219.583 222.451 218.858C222.043 218.121 221.839 217.271 221.839 216.308C221.839 215.356 222.049 214.512 222.468 213.775C222.888 213.038 223.46 212.472 224.185 212.075C224.911 211.678 225.721 211.48 226.616 211.48C227.512 211.48 228.322 211.678 229.047 212.075C229.773 212.472 230.345 213.038 230.764 213.775C231.184 214.512 231.393 215.356 231.393 216.308C231.393 217.26 231.178 218.104 230.747 218.841C230.317 219.578 229.727 220.15 228.979 220.558C228.243 220.955 227.427 221.153 226.531 221.153ZM226.531 219.47C227.03 219.47 227.495 219.351 227.925 219.113C228.367 218.875 228.724 218.518 228.996 218.042C229.268 217.566 229.404 216.988 229.404 216.308C229.404 215.628 229.274 215.056 229.013 214.591C228.753 214.115 228.407 213.758 227.976 213.52C227.546 213.282 227.081 213.163 226.582 213.163C226.084 213.163 225.619 213.282 225.188 213.52C224.769 213.758 224.435 214.115 224.185 214.591C223.936 215.056 223.811 215.628 223.811 216.308C223.811 217.317 224.066 218.099 224.576 218.654C225.098 219.198 225.749 219.47 226.531 219.47ZM244.648 211.48C245.385 211.48 246.042 211.633 246.62 211.939C247.21 212.245 247.669 212.698 247.997 213.299C248.337 213.9 248.507 214.625 248.507 215.475V221H246.586V215.764C246.586 214.925 246.377 214.285 245.957 213.843C245.538 213.39 244.966 213.163 244.24 213.163C243.515 213.163 242.937 213.39 242.506 213.843C242.087 214.285 241.877 214.925 241.877 215.764V221H239.956V215.764C239.956 214.925 239.747 214.285 239.327 213.843C238.908 213.39 238.336 213.163 237.61 213.163C236.885 213.163 236.307 213.39 235.876 213.843C235.457 214.285 235.247 214.925 235.247 215.764V221H233.309V211.633H235.247V212.704C235.565 212.319 235.967 212.018 236.454 211.803C236.942 211.588 237.463 211.48 238.018 211.48C238.766 211.48 239.435 211.639 240.024 211.956C240.614 212.273 241.067 212.732 241.384 213.333C241.668 212.766 242.11 212.319 242.71 211.99C243.311 211.65 243.957 211.48 244.648 211.48ZM254.743 216.308C254.743 215.345 254.936 214.5 255.321 213.775C255.718 213.038 256.262 212.472 256.953 212.075C257.645 211.678 258.438 211.48 259.333 211.48C260.467 211.48 261.402 211.752 262.138 212.296C262.886 212.829 263.391 213.594 263.651 214.591H261.56C261.39 214.126 261.118 213.764 260.744 213.503C260.37 213.242 259.9 213.112 259.333 213.112C258.54 213.112 257.905 213.395 257.429 213.962C256.965 214.517 256.732 215.299 256.732 216.308C256.732 217.317 256.965 218.104 257.429 218.671C257.905 219.238 258.54 219.521 259.333 219.521C260.455 219.521 261.198 219.028 261.56 218.042H263.651C263.379 218.994 262.869 219.753 262.121 220.32C261.373 220.875 260.444 221.153 259.333 221.153C258.438 221.153 257.645 220.955 256.953 220.558C256.262 220.15 255.718 219.583 255.321 218.858C254.936 218.121 254.743 217.271 254.743 216.308ZM269.646 221.153C268.762 221.153 267.963 220.955 267.249 220.558C266.535 220.15 265.974 219.583 265.566 218.858C265.158 218.121 264.954 217.271 264.954 216.308C264.954 215.356 265.163 214.512 265.583 213.775C266.002 213.038 266.574 212.472 267.3 212.075C268.025 211.678 268.835 211.48 269.731 211.48C270.626 211.48 271.436 211.678 272.162 212.075C272.887 212.472 273.459 213.038 273.879 213.775C274.298 214.512 274.508 215.356 274.508 216.308C274.508 217.26 274.292 218.104 273.862 218.841C273.431 219.578 272.842 220.15 272.094 220.558C271.357 220.955 270.541 221.153 269.646 221.153ZM269.646 219.47C270.144 219.47 270.609 219.351 271.04 219.113C271.482 218.875 271.839 218.518 272.111 218.042C272.383 217.566 272.519 216.988 272.519 216.308C272.519 215.628 272.388 215.056 272.128 214.591C271.867 214.115 271.521 213.758 271.091 213.52C270.66 213.282 270.195 213.163 269.697 213.163C269.198 213.163 268.733 213.282 268.303 213.52C267.883 213.758 267.549 214.115 267.3 214.591C267.05 215.056 266.926 215.628 266.926 216.308C266.926 217.317 267.181 218.099 267.691 218.654C268.212 219.198 268.864 219.47 269.646 219.47ZM278.361 212.993C278.645 212.517 279.019 212.149 279.483 211.888C279.959 211.616 280.52 211.48 281.166 211.48V213.486H280.673C279.914 213.486 279.336 213.679 278.939 214.064C278.554 214.449 278.361 215.118 278.361 216.07V221H276.423V211.633H278.361V212.993ZM282.302 216.274C282.302 215.333 282.495 214.5 282.88 213.775C283.277 213.05 283.809 212.489 284.478 212.092C285.158 211.684 285.906 211.48 286.722 211.48C287.459 211.48 288.099 211.627 288.643 211.922C289.198 212.205 289.64 212.562 289.969 212.993V211.633H291.924V221H289.969V219.606C289.64 220.048 289.193 220.416 288.626 220.711C288.059 221.006 287.413 221.153 286.688 221.153C285.883 221.153 285.147 220.949 284.478 220.541C283.809 220.122 283.277 219.544 282.88 218.807C282.495 218.059 282.302 217.215 282.302 216.274ZM289.969 216.308C289.969 215.662 289.833 215.101 289.561 214.625C289.3 214.149 288.955 213.786 288.524 213.537C288.093 213.288 287.629 213.163 287.13 213.163C286.631 213.163 286.167 213.288 285.736 213.537C285.305 213.775 284.954 214.132 284.682 214.608C284.421 215.073 284.291 215.628 284.291 216.274C284.291 216.92 284.421 217.487 284.682 217.974C284.954 218.461 285.305 218.835 285.736 219.096C286.178 219.345 286.643 219.47 287.13 219.47C287.629 219.47 288.093 219.345 288.524 219.096C288.955 218.847 289.3 218.484 289.561 218.008C289.833 217.521 289.969 216.954 289.969 216.308ZM298.243 211.48C298.969 211.48 299.609 211.627 300.164 211.922C300.731 212.205 301.173 212.562 301.49 212.993V211.633H303.445V221.153C303.445 222.014 303.264 222.779 302.901 223.448C302.539 224.128 302.012 224.661 301.32 225.046C300.64 225.431 299.824 225.624 298.872 225.624C297.603 225.624 296.549 225.324 295.71 224.723C294.872 224.134 294.396 223.329 294.282 222.309H296.203C296.351 222.796 296.662 223.187 297.138 223.482C297.626 223.788 298.204 223.941 298.872 223.941C299.654 223.941 300.283 223.703 300.759 223.227C301.247 222.751 301.49 222.06 301.49 221.153V219.589C301.162 220.031 300.714 220.405 300.147 220.711C299.592 221.006 298.957 221.153 298.243 221.153C297.427 221.153 296.679 220.949 295.999 220.541C295.331 220.122 294.798 219.544 294.401 218.807C294.016 218.059 293.823 217.215 293.823 216.274C293.823 215.333 294.016 214.5 294.401 213.775C294.798 213.05 295.331 212.489 295.999 212.092C296.679 211.684 297.427 211.48 298.243 211.48ZM301.49 216.308C301.49 215.662 301.354 215.101 301.082 214.625C300.822 214.149 300.476 213.786 300.045 213.537C299.615 213.288 299.15 213.163 298.651 213.163C298.153 213.163 297.688 213.288 297.257 213.537C296.827 213.775 296.475 214.132 296.203 214.608C295.943 215.073 295.812 215.628 295.812 216.274C295.812 216.92 295.943 217.487 296.203 217.974C296.475 218.461 296.827 218.835 297.257 219.096C297.699 219.345 298.164 219.47 298.651 219.47C299.15 219.47 299.615 219.345 300.045 219.096C300.476 218.847 300.822 218.484 301.082 218.008C301.354 217.521 301.49 216.954 301.49 216.308ZM314.576 216.087C314.576 216.438 314.553 216.756 314.508 217.039H307.351C307.407 217.787 307.685 218.388 308.184 218.841C308.682 219.294 309.294 219.521 310.02 219.521C311.062 219.521 311.799 219.085 312.23 218.212H314.321C314.037 219.073 313.522 219.782 312.774 220.337C312.037 220.881 311.119 221.153 310.02 221.153C309.124 221.153 308.32 220.955 307.606 220.558C306.903 220.15 306.348 219.583 305.94 218.858C305.543 218.121 305.345 217.271 305.345 216.308C305.345 215.345 305.537 214.5 305.923 213.775C306.319 213.038 306.869 212.472 307.572 212.075C308.286 211.678 309.102 211.48 310.02 211.48C310.904 211.48 311.691 211.673 312.383 212.058C313.074 212.443 313.612 212.987 313.998 213.69C314.383 214.381 314.576 215.18 314.576 216.087ZM312.553 215.475C312.541 214.761 312.286 214.189 311.788 213.758C311.289 213.327 310.671 213.112 309.935 213.112C309.266 213.112 308.694 213.327 308.218 213.758C307.742 214.177 307.458 214.75 307.368 215.475H312.553ZM327.822 211.48C328.559 211.48 329.216 211.633 329.794 211.939C330.383 212.245 330.842 212.698 331.171 213.299C331.511 213.9 331.681 214.625 331.681 215.475V221H329.76V215.764C329.76 214.925 329.55 214.285 329.131 213.843C328.712 213.39 328.139 213.163 327.414 213.163C326.689 213.163 326.111 213.39 325.68 213.843C325.261 214.285 325.051 214.925 325.051 215.764V221H323.13V215.764C323.13 214.925 322.92 214.285 322.501 213.843C322.082 213.39 321.509 213.163 320.784 213.163C320.059 213.163 319.481 213.39 319.05 213.843C318.631 214.285 318.421 214.925 318.421 215.764V221H316.483V211.633H318.421V212.704C318.738 212.319 319.141 212.018 319.628 211.803C320.115 211.588 320.637 211.48 321.192 211.48C321.94 211.48 322.609 211.639 323.198 211.956C323.787 212.273 324.241 212.732 324.558 213.333C324.841 212.766 325.283 212.319 325.884 211.99C326.485 211.65 327.131 211.48 327.822 211.48ZM347.148 216.087C347.148 216.438 347.125 216.756 347.08 217.039H339.923C339.98 217.787 340.257 218.388 340.756 218.841C341.255 219.294 341.867 219.521 342.592 219.521C343.635 219.521 344.371 219.085 344.802 218.212H346.893C346.61 219.073 346.094 219.782 345.346 220.337C344.609 220.881 343.691 221.153 342.592 221.153C341.697 221.153 340.892 220.955 340.178 220.558C339.475 220.15 338.92 219.583 338.512 218.858C338.115 218.121 337.917 217.271 337.917 216.308C337.917 215.345 338.11 214.5 338.495 213.775C338.892 213.038 339.441 212.472 340.144 212.075C340.858 211.678 341.674 211.48 342.592 211.48C343.476 211.48 344.264 211.673 344.955 212.058C345.646 212.443 346.185 212.987 346.57 213.69C346.955 214.381 347.148 215.18 347.148 216.087ZM345.125 215.475C345.114 214.761 344.859 214.189 344.36 213.758C343.861 213.327 343.244 213.112 342.507 213.112C341.838 213.112 341.266 213.327 340.79 213.758C340.314 214.177 340.031 214.75 339.94 215.475H345.125ZM357.092 219.266L359.744 211.633H361.801L358.231 221H355.919L352.366 211.633H354.44L357.092 219.266ZM364.252 210.392C363.901 210.392 363.606 210.273 363.368 210.035C363.13 209.797 363.011 209.502 363.011 209.151C363.011 208.8 363.13 208.505 363.368 208.267C363.606 208.029 363.901 207.91 364.252 207.91C364.592 207.91 364.881 208.029 365.119 208.267C365.357 208.505 365.476 208.8 365.476 209.151C365.476 209.502 365.357 209.797 365.119 210.035C364.881 210.273 364.592 210.392 364.252 210.392ZM365.204 211.633V221H363.266V211.633H365.204ZM371.149 221.153C370.412 221.153 369.749 221.023 369.16 220.762C368.582 220.49 368.123 220.127 367.783 219.674C367.443 219.209 367.261 218.694 367.239 218.127H369.245C369.279 218.524 369.466 218.858 369.806 219.13C370.157 219.391 370.593 219.521 371.115 219.521C371.659 219.521 372.078 219.419 372.373 219.215C372.679 219 372.832 218.728 372.832 218.399C372.832 218.048 372.662 217.787 372.322 217.617C371.993 217.447 371.466 217.26 370.741 217.056C370.038 216.863 369.466 216.676 369.024 216.495C368.582 216.314 368.196 216.036 367.868 215.662C367.55 215.288 367.392 214.795 367.392 214.183C367.392 213.684 367.539 213.231 367.834 212.823C368.128 212.404 368.548 212.075 369.092 211.837C369.647 211.599 370.282 211.48 370.996 211.48C372.061 211.48 372.917 211.752 373.563 212.296C374.22 212.829 374.571 213.56 374.617 214.489H372.679C372.645 214.07 372.475 213.735 372.169 213.486C371.863 213.237 371.449 213.112 370.928 213.112C370.418 213.112 370.027 213.208 369.755 213.401C369.483 213.594 369.347 213.849 369.347 214.166C369.347 214.415 369.437 214.625 369.619 214.795C369.8 214.965 370.021 215.101 370.282 215.203C370.542 215.294 370.928 215.413 371.438 215.56C372.118 215.741 372.673 215.928 373.104 216.121C373.546 216.302 373.925 216.574 374.243 216.937C374.56 217.3 374.724 217.781 374.736 218.382C374.736 218.915 374.588 219.391 374.294 219.81C373.999 220.229 373.58 220.558 373.036 220.796C372.503 221.034 371.874 221.153 371.149 221.153ZM376.184 216.274C376.184 215.333 376.376 214.5 376.762 213.775C377.158 213.05 377.691 212.489 378.36 212.092C379.04 211.684 379.788 211.48 380.604 211.48C381.34 211.48 381.981 211.627 382.525 211.922C383.08 212.205 383.522 212.562 383.851 212.993V211.633H385.806V221H383.851V219.606C383.522 220.048 383.074 220.416 382.508 220.711C381.941 221.006 381.295 221.153 380.57 221.153C379.765 221.153 379.028 220.949 378.36 220.541C377.691 220.122 377.158 219.544 376.762 218.807C376.376 218.059 376.184 217.215 376.184 216.274ZM383.851 216.308C383.851 215.662 383.715 215.101 383.443 214.625C383.182 214.149 382.836 213.786 382.406 213.537C381.975 213.288 381.51 213.163 381.012 213.163C380.513 213.163 380.048 213.288 379.618 213.537C379.187 213.775 378.836 214.132 378.564 214.608C378.303 215.073 378.173 215.628 378.173 216.274C378.173 216.92 378.303 217.487 378.564 217.974C378.836 218.461 379.187 218.835 379.618 219.096C380.06 219.345 380.524 219.47 381.012 219.47C381.51 219.47 381.975 219.345 382.406 219.096C382.836 218.847 383.182 218.484 383.443 218.008C383.715 217.521 383.851 216.954 383.851 216.308ZM378.547 210.664C378.637 210.007 378.853 209.514 379.193 209.185C379.533 208.845 379.958 208.675 380.468 208.675C380.683 208.675 380.87 208.709 381.029 208.777C381.187 208.845 381.38 208.947 381.607 209.083C381.777 209.196 381.918 209.281 382.032 209.338C382.156 209.395 382.292 209.423 382.44 209.423C382.632 209.423 382.791 209.366 382.916 209.253C383.052 209.128 383.137 208.947 383.171 208.709H384.259C384.168 209.366 383.953 209.865 383.613 210.205C383.273 210.534 382.848 210.698 382.338 210.698C382.122 210.698 381.93 210.664 381.76 210.596C381.59 210.517 381.403 210.409 381.199 210.273C380.995 210.148 380.836 210.063 380.723 210.018C380.621 209.961 380.502 209.933 380.366 209.933C380.173 209.933 380.009 209.995 379.873 210.12C379.748 210.245 379.669 210.426 379.635 210.664H378.547ZM392.414 221.153C391.53 221.153 390.731 220.955 390.017 220.558C389.303 220.15 388.742 219.583 388.334 218.858C387.926 218.121 387.722 217.271 387.722 216.308C387.722 215.356 387.932 214.512 388.351 213.775C388.771 213.038 389.343 212.472 390.068 212.075C390.794 211.678 391.604 211.48 392.499 211.48C393.395 211.48 394.205 211.678 394.93 212.075C395.656 212.472 396.228 213.038 396.647 213.775C397.067 214.512 397.276 215.356 397.276 216.308C397.276 217.26 397.061 218.104 396.63 218.841C396.2 219.578 395.61 220.15 394.862 220.558C394.126 220.955 393.31 221.153 392.414 221.153ZM392.414 219.47C392.913 219.47 393.378 219.351 393.808 219.113C394.25 218.875 394.607 218.518 394.879 218.042C395.151 217.566 395.287 216.988 395.287 216.308C395.287 215.628 395.157 215.056 394.896 214.591C394.636 214.115 394.29 213.758 393.859 213.52C393.429 213.282 392.964 213.163 392.465 213.163C391.967 213.163 391.502 213.282 391.071 213.52C390.652 213.758 390.318 214.115 390.068 214.591C389.819 215.056 389.694 215.628 389.694 216.308C389.694 217.317 389.949 218.099 390.459 218.654C390.981 219.198 391.632 219.47 392.414 219.47ZM401.623 209.185L401.402 217.43H399.787L399.566 209.185H401.623ZM400.654 221.119C400.303 221.119 400.008 221 399.77 220.762C399.532 220.524 399.413 220.229 399.413 219.878C399.413 219.527 399.532 219.232 399.77 218.994C400.008 218.756 400.303 218.637 400.654 218.637C400.994 218.637 401.283 218.756 401.521 218.994C401.759 219.232 401.878 219.527 401.878 219.878C401.878 220.229 401.759 220.524 401.521 220.762C401.283 221 400.994 221.119 400.654 221.119Z" fill="#2B5121"/>
<path d="M26.4939 59.0053C25.6214 53.5518 29.335 48.4235 34.7885 47.551L135.974 31.3617C141.428 30.4892 146.556 34.2028 147.429 39.6563L164.745 147.886C166.926 161.52 157.642 174.341 144.009 176.522L72.4459 187.972C58.8122 190.153 45.9915 180.869 43.8102 167.235L26.4939 59.0053Z" fill="#508D3F"/>
<path d="M26.4939 59.0053C25.6214 53.5518 29.335 48.4235 34.7885 47.551L135.974 31.3617C141.428 30.4892 146.556 34.2028 147.429 39.6563L158.923 111.496C163.547 140.399 143.865 167.579 114.962 172.203L98.6955 174.806C69.792 179.43 42.6123 159.748 37.9879 130.845L26.4939 59.0053Z" fill="#46C4FF"/>
<path d="M26.4939 59.0053C25.6214 53.5518 29.335 48.4235 34.7885 47.551L135.974 31.3617C141.428 30.4892 146.556 34.2028 147.429 39.6563L163.504 140.132C165.598 153.22 156.686 165.528 143.597 167.622L70.0597 179.387C56.9713 181.482 44.6635 172.569 42.5695 159.481L26.4939 59.0053Z" fill="#7AD761"/>
<path d="M47.8015 61.4249C47.7143 60.8796 48.0856 60.3668 48.631 60.2795L128.251 47.5408C128.796 47.4535 129.309 47.8249 129.396 48.3702L139.029 108.579C142.634 131.11 127.291 152.298 104.759 155.903V155.903C82.2275 159.508 61.0396 144.165 57.4346 121.633L47.8015 61.4249Z" fill="#60AF4B"/>
<path d="M69.3769 82.7582C68.1038 83.9363 66.9044 85.9552 66.6003 87.1C66.0303 89.6272 67.0587 97.1969 68.2843 98.7669C69.0681 99.8595 68.8828 104.03 67.9185 104.854C67.7094 105.071 66.89 106.42 66.0801 107.828C64.7998 110.104 64.6858 110.914 65.1988 114.12C65.7024 117.267 66.0729 118.06 67.7925 119.673C72.284 123.766 78.419 125.951 85.4971 126.036C87.6917 126.051 89.7961 126.262 90.0716 126.462C90.7509 126.901 108.446 124.07 108.954 123.44C109.154 123.165 111.087 122.308 113.168 121.609C119.866 119.32 125.013 115.329 128.003 110.04C129.134 107.971 129.238 107.102 128.735 103.955C128.222 100.748 127.861 100.014 125.935 98.2518C124.726 97.1663 123.526 96.1402 123.26 96.0001C122.087 95.5179 120.609 91.6131 121.013 90.3305C121.688 88.4565 120.303 80.9438 118.973 78.7207C118.327 77.7278 116.558 76.184 114.98 75.4619C112.458 74.1603 111.776 74.0867 107.798 74.7232C104.116 75.3122 102.967 75.7397 101.029 77.3287C99.7365 78.388 98.6011 79.6659 98.499 80.1694C98.233 81.5518 87.1884 83.3188 86.5043 82.0885C86.2502 81.642 84.7728 80.7821 83.2147 80.1788C80.8776 79.2739 79.652 79.2264 75.9704 79.8154C71.992 80.4519 71.3673 80.7346 69.3769 82.7582ZM80.9227 86.0265C81.4238 86.4944 82.2599 87.1524 82.7515 87.5609C83.7349 88.378 84.6041 93.0499 83.7728 93.1829C83.4759 93.2304 83.2455 93.6936 83.3215 94.1686C83.5971 95.8906 79.7113 97.4868 76.1152 97.0877C73.1415 96.7718 71.372 90.6604 73.4765 87.8269C74.9135 85.77 79.4382 84.7415 80.9227 86.0265ZM112.667 81.5566C115.55 83.5921 115.776 89.9505 113.049 91.1784C109.757 92.6795 105.567 92.3755 105.292 90.6535C105.216 90.1785 104.912 89.8008 104.556 89.8578C103.724 89.9908 103.093 85.2808 103.831 84.1882C104.112 83.6562 104.701 82.7703 105.031 82.1693C106.04 80.4854 110.66 80.0507 112.667 81.5566ZM79.4024 110.021C80.4855 110.7 82.5377 111.346 83.901 111.493C85.3237 111.631 86.8438 111.997 87.3759 112.277C87.9863 112.667 91.4089 112.363 97.3469 111.413C103.285 110.462 106.631 109.683 107.09 109.123C107.508 108.691 108.838 107.869 110.147 107.294C111.396 106.729 113.144 105.475 113.961 104.491C115.755 102.377 117.448 101.924 117.705 103.527C117.866 104.536 116.999 105.589 113.619 108.444C109.375 111.985 101.29 114.74 93.5751 115.244C86.7108 115.733 75.9347 112.707 75.5356 110.213C75.2886 108.669 77.0985 108.562 79.4024 110.021Z" fill="#2B5121"/>
<path d="M75.635 91.8055L76.0625 94.4775L78.5279 93.9004C81.2309 93.2852 81.6323 92.3684 80.5326 89.6821C80.0457 88.542 79.592 88.371 77.5731 88.694L75.198 89.074L75.635 91.8055Z" fill="#2B5121"/>
<path d="M106.542 85.5204C106.335 88.4157 107.002 89.1616 109.762 88.9027L112.285 88.6818L111.857 86.0097L111.42 83.2783L109.045 83.6583C107.026 83.9813 106.649 84.2853 106.542 85.5204Z" fill="#2B5121"/>
<path d="M116.281 34.1657L137.011 30.8492L139.389 30.4686L141.483 30.4822L142.951 30.9444L144.133 31.8007L145.316 32.6571L146.267 34.2475L150.671 61.7731L105.359 121.649L60.0472 181.526L56.554 179.296L53.3461 176.673L50.4237 173.655L47.7867 170.244L45.4352 166.438L43.7633 162.523L42.3767 158.214L41.6419 153.621L38.8971 136.465L116.281 34.1657Z" fill="white" fill-opacity="0.29"/>
<path d="M525.208 125.04C522.368 116.599 549.38 109.463 558.372 107.956C567.363 106.449 617.668 101.424 649.325 104.439C680.982 107.454 682.494 108.459 676.962 110.971C671.429 113.483 666.912 116.498 666.912 121.021C666.912 125.543 701.08 125.543 694.046 129.06C687.011 132.578 682.537 135.592 671.429 138.607C660.322 141.623 650.833 144.637 599.575 143.13C548.317 141.622 528.048 133.482 525.208 125.04Z" fill="#61D243"/>
<path d="M525.208 119.547C522.368 111.106 549.38 103.97 558.372 102.463C567.363 100.956 617.668 95.9306 649.325 98.9457C680.982 101.961 682.494 102.966 676.962 105.478C671.429 107.99 666.912 111.005 666.912 115.527C666.912 120.05 701.08 120.05 694.046 123.567C687.011 127.084 682.537 130.099 671.429 133.114C660.322 136.13 650.833 139.144 599.575 137.637C548.317 136.129 528.048 127.988 525.208 119.547Z" fill="#ABF47D"/>
<path d="M630.817 106.12L630.816 106.121C628.794 107.83 626.67 109.24 624.247 110.489L624.247 110.489C619.519 112.918 614.195 114.278 609.375 114.278H608.571L608.613 114.322C609.59 115.361 611.942 117.224 613.489 118.179L613.49 118.179C618.214 121.092 624.794 122.46 629.481 121.517L629.484 121.516C633.822 120.67 639.389 117.686 644.112 113.624L644.114 113.622C645.074 112.806 646.45 111.449 647.59 110.24C648.159 109.636 648.663 109.076 649.022 108.644C649.202 108.427 649.34 108.25 649.43 108.12C649.433 108.117 649.435 108.113 649.437 108.11C649.367 108.014 649.265 107.888 649.133 107.735C648.837 107.393 648.419 106.946 647.937 106.456C646.974 105.476 645.778 104.347 644.849 103.571C643.571 102.509 641.848 101.262 640.355 100.28C639.609 99.7886 638.927 99.3687 638.392 99.0734C638.124 98.9253 637.901 98.813 637.729 98.739C637.681 98.7181 637.638 98.7012 637.602 98.6879C637.559 98.731 637.506 98.7868 637.444 98.8558C637.255 99.0673 637.018 99.3648 636.776 99.6937C635.6 101.367 632.536 104.657 630.817 106.12ZM649.525 107.966C649.524 107.966 649.522 107.97 649.52 107.977C649.524 107.969 649.525 107.966 649.525 107.966ZM649.525 108.24C649.528 108.247 649.53 108.251 649.53 108.251C649.53 108.251 649.529 108.247 649.525 108.24L649.525 108.24Z" fill="#6BC16B" stroke="#6BC16B"/>
<path d="M575.791 99.5757C572.682 101.373 569.615 103.807 566.806 106.745C566.414 107.155 566.06 107.55 565.808 107.854C565.718 107.962 565.643 108.056 565.585 108.133C565.659 108.232 565.757 108.359 565.877 108.508C566.171 108.872 566.58 109.351 567.03 109.848C572.443 115.801 579.758 120.38 585.633 121.552C586.607 121.741 588.081 121.803 589.643 121.742C591.199 121.683 592.801 121.503 594.024 121.225C595.845 120.8 598.427 119.859 599.883 119.116C602.064 117.975 604.969 115.822 606.387 114.323C606.388 114.322 606.389 114.321 606.39 114.32L606.428 114.278H605.442C595.157 114.278 584.519 108.547 578.174 99.6069C577.952 99.3008 577.727 99.0299 577.546 98.8427C577.498 98.7929 577.456 98.752 577.42 98.7194C577.316 98.7656 577.179 98.8314 577.016 98.9136C576.677 99.0847 576.241 99.319 575.791 99.5757ZM577.573 98.6576C577.573 98.6575 577.572 98.6577 577.57 98.6583C577.571 98.6579 577.572 98.6576 577.573 98.6576Z" fill="#96EC6B" stroke="#96EC6B"/>
<path d="M618.282 62.6334L618.282 62.6334L618.284 62.6362C620.011 66.5469 621.106 70.4522 621.478 74.0548L621.478 74.0548L621.478 74.0585C621.524 74.5354 621.569 74.9789 621.607 75.3217C621.64 75.305 621.675 75.2877 621.71 75.2698C622.155 75.0458 622.766 74.7306 623.436 74.376L623.437 74.3753C626.682 72.67 631.117 71.1391 634.201 70.6605C634.202 70.6605 634.202 70.6605 634.202 70.6604L634.559 70.6048V68.9496C634.559 67.8359 634.476 66.1696 634.379 65.2522L634.379 65.25C634.174 63.2401 633.669 60.6036 633.141 58.4701C632.878 57.4032 632.611 56.4749 632.379 55.8206C632.266 55.5053 632.168 55.2702 632.087 55.1177C631.95 55.1485 631.768 55.1916 631.551 55.2442C631.117 55.3497 630.552 55.492 629.957 55.6474C626.2 56.6599 623.238 57.9094 619.992 59.8296C619.462 60.15 618.938 60.4695 618.522 60.728C618.095 60.9933 617.815 61.1743 617.739 61.2331L617.676 61.2834L618.282 62.6334Z" fill="#913EC7" stroke="#913EC7"/>
<path d="M608.017 71.1009V71.1013C608.017 79.2702 608.03 84.7633 608.059 88.1747C608.068 89.2163 608.078 90.0624 608.09 90.7305C608.758 89.3492 609.539 87.843 609.995 87.0926L609.995 87.0926L609.996 87.0907C612.552 82.9239 616.151 79.0321 619.753 76.574L619.754 76.5731L620.684 75.9431L620.501 74.2455L620.5 74.2443C620.109 70.5393 619.097 66.9956 617.236 62.7247C615.895 59.6638 614.227 56.9941 611.862 54.1084L611.861 54.1072C611.302 53.4207 610.309 52.3389 609.397 51.3933C608.942 50.9218 608.511 50.4887 608.169 50.16C608.145 50.1369 608.122 50.1145 608.099 50.0926C608.077 50.534 608.059 51.1996 608.046 52.1941C608.009 55.061 608.009 60.5774 608.017 71.1009Z" fill="#A24BDB" stroke="#A24BDB"/>
<path d="M580.541 68.1871L580.541 68.188L580.527 70.5383L581.984 70.8377L581.984 70.8377L581.987 70.8383C585.569 71.5944 589.802 73.1914 592.661 74.8886C592.891 75.0197 593.102 75.1348 593.282 75.2275C593.291 75.1505 593.3 75.0701 593.31 74.9874C593.363 74.5433 593.435 73.9884 593.512 73.4275C593.663 72.3266 593.84 71.1541 593.931 70.779C594.619 67.7455 595.742 64.4469 596.923 62.0128C596.923 62.0124 596.923 62.012 596.923 62.0116L597.284 61.2571L597.208 61.1946C597.207 61.1944 597.207 61.1941 597.207 61.1938C596.911 60.9546 595.996 60.3901 594.943 59.7832C593.902 59.1841 592.783 58.5754 592.111 58.2537C590.032 57.261 587.338 56.2815 584.991 55.6462L584.99 55.646C584.388 55.4822 583.816 55.3358 583.381 55.2307C583.192 55.185 583.031 55.1476 582.905 55.12C582.888 55.1548 582.869 55.1948 582.849 55.2402C582.729 55.5112 582.582 55.912 582.428 56.4052C581.129 60.6517 580.557 64.214 580.541 68.1871Z" fill="#A24BDB" stroke="#A24BDB"/>
<path d="M603.647 84.9873C602.475 83.2639 599.44 79.9155 597.781 78.4996L603.647 84.9873ZM603.647 84.9873C604.922 86.86 606.159 88.9961 606.997 90.8018L606.967 71.1025V71.1021L606.92 50.0883C604.555 52.1772 601.624 55.7727 599.576 59.122L599.576 59.1224C598.505 60.8703 596.595 65.1719 595.858 67.5346L603.647 84.9873ZM606.786 91.5537L606.998 92.0438L603.234 85.2687C604.628 87.3174 605.973 89.6786 606.786 91.5537ZM609.015 91.159L608 93.3149V103.516V113.3L609.597 113.208L609.598 113.208C617.448 112.78 624.415 110.074 630.088 105.287L630.088 105.287C631.602 104.01 634.661 100.725 635.732 99.2478C636.184 98.6179 636.753 97.865 637.009 97.5445L637.009 97.5445L637.014 97.5379C637.34 97.1422 637.9 96.194 638.493 95.0387C639.078 93.8977 639.671 92.6046 640.07 91.5506L640.071 91.5477C642.072 86.3512 643.04 80.482 642.794 74.8211L642.794 74.8167C642.744 73.3701 642.644 71.9082 642.584 71.5273L642.584 71.5273L642.582 71.5162C642.544 71.2364 642.51 71.128 642.476 71.0731L642.475 71.0713C642.464 71.0544 642.438 71.0121 642.277 70.9732C642.088 70.9275 641.782 70.9052 641.274 70.9157C640.773 70.926 640.117 70.9663 639.244 71.0272L639.243 71.0272C635.191 71.3017 631.141 72.194 627.522 73.6154L627.521 73.6157C619.211 76.8662 612.931 82.8151 609.015 91.1585L609.015 91.159ZM609.625 113.708C617.577 113.274 624.65 110.53 630.41 105.669C631.954 104.367 635.042 101.051 636.138 99.5402L609.625 113.708ZM643.293 74.7994C643.244 73.3584 643.144 71.8653 643.078 71.4486C642.928 70.3548 642.696 70.2853 639.209 70.5284L643.293 74.7994Z" fill="#D264EA" stroke="#D264EA"/>
<path d="M572.523 70.95C572.495 71.0332 572.459 71.1833 572.424 71.4431C572.343 72.0475 572.281 73.0777 572.206 74.8198C571.927 81.5851 573.425 88.9814 576.154 94.3653L576.155 94.3673C576.599 95.2536 577.025 96.0375 577.367 96.6159C577.538 96.9058 577.685 97.1388 577.8 97.3053C577.858 97.3889 577.904 97.4502 577.938 97.4914C577.954 97.5103 577.964 97.521 577.968 97.5259C578.051 97.5881 578.142 97.6931 578.206 97.7691C578.287 97.8644 578.386 97.9873 578.496 98.1285C578.715 98.4113 578.986 98.7783 579.256 99.1666C579.847 100.011 581.007 101.337 582.259 102.644C583.51 103.95 584.819 105.202 585.698 105.902C591.605 110.573 599.199 113.259 606.554 113.276H607V103.481V93.306L606.328 91.7521L572.523 70.95ZM572.523 70.95C572.753 70.9031 573.151 70.8739 573.705 70.8756C574.325 70.8774 575.089 70.9171 575.922 70.989C577.59 71.1329 579.511 71.4036 581.08 71.7455L581.08 71.7455C585.748 72.7597 589.234 74.0958 592.902 76.2534M572.523 70.95L592.902 76.2534M592.902 76.2534C595.593 77.8572 596.97 78.9897 599.584 81.7236C602.619 84.9319 604.726 88.0607 606.327 91.7517L592.902 76.2534Z" fill="#FA79F4" stroke="#FA79F4"/>
</svg>
