<svg width="126" height="126" viewBox="0 0 126 126" fill="none" xmlns="http://www.w3.org/2000/svg">
<g clip-path="url(#clip0_772_1252)">
<path d="M62.9998 10.7461C91.7655 10.7461 115.083 34.0638 115.083 62.8294C115.083 91.595 91.7655 114.913 62.9998 114.913C34.2342 114.913 10.9165 91.595 10.9165 62.8294C10.9165 34.0638 34.2342 10.7461 62.9998 10.7461ZM73.4165 70.1211L65.2707 76.6367C64.9847 76.8656 64.7503 77.1522 64.5827 77.4778C64.415 77.8035 64.318 78.1608 64.2978 78.5265C64.2777 78.8922 64.3349 79.258 64.4657 79.6001C64.5966 79.9422 64.7981 80.2528 65.0571 80.5117L71.5103 86.9648C72.7598 88.216 73.6704 89.7646 74.1561 91.4648L75.0675 94.6575C75.4454 95.9971 76.1169 97.2356 77.0331 98.2834C77.9493 99.3311 79.0872 100.162 80.3644 100.715C85.3465 98.4257 89.8293 95.1782 93.5571 91.1575L92.3384 81.3815C92.1251 79.6807 91.4954 78.0587 90.5051 76.6596C89.5148 75.2604 88.1945 74.1273 86.6613 73.3607L79.005 69.5273C78.1143 69.0815 77.1143 68.9005 76.1238 69.0058C75.1333 69.111 74.1937 69.4981 73.4165 70.1211ZM62.9998 21.1628C56.6251 21.1573 50.3344 22.6171 44.6134 25.4292C38.8925 28.2414 33.8944 32.3307 30.005 37.3815L29.1457 38.5326V47.3086C29.145 50.4883 30.1145 53.5925 31.9246 56.2067C33.7347 58.8209 36.2993 60.8206 39.2759 61.9388L40.203 62.2513L46.9217 64.3086C54.0728 66.4961 61.0363 60.6784 60.3436 53.3919L60.2446 52.6367L59.3332 47.1732C59.1317 45.9629 59.364 44.7204 59.9891 43.6647C60.6142 42.6089 61.5918 41.8077 62.7498 41.4023L63.3123 41.2461L66.4998 40.5169C68.3084 40.1036 70.0158 39.3321 71.5213 38.2481C73.0268 37.1641 74.2999 35.7895 75.2655 34.2054C76.2311 32.6213 76.8696 30.8599 77.1433 29.025C77.417 27.1902 77.3204 25.3191 76.8592 23.5221C72.4067 21.9551 67.72 21.1572 62.9998 21.1628Z" fill="#0076AC"/>
<g clip-path="url(#clip1_772_1252)">
<path d="M57.7913 8.66211C86.557 8.66211 109.875 31.9798 109.875 60.7454C109.875 89.5111 86.557 112.829 57.7913 112.829C29.0257 112.829 5.70801 89.5111 5.70801 60.7454C5.70801 31.9798 29.0257 8.66211 57.7913 8.66211ZM68.208 68.0371L60.0622 74.5527C59.7762 74.7816 59.5418 75.0682 59.3742 75.3938C59.2065 75.7195 59.1095 76.0768 59.0893 76.4425C59.0692 76.8082 59.1264 77.174 59.2572 77.5161C59.3881 77.8582 59.5896 78.1688 59.8486 78.4277L66.3018 84.8809C67.5513 86.132 68.4619 87.6806 68.9476 89.3809L69.859 92.5736C70.237 93.9131 70.9084 95.1517 71.8246 96.1994C72.7408 97.2471 73.8787 98.0777 75.1559 98.6309C80.138 96.3417 84.6208 93.0942 88.3486 89.0736L87.1299 79.2975C86.9166 77.5967 86.2869 75.9748 85.2966 74.5756C84.3063 73.1765 82.986 72.0433 81.4528 71.2767L73.7965 67.4434C72.9058 66.9976 71.9058 66.8165 70.9153 66.9218C69.9248 67.027 68.9852 67.4141 68.208 68.0371ZM57.7913 19.0788C51.4166 19.0733 45.1259 20.5331 39.4049 23.3452C33.684 26.1574 28.6859 30.2467 24.7965 35.2975L23.9372 36.4486V45.2246C23.9365 48.4043 24.906 51.5085 26.7161 54.1227C28.5262 56.7369 31.0908 58.7366 34.0674 59.8548L34.9945 60.1673L41.7132 62.2246C48.8643 64.4121 55.8278 58.5944 55.1351 51.3079L55.0361 50.5527L54.1247 45.0892C53.9232 43.8789 54.1555 42.6364 54.7806 41.5807C55.4057 40.525 56.3834 39.7238 57.5413 39.3184L58.1038 39.1621L61.2913 38.4329C63.0999 38.0196 64.8073 37.2481 66.3128 36.1641C67.8183 35.0801 69.0914 33.7055 70.057 32.1214C71.0226 30.5373 71.6611 28.7759 71.9348 26.941C72.2085 25.1062 72.1119 23.2351 71.6507 21.4382C67.1982 19.8711 62.5115 19.0732 57.7913 19.0788Z" fill="#46C4FF"/>
</g>
</g>
<defs>
<clipPath id="clip0_772_1252">
<rect width="125" height="125" fill="white" transform="translate(0.5 0.329102)"/>
</clipPath>
<clipPath id="clip1_772_1252">
<rect width="125" height="125" fill="white" transform="translate(-4.7085 -1.75488)"/>
</clipPath>
</defs>
</svg>
