<svg width="624" height="196" viewBox="0 0 624 196" fill="none" xmlns="http://www.w3.org/2000/svg">
<path d="M0 71.9995C0 55.431 13.4315 41.9995 30 41.9995H594C610.569 41.9995 624 55.431 624 71.9995V166C624 182.568 610.569 196 594 196H30C13.4315 196 0 182.568 0 166V71.9995Z" fill="#C6F0AC"/>
<path fill-rule="evenodd" clip-rule="evenodd" d="M218.368 108.608C218.073 107.797 216.927 107.797 216.632 108.608L215.292 112.292L211.608 113.632C210.797 113.927 210.797 115.073 211.608 115.368L215.292 116.708L216.632 120.392C216.927 121.203 218.073 121.203 218.368 120.392L219.708 116.708L223.392 115.368C224.203 115.073 224.203 113.927 223.392 113.632L219.708 112.292L218.368 108.608Z" fill="#2B5121"/>
<path d="M216.58 83.4399L214.24 82.9399C213.213 82.7132 212.493 82.3332 212.08 81.7999C211.68 81.2665 211.48 80.5132 211.48 79.5399C211.48 78.0732 211.867 76.9932 212.64 76.2999C213.413 75.6065 214.633 75.2599 216.3 75.2599C217.02 75.2599 217.667 75.2932 218.24 75.3599C218.813 75.4132 219.307 75.4999 219.72 75.6199V78.9199C218.773 78.7599 218.08 78.6665 217.64 78.6399C217.2 78.5999 216.747 78.5799 216.28 78.5799C215.84 78.5799 215.52 78.6399 215.32 78.7599C215.133 78.8799 215.04 79.0799 215.04 79.3599C215.04 79.5065 215.073 79.6199 215.14 79.6999C215.22 79.7799 215.353 79.8399 215.54 79.8799L217.72 80.3599C218.4 80.5065 218.907 80.6665 219.24 80.8399C219.573 80.9999 219.84 81.1999 220.04 81.4399C220.267 81.7065 220.427 82.0465 220.52 82.4599C220.627 82.8732 220.68 83.3732 220.68 83.9599C220.68 85.4532 220.28 86.5399 219.48 87.2199C218.68 87.8865 217.447 88.2199 215.78 88.2199C214.927 88.2199 214.1 88.1732 213.3 88.0799C212.513 87.9865 211.927 87.8665 211.54 87.7199V84.2199C212.047 84.3799 212.687 84.5132 213.46 84.6199C214.247 84.7265 215.027 84.7799 215.8 84.7799C216.267 84.7799 216.593 84.7265 216.78 84.6199C216.967 84.5132 217.06 84.3199 217.06 84.0399C217.06 83.8532 217.027 83.7199 216.96 83.6399C216.907 83.5599 216.78 83.4932 216.58 83.4399Z" fill="#2B5121"/>
<path d="M223.981 88.2199C223.021 88.2199 222.321 87.9665 221.881 87.4599C221.441 86.9532 221.221 86.1599 221.221 85.0799C221.221 84.0132 221.494 83.2532 222.041 82.7999C222.601 82.3465 223.528 82.1199 224.821 82.1199C225.128 82.1199 225.434 82.1332 225.741 82.1599C226.061 82.1865 226.341 82.2199 226.581 82.2599V81.7599C226.581 81.4932 226.454 81.3065 226.201 81.1999C225.948 81.0799 225.534 81.0199 224.961 81.0199C224.414 81.0199 223.914 81.0332 223.461 81.0599C223.021 81.0865 222.574 81.1399 222.121 81.2199V78.2799C222.614 78.1599 223.208 78.0732 223.901 78.0199C224.608 77.9532 225.414 77.9199 226.321 77.9199C227.574 77.9199 228.528 78.1999 229.181 78.7599C229.848 79.3065 230.181 80.1132 230.181 81.1799V87.9999H226.781L226.681 87.2199H226.621C226.221 87.5532 225.794 87.8065 225.341 87.9799C224.901 88.1399 224.448 88.2199 223.981 88.2199ZM225.401 84.1599C225.054 84.1599 224.808 84.2132 224.661 84.3199C224.528 84.4132 224.461 84.5932 224.461 84.8599C224.461 85.1265 224.514 85.3132 224.621 85.4199C224.741 85.5132 224.941 85.5599 225.221 85.5599C225.448 85.5599 225.681 85.5399 225.921 85.4999C226.174 85.4465 226.394 85.3799 226.581 85.2999V84.2399C226.394 84.2132 226.201 84.1932 226.001 84.1799C225.814 84.1665 225.614 84.1599 225.401 84.1599Z" fill="#2B5121"/>
<path d="M235.085 74.6999V87.9999H231.485V74.6999H235.085Z" fill="#2B5121"/>
<path d="M237.066 81.0999H236.046V78.1199H237.206L237.626 75.8599H240.666V78.1199H243.146V81.0999H240.666V84.0799C240.666 84.3865 240.746 84.5932 240.906 84.6999C241.079 84.8065 241.393 84.8599 241.846 84.8599C242.046 84.8599 242.293 84.8465 242.586 84.8199C242.879 84.7932 243.113 84.7599 243.286 84.7199V87.8199C243.086 87.9132 242.719 87.9999 242.186 88.0799C241.666 88.1732 241.206 88.2199 240.806 88.2199C239.473 88.2199 238.513 87.9332 237.926 87.3599C237.353 86.7865 237.066 85.8599 237.066 84.5799V81.0999Z" fill="#2B5121"/>
<path d="M253.763 83.0599C253.763 84.9132 253.377 86.2399 252.603 87.0399C251.83 87.8265 250.543 88.2199 248.743 88.2199C246.97 88.2199 245.69 87.8199 244.903 87.0199C244.13 86.2065 243.743 84.8865 243.743 83.0599C243.743 81.2199 244.123 79.9065 244.883 79.1199C245.657 78.3199 246.943 77.9199 248.743 77.9199C250.53 77.9199 251.81 78.3199 252.583 79.1199C253.37 79.9199 253.763 81.2332 253.763 83.0599ZM247.343 83.0199C247.343 83.7932 247.43 84.2999 247.603 84.5399C247.777 84.7665 248.157 84.8799 248.743 84.8799C249.343 84.8799 249.73 84.7665 249.903 84.5399C250.077 84.2999 250.163 83.7932 250.163 83.0199C250.163 82.2465 250.077 81.7465 249.903 81.5199C249.73 81.2799 249.343 81.1599 248.743 81.1599C248.157 81.1599 247.777 81.2799 247.603 81.5199C247.43 81.7465 247.343 82.2465 247.343 83.0199Z" fill="#2B5121"/>
<path d="M266.902 75.4599V78.8199H263.822V87.9999H260.102V78.8199H257.002V75.4599H266.902Z" fill="#2B5121"/>
<path d="M275.041 84.7799V87.5199C274.668 87.7065 274.088 87.8665 273.301 87.9999C272.528 88.1465 271.721 88.2199 270.881 88.2199C269.268 88.2199 268.101 87.8199 267.381 87.0199C266.675 86.2065 266.321 84.8932 266.321 83.0799C266.321 81.3065 266.701 80.0065 267.461 79.1799C268.235 78.3399 269.435 77.9199 271.061 77.9199C272.635 77.9199 273.761 78.2332 274.441 78.8599C275.121 79.4732 275.461 80.5265 275.461 82.0199C275.461 82.4732 275.455 82.8399 275.441 83.1199C275.428 83.3865 275.401 83.6932 275.361 84.0399H269.881C269.895 84.4665 270.015 84.7599 270.241 84.9199C270.468 85.0665 270.875 85.1399 271.461 85.1399C272.101 85.1399 272.755 85.1065 273.421 85.0399C274.101 84.9599 274.641 84.8732 275.041 84.7799ZM271.101 80.7599C270.648 80.7599 270.328 80.8532 270.141 81.0399C269.968 81.2132 269.881 81.5665 269.881 82.0999H272.261V81.6399C272.235 81.2932 272.141 81.0599 271.981 80.9399C271.835 80.8199 271.541 80.7599 271.101 80.7599Z" fill="#2B5121"/>
<path d="M284.083 84.5199V87.4799C283.75 87.6799 283.21 87.8532 282.463 87.9999C281.73 88.1465 280.977 88.2199 280.203 88.2199C278.75 88.2199 277.73 87.8399 277.143 87.0799C276.557 86.3065 276.263 84.9665 276.263 83.0599C276.263 81.1399 276.637 79.8065 277.383 79.0599C278.143 78.2999 279.477 77.9199 281.383 77.9199C281.783 77.9199 282.15 77.9332 282.483 77.9599C282.817 77.9732 283.263 78.0132 283.823 78.0799V81.2399C283.81 81.2399 283.543 81.2265 283.023 81.1999C282.503 81.1732 281.97 81.1599 281.423 81.1599C280.743 81.1599 280.31 81.2665 280.123 81.4799C279.95 81.6932 279.863 82.2199 279.863 83.0599C279.863 83.8199 279.943 84.3132 280.103 84.5399C280.263 84.7532 280.61 84.8599 281.143 84.8599C281.637 84.8599 282.15 84.8265 282.683 84.7599C283.217 84.6932 283.683 84.6132 284.083 84.5199Z" fill="#2B5121"/>
<path d="M288.678 87.9999H285.078V78.1199H288.178L288.318 79.1599H288.398C288.798 78.7332 289.238 78.4199 289.718 78.2199C290.198 78.0199 290.765 77.9199 291.418 77.9199C292.458 77.9199 293.245 78.1932 293.778 78.7399C294.312 79.2865 294.578 80.0932 294.578 81.1599V87.9999H290.978V81.8999C290.978 81.6599 290.892 81.4799 290.718 81.3599C290.558 81.2265 290.312 81.1599 289.978 81.1599C289.752 81.1599 289.532 81.1865 289.318 81.2399C289.105 81.2799 288.892 81.3465 288.678 81.4399V87.9999Z" fill="#2B5121"/>
<path d="M305.619 83.0599C305.619 84.9132 305.232 86.2399 304.459 87.0399C303.685 87.8265 302.399 88.2199 300.599 88.2199C298.825 88.2199 297.545 87.8199 296.759 87.0199C295.985 86.2065 295.599 84.8865 295.599 83.0599C295.599 81.2199 295.979 79.9065 296.739 79.1199C297.512 78.3199 298.799 77.9199 300.599 77.9199C302.385 77.9199 303.665 78.3199 304.439 79.1199C305.225 79.9199 305.619 81.2332 305.619 83.0599ZM299.199 83.0199C299.199 83.7932 299.285 84.2999 299.459 84.5399C299.632 84.7665 300.012 84.8799 300.599 84.8799C301.199 84.8799 301.585 84.7665 301.759 84.5399C301.932 84.2999 302.019 83.7932 302.019 83.0199C302.019 82.2465 301.932 81.7465 301.759 81.5199C301.585 81.2799 301.199 81.1599 300.599 81.1599C300.012 81.1599 299.632 81.2799 299.459 81.5199C299.285 81.7465 299.199 82.2465 299.199 83.0199Z" fill="#2B5121"/>
<path d="M310.28 74.6999V87.9999H306.68V74.6999H310.28Z" fill="#2B5121"/>
<path d="M321.341 83.0599C321.341 84.9132 320.955 86.2399 320.181 87.0399C319.408 87.8265 318.121 88.2199 316.321 88.2199C314.548 88.2199 313.268 87.8199 312.481 87.0199C311.708 86.2065 311.321 84.8865 311.321 83.0599C311.321 81.2199 311.701 79.9065 312.461 79.1199C313.235 78.3199 314.521 77.9199 316.321 77.9199C318.108 77.9199 319.388 78.3199 320.161 79.1199C320.948 79.9199 321.341 81.2332 321.341 83.0599ZM314.921 83.0199C314.921 83.7932 315.008 84.2999 315.181 84.5399C315.355 84.7665 315.735 84.8799 316.321 84.8799C316.921 84.8799 317.308 84.7665 317.481 84.5399C317.655 84.2999 317.741 83.7932 317.741 83.0199C317.741 82.2465 317.655 81.7465 317.481 81.5199C317.308 81.2799 316.921 81.1599 316.321 81.1599C315.735 81.1599 315.355 81.2799 315.181 81.5199C315.008 81.7465 314.921 82.2465 314.921 83.0199ZM316.341 74.4399H320.061L316.961 77.1599H314.221L316.341 74.4399Z" fill="#2B5121"/>
<path d="M327.003 91.2399C326.283 91.2399 325.589 91.1932 324.923 91.0999C324.256 91.0065 323.716 90.8865 323.303 90.7399V87.7999C323.636 87.8799 324.129 87.9465 324.783 87.9999C325.449 88.0665 326.103 88.0999 326.743 88.0999C327.329 88.0999 327.729 88.0265 327.943 87.8799C328.156 87.7199 328.276 87.4399 328.303 87.0399V86.4999C327.836 86.7132 327.369 86.8799 326.903 86.9999C326.449 87.1065 326.009 87.1599 325.583 87.1599C324.316 87.1599 323.423 86.8199 322.903 86.1399C322.383 85.4465 322.123 84.2732 322.123 82.6199C322.123 80.9399 322.509 79.7399 323.283 79.0199C324.069 78.2865 325.356 77.9199 327.143 77.9199C327.876 77.9199 328.736 77.9599 329.723 78.0399C330.723 78.1199 331.449 78.2065 331.903 78.2999V85.8799C331.903 87.8665 331.543 89.2532 330.823 90.0399C330.103 90.8399 328.829 91.2399 327.003 91.2399ZM327.063 81.1199C326.449 81.1199 326.063 81.1999 325.903 81.3599C325.743 81.5199 325.663 81.9332 325.663 82.5999C325.663 83.2132 325.729 83.5999 325.863 83.7599C326.009 83.9199 326.329 83.9999 326.823 83.9999C327.036 83.9999 327.269 83.9799 327.523 83.9399C327.776 83.8865 328.036 83.8132 328.303 83.7199V81.1999C328.049 81.1732 327.823 81.1532 327.623 81.1399C327.436 81.1265 327.249 81.1199 327.063 81.1199Z" fill="#2B5121"/>
<path d="M336.883 77.2999H333.182V74.6999H336.883V77.2999ZM336.842 87.9999H333.242V78.1199H336.842V87.9999Z" fill="#2B5121"/>
<path d="M345.724 84.5199V87.4799C345.391 87.6799 344.851 87.8532 344.104 87.9999C343.371 88.1465 342.617 88.2199 341.844 88.2199C340.391 88.2199 339.371 87.8399 338.784 87.0799C338.197 86.3065 337.904 84.9665 337.904 83.0599C337.904 81.1399 338.277 79.8065 339.024 79.0599C339.784 78.2999 341.117 77.9199 343.024 77.9199C343.424 77.9199 343.791 77.9332 344.124 77.9599C344.457 77.9732 344.904 78.0132 345.464 78.0799V81.2399C345.451 81.2399 345.184 81.2265 344.664 81.1999C344.144 81.1732 343.611 81.1599 343.064 81.1599C342.384 81.1599 341.951 81.2665 341.764 81.4799C341.591 81.6932 341.504 82.2199 341.504 83.0599C341.504 83.8199 341.584 84.3132 341.744 84.5399C341.904 84.7532 342.251 84.8599 342.784 84.8599C343.277 84.8599 343.791 84.8265 344.324 84.7599C344.857 84.6932 345.324 84.6132 345.724 84.5199Z" fill="#2B5121"/>
<path d="M356.42 83.0599C356.42 84.9132 356.033 86.2399 355.26 87.0399C354.486 87.8265 353.2 88.2199 351.4 88.2199C349.626 88.2199 348.346 87.8199 347.56 87.0199C346.786 86.2065 346.4 84.8865 346.4 83.0599C346.4 81.2199 346.78 79.9065 347.54 79.1199C348.313 78.3199 349.6 77.9199 351.4 77.9199C353.186 77.9199 354.466 78.3199 355.24 79.1199C356.026 79.9199 356.42 81.2332 356.42 83.0599ZM350 83.0199C350 83.7932 350.086 84.2999 350.26 84.5399C350.433 84.7665 350.813 84.8799 351.4 84.8799C352 84.8799 352.386 84.7665 352.56 84.5399C352.733 84.2999 352.82 83.7932 352.82 83.0199C352.82 82.2465 352.733 81.7465 352.56 81.5199C352.386 81.2799 352 81.1599 351.4 81.1599C350.813 81.1599 350.433 81.2799 350.26 81.5199C350.086 81.7465 350 82.2465 350 83.0199Z" fill="#2B5121"/>
<path d="M240.25 111.98C240.99 111.98 241.637 112.127 242.19 112.42C242.743 112.713 243.17 113.127 243.47 113.66C243.777 114.187 243.93 114.797 243.93 115.49C243.93 116.177 243.777 116.787 243.47 117.32C243.17 117.853 242.74 118.267 242.18 118.56C241.627 118.853 240.983 119 240.25 119H237.62V111.98H240.25ZM240.14 117.52C240.787 117.52 241.29 117.343 241.65 116.99C242.01 116.637 242.19 116.137 242.19 115.49C242.19 114.843 242.01 114.34 241.65 113.98C241.29 113.62 240.787 113.44 240.14 113.44H239.33V117.52H240.14Z" fill="#2B5121"/>
<path d="M248.206 119.07C247.546 119.07 246.939 118.917 246.386 118.61C245.839 118.303 245.402 117.877 245.076 117.33C244.756 116.777 244.596 116.157 244.596 115.47C244.596 114.783 244.756 114.167 245.076 113.62C245.402 113.073 245.839 112.647 246.386 112.34C246.939 112.033 247.546 111.88 248.206 111.88C248.866 111.88 249.469 112.033 250.016 112.34C250.569 112.647 251.002 113.073 251.316 113.62C251.636 114.167 251.796 114.783 251.796 115.47C251.796 116.157 251.636 116.777 251.316 117.33C250.996 117.877 250.562 118.303 250.016 118.61C249.469 118.917 248.866 119.07 248.206 119.07ZM248.206 117.51C248.766 117.51 249.212 117.323 249.546 116.95C249.886 116.577 250.056 116.083 250.056 115.47C250.056 114.85 249.886 114.357 249.546 113.99C249.212 113.617 248.766 113.43 248.206 113.43C247.639 113.43 247.186 113.613 246.846 113.98C246.512 114.347 246.346 114.843 246.346 115.47C246.346 116.09 246.512 116.587 246.846 116.96C247.186 117.327 247.639 117.51 248.206 117.51Z" fill="#2B5121"/>
<path d="M254.457 113.35V114.77H256.747V116.09H254.457V117.63H257.047V119H252.747V111.98H257.047V113.35H254.457Z" fill="#2B5121"/>
<path d="M265.626 114.24C265.626 114.647 265.533 115.02 265.346 115.36C265.16 115.693 264.873 115.963 264.486 116.17C264.1 116.377 263.62 116.48 263.046 116.48H261.986V119H260.276V111.98H263.046C263.606 111.98 264.08 112.077 264.466 112.27C264.853 112.463 265.143 112.73 265.336 113.07C265.53 113.41 265.626 113.8 265.626 114.24ZM262.916 115.12C263.243 115.12 263.486 115.043 263.646 114.89C263.806 114.737 263.886 114.52 263.886 114.24C263.886 113.96 263.806 113.743 263.646 113.59C263.486 113.437 263.243 113.36 262.916 113.36H261.986V115.12H262.916Z" fill="#2B5121"/>
<path d="M268.226 113.35V114.77H270.516V116.09H268.226V117.63H270.816V119H266.516V111.98H270.816V113.35H268.226Z" fill="#2B5121"/>
<path d="M273.637 117.68H275.877V119H271.927V111.98H273.637V117.68Z" fill="#2B5121"/>
<path d="M281.062 117.76H278.442L278.022 119H276.232L278.772 111.98H280.752L283.292 119H281.482L281.062 117.76ZM280.622 116.44L279.752 113.87L278.892 116.44H280.622Z" fill="#2B5121"/>
<path d="M291.534 114.24C291.534 114.647 291.441 115.02 291.254 115.36C291.068 115.693 290.781 115.963 290.394 116.17C290.008 116.377 289.528 116.48 288.954 116.48H287.894V119H286.184V111.98H288.954C289.514 111.98 289.988 112.077 290.374 112.27C290.761 112.463 291.051 112.73 291.244 113.07C291.438 113.41 291.534 113.8 291.534 114.24ZM288.824 115.12C289.151 115.12 289.394 115.043 289.554 114.89C289.714 114.737 289.794 114.52 289.794 114.24C289.794 113.96 289.714 113.743 289.554 113.59C289.394 113.437 289.151 113.36 288.824 113.36H287.894V115.12H288.824Z" fill="#2B5121"/>
<path d="M296.005 119L294.545 116.35H294.135V119H292.425V111.98H295.295C295.848 111.98 296.318 112.077 296.705 112.27C297.098 112.463 297.391 112.73 297.585 113.07C297.778 113.403 297.875 113.777 297.875 114.19C297.875 114.657 297.741 115.073 297.475 115.44C297.215 115.807 296.828 116.067 296.315 116.22L297.935 119H296.005ZM294.135 115.14H295.195C295.508 115.14 295.741 115.063 295.895 114.91C296.055 114.757 296.135 114.54 296.135 114.26C296.135 113.993 296.055 113.783 295.895 113.63C295.741 113.477 295.508 113.4 295.195 113.4H294.135V115.14Z" fill="#2B5121"/>
<path d="M300.658 111.98V119H298.948V111.98H300.658Z" fill="#2B5121"/>
<path d="M309.847 111.98V119H308.137V114.79L306.567 119H305.187L303.607 114.78V119H301.897V111.98H303.917L305.887 116.84L307.837 111.98H309.847Z" fill="#2B5121"/>
<path d="M312.787 113.35V114.77H315.077V116.09H312.787V117.63H315.377V119H311.077V111.98H315.377V113.35H312.787Z" fill="#2B5121"/>
<path d="M318.197 111.98V119H316.487V111.98H318.197Z" fill="#2B5121"/>
<path d="M323.016 119L321.556 116.35H321.146V119H319.436V111.98H322.306C322.86 111.98 323.33 112.077 323.716 112.27C324.11 112.463 324.403 112.73 324.596 113.07C324.79 113.403 324.886 113.777 324.886 114.19C324.886 114.657 324.753 115.073 324.486 115.44C324.226 115.807 323.84 116.067 323.326 116.22L324.946 119H323.016ZM321.146 115.14H322.206C322.52 115.14 322.753 115.063 322.906 114.91C323.066 114.757 323.146 114.54 323.146 114.26C323.146 113.993 323.066 113.783 322.906 113.63C322.753 113.477 322.52 113.4 322.206 113.4H321.146V115.14Z" fill="#2B5121"/>
<path d="M330.33 117.76H327.71L327.29 119H325.5L328.04 111.98H330.02L332.56 119H330.75L330.33 117.76ZM329.89 116.44L329.02 113.87L328.16 116.44H329.89Z" fill="#2B5121"/>
<path d="M342.042 111.98L339.552 119H337.412L334.922 111.98H336.742L338.482 117.28L340.232 111.98H342.042Z" fill="#2B5121"/>
<path d="M344.467 113.35V114.77H346.757V116.09H344.467V117.63H347.057V119H342.757V111.98H347.057V113.35H344.467Z" fill="#2B5121"/>
<path d="M349.987 117.6H353.007V119H348.047V117.7L351.047 113.38H348.047V111.98H353.007V113.28L349.987 117.6Z" fill="#2B5121"/>
<path d="M215.228 151.27C216.264 151.27 217.169 151.471 217.944 151.872C218.728 152.264 219.33 152.834 219.75 153.58C220.179 154.318 220.394 155.181 220.394 156.17C220.394 157.16 220.179 158.018 219.75 158.746C219.33 159.474 218.728 160.034 217.944 160.426C217.169 160.809 216.264 161 215.228 161H212.05V151.27H215.228ZM215.228 159.698C216.367 159.698 217.239 159.39 217.846 158.774C218.453 158.158 218.756 157.29 218.756 156.17C218.756 155.041 218.453 154.159 217.846 153.524C217.239 152.89 216.367 152.572 215.228 152.572H213.646V159.698H215.228Z" fill="#2B5121"/>
<path d="M221.444 157.108C221.444 156.334 221.602 155.648 221.92 155.05C222.246 154.453 222.685 153.991 223.236 153.664C223.796 153.328 224.412 153.16 225.084 153.16C225.69 153.16 226.218 153.282 226.666 153.524C227.123 153.758 227.487 154.052 227.758 154.406V153.286H229.368V161H227.758V159.852C227.487 160.216 227.118 160.52 226.652 160.762C226.185 161.005 225.653 161.126 225.056 161.126C224.393 161.126 223.786 160.958 223.236 160.622C222.685 160.277 222.246 159.801 221.92 159.194C221.602 158.578 221.444 157.883 221.444 157.108ZM227.758 157.136C227.758 156.604 227.646 156.142 227.422 155.75C227.207 155.358 226.922 155.06 226.568 154.854C226.213 154.649 225.83 154.546 225.42 154.546C225.009 154.546 224.626 154.649 224.272 154.854C223.917 155.05 223.628 155.344 223.404 155.736C223.189 156.119 223.082 156.576 223.082 157.108C223.082 157.64 223.189 158.107 223.404 158.508C223.628 158.91 223.917 159.218 224.272 159.432C224.636 159.638 225.018 159.74 225.42 159.74C225.83 159.74 226.213 159.638 226.568 159.432C226.922 159.227 227.207 158.928 227.422 158.536C227.646 158.135 227.758 157.668 227.758 157.136Z" fill="#2B5121"/>
<path d="M235.356 153.16C235.963 153.16 236.504 153.286 236.98 153.538C237.465 153.79 237.843 154.164 238.114 154.658C238.385 155.153 238.52 155.75 238.52 156.45V161H236.938V156.688C236.938 155.998 236.765 155.47 236.42 155.106C236.075 154.733 235.603 154.546 235.006 154.546C234.409 154.546 233.933 154.733 233.578 155.106C233.233 155.47 233.06 155.998 233.06 156.688V161H231.464V153.286H233.06V154.168C233.321 153.851 233.653 153.604 234.054 153.426C234.465 153.249 234.899 153.16 235.356 153.16Z" fill="#2B5121"/>
<path d="M240.024 157.108C240.024 156.334 240.183 155.648 240.5 155.05C240.827 154.453 241.265 153.991 241.816 153.664C242.376 153.328 242.997 153.16 243.678 153.16C244.182 153.16 244.677 153.272 245.162 153.496C245.657 153.711 246.049 154 246.338 154.364V150.64H247.948V161H246.338V159.838C246.077 160.212 245.713 160.52 245.246 160.762C244.789 161.005 244.261 161.126 243.664 161.126C242.992 161.126 242.376 160.958 241.816 160.622C241.265 160.277 240.827 159.801 240.5 159.194C240.183 158.578 240.024 157.883 240.024 157.108ZM246.338 157.136C246.338 156.604 246.226 156.142 246.002 155.75C245.787 155.358 245.503 155.06 245.148 154.854C244.793 154.649 244.411 154.546 244 154.546C243.589 154.546 243.207 154.649 242.852 154.854C242.497 155.05 242.208 155.344 241.984 155.736C241.769 156.119 241.662 156.576 241.662 157.108C241.662 157.64 241.769 158.107 241.984 158.508C242.208 158.91 242.497 159.218 242.852 159.432C243.216 159.638 243.599 159.74 244 159.74C244.411 159.74 244.793 159.638 245.148 159.432C245.503 159.227 245.787 158.928 246.002 158.536C246.226 158.135 246.338 157.668 246.338 157.136Z" fill="#2B5121"/>
<path d="M253.39 161.126C252.662 161.126 252.004 160.963 251.416 160.636C250.828 160.3 250.366 159.834 250.03 159.236C249.694 158.63 249.526 157.93 249.526 157.136C249.526 156.352 249.699 155.657 250.044 155.05C250.389 154.444 250.861 153.977 251.458 153.65C252.055 153.324 252.723 153.16 253.46 153.16C254.197 153.16 254.865 153.324 255.462 153.65C256.059 153.977 256.531 154.444 256.876 155.05C257.221 155.657 257.394 156.352 257.394 157.136C257.394 157.92 257.217 158.616 256.862 159.222C256.507 159.829 256.022 160.3 255.406 160.636C254.799 160.963 254.127 161.126 253.39 161.126ZM253.39 159.74C253.801 159.74 254.183 159.642 254.538 159.446C254.902 159.25 255.196 158.956 255.42 158.564C255.644 158.172 255.756 157.696 255.756 157.136C255.756 156.576 255.649 156.105 255.434 155.722C255.219 155.33 254.935 155.036 254.58 154.84C254.225 154.644 253.843 154.546 253.432 154.546C253.021 154.546 252.639 154.644 252.284 154.84C251.939 155.036 251.663 155.33 251.458 155.722C251.253 156.105 251.15 156.576 251.15 157.136C251.15 157.967 251.36 158.611 251.78 159.068C252.209 159.516 252.746 159.74 253.39 159.74Z" fill="#2B5121"/>
<path d="M265.717 153.16C266.314 153.16 266.841 153.282 267.299 153.524C267.765 153.758 268.129 154.052 268.391 154.406V153.286H270.001V161.126C270.001 161.836 269.851 162.466 269.553 163.016C269.254 163.576 268.82 164.015 268.251 164.332C267.691 164.65 267.019 164.808 266.235 164.808C265.189 164.808 264.321 164.561 263.631 164.066C262.94 163.581 262.548 162.918 262.455 162.078H264.037C264.158 162.48 264.415 162.802 264.807 163.044C265.208 163.296 265.684 163.422 266.235 163.422C266.879 163.422 267.397 163.226 267.789 162.834C268.19 162.442 268.391 161.873 268.391 161.126V159.838C268.12 160.202 267.751 160.51 267.285 160.762C266.827 161.005 266.305 161.126 265.717 161.126C265.045 161.126 264.429 160.958 263.869 160.622C263.318 160.277 262.879 159.801 262.553 159.194C262.235 158.578 262.077 157.883 262.077 157.108C262.077 156.334 262.235 155.648 262.553 155.05C262.879 154.453 263.318 153.991 263.869 153.664C264.429 153.328 265.045 153.16 265.717 153.16ZM268.391 157.136C268.391 156.604 268.279 156.142 268.055 155.75C267.84 155.358 267.555 155.06 267.201 154.854C266.846 154.649 266.463 154.546 266.053 154.546C265.642 154.546 265.259 154.649 264.905 154.854C264.55 155.05 264.261 155.344 264.037 155.736C263.822 156.119 263.715 156.576 263.715 157.108C263.715 157.64 263.822 158.107 264.037 158.508C264.261 158.91 264.55 159.218 264.905 159.432C265.269 159.638 265.651 159.74 266.053 159.74C266.463 159.74 266.846 159.638 267.201 159.432C267.555 159.227 267.84 158.928 268.055 158.536C268.279 158.135 268.391 157.668 268.391 157.136Z" fill="#2B5121"/>
<path d="M273.693 154.406C273.926 154.014 274.234 153.711 274.617 153.496C275.009 153.272 275.471 153.16 276.003 153.16V154.812H275.597C274.972 154.812 274.496 154.971 274.169 155.288C273.852 155.606 273.693 156.156 273.693 156.94V161H272.097V153.286H273.693V154.406Z" fill="#2B5121"/>
<path d="M276.938 157.108C276.938 156.334 277.097 155.648 277.414 155.05C277.741 154.453 278.179 153.991 278.73 153.664C279.29 153.328 279.906 153.16 280.578 153.16C281.185 153.16 281.712 153.282 282.16 153.524C282.617 153.758 282.981 154.052 283.252 154.406V153.286H284.862V161H283.252V159.852C282.981 160.216 282.613 160.52 282.146 160.762C281.679 161.005 281.147 161.126 280.55 161.126C279.887 161.126 279.281 160.958 278.73 160.622C278.179 160.277 277.741 159.801 277.414 159.194C277.097 158.578 276.938 157.883 276.938 157.108ZM283.252 157.136C283.252 156.604 283.14 156.142 282.916 155.75C282.701 155.358 282.417 155.06 282.062 154.854C281.707 154.649 281.325 154.546 280.914 154.546C280.503 154.546 280.121 154.649 279.766 154.854C279.411 155.05 279.122 155.344 278.898 155.736C278.683 156.119 278.576 156.576 278.576 157.108C278.576 157.64 278.683 158.107 278.898 158.508C279.122 158.91 279.411 159.218 279.766 159.432C280.13 159.638 280.513 159.74 280.914 159.74C281.325 159.74 281.707 159.638 282.062 159.432C282.417 159.227 282.701 158.928 282.916 158.536C283.14 158.135 283.252 157.668 283.252 157.136Z" fill="#2B5121"/>
<path d="M290.85 153.16C291.457 153.16 291.998 153.286 292.474 153.538C292.96 153.79 293.338 154.164 293.608 154.658C293.879 155.153 294.014 155.75 294.014 156.45V161H292.432V156.688C292.432 155.998 292.26 155.47 291.914 155.106C291.569 154.733 291.098 154.546 290.5 154.546C289.903 154.546 289.427 154.733 289.072 155.106C288.727 155.47 288.554 155.998 288.554 156.688V161H286.958V153.286H288.554V154.168C288.816 153.851 289.147 153.604 289.548 153.426C289.959 153.249 290.393 153.16 290.85 153.16Z" fill="#2B5121"/>
<path d="M295.518 157.108C295.518 156.334 295.677 155.648 295.994 155.05C296.321 154.453 296.759 153.991 297.31 153.664C297.87 153.328 298.491 153.16 299.172 153.16C299.676 153.16 300.171 153.272 300.656 153.496C301.151 153.711 301.543 154 301.832 154.364V150.64H303.442V161H301.832V159.838C301.571 160.212 301.207 160.52 300.74 160.762C300.283 161.005 299.755 161.126 299.158 161.126C298.486 161.126 297.87 160.958 297.31 160.622C296.759 160.277 296.321 159.801 295.994 159.194C295.677 158.578 295.518 157.883 295.518 157.108ZM301.832 157.136C301.832 156.604 301.72 156.142 301.496 155.75C301.281 155.358 300.997 155.06 300.642 154.854C300.287 154.649 299.905 154.546 299.494 154.546C299.083 154.546 298.701 154.649 298.346 154.854C297.991 155.05 297.702 155.344 297.478 155.736C297.263 156.119 297.156 156.576 297.156 157.108C297.156 157.64 297.263 158.107 297.478 158.508C297.702 158.91 297.991 159.218 298.346 159.432C298.71 159.638 299.093 159.74 299.494 159.74C299.905 159.74 300.287 159.638 300.642 159.432C300.997 159.227 301.281 158.928 301.496 158.536C301.72 158.135 301.832 157.668 301.832 157.136Z" fill="#2B5121"/>
<path d="M312.608 156.954C312.608 157.244 312.59 157.505 312.552 157.738H306.658C306.705 158.354 306.934 158.849 307.344 159.222C307.755 159.596 308.259 159.782 308.856 159.782C309.715 159.782 310.322 159.423 310.676 158.704H312.398C312.165 159.414 311.74 159.997 311.124 160.454C310.518 160.902 309.762 161.126 308.856 161.126C308.119 161.126 307.456 160.963 306.868 160.636C306.29 160.3 305.832 159.834 305.496 159.236C305.17 158.63 305.006 157.93 305.006 157.136C305.006 156.343 305.165 155.648 305.482 155.05C305.809 154.444 306.262 153.977 306.84 153.65C307.428 153.324 308.1 153.16 308.856 153.16C309.584 153.16 310.233 153.319 310.802 153.636C311.372 153.954 311.815 154.402 312.132 154.98C312.45 155.55 312.608 156.208 312.608 156.954ZM310.942 156.45C310.933 155.862 310.723 155.391 310.312 155.036C309.902 154.682 309.393 154.504 308.786 154.504C308.236 154.504 307.764 154.682 307.372 155.036C306.98 155.382 306.747 155.853 306.672 156.45H310.942Z" fill="#2B5121"/>
<path d="M316.979 161.126C316.372 161.126 315.826 161.019 315.341 160.804C314.865 160.58 314.487 160.282 314.207 159.908C313.927 159.526 313.778 159.101 313.759 158.634H315.411C315.439 158.961 315.593 159.236 315.873 159.46C316.162 159.675 316.522 159.782 316.951 159.782C317.399 159.782 317.744 159.698 317.987 159.53C318.239 159.353 318.365 159.129 318.365 158.858C318.365 158.569 318.225 158.354 317.945 158.214C317.674 158.074 317.24 157.92 316.643 157.752C316.064 157.594 315.593 157.44 315.229 157.29C314.865 157.141 314.548 156.912 314.277 156.604C314.016 156.296 313.885 155.89 313.885 155.386C313.885 154.976 314.006 154.602 314.249 154.266C314.492 153.921 314.837 153.65 315.285 153.454C315.742 153.258 316.265 153.16 316.853 153.16C317.73 153.16 318.435 153.384 318.967 153.832C319.508 154.271 319.798 154.873 319.835 155.638H318.239C318.211 155.293 318.071 155.018 317.819 154.812C317.567 154.607 317.226 154.504 316.797 154.504C316.377 154.504 316.055 154.584 315.831 154.742C315.607 154.901 315.495 155.111 315.495 155.372C315.495 155.578 315.57 155.75 315.719 155.89C315.868 156.03 316.05 156.142 316.265 156.226C316.48 156.301 316.797 156.399 317.217 156.52C317.777 156.67 318.234 156.824 318.589 156.982C318.953 157.132 319.266 157.356 319.527 157.654C319.788 157.953 319.924 158.35 319.933 158.844C319.933 159.283 319.812 159.675 319.569 160.02C319.326 160.366 318.981 160.636 318.533 160.832C318.094 161.028 317.576 161.126 316.979 161.126Z" fill="#2B5121"/>
<path d="M328.094 161.126C327.487 161.126 326.941 161.019 326.456 160.804C325.98 160.58 325.602 160.282 325.322 159.908C325.042 159.526 324.893 159.101 324.874 158.634H326.526C326.554 158.961 326.708 159.236 326.988 159.46C327.277 159.675 327.637 159.782 328.066 159.782C328.514 159.782 328.859 159.698 329.102 159.53C329.354 159.353 329.48 159.129 329.48 158.858C329.48 158.569 329.34 158.354 329.06 158.214C328.789 158.074 328.355 157.92 327.758 157.752C327.179 157.594 326.708 157.44 326.344 157.29C325.98 157.141 325.663 156.912 325.392 156.604C325.131 156.296 325 155.89 325 155.386C325 154.976 325.121 154.602 325.364 154.266C325.607 153.921 325.952 153.65 326.4 153.454C326.857 153.258 327.38 153.16 327.968 153.16C328.845 153.16 329.55 153.384 330.082 153.832C330.623 154.271 330.913 154.873 330.95 155.638H329.354C329.326 155.293 329.186 155.018 328.934 154.812C328.682 154.607 328.341 154.504 327.912 154.504C327.492 154.504 327.17 154.584 326.946 154.742C326.722 154.901 326.61 155.111 326.61 155.372C326.61 155.578 326.685 155.75 326.834 155.89C326.983 156.03 327.165 156.142 327.38 156.226C327.595 156.301 327.912 156.399 328.332 156.52C328.892 156.67 329.349 156.824 329.704 156.982C330.068 157.132 330.381 157.356 330.642 157.654C330.903 157.953 331.039 158.35 331.048 158.844C331.048 159.283 330.927 159.675 330.684 160.02C330.441 160.366 330.096 160.636 329.648 160.832C329.209 161.028 328.691 161.126 328.094 161.126Z" fill="#2B5121"/>
<path d="M332.241 157.108C332.241 156.334 332.399 155.648 332.717 155.05C333.043 154.453 333.482 153.991 334.033 153.664C334.593 153.328 335.209 153.16 335.881 153.16C336.487 153.16 337.015 153.282 337.463 153.524C337.92 153.758 338.284 154.052 338.555 154.406V153.286H340.165V161H338.555V159.852C338.284 160.216 337.915 160.52 337.449 160.762C336.982 161.005 336.45 161.126 335.853 161.126C335.19 161.126 334.583 160.958 334.033 160.622C333.482 160.277 333.043 159.801 332.717 159.194C332.399 158.578 332.241 157.883 332.241 157.108ZM338.555 157.136C338.555 156.604 338.443 156.142 338.219 155.75C338.004 155.358 337.719 155.06 337.365 154.854C337.01 154.649 336.627 154.546 336.217 154.546C335.806 154.546 335.423 154.649 335.069 154.854C334.714 155.05 334.425 155.344 334.201 155.736C333.986 156.119 333.879 156.576 333.879 157.108C333.879 157.64 333.986 158.107 334.201 158.508C334.425 158.91 334.714 159.218 335.069 159.432C335.433 159.638 335.815 159.74 336.217 159.74C336.627 159.74 337.01 159.638 337.365 159.432C337.719 159.227 338.004 158.928 338.219 158.536C338.443 158.135 338.555 157.668 338.555 157.136Z" fill="#2B5121"/>
<path d="M343.857 150.64V161H342.261V150.64H343.857Z" fill="#2B5121"/>
<path d="M347.814 154.588V158.858C347.814 159.148 347.88 159.358 348.01 159.488C348.15 159.61 348.384 159.67 348.71 159.67H349.69V161H348.43C347.712 161 347.161 160.832 346.778 160.496C346.396 160.16 346.204 159.614 346.204 158.858V154.588H345.294V153.286H346.204V151.368H347.814V153.286H349.69V154.588H347.814Z" fill="#2B5121"/>
<path d="M354.507 161.126C353.779 161.126 353.121 160.963 352.533 160.636C351.945 160.3 351.483 159.834 351.147 159.236C350.811 158.63 350.643 157.93 350.643 157.136C350.643 156.352 350.816 155.657 351.161 155.05C351.507 154.444 351.978 153.977 352.575 153.65C353.173 153.324 353.84 153.16 354.577 153.16C355.315 153.16 355.982 153.324 356.579 153.65C357.177 153.977 357.648 154.444 357.993 155.05C358.339 155.657 358.511 156.352 358.511 157.136C358.511 157.92 358.334 158.616 357.979 159.222C357.625 159.829 357.139 160.3 356.523 160.636C355.917 160.963 355.245 161.126 354.507 161.126ZM354.507 159.74C354.918 159.74 355.301 159.642 355.655 159.446C356.019 159.25 356.313 158.956 356.537 158.564C356.761 158.172 356.873 157.696 356.873 157.136C356.873 156.576 356.766 156.105 356.551 155.722C356.337 155.33 356.052 155.036 355.697 154.84C355.343 154.644 354.96 154.546 354.549 154.546C354.139 154.546 353.756 154.644 353.401 154.84C353.056 155.036 352.781 155.33 352.575 155.722C352.37 156.105 352.267 156.576 352.267 157.136C352.267 157.967 352.477 158.611 352.897 159.068C353.327 159.516 353.863 159.74 354.507 159.74Z" fill="#2B5121"/>
<path d="M362.889 161.126C362.282 161.126 361.736 161.019 361.251 160.804C360.775 160.58 360.397 160.282 360.117 159.908C359.837 159.526 359.688 159.101 359.669 158.634H361.321C361.349 158.961 361.503 159.236 361.783 159.46C362.072 159.675 362.432 159.782 362.861 159.782C363.309 159.782 363.654 159.698 363.897 159.53C364.149 159.353 364.275 159.129 364.275 158.858C364.275 158.569 364.135 158.354 363.855 158.214C363.584 158.074 363.15 157.92 362.553 157.752C361.974 157.594 361.503 157.44 361.139 157.29C360.775 157.141 360.458 156.912 360.187 156.604C359.926 156.296 359.795 155.89 359.795 155.386C359.795 154.976 359.916 154.602 360.159 154.266C360.402 153.921 360.747 153.65 361.195 153.454C361.652 153.258 362.175 153.16 362.763 153.16C363.64 153.16 364.345 153.384 364.877 153.832C365.418 154.271 365.708 154.873 365.745 155.638H364.149C364.121 155.293 363.981 155.018 363.729 154.812C363.477 154.607 363.136 154.504 362.707 154.504C362.287 154.504 361.965 154.584 361.741 154.742C361.517 154.901 361.405 155.111 361.405 155.372C361.405 155.578 361.48 155.75 361.629 155.89C361.778 156.03 361.96 156.142 362.175 156.226C362.39 156.301 362.707 156.399 363.127 156.52C363.687 156.67 364.144 156.824 364.499 156.982C364.863 157.132 365.176 157.356 365.437 157.654C365.698 157.953 365.834 158.35 365.843 158.844C365.843 159.283 365.722 159.675 365.479 160.02C365.236 160.366 364.891 160.636 364.443 160.832C364.004 161.028 363.486 161.126 362.889 161.126Z" fill="#2B5121"/>
<path d="M372.8 154.406C373.034 154.014 373.342 153.711 373.724 153.496C374.116 153.272 374.578 153.16 375.11 153.16V154.812H374.704C374.079 154.812 373.603 154.971 373.276 155.288C372.959 155.606 372.8 156.156 372.8 156.94V161H371.204V153.286H372.8V154.406Z" fill="#2B5121"/>
<path d="M383.563 153.286V161H381.967V160.09C381.715 160.408 381.384 160.66 380.973 160.846C380.572 161.024 380.143 161.112 379.685 161.112C379.079 161.112 378.533 160.986 378.047 160.734C377.571 160.482 377.193 160.109 376.913 159.614C376.643 159.12 376.507 158.522 376.507 157.822V153.286H378.089V157.584C378.089 158.275 378.262 158.807 378.607 159.18C378.953 159.544 379.424 159.726 380.021 159.726C380.619 159.726 381.09 159.544 381.435 159.18C381.79 158.807 381.967 158.275 381.967 157.584V153.286H383.563Z" fill="#2B5121"/>
<path d="M395.007 153.16C395.614 153.16 396.155 153.286 396.631 153.538C397.116 153.79 397.494 154.164 397.765 154.658C398.045 155.153 398.185 155.75 398.185 156.45V161H396.603V156.688C396.603 155.998 396.43 155.47 396.085 155.106C395.74 154.733 395.268 154.546 394.671 154.546C394.074 154.546 393.598 154.733 393.243 155.106C392.898 155.47 392.725 155.998 392.725 156.688V161H391.143V156.688C391.143 155.998 390.97 155.47 390.625 155.106C390.28 154.733 389.808 154.546 389.211 154.546C388.614 154.546 388.138 154.733 387.783 155.106C387.438 155.47 387.265 155.998 387.265 156.688V161H385.669V153.286H387.265V154.168C387.526 153.851 387.858 153.604 388.259 153.426C388.66 153.249 389.09 153.16 389.547 153.16C390.163 153.16 390.714 153.291 391.199 153.552C391.684 153.814 392.058 154.192 392.319 154.686C392.552 154.22 392.916 153.851 393.411 153.58C393.906 153.3 394.438 153.16 395.007 153.16Z" fill="#2B5121"/>
<path d="M403.562 161.126C402.834 161.126 402.176 160.963 401.588 160.636C401 160.3 400.538 159.834 400.202 159.236C399.866 158.63 399.698 157.93 399.698 157.136C399.698 156.352 399.871 155.657 400.216 155.05C400.561 154.444 401.033 153.977 401.63 153.65C402.227 153.324 402.895 153.16 403.632 153.16C404.369 153.16 405.037 153.324 405.634 153.65C406.231 153.977 406.703 154.444 407.048 155.05C407.393 155.657 407.566 156.352 407.566 157.136C407.566 157.92 407.389 158.616 407.034 159.222C406.679 159.829 406.194 160.3 405.578 160.636C404.971 160.963 404.299 161.126 403.562 161.126ZM403.562 159.74C403.973 159.74 404.355 159.642 404.71 159.446C405.074 159.25 405.368 158.956 405.592 158.564C405.816 158.172 405.928 157.696 405.928 157.136C405.928 156.576 405.821 156.105 405.606 155.722C405.391 155.33 405.107 155.036 404.752 154.84C404.397 154.644 404.015 154.546 403.604 154.546C403.193 154.546 402.811 154.644 402.456 154.84C402.111 155.036 401.835 155.33 401.63 155.722C401.425 156.105 401.322 156.576 401.322 157.136C401.322 157.967 401.532 158.611 401.952 159.068C402.381 159.516 402.918 159.74 403.562 159.74Z" fill="#2B5121"/>
<path d="M412.248 157.108C412.248 156.334 412.407 155.648 412.724 155.05C413.051 154.453 413.49 153.991 414.04 153.664C414.6 153.328 415.216 153.16 415.888 153.16C416.495 153.16 417.022 153.282 417.47 153.524C417.928 153.758 418.292 154.052 418.562 154.406V153.286H420.172V161H418.562V159.852C418.292 160.216 417.923 160.52 417.456 160.762C416.99 161.005 416.458 161.126 415.86 161.126C415.198 161.126 414.591 160.958 414.04 160.622C413.49 160.277 413.051 159.801 412.724 159.194C412.407 158.578 412.248 157.883 412.248 157.108ZM418.562 157.136C418.562 156.604 418.45 156.142 418.226 155.75C418.012 155.358 417.727 155.06 417.372 154.854C417.018 154.649 416.635 154.546 416.224 154.546C415.814 154.546 415.431 154.649 415.076 154.854C414.722 155.05 414.432 155.344 414.208 155.736C413.994 156.119 413.886 156.576 413.886 157.108C413.886 157.64 413.994 158.107 414.208 158.508C414.432 158.91 414.722 159.218 415.076 159.432C415.44 159.638 415.823 159.74 416.224 159.74C416.635 159.74 417.018 159.638 417.372 159.432C417.727 159.227 418.012 158.928 418.226 158.536C418.45 158.135 418.562 157.668 418.562 157.136Z" fill="#2B5121"/>
<path d="M425.615 161.126C424.887 161.126 424.229 160.963 423.641 160.636C423.053 160.3 422.591 159.834 422.255 159.236C421.919 158.63 421.751 157.93 421.751 157.136C421.751 156.352 421.923 155.657 422.269 155.05C422.614 154.444 423.085 153.977 423.683 153.65C424.28 153.324 424.947 153.16 425.685 153.16C426.422 153.16 427.089 153.324 427.687 153.65C428.284 153.977 428.755 154.444 429.101 155.05C429.446 155.657 429.619 156.352 429.619 157.136C429.619 157.92 429.441 158.616 429.087 159.222C428.732 159.829 428.247 160.3 427.631 160.636C427.024 160.963 426.352 161.126 425.615 161.126ZM425.615 159.74C426.025 159.74 426.408 159.642 426.763 159.446C427.127 159.25 427.421 158.956 427.645 158.564C427.869 158.172 427.981 157.696 427.981 157.136C427.981 156.576 427.873 156.105 427.659 155.722C427.444 155.33 427.159 155.036 426.805 154.84C426.45 154.644 426.067 154.546 425.657 154.546C425.246 154.546 424.863 154.644 424.509 154.84C424.163 155.036 423.888 155.33 423.683 155.722C423.477 156.105 423.375 156.576 423.375 157.136C423.375 157.967 423.585 158.611 424.005 159.068C424.434 159.516 424.971 159.74 425.615 159.74Z" fill="#2B5121"/>
<path d="M438.067 154.588H436.639V161H435.029V154.588H434.119V153.286H435.029V152.74C435.029 151.854 435.263 151.21 435.729 150.808C436.205 150.398 436.947 150.192 437.955 150.192V151.522C437.47 151.522 437.129 151.616 436.933 151.802C436.737 151.98 436.639 152.292 436.639 152.74V153.286H438.067V154.588Z" fill="#2B5121"/>
<path d="M446.468 153.286V161H444.872V160.09C444.62 160.408 444.288 160.66 443.878 160.846C443.476 161.024 443.047 161.112 442.59 161.112C441.983 161.112 441.437 160.986 440.952 160.734C440.476 160.482 440.098 160.109 439.818 159.614C439.547 159.12 439.412 158.522 439.412 157.822V153.286H440.994V157.584C440.994 158.275 441.166 158.807 441.512 159.18C441.857 159.544 442.328 159.726 442.926 159.726C443.523 159.726 443.994 159.544 444.34 159.18C444.694 158.807 444.872 158.275 444.872 157.584V153.286H446.468Z" fill="#2B5121"/>
<path d="M450.435 154.588V158.858C450.435 159.148 450.501 159.358 450.631 159.488C450.771 159.61 451.005 159.67 451.331 159.67H452.311V161H451.051C450.333 161 449.782 160.832 449.399 160.496C449.017 160.16 448.825 159.614 448.825 158.858V154.588H447.915V153.286H448.825V151.368H450.435V153.286H452.311V154.588H450.435Z" fill="#2B5121"/>
<path d="M460.768 153.286V161H459.172V160.09C458.92 160.408 458.589 160.66 458.178 160.846C457.777 161.024 457.348 161.112 456.89 161.112C456.284 161.112 455.738 160.986 455.252 160.734C454.776 160.482 454.398 160.109 454.118 159.614C453.848 159.12 453.712 158.522 453.712 157.822V153.286H455.294V157.584C455.294 158.275 455.467 158.807 455.812 159.18C456.158 159.544 456.629 159.726 457.226 159.726C457.824 159.726 458.295 159.544 458.64 159.18C458.995 158.807 459.172 158.275 459.172 157.584V153.286H460.768Z" fill="#2B5121"/>
<path d="M464.47 154.406C464.704 154.014 465.012 153.711 465.394 153.496C465.786 153.272 466.248 153.16 466.78 153.16V154.812H466.374C465.749 154.812 465.273 154.971 464.946 155.288C464.629 155.606 464.47 156.156 464.47 156.94V161H462.874V153.286H464.47V154.406Z" fill="#2B5121"/>
<path d="M471.593 161.126C470.865 161.126 470.207 160.963 469.619 160.636C469.031 160.3 468.569 159.834 468.233 159.236C467.897 158.63 467.729 157.93 467.729 157.136C467.729 156.352 467.902 155.657 468.247 155.05C468.593 154.444 469.064 153.977 469.661 153.65C470.259 153.324 470.926 153.16 471.663 153.16C472.401 153.16 473.068 153.324 473.665 153.65C474.263 153.977 474.734 154.444 475.079 155.05C475.425 155.657 475.597 156.352 475.597 157.136C475.597 157.92 475.42 158.616 475.065 159.222C474.711 159.829 474.225 160.3 473.609 160.636C473.003 160.963 472.331 161.126 471.593 161.126ZM471.593 159.74C472.004 159.74 472.387 159.642 472.741 159.446C473.105 159.25 473.399 158.956 473.623 158.564C473.847 158.172 473.959 157.696 473.959 157.136C473.959 156.576 473.852 156.105 473.637 155.722C473.423 155.33 473.138 155.036 472.783 154.84C472.429 154.644 472.046 154.546 471.635 154.546C471.225 154.546 470.842 154.644 470.487 154.84C470.142 155.036 469.867 155.33 469.661 155.722C469.456 156.105 469.353 156.576 469.353 157.136C469.353 157.967 469.563 158.611 469.983 159.068C470.413 159.516 470.949 159.74 471.593 159.74Z" fill="#2B5121"/>
<path d="M478.925 159.082L477.231 162.946H476.195L477.189 159.082H478.925Z" fill="#2B5121"/>
<path d="M484.768 152.264C484.479 152.264 484.236 152.166 484.04 151.97C483.844 151.774 483.746 151.532 483.746 151.242C483.746 150.953 483.844 150.71 484.04 150.514C484.236 150.318 484.479 150.22 484.768 150.22C485.048 150.22 485.286 150.318 485.482 150.514C485.678 150.71 485.776 150.953 485.776 151.242C485.776 151.532 485.678 151.774 485.482 151.97C485.286 152.166 485.048 152.264 484.768 152.264ZM485.552 153.286V161H483.956V153.286H485.552Z" fill="#2B5121"/>
<path d="M491.54 153.16C492.146 153.16 492.688 153.286 493.164 153.538C493.649 153.79 494.027 154.164 494.298 154.658C494.568 155.153 494.704 155.75 494.704 156.45V161H493.122V156.688C493.122 155.998 492.949 155.47 492.604 155.106C492.258 154.733 491.787 154.546 491.19 154.546C490.592 154.546 490.116 154.733 489.762 155.106C489.416 155.47 489.244 155.998 489.244 156.688V161H487.648V153.286H489.244V154.168C489.505 153.851 489.836 153.604 490.238 153.426C490.648 153.249 491.082 153.16 491.54 153.16Z" fill="#2B5121"/>
<path d="M500.085 161.126C499.357 161.126 498.699 160.963 498.111 160.636C497.523 160.3 497.061 159.834 496.725 159.236C496.389 158.63 496.221 157.93 496.221 157.136C496.221 156.352 496.394 155.657 496.739 155.05C497.085 154.444 497.556 153.977 498.153 153.65C498.751 153.324 499.418 153.16 500.155 153.16C500.893 153.16 501.56 153.324 502.157 153.65C502.755 153.977 503.226 154.444 503.571 155.05C503.917 155.657 504.089 156.352 504.089 157.136C504.089 157.92 503.912 158.616 503.557 159.222C503.203 159.829 502.717 160.3 502.101 160.636C501.495 160.963 500.823 161.126 500.085 161.126ZM500.085 159.74C500.496 159.74 500.879 159.642 501.233 159.446C501.597 159.25 501.891 158.956 502.115 158.564C502.339 158.172 502.451 157.696 502.451 157.136C502.451 156.576 502.344 156.105 502.129 155.722C501.915 155.33 501.63 155.036 501.275 154.84C500.921 154.644 500.538 154.546 500.127 154.546C499.717 154.546 499.334 154.644 498.979 154.84C498.634 155.036 498.359 155.33 498.153 155.722C497.948 156.105 497.845 156.576 497.845 157.136C497.845 157.967 498.055 158.611 498.475 159.068C498.905 159.516 499.441 159.74 500.085 159.74Z" fill="#2B5121"/>
<path d="M508.649 159.572L510.833 153.286H512.527L509.587 161H507.683L504.757 153.286H506.465L508.649 159.572Z" fill="#2B5121"/>
<path d="M513.202 157.108C513.202 156.334 513.36 155.648 513.678 155.05C514.004 154.453 514.443 153.991 514.994 153.664C515.554 153.328 516.17 153.16 516.842 153.16C517.448 153.16 517.976 153.282 518.424 153.524C518.881 153.758 519.245 154.052 519.516 154.406V153.286H521.126V161H519.516V159.852C519.245 160.216 518.876 160.52 518.41 160.762C517.943 161.005 517.411 161.126 516.814 161.126C516.151 161.126 515.544 160.958 514.994 160.622C514.443 160.277 514.004 159.801 513.678 159.194C513.36 158.578 513.202 157.883 513.202 157.108ZM519.516 157.136C519.516 156.604 519.404 156.142 519.18 155.75C518.965 155.358 518.68 155.06 518.326 154.854C517.971 154.649 517.588 154.546 517.178 154.546C516.767 154.546 516.384 154.649 516.03 154.854C515.675 155.05 515.386 155.344 515.162 155.736C514.947 156.119 514.84 156.576 514.84 157.108C514.84 157.64 514.947 158.107 515.162 158.508C515.386 158.91 515.675 159.218 516.03 159.432C516.394 159.638 516.776 159.74 517.178 159.74C517.588 159.74 517.971 159.638 518.326 159.432C518.68 159.227 518.965 158.928 519.18 158.536C519.404 158.135 519.516 157.668 519.516 157.136Z" fill="#2B5121"/>
<path d="M532.56 153.16C533.167 153.16 533.708 153.286 534.184 153.538C534.669 153.79 535.047 154.164 535.318 154.658C535.598 155.153 535.738 155.75 535.738 156.45V161H534.156V156.688C534.156 155.998 533.983 155.47 533.638 155.106C533.293 154.733 532.821 154.546 532.224 154.546C531.627 154.546 531.151 154.733 530.796 155.106C530.451 155.47 530.278 155.998 530.278 156.688V161H528.696V156.688C528.696 155.998 528.523 155.47 528.178 155.106C527.833 154.733 527.361 154.546 526.764 154.546C526.167 154.546 525.691 154.733 525.336 155.106C524.991 155.47 524.818 155.998 524.818 156.688V161H523.222V153.286H524.818V154.168C525.079 153.851 525.411 153.604 525.812 153.426C526.213 153.249 526.643 153.16 527.1 153.16C527.716 153.16 528.267 153.291 528.752 153.552C529.237 153.814 529.611 154.192 529.872 154.686C530.105 154.22 530.469 153.851 530.964 153.58C531.459 153.3 531.991 153.16 532.56 153.16Z" fill="#2B5121"/>
<path d="M541.115 161.126C540.387 161.126 539.729 160.963 539.141 160.636C538.553 160.3 538.091 159.834 537.755 159.236C537.419 158.63 537.251 157.93 537.251 157.136C537.251 156.352 537.423 155.657 537.769 155.05C538.114 154.444 538.585 153.977 539.183 153.65C539.78 153.324 540.447 153.16 541.185 153.16C541.922 153.16 542.589 153.324 543.187 153.65C543.784 153.977 544.255 154.444 544.601 155.05C544.946 155.657 545.119 156.352 545.119 157.136C545.119 157.92 544.941 158.616 544.587 159.222C544.232 159.829 543.747 160.3 543.131 160.636C542.524 160.963 541.852 161.126 541.115 161.126ZM541.115 159.74C541.525 159.74 541.908 159.642 542.263 159.446C542.627 159.25 542.921 158.956 543.145 158.564C543.369 158.172 543.481 157.696 543.481 157.136C543.481 156.576 543.373 156.105 543.159 155.722C542.944 155.33 542.659 155.036 542.305 154.84C541.95 154.644 541.567 154.546 541.157 154.546C540.746 154.546 540.363 154.644 540.009 154.84C539.663 155.036 539.388 155.33 539.183 155.722C538.977 156.105 538.875 156.576 538.875 157.136C538.875 157.967 539.085 158.611 539.505 159.068C539.934 159.516 540.471 159.74 541.115 159.74Z" fill="#2B5121"/>
<path d="M549.496 161.126C548.89 161.126 548.344 161.019 547.858 160.804C547.382 160.58 547.004 160.282 546.724 159.908C546.444 159.526 546.295 159.101 546.276 158.634H547.928C547.956 158.961 548.111 159.236 548.391 159.46C548.68 159.675 549.039 159.782 549.469 159.782C549.917 159.782 550.262 159.698 550.504 159.53C550.756 159.353 550.883 159.129 550.883 158.858C550.883 158.569 550.742 158.354 550.462 158.214C550.192 158.074 549.758 157.92 549.16 157.752C548.582 157.594 548.11 157.44 547.746 157.29C547.382 157.141 547.065 156.912 546.794 156.604C546.533 156.296 546.402 155.89 546.402 155.386C546.402 154.976 546.524 154.602 546.766 154.266C547.009 153.921 547.354 153.65 547.802 153.454C548.26 153.258 548.782 153.16 549.37 153.16C550.248 153.16 550.952 153.384 551.484 153.832C552.026 154.271 552.315 154.873 552.352 155.638H550.756C550.728 155.293 550.588 155.018 550.336 154.812C550.084 154.607 549.744 154.504 549.315 154.504C548.895 154.504 548.573 154.584 548.349 154.742C548.125 154.901 548.013 155.111 548.013 155.372C548.013 155.578 548.087 155.75 548.237 155.89C548.386 156.03 548.568 156.142 548.782 156.226C548.997 156.301 549.314 156.399 549.734 156.52C550.294 156.67 550.752 156.824 551.107 156.982C551.471 157.132 551.783 157.356 552.044 157.654C552.306 157.953 552.441 158.35 552.451 158.844C552.451 159.283 552.329 159.675 552.086 160.02C551.844 160.366 551.498 160.636 551.05 160.832C550.612 161.028 550.094 161.126 549.496 161.126Z" fill="#2B5121"/>
<path d="M557.28 157.136C557.28 156.343 557.438 155.648 557.756 155.05C558.082 154.444 558.53 153.977 559.1 153.65C559.669 153.324 560.322 153.16 561.06 153.16C561.993 153.16 562.763 153.384 563.37 153.832C563.986 154.271 564.401 154.901 564.616 155.722H562.894C562.754 155.34 562.53 155.041 562.222 154.826C561.914 154.612 561.526 154.504 561.06 154.504C560.406 154.504 559.884 154.738 559.492 155.204C559.109 155.662 558.918 156.306 558.918 157.136C558.918 157.967 559.109 158.616 559.492 159.082C559.884 159.549 560.406 159.782 561.06 159.782C561.984 159.782 562.595 159.376 562.894 158.564H564.616C564.392 159.348 563.972 159.974 563.356 160.44C562.74 160.898 561.974 161.126 561.06 161.126C560.322 161.126 559.669 160.963 559.1 160.636C558.53 160.3 558.082 159.834 557.756 159.236C557.438 158.63 557.28 157.93 557.28 157.136Z" fill="#2B5121"/>
<path d="M569.552 161.126C568.824 161.126 568.166 160.963 567.578 160.636C566.99 160.3 566.528 159.834 566.192 159.236C565.856 158.63 565.688 157.93 565.688 157.136C565.688 156.352 565.861 155.657 566.206 155.05C566.552 154.444 567.023 153.977 567.62 153.65C568.218 153.324 568.885 153.16 569.622 153.16C570.36 153.16 571.027 153.324 571.624 153.65C572.222 153.977 572.693 154.444 573.038 155.05C573.384 155.657 573.556 156.352 573.556 157.136C573.556 157.92 573.379 158.616 573.024 159.222C572.67 159.829 572.184 160.3 571.568 160.636C570.962 160.963 570.29 161.126 569.552 161.126ZM569.552 159.74C569.963 159.74 570.346 159.642 570.7 159.446C571.064 159.25 571.358 158.956 571.582 158.564C571.806 158.172 571.918 157.696 571.918 157.136C571.918 156.576 571.811 156.105 571.596 155.722C571.382 155.33 571.097 155.036 570.742 154.84C570.388 154.644 570.005 154.546 569.594 154.546C569.184 154.546 568.801 154.644 568.446 154.84C568.101 155.036 567.826 155.33 567.62 155.722C567.415 156.105 567.312 156.576 567.312 157.136C567.312 157.967 567.522 158.611 567.942 159.068C568.372 159.516 568.908 159.74 569.552 159.74Z" fill="#2B5121"/>
<path d="M584.472 153.16C585.079 153.16 585.62 153.286 586.096 153.538C586.581 153.79 586.959 154.164 587.23 154.658C587.51 155.153 587.65 155.75 587.65 156.45V161H586.068V156.688C586.068 155.998 585.895 155.47 585.55 155.106C585.205 154.733 584.733 154.546 584.136 154.546C583.539 154.546 583.063 154.733 582.708 155.106C582.363 155.47 582.19 155.998 582.19 156.688V161H580.608V156.688C580.608 155.998 580.435 155.47 580.09 155.106C579.745 154.733 579.273 154.546 578.676 154.546C578.079 154.546 577.603 154.733 577.248 155.106C576.903 155.47 576.73 155.998 576.73 156.688V161H575.134V153.286H576.73V154.168C576.991 153.851 577.323 153.604 577.724 153.426C578.125 153.249 578.555 153.16 579.012 153.16C579.628 153.16 580.179 153.291 580.664 153.552C581.149 153.814 581.523 154.192 581.784 154.686C582.017 154.22 582.381 153.851 582.876 153.58C583.371 153.3 583.903 153.16 584.472 153.16Z" fill="#2B5121"/>
<path d="M211.518 178.136C211.518 177.343 211.677 176.648 211.994 176.05C212.321 175.444 212.769 174.977 213.338 174.65C213.907 174.324 214.561 174.16 215.298 174.16C216.231 174.16 217.001 174.384 217.608 174.832C218.224 175.271 218.639 175.901 218.854 176.722H217.132C216.992 176.34 216.768 176.041 216.46 175.826C216.152 175.612 215.765 175.504 215.298 175.504C214.645 175.504 214.122 175.738 213.73 176.204C213.347 176.662 213.156 177.306 213.156 178.136C213.156 178.967 213.347 179.616 213.73 180.082C214.122 180.549 214.645 180.782 215.298 180.782C216.222 180.782 216.833 180.376 217.132 179.564H218.854C218.63 180.348 218.21 180.974 217.594 181.44C216.978 181.898 216.213 182.126 215.298 182.126C214.561 182.126 213.907 181.963 213.338 181.636C212.769 181.3 212.321 180.834 211.994 180.236C211.677 179.63 211.518 178.93 211.518 178.136Z" fill="#2B5121"/>
<path d="M223.791 182.126C223.063 182.126 222.405 181.963 221.817 181.636C221.229 181.3 220.767 180.834 220.431 180.236C220.095 179.63 219.927 178.93 219.927 178.136C219.927 177.352 220.099 176.657 220.445 176.05C220.79 175.444 221.261 174.977 221.859 174.65C222.456 174.324 223.123 174.16 223.861 174.16C224.598 174.16 225.265 174.324 225.863 174.65C226.46 174.977 226.931 175.444 227.277 176.05C227.622 176.657 227.795 177.352 227.795 178.136C227.795 178.92 227.617 179.616 227.263 180.222C226.908 180.829 226.423 181.3 225.807 181.636C225.2 181.963 224.528 182.126 223.791 182.126ZM223.791 180.74C224.201 180.74 224.584 180.642 224.939 180.446C225.303 180.25 225.597 179.956 225.821 179.564C226.045 179.172 226.157 178.696 226.157 178.136C226.157 177.576 226.049 177.105 225.835 176.722C225.62 176.33 225.335 176.036 224.981 175.84C224.626 175.644 224.243 175.546 223.833 175.546C223.422 175.546 223.039 175.644 222.685 175.84C222.339 176.036 222.064 176.33 221.859 176.722C221.653 177.105 221.551 177.576 221.551 178.136C221.551 178.967 221.761 179.611 222.181 180.068C222.61 180.516 223.147 180.74 223.791 180.74Z" fill="#2B5121"/>
<path d="M230.968 175.406C231.202 175.014 231.51 174.711 231.892 174.496C232.284 174.272 232.746 174.16 233.278 174.16V175.812H232.872C232.247 175.812 231.771 175.971 231.444 176.288C231.127 176.606 230.968 177.156 230.968 177.94V182H229.372V174.286H230.968V175.406Z" fill="#2B5121"/>
<path d="M234.213 178.108C234.213 177.334 234.372 176.648 234.689 176.05C235.016 175.453 235.455 174.991 236.005 174.664C236.565 174.328 237.181 174.16 237.853 174.16C238.46 174.16 238.987 174.282 239.435 174.524C239.893 174.758 240.257 175.052 240.527 175.406V174.286H242.137V182H240.527V180.852C240.257 181.216 239.888 181.52 239.421 181.762C238.955 182.005 238.423 182.126 237.825 182.126C237.163 182.126 236.556 181.958 236.005 181.622C235.455 181.277 235.016 180.801 234.689 180.194C234.372 179.578 234.213 178.883 234.213 178.108ZM240.527 178.136C240.527 177.604 240.415 177.142 240.191 176.75C239.977 176.358 239.692 176.06 239.337 175.854C238.983 175.649 238.6 175.546 238.189 175.546C237.779 175.546 237.396 175.649 237.041 175.854C236.687 176.05 236.397 176.344 236.173 176.736C235.959 177.119 235.851 177.576 235.851 178.108C235.851 178.64 235.959 179.107 236.173 179.508C236.397 179.91 236.687 180.218 237.041 180.432C237.405 180.638 237.788 180.74 238.189 180.74C238.6 180.74 238.983 180.638 239.337 180.432C239.692 180.227 239.977 179.928 240.191 179.536C240.415 179.135 240.527 178.668 240.527 178.136Z" fill="#2B5121"/>
<path d="M247.342 174.16C247.939 174.16 248.466 174.282 248.924 174.524C249.39 174.758 249.754 175.052 250.016 175.406V174.286H251.626V182.126C251.626 182.836 251.476 183.466 251.178 184.016C250.879 184.576 250.445 185.015 249.876 185.332C249.316 185.65 248.644 185.808 247.86 185.808C246.814 185.808 245.946 185.561 245.256 185.066C244.565 184.581 244.173 183.918 244.08 183.078H245.662C245.783 183.48 246.04 183.802 246.432 184.044C246.833 184.296 247.309 184.422 247.86 184.422C248.504 184.422 249.022 184.226 249.414 183.834C249.815 183.442 250.016 182.873 250.016 182.126V180.838C249.745 181.202 249.376 181.51 248.91 181.762C248.452 182.005 247.93 182.126 247.342 182.126C246.67 182.126 246.054 181.958 245.494 181.622C244.943 181.277 244.504 180.801 244.178 180.194C243.86 179.578 243.702 178.883 243.702 178.108C243.702 177.334 243.86 176.648 244.178 176.05C244.504 175.453 244.943 174.991 245.494 174.664C246.054 174.328 246.67 174.16 247.342 174.16ZM250.016 178.136C250.016 177.604 249.904 177.142 249.68 176.75C249.465 176.358 249.18 176.06 248.826 175.854C248.471 175.649 248.088 175.546 247.678 175.546C247.267 175.546 246.884 175.649 246.53 175.854C246.175 176.05 245.886 176.344 245.662 176.736C245.447 177.119 245.34 177.576 245.34 178.108C245.34 178.64 245.447 179.107 245.662 179.508C245.886 179.91 246.175 180.218 246.53 180.432C246.894 180.638 247.276 180.74 247.678 180.74C248.088 180.74 248.471 180.638 248.826 180.432C249.18 180.227 249.465 179.928 249.68 179.536C249.904 179.135 250.016 178.668 250.016 178.136Z" fill="#2B5121"/>
<path d="M260.792 177.954C260.792 178.244 260.773 178.505 260.736 178.738H254.842C254.889 179.354 255.117 179.849 255.528 180.222C255.939 180.596 256.443 180.782 257.04 180.782C257.899 180.782 258.505 180.423 258.86 179.704H260.582C260.349 180.414 259.924 180.997 259.308 181.454C258.701 181.902 257.945 182.126 257.04 182.126C256.303 182.126 255.64 181.963 255.052 181.636C254.473 181.3 254.016 180.834 253.68 180.236C253.353 179.63 253.19 178.93 253.19 178.136C253.19 177.343 253.349 176.648 253.666 176.05C253.993 175.444 254.445 174.977 255.024 174.65C255.612 174.324 256.284 174.16 257.04 174.16C257.768 174.16 258.417 174.319 258.986 174.636C259.555 174.954 259.999 175.402 260.316 175.98C260.633 176.55 260.792 177.208 260.792 177.954ZM259.126 177.45C259.117 176.862 258.907 176.391 258.496 176.036C258.085 175.682 257.577 175.504 256.97 175.504C256.419 175.504 255.948 175.682 255.556 176.036C255.164 176.382 254.931 176.853 254.856 177.45H259.126Z" fill="#2B5121"/>
<path d="M271.701 174.16C272.307 174.16 272.848 174.286 273.324 174.538C273.81 174.79 274.188 175.164 274.458 175.658C274.738 176.153 274.879 176.75 274.879 177.45V182H273.297V177.688C273.297 176.998 273.124 176.47 272.779 176.106C272.433 175.733 271.962 175.546 271.365 175.546C270.767 175.546 270.291 175.733 269.936 176.106C269.591 176.47 269.418 176.998 269.418 177.688V182H267.836V177.688C267.836 176.998 267.664 176.47 267.319 176.106C266.973 175.733 266.502 175.546 265.905 175.546C265.307 175.546 264.831 175.733 264.477 176.106C264.131 176.47 263.958 176.998 263.958 177.688V182H262.362V174.286H263.958V175.168C264.22 174.851 264.551 174.604 264.953 174.426C265.354 174.249 265.783 174.16 266.241 174.16C266.857 174.16 267.407 174.291 267.892 174.552C268.378 174.814 268.751 175.192 269.013 175.686C269.246 175.22 269.61 174.851 270.104 174.58C270.599 174.3 271.131 174.16 271.701 174.16Z" fill="#2B5121"/>
<path d="M287.616 177.954C287.616 178.244 287.597 178.505 287.56 178.738H281.666C281.713 179.354 281.941 179.849 282.352 180.222C282.763 180.596 283.267 180.782 283.864 180.782C284.723 180.782 285.329 180.423 285.684 179.704H287.406C287.173 180.414 286.748 180.997 286.132 181.454C285.525 181.902 284.769 182.126 283.864 182.126C283.127 182.126 282.464 181.963 281.876 181.636C281.297 181.3 280.84 180.834 280.504 180.236C280.177 179.63 280.014 178.93 280.014 178.136C280.014 177.343 280.173 176.648 280.49 176.05C280.817 175.444 281.269 174.977 281.848 174.65C282.436 174.324 283.108 174.16 283.864 174.16C284.592 174.16 285.241 174.319 285.81 174.636C286.379 174.954 286.823 175.402 287.14 175.98C287.457 176.55 287.616 177.208 287.616 177.954ZM285.95 177.45C285.941 176.862 285.731 176.391 285.32 176.036C284.909 175.682 284.401 175.504 283.794 175.504C283.243 175.504 282.772 175.682 282.38 176.036C281.988 176.382 281.755 176.853 281.68 177.45H285.95Z" fill="#2B5121"/>
<path d="M295.805 180.572L297.989 174.286H299.683L296.743 182H294.839L291.913 174.286H293.621L295.805 180.572Z" fill="#2B5121"/>
<path d="M301.702 173.264C301.413 173.264 301.17 173.166 300.974 172.97C300.778 172.774 300.68 172.532 300.68 172.242C300.68 171.953 300.778 171.71 300.974 171.514C301.17 171.318 301.413 171.22 301.702 171.22C301.982 171.22 302.22 171.318 302.416 171.514C302.612 171.71 302.71 171.953 302.71 172.242C302.71 172.532 302.612 172.774 302.416 172.97C302.22 173.166 301.982 173.264 301.702 173.264ZM302.486 174.286V182H300.89V174.286H302.486Z" fill="#2B5121"/>
<path d="M307.381 182.126C306.775 182.126 306.229 182.019 305.743 181.804C305.267 181.58 304.889 181.282 304.609 180.908C304.329 180.526 304.18 180.101 304.161 179.634H305.813C305.841 179.961 305.995 180.236 306.275 180.46C306.565 180.675 306.924 180.782 307.353 180.782C307.801 180.782 308.147 180.698 308.389 180.53C308.641 180.353 308.767 180.129 308.767 179.858C308.767 179.569 308.627 179.354 308.347 179.214C308.077 179.074 307.643 178.92 307.045 178.752C306.467 178.594 305.995 178.44 305.631 178.29C305.267 178.141 304.95 177.912 304.679 177.604C304.418 177.296 304.287 176.89 304.287 176.386C304.287 175.976 304.409 175.602 304.651 175.266C304.894 174.921 305.239 174.65 305.687 174.454C306.145 174.258 306.667 174.16 307.255 174.16C308.133 174.16 308.837 174.384 309.369 174.832C309.911 175.271 310.2 175.873 310.237 176.638H308.641C308.613 176.293 308.473 176.018 308.221 175.812C307.969 175.607 307.629 175.504 307.199 175.504C306.779 175.504 306.457 175.584 306.233 175.742C306.009 175.901 305.897 176.111 305.897 176.372C305.897 176.578 305.972 176.75 306.121 176.89C306.271 177.03 306.453 177.142 306.667 177.226C306.882 177.301 307.199 177.399 307.619 177.52C308.179 177.67 308.637 177.824 308.991 177.982C309.355 178.132 309.668 178.356 309.929 178.654C310.191 178.953 310.326 179.35 310.335 179.844C310.335 180.283 310.214 180.675 309.971 181.02C309.729 181.366 309.383 181.636 308.935 181.832C308.497 182.028 307.979 182.126 307.381 182.126Z" fill="#2B5121"/>
<path d="M311.528 178.108C311.528 177.334 311.686 176.648 312.004 176.05C312.33 175.453 312.769 174.991 313.32 174.664C313.88 174.328 314.496 174.16 315.168 174.16C315.774 174.16 316.302 174.282 316.75 174.524C317.207 174.758 317.571 175.052 317.842 175.406V174.286H319.452V182H317.842V180.852C317.571 181.216 317.202 181.52 316.736 181.762C316.269 182.005 315.737 182.126 315.14 182.126C314.477 182.126 313.87 181.958 313.32 181.622C312.769 181.277 312.33 180.801 312.004 180.194C311.686 179.578 311.528 178.883 311.528 178.108ZM317.842 178.136C317.842 177.604 317.73 177.142 317.506 176.75C317.291 176.358 317.006 176.06 316.652 175.854C316.297 175.649 315.914 175.546 315.504 175.546C315.093 175.546 314.71 175.649 314.356 175.854C314.001 176.05 313.712 176.344 313.488 176.736C313.273 177.119 313.166 177.576 313.166 178.108C313.166 178.64 313.273 179.107 313.488 179.508C313.712 179.91 314.001 180.218 314.356 180.432C314.72 180.638 315.102 180.74 315.504 180.74C315.914 180.74 316.297 180.638 316.652 180.432C317.006 180.227 317.291 179.928 317.506 179.536C317.73 179.135 317.842 178.668 317.842 178.136ZM313.474 173.488C313.548 172.947 313.726 172.541 314.006 172.27C314.286 171.99 314.636 171.85 315.056 171.85C315.233 171.85 315.387 171.878 315.518 171.934C315.648 171.99 315.807 172.074 315.994 172.186C316.134 172.28 316.25 172.35 316.344 172.396C316.446 172.443 316.558 172.466 316.68 172.466C316.838 172.466 316.969 172.42 317.072 172.326C317.184 172.224 317.254 172.074 317.282 171.878H318.178C318.103 172.42 317.926 172.83 317.646 173.11C317.366 173.381 317.016 173.516 316.596 173.516C316.418 173.516 316.26 173.488 316.12 173.432C315.98 173.367 315.826 173.278 315.658 173.166C315.49 173.064 315.359 172.994 315.266 172.956C315.182 172.91 315.084 172.886 314.972 172.886C314.813 172.886 314.678 172.938 314.566 173.04C314.463 173.143 314.398 173.292 314.37 173.488H313.474Z" fill="#2B5121"/>
<path d="M324.894 182.126C324.166 182.126 323.508 181.963 322.92 181.636C322.332 181.3 321.87 180.834 321.534 180.236C321.198 179.63 321.03 178.93 321.03 178.136C321.03 177.352 321.203 176.657 321.548 176.05C321.893 175.444 322.365 174.977 322.962 174.65C323.559 174.324 324.227 174.16 324.964 174.16C325.701 174.16 326.369 174.324 326.966 174.65C327.563 174.977 328.035 175.444 328.38 176.05C328.725 176.657 328.898 177.352 328.898 178.136C328.898 178.92 328.721 179.616 328.366 180.222C328.011 180.829 327.526 181.3 326.91 181.636C326.303 181.963 325.631 182.126 324.894 182.126ZM324.894 180.74C325.305 180.74 325.687 180.642 326.042 180.446C326.406 180.25 326.7 179.956 326.924 179.564C327.148 179.172 327.26 178.696 327.26 178.136C327.26 177.576 327.153 177.105 326.938 176.722C326.723 176.33 326.439 176.036 326.084 175.84C325.729 175.644 325.347 175.546 324.936 175.546C324.525 175.546 324.143 175.644 323.788 175.84C323.443 176.036 323.167 176.33 322.962 176.722C322.757 177.105 322.654 177.576 322.654 178.136C322.654 178.967 322.864 179.611 323.284 180.068C323.713 180.516 324.25 180.74 324.894 180.74Z" fill="#2B5121"/>
<path d="M332.478 172.27L332.296 179.06H330.966L330.784 172.27H332.478ZM331.68 182.098C331.39 182.098 331.148 182 330.952 181.804C330.756 181.608 330.658 181.366 330.658 181.076C330.658 180.787 330.756 180.544 330.952 180.348C331.148 180.152 331.39 180.054 331.68 180.054C331.96 180.054 332.198 180.152 332.394 180.348C332.59 180.544 332.688 180.787 332.688 181.076C332.688 181.366 332.59 181.608 332.394 181.804C332.198 182 331.96 182.098 331.68 182.098Z" fill="#2B5121"/>
<path d="M24.3426 25.6981C23.4701 20.2446 27.1837 15.1164 32.6372 14.2438L110.914 1.71987C116.368 0.847339 121.496 4.56094 122.369 10.0144L135.357 91.1956C137.539 104.829 128.255 117.65 114.621 119.831L65.9669 127.616C52.3332 129.797 39.5125 120.513 37.3312 106.879L24.3426 25.6981Z" fill="#508D3F"/>
<path d="M24.3426 25.6981C23.4701 20.2446 27.1837 15.1164 32.6372 14.2438L110.914 1.71987C116.368 0.847339 121.496 4.56094 122.369 10.0144L130.331 59.7824C134.662 86.8515 116.229 112.306 89.1601 116.637C62.091 120.968 36.6362 102.535 32.3052 75.4661L24.3426 25.6981Z" fill="#46C4FF"/>
<path d="M24.3426 25.6981C23.4701 20.2446 27.1837 15.1164 32.6372 14.2438L110.914 1.71987C116.368 0.847339 121.496 4.56094 122.369 10.0144L134.382 85.0968C136.476 98.1852 127.563 110.493 114.475 112.587L63.8457 120.687C50.7573 122.782 38.4495 113.869 36.3554 100.78L24.3426 25.6981Z" fill="#7AD761"/>
<path d="M41.3446 25.976C41.2573 25.4306 41.6287 24.9178 42.174 24.8305L106.337 14.5647C106.883 14.4775 107.395 14.8488 107.483 15.3942L115.261 64.0103C118.183 82.2738 105.746 99.4481 87.4828 102.37C69.2193 105.292 52.045 92.8556 49.1229 74.5921L41.3446 25.976Z" fill="#60AF4B"/>
<path d="M58.8037 43.0808C57.7718 44.0357 56.7995 45.6721 56.5531 46.6001C56.091 48.6486 56.9246 54.7843 57.918 56.0569C58.5533 56.9425 58.4032 60.3233 57.6215 60.9913C57.4521 61.1665 56.7879 62.2601 56.1314 63.4017C55.0936 65.2461 55.0012 65.9026 55.4171 68.5017C55.8252 71.0526 56.1255 71.6957 57.5194 73.0029C61.16 76.3201 66.1329 78.0914 71.8702 78.1607C73.6491 78.1723 75.3549 78.3436 75.5782 78.5054C76.1288 78.8615 90.4719 76.5667 90.8839 76.0565C91.0456 75.8332 92.6128 75.1382 94.2993 74.5722C99.7285 72.7163 103.901 69.4819 106.324 65.1944C107.241 63.5175 107.326 62.8128 106.917 60.2619C106.502 57.6628 106.209 57.0679 104.648 55.6394C103.668 54.7595 102.695 53.9278 102.48 53.8142C101.529 53.4234 100.331 50.2583 100.659 49.2186C101.205 47.6996 100.083 41.6101 99.0048 39.808C98.4811 39.0033 97.0468 37.7519 95.7684 37.1666C93.7238 36.1115 93.1713 36.0519 89.9465 36.5678C86.9624 37.0452 86.0306 37.3918 84.4595 38.6798C83.4122 39.5384 82.4919 40.5742 82.4091 40.9824C82.1935 42.1028 73.2411 43.5352 72.6866 42.5379C72.4806 42.176 71.2831 41.479 70.0202 40.99C68.1257 40.2565 67.1323 40.218 64.1482 40.6954C60.9234 41.2114 60.4171 41.4405 58.8037 43.0808ZM68.1623 45.7299C68.5685 46.1092 69.2462 46.6425 69.6447 46.9737C70.4418 47.636 71.1464 51.4229 70.4726 51.5307C70.2319 51.5692 70.0452 51.9447 70.1068 52.3297C70.3301 53.7255 67.1804 55.0193 64.2656 54.6958C61.8551 54.4397 60.4209 49.4861 62.1266 47.1893C63.2914 45.522 66.959 44.6884 68.1623 45.7299ZM93.8932 42.1068C96.2305 43.7567 96.4134 48.9106 94.2032 49.9059C91.5348 51.1227 88.1386 50.8762 87.9153 49.4804C87.8537 49.0954 87.6073 48.7893 87.3185 48.8355C86.6447 48.9433 86.1326 45.1255 86.7313 44.2399C86.9585 43.8086 87.436 43.0905 87.7036 42.6034C88.5218 41.2384 92.2664 40.8861 93.8932 42.1068ZM66.93 65.1788C67.808 65.7294 69.4714 66.2531 70.5765 66.3724C71.7297 66.4841 72.9618 66.7806 73.3931 67.0078C73.8879 67.3235 76.6622 67.0771 81.4753 66.307C86.2884 65.537 89.0011 64.9055 89.3727 64.4511C89.7115 64.1007 90.7896 63.4346 91.8504 62.9687C92.8631 62.5105 94.2801 61.494 94.9424 60.6969C96.396 58.9835 97.7687 58.6158 97.9766 59.9153C98.1075 60.7335 97.4048 61.5864 94.6652 63.9005C91.2247 66.7711 84.6712 69.0043 78.418 69.4125C72.854 69.809 64.1192 67.3562 63.7957 65.3347C63.5955 64.0833 65.0626 63.9967 66.93 65.1788Z" fill="#2B5121"/>
<path d="M64.2232 52.5797L66.2216 52.1119C68.4125 51.6132 68.7379 50.8701 67.8465 48.6926C67.4519 47.7685 67.0841 47.6299 65.4477 47.8917L63.5224 48.1997L64.2232 52.5797Z" fill="#2B5121"/>
<path d="M88.9279 45.3197C88.7604 47.6666 89.3014 48.2711 91.5385 48.0613L93.5831 47.8822L92.8824 43.5023L90.9571 43.8103C89.3206 44.0721 89.0145 44.3186 88.9279 45.3197Z" fill="#2B5121"/>
<path d="M96.8224 3.69403L115.553 0.697266L117.25 0.708294L118.44 1.0829L120.357 2.47117L121.128 3.76027L124.698 26.0717L51.2406 123.139L48.4092 121.333L45.8089 119.206L43.4401 116.76L41.3026 113.995L39.3965 110.91L38.0413 107.736L36.9175 104.244L34.0969 86.6149L96.8224 3.69403Z" fill="white" fill-opacity="0.29"/>
<path d="M463.166 74.8321C460.895 68.0792 482.504 62.3701 489.697 61.1648C496.89 59.9594 537.135 55.9388 562.46 58.3509C587.786 60.763 588.995 61.5667 584.569 63.5766C580.143 65.5866 576.53 67.9984 576.53 71.6163C576.53 75.2341 603.864 75.2341 598.237 78.048C592.609 80.8619 589.029 83.2733 580.143 85.6857C571.257 88.0981 563.666 90.5095 522.66 89.3035C481.653 88.0976 465.438 81.585 463.166 74.8321Z" fill="#61D243"/>
<path d="M463.166 70.4374C460.895 63.6845 482.504 57.9754 489.697 56.77C496.89 55.5646 537.135 51.544 562.46 53.9561C587.786 56.3682 588.995 57.172 584.569 59.1819C580.143 61.1918 576.53 63.6037 576.53 67.2215C576.53 70.8393 603.864 70.8393 598.237 73.6532C592.609 76.4671 589.029 78.8785 580.143 81.2909C571.257 83.7033 563.666 86.1147 522.66 84.9087C481.653 83.7028 465.438 77.1903 463.166 70.4374Z" fill="#ABF47D"/>
<path d="M552.096 54.3214C551.179 55.627 548.749 58.2382 547.394 59.3911C545.8 60.7383 544.127 61.8495 542.215 62.8357C538.482 64.7524 534.286 65.8219 530.5 65.8219H528.946L529.597 66.5303C530.407 67.3914 532.32 68.9054 533.582 69.6832C537.433 72.0583 542.799 73.1834 546.664 72.4056C550.223 71.7111 554.739 69.2804 558.551 66.0025C560.118 64.6691 563 61.6134 563 61.28C563 61.0022 560.649 58.6132 559.135 57.3493C557.063 55.627 553.57 53.3213 552.999 53.3213C552.893 53.3213 552.494 53.7797 552.096 54.3214Z" fill="#6BC16B"/>
<path d="M503.434 54.1128C500.91 55.5712 498.427 57.5435 496.155 59.9186C495.518 60.5853 495 61.2103 495 61.3076C495 61.3909 495.598 62.1409 496.328 62.9465C500.698 67.7523 506.621 71.4747 511.429 72.4331C513.076 72.7526 516.29 72.6276 518.309 72.1692C519.796 71.822 521.895 71.058 523.09 70.4469C524.87 69.5163 527.234 67.7662 528.403 66.53L529.053 65.8217H527.353C519.265 65.8217 510.871 61.3076 505.864 54.2517C505.492 53.7378 505.094 53.3211 504.974 53.335C504.855 53.3489 504.164 53.6961 503.434 54.1128Z" fill="#96EC6B"/>
<path d="M546.863 18.9313C543.822 19.7508 541.418 20.7647 538.788 22.3204C537.938 22.8343 537.101 23.3482 536.942 23.4732L536.65 23.7093L537.261 25.0705C538.629 28.1679 539.492 31.2513 539.784 34.0848C539.864 34.9182 539.943 35.6266 539.957 35.6543C539.97 35.6682 540.86 35.2238 541.936 34.6543C544.499 33.307 548.005 32.0986 550.422 31.7236L551.047 31.6264V29.9596C551.047 29.0568 550.98 27.7095 550.9 26.9595C550.568 23.6954 549.267 18.4452 548.802 18.4591C548.682 18.473 547.819 18.6813 546.863 18.9313Z" fill="#913EC7"/>
<path d="M529.014 31.6803C529.014 44.7504 529.054 49.2645 529.16 49.0145C529.691 47.7783 530.807 45.556 531.338 44.681C533.357 41.3891 536.199 38.3195 539.028 36.3889L539.971 35.75L539.798 34.1527C539.479 31.1386 538.656 28.2635 537.155 24.8189C536.066 22.3327 534.711 20.1659 532.799 17.8324C531.882 16.7074 529.585 14.3323 529.24 14.1378C529.014 14.0128 529 14.8462 529.014 31.6803Z" fill="#A24BDB"/>
<path d="M508.56 19.805C507.511 23.2357 507.046 26.1247 507.033 29.3471L507.02 31.5555L508.507 31.8611C511.336 32.4584 514.683 33.7223 516.927 35.0557C517.512 35.389 517.977 35.6113 517.977 35.5418C517.977 35.1807 518.402 32.0556 518.534 31.5139C519.079 29.111 519.969 26.4997 520.898 24.583L521.324 23.694L521.018 23.444C520.487 23.0134 517.963 21.5689 516.861 21.0411C515.174 20.2355 512.996 19.4438 511.097 18.9299C510.127 18.666 509.251 18.4577 509.158 18.4577C509.052 18.4577 508.812 18.9994 508.56 19.805Z" fill="#A24BDB"/>
<path d="M528.336 14.5135C526.397 16.208 523.993 19.1526 522.32 21.8888C521.443 23.3195 519.902 26.7919 519.305 28.7086C518.521 31.2365 517.791 35.6534 518.149 35.8062C518.428 35.9173 520.088 37.1535 520.965 37.9035C522.267 39.0147 524.67 41.6676 525.587 43.0149C526.702 44.6538 527.778 46.5428 528.429 48.0429L529 49.3624V65.8632L530.7 65.766C537.062 65.4187 542.72 63.2242 547.328 59.3351C548.564 58.2934 551.034 55.6405 551.91 54.4321C552.269 53.9321 552.721 53.3348 552.92 53.0848C553.504 52.3764 554.779 49.9041 555.43 48.1818C557.05 43.9732 557.834 39.223 557.635 34.6395C557.595 33.4866 557.515 32.2921 557.462 31.9588C557.343 31.0837 557.157 31.0282 554.367 31.2226C551.087 31.4449 547.807 32.1671 544.871 33.3199C538.124 35.959 533.024 40.7925 529.85 47.5568L529 49.3624L528.934 13.9996L528.336 14.5135Z" fill="#D264EA"/>
<path d="M500.83 31.1941C500.565 31.2636 500.485 31.8608 500.366 34.6388C500.14 40.1112 501.348 46.0976 503.566 50.4729C504.284 51.9035 504.948 53.0146 505.134 53.1396C505.227 53.2091 505.652 53.7508 506.077 54.3619C507.059 55.7648 509.862 58.6816 511.309 59.8344C516.104 63.6263 522.266 65.8069 528.243 65.8208H529L529 49.3624L528.429 48.0429C527.127 45.0427 525.414 42.5002 522.957 39.9029C520.845 37.6945 519.716 36.7639 517.525 35.4582C514.55 33.7081 511.721 32.6248 507.949 31.8053C505.399 31.2497 501.734 30.9302 500.83 31.1941Z" fill="#FA79F4"/>
</svg>
