<svg width="234" height="145" viewBox="0 0 234 145" fill="none" xmlns="http://www.w3.org/2000/svg">
<path d="M0.286384 116.361C-3.62222 103.444 33.5583 92.5238 45.935 90.2182C58.3116 87.9125 127.555 80.222 171.13 84.8358C214.705 89.4497 216.786 90.9871 209.171 94.8316C201.556 98.6762 195.338 103.29 195.338 110.21C195.338 117.13 242.37 117.13 232.687 122.512C223.004 127.895 216.845 132.507 201.556 137.122C186.267 141.736 173.205 146.348 102.65 144.042C32.095 141.735 4.19499 129.278 0.286384 116.361Z" fill="#61D243"/>
<path d="M0.286384 107.954C-3.62222 95.0369 33.5583 84.1166 45.935 81.811C58.3116 79.5053 127.555 71.8148 171.13 76.4286C214.705 81.0425 216.786 82.5799 209.171 86.4244C201.556 90.2689 195.338 94.8824 195.338 101.803C195.338 108.723 242.37 108.723 232.687 114.105C223.004 119.487 216.845 124.1 201.556 128.714C186.267 133.329 173.205 137.941 102.65 135.634C32.095 133.328 4.19499 120.871 0.286384 107.954Z" fill="#ABF47D"/>
<path d="M145.551 87.1883L145.55 87.1895C142.779 89.7937 139.868 91.9423 136.544 93.8477L136.544 93.8481C130.057 97.5517 122.751 99.626 116.14 99.626H114.529L114.97 100.16C116.331 101.767 119.584 104.632 121.725 106.099L121.725 106.099C128.261 110.58 137.353 112.683 143.842 111.231L143.845 111.231C149.848 109.928 157.538 105.343 164.058 99.11L164.06 99.1081C165.389 97.8511 167.289 95.768 168.861 93.9142C169.646 92.9884 170.343 92.1267 170.841 91.4605C171.091 91.1263 171.286 90.8487 171.416 90.6403C171.466 90.5606 171.503 90.4963 171.529 90.4465C171.511 90.4152 171.488 90.3771 171.459 90.3316C171.355 90.1695 171.197 89.9516 170.991 89.686C170.58 89.1568 170.001 88.4691 169.336 87.7177C168.006 86.2144 166.356 84.4806 165.069 83.2865C163.304 81.6553 160.926 79.7413 158.866 78.2355C157.837 77.4825 156.894 76.8369 156.152 76.3817C155.781 76.1535 155.468 75.9783 155.225 75.8619C155.115 75.8093 155.026 75.7717 154.956 75.747C154.878 75.8255 154.776 75.9424 154.653 76.0959C154.386 76.4279 154.054 76.891 153.717 77.3995C152.113 79.9379 147.907 84.9596 145.551 87.1883ZM171.568 90.3596C171.568 90.3597 171.568 90.3607 171.568 90.3623C171.568 90.3603 171.568 90.3594 171.568 90.3596ZM171.571 90.5291C171.572 90.5329 171.573 90.5352 171.573 90.5358C171.573 90.5366 171.573 90.5345 171.571 90.5291ZM155.045 75.6659C155.044 75.6664 155.043 75.6673 155.041 75.6686C155.052 75.6622 155.053 75.6597 155.045 75.6659Z" fill="#6BC16B" stroke="#6BC16B"/>
<path d="M57.4258 88.1598C61.3057 83.6489 65.5428 79.91 69.8385 77.1498C70.4602 76.7556 71.0631 76.3954 71.5335 76.1317C71.7694 75.9995 71.9677 75.8939 72.1162 75.8211C72.1399 75.8095 72.1617 75.799 72.1819 75.7895C72.2513 75.8532 72.3401 75.9455 72.4455 76.0667C72.7036 76.3637 73.0209 76.7886 73.3312 77.2653C73.3316 77.2658 73.3319 77.2663 73.3322 77.2668L73.7513 76.9941C82.3664 90.4905 96.8087 99.1251 110.725 99.1251L57.4258 88.1598ZM57.4258 88.1598C56.8832 88.7906 56.3936 89.3993 56.0418 89.8699C55.8653 90.1062 55.7279 90.3017 55.6368 90.4448C55.6278 90.4589 55.6195 90.4722 55.6118 90.4846C55.6259 90.5076 55.6419 90.5331 55.6598 90.561C55.7685 90.7306 55.9302 90.9644 56.1346 91.2464C56.5426 91.809 57.108 92.5454 57.7312 93.3095C65.206 102.449 75.3072 109.482 83.4329 111.283C84.7889 111.575 86.8303 111.67 88.9834 111.577C91.1313 111.485 93.3456 111.209 95.0394 110.782C97.5576 110.128 101.124 108.684 103.141 107.539C106.158 105.784 110.177 102.475 112.148 100.159C112.148 100.158 112.149 100.157 112.15 100.156L112.589 99.6251L57.4258 88.1598Z" fill="#96EC6B" stroke="#96EC6B"/>
<path d="M128.237 20.992L128.236 20.9894L127.316 18.7107L127.555 18.4961C127.669 18.3978 128.066 18.1131 128.651 17.7091C129.225 17.3127 129.947 16.8232 130.677 16.3326C135.16 13.3846 139.251 11.4663 144.436 9.91322C145.255 9.6751 146.034 9.457 146.633 9.29532C146.932 9.21437 147.186 9.14798 147.375 9.10043C147.415 9.09052 147.451 9.0815 147.485 9.07341C147.502 9.1042 147.521 9.14107 147.543 9.18478C147.666 9.43638 147.812 9.82377 147.976 10.3341C148.3 11.3488 148.669 12.7802 149.033 14.4174C149.762 17.6913 150.46 21.7409 150.743 24.8354L150.743 24.8374C150.879 26.2539 150.992 28.8149 150.992 30.5285V33.2957L150.333 33.4099L128.237 20.992ZM128.237 20.992C130.605 26.9535 132.104 32.8983 132.612 38.3729L132.612 38.3729L132.612 38.3763C132.681 39.1714 132.749 39.9064 132.803 40.4485C132.81 40.5181 132.817 40.5845 132.823 40.6474M128.237 20.992L132.823 40.6474M132.823 40.6474C132.932 40.5877 133.052 40.5207 133.184 40.447C133.797 40.1036 134.64 39.6206 135.563 39.0775L135.564 39.0767C140.016 36.4754 146.105 34.1393 150.333 33.4099L132.823 40.6474ZM147.396 8.94199C147.396 8.94256 147.4 8.94706 147.407 8.95377C147.4 8.94477 147.396 8.94142 147.396 8.94199Z" fill="#913EC7" stroke="#913EC7"/>
<path d="M114.082 33.8194V33.8198C114.082 46.32 114.099 54.727 114.139 59.9487C114.156 62.0529 114.175 63.6376 114.199 64.7635C115.175 62.4717 116.443 59.7281 117.143 58.4476L117.144 58.4458C120.645 52.0991 125.578 46.1702 130.51 42.428L130.512 42.4269L131.91 41.3735L131.64 38.5973L131.64 38.5962C131.097 32.8874 129.694 27.4339 127.125 20.878C125.269 16.1667 122.96 12.0601 119.693 7.6284L119.692 7.62721C118.916 6.56813 117.544 4.90673 116.287 3.45841C115.659 2.7356 115.065 2.07056 114.591 1.56475C114.457 1.42062 114.333 1.29041 114.221 1.17609C114.177 1.82799 114.145 2.95873 114.122 4.88334C114.071 9.27303 114.071 17.7174 114.082 33.8194Z" fill="#A24BDB" stroke="#A24BDB"/>
<path d="M76.2621 29.3587L76.2621 29.3596L76.2414 33.183L78.41 33.6782L78.41 33.6782L78.4129 33.6789C83.3304 34.8331 89.1424 37.2713 93.0582 39.8564C93.475 40.1206 93.85 40.344 94.1414 40.5034C94.1609 40.2968 94.1852 40.0594 94.2126 39.8033C94.2851 39.1262 94.384 38.279 94.4899 37.422C94.6994 35.7271 94.9416 33.9495 95.0625 33.3979C96.0052 28.7747 97.5452 23.748 99.1604 20.0455C99.1606 20.0451 99.1608 20.0446 99.161 20.0442L99.7504 18.6737L99.4903 18.437C99.49 18.4368 99.4897 18.4365 99.4894 18.4363C99.0685 18.0574 97.7942 17.1845 96.3475 16.2583C94.9142 15.3406 93.368 14.4061 92.4376 13.9108C89.5667 12.3865 85.8498 10.8842 82.6107 9.90984L82.6099 9.9096C81.7804 9.65859 80.9913 9.43422 80.3912 9.27295C80.0908 9.19223 79.8402 9.12798 79.6567 9.08427C79.6425 9.08088 79.6287 9.07763 79.6155 9.07452C79.5723 9.16184 79.5211 9.27764 79.463 9.42348C79.2921 9.85243 79.0862 10.4779 78.8717 11.2389C77.0772 17.7626 76.2848 23.2443 76.2621 29.3587Z" fill="#A24BDB" stroke="#A24BDB"/>
<path d="M114.059 67.743V67.6415V67.6409V67.5476L114.059 67.5473L114.057 66.4645L152.978 77.3388L152.558 77.0677C152.558 77.0675 152.558 77.0672 152.558 77.0669C153.179 76.1056 153.96 74.9567 154.308 74.4704L154.308 74.4704L154.313 74.4638C154.781 73.8333 155.562 72.3572 156.377 70.5902C157.186 68.8377 158.008 66.8486 158.56 65.2224L158.561 65.2196C161.328 57.2292 162.668 48.2052 162.327 39.4992L162.327 39.4952C162.259 37.285 162.122 35.0284 162.035 34.423L162.035 34.423L162.034 34.4131C161.981 33.9871 161.93 33.7604 161.85 33.6176C161.794 33.5187 161.711 33.4309 161.461 33.3638C161.181 33.2889 160.746 33.2555 160.045 33.2716C159.352 33.2874 158.445 33.3494 157.244 33.4425L157.243 33.4426C151.653 33.8636 146.064 35.2321 141.067 37.4139L141.066 37.4142C129.588 42.4051 120.9 51.5479 115.482 64.3822L115.482 64.3827L114.059 67.743ZM114.059 67.743V83.4228V98.6713M114.059 67.743L114.019 67.8365L113.559 67.7434V83.4228V98.7031L114.059 98.6713M114.059 98.6713V99.1723M114.059 98.6713V99.1723M114.059 99.1723L113.559 99.2041L114.059 99.1723ZM113.013 33.8214L112.947 1.16729L112.765 1.34152C112.764 1.34196 112.764 1.3424 112.763 1.34284C109.471 4.54174 105.364 10.1303 102.502 15.3314L102.502 15.3318C101.016 18.029 98.3786 24.6336 97.3587 28.2696C96.6919 30.6611 96.0443 33.9603 95.6407 36.6998C95.4389 38.0697 95.2998 39.2878 95.2489 40.1754C95.2233 40.622 95.2211 40.9677 95.2403 41.2015C95.2452 41.2612 95.2511 41.3078 95.2568 41.343C95.3226 41.383 95.391 41.4287 95.4574 41.4747C95.5934 41.5687 95.7571 41.6892 95.9397 41.8287C96.3056 42.108 96.7602 42.4728 97.2445 42.8738C98.2121 43.675 99.3128 44.6328 100.078 45.3608C102.348 47.5152 106.512 52.623 108.112 55.239C110.043 58.3928 111.909 62.0328 113.042 64.9358L113.042 64.9362L113.055 64.9698L113.013 33.8217L113.013 33.8214ZM95.2789 41.4332C95.2791 41.4327 95.2774 41.4273 95.2732 41.4184C95.2766 41.4293 95.2787 41.4337 95.2789 41.4332ZM154.715 74.7617C155.72 73.4068 157.914 68.6777 159.034 65.3833C161.822 57.3332 163.17 48.247 162.827 39.4797C162.759 37.2745 162.621 34.9897 162.53 34.3521C162.324 32.6783 162.004 32.572 157.206 32.944C151.561 33.3691 145.917 34.7506 140.867 36.9557L154.715 74.7617ZM116.484 99.0181C127.43 98.3539 137.165 94.1562 145.094 86.7172L116.484 99.0181Z" fill="#D264EA" stroke="#D264EA"/>
<path d="M74.5405 76.9387C74.1709 76.3479 73.8009 75.7899 73.5017 75.361C73.3523 75.1468 73.2185 74.9619 73.11 74.82C73.0169 74.6981 72.9062 74.5585 72.8141 74.482L72.8042 74.4738L72.8037 74.4735C72.8029 74.4719 72.782 74.4508 72.7386 74.3925C72.6858 74.3216 72.6182 74.2211 72.5365 74.0895C72.3734 73.8273 72.1679 73.4646 71.9307 73.0181C71.4569 72.1263 70.8675 70.9208 70.2539 69.5601L70.2531 69.5582C66.4734 61.2696 64.4046 49.8981 64.7905 39.4972C64.8935 36.8351 64.9787 35.2433 65.0929 34.3013C65.1506 33.8252 65.2115 33.5554 65.2685 33.4074C65.2782 33.3821 65.2865 33.3637 65.293 33.3505C65.6113 33.2604 66.2061 33.207 67.0414 33.2098C67.8997 33.2126 68.9547 33.2736 70.1046 33.3839C72.4051 33.6046 75.0549 34.0197 77.2215 34.5444L77.2218 34.5445C83.6601 36.0996 88.4737 38.1502 93.5406 41.4636M74.5405 76.9387C74.5404 76.9385 74.5402 76.9382 74.5401 76.938L74.1171 77.2046L74.541 76.9394C74.5408 76.9392 74.5407 76.9389 74.5405 76.9387ZM74.5405 76.9387C75.3654 78.2475 76.9731 80.2897 78.6977 82.2914C80.4212 84.2919 82.2317 86.2174 83.4515 87.2975M83.4515 87.2975C91.6167 94.476 102.104 98.5966 112.257 98.623M83.4515 87.2975C83.4517 87.2976 83.4519 87.2978 83.4521 87.2979L83.1207 87.6723M83.4515 87.2975C83.4513 87.2972 83.451 87.297 83.4508 87.2968L83.1207 87.6723M112.257 98.623H113.059M112.257 98.623H112.257V99.123M112.257 98.623C112.257 98.623 112.258 98.623 112.258 98.623L112.257 99.123M113.059 98.623V83.3683V67.7341M113.059 98.623H113.559M113.059 98.623V99.123H112.257M113.059 67.7341L112.111 65.298M113.059 67.7341L113.093 67.8216L113.559 67.6402M113.059 67.7341V67.6402H113.559M112.111 65.298C109.893 59.6152 106.975 54.8011 102.782 49.8728M112.111 65.298L112.576 65.1163M112.111 65.298L112.111 65.2976L112.576 65.1163M102.782 49.8728C99.1719 45.6758 97.2631 43.9293 93.5406 41.4636M102.782 49.8728C102.782 49.873 102.782 49.8733 102.783 49.8736L103.162 49.5475M102.782 49.8728C102.782 49.8724 102.781 49.872 102.781 49.8715L103.162 49.5475M93.5406 41.4636C93.5409 41.4638 93.5413 41.4641 93.5416 41.4643L93.8153 41.0458M93.5406 41.4636C93.5401 41.4633 93.5396 41.463 93.5392 41.4627L93.8153 41.0458M93.8153 41.0458C97.5858 43.5432 99.5282 45.3232 103.162 49.5475M93.8153 41.0458C88.6965 37.6983 83.8291 35.626 77.3392 34.0585C72.9516 32.9958 66.6446 32.3847 65.0907 32.8895C64.6336 33.0223 64.4965 34.1648 64.2909 39.4783C63.9024 49.946 65.9819 61.3968 69.7981 69.7656L103.162 49.5475M103.162 49.5475C107.389 54.5157 110.337 59.3776 112.576 65.1163M103.162 49.5475L112.576 65.1163M112.576 65.1163L113.559 67.6402M112.576 65.1163L113.559 67.6402M113.559 67.6402V83.3683V98.623M113.559 67.6402V98.623M113.559 98.623L83.1207 87.6723M112.257 99.123C101.973 99.0965 91.3701 94.9253 83.1207 87.6723M65.3091 33.3227C65.3091 33.3226 65.3084 33.3234 65.3073 33.3251C65.3085 33.3236 65.3091 33.3228 65.3091 33.3227Z" fill="#FA79F4" stroke="#FA79F4"/>
</svg>
