<svg width="234" height="144" viewBox="0 0 234 144" fill="none" xmlns="http://www.w3.org/2000/svg">
<path d="M0.286384 115.361C-3.62222 102.444 33.5583 91.5238 45.935 89.2182C58.3116 86.9125 127.555 79.222 171.13 83.8358C214.705 88.4497 216.786 89.9871 209.171 93.8316C201.556 97.6762 195.338 102.29 195.338 109.21C195.338 116.13 242.37 116.13 232.687 121.512C223.004 126.895 216.845 131.507 201.556 136.122C186.267 140.736 173.205 145.348 102.65 143.042C32.095 140.735 4.19499 128.278 0.286384 115.361Z" fill="#61D243"/>
<path d="M0.286384 106.954C-3.62222 94.0369 33.5583 83.1166 45.935 80.811C58.3116 78.5053 127.555 70.8148 171.13 75.4286C214.705 80.0425 216.786 81.5799 209.171 85.4244C201.556 89.2689 195.338 93.8824 195.338 100.803C195.338 107.723 242.37 107.723 232.687 113.105C223.004 118.487 216.845 123.1 201.556 127.714C186.267 132.329 173.205 136.941 102.65 134.634C32.095 132.328 4.19499 119.871 0.286384 106.954Z" fill="#ABF47D"/>
<path d="M145.551 86.1883L145.55 86.1895C142.779 88.7937 139.868 90.9423 136.544 92.8477L136.544 92.8481C130.057 96.5517 122.751 98.626 116.14 98.626H114.529L114.97 99.1602C116.331 100.767 119.584 103.632 121.725 105.099L121.725 105.099C128.261 109.58 137.353 111.683 143.842 110.231L143.845 110.231C149.848 108.928 157.538 104.343 164.058 98.11L164.06 98.1081C165.389 96.8511 167.289 94.768 168.861 92.9142C169.646 91.9884 170.343 91.1267 170.841 90.4605C171.091 90.1263 171.286 89.8487 171.416 89.6403C171.466 89.5606 171.503 89.4963 171.529 89.4465C171.511 89.4152 171.488 89.3771 171.459 89.3316C171.355 89.1695 171.197 88.9516 170.991 88.686C170.58 88.1568 170.001 87.4691 169.336 86.7177C168.006 85.2144 166.356 83.4806 165.069 82.2865C163.304 80.6553 160.926 78.7413 158.866 77.2355C157.837 76.4825 156.894 75.8369 156.152 75.3817C155.781 75.1535 155.468 74.9783 155.225 74.8619C155.115 74.8093 155.026 74.7717 154.956 74.747C154.878 74.8255 154.776 74.9424 154.653 75.0959C154.386 75.4279 154.054 75.891 153.717 76.3995C152.113 78.9379 147.907 83.9596 145.551 86.1883ZM171.568 89.3596C171.568 89.3597 171.568 89.3607 171.568 89.3623C171.568 89.3603 171.568 89.3594 171.568 89.3596ZM171.571 89.5291C171.572 89.5329 171.573 89.5352 171.573 89.5358C171.573 89.5366 171.573 89.5345 171.571 89.5291ZM155.045 74.6659C155.044 74.6664 155.043 74.6673 155.041 74.6686C155.052 74.6622 155.053 74.6597 155.045 74.6659Z" fill="#6BC16B" stroke="#6BC16B"/>
<path d="M57.4262 87.1598C61.3062 82.6489 65.5432 78.91 69.839 76.1498C70.4606 75.7556 71.0636 75.3954 71.534 75.1317C71.7699 74.9995 71.9682 74.8939 72.1167 74.8211C72.1404 74.8095 72.1622 74.799 72.1823 74.7895C72.2517 74.8532 72.3406 74.9455 72.446 75.0667C72.7041 75.3637 73.0214 75.7886 73.3317 76.2653C73.3321 76.2658 73.3324 76.2663 73.3327 76.2668L73.7518 75.9941C82.3669 89.4905 96.8091 98.1251 110.726 98.1251L57.4262 87.1598ZM57.4262 87.1598C56.8837 87.7906 56.3941 88.3993 56.0423 88.8699C55.8657 89.1062 55.7284 89.3017 55.6373 89.4448C55.6283 89.4589 55.6199 89.4722 55.6122 89.4846C55.6264 89.5076 55.6424 89.5331 55.6603 89.561C55.769 89.7306 55.9306 89.9644 56.1351 90.2464C56.5431 90.809 57.1085 91.5454 57.7317 92.3095C65.2065 101.449 75.3077 108.482 83.4334 110.283C84.7894 110.575 86.8308 110.67 88.9839 110.577C91.1318 110.485 93.3461 110.209 95.0399 109.782C97.5581 109.128 101.125 107.684 103.141 106.539C106.158 104.784 110.177 101.475 112.148 99.1587C112.149 99.1578 112.149 99.157 112.15 99.1561L112.589 98.6251L57.4262 87.1598Z" fill="#96EC6B" stroke="#96EC6B"/>
<path d="M144.301 9.43335C139.068 11.0009 134.932 12.9403 130.408 15.9159C128.945 16.8989 127.505 17.8819 127.231 18.121L126.729 18.5727L127.78 21.1763C130.133 27.1009 131.619 32.999 132.122 38.4188C132.259 40.0129 132.492 42 132.5 42C132.5 42 133.973 40.5974 135.823 39.5081C140.234 36.931 146.5 35 150.426 33.9023L151.5 33.7163V30.5282C151.5 28.8013 151.386 26.2242 151.248 24.7895C150.677 18.5461 148.438 8.50347 147.638 8.53004C147.432 8.55661 145.947 8.95513 144.301 9.43335Z" fill="#913EC7"/>
<path d="M113 33.5239C113 58.5242 113.317 68.4782 113.5 68C114.414 65.6355 116.586 60.6733 117.5 58.9995C120.973 52.7029 126.133 46.7168 131 43.0239L132.5 42.0239L132.5 38.5C131.952 32.7348 130.5 27.5 127.591 20.7188C125.717 15.9632 123.386 11.8186 120.096 7.35522C118.519 5.20322 114.094 0.395921 113.5 0.0239716C113.112 -0.215139 112.977 1.3237 113 33.5239Z" fill="#A24BDB"/>
<path d="M78.128 11.1043C76.3228 17.6665 75.5229 23.1926 75.5001 29.3563L75.5 33.9995L77.7375 34.4995C82.6049 35.6419 88.8754 37.9485 92.7373 40.499C93.7428 41.1367 94.5 41.6327 94.5 41.4998C94.5 40.8091 95.0612 34.5371 95.2897 33.5009C96.2266 28.9047 97.9004 24.1662 99.5 20.4998L100.5 19L99.5629 18.065C98.6489 17.2414 94.307 14.4784 92.4104 13.4688C89.5082 11.9279 85.7605 10.4135 82.4927 9.4305C80.8245 8.92571 79.3163 8.52719 79.1564 8.52719C78.9736 8.52719 78.5622 9.56333 78.128 11.1043Z" fill="#A24BDB"/>
<path d="M112.416 0.982895C109.08 4.22417 104.944 9.85655 102.064 15.0904C100.556 17.8269 97.5281 24.3336 96.4998 28C95.1515 32.8353 93.883 41.7078 94.5 42C94.9799 42.2125 98.2251 44.2884 99.7333 45.7231C101.973 47.8485 106.109 52.923 107.686 55.5C109.605 58.6351 111.456 62.2483 112.576 65.1176L113.559 67.6415V83.4228V99.2041L116.484 99.0181C127.43 98.3539 137.164 94.1562 145.094 86.7172C147.219 84.7246 151.47 79.6502 152.978 77.3388C153.595 76.3823 154.372 75.2399 154.715 74.7617C155.72 73.4068 157.914 68.6777 159.033 65.3833C161.821 57.3332 163.17 48.247 162.827 39.4797C162.758 37.2745 162.621 34.9897 162.53 34.3521C162.324 32.6783 162.004 32.572 157.205 32.944C151.561 33.3691 145.917 34.7506 140.866 36.9557C129.258 42.0036 120.483 51.2492 115.021 64.1877L113.559 67.6415L113.513 33.8207L113.444 -0.000114441L112.416 0.982895Z" fill="#D264EA"/>
<path d="M65.0907 32.8895C64.6336 33.0223 64.4965 34.1648 64.2909 39.4783C63.9024 49.946 65.9819 61.3968 69.7981 69.7656C71.0321 72.5021 72.1747 74.6275 72.4946 74.8666C72.6546 74.9995 73.3858 76.0356 74.1171 77.2046C75.8081 79.888 80.6298 85.4672 83.1207 87.6723C91.3701 94.9253 101.973 99.0965 112.257 99.123H113.559V83.3683V67.6402L112.576 65.1163C110.337 59.3776 107.728 54.4682 103.5 49.5C99.8666 45.2757 97.5858 43.5432 93.8153 41.0458C88.6965 37.6983 83.8291 35.626 77.3392 34.0585C72.9516 32.9958 66.6446 32.3847 65.0907 32.8895Z" fill="#FA79F4"/>
</svg>
